<?xml version="1.0" encoding="UTF-8" standalone="no"?>
<!DOCTYPE svg PUBLIC "-//W3C//DTD SVG 1.1//EN"
 "http://www.w3.org/Graphics/SVG/1.1/DTD/svg11.dtd">
<!-- Generated by graphviz version 2.40.1 (20161225.0304)
 -->
<!-- Title: act_integer_init Pages: 1 -->
<svg width="1063pt" height="104pt"
 viewBox="0.00 0.00 1063.00 104.00" xmlns="http://www.w3.org/2000/svg" xmlns:xlink="http://www.w3.org/1999/xlink">
<g id="graph0" class="graph" transform="scale(1 1) rotate(0) translate(4 100)">
<title>act_integer_init</title>
<!-- Node12 -->
<g id="node1" class="node">
<title>Node12</title>
<polygon fill="#bfbfbf" stroke="#000000" points="0,-57.5 0,-76.5 83,-76.5 83,-57.5 0,-57.5"/>
<text text-anchor="middle" x="41.5" y="-64.5" font-family="Helvetica,sans-Serif" font-size="10.00" fill="#000000">act_integer_init</text>
</g>
<!-- Node13 -->
<g id="node2" class="node">
<title>Node13</title>
<g id="a_node2"><a xlink:href="$act__integer_8c.html#ae71a370bc0d0b40e3091a68e99f8a762" xlink:title="act_integer_rand">
<polygon fill="none" stroke="#000000" points="119,-76.5 119,-95.5 208,-95.5 208,-76.5 119,-76.5"/>
<text text-anchor="middle" x="163.5" y="-83.5" font-family="Helvetica,sans-Serif" font-size="10.00" fill="#000000">act_integer_rand</text>
</a>
</g>
</g>
<!-- Node12&#45;&gt;Node13 -->
<g id="edge1" class="edge">
<title>Node12&#45;&gt;Node13</title>
<path fill="none" stroke="#191970" d="M83.1443,-73.4856C91.3802,-74.7682 100.1413,-76.1327 108.7355,-77.4711"/>
<polygon fill="#191970" stroke="#191970" points="108.2868,-80.9433 118.7064,-79.0239 109.3641,-74.0267 108.2868,-80.9433"/>
</g>
<!-- Node20 -->
<g id="node9" class="node">
<title>Node20</title>
<g id="a_node9"><a xlink:href="$sam_8c.html#a3164f33509a5dc751b57a544fe2153a7" xlink:title="Initialises self&#45;adaptive mutation rates. ">
<polygon fill="none" stroke="#000000" points="137,-38.5 137,-57.5 190,-57.5 190,-38.5 137,-38.5"/>
<text text-anchor="middle" x="163.5" y="-45.5" font-family="Helvetica,sans-Serif" font-size="10.00" fill="#000000">sam_init</text>
</a>
</g>
</g>
<!-- Node12&#45;&gt;Node20 -->
<g id="edge8" class="edge">
<title>Node12&#45;&gt;Node20</title>
<path fill="none" stroke="#191970" d="M83.1443,-60.5144C97.336,-58.3042 113.0872,-55.8512 126.857,-53.7067"/>
<polygon fill="#191970" stroke="#191970" points="127.5998,-57.1333 136.942,-52.1361 126.5225,-50.2167 127.5998,-57.1333"/>
</g>
<!-- Node14 -->
<g id="node3" class="node">
<title>Node14</title>
<g id="a_node3"><a xlink:href="$utils_8c.html#a32648ab076544a9ac1c086d0f07b599f" xlink:title="Returns a uniform random integer [min,max] not inclusive of max. ">
<polygon fill="none" stroke="#000000" points="414.5,-38.5 414.5,-57.5 489.5,-57.5 489.5,-38.5 414.5,-38.5"/>
<text text-anchor="middle" x="452" y="-45.5" font-family="Helvetica,sans-Serif" font-size="10.00" fill="#000000">irand_uniform</text>
</a>
</g>
</g>
<!-- Node13&#45;&gt;Node14 -->
<g id="edge2" class="edge">
<title>Node13&#45;&gt;Node14</title>
<path fill="none" stroke="#191970" d="M208.0543,-83.2346C248.6054,-80.3675 310.0431,-75.1466 363,-67 376.4394,-64.9325 390.9013,-62.1078 404.1792,-59.2687"/>
<polygon fill="#191970" stroke="#191970" points="405.044,-62.6623 414.0656,-57.107 403.5488,-55.8239 405.044,-62.6623"/>
</g>
<!-- Node15 -->
<g id="node4" class="node">
<title>Node15</title>
<g id="a_node4"><a xlink:href="$utils_8c.html#ae42a9e1d467853befaa7922cfafed3bb" xlink:title="Returns a uniform random float [min,max]. ">
<polygon fill="none" stroke="#000000" points="541,-19.5 541,-38.5 614,-38.5 614,-19.5 541,-19.5"/>
<text text-anchor="middle" x="577.5" y="-26.5" font-family="Helvetica,sans-Serif" font-size="10.00" fill="#000000">rand_uniform</text>
</a>
</g>
</g>
<!-- Node14&#45;&gt;Node15 -->
<g id="edge3" class="edge">
<title>Node14&#45;&gt;Node15</title>
<path fill="none" stroke="#191970" d="M489.6541,-42.2994C502.542,-40.3482 517.1208,-38.1411 530.6451,-36.0936"/>
<polygon fill="#191970" stroke="#191970" points="531.3727,-39.5234 540.7361,-34.5658 530.3248,-32.6023 531.3727,-39.5234"/>
</g>
<!-- Node16 -->
<g id="node5" class="node">
<title>Node16</title>
<g id="a_node5"><a xlink:href="$utils_8c.html#a101d27cdda714b7f17a06224c65cac56" xlink:title="Returns a uniform random float [0,1]. ">
<polygon fill="none" stroke="#000000" points="650,-19.5 650,-38.5 691,-38.5 691,-19.5 650,-19.5"/>
<text text-anchor="middle" x="670.5" y="-26.5" font-family="Helvetica,sans-Serif" font-size="10.00" fill="#000000">drand</text>
</a>
</g>
</g>
<!-- Node15&#45;&gt;Node16 -->
<g id="edge4" class="edge">
<title>Node15&#45;&gt;Node16</title>
<path fill="none" stroke="#191970" d="M614.2561,-29C622.658,-29 631.5043,-29 639.63,-29"/>
<polygon fill="#191970" stroke="#191970" points="639.799,-32.5001 649.7989,-29 639.7989,-25.5001 639.799,-32.5001"/>
</g>
<!-- Node17 -->
<g id="node6" class="node">
<title>Node17</title>
<g id="a_node6"><a xlink:href="$mt19937-64_8c.html#aa0b74daf51eca91df224d00f1730084a" xlink:title="genrand64_real1">
<polygon fill="none" stroke="#000000" points="727,-19.5 727,-38.5 815,-38.5 815,-19.5 727,-19.5"/>
<text text-anchor="middle" x="771" y="-26.5" font-family="Helvetica,sans-Serif" font-size="10.00" fill="#000000">genrand64_real1</text>
</a>
</g>
</g>
<!-- Node16&#45;&gt;Node17 -->
<g id="edge5" class="edge">
<title>Node16&#45;&gt;Node17</title>
<path fill="none" stroke="#191970" d="M691.3237,-29C698.8428,-29 707.7193,-29 716.769,-29"/>
<polygon fill="#191970" stroke="#191970" points="716.9969,-32.5001 726.9969,-29 716.9969,-25.5001 716.9969,-32.5001"/>
</g>
<!-- Node18 -->
<g id="node7" class="node">
<title>Node18</title>
<g id="a_node7"><a xlink:href="$mt19937-64_8c.html#a265bf48d20d6e0347371fcf4fe340e6d" xlink:title="genrand64_int64">
<polygon fill="none" stroke="#000000" points="851,-19.5 851,-38.5 939,-38.5 939,-19.5 851,-19.5"/>
<text text-anchor="middle" x="895" y="-26.5" font-family="Helvetica,sans-Serif" font-size="10.00" fill="#000000">genrand64_int64</text>
</a>
</g>
</g>
<!-- Node17&#45;&gt;Node18 -->
<g id="edge6" class="edge">
<title>Node17&#45;&gt;Node18</title>
<path fill="none" stroke="#191970" d="M815.0669,-29C823.2822,-29 831.957,-29 840.4432,-29"/>
<polygon fill="#191970" stroke="#191970" points="840.6572,-32.5001 850.6572,-29 840.6572,-25.5001 840.6572,-32.5001"/>
</g>
<!-- Node19 -->
<g id="node8" class="node">
<title>Node19</title>
<g id="a_node8"><a xlink:href="$mt19937-64_8c.html#adf4127d44c2dc34fcb318d406131ef7c" xlink:title="init_genrand64">
<polygon fill="none" stroke="#000000" points="975,-19.5 975,-38.5 1055,-38.5 1055,-19.5 975,-19.5"/>
<text text-anchor="middle" x="1015" y="-26.5" font-family="Helvetica,sans-Serif" font-size="10.00" fill="#000000">init_genrand64</text>
</a>
</g>
</g>
<!-- Node18&#45;&gt;Node19 -->
<g id="edge7" class="edge">
<title>Node18&#45;&gt;Node19</title>
<path fill="none" stroke="#191970" d="M939.0022,-29C947.3719,-29 956.1896,-29 964.7365,-29"/>
<polygon fill="#191970" stroke="#191970" points="964.9792,-32.5001 974.9792,-29 964.9792,-25.5001 964.9792,-32.5001"/>
</g>
<!-- Node21 -->
<g id="node10" class="node">
<title>Node21</title>
<g id="a_node10"><a xlink:href="$sam_8c.html#a3376574f2624a397ac253242b1958491" xlink:title="Initialises log normal self&#45;adaptive mutation rates. ">
<polygon fill="none" stroke="#000000" points="399,-.5 399,-19.5 505,-19.5 505,-.5 399,-.5"/>
<text text-anchor="middle" x="452" y="-7.5" font-family="Helvetica,sans-Serif" font-size="10.00" fill="#000000">sam_log_normal_init</text>
</a>
</g>
</g>
<!-- Node20&#45;&gt;Node21 -->
<g id="edge9" class="edge">
<title>Node20&#45;&gt;Node21</title>
<path fill="none" stroke="#191970" d="M190.1439,-40.7158C205.7336,-36.7044 225.8586,-31.9544 244,-29 292.171,-21.1551 347.185,-16.3072 388.531,-13.4735"/>
<polygon fill="#191970" stroke="#191970" points="388.9896,-16.9508 398.7357,-12.7958 388.5257,-9.9662 388.9896,-16.9508"/>
</g>
<!-- Node22 -->
<g id="node11" class="node">
<title>Node22</title>
<g id="a_node11"><a xlink:href="$sam_8c.html#a5c510f09cd5f6069b67e1b9a59df7acc" xlink:title="Initialises rate selection self&#45;adaptive mutation. ">
<polygon fill="none" stroke="#000000" points="244,-38.5 244,-57.5 363,-57.5 363,-38.5 244,-38.5"/>
<text text-anchor="middle" x="303.5" y="-45.5" font-family="Helvetica,sans-Serif" font-size="10.00" fill="#000000">sam_rate_selection_init</text>
</a>
</g>
</g>
<!-- Node20&#45;&gt;Node22 -->
<g id="edge11" class="edge">
<title>Node20&#45;&gt;Node22</title>
<path fill="none" stroke="#191970" d="M190.1625,-48C202.6578,-48 218.1905,-48 233.7095,-48"/>
<polygon fill="#191970" stroke="#191970" points="233.8737,-51.5001 243.8736,-48 233.8736,-44.5001 233.8737,-51.5001"/>
</g>
<!-- Node21&#45;&gt;Node15 -->
<g id="edge10" class="edge">
<title>Node21&#45;&gt;Node15</title>
<path fill="none" stroke="#191970" d="M505.2233,-18.0577C513.7725,-19.352 522.5632,-20.6829 530.9406,-21.9512"/>
<polygon fill="#191970" stroke="#191970" points="530.4991,-25.4241 540.9103,-23.4605 531.5469,-18.503 530.4991,-25.4241"/>
</g>
<!-- Node22&#45;&gt;Node14 -->
<g id="edge12" class="edge">
<title>Node22&#45;&gt;Node14</title>
<path fill="none" stroke="#191970" d="M363.045,-48C376.6704,-48 390.9841,-48 404.05,-48"/>
<polygon fill="#191970" stroke="#191970" points="404.2241,-51.5001 414.2241,-48 404.2241,-44.5001 404.2241,-51.5001"/>
</g>
</g>
</svg>
