<?xml version="1.0" encoding="UTF-8" standalone="no"?>
<!DOCTYPE svg PUBLIC "-//W3C//DTD SVG 1.1//EN"
 "http://www.w3.org/Graphics/SVG/1.1/DTD/svg11.dtd">
<!-- Generated by graphviz version 2.40.1 (20161225.0304)
 -->
<!-- Title: act_integer.c Pages: 1 -->
<svg width="609pt" height="84pt"
 viewBox="0.00 0.00 608.50 84.00" xmlns="http://www.w3.org/2000/svg" xmlns:xlink="http://www.w3.org/1999/xlink">
<g id="graph0" class="graph" transform="scale(1 1) rotate(0) translate(4 80)">
<title>act_integer.c</title>
<!-- Node0 -->
<g id="node1" class="node">
<title>Node0</title>
<polygon fill="#bfbfbf" stroke="#000000" points="257.5,-56.5 257.5,-75.5 330.5,-75.5 330.5,-56.5 257.5,-56.5"/>
<text text-anchor="middle" x="294" y="-63.5" font-family="Helvetica,sans-Serif" font-size="10.00" fill="#000000">act_integer.c</text>
</g>
<!-- Node1 -->
<g id="node2" class="node">
<title>Node1</title>
<polygon fill="none" stroke="#bfbfbf" points="0,-.5 0,-19.5 46,-19.5 46,-.5 0,-.5"/>
<text text-anchor="middle" x="23" y="-7.5" font-family="Helvetica,sans-Serif" font-size="10.00" fill="#000000">stdio.h</text>
</g>
<!-- Node0&#45;&gt;Node1 -->
<g id="edge1" class="edge">
<title>Node0&#45;&gt;Node1</title>
<path fill="none" stroke="#191970" d="M257.2769,-60.2546C212.0491,-52.8894 132.7372,-39.0353 56.1423,-20.0845"/>
<polygon fill="#191970" stroke="#191970" points="56.8832,-16.662 46.3323,-17.625 55.1809,-23.4518 56.8832,-16.662"/>
</g>
<!-- Node2 -->
<g id="node3" class="node">
<title>Node2</title>
<polygon fill="none" stroke="#bfbfbf" points="64,-.5 64,-19.5 112,-19.5 112,-.5 64,-.5"/>
<text text-anchor="middle" x="88" y="-7.5" font-family="Helvetica,sans-Serif" font-size="10.00" fill="#000000">stdlib.h</text>
</g>
<!-- Node0&#45;&gt;Node2 -->
<g id="edge2" class="edge">
<title>Node0&#45;&gt;Node2</title>
<path fill="none" stroke="#191970" d="M257.4498,-56.6705C224.4225,-48.1538 174.2448,-35.0014 121.9149,-20.197"/>
<polygon fill="#191970" stroke="#191970" points="122.6983,-16.7811 112.1224,-17.4142 120.7848,-23.5145 122.6983,-16.7811"/>
</g>
<!-- Node3 -->
<g id="node4" class="node">
<title>Node3</title>
<polygon fill="none" stroke="#bfbfbf" points="130.5,-.5 130.5,-19.5 179.5,-19.5 179.5,-.5 130.5,-.5"/>
<text text-anchor="middle" x="155" y="-7.5" font-family="Helvetica,sans-Serif" font-size="10.00" fill="#000000">string.h</text>
</g>
<!-- Node0&#45;&gt;Node3 -->
<g id="edge3" class="edge">
<title>Node0&#45;&gt;Node3</title>
<path fill="none" stroke="#191970" d="M270.105,-56.3733C247.4918,-47.2629 213.3458,-33.5062 188.1127,-23.3404"/>
<polygon fill="#191970" stroke="#191970" points="189.1666,-19.9917 178.5831,-19.5011 186.5507,-26.4845 189.1666,-19.9917"/>
</g>
<!-- Node4 -->
<g id="node5" class="node">
<title>Node4</title>
<polygon fill="none" stroke="#bfbfbf" points="198,-.5 198,-19.5 254,-19.5 254,-.5 198,-.5"/>
<text text-anchor="middle" x="226" y="-7.5" font-family="Helvetica,sans-Serif" font-size="10.00" fill="#000000">stdbool.h</text>
</g>
<!-- Node0&#45;&gt;Node4 -->
<g id="edge4" class="edge">
<title>Node0&#45;&gt;Node4</title>
<path fill="none" stroke="#191970" d="M282.1553,-56.2455C272.112,-47.9746 257.5005,-35.9416 245.6996,-26.2232"/>
<polygon fill="#191970" stroke="#191970" points="247.6533,-23.298 237.709,-19.6427 243.2033,-28.7015 247.6533,-23.298"/>
</g>
<!-- Node5 -->
<g id="node6" class="node">
<title>Node5</title>
<g id="a_node6"><a xlink:href="xcsf_8h.html" target="_top" xlink:title="XCSF data structures. ">
<polygon fill="none" stroke="#000000" points="272,-.5 272,-19.5 316,-19.5 316,-.5 272,-.5"/>
<text text-anchor="middle" x="294" y="-7.5" font-family="Helvetica,sans-Serif" font-size="10.00" fill="#000000">xcsf.h</text>
</a>
</g>
</g>
<!-- Node0&#45;&gt;Node5 -->
<g id="edge5" class="edge">
<title>Node0&#45;&gt;Node5</title>
<path fill="none" stroke="#191970" d="M294,-56.2455C294,-48.9382 294,-38.6944 294,-29.7046"/>
<polygon fill="#191970" stroke="#191970" points="297.5001,-29.6426 294,-19.6427 290.5001,-29.6427 297.5001,-29.6426"/>
</g>
<!-- Node6 -->
<g id="node7" class="node">
<title>Node6</title>
<g id="a_node7"><a xlink:href="utils_8h.html" target="_top" xlink:title="Utility functions for random number handling, etc. ">
<polygon fill="none" stroke="#000000" points="334.5,-.5 334.5,-19.5 377.5,-19.5 377.5,-.5 334.5,-.5"/>
<text text-anchor="middle" x="356" y="-7.5" font-family="Helvetica,sans-Serif" font-size="10.00" fill="#000000">utils.h</text>
</a>
</g>
</g>
<!-- Node0&#45;&gt;Node6 -->
<g id="edge6" class="edge">
<title>Node0&#45;&gt;Node6</title>
<path fill="none" stroke="#191970" d="M304.7996,-56.2455C313.8678,-48.0549 327.0206,-36.1749 337.7245,-26.5069"/>
<polygon fill="#191970" stroke="#191970" points="340.2491,-28.9429 345.3242,-19.6427 335.5571,-23.7482 340.2491,-28.9429"/>
</g>
<!-- Node7 -->
<g id="node8" class="node">
<title>Node7</title>
<g id="a_node8"><a xlink:href="sam_8h.html" target="_top" xlink:title="Self&#45;adaptive mutation functions. ">
<polygon fill="none" stroke="#000000" points="396,-.5 396,-19.5 440,-19.5 440,-.5 396,-.5"/>
<text text-anchor="middle" x="418" y="-7.5" font-family="Helvetica,sans-Serif" font-size="10.00" fill="#000000">sam.h</text>
</a>
</g>
</g>
<!-- Node0&#45;&gt;Node7 -->
<g id="edge7" class="edge">
<title>Node0&#45;&gt;Node7</title>
<path fill="none" stroke="#191970" d="M315.3164,-56.3733C335.2216,-47.3838 365.1436,-33.8706 387.56,-23.7471"/>
<polygon fill="#191970" stroke="#191970" points="389.2887,-26.8068 396.9618,-19.5011 386.4075,-20.4272 389.2887,-26.8068"/>
</g>
<!-- Node8 -->
<g id="node9" class="node">
<title>Node8</title>
<g id="a_node9"><a xlink:href="action_8h.html" target="_top" xlink:title="Interface for classifier actions. ">
<polygon fill="none" stroke="#000000" points="458.5,-.5 458.5,-19.5 509.5,-19.5 509.5,-.5 458.5,-.5"/>
<text text-anchor="middle" x="484" y="-7.5" font-family="Helvetica,sans-Serif" font-size="10.00" fill="#000000">action.h</text>
</a>
</g>
</g>
<!-- Node0&#45;&gt;Node8 -->
<g id="edge8" class="edge">
<title>Node0&#45;&gt;Node8</title>
<path fill="none" stroke="#191970" d="M326.6622,-56.3733C360.6543,-46.3545 413.7107,-30.7168 448.6638,-20.4149"/>
<polygon fill="#191970" stroke="#191970" points="449.8472,-23.715 458.4498,-17.5306 447.8682,-17.0006 449.8472,-23.715"/>
</g>
<!-- Node9 -->
<g id="node10" class="node">
<title>Node9</title>
<g id="a_node10"><a xlink:href="act__integer_8h.html" target="_top" xlink:title="integer action functions. ">
<polygon fill="none" stroke="#000000" points="527.5,-.5 527.5,-19.5 600.5,-19.5 600.5,-.5 527.5,-.5"/>
<text text-anchor="middle" x="564" y="-7.5" font-family="Helvetica,sans-Serif" font-size="10.00" fill="#000000">act_integer.h</text>
</a>
</g>
</g>
<!-- Node0&#45;&gt;Node9 -->
<g id="edge9" class="edge">
<title>Node0&#45;&gt;Node9</title>
<path fill="none" stroke="#191970" d="M330.6734,-58.7015C373.2401,-50.1862 445.8178,-35.5325 517.1242,-20.3781"/>
<polygon fill="#191970" stroke="#191970" points="518.123,-23.7439 527.1742,-18.237 516.6643,-16.8976 518.123,-23.7439"/>
</g>
</g>
</svg>
