<?xml version="1.0" encoding="UTF-8" standalone="no"?>
<!DOCTYPE svg PUBLIC "-//W3C//DTD SVG 1.1//EN"
 "http://www.w3.org/Graphics/SVG/1.1/DTD/svg11.dtd">
<!-- Generated by graphviz version 2.40.1 (20161225.0304)
 -->
<!-- Title: act_integer_init Pages: 1 -->
<svg width="1263pt" height="85pt"
 viewBox="0.00 0.00 1263.00 85.00" xmlns="http://www.w3.org/2000/svg" xmlns:xlink="http://www.w3.org/1999/xlink">
<g id="graph0" class="graph" transform="scale(1 1) rotate(0) translate(4 81)">
<title>act_integer_init</title>
<!-- Node12 -->
<g id="node1" class="node">
<title>Node12</title>
<polygon fill="#bfbfbf" stroke="#000000" points="0,-57.5 0,-76.5 83,-76.5 83,-57.5 0,-57.5"/>
<text text-anchor="middle" x="41.5" y="-64.5" font-family="Helvetica,sans-Serif" font-size="10.00" fill="#000000">act_integer_init</text>
</g>
<!-- Node13 -->
<g id="node2" class="node">
<title>Node13</title>
<g id="a_node2"><a xlink:href="utils_8c.html#a32648ab076544a9ac1c086d0f07b599f" target="_top" xlink:title="Returns a uniform random integer [min,max] not inclusive of max. ">
<polygon fill="none" stroke="#000000" points="378.5,-38.5 378.5,-57.5 453.5,-57.5 453.5,-38.5 378.5,-38.5"/>
<text text-anchor="middle" x="416" y="-45.5" font-family="Helvetica,sans-Serif" font-size="10.00" fill="#000000">irand_uniform</text>
</a>
</g>
</g>
<!-- Node12&#45;&gt;Node13 -->
<g id="edge1" class="edge">
<title>Node12&#45;&gt;Node13</title>
<path fill="none" stroke="#191970" d="M83.2519,-69.7346C138.9985,-72.7618 240.7387,-76.1051 327,-67 341.0232,-65.5198 356.086,-62.7624 369.7591,-59.7981"/>
<polygon fill="#191970" stroke="#191970" points="370.9196,-63.1243 379.9038,-57.5088 369.3786,-56.2961 370.9196,-63.1243"/>
</g>
<!-- Node20 -->
<g id="node9" class="node">
<title>Node20</title>
<g id="a_node9"><a xlink:href="sam_8c.html#a3164f33509a5dc751b57a544fe2153a7" target="_top" xlink:title="Initialises self&#45;adaptive mutation rates. ">
<polygon fill="none" stroke="#000000" points="119,-38.5 119,-57.5 172,-57.5 172,-38.5 119,-38.5"/>
<text text-anchor="middle" x="145.5" y="-45.5" font-family="Helvetica,sans-Serif" font-size="10.00" fill="#000000">sam_init</text>
</a>
</g>
</g>
<!-- Node12&#45;&gt;Node20 -->
<g id="edge8" class="edge">
<title>Node12&#45;&gt;Node20</title>
<path fill="none" stroke="#191970" d="M83.2015,-59.3815C91.6252,-57.8425 100.4245,-56.235 108.6666,-54.7292"/>
<polygon fill="#191970" stroke="#191970" points="109.5304,-58.1294 118.7385,-52.8891 108.2723,-51.2434 109.5304,-58.1294"/>
</g>
<!-- Node14 -->
<g id="node3" class="node">
<title>Node14</title>
<g id="a_node3"><a xlink:href="utils_8c.html#ae42a9e1d467853befaa7922cfafed3bb" target="_top" xlink:title="Returns a uniform random float [min,max]. ">
<polygon fill="none" stroke="#000000" points="505,-19.5 505,-38.5 578,-38.5 578,-19.5 505,-19.5"/>
<text text-anchor="middle" x="541.5" y="-26.5" font-family="Helvetica,sans-Serif" font-size="10.00" fill="#000000">rand_uniform</text>
</a>
</g>
</g>
<!-- Node13&#45;&gt;Node14 -->
<g id="edge2" class="edge">
<title>Node13&#45;&gt;Node14</title>
<path fill="none" stroke="#191970" d="M453.6541,-42.2994C466.542,-40.3482 481.1208,-38.1411 494.6451,-36.0936"/>
<polygon fill="#191970" stroke="#191970" points="495.3727,-39.5234 504.7361,-34.5658 494.3248,-32.6023 495.3727,-39.5234"/>
</g>
<!-- Node15 -->
<g id="node4" class="node">
<title>Node15</title>
<g id="a_node4"><a xlink:href="utils_8c.html#a101d27cdda714b7f17a06224c65cac56" target="_top" xlink:title="Returns a uniform random float (0,1) ">
<polygon fill="none" stroke="#000000" points="614,-19.5 614,-38.5 655,-38.5 655,-19.5 614,-19.5"/>
<text text-anchor="middle" x="634.5" y="-26.5" font-family="Helvetica,sans-Serif" font-size="10.00" fill="#000000">drand</text>
</a>
</g>
</g>
<!-- Node14&#45;&gt;Node15 -->
<g id="edge3" class="edge">
<title>Node14&#45;&gt;Node15</title>
<path fill="none" stroke="#191970" d="M578.2561,-29C586.658,-29 595.5043,-29 603.63,-29"/>
<polygon fill="#191970" stroke="#191970" points="603.799,-32.5001 613.7989,-29 603.7989,-25.5001 603.799,-32.5001"/>
</g>
<!-- Node16 -->
<g id="node5" class="node">
<title>Node16</title>
<g id="a_node5"><a xlink:href="dSFMT_8h.html#af6dbcef408462da1f40edd1a1ea5dcd3" target="_top" xlink:title="dsfmt_gv_genrand_open_open">
<polygon fill="none" stroke="#000000" points="691,-19.5 691,-38.5 840,-38.5 840,-19.5 691,-19.5"/>
<text text-anchor="middle" x="765.5" y="-26.5" font-family="Helvetica,sans-Serif" font-size="10.00" fill="#000000">dsfmt_gv_genrand_open_open</text>
</a>
</g>
</g>
<!-- Node15&#45;&gt;Node16 -->
<g id="edge4" class="edge">
<title>Node15&#45;&gt;Node16</title>
<path fill="none" stroke="#191970" d="M655.2573,-29C662.5688,-29 671.3051,-29 680.6156,-29"/>
<polygon fill="#191970" stroke="#191970" points="680.9038,-32.5001 690.9037,-29 680.9037,-25.5001 680.9038,-32.5001"/>
</g>
<!-- Node17 -->
<g id="node6" class="node">
<title>Node17</title>
<g id="a_node6"><a xlink:href="dSFMT_8h.html#a147a0a05c969a4cb5d92ce3963b839c2" target="_top" xlink:title="dsfmt_genrand_open_open">
<polygon fill="none" stroke="#000000" points="876,-19.5 876,-38.5 1010,-38.5 1010,-19.5 876,-19.5"/>
<text text-anchor="middle" x="943" y="-26.5" font-family="Helvetica,sans-Serif" font-size="10.00" fill="#000000">dsfmt_genrand_open_open</text>
</a>
</g>
</g>
<!-- Node16&#45;&gt;Node17 -->
<g id="edge5" class="edge">
<title>Node16&#45;&gt;Node17</title>
<path fill="none" stroke="#191970" d="M840.0045,-29C848.4355,-29 857.0427,-29 865.5109,-29"/>
<polygon fill="#191970" stroke="#191970" points="865.7501,-32.5001 875.75,-29 865.75,-25.5001 865.7501,-32.5001"/>
</g>
<!-- Node18 -->
<g id="node7" class="node">
<title>Node18</title>
<g id="a_node7"><a xlink:href="dSFMT_8h.html#afccb1e4d75cea7ffe3b45cba53d1e5e0" target="_top" xlink:title="dsfmt_gen_rand_all">
<polygon fill="none" stroke="#000000" points="1046,-19.5 1046,-38.5 1147,-38.5 1147,-19.5 1046,-19.5"/>
<text text-anchor="middle" x="1096.5" y="-26.5" font-family="Helvetica,sans-Serif" font-size="10.00" fill="#000000">dsfmt_gen_rand_all</text>
</a>
</g>
</g>
<!-- Node17&#45;&gt;Node18 -->
<g id="edge6" class="edge">
<title>Node17&#45;&gt;Node18</title>
<path fill="none" stroke="#191970" d="M1010.3273,-29C1018.8031,-29 1027.4345,-29 1035.7997,-29"/>
<polygon fill="#191970" stroke="#191970" points="1035.8429,-32.5001 1045.8429,-29 1035.8428,-25.5001 1035.8429,-32.5001"/>
</g>
<!-- Node19 -->
<g id="node8" class="node">
<title>Node19</title>
<g id="a_node8"><a xlink:href="dSFMT-common_8h.html#a43e33e2235015c9c072bad7dfe1a282c" target="_top" xlink:title="do_recursion">
<polygon fill="none" stroke="#000000" points="1183,-19.5 1183,-38.5 1255,-38.5 1255,-19.5 1183,-19.5"/>
<text text-anchor="middle" x="1219" y="-26.5" font-family="Helvetica,sans-Serif" font-size="10.00" fill="#000000">do_recursion</text>
</a>
</g>
</g>
<!-- Node18&#45;&gt;Node19 -->
<g id="edge7" class="edge">
<title>Node18&#45;&gt;Node19</title>
<path fill="none" stroke="#191970" d="M1147.0327,-29C1155.5603,-29 1164.3741,-29 1172.7846,-29"/>
<polygon fill="#191970" stroke="#191970" points="1172.7975,-32.5001 1182.7974,-29 1172.7974,-25.5001 1172.7975,-32.5001"/>
</g>
<!-- Node21 -->
<g id="node10" class="node">
<title>Node21</title>
<g id="a_node10"><a xlink:href="sam_8c.html#a3376574f2624a397ac253242b1958491" target="_top" xlink:title="Initialises log normal self&#45;adaptive mutation rates. ">
<polygon fill="none" stroke="#000000" points="363,-.5 363,-19.5 469,-19.5 469,-.5 363,-.5"/>
<text text-anchor="middle" x="416" y="-7.5" font-family="Helvetica,sans-Serif" font-size="10.00" fill="#000000">sam_log_normal_init</text>
</a>
</g>
</g>
<!-- Node20&#45;&gt;Node21 -->
<g id="edge9" class="edge">
<title>Node20&#45;&gt;Node21</title>
<path fill="none" stroke="#191970" d="M172.2682,-38.5498C183.2182,-35.0301 196.0907,-31.3288 208,-29 255.8985,-19.6337 310.9265,-14.8642 352.3471,-12.447"/>
<polygon fill="#191970" stroke="#191970" points="352.7804,-15.9284 362.5719,-11.8817 352.394,-8.9391 352.7804,-15.9284"/>
</g>
<!-- Node22 -->
<g id="node11" class="node">
<title>Node22</title>
<g id="a_node11"><a xlink:href="sam_8c.html#a5c510f09cd5f6069b67e1b9a59df7acc" target="_top" xlink:title="Initialises rate selection self&#45;adaptive mutation. ">
<polygon fill="none" stroke="#000000" points="208,-38.5 208,-57.5 327,-57.5 327,-38.5 208,-38.5"/>
<text text-anchor="middle" x="267.5" y="-45.5" font-family="Helvetica,sans-Serif" font-size="10.00" fill="#000000">sam_rate_selection_init</text>
</a>
</g>
</g>
<!-- Node20&#45;&gt;Node22 -->
<g id="edge11" class="edge">
<title>Node20&#45;&gt;Node22</title>
<path fill="none" stroke="#191970" d="M172.2734,-48C179.9178,-48 188.6225,-48 197.5897,-48"/>
<polygon fill="#191970" stroke="#191970" points="197.783,-51.5001 207.783,-48 197.783,-44.5001 197.783,-51.5001"/>
</g>
<!-- Node21&#45;&gt;Node14 -->
<g id="edge10" class="edge">
<title>Node21&#45;&gt;Node14</title>
<path fill="none" stroke="#191970" d="M469.2233,-18.0577C477.7725,-19.352 486.5632,-20.6829 494.9406,-21.9512"/>
<polygon fill="#191970" stroke="#191970" points="494.4991,-25.4241 504.9103,-23.4605 495.5469,-18.503 494.4991,-25.4241"/>
</g>
<!-- Node22&#45;&gt;Node13 -->
<g id="edge12" class="edge">
<title>Node22&#45;&gt;Node13</title>
<path fill="none" stroke="#191970" d="M327.045,-48C340.6704,-48 354.9841,-48 368.05,-48"/>
<polygon fill="#191970" stroke="#191970" points="368.2241,-51.5001 378.2241,-48 368.2241,-44.5001 368.2241,-51.5001"/>
</g>
</g>
</svg>
