<?xml version="1.0" encoding="UTF-8" standalone="no"?>
<!DOCTYPE svg PUBLIC "-//W3C//DTD SVG 1.1//EN"
 "http://www.w3.org/Graphics/SVG/1.1/DTD/svg11.dtd">
<!-- Generated by graphviz version 2.40.1 (20161225.0304)
 -->
<!-- Title: act_integer_mutate Pages: 1 -->
<svg width="769pt" height="47pt"
 viewBox="0.00 0.00 769.00 47.00" xmlns="http://www.w3.org/2000/svg" xmlns:xlink="http://www.w3.org/1999/xlink">
<g id="graph0" class="graph" transform="scale(1 1) rotate(0) translate(4 43)">
<title>act_integer_mutate</title>
<!-- Node16 -->
<g id="node1" class="node">
<title>Node16</title>
<polygon fill="#bfbfbf" stroke="#000000" points="0,-.5 0,-19.5 100,-19.5 100,-.5 0,-.5"/>
<text text-anchor="middle" x="50" y="-7.5" font-family="Helvetica,sans-Serif" font-size="10.00" fill="#000000">act_integer_mutate</text>
</g>
<!-- Node17 -->
<g id="node2" class="node">
<title>Node17</title>
<g id="a_node2"><a xlink:href="utils_8c.html#a32648ab076544a9ac1c086d0f07b599f" target="_top" xlink:title="Returns a uniform random integer [min,max] not inclusive of max. ">
<polygon fill="none" stroke="#000000" points="136,-19.5 136,-38.5 211,-38.5 211,-19.5 136,-19.5"/>
<text text-anchor="middle" x="173.5" y="-26.5" font-family="Helvetica,sans-Serif" font-size="10.00" fill="#000000">irand_uniform</text>
</a>
</g>
</g>
<!-- Node16&#45;&gt;Node17 -->
<g id="edge1" class="edge">
<title>Node16&#45;&gt;Node17</title>
<path fill="none" stroke="#191970" d="M100.2322,-17.728C108.683,-19.0282 117.4323,-20.3742 125.8162,-21.664"/>
<polygon fill="#191970" stroke="#191970" points="125.401,-25.1412 135.8169,-23.2026 126.4654,-18.2226 125.401,-25.1412"/>
</g>
<!-- Node18 -->
<g id="node3" class="node">
<title>Node18</title>
<g id="a_node3"><a xlink:href="utils_8c.html#ae42a9e1d467853befaa7922cfafed3bb" target="_top" xlink:title="Returns a uniform random float [min,max]. ">
<polygon fill="none" stroke="#000000" points="247,-.5 247,-19.5 320,-19.5 320,-.5 247,-.5"/>
<text text-anchor="middle" x="283.5" y="-7.5" font-family="Helvetica,sans-Serif" font-size="10.00" fill="#000000">rand_uniform</text>
</a>
</g>
</g>
<!-- Node16&#45;&gt;Node18 -->
<g id="edge7" class="edge">
<title>Node16&#45;&gt;Node18</title>
<path fill="none" stroke="#191970" d="M100.0916,-10C140.5623,-10 197.104,-10 236.6757,-10"/>
<polygon fill="#191970" stroke="#191970" points="236.8542,-13.5001 246.8542,-10 236.8541,-6.5001 236.8542,-13.5001"/>
</g>
<!-- Node17&#45;&gt;Node18 -->
<g id="edge2" class="edge">
<title>Node17&#45;&gt;Node18</title>
<path fill="none" stroke="#191970" d="M211.0481,-22.5144C219.3686,-21.0772 228.2836,-19.5374 236.9154,-18.0464"/>
<polygon fill="#191970" stroke="#191970" points="237.6073,-21.4788 246.8656,-16.3278 236.4158,-14.581 237.6073,-21.4788"/>
</g>
<!-- Node19 -->
<g id="node4" class="node">
<title>Node19</title>
<g id="a_node4"><a xlink:href="utils_8c.html#a101d27cdda714b7f17a06224c65cac56" target="_top" xlink:title="Returns a uniform random float [0,1]. ">
<polygon fill="none" stroke="#000000" points="356,-.5 356,-19.5 397,-19.5 397,-.5 356,-.5"/>
<text text-anchor="middle" x="376.5" y="-7.5" font-family="Helvetica,sans-Serif" font-size="10.00" fill="#000000">drand</text>
</a>
</g>
</g>
<!-- Node18&#45;&gt;Node19 -->
<g id="edge3" class="edge">
<title>Node18&#45;&gt;Node19</title>
<path fill="none" stroke="#191970" d="M320.2561,-10C328.658,-10 337.5043,-10 345.63,-10"/>
<polygon fill="#191970" stroke="#191970" points="345.799,-13.5001 355.7989,-10 345.7989,-6.5001 345.799,-13.5001"/>
</g>
<!-- Node20 -->
<g id="node5" class="node">
<title>Node20</title>
<g id="a_node5"><a xlink:href="mt19937-64_8c.html#aa0b74daf51eca91df224d00f1730084a" target="_top" xlink:title="genrand64_real1">
<polygon fill="none" stroke="#000000" points="433,-.5 433,-19.5 521,-19.5 521,-.5 433,-.5"/>
<text text-anchor="middle" x="477" y="-7.5" font-family="Helvetica,sans-Serif" font-size="10.00" fill="#000000">genrand64_real1</text>
</a>
</g>
</g>
<!-- Node19&#45;&gt;Node20 -->
<g id="edge4" class="edge">
<title>Node19&#45;&gt;Node20</title>
<path fill="none" stroke="#191970" d="M397.3237,-10C404.8428,-10 413.7193,-10 422.769,-10"/>
<polygon fill="#191970" stroke="#191970" points="422.9969,-13.5001 432.9969,-10 422.9969,-6.5001 422.9969,-13.5001"/>
</g>
<!-- Node21 -->
<g id="node6" class="node">
<title>Node21</title>
<g id="a_node6"><a xlink:href="mt19937-64_8c.html#a265bf48d20d6e0347371fcf4fe340e6d" target="_top" xlink:title="genrand64_int64">
<polygon fill="none" stroke="#000000" points="557,-.5 557,-19.5 645,-19.5 645,-.5 557,-.5"/>
<text text-anchor="middle" x="601" y="-7.5" font-family="Helvetica,sans-Serif" font-size="10.00" fill="#000000">genrand64_int64</text>
</a>
</g>
</g>
<!-- Node20&#45;&gt;Node21 -->
<g id="edge5" class="edge">
<title>Node20&#45;&gt;Node21</title>
<path fill="none" stroke="#191970" d="M521.0669,-10C529.2822,-10 537.957,-10 546.4432,-10"/>
<polygon fill="#191970" stroke="#191970" points="546.6572,-13.5001 556.6572,-10 546.6572,-6.5001 546.6572,-13.5001"/>
</g>
<!-- Node22 -->
<g id="node7" class="node">
<title>Node22</title>
<g id="a_node7"><a xlink:href="mt19937-64_8c.html#adf4127d44c2dc34fcb318d406131ef7c" target="_top" xlink:title="init_genrand64">
<polygon fill="none" stroke="#000000" points="681,-.5 681,-19.5 761,-19.5 761,-.5 681,-.5"/>
<text text-anchor="middle" x="721" y="-7.5" font-family="Helvetica,sans-Serif" font-size="10.00" fill="#000000">init_genrand64</text>
</a>
</g>
</g>
<!-- Node21&#45;&gt;Node22 -->
<g id="edge6" class="edge">
<title>Node21&#45;&gt;Node22</title>
<path fill="none" stroke="#191970" d="M645.0022,-10C653.3719,-10 662.1896,-10 670.7365,-10"/>
<polygon fill="#191970" stroke="#191970" points="670.9792,-13.5001 680.9792,-10 670.9792,-6.5001 670.9792,-13.5001"/>
</g>
</g>
</svg>
