<?xml version="1.0" encoding="UTF-8" standalone="no"?>
<!DOCTYPE svg PUBLIC "-//W3C//DTD SVG 1.1//EN"
 "http://www.w3.org/Graphics/SVG/1.1/DTD/svg11.dtd">
<!-- Generated by graphviz version 2.40.1 (20161225.0304)
 -->
<!-- Title: act_free Pages: 1 -->
<svg width="1170pt" height="479pt"
 viewBox="0.00 0.00 1170.00 478.53" xmlns="http://www.w3.org/2000/svg" xmlns:xlink="http://www.w3.org/1999/xlink">
<g id="graph0" class="graph" transform="scale(1 1) rotate(0) translate(4 474.5335)">
<title>act_free</title>
<!-- Node84 -->
<g id="node1" class="node">
<title>Node84</title>
<polygon fill="#bfbfbf" stroke="#000000" points="0,-186.5 0,-205.5 52,-205.5 52,-186.5 0,-186.5"/>
<text text-anchor="middle" x="26" y="-193.5" font-family="Helvetica,sans-Serif" font-size="10.00" fill="#000000">act_free</text>
</g>
<!-- Node85 -->
<g id="node2" class="node">
<title>Node85</title>
<g id="a_node2"><a xlink:href="cl_8h.html#a7bf8d03856a0c04854cfd99fcd45b32a" target="_top" xlink:title="Frees the memory used by the classifier. ">
<polygon fill="none" stroke="#000000" points="88,-186.5 88,-205.5 134,-205.5 134,-186.5 88,-186.5"/>
<text text-anchor="middle" x="111" y="-193.5" font-family="Helvetica,sans-Serif" font-size="10.00" fill="#000000">cl_free</text>
</a>
</g>
</g>
<!-- Node84&#45;&gt;Node85 -->
<g id="edge1" class="edge">
<title>Node84&#45;&gt;Node85</title>
<path fill="none" stroke="#191970" d="M62.5844,-196C71.1202,-196 79.9808,-196 87.7523,-196"/>
<polygon fill="#191970" stroke="#191970" points="62.4286,-192.5001 52.4286,-196 62.4286,-199.5001 62.4286,-192.5001"/>
</g>
<!-- Node86 -->
<g id="node3" class="node">
<title>Node86</title>
<g id="a_node3"><a xlink:href="cl__set_8h.html#a0b2479df1a61213f1f150907c62278bb" target="_top" xlink:title="Frees the set and the classifiers. ">
<polygon fill="none" stroke="#000000" points="362,-247.5 362,-266.5 409,-266.5 409,-247.5 362,-247.5"/>
<text text-anchor="middle" x="385.5" y="-254.5" font-family="Helvetica,sans-Serif" font-size="10.00" fill="#000000">set_kill</text>
</a>
</g>
</g>
<!-- Node85&#45;&gt;Node86 -->
<g id="edge2" class="edge">
<title>Node85&#45;&gt;Node86</title>
<path fill="none" stroke="#191970" d="M143.6716,-207.2861C152.1842,-210.0156 161.3863,-212.7821 170,-215 238.8429,-232.7263 321.7529,-246.9157 361.6965,-253.3136"/>
<polygon fill="#191970" stroke="#191970" points="144.6648,-203.9284 134.072,-204.1339 142.4809,-210.5791 144.6648,-203.9284"/>
</g>
<!-- Node108 -->
<g id="node25" class="node">
<title>Node108</title>
<g id="a_node25"><a xlink:href="ea_8c.html#a14278fc032b7fb0c473e11764ab1c4d1" target="_top" xlink:title="Adds offspring to the population. ">
<polygon fill="none" stroke="#000000" points="278,-148.5 278,-167.5 326,-167.5 326,-148.5 278,-148.5"/>
<text text-anchor="middle" x="302" y="-155.5" font-family="Helvetica,sans-Serif" font-size="10.00" fill="#000000">ea_add</text>
</a>
</g>
</g>
<!-- Node85&#45;&gt;Node108 -->
<g id="edge34" class="edge">
<title>Node85&#45;&gt;Node108</title>
<path fill="none" stroke="#191970" d="M143.5997,-184.4196C152.1134,-181.6946 161.334,-179.004 170,-177 207.22,-168.393 251.2966,-162.988 277.9293,-160.2329"/>
<polygon fill="#191970" stroke="#191970" points="142.3994,-181.1301 134.0058,-187.5952 144.5991,-187.7755 142.3994,-181.1301"/>
</g>
<!-- Node112 -->
<g id="node29" class="node">
<title>Node112</title>
<g id="a_node29"><a xlink:href="ea_8c.html#afe1eb3a920dc0bbcd5f737b9cdda2170" target="_top" xlink:title="Performs evolutionary algorithm subsumption. ">
<polygon fill="none" stroke="#000000" points="170,-186.5 170,-205.5 242,-205.5 242,-186.5 170,-186.5"/>
<text text-anchor="middle" x="206" y="-193.5" font-family="Helvetica,sans-Serif" font-size="10.00" fill="#000000">ea_subsume</text>
</a>
</g>
</g>
<!-- Node85&#45;&gt;Node112 -->
<g id="edge42" class="edge">
<title>Node85&#45;&gt;Node112</title>
<path fill="none" stroke="#191970" d="M144.7462,-196C152.8798,-196 161.6022,-196 169.8411,-196"/>
<polygon fill="#191970" stroke="#191970" points="144.4832,-192.5001 134.4832,-196 144.4831,-199.5001 144.4832,-192.5001"/>
</g>
<!-- Node87 -->
<g id="node4" class="node">
<title>Node87</title>
<g id="a_node4"><a xlink:href="main_8c.html#a3c04138a5bfe5d72780bb7e82a18e627" target="_top" xlink:title="main">
<polygon fill="none" stroke="#000000" points="913,-190.5 913,-209.5 951,-209.5 951,-190.5 913,-190.5"/>
<text text-anchor="middle" x="932" y="-197.5" font-family="Helvetica,sans-Serif" font-size="10.00" fill="#000000">main</text>
</a>
</g>
</g>
<!-- Node86&#45;&gt;Node87 -->
<g id="edge3" class="edge">
<title>Node86&#45;&gt;Node87</title>
<path fill="none" stroke="#191970" d="M419.5404,-253.4496C523.1363,-242.6445 832.4012,-210.3882 912.7516,-202.0076"/>
<polygon fill="#191970" stroke="#191970" points="418.9168,-249.9956 409.3338,-254.5141 419.643,-256.9578 418.9168,-249.9956"/>
</g>
<!-- Node88 -->
<g id="node5" class="node">
<title>Node88</title>
<g id="a_node5"><a xlink:href="structXCS.html#ab58a4fb495b05f3450b182bc21dcba1f" target="_top" xlink:title="XCS::single_reset">
<polygon fill="none" stroke="#000000" points="884,-418.5 884,-437.5 980,-437.5 980,-418.5 884,-418.5"/>
<text text-anchor="middle" x="932" y="-425.5" font-family="Helvetica,sans-Serif" font-size="10.00" fill="#000000">XCS::single_reset</text>
</a>
</g>
</g>
<!-- Node86&#45;&gt;Node88 -->
<g id="edge4" class="edge">
<title>Node86&#45;&gt;Node88</title>
<path fill="none" stroke="#191970" d="M386.6826,-277.0191C389.8671,-310.7251 401.6222,-378.1408 445,-409 587.3739,-510.2855 816.9345,-460.5317 900.3868,-437.5041"/>
<polygon fill="#191970" stroke="#191970" points="390.1388,-276.3173 385.8758,-266.6179 383.1597,-276.8586 390.1388,-276.3173"/>
</g>
<!-- Node90 -->
<g id="node7" class="node">
<title>Node90</title>
<g id="a_node7"><a xlink:href="xcs__multi__step_8c.html#a1e1c2a3094be715b468dda79cd59ebf3" target="_top" xlink:title="Executes a multi&#45;step trial using a built&#45;in environment. ">
<polygon fill="none" stroke="#000000" points="460,-114.5 460,-133.5 540,-133.5 540,-114.5 460,-114.5"/>
<text text-anchor="middle" x="500" y="-121.5" font-family="Helvetica,sans-Serif" font-size="10.00" fill="#000000">xcs_multi_trial</text>
</a>
</g>
</g>
<!-- Node86&#45;&gt;Node90 -->
<g id="edge6" class="edge">
<title>Node86&#45;&gt;Node90</title>
<path fill="none" stroke="#191970" d="M390.8156,-237.3037C398.617,-212.0184 415.5339,-168.388 445,-143 449.5155,-139.1095 454.871,-136.003 460.4395,-133.5259"/>
<polygon fill="#191970" stroke="#191970" points="387.3679,-236.6259 387.9399,-247.2053 394.0901,-238.5782 387.3679,-236.6259"/>
</g>
<!-- Node92 -->
<g id="node9" class="node">
<title>Node92</title>
<g id="a_node9"><a xlink:href="xcs__single__step_8c.html#a3d1fd2472d35310800aed897219a65af" target="_top" xlink:title="Executes a single&#45;step trial using a built&#45;in environment. ">
<polygon fill="none" stroke="#000000" points="605.5,-76.5 605.5,-95.5 689.5,-95.5 689.5,-76.5 605.5,-76.5"/>
<text text-anchor="middle" x="647.5" y="-83.5" font-family="Helvetica,sans-Serif" font-size="10.00" fill="#000000">xcs_single_trial</text>
</a>
</g>
</g>
<!-- Node86&#45;&gt;Node92 -->
<g id="edge9" class="edge">
<title>Node86&#45;&gt;Node92</title>
<path fill="none" stroke="#191970" d="M410.0601,-242.4089C420.6418,-236.3776 433.2598,-229.5201 445,-224 492.5026,-201.6648 511.4568,-210.3146 555,-181 574.2985,-168.0077 574.8101,-159.7069 591,-143 607.2901,-126.1897 626.532,-106.8951 637.8358,-95.6164"/>
<polygon fill="#191970" stroke="#191970" points="408.2622,-239.4055 401.3583,-247.4422 411.767,-245.4649 408.2622,-239.4055"/>
</g>
<!-- Node94 -->
<g id="node11" class="node">
<title>Node94</title>
<g id="a_node11"><a xlink:href="xcsf_8c.html#a474f4e13cfc5f00958c689cd8c81135a" target="_top" xlink:title="Executes a single XCSF learning trial. ">
<polygon fill="none" stroke="#000000" points="458.5,-152.5 458.5,-171.5 541.5,-171.5 541.5,-152.5 458.5,-152.5"/>
<text text-anchor="middle" x="500" y="-159.5" font-family="Helvetica,sans-Serif" font-size="10.00" fill="#000000">xcsf_learn_trial</text>
</a>
</g>
</g>
<!-- Node86&#45;&gt;Node94 -->
<g id="edge12" class="edge">
<title>Node86&#45;&gt;Node94</title>
<path fill="none" stroke="#191970" d="M397.26,-238.662C408.089,-222.9707 425.4091,-200.6587 445,-186 452.9244,-180.0706 462.5416,-175.2369 471.5038,-171.5022"/>
<polygon fill="#191970" stroke="#191970" points="394.3151,-236.7695 391.666,-247.0278 400.1341,-240.6605 394.3151,-236.7695"/>
</g>
<!-- Node99 -->
<g id="node16" class="node">
<title>Node99</title>
<g id="a_node16"><a xlink:href="xcsf_8c.html#aa6edd3962ddd04940e2c78a4f99de7cd" target="_top" xlink:title="Executes a single XCSF testing trial. ">
<polygon fill="none" stroke="#000000" points="461,-266.5 461,-285.5 539,-285.5 539,-266.5 461,-266.5"/>
<text text-anchor="middle" x="500" y="-273.5" font-family="Helvetica,sans-Serif" font-size="10.00" fill="#000000">xcsf_test_trial</text>
</a>
</g>
</g>
<!-- Node86&#45;&gt;Node99 -->
<g id="edge19" class="edge">
<title>Node86&#45;&gt;Node99</title>
<path fill="none" stroke="#191970" d="M419.2357,-262.5981C432.3337,-264.7715 447.4192,-267.2748 460.9808,-269.5252"/>
<polygon fill="#191970" stroke="#191970" points="419.6626,-259.1211 409.2245,-260.9368 418.5166,-266.0267 419.6626,-259.1211"/>
</g>
<!-- Node102 -->
<g id="node19" class="node">
<title>Node102</title>
<g id="a_node19"><a xlink:href="xcsf_8h.html#af0b9db7273578fdff649d46823cd9790" target="_top" xlink:title="Calculates the XCSF predictions for the provided input. ">
<polygon fill="none" stroke="#000000" points="465,-380.5 465,-399.5 535,-399.5 535,-380.5 465,-380.5"/>
<text text-anchor="middle" x="500" y="-387.5" font-family="Helvetica,sans-Serif" font-size="10.00" fill="#000000">xcsf_predict</text>
</a>
</g>
</g>
<!-- Node86&#45;&gt;Node102 -->
<g id="edge24" class="edge">
<title>Node86&#45;&gt;Node102</title>
<path fill="none" stroke="#191970" d="M390.8156,-276.6963C398.617,-301.9816 415.5339,-345.612 445,-371 450.6635,-375.8797 457.6484,-379.5259 464.7176,-382.2439"/>
<polygon fill="#191970" stroke="#191970" points="394.0901,-275.4218 387.9399,-266.7947 387.3679,-277.3741 394.0901,-275.4218"/>
</g>
<!-- Node104 -->
<g id="node21" class="node">
<title>Node104</title>
<g id="a_node21"><a xlink:href="xcsf_8h.html#ae1f6851f682e015601030a5c725c6618" target="_top" xlink:title="Prints the XCSF match set for the supplied input. ">
<polygon fill="none" stroke="#000000" points="445,-342.5 445,-361.5 555,-361.5 555,-342.5 445,-342.5"/>
<text text-anchor="middle" x="500" y="-349.5" font-family="Helvetica,sans-Serif" font-size="10.00" fill="#000000">xcsf_print_match_set</text>
</a>
</g>
</g>
<!-- Node86&#45;&gt;Node104 -->
<g id="edge27" class="edge">
<title>Node86&#45;&gt;Node104</title>
<path fill="none" stroke="#191970" d="M397.26,-275.338C408.089,-291.0293 425.4091,-313.3413 445,-328 452.9244,-333.9294 462.5416,-338.7631 471.5038,-342.4978"/>
<polygon fill="#191970" stroke="#191970" points="400.1341,-273.3395 391.666,-266.9722 394.3151,-277.2305 400.1341,-273.3395"/>
</g>
<!-- Node106 -->
<g id="node23" class="node">
<title>Node106</title>
<g id="a_node23"><a xlink:href="xcsf_8h.html#a70e6ae30c7d4e471009c4611255ed873" target="_top" xlink:title="Reads the state of XCSF from a binary file. ">
<polygon fill="none" stroke="#000000" points="764.5,-304.5 764.5,-323.5 823.5,-323.5 823.5,-304.5 764.5,-304.5"/>
<text text-anchor="middle" x="794" y="-311.5" font-family="Helvetica,sans-Serif" font-size="10.00" fill="#000000">xcsf_load</text>
</a>
</g>
</g>
<!-- Node86&#45;&gt;Node106 -->
<g id="edge30" class="edge">
<title>Node86&#45;&gt;Node106</title>
<path fill="none" stroke="#191970" d="M404.9258,-273.0448C415.9643,-281.1844 430.454,-290.3185 445,-295 558.2138,-331.437 702.6463,-323.2173 764.1301,-317.3628"/>
<polygon fill="#191970" stroke="#191970" points="406.9331,-270.1728 396.878,-266.8343 402.6565,-275.7146 406.9331,-270.1728"/>
</g>
<!-- Node89 -->
<g id="node6" class="node">
<title>Node89</title>
<g id="a_node6"><a xlink:href="python__wrapper_8cpp.html#afbdcc1358036a0b83a6b239da2b098a2" target="_top" xlink:title="BOOST_PYTHON_MODULE">
<polygon fill="none" stroke="#000000" points="1016,-304.5 1016,-323.5 1162,-323.5 1162,-304.5 1016,-304.5"/>
<text text-anchor="middle" x="1089" y="-311.5" font-family="Helvetica,sans-Serif" font-size="10.00" fill="#000000">BOOST_PYTHON_MODULE</text>
</a>
</g>
</g>
<!-- Node88&#45;&gt;Node89 -->
<g id="edge5" class="edge">
<title>Node88&#45;&gt;Node89</title>
<path fill="none" stroke="#191970" d="M962.6505,-413.9781C968.5438,-410.9211 974.5679,-407.5351 980,-404 1019.2859,-378.4332 1060.6254,-340.9178 1079.0854,-323.5153"/>
<polygon fill="#191970" stroke="#191970" points="960.992,-410.8939 953.601,-418.485 964.1127,-417.1598 960.992,-410.8939"/>
</g>
<!-- Node91 -->
<g id="node8" class="node">
<title>Node91</title>
<g id="a_node8"><a xlink:href="xcs__multi__step_8h.html#acc29d4a55dbd56c16ea5f19f15a7c677" target="_top" xlink:title="Executes a multi&#45;step reinforcement learning experiment. ">
<polygon fill="none" stroke="#000000" points="742,-38.5 742,-57.5 846,-57.5 846,-38.5 742,-38.5"/>
<text text-anchor="middle" x="794" y="-45.5" font-family="Helvetica,sans-Serif" font-size="10.00" fill="#000000">xcs_multi_step_exp</text>
</a>
</g>
</g>
<!-- Node90&#45;&gt;Node91 -->
<g id="edge7" class="edge">
<title>Node90&#45;&gt;Node91</title>
<path fill="none" stroke="#191970" d="M545.0848,-110.4755C548.5385,-108.8274 551.8874,-107.0062 555,-105 574.5547,-92.3965 570.0807,-77.1793 591,-67 638.2659,-44.0004 699.0035,-41.2906 741.6791,-43.0704"/>
<polygon fill="#191970" stroke="#191970" points="543.6126,-107.2983 535.7882,-114.4418 546.3596,-113.7368 543.6126,-107.2983"/>
</g>
<!-- Node91&#45;&gt;Node87 -->
<g id="edge8" class="edge">
<title>Node91&#45;&gt;Node87</title>
<path fill="none" stroke="#191970" d="M842.7674,-62.6427C844.6256,-63.9716 846.3823,-65.4205 848,-67 880.3067,-98.5435 857.3372,-125.5609 884,-162 892.5358,-173.6656 905.5492,-183.6611 915.8737,-190.4686"/>
<polygon fill="#191970" stroke="#191970" points="844.4835,-59.5916 834.087,-57.5509 840.9417,-65.6295 844.4835,-59.5916"/>
</g>
<!-- Node93 -->
<g id="node10" class="node">
<title>Node93</title>
<g id="a_node10"><a xlink:href="xcs__single__step_8h.html#a39a031bf59eaa9b33e30e614610dcda8" target="_top" xlink:title="Executes a single&#45;step experiment. ">
<polygon fill="none" stroke="#000000" points="740,-76.5 740,-95.5 848,-95.5 848,-76.5 740,-76.5"/>
<text text-anchor="middle" x="794" y="-83.5" font-family="Helvetica,sans-Serif" font-size="10.00" fill="#000000">xcs_single_step_exp</text>
</a>
</g>
</g>
<!-- Node92&#45;&gt;Node93 -->
<g id="edge10" class="edge">
<title>Node92&#45;&gt;Node93</title>
<path fill="none" stroke="#191970" d="M700.0389,-86C713.0094,-86 726.9239,-86 739.9641,-86"/>
<polygon fill="#191970" stroke="#191970" points="699.8739,-82.5001 689.8739,-86 699.8738,-89.5001 699.8739,-82.5001"/>
</g>
<!-- Node93&#45;&gt;Node87 -->
<g id="edge11" class="edge">
<title>Node93&#45;&gt;Node87</title>
<path fill="none" stroke="#191970" d="M840.7452,-100.077C843.2994,-101.5635 845.7413,-103.1998 848,-105 871.4315,-123.6746 863.9687,-139.7171 884,-162 893.9479,-173.066 907.3707,-183.3933 917.4927,-190.4804"/>
<polygon fill="#191970" stroke="#191970" points="842.2412,-96.912 831.7304,-95.5801 839.1165,-103.1759 842.2412,-96.912"/>
</g>
<!-- Node95 -->
<g id="node12" class="node">
<title>Node95</title>
<g id="a_node12"><a xlink:href="xcsf_8h.html#a0b4de57cb9dadc9deca7901aa36e5025" target="_top" xlink:title="Executes MAX_TRIALS number of XCSF learning iterations using the training. data and test iterations u...">
<polygon fill="none" stroke="#000000" points="620.5,-152.5 620.5,-171.5 674.5,-171.5 674.5,-152.5 620.5,-152.5"/>
<text text-anchor="middle" x="647.5" y="-159.5" font-family="Helvetica,sans-Serif" font-size="10.00" fill="#000000">xcsf_fit2</text>
</a>
</g>
</g>
<!-- Node94&#45;&gt;Node95 -->
<g id="edge13" class="edge">
<title>Node94&#45;&gt;Node95</title>
<path fill="none" stroke="#191970" d="M551.8959,-162C575.0137,-162 601.2809,-162 620.4248,-162"/>
<polygon fill="#191970" stroke="#191970" points="551.8731,-158.5001 541.873,-162 551.873,-165.5001 551.8731,-158.5001"/>
</g>
<!-- Node95&#45;&gt;Node87 -->
<g id="edge14" class="edge">
<title>Node95&#45;&gt;Node87</title>
<path fill="none" stroke="#191970" d="M684.8651,-170.5965C701.649,-174.2194 721.7449,-178.2296 740,-181 802.9222,-190.5492 878.206,-196.3898 912.8419,-198.7667"/>
<polygon fill="#191970" stroke="#191970" points="685.4069,-167.1321 674.8889,-168.4053 683.9052,-173.9692 685.4069,-167.1321"/>
</g>
<!-- Node96 -->
<g id="node13" class="node">
<title>Node96</title>
<g id="a_node13"><a xlink:href="structXCS.html#a7d53320740db8e846251bacd0238a9fb" target="_top" xlink:title="XCS::fit">
<polygon fill="none" stroke="#000000" points="768,-152.5 768,-171.5 820,-171.5 820,-152.5 768,-152.5"/>
<text text-anchor="middle" x="794" y="-159.5" font-family="Helvetica,sans-Serif" font-size="10.00" fill="#000000">XCS::fit</text>
</a>
</g>
</g>
<!-- Node95&#45;&gt;Node96 -->
<g id="edge15" class="edge">
<title>Node95&#45;&gt;Node96</title>
<path fill="none" stroke="#191970" d="M684.9437,-162C710.9137,-162 744.8473,-162 767.9182,-162"/>
<polygon fill="#191970" stroke="#191970" points="684.7122,-158.5001 674.7122,-162 684.7122,-165.5001 684.7122,-158.5001"/>
</g>
<!-- Node97 -->
<g id="node14" class="node">
<title>Node97</title>
<g id="a_node14"><a xlink:href="xcsf_8h.html#a874829f28fee20f9ad15b540f4b4d6ff" target="_top" xlink:title="Executes MAX_TRIALS number of XCSF learning iterations using the training data. ">
<polygon fill="none" stroke="#000000" points="767,-114.5 767,-133.5 821,-133.5 821,-114.5 767,-114.5"/>
<text text-anchor="middle" x="794" y="-121.5" font-family="Helvetica,sans-Serif" font-size="10.00" fill="#000000">xcsf_fit1</text>
</a>
</g>
</g>
<!-- Node95&#45;&gt;Node97 -->
<g id="edge16" class="edge">
<title>Node95&#45;&gt;Node97</title>
<path fill="none" stroke="#191970" d="M684.4693,-152.4107C710.1336,-145.7538 743.7471,-137.0349 766.9335,-131.0207"/>
<polygon fill="#191970" stroke="#191970" points="683.5131,-149.0428 674.7122,-154.9415 685.2707,-155.8186 683.5131,-149.0428"/>
</g>
<!-- Node98 -->
<g id="node15" class="node">
<title>Node98</title>
<g id="a_node15"><a xlink:href="structXCS.html#ad2ccafe59d2b4ae6d0e1cbc15edee53c" target="_top" xlink:title="XCS::fit">
<polygon fill="none" stroke="#000000" points="906,-133.5 906,-152.5 958,-152.5 958,-133.5 906,-133.5"/>
<text text-anchor="middle" x="932" y="-140.5" font-family="Helvetica,sans-Serif" font-size="10.00" fill="#000000">XCS::fit</text>
</a>
</g>
</g>
<!-- Node97&#45;&gt;Node98 -->
<g id="edge17" class="edge">
<title>Node97&#45;&gt;Node98</title>
<path fill="none" stroke="#191970" d="M831.2539,-129.1292C854.7989,-132.3709 884.6504,-136.4808 905.7286,-139.3829"/>
<polygon fill="#191970" stroke="#191970" points="831.6483,-125.6505 821.2644,-127.7538 830.6935,-132.5851 831.6483,-125.6505"/>
</g>
<!-- Node98&#45;&gt;Node89 -->
<g id="edge18" class="edge">
<title>Node98&#45;&gt;Node89</title>
<path fill="none" stroke="#191970" d="M953.732,-158.6225C962.2655,-165.1542 971.9285,-173.0639 980,-181 1023.0012,-223.2802 1066.0067,-281.6454 1082.2363,-304.3869"/>
<polygon fill="#191970" stroke="#191970" points="955.7809,-155.7843 945.6758,-152.6002 951.5897,-161.3909 955.7809,-155.7843"/>
</g>
<!-- Node99&#45;&gt;Node95 -->
<g id="edge20" class="edge">
<title>Node99&#45;&gt;Node95</title>
<path fill="none" stroke="#191970" d="M520.2819,-260.3245C551.2328,-236.4031 609.3473,-191.4875 634.9003,-171.738"/>
<polygon fill="#191970" stroke="#191970" points="518.094,-257.5919 512.3221,-266.4765 522.3747,-263.1305 518.094,-257.5919"/>
</g>
<!-- Node100 -->
<g id="node17" class="node">
<title>Node100</title>
<g id="a_node17"><a xlink:href="xcsf_8h.html#a2cf95733e5f97410d94211b72e835847" target="_top" xlink:title="Calculates the XCSF error for the input data. ">
<polygon fill="none" stroke="#000000" points="761.5,-266.5 761.5,-285.5 826.5,-285.5 826.5,-266.5 761.5,-266.5"/>
<text text-anchor="middle" x="794" y="-273.5" font-family="Helvetica,sans-Serif" font-size="10.00" fill="#000000">xcsf_score</text>
</a>
</g>
</g>
<!-- Node99&#45;&gt;Node100 -->
<g id="edge21" class="edge">
<title>Node99&#45;&gt;Node100</title>
<path fill="none" stroke="#191970" d="M549.0628,-276C609.2306,-276 709.5589,-276 761.1502,-276"/>
<polygon fill="#191970" stroke="#191970" points="549.041,-272.5001 539.0409,-276 549.0409,-279.5001 549.041,-272.5001"/>
</g>
<!-- Node101 -->
<g id="node18" class="node">
<title>Node101</title>
<g id="a_node18"><a xlink:href="structXCS.html#aa77bc77484d6d14bf512304a23cfec88" target="_top" xlink:title="XCS::score">
<polygon fill="none" stroke="#000000" points="898,-266.5 898,-285.5 966,-285.5 966,-266.5 898,-266.5"/>
<text text-anchor="middle" x="932" y="-273.5" font-family="Helvetica,sans-Serif" font-size="10.00" fill="#000000">XCS::score</text>
</a>
</g>
</g>
<!-- Node100&#45;&gt;Node101 -->
<g id="edge22" class="edge">
<title>Node100&#45;&gt;Node101</title>
<path fill="none" stroke="#191970" d="M836.8736,-276C856.4069,-276 879.2178,-276 897.6049,-276"/>
<polygon fill="#191970" stroke="#191970" points="836.7041,-272.5001 826.7041,-276 836.704,-279.5001 836.7041,-272.5001"/>
</g>
<!-- Node101&#45;&gt;Node89 -->
<g id="edge23" class="edge">
<title>Node101&#45;&gt;Node89</title>
<path fill="none" stroke="#191970" d="M975.9865,-286.6464C999.1506,-292.253 1027.3208,-299.0713 1049.7414,-304.4979"/>
<polygon fill="#191970" stroke="#191970" points="976.6094,-283.1962 966.0667,-284.2454 974.9626,-289.9997 976.6094,-283.1962"/>
</g>
<!-- Node103 -->
<g id="node20" class="node">
<title>Node103</title>
<g id="a_node20"><a xlink:href="structXCS.html#a911ed75c86abed7807d33eb1385240ed" target="_top" xlink:title="XCS::predict">
<polygon fill="none" stroke="#000000" points="611,-380.5 611,-399.5 684,-399.5 684,-380.5 611,-380.5"/>
<text text-anchor="middle" x="647.5" y="-387.5" font-family="Helvetica,sans-Serif" font-size="10.00" fill="#000000">XCS::predict</text>
</a>
</g>
</g>
<!-- Node102&#45;&gt;Node103 -->
<g id="edge25" class="edge">
<title>Node102&#45;&gt;Node103</title>
<path fill="none" stroke="#191970" d="M545.3334,-390C566.3834,-390 591.0797,-390 610.9179,-390"/>
<polygon fill="#191970" stroke="#191970" points="545.33,-386.5001 535.3299,-390 545.3299,-393.5001 545.33,-386.5001"/>
</g>
<!-- Node103&#45;&gt;Node89 -->
<g id="edge26" class="edge">
<title>Node103&#45;&gt;Node89</title>
<path fill="none" stroke="#191970" d="M694.649,-387.5988C759.5721,-383.586 879.8397,-373.6085 980,-351 1010.2152,-344.1797 1043.8003,-332.0545 1065.5978,-323.5485"/>
<polygon fill="#191970" stroke="#191970" points="694.1074,-384.1248 684.3338,-388.2147 694.5246,-391.1124 694.1074,-384.1248"/>
</g>
<!-- Node105 -->
<g id="node22" class="node">
<title>Node105</title>
<g id="a_node22"><a xlink:href="structXCS.html#aa5608b379fae01b724267a99068d55bb" target="_top" xlink:title="XCS::print_match_set">
<polygon fill="none" stroke="#000000" points="591,-342.5 591,-361.5 704,-361.5 704,-342.5 591,-342.5"/>
<text text-anchor="middle" x="647.5" y="-349.5" font-family="Helvetica,sans-Serif" font-size="10.00" fill="#000000">XCS::print_match_set</text>
</a>
</g>
</g>
<!-- Node104&#45;&gt;Node105 -->
<g id="edge28" class="edge">
<title>Node104&#45;&gt;Node105</title>
<path fill="none" stroke="#191970" d="M565.542,-352C573.9872,-352 582.5777,-352 590.8632,-352"/>
<polygon fill="#191970" stroke="#191970" points="565.3432,-348.5001 555.3432,-352 565.3432,-355.5001 565.3432,-348.5001"/>
</g>
<!-- Node105&#45;&gt;Node89 -->
<g id="edge29" class="edge">
<title>Node105&#45;&gt;Node89</title>
<path fill="none" stroke="#191970" d="M714.19,-350.4521C781.4617,-348.3596 888.2141,-343.5863 980,-333 1000.2274,-330.667 1022.3918,-327.0086 1041.4212,-323.5222"/>
<polygon fill="#191970" stroke="#191970" points="714.0398,-346.9549 704.1494,-350.7536 714.25,-353.9518 714.0398,-346.9549"/>
</g>
<!-- Node106&#45;&gt;Node87 -->
<g id="edge31" class="edge">
<title>Node106&#45;&gt;Node87</title>
<path fill="none" stroke="#191970" d="M833.0311,-302.9757C838.2718,-300.7301 843.4142,-298.0874 848,-295 857.2682,-288.7601 904.6568,-232.6804 923.8813,-209.7273"/>
<polygon fill="#191970" stroke="#191970" points="831.6726,-299.7481 823.5909,-306.599 834.181,-306.2833 831.6726,-299.7481"/>
</g>
<!-- Node107 -->
<g id="node24" class="node">
<title>Node107</title>
<g id="a_node24"><a xlink:href="structXCS.html#adc9b621f2b7a306fbf381dd0efaf268b" target="_top" xlink:title="XCS::load">
<polygon fill="none" stroke="#000000" points="901,-304.5 901,-323.5 963,-323.5 963,-304.5 901,-304.5"/>
<text text-anchor="middle" x="932" y="-311.5" font-family="Helvetica,sans-Serif" font-size="10.00" fill="#000000">XCS::load</text>
</a>
</g>
</g>
<!-- Node106&#45;&gt;Node107 -->
<g id="edge32" class="edge">
<title>Node106&#45;&gt;Node107</title>
<path fill="none" stroke="#191970" d="M833.6193,-314C854.8613,-314 880.6716,-314 900.5251,-314"/>
<polygon fill="#191970" stroke="#191970" points="833.6045,-310.5001 823.6045,-314 833.6044,-317.5001 833.6045,-310.5001"/>
</g>
<!-- Node107&#45;&gt;Node89 -->
<g id="edge33" class="edge">
<title>Node107&#45;&gt;Node89</title>
<path fill="none" stroke="#191970" d="M973.0997,-314C986.2048,-314 1001.1247,-314 1015.7968,-314"/>
<polygon fill="#191970" stroke="#191970" points="973.0182,-310.5001 963.0181,-314 973.0181,-317.5001 973.0182,-310.5001"/>
</g>
<!-- Node109 -->
<g id="node26" class="node">
<title>Node109</title>
<g id="a_node26"><a xlink:href="ea_8h.html#ae3824341a2f5482cb6ac70b3839ded51" target="_top" xlink:title="Executes the evolutionary algorithm (EA). ">
<polygon fill="none" stroke="#000000" points="371,-133.5 371,-152.5 400,-152.5 400,-133.5 371,-133.5"/>
<text text-anchor="middle" x="385.5" y="-140.5" font-family="Helvetica,sans-Serif" font-size="10.00" fill="#000000">ea</text>
</a>
</g>
</g>
<!-- Node108&#45;&gt;Node109 -->
<g id="edge35" class="edge">
<title>Node108&#45;&gt;Node109</title>
<path fill="none" stroke="#191970" d="M336.0343,-151.8861C348.1634,-149.7072 361.1927,-147.3666 370.8329,-145.6348"/>
<polygon fill="#191970" stroke="#191970" points="335.3752,-148.4483 326.1517,-153.6614 336.613,-155.338 335.3752,-148.4483"/>
</g>
<!-- Node109&#45;&gt;Node90 -->
<g id="edge36" class="edge">
<title>Node109&#45;&gt;Node90</title>
<path fill="none" stroke="#191970" d="M410.1078,-138.9166C424.5131,-136.5262 443.0595,-133.4486 459.5611,-130.7104"/>
<polygon fill="#191970" stroke="#191970" points="409.2936,-135.5038 400.0015,-140.5936 410.4396,-142.4093 409.2936,-135.5038"/>
</g>
<!-- Node109&#45;&gt;Node94 -->
<g id="edge41" class="edge">
<title>Node109&#45;&gt;Node94</title>
<path fill="none" stroke="#191970" d="M409.886,-147.0466C423.9591,-149.3819 442.0384,-152.3819 458.3048,-155.0811"/>
<polygon fill="#191970" stroke="#191970" points="410.4396,-143.5907 400.0015,-145.4064 409.2936,-150.4962 410.4396,-143.5907"/>
</g>
<!-- Node110 -->
<g id="node27" class="node">
<title>Node110</title>
<g id="a_node27"><a xlink:href="xcs__single__step_8h.html#aff4aec035e4573993a7906569f2028f5" target="_top" xlink:title="Creates the action set, updates the classifiers and runs the EA. ">
<polygon fill="none" stroke="#000000" points="451,-76.5 451,-95.5 549,-95.5 549,-76.5 451,-76.5"/>
<text text-anchor="middle" x="500" y="-83.5" font-family="Helvetica,sans-Serif" font-size="10.00" fill="#000000">xcs_single_update</text>
</a>
</g>
</g>
<!-- Node109&#45;&gt;Node110 -->
<g id="edge37" class="edge">
<title>Node109&#45;&gt;Node110</title>
<path fill="none" stroke="#191970" d="M407.1704,-127.4088C418.1475,-119.9719 431.8971,-111.3373 445,-105 452.3665,-101.4371 460.5776,-98.2267 468.3613,-95.5025"/>
<polygon fill="#191970" stroke="#191970" points="404.9008,-124.7234 398.6769,-133.2974 408.8892,-130.476 404.9008,-124.7234"/>
</g>
<!-- Node110&#45;&gt;Node92 -->
<g id="edge40" class="edge">
<title>Node110&#45;&gt;Node92</title>
<path fill="none" stroke="#191970" d="M559.4999,-86C574.7432,-86 590.8308,-86 605.0224,-86"/>
<polygon fill="#191970" stroke="#191970" points="559.1154,-82.5001 549.1154,-86 559.1153,-89.5001 559.1154,-82.5001"/>
</g>
<!-- Node111 -->
<g id="node28" class="node">
<title>Node111</title>
<g id="a_node28"><a xlink:href="structXCS.html#aedc01ad6f00a54b260a7605929a1d4c9" target="_top" xlink:title="XCS::single_update">
<polygon fill="none" stroke="#000000" points="595.5,-.5 595.5,-19.5 699.5,-19.5 699.5,-.5 595.5,-.5"/>
<text text-anchor="middle" x="647.5" y="-7.5" font-family="Helvetica,sans-Serif" font-size="10.00" fill="#000000">XCS::single_update</text>
</a>
</g>
</g>
<!-- Node110&#45;&gt;Node111 -->
<g id="edge38" class="edge">
<title>Node110&#45;&gt;Node111</title>
<path fill="none" stroke="#191970" d="M524.2135,-71.1268C542.3096,-60.2679 567.8178,-45.4976 591,-34 601.4068,-28.8386 613.1944,-23.7215 623.3004,-19.5467"/>
<polygon fill="#191970" stroke="#191970" points="522.2228,-68.2405 515.4776,-76.4108 525.8456,-74.23 522.2228,-68.2405"/>
</g>
<!-- Node111&#45;&gt;Node89 -->
<g id="edge39" class="edge">
<title>Node111&#45;&gt;Node89</title>
<path fill="none" stroke="#191970" d="M709.868,-7.6016C750.4252,-8.0292 803.7911,-12.4024 848,-29 915.6688,-54.4053 931.5881,-70.3271 980,-124 1033.9981,-183.8661 1073.3131,-274.8793 1085.2324,-304.3965"/>
<polygon fill="#191970" stroke="#191970" points="709.8562,-4.1016 699.8462,-7.5728 709.8361,-11.1016 709.8562,-4.1016"/>
</g>
<!-- Node112&#45;&gt;Node108 -->
<g id="edge43" class="edge">
<title>Node112&#45;&gt;Node108</title>
<path fill="none" stroke="#191970" d="M239.8816,-182.5886C252.3892,-177.6376 266.3009,-172.1309 277.7829,-167.5859"/>
<polygon fill="#191970" stroke="#191970" points="238.2347,-179.4761 230.2249,-186.411 240.8111,-185.9848 238.2347,-179.4761"/>
</g>
</g>
</svg>
