<?xml version="1.0" encoding="UTF-8" standalone="no"?>
<!DOCTYPE svg PUBLIC "-//W3C//DTD SVG 1.1//EN"
 "http://www.w3.org/Graphics/SVG/1.1/DTD/svg11.dtd">
<!-- Generated by graphviz version 2.40.1 (20161225.0304)
 -->
<!-- Title: act_general Pages: 1 -->
<svg width="1218pt" height="275pt"
 viewBox="0.00 0.00 1218.00 275.00" xmlns="http://www.w3.org/2000/svg" xmlns:xlink="http://www.w3.org/1999/xlink">
<g id="graph0" class="graph" transform="scale(1 1) rotate(0) translate(4 271)">
<title>act_general</title>
<!-- Node116 -->
<g id="node1" class="node">
<title>Node116</title>
<polygon fill="#bfbfbf" stroke="#000000" points="0,-171.5 0,-190.5 67,-190.5 67,-171.5 0,-171.5"/>
<text text-anchor="middle" x="33.5" y="-178.5" font-family="Helvetica,sans-Serif" font-size="10.00" fill="#000000">act_general</text>
</g>
<!-- Node117 -->
<g id="node2" class="node">
<title>Node117</title>
<g id="a_node2"><a xlink:href="cl_8h.html#a115dd8287f1fdd3480bc158321e8a842" target="_top" xlink:title="Returns whether classifier c1 is more general than c2. ">
<polygon fill="none" stroke="#000000" points="103,-171.5 103,-190.5 164,-190.5 164,-171.5 103,-171.5"/>
<text text-anchor="middle" x="133.5" y="-178.5" font-family="Helvetica,sans-Serif" font-size="10.00" fill="#000000">cl_general</text>
</a>
</g>
</g>
<!-- Node116&#45;&gt;Node117 -->
<g id="edge1" class="edge">
<title>Node116&#45;&gt;Node117</title>
<path fill="none" stroke="#191970" d="M77.0924,-181C85.7817,-181 94.7335,-181 102.8746,-181"/>
<polygon fill="#191970" stroke="#191970" points="77.0768,-177.5001 67.0767,-181 77.0767,-184.5001 77.0768,-177.5001"/>
</g>
<!-- Node118 -->
<g id="node3" class="node">
<title>Node118</title>
<g id="a_node3"><a xlink:href="clset_8c.html#aa301d85075acc82499cb031066d89778" target="_top" xlink:title="Performs set subsumption. ">
<polygon fill="none" stroke="#000000" points="200,-190.5 200,-209.5 298,-209.5 298,-190.5 200,-190.5"/>
<text text-anchor="middle" x="249" y="-197.5" font-family="Helvetica,sans-Serif" font-size="10.00" fill="#000000">clset_subsumption</text>
</a>
</g>
</g>
<!-- Node117&#45;&gt;Node118 -->
<g id="edge2" class="edge">
<title>Node117&#45;&gt;Node118</title>
<path fill="none" stroke="#191970" d="M174.0222,-187.666C182.3757,-189.0402 191.2585,-190.5014 199.8789,-191.9195"/>
<polygon fill="#191970" stroke="#191970" points="174.5842,-184.2115 164.1486,-186.0418 173.4479,-191.1186 174.5842,-184.2115"/>
</g>
<!-- Node137 -->
<g id="node22" class="node">
<title>Node137</title>
<g id="a_node22"><a xlink:href="ea_8c.html#a8ea16017fe8753d9b079e8e333d98545" target="_top" xlink:title="Performs evolutionary algorithm subsumption. ">
<polygon fill="none" stroke="#000000" points="213,-152.5 213,-171.5 285,-171.5 285,-152.5 213,-152.5"/>
<text text-anchor="middle" x="249" y="-159.5" font-family="Helvetica,sans-Serif" font-size="10.00" fill="#000000">ea_subsume</text>
</a>
</g>
</g>
<!-- Node117&#45;&gt;Node137 -->
<g id="edge26" class="edge">
<title>Node117&#45;&gt;Node137</title>
<path fill="none" stroke="#191970" d="M174.3651,-174.2776C186.9246,-172.2115 200.6523,-169.9533 212.8709,-167.9433"/>
<polygon fill="#191970" stroke="#191970" points="173.4479,-170.8814 164.1486,-175.9582 174.5842,-177.7885 173.4479,-170.8814"/>
</g>
<!-- Node119 -->
<g id="node4" class="node">
<title>Node119</title>
<g id="a_node4"><a xlink:href="clset_8h.html#add82b1503285b43b57b320ea3ef78a85" target="_top" xlink:title="Provides reinforcement to the set and performs set subsumption. ">
<polygon fill="none" stroke="#000000" points="418,-190.5 418,-209.5 490,-209.5 490,-190.5 418,-190.5"/>
<text text-anchor="middle" x="454" y="-197.5" font-family="Helvetica,sans-Serif" font-size="10.00" fill="#000000">clset_update</text>
</a>
</g>
</g>
<!-- Node118&#45;&gt;Node119 -->
<g id="edge3" class="edge">
<title>Node118&#45;&gt;Node119</title>
<path fill="none" stroke="#191970" d="M308.3198,-200C343.7228,-200 387.5359,-200 417.8174,-200"/>
<polygon fill="#191970" stroke="#191970" points="308.1026,-196.5001 298.1026,-200 308.1026,-203.5001 308.1026,-196.5001"/>
</g>
<!-- Node120 -->
<g id="node5" class="node">
<title>Node120</title>
<g id="a_node5"><a xlink:href="xcs__multi__step_8c.html#ad50c415970b4bfc42f469fb38c5e68fa" target="_top" xlink:title="Executes a multi&#45;step trial using a built&#45;in environment. ">
<polygon fill="none" stroke="#000000" points="535,-209.5 535,-228.5 615,-228.5 615,-209.5 535,-209.5"/>
<text text-anchor="middle" x="575" y="-216.5" font-family="Helvetica,sans-Serif" font-size="10.00" fill="#000000">xcs_multi_trial</text>
</a>
</g>
</g>
<!-- Node119&#45;&gt;Node120 -->
<g id="edge4" class="edge">
<title>Node119&#45;&gt;Node120</title>
<path fill="none" stroke="#191970" d="M500.4857,-207.2994C511.8396,-209.0823 523.8903,-210.9745 534.9162,-212.7058"/>
<polygon fill="#191970" stroke="#191970" points="500.7259,-203.7943 490.304,-205.7006 499.64,-210.7096 500.7259,-203.7943"/>
</g>
<!-- Node123 -->
<g id="node8" class="node">
<title>Node123</title>
<g id="a_node8"><a xlink:href="xcs__single__step_8h.html#a0ff6b521f66224d56ef0e6f50f5781b9" target="_top" xlink:title="Creates the action set, updates the classifiers and runs the EA. ">
<polygon fill="none" stroke="#000000" points="526,-171.5 526,-190.5 624,-190.5 624,-171.5 526,-171.5"/>
<text text-anchor="middle" x="575" y="-178.5" font-family="Helvetica,sans-Serif" font-size="10.00" fill="#000000">xcs_single_update</text>
</a>
</g>
</g>
<!-- Node119&#45;&gt;Node123 -->
<g id="edge7" class="edge">
<title>Node119&#45;&gt;Node123</title>
<path fill="none" stroke="#191970" d="M500.245,-192.7384C508.5884,-191.4283 517.3155,-190.0579 525.741,-188.7349"/>
<polygon fill="#191970" stroke="#191970" points="499.64,-189.2904 490.304,-194.2994 500.7259,-196.2057 499.64,-189.2904"/>
</g>
<!-- Node128 -->
<g id="node13" class="node">
<title>Node128</title>
<g id="a_node13"><a xlink:href="xcsf_8c.html#af5fb604e81235fdcb2ed8925d9291f59" target="_top" xlink:title="Executes a single XCSF trial. ">
<polygon fill="none" stroke="#000000" points="547,-95.5 547,-114.5 603,-114.5 603,-95.5 547,-95.5"/>
<text text-anchor="middle" x="575" y="-102.5" font-family="Helvetica,sans-Serif" font-size="10.00" fill="#000000">xcsf_trial</text>
</a>
</g>
</g>
<!-- Node119&#45;&gt;Node128 -->
<g id="edge13" class="edge">
<title>Node119&#45;&gt;Node128</title>
<path fill="none" stroke="#191970" d="M483.2952,-185.3249C485.6057,-183.9312 487.8677,-182.4827 490,-181 519.9048,-160.2061 550.7326,-130.0417 565.7077,-114.7191"/>
<polygon fill="#191970" stroke="#191970" points="481.3097,-182.4262 474.3152,-190.384 484.7457,-188.5249 481.3097,-182.4262"/>
</g>
<!-- Node121 -->
<g id="node6" class="node">
<title>Node121</title>
<g id="a_node6"><a xlink:href="xcs__multi__step_8h.html#acc29d4a55dbd56c16ea5f19f15a7c677" target="_top" xlink:title="Executes a multi&#45;step reinforcement learning experiment. ">
<polygon fill="none" stroke="#000000" points="782,-247.5 782,-266.5 886,-266.5 886,-247.5 782,-247.5"/>
<text text-anchor="middle" x="834" y="-254.5" font-family="Helvetica,sans-Serif" font-size="10.00" fill="#000000">xcs_multi_step_exp</text>
</a>
</g>
</g>
<!-- Node120&#45;&gt;Node121 -->
<g id="edge5" class="edge">
<title>Node120&#45;&gt;Node121</title>
<path fill="none" stroke="#191970" d="M623.1542,-230.7407C635.1403,-233.3929 647.9962,-236.0093 660,-238 700.6208,-244.7364 746.9877,-249.6646 781.6378,-252.8116"/>
<polygon fill="#191970" stroke="#191970" points="623.854,-227.3106 613.3281,-228.5174 622.3092,-234.138 623.854,-227.3106"/>
</g>
<!-- Node122 -->
<g id="node7" class="node">
<title>Node122</title>
<g id="a_node7"><a xlink:href="main_8c.html#a3c04138a5bfe5d72780bb7e82a18e627" target="_top" xlink:title="main">
<polygon fill="none" stroke="#000000" points="957,-209.5 957,-228.5 995,-228.5 995,-209.5 957,-209.5"/>
<text text-anchor="middle" x="976" y="-216.5" font-family="Helvetica,sans-Serif" font-size="10.00" fill="#000000">main</text>
</a>
</g>
</g>
<!-- Node121&#45;&gt;Node122 -->
<g id="edge6" class="edge">
<title>Node121&#45;&gt;Node122</title>
<path fill="none" stroke="#191970" d="M879.5443,-244.8121C905.6525,-237.8254 937.0537,-229.4222 956.7754,-224.1446"/>
<polygon fill="#191970" stroke="#191970" points="878.5879,-241.4448 869.8326,-247.411 880.3975,-248.2069 878.5879,-241.4448"/>
</g>
<!-- Node124 -->
<g id="node9" class="node">
<title>Node124</title>
<g id="a_node9"><a xlink:href="structXCS.html#aedc01ad6f00a54b260a7605929a1d4c9" target="_top" xlink:title="XCS::single_update">
<polygon fill="none" stroke="#000000" points="924,-149.5 924,-168.5 1028,-168.5 1028,-149.5 924,-149.5"/>
<text text-anchor="middle" x="976" y="-156.5" font-family="Helvetica,sans-Serif" font-size="10.00" fill="#000000">XCS::single_update</text>
</a>
</g>
</g>
<!-- Node123&#45;&gt;Node124 -->
<g id="edge8" class="edge">
<title>Node123&#45;&gt;Node124</title>
<path fill="none" stroke="#191970" d="M634.3581,-177.7434C712.6934,-173.4458 849.3532,-165.9482 923.8847,-161.8592"/>
<polygon fill="#191970" stroke="#191970" points="633.9637,-174.2597 624.1705,-178.3024 634.3472,-181.2492 633.9637,-174.2597"/>
</g>
<!-- Node126 -->
<g id="node11" class="node">
<title>Node126</title>
<g id="a_node11"><a xlink:href="xcs__single__step_8c.html#a536ab4256e871e31959ea6e907455340" target="_top" xlink:title="Executes a single&#45;step trial using a built&#45;in environment. ">
<polygon fill="none" stroke="#000000" points="660,-209.5 660,-228.5 744,-228.5 744,-209.5 660,-209.5"/>
<text text-anchor="middle" x="702" y="-216.5" font-family="Helvetica,sans-Serif" font-size="10.00" fill="#000000">xcs_single_trial</text>
</a>
</g>
</g>
<!-- Node123&#45;&gt;Node126 -->
<g id="edge10" class="edge">
<title>Node123&#45;&gt;Node126</title>
<path fill="none" stroke="#191970" d="M616.8943,-193.5353C634.1712,-198.7048 653.8707,-204.5991 669.9628,-209.4141"/>
<polygon fill="#191970" stroke="#191970" points="617.6311,-190.1025 607.0475,-190.589 615.6245,-196.8088 617.6311,-190.1025"/>
</g>
<!-- Node125 -->
<g id="node10" class="node">
<title>Node125</title>
<g id="a_node10"><a xlink:href="python__wrapper_8cpp.html#afbdcc1358036a0b83a6b239da2b098a2" target="_top" xlink:title="BOOST_PYTHON_MODULE">
<polygon fill="none" stroke="#000000" points="1064,-75.5 1064,-94.5 1210,-94.5 1210,-75.5 1064,-75.5"/>
<text text-anchor="middle" x="1137" y="-82.5" font-family="Helvetica,sans-Serif" font-size="10.00" fill="#000000">BOOST_PYTHON_MODULE</text>
</a>
</g>
</g>
<!-- Node124&#45;&gt;Node125 -->
<g id="edge9" class="edge">
<title>Node124&#45;&gt;Node125</title>
<path fill="none" stroke="#191970" d="M1006.0516,-145.1875C1038.1181,-130.4488 1088.0754,-107.4871 1116.1062,-94.6034"/>
<polygon fill="#191970" stroke="#191970" points="1004.3428,-142.1208 996.7183,-149.4773 1007.2662,-148.4811 1004.3428,-142.1208"/>
</g>
<!-- Node127 -->
<g id="node12" class="node">
<title>Node127</title>
<g id="a_node12"><a xlink:href="xcs__single__step_8h.html#a39a031bf59eaa9b33e30e614610dcda8" target="_top" xlink:title="Executes a single&#45;step reinforcement learning experiment. ">
<polygon fill="none" stroke="#000000" points="780,-209.5 780,-228.5 888,-228.5 888,-209.5 780,-209.5"/>
<text text-anchor="middle" x="834" y="-216.5" font-family="Helvetica,sans-Serif" font-size="10.00" fill="#000000">xcs_single_step_exp</text>
</a>
</g>
</g>
<!-- Node126&#45;&gt;Node127 -->
<g id="edge11" class="edge">
<title>Node126&#45;&gt;Node127</title>
<path fill="none" stroke="#191970" d="M754.1756,-219C762.5711,-219 771.2792,-219 779.7227,-219"/>
<polygon fill="#191970" stroke="#191970" points="754.1286,-215.5001 744.1285,-219 754.1285,-222.5001 754.1286,-215.5001"/>
</g>
<!-- Node127&#45;&gt;Node122 -->
<g id="edge12" class="edge">
<title>Node127&#45;&gt;Node122</title>
<path fill="none" stroke="#191970" d="M898.1149,-219C919.4136,-219 941.5466,-219 956.75,-219"/>
<polygon fill="#191970" stroke="#191970" points="898.0892,-215.5001 888.0892,-219 898.0892,-222.5001 898.0892,-215.5001"/>
</g>
<!-- Node129 -->
<g id="node14" class="node">
<title>Node129</title>
<g id="a_node14"><a xlink:href="xcsf_8h.html#a40f4dfe69c6480f25c55d21c44746eb8" target="_top" xlink:title="Executes MAX_TRIALS number of XCSF learning iterations using the training. data and test iterations u...">
<polygon fill="none" stroke="#000000" points="675,-95.5 675,-114.5 729,-114.5 729,-95.5 675,-95.5"/>
<text text-anchor="middle" x="702" y="-102.5" font-family="Helvetica,sans-Serif" font-size="10.00" fill="#000000">xcsf_fit2</text>
</a>
</g>
</g>
<!-- Node128&#45;&gt;Node129 -->
<g id="edge14" class="edge">
<title>Node128&#45;&gt;Node129</title>
<path fill="none" stroke="#191970" d="M613.4249,-105C633.2157,-105 656.8779,-105 674.7651,-105"/>
<polygon fill="#191970" stroke="#191970" points="613.1855,-101.5001 603.1854,-105 613.1854,-108.5001 613.1855,-101.5001"/>
</g>
<!-- Node133 -->
<g id="node18" class="node">
<title>Node133</title>
<g id="a_node18"><a xlink:href="xcsf_8h.html#a90b938e4ae2ef92284e8eabfcf4b7b7b" target="_top" xlink:title="Calculates the XCSF predictions for the provided input. ">
<polygon fill="none" stroke="#000000" points="667,-48.5 667,-67.5 737,-67.5 737,-48.5 667,-48.5"/>
<text text-anchor="middle" x="702" y="-55.5" font-family="Helvetica,sans-Serif" font-size="10.00" fill="#000000">xcsf_predict</text>
</a>
</g>
</g>
<!-- Node128&#45;&gt;Node133 -->
<g id="edge20" class="edge">
<title>Node128&#45;&gt;Node133</title>
<path fill="none" stroke="#191970" d="M610.1587,-91.9885C630.9768,-84.2842 656.908,-74.6876 675.902,-67.6583"/>
<polygon fill="#191970" stroke="#191970" points="608.8639,-88.7356 600.7003,-95.4888 611.2935,-95.3005 608.8639,-88.7356"/>
</g>
<!-- Node135 -->
<g id="node20" class="node">
<title>Node135</title>
<g id="a_node20"><a xlink:href="xcsf_8h.html#a348b8cd321211c377fb1deedc62c7c67" target="_top" xlink:title="Calculates the XCSF error for the input data. ">
<polygon fill="none" stroke="#000000" points="669.5,-.5 669.5,-19.5 734.5,-19.5 734.5,-.5 669.5,-.5"/>
<text text-anchor="middle" x="702" y="-7.5" font-family="Helvetica,sans-Serif" font-size="10.00" fill="#000000">xcsf_score</text>
</a>
</g>
</g>
<!-- Node128&#45;&gt;Node135 -->
<g id="edge23" class="edge">
<title>Node128&#45;&gt;Node135</title>
<path fill="none" stroke="#191970" d="M595.0657,-88.9086C612.1381,-75.3416 637.4116,-55.5481 660,-39 669.0066,-32.4019 679.3217,-25.2736 687.4755,-19.7354"/>
<polygon fill="#191970" stroke="#191970" points="592.5796,-86.4144 586.9431,-95.3855 596.9438,-91.8875 592.5796,-86.4144"/>
</g>
<!-- Node129&#45;&gt;Node122 -->
<g id="edge15" class="edge">
<title>Node129&#45;&gt;Node122</title>
<path fill="none" stroke="#191970" d="M734.2271,-118.4084C791.7085,-142.324 910.2449,-191.642 956.7116,-210.9749"/>
<polygon fill="#191970" stroke="#191970" points="735.4671,-115.1335 724.8898,-114.5235 732.7781,-121.5964 735.4671,-115.1335"/>
</g>
<!-- Node130 -->
<g id="node15" class="node">
<title>Node130</title>
<g id="a_node15"><a xlink:href="structXCS.html#a7d53320740db8e846251bacd0238a9fb" target="_top" xlink:title="XCS::fit">
<polygon fill="none" stroke="#000000" points="808,-57.5 808,-76.5 860,-76.5 860,-57.5 808,-57.5"/>
<text text-anchor="middle" x="834" y="-64.5" font-family="Helvetica,sans-Serif" font-size="10.00" fill="#000000">XCS::fit</text>
</a>
</g>
</g>
<!-- Node129&#45;&gt;Node130 -->
<g id="edge16" class="edge">
<title>Node129&#45;&gt;Node130</title>
<path fill="none" stroke="#191970" d="M738.704,-94.4337C760.6936,-88.1033 788.1267,-80.206 807.905,-74.5122"/>
<polygon fill="#191970" stroke="#191970" points="737.6721,-91.0885 729.0307,-97.2184 739.6087,-97.8153 737.6721,-91.0885"/>
</g>
<!-- Node131 -->
<g id="node16" class="node">
<title>Node131</title>
<g id="a_node16"><a xlink:href="xcsf_8h.html#afd4a983899f1980887b8375e40b32a72" target="_top" xlink:title="Executes MAX_TRIALS number of XCSF learning iterations using the training data. ">
<polygon fill="none" stroke="#000000" points="807,-95.5 807,-114.5 861,-114.5 861,-95.5 807,-95.5"/>
<text text-anchor="middle" x="834" y="-102.5" font-family="Helvetica,sans-Serif" font-size="10.00" fill="#000000">xcsf_fit1</text>
</a>
</g>
</g>
<!-- Node129&#45;&gt;Node131 -->
<g id="edge17" class="edge">
<title>Node129&#45;&gt;Node131</title>
<path fill="none" stroke="#191970" d="M739.0891,-105C760.5146,-105 787.0062,-105 806.5518,-105"/>
<polygon fill="#191970" stroke="#191970" points="739.0307,-101.5001 729.0307,-105 739.0307,-108.5001 739.0307,-101.5001"/>
</g>
<!-- Node132 -->
<g id="node17" class="node">
<title>Node132</title>
<g id="a_node17"><a xlink:href="structXCS.html#ad2ccafe59d2b4ae6d0e1cbc15edee53c" target="_top" xlink:title="XCS::fit">
<polygon fill="none" stroke="#000000" points="950,-90.5 950,-109.5 1002,-109.5 1002,-90.5 950,-90.5"/>
<text text-anchor="middle" x="976" y="-97.5" font-family="Helvetica,sans-Serif" font-size="10.00" fill="#000000">XCS::fit</text>
</a>
</g>
</g>
<!-- Node131&#45;&gt;Node132 -->
<g id="edge18" class="edge">
<title>Node131&#45;&gt;Node132</title>
<path fill="none" stroke="#191970" d="M871.1114,-103.6933C895.7321,-102.8263 927.4557,-101.7093 949.538,-100.9318"/>
<polygon fill="#191970" stroke="#191970" points="870.914,-100.1979 861.0434,-104.0478 871.1604,-107.1936 870.914,-100.1979"/>
</g>
<!-- Node132&#45;&gt;Node125 -->
<g id="edge19" class="edge">
<title>Node132&#45;&gt;Node125</title>
<path fill="none" stroke="#191970" d="M1012.2803,-96.6199C1027.58,-95.1944 1045.9696,-93.4811 1063.8691,-91.8134"/>
<polygon fill="#191970" stroke="#191970" points="1011.8579,-93.1439 1002.2258,-97.5566 1012.5073,-100.1138 1011.8579,-93.1439"/>
</g>
<!-- Node134 -->
<g id="node19" class="node">
<title>Node134</title>
<g id="a_node19"><a xlink:href="structXCS.html#a911ed75c86abed7807d33eb1385240ed" target="_top" xlink:title="XCS::predict">
<polygon fill="none" stroke="#000000" points="939.5,-47.5 939.5,-66.5 1012.5,-66.5 1012.5,-47.5 939.5,-47.5"/>
<text text-anchor="middle" x="976" y="-54.5" font-family="Helvetica,sans-Serif" font-size="10.00" fill="#000000">XCS::predict</text>
</a>
</g>
</g>
<!-- Node133&#45;&gt;Node134 -->
<g id="edge21" class="edge">
<title>Node133&#45;&gt;Node134</title>
<path fill="none" stroke="#191970" d="M747.2531,-51.2062C757.9643,-49.8735 769.3652,-48.6789 780,-48 827.9025,-44.9418 840.0623,-45.555 888,-48 904.8713,-48.8605 923.4914,-50.6432 939.2424,-52.3967"/>
<polygon fill="#191970" stroke="#191970" points="746.7049,-47.7479 737.2425,-52.5138 747.6116,-54.689 746.7049,-47.7479"/>
</g>
<!-- Node134&#45;&gt;Node125 -->
<g id="edge22" class="edge">
<title>Node134&#45;&gt;Node125</title>
<path fill="none" stroke="#191970" d="M1022.5606,-65.0975C1041.2207,-68.3427 1062.8591,-72.1059 1082.2646,-75.4808"/>
<polygon fill="#191970" stroke="#191970" points="1022.9852,-61.6189 1012.5334,-63.3536 1021.7858,-68.5154 1022.9852,-61.6189"/>
</g>
<!-- Node136 -->
<g id="node21" class="node">
<title>Node136</title>
<g id="a_node21"><a xlink:href="structXCS.html#aa77bc77484d6d14bf512304a23cfec88" target="_top" xlink:title="XCS::score">
<polygon fill="none" stroke="#000000" points="942,-.5 942,-19.5 1010,-19.5 1010,-.5 942,-.5"/>
<text text-anchor="middle" x="976" y="-7.5" font-family="Helvetica,sans-Serif" font-size="10.00" fill="#000000">XCS::score</text>
</a>
</g>
</g>
<!-- Node135&#45;&gt;Node136 -->
<g id="edge24" class="edge">
<title>Node135&#45;&gt;Node136</title>
<path fill="none" stroke="#191970" d="M744.5084,-10C798.8389,-10 891.8283,-10 941.8172,-10"/>
<polygon fill="#191970" stroke="#191970" points="744.5074,-6.5001 734.5074,-10 744.5073,-13.5001 744.5074,-6.5001"/>
</g>
<!-- Node136&#45;&gt;Node125 -->
<g id="edge25" class="edge">
<title>Node136&#45;&gt;Node125</title>
<path fill="none" stroke="#191970" d="M1006.079,-24.012C1038.2441,-38.9957 1088.3873,-62.3543 1116.3612,-75.3856"/>
<polygon fill="#191970" stroke="#191970" points="1007.261,-20.7015 996.7183,-19.6514 1004.3051,-27.0468 1007.261,-20.7015"/>
</g>
<!-- Node138 -->
<g id="node23" class="node">
<title>Node138</title>
<g id="a_node23"><a xlink:href="ea_8c.html#a72cd70b4efb82200d9c3004e1658a69c" target="_top" xlink:title="Adds offspring to the population. ">
<polygon fill="none" stroke="#000000" points="334,-152.5 334,-171.5 382,-171.5 382,-152.5 334,-152.5"/>
<text text-anchor="middle" x="358" y="-159.5" font-family="Helvetica,sans-Serif" font-size="10.00" fill="#000000">ea_add</text>
</a>
</g>
</g>
<!-- Node137&#45;&gt;Node138 -->
<g id="edge27" class="edge">
<title>Node137&#45;&gt;Node138</title>
<path fill="none" stroke="#191970" d="M295.6609,-162C308.8277,-162 322.6179,-162 333.8707,-162"/>
<polygon fill="#191970" stroke="#191970" points="295.2955,-158.5001 285.2954,-162 295.2954,-165.5001 295.2955,-158.5001"/>
</g>
<!-- Node139 -->
<g id="node24" class="node">
<title>Node139</title>
<g id="a_node24"><a xlink:href="ea_8h.html#ae90a9b4131bb94462265b9c928499eb8" target="_top" xlink:title="Executes the evolutionary algorithm (EA). ">
<polygon fill="none" stroke="#000000" points="439.5,-152.5 439.5,-171.5 468.5,-171.5 468.5,-152.5 439.5,-152.5"/>
<text text-anchor="middle" x="454" y="-159.5" font-family="Helvetica,sans-Serif" font-size="10.00" fill="#000000">ea</text>
</a>
</g>
</g>
<!-- Node138&#45;&gt;Node139 -->
<g id="edge28" class="edge">
<title>Node138&#45;&gt;Node139</title>
<path fill="none" stroke="#191970" d="M392.4184,-162C408.5491,-162 426.9096,-162 439.3544,-162"/>
<polygon fill="#191970" stroke="#191970" points="392.2249,-158.5001 382.2249,-162 392.2248,-165.5001 392.2249,-158.5001"/>
</g>
<!-- Node139&#45;&gt;Node120 -->
<g id="edge29" class="edge">
<title>Node139&#45;&gt;Node120</title>
<path fill="none" stroke="#191970" d="M477.849,-174.5971C498.6892,-185.6035 525.6846,-199.8562 526,-200 533.3057,-203.3308 541.3788,-206.6168 548.8284,-209.4952"/>
<polygon fill="#191970" stroke="#191970" points="479.3019,-171.4063 468.8248,-169.8309 476.0327,-177.5961 479.3019,-171.4063"/>
</g>
<!-- Node139&#45;&gt;Node123 -->
<g id="edge30" class="edge">
<title>Node139&#45;&gt;Node123</title>
<path fill="none" stroke="#191970" d="M478.8495,-165.902C492.4491,-168.0375 509.7848,-170.7596 525.9809,-173.3028"/>
<polygon fill="#191970" stroke="#191970" points="479.2589,-162.4235 468.837,-164.3298 478.173,-169.3387 479.2589,-162.4235"/>
</g>
<!-- Node139&#45;&gt;Node128 -->
<g id="edge31" class="edge">
<title>Node139&#45;&gt;Node128</title>
<path fill="none" stroke="#191970" d="M478.0336,-150.6784C500.4987,-140.0956 533.6645,-124.4721 554.7984,-114.5164"/>
<polygon fill="#191970" stroke="#191970" points="476.3919,-147.5828 468.837,-155.0107 479.375,-153.9153 476.3919,-147.5828"/>
</g>
</g>
</svg>
