<?xml version="1.0" encoding="UTF-8" standalone="no"?>
<!DOCTYPE svg PUBLIC "-//W3C//DTD SVG 1.1//EN"
 "http://www.w3.org/Graphics/SVG/1.1/DTD/svg11.dtd">
<!-- Generated by graphviz version 2.40.1 (20161225.0304)
 -->
<!-- Title: action_set Pages: 1 -->
<svg width="1136pt" height="459pt"
 viewBox="0.00 0.00 1136.00 458.79" xmlns="http://www.w3.org/2000/svg" xmlns:xlink="http://www.w3.org/1999/xlink">
<g id="graph0" class="graph" transform="scale(1 1) rotate(0) translate(4 454.7896)">
<title>action_set</title>
<!-- Node1 -->
<g id="node1" class="node">
<title>Node1</title>
<polygon fill="#bfbfbf" stroke="#000000" points="0,-247.5 0,-266.5 62,-266.5 62,-247.5 0,-247.5"/>
<text text-anchor="middle" x="31" y="-254.5" font-family="Helvetica,sans-Serif" font-size="10.00" fill="#000000">action_set</text>
</g>
<!-- Node2 -->
<g id="node2" class="node">
<title>Node2</title>
<g id="a_node2"><a xlink:href="cl_8h.html#a619c0c3f1c27d0d069f59be58a898007" target="_top" xlink:title="Reads the classifier from a binary file. ">
<polygon fill="none" stroke="#000000" points="98.5,-294.5 98.5,-313.5 145.5,-313.5 145.5,-294.5 98.5,-294.5"/>
<text text-anchor="middle" x="122" y="-301.5" font-family="Helvetica,sans-Serif" font-size="10.00" fill="#000000">cl_load</text>
</a>
</g>
</g>
<!-- Node1&#45;&gt;Node2 -->
<g id="edge1" class="edge">
<title>Node1&#45;&gt;Node2</title>
<path fill="none" stroke="#191970" d="M58.446,-271.1754C72.9467,-278.6648 90.3674,-287.6623 103.2998,-294.3417"/>
<polygon fill="#191970" stroke="#191970" points="59.9063,-267.9904 49.4152,-266.5112 56.694,-274.2098 59.9063,-267.9904"/>
</g>
<!-- Node10 -->
<g id="node10" class="node">
<title>Node10</title>
<g id="a_node10"><a xlink:href="cl_8h.html#a5c1f93d94c386004e38c02f6d7d19004" target="_top" xlink:title="Initialises random actions, conditions and predictions. ">
<polygon fill="none" stroke="#000000" points="98,-228.5 98,-247.5 146,-247.5 146,-228.5 98,-228.5"/>
<text text-anchor="middle" x="122" y="-235.5" font-family="Helvetica,sans-Serif" font-size="10.00" fill="#000000">cl_rand</text>
</a>
</g>
</g>
<!-- Node1&#45;&gt;Node10 -->
<g id="edge10" class="edge">
<title>Node1&#45;&gt;Node10</title>
<path fill="none" stroke="#191970" d="M71.9397,-248.4522C80.8417,-246.5935 89.979,-244.6857 97.9699,-243.0173"/>
<polygon fill="#191970" stroke="#191970" points="71.1361,-245.0444 62.0625,-250.5144 72.5668,-251.8966 71.1361,-245.0444"/>
</g>
<!-- Node3 -->
<g id="node3" class="node">
<title>Node3</title>
<g id="a_node3"><a xlink:href="cl__set_8h.html#a488209fe1e7dc1ef3d09d9aa94340329" target="_top" xlink:title="Reads the population set from a binary file. ">
<polygon fill="none" stroke="#000000" points="182,-351.5 182,-370.5 238,-370.5 238,-351.5 182,-351.5"/>
<text text-anchor="middle" x="210" y="-358.5" font-family="Helvetica,sans-Serif" font-size="10.00" fill="#000000">pop_load</text>
</a>
</g>
</g>
<!-- Node2&#45;&gt;Node3 -->
<g id="edge2" class="edge">
<title>Node2&#45;&gt;Node3</title>
<path fill="none" stroke="#191970" d="M145.6317,-319.3069C161.4428,-329.5482 181.7563,-342.7058 195.2925,-351.4735"/>
<polygon fill="#191970" stroke="#191970" points="147.2239,-316.1682 136.928,-313.6693 143.4184,-322.0434 147.2239,-316.1682"/>
</g>
<!-- Node4 -->
<g id="node4" class="node">
<title>Node4</title>
<g id="a_node4"><a xlink:href="xcsf_8h.html#a70e6ae30c7d4e471009c4611255ed873" target="_top" xlink:title="Reads the state of XCSF from a binary file. ">
<polygon fill="none" stroke="#000000" points="640,-380.5 640,-399.5 699,-399.5 699,-380.5 640,-380.5"/>
<text text-anchor="middle" x="669.5" y="-387.5" font-family="Helvetica,sans-Serif" font-size="10.00" fill="#000000">xcsf_load</text>
</a>
</g>
</g>
<!-- Node3&#45;&gt;Node4 -->
<g id="edge3" class="edge">
<title>Node3&#45;&gt;Node4</title>
<path fill="none" stroke="#191970" d="M248.2992,-363.4171C337.8406,-369.0683 559.3598,-383.0488 639.7484,-388.1223"/>
<polygon fill="#191970" stroke="#191970" points="248.2527,-359.9073 238.0521,-362.7704 247.8117,-366.8934 248.2527,-359.9073"/>
</g>
<!-- Node5 -->
<g id="node5" class="node">
<title>Node5</title>
<g id="a_node5"><a xlink:href="main_8c.html#a968c78da8ed8ad08662a86280deec99a" target="_top" xlink:title="regression">
<polygon fill="none" stroke="#000000" points="786,-266.5 786,-285.5 848,-285.5 848,-266.5 786,-266.5"/>
<text text-anchor="middle" x="817" y="-273.5" font-family="Helvetica,sans-Serif" font-size="10.00" fill="#000000">regression</text>
</a>
</g>
</g>
<!-- Node4&#45;&gt;Node5 -->
<g id="edge4" class="edge">
<title>Node4&#45;&gt;Node5</title>
<path fill="none" stroke="#191970" d="M708.9169,-381.3502C715.1063,-378.7497 721.0753,-375.3755 726,-371 753.9406,-346.1754 734.1616,-319.9392 762,-295 768.6968,-289.0006 777.3848,-284.8763 785.8701,-282.0483"/>
<polygon fill="#191970" stroke="#191970" points="707.3763,-378.1833 699.1275,-384.8323 709.7222,-384.7785 707.3763,-378.1833"/>
</g>
<!-- Node7 -->
<g id="node7" class="node">
<title>Node7</title>
<g id="a_node7"><a xlink:href="main_8c.html#ab572a67aa431827116ebd6931d667d21" target="_top" xlink:title="classification">
<polygon fill="none" stroke="#000000" points="944,-380.5 944,-399.5 1018,-399.5 1018,-380.5 944,-380.5"/>
<text text-anchor="middle" x="981" y="-387.5" font-family="Helvetica,sans-Serif" font-size="10.00" fill="#000000">classification</text>
</a>
</g>
</g>
<!-- Node4&#45;&gt;Node7 -->
<g id="edge6" class="edge">
<title>Node4&#45;&gt;Node7</title>
<path fill="none" stroke="#191970" d="M690.2385,-405.7944C708.1497,-418.3789 735.2894,-435.0068 762,-442 809.2948,-454.3824 824.317,-452.7914 872,-442 907.9912,-433.8546 946.0141,-412.331 966.2635,-399.6742"/>
<polygon fill="#191970" stroke="#191970" points="691.9159,-402.6877 681.7644,-399.6546 687.8088,-408.3562 691.9159,-402.6877"/>
</g>
<!-- Node8 -->
<g id="node8" class="node">
<title>Node8</title>
<g id="a_node8"><a xlink:href="structXCS.html#adc9b621f2b7a306fbf381dd0efaf268b" target="_top" xlink:title="XCS::load">
<polygon fill="none" stroke="#000000" points="786,-342.5 786,-361.5 848,-361.5 848,-342.5 786,-342.5"/>
<text text-anchor="middle" x="817" y="-349.5" font-family="Helvetica,sans-Serif" font-size="10.00" fill="#000000">XCS::load</text>
</a>
</g>
</g>
<!-- Node4&#45;&gt;Node8 -->
<g id="edge8" class="edge">
<title>Node4&#45;&gt;Node8</title>
<path fill="none" stroke="#191970" d="M709.249,-379.7596C733.3302,-373.5556 763.6031,-365.7565 785.9246,-360.0059"/>
<polygon fill="#191970" stroke="#191970" points="708.1594,-376.4259 699.3488,-382.3101 709.9058,-383.2046 708.1594,-376.4259"/>
</g>
<!-- Node6 -->
<g id="node6" class="node">
<title>Node6</title>
<g id="a_node6"><a xlink:href="main_8c.html#a3c04138a5bfe5d72780bb7e82a18e627" target="_top" xlink:title="main">
<polygon fill="none" stroke="#000000" points="1090,-342.5 1090,-361.5 1128,-361.5 1128,-342.5 1090,-342.5"/>
<text text-anchor="middle" x="1109" y="-349.5" font-family="Helvetica,sans-Serif" font-size="10.00" fill="#000000">main</text>
</a>
</g>
</g>
<!-- Node5&#45;&gt;Node6 -->
<g id="edge5" class="edge">
<title>Node5&#45;&gt;Node6</title>
<path fill="none" stroke="#191970" d="M858.0149,-286.6751C922.0479,-303.3412 1043.2681,-334.8917 1089.9818,-347.0501"/>
<polygon fill="#191970" stroke="#191970" points="858.8083,-283.2651 848.2491,-284.1333 857.0451,-290.0394 858.8083,-283.2651"/>
</g>
<!-- Node7&#45;&gt;Node6 -->
<g id="edge7" class="edge">
<title>Node7&#45;&gt;Node6</title>
<path fill="none" stroke="#191970" d="M1022.9951,-377.5327C1045.5448,-370.8383 1072.2443,-362.9118 1089.8458,-357.6864"/>
<polygon fill="#191970" stroke="#191970" points="1021.8902,-374.2097 1013.2998,-380.411 1023.8824,-380.9202 1021.8902,-374.2097"/>
</g>
<!-- Node9 -->
<g id="node9" class="node">
<title>Node9</title>
<g id="a_node9"><a xlink:href="python__wrapper_8cpp.html#afbdcc1358036a0b83a6b239da2b098a2" target="_top" xlink:title="BOOST_PYTHON_MODULE">
<polygon fill="none" stroke="#000000" points="908,-114.5 908,-133.5 1054,-133.5 1054,-114.5 908,-114.5"/>
<text text-anchor="middle" x="981" y="-121.5" font-family="Helvetica,sans-Serif" font-size="10.00" fill="#000000">BOOST_PYTHON_MODULE</text>
</a>
</g>
</g>
<!-- Node8&#45;&gt;Node9 -->
<g id="edge9" class="edge">
<title>Node8&#45;&gt;Node9</title>
<path fill="none" stroke="#191970" d="M857.691,-341.9628C862.8522,-339.5732 867.7912,-336.6274 872,-333 938.6466,-275.5591 970.2295,-167.1854 978.6365,-133.9453"/>
<polygon fill="#191970" stroke="#191970" points="856.2813,-338.7565 848.2707,-345.6904 858.857,-345.2654 856.2813,-338.7565"/>
</g>
<!-- Node11 -->
<g id="node11" class="node">
<title>Node11</title>
<g id="a_node11"><a xlink:href="cl_8h.html#a42adb85e78d1f9af3dbd53cd9e9ae0fd" target="_top" xlink:title="Covers the condition and action for a classifier. ">
<polygon fill="none" stroke="#000000" points="183.5,-228.5 183.5,-247.5 236.5,-247.5 236.5,-228.5 183.5,-228.5"/>
<text text-anchor="middle" x="210" y="-235.5" font-family="Helvetica,sans-Serif" font-size="10.00" fill="#000000">cl_cover</text>
</a>
</g>
</g>
<!-- Node10&#45;&gt;Node11 -->
<g id="edge11" class="edge">
<title>Node10&#45;&gt;Node11</title>
<path fill="none" stroke="#191970" d="M156.2027,-238C165.1587,-238 174.6852,-238 183.1938,-238"/>
<polygon fill="#191970" stroke="#191970" points="156.0464,-234.5001 146.0464,-238 156.0464,-241.5001 156.0464,-234.5001"/>
</g>
<!-- Node33 -->
<g id="node33" class="node">
<title>Node33</title>
<g id="a_node33"><a xlink:href="cl__set_8h.html#a1e1060f1e8c1f916d798864804078e88" target="_top" xlink:title="Initialises a new population set. ">
<polygon fill="none" stroke="#000000" points="644.5,-114.5 644.5,-133.5 694.5,-133.5 694.5,-114.5 644.5,-114.5"/>
<text text-anchor="middle" x="669.5" y="-121.5" font-family="Helvetica,sans-Serif" font-size="10.00" fill="#000000">pop_init</text>
</a>
</g>
</g>
<!-- Node10&#45;&gt;Node33 -->
<g id="edge43" class="edge">
<title>Node10&#45;&gt;Node33</title>
<path fill="none" stroke="#191970" d="M136.6184,-220.5734C165.1496,-188.6427 231.7682,-124 303.5,-124 303.5,-124 303.5,-124 400,-124 489.8333,-124 596.5104,-124 644.2344,-124"/>
<polygon fill="#191970" stroke="#191970" points="133.8343,-218.4409 129.9055,-228.2804 139.1128,-223.0385 133.8343,-218.4409"/>
</g>
<!-- Node12 -->
<g id="node12" class="node">
<title>Node12</title>
<g id="a_node12"><a xlink:href="cl__set_8c.html#aa4b74b698e7491734e4788fcfae8e27a" target="_top" xlink:title="Ensures all possible actions are covered by the match set. ">
<polygon fill="none" stroke="#000000" points="274,-228.5 274,-247.5 333,-247.5 333,-228.5 274,-228.5"/>
<text text-anchor="middle" x="303.5" y="-235.5" font-family="Helvetica,sans-Serif" font-size="10.00" fill="#000000">set_cover</text>
</a>
</g>
</g>
<!-- Node11&#45;&gt;Node12 -->
<g id="edge12" class="edge">
<title>Node11&#45;&gt;Node12</title>
<path fill="none" stroke="#191970" d="M246.7906,-238C255.7947,-238 265.3157,-238 273.9321,-238"/>
<polygon fill="#191970" stroke="#191970" points="246.5433,-234.5001 236.5432,-238 246.5432,-241.5001 246.5433,-234.5001"/>
</g>
<!-- Node13 -->
<g id="node13" class="node">
<title>Node13</title>
<g id="a_node13"><a xlink:href="cl__set_8h.html#af3bea0b4d03654b9d6cb08fbf272c847" target="_top" xlink:title="Constructs the match set. ">
<polygon fill="none" stroke="#000000" points="369,-228.5 369,-247.5 431,-247.5 431,-228.5 369,-228.5"/>
<text text-anchor="middle" x="400" y="-235.5" font-family="Helvetica,sans-Serif" font-size="10.00" fill="#000000">set_match</text>
</a>
</g>
</g>
<!-- Node12&#45;&gt;Node13 -->
<g id="edge13" class="edge">
<title>Node12&#45;&gt;Node13</title>
<path fill="none" stroke="#191970" d="M343.3634,-238C351.8689,-238 360.733,-238 368.8545,-238"/>
<polygon fill="#191970" stroke="#191970" points="343.2406,-234.5001 333.2406,-238 343.2406,-241.5001 343.2406,-234.5001"/>
</g>
<!-- Node14 -->
<g id="node14" class="node">
<title>Node14</title>
<g id="a_node14"><a xlink:href="xcs__multi__step_8c.html#a617d9e432dc180dccf0c5ef11a94f79f" target="_top" xlink:title="Executes a multi&#45;step explore trial. ">
<polygon fill="none" stroke="#000000" points="474.5,-304.5 474.5,-323.5 569.5,-323.5 569.5,-304.5 474.5,-304.5"/>
<text text-anchor="middle" x="522" y="-311.5" font-family="Helvetica,sans-Serif" font-size="10.00" fill="#000000">xcs_multi_explore</text>
</a>
</g>
</g>
<!-- Node13&#45;&gt;Node14 -->
<g id="edge14" class="edge">
<title>Node13&#45;&gt;Node14</title>
<path fill="none" stroke="#191970" d="M416.26,-254.8986C429.0655,-267.4024 447.8896,-284.0892 467,-295 473.4921,-298.7066 480.8266,-301.8579 487.974,-304.4652"/>
<polygon fill="#191970" stroke="#191970" points="418.6581,-252.3467 409.1158,-247.7427 413.7043,-257.2924 418.6581,-252.3467"/>
</g>
<!-- Node16 -->
<g id="node16" class="node">
<title>Node16</title>
<g id="a_node16"><a xlink:href="xcs__multi__step_8c.html#a7c317faec2f018cc620fe5e465ebf378" target="_top" xlink:title="Executes a multi&#45;step exploit trial. ">
<polygon fill="none" stroke="#000000" points="476,-342.5 476,-361.5 568,-361.5 568,-342.5 476,-342.5"/>
<text text-anchor="middle" x="522" y="-349.5" font-family="Helvetica,sans-Serif" font-size="10.00" fill="#000000">xcs_multi_exploit</text>
</a>
</g>
</g>
<!-- Node13&#45;&gt;Node16 -->
<g id="edge17" class="edge">
<title>Node13&#45;&gt;Node16</title>
<path fill="none" stroke="#191970" d="M408.6348,-256.6077C419.4298,-277.9406 439.8423,-312.5857 467,-333 472.0874,-336.8242 478.0018,-339.9168 484.028,-342.4064"/>
<polygon fill="#191970" stroke="#191970" points="411.7654,-255.0421 404.241,-247.5833 405.4717,-258.1064 411.7654,-255.0421"/>
</g>
<!-- Node17 -->
<g id="node17" class="node">
<title>Node17</title>
<g id="a_node17"><a xlink:href="xcs__single__step_8h.html#a6cd0f3c0c1c71e13dba1ce493ef873a5" target="_top" xlink:title="Constructs the match set and selects an action to perform. ">
<polygon fill="none" stroke="#000000" points="470,-266.5 470,-285.5 574,-285.5 574,-266.5 470,-266.5"/>
<text text-anchor="middle" x="522" y="-273.5" font-family="Helvetica,sans-Serif" font-size="10.00" fill="#000000">xcs_single_decision</text>
</a>
</g>
</g>
<!-- Node13&#45;&gt;Node17 -->
<g id="edge19" class="edge">
<title>Node13&#45;&gt;Node17</title>
<path fill="none" stroke="#191970" d="M440.7108,-250.6804C457.195,-255.8148 475.91,-261.6441 491.2241,-266.4141"/>
<polygon fill="#191970" stroke="#191970" points="441.3742,-247.2213 430.7858,-247.589 439.2925,-253.9046 441.3742,-247.2213"/>
</g>
<!-- Node21 -->
<g id="node21" class="node">
<title>Node21</title>
<g id="a_node21"><a xlink:href="xcsf_8c.html#a474f4e13cfc5f00958c689cd8c81135a" target="_top" xlink:title="Executes a single XCSF learning trial. ">
<polygon fill="none" stroke="#000000" points="480.5,-190.5 480.5,-209.5 563.5,-209.5 563.5,-190.5 480.5,-190.5"/>
<text text-anchor="middle" x="522" y="-197.5" font-family="Helvetica,sans-Serif" font-size="10.00" fill="#000000">xcsf_learn_trial</text>
</a>
</g>
</g>
<!-- Node13&#45;&gt;Node21 -->
<g id="edge25" class="edge">
<title>Node13&#45;&gt;Node21</title>
<path fill="none" stroke="#191970" d="M440.7108,-225.3196C457.195,-220.1852 475.91,-214.3559 491.2241,-209.5859"/>
<polygon fill="#191970" stroke="#191970" points="439.2925,-222.0954 430.7858,-228.411 441.3742,-228.7787 439.2925,-222.0954"/>
</g>
<!-- Node26 -->
<g id="node26" class="node">
<title>Node26</title>
<g id="a_node26"><a xlink:href="xcsf_8c.html#aa6edd3962ddd04940e2c78a4f99de7cd" target="_top" xlink:title="Executes a single XCSF testing trial. ">
<polygon fill="none" stroke="#000000" points="483,-152.5 483,-171.5 561,-171.5 561,-152.5 483,-152.5"/>
<text text-anchor="middle" x="522" y="-159.5" font-family="Helvetica,sans-Serif" font-size="10.00" fill="#000000">xcsf_test_trial</text>
</a>
</g>
</g>
<!-- Node13&#45;&gt;Node26 -->
<g id="edge32" class="edge">
<title>Node13&#45;&gt;Node26</title>
<path fill="none" stroke="#191970" d="M416.26,-221.1014C429.0655,-208.5976 447.8896,-191.9108 467,-181 473.4921,-177.2934 480.8266,-174.1421 487.974,-171.5348"/>
<polygon fill="#191970" stroke="#191970" points="413.7043,-218.7076 409.1158,-228.2573 418.6581,-223.6533 413.7043,-218.7076"/>
</g>
<!-- Node29 -->
<g id="node29" class="node">
<title>Node29</title>
<g id="a_node29"><a xlink:href="xcsf_8h.html#af0b9db7273578fdff649d46823cd9790" target="_top" xlink:title="Calculates the XCSF predictions for the provided input. ">
<polygon fill="none" stroke="#000000" points="487,-38.5 487,-57.5 557,-57.5 557,-38.5 487,-38.5"/>
<text text-anchor="middle" x="522" y="-45.5" font-family="Helvetica,sans-Serif" font-size="10.00" fill="#000000">xcsf_predict</text>
</a>
</g>
</g>
<!-- Node13&#45;&gt;Node29 -->
<g id="edge37" class="edge">
<title>Node13&#45;&gt;Node29</title>
<path fill="none" stroke="#191970" d="M411.9202,-219.4358C437.3569,-179.8212 496.2179,-88.1524 515.6485,-57.8917"/>
<polygon fill="#191970" stroke="#191970" points="408.6757,-218.0109 406.2177,-228.3167 414.566,-221.7931 408.6757,-218.0109"/>
</g>
<!-- Node31 -->
<g id="node31" class="node">
<title>Node31</title>
<g id="a_node31"><a xlink:href="xcsf_8h.html#ae1f6851f682e015601030a5c725c6618" target="_top" xlink:title="Prints the XCSF match set for the supplied input. ">
<polygon fill="none" stroke="#000000" points="467,-228.5 467,-247.5 577,-247.5 577,-228.5 467,-228.5"/>
<text text-anchor="middle" x="522" y="-235.5" font-family="Helvetica,sans-Serif" font-size="10.00" fill="#000000">xcsf_print_match_set</text>
</a>
</g>
</g>
<!-- Node13&#45;&gt;Node31 -->
<g id="edge40" class="edge">
<title>Node13&#45;&gt;Node31</title>
<path fill="none" stroke="#191970" d="M441.1771,-238C449.4005,-238 458.1631,-238 466.7711,-238"/>
<polygon fill="#191970" stroke="#191970" points="441.1015,-234.5001 431.1014,-238 441.1014,-241.5001 441.1015,-234.5001"/>
</g>
<!-- Node15 -->
<g id="node15" class="node">
<title>Node15</title>
<g id="a_node15"><a xlink:href="xcs__multi__step_8h.html#acc29d4a55dbd56c16ea5f19f15a7c677" target="_top" xlink:title="Executes a multi&#45;step reinforcement learning experiment. ">
<polygon fill="none" stroke="#000000" points="617.5,-342.5 617.5,-361.5 721.5,-361.5 721.5,-342.5 617.5,-342.5"/>
<text text-anchor="middle" x="669.5" y="-349.5" font-family="Helvetica,sans-Serif" font-size="10.00" fill="#000000">xcs_multi_step_exp</text>
</a>
</g>
</g>
<!-- Node14&#45;&gt;Node15 -->
<g id="edge15" class="edge">
<title>Node14&#45;&gt;Node15</title>
<path fill="none" stroke="#191970" d="M569.0141,-326.1121C589.5566,-331.4044 613.2998,-337.5213 632.5472,-342.4799"/>
<polygon fill="#191970" stroke="#191970" points="569.7775,-322.6946 559.2205,-323.589 568.0311,-329.4732 569.7775,-322.6946"/>
</g>
<!-- Node15&#45;&gt;Node7 -->
<g id="edge16" class="edge">
<title>Node15&#45;&gt;Node7</title>
<path fill="none" stroke="#191970" d="M715.9697,-365.5181C719.4628,-367.1648 722.8493,-368.9876 726,-371 745.6063,-383.5231 740.6287,-399.8075 762,-409 827.5586,-437.1989 914.1952,-414.0628 956.1351,-399.5425"/>
<polygon fill="#191970" stroke="#191970" points="717.138,-362.2126 706.5631,-361.5617 714.424,-368.6651 717.138,-362.2126"/>
</g>
<!-- Node16&#45;&gt;Node15 -->
<g id="edge18" class="edge">
<title>Node16&#45;&gt;Node15</title>
<path fill="none" stroke="#191970" d="M578.3804,-352C591.2328,-352 604.8314,-352 617.4913,-352"/>
<polygon fill="#191970" stroke="#191970" points="578.2653,-348.5001 568.2652,-352 578.2652,-355.5001 578.2653,-348.5001"/>
</g>
<!-- Node18 -->
<g id="node18" class="node">
<title>Node18</title>
<g id="a_node18"><a xlink:href="structXCS.html#a94d556a5e545ec415d7165d5e91b21d4" target="_top" xlink:title="XCS::single_decision">
<polygon fill="none" stroke="#000000" points="762,-304.5 762,-323.5 872,-323.5 872,-304.5 762,-304.5"/>
<text text-anchor="middle" x="817" y="-311.5" font-family="Helvetica,sans-Serif" font-size="10.00" fill="#000000">XCS::single_decision</text>
</a>
</g>
</g>
<!-- Node17&#45;&gt;Node18 -->
<g id="edge20" class="edge">
<title>Node17&#45;&gt;Node18</title>
<path fill="none" stroke="#191970" d="M584.1828,-279.9601C624.7071,-282.9913 678.658,-287.8763 726,-295 742.4384,-297.4735 760.3802,-301.0324 775.9545,-304.4028"/>
<polygon fill="#191970" stroke="#191970" points="584.4101,-276.4675 574.1815,-279.2292 583.8998,-283.4489 584.4101,-276.4675"/>
</g>
<!-- Node19 -->
<g id="node19" class="node">
<title>Node19</title>
<g id="a_node19"><a xlink:href="xcs__single__step_8c.html#a3d1fd2472d35310800aed897219a65af" target="_top" xlink:title="Executes a single&#45;step trial using a built&#45;in environment. ">
<polygon fill="none" stroke="#000000" points="627.5,-304.5 627.5,-323.5 711.5,-323.5 711.5,-304.5 627.5,-304.5"/>
<text text-anchor="middle" x="669.5" y="-311.5" font-family="Helvetica,sans-Serif" font-size="10.00" fill="#000000">xcs_single_trial</text>
</a>
</g>
</g>
<!-- Node17&#45;&gt;Node19 -->
<g id="edge22" class="edge">
<title>Node17&#45;&gt;Node19</title>
<path fill="none" stroke="#191970" d="M569.0141,-288.1121C589.5566,-293.4044 613.2998,-299.5213 632.5472,-304.4799"/>
<polygon fill="#191970" stroke="#191970" points="569.7775,-284.6946 559.2205,-285.589 568.0311,-291.4732 569.7775,-284.6946"/>
</g>
<!-- Node18&#45;&gt;Node9 -->
<g id="edge21" class="edge">
<title>Node18&#45;&gt;Node9</title>
<path fill="none" stroke="#191970" d="M864.6004,-299.9662C867.2045,-298.469 869.695,-296.8185 872,-295 930.3194,-248.9891 966.5506,-162.6577 977.4861,-133.7286"/>
<polygon fill="#191970" stroke="#191970" points="862.8399,-296.9316 855.4128,-304.4873 865.9307,-303.2124 862.8399,-296.9316"/>
</g>
<!-- Node20 -->
<g id="node20" class="node">
<title>Node20</title>
<g id="a_node20"><a xlink:href="xcs__single__step_8h.html#a39a031bf59eaa9b33e30e614610dcda8" target="_top" xlink:title="Executes a single&#45;step experiment. ">
<polygon fill="none" stroke="#000000" points="763,-380.5 763,-399.5 871,-399.5 871,-380.5 763,-380.5"/>
<text text-anchor="middle" x="817" y="-387.5" font-family="Helvetica,sans-Serif" font-size="10.00" fill="#000000">xcs_single_step_exp</text>
</a>
</g>
</g>
<!-- Node19&#45;&gt;Node20 -->
<g id="edge23" class="edge">
<title>Node19&#45;&gt;Node20</title>
<path fill="none" stroke="#191970" d="M715.9697,-327.5181C719.4628,-329.1648 722.8493,-330.9876 726,-333 745.6063,-345.5231 742.4453,-358.3965 762,-371 767.8591,-374.7763 774.5553,-377.8973 781.2118,-380.4418"/>
<polygon fill="#191970" stroke="#191970" points="717.138,-324.2126 706.5631,-323.5617 714.424,-330.6651 717.138,-324.2126"/>
</g>
<!-- Node20&#45;&gt;Node7 -->
<g id="edge24" class="edge">
<title>Node20&#45;&gt;Node7</title>
<path fill="none" stroke="#191970" d="M881.4163,-390C902.6445,-390 925.5225,-390 943.9907,-390"/>
<polygon fill="#191970" stroke="#191970" points="881.1543,-386.5001 871.1542,-390 881.1542,-393.5001 881.1543,-386.5001"/>
</g>
<!-- Node22 -->
<g id="node22" class="node">
<title>Node22</title>
<g id="a_node22"><a xlink:href="xcsf_8h.html#a874829f28fee20f9ad15b540f4b4d6ff" target="_top" xlink:title="Executes MAX_TRIALS number of XCSF learning iterations using the training data. ">
<polygon fill="none" stroke="#000000" points="642.5,-76.5 642.5,-95.5 696.5,-95.5 696.5,-76.5 642.5,-76.5"/>
<text text-anchor="middle" x="669.5" y="-83.5" font-family="Helvetica,sans-Serif" font-size="10.00" fill="#000000">xcsf_fit1</text>
</a>
</g>
</g>
<!-- Node21&#45;&gt;Node22 -->
<g id="edge26" class="edge">
<title>Node21&#45;&gt;Node22</title>
<path fill="none" stroke="#191970" d="M571.4071,-185.3122C573.3804,-183.9949 575.2576,-182.5609 577,-181 604.8384,-156.0608 585.0594,-129.8246 613,-105 621.2006,-97.714 632.2968,-93.2042 642.4848,-90.4207"/>
<polygon fill="#191970" stroke="#191970" points="569.3161,-182.469 562.2592,-190.3716 572.704,-188.5945 569.3161,-182.469"/>
</g>
<!-- Node24 -->
<g id="node24" class="node">
<title>Node24</title>
<g id="a_node24"><a xlink:href="xcsf_8h.html#a0b4de57cb9dadc9deca7901aa36e5025" target="_top" xlink:title="Executes MAX_TRIALS number of XCSF learning iterations using the training. data and test iterations u...">
<polygon fill="none" stroke="#000000" points="642.5,-190.5 642.5,-209.5 696.5,-209.5 696.5,-190.5 642.5,-190.5"/>
<text text-anchor="middle" x="669.5" y="-197.5" font-family="Helvetica,sans-Serif" font-size="10.00" fill="#000000">xcsf_fit2</text>
</a>
</g>
</g>
<!-- Node21&#45;&gt;Node24 -->
<g id="edge29" class="edge">
<title>Node21&#45;&gt;Node24</title>
<path fill="none" stroke="#191970" d="M573.8959,-200C597.0137,-200 623.2809,-200 642.4248,-200"/>
<polygon fill="#191970" stroke="#191970" points="573.8731,-196.5001 563.873,-200 573.873,-203.5001 573.8731,-196.5001"/>
</g>
<!-- Node23 -->
<g id="node23" class="node">
<title>Node23</title>
<g id="a_node23"><a xlink:href="structXCS.html#ad2ccafe59d2b4ae6d0e1cbc15edee53c" target="_top" xlink:title="XCS::fit">
<polygon fill="none" stroke="#000000" points="791,-76.5 791,-95.5 843,-95.5 843,-76.5 791,-76.5"/>
<text text-anchor="middle" x="817" y="-83.5" font-family="Helvetica,sans-Serif" font-size="10.00" fill="#000000">XCS::fit</text>
</a>
</g>
</g>
<!-- Node22&#45;&gt;Node23 -->
<g id="edge27" class="edge">
<title>Node22&#45;&gt;Node23</title>
<path fill="none" stroke="#191970" d="M706.8464,-86C732.9913,-86 767.2833,-86 790.614,-86"/>
<polygon fill="#191970" stroke="#191970" points="706.5538,-82.5001 696.5538,-86 706.5537,-89.5001 706.5538,-82.5001"/>
</g>
<!-- Node23&#45;&gt;Node9 -->
<g id="edge28" class="edge">
<title>Node23&#45;&gt;Node9</title>
<path fill="none" stroke="#191970" d="M853.4051,-94.4353C879.038,-100.3747 913.3853,-108.3332 939.9861,-114.4968"/>
<polygon fill="#191970" stroke="#191970" points="853.8814,-90.953 843.3494,-92.1054 852.3013,-97.7724 853.8814,-90.953"/>
</g>
<!-- Node24&#45;&gt;Node5 -->
<g id="edge30" class="edge">
<title>Node24&#45;&gt;Node5</title>
<path fill="none" stroke="#191970" d="M706.3128,-210.9792C712.9749,-213.3586 719.7779,-216.0556 726,-219 755.3199,-232.8747 786.8228,-254.2211 803.9961,-266.4725"/>
<polygon fill="#191970" stroke="#191970" points="707.3314,-207.6288 696.737,-207.7285 705.0812,-214.2573 707.3314,-207.6288"/>
</g>
<!-- Node25 -->
<g id="node25" class="node">
<title>Node25</title>
<g id="a_node25"><a xlink:href="structXCS.html#a7d53320740db8e846251bacd0238a9fb" target="_top" xlink:title="XCS::fit">
<polygon fill="none" stroke="#000000" points="791,-190.5 791,-209.5 843,-209.5 843,-190.5 791,-190.5"/>
<text text-anchor="middle" x="817" y="-197.5" font-family="Helvetica,sans-Serif" font-size="10.00" fill="#000000">XCS::fit</text>
</a>
</g>
</g>
<!-- Node24&#45;&gt;Node25 -->
<g id="edge31" class="edge">
<title>Node24&#45;&gt;Node25</title>
<path fill="none" stroke="#191970" d="M706.8464,-200C732.9913,-200 767.2833,-200 790.614,-200"/>
<polygon fill="#191970" stroke="#191970" points="706.5538,-196.5001 696.5538,-200 706.5537,-203.5001 706.5538,-196.5001"/>
</g>
<!-- Node26&#45;&gt;Node24 -->
<g id="edge33" class="edge">
<title>Node26&#45;&gt;Node24</title>
<path fill="none" stroke="#191970" d="M569.223,-174.1659C593.2658,-180.36 621.6482,-187.6721 642.0697,-192.9332"/>
<polygon fill="#191970" stroke="#191970" points="569.7775,-170.6946 559.2205,-171.589 568.0311,-177.4732 569.7775,-170.6946"/>
</g>
<!-- Node27 -->
<g id="node27" class="node">
<title>Node27</title>
<g id="a_node27"><a xlink:href="xcsf_8h.html#a2cf95733e5f97410d94211b72e835847" target="_top" xlink:title="Calculates the XCSF error for the input data. ">
<polygon fill="none" stroke="#000000" points="637,-38.5 637,-57.5 702,-57.5 702,-38.5 637,-38.5"/>
<text text-anchor="middle" x="669.5" y="-45.5" font-family="Helvetica,sans-Serif" font-size="10.00" fill="#000000">xcsf_score</text>
</a>
</g>
</g>
<!-- Node26&#45;&gt;Node27 -->
<g id="edge34" class="edge">
<title>Node26&#45;&gt;Node27</title>
<path fill="none" stroke="#191970" d="M534.6353,-144.3186C550.6318,-123.1324 580.1009,-87.886 613,-67 620.2516,-62.3963 628.7402,-58.7806 636.9013,-55.9961"/>
<polygon fill="#191970" stroke="#191970" points="531.7533,-142.3295 528.6337,-152.4546 537.3865,-146.4848 531.7533,-142.3295"/>
</g>
<!-- Node28 -->
<g id="node28" class="node">
<title>Node28</title>
<g id="a_node28"><a xlink:href="structXCS.html#aa77bc77484d6d14bf512304a23cfec88" target="_top" xlink:title="XCS::score">
<polygon fill="none" stroke="#000000" points="783,-38.5 783,-57.5 851,-57.5 851,-38.5 783,-38.5"/>
<text text-anchor="middle" x="817" y="-45.5" font-family="Helvetica,sans-Serif" font-size="10.00" fill="#000000">XCS::score</text>
</a>
</g>
</g>
<!-- Node27&#45;&gt;Node28 -->
<g id="edge35" class="edge">
<title>Node27&#45;&gt;Node28</title>
<path fill="none" stroke="#191970" d="M712.4832,-48C734.8724,-48 761.8709,-48 782.8188,-48"/>
<polygon fill="#191970" stroke="#191970" points="712.2351,-44.5001 702.235,-48 712.235,-51.5001 712.2351,-44.5001"/>
</g>
<!-- Node28&#45;&gt;Node9 -->
<g id="edge36" class="edge">
<title>Node28&#45;&gt;Node9</title>
<path fill="none" stroke="#191970" d="M856.9849,-61.0253C862.0832,-62.9159 867.1952,-64.9275 872,-67 905.7267,-81.5475 943.3375,-102.2775 964.3884,-114.3153"/>
<polygon fill="#191970" stroke="#191970" points="857.8766,-57.6272 847.282,-57.5547 855.519,-64.2182 857.8766,-57.6272"/>
</g>
<!-- Node30 -->
<g id="node30" class="node">
<title>Node30</title>
<g id="a_node30"><a xlink:href="structXCS.html#a911ed75c86abed7807d33eb1385240ed" target="_top" xlink:title="XCS::predict">
<polygon fill="none" stroke="#000000" points="780.5,-.5 780.5,-19.5 853.5,-19.5 853.5,-.5 780.5,-.5"/>
<text text-anchor="middle" x="817" y="-7.5" font-family="Helvetica,sans-Serif" font-size="10.00" fill="#000000">XCS::predict</text>
</a>
</g>
</g>
<!-- Node29&#45;&gt;Node30 -->
<g id="edge38" class="edge">
<title>Node29&#45;&gt;Node30</title>
<path fill="none" stroke="#191970" d="M567.0636,-37.5405C581.6573,-34.4355 597.958,-31.2634 613,-29 671.2129,-20.2406 739.4185,-14.8659 780.367,-12.1606"/>
<polygon fill="#191970" stroke="#191970" points="566.2988,-34.1249 557.2694,-39.6674 567.7844,-40.9655 566.2988,-34.1249"/>
</g>
<!-- Node30&#45;&gt;Node9 -->
<g id="edge39" class="edge">
<title>Node30&#45;&gt;Node9</title>
<path fill="none" stroke="#191970" d="M860.9446,-23.4395C864.7703,-25.1271 868.5096,-26.9795 872,-29 914.146,-53.3977 955.011,-95.3742 972.3329,-114.2755"/>
<polygon fill="#191970" stroke="#191970" points="861.9333,-20.0648 851.3495,-19.5822 859.3224,-26.5596 861.9333,-20.0648"/>
</g>
<!-- Node32 -->
<g id="node32" class="node">
<title>Node32</title>
<g id="a_node32"><a xlink:href="structXCS.html#aa5608b379fae01b724267a99068d55bb" target="_top" xlink:title="XCS::print_match_set">
<polygon fill="none" stroke="#000000" points="613,-228.5 613,-247.5 726,-247.5 726,-228.5 613,-228.5"/>
<text text-anchor="middle" x="669.5" y="-235.5" font-family="Helvetica,sans-Serif" font-size="10.00" fill="#000000">XCS::print_match_set</text>
</a>
</g>
</g>
<!-- Node31&#45;&gt;Node32 -->
<g id="edge41" class="edge">
<title>Node31&#45;&gt;Node32</title>
<path fill="none" stroke="#191970" d="M587.542,-238C595.9872,-238 604.5777,-238 612.8632,-238"/>
<polygon fill="#191970" stroke="#191970" points="587.3432,-234.5001 577.3432,-238 587.3432,-241.5001 587.3432,-234.5001"/>
</g>
<!-- Node32&#45;&gt;Node9 -->
<g id="edge42" class="edge">
<title>Node32&#45;&gt;Node9</title>
<path fill="none" stroke="#191970" d="M736.4431,-241.8775C777.1678,-241.8085 829.3699,-237.2864 872,-219 917.4468,-199.5054 957.4956,-153.7573 973.5416,-133.7057"/>
<polygon fill="#191970" stroke="#191970" points="736.3745,-238.377 726.3495,-241.8047 736.324,-245.3768 736.3745,-238.377"/>
</g>
<!-- Node33&#45;&gt;Node5 -->
<g id="edge44" class="edge">
<title>Node33&#45;&gt;Node5</title>
<path fill="none" stroke="#191970" d="M686.288,-140.7369C697.5799,-152.0432 712.7643,-167.3417 726,-181 742.1899,-197.7069 745.9228,-202.1846 762,-219 777.9653,-235.6983 796.6627,-255.028 807.6306,-266.3439"/>
<polygon fill="#191970" stroke="#191970" points="688.7112,-138.2103 679.1642,-133.6164 683.7626,-143.1613 688.7112,-138.2103"/>
</g>
<!-- Node33&#45;&gt;Node7 -->
<g id="edge45" class="edge">
<title>Node33&#45;&gt;Node7</title>
<path fill="none" stroke="#191970" d="M704.4995,-132.2483C758.8975,-145.3055 858.8841,-170.3453 872,-181 940.6084,-236.7341 971.0388,-347.207 978.8732,-380.369"/>
<polygon fill="#191970" stroke="#191970" points="705.1249,-128.7992 694.5854,-129.88 703.4985,-135.6077 705.1249,-128.7992"/>
</g>
<!-- Node33&#45;&gt;Node23 -->
<g id="edge48" class="edge">
<title>Node33&#45;&gt;Node23</title>
<path fill="none" stroke="#191970" d="M704.532,-114.9748C731.029,-108.1485 766.8331,-98.9244 790.8609,-92.7341"/>
<polygon fill="#191970" stroke="#191970" points="703.332,-111.6696 694.5214,-117.5538 705.0784,-118.4483 703.332,-111.6696"/>
</g>
<!-- Node34 -->
<g id="node34" class="node">
<title>Node34</title>
<g id="a_node34"><a xlink:href="structXCS.html#ab58a4fb495b05f3450b182bc21dcba1f" target="_top" xlink:title="XCS::single_reset">
<polygon fill="none" stroke="#000000" points="769,-114.5 769,-133.5 865,-133.5 865,-114.5 769,-114.5"/>
<text text-anchor="middle" x="817" y="-121.5" font-family="Helvetica,sans-Serif" font-size="10.00" fill="#000000">XCS::single_reset</text>
</a>
</g>
</g>
<!-- Node33&#45;&gt;Node34 -->
<g id="edge46" class="edge">
<title>Node33&#45;&gt;Node34</title>
<path fill="none" stroke="#191970" d="M704.6399,-124C723.8459,-124 747.9172,-124 768.8481,-124"/>
<polygon fill="#191970" stroke="#191970" points="704.5214,-120.5001 694.5214,-124 704.5213,-127.5001 704.5214,-120.5001"/>
</g>
<!-- Node34&#45;&gt;Node9 -->
<g id="edge47" class="edge">
<title>Node34&#45;&gt;Node9</title>
<path fill="none" stroke="#191970" d="M875.5511,-124C885.9968,-124 896.9967,-124 907.791,-124"/>
<polygon fill="#191970" stroke="#191970" points="875.3184,-120.5001 865.3184,-124 875.3184,-127.5001 875.3184,-120.5001"/>
</g>
</g>
</svg>
