<?xml version="1.0" encoding="UTF-8" standalone="no"?>
<!DOCTYPE svg PUBLIC "-//W3C//DTD SVG 1.1//EN"
 "http://www.w3.org/Graphics/SVG/1.1/DTD/svg11.dtd">
<!-- Generated by graphviz version 2.40.1 (20161225.0304)
 -->
<!-- Title: act_mutate Pages: 1 -->
<svg width="833pt" height="256pt"
 viewBox="0.00 0.00 833.00 256.00" xmlns="http://www.w3.org/2000/svg" xmlns:xlink="http://www.w3.org/1999/xlink">
<g id="graph0" class="graph" transform="scale(1 1) rotate(0) translate(4 252)">
<title>act_mutate</title>
<!-- Node161 -->
<g id="node1" class="node">
<title>Node161</title>
<polygon fill="#bfbfbf" stroke="#000000" points="0,-171.5 0,-190.5 65,-190.5 65,-171.5 0,-171.5"/>
<text text-anchor="middle" x="32.5" y="-178.5" font-family="Helvetica,sans-Serif" font-size="10.00" fill="#000000">act_mutate</text>
</g>
<!-- Node162 -->
<g id="node2" class="node">
<title>Node162</title>
<g id="a_node2"><a xlink:href="$cl_8h.html#a9c652f3dd22936f8d99809daf219efe8" xlink:title="Performs classifier mutation. ">
<polygon fill="none" stroke="#000000" points="101,-171.5 101,-190.5 160,-190.5 160,-171.5 101,-171.5"/>
<text text-anchor="middle" x="130.5" y="-178.5" font-family="Helvetica,sans-Serif" font-size="10.00" fill="#000000">cl_mutate</text>
</a>
</g>
</g>
<!-- Node161&#45;&gt;Node162 -->
<g id="edge1" class="edge">
<title>Node161&#45;&gt;Node162</title>
<path fill="none" stroke="#191970" d="M75.1641,-181C83.8731,-181 92.8538,-181 100.9805,-181"/>
<polygon fill="#191970" stroke="#191970" points="75.1326,-177.5001 65.1326,-181 75.1325,-184.5001 75.1326,-177.5001"/>
</g>
<!-- Node163 -->
<g id="node3" class="node">
<title>Node163</title>
<g id="a_node3"><a xlink:href="$ea_8h.html#ae90a9b4131bb94462265b9c928499eb8" xlink:title="Executes the evolutionary algorithm (EA). ">
<polygon fill="none" stroke="#000000" points="196,-171.5 196,-190.5 225,-190.5 225,-171.5 196,-171.5"/>
<text text-anchor="middle" x="210.5" y="-178.5" font-family="Helvetica,sans-Serif" font-size="10.00" fill="#000000">ea</text>
</a>
</g>
</g>
<!-- Node162&#45;&gt;Node163 -->
<g id="edge2" class="edge">
<title>Node162&#45;&gt;Node163</title>
<path fill="none" stroke="#191970" d="M170.4014,-181C179.4479,-181 188.5011,-181 195.7102,-181"/>
<polygon fill="#191970" stroke="#191970" points="170.2891,-177.5001 160.289,-181 170.289,-184.5001 170.2891,-177.5001"/>
</g>
<!-- Node164 -->
<g id="node4" class="node">
<title>Node164</title>
<g id="a_node4"><a xlink:href="$xcs__multi__step_8c.html#ad50c415970b4bfc42f469fb38c5e68fa" xlink:title="Executes a multi&#45;step trial using a built&#45;in environment. ">
<polygon fill="none" stroke="#000000" points="270,-218.5 270,-237.5 350,-237.5 350,-218.5 270,-218.5"/>
<text text-anchor="middle" x="310" y="-225.5" font-family="Helvetica,sans-Serif" font-size="10.00" fill="#000000">xcs_multi_trial</text>
</a>
</g>
</g>
<!-- Node163&#45;&gt;Node164 -->
<g id="edge3" class="edge">
<title>Node163&#45;&gt;Node164</title>
<path fill="none" stroke="#191970" d="M234.4056,-192.2921C251.3056,-200.275 273.714,-210.8599 289.7373,-218.4287"/>
<polygon fill="#191970" stroke="#191970" points="235.7185,-189.0415 225.1816,-187.935 232.7287,-195.3709 235.7185,-189.0415"/>
</g>
<!-- Node167 -->
<g id="node7" class="node">
<title>Node167</title>
<g id="a_node7"><a xlink:href="$xcs__single__step_8h.html#a0ff6b521f66224d56ef0e6f50f5781b9" xlink:title="Creates the action set, updates the classifiers and runs the EA. ">
<polygon fill="none" stroke="#000000" points="261,-171.5 261,-190.5 359,-190.5 359,-171.5 261,-171.5"/>
<text text-anchor="middle" x="310" y="-178.5" font-family="Helvetica,sans-Serif" font-size="10.00" fill="#000000">xcs_single_update</text>
</a>
</g>
</g>
<!-- Node163&#45;&gt;Node167 -->
<g id="edge6" class="edge">
<title>Node163&#45;&gt;Node167</title>
<path fill="none" stroke="#191970" d="M235.2801,-181C243.0174,-181 251.8425,-181 260.6508,-181"/>
<polygon fill="#191970" stroke="#191970" points="235.1816,-177.5001 225.1816,-181 235.1815,-184.5001 235.1816,-177.5001"/>
</g>
<!-- Node172 -->
<g id="node12" class="node">
<title>Node172</title>
<g id="a_node12"><a xlink:href="$xcsf_8c.html#af5fb604e81235fdcb2ed8925d9291f59" xlink:title="Executes a single XCSF trial. ">
<polygon fill="none" stroke="#000000" points="282,-57.5 282,-76.5 338,-76.5 338,-57.5 282,-57.5"/>
<text text-anchor="middle" x="310" y="-64.5" font-family="Helvetica,sans-Serif" font-size="10.00" fill="#000000">xcsf_trial</text>
</a>
</g>
</g>
<!-- Node163&#45;&gt;Node172 -->
<g id="edge12" class="edge">
<title>Node163&#45;&gt;Node172</title>
<path fill="none" stroke="#191970" d="M225.7434,-163.5352C246.9778,-139.2063 284.7403,-95.9408 301.5382,-76.695"/>
<polygon fill="#191970" stroke="#191970" points="222.9221,-161.445 218.9833,-171.2804 228.1959,-166.048 222.9221,-161.445"/>
</g>
<!-- Node165 -->
<g id="node5" class="node">
<title>Node165</title>
<g id="a_node5"><a xlink:href="$xcs__multi__step_8h.html#acc29d4a55dbd56c16ea5f19f15a7c677" xlink:title="Executes a multi&#45;step reinforcement learning experiment. ">
<polygon fill="none" stroke="#000000" points="537,-228.5 537,-247.5 641,-247.5 641,-228.5 537,-228.5"/>
<text text-anchor="middle" x="589" y="-235.5" font-family="Helvetica,sans-Serif" font-size="10.00" fill="#000000">xcs_multi_step_exp</text>
</a>
</g>
</g>
<!-- Node164&#45;&gt;Node165 -->
<g id="edge4" class="edge">
<title>Node164&#45;&gt;Node165</title>
<path fill="none" stroke="#191970" d="M360.5047,-229.8102C410.4046,-231.5987 486.3872,-234.3221 536.8508,-236.1309"/>
<polygon fill="#191970" stroke="#191970" points="360.39,-226.3039 350.271,-229.4434 360.1392,-233.2994 360.39,-226.3039"/>
</g>
<!-- Node166 -->
<g id="node6" class="node">
<title>Node166</title>
<g id="a_node6"><a xlink:href="$main_8c.html#a3c04138a5bfe5d72780bb7e82a18e627" xlink:title="main">
<polygon fill="none" stroke="#000000" points="733,-190.5 733,-209.5 771,-209.5 771,-190.5 733,-190.5"/>
<text text-anchor="middle" x="752" y="-197.5" font-family="Helvetica,sans-Serif" font-size="10.00" fill="#000000">main</text>
</a>
</g>
</g>
<!-- Node165&#45;&gt;Node166 -->
<g id="edge5" class="edge">
<title>Node165&#45;&gt;Node166</title>
<path fill="none" stroke="#191970" d="M640.0525,-226.0982C671.4599,-218.7762 709.9128,-209.8117 732.6012,-204.5224"/>
<polygon fill="#191970" stroke="#191970" points="639.076,-222.7319 630.1318,-228.411 640.6653,-229.5491 639.076,-222.7319"/>
</g>
<!-- Node168 -->
<g id="node8" class="node">
<title>Node168</title>
<g id="a_node8"><a xlink:href="$structXCS.html#aedc01ad6f00a54b260a7605929a1d4c9" xlink:title="XCS::single_update">
<polygon fill="none" stroke="#000000" points="395,-152.5 395,-171.5 499,-171.5 499,-152.5 395,-152.5"/>
<text text-anchor="middle" x="447" y="-159.5" font-family="Helvetica,sans-Serif" font-size="10.00" fill="#000000">XCS::single_update</text>
</a>
</g>
</g>
<!-- Node167&#45;&gt;Node168 -->
<g id="edge7" class="edge">
<title>Node167&#45;&gt;Node168</title>
<path fill="none" stroke="#191970" d="M369.2254,-172.7863C377.6549,-171.6172 386.2753,-170.4217 394.5632,-169.2723"/>
<polygon fill="#191970" stroke="#191970" points="368.4976,-169.3536 359.0732,-174.1942 369.4592,-176.2873 368.4976,-169.3536"/>
</g>
<!-- Node170 -->
<g id="node10" class="node">
<title>Node170</title>
<g id="a_node10"><a xlink:href="$xcs__single__step_8c.html#a536ab4256e871e31959ea6e907455340" xlink:title="Executes a single&#45;step trial using a built&#45;in environment. ">
<polygon fill="none" stroke="#000000" points="405,-190.5 405,-209.5 489,-209.5 489,-190.5 405,-190.5"/>
<text text-anchor="middle" x="447" y="-197.5" font-family="Helvetica,sans-Serif" font-size="10.00" fill="#000000">xcs_single_trial</text>
</a>
</g>
</g>
<!-- Node167&#45;&gt;Node170 -->
<g id="edge9" class="edge">
<title>Node167&#45;&gt;Node170</title>
<path fill="none" stroke="#191970" d="M369.0069,-189.1834C380.9825,-190.8443 393.3528,-192.5599 404.6154,-194.1218"/>
<polygon fill="#191970" stroke="#191970" points="369.4592,-185.7128 359.0732,-187.8058 368.4976,-192.6464 369.4592,-185.7128"/>
</g>
<!-- Node169 -->
<g id="node9" class="node">
<title>Node169</title>
<g id="a_node9"><a xlink:href="$python__wrapper_8cpp.html#afbdcc1358036a0b83a6b239da2b098a2" xlink:title="BOOST_PYTHON_MODULE">
<polygon fill="none" stroke="#000000" points="679,-57.5 679,-76.5 825,-76.5 825,-57.5 679,-57.5"/>
<text text-anchor="middle" x="752" y="-64.5" font-family="Helvetica,sans-Serif" font-size="10.00" fill="#000000">BOOST_PYTHON_MODULE</text>
</a>
</g>
</g>
<!-- Node168&#45;&gt;Node169 -->
<g id="edge8" class="edge">
<title>Node168&#45;&gt;Node169</title>
<path fill="none" stroke="#191970" d="M491.5475,-149.7635C531.4055,-138.6446 591.3418,-121.5037 643,-105 671.4442,-95.9127 703.7024,-84.5307 725.6992,-76.6036"/>
<polygon fill="#191970" stroke="#191970" points="490.5605,-146.405 481.8639,-152.4565 492.4361,-153.1491 490.5605,-146.405"/>
</g>
<!-- Node171 -->
<g id="node11" class="node">
<title>Node171</title>
<g id="a_node11"><a xlink:href="$xcs__single__step_8h.html#a39a031bf59eaa9b33e30e614610dcda8" xlink:title="Executes a single&#45;step reinforcement learning experiment. ">
<polygon fill="none" stroke="#000000" points="535,-190.5 535,-209.5 643,-209.5 643,-190.5 535,-190.5"/>
<text text-anchor="middle" x="589" y="-197.5" font-family="Helvetica,sans-Serif" font-size="10.00" fill="#000000">xcs_single_step_exp</text>
</a>
</g>
</g>
<!-- Node170&#45;&gt;Node171 -->
<g id="edge10" class="edge">
<title>Node170&#45;&gt;Node171</title>
<path fill="none" stroke="#191970" d="M499.551,-200C511.0539,-200 523.2511,-200 534.8166,-200"/>
<polygon fill="#191970" stroke="#191970" points="499.2203,-196.5001 489.2202,-200 499.2202,-203.5001 499.2203,-196.5001"/>
</g>
<!-- Node171&#45;&gt;Node166 -->
<g id="edge11" class="edge">
<title>Node171&#45;&gt;Node166</title>
<path fill="none" stroke="#191970" d="M653.611,-200C682.0891,-200 713.4445,-200 732.9303,-200"/>
<polygon fill="#191970" stroke="#191970" points="653.2767,-196.5001 643.2766,-200 653.2766,-203.5001 653.2767,-196.5001"/>
</g>
<!-- Node173 -->
<g id="node13" class="node">
<title>Node173</title>
<g id="a_node13"><a xlink:href="$xcsf_8h.html#aee465caea59599a71fc69528598156cb" xlink:title="Executes MAX_TRIALS number of XCSF learning iterations using the training. data and test iterations u...">
<polygon fill="none" stroke="#000000" points="422.5,-76.5 422.5,-95.5 471.5,-95.5 471.5,-76.5 422.5,-76.5"/>
<text text-anchor="middle" x="447" y="-83.5" font-family="Helvetica,sans-Serif" font-size="10.00" fill="#000000">xcsf_fit</text>
</a>
</g>
</g>
<!-- Node172&#45;&gt;Node173 -->
<g id="edge13" class="edge">
<title>Node172&#45;&gt;Node173</title>
<path fill="none" stroke="#191970" d="M348.1185,-72.2865C371.7972,-75.5704 401.5501,-79.6967 422.2027,-82.561"/>
<polygon fill="#191970" stroke="#191970" points="348.4406,-68.7978 338.0546,-70.8908 347.479,-75.7314 348.4406,-68.7978"/>
</g>
<!-- Node175 -->
<g id="node15" class="node">
<title>Node175</title>
<g id="a_node15"><a xlink:href="$xcsf_8h.html#af128a7da769acabe2e841e8d06749b0b" xlink:title="Calculates the XCSF predictions for the provided input. ">
<polygon fill="none" stroke="#000000" points="412,-38.5 412,-57.5 482,-57.5 482,-38.5 412,-38.5"/>
<text text-anchor="middle" x="447" y="-45.5" font-family="Helvetica,sans-Serif" font-size="10.00" fill="#000000">xcsf_predict</text>
</a>
</g>
</g>
<!-- Node172&#45;&gt;Node175 -->
<g id="edge17" class="edge">
<title>Node172&#45;&gt;Node175</title>
<path fill="none" stroke="#191970" d="M348.064,-61.721C368.0542,-58.9487 392.385,-55.5743 411.9157,-52.8657"/>
<polygon fill="#191970" stroke="#191970" points="347.479,-58.2686 338.0546,-63.1092 348.4406,-65.2022 347.479,-58.2686"/>
</g>
<!-- Node177 -->
<g id="node17" class="node">
<title>Node177</title>
<g id="a_node17"><a xlink:href="$xcsf_8h.html#a348b8cd321211c377fb1deedc62c7c67" xlink:title="Calculates the XCSF error for the input data. ">
<polygon fill="none" stroke="#000000" points="414.5,-.5 414.5,-19.5 479.5,-19.5 479.5,-.5 414.5,-.5"/>
<text text-anchor="middle" x="447" y="-7.5" font-family="Helvetica,sans-Serif" font-size="10.00" fill="#000000">xcsf_score</text>
</a>
</g>
</g>
<!-- Node172&#45;&gt;Node177 -->
<g id="edge20" class="edge">
<title>Node172&#45;&gt;Node177</title>
<path fill="none" stroke="#191970" d="M339.9163,-53.0094C356.1046,-45.5955 376.5173,-36.4974 395,-29 403.016,-25.7484 411.8227,-22.4347 419.8735,-19.5046"/>
<polygon fill="#191970" stroke="#191970" points="338.0541,-50.0138 330.4377,-57.3787 340.9845,-56.3709 338.0541,-50.0138"/>
</g>
<!-- Node173&#45;&gt;Node166 -->
<g id="edge14" class="edge">
<title>Node173&#45;&gt;Node166</title>
<path fill="none" stroke="#191970" d="M481.3792,-98.8499C545.6984,-122.8906 682.2779,-173.94 732.7389,-192.8008"/>
<polygon fill="#191970" stroke="#191970" points="482.2936,-95.4553 471.7011,-95.2325 479.8427,-102.0122 482.2936,-95.4553"/>
</g>
<!-- Node174 -->
<g id="node14" class="node">
<title>Node174</title>
<g id="a_node14"><a xlink:href="$structXCS.html#ad2ccafe59d2b4ae6d0e1cbc15edee53c" xlink:title="XCS::fit">
<polygon fill="none" stroke="#000000" points="563,-76.5 563,-95.5 615,-95.5 615,-76.5 563,-76.5"/>
<text text-anchor="middle" x="589" y="-83.5" font-family="Helvetica,sans-Serif" font-size="10.00" fill="#000000">XCS::fit</text>
</a>
</g>
</g>
<!-- Node173&#45;&gt;Node174 -->
<g id="edge15" class="edge">
<title>Node173&#45;&gt;Node174</title>
<path fill="none" stroke="#191970" d="M481.8735,-86C506.8145,-86 539.8634,-86 562.6237,-86"/>
<polygon fill="#191970" stroke="#191970" points="481.7345,-82.5001 471.7345,-86 481.7345,-89.5001 481.7345,-82.5001"/>
</g>
<!-- Node174&#45;&gt;Node169 -->
<g id="edge16" class="edge">
<title>Node174&#45;&gt;Node169</title>
<path fill="none" stroke="#191970" d="M625.5233,-81.7427C641.2717,-79.907 660.2822,-77.691 678.7251,-75.5412"/>
<polygon fill="#191970" stroke="#191970" points="624.7163,-78.313 615.1888,-82.9473 625.5268,-85.2659 624.7163,-78.313"/>
</g>
<!-- Node176 -->
<g id="node16" class="node">
<title>Node176</title>
<g id="a_node16"><a xlink:href="$structXCS.html#a911ed75c86abed7807d33eb1385240ed" xlink:title="XCS::predict">
<polygon fill="none" stroke="#000000" points="552.5,-38.5 552.5,-57.5 625.5,-57.5 625.5,-38.5 552.5,-38.5"/>
<text text-anchor="middle" x="589" y="-45.5" font-family="Helvetica,sans-Serif" font-size="10.00" fill="#000000">XCS::predict</text>
</a>
</g>
</g>
<!-- Node175&#45;&gt;Node176 -->
<g id="edge18" class="edge">
<title>Node175&#45;&gt;Node176</title>
<path fill="none" stroke="#191970" d="M492.2292,-48C511.6223,-48 533.9834,-48 552.3219,-48"/>
<polygon fill="#191970" stroke="#191970" points="492.1012,-44.5001 482.1011,-48 492.1011,-51.5001 492.1012,-44.5001"/>
</g>
<!-- Node176&#45;&gt;Node169 -->
<g id="edge19" class="edge">
<title>Node176&#45;&gt;Node169</title>
<path fill="none" stroke="#191970" d="M635.5613,-53.4274C649.0572,-55.0005 664.1298,-56.7575 678.8365,-58.4717"/>
<polygon fill="#191970" stroke="#191970" points="635.9184,-49.9454 625.5804,-52.264 635.1079,-56.8983 635.9184,-49.9454"/>
</g>
<!-- Node178 -->
<g id="node18" class="node">
<title>Node178</title>
<g id="a_node18"><a xlink:href="$structXCS.html#aa77bc77484d6d14bf512304a23cfec88" xlink:title="XCS::score">
<polygon fill="none" stroke="#000000" points="555,-.5 555,-19.5 623,-19.5 623,-.5 555,-.5"/>
<text text-anchor="middle" x="589" y="-7.5" font-family="Helvetica,sans-Serif" font-size="10.00" fill="#000000">XCS::score</text>
</a>
</g>
</g>
<!-- Node177&#45;&gt;Node178 -->
<g id="edge21" class="edge">
<title>Node177&#45;&gt;Node178</title>
<path fill="none" stroke="#191970" d="M489.7215,-10C510.4707,-10 535.0715,-10 554.5932,-10"/>
<polygon fill="#191970" stroke="#191970" points="489.5777,-6.5001 479.5777,-10 489.5776,-13.5001 489.5777,-6.5001"/>
</g>
<!-- Node178&#45;&gt;Node169 -->
<g id="edge22" class="edge">
<title>Node178&#45;&gt;Node169</title>
<path fill="none" stroke="#191970" d="M625.9708,-22.9285C655.9626,-33.4164 697.5636,-47.9639 724.6285,-57.4284"/>
<polygon fill="#191970" stroke="#191970" points="626.8774,-19.5377 616.2825,-19.5405 624.5667,-26.1453 626.8774,-19.5377"/>
</g>
</g>
</svg>
