<?xml version="1.0" encoding="UTF-8" standalone="no"?>
<!DOCTYPE svg PUBLIC "-//W3C//DTD SVG 1.1//EN"
 "http://www.w3.org/Graphics/SVG/1.1/DTD/svg11.dtd">
<!-- Generated by graphviz version 2.40.1 (20161225.0304)
 -->
<!-- Title: action_set Pages: 1 -->
<svg width="1062pt" height="445pt"
 viewBox="0.00 0.00 1062.00 445.42" xmlns="http://www.w3.org/2000/svg" xmlns:xlink="http://www.w3.org/1999/xlink">
<g id="graph0" class="graph" transform="scale(1 1) rotate(0) translate(4 441.415)">
<title>action_set</title>
<!-- Node223 -->
<g id="node1" class="node">
<title>Node223</title>
<polygon fill="#bfbfbf" stroke="#000000" points="0,-223.5 0,-242.5 62,-242.5 62,-223.5 0,-223.5"/>
<text text-anchor="middle" x="31" y="-230.5" font-family="Helvetica,sans-Serif" font-size="10.00" fill="#000000">action_set</text>
</g>
<!-- Node224 -->
<g id="node2" class="node">
<title>Node224</title>
<g id="a_node2"><a xlink:href="cl_8h.html#a619c0c3f1c27d0d069f59be58a898007" target="_top" xlink:title="Reads the classifier from a binary file. ">
<polygon fill="none" stroke="#000000" points="98.5,-299.5 98.5,-318.5 145.5,-318.5 145.5,-299.5 98.5,-299.5"/>
<text text-anchor="middle" x="122" y="-306.5" font-family="Helvetica,sans-Serif" font-size="10.00" fill="#000000">cl_load</text>
</a>
</g>
</g>
<!-- Node223&#45;&gt;Node224 -->
<g id="edge1" class="edge">
<title>Node223&#45;&gt;Node224</title>
<path fill="none" stroke="#191970" d="M50.2512,-249.0779C68.5432,-264.3548 95.4372,-286.8157 110.5684,-299.4527"/>
<polygon fill="#191970" stroke="#191970" points="52.4441,-246.3493 42.5252,-242.6255 47.957,-251.722 52.4441,-246.3493"/>
</g>
<!-- Node230 -->
<g id="node8" class="node">
<title>Node230</title>
<g id="a_node8"><a xlink:href="cl_8h.html#a5c1f93d94c386004e38c02f6d7d19004" target="_top" xlink:title="Initialises random actions, conditions and predictions. ">
<polygon fill="none" stroke="#000000" points="98,-204.5 98,-223.5 146,-223.5 146,-204.5 98,-204.5"/>
<text text-anchor="middle" x="122" y="-211.5" font-family="Helvetica,sans-Serif" font-size="10.00" fill="#000000">cl_rand</text>
</a>
</g>
</g>
<!-- Node223&#45;&gt;Node230 -->
<g id="edge7" class="edge">
<title>Node223&#45;&gt;Node230</title>
<path fill="none" stroke="#191970" d="M71.9397,-224.4522C80.8417,-222.5935 89.979,-220.6857 97.9699,-219.0173"/>
<polygon fill="#191970" stroke="#191970" points="71.1361,-221.0444 62.0625,-226.5144 72.5668,-227.8966 71.1361,-221.0444"/>
</g>
<!-- Node225 -->
<g id="node3" class="node">
<title>Node225</title>
<g id="a_node3"><a xlink:href="cl__set_8h.html#a488209fe1e7dc1ef3d09d9aa94340329" target="_top" xlink:title="Reads the population set from a binary file. ">
<polygon fill="none" stroke="#000000" points="182,-362.5 182,-381.5 238,-381.5 238,-362.5 182,-362.5"/>
<text text-anchor="middle" x="210" y="-369.5" font-family="Helvetica,sans-Serif" font-size="10.00" fill="#000000">pop_load</text>
</a>
</g>
</g>
<!-- Node224&#45;&gt;Node225 -->
<g id="edge2" class="edge">
<title>Node224&#45;&gt;Node225</title>
<path fill="none" stroke="#191970" d="M143.871,-324.6576C160.3786,-336.4756 182.5044,-352.3157 196.5089,-362.3416"/>
<polygon fill="#191970" stroke="#191970" points="145.5338,-321.5436 135.3653,-318.5683 141.459,-327.2354 145.5338,-321.5436"/>
</g>
<!-- Node226 -->
<g id="node4" class="node">
<title>Node226</title>
<g id="a_node4"><a xlink:href="xcsf_8h.html#a70e6ae30c7d4e471009c4611255ed873" target="_top" xlink:title="Reads the state of XCSF from a binary file. ">
<polygon fill="none" stroke="#000000" points="640,-391.5 640,-410.5 699,-410.5 699,-391.5 640,-391.5"/>
<text text-anchor="middle" x="669.5" y="-398.5" font-family="Helvetica,sans-Serif" font-size="10.00" fill="#000000">xcsf_load</text>
</a>
</g>
</g>
<!-- Node225&#45;&gt;Node226 -->
<g id="edge3" class="edge">
<title>Node225&#45;&gt;Node226</title>
<path fill="none" stroke="#191970" d="M248.2992,-374.4171C337.8406,-380.0683 559.3598,-394.0488 639.7484,-399.1223"/>
<polygon fill="#191970" stroke="#191970" points="248.2527,-370.9073 238.0521,-373.7704 247.8117,-377.8934 248.2527,-370.9073"/>
</g>
<!-- Node227 -->
<g id="node5" class="node">
<title>Node227</title>
<g id="a_node5"><a xlink:href="main_8c.html#a3c04138a5bfe5d72780bb7e82a18e627" target="_top" xlink:title="main">
<polygon fill="none" stroke="#000000" points="962,-363.5 962,-382.5 1000,-382.5 1000,-363.5 962,-363.5"/>
<text text-anchor="middle" x="981" y="-370.5" font-family="Helvetica,sans-Serif" font-size="10.00" fill="#000000">main</text>
</a>
</g>
</g>
<!-- Node226&#45;&gt;Node227 -->
<g id="edge4" class="edge">
<title>Node226&#45;&gt;Node227</title>
<path fill="none" stroke="#191970" d="M702.6559,-414.0853C720.0289,-420.2481 741.8354,-426.9131 762,-430 810.3259,-437.3979 824.523,-441.6644 872,-430 909.3287,-420.8289 948.0518,-396.3747 967.7538,-382.6634"/>
<polygon fill="#191970" stroke="#191970" points="703.5789,-410.6961 692.9852,-410.5456 701.1728,-417.2696 703.5789,-410.6961"/>
</g>
<!-- Node228 -->
<g id="node6" class="node">
<title>Node228</title>
<g id="a_node6"><a xlink:href="structXCS.html#adc9b621f2b7a306fbf381dd0efaf268b" target="_top" xlink:title="XCS::load">
<polygon fill="none" stroke="#000000" points="786,-325.5 786,-344.5 848,-344.5 848,-325.5 786,-325.5"/>
<text text-anchor="middle" x="817" y="-332.5" font-family="Helvetica,sans-Serif" font-size="10.00" fill="#000000">XCS::load</text>
</a>
</g>
</g>
<!-- Node226&#45;&gt;Node228 -->
<g id="edge5" class="edge">
<title>Node226&#45;&gt;Node228</title>
<path fill="none" stroke="#191970" d="M695.4371,-386.6099C713.733,-376.761 738.984,-363.7681 762,-354 769.9975,-350.6058 778.8287,-347.3479 787.0308,-344.5177"/>
<polygon fill="#191970" stroke="#191970" points="693.6662,-383.5888 686.5521,-391.44 697.0095,-389.7388 693.6662,-383.5888"/>
</g>
<!-- Node229 -->
<g id="node7" class="node">
<title>Node229</title>
<g id="a_node7"><a xlink:href="python__wrapper_8cpp.html#afbdcc1358036a0b83a6b239da2b098a2" target="_top" xlink:title="BOOST_PYTHON_MODULE">
<polygon fill="none" stroke="#000000" points="908,-97.5 908,-116.5 1054,-116.5 1054,-97.5 908,-97.5"/>
<text text-anchor="middle" x="981" y="-104.5" font-family="Helvetica,sans-Serif" font-size="10.00" fill="#000000">BOOST_PYTHON_MODULE</text>
</a>
</g>
</g>
<!-- Node228&#45;&gt;Node229 -->
<g id="edge6" class="edge">
<title>Node228&#45;&gt;Node229</title>
<path fill="none" stroke="#191970" d="M857.691,-324.9628C862.8522,-322.5732 867.7912,-319.6274 872,-316 938.6466,-258.5591 970.2295,-150.1854 978.6365,-116.9453"/>
<polygon fill="#191970" stroke="#191970" points="856.2813,-321.7565 848.2707,-328.6904 858.857,-328.2654 856.2813,-321.7565"/>
</g>
<!-- Node231 -->
<g id="node9" class="node">
<title>Node231</title>
<g id="a_node9"><a xlink:href="cl_8h.html#a42adb85e78d1f9af3dbd53cd9e9ae0fd" target="_top" xlink:title="Covers the condition and action for a classifier. ">
<polygon fill="none" stroke="#000000" points="183.5,-204.5 183.5,-223.5 236.5,-223.5 236.5,-204.5 183.5,-204.5"/>
<text text-anchor="middle" x="210" y="-211.5" font-family="Helvetica,sans-Serif" font-size="10.00" fill="#000000">cl_cover</text>
</a>
</g>
</g>
<!-- Node230&#45;&gt;Node231 -->
<g id="edge8" class="edge">
<title>Node230&#45;&gt;Node231</title>
<path fill="none" stroke="#191970" d="M156.2027,-214C165.1587,-214 174.6852,-214 183.1938,-214"/>
<polygon fill="#191970" stroke="#191970" points="156.0464,-210.5001 146.0464,-214 156.0464,-217.5001 156.0464,-210.5001"/>
</g>
<!-- Node252 -->
<g id="node30" class="node">
<title>Node252</title>
<g id="a_node30"><a xlink:href="cl__set_8h.html#a1e1060f1e8c1f916d798864804078e88" target="_top" xlink:title="Initialises a new population set. ">
<polygon fill="none" stroke="#000000" points="644.5,-90.5 644.5,-109.5 694.5,-109.5 694.5,-90.5 644.5,-90.5"/>
<text text-anchor="middle" x="669.5" y="-97.5" font-family="Helvetica,sans-Serif" font-size="10.00" fill="#000000">pop_init</text>
</a>
</g>
</g>
<!-- Node230&#45;&gt;Node252 -->
<g id="edge38" class="edge">
<title>Node230&#45;&gt;Node252</title>
<path fill="none" stroke="#191970" d="M134.1023,-196.2183C160.3584,-159.9848 226.4323,-81 303.5,-81 303.5,-81 303.5,-81 400,-81 490.0563,-81 596.6219,-91.6875 644.2762,-97.0313"/>
<polygon fill="#191970" stroke="#191970" points="131.2098,-194.2468 128.3025,-204.435 136.9286,-198.2836 131.2098,-194.2468"/>
</g>
<!-- Node232 -->
<g id="node10" class="node">
<title>Node232</title>
<g id="a_node10"><a xlink:href="cl__set_8c.html#aa4b74b698e7491734e4788fcfae8e27a" target="_top" xlink:title="Ensures all possible actions are covered by the match set. ">
<polygon fill="none" stroke="#000000" points="274,-204.5 274,-223.5 333,-223.5 333,-204.5 274,-204.5"/>
<text text-anchor="middle" x="303.5" y="-211.5" font-family="Helvetica,sans-Serif" font-size="10.00" fill="#000000">set_cover</text>
</a>
</g>
</g>
<!-- Node231&#45;&gt;Node232 -->
<g id="edge9" class="edge">
<title>Node231&#45;&gt;Node232</title>
<path fill="none" stroke="#191970" d="M246.7906,-214C255.7947,-214 265.3157,-214 273.9321,-214"/>
<polygon fill="#191970" stroke="#191970" points="246.5433,-210.5001 236.5432,-214 246.5432,-217.5001 246.5433,-210.5001"/>
</g>
<!-- Node233 -->
<g id="node11" class="node">
<title>Node233</title>
<g id="a_node11"><a xlink:href="cl__set_8h.html#af3bea0b4d03654b9d6cb08fbf272c847" target="_top" xlink:title="Constructs the match set. ">
<polygon fill="none" stroke="#000000" points="369,-204.5 369,-223.5 431,-223.5 431,-204.5 369,-204.5"/>
<text text-anchor="middle" x="400" y="-211.5" font-family="Helvetica,sans-Serif" font-size="10.00" fill="#000000">set_match</text>
</a>
</g>
</g>
<!-- Node232&#45;&gt;Node233 -->
<g id="edge10" class="edge">
<title>Node232&#45;&gt;Node233</title>
<path fill="none" stroke="#191970" d="M343.3634,-214C351.8689,-214 360.733,-214 368.8545,-214"/>
<polygon fill="#191970" stroke="#191970" points="343.2406,-210.5001 333.2406,-214 343.2406,-217.5001 343.2406,-210.5001"/>
</g>
<!-- Node234 -->
<g id="node12" class="node">
<title>Node234</title>
<g id="a_node12"><a xlink:href="xcs__multi__step_8c.html#a1e1c2a3094be715b468dda79cd59ebf3" target="_top" xlink:title="Executes a multi&#45;step trial using a built&#45;in environment. ">
<polygon fill="none" stroke="#000000" points="482,-334.5 482,-353.5 562,-353.5 562,-334.5 482,-334.5"/>
<text text-anchor="middle" x="522" y="-341.5" font-family="Helvetica,sans-Serif" font-size="10.00" fill="#000000">xcs_multi_trial</text>
</a>
</g>
</g>
<!-- Node233&#45;&gt;Node234 -->
<g id="edge11" class="edge">
<title>Node233&#45;&gt;Node234</title>
<path fill="none" stroke="#191970" d="M410.7213,-232.288C422.7948,-251.9261 443.7838,-283.3535 467,-306 478.465,-317.1837 493.5517,-327.3523 505.0238,-334.3504"/>
<polygon fill="#191970" stroke="#191970" points="413.6973,-230.4453 405.5398,-223.6847 407.7009,-234.0568 413.6973,-230.4453"/>
</g>
<!-- Node236 -->
<g id="node14" class="node">
<title>Node236</title>
<g id="a_node14"><a xlink:href="xcs__single__step_8h.html#a6cd0f3c0c1c71e13dba1ce493ef873a5" target="_top" xlink:title="Constructs the match set and selects an action to perform. ">
<polygon fill="none" stroke="#000000" points="470,-277.5 470,-296.5 574,-296.5 574,-277.5 470,-277.5"/>
<text text-anchor="middle" x="522" y="-284.5" font-family="Helvetica,sans-Serif" font-size="10.00" fill="#000000">xcs_single_decision</text>
</a>
</g>
</g>
<!-- Node233&#45;&gt;Node236 -->
<g id="edge14" class="edge">
<title>Node233&#45;&gt;Node236</title>
<path fill="none" stroke="#191970" d="M424.6054,-228.7229C448.8921,-243.2551 485.3122,-265.0475 506.0467,-277.4542"/>
<polygon fill="#191970" stroke="#191970" points="426.3276,-225.6747 415.9494,-223.5435 422.7334,-231.6815 426.3276,-225.6747"/>
</g>
<!-- Node240 -->
<g id="node18" class="node">
<title>Node240</title>
<g id="a_node18"><a xlink:href="xcsf_8c.html#a474f4e13cfc5f00958c689cd8c81135a" target="_top" xlink:title="Executes a single XCSF learning trial. ">
<polygon fill="none" stroke="#000000" points="480.5,-185.5 480.5,-204.5 563.5,-204.5 563.5,-185.5 480.5,-185.5"/>
<text text-anchor="middle" x="522" y="-192.5" font-family="Helvetica,sans-Serif" font-size="10.00" fill="#000000">xcsf_learn_trial</text>
</a>
</g>
</g>
<!-- Node233&#45;&gt;Node240 -->
<g id="edge20" class="edge">
<title>Node233&#45;&gt;Node240</title>
<path fill="none" stroke="#191970" d="M441.3267,-207.5639C453.915,-205.6034 467.7551,-203.448 480.3637,-201.4843"/>
<polygon fill="#191970" stroke="#191970" points="440.4437,-204.1591 431.1014,-209.1563 441.5209,-211.0757 440.4437,-204.1591"/>
</g>
<!-- Node245 -->
<g id="node23" class="node">
<title>Node245</title>
<g id="a_node23"><a xlink:href="xcsf_8c.html#aa6edd3962ddd04940e2c78a4f99de7cd" target="_top" xlink:title="Executes a single XCSF testing trial. ">
<polygon fill="none" stroke="#000000" points="483,-223.5 483,-242.5 561,-242.5 561,-223.5 483,-223.5"/>
<text text-anchor="middle" x="522" y="-230.5" font-family="Helvetica,sans-Serif" font-size="10.00" fill="#000000">xcsf_test_trial</text>
</a>
</g>
</g>
<!-- Node233&#45;&gt;Node245 -->
<g id="edge27" class="edge">
<title>Node233&#45;&gt;Node245</title>
<path fill="none" stroke="#191970" d="M441.0347,-220.3907C454.4596,-222.4814 469.3346,-224.798 482.6335,-226.8692"/>
<polygon fill="#191970" stroke="#191970" points="441.5209,-216.9243 431.1014,-218.8437 440.4437,-223.8409 441.5209,-216.9243"/>
</g>
<!-- Node248 -->
<g id="node26" class="node">
<title>Node248</title>
<g id="a_node26"><a xlink:href="xcsf_8h.html#af0b9db7273578fdff649d46823cd9790" target="_top" xlink:title="Calculates the XCSF predictions for the provided input. ">
<polygon fill="none" stroke="#000000" points="487,-109.5 487,-128.5 557,-128.5 557,-109.5 487,-109.5"/>
<text text-anchor="middle" x="522" y="-116.5" font-family="Helvetica,sans-Serif" font-size="10.00" fill="#000000">xcsf_predict</text>
</a>
</g>
</g>
<!-- Node233&#45;&gt;Node248 -->
<g id="edge32" class="edge">
<title>Node233&#45;&gt;Node248</title>
<path fill="none" stroke="#191970" d="M411.8386,-195.8458C423.8585,-178.7258 443.9455,-153.4508 467,-138 473.0422,-133.9506 480.0363,-130.676 486.9688,-128.0608"/>
<polygon fill="#191970" stroke="#191970" points="408.7489,-194.1654 406.0233,-204.4037 414.5386,-198.0998 408.7489,-194.1654"/>
</g>
<!-- Node250 -->
<g id="node28" class="node">
<title>Node250</title>
<g id="a_node28"><a xlink:href="xcsf_8h.html#ae1f6851f682e015601030a5c725c6618" target="_top" xlink:title="Prints the XCSF match set for the supplied input. ">
<polygon fill="none" stroke="#000000" points="467,-147.5 467,-166.5 577,-166.5 577,-147.5 467,-147.5"/>
<text text-anchor="middle" x="522" y="-154.5" font-family="Helvetica,sans-Serif" font-size="10.00" fill="#000000">xcsf_print_match_set</text>
</a>
</g>
</g>
<!-- Node233&#45;&gt;Node250 -->
<g id="edge35" class="edge">
<title>Node233&#45;&gt;Node250</title>
<path fill="none" stroke="#191970" d="M423.9041,-199.0232C436.4467,-191.5329 452.2386,-182.6678 467,-176 474.6415,-172.5483 483.1094,-169.3375 491.0647,-166.5744"/>
<polygon fill="#191970" stroke="#191970" points="421.745,-196.2397 415.0169,-204.424 425.3803,-202.2217 421.745,-196.2397"/>
</g>
<!-- Node235 -->
<g id="node13" class="node">
<title>Node235</title>
<g id="a_node13"><a xlink:href="xcs__multi__step_8h.html#acc29d4a55dbd56c16ea5f19f15a7c677" target="_top" xlink:title="Executes a multi&#45;step reinforcement learning experiment. ">
<polygon fill="none" stroke="#000000" points="765,-401.5 765,-420.5 869,-420.5 869,-401.5 765,-401.5"/>
<text text-anchor="middle" x="817" y="-408.5" font-family="Helvetica,sans-Serif" font-size="10.00" fill="#000000">xcs_multi_step_exp</text>
</a>
</g>
</g>
<!-- Node234&#45;&gt;Node235 -->
<g id="edge12" class="edge">
<title>Node234&#45;&gt;Node235</title>
<path fill="none" stroke="#191970" d="M572.3246,-351.5839C613.8454,-358.2683 674.1438,-368.9612 726,-382 747.87,-387.499 772.1858,-395.3399 790.1763,-401.4825"/>
<polygon fill="#191970" stroke="#191970" points="572.6153,-348.0862 562.1897,-349.9719 571.5157,-354.9993 572.6153,-348.0862"/>
</g>
<!-- Node235&#45;&gt;Node227 -->
<g id="edge13" class="edge">
<title>Node235&#45;&gt;Node227</title>
<path fill="none" stroke="#191970" d="M868.4247,-399.0845C900.2153,-391.7184 939.1618,-382.6942 961.9164,-377.4218"/>
<polygon fill="#191970" stroke="#191970" points="867.336,-395.744 858.3841,-401.411 868.9161,-402.5633 867.336,-395.744"/>
</g>
<!-- Node237 -->
<g id="node15" class="node">
<title>Node237</title>
<g id="a_node15"><a xlink:href="structXCS.html#a94d556a5e545ec415d7165d5e91b21d4" target="_top" xlink:title="XCS::single_decision">
<polygon fill="none" stroke="#000000" points="762,-287.5 762,-306.5 872,-306.5 872,-287.5 762,-287.5"/>
<text text-anchor="middle" x="817" y="-294.5" font-family="Helvetica,sans-Serif" font-size="10.00" fill="#000000">XCS::single_decision</text>
</a>
</g>
</g>
<!-- Node236&#45;&gt;Node237 -->
<g id="edge15" class="edge">
<title>Node236&#45;&gt;Node237</title>
<path fill="none" stroke="#191970" d="M584.2754,-289.111C636.8836,-290.8944 711.5099,-293.4241 761.9574,-295.1341"/>
<polygon fill="#191970" stroke="#191970" points="584.1739,-285.6057 574.061,-288.7648 583.9367,-292.6017 584.1739,-285.6057"/>
</g>
<!-- Node238 -->
<g id="node16" class="node">
<title>Node238</title>
<g id="a_node16"><a xlink:href="xcs__single__step_8c.html#a3d1fd2472d35310800aed897219a65af" target="_top" xlink:title="Executes a single&#45;step trial using a built&#45;in environment. ">
<polygon fill="none" stroke="#000000" points="627.5,-315.5 627.5,-334.5 711.5,-334.5 711.5,-315.5 627.5,-315.5"/>
<text text-anchor="middle" x="669.5" y="-322.5" font-family="Helvetica,sans-Serif" font-size="10.00" fill="#000000">xcs_single_trial</text>
</a>
</g>
</g>
<!-- Node236&#45;&gt;Node238 -->
<g id="edge17" class="edge">
<title>Node236&#45;&gt;Node238</title>
<path fill="none" stroke="#191970" d="M569.0141,-299.1121C589.5566,-304.4044 613.2998,-310.5213 632.5472,-315.4799"/>
<polygon fill="#191970" stroke="#191970" points="569.7775,-295.6946 559.2205,-296.589 568.0311,-302.4732 569.7775,-295.6946"/>
</g>
<!-- Node237&#45;&gt;Node229 -->
<g id="edge16" class="edge">
<title>Node237&#45;&gt;Node229</title>
<path fill="none" stroke="#191970" d="M834.3273,-279.7774C845.3483,-268.6452 859.7908,-253.7242 872,-240 911.8843,-195.1666 956.3331,-138.7451 973.5912,-116.5709"/>
<polygon fill="#191970" stroke="#191970" points="831.5674,-277.5885 826.9878,-287.1425 836.5258,-282.5296 831.5674,-277.5885"/>
</g>
<!-- Node239 -->
<g id="node17" class="node">
<title>Node239</title>
<g id="a_node17"><a xlink:href="xcs__single__step_8h.html#a39a031bf59eaa9b33e30e614610dcda8" target="_top" xlink:title="Executes a single&#45;step experiment. ">
<polygon fill="none" stroke="#000000" points="763,-363.5 763,-382.5 871,-382.5 871,-363.5 763,-363.5"/>
<text text-anchor="middle" x="817" y="-370.5" font-family="Helvetica,sans-Serif" font-size="10.00" fill="#000000">xcs_single_step_exp</text>
</a>
</g>
</g>
<!-- Node238&#45;&gt;Node239 -->
<g id="edge18" class="edge">
<title>Node238&#45;&gt;Node239</title>
<path fill="none" stroke="#191970" d="M708.801,-337.7895C733.5441,-345.8415 764.9596,-356.0648 787.5568,-363.4185"/>
<polygon fill="#191970" stroke="#191970" points="709.5866,-334.3645 698.9943,-334.5982 707.4204,-341.0209 709.5866,-334.3645"/>
</g>
<!-- Node239&#45;&gt;Node227 -->
<g id="edge19" class="edge">
<title>Node239&#45;&gt;Node227</title>
<path fill="none" stroke="#191970" d="M881.1924,-373C910.0058,-373 941.9013,-373 961.7011,-373"/>
<polygon fill="#191970" stroke="#191970" points="881.1543,-369.5001 871.1542,-373 881.1542,-376.5001 881.1543,-369.5001"/>
</g>
<!-- Node241 -->
<g id="node19" class="node">
<title>Node241</title>
<g id="a_node19"><a xlink:href="xcsf_8h.html#a874829f28fee20f9ad15b540f4b4d6ff" target="_top" xlink:title="Executes MAX_TRIALS number of XCSF learning iterations using the training data. ">
<polygon fill="none" stroke="#000000" points="642.5,-137.5 642.5,-156.5 696.5,-156.5 696.5,-137.5 642.5,-137.5"/>
<text text-anchor="middle" x="669.5" y="-144.5" font-family="Helvetica,sans-Serif" font-size="10.00" fill="#000000">xcsf_fit1</text>
</a>
</g>
</g>
<!-- Node240&#45;&gt;Node241 -->
<g id="edge21" class="edge">
<title>Node240&#45;&gt;Node241</title>
<path fill="none" stroke="#191970" d="M561.2298,-182.2337C586.7195,-173.9387 619.3134,-163.3319 642.0495,-155.933"/>
<polygon fill="#191970" stroke="#191970" points="559.9204,-178.9791 551.4943,-185.4018 562.0866,-185.6355 559.9204,-178.9791"/>
</g>
<!-- Node243 -->
<g id="node21" class="node">
<title>Node243</title>
<g id="a_node21"><a xlink:href="xcsf_8h.html#a0b4de57cb9dadc9deca7901aa36e5025" target="_top" xlink:title="Executes MAX_TRIALS number of XCSF learning iterations using the training. data and test iterations u...">
<polygon fill="none" stroke="#000000" points="642.5,-218.5 642.5,-237.5 696.5,-237.5 696.5,-218.5 642.5,-218.5"/>
<text text-anchor="middle" x="669.5" y="-225.5" font-family="Helvetica,sans-Serif" font-size="10.00" fill="#000000">xcsf_fit2</text>
</a>
</g>
</g>
<!-- Node240&#45;&gt;Node243 -->
<g id="edge24" class="edge">
<title>Node240&#45;&gt;Node243</title>
<path fill="none" stroke="#191970" d="M573.8959,-206.6106C597.0137,-211.7827 623.2809,-217.6595 642.4248,-221.9425"/>
<polygon fill="#191970" stroke="#191970" points="574.396,-203.136 563.873,-204.3682 572.8676,-209.9672 574.396,-203.136"/>
</g>
<!-- Node242 -->
<g id="node20" class="node">
<title>Node242</title>
<g id="a_node20"><a xlink:href="structXCS.html#ad2ccafe59d2b4ae6d0e1cbc15edee53c" target="_top" xlink:title="XCS::fit">
<polygon fill="none" stroke="#000000" points="791,-97.5 791,-116.5 843,-116.5 843,-97.5 791,-97.5"/>
<text text-anchor="middle" x="817" y="-104.5" font-family="Helvetica,sans-Serif" font-size="10.00" fill="#000000">XCS::fit</text>
</a>
</g>
</g>
<!-- Node241&#45;&gt;Node242 -->
<g id="edge22" class="edge">
<title>Node241&#45;&gt;Node242</title>
<path fill="none" stroke="#191970" d="M706.4983,-136.9666C732.6863,-129.8647 767.1796,-120.5106 790.614,-114.1555"/>
<polygon fill="#191970" stroke="#191970" points="705.2891,-133.668 696.5538,-139.6634 707.1213,-140.424 705.2891,-133.668"/>
</g>
<!-- Node242&#45;&gt;Node229 -->
<g id="edge23" class="edge">
<title>Node242&#45;&gt;Node229</title>
<path fill="none" stroke="#191970" d="M853.4003,-107C869.5152,-107 889.0749,-107 907.9889,-107"/>
<polygon fill="#191970" stroke="#191970" points="853.3495,-103.5001 843.3494,-107 853.3494,-110.5001 853.3495,-103.5001"/>
</g>
<!-- Node243&#45;&gt;Node227 -->
<g id="edge25" class="edge">
<title>Node243&#45;&gt;Node227</title>
<path fill="none" stroke="#191970" d="M706.9082,-231.8721C749.0215,-237.4171 818.5383,-250.203 872,-278 915.4298,-300.581 955.9405,-343.8817 972.7805,-363.2351"/>
<polygon fill="#191970" stroke="#191970" points="707.1746,-228.3783 696.8183,-230.6137 706.3082,-235.3245 707.1746,-228.3783"/>
</g>
<!-- Node244 -->
<g id="node22" class="node">
<title>Node244</title>
<g id="a_node22"><a xlink:href="structXCS.html#a7d53320740db8e846251bacd0238a9fb" target="_top" xlink:title="XCS::fit">
<polygon fill="none" stroke="#000000" points="791,-211.5 791,-230.5 843,-230.5 843,-211.5 791,-211.5"/>
<text text-anchor="middle" x="817" y="-218.5" font-family="Helvetica,sans-Serif" font-size="10.00" fill="#000000">XCS::fit</text>
</a>
</g>
</g>
<!-- Node243&#45;&gt;Node244 -->
<g id="edge26" class="edge">
<title>Node243&#45;&gt;Node244</title>
<path fill="none" stroke="#191970" d="M706.8464,-226.2276C732.9913,-224.9869 767.2833,-223.3594 790.614,-222.2522"/>
<polygon fill="#191970" stroke="#191970" points="706.3766,-222.7459 696.5538,-226.7161 706.7085,-229.738 706.3766,-222.7459"/>
</g>
<!-- Node245&#45;&gt;Node243 -->
<g id="edge28" class="edge">
<title>Node245&#45;&gt;Node243</title>
<path fill="none" stroke="#191970" d="M571.3635,-231.3267C595.0342,-230.5243 622.4816,-229.5938 642.32,-228.9214"/>
<polygon fill="#191970" stroke="#191970" points="571.0157,-227.8363 561.14,-231.6732 571.2529,-234.8323 571.0157,-227.8363"/>
</g>
<!-- Node246 -->
<g id="node24" class="node">
<title>Node246</title>
<g id="a_node24"><a xlink:href="xcsf_8h.html#a2cf95733e5f97410d94211b72e835847" target="_top" xlink:title="Calculates the XCSF error for the input data. ">
<polygon fill="none" stroke="#000000" points="637,-178.5 637,-197.5 702,-197.5 702,-178.5 637,-178.5"/>
<text text-anchor="middle" x="669.5" y="-185.5" font-family="Helvetica,sans-Serif" font-size="10.00" fill="#000000">xcsf_score</text>
</a>
</g>
</g>
<!-- Node245&#45;&gt;Node246 -->
<g id="edge29" class="edge">
<title>Node245&#45;&gt;Node246</title>
<path fill="none" stroke="#191970" d="M563.0931,-220.4631C586.8905,-213.2029 616.3722,-204.2085 638.2641,-197.5296"/>
<polygon fill="#191970" stroke="#191970" points="561.8244,-217.1908 553.281,-223.4567 563.8671,-223.8862 561.8244,-217.1908"/>
</g>
<!-- Node247 -->
<g id="node25" class="node">
<title>Node247</title>
<g id="a_node25"><a xlink:href="structXCS.html#aa77bc77484d6d14bf512304a23cfec88" target="_top" xlink:title="XCS::score">
<polygon fill="none" stroke="#000000" points="783,-135.5 783,-154.5 851,-154.5 851,-135.5 783,-135.5"/>
<text text-anchor="middle" x="817" y="-142.5" font-family="Helvetica,sans-Serif" font-size="10.00" fill="#000000">XCS::score</text>
</a>
</g>
</g>
<!-- Node246&#45;&gt;Node247 -->
<g id="edge30" class="edge">
<title>Node246&#45;&gt;Node247</title>
<path fill="none" stroke="#191970" d="M712.0893,-175.5841C735.1055,-168.8743 763.0833,-160.7181 784.3565,-154.5164"/>
<polygon fill="#191970" stroke="#191970" points="710.8558,-172.298 702.235,-178.4569 712.815,-179.0182 710.8558,-172.298"/>
</g>
<!-- Node247&#45;&gt;Node229 -->
<g id="edge31" class="edge">
<title>Node247&#45;&gt;Node229</title>
<path fill="none" stroke="#191970" d="M861.1559,-134.7687C885.6816,-129.086 915.993,-122.0626 939.9952,-116.5011"/>
<polygon fill="#191970" stroke="#191970" points="860.3316,-131.3669 851.3798,-137.034 861.9118,-138.1863 860.3316,-131.3669"/>
</g>
<!-- Node249 -->
<g id="node27" class="node">
<title>Node249</title>
<g id="a_node27"><a xlink:href="structXCS.html#a911ed75c86abed7807d33eb1385240ed" target="_top" xlink:title="XCS::predict">
<polygon fill="none" stroke="#000000" points="633,-.5 633,-19.5 706,-19.5 706,-.5 633,-.5"/>
<text text-anchor="middle" x="669.5" y="-7.5" font-family="Helvetica,sans-Serif" font-size="10.00" fill="#000000">XCS::predict</text>
</a>
</g>
</g>
<!-- Node248&#45;&gt;Node249 -->
<g id="edge33" class="edge">
<title>Node248&#45;&gt;Node249</title>
<path fill="none" stroke="#191970" d="M538.2573,-102.0637C555.6438,-84.569 584.5708,-57.1882 613,-38 623.5259,-30.8956 636.1134,-24.4805 646.733,-19.5888"/>
<polygon fill="#191970" stroke="#191970" points="535.6245,-99.7496 531.1242,-109.3412 540.6236,-104.6496 535.6245,-99.7496"/>
</g>
<!-- Node249&#45;&gt;Node229 -->
<g id="edge34" class="edge">
<title>Node249&#45;&gt;Node229</title>
<path fill="none" stroke="#191970" d="M716.296,-10.8664C758.2341,-12.9389 820.8436,-19.2757 872,-38 910.9091,-52.2415 950.5057,-81.9336 969.4765,-97.308"/>
<polygon fill="#191970" stroke="#191970" points="716.2403,-7.3608 706.0987,-10.4264 715.9385,-14.3543 716.2403,-7.3608"/>
</g>
<!-- Node251 -->
<g id="node29" class="node">
<title>Node251</title>
<g id="a_node29"><a xlink:href="structXCS.html#aa5608b379fae01b724267a99068d55bb" target="_top" xlink:title="XCS::print_match_set">
<polygon fill="none" stroke="#000000" points="613,-47.5 613,-66.5 726,-66.5 726,-47.5 613,-47.5"/>
<text text-anchor="middle" x="669.5" y="-54.5" font-family="Helvetica,sans-Serif" font-size="10.00" fill="#000000">XCS::print_match_set</text>
</a>
</g>
</g>
<!-- Node250&#45;&gt;Node251 -->
<g id="edge36" class="edge">
<title>Node250&#45;&gt;Node251</title>
<path fill="none" stroke="#191970" d="M569.7351,-142.9048C572.2914,-141.4241 574.7359,-139.7939 577,-138 600.4847,-119.3923 590.1718,-100.4075 613,-81 620.1453,-74.9255 629.0544,-70.1912 637.6705,-66.5936"/>
<polygon fill="#191970" stroke="#191970" points="568.1133,-139.8023 560.7124,-147.3837 571.2258,-146.0723 568.1133,-139.8023"/>
</g>
<!-- Node251&#45;&gt;Node229 -->
<g id="edge37" class="edge">
<title>Node251&#45;&gt;Node229</title>
<path fill="none" stroke="#191970" d="M731.9103,-46.1483C772.4144,-41.2205 826.021,-38.7036 872,-50 909.3287,-59.1711 948.0518,-83.6253 967.7538,-97.3366"/>
<polygon fill="#191970" stroke="#191970" points="731.3741,-42.6885 721.9076,-47.4462 732.2748,-49.6303 731.3741,-42.6885"/>
</g>
<!-- Node252&#45;&gt;Node227 -->
<g id="edge39" class="edge">
<title>Node252&#45;&gt;Node227</title>
<path fill="none" stroke="#191970" d="M702.2355,-113.9745C710.3037,-118.0168 718.7138,-122.768 726,-128 744.3797,-141.1979 742.8169,-151.9996 762,-164 805.8505,-191.4316 831.3924,-169.9628 872,-202 930.3194,-248.0109 966.5506,-334.3423 977.4861,-363.2714"/>
<polygon fill="#191970" stroke="#191970" points="703.5413,-110.7195 693.0092,-109.5687 700.5249,-117.0363 703.5413,-110.7195"/>
</g>
<!-- Node252&#45;&gt;Node242 -->
<g id="edge42" class="edge">
<title>Node252&#45;&gt;Node242</title>
<path fill="none" stroke="#191970" d="M704.532,-101.6625C731.029,-102.92 766.8331,-104.6192 790.8609,-105.7595"/>
<polygon fill="#191970" stroke="#191970" points="704.6761,-98.1655 694.5214,-101.1875 704.3442,-105.1577 704.6761,-98.1655"/>
</g>
<!-- Node253 -->
<g id="node31" class="node">
<title>Node253</title>
<g id="a_node31"><a xlink:href="structXCS.html#ab58a4fb495b05f3450b182bc21dcba1f" target="_top" xlink:title="XCS::single_reset">
<polygon fill="none" stroke="#000000" points="769,-59.5 769,-78.5 865,-78.5 865,-59.5 769,-59.5"/>
<text text-anchor="middle" x="817" y="-66.5" font-family="Helvetica,sans-Serif" font-size="10.00" fill="#000000">XCS::single_reset</text>
</a>
</g>
</g>
<!-- Node252&#45;&gt;Node253 -->
<g id="edge40" class="edge">
<title>Node252&#45;&gt;Node253</title>
<path fill="none" stroke="#191970" d="M704.4759,-92.6491C724.5369,-88.4329 749.9465,-83.0926 771.5416,-78.554"/>
<polygon fill="#191970" stroke="#191970" points="703.5877,-89.2593 694.5214,-94.7413 705.0275,-96.1096 703.5877,-89.2593"/>
</g>
<!-- Node253&#45;&gt;Node229 -->
<g id="edge41" class="edge">
<title>Node253&#45;&gt;Node229</title>
<path fill="none" stroke="#191970" d="M868.341,-80.8961C891.3929,-86.2374 918.2211,-92.4537 939.9135,-97.4799"/>
<polygon fill="#191970" stroke="#191970" points="868.9161,-77.4367 858.3841,-78.589 867.336,-84.256 868.9161,-77.4367"/>
</g>
</g>
</svg>
