<?xml version="1.0" encoding="UTF-8" standalone="no"?>
<!DOCTYPE svg PUBLIC "-//W3C//DTD SVG 1.1//EN"
 "http://www.w3.org/Graphics/SVG/1.1/DTD/svg11.dtd">
<!-- Generated by graphviz version 2.40.1 (20161225.0304)
 -->
<!-- Title: action_set Pages: 1 -->
<svg width="1206pt" height="409pt"
 viewBox="0.00 0.00 1206.00 409.01" xmlns="http://www.w3.org/2000/svg" xmlns:xlink="http://www.w3.org/1999/xlink">
<g id="graph0" class="graph" transform="scale(1 1) rotate(0) translate(4 405.0054)">
<title>action_set</title>
<!-- Node223 -->
<g id="node1" class="node">
<title>Node223</title>
<polygon fill="#bfbfbf" stroke="#000000" points="0,-229.5054 0,-248.5054 62,-248.5054 62,-229.5054 0,-229.5054"/>
<text text-anchor="middle" x="31" y="-236.5054" font-family="Helvetica,sans-Serif" font-size="10.00" fill="#000000">action_set</text>
</g>
<!-- Node224 -->
<g id="node2" class="node">
<title>Node224</title>
<g id="a_node2"><a xlink:href="cl_8h.html#a619c0c3f1c27d0d069f59be58a898007" target="_top" xlink:title="Reads the classifier from a binary file. ">
<polygon fill="none" stroke="#000000" points="98.5,-281.5054 98.5,-300.5054 145.5,-300.5054 145.5,-281.5054 98.5,-281.5054"/>
<text text-anchor="middle" x="122" y="-288.5054" font-family="Helvetica,sans-Serif" font-size="10.00" fill="#000000">cl_load</text>
</a>
</g>
</g>
<!-- Node223&#45;&gt;Node224 -->
<g id="edge1" class="edge">
<title>Node223&#45;&gt;Node224</title>
<path fill="none" stroke="#191970" d="M56.7633,-253.7273C72.2568,-262.5807 91.5374,-273.5982 105.1068,-281.3522"/>
<polygon fill="#191970" stroke="#191970" points="58.1097,-250.4656 47.6908,-248.543 54.6367,-256.5433 58.1097,-250.4656"/>
</g>
<!-- Node230 -->
<g id="node8" class="node">
<title>Node230</title>
<g id="a_node8"><a xlink:href="cl_8h.html#a5c1f93d94c386004e38c02f6d7d19004" target="_top" xlink:title="Initialises random actions, conditions and predictions. ">
<polygon fill="none" stroke="#000000" points="98,-210.5054 98,-229.5054 146,-229.5054 146,-210.5054 98,-210.5054"/>
<text text-anchor="middle" x="122" y="-217.5054" font-family="Helvetica,sans-Serif" font-size="10.00" fill="#000000">cl_rand</text>
</a>
</g>
</g>
<!-- Node223&#45;&gt;Node230 -->
<g id="edge7" class="edge">
<title>Node223&#45;&gt;Node230</title>
<path fill="none" stroke="#191970" d="M71.9397,-230.4576C80.8417,-228.5989 89.979,-226.6911 97.9699,-225.0227"/>
<polygon fill="#191970" stroke="#191970" points="71.1361,-227.0498 62.0625,-232.5198 72.5668,-233.902 71.1361,-227.0498"/>
</g>
<!-- Node225 -->
<g id="node3" class="node">
<title>Node225</title>
<g id="a_node3"><a xlink:href="cl__set_8h.html#a488209fe1e7dc1ef3d09d9aa94340329" target="_top" xlink:title="Reads the population set from a binary file. ">
<polygon fill="none" stroke="#000000" points="182,-347.5054 182,-366.5054 238,-366.5054 238,-347.5054 182,-347.5054"/>
<text text-anchor="middle" x="210" y="-354.5054" font-family="Helvetica,sans-Serif" font-size="10.00" fill="#000000">pop_load</text>
</a>
</g>
</g>
<!-- Node224&#45;&gt;Node225 -->
<g id="edge2" class="edge">
<title>Node224&#45;&gt;Node225</title>
<path fill="none" stroke="#191970" d="M143.1612,-306.8763C160.0301,-319.528 183.0955,-336.827 197.2481,-347.4415"/>
<polygon fill="#191970" stroke="#191970" points="145.0847,-303.944 134.9847,-300.7439 140.8847,-309.544 145.0847,-303.944"/>
</g>
<!-- Node226 -->
<g id="node4" class="node">
<title>Node226</title>
<g id="a_node4"><a xlink:href="xcsf_8h.html#a70e6ae30c7d4e471009c4611255ed873" target="_top" xlink:title="Reads the state of XCSF from a binary file. ">
<polygon fill="none" stroke="#000000" points="786.5,-381.5054 786.5,-400.5054 845.5,-400.5054 845.5,-381.5054 786.5,-381.5054"/>
<text text-anchor="middle" x="816" y="-388.5054" font-family="Helvetica,sans-Serif" font-size="10.00" fill="#000000">xcsf_load</text>
</a>
</g>
</g>
<!-- Node225&#45;&gt;Node226 -->
<g id="edge3" class="edge">
<title>Node225&#45;&gt;Node226</title>
<path fill="none" stroke="#191970" d="M248.1807,-367.9416C286.2934,-377.8819 346.7032,-391.0054 400,-391.0054 400,-391.0054 400,-391.0054 522,-391.0054 618.724,-391.0054 733.3475,-391.0054 786.3713,-391.0054"/>
<polygon fill="#191970" stroke="#191970" points="248.6111,-364.434 238.0466,-365.2359 246.8053,-371.197 248.6111,-364.434"/>
</g>
<!-- Node227 -->
<g id="node5" class="node">
<title>Node227</title>
<g id="a_node5"><a xlink:href="main_8c.html#a3c04138a5bfe5d72780bb7e82a18e627" target="_top" xlink:title="main">
<polygon fill="none" stroke="#000000" points="942,-229.5054 942,-248.5054 980,-248.5054 980,-229.5054 942,-229.5054"/>
<text text-anchor="middle" x="961" y="-236.5054" font-family="Helvetica,sans-Serif" font-size="10.00" fill="#000000">main</text>
</a>
</g>
</g>
<!-- Node226&#45;&gt;Node227 -->
<g id="edge4" class="edge">
<title>Node226&#45;&gt;Node227</title>
<path fill="none" stroke="#191970" d="M832.0196,-374.2124C862.4983,-342.2623 927.9313,-273.6705 951.933,-248.5101"/>
<polygon fill="#191970" stroke="#191970" points="829.4404,-371.8455 825.0704,-381.4971 834.5054,-376.6773 829.4404,-371.8455"/>
</g>
<!-- Node228 -->
<g id="node6" class="node">
<title>Node228</title>
<g id="a_node6"><a xlink:href="structXCS.html#adc9b621f2b7a306fbf381dd0efaf268b" target="_top" xlink:title="XCS::load">
<polygon fill="none" stroke="#000000" points="930,-371.5054 930,-390.5054 992,-390.5054 992,-371.5054 930,-371.5054"/>
<text text-anchor="middle" x="961" y="-378.5054" font-family="Helvetica,sans-Serif" font-size="10.00" fill="#000000">XCS::load</text>
</a>
</g>
</g>
<!-- Node226&#45;&gt;Node228 -->
<g id="edge5" class="edge">
<title>Node226&#45;&gt;Node228</title>
<path fill="none" stroke="#191970" d="M855.9565,-388.2498C879.2642,-386.6424 908.2343,-384.6444 929.8438,-383.1541"/>
<polygon fill="#191970" stroke="#191970" points="855.4283,-384.7778 845.6928,-388.9576 855.91,-391.7612 855.4283,-384.7778"/>
</g>
<!-- Node229 -->
<g id="node7" class="node">
<title>Node229</title>
<g id="a_node7"><a xlink:href="python__wrapper_8cpp.html#afbdcc1358036a0b83a6b239da2b098a2" target="_top" xlink:title="BOOST_PYTHON_MODULE">
<polygon fill="none" stroke="#000000" points="1052,-115.5054 1052,-134.5054 1198,-134.5054 1198,-115.5054 1052,-115.5054"/>
<text text-anchor="middle" x="1125" y="-122.5054" font-family="Helvetica,sans-Serif" font-size="10.00" fill="#000000">BOOST_PYTHON_MODULE</text>
</a>
</g>
</g>
<!-- Node228&#45;&gt;Node229 -->
<g id="edge6" class="edge">
<title>Node228&#45;&gt;Node229</title>
<path fill="none" stroke="#191970" d="M997.3865,-366.7743C1004.127,-363.0061 1010.7022,-358.437 1016,-353.0054 1082.4767,-284.8496 1114.5734,-168.4164 1122.8101,-134.5224"/>
<polygon fill="#191970" stroke="#191970" points="995.5408,-363.7855 988.1968,-371.422 998.7,-370.0321 995.5408,-363.7855"/>
</g>
<!-- Node231 -->
<g id="node9" class="node">
<title>Node231</title>
<g id="a_node9"><a xlink:href="cl_8h.html#a42adb85e78d1f9af3dbd53cd9e9ae0fd" target="_top" xlink:title="Covers the condition and action for a classifier. ">
<polygon fill="none" stroke="#000000" points="183.5,-210.5054 183.5,-229.5054 236.5,-229.5054 236.5,-210.5054 183.5,-210.5054"/>
<text text-anchor="middle" x="210" y="-217.5054" font-family="Helvetica,sans-Serif" font-size="10.00" fill="#000000">cl_cover</text>
</a>
</g>
</g>
<!-- Node230&#45;&gt;Node231 -->
<g id="edge8" class="edge">
<title>Node230&#45;&gt;Node231</title>
<path fill="none" stroke="#191970" d="M156.2027,-220.0054C165.1587,-220.0054 174.6852,-220.0054 183.1938,-220.0054"/>
<polygon fill="#191970" stroke="#191970" points="156.0464,-216.5055 146.0464,-220.0054 156.0464,-223.5055 156.0464,-216.5055"/>
</g>
<!-- Node252 -->
<g id="node30" class="node">
<title>Node252</title>
<g id="a_node30"><a xlink:href="cl__set_8h.html#a1e1060f1e8c1f916d798864804078e88" target="_top" xlink:title="Initialises a new population set. ">
<polygon fill="none" stroke="#000000" points="791,-39.5054 791,-58.5054 841,-58.5054 841,-39.5054 791,-39.5054"/>
<text text-anchor="middle" x="816" y="-46.5054" font-family="Helvetica,sans-Serif" font-size="10.00" fill="#000000">pop_init</text>
</a>
</g>
</g>
<!-- Node230&#45;&gt;Node252 -->
<g id="edge38" class="edge">
<title>Node230&#45;&gt;Node252</title>
<path fill="none" stroke="#191970" d="M133.9406,-201.5552C159.8885,-163.9595 225.4078,-82.0054 303.5,-82.0054 303.5,-82.0054 303.5,-82.0054 522,-82.0054 622.1563,-82.0054 740.3141,-62.8583 790.937,-53.7335"/>
<polygon fill="#191970" stroke="#191970" points="130.8843,-199.8283 128.2127,-210.0808 136.6947,-203.732 130.8843,-199.8283"/>
</g>
<!-- Node232 -->
<g id="node10" class="node">
<title>Node232</title>
<g id="a_node10"><a xlink:href="cl__set_8c.html#aa4b74b698e7491734e4788fcfae8e27a" target="_top" xlink:title="Ensures all possible actions are covered by the match set. ">
<polygon fill="none" stroke="#000000" points="274,-210.5054 274,-229.5054 333,-229.5054 333,-210.5054 274,-210.5054"/>
<text text-anchor="middle" x="303.5" y="-217.5054" font-family="Helvetica,sans-Serif" font-size="10.00" fill="#000000">set_cover</text>
</a>
</g>
</g>
<!-- Node231&#45;&gt;Node232 -->
<g id="edge9" class="edge">
<title>Node231&#45;&gt;Node232</title>
<path fill="none" stroke="#191970" d="M246.7906,-220.0054C255.7947,-220.0054 265.3157,-220.0054 273.9321,-220.0054"/>
<polygon fill="#191970" stroke="#191970" points="246.5433,-216.5055 236.5432,-220.0054 246.5432,-223.5055 246.5433,-216.5055"/>
</g>
<!-- Node233 -->
<g id="node11" class="node">
<title>Node233</title>
<g id="a_node11"><a xlink:href="cl__set_8h.html#af3bea0b4d03654b9d6cb08fbf272c847" target="_top" xlink:title="Constructs the match set. ">
<polygon fill="none" stroke="#000000" points="369,-210.5054 369,-229.5054 431,-229.5054 431,-210.5054 369,-210.5054"/>
<text text-anchor="middle" x="400" y="-217.5054" font-family="Helvetica,sans-Serif" font-size="10.00" fill="#000000">set_match</text>
</a>
</g>
</g>
<!-- Node232&#45;&gt;Node233 -->
<g id="edge10" class="edge">
<title>Node232&#45;&gt;Node233</title>
<path fill="none" stroke="#191970" d="M343.3634,-220.0054C351.8689,-220.0054 360.733,-220.0054 368.8545,-220.0054"/>
<polygon fill="#191970" stroke="#191970" points="343.2406,-216.5055 333.2406,-220.0054 343.2406,-223.5055 343.2406,-216.5055"/>
</g>
<!-- Node234 -->
<g id="node12" class="node">
<title>Node234</title>
<g id="a_node12"><a xlink:href="xcs__multi__step_8c.html#a1e1c2a3094be715b468dda79cd59ebf3" target="_top" xlink:title="Executes a multi&#45;step trial using a built&#45;in environment. ">
<polygon fill="none" stroke="#000000" points="482,-229.5054 482,-248.5054 562,-248.5054 562,-229.5054 482,-229.5054"/>
<text text-anchor="middle" x="522" y="-236.5054" font-family="Helvetica,sans-Serif" font-size="10.00" fill="#000000">xcs_multi_trial</text>
</a>
</g>
</g>
<!-- Node233&#45;&gt;Node234 -->
<g id="edge11" class="edge">
<title>Node233&#45;&gt;Node234</title>
<path fill="none" stroke="#191970" d="M441.2376,-226.4277C454.3055,-228.4628 468.73,-230.7093 481.7291,-232.7337"/>
<polygon fill="#191970" stroke="#191970" points="441.5209,-222.9297 431.1014,-224.8491 440.4437,-229.8463 441.5209,-222.9297"/>
</g>
<!-- Node236 -->
<g id="node14" class="node">
<title>Node236</title>
<g id="a_node14"><a xlink:href="xcs__single__step_8h.html#a6cd0f3c0c1c71e13dba1ce493ef873a5" target="_top" xlink:title="Constructs the match set and selects an action to perform. ">
<polygon fill="none" stroke="#000000" points="470,-305.5054 470,-324.5054 574,-324.5054 574,-305.5054 470,-305.5054"/>
<text text-anchor="middle" x="522" y="-312.5054" font-family="Helvetica,sans-Serif" font-size="10.00" fill="#000000">xcs_single_decision</text>
</a>
</g>
</g>
<!-- Node233&#45;&gt;Node236 -->
<g id="edge14" class="edge">
<title>Node233&#45;&gt;Node236</title>
<path fill="none" stroke="#191970" d="M411.8386,-238.1596C423.8585,-255.2796 443.9455,-280.5546 467,-296.0054 472.7065,-299.8299 479.2621,-302.9631 485.813,-305.5026"/>
<polygon fill="#191970" stroke="#191970" points="414.5386,-235.9057 406.0233,-229.6017 408.7489,-239.84 414.5386,-235.9057"/>
</g>
<!-- Node240 -->
<g id="node18" class="node">
<title>Node240</title>
<g id="a_node18"><a xlink:href="xcsf_8c.html#a474f4e13cfc5f00958c689cd8c81135a" target="_top" xlink:title="Executes a single XCSF learning trial. ">
<polygon fill="none" stroke="#000000" points="480.5,-191.5054 480.5,-210.5054 563.5,-210.5054 563.5,-191.5054 480.5,-191.5054"/>
<text text-anchor="middle" x="522" y="-198.5054" font-family="Helvetica,sans-Serif" font-size="10.00" fill="#000000">xcsf_learn_trial</text>
</a>
</g>
</g>
<!-- Node233&#45;&gt;Node240 -->
<g id="edge20" class="edge">
<title>Node233&#45;&gt;Node240</title>
<path fill="none" stroke="#191970" d="M441.3267,-213.5693C453.915,-211.6088 467.7551,-209.4534 480.3637,-207.4897"/>
<polygon fill="#191970" stroke="#191970" points="440.4437,-210.1645 431.1014,-215.1617 441.5209,-217.0811 440.4437,-210.1645"/>
</g>
<!-- Node245 -->
<g id="node23" class="node">
<title>Node245</title>
<g id="a_node23"><a xlink:href="xcsf_8c.html#aa6edd3962ddd04940e2c78a4f99de7cd" target="_top" xlink:title="Executes a single XCSF testing trial. ">
<polygon fill="none" stroke="#000000" points="483,-153.5054 483,-172.5054 561,-172.5054 561,-153.5054 483,-153.5054"/>
<text text-anchor="middle" x="522" y="-160.5054" font-family="Helvetica,sans-Serif" font-size="10.00" fill="#000000">xcsf_test_trial</text>
</a>
</g>
</g>
<!-- Node233&#45;&gt;Node245 -->
<g id="edge27" class="edge">
<title>Node233&#45;&gt;Node245</title>
<path fill="none" stroke="#191970" d="M423.9041,-205.0286C436.4467,-197.5383 452.2386,-188.6732 467,-182.0054 474.6415,-178.5537 483.1094,-175.343 491.0647,-172.5798"/>
<polygon fill="#191970" stroke="#191970" points="421.745,-202.2451 415.0169,-210.4294 425.3803,-208.2271 421.745,-202.2451"/>
</g>
<!-- Node248 -->
<g id="node26" class="node">
<title>Node248</title>
<g id="a_node26"><a xlink:href="xcsf_8h.html#af0b9db7273578fdff649d46823cd9790" target="_top" xlink:title="Calculates the XCSF predictions for the provided input. ">
<polygon fill="none" stroke="#000000" points="487,-25.5054 487,-44.5054 557,-44.5054 557,-25.5054 487,-25.5054"/>
<text text-anchor="middle" x="522" y="-32.5054" font-family="Helvetica,sans-Serif" font-size="10.00" fill="#000000">xcsf_predict</text>
</a>
</g>
</g>
<!-- Node233&#45;&gt;Node248 -->
<g id="edge32" class="edge">
<title>Node233&#45;&gt;Node248</title>
<path fill="none" stroke="#191970" d="M412.1293,-201.6126C437.69,-162.8525 496.326,-73.9373 515.6758,-44.5955"/>
<polygon fill="#191970" stroke="#191970" points="408.9709,-200.0444 406.3875,-210.3195 414.8147,-203.8982 408.9709,-200.0444"/>
</g>
<!-- Node250 -->
<g id="node28" class="node">
<title>Node250</title>
<g id="a_node28"><a xlink:href="xcsf_8h.html#ae1f6851f682e015601030a5c725c6618" target="_top" xlink:title="Prints the XCSF match set for the supplied input. ">
<polygon fill="none" stroke="#000000" points="467,-267.5054 467,-286.5054 577,-286.5054 577,-267.5054 467,-267.5054"/>
<text text-anchor="middle" x="522" y="-274.5054" font-family="Helvetica,sans-Serif" font-size="10.00" fill="#000000">xcsf_print_match_set</text>
</a>
</g>
</g>
<!-- Node233&#45;&gt;Node250 -->
<g id="edge35" class="edge">
<title>Node233&#45;&gt;Node250</title>
<path fill="none" stroke="#191970" d="M423.9041,-234.9822C436.4467,-242.4725 452.2386,-251.3376 467,-258.0054 474.6415,-261.4571 483.1094,-264.6679 491.0647,-267.431"/>
<polygon fill="#191970" stroke="#191970" points="425.3803,-231.7837 415.0169,-229.5814 421.745,-237.7658 425.3803,-231.7837"/>
</g>
<!-- Node235 -->
<g id="node13" class="node">
<title>Node235</title>
<g id="a_node13"><a xlink:href="xcs__multi__step_8h.html#acc29d4a55dbd56c16ea5f19f15a7c677" target="_top" xlink:title="Executes a multi&#45;step reinforcement learning experiment. ">
<polygon fill="none" stroke="#000000" points="764,-229.5054 764,-248.5054 868,-248.5054 868,-229.5054 764,-229.5054"/>
<text text-anchor="middle" x="816" y="-236.5054" font-family="Helvetica,sans-Serif" font-size="10.00" fill="#000000">xcs_multi_step_exp</text>
</a>
</g>
</g>
<!-- Node234&#45;&gt;Node235 -->
<g id="edge12" class="edge">
<title>Node234&#45;&gt;Node235</title>
<path fill="none" stroke="#191970" d="M572.5238,-239.0054C625.947,-239.0054 709.8153,-239.0054 763.8475,-239.0054"/>
<polygon fill="#191970" stroke="#191970" points="572.263,-235.5055 562.263,-239.0054 572.263,-242.5055 572.263,-235.5055"/>
</g>
<!-- Node235&#45;&gt;Node227 -->
<g id="edge13" class="edge">
<title>Node235&#45;&gt;Node227</title>
<path fill="none" stroke="#191970" d="M878.4129,-239.0054C901.3558,-239.0054 925.6732,-239.0054 941.932,-239.0054"/>
<polygon fill="#191970" stroke="#191970" points="878.3484,-235.5055 868.3483,-239.0054 878.3483,-242.5055 878.3484,-235.5055"/>
</g>
<!-- Node237 -->
<g id="node15" class="node">
<title>Node237</title>
<g id="a_node15"><a xlink:href="structXCS.html#a94d556a5e545ec415d7165d5e91b21d4" target="_top" xlink:title="XCS::single_decision">
<polygon fill="none" stroke="#000000" points="906,-324.5054 906,-343.5054 1016,-343.5054 1016,-324.5054 906,-324.5054"/>
<text text-anchor="middle" x="961" y="-331.5054" font-family="Helvetica,sans-Serif" font-size="10.00" fill="#000000">XCS::single_decision</text>
</a>
</g>
</g>
<!-- Node236&#45;&gt;Node237 -->
<g id="edge15" class="edge">
<title>Node236&#45;&gt;Node237</title>
<path fill="none" stroke="#191970" d="M568.8823,-326.7167C582.9717,-329.714 598.5314,-332.5111 613,-334.0054 716.0663,-344.6503 837.2207,-341.0327 905.9722,-337.4847"/>
<polygon fill="#191970" stroke="#191970" points="569.4393,-323.2554 558.9195,-324.5146 567.9284,-330.0905 569.4393,-323.2554"/>
</g>
<!-- Node238 -->
<g id="node16" class="node">
<title>Node238</title>
<g id="a_node16"><a xlink:href="xcs__single__step_8c.html#a3d1fd2472d35310800aed897219a65af" target="_top" xlink:title="Executes a single&#45;step trial using a built&#45;in environment. ">
<polygon fill="none" stroke="#000000" points="627.5,-305.5054 627.5,-324.5054 711.5,-324.5054 711.5,-305.5054 627.5,-305.5054"/>
<text text-anchor="middle" x="669.5" y="-312.5054" font-family="Helvetica,sans-Serif" font-size="10.00" fill="#000000">xcs_single_trial</text>
</a>
</g>
</g>
<!-- Node236&#45;&gt;Node238 -->
<g id="edge17" class="edge">
<title>Node236&#45;&gt;Node238</title>
<path fill="none" stroke="#191970" d="M584.3794,-315.0054C598.8192,-315.0054 613.8549,-315.0054 627.2,-315.0054"/>
<polygon fill="#191970" stroke="#191970" points="584.003,-311.5055 574.003,-315.0054 584.0029,-318.5055 584.003,-311.5055"/>
</g>
<!-- Node237&#45;&gt;Node229 -->
<g id="edge16" class="edge">
<title>Node237&#45;&gt;Node229</title>
<path fill="none" stroke="#191970" d="M984.3381,-318.3873C994.6977,-310.8199 1006.6359,-301.1761 1016,-291.0054 1064.5729,-238.2484 1106.1719,-161.6356 1120.0638,-134.7605"/>
<polygon fill="#191970" stroke="#191970" points="982.2372,-315.5863 976.0985,-324.2215 986.2823,-321.2992 982.2372,-315.5863"/>
</g>
<!-- Node239 -->
<g id="node17" class="node">
<title>Node239</title>
<g id="a_node17"><a xlink:href="xcs__single__step_8h.html#a39a031bf59eaa9b33e30e614610dcda8" target="_top" xlink:title="Executes a single&#45;step experiment. ">
<polygon fill="none" stroke="#000000" points="762,-305.5054 762,-324.5054 870,-324.5054 870,-305.5054 762,-305.5054"/>
<text text-anchor="middle" x="816" y="-312.5054" font-family="Helvetica,sans-Serif" font-size="10.00" fill="#000000">xcs_single_step_exp</text>
</a>
</g>
</g>
<!-- Node238&#45;&gt;Node239 -->
<g id="edge18" class="edge">
<title>Node238&#45;&gt;Node239</title>
<path fill="none" stroke="#191970" d="M722.0389,-315.0054C735.0094,-315.0054 748.9239,-315.0054 761.9641,-315.0054"/>
<polygon fill="#191970" stroke="#191970" points="721.8739,-311.5055 711.8739,-315.0054 721.8738,-318.5055 721.8739,-311.5055"/>
</g>
<!-- Node239&#45;&gt;Node227 -->
<g id="edge19" class="edge">
<title>Node239&#45;&gt;Node227</title>
<path fill="none" stroke="#191970" d="M843.5789,-300.5503C872.7087,-285.2822 917.8059,-261.6451 942.7848,-248.5527"/>
<polygon fill="#191970" stroke="#191970" points="841.5966,-297.6376 834.3644,-305.38 844.8463,-303.8375 841.5966,-297.6376"/>
</g>
<!-- Node241 -->
<g id="node19" class="node">
<title>Node241</title>
<g id="a_node19"><a xlink:href="xcsf_8h.html#a0b4de57cb9dadc9deca7901aa36e5025" target="_top" xlink:title="Executes MAX_TRIALS number of XCSF learning iterations using the training. data and test iterations u...">
<polygon fill="none" stroke="#000000" points="642.5,-153.5054 642.5,-172.5054 696.5,-172.5054 696.5,-153.5054 642.5,-153.5054"/>
<text text-anchor="middle" x="669.5" y="-160.5054" font-family="Helvetica,sans-Serif" font-size="10.00" fill="#000000">xcsf_fit2</text>
</a>
</g>
</g>
<!-- Node240&#45;&gt;Node241 -->
<g id="edge21" class="edge">
<title>Node240&#45;&gt;Node241</title>
<path fill="none" stroke="#191970" d="M569.223,-188.8395C593.2658,-182.6454 621.6482,-175.3333 642.0697,-170.0722"/>
<polygon fill="#191970" stroke="#191970" points="568.0311,-185.5322 559.2205,-191.4164 569.7775,-192.3108 568.0311,-185.5322"/>
</g>
<!-- Node241&#45;&gt;Node227 -->
<g id="edge22" class="edge">
<title>Node241&#45;&gt;Node227</title>
<path fill="none" stroke="#191970" d="M706.5219,-172.6578C769.1606,-188.989 893.8947,-221.5097 941.7201,-233.9787"/>
<polygon fill="#191970" stroke="#191970" points="707.2214,-169.2232 696.6618,-170.0871 705.4553,-175.9968 707.2214,-169.2232"/>
</g>
<!-- Node242 -->
<g id="node20" class="node">
<title>Node242</title>
<g id="a_node20"><a xlink:href="structXCS.html#a7d53320740db8e846251bacd0238a9fb" target="_top" xlink:title="XCS::fit">
<polygon fill="none" stroke="#000000" points="790,-153.5054 790,-172.5054 842,-172.5054 842,-153.5054 790,-153.5054"/>
<text text-anchor="middle" x="816" y="-160.5054" font-family="Helvetica,sans-Serif" font-size="10.00" fill="#000000">XCS::fit</text>
</a>
</g>
</g>
<!-- Node241&#45;&gt;Node242 -->
<g id="edge23" class="edge">
<title>Node241&#45;&gt;Node242</title>
<path fill="none" stroke="#191970" d="M706.9437,-163.0054C732.9137,-163.0054 766.8473,-163.0054 789.9182,-163.0054"/>
<polygon fill="#191970" stroke="#191970" points="706.7122,-159.5055 696.7122,-163.0054 706.7122,-166.5055 706.7122,-159.5055"/>
</g>
<!-- Node243 -->
<g id="node21" class="node">
<title>Node243</title>
<g id="a_node21"><a xlink:href="xcsf_8h.html#a874829f28fee20f9ad15b540f4b4d6ff" target="_top" xlink:title="Executes MAX_TRIALS number of XCSF learning iterations using the training data. ">
<polygon fill="none" stroke="#000000" points="789,-77.5054 789,-96.5054 843,-96.5054 843,-77.5054 789,-77.5054"/>
<text text-anchor="middle" x="816" y="-84.5054" font-family="Helvetica,sans-Serif" font-size="10.00" fill="#000000">xcsf_fit1</text>
</a>
</g>
</g>
<!-- Node241&#45;&gt;Node243 -->
<g id="edge24" class="edge">
<title>Node241&#45;&gt;Node243</title>
<path fill="none" stroke="#191970" d="M706.3249,-152.0517C712.9858,-149.6698 719.7853,-146.9653 726,-144.0054 755.0544,-130.1676 786.1908,-108.808 803.1565,-96.5442"/>
<polygon fill="#191970" stroke="#191970" points="705.0931,-148.7736 696.7494,-155.303 707.3438,-155.402 705.0931,-148.7736"/>
</g>
<!-- Node244 -->
<g id="node22" class="node">
<title>Node244</title>
<g id="a_node22"><a xlink:href="structXCS.html#ad2ccafe59d2b4ae6d0e1cbc15edee53c" target="_top" xlink:title="XCS::fit">
<polygon fill="none" stroke="#000000" points="935,-77.5054 935,-96.5054 987,-96.5054 987,-77.5054 935,-77.5054"/>
<text text-anchor="middle" x="961" y="-84.5054" font-family="Helvetica,sans-Serif" font-size="10.00" fill="#000000">XCS::fit</text>
</a>
</g>
</g>
<!-- Node243&#45;&gt;Node244 -->
<g id="edge25" class="edge">
<title>Node243&#45;&gt;Node244</title>
<path fill="none" stroke="#191970" d="M853.3422,-87.0054C878.8746,-87.0054 912.0827,-87.0054 934.8256,-87.0054"/>
<polygon fill="#191970" stroke="#191970" points="853.2734,-83.5055 843.2734,-87.0054 853.2734,-90.5055 853.2734,-83.5055"/>
</g>
<!-- Node244&#45;&gt;Node229 -->
<g id="edge26" class="edge">
<title>Node244&#45;&gt;Node229</title>
<path fill="none" stroke="#191970" d="M997.4051,-95.4407C1023.038,-101.3801 1057.3853,-109.3386 1083.9861,-115.5022"/>
<polygon fill="#191970" stroke="#191970" points="997.8814,-91.9584 987.3494,-93.1108 996.3013,-98.7778 997.8814,-91.9584"/>
</g>
<!-- Node245&#45;&gt;Node241 -->
<g id="edge28" class="edge">
<title>Node245&#45;&gt;Node241</title>
<path fill="none" stroke="#191970" d="M571.3635,-163.0054C595.0342,-163.0054 622.4816,-163.0054 642.32,-163.0054"/>
<polygon fill="#191970" stroke="#191970" points="571.1401,-159.5055 561.14,-163.0054 571.14,-166.5055 571.1401,-159.5055"/>
</g>
<!-- Node246 -->
<g id="node24" class="node">
<title>Node246</title>
<g id="a_node24"><a xlink:href="xcsf_8h.html#a2cf95733e5f97410d94211b72e835847" target="_top" xlink:title="Calculates the XCSF error for the input data. ">
<polygon fill="none" stroke="#000000" points="637,-115.5054 637,-134.5054 702,-134.5054 702,-115.5054 637,-115.5054"/>
<text text-anchor="middle" x="669.5" y="-122.5054" font-family="Helvetica,sans-Serif" font-size="10.00" fill="#000000">xcsf_score</text>
</a>
</g>
</g>
<!-- Node245&#45;&gt;Node246 -->
<g id="edge29" class="edge">
<title>Node245&#45;&gt;Node246</title>
<path fill="none" stroke="#191970" d="M569.0695,-150.879C591.1448,-145.1918 616.9063,-138.555 636.8107,-133.427"/>
<polygon fill="#191970" stroke="#191970" points="568.0311,-147.5322 559.2205,-153.4164 569.7775,-154.3108 568.0311,-147.5322"/>
</g>
<!-- Node247 -->
<g id="node25" class="node">
<title>Node247</title>
<g id="a_node25"><a xlink:href="structXCS.html#aa77bc77484d6d14bf512304a23cfec88" target="_top" xlink:title="XCS::score">
<polygon fill="none" stroke="#000000" points="927,-115.5054 927,-134.5054 995,-134.5054 995,-115.5054 927,-115.5054"/>
<text text-anchor="middle" x="961" y="-122.5054" font-family="Helvetica,sans-Serif" font-size="10.00" fill="#000000">XCS::score</text>
</a>
</g>
</g>
<!-- Node246&#45;&gt;Node247 -->
<g id="edge30" class="edge">
<title>Node246&#45;&gt;Node247</title>
<path fill="none" stroke="#191970" d="M712.4214,-125.0054C770.6502,-125.0054 873.5109,-125.0054 926.8218,-125.0054"/>
<polygon fill="#191970" stroke="#191970" points="712.0903,-121.5055 702.0903,-125.0054 712.0902,-128.5055 712.0903,-121.5055"/>
</g>
<!-- Node247&#45;&gt;Node229 -->
<g id="edge31" class="edge">
<title>Node247&#45;&gt;Node229</title>
<path fill="none" stroke="#191970" d="M1005.4237,-125.0054C1019.7375,-125.0054 1036.0002,-125.0054 1051.82,-125.0054"/>
<polygon fill="#191970" stroke="#191970" points="1005.3798,-121.5055 995.3798,-125.0054 1005.3797,-128.5055 1005.3798,-121.5055"/>
</g>
<!-- Node249 -->
<g id="node27" class="node">
<title>Node249</title>
<g id="a_node27"><a xlink:href="structXCS.html#a911ed75c86abed7807d33eb1385240ed" target="_top" xlink:title="XCS::predict">
<polygon fill="none" stroke="#000000" points="633,-6.5054 633,-25.5054 706,-25.5054 706,-6.5054 633,-6.5054"/>
<text text-anchor="middle" x="669.5" y="-13.5054" font-family="Helvetica,sans-Serif" font-size="10.00" fill="#000000">XCS::predict</text>
</a>
</g>
</g>
<!-- Node248&#45;&gt;Node249 -->
<g id="edge33" class="edge">
<title>Node248&#45;&gt;Node249</title>
<path fill="none" stroke="#191970" d="M567.3334,-29.1658C588.3834,-26.4543 613.0797,-23.2731 632.9179,-20.7177"/>
<polygon fill="#191970" stroke="#191970" points="566.8008,-25.7054 557.3299,-30.4544 567.6952,-32.6481 566.8008,-25.7054"/>
</g>
<!-- Node249&#45;&gt;Node229 -->
<g id="edge34" class="edge">
<title>Node249&#45;&gt;Node229</title>
<path fill="none" stroke="#191970" d="M716.0779,-8.4202C784.5506,.675 915.1678,10.1082 1016,-30.0054 1062.1822,-48.3778 1102.1307,-95.1599 1117.8618,-115.415"/>
<polygon fill="#191970" stroke="#191970" points="715.4615,-4.9721 706.0366,-9.8115 716.4223,-11.9058 715.4615,-4.9721"/>
</g>
<!-- Node251 -->
<g id="node29" class="node">
<title>Node251</title>
<g id="a_node29"><a xlink:href="structXCS.html#aa5608b379fae01b724267a99068d55bb" target="_top" xlink:title="XCS::print_match_set">
<polygon fill="none" stroke="#000000" points="613,-267.5054 613,-286.5054 726,-286.5054 726,-267.5054 613,-267.5054"/>
<text text-anchor="middle" x="669.5" y="-274.5054" font-family="Helvetica,sans-Serif" font-size="10.00" fill="#000000">XCS::print_match_set</text>
</a>
</g>
</g>
<!-- Node250&#45;&gt;Node251 -->
<g id="edge36" class="edge">
<title>Node250&#45;&gt;Node251</title>
<path fill="none" stroke="#191970" d="M587.542,-277.0054C595.9872,-277.0054 604.5777,-277.0054 612.8632,-277.0054"/>
<polygon fill="#191970" stroke="#191970" points="587.3432,-273.5055 577.3432,-277.0054 587.3432,-280.5055 587.3432,-273.5055"/>
</g>
<!-- Node251&#45;&gt;Node229 -->
<g id="edge37" class="edge">
<title>Node251&#45;&gt;Node229</title>
<path fill="none" stroke="#191970" d="M731.5846,-287.9675C804.05,-297.6376 925.4885,-303.9268 1016,-258.0054 1071.1106,-230.0448 1108.3638,-160.3432 1120.6058,-134.6849"/>
<polygon fill="#191970" stroke="#191970" points="731.6465,-284.4421 721.2578,-286.522 730.6761,-291.3745 731.6465,-284.4421"/>
</g>
<!-- Node252&#45;&gt;Node227 -->
<g id="edge39" class="edge">
<title>Node252&#45;&gt;Node227</title>
<path fill="none" stroke="#191970" d="M850.5241,-56.5929C857.5462,-59.3254 864.467,-63.0202 870,-68.0054 897.7671,-93.0239 888.622,-110.9155 906,-144.0054 922.7473,-175.8943 944.7444,-212.4779 955.1114,-229.4428"/>
<polygon fill="#191970" stroke="#191970" points="851.6002,-53.2624 841.0067,-53.4323 849.394,-59.9056 851.6002,-53.2624"/>
</g>
<!-- Node252&#45;&gt;Node244 -->
<g id="edge42" class="edge">
<title>Node252&#45;&gt;Node244</title>
<path fill="none" stroke="#191970" d="M850.9937,-58.1762C876.7123,-64.9162 911.121,-73.9337 934.5628,-80.077"/>
<polygon fill="#191970" stroke="#191970" points="851.8177,-54.774 841.2571,-55.6245 850.0431,-61.5453 851.8177,-54.774"/>
</g>
<!-- Node253 -->
<g id="node31" class="node">
<title>Node253</title>
<g id="a_node31"><a xlink:href="structXCS.html#ab58a4fb495b05f3450b182bc21dcba1f" target="_top" xlink:title="XCS::single_reset">
<polygon fill="none" stroke="#000000" points="913,-39.5054 913,-58.5054 1009,-58.5054 1009,-39.5054 913,-39.5054"/>
<text text-anchor="middle" x="961" y="-46.5054" font-family="Helvetica,sans-Serif" font-size="10.00" fill="#000000">XCS::single_reset</text>
</a>
</g>
</g>
<!-- Node252&#45;&gt;Node253 -->
<g id="edge40" class="edge">
<title>Node252&#45;&gt;Node253</title>
<path fill="none" stroke="#191970" d="M851.3154,-49.0054C869.8312,-49.0054 892.7839,-49.0054 912.8996,-49.0054"/>
<polygon fill="#191970" stroke="#191970" points="851.2571,-45.5055 841.2571,-49.0054 851.257,-52.5055 851.2571,-45.5055"/>
</g>
<!-- Node253&#45;&gt;Node229 -->
<g id="edge41" class="edge">
<title>Node253&#45;&gt;Node229</title>
<path fill="none" stroke="#191970" d="M1000.9849,-62.0307C1006.0832,-63.9213 1011.1952,-65.9329 1016,-68.0054 1049.7267,-82.5529 1087.3375,-103.2829 1108.3884,-115.3207"/>
<polygon fill="#191970" stroke="#191970" points="1001.8766,-58.6326 991.282,-58.5601 999.519,-65.2236 1001.8766,-58.6326"/>
</g>
</g>
</svg>
