<?xml version="1.0" encoding="UTF-8" standalone="no"?>
<!DOCTYPE svg PUBLIC "-//W3C//DTD SVG 1.1//EN"
 "http://www.w3.org/Graphics/SVG/1.1/DTD/svg11.dtd">
<!-- Generated by graphviz version 2.40.1 (20161225.0304)
 -->
<!-- Title: act_free Pages: 1 -->
<svg width="954pt" height="391pt"
 viewBox="0.00 0.00 954.00 390.71" xmlns="http://www.w3.org/2000/svg" xmlns:xlink="http://www.w3.org/1999/xlink">
<g id="graph0" class="graph" transform="scale(1 1) rotate(0) translate(4 386.7058)">
<title>act_free</title>
<!-- Node88 -->
<g id="node1" class="node">
<title>Node88</title>
<polygon fill="#bfbfbf" stroke="#000000" points="0,-210.8149 0,-229.8149 52,-229.8149 52,-210.8149 0,-210.8149"/>
<text text-anchor="middle" x="26" y="-217.8149" font-family="Helvetica,sans-Serif" font-size="10.00" fill="#000000">act_free</text>
</g>
<!-- Node89 -->
<g id="node2" class="node">
<title>Node89</title>
<g id="a_node2"><a xlink:href="$cl_8h.html#a7bf8d03856a0c04854cfd99fcd45b32a" xlink:title="Frees the memory used by the classifier. ">
<polygon fill="none" stroke="#000000" points="88,-210.8149 88,-229.8149 134,-229.8149 134,-210.8149 88,-210.8149"/>
<text text-anchor="middle" x="111" y="-217.8149" font-family="Helvetica,sans-Serif" font-size="10.00" fill="#000000">cl_free</text>
</a>
</g>
</g>
<!-- Node88&#45;&gt;Node89 -->
<g id="edge1" class="edge">
<title>Node88&#45;&gt;Node89</title>
<path fill="none" stroke="#191970" d="M62.5844,-220.3149C71.1202,-220.3149 79.9808,-220.3149 87.7523,-220.3149"/>
<polygon fill="#191970" stroke="#191970" points="62.4286,-216.815 52.4286,-220.3149 62.4286,-223.815 62.4286,-216.815"/>
</g>
<!-- Node90 -->
<g id="node3" class="node">
<title>Node90</title>
<g id="a_node3"><a xlink:href="$cl__set_8h.html#a0b2479df1a61213f1f150907c62278bb" xlink:title="Frees the set and the classifiers. ">
<polygon fill="none" stroke="#000000" points="278,-172.8149 278,-191.8149 325,-191.8149 325,-172.8149 278,-172.8149"/>
<text text-anchor="middle" x="301.5" y="-179.8149" font-family="Helvetica,sans-Serif" font-size="10.00" fill="#000000">set_kill</text>
</a>
</g>
</g>
<!-- Node89&#45;&gt;Node90 -->
<g id="edge2" class="edge">
<title>Node89&#45;&gt;Node90</title>
<path fill="none" stroke="#191970" d="M144.491,-213.6343C182.7638,-205.9998 244.4226,-193.7004 277.9499,-187.0126"/>
<polygon fill="#191970" stroke="#191970" points="143.4811,-210.2667 134.359,-215.6554 144.8505,-217.1315 143.4811,-210.2667"/>
</g>
<!-- Node115 -->
<g id="node28" class="node">
<title>Node115</title>
<g id="a_node28"><a xlink:href="$ea_8h.html#ae3824341a2f5482cb6ac70b3839ded51" xlink:title="Executes the evolutionary algorithm (EA). ">
<polygon fill="none" stroke="#000000" points="287,-229.8149 287,-248.8149 316,-248.8149 316,-229.8149 287,-229.8149"/>
<text text-anchor="middle" x="301.5" y="-236.8149" font-family="Helvetica,sans-Serif" font-size="10.00" fill="#000000">ea</text>
</a>
</g>
</g>
<!-- Node89&#45;&gt;Node115 -->
<g id="edge39" class="edge">
<title>Node89&#45;&gt;Node115</title>
<path fill="none" stroke="#191970" d="M144.3631,-223.6425C186.2622,-227.8214 256.3348,-234.8103 286.7103,-237.8398"/>
<polygon fill="#191970" stroke="#191970" points="144.6571,-220.1545 134.359,-222.6447 143.9623,-227.1199 144.6571,-220.1545"/>
</g>
<!-- Node116 -->
<g id="node29" class="node">
<title>Node116</title>
<g id="a_node29"><a xlink:href="$ea_8c.html#a2500eac78a82990046fd272eda718c46" xlink:title="Performs evolutionary algorithm subsumption. ">
<polygon fill="none" stroke="#000000" points="170,-248.8149 170,-267.8149 242,-267.8149 242,-248.8149 170,-248.8149"/>
<text text-anchor="middle" x="206" y="-255.8149" font-family="Helvetica,sans-Serif" font-size="10.00" fill="#000000">ea_subsume</text>
</a>
</g>
</g>
<!-- Node89&#45;&gt;Node116 -->
<g id="edge43" class="edge">
<title>Node89&#45;&gt;Node116</title>
<path fill="none" stroke="#191970" d="M144.1284,-233.5663C156.6419,-238.5717 170.6246,-244.1647 182.1271,-248.7658"/>
<polygon fill="#191970" stroke="#191970" points="145.0678,-230.1725 134.4832,-229.7082 142.468,-236.6718 145.0678,-230.1725"/>
</g>
<!-- Node91 -->
<g id="node4" class="node">
<title>Node91</title>
<g id="a_node4"><a xlink:href="$main_8c.html#a3c04138a5bfe5d72780bb7e82a18e627" xlink:title="main">
<polygon fill="none" stroke="#000000" points="854,-267.8149 854,-286.8149 892,-286.8149 892,-267.8149 854,-267.8149"/>
<text text-anchor="middle" x="873" y="-274.8149" font-family="Helvetica,sans-Serif" font-size="10.00" fill="#000000">main</text>
</a>
</g>
</g>
<!-- Node90&#45;&gt;Node91 -->
<g id="edge3" class="edge">
<title>Node90&#45;&gt;Node91</title>
<path fill="none" stroke="#191970" d="M314.1101,-200.6479C317.9434,-206.7296 321.9451,-213.6516 325,-220.3149 347.1431,-268.6139 318.1442,-302.9064 361,-334.3149 520.0657,-450.8921 784.9616,-324.3594 855.37,-287.0245"/>
<polygon fill="#191970" stroke="#191970" points="316.8036,-198.3736 308.3853,-191.9406 310.9545,-202.2192 316.8036,-198.3736"/>
</g>
<!-- Node92 -->
<g id="node5" class="node">
<title>Node92</title>
<g id="a_node5"><a xlink:href="$xcs__multi__step_8c.html#a9f6d53384f68b9354b5757dd2c7771fd" xlink:title="Executes a multi&#45;step explore trial. ">
<polygon fill="none" stroke="#000000" points="368.5,-305.8149 368.5,-324.8149 463.5,-324.8149 463.5,-305.8149 368.5,-305.8149"/>
<text text-anchor="middle" x="416" y="-312.8149" font-family="Helvetica,sans-Serif" font-size="10.00" fill="#000000">xcs_multi_explore</text>
</a>
</g>
</g>
<!-- Node90&#45;&gt;Node92 -->
<g id="edge4" class="edge">
<title>Node90&#45;&gt;Node92</title>
<path fill="none" stroke="#191970" d="M313.4178,-200.6616C317.2645,-206.8213 321.4492,-213.786 325,-220.3149 342.857,-253.1489 333.1616,-271.3757 361,-296.3149 365.289,-300.1572 370.3946,-303.2304 375.7408,-305.6865"/>
<polygon fill="#191970" stroke="#191970" points="316.1137,-198.3789 307.7908,-191.8229 310.2088,-202.1382 316.1137,-198.3789"/>
</g>
<!-- Node95 -->
<g id="node8" class="node">
<title>Node95</title>
<g id="a_node8"><a xlink:href="$xcs__multi__step_8c.html#af458a8b42e79e924ffcf87a7d9c9711d" xlink:title="Executes a multi&#45;step exploit trial. ">
<polygon fill="none" stroke="#000000" points="370,-267.8149 370,-286.8149 462,-286.8149 462,-267.8149 370,-267.8149"/>
<text text-anchor="middle" x="416" y="-274.8149" font-family="Helvetica,sans-Serif" font-size="10.00" fill="#000000">xcs_multi_exploit</text>
</a>
</g>
</g>
<!-- Node90&#45;&gt;Node95 -->
<g id="edge8" class="edge">
<title>Node90&#45;&gt;Node95</title>
<path fill="none" stroke="#191970" d="M313.6387,-200.1019C327.4356,-219.8806 349.5246,-250.1295 361,-258.3149 366.3459,-262.1281 372.5228,-265.2298 378.7641,-267.7355"/>
<polygon fill="#191970" stroke="#191970" points="316.5143,-198.1066 307.9509,-191.868 310.7548,-202.0851 316.5143,-198.1066"/>
</g>
<!-- Node96 -->
<g id="node9" class="node">
<title>Node96</title>
<g id="a_node9"><a xlink:href="$xcs__single__step_8c.html#aef07baf4de9b02d9c6fd33a1c485e7ea" xlink:title="Executes a single&#45;step explore trial. ">
<polygon fill="none" stroke="#000000" points="366,-229.8149 366,-248.8149 466,-248.8149 466,-229.8149 366,-229.8149"/>
<text text-anchor="middle" x="416" y="-236.8149" font-family="Helvetica,sans-Serif" font-size="10.00" fill="#000000">xcs_single_explore</text>
</a>
</g>
</g>
<!-- Node90&#45;&gt;Node96 -->
<g id="edge10" class="edge">
<title>Node90&#45;&gt;Node96</title>
<path fill="none" stroke="#191970" d="M323.1704,-197.9061C334.1475,-205.3431 347.8971,-213.9776 361,-220.3149 368.3665,-223.8778 376.5776,-227.0882 384.3613,-229.8124"/>
<polygon fill="#191970" stroke="#191970" points="324.8892,-194.8389 314.6769,-192.0175 320.9008,-200.5915 324.8892,-194.8389"/>
</g>
<!-- Node98 -->
<g id="node11" class="node">
<title>Node98</title>
<g id="a_node11"><a xlink:href="$xcs__single__step_8c.html#a5d3ed7cfbd01de00beaa8e2559f463b5" xlink:title="Executes a single&#45;step exploit trial. ">
<polygon fill="none" stroke="#000000" points="367.5,-191.8149 367.5,-210.8149 464.5,-210.8149 464.5,-191.8149 367.5,-191.8149"/>
<text text-anchor="middle" x="416" y="-198.8149" font-family="Helvetica,sans-Serif" font-size="10.00" fill="#000000">xcs_single_exploit</text>
</a>
</g>
</g>
<!-- Node90&#45;&gt;Node98 -->
<g id="edge13" class="edge">
<title>Node90&#45;&gt;Node98</title>
<path fill="none" stroke="#191970" d="M335.2049,-187.9079C345.253,-189.5752 356.4729,-191.4371 367.2783,-193.2301"/>
<polygon fill="#191970" stroke="#191970" points="335.6626,-184.436 325.2245,-186.2517 334.5166,-191.3416 335.6626,-184.436"/>
</g>
<!-- Node99 -->
<g id="node12" class="node">
<title>Node99</title>
<g id="a_node12"><a xlink:href="$xcsf_8c.html#a6dfb03d255a2684e9e06e88f9a4e3a3d" xlink:title="Executes a single XCSF learning trial. ">
<polygon fill="none" stroke="#000000" points="374.5,-115.8149 374.5,-134.8149 457.5,-134.8149 457.5,-115.8149 374.5,-115.8149"/>
<text text-anchor="middle" x="416" y="-122.8149" font-family="Helvetica,sans-Serif" font-size="10.00" fill="#000000">xcsf_learn_trial</text>
</a>
</g>
</g>
<!-- Node90&#45;&gt;Node99 -->
<g id="edge15" class="edge">
<title>Node90&#45;&gt;Node99</title>
<path fill="none" stroke="#191970" d="M326.3912,-167.8189C336.9441,-161.8545 349.451,-155.0213 361,-149.3149 371.2742,-144.2384 382.8737,-139.0934 392.7627,-134.876"/>
<polygon fill="#191970" stroke="#191970" points="324.6413,-164.7877 317.6936,-172.7865 328.113,-170.8661 324.6413,-164.7877"/>
</g>
<!-- Node106 -->
<g id="node19" class="node">
<title>Node106</title>
<g id="a_node19"><a xlink:href="$xcsf_8c.html#a40ac6b86844534bd5124b4e936c768ee" xlink:title="Executes a single XCSF testing trial. ">
<polygon fill="none" stroke="#000000" points="377,-77.8149 377,-96.8149 455,-96.8149 455,-77.8149 377,-77.8149"/>
<text text-anchor="middle" x="416" y="-84.8149" font-family="Helvetica,sans-Serif" font-size="10.00" fill="#000000">xcsf_test_trial</text>
</a>
</g>
</g>
<!-- Node90&#45;&gt;Node106 -->
<g id="edge23" class="edge">
<title>Node90&#45;&gt;Node106</title>
<path fill="none" stroke="#191970" d="M311.8381,-163.6392C322.2074,-146.4985 339.6746,-121.5263 361,-106.3149 366.3459,-102.5017 372.5228,-99.4 378.7641,-96.8943"/>
<polygon fill="#191970" stroke="#191970" points="308.575,-162.2886 306.5775,-172.6935 314.6276,-165.8053 308.575,-162.2886"/>
</g>
<!-- Node109 -->
<g id="node22" class="node">
<title>Node109</title>
<g id="a_node22"><a xlink:href="$xcsf_8h.html#af0b9db7273578fdff649d46823cd9790" xlink:title="Calculates the XCSF predictions for the provided input. ">
<polygon fill="none" stroke="#000000" points="526,-1.8149 526,-20.8149 596,-20.8149 596,-1.8149 526,-1.8149"/>
<text text-anchor="middle" x="561" y="-8.8149" font-family="Helvetica,sans-Serif" font-size="10.00" fill="#000000">xcsf_predict</text>
</a>
</g>
</g>
<!-- Node90&#45;&gt;Node109 -->
<g id="edge28" class="edge">
<title>Node90&#45;&gt;Node109</title>
<path fill="none" stroke="#191970" d="M302.919,-162.0718C306.4503,-128.5909 318.7011,-62.2179 361,-30.3149 408.7563,5.7041 482.2857,1.9904 525.6235,-4.3856"/>
<polygon fill="#191970" stroke="#191970" points="299.3973,-162.1618 301.9987,-172.4323 306.3699,-162.7813 299.3973,-162.1618"/>
</g>
<!-- Node111 -->
<g id="node24" class="node">
<title>Node111</title>
<g id="a_node24"><a xlink:href="$xcsf_8h.html#ae1f6851f682e015601030a5c725c6618" xlink:title="Prints the XCSF match set for the supplied input. ">
<polygon fill="none" stroke="#000000" points="361,-39.8149 361,-58.8149 471,-58.8149 471,-39.8149 361,-39.8149"/>
<text text-anchor="middle" x="416" y="-46.8149" font-family="Helvetica,sans-Serif" font-size="10.00" fill="#000000">xcsf_print_match_set</text>
</a>
</g>
</g>
<!-- Node90&#45;&gt;Node111 -->
<g id="edge31" class="edge">
<title>Node90&#45;&gt;Node111</title>
<path fill="none" stroke="#191970" d="M306.8156,-162.6186C314.617,-137.3334 331.5339,-93.7029 361,-68.3149 365.5155,-64.4244 370.871,-61.3179 376.4395,-58.8408"/>
<polygon fill="#191970" stroke="#191970" points="303.3679,-161.9408 303.9399,-172.5202 310.0901,-163.8932 303.3679,-161.9408"/>
</g>
<!-- Node113 -->
<g id="node26" class="node">
<title>Node113</title>
<g id="a_node26"><a xlink:href="$xcsf_8h.html#a70e6ae30c7d4e471009c4611255ed873" xlink:title="Reads the state of XCSF from a binary file. ">
<polygon fill="none" stroke="#000000" points="531.5,-191.8149 531.5,-210.8149 590.5,-210.8149 590.5,-191.8149 531.5,-191.8149"/>
<text text-anchor="middle" x="561" y="-198.8149" font-family="Helvetica,sans-Serif" font-size="10.00" fill="#000000">xcsf_load</text>
</a>
</g>
</g>
<!-- Node90&#45;&gt;Node113 -->
<g id="edge34" class="edge">
<title>Node90&#45;&gt;Node113</title>
<path fill="none" stroke="#191970" d="M335.5585,-180.2437C369.8617,-178.6437 424.2547,-177.4345 471,-182.3149 491.3303,-184.4375 513.8303,-189.1875 531.2477,-193.4069"/>
<polygon fill="#191970" stroke="#191970" points="334.9725,-176.7688 325.1622,-180.7697 335.3263,-183.7599 334.9725,-176.7688"/>
</g>
<!-- Node93 -->
<g id="node6" class="node">
<title>Node93</title>
<g id="a_node6"><a xlink:href="$xcs__multi__step_8h.html#acc29d4a55dbd56c16ea5f19f15a7c677" xlink:title="Executes a multi&#45;step reinforcement learning experiment. ">
<polygon fill="none" stroke="#000000" points="509,-267.8149 509,-286.8149 613,-286.8149 613,-267.8149 509,-267.8149"/>
<text text-anchor="middle" x="561" y="-274.8149" font-family="Helvetica,sans-Serif" font-size="10.00" fill="#000000">xcs_multi_step_exp</text>
</a>
</g>
</g>
<!-- Node92&#45;&gt;Node93 -->
<g id="edge5" class="edge">
<title>Node92&#45;&gt;Node93</title>
<path fill="none" stroke="#191970" d="M462.4928,-303.1306C482.6237,-297.8549 505.8383,-291.7711 524.6735,-286.835"/>
<polygon fill="#191970" stroke="#191970" points="461.3757,-299.8051 452.5896,-305.7259 463.1503,-306.5764 461.3757,-299.8051"/>
</g>
<!-- Node94 -->
<g id="node7" class="node">
<title>Node94</title>
<g id="a_node7"><a xlink:href="$main_8c.html#ab572a67aa431827116ebd6931d667d21" xlink:title="classification">
<polygon fill="none" stroke="#000000" points="670.5,-267.8149 670.5,-286.8149 744.5,-286.8149 744.5,-267.8149 670.5,-267.8149"/>
<text text-anchor="middle" x="707.5" y="-274.8149" font-family="Helvetica,sans-Serif" font-size="10.00" fill="#000000">classification</text>
</a>
</g>
</g>
<!-- Node93&#45;&gt;Node94 -->
<g id="edge6" class="edge">
<title>Node93&#45;&gt;Node94</title>
<path fill="none" stroke="#191970" d="M623.4266,-277.3149C639.4014,-277.3149 656.0783,-277.3149 670.3277,-277.3149"/>
<polygon fill="#191970" stroke="#191970" points="623.063,-273.815 613.0629,-277.3149 623.0629,-280.815 623.063,-273.815"/>
</g>
<!-- Node94&#45;&gt;Node91 -->
<g id="edge7" class="edge">
<title>Node94&#45;&gt;Node91</title>
<path fill="none" stroke="#191970" d="M754.9722,-277.3149C787.8892,-277.3149 829.9689,-277.3149 853.9621,-277.3149"/>
<polygon fill="#191970" stroke="#191970" points="754.6415,-273.815 744.6414,-277.3149 754.6414,-280.815 754.6415,-273.815"/>
</g>
<!-- Node95&#45;&gt;Node93 -->
<g id="edge9" class="edge">
<title>Node95&#45;&gt;Node93</title>
<path fill="none" stroke="#191970" d="M472.5871,-277.3149C484.536,-277.3149 497.0915,-277.3149 508.8669,-277.3149"/>
<polygon fill="#191970" stroke="#191970" points="472.2776,-273.815 462.2776,-277.3149 472.2775,-280.815 472.2776,-273.815"/>
</g>
<!-- Node97 -->
<g id="node10" class="node">
<title>Node97</title>
<g id="a_node10"><a xlink:href="$xcs__single__step_8h.html#a39a031bf59eaa9b33e30e614610dcda8" xlink:title="Executes a single&#45;step experiment. ">
<polygon fill="none" stroke="#000000" points="507,-229.8149 507,-248.8149 615,-248.8149 615,-229.8149 507,-229.8149"/>
<text text-anchor="middle" x="561" y="-236.8149" font-family="Helvetica,sans-Serif" font-size="10.00" fill="#000000">xcs_single_step_exp</text>
</a>
</g>
</g>
<!-- Node96&#45;&gt;Node97 -->
<g id="edge11" class="edge">
<title>Node96&#45;&gt;Node97</title>
<path fill="none" stroke="#191970" d="M476.6088,-239.3149C486.6348,-239.3149 496.9726,-239.3149 506.8269,-239.3149"/>
<polygon fill="#191970" stroke="#191970" points="476.3071,-235.815 466.307,-239.3149 476.307,-242.815 476.3071,-235.815"/>
</g>
<!-- Node97&#45;&gt;Node94 -->
<g id="edge12" class="edge">
<title>Node97&#45;&gt;Node94</title>
<path fill="none" stroke="#191970" d="M607.6954,-251.427C628.0986,-256.7193 651.6808,-262.8362 670.7977,-267.7949"/>
<polygon fill="#191970" stroke="#191970" points="608.5266,-248.0269 597.9681,-248.9039 606.769,-254.8026 608.5266,-248.0269"/>
</g>
<!-- Node98&#45;&gt;Node97 -->
<g id="edge14" class="edge">
<title>Node98&#45;&gt;Node97</title>
<path fill="none" stroke="#191970" d="M462.4928,-213.4992C482.6237,-218.7749 505.8383,-224.8587 524.6735,-229.7949"/>
<polygon fill="#191970" stroke="#191970" points="463.1503,-210.0534 452.5896,-210.9039 461.3757,-216.8247 463.1503,-210.0534"/>
</g>
<!-- Node100 -->
<g id="node13" class="node">
<title>Node100</title>
<g id="a_node13"><a xlink:href="$xcsf_8h.html#a874829f28fee20f9ad15b540f4b4d6ff" xlink:title="Executes MAX_TRIALS number of XCSF learning iterations using the training data. ">
<polygon fill="none" stroke="#000000" points="534,-115.8149 534,-134.8149 588,-134.8149 588,-115.8149 534,-115.8149"/>
<text text-anchor="middle" x="561" y="-122.8149" font-family="Helvetica,sans-Serif" font-size="10.00" fill="#000000">xcsf_fit1</text>
</a>
</g>
</g>
<!-- Node99&#45;&gt;Node100 -->
<g id="edge16" class="edge">
<title>Node99&#45;&gt;Node100</title>
<path fill="none" stroke="#191970" d="M467.5591,-125.3149C489.8578,-125.3149 515.0475,-125.3149 533.6494,-125.3149"/>
<polygon fill="#191970" stroke="#191970" points="467.5512,-121.815 457.5512,-125.3149 467.5511,-128.815 467.5512,-121.815"/>
</g>
<!-- Node103 -->
<g id="node16" class="node">
<title>Node103</title>
<g id="a_node16"><a xlink:href="$xcsf_8h.html#a0b4de57cb9dadc9deca7901aa36e5025" xlink:title="Executes MAX_TRIALS number of XCSF learning iterations using the training. data and test iterations u...">
<polygon fill="none" stroke="#000000" points="534,-153.8149 534,-172.8149 588,-172.8149 588,-153.8149 534,-153.8149"/>
<text text-anchor="middle" x="561" y="-160.8149" font-family="Helvetica,sans-Serif" font-size="10.00" fill="#000000">xcsf_fit2</text>
</a>
</g>
</g>
<!-- Node99&#45;&gt;Node103 -->
<g id="edge19" class="edge">
<title>Node99&#45;&gt;Node103</title>
<path fill="none" stroke="#191970" d="M462.3555,-137.4633C485.8263,-143.6142 513.5181,-150.8714 533.5775,-156.1283"/>
<polygon fill="#191970" stroke="#191970" points="463.1503,-134.0534 452.5896,-134.9039 461.3757,-140.8247 463.1503,-134.0534"/>
</g>
<!-- Node101 -->
<g id="node14" class="node">
<title>Node101</title>
<g id="a_node14"><a xlink:href="$structXCS.html#ad2ccafe59d2b4ae6d0e1cbc15edee53c" xlink:title="XCS::fit">
<polygon fill="none" stroke="#000000" points="681.5,-115.8149 681.5,-134.8149 733.5,-134.8149 733.5,-115.8149 681.5,-115.8149"/>
<text text-anchor="middle" x="707.5" y="-122.8149" font-family="Helvetica,sans-Serif" font-size="10.00" fill="#000000">XCS::fit</text>
</a>
</g>
</g>
<!-- Node100&#45;&gt;Node101 -->
<g id="edge17" class="edge">
<title>Node100&#45;&gt;Node101</title>
<path fill="none" stroke="#191970" d="M598.4437,-125.3149C624.4137,-125.3149 658.3473,-125.3149 681.4182,-125.3149"/>
<polygon fill="#191970" stroke="#191970" points="598.2122,-121.815 588.2122,-125.3149 598.2122,-128.815 598.2122,-121.815"/>
</g>
<!-- Node102 -->
<g id="node15" class="node">
<title>Node102</title>
<g id="a_node15"><a xlink:href="$python__wrapper_8cpp.html#afbdcc1358036a0b83a6b239da2b098a2" xlink:title="BOOST_PYTHON_MODULE">
<polygon fill="none" stroke="#000000" points="800,-77.8149 800,-96.8149 946,-96.8149 946,-77.8149 800,-77.8149"/>
<text text-anchor="middle" x="873" y="-84.8149" font-family="Helvetica,sans-Serif" font-size="10.00" fill="#000000">BOOST_PYTHON_MODULE</text>
</a>
</g>
</g>
<!-- Node101&#45;&gt;Node102 -->
<g id="edge18" class="edge">
<title>Node101&#45;&gt;Node102</title>
<path fill="none" stroke="#191970" d="M743.5117,-117.0464C769.3942,-111.1036 804.3539,-103.0766 831.4243,-96.861"/>
<polygon fill="#191970" stroke="#191970" points="742.6871,-113.6445 733.724,-119.2937 744.2536,-120.467 742.6871,-113.6445"/>
</g>
<!-- Node104 -->
<g id="node17" class="node">
<title>Node104</title>
<g id="a_node17"><a xlink:href="$main_8c.html#a968c78da8ed8ad08662a86280deec99a" xlink:title="regression">
<polygon fill="none" stroke="#000000" points="676.5,-229.8149 676.5,-248.8149 738.5,-248.8149 738.5,-229.8149 676.5,-229.8149"/>
<text text-anchor="middle" x="707.5" y="-236.8149" font-family="Helvetica,sans-Serif" font-size="10.00" fill="#000000">regression</text>
</a>
</g>
</g>
<!-- Node103&#45;&gt;Node104 -->
<g id="edge20" class="edge">
<title>Node103&#45;&gt;Node104</title>
<path fill="none" stroke="#191970" d="M597.6549,-173.5448C603.6852,-175.9672 609.6922,-178.8724 615,-182.3149 634.5186,-194.9742 631.3937,-207.7918 651,-220.3149 658.675,-225.2171 667.7496,-228.9942 676.3549,-231.8404"/>
<polygon fill="#191970" stroke="#191970" points="598.8508,-170.2555 588.2567,-170.1279 596.459,-176.8342 598.8508,-170.2555"/>
</g>
<!-- Node105 -->
<g id="node18" class="node">
<title>Node105</title>
<g id="a_node18"><a xlink:href="$structXCS.html#a7d53320740db8e846251bacd0238a9fb" xlink:title="XCS::fit">
<polygon fill="none" stroke="#000000" points="681.5,-153.8149 681.5,-172.8149 733.5,-172.8149 733.5,-153.8149 681.5,-153.8149"/>
<text text-anchor="middle" x="707.5" y="-160.8149" font-family="Helvetica,sans-Serif" font-size="10.00" fill="#000000">XCS::fit</text>
</a>
</g>
</g>
<!-- Node103&#45;&gt;Node105 -->
<g id="edge22" class="edge">
<title>Node103&#45;&gt;Node105</title>
<path fill="none" stroke="#191970" d="M598.4437,-163.3149C624.4137,-163.3149 658.3473,-163.3149 681.4182,-163.3149"/>
<polygon fill="#191970" stroke="#191970" points="598.2122,-159.815 588.2122,-163.3149 598.2122,-166.815 598.2122,-159.815"/>
</g>
<!-- Node104&#45;&gt;Node91 -->
<g id="edge21" class="edge">
<title>Node104&#45;&gt;Node91</title>
<path fill="none" stroke="#191970" d="M748.6335,-248.7595C782.2693,-256.4825 828.3073,-267.0532 853.8863,-272.9263"/>
<polygon fill="#191970" stroke="#191970" points="749.1589,-245.2891 738.6293,-246.4624 747.5924,-252.1116 749.1589,-245.2891"/>
</g>
<!-- Node106&#45;&gt;Node103 -->
<g id="edge24" class="edge">
<title>Node106&#45;&gt;Node103</title>
<path fill="none" stroke="#191970" d="M461.0848,-100.8394C464.5385,-102.4875 467.8874,-104.3087 471,-106.3149 490.5547,-118.9185 487.4814,-131.6557 507,-144.3149 515.0881,-149.5606 524.7997,-153.5589 533.7433,-156.5019"/>
<polygon fill="#191970" stroke="#191970" points="462.3596,-97.5781 451.7882,-96.8731 459.6126,-104.0166 462.3596,-97.5781"/>
</g>
<!-- Node107 -->
<g id="node20" class="node">
<title>Node107</title>
<g id="a_node20"><a xlink:href="$xcsf_8h.html#a2cf95733e5f97410d94211b72e835847" xlink:title="Calculates the XCSF error for the input data. ">
<polygon fill="none" stroke="#000000" points="528.5,-77.8149 528.5,-96.8149 593.5,-96.8149 593.5,-77.8149 528.5,-77.8149"/>
<text text-anchor="middle" x="561" y="-84.8149" font-family="Helvetica,sans-Serif" font-size="10.00" fill="#000000">xcsf_score</text>
</a>
</g>
</g>
<!-- Node106&#45;&gt;Node107 -->
<g id="edge25" class="edge">
<title>Node106&#45;&gt;Node107</title>
<path fill="none" stroke="#191970" d="M465.4448,-87.3149C486.1263,-87.3149 509.6017,-87.3149 528.1086,-87.3149"/>
<polygon fill="#191970" stroke="#191970" points="465.2391,-83.815 455.2391,-87.3149 465.2391,-90.815 465.2391,-83.815"/>
</g>
<!-- Node108 -->
<g id="node21" class="node">
<title>Node108</title>
<g id="a_node21"><a xlink:href="$structXCS.html#aa77bc77484d6d14bf512304a23cfec88" xlink:title="XCS::score">
<polygon fill="none" stroke="#000000" points="673.5,-77.8149 673.5,-96.8149 741.5,-96.8149 741.5,-77.8149 673.5,-77.8149"/>
<text text-anchor="middle" x="707.5" y="-84.8149" font-family="Helvetica,sans-Serif" font-size="10.00" fill="#000000">XCS::score</text>
</a>
</g>
</g>
<!-- Node107&#45;&gt;Node108 -->
<g id="edge26" class="edge">
<title>Node107&#45;&gt;Node108</title>
<path fill="none" stroke="#191970" d="M603.6544,-87.3149C625.8077,-87.3149 652.5127,-87.3149 673.2938,-87.3149"/>
<polygon fill="#191970" stroke="#191970" points="603.5131,-83.815 593.5131,-87.3149 603.5131,-90.815 603.5131,-83.815"/>
</g>
<!-- Node108&#45;&gt;Node102 -->
<g id="edge27" class="edge">
<title>Node108&#45;&gt;Node102</title>
<path fill="none" stroke="#191970" d="M752.1037,-87.3149C766.8156,-87.3149 783.5869,-87.3149 799.856,-87.3149"/>
<polygon fill="#191970" stroke="#191970" points="751.7917,-83.815 741.7917,-87.3149 751.7917,-90.815 751.7917,-83.815"/>
</g>
<!-- Node110 -->
<g id="node23" class="node">
<title>Node110</title>
<g id="a_node23"><a xlink:href="$structXCS.html#a911ed75c86abed7807d33eb1385240ed" xlink:title="XCS::predict">
<polygon fill="none" stroke="#000000" points="671,-1.8149 671,-20.8149 744,-20.8149 744,-1.8149 671,-1.8149"/>
<text text-anchor="middle" x="707.5" y="-8.8149" font-family="Helvetica,sans-Serif" font-size="10.00" fill="#000000">XCS::predict</text>
</a>
</g>
</g>
<!-- Node109&#45;&gt;Node110 -->
<g id="edge29" class="edge">
<title>Node109&#45;&gt;Node110</title>
<path fill="none" stroke="#191970" d="M606.272,-11.3149C627.0346,-11.3149 651.3266,-11.3149 670.909,-11.3149"/>
<polygon fill="#191970" stroke="#191970" points="606.0904,-7.815 596.0904,-11.3149 606.0904,-14.815 606.0904,-7.815"/>
</g>
<!-- Node110&#45;&gt;Node102 -->
<g id="edge30" class="edge">
<title>Node110&#45;&gt;Node102</title>
<path fill="none" stroke="#191970" d="M748.3719,-24.205C753.6783,-26.1273 759.0024,-28.1836 764,-30.3149 797.9826,-44.8075 835.8138,-65.7432 856.7727,-77.7953"/>
<polygon fill="#191970" stroke="#191970" points="749.5087,-20.8948 738.9138,-20.9022 747.2009,-27.5034 749.5087,-20.8948"/>
</g>
<!-- Node112 -->
<g id="node25" class="node">
<title>Node112</title>
<g id="a_node25"><a xlink:href="$structXCS.html#aa5608b379fae01b724267a99068d55bb" xlink:title="XCS::print_match_set">
<polygon fill="none" stroke="#000000" points="651,-39.8149 651,-58.8149 764,-58.8149 764,-39.8149 651,-39.8149"/>
<text text-anchor="middle" x="707.5" y="-46.8149" font-family="Helvetica,sans-Serif" font-size="10.00" fill="#000000">XCS::print_match_set</text>
</a>
</g>
</g>
<!-- Node111&#45;&gt;Node112 -->
<g id="edge32" class="edge">
<title>Node111&#45;&gt;Node112</title>
<path fill="none" stroke="#191970" d="M481.4105,-49.3149C532.3246,-49.3149 602.2616,-49.3149 650.814,-49.3149"/>
<polygon fill="#191970" stroke="#191970" points="481.1717,-45.815 471.1716,-49.3149 481.1716,-52.815 481.1717,-45.815"/>
</g>
<!-- Node112&#45;&gt;Node102 -->
<g id="edge33" class="edge">
<title>Node112&#45;&gt;Node102</title>
<path fill="none" stroke="#191970" d="M759.3105,-61.211C782.5733,-66.5523 809.6469,-72.7686 831.5377,-77.7949"/>
<polygon fill="#191970" stroke="#191970" points="759.7923,-57.7306 749.2626,-58.9039 758.2258,-64.5531 759.7923,-57.7306"/>
</g>
<!-- Node113&#45;&gt;Node94 -->
<g id="edge36" class="edge">
<title>Node113&#45;&gt;Node94</title>
<path fill="none" stroke="#191970" d="M600.112,-212.5599C605.306,-214.7672 610.414,-217.3406 615,-220.3149 634.5186,-232.9742 631.3937,-245.7918 651,-258.3149 656.9306,-262.103 663.6971,-265.2192 670.4369,-267.7533"/>
<polygon fill="#191970" stroke="#191970" points="601.3543,-209.2879 590.7641,-208.9745 598.8475,-215.8236 601.3543,-209.2879"/>
</g>
<!-- Node113&#45;&gt;Node104 -->
<g id="edge35" class="edge">
<title>Node113&#45;&gt;Node104</title>
<path fill="none" stroke="#191970" d="M600.4452,-211.5464C624.2773,-217.7281 654.2247,-225.4961 676.3807,-231.243"/>
<polygon fill="#191970" stroke="#191970" points="601.2049,-208.1277 590.6465,-209.0048 599.4473,-214.9035 601.2049,-208.1277"/>
</g>
<!-- Node114 -->
<g id="node27" class="node">
<title>Node114</title>
<g id="a_node27"><a xlink:href="$structXCS.html#adc9b621f2b7a306fbf381dd0efaf268b" xlink:title="XCS::load">
<polygon fill="none" stroke="#000000" points="676.5,-191.8149 676.5,-210.8149 738.5,-210.8149 738.5,-191.8149 676.5,-191.8149"/>
<text text-anchor="middle" x="707.5" y="-198.8149" font-family="Helvetica,sans-Serif" font-size="10.00" fill="#000000">XCS::load</text>
</a>
</g>
</g>
<!-- Node113&#45;&gt;Node114 -->
<g id="edge37" class="edge">
<title>Node113&#45;&gt;Node114</title>
<path fill="none" stroke="#191970" d="M600.7648,-201.3149C624.5445,-201.3149 654.3236,-201.3149 676.3807,-201.3149"/>
<polygon fill="#191970" stroke="#191970" points="600.6465,-197.815 590.6465,-201.3149 600.6464,-204.815 600.6465,-197.815"/>
</g>
<!-- Node114&#45;&gt;Node102 -->
<g id="edge38" class="edge">
<title>Node114&#45;&gt;Node102</title>
<path fill="none" stroke="#191970" d="M748.3516,-189.7314C753.7616,-187.5813 759.1184,-185.1141 764,-182.3149 806.2459,-158.0906 847.0594,-116.0247 864.3504,-97.0699"/>
<polygon fill="#191970" stroke="#191970" points="746.8481,-186.5538 738.6474,-193.262 749.2415,-193.132 746.8481,-186.5538"/>
</g>
<!-- Node115&#45;&gt;Node92 -->
<g id="edge40" class="edge">
<title>Node115&#45;&gt;Node92</title>
<path fill="none" stroke="#191970" d="M316.2234,-257.0242C327.398,-269.4917 343.7406,-285.7739 361,-296.3149 367.1213,-300.0534 374.0778,-303.1797 380.9353,-305.7458"/>
<polygon fill="#191970" stroke="#191970" points="318.5622,-254.3792 309.3649,-249.1198 313.2749,-258.9667 318.5622,-254.3792"/>
</g>
<!-- Node115&#45;&gt;Node96 -->
<g id="edge41" class="edge">
<title>Node115&#45;&gt;Node96</title>
<path fill="none" stroke="#191970" d="M326.2137,-239.3149C337.8302,-239.3149 352.1221,-239.3149 365.8593,-239.3149"/>
<polygon fill="#191970" stroke="#191970" points="326.0015,-235.815 316.0015,-239.3149 326.0015,-242.815 326.0015,-235.815"/>
</g>
<!-- Node115&#45;&gt;Node99 -->
<g id="edge42" class="edge">
<title>Node115&#45;&gt;Node99</title>
<path fill="none" stroke="#191970" d="M318.4056,-222.4832C342.7161,-198.2788 386.7635,-154.4238 406.2625,-135.0099"/>
<polygon fill="#191970" stroke="#191970" points="315.8793,-220.0594 311.2622,-229.5953 320.8182,-225.02 315.8793,-220.0594"/>
</g>
<!-- Node116&#45;&gt;Node115 -->
<g id="edge44" class="edge">
<title>Node116&#45;&gt;Node115</title>
<path fill="none" stroke="#191970" d="M252.0295,-249.1572C264.529,-246.6704 277.1859,-244.1523 286.5683,-242.2856"/>
<polygon fill="#191970" stroke="#191970" points="251.2293,-245.7477 242.1045,-251.1318 252.5952,-252.6132 251.2293,-245.7477"/>
</g>
</g>
</svg>
