<?xml version="1.0" encoding="UTF-8" standalone="no"?>
<!DOCTYPE svg PUBLIC "-//W3C//DTD SVG 1.1//EN"
 "http://www.w3.org/Graphics/SVG/1.1/DTD/svg11.dtd">
<!-- Generated by graphviz version 2.40.1 (20161225.0304)
 -->
<!-- Title: act_crossover Pages: 1 -->
<svg width="834pt" height="256pt"
 viewBox="0.00 0.00 834.00 256.00" xmlns="http://www.w3.org/2000/svg" xmlns:xlink="http://www.w3.org/1999/xlink">
<g id="graph0" class="graph" transform="scale(1 1) rotate(0) translate(4 252)">
<title>act_crossover</title>
<!-- Node61 -->
<g id="node1" class="node">
<title>Node61</title>
<polygon fill="#bfbfbf" stroke="#000000" points="0,-171.5 0,-190.5 78,-190.5 78,-171.5 0,-171.5"/>
<text text-anchor="middle" x="39" y="-178.5" font-family="Helvetica,sans-Serif" font-size="10.00" fill="#000000">act_crossover</text>
</g>
<!-- Node62 -->
<g id="node2" class="node">
<title>Node62</title>
<g id="a_node2"><a xlink:href="cl_8h.html#aca8d32cc95a6a4193e11d0833143e3ac" target="_top" xlink:title="Performs classifier crossover. ">
<polygon fill="none" stroke="#000000" points="114,-171.5 114,-190.5 186,-190.5 186,-171.5 114,-171.5"/>
<text text-anchor="middle" x="150" y="-178.5" font-family="Helvetica,sans-Serif" font-size="10.00" fill="#000000">cl_crossover</text>
</a>
</g>
</g>
<!-- Node61&#45;&gt;Node62 -->
<g id="edge1" class="edge">
<title>Node61&#45;&gt;Node62</title>
<path fill="none" stroke="#191970" d="M88.4097,-181C96.9584,-181 105.7021,-181 113.8164,-181"/>
<polygon fill="#191970" stroke="#191970" points="88.1345,-177.5001 78.1344,-181 88.1344,-184.5001 88.1345,-177.5001"/>
</g>
<!-- Node63 -->
<g id="node3" class="node">
<title>Node63</title>
<g id="a_node3"><a xlink:href="ea_8h.html#ae90a9b4131bb94462265b9c928499eb8" target="_top" xlink:title="Executes the evolutionary algorithm (EA). ">
<polygon fill="none" stroke="#000000" points="222,-171.5 222,-190.5 251,-190.5 251,-171.5 222,-171.5"/>
<text text-anchor="middle" x="236.5" y="-178.5" font-family="Helvetica,sans-Serif" font-size="10.00" fill="#000000">ea</text>
</a>
</g>
</g>
<!-- Node62&#45;&gt;Node63 -->
<g id="edge2" class="edge">
<title>Node62&#45;&gt;Node63</title>
<path fill="none" stroke="#191970" d="M196.308,-181C205.6467,-181 214.7942,-181 221.9975,-181"/>
<polygon fill="#191970" stroke="#191970" points="196.1826,-177.5001 186.1826,-181 196.1826,-184.5001 196.1826,-177.5001"/>
</g>
<!-- Node64 -->
<g id="node4" class="node">
<title>Node64</title>
<g id="a_node4"><a xlink:href="xcs__multi__step_8c.html#ad50c415970b4bfc42f469fb38c5e68fa" target="_top" xlink:title="Executes a multi&#45;step trial using a built&#45;in environment. ">
<polygon fill="none" stroke="#000000" points="300,-218.5 300,-237.5 380,-237.5 380,-218.5 300,-218.5"/>
<text text-anchor="middle" x="340" y="-225.5" font-family="Helvetica,sans-Serif" font-size="10.00" fill="#000000">xcs_multi_trial</text>
</a>
</g>
</g>
<!-- Node63&#45;&gt;Node64 -->
<g id="edge3" class="edge">
<title>Node63&#45;&gt;Node64</title>
<path fill="none" stroke="#191970" d="M260.8945,-192.0777C278.4601,-200.0543 301.9269,-210.7108 318.7311,-218.3417"/>
<polygon fill="#191970" stroke="#191970" points="261.8814,-188.6819 251.329,-187.734 258.987,-195.0555 261.8814,-188.6819"/>
</g>
<!-- Node67 -->
<g id="node7" class="node">
<title>Node67</title>
<g id="a_node7"><a xlink:href="xcs__single__step_8h.html#a0ff6b521f66224d56ef0e6f50f5781b9" target="_top" xlink:title="Creates the action set, updates the classifiers and runs the EA. ">
<polygon fill="none" stroke="#000000" points="291,-171.5 291,-190.5 389,-190.5 389,-171.5 291,-171.5"/>
<text text-anchor="middle" x="340" y="-178.5" font-family="Helvetica,sans-Serif" font-size="10.00" fill="#000000">xcs_single_update</text>
</a>
</g>
</g>
<!-- Node63&#45;&gt;Node67 -->
<g id="edge6" class="edge">
<title>Node63&#45;&gt;Node67</title>
<path fill="none" stroke="#191970" d="M261.5706,-181C270.3408,-181 280.5182,-181 290.578,-181"/>
<polygon fill="#191970" stroke="#191970" points="261.3291,-177.5001 251.329,-181 261.329,-184.5001 261.3291,-177.5001"/>
</g>
<!-- Node72 -->
<g id="node12" class="node">
<title>Node72</title>
<g id="a_node12"><a xlink:href="xcs__supervised_8c.html#ad48f3f1110cd2295710b91192dc80b31" target="_top" xlink:title="Executes a single XCSF trial. ">
<polygon fill="none" stroke="#000000" points="287,-57.5 287,-76.5 393,-76.5 393,-57.5 287,-57.5"/>
<text text-anchor="middle" x="340" y="-64.5" font-family="Helvetica,sans-Serif" font-size="10.00" fill="#000000">xcs_supervised_trial</text>
</a>
</g>
</g>
<!-- Node63&#45;&gt;Node72 -->
<g id="edge12" class="edge">
<title>Node63&#45;&gt;Node72</title>
<path fill="none" stroke="#191970" d="M252.0678,-163.8528C274.1008,-139.5847 313.6485,-96.0248 331.198,-76.695"/>
<polygon fill="#191970" stroke="#191970" points="249.4549,-161.5239 245.3244,-171.2804 254.6376,-166.2293 249.4549,-161.5239"/>
</g>
<!-- Node65 -->
<g id="node5" class="node">
<title>Node65</title>
<g id="a_node5"><a xlink:href="xcs__multi__step_8h.html#acc29d4a55dbd56c16ea5f19f15a7c677" target="_top" xlink:title="Executes a multi&#45;step reinforcement learning experiment. ">
<polygon fill="none" stroke="#000000" points="586,-228.5 586,-247.5 690,-247.5 690,-228.5 586,-228.5"/>
<text text-anchor="middle" x="638" y="-235.5" font-family="Helvetica,sans-Serif" font-size="10.00" fill="#000000">xcs_multi_step_exp</text>
</a>
</g>
</g>
<!-- Node64&#45;&gt;Node65 -->
<g id="edge4" class="edge">
<title>Node64&#45;&gt;Node65</title>
<path fill="none" stroke="#191970" d="M390.2878,-229.6875C444.6576,-231.512 530.9046,-234.4062 585.9513,-236.2534"/>
<polygon fill="#191970" stroke="#191970" points="390.3014,-226.1861 380.1896,-229.3486 390.0666,-233.1822 390.3014,-226.1861"/>
</g>
<!-- Node66 -->
<g id="node6" class="node">
<title>Node66</title>
<g id="a_node6"><a xlink:href="main_8c.html#a3c04138a5bfe5d72780bb7e82a18e627" target="_top" xlink:title="main">
<polygon fill="none" stroke="#000000" points="758,-190.5 758,-209.5 796,-209.5 796,-190.5 758,-190.5"/>
<text text-anchor="middle" x="777" y="-197.5" font-family="Helvetica,sans-Serif" font-size="10.00" fill="#000000">main</text>
</a>
</g>
</g>
<!-- Node65&#45;&gt;Node66 -->
<g id="edge5" class="edge">
<title>Node65&#45;&gt;Node66</title>
<path fill="none" stroke="#191970" d="M682.8597,-225.7362C708.1892,-218.8116 738.5345,-210.5157 757.7913,-205.2513"/>
<polygon fill="#191970" stroke="#191970" points="681.7986,-222.3978 673.0756,-228.411 683.6446,-229.15 681.7986,-222.3978"/>
</g>
<!-- Node68 -->
<g id="node8" class="node">
<title>Node68</title>
<g id="a_node8"><a xlink:href="classXCS.html#aedc01ad6f00a54b260a7605929a1d4c9" target="_top" xlink:title="XCS::single_update">
<polygon fill="none" stroke="#000000" points="436.5,-152.5 436.5,-171.5 540.5,-171.5 540.5,-152.5 436.5,-152.5"/>
<text text-anchor="middle" x="488.5" y="-159.5" font-family="Helvetica,sans-Serif" font-size="10.00" fill="#000000">XCS::single_update</text>
</a>
</g>
</g>
<!-- Node67&#45;&gt;Node68 -->
<g id="edge7" class="edge">
<title>Node67&#45;&gt;Node68</title>
<path fill="none" stroke="#191970" d="M399.2138,-173.4238C411.529,-171.8481 424.4202,-170.1988 436.4543,-168.659"/>
<polygon fill="#191970" stroke="#191970" points="398.5109,-169.9851 389.036,-174.726 399.3994,-176.9285 398.5109,-169.9851"/>
</g>
<!-- Node70 -->
<g id="node10" class="node">
<title>Node70</title>
<g id="a_node10"><a xlink:href="xcs__single__step_8c.html#a536ab4256e871e31959ea6e907455340" target="_top" xlink:title="Executes a single&#45;step trial using a built&#45;in environment. ">
<polygon fill="none" stroke="#000000" points="446.5,-190.5 446.5,-209.5 530.5,-209.5 530.5,-190.5 446.5,-190.5"/>
<text text-anchor="middle" x="488.5" y="-197.5" font-family="Helvetica,sans-Serif" font-size="10.00" fill="#000000">xcs_single_trial</text>
</a>
</g>
</g>
<!-- Node67&#45;&gt;Node70 -->
<g id="edge9" class="edge">
<title>Node67&#45;&gt;Node70</title>
<path fill="none" stroke="#191970" d="M399.2549,-188.5814C415.061,-190.6038 431.8132,-192.7471 446.4825,-194.624"/>
<polygon fill="#191970" stroke="#191970" points="399.3994,-185.0715 389.036,-187.274 398.5109,-192.0149 399.3994,-185.0715"/>
</g>
<!-- Node69 -->
<g id="node9" class="node">
<title>Node69</title>
<g id="a_node9"><a xlink:href="pybind__wrapper_8cpp.html#a9f26280e01308c4674f2473fb6f78730" target="_top" xlink:title="pybind11_init_xcsf">
<polygon fill="none" stroke="#000000" points="728,-57.5 728,-76.5 826,-76.5 826,-57.5 728,-57.5"/>
<text text-anchor="middle" x="777" y="-64.5" font-family="Helvetica,sans-Serif" font-size="10.00" fill="#000000">pybind11_init_xcsf</text>
</a>
</g>
</g>
<!-- Node68&#45;&gt;Node69 -->
<g id="edge8" class="edge">
<title>Node68&#45;&gt;Node69</title>
<path fill="none" stroke="#191970" d="M539.098,-150.036C580.6726,-139.6814 640.8366,-123.488 692,-105 715.1076,-96.65 740.7408,-84.8191 757.754,-76.5846"/>
<polygon fill="#191970" stroke="#191970" points="538.0791,-146.6824 529.2088,-152.4763 539.7561,-153.4785 538.0791,-146.6824"/>
</g>
<!-- Node71 -->
<g id="node11" class="node">
<title>Node71</title>
<g id="a_node11"><a xlink:href="xcs__single__step_8h.html#a39a031bf59eaa9b33e30e614610dcda8" target="_top" xlink:title="Executes a single&#45;step reinforcement learning experiment. ">
<polygon fill="none" stroke="#000000" points="584,-190.5 584,-209.5 692,-209.5 692,-190.5 584,-190.5"/>
<text text-anchor="middle" x="638" y="-197.5" font-family="Helvetica,sans-Serif" font-size="10.00" fill="#000000">xcs_single_step_exp</text>
</a>
</g>
</g>
<!-- Node70&#45;&gt;Node71 -->
<g id="edge10" class="edge">
<title>Node70&#45;&gt;Node71</title>
<path fill="none" stroke="#191970" d="M540.9413,-200C554.8783,-200 569.9543,-200 583.9742,-200"/>
<polygon fill="#191970" stroke="#191970" points="540.542,-196.5001 530.5419,-200 540.5419,-203.5001 540.542,-196.5001"/>
</g>
<!-- Node71&#45;&gt;Node66 -->
<g id="edge11" class="edge">
<title>Node71&#45;&gt;Node66</title>
<path fill="none" stroke="#191970" d="M702.3039,-200C722.5242,-200 743.3344,-200 757.8368,-200"/>
<polygon fill="#191970" stroke="#191970" points="702.1391,-196.5001 692.139,-200 702.139,-203.5001 702.1391,-196.5001"/>
</g>
<!-- Node73 -->
<g id="node13" class="node">
<title>Node73</title>
<g id="a_node13"><a xlink:href="xcs__supervised_8h.html#aa4daa45596a8cf402d58d029f780db3a" target="_top" xlink:title="Executes MAX_TRIALS number of XCSF learning iterations using the training data and test iterations us...">
<polygon fill="none" stroke="#000000" points="439.5,-76.5 439.5,-95.5 537.5,-95.5 537.5,-76.5 439.5,-76.5"/>
<text text-anchor="middle" x="488.5" y="-83.5" font-family="Helvetica,sans-Serif" font-size="10.00" fill="#000000">xcs_supervised_fit</text>
</a>
</g>
</g>
<!-- Node72&#45;&gt;Node73 -->
<g id="edge13" class="edge">
<title>Node72&#45;&gt;Node73</title>
<path fill="none" stroke="#191970" d="M403.1737,-75.0828C415.2011,-76.6217 427.6252,-78.2113 439.1451,-79.6852"/>
<polygon fill="#191970" stroke="#191970" points="403.5558,-71.6033 393.1925,-73.8058 402.6674,-78.5467 403.5558,-71.6033"/>
</g>
<!-- Node75 -->
<g id="node15" class="node">
<title>Node75</title>
<g id="a_node15"><a xlink:href="xcs__supervised_8h.html#a11b5fbece61ea9da003cda48fbf7d728" target="_top" xlink:title="Calculates the XCSF predictions for the provided input. ">
<polygon fill="none" stroke="#000000" points="429,-38.5 429,-57.5 548,-57.5 548,-38.5 429,-38.5"/>
<text text-anchor="middle" x="488.5" y="-45.5" font-family="Helvetica,sans-Serif" font-size="10.00" fill="#000000">xcs_supervised_predict</text>
</a>
</g>
</g>
<!-- Node72&#45;&gt;Node75 -->
<g id="edge17" class="edge">
<title>Node72&#45;&gt;Node75</title>
<path fill="none" stroke="#191970" d="M403.3802,-58.8908C411.8353,-57.809 420.4826,-56.7026 428.8707,-55.6293"/>
<polygon fill="#191970" stroke="#191970" points="402.6674,-55.4533 393.1925,-60.1942 403.5558,-62.3967 402.6674,-55.4533"/>
</g>
<!-- Node77 -->
<g id="node17" class="node">
<title>Node77</title>
<g id="a_node17"><a xlink:href="xcs__supervised_8h.html#a19dea220a72a3646e490ff13ea7ed5fa" target="_top" xlink:title="Calculates the XCSF error for the input data. ">
<polygon fill="none" stroke="#000000" points="431.5,-.5 431.5,-19.5 545.5,-19.5 545.5,-.5 431.5,-.5"/>
<text text-anchor="middle" x="488.5" y="-7.5" font-family="Helvetica,sans-Serif" font-size="10.00" fill="#000000">xcs_supervised_score</text>
</a>
</g>
</g>
<!-- Node72&#45;&gt;Node77 -->
<g id="edge20" class="edge">
<title>Node72&#45;&gt;Node77</title>
<path fill="none" stroke="#191970" d="M370.4431,-53.1575C387.502,-45.615 409.2565,-36.3485 429,-29 437.9431,-25.6714 447.7686,-22.3861 456.8131,-19.5076"/>
<polygon fill="#191970" stroke="#191970" points="368.7001,-50.1024 360.9924,-57.3717 371.5509,-56.4956 368.7001,-50.1024"/>
</g>
<!-- Node73&#45;&gt;Node66 -->
<g id="edge14" class="edge">
<title>Node73&#45;&gt;Node66</title>
<path fill="none" stroke="#191970" d="M522.1319,-99.2896C583.0072,-123.3443 709.6172,-173.3739 757.8105,-192.4173"/>
<polygon fill="#191970" stroke="#191970" points="523.1876,-95.9434 512.6011,-95.5235 520.6151,-102.4536 523.1876,-95.9434"/>
</g>
<!-- Node74 -->
<g id="node14" class="node">
<title>Node74</title>
<g id="a_node14"><a xlink:href="classXCS.html#ac9a4a7cb0ec6238ef1d4d77996f8975b" target="_top" xlink:title="XCS::fit">
<polygon fill="none" stroke="#000000" points="612,-76.5 612,-95.5 664,-95.5 664,-76.5 612,-76.5"/>
<text text-anchor="middle" x="638" y="-83.5" font-family="Helvetica,sans-Serif" font-size="10.00" fill="#000000">XCS::fit</text>
</a>
</g>
</g>
<!-- Node73&#45;&gt;Node74 -->
<g id="edge15" class="edge">
<title>Node73&#45;&gt;Node74</title>
<path fill="none" stroke="#191970" d="M547.8853,-86C570.0445,-86 594.0864,-86 611.7599,-86"/>
<polygon fill="#191970" stroke="#191970" points="547.8663,-82.5001 537.8662,-86 547.8662,-89.5001 547.8663,-82.5001"/>
</g>
<!-- Node74&#45;&gt;Node69 -->
<g id="edge16" class="edge">
<title>Node74&#45;&gt;Node69</title>
<path fill="none" stroke="#191970" d="M674.3776,-81.0275C690.7306,-78.7922 710.2768,-76.1204 727.9021,-73.7112"/>
<polygon fill="#191970" stroke="#191970" points="673.5787,-77.6041 664.1448,-82.4262 674.5267,-84.5396 673.5787,-77.6041"/>
</g>
<!-- Node76 -->
<g id="node16" class="node">
<title>Node76</title>
<g id="a_node16"><a xlink:href="classXCS.html#a8e8db281054f9e5937610eed434cd4a5" target="_top" xlink:title="XCS::predict">
<polygon fill="none" stroke="#000000" points="601.5,-38.5 601.5,-57.5 674.5,-57.5 674.5,-38.5 601.5,-38.5"/>
<text text-anchor="middle" x="638" y="-45.5" font-family="Helvetica,sans-Serif" font-size="10.00" fill="#000000">XCS::predict</text>
</a>
</g>
</g>
<!-- Node75&#45;&gt;Node76 -->
<g id="edge18" class="edge">
<title>Node75&#45;&gt;Node76</title>
<path fill="none" stroke="#191970" d="M558.2856,-48C573.2234,-48 588.4268,-48 601.4954,-48"/>
<polygon fill="#191970" stroke="#191970" points="558.016,-44.5001 548.0159,-48 558.0159,-51.5001 558.016,-44.5001"/>
</g>
<!-- Node76&#45;&gt;Node69 -->
<g id="edge19" class="edge">
<title>Node76&#45;&gt;Node69</title>
<path fill="none" stroke="#191970" d="M684.8196,-54.3998C698.6882,-56.2955 713.9099,-58.3762 727.9174,-60.2909"/>
<polygon fill="#191970" stroke="#191970" points="684.9025,-50.8787 674.5206,-52.992 683.9544,-57.8142 684.9025,-50.8787"/>
</g>
<!-- Node78 -->
<g id="node18" class="node">
<title>Node78</title>
<g id="a_node18"><a xlink:href="classXCS.html#ad32ffc841106ec036029e4c90a33b761" target="_top" xlink:title="XCS::score">
<polygon fill="none" stroke="#000000" points="604,-.5 604,-19.5 672,-19.5 672,-.5 604,-.5"/>
<text text-anchor="middle" x="638" y="-7.5" font-family="Helvetica,sans-Serif" font-size="10.00" fill="#000000">XCS::score</text>
</a>
</g>
</g>
<!-- Node77&#45;&gt;Node78 -->
<g id="edge21" class="edge">
<title>Node77&#45;&gt;Node78</title>
<path fill="none" stroke="#191970" d="M556.0982,-10C572.6658,-10 589.7064,-10 603.9242,-10"/>
<polygon fill="#191970" stroke="#191970" points="555.8731,-6.5001 545.873,-10 555.873,-13.5001 555.8731,-6.5001"/>
</g>
<!-- Node78&#45;&gt;Node69 -->
<g id="edge22" class="edge">
<title>Node78&#45;&gt;Node69</title>
<path fill="none" stroke="#191970" d="M676.0214,-22.936C681.4118,-24.8981 686.8648,-26.9527 692,-29 714.5228,-37.9793 739.8341,-49.4822 756.9336,-57.4686"/>
<polygon fill="#191970" stroke="#191970" points="677.0633,-19.5916 666.4686,-19.5256 674.7097,-26.1841 677.0633,-19.5916"/>
</g>
</g>
</svg>
