<?xml version="1.0" encoding="UTF-8" standalone="no"?>
<!DOCTYPE svg PUBLIC "-//W3C//DTD SVG 1.1//EN"
 "http://www.w3.org/Graphics/SVG/1.1/DTD/svg11.dtd">
<!-- Generated by graphviz version 2.40.1 (20161225.0304)
 -->
<!-- Title: act_mutate Pages: 1 -->
<svg width="805pt" height="142pt"
 viewBox="0.00 0.00 805.00 142.00" xmlns="http://www.w3.org/2000/svg" xmlns:xlink="http://www.w3.org/1999/xlink">
<g id="graph0" class="graph" transform="scale(1 1) rotate(0) translate(4 138)">
<title>act_mutate</title>
<!-- Node180 -->
<g id="node1" class="node">
<title>Node180</title>
<polygon fill="#bfbfbf" stroke="#000000" points="0,-76.5 0,-95.5 65,-95.5 65,-76.5 0,-76.5"/>
<text text-anchor="middle" x="32.5" y="-83.5" font-family="Helvetica,sans-Serif" font-size="10.00" fill="#000000">act_mutate</text>
</g>
<!-- Node181 -->
<g id="node2" class="node">
<title>Node181</title>
<g id="a_node2"><a xlink:href="cl_8h.html#a328e84fc0d102b6cf349ec57484ea4fb" target="_top" xlink:title="Performs classifier mutation. ">
<polygon fill="none" stroke="#000000" points="101,-76.5 101,-95.5 160,-95.5 160,-76.5 101,-76.5"/>
<text text-anchor="middle" x="130.5" y="-83.5" font-family="Helvetica,sans-Serif" font-size="10.00" fill="#000000">cl_mutate</text>
</a>
</g>
</g>
<!-- Node180&#45;&gt;Node181 -->
<g id="edge1" class="edge">
<title>Node180&#45;&gt;Node181</title>
<path fill="none" stroke="#191970" d="M75.1641,-86C83.8731,-86 92.8538,-86 100.9805,-86"/>
<polygon fill="#191970" stroke="#191970" points="75.1326,-82.5001 65.1326,-86 75.1325,-89.5001 75.1326,-82.5001"/>
</g>
<!-- Node182 -->
<g id="node3" class="node">
<title>Node182</title>
<g id="a_node3"><a xlink:href="ea_8h.html#ae3824341a2f5482cb6ac70b3839ded51" target="_top" xlink:title="Executes the evolutionary algorithm (EA). ">
<polygon fill="none" stroke="#000000" points="196,-76.5 196,-95.5 225,-95.5 225,-76.5 196,-76.5"/>
<text text-anchor="middle" x="210.5" y="-83.5" font-family="Helvetica,sans-Serif" font-size="10.00" fill="#000000">ea</text>
</a>
</g>
</g>
<!-- Node181&#45;&gt;Node182 -->
<g id="edge2" class="edge">
<title>Node181&#45;&gt;Node182</title>
<path fill="none" stroke="#191970" d="M170.4014,-86C179.4479,-86 188.5011,-86 195.7102,-86"/>
<polygon fill="#191970" stroke="#191970" points="170.2891,-82.5001 160.289,-86 170.289,-89.5001 170.2891,-82.5001"/>
</g>
<!-- Node183 -->
<g id="node4" class="node">
<title>Node183</title>
<g id="a_node4"><a xlink:href="xcs__multi__step_8c.html#a9f6d53384f68b9354b5757dd2c7771fd" target="_top" xlink:title="Executes a multi&#45;step explore trial. ">
<polygon fill="none" stroke="#000000" points="263.5,-114.5 263.5,-133.5 358.5,-133.5 358.5,-114.5 263.5,-114.5"/>
<text text-anchor="middle" x="311" y="-121.5" font-family="Helvetica,sans-Serif" font-size="10.00" fill="#000000">xcs_multi_explore</text>
</a>
</g>
</g>
<!-- Node182&#45;&gt;Node183 -->
<g id="edge3" class="edge">
<title>Node182&#45;&gt;Node183</title>
<path fill="none" stroke="#191970" d="M234.6974,-95.1493C250.08,-100.9656 269.9652,-108.4843 285.5787,-114.388"/>
<polygon fill="#191970" stroke="#191970" points="235.9207,-91.87 225.3291,-91.607 233.4449,-98.4176 235.9207,-91.87"/>
</g>
<!-- Node187 -->
<g id="node8" class="node">
<title>Node187</title>
<g id="a_node8"><a xlink:href="xcs__single__step_8c.html#aef07baf4de9b02d9c6fd33a1c485e7ea" target="_top" xlink:title="Executes a single&#45;step explore trial. ">
<polygon fill="none" stroke="#000000" points="261,-76.5 261,-95.5 361,-95.5 361,-76.5 261,-76.5"/>
<text text-anchor="middle" x="311" y="-83.5" font-family="Helvetica,sans-Serif" font-size="10.00" fill="#000000">xcs_single_explore</text>
</a>
</g>
</g>
<!-- Node182&#45;&gt;Node187 -->
<g id="edge7" class="edge">
<title>Node182&#45;&gt;Node187</title>
<path fill="none" stroke="#191970" d="M235.4037,-86C243.1182,-86 251.9126,-86 260.7086,-86"/>
<polygon fill="#191970" stroke="#191970" points="235.3292,-82.5001 225.3291,-86 235.3291,-89.5001 235.3292,-82.5001"/>
</g>
<!-- Node189 -->
<g id="node10" class="node">
<title>Node189</title>
<g id="a_node10"><a xlink:href="xcsf_8c.html#a6dfb03d255a2684e9e06e88f9a4e3a3d" target="_top" xlink:title="Executes a single XCSF learning trial. ">
<polygon fill="none" stroke="#000000" points="269.5,-38.5 269.5,-57.5 352.5,-57.5 352.5,-38.5 269.5,-38.5"/>
<text text-anchor="middle" x="311" y="-45.5" font-family="Helvetica,sans-Serif" font-size="10.00" fill="#000000">xcsf_learn_trial</text>
</a>
</g>
</g>
<!-- Node182&#45;&gt;Node189 -->
<g id="edge10" class="edge">
<title>Node182&#45;&gt;Node189</title>
<path fill="none" stroke="#191970" d="M234.6974,-76.8507C250.08,-71.0344 269.9652,-63.5157 285.5787,-57.612"/>
<polygon fill="#191970" stroke="#191970" points="233.4449,-73.5824 225.3291,-80.393 235.9207,-80.13 233.4449,-73.5824"/>
</g>
<!-- Node184 -->
<g id="node5" class="node">
<title>Node184</title>
<g id="a_node5"><a xlink:href="xcs__multi__step_8h.html#acc29d4a55dbd56c16ea5f19f15a7c677" target="_top" xlink:title="Executes a multi&#45;step reinforcement learning experiment. ">
<polygon fill="none" stroke="#000000" points="399,-114.5 399,-133.5 503,-133.5 503,-114.5 399,-114.5"/>
<text text-anchor="middle" x="451" y="-121.5" font-family="Helvetica,sans-Serif" font-size="10.00" fill="#000000">xcs_multi_step_exp</text>
</a>
</g>
</g>
<!-- Node183&#45;&gt;Node184 -->
<g id="edge4" class="edge">
<title>Node183&#45;&gt;Node184</title>
<path fill="none" stroke="#191970" d="M368.9011,-124C378.7523,-124 388.9332,-124 398.6312,-124"/>
<polygon fill="#191970" stroke="#191970" points="368.7885,-120.5001 358.7885,-124 368.7885,-127.5001 368.7885,-120.5001"/>
</g>
<!-- Node185 -->
<g id="node6" class="node">
<title>Node185</title>
<g id="a_node6"><a xlink:href="main_8c.html#ab572a67aa431827116ebd6931d667d21" target="_top" xlink:title="classification">
<polygon fill="none" stroke="#000000" points="541,-114.5 541,-133.5 615,-133.5 615,-114.5 541,-114.5"/>
<text text-anchor="middle" x="578" y="-121.5" font-family="Helvetica,sans-Serif" font-size="10.00" fill="#000000">classification</text>
</a>
</g>
</g>
<!-- Node184&#45;&gt;Node185 -->
<g id="edge5" class="edge">
<title>Node184&#45;&gt;Node185</title>
<path fill="none" stroke="#191970" d="M513.1594,-124C522.5516,-124 531.9829,-124 540.6309,-124"/>
<polygon fill="#191970" stroke="#191970" points="513.0222,-120.5001 503.0222,-124 513.0222,-127.5001 513.0222,-120.5001"/>
</g>
<!-- Node186 -->
<g id="node7" class="node">
<title>Node186</title>
<g id="a_node7"><a xlink:href="main_8c.html#a3c04138a5bfe5d72780bb7e82a18e627" target="_top" xlink:title="main">
<polygon fill="none" stroke="#000000" points="705,-95.5 705,-114.5 743,-114.5 743,-95.5 705,-95.5"/>
<text text-anchor="middle" x="724" y="-102.5" font-family="Helvetica,sans-Serif" font-size="10.00" fill="#000000">main</text>
</a>
</g>
</g>
<!-- Node185&#45;&gt;Node186 -->
<g id="edge6" class="edge">
<title>Node185&#45;&gt;Node186</title>
<path fill="none" stroke="#191970" d="M625.2611,-117.8496C652.2443,-114.3381 684.6082,-110.1263 704.7429,-107.5061"/>
<polygon fill="#191970" stroke="#191970" points="624.6844,-114.395 615.2197,-119.1563 625.5878,-121.3365 624.6844,-114.395"/>
</g>
<!-- Node188 -->
<g id="node9" class="node">
<title>Node188</title>
<g id="a_node9"><a xlink:href="xcs__single__step_8h.html#a39a031bf59eaa9b33e30e614610dcda8" target="_top" xlink:title="Executes a single&#45;step experiment. ">
<polygon fill="none" stroke="#000000" points="397,-76.5 397,-95.5 505,-95.5 505,-76.5 397,-76.5"/>
<text text-anchor="middle" x="451" y="-83.5" font-family="Helvetica,sans-Serif" font-size="10.00" fill="#000000">xcs_single_step_exp</text>
</a>
</g>
</g>
<!-- Node187&#45;&gt;Node188 -->
<g id="edge8" class="edge">
<title>Node187&#45;&gt;Node188</title>
<path fill="none" stroke="#191970" d="M371.3823,-86C379.8794,-86 388.5692,-86 396.9381,-86"/>
<polygon fill="#191970" stroke="#191970" points="371.1478,-82.5001 361.1478,-86 371.1477,-89.5001 371.1478,-82.5001"/>
</g>
<!-- Node188&#45;&gt;Node185 -->
<g id="edge9" class="edge">
<title>Node188&#45;&gt;Node185</title>
<path fill="none" stroke="#191970" d="M492.8943,-98.5353C510.1712,-103.7048 529.8707,-109.5991 545.9628,-114.4141"/>
<polygon fill="#191970" stroke="#191970" points="493.6311,-95.1025 483.0475,-95.589 491.6245,-101.8088 493.6311,-95.1025"/>
</g>
<!-- Node190 -->
<g id="node11" class="node">
<title>Node190</title>
<g id="a_node11"><a xlink:href="xcsf_8h.html#a874829f28fee20f9ad15b540f4b4d6ff" target="_top" xlink:title="Executes MAX_TRIALS number of XCSF learning iterations using the training data. ">
<polygon fill="none" stroke="#000000" points="424,-.5 424,-19.5 478,-19.5 478,-.5 424,-.5"/>
<text text-anchor="middle" x="451" y="-7.5" font-family="Helvetica,sans-Serif" font-size="10.00" fill="#000000">xcsf_fit1</text>
</a>
</g>
</g>
<!-- Node189&#45;&gt;Node190 -->
<g id="edge11" class="edge">
<title>Node189&#45;&gt;Node190</title>
<path fill="none" stroke="#191970" d="M356.2271,-35.7241C378.4412,-29.6945 404.4767,-22.6277 423.6326,-17.4283"/>
<polygon fill="#191970" stroke="#191970" points="355.0619,-32.4136 346.3279,-38.411 356.8956,-39.1692 355.0619,-32.4136"/>
</g>
<!-- Node193 -->
<g id="node14" class="node">
<title>Node193</title>
<g id="a_node14"><a xlink:href="xcsf_8h.html#a0b4de57cb9dadc9deca7901aa36e5025" target="_top" xlink:title="Executes MAX_TRIALS number of XCSF learning iterations using the training. data and test iterations u...">
<polygon fill="none" stroke="#000000" points="424,-38.5 424,-57.5 478,-57.5 478,-38.5 424,-38.5"/>
<text text-anchor="middle" x="451" y="-45.5" font-family="Helvetica,sans-Serif" font-size="10.00" fill="#000000">xcsf_fit2</text>
</a>
</g>
</g>
<!-- Node189&#45;&gt;Node193 -->
<g id="edge14" class="edge">
<title>Node189&#45;&gt;Node193</title>
<path fill="none" stroke="#191970" d="M362.8921,-48C383.6074,-48 406.5945,-48 423.8938,-48"/>
<polygon fill="#191970" stroke="#191970" points="362.6256,-44.5001 352.6256,-48 362.6255,-51.5001 362.6256,-44.5001"/>
</g>
<!-- Node191 -->
<g id="node12" class="node">
<title>Node191</title>
<g id="a_node12"><a xlink:href="structXCS.html#ad2ccafe59d2b4ae6d0e1cbc15edee53c" target="_top" xlink:title="XCS::fit">
<polygon fill="none" stroke="#000000" points="552,-.5 552,-19.5 604,-19.5 604,-.5 552,-.5"/>
<text text-anchor="middle" x="578" y="-7.5" font-family="Helvetica,sans-Serif" font-size="10.00" fill="#000000">XCS::fit</text>
</a>
</g>
</g>
<!-- Node190&#45;&gt;Node191 -->
<g id="edge12" class="edge">
<title>Node190&#45;&gt;Node191</title>
<path fill="none" stroke="#191970" d="M488.4227,-10C508.7458,-10 533.3818,-10 551.6699,-10"/>
<polygon fill="#191970" stroke="#191970" points="488.2447,-6.5001 478.2447,-10 488.2447,-13.5001 488.2447,-6.5001"/>
</g>
<!-- Node192 -->
<g id="node13" class="node">
<title>Node192</title>
<g id="a_node13"><a xlink:href="python__wrapper_8cpp.html#afbdcc1358036a0b83a6b239da2b098a2" target="_top" xlink:title="BOOST_PYTHON_MODULE">
<polygon fill="none" stroke="#000000" points="651,-.5 651,-19.5 797,-19.5 797,-.5 651,-.5"/>
<text text-anchor="middle" x="724" y="-7.5" font-family="Helvetica,sans-Serif" font-size="10.00" fill="#000000">BOOST_PYTHON_MODULE</text>
</a>
</g>
</g>
<!-- Node191&#45;&gt;Node192 -->
<g id="edge13" class="edge">
<title>Node191&#45;&gt;Node192</title>
<path fill="none" stroke="#191970" d="M614.2709,-10C625.4242,-10 638.1243,-10 650.8312,-10"/>
<polygon fill="#191970" stroke="#191970" points="614.1019,-6.5001 604.1019,-10 614.1018,-13.5001 614.1019,-6.5001"/>
</g>
<!-- Node194 -->
<g id="node15" class="node">
<title>Node194</title>
<g id="a_node15"><a xlink:href="main_8c.html#a968c78da8ed8ad08662a86280deec99a" target="_top" xlink:title="regression">
<polygon fill="none" stroke="#000000" points="547,-76.5 547,-95.5 609,-95.5 609,-76.5 547,-76.5"/>
<text text-anchor="middle" x="578" y="-83.5" font-family="Helvetica,sans-Serif" font-size="10.00" fill="#000000">regression</text>
</a>
</g>
</g>
<!-- Node193&#45;&gt;Node194 -->
<g id="edge15" class="edge">
<title>Node193&#45;&gt;Node194</title>
<path fill="none" stroke="#191970" d="M487.8981,-59.0404C506.5652,-64.6258 528.9762,-71.3315 546.7773,-76.6578"/>
<polygon fill="#191970" stroke="#191970" points="488.8283,-55.6655 478.2447,-56.152 486.8217,-62.3717 488.8283,-55.6655"/>
</g>
<!-- Node195 -->
<g id="node16" class="node">
<title>Node195</title>
<g id="a_node16"><a xlink:href="structXCS.html#a7d53320740db8e846251bacd0238a9fb" target="_top" xlink:title="XCS::fit">
<polygon fill="none" stroke="#000000" points="552,-38.5 552,-57.5 604,-57.5 604,-38.5 552,-38.5"/>
<text text-anchor="middle" x="578" y="-45.5" font-family="Helvetica,sans-Serif" font-size="10.00" fill="#000000">XCS::fit</text>
</a>
</g>
</g>
<!-- Node193&#45;&gt;Node195 -->
<g id="edge17" class="edge">
<title>Node193&#45;&gt;Node195</title>
<path fill="none" stroke="#191970" d="M488.4227,-48C508.7458,-48 533.3818,-48 551.6699,-48"/>
<polygon fill="#191970" stroke="#191970" points="488.2447,-44.5001 478.2447,-48 488.2447,-51.5001 488.2447,-44.5001"/>
</g>
<!-- Node194&#45;&gt;Node186 -->
<g id="edge16" class="edge">
<title>Node194&#45;&gt;Node186</title>
<path fill="none" stroke="#191970" d="M619.2659,-91.3702C647.3244,-95.0217 683.1493,-99.6838 704.7946,-102.5007"/>
<polygon fill="#191970" stroke="#191970" points="619.6887,-87.8958 609.3207,-90.076 618.7853,-94.8373 619.6887,-87.8958"/>
</g>
</g>
</svg>
