<?xml version="1.0" encoding="UTF-8" standalone="no"?>
<!DOCTYPE svg PUBLIC "-//W3C//DTD SVG 1.1//EN"
 "http://www.w3.org/Graphics/SVG/1.1/DTD/svg11.dtd">
<!-- Generated by graphviz version 2.40.1 (20161225.0304)
 -->
<!-- Title: act_update Pages: 1 -->
<svg width="996pt" height="199pt"
 viewBox="0.00 0.00 996.00 199.00" xmlns="http://www.w3.org/2000/svg" xmlns:xlink="http://www.w3.org/1999/xlink">
<g id="graph0" class="graph" transform="scale(1 1) rotate(0) translate(4 195)">
<title>act_update</title>
<!-- Node206 -->
<g id="node1" class="node">
<title>Node206</title>
<polygon fill="#bfbfbf" stroke="#000000" points="0,-57.5 0,-76.5 65,-76.5 65,-57.5 0,-57.5"/>
<text text-anchor="middle" x="32.5" y="-64.5" font-family="Helvetica,sans-Serif" font-size="10.00" fill="#000000">act_update</text>
</g>
<!-- Node207 -->
<g id="node2" class="node">
<title>Node207</title>
<g id="a_node2"><a xlink:href="cl_8h.html#ad3ef5eea9801c3b8c38ad8e5e2141dc0" target="_top" xlink:title="Updates the classifier&#39;s parameters as well as condition, action, and prediction depending on the kno...">
<polygon fill="none" stroke="#000000" points="101,-57.5 101,-76.5 160,-76.5 160,-57.5 101,-57.5"/>
<text text-anchor="middle" x="130.5" y="-64.5" font-family="Helvetica,sans-Serif" font-size="10.00" fill="#000000">cl_update</text>
</a>
</g>
</g>
<!-- Node206&#45;&gt;Node207 -->
<g id="edge1" class="edge">
<title>Node206&#45;&gt;Node207</title>
<path fill="none" stroke="#191970" d="M75.1641,-67C83.8731,-67 92.8538,-67 100.9805,-67"/>
<polygon fill="#191970" stroke="#191970" points="75.1326,-63.5001 65.1326,-67 75.1325,-70.5001 75.1326,-63.5001"/>
</g>
<!-- Node208 -->
<g id="node3" class="node">
<title>Node208</title>
<g id="a_node3"><a xlink:href="clset_8h.html#a75a41281822e032413356a4b7b353559" target="_top" xlink:title="Provides reinforcement to the set and performs set subsumption. ">
<polygon fill="none" stroke="#000000" points="196,-57.5 196,-76.5 268,-76.5 268,-57.5 196,-57.5"/>
<text text-anchor="middle" x="232" y="-64.5" font-family="Helvetica,sans-Serif" font-size="10.00" fill="#000000">clset_update</text>
</a>
</g>
</g>
<!-- Node207&#45;&gt;Node208 -->
<g id="edge2" class="edge">
<title>Node207&#45;&gt;Node208</title>
<path fill="none" stroke="#191970" d="M170.3956,-67C178.7292,-67 187.4725,-67 195.6686,-67"/>
<polygon fill="#191970" stroke="#191970" points="170.1309,-63.5001 160.1309,-67 170.1308,-70.5001 170.1309,-63.5001"/>
</g>
<!-- Node209 -->
<g id="node4" class="node">
<title>Node209</title>
<g id="a_node4"><a xlink:href="xcs__multi__step_8c.html#a1e1c2a3094be715b468dda79cd59ebf3" target="_top" xlink:title="Executes a multi&#45;step trial using a built&#45;in environment. ">
<polygon fill="none" stroke="#000000" points="313,-57.5 313,-76.5 393,-76.5 393,-57.5 313,-57.5"/>
<text text-anchor="middle" x="353" y="-64.5" font-family="Helvetica,sans-Serif" font-size="10.00" fill="#000000">xcs_multi_trial</text>
</a>
</g>
</g>
<!-- Node208&#45;&gt;Node209 -->
<g id="edge3" class="edge">
<title>Node208&#45;&gt;Node209</title>
<path fill="none" stroke="#191970" d="M278.4857,-67C289.8396,-67 301.8903,-67 312.9162,-67"/>
<polygon fill="#191970" stroke="#191970" points="278.304,-63.5001 268.304,-67 278.304,-70.5001 278.304,-63.5001"/>
</g>
<!-- Node212 -->
<g id="node7" class="node">
<title>Node212</title>
<g id="a_node7"><a xlink:href="xcs__single__step_8h.html#afd31e5406eeef1fb9b244f635a0f0408" target="_top" xlink:title="Creates the action set, updates the classifiers and runs the EA. ">
<polygon fill="none" stroke="#000000" points="304,-19.5 304,-38.5 402,-38.5 402,-19.5 304,-19.5"/>
<text text-anchor="middle" x="353" y="-26.5" font-family="Helvetica,sans-Serif" font-size="10.00" fill="#000000">xcs_single_update</text>
</a>
</g>
</g>
<!-- Node208&#45;&gt;Node212 -->
<g id="edge6" class="edge">
<title>Node208&#45;&gt;Node212</title>
<path fill="none" stroke="#191970" d="M272.3771,-54.3196C288.7262,-49.1852 307.2878,-43.3559 322.4764,-38.5859"/>
<polygon fill="#191970" stroke="#191970" points="271.0253,-51.0755 262.5334,-57.411 273.1227,-57.7539 271.0253,-51.0755"/>
</g>
<!-- Node217 -->
<g id="node12" class="node">
<title>Node217</title>
<g id="a_node12"><a xlink:href="xcsf_8c.html#a2a65c7cb7cfe8e680b609ce8c4e36d56" target="_top" xlink:title="Executes a single XCSF learning trial. ">
<polygon fill="none" stroke="#000000" points="311.5,-114.5 311.5,-133.5 394.5,-133.5 394.5,-114.5 311.5,-114.5"/>
<text text-anchor="middle" x="353" y="-121.5" font-family="Helvetica,sans-Serif" font-size="10.00" fill="#000000">xcsf_learn_trial</text>
</a>
</g>
</g>
<!-- Node208&#45;&gt;Node217 -->
<g id="edge12" class="edge">
<title>Node208&#45;&gt;Node217</title>
<path fill="none" stroke="#191970" d="M261.5008,-80.8971C283.5782,-91.2972 313.2016,-105.252 332.6812,-114.4284"/>
<polygon fill="#191970" stroke="#191970" points="262.7908,-77.6359 252.2527,-76.5405 259.8076,-83.9684 262.7908,-77.6359"/>
</g>
<!-- Node210 -->
<g id="node5" class="node">
<title>Node210</title>
<g id="a_node5"><a xlink:href="xcs__multi__step_8h.html#acc29d4a55dbd56c16ea5f19f15a7c677" target="_top" xlink:title="Executes a multi&#45;step reinforcement learning experiment. ">
<polygon fill="none" stroke="#000000" points="560,-57.5 560,-76.5 664,-76.5 664,-57.5 560,-57.5"/>
<text text-anchor="middle" x="612" y="-64.5" font-family="Helvetica,sans-Serif" font-size="10.00" fill="#000000">xcs_multi_step_exp</text>
</a>
</g>
</g>
<!-- Node209&#45;&gt;Node210 -->
<g id="edge4" class="edge">
<title>Node209&#45;&gt;Node210</title>
<path fill="none" stroke="#191970" d="M403.3033,-67C448.2998,-67 514.0047,-67 559.6234,-67"/>
<polygon fill="#191970" stroke="#191970" points="403.1846,-63.5001 393.1846,-67 403.1845,-70.5001 403.1846,-63.5001"/>
</g>
<!-- Node211 -->
<g id="node6" class="node">
<title>Node211</title>
<g id="a_node6"><a xlink:href="main_8c.html#a3c04138a5bfe5d72780bb7e82a18e627" target="_top" xlink:title="main">
<polygon fill="none" stroke="#000000" points="735,-57.5 735,-76.5 773,-76.5 773,-57.5 735,-57.5"/>
<text text-anchor="middle" x="754" y="-64.5" font-family="Helvetica,sans-Serif" font-size="10.00" fill="#000000">main</text>
</a>
</g>
</g>
<!-- Node210&#45;&gt;Node211 -->
<g id="edge5" class="edge">
<title>Node210&#45;&gt;Node211</title>
<path fill="none" stroke="#191970" d="M674.3496,-67C696.2345,-67 719.2324,-67 734.8585,-67"/>
<polygon fill="#191970" stroke="#191970" points="674.0693,-63.5001 664.0692,-67 674.0692,-70.5001 674.0693,-63.5001"/>
</g>
<!-- Node213 -->
<g id="node8" class="node">
<title>Node213</title>
<g id="a_node8"><a xlink:href="structXCS.html#aedc01ad6f00a54b260a7605929a1d4c9" target="_top" xlink:title="XCS::single_update">
<polygon fill="none" stroke="#000000" points="702,-.5 702,-19.5 806,-19.5 806,-.5 702,-.5"/>
<text text-anchor="middle" x="754" y="-7.5" font-family="Helvetica,sans-Serif" font-size="10.00" fill="#000000">XCS::single_update</text>
</a>
</g>
</g>
<!-- Node212&#45;&gt;Node213 -->
<g id="edge7" class="edge">
<title>Node212&#45;&gt;Node213</title>
<path fill="none" stroke="#191970" d="M397.5202,-17.1157C410.4758,-14.1847 424.7174,-11.4664 438,-10 530.428,.2043 638.992,-3.1041 701.805,-6.5049"/>
<polygon fill="#191970" stroke="#191970" points="396.3777,-13.7891 387.4487,-19.4921 397.9852,-20.602 396.3777,-13.7891"/>
</g>
<!-- Node215 -->
<g id="node10" class="node">
<title>Node215</title>
<g id="a_node10"><a xlink:href="xcs__single__step_8c.html#a3d1fd2472d35310800aed897219a65af" target="_top" xlink:title="Executes a single&#45;step trial using a built&#45;in environment. ">
<polygon fill="none" stroke="#000000" points="438,-19.5 438,-38.5 522,-38.5 522,-19.5 438,-19.5"/>
<text text-anchor="middle" x="480" y="-26.5" font-family="Helvetica,sans-Serif" font-size="10.00" fill="#000000">xcs_single_trial</text>
</a>
</g>
</g>
<!-- Node212&#45;&gt;Node215 -->
<g id="edge9" class="edge">
<title>Node212&#45;&gt;Node215</title>
<path fill="none" stroke="#191970" d="M412.1216,-29C420.732,-29 429.4503,-29 437.6391,-29"/>
<polygon fill="#191970" stroke="#191970" points="412.1016,-25.5001 402.1015,-29 412.1015,-32.5001 412.1016,-25.5001"/>
</g>
<!-- Node214 -->
<g id="node9" class="node">
<title>Node214</title>
<g id="a_node9"><a xlink:href="python__wrapper_8cpp.html#afbdcc1358036a0b83a6b239da2b098a2" target="_top" xlink:title="BOOST_PYTHON_MODULE">
<polygon fill="none" stroke="#000000" points="842,-38.5 842,-57.5 988,-57.5 988,-38.5 842,-38.5"/>
<text text-anchor="middle" x="915" y="-45.5" font-family="Helvetica,sans-Serif" font-size="10.00" fill="#000000">BOOST_PYTHON_MODULE</text>
</a>
</g>
</g>
<!-- Node213&#45;&gt;Node214 -->
<g id="edge8" class="edge">
<title>Node213&#45;&gt;Node214</title>
<path fill="none" stroke="#191970" d="M804.4018,-21.8961C827.032,-27.2374 853.3695,-33.4537 874.665,-38.4799"/>
<polygon fill="#191970" stroke="#191970" points="805.1637,-18.4798 794.6271,-19.589 803.5557,-25.2926 805.1637,-18.4798"/>
</g>
<!-- Node216 -->
<g id="node11" class="node">
<title>Node216</title>
<g id="a_node11"><a xlink:href="xcs__single__step_8h.html#a39a031bf59eaa9b33e30e614610dcda8" target="_top" xlink:title="Executes a single&#45;step experiment. ">
<polygon fill="none" stroke="#000000" points="558,-19.5 558,-38.5 666,-38.5 666,-19.5 558,-19.5"/>
<text text-anchor="middle" x="612" y="-26.5" font-family="Helvetica,sans-Serif" font-size="10.00" fill="#000000">xcs_single_step_exp</text>
</a>
</g>
</g>
<!-- Node215&#45;&gt;Node216 -->
<g id="edge10" class="edge">
<title>Node215&#45;&gt;Node216</title>
<path fill="none" stroke="#191970" d="M532.1756,-29C540.5711,-29 549.2792,-29 557.7227,-29"/>
<polygon fill="#191970" stroke="#191970" points="532.1286,-25.5001 522.1285,-29 532.1285,-32.5001 532.1286,-25.5001"/>
</g>
<!-- Node216&#45;&gt;Node211 -->
<g id="edge11" class="edge">
<title>Node216&#45;&gt;Node211</title>
<path fill="none" stroke="#191970" d="M657.5443,-41.1879C683.6525,-48.1746 715.0537,-56.5778 734.7754,-61.8554"/>
<polygon fill="#191970" stroke="#191970" points="658.3975,-37.7931 647.8326,-38.589 656.5879,-44.5552 658.3975,-37.7931"/>
</g>
<!-- Node218 -->
<g id="node13" class="node">
<title>Node218</title>
<g id="a_node13"><a xlink:href="xcsf_8h.html#a40f4dfe69c6480f25c55d21c44746eb8" target="_top" xlink:title="Executes MAX_TRIALS number of XCSF learning iterations using the training. data and test iterations u...">
<polygon fill="none" stroke="#000000" points="453,-123.5 453,-142.5 507,-142.5 507,-123.5 453,-123.5"/>
<text text-anchor="middle" x="480" y="-130.5" font-family="Helvetica,sans-Serif" font-size="10.00" fill="#000000">xcsf_fit2</text>
</a>
</g>
</g>
<!-- Node217&#45;&gt;Node218 -->
<g id="edge13" class="edge">
<title>Node217&#45;&gt;Node218</title>
<path fill="none" stroke="#191970" d="M404.6576,-127.6608C421.131,-128.8282 438.7068,-130.0737 452.7358,-131.0679"/>
<polygon fill="#191970" stroke="#191970" points="404.807,-124.1627 394.5845,-126.9469 404.3121,-131.1452 404.807,-124.1627"/>
</g>
<!-- Node218&#45;&gt;Node211 -->
<g id="edge14" class="edge">
<title>Node218&#45;&gt;Node211</title>
<path fill="none" stroke="#191970" d="M517.4528,-136.7996C555.7558,-139.4028 616.494,-139.9435 666,-124 697.0141,-114.0119 727.6807,-90.1238 743.3228,-76.6573"/>
<polygon fill="#191970" stroke="#191970" points="517.5097,-133.2939 507.2723,-136.0227 516.977,-140.2736 517.5097,-133.2939"/>
</g>
<!-- Node219 -->
<g id="node14" class="node">
<title>Node219</title>
<g id="a_node14"><a xlink:href="structXCS.html#a7d53320740db8e846251bacd0238a9fb" target="_top" xlink:title="XCS::fit">
<polygon fill="none" stroke="#000000" points="586,-95.5 586,-114.5 638,-114.5 638,-95.5 586,-95.5"/>
<text text-anchor="middle" x="612" y="-102.5" font-family="Helvetica,sans-Serif" font-size="10.00" fill="#000000">XCS::fit</text>
</a>
</g>
</g>
<!-- Node218&#45;&gt;Node219 -->
<g id="edge15" class="edge">
<title>Node218&#45;&gt;Node219</title>
<path fill="none" stroke="#191970" d="M517.0015,-125.1512C538.9406,-120.4974 566.2158,-114.7118 585.905,-110.5353"/>
<polygon fill="#191970" stroke="#191970" points="516.0867,-121.7673 507.0307,-127.2662 517.5393,-128.6149 516.0867,-121.7673"/>
</g>
<!-- Node220 -->
<g id="node15" class="node">
<title>Node220</title>
<g id="a_node15"><a xlink:href="xcsf_8h.html#afd4a983899f1980887b8375e40b32a72" target="_top" xlink:title="Executes MAX_TRIALS number of XCSF learning iterations using the training data. ">
<polygon fill="none" stroke="#000000" points="585,-171.5 585,-190.5 639,-190.5 639,-171.5 585,-171.5"/>
<text text-anchor="middle" x="612" y="-178.5" font-family="Helvetica,sans-Serif" font-size="10.00" fill="#000000">xcsf_fit1</text>
</a>
</g>
</g>
<!-- Node218&#45;&gt;Node220 -->
<g id="edge16" class="edge">
<title>Node218&#45;&gt;Node220</title>
<path fill="none" stroke="#191970" d="M516.0599,-146.1127C538.0624,-154.1136 565.6979,-164.1629 585.6508,-171.4185"/>
<polygon fill="#191970" stroke="#191970" points="516.989,-142.7264 506.3949,-142.5982 514.5967,-149.3049 516.989,-142.7264"/>
</g>
<!-- Node221 -->
<g id="node16" class="node">
<title>Node221</title>
<g id="a_node16"><a xlink:href="structXCS.html#ad2ccafe59d2b4ae6d0e1cbc15edee53c" target="_top" xlink:title="XCS::fit">
<polygon fill="none" stroke="#000000" points="728,-133.5 728,-152.5 780,-152.5 780,-133.5 728,-133.5"/>
<text text-anchor="middle" x="754" y="-140.5" font-family="Helvetica,sans-Serif" font-size="10.00" fill="#000000">XCS::fit</text>
</a>
</g>
</g>
<!-- Node220&#45;&gt;Node221 -->
<g id="edge17" class="edge">
<title>Node220&#45;&gt;Node221</title>
<path fill="none" stroke="#191970" d="M648.7821,-171.1569C673.4487,-164.556 705.3571,-156.0171 727.538,-150.0814"/>
<polygon fill="#191970" stroke="#191970" points="647.7986,-167.7968 639.0434,-173.763 649.6083,-174.5589 647.7986,-167.7968"/>
</g>
<!-- Node221&#45;&gt;Node214 -->
<g id="edge18" class="edge">
<title>Node221&#45;&gt;Node214</title>
<path fill="none" stroke="#191970" d="M779.0249,-128.2338C812.3582,-108.565 870.3966,-74.3188 898.6332,-57.6574"/>
<polygon fill="#191970" stroke="#191970" points="777.1573,-125.2718 770.3235,-133.3681 780.7147,-131.3005 777.1573,-125.2718"/>
</g>
</g>
</svg>
