<?xml version="1.0" encoding="UTF-8" standalone="no"?>
<!DOCTYPE svg PUBLIC "-//W3C//DTD SVG 1.1//EN"
 "http://www.w3.org/Graphics/SVG/1.1/DTD/svg11.dtd">
<!-- Generated by graphviz version 2.40.1 (20161225.0304)
 -->
<!-- Title: act_general Pages: 1 -->
<svg width="1218pt" height="199pt"
 viewBox="0.00 0.00 1218.00 199.00" xmlns="http://www.w3.org/2000/svg" xmlns:xlink="http://www.w3.org/1999/xlink">
<g id="graph0" class="graph" transform="scale(1 1) rotate(0) translate(4 195)">
<title>act_general</title>
<!-- Node114 -->
<g id="node1" class="node">
<title>Node114</title>
<polygon fill="#bfbfbf" stroke="#000000" points="0,-95.5 0,-114.5 67,-114.5 67,-95.5 0,-95.5"/>
<text text-anchor="middle" x="33.5" y="-102.5" font-family="Helvetica,sans-Serif" font-size="10.00" fill="#000000">act_general</text>
</g>
<!-- Node115 -->
<g id="node2" class="node">
<title>Node115</title>
<g id="a_node2"><a xlink:href="cl_8h.html#a115dd8287f1fdd3480bc158321e8a842" target="_top" xlink:title="Returns whether classifier c1 is more general than c2. ">
<polygon fill="none" stroke="#000000" points="103,-95.5 103,-114.5 164,-114.5 164,-95.5 103,-95.5"/>
<text text-anchor="middle" x="133.5" y="-102.5" font-family="Helvetica,sans-Serif" font-size="10.00" fill="#000000">cl_general</text>
</a>
</g>
</g>
<!-- Node114&#45;&gt;Node115 -->
<g id="edge1" class="edge">
<title>Node114&#45;&gt;Node115</title>
<path fill="none" stroke="#191970" d="M77.0924,-105C85.7817,-105 94.7335,-105 102.8746,-105"/>
<polygon fill="#191970" stroke="#191970" points="77.0768,-101.5001 67.0767,-105 77.0767,-108.5001 77.0768,-101.5001"/>
</g>
<!-- Node116 -->
<g id="node3" class="node">
<title>Node116</title>
<g id="a_node3"><a xlink:href="clset_8c.html#a94421523353ff7ff3f31617d9230f3f1" target="_top" xlink:title="Performs set subsumption. ">
<polygon fill="none" stroke="#000000" points="200,-114.5 200,-133.5 298,-133.5 298,-114.5 200,-114.5"/>
<text text-anchor="middle" x="249" y="-121.5" font-family="Helvetica,sans-Serif" font-size="10.00" fill="#000000">clset_subsumption</text>
</a>
</g>
</g>
<!-- Node115&#45;&gt;Node116 -->
<g id="edge2" class="edge">
<title>Node115&#45;&gt;Node116</title>
<path fill="none" stroke="#191970" d="M174.0222,-111.666C182.3757,-113.0402 191.2585,-114.5014 199.8789,-115.9195"/>
<polygon fill="#191970" stroke="#191970" points="174.5842,-108.2115 164.1486,-110.0418 173.4479,-115.1186 174.5842,-108.2115"/>
</g>
<!-- Node131 -->
<g id="node18" class="node">
<title>Node131</title>
<g id="a_node18"><a xlink:href="ea_8c.html#a8ea16017fe8753d9b079e8e333d98545" target="_top" xlink:title="Performs evolutionary algorithm subsumption. ">
<polygon fill="none" stroke="#000000" points="213,-76.5 213,-95.5 285,-95.5 285,-76.5 213,-76.5"/>
<text text-anchor="middle" x="249" y="-83.5" font-family="Helvetica,sans-Serif" font-size="10.00" fill="#000000">ea_subsume</text>
</a>
</g>
</g>
<!-- Node115&#45;&gt;Node131 -->
<g id="edge20" class="edge">
<title>Node115&#45;&gt;Node131</title>
<path fill="none" stroke="#191970" d="M174.3651,-98.2776C186.9246,-96.2115 200.6523,-93.9533 212.8709,-91.9433"/>
<polygon fill="#191970" stroke="#191970" points="173.4479,-94.8814 164.1486,-99.9582 174.5842,-101.7885 173.4479,-94.8814"/>
</g>
<!-- Node117 -->
<g id="node4" class="node">
<title>Node117</title>
<g id="a_node4"><a xlink:href="clset_8h.html#a75a41281822e032413356a4b7b353559" target="_top" xlink:title="Provides reinforcement to the set and performs set subsumption. ">
<polygon fill="none" stroke="#000000" points="418,-114.5 418,-133.5 490,-133.5 490,-114.5 418,-114.5"/>
<text text-anchor="middle" x="454" y="-121.5" font-family="Helvetica,sans-Serif" font-size="10.00" fill="#000000">clset_update</text>
</a>
</g>
</g>
<!-- Node116&#45;&gt;Node117 -->
<g id="edge3" class="edge">
<title>Node116&#45;&gt;Node117</title>
<path fill="none" stroke="#191970" d="M308.3198,-124C343.7228,-124 387.5359,-124 417.8174,-124"/>
<polygon fill="#191970" stroke="#191970" points="308.1026,-120.5001 298.1026,-124 308.1026,-127.5001 308.1026,-120.5001"/>
</g>
<!-- Node118 -->
<g id="node5" class="node">
<title>Node118</title>
<g id="a_node5"><a xlink:href="xcs__multi__step_8c.html#a1e1c2a3094be715b468dda79cd59ebf3" target="_top" xlink:title="Executes a multi&#45;step trial using a built&#45;in environment. ">
<polygon fill="none" stroke="#000000" points="535,-114.5 535,-133.5 615,-133.5 615,-114.5 535,-114.5"/>
<text text-anchor="middle" x="575" y="-121.5" font-family="Helvetica,sans-Serif" font-size="10.00" fill="#000000">xcs_multi_trial</text>
</a>
</g>
</g>
<!-- Node117&#45;&gt;Node118 -->
<g id="edge4" class="edge">
<title>Node117&#45;&gt;Node118</title>
<path fill="none" stroke="#191970" d="M500.4857,-124C511.8396,-124 523.8903,-124 534.9162,-124"/>
<polygon fill="#191970" stroke="#191970" points="500.304,-120.5001 490.304,-124 500.304,-127.5001 500.304,-120.5001"/>
</g>
<!-- Node121 -->
<g id="node8" class="node">
<title>Node121</title>
<g id="a_node8"><a xlink:href="xcs__single__step_8h.html#afd31e5406eeef1fb9b244f635a0f0408" target="_top" xlink:title="Creates the action set, updates the classifiers and runs the EA. ">
<polygon fill="none" stroke="#000000" points="526,-152.5 526,-171.5 624,-171.5 624,-152.5 526,-152.5"/>
<text text-anchor="middle" x="575" y="-159.5" font-family="Helvetica,sans-Serif" font-size="10.00" fill="#000000">xcs_single_update</text>
</a>
</g>
</g>
<!-- Node117&#45;&gt;Node121 -->
<g id="edge7" class="edge">
<title>Node117&#45;&gt;Node121</title>
<path fill="none" stroke="#191970" d="M494.3771,-136.6804C510.7262,-141.8148 529.2878,-147.6441 544.4764,-152.4141"/>
<polygon fill="#191970" stroke="#191970" points="495.1227,-133.2461 484.5334,-133.589 493.0253,-139.9245 495.1227,-133.2461"/>
</g>
<!-- Node126 -->
<g id="node13" class="node">
<title>Node126</title>
<g id="a_node13"><a xlink:href="xcsf_8c.html#a2a65c7cb7cfe8e680b609ce8c4e36d56" target="_top" xlink:title="Executes a single XCSF learning trial. ">
<polygon fill="none" stroke="#000000" points="533.5,-76.5 533.5,-95.5 616.5,-95.5 616.5,-76.5 533.5,-76.5"/>
<text text-anchor="middle" x="575" y="-83.5" font-family="Helvetica,sans-Serif" font-size="10.00" fill="#000000">xcsf_learn_trial</text>
</a>
</g>
</g>
<!-- Node117&#45;&gt;Node126 -->
<g id="edge13" class="edge">
<title>Node117&#45;&gt;Node126</title>
<path fill="none" stroke="#191970" d="M494.3771,-111.3196C510.7262,-106.1852 529.2878,-100.3559 544.4764,-95.5859"/>
<polygon fill="#191970" stroke="#191970" points="493.0253,-108.0755 484.5334,-114.411 495.1227,-114.7539 493.0253,-108.0755"/>
</g>
<!-- Node119 -->
<g id="node6" class="node">
<title>Node119</title>
<g id="a_node6"><a xlink:href="xcs__multi__step_8h.html#acc29d4a55dbd56c16ea5f19f15a7c677" target="_top" xlink:title="Executes a multi&#45;step reinforcement learning experiment. ">
<polygon fill="none" stroke="#000000" points="782,-114.5 782,-133.5 886,-133.5 886,-114.5 782,-114.5"/>
<text text-anchor="middle" x="834" y="-121.5" font-family="Helvetica,sans-Serif" font-size="10.00" fill="#000000">xcs_multi_step_exp</text>
</a>
</g>
</g>
<!-- Node118&#45;&gt;Node119 -->
<g id="edge5" class="edge">
<title>Node118&#45;&gt;Node119</title>
<path fill="none" stroke="#191970" d="M625.3033,-124C670.2998,-124 736.0047,-124 781.6234,-124"/>
<polygon fill="#191970" stroke="#191970" points="625.1846,-120.5001 615.1846,-124 625.1845,-127.5001 625.1846,-120.5001"/>
</g>
<!-- Node120 -->
<g id="node7" class="node">
<title>Node120</title>
<g id="a_node7"><a xlink:href="main_8c.html#a3c04138a5bfe5d72780bb7e82a18e627" target="_top" xlink:title="main">
<polygon fill="none" stroke="#000000" points="957,-114.5 957,-133.5 995,-133.5 995,-114.5 957,-114.5"/>
<text text-anchor="middle" x="976" y="-121.5" font-family="Helvetica,sans-Serif" font-size="10.00" fill="#000000">main</text>
</a>
</g>
</g>
<!-- Node119&#45;&gt;Node120 -->
<g id="edge6" class="edge">
<title>Node119&#45;&gt;Node120</title>
<path fill="none" stroke="#191970" d="M896.3496,-124C918.2345,-124 941.2324,-124 956.8585,-124"/>
<polygon fill="#191970" stroke="#191970" points="896.0693,-120.5001 886.0692,-124 896.0692,-127.5001 896.0693,-120.5001"/>
</g>
<!-- Node122 -->
<g id="node9" class="node">
<title>Node122</title>
<g id="a_node9"><a xlink:href="structXCS.html#aedc01ad6f00a54b260a7605929a1d4c9" target="_top" xlink:title="XCS::single_update">
<polygon fill="none" stroke="#000000" points="924,-171.5 924,-190.5 1028,-190.5 1028,-171.5 924,-171.5"/>
<text text-anchor="middle" x="976" y="-178.5" font-family="Helvetica,sans-Serif" font-size="10.00" fill="#000000">XCS::single_update</text>
</a>
</g>
</g>
<!-- Node121&#45;&gt;Node122 -->
<g id="edge8" class="edge">
<title>Node121&#45;&gt;Node122</title>
<path fill="none" stroke="#191970" d="M619.5202,-173.8843C632.4758,-176.8153 646.7174,-179.5336 660,-181 752.428,-191.2043 860.992,-187.8959 923.805,-184.4951"/>
<polygon fill="#191970" stroke="#191970" points="619.9852,-170.398 609.4487,-171.5079 618.3777,-177.2109 619.9852,-170.398"/>
</g>
<!-- Node124 -->
<g id="node11" class="node">
<title>Node124</title>
<g id="a_node11"><a xlink:href="xcs__single__step_8c.html#a3d1fd2472d35310800aed897219a65af" target="_top" xlink:title="Executes a single&#45;step trial using a built&#45;in environment. ">
<polygon fill="none" stroke="#000000" points="660,-152.5 660,-171.5 744,-171.5 744,-152.5 660,-152.5"/>
<text text-anchor="middle" x="702" y="-159.5" font-family="Helvetica,sans-Serif" font-size="10.00" fill="#000000">xcs_single_trial</text>
</a>
</g>
</g>
<!-- Node121&#45;&gt;Node124 -->
<g id="edge10" class="edge">
<title>Node121&#45;&gt;Node124</title>
<path fill="none" stroke="#191970" d="M634.1216,-162C642.732,-162 651.4503,-162 659.6391,-162"/>
<polygon fill="#191970" stroke="#191970" points="634.1016,-158.5001 624.1015,-162 634.1015,-165.5001 634.1016,-158.5001"/>
</g>
<!-- Node123 -->
<g id="node10" class="node">
<title>Node123</title>
<g id="a_node10"><a xlink:href="python__wrapper_8cpp.html#afbdcc1358036a0b83a6b239da2b098a2" target="_top" xlink:title="BOOST_PYTHON_MODULE">
<polygon fill="none" stroke="#000000" points="1064,-76.5 1064,-95.5 1210,-95.5 1210,-76.5 1064,-76.5"/>
<text text-anchor="middle" x="1137" y="-83.5" font-family="Helvetica,sans-Serif" font-size="10.00" fill="#000000">BOOST_PYTHON_MODULE</text>
</a>
</g>
</g>
<!-- Node122&#45;&gt;Node123 -->
<g id="edge9" class="edge">
<title>Node122&#45;&gt;Node123</title>
<path fill="none" stroke="#191970" d="M1001.0249,-166.2338C1034.3582,-146.565 1092.3966,-112.3188 1120.6332,-95.6574"/>
<polygon fill="#191970" stroke="#191970" points="999.1573,-163.2718 992.3235,-171.3681 1002.7147,-169.3005 999.1573,-163.2718"/>
</g>
<!-- Node125 -->
<g id="node12" class="node">
<title>Node125</title>
<g id="a_node12"><a xlink:href="xcs__single__step_8h.html#a39a031bf59eaa9b33e30e614610dcda8" target="_top" xlink:title="Executes a single&#45;step experiment. ">
<polygon fill="none" stroke="#000000" points="780,-152.5 780,-171.5 888,-171.5 888,-152.5 780,-152.5"/>
<text text-anchor="middle" x="834" y="-159.5" font-family="Helvetica,sans-Serif" font-size="10.00" fill="#000000">xcs_single_step_exp</text>
</a>
</g>
</g>
<!-- Node124&#45;&gt;Node125 -->
<g id="edge11" class="edge">
<title>Node124&#45;&gt;Node125</title>
<path fill="none" stroke="#191970" d="M754.1756,-162C762.5711,-162 771.2792,-162 779.7227,-162"/>
<polygon fill="#191970" stroke="#191970" points="754.1286,-158.5001 744.1285,-162 754.1285,-165.5001 754.1286,-158.5001"/>
</g>
<!-- Node125&#45;&gt;Node120 -->
<g id="edge12" class="edge">
<title>Node125&#45;&gt;Node120</title>
<path fill="none" stroke="#191970" d="M879.5443,-149.8121C905.6525,-142.8254 937.0537,-134.4222 956.7754,-129.1446"/>
<polygon fill="#191970" stroke="#191970" points="878.5879,-146.4448 869.8326,-152.411 880.3975,-153.2069 878.5879,-146.4448"/>
</g>
<!-- Node127 -->
<g id="node14" class="node">
<title>Node127</title>
<g id="a_node14"><a xlink:href="xcsf_8h.html#a40f4dfe69c6480f25c55d21c44746eb8" target="_top" xlink:title="Executes MAX_TRIALS number of XCSF learning iterations using the training. data and test iterations u...">
<polygon fill="none" stroke="#000000" points="675,-57.5 675,-76.5 729,-76.5 729,-57.5 675,-57.5"/>
<text text-anchor="middle" x="702" y="-64.5" font-family="Helvetica,sans-Serif" font-size="10.00" fill="#000000">xcsf_fit2</text>
</a>
</g>
</g>
<!-- Node126&#45;&gt;Node127 -->
<g id="edge14" class="edge">
<title>Node126&#45;&gt;Node127</title>
<path fill="none" stroke="#191970" d="M626.6576,-78.2717C643.131,-75.8072 660.7068,-73.1777 674.7358,-71.0789"/>
<polygon fill="#191970" stroke="#191970" points="625.9566,-74.8375 616.5845,-79.7787 626.9924,-81.7605 625.9566,-74.8375"/>
</g>
<!-- Node127&#45;&gt;Node120 -->
<g id="edge15" class="edge">
<title>Node127&#45;&gt;Node120</title>
<path fill="none" stroke="#191970" d="M739.3233,-60.9007C777.5235,-56.057 838.1813,-52.2751 888,-67 919.4211,-76.2871 950.1621,-100.6942 965.6453,-114.3673"/>
<polygon fill="#191970" stroke="#191970" points="738.6096,-57.4654 729.1721,-62.2805 739.5525,-64.4016 738.6096,-57.4654"/>
</g>
<!-- Node128 -->
<g id="node15" class="node">
<title>Node128</title>
<g id="a_node15"><a xlink:href="structXCS.html#a7d53320740db8e846251bacd0238a9fb" target="_top" xlink:title="XCS::fit">
<polygon fill="none" stroke="#000000" points="808,-76.5 808,-95.5 860,-95.5 860,-76.5 808,-76.5"/>
<text text-anchor="middle" x="834" y="-83.5" font-family="Helvetica,sans-Serif" font-size="10.00" fill="#000000">XCS::fit</text>
</a>
</g>
</g>
<!-- Node127&#45;&gt;Node128 -->
<g id="edge16" class="edge">
<title>Node127&#45;&gt;Node128</title>
<path fill="none" stroke="#191970" d="M739.0015,-72.326C760.9406,-75.4839 788.2158,-79.4098 807.905,-82.2439"/>
<polygon fill="#191970" stroke="#191970" points="739.4274,-68.8513 729.0307,-70.8908 738.43,-75.7799 739.4274,-68.8513"/>
</g>
<!-- Node129 -->
<g id="node16" class="node">
<title>Node129</title>
<g id="a_node16"><a xlink:href="xcsf_8h.html#afd4a983899f1980887b8375e40b32a72" target="_top" xlink:title="Executes MAX_TRIALS number of XCSF learning iterations using the training data. ">
<polygon fill="none" stroke="#000000" points="807,-.5 807,-19.5 861,-19.5 861,-.5 807,-.5"/>
<text text-anchor="middle" x="834" y="-7.5" font-family="Helvetica,sans-Serif" font-size="10.00" fill="#000000">xcsf_fit1</text>
</a>
</g>
</g>
<!-- Node127&#45;&gt;Node129 -->
<g id="edge17" class="edge">
<title>Node127&#45;&gt;Node129</title>
<path fill="none" stroke="#191970" d="M733.5367,-53.3819C757.6866,-42.9535 790.393,-28.8303 811.8341,-19.5716"/>
<polygon fill="#191970" stroke="#191970" points="731.8869,-50.2818 724.0938,-57.4595 734.662,-56.7083 731.8869,-50.2818"/>
</g>
<!-- Node130 -->
<g id="node17" class="node">
<title>Node130</title>
<g id="a_node17"><a xlink:href="structXCS.html#ad2ccafe59d2b4ae6d0e1cbc15edee53c" target="_top" xlink:title="XCS::fit">
<polygon fill="none" stroke="#000000" points="950,-38.5 950,-57.5 1002,-57.5 1002,-38.5 950,-38.5"/>
<text text-anchor="middle" x="976" y="-45.5" font-family="Helvetica,sans-Serif" font-size="10.00" fill="#000000">XCS::fit</text>
</a>
</g>
</g>
<!-- Node129&#45;&gt;Node130 -->
<g id="edge18" class="edge">
<title>Node129&#45;&gt;Node130</title>
<path fill="none" stroke="#191970" d="M870.7821,-19.8431C895.4487,-26.444 927.3571,-34.9829 949.538,-40.9186"/>
<polygon fill="#191970" stroke="#191970" points="871.6083,-16.4411 861.0434,-17.237 869.7986,-23.2032 871.6083,-16.4411"/>
</g>
<!-- Node130&#45;&gt;Node123 -->
<g id="edge19" class="edge">
<title>Node130&#45;&gt;Node123</title>
<path fill="none" stroke="#191970" d="M1012.0761,-56.5149C1037.1626,-62.4359 1070.6291,-70.3348 1096.6091,-76.4667"/>
<polygon fill="#191970" stroke="#191970" points="1012.7624,-53.0807 1002.2258,-54.1899 1011.1543,-59.8935 1012.7624,-53.0807"/>
</g>
<!-- Node132 -->
<g id="node19" class="node">
<title>Node132</title>
<g id="a_node19"><a xlink:href="ea_8c.html#a72cd70b4efb82200d9c3004e1658a69c" target="_top" xlink:title="Adds offspring to the population. ">
<polygon fill="none" stroke="#000000" points="334,-76.5 334,-95.5 382,-95.5 382,-76.5 334,-76.5"/>
<text text-anchor="middle" x="358" y="-83.5" font-family="Helvetica,sans-Serif" font-size="10.00" fill="#000000">ea_add</text>
</a>
</g>
</g>
<!-- Node131&#45;&gt;Node132 -->
<g id="edge21" class="edge">
<title>Node131&#45;&gt;Node132</title>
<path fill="none" stroke="#191970" d="M295.6609,-86C308.8277,-86 322.6179,-86 333.8707,-86"/>
<polygon fill="#191970" stroke="#191970" points="295.2955,-82.5001 285.2954,-86 295.2954,-89.5001 295.2955,-82.5001"/>
</g>
<!-- Node133 -->
<g id="node20" class="node">
<title>Node133</title>
<g id="a_node20"><a xlink:href="ea_8h.html#a3e63f4f98f4b3eb0de9a52a1abe1c225" target="_top" xlink:title="Executes the evolutionary algorithm (EA). ">
<polygon fill="none" stroke="#000000" points="439.5,-76.5 439.5,-95.5 468.5,-95.5 468.5,-76.5 439.5,-76.5"/>
<text text-anchor="middle" x="454" y="-83.5" font-family="Helvetica,sans-Serif" font-size="10.00" fill="#000000">ea</text>
</a>
</g>
</g>
<!-- Node132&#45;&gt;Node133 -->
<g id="edge22" class="edge">
<title>Node132&#45;&gt;Node133</title>
<path fill="none" stroke="#191970" d="M392.4184,-86C408.5491,-86 426.9096,-86 439.3544,-86"/>
<polygon fill="#191970" stroke="#191970" points="392.2249,-82.5001 382.2249,-86 392.2248,-89.5001 392.2249,-82.5001"/>
</g>
<!-- Node133&#45;&gt;Node118 -->
<g id="edge23" class="edge">
<title>Node133&#45;&gt;Node118</title>
<path fill="none" stroke="#191970" d="M478.5961,-93.7244C497.7053,-99.7256 524.3023,-108.0784 544.7203,-114.4907"/>
<polygon fill="#191970" stroke="#191970" points="479.4263,-90.3166 468.837,-90.6595 477.3289,-96.995 479.4263,-90.3166"/>
</g>
<!-- Node133&#45;&gt;Node121 -->
<g id="edge24" class="edge">
<title>Node133&#45;&gt;Node121</title>
<path fill="none" stroke="#191970" d="M477.713,-97.0907C481.9563,-99.4679 486.2243,-102.1355 490,-105 508.5342,-119.0612 506.6837,-130.0341 526,-143 531.5302,-146.7121 537.8909,-149.8521 544.1587,-152.4445"/>
<polygon fill="#191970" stroke="#191970" points="479.1512,-93.8937 468.6641,-92.3865 475.9224,-100.1046 479.1512,-93.8937"/>
</g>
<!-- Node133&#45;&gt;Node126 -->
<g id="edge25" class="edge">
<title>Node133&#45;&gt;Node126</title>
<path fill="none" stroke="#191970" d="M479.2491,-86C494.8577,-86 515.2736,-86 533.2422,-86"/>
<polygon fill="#191970" stroke="#191970" points="478.837,-82.5001 468.837,-86 478.8369,-89.5001 478.837,-82.5001"/>
</g>
</g>
</svg>
