<?xml version="1.0" encoding="UTF-8" standalone="no"?>
<!DOCTYPE svg PUBLIC "-//W3C//DTD SVG 1.1//EN"
 "http://www.w3.org/Graphics/SVG/1.1/DTD/svg11.dtd">
<!-- Generated by graphviz version 2.40.1 (20161225.0304)
 -->
<!-- Title: act_copy Pages: 1 -->
<svg width="815pt" height="218pt"
 viewBox="0.00 0.00 815.00 218.00" xmlns="http://www.w3.org/2000/svg" xmlns:xlink="http://www.w3.org/1999/xlink">
<g id="graph0" class="graph" transform="scale(1 1) rotate(0) translate(4 214)">
<title>act_copy</title>
<!-- Node25 -->
<g id="node1" class="node">
<title>Node25</title>
<polygon fill="#bfbfbf" stroke="#000000" points="0,-133.5 0,-152.5 56,-152.5 56,-133.5 0,-133.5"/>
<text text-anchor="middle" x="28" y="-140.5" font-family="Helvetica,sans-Serif" font-size="10.00" fill="#000000">act_copy</text>
</g>
<!-- Node26 -->
<g id="node2" class="node">
<title>Node26</title>
<g id="a_node2"><a xlink:href="cl_8h.html#aa16f42f7d761f9aedd063225b0b3b76e" target="_top" xlink:title="Copies the condition, action, and prediction from one classifier to another. ">
<polygon fill="none" stroke="#000000" points="92,-133.5 92,-152.5 142,-152.5 142,-133.5 92,-133.5"/>
<text text-anchor="middle" x="117" y="-140.5" font-family="Helvetica,sans-Serif" font-size="10.00" fill="#000000">cl_copy</text>
</a>
</g>
</g>
<!-- Node25&#45;&gt;Node26 -->
<g id="edge1" class="edge">
<title>Node25&#45;&gt;Node26</title>
<path fill="none" stroke="#191970" d="M66.3817,-143C74.9593,-143 83.846,-143 91.7342,-143"/>
<polygon fill="#191970" stroke="#191970" points="66.1602,-139.5001 56.1602,-143 66.1601,-146.5001 66.1602,-139.5001"/>
</g>
<!-- Node27 -->
<g id="node3" class="node">
<title>Node27</title>
<g id="a_node3"><a xlink:href="ea_8h.html#ae3824341a2f5482cb6ac70b3839ded51" target="_top" xlink:title="Executes the evolutionary algorithm (EA). ">
<polygon fill="none" stroke="#000000" points="178,-133.5 178,-152.5 207,-152.5 207,-133.5 178,-133.5"/>
<text text-anchor="middle" x="192.5" y="-140.5" font-family="Helvetica,sans-Serif" font-size="10.00" fill="#000000">ea</text>
</a>
</g>
</g>
<!-- Node26&#45;&gt;Node27 -->
<g id="edge2" class="edge">
<title>Node26&#45;&gt;Node27</title>
<path fill="none" stroke="#191970" d="M152.1602,-143C161.2088,-143 170.4567,-143 177.8113,-143"/>
<polygon fill="#191970" stroke="#191970" points="152.1404,-139.5001 142.1404,-143 152.1404,-146.5001 152.1404,-139.5001"/>
</g>
<!-- Node28 -->
<g id="node4" class="node">
<title>Node28</title>
<g id="a_node4"><a xlink:href="xcs__multi__step_8c.html#a1e1c2a3094be715b468dda79cd59ebf3" target="_top" xlink:title="Executes a multi&#45;step trial using a built&#45;in environment. ">
<polygon fill="none" stroke="#000000" points="252,-180.5 252,-199.5 332,-199.5 332,-180.5 252,-180.5"/>
<text text-anchor="middle" x="292" y="-187.5" font-family="Helvetica,sans-Serif" font-size="10.00" fill="#000000">xcs_multi_trial</text>
</a>
</g>
</g>
<!-- Node27&#45;&gt;Node28 -->
<g id="edge3" class="edge">
<title>Node27&#45;&gt;Node28</title>
<path fill="none" stroke="#191970" d="M216.4056,-154.2921C233.3056,-162.275 255.714,-172.8599 271.7373,-180.4287"/>
<polygon fill="#191970" stroke="#191970" points="217.7185,-151.0415 207.1816,-149.935 214.7287,-157.3709 217.7185,-151.0415"/>
</g>
<!-- Node31 -->
<g id="node7" class="node">
<title>Node31</title>
<g id="a_node7"><a xlink:href="xcs__single__step_8h.html#aff4aec035e4573993a7906569f2028f5" target="_top" xlink:title="Creates the action set, updates the classifiers and runs the EA. ">
<polygon fill="none" stroke="#000000" points="243,-133.5 243,-152.5 341,-152.5 341,-133.5 243,-133.5"/>
<text text-anchor="middle" x="292" y="-140.5" font-family="Helvetica,sans-Serif" font-size="10.00" fill="#000000">xcs_single_update</text>
</a>
</g>
</g>
<!-- Node27&#45;&gt;Node31 -->
<g id="edge6" class="edge">
<title>Node27&#45;&gt;Node31</title>
<path fill="none" stroke="#191970" d="M217.2801,-143C225.0174,-143 233.8425,-143 242.6508,-143"/>
<polygon fill="#191970" stroke="#191970" points="217.1816,-139.5001 207.1816,-143 217.1815,-146.5001 217.1816,-139.5001"/>
</g>
<!-- Node36 -->
<g id="node12" class="node">
<title>Node36</title>
<g id="a_node12"><a xlink:href="xcsf_8c.html#a474f4e13cfc5f00958c689cd8c81135a" target="_top" xlink:title="Executes a single XCSF learning trial. ">
<polygon fill="none" stroke="#000000" points="250.5,-57.5 250.5,-76.5 333.5,-76.5 333.5,-57.5 250.5,-57.5"/>
<text text-anchor="middle" x="292" y="-64.5" font-family="Helvetica,sans-Serif" font-size="10.00" fill="#000000">xcsf_learn_trial</text>
</a>
</g>
</g>
<!-- Node27&#45;&gt;Node36 -->
<g id="edge12" class="edge">
<title>Node27&#45;&gt;Node36</title>
<path fill="none" stroke="#191970" d="M213.2797,-127.1281C233.2848,-111.8478 262.8816,-89.2412 279.5006,-76.5473"/>
<polygon fill="#191970" stroke="#191970" points="210.9242,-124.523 205.1017,-133.3745 215.1733,-130.0859 210.9242,-124.523"/>
</g>
<!-- Node29 -->
<g id="node5" class="node">
<title>Node29</title>
<g id="a_node5"><a xlink:href="xcs__multi__step_8h.html#acc29d4a55dbd56c16ea5f19f15a7c677" target="_top" xlink:title="Executes a multi&#45;step reinforcement learning experiment. ">
<polygon fill="none" stroke="#000000" points="519,-190.5 519,-209.5 623,-209.5 623,-190.5 519,-190.5"/>
<text text-anchor="middle" x="571" y="-197.5" font-family="Helvetica,sans-Serif" font-size="10.00" fill="#000000">xcs_multi_step_exp</text>
</a>
</g>
</g>
<!-- Node28&#45;&gt;Node29 -->
<g id="edge4" class="edge">
<title>Node28&#45;&gt;Node29</title>
<path fill="none" stroke="#191970" d="M342.5047,-191.8102C392.4046,-193.5987 468.3872,-196.3221 518.8508,-198.1309"/>
<polygon fill="#191970" stroke="#191970" points="342.39,-188.3039 332.271,-191.4434 342.1392,-195.2994 342.39,-188.3039"/>
</g>
<!-- Node30 -->
<g id="node6" class="node">
<title>Node30</title>
<g id="a_node6"><a xlink:href="main_8c.html#a3c04138a5bfe5d72780bb7e82a18e627" target="_top" xlink:title="main">
<polygon fill="none" stroke="#000000" points="715,-152.5 715,-171.5 753,-171.5 753,-152.5 715,-152.5"/>
<text text-anchor="middle" x="734" y="-159.5" font-family="Helvetica,sans-Serif" font-size="10.00" fill="#000000">main</text>
</a>
</g>
</g>
<!-- Node29&#45;&gt;Node30 -->
<g id="edge5" class="edge">
<title>Node29&#45;&gt;Node30</title>
<path fill="none" stroke="#191970" d="M622.0525,-188.0982C653.4599,-180.7762 691.9128,-171.8117 714.6012,-166.5224"/>
<polygon fill="#191970" stroke="#191970" points="621.076,-184.7319 612.1318,-190.411 622.6653,-191.5491 621.076,-184.7319"/>
</g>
<!-- Node32 -->
<g id="node8" class="node">
<title>Node32</title>
<g id="a_node8"><a xlink:href="structXCS.html#aedc01ad6f00a54b260a7605929a1d4c9" target="_top" xlink:title="XCS::single_update">
<polygon fill="none" stroke="#000000" points="377,-114.5 377,-133.5 481,-133.5 481,-114.5 377,-114.5"/>
<text text-anchor="middle" x="429" y="-121.5" font-family="Helvetica,sans-Serif" font-size="10.00" fill="#000000">XCS::single_update</text>
</a>
</g>
</g>
<!-- Node31&#45;&gt;Node32 -->
<g id="edge7" class="edge">
<title>Node31&#45;&gt;Node32</title>
<path fill="none" stroke="#191970" d="M351.2254,-134.7863C359.6549,-133.6172 368.2753,-132.4217 376.5632,-131.2723"/>
<polygon fill="#191970" stroke="#191970" points="350.4976,-131.3536 341.0732,-136.1942 351.4592,-138.2873 350.4976,-131.3536"/>
</g>
<!-- Node34 -->
<g id="node10" class="node">
<title>Node34</title>
<g id="a_node10"><a xlink:href="xcs__single__step_8c.html#a3d1fd2472d35310800aed897219a65af" target="_top" xlink:title="Executes a single&#45;step trial using a built&#45;in environment. ">
<polygon fill="none" stroke="#000000" points="387,-152.5 387,-171.5 471,-171.5 471,-152.5 387,-152.5"/>
<text text-anchor="middle" x="429" y="-159.5" font-family="Helvetica,sans-Serif" font-size="10.00" fill="#000000">xcs_single_trial</text>
</a>
</g>
</g>
<!-- Node31&#45;&gt;Node34 -->
<g id="edge9" class="edge">
<title>Node31&#45;&gt;Node34</title>
<path fill="none" stroke="#191970" d="M351.0069,-151.1834C362.9825,-152.8443 375.3528,-154.5599 386.6154,-156.1218"/>
<polygon fill="#191970" stroke="#191970" points="351.4592,-147.7128 341.0732,-149.8058 350.4976,-154.6464 351.4592,-147.7128"/>
</g>
<!-- Node33 -->
<g id="node9" class="node">
<title>Node33</title>
<g id="a_node9"><a xlink:href="python__wrapper_8cpp.html#afbdcc1358036a0b83a6b239da2b098a2" target="_top" xlink:title="BOOST_PYTHON_MODULE">
<polygon fill="none" stroke="#000000" points="661,-57.5 661,-76.5 807,-76.5 807,-57.5 661,-57.5"/>
<text text-anchor="middle" x="734" y="-64.5" font-family="Helvetica,sans-Serif" font-size="10.00" fill="#000000">BOOST_PYTHON_MODULE</text>
</a>
</g>
</g>
<!-- Node32&#45;&gt;Node33 -->
<g id="edge8" class="edge">
<title>Node32&#45;&gt;Node33</title>
<path fill="none" stroke="#191970" d="M489.945,-112.6103C546.5512,-102.0314 629.8787,-86.4587 683.0378,-76.5241"/>
<polygon fill="#191970" stroke="#191970" points="489.237,-109.1819 480.0501,-114.4595 490.523,-116.0628 489.237,-109.1819"/>
</g>
<!-- Node35 -->
<g id="node11" class="node">
<title>Node35</title>
<g id="a_node11"><a xlink:href="xcs__single__step_8h.html#a39a031bf59eaa9b33e30e614610dcda8" target="_top" xlink:title="Executes a single&#45;step experiment. ">
<polygon fill="none" stroke="#000000" points="517,-152.5 517,-171.5 625,-171.5 625,-152.5 517,-152.5"/>
<text text-anchor="middle" x="571" y="-159.5" font-family="Helvetica,sans-Serif" font-size="10.00" fill="#000000">xcs_single_step_exp</text>
</a>
</g>
</g>
<!-- Node34&#45;&gt;Node35 -->
<g id="edge10" class="edge">
<title>Node34&#45;&gt;Node35</title>
<path fill="none" stroke="#191970" d="M481.551,-162C493.0539,-162 505.2511,-162 516.8166,-162"/>
<polygon fill="#191970" stroke="#191970" points="481.2203,-158.5001 471.2202,-162 481.2202,-165.5001 481.2203,-158.5001"/>
</g>
<!-- Node35&#45;&gt;Node30 -->
<g id="edge11" class="edge">
<title>Node35&#45;&gt;Node30</title>
<path fill="none" stroke="#191970" d="M635.611,-162C664.0891,-162 695.4445,-162 714.9303,-162"/>
<polygon fill="#191970" stroke="#191970" points="635.2767,-158.5001 625.2766,-162 635.2766,-165.5001 635.2767,-158.5001"/>
</g>
<!-- Node37 -->
<g id="node13" class="node">
<title>Node37</title>
<g id="a_node13"><a xlink:href="xcsf_8h.html#a874829f28fee20f9ad15b540f4b4d6ff" target="_top" xlink:title="Executes MAX_TRIALS number of XCSF learning iterations using the training data. ">
<polygon fill="none" stroke="#000000" points="402,-10.5 402,-29.5 456,-29.5 456,-10.5 402,-10.5"/>
<text text-anchor="middle" x="429" y="-17.5" font-family="Helvetica,sans-Serif" font-size="10.00" fill="#000000">xcsf_fit1</text>
</a>
</g>
</g>
<!-- Node36&#45;&gt;Node37 -->
<g id="edge13" class="edge">
<title>Node36&#45;&gt;Node37</title>
<path fill="none" stroke="#191970" d="M329.4515,-54.1517C352.3317,-46.3022 381.0738,-36.4418 401.7848,-29.3366"/>
<polygon fill="#191970" stroke="#191970" points="328.0471,-50.9332 319.724,-57.4888 330.3186,-57.5544 328.0471,-50.9332"/>
</g>
<!-- Node39 -->
<g id="node15" class="node">
<title>Node39</title>
<g id="a_node15"><a xlink:href="xcsf_8h.html#a0b4de57cb9dadc9deca7901aa36e5025" target="_top" xlink:title="Executes MAX_TRIALS number of XCSF learning iterations using the training. data and test iterations u...">
<polygon fill="none" stroke="#000000" points="402,-57.5 402,-76.5 456,-76.5 456,-57.5 402,-57.5"/>
<text text-anchor="middle" x="429" y="-64.5" font-family="Helvetica,sans-Serif" font-size="10.00" fill="#000000">xcsf_fit2</text>
</a>
</g>
</g>
<!-- Node36&#45;&gt;Node39 -->
<g id="edge16" class="edge">
<title>Node36&#45;&gt;Node39</title>
<path fill="none" stroke="#191970" d="M343.9115,-67C363.5628,-67 385.1522,-67 401.6669,-67"/>
<polygon fill="#191970" stroke="#191970" points="343.849,-63.5001 333.8489,-67 343.8489,-70.5001 343.849,-63.5001"/>
</g>
<!-- Node38 -->
<g id="node14" class="node">
<title>Node38</title>
<g id="a_node14"><a xlink:href="structXCS.html#ad2ccafe59d2b4ae6d0e1cbc15edee53c" target="_top" xlink:title="XCS::fit">
<polygon fill="none" stroke="#000000" points="545,-.5 545,-19.5 597,-19.5 597,-.5 545,-.5"/>
<text text-anchor="middle" x="571" y="-7.5" font-family="Helvetica,sans-Serif" font-size="10.00" fill="#000000">XCS::fit</text>
</a>
</g>
</g>
<!-- Node37&#45;&gt;Node38 -->
<g id="edge14" class="edge">
<title>Node37&#45;&gt;Node38</title>
<path fill="none" stroke="#191970" d="M466.1114,-17.3865C490.7321,-15.6527 522.4557,-13.4186 544.538,-11.8635"/>
<polygon fill="#191970" stroke="#191970" points="465.7727,-13.9016 456.0434,-18.0955 466.2646,-20.8843 465.7727,-13.9016"/>
</g>
<!-- Node38&#45;&gt;Node33 -->
<g id="edge15" class="edge">
<title>Node38&#45;&gt;Node33</title>
<path fill="none" stroke="#191970" d="M606.8957,-22.5525C637.0205,-33.0869 679.4042,-47.9082 706.7892,-57.4846"/>
<polygon fill="#191970" stroke="#191970" points="607.7836,-19.1552 597.1888,-19.158 605.4729,-25.7628 607.7836,-19.1552"/>
</g>
<!-- Node39&#45;&gt;Node30 -->
<g id="edge17" class="edge">
<title>Node39&#45;&gt;Node30</title>
<path fill="none" stroke="#191970" d="M465.9399,-78.5059C531.2604,-98.8516 664.9534,-140.4937 714.7475,-156.0033"/>
<polygon fill="#191970" stroke="#191970" points="466.6552,-75.0629 456.0667,-75.4306 464.5734,-81.7462 466.6552,-75.0629"/>
</g>
<!-- Node40 -->
<g id="node16" class="node">
<title>Node40</title>
<g id="a_node16"><a xlink:href="structXCS.html#a7d53320740db8e846251bacd0238a9fb" target="_top" xlink:title="XCS::fit">
<polygon fill="none" stroke="#000000" points="545,-38.5 545,-57.5 597,-57.5 597,-38.5 545,-38.5"/>
<text text-anchor="middle" x="571" y="-45.5" font-family="Helvetica,sans-Serif" font-size="10.00" fill="#000000">XCS::fit</text>
</a>
</g>
</g>
<!-- Node39&#45;&gt;Node40 -->
<g id="edge18" class="edge">
<title>Node39&#45;&gt;Node40</title>
<path fill="none" stroke="#191970" d="M466.1114,-62.0344C490.7321,-58.7401 522.4557,-54.4954 544.538,-51.5407"/>
<polygon fill="#191970" stroke="#191970" points="465.4908,-58.5861 456.0434,-63.3815 466.4192,-65.5243 465.4908,-58.5861"/>
</g>
</g>
</svg>
