<?xml version="1.0" encoding="UTF-8" standalone="no"?>
<!DOCTYPE svg PUBLIC "-//W3C//DTD SVG 1.1//EN"
 "http://www.w3.org/Graphics/SVG/1.1/DTD/svg11.dtd">
<!-- Generated by graphviz version 2.40.1 (20161225.0304)
 -->
<!-- Title: act_cover Pages: 1 -->
<svg width="962pt" height="294pt"
 viewBox="0.00 0.00 962.00 294.00" xmlns="http://www.w3.org/2000/svg" xmlns:xlink="http://www.w3.org/1999/xlink">
<g id="graph0" class="graph" transform="scale(1 1) rotate(0) translate(4 290)">
<title>act_cover</title>
<!-- Node44 -->
<g id="node1" class="node">
<title>Node44</title>
<polygon fill="#bfbfbf" stroke="#000000" points="0,-133.5 0,-152.5 59,-152.5 59,-133.5 0,-133.5"/>
<text text-anchor="middle" x="29.5" y="-140.5" font-family="Helvetica,sans-Serif" font-size="10.00" fill="#000000">act_cover</text>
</g>
<!-- Node45 -->
<g id="node2" class="node">
<title>Node45</title>
<g id="a_node2"><a xlink:href="cl_8h.html#a42adb85e78d1f9af3dbd53cd9e9ae0fd" target="_top" xlink:title="Covers the condition and action for a classifier. ">
<polygon fill="none" stroke="#000000" points="95,-133.5 95,-152.5 148,-152.5 148,-133.5 95,-133.5"/>
<text text-anchor="middle" x="121.5" y="-140.5" font-family="Helvetica,sans-Serif" font-size="10.00" fill="#000000">cl_cover</text>
</a>
</g>
</g>
<!-- Node44&#45;&gt;Node45 -->
<g id="edge1" class="edge">
<title>Node44&#45;&gt;Node45</title>
<path fill="none" stroke="#191970" d="M69.3545,-143C77.9339,-143 86.8037,-143 94.7411,-143"/>
<polygon fill="#191970" stroke="#191970" points="69.1158,-139.5001 59.1158,-143 69.1158,-146.5001 69.1158,-139.5001"/>
</g>
<!-- Node46 -->
<g id="node3" class="node">
<title>Node46</title>
<g id="a_node3"><a xlink:href="cl__set_8c.html#aa4b74b698e7491734e4788fcfae8e27a" target="_top" xlink:title="Ensures all possible actions are covered by the match set. ">
<polygon fill="none" stroke="#000000" points="184,-133.5 184,-152.5 243,-152.5 243,-133.5 184,-133.5"/>
<text text-anchor="middle" x="213.5" y="-140.5" font-family="Helvetica,sans-Serif" font-size="10.00" fill="#000000">set_cover</text>
</a>
</g>
</g>
<!-- Node45&#45;&gt;Node46 -->
<g id="edge2" class="edge">
<title>Node45&#45;&gt;Node46</title>
<path fill="none" stroke="#191970" d="M158.1583,-143C166.6432,-143 175.5708,-143 183.7196,-143"/>
<polygon fill="#191970" stroke="#191970" points="158.1102,-139.5001 148.1102,-143 158.1102,-146.5001 158.1102,-139.5001"/>
</g>
<!-- Node47 -->
<g id="node4" class="node">
<title>Node47</title>
<g id="a_node4"><a xlink:href="cl__set_8h.html#af3bea0b4d03654b9d6cb08fbf272c847" target="_top" xlink:title="Constructs the match set. ">
<polygon fill="none" stroke="#000000" points="279,-133.5 279,-152.5 341,-152.5 341,-133.5 279,-133.5"/>
<text text-anchor="middle" x="310" y="-140.5" font-family="Helvetica,sans-Serif" font-size="10.00" fill="#000000">set_match</text>
</a>
</g>
</g>
<!-- Node46&#45;&gt;Node47 -->
<g id="edge3" class="edge">
<title>Node46&#45;&gt;Node47</title>
<path fill="none" stroke="#191970" d="M253.3634,-143C261.8689,-143 270.733,-143 278.8545,-143"/>
<polygon fill="#191970" stroke="#191970" points="253.2406,-139.5001 243.2406,-143 253.2406,-146.5001 253.2406,-139.5001"/>
</g>
<!-- Node48 -->
<g id="node5" class="node">
<title>Node48</title>
<g id="a_node5"><a xlink:href="xcs__multi__step_8c.html#a617d9e432dc180dccf0c5ef11a94f79f" target="_top" xlink:title="Executes a multi&#45;step explore trial. ">
<polygon fill="none" stroke="#000000" points="379.5,-228.5 379.5,-247.5 474.5,-247.5 474.5,-228.5 379.5,-228.5"/>
<text text-anchor="middle" x="427" y="-235.5" font-family="Helvetica,sans-Serif" font-size="10.00" fill="#000000">xcs_multi_explore</text>
</a>
</g>
</g>
<!-- Node47&#45;&gt;Node48 -->
<g id="edge4" class="edge">
<title>Node47&#45;&gt;Node48</title>
<path fill="none" stroke="#191970" d="M321.9439,-160.9996C334.0415,-178.0056 354.184,-203.1991 377,-219 382.4203,-222.7537 388.68,-225.8868 394.8965,-228.4547"/>
<polygon fill="#191970" stroke="#191970" points="324.6441,-158.7501 316.0849,-152.5059 318.8821,-162.7248 324.6441,-158.7501"/>
</g>
<!-- Node52 -->
<g id="node9" class="node">
<title>Node52</title>
<g id="a_node9"><a xlink:href="xcs__multi__step_8c.html#a7c317faec2f018cc620fe5e465ebf378" target="_top" xlink:title="Executes a multi&#45;step exploit trial. ">
<polygon fill="none" stroke="#000000" points="381,-266.5 381,-285.5 473,-285.5 473,-266.5 381,-266.5"/>
<text text-anchor="middle" x="427" y="-273.5" font-family="Helvetica,sans-Serif" font-size="10.00" fill="#000000">xcs_multi_exploit</text>
</a>
</g>
</g>
<!-- Node47&#45;&gt;Node52 -->
<g id="edge8" class="edge">
<title>Node47&#45;&gt;Node52</title>
<path fill="none" stroke="#191970" d="M316.6597,-162.2313C326.2678,-187.3246 346.3067,-231.079 377,-257 381.5406,-260.8346 386.9359,-263.9394 392.4747,-266.4396"/>
<polygon fill="#191970" stroke="#191970" points="319.9044,-160.9133 313.1799,-152.726 313.331,-163.3197 319.9044,-160.9133"/>
</g>
<!-- Node53 -->
<g id="node10" class="node">
<title>Node53</title>
<g id="a_node10"><a xlink:href="xcs__single__step_8c.html#a7aa49a74bb28adda31400d94a29c2b0b" target="_top" xlink:title="Executes a single&#45;step explore trial. ">
<polygon fill="none" stroke="#000000" points="377,-190.5 377,-209.5 477,-209.5 477,-190.5 377,-190.5"/>
<text text-anchor="middle" x="427" y="-197.5" font-family="Helvetica,sans-Serif" font-size="10.00" fill="#000000">xcs_single_explore</text>
</a>
</g>
</g>
<!-- Node47&#45;&gt;Node53 -->
<g id="edge10" class="edge">
<title>Node47&#45;&gt;Node53</title>
<path fill="none" stroke="#191970" d="M334.2387,-157.9369C346.7634,-165.3473 362.4385,-174.153 377,-181 384.227,-184.3982 392.2411,-187.6575 399.6978,-190.4877"/>
<polygon fill="#191970" stroke="#191970" points="335.7207,-154.7443 325.3457,-152.5976 332.1175,-160.7458 335.7207,-154.7443"/>
</g>
<!-- Node55 -->
<g id="node12" class="node">
<title>Node55</title>
<g id="a_node12"><a xlink:href="xcs__single__step_8c.html#aab16ce2421e484a5dc7cb2a60a74517a" target="_top" xlink:title="Executes a single&#45;step exploit trial. ">
<polygon fill="none" stroke="#000000" points="378.5,-152.5 378.5,-171.5 475.5,-171.5 475.5,-152.5 378.5,-152.5"/>
<text text-anchor="middle" x="427" y="-159.5" font-family="Helvetica,sans-Serif" font-size="10.00" fill="#000000">xcs_single_exploit</text>
</a>
</g>
</g>
<!-- Node47&#45;&gt;Node55 -->
<g id="edge13" class="edge">
<title>Node47&#45;&gt;Node55</title>
<path fill="none" stroke="#191970" d="M351.0145,-149.6605C359.7766,-151.0834 369.115,-152.5999 378.1388,-154.0653"/>
<polygon fill="#191970" stroke="#191970" points="351.4784,-146.19 341.0467,-148.0418 350.3563,-153.0995 351.4784,-146.19"/>
</g>
<!-- Node56 -->
<g id="node13" class="node">
<title>Node56</title>
<g id="a_node13"><a xlink:href="xcsf_8c.html#a474f4e13cfc5f00958c689cd8c81135a" target="_top" xlink:title="Executes a single XCSF learning trial. ">
<polygon fill="none" stroke="#000000" points="385.5,-76.5 385.5,-95.5 468.5,-95.5 468.5,-76.5 385.5,-76.5"/>
<text text-anchor="middle" x="427" y="-83.5" font-family="Helvetica,sans-Serif" font-size="10.00" fill="#000000">xcsf_learn_trial</text>
</a>
</g>
</g>
<!-- Node47&#45;&gt;Node56 -->
<g id="edge15" class="edge">
<title>Node47&#45;&gt;Node56</title>
<path fill="none" stroke="#191970" d="M334.2387,-128.0631C346.7634,-120.6527 362.4385,-111.847 377,-105 384.227,-101.6018 392.2411,-98.3425 399.6978,-95.5123"/>
<polygon fill="#191970" stroke="#191970" points="332.1175,-125.2542 325.3457,-133.4024 335.7207,-131.2557 332.1175,-125.2542"/>
</g>
<!-- Node63 -->
<g id="node20" class="node">
<title>Node63</title>
<g id="a_node20"><a xlink:href="xcsf_8c.html#aa6edd3962ddd04940e2c78a4f99de7cd" target="_top" xlink:title="Executes a single XCSF testing trial. ">
<polygon fill="none" stroke="#000000" points="388,-114.5 388,-133.5 466,-133.5 466,-114.5 388,-114.5"/>
<text text-anchor="middle" x="427" y="-121.5" font-family="Helvetica,sans-Serif" font-size="10.00" fill="#000000">xcsf_test_trial</text>
</a>
</g>
</g>
<!-- Node47&#45;&gt;Node63 -->
<g id="edge23" class="edge">
<title>Node47&#45;&gt;Node63</title>
<path fill="none" stroke="#191970" d="M351.1846,-136.3119C363.0929,-134.3781 376.0533,-132.2734 387.8348,-130.3602"/>
<polygon fill="#191970" stroke="#191970" points="350.3563,-132.9005 341.0467,-137.9582 351.4784,-139.81 350.3563,-132.9005"/>
</g>
<!-- Node66 -->
<g id="node23" class="node">
<title>Node66</title>
<g id="a_node23"><a xlink:href="xcsf_8h.html#af0b9db7273578fdff649d46823cd9790" target="_top" xlink:title="Calculates the XCSF predictions for the provided input. ">
<polygon fill="none" stroke="#000000" points="533,-38.5 533,-57.5 603,-57.5 603,-38.5 533,-38.5"/>
<text text-anchor="middle" x="568" y="-45.5" font-family="Helvetica,sans-Serif" font-size="10.00" fill="#000000">xcsf_predict</text>
</a>
</g>
</g>
<!-- Node47&#45;&gt;Node66 -->
<g id="edge28" class="edge">
<title>Node47&#45;&gt;Node66</title>
<path fill="none" stroke="#191970" d="M320.5668,-124.4751C331.967,-106.4199 351.9066,-79.8636 377,-67 426.5222,-41.6134 492.7139,-41.2629 532.7523,-44.0875"/>
<polygon fill="#191970" stroke="#191970" points="317.2978,-123.1188 315.1334,-133.4902 323.2931,-126.7322 317.2978,-123.1188"/>
</g>
<!-- Node68 -->
<g id="node25" class="node">
<title>Node68</title>
<g id="a_node25"><a xlink:href="xcsf_8h.html#ae1f6851f682e015601030a5c725c6618" target="_top" xlink:title="Prints the XCSF match set for the supplied input. ">
<polygon fill="none" stroke="#000000" points="513,-.5 513,-19.5 623,-19.5 623,-.5 513,-.5"/>
<text text-anchor="middle" x="568" y="-7.5" font-family="Helvetica,sans-Serif" font-size="10.00" fill="#000000">xcsf_print_match_set</text>
</a>
</g>
</g>
<!-- Node47&#45;&gt;Node68 -->
<g id="edge31" class="edge">
<title>Node47&#45;&gt;Node68</title>
<path fill="none" stroke="#191970" d="M316.669,-123.8054C326.0986,-99.7519 345.7471,-59.2349 377,-39 417.2601,-12.9334 472.1392,-6.9393 512.743,-6.7264"/>
<polygon fill="#191970" stroke="#191970" points="313.3496,-122.6902 313.1496,-133.2832 319.9118,-125.127 313.3496,-122.6902"/>
</g>
<!-- Node49 -->
<g id="node6" class="node">
<title>Node49</title>
<g id="a_node6"><a xlink:href="xcs__multi__step_8h.html#acc29d4a55dbd56c16ea5f19f15a7c677" target="_top" xlink:title="Executes a multi&#45;step reinforcement learning experiment. ">
<polygon fill="none" stroke="#000000" points="516,-228.5 516,-247.5 620,-247.5 620,-228.5 516,-228.5"/>
<text text-anchor="middle" x="568" y="-235.5" font-family="Helvetica,sans-Serif" font-size="10.00" fill="#000000">xcs_multi_step_exp</text>
</a>
</g>
</g>
<!-- Node48&#45;&gt;Node49 -->
<g id="edge5" class="edge">
<title>Node48&#45;&gt;Node49</title>
<path fill="none" stroke="#191970" d="M484.8746,-238C495.1708,-238 505.8384,-238 515.96,-238"/>
<polygon fill="#191970" stroke="#191970" points="484.7362,-234.5001 474.7362,-238 484.7361,-241.5001 484.7362,-234.5001"/>
</g>
<!-- Node50 -->
<g id="node7" class="node">
<title>Node50</title>
<g id="a_node7"><a xlink:href="main_8c.html#ab572a67aa431827116ebd6931d667d21" target="_top" xlink:title="classification">
<polygon fill="none" stroke="#000000" points="678.5,-228.5 678.5,-247.5 752.5,-247.5 752.5,-228.5 678.5,-228.5"/>
<text text-anchor="middle" x="715.5" y="-235.5" font-family="Helvetica,sans-Serif" font-size="10.00" fill="#000000">classification</text>
</a>
</g>
</g>
<!-- Node49&#45;&gt;Node50 -->
<g id="edge6" class="edge">
<title>Node49&#45;&gt;Node50</title>
<path fill="none" stroke="#191970" d="M630.0871,-238C646.495,-238 663.6931,-238 678.3212,-238"/>
<polygon fill="#191970" stroke="#191970" points="630.003,-234.5001 620.003,-238 630.0029,-241.5001 630.003,-234.5001"/>
</g>
<!-- Node51 -->
<g id="node8" class="node">
<title>Node51</title>
<g id="a_node8"><a xlink:href="main_8c.html#a3c04138a5bfe5d72780bb7e82a18e627" target="_top" xlink:title="main">
<polygon fill="none" stroke="#000000" points="862,-190.5 862,-209.5 900,-209.5 900,-190.5 862,-190.5"/>
<text text-anchor="middle" x="881" y="-197.5" font-family="Helvetica,sans-Serif" font-size="10.00" fill="#000000">main</text>
</a>
</g>
</g>
<!-- Node50&#45;&gt;Node51 -->
<g id="edge7" class="edge">
<title>Node50&#45;&gt;Node51</title>
<path fill="none" stroke="#191970" d="M762.5453,-227.1981C795.5245,-219.6258 837.8651,-209.9041 861.9621,-204.3713"/>
<polygon fill="#191970" stroke="#191970" points="761.6045,-223.8229 752.6414,-229.4721 763.1711,-230.6454 761.6045,-223.8229"/>
</g>
<!-- Node52&#45;&gt;Node49 -->
<g id="edge9" class="edge">
<title>Node52&#45;&gt;Node49</title>
<path fill="none" stroke="#191970" d="M472.4398,-263.7538C491.875,-258.516 514.2311,-252.4909 532.4311,-247.5859"/>
<polygon fill="#191970" stroke="#191970" points="471.325,-260.4293 462.5803,-266.411 473.1465,-267.1882 471.325,-260.4293"/>
</g>
<!-- Node54 -->
<g id="node11" class="node">
<title>Node54</title>
<g id="a_node11"><a xlink:href="xcs__single__step_8h.html#a39a031bf59eaa9b33e30e614610dcda8" target="_top" xlink:title="Executes a single&#45;step experiment. ">
<polygon fill="none" stroke="#000000" points="514,-190.5 514,-209.5 622,-209.5 622,-190.5 514,-190.5"/>
<text text-anchor="middle" x="568" y="-197.5" font-family="Helvetica,sans-Serif" font-size="10.00" fill="#000000">xcs_single_step_exp</text>
</a>
</g>
</g>
<!-- Node53&#45;&gt;Node54 -->
<g id="edge11" class="edge">
<title>Node53&#45;&gt;Node54</title>
<path fill="none" stroke="#191970" d="M487.2931,-200C496.0823,-200 505.0877,-200 513.7473,-200"/>
<polygon fill="#191970" stroke="#191970" points="487.1084,-196.5001 477.1083,-200 487.1083,-203.5001 487.1084,-196.5001"/>
</g>
<!-- Node54&#45;&gt;Node50 -->
<g id="edge12" class="edge">
<title>Node54&#45;&gt;Node50</title>
<path fill="none" stroke="#191970" d="M615.0141,-212.1121C635.5566,-217.4044 659.2998,-223.5213 678.5472,-228.4799"/>
<polygon fill="#191970" stroke="#191970" points="615.7775,-208.6946 605.2205,-209.589 614.0311,-215.4732 615.7775,-208.6946"/>
</g>
<!-- Node55&#45;&gt;Node54 -->
<g id="edge14" class="edge">
<title>Node55&#45;&gt;Node54</title>
<path fill="none" stroke="#191970" d="M472.4398,-174.2462C491.875,-179.484 514.2311,-185.5091 532.4311,-190.4141"/>
<polygon fill="#191970" stroke="#191970" points="473.1465,-170.8118 462.5803,-171.589 471.325,-177.5707 473.1465,-170.8118"/>
</g>
<!-- Node57 -->
<g id="node14" class="node">
<title>Node57</title>
<g id="a_node14"><a xlink:href="xcsf_8h.html#a874829f28fee20f9ad15b540f4b4d6ff" target="_top" xlink:title="Executes MAX_TRIALS number of XCSF learning iterations using the training data. ">
<polygon fill="none" stroke="#000000" points="541,-76.5 541,-95.5 595,-95.5 595,-76.5 541,-76.5"/>
<text text-anchor="middle" x="568" y="-83.5" font-family="Helvetica,sans-Serif" font-size="10.00" fill="#000000">xcsf_fit1</text>
</a>
</g>
</g>
<!-- Node56&#45;&gt;Node57 -->
<g id="edge16" class="edge">
<title>Node56&#45;&gt;Node57</title>
<path fill="none" stroke="#191970" d="M478.6807,-86C499.8063,-86 523.3646,-86 540.9806,-86"/>
<polygon fill="#191970" stroke="#191970" points="478.5421,-82.5001 468.542,-86 478.542,-89.5001 478.5421,-82.5001"/>
</g>
<!-- Node60 -->
<g id="node17" class="node">
<title>Node60</title>
<g id="a_node17"><a xlink:href="xcsf_8h.html#a0b4de57cb9dadc9deca7901aa36e5025" target="_top" xlink:title="Executes MAX_TRIALS number of XCSF learning iterations using the training. data and test iterations u...">
<polygon fill="none" stroke="#000000" points="541,-114.5 541,-133.5 595,-133.5 595,-114.5 541,-114.5"/>
<text text-anchor="middle" x="568" y="-121.5" font-family="Helvetica,sans-Serif" font-size="10.00" fill="#000000">xcsf_fit2</text>
</a>
</g>
</g>
<!-- Node56&#45;&gt;Node60 -->
<g id="edge19" class="edge">
<title>Node56&#45;&gt;Node60</title>
<path fill="none" stroke="#191970" d="M472.3153,-98.2126C494.9134,-104.3029 521.4861,-111.4643 540.8868,-116.6929"/>
<polygon fill="#191970" stroke="#191970" points="473.1465,-94.8118 462.5803,-95.589 471.325,-101.5707 473.1465,-94.8118"/>
</g>
<!-- Node58 -->
<g id="node15" class="node">
<title>Node58</title>
<g id="a_node15"><a xlink:href="structXCS.html#ad2ccafe59d2b4ae6d0e1cbc15edee53c" target="_top" xlink:title="XCS::fit">
<polygon fill="none" stroke="#000000" points="689.5,-76.5 689.5,-95.5 741.5,-95.5 741.5,-76.5 689.5,-76.5"/>
<text text-anchor="middle" x="715.5" y="-83.5" font-family="Helvetica,sans-Serif" font-size="10.00" fill="#000000">XCS::fit</text>
</a>
</g>
</g>
<!-- Node57&#45;&gt;Node58 -->
<g id="edge17" class="edge">
<title>Node57&#45;&gt;Node58</title>
<path fill="none" stroke="#191970" d="M605.3464,-86C631.4913,-86 665.7833,-86 689.114,-86"/>
<polygon fill="#191970" stroke="#191970" points="605.0538,-82.5001 595.0538,-86 605.0537,-89.5001 605.0538,-82.5001"/>
</g>
<!-- Node59 -->
<g id="node16" class="node">
<title>Node59</title>
<g id="a_node16"><a xlink:href="python__wrapper_8cpp.html#afbdcc1358036a0b83a6b239da2b098a2" target="_top" xlink:title="BOOST_PYTHON_MODULE">
<polygon fill="none" stroke="#000000" points="808,-57.5 808,-76.5 954,-76.5 954,-57.5 808,-57.5"/>
<text text-anchor="middle" x="881" y="-64.5" font-family="Helvetica,sans-Serif" font-size="10.00" fill="#000000">BOOST_PYTHON_MODULE</text>
</a>
</g>
</g>
<!-- Node58&#45;&gt;Node59 -->
<g id="edge18" class="edge">
<title>Node58&#45;&gt;Node59</title>
<path fill="none" stroke="#191970" d="M751.9611,-81.8141C768.3946,-79.9275 788.4187,-77.6287 807.743,-75.4102"/>
<polygon fill="#191970" stroke="#191970" points="751.2595,-78.3716 741.724,-82.9894 752.0579,-85.3259 751.2595,-78.3716"/>
</g>
<!-- Node61 -->
<g id="node18" class="node">
<title>Node61</title>
<g id="a_node18"><a xlink:href="main_8c.html#a968c78da8ed8ad08662a86280deec99a" target="_top" xlink:title="regression">
<polygon fill="none" stroke="#000000" points="684.5,-152.5 684.5,-171.5 746.5,-171.5 746.5,-152.5 684.5,-152.5"/>
<text text-anchor="middle" x="715.5" y="-159.5" font-family="Helvetica,sans-Serif" font-size="10.00" fill="#000000">regression</text>
</a>
</g>
</g>
<!-- Node60&#45;&gt;Node61 -->
<g id="edge20" class="edge">
<title>Node60&#45;&gt;Node61</title>
<path fill="none" stroke="#191970" d="M605.0371,-133.5418C629.4695,-139.8362 661.118,-147.9897 684.2726,-153.955"/>
<polygon fill="#191970" stroke="#191970" points="605.6108,-130.0753 595.0538,-130.9698 603.8644,-136.854 605.6108,-130.0753"/>
</g>
<!-- Node62 -->
<g id="node19" class="node">
<title>Node62</title>
<g id="a_node19"><a xlink:href="structXCS.html#a7d53320740db8e846251bacd0238a9fb" target="_top" xlink:title="XCS::fit">
<polygon fill="none" stroke="#000000" points="689.5,-114.5 689.5,-133.5 741.5,-133.5 741.5,-114.5 689.5,-114.5"/>
<text text-anchor="middle" x="715.5" y="-121.5" font-family="Helvetica,sans-Serif" font-size="10.00" fill="#000000">XCS::fit</text>
</a>
</g>
</g>
<!-- Node60&#45;&gt;Node62 -->
<g id="edge22" class="edge">
<title>Node60&#45;&gt;Node62</title>
<path fill="none" stroke="#191970" d="M605.3464,-124C631.4913,-124 665.7833,-124 689.114,-124"/>
<polygon fill="#191970" stroke="#191970" points="605.0538,-120.5001 595.0538,-124 605.0537,-127.5001 605.0538,-120.5001"/>
</g>
<!-- Node61&#45;&gt;Node51 -->
<g id="edge21" class="edge">
<title>Node61&#45;&gt;Node51</title>
<path fill="none" stroke="#191970" d="M756.6335,-171.4445C790.2693,-179.1676 836.3073,-189.7382 861.8863,-195.6113"/>
<polygon fill="#191970" stroke="#191970" points="757.1589,-167.9742 746.6293,-169.1475 755.5924,-174.7967 757.1589,-167.9742"/>
</g>
<!-- Node63&#45;&gt;Node60 -->
<g id="edge24" class="edge">
<title>Node63&#45;&gt;Node60</title>
<path fill="none" stroke="#191970" d="M476.3319,-124C498.042,-124 522.7041,-124 540.9754,-124"/>
<polygon fill="#191970" stroke="#191970" points="476.2764,-120.5001 466.2764,-124 476.2763,-127.5001 476.2764,-120.5001"/>
</g>
<!-- Node64 -->
<g id="node21" class="node">
<title>Node64</title>
<g id="a_node21"><a xlink:href="xcsf_8h.html#a2cf95733e5f97410d94211b72e835847" target="_top" xlink:title="Calculates the XCSF error for the input data. ">
<polygon fill="none" stroke="#000000" points="535.5,-152.5 535.5,-171.5 600.5,-171.5 600.5,-152.5 535.5,-152.5"/>
<text text-anchor="middle" x="568" y="-159.5" font-family="Helvetica,sans-Serif" font-size="10.00" fill="#000000">xcsf_score</text>
</a>
</g>
</g>
<!-- Node63&#45;&gt;Node64 -->
<g id="edge25" class="edge">
<title>Node63&#45;&gt;Node64</title>
<path fill="none" stroke="#191970" d="M472.3459,-136.2209C492.8477,-141.7462 516.6159,-148.1518 535.3306,-153.1955"/>
<polygon fill="#191970" stroke="#191970" points="473.1465,-132.8118 462.5803,-133.589 471.325,-139.5707 473.1465,-132.8118"/>
</g>
<!-- Node65 -->
<g id="node22" class="node">
<title>Node65</title>
<g id="a_node22"><a xlink:href="structXCS.html#aa77bc77484d6d14bf512304a23cfec88" target="_top" xlink:title="XCS::score">
<polygon fill="none" stroke="#000000" points="681.5,-190.5 681.5,-209.5 749.5,-209.5 749.5,-190.5 681.5,-190.5"/>
<text text-anchor="middle" x="715.5" y="-197.5" font-family="Helvetica,sans-Serif" font-size="10.00" fill="#000000">XCS::score</text>
</a>
</g>
</g>
<!-- Node64&#45;&gt;Node65 -->
<g id="edge26" class="edge">
<title>Node64&#45;&gt;Node65</title>
<path fill="none" stroke="#191970" d="M610.6796,-172.9954C633.1279,-178.7787 660.2761,-185.7728 681.3188,-191.194"/>
<polygon fill="#191970" stroke="#191970" points="611.292,-169.539 600.735,-170.4334 609.5456,-176.3176 611.292,-169.539"/>
</g>
<!-- Node65&#45;&gt;Node59 -->
<g id="edge27" class="edge">
<title>Node65&#45;&gt;Node59</title>
<path fill="none" stroke="#191970" d="M758.98,-187.8145C763.5243,-185.833 767.9549,-183.5706 772,-181 818.2217,-151.6264 858.7503,-98.569 874.2698,-76.7619"/>
<polygon fill="#191970" stroke="#191970" points="757.6147,-184.5903 749.5797,-191.4961 760.1674,-191.1082 757.6147,-184.5903"/>
</g>
<!-- Node67 -->
<g id="node24" class="node">
<title>Node67</title>
<g id="a_node24"><a xlink:href="structXCS.html#a911ed75c86abed7807d33eb1385240ed" target="_top" xlink:title="XCS::predict">
<polygon fill="none" stroke="#000000" points="679,-38.5 679,-57.5 752,-57.5 752,-38.5 679,-38.5"/>
<text text-anchor="middle" x="715.5" y="-45.5" font-family="Helvetica,sans-Serif" font-size="10.00" fill="#000000">XCS::predict</text>
</a>
</g>
</g>
<!-- Node66&#45;&gt;Node67 -->
<g id="edge29" class="edge">
<title>Node66&#45;&gt;Node67</title>
<path fill="none" stroke="#191970" d="M613.3334,-48C634.3834,-48 659.0797,-48 678.9179,-48"/>
<polygon fill="#191970" stroke="#191970" points="613.33,-44.5001 603.3299,-48 613.3299,-51.5001 613.33,-44.5001"/>
</g>
<!-- Node67&#45;&gt;Node59 -->
<g id="edge30" class="edge">
<title>Node67&#45;&gt;Node59</title>
<path fill="none" stroke="#191970" d="M762.1994,-53.3613C776.359,-54.9868 792.2692,-56.8134 807.7317,-58.5885"/>
<polygon fill="#191970" stroke="#191970" points="762.5638,-49.8802 752.2298,-52.2167 761.7653,-56.8345 762.5638,-49.8802"/>
</g>
<!-- Node69 -->
<g id="node26" class="node">
<title>Node69</title>
<g id="a_node26"><a xlink:href="structXCS.html#aa5608b379fae01b724267a99068d55bb" target="_top" xlink:title="XCS::print_match_set">
<polygon fill="none" stroke="#000000" points="659,-.5 659,-19.5 772,-19.5 772,-.5 659,-.5"/>
<text text-anchor="middle" x="715.5" y="-7.5" font-family="Helvetica,sans-Serif" font-size="10.00" fill="#000000">XCS::print_match_set</text>
</a>
</g>
</g>
<!-- Node68&#45;&gt;Node69 -->
<g id="edge32" class="edge">
<title>Node68&#45;&gt;Node69</title>
<path fill="none" stroke="#191970" d="M633.542,-10C641.9872,-10 650.5777,-10 658.8632,-10"/>
<polygon fill="#191970" stroke="#191970" points="633.3432,-6.5001 623.3432,-10 633.3432,-13.5001 633.3432,-6.5001"/>
</g>
<!-- Node69&#45;&gt;Node59 -->
<g id="edge33" class="edge">
<title>Node69&#45;&gt;Node59</title>
<path fill="none" stroke="#191970" d="M753.4998,-22.7146C759.6871,-24.8033 766.0246,-26.9538 772,-29 799.8708,-38.5441 831.674,-49.6571 853.7037,-57.3902"/>
<polygon fill="#191970" stroke="#191970" points="754.5681,-19.3813 743.974,-19.5071 752.3342,-26.0153 754.5681,-19.3813"/>
</g>
</g>
</svg>
