<?xml version="1.0" encoding="UTF-8" standalone="no"?>
<!DOCTYPE svg PUBLIC "-//W3C//DTD SVG 1.1//EN"
 "http://www.w3.org/Graphics/SVG/1.1/DTD/svg11.dtd">
<!-- Generated by graphviz version 2.40.1 (20161225.0304)
 -->
<!-- Title: scal_cpu Pages: 1 -->
<svg width="313pt" height="39pt"
 viewBox="0.00 0.00 313.00 39.00" xmlns="http://www.w3.org/2000/svg" xmlns:xlink="http://www.w3.org/1999/xlink">
<g id="graph0" class="graph" transform="scale(1 1) rotate(0) translate(4 35)">
<title>scal_cpu</title>
<!-- Node80 -->
<g id="node1" class="node">
<title>Node80</title>
<polygon fill="#bfbfbf" stroke="#000000" points="0,-6 0,-25 56,-25 56,-6 0,-6"/>
<text text-anchor="middle" x="28" y="-13" font-family="Helvetica,sans-Serif" font-size="10.00" fill="#000000">scal_cpu</text>
</g>
<!-- Node81 -->
<g id="node2" class="node">
<title>Node81</title>
<g id="a_node2"><a xlink:href="blas_8h.html#a8206d0e5c583b51b9526d83cecc39e87" target="_top" xlink:title="blas_scal">
<polygon fill="none" stroke="#000000" points="92,-6 92,-25 150,-25 150,-6 92,-6"/>
<text text-anchor="middle" x="121" y="-13" font-family="Helvetica,sans-Serif" font-size="10.00" fill="#000000">blas_scal</text>
</a>
</g>
</g>
<!-- Node80&#45;&gt;Node81 -->
<g id="edge1" class="edge">
<title>Node80&#45;&gt;Node81</title>
<path fill="none" stroke="#191970" d="M66.3365,-15.5C74.9053,-15.5 83.8558,-15.5 91.9747,-15.5"/>
<polygon fill="#191970" stroke="#191970" points="66.1555,-12.0001 56.1554,-15.5 66.1554,-19.0001 66.1555,-12.0001"/>
</g>
<!-- Node82 -->
<g id="node3" class="node">
<title>Node82</title>
<g id="a_node3"><a xlink:href="neural__layer__connected_8h.html#abe463e61d0410cd3cdaa53bed790965d" target="_top" xlink:title="neural_layer_connected\l_update">
<polygon fill="none" stroke="#000000" points="186,-.5 186,-30.5 305,-30.5 305,-.5 186,-.5"/>
<text text-anchor="start" x="194" y="-18.5" font-family="Helvetica,sans-Serif" font-size="10.00" fill="#000000">neural_layer_connected</text>
<text text-anchor="middle" x="245.5" y="-7.5" font-family="Helvetica,sans-Serif" font-size="10.00" fill="#000000">_update</text>
</a>
</g>
</g>
<!-- Node81&#45;&gt;Node82 -->
<g id="edge2" class="edge">
<title>Node81&#45;&gt;Node82</title>
<path fill="none" stroke="#191970" d="M160.3631,-15.5C168.4029,-15.5 177.0343,-15.5 185.6061,-15.5"/>
<polygon fill="#191970" stroke="#191970" points="160.1898,-12.0001 150.1897,-15.5 160.1897,-19.0001 160.1898,-12.0001"/>
</g>
</g>
</svg>
