<?xml version="1.0" encoding="UTF-8" standalone="no"?>
<!DOCTYPE svg PUBLIC "-//W3C//DTD SVG 1.1//EN"
 "http://www.w3.org/Graphics/SVG/1.1/DTD/svg11.dtd">
<!-- Generated by graphviz version 2.40.1 (20161225.0304)
 -->
<!-- Title: gemm_tt Pages: 1 -->
<svg width="166pt" height="294pt"
 viewBox="0.00 0.00 166.00 294.00" xmlns="http://www.w3.org/2000/svg" xmlns:xlink="http://www.w3.org/1999/xlink">
<g id="graph0" class="graph" transform="scale(1 1) rotate(0) translate(4 290)">
<title>gemm_tt</title>
<!-- Node9 -->
<g id="node1" class="node">
<title>Node9</title>
<polygon fill="#bfbfbf" stroke="#000000" points="0,-133.5 0,-152.5 55,-152.5 55,-133.5 0,-133.5"/>
<text text-anchor="middle" x="27.5" y="-140.5" font-family="Helvetica,sans-Serif" font-size="10.00" fill="#000000">gemm_tt</text>
</g>
<!-- Node10 -->
<g id="node2" class="node">
<title>Node10</title>
<g id="a_node2"><a xlink:href="blas_8h.html#ad58784c49cb497c041e461a3fb6d3a56" target="_top" xlink:title="blas_axpy">
<polygon fill="none" stroke="#000000" points="94,-266.5 94,-285.5 155,-285.5 155,-266.5 94,-266.5"/>
<text text-anchor="middle" x="124.5" y="-273.5" font-family="Helvetica,sans-Serif" font-size="10.00" fill="#000000">blas_axpy</text>
</a>
</g>
</g>
<!-- Node9&#45;&gt;Node10 -->
<g id="edge1" class="edge">
<title>Node9&#45;&gt;Node10</title>
<path fill="none" stroke="#191970" d="M30.8194,-152.6787C38.4881,-173.8634 59.2444,-224.9986 91,-257 92.2304,-258.2399 93.5585,-259.4246 94.9517,-260.5525"/>
<polygon fill="#191970" stroke="#191970" points="93.192,-263.5903 103.4132,-266.3792 97.1621,-257.825 93.192,-263.5903"/>
</g>
<!-- Node11 -->
<g id="node3" class="node">
<title>Node11</title>
<g id="a_node3"><a xlink:href="blas_8h.html#a0b8527684a792f4eef8ff8110294bdc5" target="_top" xlink:title="blas_dot">
<polygon fill="none" stroke="#000000" points="98,-228.5 98,-247.5 151,-247.5 151,-228.5 98,-228.5"/>
<text text-anchor="middle" x="124.5" y="-235.5" font-family="Helvetica,sans-Serif" font-size="10.00" fill="#000000">blas_dot</text>
</a>
</g>
</g>
<!-- Node9&#45;&gt;Node11 -->
<g id="edge2" class="edge">
<title>Node9&#45;&gt;Node11</title>
<path fill="none" stroke="#191970" d="M33.9789,-152.8439C44.5317,-168.3375 66.7083,-198.7319 91,-219 92.7102,-220.427 94.5426,-221.8043 96.4365,-223.1207"/>
<polygon fill="#191970" stroke="#191970" points="94.6148,-226.1096 104.9439,-228.4675 98.3396,-220.1829 94.6148,-226.1096"/>
</g>
<!-- Node12 -->
<g id="node4" class="node">
<title>Node12</title>
<g id="a_node4"><a xlink:href="blas_8h.html#a95eb315efef08b5eb4694c3ca6bfe633" target="_top" xlink:title="blas_fill">
<polygon fill="none" stroke="#000000" points="99.5,-190.5 99.5,-209.5 149.5,-209.5 149.5,-190.5 99.5,-190.5"/>
<text text-anchor="middle" x="124.5" y="-197.5" font-family="Helvetica,sans-Serif" font-size="10.00" fill="#000000">blas_fill</text>
</a>
</g>
</g>
<!-- Node9&#45;&gt;Node12 -->
<g id="edge3" class="edge">
<title>Node9&#45;&gt;Node12</title>
<path fill="none" stroke="#191970" d="M43.3579,-152.6294C56.1667,-160.3736 74.6822,-171.4918 91,-181 93.4914,-182.4517 96.094,-183.9535 98.6998,-185.4473"/>
<polygon fill="#191970" stroke="#191970" points="96.9921,-188.5025 107.4137,-190.4108 100.4568,-182.42 96.9921,-188.5025"/>
</g>
<!-- Node13 -->
<g id="node5" class="node">
<title>Node13</title>
<g id="a_node5"><a xlink:href="blas_8h.html#a1a64812460975600e087a38bbfd292aa" target="_top" xlink:title="blas_gemm">
<polygon fill="none" stroke="#000000" points="91,-152.5 91,-171.5 158,-171.5 158,-152.5 91,-152.5"/>
<text text-anchor="middle" x="124.5" y="-159.5" font-family="Helvetica,sans-Serif" font-size="10.00" fill="#000000">blas_gemm</text>
</a>
</g>
</g>
<!-- Node9&#45;&gt;Node13 -->
<g id="edge4" class="edge">
<title>Node9&#45;&gt;Node13</title>
<path fill="none" stroke="#191970" d="M55.0368,-148.3938C63.0079,-149.9551 71.9143,-151.6997 80.6204,-153.405"/>
<polygon fill="#191970" stroke="#191970" points="80.1942,-156.888 90.6805,-155.3756 81.5398,-150.0185 80.1942,-156.888"/>
</g>
<!-- Node14 -->
<g id="node6" class="node">
<title>Node14</title>
<g id="a_node6"><a xlink:href="blas_8h.html#a8206d0e5c583b51b9526d83cecc39e87" target="_top" xlink:title="blas_scal">
<polygon fill="none" stroke="#000000" points="95.5,-114.5 95.5,-133.5 153.5,-133.5 153.5,-114.5 95.5,-114.5"/>
<text text-anchor="middle" x="124.5" y="-121.5" font-family="Helvetica,sans-Serif" font-size="10.00" fill="#000000">blas_scal</text>
</a>
</g>
</g>
<!-- Node9&#45;&gt;Node14 -->
<g id="edge5" class="edge">
<title>Node9&#45;&gt;Node14</title>
<path fill="none" stroke="#191970" d="M55.0368,-137.6062C64.4466,-135.763 75.1601,-133.6645 85.3085,-131.6767"/>
<polygon fill="#191970" stroke="#191970" points="86.0587,-135.0963 95.1994,-129.7393 84.7131,-128.2269 86.0587,-135.0963"/>
</g>
<!-- Node15 -->
<g id="node7" class="node">
<title>Node15</title>
<g id="a_node7"><a xlink:href="blas_8c.html#a19039ca820abf5f9fe5963ce118f836d" target="_top" xlink:title="gemm_nn">
<polygon fill="none" stroke="#000000" points="95,-76.5 95,-95.5 154,-95.5 154,-76.5 95,-76.5"/>
<text text-anchor="middle" x="124.5" y="-83.5" font-family="Helvetica,sans-Serif" font-size="10.00" fill="#000000">gemm_nn</text>
</a>
</g>
</g>
<!-- Node9&#45;&gt;Node15 -->
<g id="edge6" class="edge">
<title>Node9&#45;&gt;Node15</title>
<path fill="none" stroke="#191970" d="M43.3579,-133.3706C56.1667,-125.6264 74.6822,-114.5082 91,-105 93.4914,-103.5483 96.094,-102.0465 98.6998,-100.5527"/>
<polygon fill="#191970" stroke="#191970" points="100.4568,-103.58 107.4137,-95.5892 96.9921,-97.4975 100.4568,-103.58"/>
</g>
<!-- Node16 -->
<g id="node8" class="node">
<title>Node16</title>
<g id="a_node8"><a xlink:href="blas_8c.html#aca9b706fd3bbf0bd260e60636311846d" target="_top" xlink:title="gemm_nt">
<polygon fill="none" stroke="#000000" points="96,-38.5 96,-57.5 153,-57.5 153,-38.5 96,-38.5"/>
<text text-anchor="middle" x="124.5" y="-45.5" font-family="Helvetica,sans-Serif" font-size="10.00" fill="#000000">gemm_nt</text>
</a>
</g>
</g>
<!-- Node9&#45;&gt;Node16 -->
<g id="edge7" class="edge">
<title>Node9&#45;&gt;Node16</title>
<path fill="none" stroke="#191970" d="M33.9789,-133.1561C44.5317,-117.6625 66.7083,-87.2681 91,-67 92.7102,-65.573 94.5426,-64.1957 96.4365,-62.8793"/>
<polygon fill="#191970" stroke="#191970" points="98.3396,-65.8171 104.9439,-57.5325 94.6148,-59.8904 98.3396,-65.8171"/>
</g>
<!-- Node17 -->
<g id="node9" class="node">
<title>Node17</title>
<g id="a_node9"><a xlink:href="blas_8c.html#a1903d50ec698fb744676468e78834763" target="_top" xlink:title="gemm_tn">
<polygon fill="none" stroke="#000000" points="96,-.5 96,-19.5 153,-19.5 153,-.5 96,-.5"/>
<text text-anchor="middle" x="124.5" y="-7.5" font-family="Helvetica,sans-Serif" font-size="10.00" fill="#000000">gemm_tn</text>
</a>
</g>
</g>
<!-- Node9&#45;&gt;Node17 -->
<g id="edge8" class="edge">
<title>Node9&#45;&gt;Node17</title>
<path fill="none" stroke="#191970" d="M30.8194,-133.3213C38.4881,-112.1366 59.2444,-61.0014 91,-29 92.2304,-27.7601 93.5585,-26.5754 94.9517,-25.4475"/>
<polygon fill="#191970" stroke="#191970" points="97.1621,-28.175 103.4132,-19.6208 93.192,-22.4097 97.1621,-28.175"/>
</g>
</g>
</svg>
