<?xml version="1.0" encoding="UTF-8" standalone="no"?>
<!DOCTYPE svg PUBLIC "-//W3C//DTD SVG 1.1//EN"
 "http://www.w3.org/Graphics/SVG/1.1/DTD/svg11.dtd">
<!-- Generated by graphviz version 2.40.1 (20161225.0304)
 -->
<!-- Title: blas_gemm Pages: 1 -->
<svg width="230pt" height="127pt"
 viewBox="0.00 0.00 230.00 126.50" xmlns="http://www.w3.org/2000/svg" xmlns:xlink="http://www.w3.org/1999/xlink">
<g id="graph0" class="graph" transform="scale(1 1) rotate(0) translate(4 122.5)">
<title>blas_gemm</title>
<!-- Node25 -->
<g id="node1" class="node">
<title>Node25</title>
<polygon fill="#bfbfbf" stroke="#000000" points="0,-44.5 0,-63.5 67,-63.5 67,-44.5 0,-44.5"/>
<text text-anchor="middle" x="33.5" y="-51.5" font-family="Helvetica,sans-Serif" font-size="10.00" fill="#000000">blas_gemm</text>
</g>
<!-- Node26 -->
<g id="node2" class="node">
<title>Node26</title>
<g id="a_node2"><a xlink:href="neural__layer__connected_8h.html#a8e8fd2c51210cf48be30744562800817" target="_top" xlink:title="neural_layer_connected\l_backward">
<polygon fill="none" stroke="#000000" points="103,-88 103,-118 222,-118 222,-88 103,-88"/>
<text text-anchor="start" x="111" y="-106" font-family="Helvetica,sans-Serif" font-size="10.00" fill="#000000">neural_layer_connected</text>
<text text-anchor="middle" x="162.5" y="-95" font-family="Helvetica,sans-Serif" font-size="10.00" fill="#000000">_backward</text>
</a>
</g>
</g>
<!-- Node25&#45;&gt;Node26 -->
<g id="edge1" class="edge">
<title>Node25&#45;&gt;Node26</title>
<path fill="none" stroke="#191970" d="M68.1654,-67.1675C85.0459,-73.5795 105.4232,-81.3197 122.9129,-87.963"/>
<polygon fill="#191970" stroke="#191970" points="69.2699,-63.8431 58.6787,-63.564 66.7842,-70.3869 69.2699,-63.8431"/>
</g>
<!-- Node27 -->
<g id="node3" class="node">
<title>Node27</title>
<g id="a_node3"><a xlink:href="neural__layer__connected_8h.html#a328a93f8dc067e67c2eadb1e044c2684" target="_top" xlink:title="neural_layer_connected\l_forward">
<polygon fill="none" stroke="#000000" points="103,-39 103,-69 222,-69 222,-39 103,-39"/>
<text text-anchor="start" x="111" y="-57" font-family="Helvetica,sans-Serif" font-size="10.00" fill="#000000">neural_layer_connected</text>
<text text-anchor="middle" x="162.5" y="-46" font-family="Helvetica,sans-Serif" font-size="10.00" fill="#000000">_forward</text>
</a>
</g>
</g>
<!-- Node25&#45;&gt;Node27 -->
<g id="edge2" class="edge">
<title>Node25&#45;&gt;Node27</title>
<path fill="none" stroke="#191970" d="M77.197,-54C85.4551,-54 94.2227,-54 102.8728,-54"/>
<polygon fill="#191970" stroke="#191970" points="77.0565,-50.5001 67.0565,-54 77.0564,-57.5001 77.0565,-50.5001"/>
</g>
<!-- Node28 -->
<g id="node4" class="node">
<title>Node28</title>
<g id="a_node4"><a xlink:href="pred__rls_8h.html#a7bba07e0ef91a4d9f687a0e28ef0a19d" target="_top" xlink:title="pred_rls_update">
<polygon fill="none" stroke="#000000" points="119.5,-.5 119.5,-19.5 205.5,-19.5 205.5,-.5 119.5,-.5"/>
<text text-anchor="middle" x="162.5" y="-7.5" font-family="Helvetica,sans-Serif" font-size="10.00" fill="#000000">pred_rls_update</text>
</a>
</g>
</g>
<!-- Node25&#45;&gt;Node28 -->
<g id="edge3" class="edge">
<title>Node25&#45;&gt;Node28</title>
<path fill="none" stroke="#191970" d="M70.5778,-41.1329C81.0549,-37.5143 92.4698,-33.5879 103,-30 113.1092,-26.5556 124.198,-22.8174 134.0349,-19.5151"/>
<polygon fill="#191970" stroke="#191970" points="69.1865,-37.9106 60.8797,-44.4869 71.4745,-44.5261 69.1865,-37.9106"/>
</g>
</g>
</svg>
