<?xml version="1.0" encoding="UTF-8" standalone="no"?>
<!DOCTYPE svg PUBLIC "-//W3C//DTD SVG 1.1//EN"
 "http://www.w3.org/Graphics/SVG/1.1/DTD/svg11.dtd">
<!-- Generated by graphviz version 2.40.1 (20161225.0304)
 -->
<!-- Title: blas_gemm Pages: 1 -->
<svg width="271pt" height="142pt"
 viewBox="0.00 0.00 271.00 142.00" xmlns="http://www.w3.org/2000/svg" xmlns:xlink="http://www.w3.org/1999/xlink">
<g id="graph0" class="graph" transform="scale(1 1) rotate(0) translate(4 138)">
<title>blas_gemm</title>
<!-- Node13 -->
<g id="node1" class="node">
<title>Node13</title>
<polygon fill="#bfbfbf" stroke="#000000" points="0,-38.5 0,-57.5 67,-57.5 67,-38.5 0,-38.5"/>
<text text-anchor="middle" x="33.5" y="-45.5" font-family="Helvetica,sans-Serif" font-size="10.00" fill="#000000">blas_gemm</text>
</g>
<!-- Node14 -->
<g id="node2" class="node">
<title>Node14</title>
<g id="a_node2"><a xlink:href="blas_8c.html#acc5e5ab67771cd6b3ada2fd6533899c3" target="_top" xlink:title="gemm_cpu">
<polygon fill="none" stroke="#000000" points="103,-57.5 103,-76.5 168,-76.5 168,-57.5 103,-57.5"/>
<text text-anchor="middle" x="135.5" y="-64.5" font-family="Helvetica,sans-Serif" font-size="10.00" fill="#000000">gemm_cpu</text>
</a>
</g>
</g>
<!-- Node13&#45;&gt;Node14 -->
<g id="edge1" class="edge">
<title>Node13&#45;&gt;Node14</title>
<path fill="none" stroke="#191970" d="M67.1813,-54.274C75.4394,-55.8122 84.385,-57.4786 92.9978,-59.0829"/>
<polygon fill="#191970" stroke="#191970" points="92.4227,-62.5359 102.8946,-60.9264 93.7046,-55.6543 92.4227,-62.5359"/>
</g>
<!-- Node19 -->
<g id="node7" class="node">
<title>Node19</title>
<g id="a_node7"><a xlink:href="blas__kernels_8h.html#a7c242c058a1b94bb7374cabcaa640da7" target="_top" xlink:title="gemm_gpu">
<polygon fill="none" stroke="#000000" points="103,-19.5 103,-38.5 168,-38.5 168,-19.5 103,-19.5"/>
<text text-anchor="middle" x="135.5" y="-26.5" font-family="Helvetica,sans-Serif" font-size="10.00" fill="#000000">gemm_gpu</text>
</a>
</g>
</g>
<!-- Node13&#45;&gt;Node19 -->
<g id="edge6" class="edge">
<title>Node13&#45;&gt;Node19</title>
<path fill="none" stroke="#191970" d="M67.1813,-41.726C75.4394,-40.1878 84.385,-38.5214 92.9978,-36.9171"/>
<polygon fill="#191970" stroke="#191970" points="93.7046,-40.3457 102.8946,-35.0736 92.4227,-33.4641 93.7046,-40.3457"/>
</g>
<!-- Node15 -->
<g id="node3" class="node">
<title>Node15</title>
<g id="a_node3"><a xlink:href="blas_8c.html#a19039ca820abf5f9fe5963ce118f836d" target="_top" xlink:title="gemm_nn">
<polygon fill="none" stroke="#000000" points="204,-114.5 204,-133.5 263,-133.5 263,-114.5 204,-114.5"/>
<text text-anchor="middle" x="233.5" y="-121.5" font-family="Helvetica,sans-Serif" font-size="10.00" fill="#000000">gemm_nn</text>
</a>
</g>
</g>
<!-- Node14&#45;&gt;Node15 -->
<g id="edge2" class="edge">
<title>Node14&#45;&gt;Node15</title>
<path fill="none" stroke="#191970" d="M152.1244,-76.6693C167.5634,-85.6491 190.7641,-99.1434 208.4473,-109.4285"/>
<polygon fill="#191970" stroke="#191970" points="206.7172,-112.4712 217.1212,-114.4735 210.2367,-106.4203 206.7172,-112.4712"/>
</g>
<!-- Node16 -->
<g id="node4" class="node">
<title>Node16</title>
<g id="a_node4"><a xlink:href="blas_8c.html#aca9b706fd3bbf0bd260e60636311846d" target="_top" xlink:title="gemm_nt">
<polygon fill="none" stroke="#000000" points="205,-76.5 205,-95.5 262,-95.5 262,-76.5 205,-76.5"/>
<text text-anchor="middle" x="233.5" y="-83.5" font-family="Helvetica,sans-Serif" font-size="10.00" fill="#000000">gemm_nt</text>
</a>
</g>
</g>
<!-- Node14&#45;&gt;Node16 -->
<g id="edge3" class="edge">
<title>Node14&#45;&gt;Node16</title>
<path fill="none" stroke="#191970" d="M168.1326,-73.3267C176.6969,-74.9872 186.0149,-76.7937 194.8608,-78.5087"/>
<polygon fill="#191970" stroke="#191970" points="194.4714,-81.9983 204.9548,-80.4657 195.8038,-75.1263 194.4714,-81.9983"/>
</g>
<!-- Node17 -->
<g id="node5" class="node">
<title>Node17</title>
<g id="a_node5"><a xlink:href="blas_8c.html#a1903d50ec698fb744676468e78834763" target="_top" xlink:title="gemm_tn">
<polygon fill="none" stroke="#000000" points="205,-38.5 205,-57.5 262,-57.5 262,-38.5 205,-38.5"/>
<text text-anchor="middle" x="233.5" y="-45.5" font-family="Helvetica,sans-Serif" font-size="10.00" fill="#000000">gemm_tn</text>
</a>
</g>
</g>
<!-- Node14&#45;&gt;Node17 -->
<g id="edge4" class="edge">
<title>Node14&#45;&gt;Node17</title>
<path fill="none" stroke="#191970" d="M168.1326,-60.6733C176.6969,-59.0128 186.0149,-57.2063 194.8608,-55.4913"/>
<polygon fill="#191970" stroke="#191970" points="195.8038,-58.8737 204.9548,-53.5343 194.4714,-52.0017 195.8038,-58.8737"/>
</g>
<!-- Node18 -->
<g id="node6" class="node">
<title>Node18</title>
<g id="a_node6"><a xlink:href="blas_8c.html#a4f55eb00f6ea7089b7f77697e9511ec0" target="_top" xlink:title="gemm_tt">
<polygon fill="none" stroke="#000000" points="206,-.5 206,-19.5 261,-19.5 261,-.5 206,-.5"/>
<text text-anchor="middle" x="233.5" y="-7.5" font-family="Helvetica,sans-Serif" font-size="10.00" fill="#000000">gemm_tt</text>
</a>
</g>
</g>
<!-- Node14&#45;&gt;Node18 -->
<g id="edge5" class="edge">
<title>Node14&#45;&gt;Node18</title>
<path fill="none" stroke="#191970" d="M152.1244,-57.3307C167.5634,-48.3509 190.7641,-34.8566 208.4473,-24.5715"/>
<polygon fill="#191970" stroke="#191970" points="210.2367,-27.5797 217.1212,-19.5265 206.7172,-21.5288 210.2367,-27.5797"/>
</g>
</g>
</svg>
