<?xml version="1.0" encoding="UTF-8" standalone="no"?>
<!DOCTYPE svg PUBLIC "-//W3C//DTD SVG 1.1//EN"
 "http://www.w3.org/Graphics/SVG/1.1/DTD/svg11.dtd">
<!-- Generated by graphviz version 2.40.1 (20161225.0304)
 -->
<!-- Title: blas_gemm Pages: 1 -->
<svg width="170pt" height="142pt"
 viewBox="0.00 0.00 170.00 142.00" xmlns="http://www.w3.org/2000/svg" xmlns:xlink="http://www.w3.org/1999/xlink">
<g id="graph0" class="graph" transform="scale(1 1) rotate(0) translate(4 138)">
<title>blas_gemm</title>
<!-- Node20 -->
<g id="node1" class="node">
<title>Node20</title>
<polygon fill="#bfbfbf" stroke="#000000" points="0,-57.5 0,-76.5 67,-76.5 67,-57.5 0,-57.5"/>
<text text-anchor="middle" x="33.5" y="-64.5" font-family="Helvetica,sans-Serif" font-size="10.00" fill="#000000">blas_gemm</text>
</g>
<!-- Node21 -->
<g id="node2" class="node">
<title>Node21</title>
<g id="a_node2"><a xlink:href="blas_8c.html#a19039ca820abf5f9fe5963ce118f836d" target="_top" xlink:title="gemm_nn">
<polygon fill="none" stroke="#000000" points="103,-114.5 103,-133.5 162,-133.5 162,-114.5 103,-114.5"/>
<text text-anchor="middle" x="132.5" y="-121.5" font-family="Helvetica,sans-Serif" font-size="10.00" fill="#000000">gemm_nn</text>
</a>
</g>
</g>
<!-- Node20&#45;&gt;Node21 -->
<g id="edge1" class="edge">
<title>Node20&#45;&gt;Node21</title>
<path fill="none" stroke="#191970" d="M50.294,-76.6693C65.8905,-85.6491 89.328,-99.1434 107.1916,-109.4285"/>
<polygon fill="#191970" stroke="#191970" points="105.5414,-112.517 115.954,-114.4735 109.0342,-106.4506 105.5414,-112.517"/>
</g>
<!-- Node22 -->
<g id="node3" class="node">
<title>Node22</title>
<g id="a_node3"><a xlink:href="blas_8c.html#aca9b706fd3bbf0bd260e60636311846d" target="_top" xlink:title="gemm_nt">
<polygon fill="none" stroke="#000000" points="104,-76.5 104,-95.5 161,-95.5 161,-76.5 104,-76.5"/>
<text text-anchor="middle" x="132.5" y="-83.5" font-family="Helvetica,sans-Serif" font-size="10.00" fill="#000000">gemm_nt</text>
</a>
</g>
</g>
<!-- Node20&#45;&gt;Node22 -->
<g id="edge2" class="edge">
<title>Node20&#45;&gt;Node22</title>
<path fill="none" stroke="#191970" d="M67.0169,-73.4325C75.645,-75.0884 84.9989,-76.8836 93.8638,-78.585"/>
<polygon fill="#191970" stroke="#191970" points="93.4925,-82.0775 103.973,-80.5251 94.812,-75.203 93.4925,-82.0775"/>
</g>
<!-- Node23 -->
<g id="node4" class="node">
<title>Node23</title>
<g id="a_node4"><a xlink:href="blas_8c.html#a1903d50ec698fb744676468e78834763" target="_top" xlink:title="gemm_tn">
<polygon fill="none" stroke="#000000" points="104,-38.5 104,-57.5 161,-57.5 161,-38.5 104,-38.5"/>
<text text-anchor="middle" x="132.5" y="-45.5" font-family="Helvetica,sans-Serif" font-size="10.00" fill="#000000">gemm_tn</text>
</a>
</g>
</g>
<!-- Node20&#45;&gt;Node23 -->
<g id="edge3" class="edge">
<title>Node20&#45;&gt;Node23</title>
<path fill="none" stroke="#191970" d="M67.0169,-60.5675C75.645,-58.9116 84.9989,-57.1164 93.8638,-55.415"/>
<polygon fill="#191970" stroke="#191970" points="94.812,-58.797 103.973,-53.4749 93.4925,-51.9225 94.812,-58.797"/>
</g>
<!-- Node24 -->
<g id="node5" class="node">
<title>Node24</title>
<g id="a_node5"><a xlink:href="blas_8c.html#a4f55eb00f6ea7089b7f77697e9511ec0" target="_top" xlink:title="gemm_tt">
<polygon fill="none" stroke="#000000" points="105,-.5 105,-19.5 160,-19.5 160,-.5 105,-.5"/>
<text text-anchor="middle" x="132.5" y="-7.5" font-family="Helvetica,sans-Serif" font-size="10.00" fill="#000000">gemm_tt</text>
</a>
</g>
</g>
<!-- Node20&#45;&gt;Node24 -->
<g id="edge4" class="edge">
<title>Node20&#45;&gt;Node24</title>
<path fill="none" stroke="#191970" d="M50.294,-57.3307C65.8905,-48.3509 89.328,-34.8566 107.1916,-24.5715"/>
<polygon fill="#191970" stroke="#191970" points="109.0342,-27.5494 115.954,-19.5265 105.5414,-21.483 109.0342,-27.5494"/>
</g>
</g>
</svg>
