<?xml version="1.0" encoding="UTF-8" standalone="no"?>
<!DOCTYPE svg PUBLIC "-//W3C//DTD SVG 1.1//EN"
 "http://www.w3.org/Graphics/SVG/1.1/DTD/svg11.dtd">
<!-- Generated by graphviz version 2.40.1 (20161225.0304)
 -->
<!-- Title: cl_predict Pages: 1 -->
<svg width="848pt" height="294pt"
 viewBox="0.00 0.00 848.00 294.00" xmlns="http://www.w3.org/2000/svg" xmlns:xlink="http://www.w3.org/1999/xlink">
<g id="graph0" class="graph" transform="scale(1 1) rotate(0) translate(4 290)">
<title>cl_predict</title>
<!-- Node371 -->
<g id="node1" class="node">
<title>Node371</title>
<polygon fill="#bfbfbf" stroke="#000000" points="0,-150.5 0,-169.5 59,-169.5 59,-150.5 0,-150.5"/>
<text text-anchor="middle" x="29.5" y="-157.5" font-family="Helvetica,sans-Serif" font-size="10.00" fill="#000000">cl_predict</text>
</g>
<!-- Node372 -->
<g id="node2" class="node">
<title>Node372</title>
<g id="a_node2"><a xlink:href="cl_8h.html#ad3ef5eea9801c3b8c38ad8e5e2141dc0" target="_top" xlink:title="Updates the classifier&#39;s parameters as well as condition, action, and prediction depending on the kno...">
<polygon fill="none" stroke="#000000" points="96.5,-150.5 96.5,-169.5 155.5,-169.5 155.5,-150.5 96.5,-150.5"/>
<text text-anchor="middle" x="126" y="-157.5" font-family="Helvetica,sans-Serif" font-size="10.00" fill="#000000">cl_update</text>
</a>
</g>
</g>
<!-- Node371&#45;&gt;Node372 -->
<g id="edge1" class="edge">
<title>Node371&#45;&gt;Node372</title>
<path fill="none" stroke="#191970" d="M69.4789,-160C78.4184,-160 87.7484,-160 96.1915,-160"/>
<polygon fill="#191970" stroke="#191970" points="69.2406,-156.5001 59.2406,-160 69.2406,-163.5001 69.2406,-156.5001"/>
</g>
<!-- Node389 -->
<g id="node19" class="node">
<title>Node389</title>
<g id="a_node19"><a xlink:href="clset_8h.html#a7146a28cbf1fbbcc90f8bb583144fb12" target="_top" xlink:title="Calculates the set mean fitness weighted prediction. ">
<polygon fill="none" stroke="#000000" points="95,-93.5 95,-112.5 157,-112.5 157,-93.5 95,-93.5"/>
<text text-anchor="middle" x="126" y="-100.5" font-family="Helvetica,sans-Serif" font-size="10.00" fill="#000000">clset_pred</text>
</a>
</g>
</g>
<!-- Node371&#45;&gt;Node389 -->
<g id="edge23" class="edge">
<title>Node371&#45;&gt;Node389</title>
<path fill="none" stroke="#191970" d="M54.9295,-144.9794C72.3356,-134.6982 94.8895,-121.3762 109.8718,-112.5265"/>
<polygon fill="#191970" stroke="#191970" points="52.7,-142.2313 45.8699,-150.3307 56.2601,-148.2584 52.7,-142.2313"/>
</g>
<!-- Node390 -->
<g id="node20" class="node">
<title>Node390</title>
<g id="a_node20"><a xlink:href="pa_8h.html#a5cf732b7d7928a84d6745d0cba498a6a" target="_top" xlink:title="Builds the prediction array for the specified input. ">
<polygon fill="none" stroke="#000000" points="202.5,-188.5 202.5,-207.5 255.5,-207.5 255.5,-188.5 202.5,-188.5"/>
<text text-anchor="middle" x="229" y="-195.5" font-family="Helvetica,sans-Serif" font-size="10.00" fill="#000000">pa_build</text>
</a>
</g>
</g>
<!-- Node371&#45;&gt;Node390 -->
<g id="edge25" class="edge">
<title>Node371&#45;&gt;Node390</title>
<path fill="none" stroke="#191970" d="M68.745,-172.3618C77.339,-174.794 86.43,-177.1591 95,-179 131.871,-186.9201 175.1806,-192.3775 202.3626,-195.347"/>
<polygon fill="#191970" stroke="#191970" points="69.5258,-168.9438 58.9457,-169.5032 67.5654,-175.6637 69.5258,-168.9438"/>
</g>
<!-- Node373 -->
<g id="node3" class="node">
<title>Node373</title>
<g id="a_node3"><a xlink:href="clset_8h.html#add82b1503285b43b57b320ea3ef78a85" target="_top" xlink:title="Provides reinforcement to the set and performs set subsumption. ">
<polygon fill="none" stroke="#000000" points="193,-150.5 193,-169.5 265,-169.5 265,-150.5 193,-150.5"/>
<text text-anchor="middle" x="229" y="-157.5" font-family="Helvetica,sans-Serif" font-size="10.00" fill="#000000">clset_update</text>
</a>
</g>
</g>
<!-- Node372&#45;&gt;Node373 -->
<g id="edge2" class="edge">
<title>Node372&#45;&gt;Node373</title>
<path fill="none" stroke="#191970" d="M165.7157,-160C174.6598,-160 184.105,-160 192.892,-160"/>
<polygon fill="#191970" stroke="#191970" points="165.5157,-156.5001 155.5157,-160 165.5156,-163.5001 165.5157,-156.5001"/>
</g>
<!-- Node374 -->
<g id="node4" class="node">
<title>Node374</title>
<g id="a_node4"><a xlink:href="xcs__multi__step_8c.html#ad50c415970b4bfc42f469fb38c5e68fa" target="_top" xlink:title="Executes a multi&#45;step trial using a built&#45;in environment. ">
<polygon fill="none" stroke="#000000" points="462.5,-264.5 462.5,-283.5 542.5,-283.5 542.5,-264.5 462.5,-264.5"/>
<text text-anchor="middle" x="502.5" y="-271.5" font-family="Helvetica,sans-Serif" font-size="10.00" fill="#000000">xcs_multi_trial</text>
</a>
</g>
</g>
<!-- Node373&#45;&gt;Node374 -->
<g id="edge3" class="edge">
<title>Node373&#45;&gt;Node374</title>
<path fill="none" stroke="#191970" d="M258.5971,-174.5863C260.8195,-175.9916 262.9802,-177.4676 265,-179 283.5342,-193.0612 281.0945,-204.9582 301,-217 328.1403,-233.4184 411.9045,-253.938 462.488,-265.3392"/>
<polygon fill="#191970" stroke="#191970" points="260.2954,-171.5253 249.887,-169.5464 256.7895,-177.5841 260.2954,-171.5253"/>
</g>
<!-- Node377 -->
<g id="node7" class="node">
<title>Node377</title>
<g id="a_node7"><a xlink:href="xcs__single__step_8h.html#a0ff6b521f66224d56ef0e6f50f5781b9" target="_top" xlink:title="Creates the action set, updates the classifiers and runs the EA. ">
<polygon fill="none" stroke="#000000" points="305,-150.5 305,-169.5 403,-169.5 403,-150.5 305,-150.5"/>
<text text-anchor="middle" x="354" y="-157.5" font-family="Helvetica,sans-Serif" font-size="10.00" fill="#000000">xcs_single_update</text>
</a>
</g>
</g>
<!-- Node373&#45;&gt;Node377 -->
<g id="edge6" class="edge">
<title>Node373&#45;&gt;Node377</title>
<path fill="none" stroke="#191970" d="M275.3489,-160C284.986,-160 295.173,-160 304.905,-160"/>
<polygon fill="#191970" stroke="#191970" points="275.1552,-156.5001 265.1552,-160 275.1551,-163.5001 275.1552,-156.5001"/>
</g>
<!-- Node382 -->
<g id="node12" class="node">
<title>Node382</title>
<g id="a_node12"><a xlink:href="xcs__supervised_8c.html#ad48f3f1110cd2295710b91192dc80b31" target="_top" xlink:title="Executes a single XCSF trial. ">
<polygon fill="none" stroke="#000000" points="301,-79.5 301,-98.5 407,-98.5 407,-79.5 301,-79.5"/>
<text text-anchor="middle" x="354" y="-86.5" font-family="Helvetica,sans-Serif" font-size="10.00" fill="#000000">xcs_supervised_trial</text>
</a>
</g>
</g>
<!-- Node373&#45;&gt;Node382 -->
<g id="edge12" class="edge">
<title>Node373&#45;&gt;Node382</title>
<path fill="none" stroke="#191970" d="M254.6602,-145.425C279.2908,-131.4348 315.7916,-110.7024 337.0098,-98.6504"/>
<polygon fill="#191970" stroke="#191970" points="252.8247,-142.4423 245.8581,-150.4246 256.2819,-148.529 252.8247,-142.4423"/>
</g>
<!-- Node375 -->
<g id="node5" class="node">
<title>Node375</title>
<g id="a_node5"><a xlink:href="xcs__multi__step_8h.html#acc29d4a55dbd56c16ea5f19f15a7c677" target="_top" xlink:title="Executes a multi&#45;step reinforcement learning experiment. ">
<polygon fill="none" stroke="#000000" points="600,-266.5 600,-285.5 704,-285.5 704,-266.5 600,-266.5"/>
<text text-anchor="middle" x="652" y="-273.5" font-family="Helvetica,sans-Serif" font-size="10.00" fill="#000000">xcs_multi_step_exp</text>
</a>
</g>
</g>
<!-- Node374&#45;&gt;Node375 -->
<g id="edge4" class="edge">
<title>Node374&#45;&gt;Node375</title>
<path fill="none" stroke="#191970" d="M552.8017,-274.6729C567.9917,-274.8761 584.6954,-275.0996 599.9941,-275.3043"/>
<polygon fill="#191970" stroke="#191970" points="552.6092,-271.1701 542.5633,-274.536 552.5155,-278.1695 552.6092,-271.1701"/>
</g>
<!-- Node376 -->
<g id="node6" class="node">
<title>Node376</title>
<g id="a_node6"><a xlink:href="main_8c.html#a3c04138a5bfe5d72780bb7e82a18e627" target="_top" xlink:title="main">
<polygon fill="none" stroke="#000000" points="772,-228.5 772,-247.5 810,-247.5 810,-228.5 772,-228.5"/>
<text text-anchor="middle" x="791" y="-235.5" font-family="Helvetica,sans-Serif" font-size="10.00" fill="#000000">main</text>
</a>
</g>
</g>
<!-- Node375&#45;&gt;Node376 -->
<g id="edge5" class="edge">
<title>Node375&#45;&gt;Node376</title>
<path fill="none" stroke="#191970" d="M696.8597,-263.7362C722.1892,-256.8116 752.5345,-248.5157 771.7913,-243.2513"/>
<polygon fill="#191970" stroke="#191970" points="695.7986,-260.3978 687.0756,-266.411 697.6446,-267.15 695.7986,-260.3978"/>
</g>
<!-- Node378 -->
<g id="node8" class="node">
<title>Node378</title>
<g id="a_node8"><a xlink:href="classXCS.html#aedc01ad6f00a54b260a7605929a1d4c9" target="_top" xlink:title="XCS::single_update">
<polygon fill="none" stroke="#000000" points="600,-152.5 600,-171.5 704,-171.5 704,-152.5 600,-152.5"/>
<text text-anchor="middle" x="652" y="-159.5" font-family="Helvetica,sans-Serif" font-size="10.00" fill="#000000">XCS::single_update</text>
</a>
</g>
</g>
<!-- Node377&#45;&gt;Node378 -->
<g id="edge7" class="edge">
<title>Node377&#45;&gt;Node378</title>
<path fill="none" stroke="#191970" d="M413.4184,-160.3988C467.9376,-160.7647 547.9052,-161.3014 599.9619,-161.6508"/>
<polygon fill="#191970" stroke="#191970" points="413.2319,-156.8975 403.2086,-160.3303 413.1849,-163.8974 413.2319,-156.8975"/>
</g>
<!-- Node380 -->
<g id="node10" class="node">
<title>Node380</title>
<g id="a_node10"><a xlink:href="xcs__single__step_8c.html#a536ab4256e871e31959ea6e907455340" target="_top" xlink:title="Executes a single&#45;step trial using a built&#45;in environment. ">
<polygon fill="none" stroke="#000000" points="460.5,-188.5 460.5,-207.5 544.5,-207.5 544.5,-188.5 460.5,-188.5"/>
<text text-anchor="middle" x="502.5" y="-195.5" font-family="Helvetica,sans-Serif" font-size="10.00" fill="#000000">xcs_single_trial</text>
</a>
</g>
</g>
<!-- Node377&#45;&gt;Node380 -->
<g id="edge9" class="edge">
<title>Node377&#45;&gt;Node380</title>
<path fill="none" stroke="#191970" d="M401.3329,-172.1121C422.0146,-177.4044 445.9188,-183.5213 465.2966,-188.4799"/>
<polygon fill="#191970" stroke="#191970" points="402.0284,-168.6774 391.4728,-169.589 400.293,-175.4589 402.0284,-168.6774"/>
</g>
<!-- Node379 -->
<g id="node9" class="node">
<title>Node379</title>
<g id="a_node9"><a xlink:href="pybind__wrapper_8cpp.html#a9f26280e01308c4674f2473fb6f78730" target="_top" xlink:title="pybind11_init_xcsf">
<polygon fill="none" stroke="#000000" points="742,-76.5 742,-95.5 840,-95.5 840,-76.5 742,-76.5"/>
<text text-anchor="middle" x="791" y="-83.5" font-family="Helvetica,sans-Serif" font-size="10.00" fill="#000000">pybind11_init_xcsf</text>
</a>
</g>
</g>
<!-- Node378&#45;&gt;Node379 -->
<g id="edge8" class="edge">
<title>Node378&#45;&gt;Node379</title>
<path fill="none" stroke="#191970" d="M678.4377,-147.5449C706.3621,-132.2768 749.5932,-108.6397 773.5385,-95.5473"/>
<polygon fill="#191970" stroke="#191970" points="676.6995,-144.5062 669.6044,-152.3745 680.0577,-150.6481 676.6995,-144.5062"/>
</g>
<!-- Node381 -->
<g id="node11" class="node">
<title>Node381</title>
<g id="a_node11"><a xlink:href="xcs__single__step_8h.html#a39a031bf59eaa9b33e30e614610dcda8" target="_top" xlink:title="Executes a single&#45;step reinforcement learning experiment. ">
<polygon fill="none" stroke="#000000" points="598,-228.5 598,-247.5 706,-247.5 706,-228.5 598,-228.5"/>
<text text-anchor="middle" x="652" y="-235.5" font-family="Helvetica,sans-Serif" font-size="10.00" fill="#000000">xcs_single_step_exp</text>
</a>
</g>
</g>
<!-- Node380&#45;&gt;Node381 -->
<g id="edge10" class="edge">
<title>Node380&#45;&gt;Node381</title>
<path fill="none" stroke="#191970" d="M548.088,-210.1975C570.0562,-216.0752 596.0096,-223.0193 616.4832,-228.4972"/>
<polygon fill="#191970" stroke="#191970" points="548.8738,-206.7847 538.309,-207.581 547.0645,-213.5468 548.8738,-206.7847"/>
</g>
<!-- Node381&#45;&gt;Node376 -->
<g id="edge11" class="edge">
<title>Node381&#45;&gt;Node376</title>
<path fill="none" stroke="#191970" d="M716.3039,-238C736.5242,-238 757.3344,-238 771.8368,-238"/>
<polygon fill="#191970" stroke="#191970" points="716.1391,-234.5001 706.139,-238 716.139,-241.5001 716.1391,-234.5001"/>
</g>
<!-- Node383 -->
<g id="node13" class="node">
<title>Node383</title>
<g id="a_node13"><a xlink:href="xcs__supervised_8h.html#aa4daa45596a8cf402d58d029f780db3a" target="_top" xlink:title="Executes MAX_TRIALS number of XCSF learning iterations using the training data and test iterations us...">
<polygon fill="none" stroke="#000000" points="453.5,-79.5 453.5,-98.5 551.5,-98.5 551.5,-79.5 453.5,-79.5"/>
<text text-anchor="middle" x="502.5" y="-86.5" font-family="Helvetica,sans-Serif" font-size="10.00" fill="#000000">xcs_supervised_fit</text>
</a>
</g>
</g>
<!-- Node382&#45;&gt;Node383 -->
<g id="edge13" class="edge">
<title>Node382&#45;&gt;Node383</title>
<path fill="none" stroke="#191970" d="M417.5346,-89C429.4495,-89 441.7404,-89 453.1451,-89"/>
<polygon fill="#191970" stroke="#191970" points="417.1925,-85.5001 407.1925,-89 417.1924,-92.5001 417.1925,-85.5001"/>
</g>
<!-- Node385 -->
<g id="node15" class="node">
<title>Node385</title>
<g id="a_node15"><a xlink:href="xcs__supervised_8h.html#a11b5fbece61ea9da003cda48fbf7d728" target="_top" xlink:title="Calculates the XCSF predictions for the provided input. ">
<polygon fill="none" stroke="#000000" points="443,-40.5 443,-59.5 562,-59.5 562,-40.5 443,-40.5"/>
<text text-anchor="middle" x="502.5" y="-47.5" font-family="Helvetica,sans-Serif" font-size="10.00" fill="#000000">xcs_supervised_predict</text>
</a>
</g>
</g>
<!-- Node382&#45;&gt;Node385 -->
<g id="edge17" class="edge">
<title>Node382&#45;&gt;Node385</title>
<path fill="none" stroke="#191970" d="M400.142,-76.8819C421.4454,-71.2871 446.3706,-64.7411 466.2908,-59.5095"/>
<polygon fill="#191970" stroke="#191970" points="399.1101,-73.5341 390.3272,-79.4595 400.8883,-80.3045 399.1101,-73.5341"/>
</g>
<!-- Node387 -->
<g id="node17" class="node">
<title>Node387</title>
<g id="a_node17"><a xlink:href="xcs__supervised_8h.html#a19dea220a72a3646e490ff13ea7ed5fa" target="_top" xlink:title="Calculates the XCSF error for the input data. ">
<polygon fill="none" stroke="#000000" points="445.5,-2.5 445.5,-21.5 559.5,-21.5 559.5,-2.5 445.5,-2.5"/>
<text text-anchor="middle" x="502.5" y="-9.5" font-family="Helvetica,sans-Serif" font-size="10.00" fill="#000000">xcs_supervised_score</text>
</a>
</g>
</g>
<!-- Node382&#45;&gt;Node387 -->
<g id="edge20" class="edge">
<title>Node382&#45;&gt;Node387</title>
<path fill="none" stroke="#191970" d="M374.6291,-73.2564C392.0913,-60.5072 418.1727,-42.7892 443,-31 450.6405,-27.3719 459.1487,-24.1908 467.2866,-21.5212"/>
<polygon fill="#191970" stroke="#191970" points="372.2789,-70.642 366.3354,-79.4128 376.4511,-76.2628 372.2789,-70.642"/>
</g>
<!-- Node383&#45;&gt;Node376 -->
<g id="edge14" class="edge">
<title>Node383&#45;&gt;Node376</title>
<path fill="none" stroke="#191970" d="M561.1022,-100.6351C612.2036,-111.4843 681.8272,-128.1749 706,-143 742.7882,-165.562 772.8502,-208.8727 785.0879,-228.2319"/>
<polygon fill="#191970" stroke="#191970" points="561.6536,-97.1747 551.1479,-98.5455 560.2155,-104.0254 561.6536,-97.1747"/>
</g>
<!-- Node384 -->
<g id="node14" class="node">
<title>Node384</title>
<g id="a_node14"><a xlink:href="classXCS.html#ac9a4a7cb0ec6238ef1d4d77996f8975b" target="_top" xlink:title="XCS::fit">
<polygon fill="none" stroke="#000000" points="626,-76.5 626,-95.5 678,-95.5 678,-76.5 626,-76.5"/>
<text text-anchor="middle" x="652" y="-83.5" font-family="Helvetica,sans-Serif" font-size="10.00" fill="#000000">XCS::fit</text>
</a>
</g>
</g>
<!-- Node383&#45;&gt;Node384 -->
<g id="edge15" class="edge">
<title>Node383&#45;&gt;Node384</title>
<path fill="none" stroke="#191970" d="M561.8853,-87.8083C584.0445,-87.3637 608.0864,-86.8812 625.7599,-86.5266"/>
<polygon fill="#191970" stroke="#191970" points="561.794,-84.3094 551.8662,-88.0094 561.9345,-91.3079 561.794,-84.3094"/>
</g>
<!-- Node384&#45;&gt;Node379 -->
<g id="edge16" class="edge">
<title>Node384&#45;&gt;Node379</title>
<path fill="none" stroke="#191970" d="M688.3776,-86C704.7306,-86 724.2768,-86 741.9021,-86"/>
<polygon fill="#191970" stroke="#191970" points="688.1449,-82.5001 678.1448,-86 688.1448,-89.5001 688.1449,-82.5001"/>
</g>
<!-- Node386 -->
<g id="node16" class="node">
<title>Node386</title>
<g id="a_node16"><a xlink:href="classXCS.html#a8e8db281054f9e5937610eed434cd4a5" target="_top" xlink:title="XCS::predict">
<polygon fill="none" stroke="#000000" points="615.5,-38.5 615.5,-57.5 688.5,-57.5 688.5,-38.5 615.5,-38.5"/>
<text text-anchor="middle" x="652" y="-45.5" font-family="Helvetica,sans-Serif" font-size="10.00" fill="#000000">XCS::predict</text>
</a>
</g>
</g>
<!-- Node385&#45;&gt;Node386 -->
<g id="edge18" class="edge">
<title>Node385&#45;&gt;Node386</title>
<path fill="none" stroke="#191970" d="M572.2856,-49.0664C587.2234,-48.8666 602.4268,-48.6632 615.4954,-48.4884"/>
<polygon fill="#191970" stroke="#191970" points="571.9682,-45.5703 562.0159,-49.2038 572.0619,-52.5696 571.9682,-45.5703"/>
</g>
<!-- Node386&#45;&gt;Node379 -->
<g id="edge19" class="edge">
<title>Node386&#45;&gt;Node379</title>
<path fill="none" stroke="#191970" d="M696.7953,-60.2462C715.9547,-65.484 737.9938,-71.5091 755.9357,-76.4141"/>
<polygon fill="#191970" stroke="#191970" points="697.6446,-56.85 687.0756,-57.589 695.7986,-63.6022 697.6446,-56.85"/>
</g>
<!-- Node388 -->
<g id="node18" class="node">
<title>Node388</title>
<g id="a_node18"><a xlink:href="classXCS.html#ad32ffc841106ec036029e4c90a33b761" target="_top" xlink:title="XCS::score">
<polygon fill="none" stroke="#000000" points="618,-.5 618,-19.5 686,-19.5 686,-.5 618,-.5"/>
<text text-anchor="middle" x="652" y="-7.5" font-family="Helvetica,sans-Serif" font-size="10.00" fill="#000000">XCS::score</text>
</a>
</g>
</g>
<!-- Node387&#45;&gt;Node388 -->
<g id="edge21" class="edge">
<title>Node387&#45;&gt;Node388</title>
<path fill="none" stroke="#191970" d="M570.0982,-11.0957C586.6658,-10.874 603.7064,-10.6461 617.9242,-10.4559"/>
<polygon fill="#191970" stroke="#191970" points="569.8253,-7.5989 559.873,-11.2325 569.919,-14.5983 569.8253,-7.5989"/>
</g>
<!-- Node388&#45;&gt;Node379 -->
<g id="edge22" class="edge">
<title>Node388&#45;&gt;Node379</title>
<path fill="none" stroke="#191970" d="M693.0731,-23.2165C697.5034,-25.0055 701.8906,-26.9408 706,-29 733.64,-42.8501 762.9748,-64.2053 778.9315,-76.465"/>
<polygon fill="#191970" stroke="#191970" points="693.9875,-19.82 683.3963,-19.5427 691.5029,-26.3642 693.9875,-19.82"/>
</g>
<!-- Node389&#45;&gt;Node382 -->
<g id="edge24" class="edge">
<title>Node389&#45;&gt;Node382</title>
<path fill="none" stroke="#191970" d="M167.2822,-100.4651C204.7273,-98.1659 260.1391,-94.7634 300.8757,-92.262"/>
<polygon fill="#191970" stroke="#191970" points="166.991,-96.9763 157.2244,-101.0827 167.4201,-103.9632 166.991,-96.9763"/>
</g>
<!-- Node391 -->
<g id="node21" class="node">
<title>Node391</title>
<g id="a_node21"><a xlink:href="xcs__multi__step_8h.html#af2eaa15cba52d29fa3630218d9780a6a" target="_top" xlink:title="Constructs the match set and selects an action to perform. ">
<polygon fill="none" stroke="#000000" points="304,-264.5 304,-283.5 404,-283.5 404,-264.5 304,-264.5"/>
<text text-anchor="middle" x="354" y="-271.5" font-family="Helvetica,sans-Serif" font-size="10.00" fill="#000000">xcs_multi_decision</text>
</a>
</g>
</g>
<!-- Node390&#45;&gt;Node391 -->
<g id="edge26" class="edge">
<title>Node390&#45;&gt;Node391</title>
<path fill="none" stroke="#191970" d="M248.7135,-213.8917C262.789,-224.8187 282.4409,-239.2416 301,-250 310.2631,-255.3696 320.9419,-260.4073 330.2759,-264.4673"/>
<polygon fill="#191970" stroke="#191970" points="250.7514,-211.0416 240.7298,-207.6039 246.4203,-216.5408 250.7514,-211.0416"/>
</g>
<!-- Node392 -->
<g id="node22" class="node">
<title>Node392</title>
<g id="a_node22"><a xlink:href="xcs__single__step_8h.html#a5c1d53976f601ae3603aed34f0767c29" target="_top" xlink:title="Constructs the match set and selects an action to perform. ">
<polygon fill="none" stroke="#000000" points="302,-188.5 302,-207.5 406,-207.5 406,-188.5 302,-188.5"/>
<text text-anchor="middle" x="354" y="-195.5" font-family="Helvetica,sans-Serif" font-size="10.00" fill="#000000">xcs_single_decision</text>
</a>
</g>
</g>
<!-- Node390&#45;&gt;Node392 -->
<g id="edge28" class="edge">
<title>Node390&#45;&gt;Node392</title>
<path fill="none" stroke="#191970" d="M265.8328,-198C277.0941,-198 289.7009,-198 301.7809,-198"/>
<polygon fill="#191970" stroke="#191970" points="265.5093,-194.5001 255.5093,-198 265.5093,-201.5001 265.5093,-194.5001"/>
</g>
<!-- Node391&#45;&gt;Node374 -->
<g id="edge27" class="edge">
<title>Node391&#45;&gt;Node374</title>
<path fill="none" stroke="#191970" d="M414.6265,-274C430.6193,-274 447.4853,-274 462.1179,-274"/>
<polygon fill="#191970" stroke="#191970" points="414.2754,-270.5001 404.2753,-274 414.2753,-277.5001 414.2754,-270.5001"/>
</g>
<!-- Node392&#45;&gt;Node380 -->
<g id="edge31" class="edge">
<title>Node392&#45;&gt;Node380</title>
<path fill="none" stroke="#191970" d="M416.4758,-198C431.2851,-198 446.7357,-198 460.3896,-198"/>
<polygon fill="#191970" stroke="#191970" points="416.3556,-194.5001 406.3555,-198 416.3555,-201.5001 416.3556,-194.5001"/>
</g>
<!-- Node393 -->
<g id="node23" class="node">
<title>Node393</title>
<g id="a_node23"><a xlink:href="classXCS.html#a92001d251c372244fd07c624f2dcff83" target="_top" xlink:title="XCS::single_decision">
<polygon fill="none" stroke="#000000" points="447.5,-226.5 447.5,-245.5 557.5,-245.5 557.5,-226.5 447.5,-226.5"/>
<text text-anchor="middle" x="502.5" y="-233.5" font-family="Helvetica,sans-Serif" font-size="10.00" fill="#000000">XCS::single_decision</text>
</a>
</g>
</g>
<!-- Node392&#45;&gt;Node393 -->
<g id="edge29" class="edge">
<title>Node392&#45;&gt;Node393</title>
<path fill="none" stroke="#191970" d="M401.3329,-210.1121C422.0146,-215.4044 445.9188,-221.5213 465.2966,-226.4799"/>
<polygon fill="#191970" stroke="#191970" points="402.0284,-206.6774 391.4728,-207.589 400.293,-213.4589 402.0284,-206.6774"/>
</g>
<!-- Node393&#45;&gt;Node379 -->
<g id="edge30" class="edge">
<title>Node393&#45;&gt;Node379</title>
<path fill="none" stroke="#191970" d="M559.7194,-224.3566C610.9413,-213.2502 681.6125,-196.0338 706,-181 742.7364,-158.3537 772.8255,-115.0871 785.079,-95.7538"/>
<polygon fill="#191970" stroke="#191970" points="558.7975,-220.9747 549.7538,-226.494 560.2655,-227.819 558.7975,-220.9747"/>
</g>
</g>
</svg>
