<?xml version="1.0" encoding="UTF-8" standalone="no"?>
<!DOCTYPE svg PUBLIC "-//W3C//DTD SVG 1.1//EN"
 "http://www.w3.org/Graphics/SVG/1.1/DTD/svg11.dtd">
<!-- Generated by graphviz version 2.40.1 (20161225.0304)
 -->
<!-- Title: cl_load Pages: 1 -->
<svg width="522pt" height="66pt"
 viewBox="0.00 0.00 522.00 66.00" xmlns="http://www.w3.org/2000/svg" xmlns:xlink="http://www.w3.org/1999/xlink">
<g id="graph0" class="graph" transform="scale(1 1) rotate(0) translate(4 62)">
<title>cl_load</title>
<!-- Node275 -->
<g id="node1" class="node">
<title>Node275</title>
<polygon fill="#bfbfbf" stroke="#000000" points="0,-19.5 0,-38.5 47,-38.5 47,-19.5 0,-19.5"/>
<text text-anchor="middle" x="23.5" y="-26.5" font-family="Helvetica,sans-Serif" font-size="10.00" fill="#000000">cl_load</text>
</g>
<!-- Node276 -->
<g id="node2" class="node">
<title>Node276</title>
<g id="a_node2"><a xlink:href="$cl__set_8h.html#a488209fe1e7dc1ef3d09d9aa94340329" xlink:title="Reads the population set from a binary file. ">
<polygon fill="none" stroke="#000000" points="83,-19.5 83,-38.5 139,-38.5 139,-19.5 83,-19.5"/>
<text text-anchor="middle" x="111" y="-26.5" font-family="Helvetica,sans-Serif" font-size="10.00" fill="#000000">pop_load</text>
</a>
</g>
</g>
<!-- Node275&#45;&gt;Node276 -->
<g id="edge1" class="edge">
<title>Node275&#45;&gt;Node276</title>
<path fill="none" stroke="#191970" d="M57.6009,-29C65.9306,-29 74.7514,-29 82.7725,-29"/>
<polygon fill="#191970" stroke="#191970" points="57.4098,-25.5001 47.4098,-29 57.4097,-32.5001 57.4098,-25.5001"/>
</g>
<!-- Node277 -->
<g id="node3" class="node">
<title>Node277</title>
<g id="a_node3"><a xlink:href="$xcsf_8h.html#a70e6ae30c7d4e471009c4611255ed873" xlink:title="Reads the state of XCSF from a binary file. ">
<polygon fill="none" stroke="#000000" points="175,-19.5 175,-38.5 234,-38.5 234,-19.5 175,-19.5"/>
<text text-anchor="middle" x="204.5" y="-26.5" font-family="Helvetica,sans-Serif" font-size="10.00" fill="#000000">xcsf_load</text>
</a>
</g>
</g>
<!-- Node276&#45;&gt;Node277 -->
<g id="edge2" class="edge">
<title>Node276&#45;&gt;Node277</title>
<path fill="none" stroke="#191970" d="M149.2056,-29C157.7552,-29 166.6996,-29 174.8418,-29"/>
<polygon fill="#191970" stroke="#191970" points="149.0531,-25.5001 139.0531,-29 149.053,-32.5001 149.0531,-25.5001"/>
</g>
<!-- Node278 -->
<g id="node4" class="node">
<title>Node278</title>
<g id="a_node4"><a xlink:href="$main_8c.html#a3c04138a5bfe5d72780bb7e82a18e627" xlink:title="main">
<polygon fill="none" stroke="#000000" points="282,-38.5 282,-57.5 320,-57.5 320,-38.5 282,-38.5"/>
<text text-anchor="middle" x="301" y="-45.5" font-family="Helvetica,sans-Serif" font-size="10.00" fill="#000000">main</text>
</a>
</g>
</g>
<!-- Node277&#45;&gt;Node278 -->
<g id="edge3" class="edge">
<title>Node277&#45;&gt;Node278</title>
<path fill="none" stroke="#191970" d="M244.3799,-36.852C257.3376,-39.4033 271.1261,-42.1181 281.8518,-44.2299"/>
<polygon fill="#191970" stroke="#191970" points="244.7284,-33.3535 234.2406,-34.8557 243.3761,-40.2216 244.7284,-33.3535"/>
</g>
<!-- Node279 -->
<g id="node5" class="node">
<title>Node279</title>
<g id="a_node5"><a xlink:href="$structXCS.html#adc9b621f2b7a306fbf381dd0efaf268b" xlink:title="XCS::load">
<polygon fill="none" stroke="#000000" points="270,-.5 270,-19.5 332,-19.5 332,-.5 270,-.5"/>
<text text-anchor="middle" x="301" y="-7.5" font-family="Helvetica,sans-Serif" font-size="10.00" fill="#000000">XCS::load</text>
</a>
</g>
</g>
<!-- Node277&#45;&gt;Node279 -->
<g id="edge4" class="edge">
<title>Node277&#45;&gt;Node279</title>
<path fill="none" stroke="#191970" d="M244.0832,-21.2064C252.674,-19.515 261.6438,-17.7489 269.8545,-16.1323"/>
<polygon fill="#191970" stroke="#191970" points="243.3761,-17.7784 234.2406,-23.1443 244.7284,-24.6465 243.3761,-17.7784"/>
</g>
<!-- Node280 -->
<g id="node6" class="node">
<title>Node280</title>
<g id="a_node6"><a xlink:href="$python__wrapper_8cpp.html#afbdcc1358036a0b83a6b239da2b098a2" xlink:title="BOOST_PYTHON_MODULE">
<polygon fill="none" stroke="#000000" points="368,-.5 368,-19.5 514,-19.5 514,-.5 368,-.5"/>
<text text-anchor="middle" x="441" y="-7.5" font-family="Helvetica,sans-Serif" font-size="10.00" fill="#000000">BOOST_PYTHON_MODULE</text>
</a>
</g>
</g>
<!-- Node279&#45;&gt;Node280 -->
<g id="edge5" class="edge">
<title>Node279&#45;&gt;Node280</title>
<path fill="none" stroke="#191970" d="M342.3141,-10C350.4131,-10 359.1317,-10 367.9151,-10"/>
<polygon fill="#191970" stroke="#191970" points="342.0706,-6.5001 332.0705,-10 342.0705,-13.5001 342.0706,-6.5001"/>
</g>
</g>
</svg>
