<?xml version="1.0" encoding="UTF-8" standalone="no"?>
<!DOCTYPE svg PUBLIC "-//W3C//DTD SVG 1.1//EN"
 "http://www.w3.org/Graphics/SVG/1.1/DTD/svg11.dtd">
<!-- Generated by graphviz version 2.40.1 (20161225.0304)
 -->
<!-- Title: cl_free Pages: 1 -->
<svg width="149pt" height="142pt"
 viewBox="0.00 0.00 149.00 142.00" xmlns="http://www.w3.org/2000/svg" xmlns:xlink="http://www.w3.org/1999/xlink">
<g id="graph0" class="graph" transform="scale(1 1) rotate(0) translate(4 138)">
<title>cl_free</title>
<!-- Node175 -->
<g id="node1" class="node">
<title>Node175</title>
<polygon fill="#bfbfbf" stroke="#000000" points="0,-57.5 0,-76.5 46,-76.5 46,-57.5 0,-57.5"/>
<text text-anchor="middle" x="23" y="-64.5" font-family="Helvetica,sans-Serif" font-size="10.00" fill="#000000">cl_free</text>
</g>
<!-- Node176 -->
<g id="node2" class="node">
<title>Node176</title>
<g id="a_node2"><a xlink:href="action_8h.html#a3c0b8f4ef29f45d210b6e76340a25e15" target="_top" xlink:title="act_free">
<polygon fill="none" stroke="#000000" points="85.5,-114.5 85.5,-133.5 137.5,-133.5 137.5,-114.5 85.5,-114.5"/>
<text text-anchor="middle" x="111.5" y="-121.5" font-family="Helvetica,sans-Serif" font-size="10.00" fill="#000000">act_free</text>
</a>
</g>
</g>
<!-- Node175&#45;&gt;Node176 -->
<g id="edge1" class="edge">
<title>Node175&#45;&gt;Node176</title>
<path fill="none" stroke="#191970" d="M38.0128,-76.6693C51.6994,-85.4843 72.1404,-98.6497 87.9919,-108.8592"/>
<polygon fill="#191970" stroke="#191970" points="86.4065,-112.0012 96.7089,-114.4735 90.1969,-106.1162 86.4065,-112.0012"/>
</g>
<!-- Node177 -->
<g id="node3" class="node">
<title>Node177</title>
<g id="a_node3"><a xlink:href="condition_8h.html#a3f9b67abe92145cf80a263853912a0d5" target="_top" xlink:title="cond_free">
<polygon fill="none" stroke="#000000" points="82,-76.5 82,-95.5 141,-95.5 141,-76.5 82,-76.5"/>
<text text-anchor="middle" x="111.5" y="-83.5" font-family="Helvetica,sans-Serif" font-size="10.00" fill="#000000">cond_free</text>
</a>
</g>
</g>
<!-- Node175&#45;&gt;Node177 -->
<g id="edge2" class="edge">
<title>Node175&#45;&gt;Node177</title>
<path fill="none" stroke="#191970" d="M46.2523,-71.992C54.0559,-73.6674 62.9937,-75.5862 71.6994,-77.4552"/>
<polygon fill="#191970" stroke="#191970" points="71.2188,-80.9317 81.7307,-79.6088 72.6882,-74.0877 71.2188,-80.9317"/>
</g>
<!-- Node178 -->
<g id="node4" class="node">
<title>Node178</title>
<g id="a_node4"><a xlink:href="prediction_8h.html#a5c8b28f792149c6267cc8387554e1da7" target="_top" xlink:title="pred_free">
<polygon fill="none" stroke="#000000" points="83,-38.5 83,-57.5 140,-57.5 140,-38.5 83,-38.5"/>
<text text-anchor="middle" x="111.5" y="-45.5" font-family="Helvetica,sans-Serif" font-size="10.00" fill="#000000">pred_free</text>
</a>
</g>
</g>
<!-- Node175&#45;&gt;Node178 -->
<g id="edge3" class="edge">
<title>Node175&#45;&gt;Node178</title>
<path fill="none" stroke="#191970" d="M46.2523,-62.008C54.364,-60.2665 63.7011,-58.2619 72.7293,-56.3237"/>
<polygon fill="#191970" stroke="#191970" points="73.6667,-59.7022 82.7093,-54.1811 72.1973,-52.8582 73.6667,-59.7022"/>
</g>
<!-- Node179 -->
<g id="node5" class="node">
<title>Node179</title>
<g id="a_node5"><a xlink:href="sam_8c.html#ab788a3ced38cf0fd20f8e6a2bab9f86a" target="_top" xlink:title="Frees the self&#45;adaptive mutation rates. ">
<polygon fill="none" stroke="#000000" points="83,-.5 83,-19.5 140,-19.5 140,-.5 83,-.5"/>
<text text-anchor="middle" x="111.5" y="-7.5" font-family="Helvetica,sans-Serif" font-size="10.00" fill="#000000">sam_free</text>
</a>
</g>
</g>
<!-- Node175&#45;&gt;Node179 -->
<g id="edge4" class="edge">
<title>Node175&#45;&gt;Node179</title>
<path fill="none" stroke="#191970" d="M38.0128,-57.3307C51.6994,-48.5157 72.1404,-35.3503 87.9919,-25.1408"/>
<polygon fill="#191970" stroke="#191970" points="90.1969,-27.8838 96.7089,-19.5265 86.4065,-21.9988 90.1969,-27.8838"/>
</g>
</g>
</svg>
