<?xml version="1.0" encoding="UTF-8" standalone="no"?>
<!DOCTYPE svg PUBLIC "-//W3C//DTD SVG 1.1//EN"
 "http://www.w3.org/Graphics/SVG/1.1/DTD/svg11.dtd">
<!-- Generated by graphviz version 2.40.1 (20161225.0304)
 -->
<!-- Title: cl_cover Pages: 1 -->
<svg width="945pt" height="314pt"
 viewBox="0.00 0.00 945.00 314.36" xmlns="http://www.w3.org/2000/svg" xmlns:xlink="http://www.w3.org/1999/xlink">
<g id="graph0" class="graph" transform="scale(1 1) rotate(0) translate(4 310.3604)">
<title>cl_cover</title>
<!-- Node115 -->
<g id="node1" class="node">
<title>Node115</title>
<polygon fill="#bfbfbf" stroke="#000000" points="0,-172.8604 0,-191.8604 53,-191.8604 53,-172.8604 0,-172.8604"/>
<text text-anchor="middle" x="26.5" y="-179.8604" font-family="Helvetica,sans-Serif" font-size="10.00" fill="#000000">cl_cover</text>
</g>
<!-- Node116 -->
<g id="node2" class="node">
<title>Node116</title>
<g id="a_node2"><a xlink:href="cl__set_8c.html#aa4b74b698e7491734e4788fcfae8e27a" target="_top" xlink:title="Ensures all possible actions are covered by the match set. ">
<polygon fill="none" stroke="#000000" points="89,-172.8604 89,-191.8604 148,-191.8604 148,-172.8604 89,-172.8604"/>
<text text-anchor="middle" x="118.5" y="-179.8604" font-family="Helvetica,sans-Serif" font-size="10.00" fill="#000000">set_cover</text>
</a>
</g>
</g>
<!-- Node115&#45;&gt;Node116 -->
<g id="edge1" class="edge">
<title>Node115&#45;&gt;Node116</title>
<path fill="none" stroke="#191970" d="M63.1583,-182.3604C71.6432,-182.3604 80.5708,-182.3604 88.7196,-182.3604"/>
<polygon fill="#191970" stroke="#191970" points="63.1102,-178.8605 53.1102,-182.3604 63.1102,-185.8605 63.1102,-178.8605"/>
</g>
<!-- Node117 -->
<g id="node3" class="node">
<title>Node117</title>
<g id="a_node3"><a xlink:href="cl__set_8h.html#af3bea0b4d03654b9d6cb08fbf272c847" target="_top" xlink:title="Constructs the match set. ">
<polygon fill="none" stroke="#000000" points="184,-172.8604 184,-191.8604 246,-191.8604 246,-172.8604 184,-172.8604"/>
<text text-anchor="middle" x="215" y="-179.8604" font-family="Helvetica,sans-Serif" font-size="10.00" fill="#000000">set_match</text>
</a>
</g>
</g>
<!-- Node116&#45;&gt;Node117 -->
<g id="edge2" class="edge">
<title>Node116&#45;&gt;Node117</title>
<path fill="none" stroke="#191970" d="M158.3634,-182.3604C166.8689,-182.3604 175.733,-182.3604 183.8545,-182.3604"/>
<polygon fill="#191970" stroke="#191970" points="158.2406,-178.8605 148.2406,-182.3604 158.2406,-185.8605 158.2406,-178.8605"/>
</g>
<!-- Node118 -->
<g id="node4" class="node">
<title>Node118</title>
<g id="a_node4"><a xlink:href="xcs__multi__step_8c.html#a617d9e432dc180dccf0c5ef11a94f79f" target="_top" xlink:title="Executes a multi&#45;step explore trial. ">
<polygon fill="none" stroke="#000000" points="289.5,-248.8604 289.5,-267.8604 384.5,-267.8604 384.5,-248.8604 289.5,-248.8604"/>
<text text-anchor="middle" x="337" y="-255.8604" font-family="Helvetica,sans-Serif" font-size="10.00" fill="#000000">xcs_multi_explore</text>
</a>
</g>
</g>
<!-- Node117&#45;&gt;Node118 -->
<g id="edge3" class="edge">
<title>Node117&#45;&gt;Node118</title>
<path fill="none" stroke="#191970" d="M231.26,-199.259C244.0655,-211.7628 262.8896,-228.4496 282,-239.3604 288.4921,-243.067 295.8266,-246.2183 302.974,-248.8256"/>
<polygon fill="#191970" stroke="#191970" points="233.6581,-196.7071 224.1158,-192.1032 228.7043,-201.6529 233.6581,-196.7071"/>
</g>
<!-- Node122 -->
<g id="node8" class="node">
<title>Node122</title>
<g id="a_node8"><a xlink:href="xcs__multi__step_8c.html#a7c317faec2f018cc620fe5e465ebf378" target="_top" xlink:title="Executes a multi&#45;step exploit trial. ">
<polygon fill="none" stroke="#000000" points="291,-286.8604 291,-305.8604 383,-305.8604 383,-286.8604 291,-286.8604"/>
<text text-anchor="middle" x="337" y="-293.8604" font-family="Helvetica,sans-Serif" font-size="10.00" fill="#000000">xcs_multi_exploit</text>
</a>
</g>
</g>
<!-- Node117&#45;&gt;Node122 -->
<g id="edge7" class="edge">
<title>Node117&#45;&gt;Node122</title>
<path fill="none" stroke="#191970" d="M223.6348,-200.9682C234.4298,-222.3011 254.8423,-256.9462 282,-277.3604 287.0874,-281.1846 293.0018,-284.2773 299.028,-286.7668"/>
<polygon fill="#191970" stroke="#191970" points="226.7654,-199.4025 219.241,-191.9437 220.4717,-202.4668 226.7654,-199.4025"/>
</g>
<!-- Node123 -->
<g id="node9" class="node">
<title>Node123</title>
<g id="a_node9"><a xlink:href="xcs__single__step_8h.html#a6cd0f3c0c1c71e13dba1ce493ef873a5" target="_top" xlink:title="Constructs the match set and selects an action to perform. ">
<polygon fill="none" stroke="#000000" points="285,-210.8604 285,-229.8604 389,-229.8604 389,-210.8604 285,-210.8604"/>
<text text-anchor="middle" x="337" y="-217.8604" font-family="Helvetica,sans-Serif" font-size="10.00" fill="#000000">xcs_single_decision</text>
</a>
</g>
</g>
<!-- Node117&#45;&gt;Node123 -->
<g id="edge9" class="edge">
<title>Node117&#45;&gt;Node123</title>
<path fill="none" stroke="#191970" d="M255.7108,-195.0409C272.195,-200.1753 290.91,-206.0045 306.2241,-210.7745"/>
<polygon fill="#191970" stroke="#191970" points="256.3742,-191.5817 245.7858,-191.9494 254.2925,-198.265 256.3742,-191.5817"/>
</g>
<!-- Node128 -->
<g id="node14" class="node">
<title>Node128</title>
<g id="a_node14"><a xlink:href="xcsf_8c.html#a474f4e13cfc5f00958c689cd8c81135a" target="_top" xlink:title="Executes a single XCSF learning trial. ">
<polygon fill="none" stroke="#000000" points="295.5,-58.8604 295.5,-77.8604 378.5,-77.8604 378.5,-58.8604 295.5,-58.8604"/>
<text text-anchor="middle" x="337" y="-65.8604" font-family="Helvetica,sans-Serif" font-size="10.00" fill="#000000">xcsf_learn_trial</text>
</a>
</g>
</g>
<!-- Node117&#45;&gt;Node128 -->
<g id="edge15" class="edge">
<title>Node117&#45;&gt;Node128</title>
<path fill="none" stroke="#191970" d="M223.6348,-163.7527C234.4298,-142.4198 254.8423,-107.7747 282,-87.3604 287.0874,-83.5363 293.0018,-80.4436 299.028,-77.954"/>
<polygon fill="#191970" stroke="#191970" points="220.4717,-162.2541 219.241,-172.7772 226.7654,-165.3183 220.4717,-162.2541"/>
</g>
<!-- Node134 -->
<g id="node20" class="node">
<title>Node134</title>
<g id="a_node20"><a xlink:href="xcsf_8c.html#aa6edd3962ddd04940e2c78a4f99de7cd" target="_top" xlink:title="Executes a single XCSF testing trial. ">
<polygon fill="none" stroke="#000000" points="298,-96.8604 298,-115.8604 376,-115.8604 376,-96.8604 298,-96.8604"/>
<text text-anchor="middle" x="337" y="-103.8604" font-family="Helvetica,sans-Serif" font-size="10.00" fill="#000000">xcsf_test_trial</text>
</a>
</g>
</g>
<!-- Node117&#45;&gt;Node134 -->
<g id="edge23" class="edge">
<title>Node117&#45;&gt;Node134</title>
<path fill="none" stroke="#191970" d="M233.4983,-165.9677C246.4722,-154.9943 264.5512,-140.7188 282,-130.3604 291.2272,-124.8827 301.9329,-119.9278 311.4335,-115.9616"/>
<polygon fill="#191970" stroke="#191970" points="231.0595,-163.4489 225.7677,-172.6275 235.6284,-168.7523 231.0595,-163.4489"/>
</g>
<!-- Node137 -->
<g id="node23" class="node">
<title>Node137</title>
<g id="a_node23"><a xlink:href="xcsf_8h.html#af0b9db7273578fdff649d46823cd9790" target="_top" xlink:title="Calculates the XCSF predictions for the provided input. ">
<polygon fill="none" stroke="#000000" points="445,-134.8604 445,-153.8604 515,-153.8604 515,-134.8604 445,-134.8604"/>
<text text-anchor="middle" x="480" y="-141.8604" font-family="Helvetica,sans-Serif" font-size="10.00" fill="#000000">xcsf_predict</text>
</a>
</g>
</g>
<!-- Node117&#45;&gt;Node137 -->
<g id="edge28" class="edge">
<title>Node117&#45;&gt;Node137</title>
<path fill="none" stroke="#191970" d="M254.2949,-169.9385C263.3232,-167.4426 272.9353,-165.0662 282,-163.3604 338.3359,-152.7596 404.8645,-147.9178 444.6795,-145.8236"/>
<polygon fill="#191970" stroke="#191970" points="253.0552,-166.653 244.4101,-172.7778 254.9878,-173.3809 253.0552,-166.653"/>
</g>
<!-- Node139 -->
<g id="node25" class="node">
<title>Node139</title>
<g id="a_node25"><a xlink:href="xcsf_8h.html#ae1f6851f682e015601030a5c725c6618" target="_top" xlink:title="Prints the XCSF match set for the supplied input. ">
<polygon fill="none" stroke="#000000" points="282,-172.8604 282,-191.8604 392,-191.8604 392,-172.8604 282,-172.8604"/>
<text text-anchor="middle" x="337" y="-179.8604" font-family="Helvetica,sans-Serif" font-size="10.00" fill="#000000">xcsf_print_match_set</text>
</a>
</g>
</g>
<!-- Node117&#45;&gt;Node139 -->
<g id="edge31" class="edge">
<title>Node117&#45;&gt;Node139</title>
<path fill="none" stroke="#191970" d="M256.1771,-182.3604C264.4005,-182.3604 273.1631,-182.3604 281.7711,-182.3604"/>
<polygon fill="#191970" stroke="#191970" points="256.1015,-178.8605 246.1014,-182.3604 256.1014,-185.8605 256.1015,-178.8605"/>
</g>
<!-- Node119 -->
<g id="node5" class="node">
<title>Node119</title>
<g id="a_node5"><a xlink:href="xcs__multi__step_8h.html#acc29d4a55dbd56c16ea5f19f15a7c677" target="_top" xlink:title="Executes a multi&#45;step reinforcement learning experiment. ">
<polygon fill="none" stroke="#000000" points="428,-286.8604 428,-305.8604 532,-305.8604 532,-286.8604 428,-286.8604"/>
<text text-anchor="middle" x="480" y="-293.8604" font-family="Helvetica,sans-Serif" font-size="10.00" fill="#000000">xcs_multi_step_exp</text>
</a>
</g>
</g>
<!-- Node118&#45;&gt;Node119 -->
<g id="edge4" class="edge">
<title>Node118&#45;&gt;Node119</title>
<path fill="none" stroke="#191970" d="M382.8133,-270.5346C402.5871,-275.7892 425.3838,-281.847 443.9266,-286.7745"/>
<polygon fill="#191970" stroke="#191970" points="383.6484,-267.1351 373.0849,-267.9494 381.8506,-273.9003 383.6484,-267.1351"/>
</g>
<!-- Node120 -->
<g id="node6" class="node">
<title>Node120</title>
<g id="a_node6"><a xlink:href="main_8c.html#ab572a67aa431827116ebd6931d667d21" target="_top" xlink:title="classification">
<polygon fill="none" stroke="#000000" points="753,-248.8604 753,-267.8604 827,-267.8604 827,-248.8604 753,-248.8604"/>
<text text-anchor="middle" x="790" y="-255.8604" font-family="Helvetica,sans-Serif" font-size="10.00" fill="#000000">classification</text>
</a>
</g>
</g>
<!-- Node119&#45;&gt;Node120 -->
<g id="edge5" class="edge">
<title>Node119&#45;&gt;Node120</title>
<path fill="none" stroke="#191970" d="M542.2676,-291.7399C582.0417,-288.4761 634.6609,-283.5796 681,-277.3604 704.9882,-274.141 731.7681,-269.488 752.7805,-265.5924"/>
<polygon fill="#191970" stroke="#191970" points="541.8709,-288.2605 532.1854,-292.5549 542.4349,-295.2377 541.8709,-288.2605"/>
</g>
<!-- Node121 -->
<g id="node7" class="node">
<title>Node121</title>
<g id="a_node7"><a xlink:href="main_8c.html#a3c04138a5bfe5d72780bb7e82a18e627" target="_top" xlink:title="main">
<polygon fill="none" stroke="#000000" points="899,-172.8604 899,-191.8604 937,-191.8604 937,-172.8604 899,-172.8604"/>
<text text-anchor="middle" x="918" y="-179.8604" font-family="Helvetica,sans-Serif" font-size="10.00" fill="#000000">main</text>
</a>
</g>
</g>
<!-- Node120&#45;&gt;Node121 -->
<g id="edge6" class="edge">
<title>Node120&#45;&gt;Node121</title>
<path fill="none" stroke="#191970" d="M815.0195,-243.5051C840.7511,-228.227 880.0618,-204.8863 901.9203,-191.9077"/>
<polygon fill="#191970" stroke="#191970" points="813.0229,-240.6201 806.2113,-248.735 816.5968,-246.639 813.0229,-240.6201"/>
</g>
<!-- Node122&#45;&gt;Node119 -->
<g id="edge8" class="edge">
<title>Node122&#45;&gt;Node119</title>
<path fill="none" stroke="#191970" d="M393.3017,-296.3604C404.6862,-296.3604 416.6097,-296.3604 427.8442,-296.3604"/>
<polygon fill="#191970" stroke="#191970" points="393.0333,-292.8605 383.0332,-296.3604 393.0332,-299.8605 393.0333,-292.8605"/>
</g>
<!-- Node124 -->
<g id="node10" class="node">
<title>Node124</title>
<g id="a_node10"><a xlink:href="structXCS.html#a94d556a5e545ec415d7165d5e91b21d4" target="_top" xlink:title="XCS::single_decision">
<polygon fill="none" stroke="#000000" points="569.5,-210.8604 569.5,-229.8604 679.5,-229.8604 679.5,-210.8604 569.5,-210.8604"/>
<text text-anchor="middle" x="624.5" y="-217.8604" font-family="Helvetica,sans-Serif" font-size="10.00" fill="#000000">XCS::single_decision</text>
</a>
</g>
</g>
<!-- Node123&#45;&gt;Node124 -->
<g id="edge10" class="edge">
<title>Node123&#45;&gt;Node124</title>
<path fill="none" stroke="#191970" d="M399.2351,-220.3604C449.9038,-220.3604 520.7552,-220.3604 569.3953,-220.3604"/>
<polygon fill="#191970" stroke="#191970" points="399.0641,-216.8605 389.0641,-220.3604 399.064,-223.8605 399.0641,-216.8605"/>
</g>
<!-- Node126 -->
<g id="node12" class="node">
<title>Node126</title>
<g id="a_node12"><a xlink:href="xcs__single__step_8c.html#a3d1fd2472d35310800aed897219a65af" target="_top" xlink:title="Executes a single&#45;step trial using a built&#45;in environment. ">
<polygon fill="none" stroke="#000000" points="438,-248.8604 438,-267.8604 522,-267.8604 522,-248.8604 438,-248.8604"/>
<text text-anchor="middle" x="480" y="-255.8604" font-family="Helvetica,sans-Serif" font-size="10.00" fill="#000000">xcs_single_trial</text>
</a>
</g>
</g>
<!-- Node123&#45;&gt;Node126 -->
<g id="edge12" class="edge">
<title>Node123&#45;&gt;Node126</title>
<path fill="none" stroke="#191970" d="M382.8133,-232.5346C402.5871,-237.7892 425.3838,-243.847 443.9266,-248.7745"/>
<polygon fill="#191970" stroke="#191970" points="383.6484,-229.1351 373.0849,-229.9494 381.8506,-235.9003 383.6484,-229.1351"/>
</g>
<!-- Node125 -->
<g id="node11" class="node">
<title>Node125</title>
<g id="a_node11"><a xlink:href="python__wrapper_8cpp.html#afbdcc1358036a0b83a6b239da2b098a2" target="_top" xlink:title="BOOST_PYTHON_MODULE">
<polygon fill="none" stroke="#000000" points="717,-134.8604 717,-153.8604 863,-153.8604 863,-134.8604 717,-134.8604"/>
<text text-anchor="middle" x="790" y="-141.8604" font-family="Helvetica,sans-Serif" font-size="10.00" fill="#000000">BOOST_PYTHON_MODULE</text>
</a>
</g>
</g>
<!-- Node124&#45;&gt;Node125 -->
<g id="edge11" class="edge">
<title>Node124&#45;&gt;Node125</title>
<path fill="none" stroke="#191970" d="M665.3719,-207.4703C670.6783,-205.548 676.0024,-203.4918 681,-201.3604 714.9826,-186.8679 752.8138,-165.9321 773.7727,-153.88"/>
<polygon fill="#191970" stroke="#191970" points="664.2009,-204.1719 655.9138,-210.7731 666.5087,-210.7806 664.2009,-204.1719"/>
</g>
<!-- Node127 -->
<g id="node13" class="node">
<title>Node127</title>
<g id="a_node13"><a xlink:href="xcs__single__step_8h.html#a39a031bf59eaa9b33e30e614610dcda8" target="_top" xlink:title="Executes a single&#45;step experiment. ">
<polygon fill="none" stroke="#000000" points="570.5,-248.8604 570.5,-267.8604 678.5,-267.8604 678.5,-248.8604 570.5,-248.8604"/>
<text text-anchor="middle" x="624.5" y="-255.8604" font-family="Helvetica,sans-Serif" font-size="10.00" fill="#000000">xcs_single_step_exp</text>
</a>
</g>
</g>
<!-- Node126&#45;&gt;Node127 -->
<g id="edge13" class="edge">
<title>Node126&#45;&gt;Node127</title>
<path fill="none" stroke="#191970" d="M532.3484,-258.3604C544.7281,-258.3604 557.9533,-258.3604 570.4085,-258.3604"/>
<polygon fill="#191970" stroke="#191970" points="532.1839,-254.8605 522.1838,-258.3604 532.1838,-261.8605 532.1839,-254.8605"/>
</g>
<!-- Node127&#45;&gt;Node120 -->
<g id="edge14" class="edge">
<title>Node127&#45;&gt;Node120</title>
<path fill="none" stroke="#191970" d="M688.8516,-258.3604C710.5733,-258.3604 734.0764,-258.3604 752.9552,-258.3604"/>
<polygon fill="#191970" stroke="#191970" points="688.6909,-254.8605 678.6909,-258.3604 688.6909,-261.8605 688.6909,-254.8605"/>
</g>
<!-- Node129 -->
<g id="node15" class="node">
<title>Node129</title>
<g id="a_node15"><a xlink:href="xcsf_8h.html#a874829f28fee20f9ad15b540f4b4d6ff" target="_top" xlink:title="Executes MAX_TRIALS number of XCSF learning iterations using the training data. ">
<polygon fill="none" stroke="#000000" points="453,-20.8604 453,-39.8604 507,-39.8604 507,-20.8604 453,-20.8604"/>
<text text-anchor="middle" x="480" y="-27.8604" font-family="Helvetica,sans-Serif" font-size="10.00" fill="#000000">xcsf_fit1</text>
</a>
</g>
</g>
<!-- Node128&#45;&gt;Node129 -->
<g id="edge16" class="edge">
<title>Node128&#45;&gt;Node129</title>
<path fill="none" stroke="#191970" d="M383.0264,-56.1296C406.1069,-49.9964 433.2613,-42.7805 452.9557,-37.547"/>
<polygon fill="#191970" stroke="#191970" points="381.8506,-52.8205 373.0849,-58.7714 383.6484,-59.5858 381.8506,-52.8205"/>
</g>
<!-- Node131 -->
<g id="node17" class="node">
<title>Node131</title>
<g id="a_node17"><a xlink:href="xcsf_8h.html#a0b4de57cb9dadc9deca7901aa36e5025" target="_top" xlink:title="Executes MAX_TRIALS number of XCSF learning iterations using the training. data and test iterations u...">
<polygon fill="none" stroke="#000000" points="453,-58.8604 453,-77.8604 507,-77.8604 507,-58.8604 453,-58.8604"/>
<text text-anchor="middle" x="480" y="-65.8604" font-family="Helvetica,sans-Serif" font-size="10.00" fill="#000000">xcsf_fit2</text>
</a>
</g>
</g>
<!-- Node128&#45;&gt;Node131 -->
<g id="edge19" class="edge">
<title>Node128&#45;&gt;Node131</title>
<path fill="none" stroke="#191970" d="M388.8193,-68.3604C410.5104,-68.3604 434.8222,-68.3604 452.8834,-68.3604"/>
<polygon fill="#191970" stroke="#191970" points="388.746,-64.8605 378.7459,-68.3604 388.7459,-71.8605 388.746,-64.8605"/>
</g>
<!-- Node130 -->
<g id="node16" class="node">
<title>Node130</title>
<g id="a_node16"><a xlink:href="structXCS.html#ad2ccafe59d2b4ae6d0e1cbc15edee53c" target="_top" xlink:title="XCS::fit">
<polygon fill="none" stroke="#000000" points="598.5,-20.8604 598.5,-39.8604 650.5,-39.8604 650.5,-20.8604 598.5,-20.8604"/>
<text text-anchor="middle" x="624.5" y="-27.8604" font-family="Helvetica,sans-Serif" font-size="10.00" fill="#000000">XCS::fit</text>
</a>
</g>
</g>
<!-- Node129&#45;&gt;Node130 -->
<g id="edge17" class="edge">
<title>Node129&#45;&gt;Node130</title>
<path fill="none" stroke="#191970" d="M517.2134,-30.3604C542.6578,-30.3604 575.7514,-30.3604 598.4158,-30.3604"/>
<polygon fill="#191970" stroke="#191970" points="517.1794,-26.8605 507.1793,-30.3604 517.1793,-33.8605 517.1794,-26.8605"/>
</g>
<!-- Node130&#45;&gt;Node125 -->
<g id="edge18" class="edge">
<title>Node130&#45;&gt;Node125</title>
<path fill="none" stroke="#191970" d="M660.2375,-40.0065C667.3403,-42.5729 674.581,-45.6797 681,-49.3604 723.2459,-73.5848 764.0594,-115.6507 781.3504,-134.6055"/>
<polygon fill="#191970" stroke="#191970" points="661.3212,-36.6785 650.7275,-36.8387 659.1089,-43.3197 661.3212,-36.6785"/>
</g>
<!-- Node132 -->
<g id="node18" class="node">
<title>Node132</title>
<g id="a_node18"><a xlink:href="main_8c.html#a968c78da8ed8ad08662a86280deec99a" target="_top" xlink:title="regression">
<polygon fill="none" stroke="#000000" points="759,-39.8604 759,-58.8604 821,-58.8604 821,-39.8604 759,-39.8604"/>
<text text-anchor="middle" x="790" y="-46.8604" font-family="Helvetica,sans-Serif" font-size="10.00" fill="#000000">regression</text>
</a>
</g>
</g>
<!-- Node131&#45;&gt;Node132 -->
<g id="edge20" class="edge">
<title>Node131&#45;&gt;Node132</title>
<path fill="none" stroke="#191970" d="M516.6361,-57.4262C521.9891,-55.1398 527.2809,-52.4615 532,-49.3604 551.4424,-36.5844 546.6287,-20.5529 568,-11.3604 639.3018,19.3087 733.5033,-20.43 772.2232,-39.8287"/>
<polygon fill="#191970" stroke="#191970" points="515.1157,-54.2612 507.0449,-61.125 517.6345,-60.7924 515.1157,-54.2612"/>
</g>
<!-- Node133 -->
<g id="node19" class="node">
<title>Node133</title>
<g id="a_node19"><a xlink:href="structXCS.html#a7d53320740db8e846251bacd0238a9fb" target="_top" xlink:title="XCS::fit">
<polygon fill="none" stroke="#000000" points="598.5,-58.8604 598.5,-77.8604 650.5,-77.8604 650.5,-58.8604 598.5,-58.8604"/>
<text text-anchor="middle" x="624.5" y="-65.8604" font-family="Helvetica,sans-Serif" font-size="10.00" fill="#000000">XCS::fit</text>
</a>
</g>
</g>
<!-- Node131&#45;&gt;Node133 -->
<g id="edge22" class="edge">
<title>Node131&#45;&gt;Node133</title>
<path fill="none" stroke="#191970" d="M517.2134,-68.3604C542.6578,-68.3604 575.7514,-68.3604 598.4158,-68.3604"/>
<polygon fill="#191970" stroke="#191970" points="517.1794,-64.8605 507.1793,-68.3604 517.1793,-71.8605 517.1794,-64.8605"/>
</g>
<!-- Node132&#45;&gt;Node121 -->
<g id="edge21" class="edge">
<title>Node132&#45;&gt;Node121</title>
<path fill="none" stroke="#191970" d="M806.4176,-66.4193C833.5466,-94.6081 886.8837,-150.0287 908.5326,-172.5232"/>
<polygon fill="#191970" stroke="#191970" points="808.6616,-63.7037 799.2054,-58.9255 803.618,-68.5577 808.6616,-63.7037"/>
</g>
<!-- Node134&#45;&gt;Node131 -->
<g id="edge24" class="edge">
<title>Node134&#45;&gt;Node131</title>
<path fill="none" stroke="#191970" d="M383.0264,-94.1296C406.1069,-87.9964 433.2613,-80.7805 452.9557,-75.547"/>
<polygon fill="#191970" stroke="#191970" points="381.8506,-90.8205 373.0849,-96.7714 383.6484,-97.5858 381.8506,-90.8205"/>
</g>
<!-- Node135 -->
<g id="node21" class="node">
<title>Node135</title>
<g id="a_node21"><a xlink:href="xcsf_8h.html#a2cf95733e5f97410d94211b72e835847" target="_top" xlink:title="Calculates the XCSF error for the input data. ">
<polygon fill="none" stroke="#000000" points="447.5,-96.8604 447.5,-115.8604 512.5,-115.8604 512.5,-96.8604 447.5,-96.8604"/>
<text text-anchor="middle" x="480" y="-103.8604" font-family="Helvetica,sans-Serif" font-size="10.00" fill="#000000">xcsf_score</text>
</a>
</g>
</g>
<!-- Node134&#45;&gt;Node135 -->
<g id="edge25" class="edge">
<title>Node134&#45;&gt;Node135</title>
<path fill="none" stroke="#191970" d="M386.3331,-106.3604C406.477,-106.3604 429.226,-106.3604 447.2602,-106.3604"/>
<polygon fill="#191970" stroke="#191970" points="386.0754,-102.8605 376.0754,-106.3604 386.0753,-109.8605 386.0754,-102.8605"/>
</g>
<!-- Node136 -->
<g id="node22" class="node">
<title>Node136</title>
<g id="a_node22"><a xlink:href="structXCS.html#aa77bc77484d6d14bf512304a23cfec88" target="_top" xlink:title="XCS::score">
<polygon fill="none" stroke="#000000" points="590.5,-96.8604 590.5,-115.8604 658.5,-115.8604 658.5,-96.8604 590.5,-96.8604"/>
<text text-anchor="middle" x="624.5" y="-103.8604" font-family="Helvetica,sans-Serif" font-size="10.00" fill="#000000">XCS::score</text>
</a>
</g>
</g>
<!-- Node135&#45;&gt;Node136 -->
<g id="edge26" class="edge">
<title>Node135&#45;&gt;Node136</title>
<path fill="none" stroke="#191970" d="M522.9751,-106.3604C544.493,-106.3604 570.1803,-106.3604 590.3327,-106.3604"/>
<polygon fill="#191970" stroke="#191970" points="522.7893,-102.8605 512.7893,-106.3604 522.7893,-109.8605 522.7893,-102.8605"/>
</g>
<!-- Node136&#45;&gt;Node125 -->
<g id="edge27" class="edge">
<title>Node136&#45;&gt;Node125</title>
<path fill="none" stroke="#191970" d="M668.653,-116.4983C693.4069,-122.182 724.0992,-129.2291 748.4226,-134.814"/>
<polygon fill="#191970" stroke="#191970" points="669.3214,-113.0607 658.7917,-114.2341 667.7548,-119.8832 669.3214,-113.0607"/>
</g>
<!-- Node138 -->
<g id="node24" class="node">
<title>Node138</title>
<g id="a_node24"><a xlink:href="structXCS.html#a911ed75c86abed7807d33eb1385240ed" target="_top" xlink:title="XCS::predict">
<polygon fill="none" stroke="#000000" points="588,-134.8604 588,-153.8604 661,-153.8604 661,-134.8604 588,-134.8604"/>
<text text-anchor="middle" x="624.5" y="-141.8604" font-family="Helvetica,sans-Serif" font-size="10.00" fill="#000000">XCS::predict</text>
</a>
</g>
</g>
<!-- Node137&#45;&gt;Node138 -->
<g id="edge29" class="edge">
<title>Node137&#45;&gt;Node138</title>
<path fill="none" stroke="#191970" d="M525.5058,-144.3604C545.5633,-144.3604 568.8227,-144.3604 587.7541,-144.3604"/>
<polygon fill="#191970" stroke="#191970" points="525.3487,-140.8605 515.3487,-144.3604 525.3486,-147.8605 525.3487,-140.8605"/>
</g>
<!-- Node138&#45;&gt;Node125 -->
<g id="edge30" class="edge">
<title>Node138&#45;&gt;Node125</title>
<path fill="none" stroke="#191970" d="M671.6123,-144.3604C685.6679,-144.3604 701.4193,-144.3604 716.7317,-144.3604"/>
<polygon fill="#191970" stroke="#191970" points="671.2298,-140.8605 661.2298,-144.3604 671.2298,-147.8605 671.2298,-140.8605"/>
</g>
<!-- Node140 -->
<g id="node26" class="node">
<title>Node140</title>
<g id="a_node26"><a xlink:href="structXCS.html#aa5608b379fae01b724267a99068d55bb" target="_top" xlink:title="XCS::print_match_set">
<polygon fill="none" stroke="#000000" points="568,-172.8604 568,-191.8604 681,-191.8604 681,-172.8604 568,-172.8604"/>
<text text-anchor="middle" x="624.5" y="-179.8604" font-family="Helvetica,sans-Serif" font-size="10.00" fill="#000000">XCS::print_match_set</text>
</a>
</g>
</g>
<!-- Node139&#45;&gt;Node140 -->
<g id="edge32" class="edge">
<title>Node139&#45;&gt;Node140</title>
<path fill="none" stroke="#191970" d="M402.119,-182.3604C451.9451,-182.3604 519.9767,-182.3604 567.6275,-182.3604"/>
<polygon fill="#191970" stroke="#191970" points="402.0928,-178.8605 392.0927,-182.3604 402.0927,-185.8605 402.0928,-178.8605"/>
</g>
<!-- Node140&#45;&gt;Node125 -->
<g id="edge33" class="edge">
<title>Node140&#45;&gt;Node125</title>
<path fill="none" stroke="#191970" d="M676.3105,-170.4644C699.5733,-165.1231 726.6469,-158.9068 748.5377,-153.8805"/>
<polygon fill="#191970" stroke="#191970" points="675.2258,-167.1223 666.2626,-172.7714 676.7923,-173.9448 675.2258,-167.1223"/>
</g>
</g>
</svg>
