<?xml version="1.0" encoding="UTF-8" standalone="no"?>
<!DOCTYPE svg PUBLIC "-//W3C//DTD SVG 1.1//EN"
 "http://www.w3.org/Graphics/SVG/1.1/DTD/svg11.dtd">
<!-- Generated by graphviz version 2.40.1 (20161225.0304)
 -->
<!-- Title: cl_cond_size Pages: 1 -->
<svg width="1115pt" height="324pt"
 viewBox="0.00 0.00 1115.00 323.70" xmlns="http://www.w3.org/2000/svg" xmlns:xlink="http://www.w3.org/1999/xlink">
<g id="graph0" class="graph" transform="scale(1 1) rotate(0) translate(4 319.7018)">
<title>cl_cond_size</title>
<!-- Node46 -->
<g id="node1" class="node">
<title>Node46</title>
<polygon fill="#bfbfbf" stroke="#000000" points="0,-209.5 0,-228.5 74,-228.5 74,-209.5 0,-209.5"/>
<text text-anchor="middle" x="37" y="-216.5" font-family="Helvetica,sans-Serif" font-size="10.00" fill="#000000">cl_cond_size</text>
</g>
<!-- Node47 -->
<g id="node2" class="node">
<title>Node47</title>
<g id="a_node2"><a xlink:href="cl__set_8h.html#a7ff6217fb822a2eca84c9ac23e8b5cb5" target="_top" xlink:title="Deletes a single classifier from the population set. ">
<polygon fill="none" stroke="#000000" points="135.5,-190.5 135.5,-209.5 185.5,-209.5 185.5,-190.5 135.5,-190.5"/>
<text text-anchor="middle" x="160.5" y="-197.5" font-family="Helvetica,sans-Serif" font-size="10.00" fill="#000000">pop_del</text>
</a>
</g>
</g>
<!-- Node46&#45;&gt;Node47 -->
<g id="edge1" class="edge">
<title>Node46&#45;&gt;Node47</title>
<path fill="none" stroke="#191970" d="M84.0566,-211.7605C101.4454,-209.0853 120.4846,-206.1562 135.2122,-203.8904"/>
<polygon fill="#191970" stroke="#191970" points="83.4056,-208.3194 74.0541,-213.2994 84.47,-215.238 83.4056,-208.3194"/>
</g>
<!-- Node73 -->
<g id="node28" class="node">
<title>Node73</title>
<g id="a_node28"><a xlink:href="cl__set_8h.html#a83f22ece229912e4673e79aedd776c13" target="_top" xlink:title="Calculates the mean condition size of classifiers in the set. ">
<polygon fill="none" stroke="#000000" points="110,-256.5 110,-275.5 211,-275.5 211,-256.5 110,-256.5"/>
<text text-anchor="middle" x="160.5" y="-263.5" font-family="Helvetica,sans-Serif" font-size="10.00" fill="#000000">set_avg_cond_size</text>
</a>
</g>
</g>
<!-- Node46&#45;&gt;Node73 -->
<g id="edge38" class="edge">
<title>Node46&#45;&gt;Node73</title>
<path fill="none" stroke="#191970" d="M71.4649,-232.1162C91.6622,-239.8026 116.7342,-249.3442 135.1212,-256.3417"/>
<polygon fill="#191970" stroke="#191970" points="72.5831,-228.7969 61.9921,-228.5112 70.0932,-235.3391 72.5831,-228.7969"/>
</g>
<!-- Node48 -->
<g id="node3" class="node">
<title>Node48</title>
<g id="a_node3"><a xlink:href="cl__set_8h.html#a8537e849783523d1e2394e4a027cf33a" target="_top" xlink:title="Enforces the maximum population size limit. ">
<polygon fill="none" stroke="#000000" points="275,-133.5 275,-152.5 368,-152.5 368,-133.5 275,-133.5"/>
<text text-anchor="middle" x="321.5" y="-140.5" font-family="Helvetica,sans-Serif" font-size="10.00" fill="#000000">pop_enforce_limit</text>
</a>
</g>
</g>
<!-- Node47&#45;&gt;Node48 -->
<g id="edge2" class="edge">
<title>Node47&#45;&gt;Node48</title>
<path fill="none" stroke="#191970" d="M195.2433,-187.6996C225.0468,-177.148 267.3782,-162.1611 294.6429,-152.5084"/>
<polygon fill="#191970" stroke="#191970" points="193.9148,-184.457 185.6563,-191.0938 196.251,-191.0556 193.9148,-184.457"/>
</g>
<!-- Node49 -->
<g id="node4" class="node">
<title>Node49</title>
<g id="a_node4"><a xlink:href="cl__set_8h.html#af3bea0b4d03654b9d6cb08fbf272c847" target="_top" xlink:title="Constructs the match set. ">
<polygon fill="none" stroke="#000000" points="432,-133.5 432,-152.5 494,-152.5 494,-133.5 432,-133.5"/>
<text text-anchor="middle" x="463" y="-140.5" font-family="Helvetica,sans-Serif" font-size="10.00" fill="#000000">set_match</text>
</a>
</g>
</g>
<!-- Node48&#45;&gt;Node49 -->
<g id="edge3" class="edge">
<title>Node48&#45;&gt;Node49</title>
<path fill="none" stroke="#191970" d="M378.2357,-143C396.5568,-143 416.1841,-143 431.9336,-143"/>
<polygon fill="#191970" stroke="#191970" points="378.2246,-139.5001 368.2245,-143 378.2245,-146.5001 378.2246,-139.5001"/>
</g>
<!-- Node72 -->
<g id="node27" class="node">
<title>Node72</title>
<g id="a_node27"><a xlink:href="ea_8h.html#ae3824341a2f5482cb6ac70b3839ded51" target="_top" xlink:title="Executes the evolutionary algorithm (EA). ">
<polygon fill="none" stroke="#000000" points="448.5,-57.5 448.5,-76.5 477.5,-76.5 477.5,-57.5 448.5,-57.5"/>
<text text-anchor="middle" x="463" y="-64.5" font-family="Helvetica,sans-Serif" font-size="10.00" fill="#000000">ea</text>
</a>
</g>
</g>
<!-- Node48&#45;&gt;Node72 -->
<g id="edge34" class="edge">
<title>Node48&#45;&gt;Node72</title>
<path fill="none" stroke="#191970" d="M348.397,-128.5536C378.0332,-112.6359 424.6198,-87.6141 448.2284,-74.9339"/>
<polygon fill="#191970" stroke="#191970" points="346.5747,-125.5594 339.4211,-133.3745 349.8869,-131.7262 346.5747,-125.5594"/>
</g>
<!-- Node50 -->
<g id="node5" class="node">
<title>Node50</title>
<g id="a_node5"><a xlink:href="xcs__multi__step_8c.html#a9f6d53384f68b9354b5757dd2c7771fd" target="_top" xlink:title="Executes a multi&#45;step explore trial. ">
<polygon fill="none" stroke="#000000" points="532.5,-38.5 532.5,-57.5 627.5,-57.5 627.5,-38.5 532.5,-38.5"/>
<text text-anchor="middle" x="580" y="-45.5" font-family="Helvetica,sans-Serif" font-size="10.00" fill="#000000">xcs_multi_explore</text>
</a>
</g>
</g>
<!-- Node49&#45;&gt;Node50 -->
<g id="edge4" class="edge">
<title>Node49&#45;&gt;Node50</title>
<path fill="none" stroke="#191970" d="M474.9439,-125.0004C487.0415,-107.9944 507.184,-82.8009 530,-67 535.4203,-63.2463 541.68,-60.1132 547.8965,-57.5453"/>
<polygon fill="#191970" stroke="#191970" points="471.8821,-123.2752 469.0849,-133.4941 477.6441,-127.2499 471.8821,-123.2752"/>
</g>
<!-- Node54 -->
<g id="node9" class="node">
<title>Node54</title>
<g id="a_node9"><a xlink:href="xcs__multi__step_8c.html#af458a8b42e79e924ffcf87a7d9c9711d" target="_top" xlink:title="Executes a multi&#45;step exploit trial. ">
<polygon fill="none" stroke="#000000" points="534,-114.5 534,-133.5 626,-133.5 626,-114.5 534,-114.5"/>
<text text-anchor="middle" x="580" y="-121.5" font-family="Helvetica,sans-Serif" font-size="10.00" fill="#000000">xcs_multi_exploit</text>
</a>
</g>
</g>
<!-- Node49&#45;&gt;Node54 -->
<g id="edge8" class="edge">
<title>Node49&#45;&gt;Node54</title>
<path fill="none" stroke="#191970" d="M504.137,-136.3196C513.7349,-134.761 524.0185,-133.091 533.8189,-131.4995"/>
<polygon fill="#191970" stroke="#191970" points="503.3563,-132.9005 494.0467,-137.9582 504.4784,-139.81 503.3563,-132.9005"/>
</g>
<!-- Node55 -->
<g id="node10" class="node">
<title>Node55</title>
<g id="a_node10"><a xlink:href="xcs__single__step_8c.html#aef07baf4de9b02d9c6fd33a1c485e7ea" target="_top" xlink:title="Executes a single&#45;step explore trial. ">
<polygon fill="none" stroke="#000000" points="530,-.5 530,-19.5 630,-19.5 630,-.5 530,-.5"/>
<text text-anchor="middle" x="580" y="-7.5" font-family="Helvetica,sans-Serif" font-size="10.00" fill="#000000">xcs_single_explore</text>
</a>
</g>
</g>
<!-- Node49&#45;&gt;Node55 -->
<g id="edge10" class="edge">
<title>Node49&#45;&gt;Node55</title>
<path fill="none" stroke="#191970" d="M473.0084,-124.4643C489.5944,-93.9859 521.7704,-35.9501 530,-29 534.5406,-25.1654 539.9359,-22.0606 545.4747,-19.5604"/>
<polygon fill="#191970" stroke="#191970" points="469.9117,-122.8327 468.2212,-133.2918 476.0651,-126.1697 469.9117,-122.8327"/>
</g>
<!-- Node57 -->
<g id="node12" class="node">
<title>Node57</title>
<g id="a_node12"><a xlink:href="xcs__single__step_8c.html#a5d3ed7cfbd01de00beaa8e2559f463b5" target="_top" xlink:title="Executes a single&#45;step exploit trial. ">
<polygon fill="none" stroke="#000000" points="531.5,-76.5 531.5,-95.5 628.5,-95.5 628.5,-76.5 531.5,-76.5"/>
<text text-anchor="middle" x="580" y="-83.5" font-family="Helvetica,sans-Serif" font-size="10.00" fill="#000000">xcs_single_exploit</text>
</a>
</g>
</g>
<!-- Node49&#45;&gt;Node57 -->
<g id="edge13" class="edge">
<title>Node49&#45;&gt;Node57</title>
<path fill="none" stroke="#191970" d="M487.2387,-128.0631C499.7634,-120.6527 515.4385,-111.847 530,-105 537.227,-101.6018 545.2411,-98.3425 552.6978,-95.5123"/>
<polygon fill="#191970" stroke="#191970" points="485.1175,-125.2542 478.3457,-133.4024 488.7207,-131.2557 485.1175,-125.2542"/>
</g>
<!-- Node58 -->
<g id="node13" class="node">
<title>Node58</title>
<g id="a_node13"><a xlink:href="xcsf_8c.html#a6dfb03d255a2684e9e06e88f9a4e3a3d" target="_top" xlink:title="Executes a single XCSF learning trial. ">
<polygon fill="none" stroke="#000000" points="538.5,-152.5 538.5,-171.5 621.5,-171.5 621.5,-152.5 538.5,-152.5"/>
<text text-anchor="middle" x="580" y="-159.5" font-family="Helvetica,sans-Serif" font-size="10.00" fill="#000000">xcsf_learn_trial</text>
</a>
</g>
</g>
<!-- Node49&#45;&gt;Node58 -->
<g id="edge15" class="edge">
<title>Node49&#45;&gt;Node58</title>
<path fill="none" stroke="#191970" d="M503.9329,-149.6472C515.0397,-151.4509 527.0777,-153.4058 538.23,-155.2168"/>
<polygon fill="#191970" stroke="#191970" points="504.4784,-146.19 494.0467,-148.0418 503.3563,-153.0995 504.4784,-146.19"/>
</g>
<!-- Node65 -->
<g id="node20" class="node">
<title>Node65</title>
<g id="a_node20"><a xlink:href="xcsf_8c.html#a40ac6b86844534bd5124b4e936c768ee" target="_top" xlink:title="Executes a single XCSF testing trial. ">
<polygon fill="none" stroke="#000000" points="541,-190.5 541,-209.5 619,-209.5 619,-190.5 541,-190.5"/>
<text text-anchor="middle" x="580" y="-197.5" font-family="Helvetica,sans-Serif" font-size="10.00" fill="#000000">xcsf_test_trial</text>
</a>
</g>
</g>
<!-- Node49&#45;&gt;Node65 -->
<g id="edge23" class="edge">
<title>Node49&#45;&gt;Node65</title>
<path fill="none" stroke="#191970" d="M487.2387,-157.9369C499.7634,-165.3473 515.4385,-174.153 530,-181 537.227,-184.3982 545.2411,-187.6575 552.6978,-190.4877"/>
<polygon fill="#191970" stroke="#191970" points="488.7207,-154.7443 478.3457,-152.5976 485.1175,-160.7458 488.7207,-154.7443"/>
</g>
<!-- Node68 -->
<g id="node23" class="node">
<title>Node68</title>
<g id="a_node23"><a xlink:href="xcsf_8h.html#af0b9db7273578fdff649d46823cd9790" target="_top" xlink:title="Calculates the XCSF predictions for the provided input. ">
<polygon fill="none" stroke="#000000" points="686,-266.5 686,-285.5 756,-285.5 756,-266.5 686,-266.5"/>
<text text-anchor="middle" x="721" y="-273.5" font-family="Helvetica,sans-Serif" font-size="10.00" fill="#000000">xcsf_predict</text>
</a>
</g>
</g>
<!-- Node49&#45;&gt;Node68 -->
<g id="edge28" class="edge">
<title>Node49&#45;&gt;Node68</title>
<path fill="none" stroke="#191970" d="M470.1506,-162.2449C479.8987,-185.6134 499.6907,-224.3349 530,-244 577.526,-274.8355 645.2357,-278.9423 685.9693,-278.1474"/>
<polygon fill="#191970" stroke="#191970" points="473.312,-160.7216 466.3769,-152.7119 466.8034,-163.2982 473.312,-160.7216"/>
</g>
<!-- Node70 -->
<g id="node25" class="node">
<title>Node70</title>
<g id="a_node25"><a xlink:href="xcsf_8h.html#ae1f6851f682e015601030a5c725c6618" target="_top" xlink:title="Prints the XCSF match set for the supplied input. ">
<polygon fill="none" stroke="#000000" points="666,-228.5 666,-247.5 776,-247.5 776,-228.5 666,-228.5"/>
<text text-anchor="middle" x="721" y="-235.5" font-family="Helvetica,sans-Serif" font-size="10.00" fill="#000000">xcsf_print_match_set</text>
</a>
</g>
</g>
<!-- Node49&#45;&gt;Node70 -->
<g id="edge31" class="edge">
<title>Node49&#45;&gt;Node70</title>
<path fill="none" stroke="#191970" d="M473.5668,-161.5249C484.967,-179.5801 504.9066,-206.1364 530,-219 571.9604,-240.5102 625.8883,-244.0464 665.7345,-242.9065"/>
<polygon fill="#191970" stroke="#191970" points="476.2931,-159.2678 468.1334,-152.5098 470.2978,-162.8812 476.2931,-159.2678"/>
</g>
<!-- Node51 -->
<g id="node6" class="node">
<title>Node51</title>
<g id="a_node6"><a xlink:href="xcs__multi__step_8h.html#acc29d4a55dbd56c16ea5f19f15a7c677" target="_top" xlink:title="Executes a multi&#45;step reinforcement learning experiment. ">
<polygon fill="none" stroke="#000000" points="669,-48.5 669,-67.5 773,-67.5 773,-48.5 669,-48.5"/>
<text text-anchor="middle" x="721" y="-55.5" font-family="Helvetica,sans-Serif" font-size="10.00" fill="#000000">xcs_multi_step_exp</text>
</a>
</g>
</g>
<!-- Node50&#45;&gt;Node51 -->
<g id="edge5" class="edge">
<title>Node50&#45;&gt;Node51</title>
<path fill="none" stroke="#191970" d="M637.8746,-52.1046C648.1708,-52.8348 658.8384,-53.5914 668.96,-54.3092"/>
<polygon fill="#191970" stroke="#191970" points="637.9588,-48.6018 627.7362,-51.3855 637.4635,-55.5843 637.9588,-48.6018"/>
</g>
<!-- Node52 -->
<g id="node7" class="node">
<title>Node52</title>
<g id="a_node7"><a xlink:href="main_8c.html#ab572a67aa431827116ebd6931d667d21" target="_top" xlink:title="classification">
<polygon fill="none" stroke="#000000" points="831.5,-38.5 831.5,-57.5 905.5,-57.5 905.5,-38.5 831.5,-38.5"/>
<text text-anchor="middle" x="868.5" y="-45.5" font-family="Helvetica,sans-Serif" font-size="10.00" fill="#000000">classification</text>
</a>
</g>
</g>
<!-- Node51&#45;&gt;Node52 -->
<g id="edge6" class="edge">
<title>Node51&#45;&gt;Node52</title>
<path fill="none" stroke="#191970" d="M783.0871,-53.7907C799.495,-52.6783 816.6931,-51.5123 831.3212,-50.5206"/>
<polygon fill="#191970" stroke="#191970" points="782.7433,-50.3059 773.003,-54.4744 783.2169,-57.2899 782.7433,-50.3059"/>
</g>
<!-- Node53 -->
<g id="node8" class="node">
<title>Node53</title>
<g id="a_node8"><a xlink:href="main_8c.html#a3c04138a5bfe5d72780bb7e82a18e627" target="_top" xlink:title="main">
<polygon fill="none" stroke="#000000" points="1015,-76.5 1015,-95.5 1053,-95.5 1053,-76.5 1015,-76.5"/>
<text text-anchor="middle" x="1034" y="-83.5" font-family="Helvetica,sans-Serif" font-size="10.00" fill="#000000">main</text>
</a>
</g>
</g>
<!-- Node52&#45;&gt;Node53 -->
<g id="edge7" class="edge">
<title>Node52&#45;&gt;Node53</title>
<path fill="none" stroke="#191970" d="M915.5453,-58.8019C948.5245,-66.3742 990.8651,-76.0959 1014.9621,-81.6287"/>
<polygon fill="#191970" stroke="#191970" points="916.1711,-55.3546 905.6414,-56.5279 914.6045,-62.1771 916.1711,-55.3546"/>
</g>
<!-- Node54&#45;&gt;Node51 -->
<g id="edge9" class="edge">
<title>Node54&#45;&gt;Node51</title>
<path fill="none" stroke="#191970" d="M616.1822,-110.8107C620.8648,-108.9404 625.5696,-106.9782 630,-105 656.3029,-93.2555 685.7573,-77.5539 703.8415,-67.6065"/>
<polygon fill="#191970" stroke="#191970" points="614.7501,-107.6122 606.6967,-114.4964 617.2855,-114.1369 614.7501,-107.6122"/>
</g>
<!-- Node56 -->
<g id="node11" class="node">
<title>Node56</title>
<g id="a_node11"><a xlink:href="xcs__single__step_8h.html#a39a031bf59eaa9b33e30e614610dcda8" target="_top" xlink:title="Executes a single&#45;step experiment. ">
<polygon fill="none" stroke="#000000" points="667,-10.5 667,-29.5 775,-29.5 775,-10.5 667,-10.5"/>
<text text-anchor="middle" x="721" y="-17.5" font-family="Helvetica,sans-Serif" font-size="10.00" fill="#000000">xcs_single_step_exp</text>
</a>
</g>
</g>
<!-- Node55&#45;&gt;Node56 -->
<g id="edge11" class="edge">
<title>Node55&#45;&gt;Node56</title>
<path fill="none" stroke="#191970" d="M640.2931,-14.2761C649.0823,-14.8995 658.0877,-15.5381 666.7473,-16.1523"/>
<polygon fill="#191970" stroke="#191970" points="640.3309,-10.7701 630.1083,-13.5538 639.8356,-17.7525 640.3309,-10.7701"/>
</g>
<!-- Node56&#45;&gt;Node52 -->
<g id="edge12" class="edge">
<title>Node56&#45;&gt;Node52</title>
<path fill="none" stroke="#191970" d="M781.2146,-31.4306C798.2146,-34.6577 816.2083,-38.0734 831.4134,-40.9598"/>
<polygon fill="#191970" stroke="#191970" points="781.8259,-27.9842 771.3486,-29.5577 780.5204,-34.8614 781.8259,-27.9842"/>
</g>
<!-- Node57&#45;&gt;Node56 -->
<g id="edge14" class="edge">
<title>Node57&#45;&gt;Node56</title>
<path fill="none" stroke="#191970" d="M618.9592,-72.5157C622.7618,-70.8093 626.5027,-68.9659 630,-67 647.6696,-57.0677 648.1809,-48.6614 666,-39 672.7495,-35.3405 680.3389,-32.1792 687.6746,-29.5429"/>
<polygon fill="#191970" stroke="#191970" points="617.366,-69.3879 609.483,-76.4667 620.0598,-75.8488 617.366,-69.3879"/>
</g>
<!-- Node59 -->
<g id="node14" class="node">
<title>Node59</title>
<g id="a_node14"><a xlink:href="xcsf_8h.html#a874829f28fee20f9ad15b540f4b4d6ff" target="_top" xlink:title="Executes MAX_TRIALS number of XCSF learning iterations using the training data. ">
<polygon fill="none" stroke="#000000" points="694,-105.5 694,-124.5 748,-124.5 748,-105.5 694,-105.5"/>
<text text-anchor="middle" x="721" y="-112.5" font-family="Helvetica,sans-Serif" font-size="10.00" fill="#000000">xcsf_fit1</text>
</a>
</g>
</g>
<!-- Node58&#45;&gt;Node59 -->
<g id="edge16" class="edge">
<title>Node58&#45;&gt;Node59</title>
<path fill="none" stroke="#191970" d="M618.0407,-149.3198C642.0218,-141.3261 672.413,-131.1957 693.9441,-124.0186"/>
<polygon fill="#191970" stroke="#191970" points="616.9135,-146.0061 608.5335,-152.4888 619.1271,-152.6469 616.9135,-146.0061"/>
</g>
<!-- Node62 -->
<g id="node17" class="node">
<title>Node62</title>
<g id="a_node17"><a xlink:href="xcsf_8h.html#a0b4de57cb9dadc9deca7901aa36e5025" target="_top" xlink:title="Executes MAX_TRIALS number of XCSF learning iterations using the training. data and test iterations u...">
<polygon fill="none" stroke="#000000" points="694,-152.5 694,-171.5 748,-171.5 748,-152.5 694,-152.5"/>
<text text-anchor="middle" x="721" y="-159.5" font-family="Helvetica,sans-Serif" font-size="10.00" fill="#000000">xcsf_fit2</text>
</a>
</g>
</g>
<!-- Node58&#45;&gt;Node62 -->
<g id="edge19" class="edge">
<title>Node58&#45;&gt;Node62</title>
<path fill="none" stroke="#191970" d="M631.6807,-162C652.8063,-162 676.3646,-162 693.9806,-162"/>
<polygon fill="#191970" stroke="#191970" points="631.5421,-158.5001 621.542,-162 631.542,-165.5001 631.5421,-158.5001"/>
</g>
<!-- Node60 -->
<g id="node15" class="node">
<title>Node60</title>
<g id="a_node15"><a xlink:href="structXCS.html#ad2ccafe59d2b4ae6d0e1cbc15edee53c" target="_top" xlink:title="XCS::fit">
<polygon fill="none" stroke="#000000" points="842.5,-76.5 842.5,-95.5 894.5,-95.5 894.5,-76.5 842.5,-76.5"/>
<text text-anchor="middle" x="868.5" y="-83.5" font-family="Helvetica,sans-Serif" font-size="10.00" fill="#000000">XCS::fit</text>
</a>
</g>
</g>
<!-- Node59&#45;&gt;Node60 -->
<g id="edge17" class="edge">
<title>Node59&#45;&gt;Node60</title>
<path fill="none" stroke="#191970" d="M757.9983,-107.7258C784.1863,-102.5769 818.6796,-95.7952 842.114,-91.1878"/>
<polygon fill="#191970" stroke="#191970" points="757.1907,-104.3175 748.0538,-109.681 758.5412,-111.186 757.1907,-104.3175"/>
</g>
<!-- Node61 -->
<g id="node16" class="node">
<title>Node61</title>
<g id="a_node16"><a xlink:href="python__wrapper_8cpp.html#afbdcc1358036a0b83a6b239da2b098a2" target="_top" xlink:title="BOOST_PYTHON_MODULE">
<polygon fill="none" stroke="#000000" points="961,-228.5 961,-247.5 1107,-247.5 1107,-228.5 961,-228.5"/>
<text text-anchor="middle" x="1034" y="-235.5" font-family="Helvetica,sans-Serif" font-size="10.00" fill="#000000">BOOST_PYTHON_MODULE</text>
</a>
</g>
</g>
<!-- Node60&#45;&gt;Node61 -->
<g id="edge18" class="edge">
<title>Node60&#45;&gt;Node61</title>
<path fill="none" stroke="#191970" d="M904.3444,-94.6793C911.5428,-97.3296 918.794,-100.7148 925,-105 975.3612,-139.7747 1014.9621,-204.1419 1028.7419,-228.408"/>
<polygon fill="#191970" stroke="#191970" points="905.2569,-91.2952 894.6641,-91.5052 903.0759,-97.9468 905.2569,-91.2952"/>
</g>
<!-- Node63 -->
<g id="node18" class="node">
<title>Node63</title>
<g id="a_node18"><a xlink:href="main_8c.html#a968c78da8ed8ad08662a86280deec99a" target="_top" xlink:title="regression">
<polygon fill="none" stroke="#000000" points="837.5,-114.5 837.5,-133.5 899.5,-133.5 899.5,-114.5 837.5,-114.5"/>
<text text-anchor="middle" x="868.5" y="-121.5" font-family="Helvetica,sans-Serif" font-size="10.00" fill="#000000">regression</text>
</a>
</g>
</g>
<!-- Node62&#45;&gt;Node63 -->
<g id="edge20" class="edge">
<title>Node62&#45;&gt;Node63</title>
<path fill="none" stroke="#191970" d="M758.0371,-152.4582C782.4695,-146.1638 814.118,-138.0103 837.2726,-132.045"/>
<polygon fill="#191970" stroke="#191970" points="756.8644,-149.146 748.0538,-155.0302 758.6108,-155.9247 756.8644,-149.146"/>
</g>
<!-- Node64 -->
<g id="node19" class="node">
<title>Node64</title>
<g id="a_node19"><a xlink:href="structXCS.html#a7d53320740db8e846251bacd0238a9fb" target="_top" xlink:title="XCS::fit">
<polygon fill="none" stroke="#000000" points="842.5,-152.5 842.5,-171.5 894.5,-171.5 894.5,-152.5 842.5,-152.5"/>
<text text-anchor="middle" x="868.5" y="-159.5" font-family="Helvetica,sans-Serif" font-size="10.00" fill="#000000">XCS::fit</text>
</a>
</g>
</g>
<!-- Node62&#45;&gt;Node64 -->
<g id="edge22" class="edge">
<title>Node62&#45;&gt;Node64</title>
<path fill="none" stroke="#191970" d="M758.3464,-162C784.4913,-162 818.7833,-162 842.114,-162"/>
<polygon fill="#191970" stroke="#191970" points="758.0538,-158.5001 748.0538,-162 758.0537,-165.5001 758.0538,-158.5001"/>
</g>
<!-- Node63&#45;&gt;Node53 -->
<g id="edge21" class="edge">
<title>Node63&#45;&gt;Node53</title>
<path fill="none" stroke="#191970" d="M909.6335,-114.5555C943.2693,-106.8324 989.3073,-96.2618 1014.8863,-90.3887"/>
<polygon fill="#191970" stroke="#191970" points="908.5924,-111.2033 899.6293,-116.8525 910.1589,-118.0258 908.5924,-111.2033"/>
</g>
<!-- Node65&#45;&gt;Node62 -->
<g id="edge24" class="edge">
<title>Node65&#45;&gt;Node62</title>
<path fill="none" stroke="#191970" d="M625.3153,-187.7874C647.9134,-181.6971 674.4861,-174.5357 693.8868,-169.3071"/>
<polygon fill="#191970" stroke="#191970" points="624.325,-184.4293 615.5803,-190.411 626.1465,-191.1882 624.325,-184.4293"/>
</g>
<!-- Node66 -->
<g id="node21" class="node">
<title>Node66</title>
<g id="a_node21"><a xlink:href="xcsf_8h.html#a2cf95733e5f97410d94211b72e835847" target="_top" xlink:title="Calculates the XCSF error for the input data. ">
<polygon fill="none" stroke="#000000" points="688.5,-190.5 688.5,-209.5 753.5,-209.5 753.5,-190.5 688.5,-190.5"/>
<text text-anchor="middle" x="721" y="-197.5" font-family="Helvetica,sans-Serif" font-size="10.00" fill="#000000">xcsf_score</text>
</a>
</g>
</g>
<!-- Node65&#45;&gt;Node66 -->
<g id="edge25" class="edge">
<title>Node65&#45;&gt;Node66</title>
<path fill="none" stroke="#191970" d="M629.4874,-200C648.919,-200 670.6946,-200 688.128,-200"/>
<polygon fill="#191970" stroke="#191970" points="629.2764,-196.5001 619.2764,-200 629.2763,-203.5001 629.2764,-196.5001"/>
</g>
<!-- Node67 -->
<g id="node22" class="node">
<title>Node67</title>
<g id="a_node22"><a xlink:href="structXCS.html#aa77bc77484d6d14bf512304a23cfec88" target="_top" xlink:title="XCS::score">
<polygon fill="none" stroke="#000000" points="834.5,-190.5 834.5,-209.5 902.5,-209.5 902.5,-190.5 834.5,-190.5"/>
<text text-anchor="middle" x="868.5" y="-197.5" font-family="Helvetica,sans-Serif" font-size="10.00" fill="#000000">XCS::score</text>
</a>
</g>
</g>
<!-- Node66&#45;&gt;Node67 -->
<g id="edge26" class="edge">
<title>Node66&#45;&gt;Node67</title>
<path fill="none" stroke="#191970" d="M763.9832,-200C786.3724,-200 813.3709,-200 834.3188,-200"/>
<polygon fill="#191970" stroke="#191970" points="763.7351,-196.5001 753.735,-200 763.735,-203.5001 763.7351,-196.5001"/>
</g>
<!-- Node67&#45;&gt;Node61 -->
<g id="edge27" class="edge">
<title>Node67&#45;&gt;Node61</title>
<path fill="none" stroke="#191970" d="M912.653,-210.1378C937.4069,-215.8215 968.0992,-222.8687 992.4226,-228.4535"/>
<polygon fill="#191970" stroke="#191970" points="913.3214,-206.7003 902.7917,-207.8736 911.7548,-213.5228 913.3214,-206.7003"/>
</g>
<!-- Node69 -->
<g id="node24" class="node">
<title>Node69</title>
<g id="a_node24"><a xlink:href="structXCS.html#a911ed75c86abed7807d33eb1385240ed" target="_top" xlink:title="XCS::predict">
<polygon fill="none" stroke="#000000" points="832,-266.5 832,-285.5 905,-285.5 905,-266.5 832,-266.5"/>
<text text-anchor="middle" x="868.5" y="-273.5" font-family="Helvetica,sans-Serif" font-size="10.00" fill="#000000">XCS::predict</text>
</a>
</g>
</g>
<!-- Node68&#45;&gt;Node69 -->
<g id="edge29" class="edge">
<title>Node68&#45;&gt;Node69</title>
<path fill="none" stroke="#191970" d="M766.3334,-276C787.3834,-276 812.0797,-276 831.9179,-276"/>
<polygon fill="#191970" stroke="#191970" points="766.33,-272.5001 756.3299,-276 766.3299,-279.5001 766.33,-272.5001"/>
</g>
<!-- Node69&#45;&gt;Node61 -->
<g id="edge30" class="edge">
<title>Node69&#45;&gt;Node61</title>
<path fill="none" stroke="#191970" d="M915.2858,-265.2576C939.557,-259.6848 968.9531,-252.9352 992.421,-247.5468"/>
<polygon fill="#191970" stroke="#191970" points="914.1929,-261.9174 905.2298,-267.5666 915.7595,-268.7399 914.1929,-261.9174"/>
</g>
<!-- Node71 -->
<g id="node26" class="node">
<title>Node71</title>
<g id="a_node26"><a xlink:href="structXCS.html#aa5608b379fae01b724267a99068d55bb" target="_top" xlink:title="XCS::print_match_set">
<polygon fill="none" stroke="#000000" points="812,-228.5 812,-247.5 925,-247.5 925,-228.5 812,-228.5"/>
<text text-anchor="middle" x="868.5" y="-235.5" font-family="Helvetica,sans-Serif" font-size="10.00" fill="#000000">XCS::print_match_set</text>
</a>
</g>
</g>
<!-- Node70&#45;&gt;Node71 -->
<g id="edge32" class="edge">
<title>Node70&#45;&gt;Node71</title>
<path fill="none" stroke="#191970" d="M786.542,-238C794.9872,-238 803.5777,-238 811.8632,-238"/>
<polygon fill="#191970" stroke="#191970" points="786.3432,-234.5001 776.3432,-238 786.3432,-241.5001 786.3432,-234.5001"/>
</g>
<!-- Node71&#45;&gt;Node61 -->
<g id="edge33" class="edge">
<title>Node71&#45;&gt;Node61</title>
<path fill="none" stroke="#191970" d="M935.5061,-238C943.8556,-238 952.4271,-238 960.8635,-238"/>
<polygon fill="#191970" stroke="#191970" points="935.4557,-234.5001 925.4557,-238 935.4557,-241.5001 935.4557,-234.5001"/>
</g>
<!-- Node72&#45;&gt;Node50 -->
<g id="edge35" class="edge">
<title>Node72&#45;&gt;Node50</title>
<path fill="none" stroke="#191970" d="M487.8384,-62.9664C500.8207,-60.8582 517.1555,-58.2055 532.4538,-55.7212"/>
<polygon fill="#191970" stroke="#191970" points="487.1278,-59.5359 477.8181,-64.5936 488.2499,-66.4454 487.1278,-59.5359"/>
</g>
<!-- Node72&#45;&gt;Node55 -->
<g id="edge36" class="edge">
<title>Node72&#45;&gt;Node55</title>
<path fill="none" stroke="#191970" d="M486.125,-52.7233C498.8261,-45.1805 515.0036,-36.0515 530,-29 537.227,-25.6018 545.2411,-22.3425 552.6978,-19.5123"/>
<polygon fill="#191970" stroke="#191970" points="484.3184,-49.7255 477.5577,-57.8829 487.9298,-55.7221 484.3184,-49.7255"/>
</g>
<!-- Node72&#45;&gt;Node58 -->
<g id="edge37" class="edge">
<title>Node72&#45;&gt;Node58</title>
<path fill="none" stroke="#191970" d="M474.9439,-84.9996C487.0415,-102.0056 507.184,-127.1991 530,-143 535.4203,-146.7537 541.68,-149.8868 547.8965,-152.4547"/>
<polygon fill="#191970" stroke="#191970" points="477.6441,-82.7501 469.0849,-76.5059 471.8821,-86.7248 477.6441,-82.7501"/>
</g>
<!-- Node74 -->
<g id="node29" class="node">
<title>Node74</title>
<g id="a_node29"><a xlink:href="structXCS.html#a6dc7bea7d667fda1677497fd5a6f0def" target="_top" xlink:title="XCS::get_pop_avg_cond_size">
<polygon fill="none" stroke="#000000" points="247,-270.5 247,-289.5 396,-289.5 396,-270.5 247,-270.5"/>
<text text-anchor="middle" x="321.5" y="-277.5" font-family="Helvetica,sans-Serif" font-size="10.00" fill="#000000">XCS::get_pop_avg_cond_size</text>
</a>
</g>
</g>
<!-- Node73&#45;&gt;Node74 -->
<g id="edge39" class="edge">
<title>Node73&#45;&gt;Node74</title>
<path fill="none" stroke="#191970" d="M221.6596,-271.3182C229.8689,-272.0321 238.3635,-272.7707 246.7737,-273.5021"/>
<polygon fill="#191970" stroke="#191970" points="221.707,-267.8092 211.4414,-270.4297 221.1006,-274.7829 221.707,-267.8092"/>
</g>
<!-- Node74&#45;&gt;Node61 -->
<g id="edge40" class="edge">
<title>Node74&#45;&gt;Node61</title>
<path fill="none" stroke="#191970" d="M376.5981,-291.4931C428.7456,-301.3593 509.3442,-314 580,-314 580,-314 580,-314 721,-314 812.0591,-314 837.6745,-320.8071 925,-295 961.4531,-284.2271 999.9107,-260.8781 1019.9617,-247.6499"/>
<polygon fill="#191970" stroke="#191970" points="377.0405,-288.0141 366.5593,-289.5614 375.7178,-294.888 377.0405,-288.0141"/>
</g>
</g>
</svg>
