<?xml version="1.0" encoding="UTF-8" standalone="no"?>
<!DOCTYPE svg PUBLIC "-//W3C//DTD SVG 1.1//EN"
 "http://www.w3.org/Graphics/SVG/1.1/DTD/svg11.dtd">
<!-- Generated by graphviz version 2.40.1 (20161225.0304)
 -->
<!-- Title: cl_init Pages: 1 -->
<svg width="1010pt" height="436pt"
 viewBox="0.00 0.00 1010.00 436.00" xmlns="http://www.w3.org/2000/svg" xmlns:xlink="http://www.w3.org/1999/xlink">
<g id="graph0" class="graph" transform="scale(1 1) rotate(0) translate(4 432)">
<title>cl_init</title>
<!-- Node240 -->
<g id="node1" class="node">
<title>Node240</title>
<polygon fill="#bfbfbf" stroke="#000000" points="0,-228.5 0,-247.5 42,-247.5 42,-228.5 0,-228.5"/>
<text text-anchor="middle" x="21" y="-235.5" font-family="Helvetica,sans-Serif" font-size="10.00" fill="#000000">cl_init</text>
</g>
<!-- Node241 -->
<g id="node2" class="node">
<title>Node241</title>
<g id="a_node2"><a xlink:href="$ea_8h.html#ae3824341a2f5482cb6ac70b3839ded51" xlink:title="Executes the evolutionary algorithm (EA). ">
<polygon fill="none" stroke="#000000" points="189.5,-228.5 189.5,-247.5 218.5,-247.5 218.5,-228.5 189.5,-228.5"/>
<text text-anchor="middle" x="204" y="-235.5" font-family="Helvetica,sans-Serif" font-size="10.00" fill="#000000">ea</text>
</a>
</g>
</g>
<!-- Node240&#45;&gt;Node241 -->
<g id="edge1" class="edge">
<title>Node240&#45;&gt;Node241</title>
<path fill="none" stroke="#191970" d="M52.5879,-238C92.4725,-238 159.4582,-238 189.108,-238"/>
<polygon fill="#191970" stroke="#191970" points="52.3506,-234.5001 42.3506,-238 52.3505,-241.5001 52.3506,-234.5001"/>
</g>
<!-- Node255 -->
<g id="node16" class="node">
<title>Node255</title>
<g id="a_node16"><a xlink:href="$cl__set_8h.html#a1e1060f1e8c1f916d798864804078e88" xlink:title="Initialises a new population set. ">
<polygon fill="none" stroke="#000000" points="595,-342.5 595,-361.5 645,-361.5 645,-342.5 595,-342.5"/>
<text text-anchor="middle" x="620" y="-349.5" font-family="Helvetica,sans-Serif" font-size="10.00" fill="#000000">pop_init</text>
</a>
</g>
</g>
<!-- Node240&#45;&gt;Node255 -->
<g id="edge18" class="edge">
<title>Node240&#45;&gt;Node255</title>
<path fill="none" stroke="#191970" d="M28.4506,-256.9878C48.7139,-305.0991 109.705,-428 204,-428 204,-428 204,-428 326,-428 430.9118,-428 550.3719,-382.076 598.368,-361.6255"/>
<polygon fill="#191970" stroke="#191970" points="31.6719,-255.6179 24.6509,-247.6833 25.1914,-258.2644 31.6719,-255.6179"/>
</g>
<!-- Node257 -->
<g id="node18" class="node">
<title>Node257</title>
<g id="a_node18"><a xlink:href="$cl__set_8c.html#aa4b74b698e7491734e4788fcfae8e27a" xlink:title="Ensures all possible actions are covered by the match set. ">
<polygon fill="none" stroke="#000000" points="78,-171.5 78,-190.5 137,-190.5 137,-171.5 78,-171.5"/>
<text text-anchor="middle" x="107.5" y="-178.5" font-family="Helvetica,sans-Serif" font-size="10.00" fill="#000000">set_cover</text>
</a>
</g>
</g>
<!-- Node240&#45;&gt;Node257 -->
<g id="edge23" class="edge">
<title>Node240&#45;&gt;Node257</title>
<path fill="none" stroke="#191970" d="M44.2289,-222.6931C59.7705,-212.4518 79.7377,-199.2942 93.0432,-190.5265"/>
<polygon fill="#191970" stroke="#191970" points="42.0978,-219.9058 35.6735,-228.3307 45.9495,-225.7508 42.0978,-219.9058"/>
</g>
<!-- Node242 -->
<g id="node3" class="node">
<title>Node242</title>
<g id="a_node3"><a xlink:href="$xcs__multi__step_8c.html#a1e1c2a3094be715b468dda79cd59ebf3" xlink:title="Executes a multi&#45;step trial using a built&#45;in environment. ">
<polygon fill="none" stroke="#000000" points="286,-228.5 286,-247.5 366,-247.5 366,-228.5 286,-228.5"/>
<text text-anchor="middle" x="326" y="-235.5" font-family="Helvetica,sans-Serif" font-size="10.00" fill="#000000">xcs_multi_trial</text>
</a>
</g>
</g>
<!-- Node241&#45;&gt;Node242 -->
<g id="edge2" class="edge">
<title>Node241&#45;&gt;Node242</title>
<path fill="none" stroke="#191970" d="M229.3039,-238C245.6011,-238 267.1428,-238 285.7568,-238"/>
<polygon fill="#191970" stroke="#191970" points="228.9596,-234.5001 218.9596,-238 228.9596,-241.5001 228.9596,-234.5001"/>
</g>
<!-- Node245 -->
<g id="node6" class="node">
<title>Node245</title>
<g id="a_node6"><a xlink:href="$xcs__single__step_8h.html#aff4aec035e4573993a7906569f2028f5" xlink:title="Creates the action set, updates the classifiers and runs the EA. ">
<polygon fill="none" stroke="#000000" points="277,-266.5 277,-285.5 375,-285.5 375,-266.5 277,-266.5"/>
<text text-anchor="middle" x="326" y="-273.5" font-family="Helvetica,sans-Serif" font-size="10.00" fill="#000000">xcs_single_update</text>
</a>
</g>
</g>
<!-- Node241&#45;&gt;Node245 -->
<g id="edge5" class="edge">
<title>Node241&#45;&gt;Node245</title>
<path fill="none" stroke="#191970" d="M228.5322,-245.6412C247.8181,-251.6483 274.788,-260.0487 295.47,-266.4907"/>
<polygon fill="#191970" stroke="#191970" points="229.548,-242.2918 218.9596,-242.6595 227.4663,-248.9751 229.548,-242.2918"/>
</g>
<!-- Node250 -->
<g id="node11" class="node">
<title>Node250</title>
<g id="a_node11"><a xlink:href="$xcsf_8c.html#a474f4e13cfc5f00958c689cd8c81135a" xlink:title="Executes a single XCSF learning trial. ">
<polygon fill="none" stroke="#000000" points="284.5,-190.5 284.5,-209.5 367.5,-209.5 367.5,-190.5 284.5,-190.5"/>
<text text-anchor="middle" x="326" y="-197.5" font-family="Helvetica,sans-Serif" font-size="10.00" fill="#000000">xcsf_learn_trial</text>
</a>
</g>
</g>
<!-- Node241&#45;&gt;Node250 -->
<g id="edge11" class="edge">
<title>Node241&#45;&gt;Node250</title>
<path fill="none" stroke="#191970" d="M228.5322,-230.3588C247.8181,-224.3517 274.788,-215.9513 295.47,-209.5093"/>
<polygon fill="#191970" stroke="#191970" points="227.4663,-227.0249 218.9596,-233.3405 229.548,-233.7082 227.4663,-227.0249"/>
</g>
<!-- Node243 -->
<g id="node4" class="node">
<title>Node243</title>
<g id="a_node4"><a xlink:href="$xcs__multi__step_8h.html#acc29d4a55dbd56c16ea5f19f15a7c677" xlink:title="Executes a multi&#45;step reinforcement learning experiment. ">
<polygon fill="none" stroke="#000000" points="568,-304.5 568,-323.5 672,-323.5 672,-304.5 568,-304.5"/>
<text text-anchor="middle" x="620" y="-311.5" font-family="Helvetica,sans-Serif" font-size="10.00" fill="#000000">xcs_multi_step_exp</text>
</a>
</g>
</g>
<!-- Node242&#45;&gt;Node243 -->
<g id="edge3" class="edge">
<title>Node242&#45;&gt;Node243</title>
<path fill="none" stroke="#191970" d="M371.0848,-251.5245C374.5385,-253.1726 377.8874,-254.9938 381,-257 400.5547,-269.6035 396.0807,-284.8207 417,-295 464.2659,-317.9996 525.0035,-320.7094 567.6791,-318.9296"/>
<polygon fill="#191970" stroke="#191970" points="372.3596,-248.2632 361.7882,-247.5582 369.6126,-254.7017 372.3596,-248.2632"/>
</g>
<!-- Node244 -->
<g id="node5" class="node">
<title>Node244</title>
<g id="a_node5"><a xlink:href="$main_8c.html#a3c04138a5bfe5d72780bb7e82a18e627" xlink:title="main">
<polygon fill="none" stroke="#000000" points="746,-285.5 746,-304.5 784,-304.5 784,-285.5 746,-285.5"/>
<text text-anchor="middle" x="765" y="-292.5" font-family="Helvetica,sans-Serif" font-size="10.00" fill="#000000">main</text>
</a>
</g>
</g>
<!-- Node243&#45;&gt;Node244 -->
<g id="edge4" class="edge">
<title>Node243&#45;&gt;Node244</title>
<path fill="none" stroke="#191970" d="M682.4129,-305.8218C705.3558,-302.8154 729.6732,-299.629 745.932,-297.4986"/>
<polygon fill="#191970" stroke="#191970" points="681.8088,-302.3709 672.3483,-307.1406 682.7183,-309.3116 681.8088,-302.3709"/>
</g>
<!-- Node246 -->
<g id="node7" class="node">
<title>Node246</title>
<g id="a_node7"><a xlink:href="$structXCS.html#aedc01ad6f00a54b260a7605929a1d4c9" xlink:title="XCS::single_update">
<polygon fill="none" stroke="#000000" points="713,-375.5 713,-394.5 817,-394.5 817,-375.5 713,-375.5"/>
<text text-anchor="middle" x="765" y="-382.5" font-family="Helvetica,sans-Serif" font-size="10.00" fill="#000000">XCS::single_update</text>
</a>
</g>
</g>
<!-- Node245&#45;&gt;Node246 -->
<g id="edge6" class="edge">
<title>Node245&#45;&gt;Node246</title>
<path fill="none" stroke="#191970" d="M352.3083,-290.6254C370.2208,-300.251 394.6466,-312.7363 417,-322 481.4001,-348.6887 497.5962,-357.5623 566,-371 615.2775,-380.6804 672.5752,-383.8862 712.9987,-384.8462"/>
<polygon fill="#191970" stroke="#191970" points="353.5391,-287.3108 343.0816,-285.6106 350.1964,-293.4611 353.5391,-287.3108"/>
</g>
<!-- Node248 -->
<g id="node9" class="node">
<title>Node248</title>
<g id="a_node9"><a xlink:href="$xcs__single__step_8c.html#a3d1fd2472d35310800aed897219a65af" xlink:title="Executes a single&#45;step trial using a built&#45;in environment. ">
<polygon fill="none" stroke="#000000" points="431.5,-266.5 431.5,-285.5 515.5,-285.5 515.5,-266.5 431.5,-266.5"/>
<text text-anchor="middle" x="473.5" y="-273.5" font-family="Helvetica,sans-Serif" font-size="10.00" fill="#000000">xcs_single_trial</text>
</a>
</g>
</g>
<!-- Node245&#45;&gt;Node248 -->
<g id="edge8" class="edge">
<title>Node245&#45;&gt;Node248</title>
<path fill="none" stroke="#191970" d="M385.4999,-276C400.7432,-276 416.8308,-276 431.0224,-276"/>
<polygon fill="#191970" stroke="#191970" points="385.1154,-272.5001 375.1154,-276 385.1153,-279.5001 385.1154,-272.5001"/>
</g>
<!-- Node247 -->
<g id="node8" class="node">
<title>Node247</title>
<g id="a_node8"><a xlink:href="$python__wrapper_8cpp.html#afbdcc1358036a0b83a6b239da2b098a2" xlink:title="BOOST_PYTHON_MODULE">
<polygon fill="none" stroke="#000000" points="856,-114.5 856,-133.5 1002,-133.5 1002,-114.5 856,-114.5"/>
<text text-anchor="middle" x="929" y="-121.5" font-family="Helvetica,sans-Serif" font-size="10.00" fill="#000000">BOOST_PYTHON_MODULE</text>
</a>
</g>
</g>
<!-- Node246&#45;&gt;Node247 -->
<g id="edge7" class="edge">
<title>Node246&#45;&gt;Node247</title>
<path fill="none" stroke="#191970" d="M806.432,-370.9725C811.3681,-368.1753 816.0482,-364.875 820,-361 890.4937,-291.8755 919.9701,-168.616 927.1677,-133.5465"/>
<polygon fill="#191970" stroke="#191970" points="804.7669,-367.8916 797.3728,-375.4796 807.8849,-374.1588 804.7669,-367.8916"/>
</g>
<!-- Node249 -->
<g id="node10" class="node">
<title>Node249</title>
<g id="a_node10"><a xlink:href="$xcs__single__step_8h.html#a39a031bf59eaa9b33e30e614610dcda8" xlink:title="Executes a single&#45;step experiment. ">
<polygon fill="none" stroke="#000000" points="566,-266.5 566,-285.5 674,-285.5 674,-266.5 566,-266.5"/>
<text text-anchor="middle" x="620" y="-273.5" font-family="Helvetica,sans-Serif" font-size="10.00" fill="#000000">xcs_single_step_exp</text>
</a>
</g>
</g>
<!-- Node248&#45;&gt;Node249 -->
<g id="edge9" class="edge">
<title>Node248&#45;&gt;Node249</title>
<path fill="none" stroke="#191970" d="M526.0389,-276C539.0094,-276 552.9239,-276 565.9641,-276"/>
<polygon fill="#191970" stroke="#191970" points="525.8739,-272.5001 515.8739,-276 525.8738,-279.5001 525.8739,-272.5001"/>
</g>
<!-- Node249&#45;&gt;Node244 -->
<g id="edge10" class="edge">
<title>Node249&#45;&gt;Node244</title>
<path fill="none" stroke="#191970" d="M684.5275,-284.4553C706.7805,-287.3712 730.0477,-290.42 745.8059,-292.4849"/>
<polygon fill="#191970" stroke="#191970" points="684.7752,-280.9579 674.4052,-283.129 683.8657,-287.8986 684.7752,-280.9579"/>
</g>
<!-- Node251 -->
<g id="node12" class="node">
<title>Node251</title>
<g id="a_node12"><a xlink:href="$xcsf_8h.html#a0b4de57cb9dadc9deca7901aa36e5025" xlink:title="Executes MAX_TRIALS number of XCSF learning iterations using the training. data and test iterations u...">
<polygon fill="none" stroke="#000000" points="446.5,-190.5 446.5,-209.5 500.5,-209.5 500.5,-190.5 446.5,-190.5"/>
<text text-anchor="middle" x="473.5" y="-197.5" font-family="Helvetica,sans-Serif" font-size="10.00" fill="#000000">xcsf_fit2</text>
</a>
</g>
</g>
<!-- Node250&#45;&gt;Node251 -->
<g id="edge12" class="edge">
<title>Node250&#45;&gt;Node251</title>
<path fill="none" stroke="#191970" d="M377.8959,-200C401.0137,-200 427.2809,-200 446.4248,-200"/>
<polygon fill="#191970" stroke="#191970" points="377.8731,-196.5001 367.873,-200 377.873,-203.5001 377.8731,-196.5001"/>
</g>
<!-- Node251&#45;&gt;Node244 -->
<g id="edge13" class="edge">
<title>Node251&#45;&gt;Node244</title>
<path fill="none" stroke="#191970" d="M510.4544,-209.1014C550.9968,-219.4105 617.7858,-237.3502 674,-257 699.2124,-265.8131 727.4889,-277.996 745.7329,-286.1692"/>
<polygon fill="#191970" stroke="#191970" points="511.2875,-205.7019 500.735,-206.6484 509.5745,-212.4891 511.2875,-205.7019"/>
</g>
<!-- Node252 -->
<g id="node13" class="node">
<title>Node252</title>
<g id="a_node13"><a xlink:href="$structXCS.html#a7d53320740db8e846251bacd0238a9fb" xlink:title="XCS::fit">
<polygon fill="none" stroke="#000000" points="594,-190.5 594,-209.5 646,-209.5 646,-190.5 594,-190.5"/>
<text text-anchor="middle" x="620" y="-197.5" font-family="Helvetica,sans-Serif" font-size="10.00" fill="#000000">XCS::fit</text>
</a>
</g>
</g>
<!-- Node251&#45;&gt;Node252 -->
<g id="edge14" class="edge">
<title>Node251&#45;&gt;Node252</title>
<path fill="none" stroke="#191970" d="M510.9437,-200C536.9137,-200 570.8473,-200 593.9182,-200"/>
<polygon fill="#191970" stroke="#191970" points="510.7122,-196.5001 500.7122,-200 510.7122,-203.5001 510.7122,-196.5001"/>
</g>
<!-- Node253 -->
<g id="node14" class="node">
<title>Node253</title>
<g id="a_node14"><a xlink:href="$xcsf_8h.html#a874829f28fee20f9ad15b540f4b4d6ff" xlink:title="Executes MAX_TRIALS number of XCSF learning iterations using the training data. ">
<polygon fill="none" stroke="#000000" points="593,-152.5 593,-171.5 647,-171.5 647,-152.5 593,-152.5"/>
<text text-anchor="middle" x="620" y="-159.5" font-family="Helvetica,sans-Serif" font-size="10.00" fill="#000000">xcsf_fit1</text>
</a>
</g>
</g>
<!-- Node251&#45;&gt;Node253 -->
<g id="edge15" class="edge">
<title>Node251&#45;&gt;Node253</title>
<path fill="none" stroke="#191970" d="M510.4693,-190.4107C536.1336,-183.7538 569.7471,-175.0349 592.9335,-169.0207"/>
<polygon fill="#191970" stroke="#191970" points="509.5131,-187.0428 500.7122,-192.9415 511.2707,-193.8186 509.5131,-187.0428"/>
</g>
<!-- Node254 -->
<g id="node15" class="node">
<title>Node254</title>
<g id="a_node15"><a xlink:href="$structXCS.html#ad2ccafe59d2b4ae6d0e1cbc15edee53c" xlink:title="XCS::fit">
<polygon fill="none" stroke="#000000" points="739,-152.5 739,-171.5 791,-171.5 791,-152.5 739,-152.5"/>
<text text-anchor="middle" x="765" y="-159.5" font-family="Helvetica,sans-Serif" font-size="10.00" fill="#000000">XCS::fit</text>
</a>
</g>
</g>
<!-- Node253&#45;&gt;Node254 -->
<g id="edge16" class="edge">
<title>Node253&#45;&gt;Node254</title>
<path fill="none" stroke="#191970" d="M657.3422,-162C682.8746,-162 716.0827,-162 738.8256,-162"/>
<polygon fill="#191970" stroke="#191970" points="657.2734,-158.5001 647.2734,-162 657.2734,-165.5001 657.2734,-158.5001"/>
</g>
<!-- Node254&#45;&gt;Node247 -->
<g id="edge17" class="edge">
<title>Node254&#45;&gt;Node247</title>
<path fill="none" stroke="#191970" d="M801.4051,-153.5647C827.038,-147.6253 861.3853,-139.6668 887.9861,-133.5032"/>
<polygon fill="#191970" stroke="#191970" points="800.3013,-150.2276 791.3494,-155.8946 801.8814,-157.047 800.3013,-150.2276"/>
</g>
<!-- Node255&#45;&gt;Node244 -->
<g id="edge19" class="edge">
<title>Node255&#45;&gt;Node244</title>
<path fill="none" stroke="#191970" d="M654.8839,-340.0553C661.2666,-337.7765 667.8513,-335.3633 674,-333 699.0901,-323.3565 727.632,-311.249 745.9551,-303.3268"/>
<polygon fill="#191970" stroke="#191970" points="653.3799,-336.8743 645.1119,-343.4993 655.7067,-343.4763 653.3799,-336.8743"/>
</g>
<!-- Node255&#45;&gt;Node254 -->
<g id="edge22" class="edge">
<title>Node255&#45;&gt;Node254</title>
<path fill="none" stroke="#191970" d="M655.0202,-343.9552C661.8242,-341.2634 668.5312,-337.7009 674,-333 687.8351,-321.1074 743.6008,-206.5094 760.2708,-171.8688"/>
<polygon fill="#191970" stroke="#191970" points="653.4656,-340.7862 645.1152,-347.3071 655.7095,-347.4169 653.4656,-340.7862"/>
</g>
<!-- Node256 -->
<g id="node17" class="node">
<title>Node256</title>
<g id="a_node17"><a xlink:href="$structXCS.html#ab58a4fb495b05f3450b182bc21dcba1f" xlink:title="XCS::single_reset">
<polygon fill="none" stroke="#000000" points="717,-332.5 717,-351.5 813,-351.5 813,-332.5 717,-332.5"/>
<text text-anchor="middle" x="765" y="-339.5" font-family="Helvetica,sans-Serif" font-size="10.00" fill="#000000">XCS::single_reset</text>
</a>
</g>
</g>
<!-- Node255&#45;&gt;Node256 -->
<g id="edge20" class="edge">
<title>Node255&#45;&gt;Node256</title>
<path fill="none" stroke="#191970" d="M655.3154,-349.5645C673.8312,-348.2875 696.7839,-346.7046 716.8996,-345.3173"/>
<polygon fill="#191970" stroke="#191970" points="654.9925,-346.0783 645.2571,-350.2581 655.4742,-353.0617 654.9925,-346.0783"/>
</g>
<!-- Node256&#45;&gt;Node247 -->
<g id="edge21" class="edge">
<title>Node256&#45;&gt;Node247</title>
<path fill="none" stroke="#191970" d="M800.0066,-328.0352C807.135,-324.1766 814.2139,-319.5041 820,-314 878.689,-258.1717 915.1739,-163.7127 925.7748,-133.5555"/>
<polygon fill="#191970" stroke="#191970" points="798.442,-324.9043 791.0443,-332.4888 801.5571,-331.173 798.442,-324.9043"/>
</g>
<!-- Node258 -->
<g id="node19" class="node">
<title>Node258</title>
<g id="a_node19"><a xlink:href="$cl__set_8h.html#af3bea0b4d03654b9d6cb08fbf272c847" xlink:title="Constructs the match set. ">
<polygon fill="none" stroke="#000000" points="173,-152.5 173,-171.5 235,-171.5 235,-152.5 173,-152.5"/>
<text text-anchor="middle" x="204" y="-159.5" font-family="Helvetica,sans-Serif" font-size="10.00" fill="#000000">set_match</text>
</a>
</g>
</g>
<!-- Node257&#45;&gt;Node258 -->
<g id="edge24" class="edge">
<title>Node257&#45;&gt;Node258</title>
<path fill="none" stroke="#191970" d="M147.0832,-173.2064C155.674,-171.515 164.6438,-169.7489 172.8545,-168.1323"/>
<polygon fill="#191970" stroke="#191970" points="146.3761,-169.7784 137.2406,-175.1443 147.7284,-176.6465 146.3761,-169.7784"/>
</g>
<!-- Node258&#45;&gt;Node242 -->
<g id="edge25" class="edge">
<title>Node258&#45;&gt;Node242</title>
<path fill="none" stroke="#191970" d="M220.26,-178.8986C233.0655,-191.4024 251.8896,-208.0892 271,-219 277.4921,-222.7066 284.8266,-225.8579 291.974,-228.4652"/>
<polygon fill="#191970" stroke="#191970" points="222.6581,-176.3467 213.1158,-171.7427 217.7043,-181.2924 222.6581,-176.3467"/>
</g>
<!-- Node258&#45;&gt;Node250 -->
<g id="edge30" class="edge">
<title>Node258&#45;&gt;Node250</title>
<path fill="none" stroke="#191970" d="M244.7108,-174.6804C261.195,-179.8148 279.91,-185.6441 295.2241,-190.4141"/>
<polygon fill="#191970" stroke="#191970" points="245.3742,-171.2213 234.7858,-171.589 243.2925,-177.9046 245.3742,-171.2213"/>
</g>
<!-- Node259 -->
<g id="node20" class="node">
<title>Node259</title>
<g id="a_node20"><a xlink:href="$xcs__single__step_8h.html#a6cd0f3c0c1c71e13dba1ce493ef873a5" xlink:title="Constructs the match set and selects an action to perform. ">
<polygon fill="none" stroke="#000000" points="274,-152.5 274,-171.5 378,-171.5 378,-152.5 274,-152.5"/>
<text text-anchor="middle" x="326" y="-159.5" font-family="Helvetica,sans-Serif" font-size="10.00" fill="#000000">xcs_single_decision</text>
</a>
</g>
</g>
<!-- Node258&#45;&gt;Node259 -->
<g id="edge26" class="edge">
<title>Node258&#45;&gt;Node259</title>
<path fill="none" stroke="#191970" d="M245.1023,-162C254.2583,-162 264.086,-162 273.6263,-162"/>
<polygon fill="#191970" stroke="#191970" points="245.1015,-158.5001 235.1014,-162 245.1014,-165.5001 245.1015,-158.5001"/>
</g>
<!-- Node261 -->
<g id="node22" class="node">
<title>Node261</title>
<g id="a_node22"><a xlink:href="$xcsf_8c.html#aa6edd3962ddd04940e2c78a4f99de7cd" xlink:title="Executes a single XCSF testing trial. ">
<polygon fill="none" stroke="#000000" points="287,-114.5 287,-133.5 365,-133.5 365,-114.5 287,-114.5"/>
<text text-anchor="middle" x="326" y="-121.5" font-family="Helvetica,sans-Serif" font-size="10.00" fill="#000000">xcsf_test_trial</text>
</a>
</g>
</g>
<!-- Node258&#45;&gt;Node261 -->
<g id="edge31" class="edge">
<title>Node258&#45;&gt;Node261</title>
<path fill="none" stroke="#191970" d="M244.7108,-149.3196C261.195,-144.1852 279.91,-138.3559 295.2241,-133.5859"/>
<polygon fill="#191970" stroke="#191970" points="243.2925,-146.0954 234.7858,-152.411 245.3742,-152.7787 243.2925,-146.0954"/>
</g>
<!-- Node264 -->
<g id="node25" class="node">
<title>Node264</title>
<g id="a_node25"><a xlink:href="$xcsf_8h.html#af0b9db7273578fdff649d46823cd9790" xlink:title="Calculates the XCSF predictions for the provided input. ">
<polygon fill="none" stroke="#000000" points="291,-67.5 291,-86.5 361,-86.5 361,-67.5 291,-67.5"/>
<text text-anchor="middle" x="326" y="-74.5" font-family="Helvetica,sans-Serif" font-size="10.00" fill="#000000">xcsf_predict</text>
</a>
</g>
</g>
<!-- Node258&#45;&gt;Node264 -->
<g id="edge36" class="edge">
<title>Node258&#45;&gt;Node264</title>
<path fill="none" stroke="#191970" d="M221.1705,-145.4238C234.1994,-133.3497 252.8994,-117.0646 271,-105 281.5206,-97.9877 294.028,-91.4908 304.4554,-86.5242"/>
<polygon fill="#191970" stroke="#191970" points="218.7264,-142.9177 213.8471,-152.3221 223.5261,-148.0132 218.7264,-142.9177"/>
</g>
<!-- Node266 -->
<g id="node27" class="node">
<title>Node266</title>
<g id="a_node27"><a xlink:href="$xcsf_8h.html#ae1f6851f682e015601030a5c725c6618" xlink:title="Prints the XCSF match set for the supplied input. ">
<polygon fill="none" stroke="#000000" points="271,-10.5 271,-29.5 381,-29.5 381,-10.5 271,-10.5"/>
<text text-anchor="middle" x="326" y="-17.5" font-family="Helvetica,sans-Serif" font-size="10.00" fill="#000000">xcsf_print_match_set</text>
</a>
</g>
</g>
<!-- Node258&#45;&gt;Node266 -->
<g id="edge39" class="edge">
<title>Node258&#45;&gt;Node266</title>
<path fill="none" stroke="#191970" d="M213.1859,-143.2051C224.6143,-121.0928 245.7361,-84.0931 271,-58 282.0602,-46.5768 297.0341,-36.4971 308.5653,-29.5944"/>
<polygon fill="#191970" stroke="#191970" points="210.0152,-141.7197 208.6371,-152.2246 216.2653,-144.8719 210.0152,-141.7197"/>
</g>
<!-- Node259&#45;&gt;Node248 -->
<g id="edge29" class="edge">
<title>Node259&#45;&gt;Node248</title>
<path fill="none" stroke="#191970" d="M371.0848,-175.5245C374.5385,-177.1726 377.8874,-178.9938 381,-181 400.5547,-193.6035 400.8101,-202.2931 417,-219 433.2901,-235.8103 452.532,-255.1049 463.8358,-266.3836"/>
<polygon fill="#191970" stroke="#191970" points="372.3596,-172.2632 361.7882,-171.5582 369.6126,-178.7017 372.3596,-172.2632"/>
</g>
<!-- Node260 -->
<g id="node21" class="node">
<title>Node260</title>
<g id="a_node21"><a xlink:href="$structXCS.html#a94d556a5e545ec415d7165d5e91b21d4" xlink:title="XCS::single_decision">
<polygon fill="none" stroke="#000000" points="710,-114.5 710,-133.5 820,-133.5 820,-114.5 710,-114.5"/>
<text text-anchor="middle" x="765" y="-121.5" font-family="Helvetica,sans-Serif" font-size="10.00" fill="#000000">XCS::single_decision</text>
</a>
</g>
</g>
<!-- Node259&#45;&gt;Node260 -->
<g id="edge27" class="edge">
<title>Node259&#45;&gt;Node260</title>
<path fill="none" stroke="#191970" d="M388.219,-156.6143C474.1651,-149.1748 627.8695,-135.8701 709.8847,-128.7708"/>
<polygon fill="#191970" stroke="#191970" points="387.7439,-153.1422 378.083,-157.4917 388.3476,-160.1162 387.7439,-153.1422"/>
</g>
<!-- Node260&#45;&gt;Node247 -->
<g id="edge28" class="edge">
<title>Node260&#45;&gt;Node247</title>
<path fill="none" stroke="#191970" d="M830.1637,-124C838.5629,-124 847.2083,-124 855.7266,-124"/>
<polygon fill="#191970" stroke="#191970" points="830.0659,-120.5001 820.0659,-124 830.0658,-127.5001 830.0659,-120.5001"/>
</g>
<!-- Node261&#45;&gt;Node251 -->
<g id="edge32" class="edge">
<title>Node261&#45;&gt;Node251</title>
<path fill="none" stroke="#191970" d="M367.218,-137.1242C371.9271,-138.9507 376.6092,-140.9198 381,-143 410.4911,-156.9718 442.366,-178.0906 459.9349,-190.3162"/>
<polygon fill="#191970" stroke="#191970" points="368.1923,-133.7534 357.5988,-133.5858 365.7756,-140.323 368.1923,-133.7534"/>
</g>
<!-- Node262 -->
<g id="node23" class="node">
<title>Node262</title>
<g id="a_node23"><a xlink:href="$xcsf_8h.html#a2cf95733e5f97410d94211b72e835847" xlink:title="Calculates the XCSF error for the input data. ">
<polygon fill="none" stroke="#000000" points="441,-76.5 441,-95.5 506,-95.5 506,-76.5 441,-76.5"/>
<text text-anchor="middle" x="473.5" y="-83.5" font-family="Helvetica,sans-Serif" font-size="10.00" fill="#000000">xcsf_score</text>
</a>
</g>
</g>
<!-- Node261&#45;&gt;Node262 -->
<g id="edge33" class="edge">
<title>Node261&#45;&gt;Node262</title>
<path fill="none" stroke="#191970" d="M373.0695,-111.8736C395.1448,-106.1864 420.9063,-99.5496 440.8107,-94.4216"/>
<polygon fill="#191970" stroke="#191970" points="372.0311,-108.5268 363.2205,-114.411 373.7775,-115.3054 372.0311,-108.5268"/>
</g>
<!-- Node263 -->
<g id="node24" class="node">
<title>Node263</title>
<g id="a_node24"><a xlink:href="$structXCS.html#aa77bc77484d6d14bf512304a23cfec88" xlink:title="XCS::score">
<polygon fill="none" stroke="#000000" points="731,-76.5 731,-95.5 799,-95.5 799,-76.5 731,-76.5"/>
<text text-anchor="middle" x="765" y="-83.5" font-family="Helvetica,sans-Serif" font-size="10.00" fill="#000000">XCS::score</text>
</a>
</g>
</g>
<!-- Node262&#45;&gt;Node263 -->
<g id="edge34" class="edge">
<title>Node262&#45;&gt;Node263</title>
<path fill="none" stroke="#191970" d="M516.4214,-86C574.6502,-86 677.5109,-86 730.8218,-86"/>
<polygon fill="#191970" stroke="#191970" points="516.0903,-82.5001 506.0903,-86 516.0902,-89.5001 516.0903,-82.5001"/>
</g>
<!-- Node263&#45;&gt;Node247 -->
<g id="edge35" class="edge">
<title>Node263&#45;&gt;Node247</title>
<path fill="none" stroke="#191970" d="M809.1559,-96.2313C833.6816,-101.914 863.993,-108.9374 887.9952,-114.4989"/>
<polygon fill="#191970" stroke="#191970" points="809.9118,-92.8137 799.3798,-93.966 808.3316,-99.6331 809.9118,-92.8137"/>
</g>
<!-- Node265 -->
<g id="node26" class="node">
<title>Node265</title>
<g id="a_node26"><a xlink:href="$structXCS.html#a911ed75c86abed7807d33eb1385240ed" xlink:title="XCS::predict">
<polygon fill="none" stroke="#000000" points="437,-38.5 437,-57.5 510,-57.5 510,-38.5 437,-38.5"/>
<text text-anchor="middle" x="473.5" y="-45.5" font-family="Helvetica,sans-Serif" font-size="10.00" fill="#000000">XCS::predict</text>
</a>
</g>
</g>
<!-- Node264&#45;&gt;Node265 -->
<g id="edge37" class="edge">
<title>Node264&#45;&gt;Node265</title>
<path fill="none" stroke="#191970" d="M371.3334,-68.087C392.3834,-63.9483 417.0797,-59.0928 436.9179,-55.1924"/>
<polygon fill="#191970" stroke="#191970" points="370.4668,-64.6903 361.3299,-70.0538 371.8173,-71.5588 370.4668,-64.6903"/>
</g>
<!-- Node265&#45;&gt;Node247 -->
<g id="edge38" class="edge">
<title>Node265&#45;&gt;Node247</title>
<path fill="none" stroke="#191970" d="M520.5454,-44.359C588.1448,-40.5114 716.0589,-38.4232 820,-67 856.8576,-77.1333 895.463,-100.9635 915.3521,-114.3821"/>
<polygon fill="#191970" stroke="#191970" points="519.9957,-40.8858 510.2268,-44.9871 520.4211,-47.8729 519.9957,-40.8858"/>
</g>
<!-- Node267 -->
<g id="node28" class="node">
<title>Node267</title>
<g id="a_node28"><a xlink:href="$structXCS.html#aa5608b379fae01b724267a99068d55bb" xlink:title="XCS::print_match_set">
<polygon fill="none" stroke="#000000" points="417,-.5 417,-19.5 530,-19.5 530,-.5 417,-.5"/>
<text text-anchor="middle" x="473.5" y="-7.5" font-family="Helvetica,sans-Serif" font-size="10.00" fill="#000000">XCS::print_match_set</text>
</a>
</g>
</g>
<!-- Node266&#45;&gt;Node267 -->
<g id="edge40" class="edge">
<title>Node266&#45;&gt;Node267</title>
<path fill="none" stroke="#191970" d="M391.542,-15.5565C399.9872,-14.9839 408.5777,-14.4015 416.8632,-13.8398"/>
<polygon fill="#191970" stroke="#191970" points="391.0835,-12.0794 381.3432,-16.2479 391.5571,-19.0634 391.0835,-12.0794"/>
</g>
<!-- Node267&#45;&gt;Node247 -->
<g id="edge41" class="edge">
<title>Node267&#45;&gt;Node247</title>
<path fill="none" stroke="#191970" d="M540.4229,-6.2737C612.0158,-4.6086 727.7215,-8.6877 820,-44 861.8732,-60.0236 901.9392,-96.6695 919.5857,-114.2457"/>
<polygon fill="#191970" stroke="#191970" points="540.087,-2.7815 530.1881,-6.558 540.2815,-9.7788 540.087,-2.7815"/>
</g>
</g>
</svg>
