<?xml version="1.0" encoding="UTF-8" standalone="no"?>
<!DOCTYPE svg PUBLIC "-//W3C//DTD SVG 1.1//EN"
 "http://www.w3.org/Graphics/SVG/1.1/DTD/svg11.dtd">
<!-- Generated by graphviz version 2.40.1 (20161225.0304)
 -->
<!-- Title: cl_subsumer Pages: 1 -->
<svg width="1126pt" height="275pt"
 viewBox="0.00 0.00 1126.00 275.00" xmlns="http://www.w3.org/2000/svg" xmlns:xlink="http://www.w3.org/1999/xlink">
<g id="graph0" class="graph" transform="scale(1 1) rotate(0) translate(4 271)">
<title>cl_subsumer</title>
<!-- Node505 -->
<g id="node1" class="node">
<title>Node505</title>
<polygon fill="#bfbfbf" stroke="#000000" points="0,-171.5 0,-190.5 72,-190.5 72,-171.5 0,-171.5"/>
<text text-anchor="middle" x="36" y="-178.5" font-family="Helvetica,sans-Serif" font-size="10.00" fill="#000000">cl_subsumer</text>
</g>
<!-- Node506 -->
<g id="node2" class="node">
<title>Node506</title>
<g id="a_node2"><a xlink:href="clset_8c.html#aa301d85075acc82499cb031066d89778" target="_top" xlink:title="Performs set subsumption. ">
<polygon fill="none" stroke="#000000" points="108,-190.5 108,-209.5 206,-209.5 206,-190.5 108,-190.5"/>
<text text-anchor="middle" x="157" y="-197.5" font-family="Helvetica,sans-Serif" font-size="10.00" fill="#000000">clset_subsumption</text>
</a>
</g>
</g>
<!-- Node505&#45;&gt;Node506 -->
<g id="edge1" class="edge">
<title>Node505&#45;&gt;Node506</title>
<path fill="none" stroke="#191970" d="M82.245,-188.2616C90.5884,-189.5717 99.3155,-190.9421 107.741,-192.2651"/>
<polygon fill="#191970" stroke="#191970" points="82.7259,-184.7943 72.304,-186.7006 81.64,-191.7096 82.7259,-184.7943"/>
</g>
<!-- Node525 -->
<g id="node21" class="node">
<title>Node525</title>
<g id="a_node21"><a xlink:href="ea_8c.html#a8ea16017fe8753d9b079e8e333d98545" target="_top" xlink:title="Performs evolutionary algorithm subsumption. ">
<polygon fill="none" stroke="#000000" points="121,-152.5 121,-171.5 193,-171.5 193,-152.5 121,-152.5"/>
<text text-anchor="middle" x="157" y="-159.5" font-family="Helvetica,sans-Serif" font-size="10.00" fill="#000000">ea_subsume</text>
</a>
</g>
</g>
<!-- Node505&#45;&gt;Node525 -->
<g id="edge25" class="edge">
<title>Node505&#45;&gt;Node525</title>
<path fill="none" stroke="#191970" d="M82.2793,-173.733C95.0139,-171.7333 108.6396,-169.5938 120.7216,-167.6966"/>
<polygon fill="#191970" stroke="#191970" points="81.64,-170.2904 72.304,-175.2994 82.7259,-177.2057 81.64,-170.2904"/>
</g>
<!-- Node507 -->
<g id="node3" class="node">
<title>Node507</title>
<g id="a_node3"><a xlink:href="clset_8h.html#add82b1503285b43b57b320ea3ef78a85" target="_top" xlink:title="Provides reinforcement to the set and performs set subsumption. ">
<polygon fill="none" stroke="#000000" points="326,-190.5 326,-209.5 398,-209.5 398,-190.5 326,-190.5"/>
<text text-anchor="middle" x="362" y="-197.5" font-family="Helvetica,sans-Serif" font-size="10.00" fill="#000000">clset_update</text>
</a>
</g>
</g>
<!-- Node506&#45;&gt;Node507 -->
<g id="edge2" class="edge">
<title>Node506&#45;&gt;Node507</title>
<path fill="none" stroke="#191970" d="M216.3198,-200C251.7228,-200 295.5359,-200 325.8174,-200"/>
<polygon fill="#191970" stroke="#191970" points="216.1026,-196.5001 206.1026,-200 216.1026,-203.5001 216.1026,-196.5001"/>
</g>
<!-- Node508 -->
<g id="node4" class="node">
<title>Node508</title>
<g id="a_node4"><a xlink:href="xcs__multi__step_8c.html#ad50c415970b4bfc42f469fb38c5e68fa" target="_top" xlink:title="Executes a multi&#45;step trial using a built&#45;in environment. ">
<polygon fill="none" stroke="#000000" points="443,-209.5 443,-228.5 523,-228.5 523,-209.5 443,-209.5"/>
<text text-anchor="middle" x="483" y="-216.5" font-family="Helvetica,sans-Serif" font-size="10.00" fill="#000000">xcs_multi_trial</text>
</a>
</g>
</g>
<!-- Node507&#45;&gt;Node508 -->
<g id="edge3" class="edge">
<title>Node507&#45;&gt;Node508</title>
<path fill="none" stroke="#191970" d="M408.4857,-207.2994C419.8396,-209.0823 431.8903,-210.9745 442.9162,-212.7058"/>
<polygon fill="#191970" stroke="#191970" points="408.7259,-203.7943 398.304,-205.7006 407.64,-210.7096 408.7259,-203.7943"/>
</g>
<!-- Node511 -->
<g id="node7" class="node">
<title>Node511</title>
<g id="a_node7"><a xlink:href="xcs__single__step_8h.html#a0ff6b521f66224d56ef0e6f50f5781b9" target="_top" xlink:title="Creates the action set, updates the classifiers and runs the EA. ">
<polygon fill="none" stroke="#000000" points="434,-171.5 434,-190.5 532,-190.5 532,-171.5 434,-171.5"/>
<text text-anchor="middle" x="483" y="-178.5" font-family="Helvetica,sans-Serif" font-size="10.00" fill="#000000">xcs_single_update</text>
</a>
</g>
</g>
<!-- Node507&#45;&gt;Node511 -->
<g id="edge6" class="edge">
<title>Node507&#45;&gt;Node511</title>
<path fill="none" stroke="#191970" d="M408.245,-192.7384C416.5884,-191.4283 425.3155,-190.0579 433.741,-188.7349"/>
<polygon fill="#191970" stroke="#191970" points="407.64,-189.2904 398.304,-194.2994 408.7259,-196.2057 407.64,-189.2904"/>
</g>
<!-- Node516 -->
<g id="node12" class="node">
<title>Node516</title>
<g id="a_node12"><a xlink:href="xcsf_8c.html#af5fb604e81235fdcb2ed8925d9291f59" target="_top" xlink:title="Executes a single XCSF trial. ">
<polygon fill="none" stroke="#000000" points="455,-95.5 455,-114.5 511,-114.5 511,-95.5 455,-95.5"/>
<text text-anchor="middle" x="483" y="-102.5" font-family="Helvetica,sans-Serif" font-size="10.00" fill="#000000">xcsf_trial</text>
</a>
</g>
</g>
<!-- Node507&#45;&gt;Node516 -->
<g id="edge12" class="edge">
<title>Node507&#45;&gt;Node516</title>
<path fill="none" stroke="#191970" d="M391.2952,-185.3249C393.6057,-183.9312 395.8677,-182.4827 398,-181 427.9048,-160.2061 458.7326,-130.0417 473.7077,-114.7191"/>
<polygon fill="#191970" stroke="#191970" points="389.3097,-182.4262 382.3152,-190.384 392.7457,-188.5249 389.3097,-182.4262"/>
</g>
<!-- Node509 -->
<g id="node5" class="node">
<title>Node509</title>
<g id="a_node5"><a xlink:href="xcs__multi__step_8h.html#acc29d4a55dbd56c16ea5f19f15a7c677" target="_top" xlink:title="Executes a multi&#45;step reinforcement learning experiment. ">
<polygon fill="none" stroke="#000000" points="690,-247.5 690,-266.5 794,-266.5 794,-247.5 690,-247.5"/>
<text text-anchor="middle" x="742" y="-254.5" font-family="Helvetica,sans-Serif" font-size="10.00" fill="#000000">xcs_multi_step_exp</text>
</a>
</g>
</g>
<!-- Node508&#45;&gt;Node509 -->
<g id="edge4" class="edge">
<title>Node508&#45;&gt;Node509</title>
<path fill="none" stroke="#191970" d="M531.1542,-230.7407C543.1403,-233.3929 555.9962,-236.0093 568,-238 608.6208,-244.7364 654.9877,-249.6646 689.6378,-252.8116"/>
<polygon fill="#191970" stroke="#191970" points="531.854,-227.3106 521.3281,-228.5174 530.3092,-234.138 531.854,-227.3106"/>
</g>
<!-- Node510 -->
<g id="node6" class="node">
<title>Node510</title>
<g id="a_node6"><a xlink:href="main_8c.html#a3c04138a5bfe5d72780bb7e82a18e627" target="_top" xlink:title="main">
<polygon fill="none" stroke="#000000" points="865,-209.5 865,-228.5 903,-228.5 903,-209.5 865,-209.5"/>
<text text-anchor="middle" x="884" y="-216.5" font-family="Helvetica,sans-Serif" font-size="10.00" fill="#000000">main</text>
</a>
</g>
</g>
<!-- Node509&#45;&gt;Node510 -->
<g id="edge5" class="edge">
<title>Node509&#45;&gt;Node510</title>
<path fill="none" stroke="#191970" d="M787.5443,-244.8121C813.6525,-237.8254 845.0537,-229.4222 864.7754,-224.1446"/>
<polygon fill="#191970" stroke="#191970" points="786.5879,-241.4448 777.8326,-247.411 788.3975,-248.2069 786.5879,-241.4448"/>
</g>
<!-- Node512 -->
<g id="node8" class="node">
<title>Node512</title>
<g id="a_node8"><a xlink:href="structXCS.html#aedc01ad6f00a54b260a7605929a1d4c9" target="_top" xlink:title="XCS::single_update">
<polygon fill="none" stroke="#000000" points="832,-149.5 832,-168.5 936,-168.5 936,-149.5 832,-149.5"/>
<text text-anchor="middle" x="884" y="-156.5" font-family="Helvetica,sans-Serif" font-size="10.00" fill="#000000">XCS::single_update</text>
</a>
</g>
</g>
<!-- Node511&#45;&gt;Node512 -->
<g id="edge7" class="edge">
<title>Node511&#45;&gt;Node512</title>
<path fill="none" stroke="#191970" d="M542.3581,-177.7434C620.6934,-173.4458 757.3532,-165.9482 831.8847,-161.8592"/>
<polygon fill="#191970" stroke="#191970" points="541.9637,-174.2597 532.1705,-178.3024 542.3472,-181.2492 541.9637,-174.2597"/>
</g>
<!-- Node514 -->
<g id="node10" class="node">
<title>Node514</title>
<g id="a_node10"><a xlink:href="xcs__single__step_8c.html#a536ab4256e871e31959ea6e907455340" target="_top" xlink:title="Executes a single&#45;step trial using a built&#45;in environment. ">
<polygon fill="none" stroke="#000000" points="568,-209.5 568,-228.5 652,-228.5 652,-209.5 568,-209.5"/>
<text text-anchor="middle" x="610" y="-216.5" font-family="Helvetica,sans-Serif" font-size="10.00" fill="#000000">xcs_single_trial</text>
</a>
</g>
</g>
<!-- Node511&#45;&gt;Node514 -->
<g id="edge9" class="edge">
<title>Node511&#45;&gt;Node514</title>
<path fill="none" stroke="#191970" d="M524.8943,-193.5353C542.1712,-198.7048 561.8707,-204.5991 577.9628,-209.4141"/>
<polygon fill="#191970" stroke="#191970" points="525.6311,-190.1025 515.0475,-190.589 523.6245,-196.8088 525.6311,-190.1025"/>
</g>
<!-- Node513 -->
<g id="node9" class="node">
<title>Node513</title>
<g id="a_node9"><a xlink:href="python__wrapper_8cpp.html#afbdcc1358036a0b83a6b239da2b098a2" target="_top" xlink:title="BOOST_PYTHON_MODULE">
<polygon fill="none" stroke="#000000" points="972,-75.5 972,-94.5 1118,-94.5 1118,-75.5 972,-75.5"/>
<text text-anchor="middle" x="1045" y="-82.5" font-family="Helvetica,sans-Serif" font-size="10.00" fill="#000000">BOOST_PYTHON_MODULE</text>
</a>
</g>
</g>
<!-- Node512&#45;&gt;Node513 -->
<g id="edge8" class="edge">
<title>Node512&#45;&gt;Node513</title>
<path fill="none" stroke="#191970" d="M914.0516,-145.1875C946.1181,-130.4488 996.0754,-107.4871 1024.1062,-94.6034"/>
<polygon fill="#191970" stroke="#191970" points="912.3428,-142.1208 904.7183,-149.4773 915.2662,-148.4811 912.3428,-142.1208"/>
</g>
<!-- Node515 -->
<g id="node11" class="node">
<title>Node515</title>
<g id="a_node11"><a xlink:href="xcs__single__step_8h.html#a39a031bf59eaa9b33e30e614610dcda8" target="_top" xlink:title="Executes a single&#45;step reinforcement learning experiment. ">
<polygon fill="none" stroke="#000000" points="688,-209.5 688,-228.5 796,-228.5 796,-209.5 688,-209.5"/>
<text text-anchor="middle" x="742" y="-216.5" font-family="Helvetica,sans-Serif" font-size="10.00" fill="#000000">xcs_single_step_exp</text>
</a>
</g>
</g>
<!-- Node514&#45;&gt;Node515 -->
<g id="edge10" class="edge">
<title>Node514&#45;&gt;Node515</title>
<path fill="none" stroke="#191970" d="M662.1756,-219C670.5711,-219 679.2792,-219 687.7227,-219"/>
<polygon fill="#191970" stroke="#191970" points="662.1286,-215.5001 652.1285,-219 662.1285,-222.5001 662.1286,-215.5001"/>
</g>
<!-- Node515&#45;&gt;Node510 -->
<g id="edge11" class="edge">
<title>Node515&#45;&gt;Node510</title>
<path fill="none" stroke="#191970" d="M806.1149,-219C827.4136,-219 849.5466,-219 864.75,-219"/>
<polygon fill="#191970" stroke="#191970" points="806.0892,-215.5001 796.0892,-219 806.0892,-222.5001 806.0892,-215.5001"/>
</g>
<!-- Node517 -->
<g id="node13" class="node">
<title>Node517</title>
<g id="a_node13"><a xlink:href="xcsf_8h.html#a40f4dfe69c6480f25c55d21c44746eb8" target="_top" xlink:title="Executes MAX_TRIALS number of XCSF learning iterations using the training. data and test iterations u...">
<polygon fill="none" stroke="#000000" points="583,-95.5 583,-114.5 637,-114.5 637,-95.5 583,-95.5"/>
<text text-anchor="middle" x="610" y="-102.5" font-family="Helvetica,sans-Serif" font-size="10.00" fill="#000000">xcsf_fit2</text>
</a>
</g>
</g>
<!-- Node516&#45;&gt;Node517 -->
<g id="edge13" class="edge">
<title>Node516&#45;&gt;Node517</title>
<path fill="none" stroke="#191970" d="M521.4249,-105C541.2157,-105 564.8779,-105 582.7651,-105"/>
<polygon fill="#191970" stroke="#191970" points="521.1855,-101.5001 511.1854,-105 521.1854,-108.5001 521.1855,-101.5001"/>
</g>
<!-- Node521 -->
<g id="node17" class="node">
<title>Node521</title>
<g id="a_node17"><a xlink:href="xcsf_8h.html#a90b938e4ae2ef92284e8eabfcf4b7b7b" target="_top" xlink:title="Calculates the XCSF predictions for the provided input. ">
<polygon fill="none" stroke="#000000" points="575,-48.5 575,-67.5 645,-67.5 645,-48.5 575,-48.5"/>
<text text-anchor="middle" x="610" y="-55.5" font-family="Helvetica,sans-Serif" font-size="10.00" fill="#000000">xcsf_predict</text>
</a>
</g>
</g>
<!-- Node516&#45;&gt;Node521 -->
<g id="edge19" class="edge">
<title>Node516&#45;&gt;Node521</title>
<path fill="none" stroke="#191970" d="M518.1587,-91.9885C538.9768,-84.2842 564.908,-74.6876 583.902,-67.6583"/>
<polygon fill="#191970" stroke="#191970" points="516.8639,-88.7356 508.7003,-95.4888 519.2935,-95.3005 516.8639,-88.7356"/>
</g>
<!-- Node523 -->
<g id="node19" class="node">
<title>Node523</title>
<g id="a_node19"><a xlink:href="xcsf_8h.html#a348b8cd321211c377fb1deedc62c7c67" target="_top" xlink:title="Calculates the XCSF error for the input data. ">
<polygon fill="none" stroke="#000000" points="577.5,-.5 577.5,-19.5 642.5,-19.5 642.5,-.5 577.5,-.5"/>
<text text-anchor="middle" x="610" y="-7.5" font-family="Helvetica,sans-Serif" font-size="10.00" fill="#000000">xcsf_score</text>
</a>
</g>
</g>
<!-- Node516&#45;&gt;Node523 -->
<g id="edge22" class="edge">
<title>Node516&#45;&gt;Node523</title>
<path fill="none" stroke="#191970" d="M503.0657,-88.9086C520.1381,-75.3416 545.4116,-55.5481 568,-39 577.0066,-32.4019 587.3217,-25.2736 595.4755,-19.7354"/>
<polygon fill="#191970" stroke="#191970" points="500.5796,-86.4144 494.9431,-95.3855 504.9438,-91.8875 500.5796,-86.4144"/>
</g>
<!-- Node517&#45;&gt;Node510 -->
<g id="edge14" class="edge">
<title>Node517&#45;&gt;Node510</title>
<path fill="none" stroke="#191970" d="M642.2271,-118.4084C699.7085,-142.324 818.2449,-191.642 864.7116,-210.9749"/>
<polygon fill="#191970" stroke="#191970" points="643.4671,-115.1335 632.8898,-114.5235 640.7781,-121.5964 643.4671,-115.1335"/>
</g>
<!-- Node518 -->
<g id="node14" class="node">
<title>Node518</title>
<g id="a_node14"><a xlink:href="structXCS.html#a7d53320740db8e846251bacd0238a9fb" target="_top" xlink:title="XCS::fit">
<polygon fill="none" stroke="#000000" points="716,-57.5 716,-76.5 768,-76.5 768,-57.5 716,-57.5"/>
<text text-anchor="middle" x="742" y="-64.5" font-family="Helvetica,sans-Serif" font-size="10.00" fill="#000000">XCS::fit</text>
</a>
</g>
</g>
<!-- Node517&#45;&gt;Node518 -->
<g id="edge15" class="edge">
<title>Node517&#45;&gt;Node518</title>
<path fill="none" stroke="#191970" d="M646.704,-94.4337C668.6936,-88.1033 696.1267,-80.206 715.905,-74.5122"/>
<polygon fill="#191970" stroke="#191970" points="645.6721,-91.0885 637.0307,-97.2184 647.6087,-97.8153 645.6721,-91.0885"/>
</g>
<!-- Node519 -->
<g id="node15" class="node">
<title>Node519</title>
<g id="a_node15"><a xlink:href="xcsf_8h.html#afd4a983899f1980887b8375e40b32a72" target="_top" xlink:title="Executes MAX_TRIALS number of XCSF learning iterations using the training data. ">
<polygon fill="none" stroke="#000000" points="715,-95.5 715,-114.5 769,-114.5 769,-95.5 715,-95.5"/>
<text text-anchor="middle" x="742" y="-102.5" font-family="Helvetica,sans-Serif" font-size="10.00" fill="#000000">xcsf_fit1</text>
</a>
</g>
</g>
<!-- Node517&#45;&gt;Node519 -->
<g id="edge16" class="edge">
<title>Node517&#45;&gt;Node519</title>
<path fill="none" stroke="#191970" d="M647.0891,-105C668.5146,-105 695.0062,-105 714.5518,-105"/>
<polygon fill="#191970" stroke="#191970" points="647.0307,-101.5001 637.0307,-105 647.0307,-108.5001 647.0307,-101.5001"/>
</g>
<!-- Node520 -->
<g id="node16" class="node">
<title>Node520</title>
<g id="a_node16"><a xlink:href="structXCS.html#ad2ccafe59d2b4ae6d0e1cbc15edee53c" target="_top" xlink:title="XCS::fit">
<polygon fill="none" stroke="#000000" points="858,-90.5 858,-109.5 910,-109.5 910,-90.5 858,-90.5"/>
<text text-anchor="middle" x="884" y="-97.5" font-family="Helvetica,sans-Serif" font-size="10.00" fill="#000000">XCS::fit</text>
</a>
</g>
</g>
<!-- Node519&#45;&gt;Node520 -->
<g id="edge17" class="edge">
<title>Node519&#45;&gt;Node520</title>
<path fill="none" stroke="#191970" d="M779.1114,-103.6933C803.7321,-102.8263 835.4557,-101.7093 857.538,-100.9318"/>
<polygon fill="#191970" stroke="#191970" points="778.914,-100.1979 769.0434,-104.0478 779.1604,-107.1936 778.914,-100.1979"/>
</g>
<!-- Node520&#45;&gt;Node513 -->
<g id="edge18" class="edge">
<title>Node520&#45;&gt;Node513</title>
<path fill="none" stroke="#191970" d="M920.2803,-96.6199C935.58,-95.1944 953.9696,-93.4811 971.8691,-91.8134"/>
<polygon fill="#191970" stroke="#191970" points="919.8579,-93.1439 910.2258,-97.5566 920.5073,-100.1138 919.8579,-93.1439"/>
</g>
<!-- Node522 -->
<g id="node18" class="node">
<title>Node522</title>
<g id="a_node18"><a xlink:href="structXCS.html#a911ed75c86abed7807d33eb1385240ed" target="_top" xlink:title="XCS::predict">
<polygon fill="none" stroke="#000000" points="847.5,-47.5 847.5,-66.5 920.5,-66.5 920.5,-47.5 847.5,-47.5"/>
<text text-anchor="middle" x="884" y="-54.5" font-family="Helvetica,sans-Serif" font-size="10.00" fill="#000000">XCS::predict</text>
</a>
</g>
</g>
<!-- Node521&#45;&gt;Node522 -->
<g id="edge20" class="edge">
<title>Node521&#45;&gt;Node522</title>
<path fill="none" stroke="#191970" d="M655.2531,-51.2062C665.9643,-49.8735 677.3652,-48.6789 688,-48 735.9025,-44.9418 748.0623,-45.555 796,-48 812.8713,-48.8605 831.4914,-50.6432 847.2424,-52.3967"/>
<polygon fill="#191970" stroke="#191970" points="654.7049,-47.7479 645.2425,-52.5138 655.6116,-54.689 654.7049,-47.7479"/>
</g>
<!-- Node522&#45;&gt;Node513 -->
<g id="edge21" class="edge">
<title>Node522&#45;&gt;Node513</title>
<path fill="none" stroke="#191970" d="M930.5606,-65.0975C949.2207,-68.3427 970.8591,-72.1059 990.2646,-75.4808"/>
<polygon fill="#191970" stroke="#191970" points="930.9852,-61.6189 920.5334,-63.3536 929.7858,-68.5154 930.9852,-61.6189"/>
</g>
<!-- Node524 -->
<g id="node20" class="node">
<title>Node524</title>
<g id="a_node20"><a xlink:href="structXCS.html#aa77bc77484d6d14bf512304a23cfec88" target="_top" xlink:title="XCS::score">
<polygon fill="none" stroke="#000000" points="850,-.5 850,-19.5 918,-19.5 918,-.5 850,-.5"/>
<text text-anchor="middle" x="884" y="-7.5" font-family="Helvetica,sans-Serif" font-size="10.00" fill="#000000">XCS::score</text>
</a>
</g>
</g>
<!-- Node523&#45;&gt;Node524 -->
<g id="edge23" class="edge">
<title>Node523&#45;&gt;Node524</title>
<path fill="none" stroke="#191970" d="M652.5084,-10C706.8389,-10 799.8283,-10 849.8172,-10"/>
<polygon fill="#191970" stroke="#191970" points="652.5074,-6.5001 642.5074,-10 652.5073,-13.5001 652.5074,-6.5001"/>
</g>
<!-- Node524&#45;&gt;Node513 -->
<g id="edge24" class="edge">
<title>Node524&#45;&gt;Node513</title>
<path fill="none" stroke="#191970" d="M914.079,-24.012C946.2441,-38.9957 996.3873,-62.3543 1024.3612,-75.3856"/>
<polygon fill="#191970" stroke="#191970" points="915.261,-20.7015 904.7183,-19.6514 912.3051,-27.0468 915.261,-20.7015"/>
</g>
<!-- Node526 -->
<g id="node22" class="node">
<title>Node526</title>
<g id="a_node22"><a xlink:href="ea_8c.html#a72cd70b4efb82200d9c3004e1658a69c" target="_top" xlink:title="Adds offspring to the population. ">
<polygon fill="none" stroke="#000000" points="242,-152.5 242,-171.5 290,-171.5 290,-152.5 242,-152.5"/>
<text text-anchor="middle" x="266" y="-159.5" font-family="Helvetica,sans-Serif" font-size="10.00" fill="#000000">ea_add</text>
</a>
</g>
</g>
<!-- Node525&#45;&gt;Node526 -->
<g id="edge26" class="edge">
<title>Node525&#45;&gt;Node526</title>
<path fill="none" stroke="#191970" d="M203.6609,-162C216.8277,-162 230.6179,-162 241.8707,-162"/>
<polygon fill="#191970" stroke="#191970" points="203.2955,-158.5001 193.2954,-162 203.2954,-165.5001 203.2955,-158.5001"/>
</g>
<!-- Node527 -->
<g id="node23" class="node">
<title>Node527</title>
<g id="a_node23"><a xlink:href="ea_8h.html#ae90a9b4131bb94462265b9c928499eb8" target="_top" xlink:title="Executes the evolutionary algorithm (EA). ">
<polygon fill="none" stroke="#000000" points="347.5,-152.5 347.5,-171.5 376.5,-171.5 376.5,-152.5 347.5,-152.5"/>
<text text-anchor="middle" x="362" y="-159.5" font-family="Helvetica,sans-Serif" font-size="10.00" fill="#000000">ea</text>
</a>
</g>
</g>
<!-- Node526&#45;&gt;Node527 -->
<g id="edge27" class="edge">
<title>Node526&#45;&gt;Node527</title>
<path fill="none" stroke="#191970" d="M300.4184,-162C316.5491,-162 334.9096,-162 347.3544,-162"/>
<polygon fill="#191970" stroke="#191970" points="300.2249,-158.5001 290.2249,-162 300.2248,-165.5001 300.2249,-158.5001"/>
</g>
<!-- Node527&#45;&gt;Node508 -->
<g id="edge28" class="edge">
<title>Node527&#45;&gt;Node508</title>
<path fill="none" stroke="#191970" d="M385.849,-174.5971C406.6892,-185.6035 433.6846,-199.8562 434,-200 441.3057,-203.3308 449.3788,-206.6168 456.8284,-209.4952"/>
<polygon fill="#191970" stroke="#191970" points="387.3019,-171.4063 376.8248,-169.8309 384.0327,-177.5961 387.3019,-171.4063"/>
</g>
<!-- Node527&#45;&gt;Node511 -->
<g id="edge29" class="edge">
<title>Node527&#45;&gt;Node511</title>
<path fill="none" stroke="#191970" d="M386.8495,-165.902C400.4491,-168.0375 417.7848,-170.7596 433.9809,-173.3028"/>
<polygon fill="#191970" stroke="#191970" points="387.2589,-162.4235 376.837,-164.3298 386.173,-169.3387 387.2589,-162.4235"/>
</g>
<!-- Node527&#45;&gt;Node516 -->
<g id="edge30" class="edge">
<title>Node527&#45;&gt;Node516</title>
<path fill="none" stroke="#191970" d="M386.0336,-150.6784C408.4987,-140.0956 441.6645,-124.4721 462.7984,-114.5164"/>
<polygon fill="#191970" stroke="#191970" points="384.3919,-147.5828 376.837,-155.0107 387.375,-153.9153 384.3919,-147.5828"/>
</g>
</g>
</svg>
