<?xml version="1.0" encoding="UTF-8" standalone="no"?>
<!DOCTYPE svg PUBLIC "-//W3C//DTD SVG 1.1//EN"
 "http://www.w3.org/Graphics/SVG/1.1/DTD/svg11.dtd">
<!-- Generated by graphviz version 2.40.1 (20161225.0304)
 -->
<!-- Title: cl_init Pages: 1 -->
<svg width="836pt" height="370pt"
 viewBox="0.00 0.00 836.00 370.00" xmlns="http://www.w3.org/2000/svg" xmlns:xlink="http://www.w3.org/1999/xlink">
<g id="graph0" class="graph" transform="scale(1 1) rotate(0) translate(4 366)">
<title>cl_init</title>
<!-- Node219 -->
<g id="node1" class="node">
<title>Node219</title>
<polygon fill="#bfbfbf" stroke="#000000" points="0,-190.5 0,-209.5 42,-209.5 42,-190.5 0,-190.5"/>
<text text-anchor="middle" x="21" y="-197.5" font-family="Helvetica,sans-Serif" font-size="10.00" fill="#000000">cl_init</text>
</g>
<!-- Node220 -->
<g id="node2" class="node">
<title>Node220</title>
<g id="a_node2"><a xlink:href="clset_8c.html#a60fd3363a0a370e8b5a18671861be461" target="_top" xlink:title="Ensures all possible actions are covered by the match set. ">
<polygon fill="none" stroke="#000000" points="78,-228.5 78,-247.5 145,-247.5 145,-228.5 78,-228.5"/>
<text text-anchor="middle" x="111.5" y="-235.5" font-family="Helvetica,sans-Serif" font-size="10.00" fill="#000000">clset_cover</text>
</a>
</g>
</g>
<!-- Node219&#45;&gt;Node220 -->
<g id="edge1" class="edge">
<title>Node219&#45;&gt;Node220</title>
<path fill="none" stroke="#191970" d="M51.7291,-212.9028C63.8106,-217.9757 77.4369,-223.6972 88.6247,-228.3949"/>
<polygon fill="#191970" stroke="#191970" points="53.0225,-209.6499 42.4472,-209.0055 50.3124,-216.1041 53.0225,-209.6499"/>
</g>
<!-- Node238 -->
<g id="node20" class="node">
<title>Node238</title>
<g id="a_node20"><a xlink:href="clset_8h.html#a010148dc53ed67a07156c06cd3bedc17" target="_top" xlink:title="Initialises a new population of random classifiers. ">
<polygon fill="none" stroke="#000000" points="450,-114.5 450,-133.5 527,-133.5 527,-114.5 450,-114.5"/>
<text text-anchor="middle" x="488.5" y="-121.5" font-family="Helvetica,sans-Serif" font-size="10.00" fill="#000000">clset_pop_init</text>
</a>
</g>
</g>
<!-- Node219&#45;&gt;Node238 -->
<g id="edge24" class="edge">
<title>Node219&#45;&gt;Node238</title>
<path fill="none" stroke="#191970" d="M51.971,-192.1272C101.3588,-179.8534 201.1463,-156.1999 287,-143 343.2622,-134.3498 409.0085,-129.0389 449.7054,-126.305"/>
<polygon fill="#191970" stroke="#191970" points="51.0723,-188.7441 42.2203,-194.5657 52.7707,-195.5349 51.0723,-188.7441"/>
</g>
<!-- Node240 -->
<g id="node22" class="node">
<title>Node240</title>
<g id="a_node22"><a xlink:href="ea_8h.html#ae90a9b4131bb94462265b9c928499eb8" target="_top" xlink:title="Executes the evolutionary algorithm (EA). ">
<polygon fill="none" stroke="#000000" points="201.5,-190.5 201.5,-209.5 230.5,-209.5 230.5,-190.5 201.5,-190.5"/>
<text text-anchor="middle" x="216" y="-197.5" font-family="Helvetica,sans-Serif" font-size="10.00" fill="#000000">ea</text>
</a>
</g>
</g>
<!-- Node219&#45;&gt;Node240 -->
<g id="edge29" class="edge">
<title>Node219&#45;&gt;Node240</title>
<path fill="none" stroke="#191970" d="M52.369,-200C95.1092,-200 169.9174,-200 201.3907,-200"/>
<polygon fill="#191970" stroke="#191970" points="52.2397,-196.5001 42.2396,-200 52.2396,-203.5001 52.2397,-196.5001"/>
</g>
<!-- Node221 -->
<g id="node3" class="node">
<title>Node221</title>
<g id="a_node3"><a xlink:href="clset_8h.html#a229207544a5b8b601de05d231bb84650" target="_top" xlink:title="Constructs the match set. ">
<polygon fill="none" stroke="#000000" points="181,-228.5 181,-247.5 251,-247.5 251,-228.5 181,-228.5"/>
<text text-anchor="middle" x="216" y="-235.5" font-family="Helvetica,sans-Serif" font-size="10.00" fill="#000000">clset_match</text>
</a>
</g>
</g>
<!-- Node220&#45;&gt;Node221 -->
<g id="edge2" class="edge">
<title>Node220&#45;&gt;Node221</title>
<path fill="none" stroke="#191970" d="M155.3543,-238C163.9061,-238 172.7659,-238 180.985,-238"/>
<polygon fill="#191970" stroke="#191970" points="155.1397,-234.5001 145.1397,-238 155.1396,-241.5001 155.1397,-234.5001"/>
</g>
<!-- Node222 -->
<g id="node4" class="node">
<title>Node222</title>
<g id="a_node4"><a xlink:href="xcs__multi__step_8h.html#af2eaa15cba52d29fa3630218d9780a6a" target="_top" xlink:title="Constructs the match set and selects an action to perform. ">
<polygon fill="none" stroke="#000000" points="290,-304.5 290,-323.5 390,-323.5 390,-304.5 290,-304.5"/>
<text text-anchor="middle" x="340" y="-311.5" font-family="Helvetica,sans-Serif" font-size="10.00" fill="#000000">xcs_multi_decision</text>
</a>
</g>
</g>
<!-- Node221&#45;&gt;Node222 -->
<g id="edge3" class="edge">
<title>Node221&#45;&gt;Node222</title>
<path fill="none" stroke="#191970" d="M235.4065,-253.9148C249.2712,-264.8523 268.6454,-279.2785 287,-290 296.2451,-295.4004 306.9209,-300.4433 316.2575,-304.499"/>
<polygon fill="#191970" stroke="#191970" points="237.5378,-251.1376 227.5441,-247.6197 233.1628,-256.602 237.5378,-251.1376"/>
</g>
<!-- Node226 -->
<g id="node8" class="node">
<title>Node226</title>
<g id="a_node8"><a xlink:href="xcs__single__step_8h.html#a5c1d53976f601ae3603aed34f0767c29" target="_top" xlink:title="Constructs the match set and selects an action to perform. ">
<polygon fill="none" stroke="#000000" points="288,-228.5 288,-247.5 392,-247.5 392,-228.5 288,-228.5"/>
<text text-anchor="middle" x="340" y="-235.5" font-family="Helvetica,sans-Serif" font-size="10.00" fill="#000000">xcs_single_decision</text>
</a>
</g>
</g>
<!-- Node221&#45;&gt;Node226 -->
<g id="edge7" class="edge">
<title>Node221&#45;&gt;Node226</title>
<path fill="none" stroke="#191970" d="M261.3337,-238C269.8644,-238 278.8497,-238 287.5757,-238"/>
<polygon fill="#191970" stroke="#191970" points="261.2018,-234.5001 251.2017,-238 261.2017,-241.5001 261.2018,-234.5001"/>
</g>
<!-- Node231 -->
<g id="node13" class="node">
<title>Node231</title>
<g id="a_node13"><a xlink:href="xcs__supervised_8c.html#ad48f3f1110cd2295710b91192dc80b31" target="_top" xlink:title="Executes a single XCSF trial. ">
<polygon fill="none" stroke="#000000" points="287,-152.5 287,-171.5 393,-171.5 393,-152.5 287,-152.5"/>
<text text-anchor="middle" x="340" y="-159.5" font-family="Helvetica,sans-Serif" font-size="10.00" fill="#000000">xcs_supervised_trial</text>
</a>
</g>
</g>
<!-- Node221&#45;&gt;Node231 -->
<g id="edge13" class="edge">
<title>Node221&#45;&gt;Node231</title>
<path fill="none" stroke="#191970" d="M245.2295,-223.0659C247.2293,-221.7623 249.1733,-220.4028 251,-219 269.4515,-204.8304 267.5187,-193.7167 287,-181 292.7297,-177.2599 299.2886,-174.1445 305.795,-171.5919"/>
<polygon fill="#191970" stroke="#191970" points="243.0974,-220.2619 236.2956,-228.3851 246.6785,-226.2766 243.0974,-220.2619"/>
</g>
<!-- Node223 -->
<g id="node5" class="node">
<title>Node223</title>
<g id="a_node5"><a xlink:href="xcs__multi__step_8c.html#ad50c415970b4bfc42f469fb38c5e68fa" target="_top" xlink:title="Executes a multi&#45;step trial using a built&#45;in environment. ">
<polygon fill="none" stroke="#000000" points="448.5,-304.5 448.5,-323.5 528.5,-323.5 528.5,-304.5 448.5,-304.5"/>
<text text-anchor="middle" x="488.5" y="-311.5" font-family="Helvetica,sans-Serif" font-size="10.00" fill="#000000">xcs_multi_trial</text>
</a>
</g>
</g>
<!-- Node222&#45;&gt;Node223 -->
<g id="edge4" class="edge">
<title>Node222&#45;&gt;Node223</title>
<path fill="none" stroke="#191970" d="M400.6265,-314C416.6193,-314 433.4853,-314 448.1179,-314"/>
<polygon fill="#191970" stroke="#191970" points="400.2754,-310.5001 390.2753,-314 400.2753,-317.5001 400.2754,-310.5001"/>
</g>
<!-- Node224 -->
<g id="node6" class="node">
<title>Node224</title>
<g id="a_node6"><a xlink:href="xcs__multi__step_8h.html#acc29d4a55dbd56c16ea5f19f15a7c677" target="_top" xlink:title="Executes a multi&#45;step reinforcement learning experiment. ">
<polygon fill="none" stroke="#000000" points="587,-342.5 587,-361.5 691,-361.5 691,-342.5 587,-342.5"/>
<text text-anchor="middle" x="639" y="-349.5" font-family="Helvetica,sans-Serif" font-size="10.00" fill="#000000">xcs_multi_step_exp</text>
</a>
</g>
</g>
<!-- Node223&#45;&gt;Node224 -->
<g id="edge5" class="edge">
<title>Node223&#45;&gt;Node224</title>
<path fill="none" stroke="#191970" d="M536.1847,-326.04C557.2103,-331.3488 581.5674,-337.4988 601.2956,-342.4799"/>
<polygon fill="#191970" stroke="#191970" points="537.0301,-322.6437 526.4775,-323.589 535.3164,-329.4307 537.0301,-322.6437"/>
</g>
<!-- Node225 -->
<g id="node7" class="node">
<title>Node225</title>
<g id="a_node7"><a xlink:href="main_8c.html#a3c04138a5bfe5d72780bb7e82a18e627" target="_top" xlink:title="main">
<polygon fill="none" stroke="#000000" points="760,-285.5 760,-304.5 798,-304.5 798,-285.5 760,-285.5"/>
<text text-anchor="middle" x="779" y="-292.5" font-family="Helvetica,sans-Serif" font-size="10.00" fill="#000000">main</text>
</a>
</g>
</g>
<!-- Node224&#45;&gt;Node225 -->
<g id="edge6" class="edge">
<title>Node224&#45;&gt;Node225</title>
<path fill="none" stroke="#191970" d="M677.9188,-339.0324C683.3474,-337.085 688.8329,-335.0429 694,-333 716.9993,-323.9067 742.8686,-312.1094 759.9623,-304.0883"/>
<polygon fill="#191970" stroke="#191970" points="676.5645,-335.7984 668.2897,-342.4149 678.8845,-342.4027 676.5645,-335.7984"/>
</g>
<!-- Node227 -->
<g id="node9" class="node">
<title>Node227</title>
<g id="a_node9"><a xlink:href="classXCS.html#a92001d251c372244fd07c624f2dcff83" target="_top" xlink:title="XCS::single_decision">
<polygon fill="none" stroke="#000000" points="584,-190.5 584,-209.5 694,-209.5 694,-190.5 584,-190.5"/>
<text text-anchor="middle" x="639" y="-197.5" font-family="Helvetica,sans-Serif" font-size="10.00" fill="#000000">XCS::single_decision</text>
</a>
</g>
</g>
<!-- Node226&#45;&gt;Node227 -->
<g id="edge8" class="edge">
<title>Node226&#45;&gt;Node227</title>
<path fill="none" stroke="#191970" d="M389.6732,-226.2937C402.4346,-223.5901 416.1806,-220.9411 429,-219 481.3013,-211.0805 541.4669,-206.0479 583.9551,-203.1663"/>
<polygon fill="#191970" stroke="#191970" points="388.7167,-222.9198 379.6865,-228.4612 390.2014,-229.7605 388.7167,-222.9198"/>
</g>
<!-- Node229 -->
<g id="node11" class="node">
<title>Node229</title>
<g id="a_node11"><a xlink:href="xcs__single__step_8c.html#a536ab4256e871e31959ea6e907455340" target="_top" xlink:title="Executes a single&#45;step trial using a built&#45;in environment. ">
<polygon fill="none" stroke="#000000" points="446.5,-228.5 446.5,-247.5 530.5,-247.5 530.5,-228.5 446.5,-228.5"/>
<text text-anchor="middle" x="488.5" y="-235.5" font-family="Helvetica,sans-Serif" font-size="10.00" fill="#000000">xcs_single_trial</text>
</a>
</g>
</g>
<!-- Node226&#45;&gt;Node229 -->
<g id="edge10" class="edge">
<title>Node226&#45;&gt;Node229</title>
<path fill="none" stroke="#191970" d="M402.4758,-238C417.2851,-238 432.7357,-238 446.3896,-238"/>
<polygon fill="#191970" stroke="#191970" points="402.3556,-234.5001 392.3555,-238 402.3555,-241.5001 402.3556,-234.5001"/>
</g>
<!-- Node228 -->
<g id="node10" class="node">
<title>Node228</title>
<g id="a_node10"><a xlink:href="pybind__wrapper_8cpp.html#a9f26280e01308c4674f2473fb6f78730" target="_top" xlink:title="pybind11_init_xcsf">
<polygon fill="none" stroke="#000000" points="730,-95.5 730,-114.5 828,-114.5 828,-95.5 730,-95.5"/>
<text text-anchor="middle" x="779" y="-102.5" font-family="Helvetica,sans-Serif" font-size="10.00" fill="#000000">pybind11_init_xcsf</text>
</a>
</g>
</g>
<!-- Node227&#45;&gt;Node228 -->
<g id="edge9" class="edge">
<title>Node227&#45;&gt;Node228</title>
<path fill="none" stroke="#191970" d="M682.9721,-186.6077C686.792,-184.9102 690.5225,-183.0426 694,-181 725.9186,-162.2517 756.5608,-130.3411 770.7601,-114.5012"/>
<polygon fill="#191970" stroke="#191970" points="681.3471,-183.4893 673.3856,-190.4797 683.9686,-189.9799 681.3471,-183.4893"/>
</g>
<!-- Node230 -->
<g id="node12" class="node">
<title>Node230</title>
<g id="a_node12"><a xlink:href="xcs__single__step_8h.html#a39a031bf59eaa9b33e30e614610dcda8" target="_top" xlink:title="Executes a single&#45;step reinforcement learning experiment. ">
<polygon fill="none" stroke="#000000" points="585,-304.5 585,-323.5 693,-323.5 693,-304.5 585,-304.5"/>
<text text-anchor="middle" x="639" y="-311.5" font-family="Helvetica,sans-Serif" font-size="10.00" fill="#000000">xcs_single_step_exp</text>
</a>
</g>
</g>
<!-- Node229&#45;&gt;Node230 -->
<g id="edge11" class="edge">
<title>Node229&#45;&gt;Node230</title>
<path fill="none" stroke="#191970" d="M514.119,-252.7406C533.168,-263.5061 559.9192,-278.2177 584,-290 594.2938,-295.0366 605.8961,-300.176 615.7819,-304.4"/>
<polygon fill="#191970" stroke="#191970" points="515.5968,-249.5547 505.1736,-247.6552 512.1372,-255.6401 515.5968,-249.5547"/>
</g>
<!-- Node230&#45;&gt;Node225 -->
<g id="edge12" class="edge">
<title>Node230&#45;&gt;Node225</title>
<path fill="none" stroke="#191970" d="M703.1791,-305.29C723.8302,-302.4873 745.1618,-299.5923 759.9174,-297.5898"/>
<polygon fill="#191970" stroke="#191970" points="702.5661,-301.841 693.1277,-306.6541 703.5075,-308.7774 702.5661,-301.841"/>
</g>
<!-- Node232 -->
<g id="node14" class="node">
<title>Node232</title>
<g id="a_node14"><a xlink:href="xcs__supervised_8h.html#aa4daa45596a8cf402d58d029f780db3a" target="_top" xlink:title="Executes MAX_TRIALS number of XCSF learning iterations using the training data and test iterations us...">
<polygon fill="none" stroke="#000000" points="439.5,-152.5 439.5,-171.5 537.5,-171.5 537.5,-152.5 439.5,-152.5"/>
<text text-anchor="middle" x="488.5" y="-159.5" font-family="Helvetica,sans-Serif" font-size="10.00" fill="#000000">xcs_supervised_fit</text>
</a>
</g>
</g>
<!-- Node231&#45;&gt;Node232 -->
<g id="edge14" class="edge">
<title>Node231&#45;&gt;Node232</title>
<path fill="none" stroke="#191970" d="M403.5346,-162C415.4495,-162 427.7404,-162 439.1451,-162"/>
<polygon fill="#191970" stroke="#191970" points="403.1925,-158.5001 393.1925,-162 403.1924,-165.5001 403.1925,-158.5001"/>
</g>
<!-- Node234 -->
<g id="node16" class="node">
<title>Node234</title>
<g id="a_node16"><a xlink:href="xcs__supervised_8h.html#a11b5fbece61ea9da003cda48fbf7d728" target="_top" xlink:title="Calculates the XCSF predictions for the provided input. ">
<polygon fill="none" stroke="#000000" points="429,-.5 429,-19.5 548,-19.5 548,-.5 429,-.5"/>
<text text-anchor="middle" x="488.5" y="-7.5" font-family="Helvetica,sans-Serif" font-size="10.00" fill="#000000">xcs_supervised_predict</text>
</a>
</g>
</g>
<!-- Node231&#45;&gt;Node234 -->
<g id="edge18" class="edge">
<title>Node231&#45;&gt;Node234</title>
<path fill="none" stroke="#191970" d="M347.7609,-142.9813C360.4803,-114.145 388.4672,-59.4995 429,-29 434.1122,-25.1533 440.0284,-22.0704 446.1064,-19.6037"/>
<polygon fill="#191970" stroke="#191970" points="344.4712,-141.7733 343.7707,-152.345 350.9109,-144.5176 344.4712,-141.7733"/>
</g>
<!-- Node236 -->
<g id="node18" class="node">
<title>Node236</title>
<g id="a_node18"><a xlink:href="xcs__supervised_8h.html#a19dea220a72a3646e490ff13ea7ed5fa" target="_top" xlink:title="Calculates the XCSF error for the input data. ">
<polygon fill="none" stroke="#000000" points="431.5,-38.5 431.5,-57.5 545.5,-57.5 545.5,-38.5 431.5,-38.5"/>
<text text-anchor="middle" x="488.5" y="-45.5" font-family="Helvetica,sans-Serif" font-size="10.00" fill="#000000">xcs_supervised_score</text>
</a>
</g>
</g>
<!-- Node231&#45;&gt;Node236 -->
<g id="edge21" class="edge">
<title>Node231&#45;&gt;Node236</title>
<path fill="none" stroke="#191970" d="M352.2166,-144.2228C367.7207,-122.941 396.4014,-87.599 429,-67 435.0502,-63.1769 441.9355,-60.0622 448.8233,-57.5448"/>
<polygon fill="#191970" stroke="#191970" points="349.346,-142.2201 346.4056,-152.3988 355.0517,-146.2754 349.346,-142.2201"/>
</g>
<!-- Node232&#45;&gt;Node225 -->
<g id="edge15" class="edge">
<title>Node232&#45;&gt;Node225</title>
<path fill="none" stroke="#191970" d="M506.0295,-178.7435C532.9609,-204.4357 581.6743,-250.7702 584,-252 642.9952,-283.1949 723.5267,-291.7892 759.848,-294.1335"/>
<polygon fill="#191970" stroke="#191970" points="508.407,-176.1743 498.7565,-171.8017 503.5739,-181.238 508.407,-176.1743"/>
</g>
<!-- Node233 -->
<g id="node15" class="node">
<title>Node233</title>
<g id="a_node15"><a xlink:href="classXCS.html#ac9a4a7cb0ec6238ef1d4d77996f8975b" target="_top" xlink:title="XCS::fit">
<polygon fill="none" stroke="#000000" points="613,-152.5 613,-171.5 665,-171.5 665,-152.5 613,-152.5"/>
<text text-anchor="middle" x="639" y="-159.5" font-family="Helvetica,sans-Serif" font-size="10.00" fill="#000000">XCS::fit</text>
</a>
</g>
</g>
<!-- Node232&#45;&gt;Node233 -->
<g id="edge16" class="edge">
<title>Node232&#45;&gt;Node233</title>
<path fill="none" stroke="#191970" d="M547.9536,-162C570.4672,-162 594.9561,-162 612.8601,-162"/>
<polygon fill="#191970" stroke="#191970" points="547.7794,-158.5001 537.7793,-162 547.7793,-165.5001 547.7794,-158.5001"/>
</g>
<!-- Node233&#45;&gt;Node228 -->
<g id="edge17" class="edge">
<title>Node233&#45;&gt;Node228</title>
<path fill="none" stroke="#191970" d="M674.9748,-150.0813C681.3484,-147.8253 687.8964,-145.4132 694,-143 716.5483,-134.085 741.8553,-122.571 758.9467,-114.5644"/>
<polygon fill="#191970" stroke="#191970" points="673.4915,-146.8912 665.1914,-153.4759 675.7862,-153.5044 673.4915,-146.8912"/>
</g>
<!-- Node235 -->
<g id="node17" class="node">
<title>Node235</title>
<g id="a_node17"><a xlink:href="classXCS.html#a8e8db281054f9e5937610eed434cd4a5" target="_top" xlink:title="XCS::predict">
<polygon fill="none" stroke="#000000" points="602.5,-.5 602.5,-19.5 675.5,-19.5 675.5,-.5 602.5,-.5"/>
<text text-anchor="middle" x="639" y="-7.5" font-family="Helvetica,sans-Serif" font-size="10.00" fill="#000000">XCS::predict</text>
</a>
</g>
</g>
<!-- Node234&#45;&gt;Node235 -->
<g id="edge19" class="edge">
<title>Node234&#45;&gt;Node235</title>
<path fill="none" stroke="#191970" d="M558.7524,-10C573.7901,-10 589.0952,-10 602.2513,-10"/>
<polygon fill="#191970" stroke="#191970" points="558.4141,-6.5001 548.414,-10 558.414,-13.5001 558.4141,-6.5001"/>
</g>
<!-- Node235&#45;&gt;Node228 -->
<g id="edge20" class="edge">
<title>Node235&#45;&gt;Node228</title>
<path fill="none" stroke="#191970" d="M682.9721,-23.3923C686.792,-25.0898 690.5225,-26.9574 694,-29 725.9186,-47.7483 756.5608,-79.6589 770.7601,-95.4988"/>
<polygon fill="#191970" stroke="#191970" points="683.9686,-20.0201 673.3856,-19.5203 681.3471,-26.5107 683.9686,-20.0201"/>
</g>
<!-- Node237 -->
<g id="node19" class="node">
<title>Node237</title>
<g id="a_node19"><a xlink:href="classXCS.html#ad32ffc841106ec036029e4c90a33b761" target="_top" xlink:title="XCS::score">
<polygon fill="none" stroke="#000000" points="605,-38.5 605,-57.5 673,-57.5 673,-38.5 605,-38.5"/>
<text text-anchor="middle" x="639" y="-45.5" font-family="Helvetica,sans-Serif" font-size="10.00" fill="#000000">XCS::score</text>
</a>
</g>
</g>
<!-- Node236&#45;&gt;Node237 -->
<g id="edge22" class="edge">
<title>Node236&#45;&gt;Node237</title>
<path fill="none" stroke="#191970" d="M556.2339,-48C573.1031,-48 590.4812,-48 604.9315,-48"/>
<polygon fill="#191970" stroke="#191970" points="555.827,-44.5001 545.8269,-48 555.8269,-51.5001 555.827,-44.5001"/>
</g>
<!-- Node237&#45;&gt;Node228 -->
<g id="edge23" class="edge">
<title>Node237&#45;&gt;Node228</title>
<path fill="none" stroke="#191970" d="M671.7671,-61.3409C697.4439,-71.795 732.548,-86.0874 755.4907,-95.4284"/>
<polygon fill="#191970" stroke="#191970" points="673.0145,-58.0698 662.4329,-57.5405 670.3748,-64.5531 673.0145,-58.0698"/>
</g>
<!-- Node238&#45;&gt;Node225 -->
<g id="edge25" class="edge">
<title>Node238&#45;&gt;Node225</title>
<path fill="none" stroke="#191970" d="M536.4751,-135.3161C540.6299,-137.4505 544.5557,-139.9867 548,-143 576.1298,-167.61 555.6543,-194.639 584,-219 622.7099,-252.2682 646.5977,-233.0724 694,-252 718.4203,-261.7509 745.2954,-275.9769 762.1556,-285.3577"/>
<polygon fill="#191970" stroke="#191970" points="537.6785,-132.023 527.1115,-131.2558 534.8937,-138.4453 537.6785,-132.023"/>
</g>
<!-- Node238&#45;&gt;Node233 -->
<g id="edge28" class="edge">
<title>Node238&#45;&gt;Node233</title>
<path fill="none" stroke="#191970" d="M536.2878,-136.066C561.6446,-142.4684 591.8231,-150.0882 612.8816,-155.4053"/>
<polygon fill="#191970" stroke="#191970" points="537.0301,-132.6437 526.4775,-133.589 535.3164,-139.4307 537.0301,-132.6437"/>
</g>
<!-- Node239 -->
<g id="node21" class="node">
<title>Node239</title>
<g id="a_node21"><a xlink:href="classXCS.html#ab58a4fb495b05f3450b182bc21dcba1f" target="_top" xlink:title="XCS::single_reset">
<polygon fill="none" stroke="#000000" points="591,-114.5 591,-133.5 687,-133.5 687,-114.5 591,-114.5"/>
<text text-anchor="middle" x="639" y="-121.5" font-family="Helvetica,sans-Serif" font-size="10.00" fill="#000000">XCS::single_reset</text>
</a>
</g>
</g>
<!-- Node238&#45;&gt;Node239 -->
<g id="edge26" class="edge">
<title>Node238&#45;&gt;Node239</title>
<path fill="none" stroke="#191970" d="M537.6135,-124C554.7342,-124 573.9159,-124 590.9493,-124"/>
<polygon fill="#191970" stroke="#191970" points="537.2575,-120.5001 527.2575,-124 537.2575,-127.5001 537.2575,-120.5001"/>
</g>
<!-- Node239&#45;&gt;Node228 -->
<g id="edge27" class="edge">
<title>Node239&#45;&gt;Node228</title>
<path fill="none" stroke="#191970" d="M697.3648,-116.0791C708.1449,-114.6161 719.3037,-113.1016 729.7797,-111.6799"/>
<polygon fill="#191970" stroke="#191970" points="696.6185,-112.6482 687.1801,-117.4613 697.5599,-119.5846 696.6185,-112.6482"/>
</g>
<!-- Node240&#45;&gt;Node223 -->
<g id="edge30" class="edge">
<title>Node240&#45;&gt;Node223</title>
<path fill="none" stroke="#191970" d="M239.5858,-211.4699C243.5328,-213.76 247.4836,-216.2997 251,-219 269.4515,-233.1696 267.0945,-244.9582 287,-257 314.1403,-273.4184 397.9045,-293.938 448.488,-305.3392"/>
<polygon fill="#191970" stroke="#191970" points="241.0529,-208.2846 230.5894,-206.6212 237.7318,-214.4467 241.0529,-208.2846"/>
</g>
<!-- Node240&#45;&gt;Node231 -->
<g id="edge35" class="edge">
<title>Node240&#45;&gt;Node231</title>
<path fill="none" stroke="#191970" d="M240.4287,-192.5138C260.0578,-186.4984 287.7529,-178.0112 308.9533,-171.5143"/>
<polygon fill="#191970" stroke="#191970" points="239.247,-189.2152 230.7114,-195.4917 241.298,-195.908 239.247,-189.2152"/>
</g>
<!-- Node241 -->
<g id="node23" class="node">
<title>Node241</title>
<g id="a_node23"><a xlink:href="xcs__single__step_8h.html#a0ff6b521f66224d56ef0e6f50f5781b9" target="_top" xlink:title="Creates the action set, updates the classifiers and runs the EA. ">
<polygon fill="none" stroke="#000000" points="291,-190.5 291,-209.5 389,-209.5 389,-190.5 291,-190.5"/>
<text text-anchor="middle" x="340" y="-197.5" font-family="Helvetica,sans-Serif" font-size="10.00" fill="#000000">xcs_single_update</text>
</a>
</g>
</g>
<!-- Node240&#45;&gt;Node241 -->
<g id="edge31" class="edge">
<title>Node240&#45;&gt;Node241</title>
<path fill="none" stroke="#191970" d="M240.748,-200C255.0675,-200 273.6003,-200 290.7679,-200"/>
<polygon fill="#191970" stroke="#191970" points="240.7114,-196.5001 230.7114,-200 240.7113,-203.5001 240.7114,-196.5001"/>
</g>
<!-- Node241&#45;&gt;Node229 -->
<g id="edge34" class="edge">
<title>Node241&#45;&gt;Node229</title>
<path fill="none" stroke="#191970" d="M387.3329,-212.1121C408.0146,-217.4044 431.9188,-223.5213 451.2966,-228.4799"/>
<polygon fill="#191970" stroke="#191970" points="388.0284,-208.6774 377.4728,-209.589 386.293,-215.4589 388.0284,-208.6774"/>
</g>
<!-- Node242 -->
<g id="node24" class="node">
<title>Node242</title>
<g id="a_node24"><a xlink:href="classXCS.html#aedc01ad6f00a54b260a7605929a1d4c9" target="_top" xlink:title="XCS::single_update">
<polygon fill="none" stroke="#000000" points="436.5,-76.5 436.5,-95.5 540.5,-95.5 540.5,-76.5 436.5,-76.5"/>
<text text-anchor="middle" x="488.5" y="-83.5" font-family="Helvetica,sans-Serif" font-size="10.00" fill="#000000">XCS::single_update</text>
</a>
</g>
</g>
<!-- Node241&#45;&gt;Node242 -->
<g id="edge32" class="edge">
<title>Node241&#45;&gt;Node242</title>
<path fill="none" stroke="#191970" d="M387.4149,-185.3462C389.3886,-184.0187 391.264,-182.5734 393,-181 420.6933,-155.8998 400.8702,-129.61 429,-105 433.4071,-101.1444 438.6024,-98.0699 444.0572,-95.6187"/>
<polygon fill="#191970" stroke="#191970" points="385.2953,-182.5203 378.2608,-190.443 388.7005,-188.6363 385.2953,-182.5203"/>
</g>
<!-- Node242&#45;&gt;Node228 -->
<g id="edge33" class="edge">
<title>Node242&#45;&gt;Node228</title>
<path fill="none" stroke="#191970" d="M550.8105,-90.0754C604.2547,-93.5709 680.2308,-98.5401 729.5715,-101.7672"/>
<polygon fill="#191970" stroke="#191970" points="550.9782,-86.579 540.7711,-89.4188 550.5213,-93.564 550.9782,-86.579"/>
</g>
</g>
</svg>
