<?xml version="1.0" encoding="UTF-8" standalone="no"?>
<!DOCTYPE svg PUBLIC "-//W3C//DTD SVG 1.1//EN"
 "http://www.w3.org/Graphics/SVG/1.1/DTD/svg11.dtd">
<!-- Generated by graphviz version 2.40.1 (20161225.0304)
 -->
<!-- Title: cl_init Pages: 1 -->
<svg width="1011pt" height="367pt"
 viewBox="0.00 0.00 1011.00 367.47" xmlns="http://www.w3.org/2000/svg" xmlns:xlink="http://www.w3.org/1999/xlink">
<g id="graph0" class="graph" transform="scale(1 1) rotate(0) translate(4 363.4725)">
<title>cl_init</title>
<!-- Node244 -->
<g id="node1" class="node">
<title>Node244</title>
<polygon fill="#bfbfbf" stroke="#000000" points="0,-180.7984 0,-199.7984 42,-199.7984 42,-180.7984 0,-180.7984"/>
<text text-anchor="middle" x="21" y="-187.7984" font-family="Helvetica,sans-Serif" font-size="10.00" fill="#000000">cl_init</text>
</g>
<!-- Node245 -->
<g id="node2" class="node">
<title>Node245</title>
<g id="a_node2"><a xlink:href="clset_8c.html#afc4b91ff72294195a5462944b92ec9b2" target="_top" xlink:title="Ensures all possible actions are covered by the match set. ">
<polygon fill="none" stroke="#000000" points="78,-142.7984 78,-161.7984 145,-161.7984 145,-142.7984 78,-142.7984"/>
<text text-anchor="middle" x="111.5" y="-149.7984" font-family="Helvetica,sans-Serif" font-size="10.00" fill="#000000">clset_cover</text>
</a>
</g>
</g>
<!-- Node244&#45;&gt;Node245 -->
<g id="edge1" class="edge">
<title>Node244&#45;&gt;Node245</title>
<path fill="none" stroke="#191970" d="M51.7291,-177.3956C63.8106,-172.3227 77.4369,-166.6012 88.6247,-161.9036"/>
<polygon fill="#191970" stroke="#191970" points="50.3124,-174.1944 42.4472,-181.293 53.0225,-180.6485 50.3124,-174.1944"/>
</g>
<!-- Node264 -->
<g id="node21" class="node">
<title>Node264</title>
<g id="a_node21"><a xlink:href="clset_8h.html#a010148dc53ed67a07156c06cd3bedc17" target="_top" xlink:title="Initialises a new population set. ">
<polygon fill="none" stroke="#000000" points="582.5,-294.7984 582.5,-313.7984 659.5,-313.7984 659.5,-294.7984 582.5,-294.7984"/>
<text text-anchor="middle" x="621" y="-301.7984" font-family="Helvetica,sans-Serif" font-size="10.00" fill="#000000">clset_pop_init</text>
</a>
</g>
</g>
<!-- Node244&#45;&gt;Node264 -->
<g id="edge25" class="edge">
<title>Node244&#45;&gt;Node264</title>
<path fill="none" stroke="#191970" d="M36.58,-207.3192C67.4703,-239.1044 140.0822,-304.2984 216,-304.2984 216,-304.2984 216,-304.2984 339,-304.2984 425.901,-304.2984 527.8655,-304.2984 582.2272,-304.2984"/>
<polygon fill="#191970" stroke="#191970" points="39.0721,-204.8607 29.6488,-200.018 33.9954,-209.6802 39.0721,-204.8607"/>
</g>
<!-- Node266 -->
<g id="node23" class="node">
<title>Node266</title>
<g id="a_node23"><a xlink:href="ea_8h.html#a3e63f4f98f4b3eb0de9a52a1abe1c225" target="_top" xlink:title="Executes the evolutionary algorithm (EA). ">
<polygon fill="none" stroke="#000000" points="201.5,-180.7984 201.5,-199.7984 230.5,-199.7984 230.5,-180.7984 201.5,-180.7984"/>
<text text-anchor="middle" x="216" y="-187.7984" font-family="Helvetica,sans-Serif" font-size="10.00" fill="#000000">ea</text>
</a>
</g>
</g>
<!-- Node244&#45;&gt;Node266 -->
<g id="edge30" class="edge">
<title>Node244&#45;&gt;Node266</title>
<path fill="none" stroke="#191970" d="M52.369,-190.2984C95.1092,-190.2984 169.9174,-190.2984 201.3907,-190.2984"/>
<polygon fill="#191970" stroke="#191970" points="52.2397,-186.7985 42.2396,-190.2984 52.2396,-193.7985 52.2397,-186.7985"/>
</g>
<!-- Node246 -->
<g id="node3" class="node">
<title>Node246</title>
<g id="a_node3"><a xlink:href="clset_8h.html#a460e3bd1d979c502e9e9d97d4253f97c" target="_top" xlink:title="Constructs the match set. ">
<polygon fill="none" stroke="#000000" points="181,-142.7984 181,-161.7984 251,-161.7984 251,-142.7984 181,-142.7984"/>
<text text-anchor="middle" x="216" y="-149.7984" font-family="Helvetica,sans-Serif" font-size="10.00" fill="#000000">clset_match</text>
</a>
</g>
</g>
<!-- Node245&#45;&gt;Node246 -->
<g id="edge2" class="edge">
<title>Node245&#45;&gt;Node246</title>
<path fill="none" stroke="#191970" d="M155.3543,-152.2984C163.9061,-152.2984 172.7659,-152.2984 180.985,-152.2984"/>
<polygon fill="#191970" stroke="#191970" points="155.1397,-148.7985 145.1397,-152.2984 155.1396,-155.7985 155.1397,-148.7985"/>
</g>
<!-- Node247 -->
<g id="node4" class="node">
<title>Node247</title>
<g id="a_node4"><a xlink:href="xcs__multi__step_8c.html#ad50c415970b4bfc42f469fb38c5e68fa" target="_top" xlink:title="Executes a multi&#45;step trial using a built&#45;in environment. ">
<polygon fill="none" stroke="#000000" points="299,-180.7984 299,-199.7984 379,-199.7984 379,-180.7984 299,-180.7984"/>
<text text-anchor="middle" x="339" y="-187.7984" font-family="Helvetica,sans-Serif" font-size="10.00" fill="#000000">xcs_multi_trial</text>
</a>
</g>
</g>
<!-- Node246&#45;&gt;Node247 -->
<g id="edge3" class="edge">
<title>Node246&#45;&gt;Node247</title>
<path fill="none" stroke="#191970" d="M257.0445,-164.9789C273.6638,-170.1133 292.5322,-175.9425 307.9718,-180.7125"/>
<polygon fill="#191970" stroke="#191970" points="257.6257,-161.4952 247.0381,-161.8874 255.5594,-168.1833 257.6257,-161.4952"/>
</g>
<!-- Node250 -->
<g id="node7" class="node">
<title>Node250</title>
<g id="a_node7"><a xlink:href="xcs__single__step_8h.html#ae25a81ce7f997ab7167ab23daec18183" target="_top" xlink:title="Constructs the match set and selects an action to perform. ">
<polygon fill="none" stroke="#000000" points="287,-104.7984 287,-123.7984 391,-123.7984 391,-104.7984 287,-104.7984"/>
<text text-anchor="middle" x="339" y="-111.7984" font-family="Helvetica,sans-Serif" font-size="10.00" fill="#000000">xcs_single_decision</text>
</a>
</g>
</g>
<!-- Node246&#45;&gt;Node250 -->
<g id="edge6" class="edge">
<title>Node246&#45;&gt;Node250</title>
<path fill="none" stroke="#191970" d="M257.0445,-139.618C273.6638,-134.4836 292.5322,-128.6543 307.9718,-123.8844"/>
<polygon fill="#191970" stroke="#191970" points="255.5594,-136.4135 247.0381,-142.7094 257.6257,-143.1016 255.5594,-136.4135"/>
</g>
<!-- Node255 -->
<g id="node12" class="node">
<title>Node255</title>
<g id="a_node12"><a xlink:href="xcsf_8c.html#af5fb604e81235fdcb2ed8925d9291f59" target="_top" xlink:title="Executes a single XCSF trial. ">
<polygon fill="none" stroke="#000000" points="311,-142.7984 311,-161.7984 367,-161.7984 367,-142.7984 311,-142.7984"/>
<text text-anchor="middle" x="339" y="-149.7984" font-family="Helvetica,sans-Serif" font-size="10.00" fill="#000000">xcsf_trial</text>
</a>
</g>
</g>
<!-- Node246&#45;&gt;Node255 -->
<g id="edge12" class="edge">
<title>Node246&#45;&gt;Node255</title>
<path fill="none" stroke="#191970" d="M261.2964,-152.2984C277.863,-152.2984 296.1189,-152.2984 310.7705,-152.2984"/>
<polygon fill="#191970" stroke="#191970" points="261.2469,-148.7985 251.2469,-152.2984 261.2468,-155.7985 261.2469,-148.7985"/>
</g>
<!-- Node248 -->
<g id="node5" class="node">
<title>Node248</title>
<g id="a_node5"><a xlink:href="xcs__multi__step_8h.html#acc29d4a55dbd56c16ea5f19f15a7c677" target="_top" xlink:title="Executes a multi&#45;step reinforcement learning experiment. ">
<polygon fill="none" stroke="#000000" points="569,-256.7984 569,-275.7984 673,-275.7984 673,-256.7984 569,-256.7984"/>
<text text-anchor="middle" x="621" y="-263.7984" font-family="Helvetica,sans-Serif" font-size="10.00" fill="#000000">xcs_multi_step_exp</text>
</a>
</g>
</g>
<!-- Node247&#45;&gt;Node248 -->
<g id="edge4" class="edge">
<title>Node247&#45;&gt;Node248</title>
<path fill="none" stroke="#191970" d="M381.6347,-203.9863C384.8963,-205.5978 388.0594,-207.3661 391,-209.2984 410.4424,-222.0745 406.1027,-237.0741 427,-247.2984 471.3816,-269.0128 528.2402,-272.1391 568.9088,-270.8166"/>
<polygon fill="#191970" stroke="#191970" points="382.8456,-200.6949 372.2842,-199.8533 380.0156,-207.0974 382.8456,-200.6949"/>
</g>
<!-- Node249 -->
<g id="node6" class="node">
<title>Node249</title>
<g id="a_node6"><a xlink:href="main_8c.html#a3c04138a5bfe5d72780bb7e82a18e627" target="_top" xlink:title="main">
<polygon fill="none" stroke="#000000" points="747,-228.7984 747,-247.7984 785,-247.7984 785,-228.7984 747,-228.7984"/>
<text text-anchor="middle" x="766" y="-235.7984" font-family="Helvetica,sans-Serif" font-size="10.00" fill="#000000">main</text>
</a>
</g>
</g>
<!-- Node248&#45;&gt;Node249 -->
<g id="edge5" class="edge">
<title>Node248&#45;&gt;Node249</title>
<path fill="none" stroke="#191970" d="M680.5197,-254.805C704.2566,-250.2213 729.9125,-245.2671 746.8573,-241.995"/>
<polygon fill="#191970" stroke="#191970" points="679.6502,-251.4081 670.4952,-256.7407 680.9775,-258.2812 679.6502,-251.4081"/>
</g>
<!-- Node251 -->
<g id="node8" class="node">
<title>Node251</title>
<g id="a_node8"><a xlink:href="structXCS.html#a94d556a5e545ec415d7165d5e91b21d4" target="_top" xlink:title="XCS::single_decision">
<polygon fill="none" stroke="#000000" points="711,-9.7984 711,-28.7984 821,-28.7984 821,-9.7984 711,-9.7984"/>
<text text-anchor="middle" x="766" y="-16.7984" font-family="Helvetica,sans-Serif" font-size="10.00" fill="#000000">XCS::single_decision</text>
</a>
</g>
</g>
<!-- Node250&#45;&gt;Node251 -->
<g id="edge7" class="edge">
<title>Node250&#45;&gt;Node251</title>
<path fill="none" stroke="#191970" d="M351.1227,-96.3466C366.1671,-75.8128 393.9209,-43.2363 427,-29.2984 522.3618,10.8822 646.563,.6061 715.0603,-9.785"/>
<polygon fill="#191970" stroke="#191970" points="348.2216,-94.3871 345.3026,-104.5719 353.9358,-98.4304 348.2216,-94.3871"/>
</g>
<!-- Node253 -->
<g id="node10" class="node">
<title>Node253</title>
<g id="a_node10"><a xlink:href="xcs__single__step_8c.html#a536ab4256e871e31959ea6e907455340" target="_top" xlink:title="Executes a single&#45;step trial using a built&#45;in environment. ">
<polygon fill="none" stroke="#000000" points="437,-218.7984 437,-237.7984 521,-237.7984 521,-218.7984 437,-218.7984"/>
<text text-anchor="middle" x="479" y="-225.7984" font-family="Helvetica,sans-Serif" font-size="10.00" fill="#000000">xcs_single_trial</text>
</a>
</g>
</g>
<!-- Node250&#45;&gt;Node253 -->
<g id="edge9" class="edge">
<title>Node250&#45;&gt;Node253</title>
<path fill="none" stroke="#191970" d="M381.6587,-127.95C384.915,-129.5696 388.0702,-131.3496 391,-133.2984 393.3983,-134.8938 448.3856,-194.8529 470.1995,-218.6795"/>
<polygon fill="#191970" stroke="#191970" points="382.8773,-124.6617 372.3173,-123.8033 380.0372,-131.0596 382.8773,-124.6617"/>
</g>
<!-- Node252 -->
<g id="node9" class="node">
<title>Node252</title>
<g id="a_node9"><a xlink:href="python__wrapper_8cpp.html#afbdcc1358036a0b83a6b239da2b098a2" target="_top" xlink:title="BOOST_PYTHON_MODULE">
<polygon fill="none" stroke="#000000" points="857,-123.7984 857,-142.7984 1003,-142.7984 1003,-123.7984 857,-123.7984"/>
<text text-anchor="middle" x="930" y="-130.7984" font-family="Helvetica,sans-Serif" font-size="10.00" fill="#000000">BOOST_PYTHON_MODULE</text>
</a>
</g>
</g>
<!-- Node251&#45;&gt;Node252 -->
<g id="edge8" class="edge">
<title>Node251&#45;&gt;Node252</title>
<path fill="none" stroke="#191970" d="M809.9446,-32.7379C813.7703,-34.4255 817.5096,-36.2779 821,-38.2984 863.146,-62.6961 904.011,-104.6727 921.3329,-123.574"/>
<polygon fill="#191970" stroke="#191970" points="810.9333,-29.3632 800.3495,-28.8807 808.3224,-35.8581 810.9333,-29.3632"/>
</g>
<!-- Node254 -->
<g id="node11" class="node">
<title>Node254</title>
<g id="a_node11"><a xlink:href="xcs__single__step_8h.html#a39a031bf59eaa9b33e30e614610dcda8" target="_top" xlink:title="Executes a single&#45;step reinforcement learning experiment. ">
<polygon fill="none" stroke="#000000" points="567,-218.7984 567,-237.7984 675,-237.7984 675,-218.7984 567,-218.7984"/>
<text text-anchor="middle" x="621" y="-225.7984" font-family="Helvetica,sans-Serif" font-size="10.00" fill="#000000">xcs_single_step_exp</text>
</a>
</g>
</g>
<!-- Node253&#45;&gt;Node254 -->
<g id="edge10" class="edge">
<title>Node253&#45;&gt;Node254</title>
<path fill="none" stroke="#191970" d="M531.551,-228.2984C543.0539,-228.2984 555.2511,-228.2984 566.8166,-228.2984"/>
<polygon fill="#191970" stroke="#191970" points="531.2203,-224.7985 521.2202,-228.2984 531.2202,-231.7985 531.2203,-224.7985"/>
</g>
<!-- Node254&#45;&gt;Node249 -->
<g id="edge11" class="edge">
<title>Node254&#45;&gt;Node249</title>
<path fill="none" stroke="#191970" d="M685.5275,-232.7486C707.7805,-234.2833 731.0477,-235.8879 746.8059,-236.9747"/>
<polygon fill="#191970" stroke="#191970" points="685.6223,-229.2469 675.4052,-232.0505 685.1407,-236.2303 685.6223,-229.2469"/>
</g>
<!-- Node256 -->
<g id="node13" class="node">
<title>Node256</title>
<g id="a_node13"><a xlink:href="xcsf_8h.html#a40f4dfe69c6480f25c55d21c44746eb8" target="_top" xlink:title="Executes MAX_TRIALS number of XCSF learning iterations using the training. data and test iterations u...">
<polygon fill="none" stroke="#000000" points="452,-142.7984 452,-161.7984 506,-161.7984 506,-142.7984 452,-142.7984"/>
<text text-anchor="middle" x="479" y="-149.7984" font-family="Helvetica,sans-Serif" font-size="10.00" fill="#000000">xcsf_fit2</text>
</a>
</g>
</g>
<!-- Node255&#45;&gt;Node256 -->
<g id="edge13" class="edge">
<title>Node255&#45;&gt;Node256</title>
<path fill="none" stroke="#191970" d="M377.3394,-152.2984C400.8852,-152.2984 430.4858,-152.2984 451.6638,-152.2984"/>
<polygon fill="#191970" stroke="#191970" points="377.3311,-148.7985 367.3311,-152.2984 377.3311,-155.7985 377.3311,-148.7985"/>
</g>
<!-- Node260 -->
<g id="node17" class="node">
<title>Node260</title>
<g id="a_node17"><a xlink:href="xcsf_8h.html#a90b938e4ae2ef92284e8eabfcf4b7b7b" target="_top" xlink:title="Calculates the XCSF predictions for the provided input. ">
<polygon fill="none" stroke="#000000" points="444,-85.7984 444,-104.7984 514,-104.7984 514,-85.7984 444,-85.7984"/>
<text text-anchor="middle" x="479" y="-92.7984" font-family="Helvetica,sans-Serif" font-size="10.00" fill="#000000">xcsf_predict</text>
</a>
</g>
</g>
<!-- Node255&#45;&gt;Node260 -->
<g id="edge19" class="edge">
<title>Node255&#45;&gt;Node260</title>
<path fill="none" stroke="#191970" d="M375.7916,-139.1532C380.9171,-137.2353 386.1027,-135.2487 391,-133.2984 414.0362,-124.1249 440.0677,-112.757 457.8041,-104.8568"/>
<polygon fill="#191970" stroke="#191970" points="374.2705,-135.9838 366.1005,-142.7292 376.6938,-142.5509 374.2705,-135.9838"/>
</g>
<!-- Node262 -->
<g id="node19" class="node">
<title>Node262</title>
<g id="a_node19"><a xlink:href="xcsf_8h.html#a348b8cd321211c377fb1deedc62c7c67" target="_top" xlink:title="Calculates the XCSF error for the input data. ">
<polygon fill="none" stroke="#000000" points="446.5,-38.7984 446.5,-57.7984 511.5,-57.7984 511.5,-38.7984 446.5,-38.7984"/>
<text text-anchor="middle" x="479" y="-45.7984" font-family="Helvetica,sans-Serif" font-size="10.00" fill="#000000">xcsf_score</text>
</a>
</g>
</g>
<!-- Node255&#45;&gt;Node262 -->
<g id="edge22" class="edge">
<title>Node255&#45;&gt;Node262</title>
<path fill="none" stroke="#191970" d="M376.5503,-142.0029C381.7064,-139.6388 386.6988,-136.7688 391,-133.2984 414.3191,-114.4837 405.091,-96.7379 427,-76.2984 435.172,-68.6745 445.8122,-62.4667 455.3371,-57.8513"/>
<polygon fill="#191970" stroke="#191970" points="375.1964,-138.7748 367.2065,-145.7327 377.7915,-145.276 375.1964,-138.7748"/>
</g>
<!-- Node256&#45;&gt;Node249 -->
<g id="edge14" class="edge">
<title>Node256&#45;&gt;Node249</title>
<path fill="none" stroke="#191970" d="M515.7223,-162.6756C555.1672,-173.8927 619.6479,-192.4329 675,-209.2984 699.9026,-216.8861 728.4869,-226.0743 746.871,-232.0461"/>
<polygon fill="#191970" stroke="#191970" points="516.5888,-159.2833 506.013,-159.9187 514.6767,-166.0172 516.5888,-159.2833"/>
</g>
<!-- Node257 -->
<g id="node14" class="node">
<title>Node257</title>
<g id="a_node14"><a xlink:href="structXCS.html#a7d53320740db8e846251bacd0238a9fb" target="_top" xlink:title="XCS::fit">
<polygon fill="none" stroke="#000000" points="595,-104.7984 595,-123.7984 647,-123.7984 647,-104.7984 595,-104.7984"/>
<text text-anchor="middle" x="621" y="-111.7984" font-family="Helvetica,sans-Serif" font-size="10.00" fill="#000000">XCS::fit</text>
</a>
</g>
</g>
<!-- Node256&#45;&gt;Node257 -->
<g id="edge15" class="edge">
<title>Node256&#45;&gt;Node257</title>
<path fill="none" stroke="#191970" d="M515.7821,-142.4553C540.4487,-135.8544 572.3571,-127.3155 594.538,-121.3798"/>
<polygon fill="#191970" stroke="#191970" points="514.7986,-139.0953 506.0434,-145.0615 516.6083,-145.8573 514.7986,-139.0953"/>
</g>
<!-- Node258 -->
<g id="node15" class="node">
<title>Node258</title>
<g id="a_node15"><a xlink:href="xcsf_8h.html#afd4a983899f1980887b8375e40b32a72" target="_top" xlink:title="Executes MAX_TRIALS number of XCSF learning iterations using the training data. ">
<polygon fill="none" stroke="#000000" points="594,-142.7984 594,-161.7984 648,-161.7984 648,-142.7984 594,-142.7984"/>
<text text-anchor="middle" x="621" y="-149.7984" font-family="Helvetica,sans-Serif" font-size="10.00" fill="#000000">xcsf_fit1</text>
</a>
</g>
</g>
<!-- Node256&#45;&gt;Node258 -->
<g id="edge16" class="edge">
<title>Node256&#45;&gt;Node258</title>
<path fill="none" stroke="#191970" d="M516.3035,-152.2984C540.5403,-152.2984 571.5975,-152.2984 593.5737,-152.2984"/>
<polygon fill="#191970" stroke="#191970" points="516.0434,-148.7985 506.0434,-152.2984 516.0433,-155.7985 516.0434,-148.7985"/>
</g>
<!-- Node259 -->
<g id="node16" class="node">
<title>Node259</title>
<g id="a_node16"><a xlink:href="structXCS.html#ad2ccafe59d2b4ae6d0e1cbc15edee53c" target="_top" xlink:title="XCS::fit">
<polygon fill="none" stroke="#000000" points="740,-142.7984 740,-161.7984 792,-161.7984 792,-142.7984 740,-142.7984"/>
<text text-anchor="middle" x="766" y="-149.7984" font-family="Helvetica,sans-Serif" font-size="10.00" fill="#000000">XCS::fit</text>
</a>
</g>
</g>
<!-- Node258&#45;&gt;Node259 -->
<g id="edge17" class="edge">
<title>Node258&#45;&gt;Node259</title>
<path fill="none" stroke="#191970" d="M658.3422,-152.2984C683.8746,-152.2984 717.0827,-152.2984 739.8256,-152.2984"/>
<polygon fill="#191970" stroke="#191970" points="658.2734,-148.7985 648.2734,-152.2984 658.2734,-155.7985 658.2734,-148.7985"/>
</g>
<!-- Node259&#45;&gt;Node252 -->
<g id="edge18" class="edge">
<title>Node259&#45;&gt;Node252</title>
<path fill="none" stroke="#191970" d="M802.4003,-148.0813C818.5152,-146.2144 838.0749,-143.9483 856.9889,-141.757"/>
<polygon fill="#191970" stroke="#191970" points="801.8802,-144.6181 792.3494,-149.2458 802.6858,-151.5716 801.8802,-144.6181"/>
</g>
<!-- Node261 -->
<g id="node18" class="node">
<title>Node261</title>
<g id="a_node18"><a xlink:href="structXCS.html#a911ed75c86abed7807d33eb1385240ed" target="_top" xlink:title="XCS::predict">
<polygon fill="none" stroke="#000000" points="729.5,-85.7984 729.5,-104.7984 802.5,-104.7984 802.5,-85.7984 729.5,-85.7984"/>
<text text-anchor="middle" x="766" y="-92.7984" font-family="Helvetica,sans-Serif" font-size="10.00" fill="#000000">XCS::predict</text>
</a>
</g>
</g>
<!-- Node260&#45;&gt;Node261 -->
<g id="edge20" class="edge">
<title>Node260&#45;&gt;Node261</title>
<path fill="none" stroke="#191970" d="M524.2913,-95.2984C580.928,-95.2984 676.795,-95.2984 729.1588,-95.2984"/>
<polygon fill="#191970" stroke="#191970" points="524.1919,-91.7985 514.1918,-95.2984 524.1918,-98.7985 524.1919,-91.7985"/>
</g>
<!-- Node261&#45;&gt;Node252 -->
<g id="edge21" class="edge">
<title>Node261&#45;&gt;Node252</title>
<path fill="none" stroke="#191970" d="M812.7709,-106.1356C836.8116,-111.706 865.8406,-118.4322 888.9968,-123.7977"/>
<polygon fill="#191970" stroke="#191970" points="813.3368,-102.6741 802.8048,-103.8264 811.7566,-109.4934 813.3368,-102.6741"/>
</g>
<!-- Node263 -->
<g id="node20" class="node">
<title>Node263</title>
<g id="a_node20"><a xlink:href="structXCS.html#aa77bc77484d6d14bf512304a23cfec88" target="_top" xlink:title="XCS::score">
<polygon fill="none" stroke="#000000" points="732,-47.7984 732,-66.7984 800,-66.7984 800,-47.7984 732,-47.7984"/>
<text text-anchor="middle" x="766" y="-54.7984" font-family="Helvetica,sans-Serif" font-size="10.00" fill="#000000">XCS::score</text>
</a>
</g>
</g>
<!-- Node262&#45;&gt;Node263 -->
<g id="edge23" class="edge">
<title>Node262&#45;&gt;Node263</title>
<path fill="none" stroke="#191970" d="M521.7934,-49.6404C578.9456,-51.4326 679.0748,-54.5726 731.6061,-56.2199"/>
<polygon fill="#191970" stroke="#191970" points="521.7479,-46.1373 511.6431,-49.3221 521.5285,-53.1339 521.7479,-46.1373"/>
</g>
<!-- Node263&#45;&gt;Node252 -->
<g id="edge24" class="edge">
<title>Node263&#45;&gt;Node252</title>
<path fill="none" stroke="#191970" d="M805.9849,-70.3238C811.0832,-72.2143 816.1952,-74.226 821,-76.2984 854.7267,-90.8459 892.3375,-111.5759 913.3884,-123.6137"/>
<polygon fill="#191970" stroke="#191970" points="806.8766,-66.9256 796.282,-66.8531 804.519,-73.5167 806.8766,-66.9256"/>
</g>
<!-- Node264&#45;&gt;Node249 -->
<g id="edge26" class="edge">
<title>Node264&#45;&gt;Node249</title>
<path fill="none" stroke="#191970" d="M660.0644,-291.2781C665.1312,-289.3781 670.2182,-287.3628 675,-285.2984 701.6099,-273.8108 731.2261,-257.8977 749.2324,-247.8518"/>
<polygon fill="#191970" stroke="#191970" points="658.6384,-288.0721 650.431,-294.772 661.0252,-294.6526 658.6384,-288.0721"/>
</g>
<!-- Node264&#45;&gt;Node259 -->
<g id="edge29" class="edge">
<title>Node264&#45;&gt;Node259</title>
<path fill="none" stroke="#191970" d="M668.6117,-289.9413C670.8655,-288.5323 673.0129,-286.9888 675,-285.2984 700.4504,-263.6484 692.3173,-247.0004 711,-219.2984 725.6414,-197.5887 745.7883,-174.4383 757.1927,-161.835"/>
<polygon fill="#191970" stroke="#191970" points="666.7232,-286.98 659.5043,-294.7349 669.9836,-293.1743 666.7232,-286.98"/>
</g>
<!-- Node265 -->
<g id="node22" class="node">
<title>Node265</title>
<g id="a_node22"><a xlink:href="structXCS.html#ab58a4fb495b05f3450b182bc21dcba1f" target="_top" xlink:title="XCS::single_reset">
<polygon fill="none" stroke="#000000" points="718,-285.7984 718,-304.7984 814,-304.7984 814,-285.7984 718,-285.7984"/>
<text text-anchor="middle" x="766" y="-292.7984" font-family="Helvetica,sans-Serif" font-size="10.00" fill="#000000">XCS::single_reset</text>
</a>
</g>
</g>
<!-- Node264&#45;&gt;Node265 -->
<g id="edge27" class="edge">
<title>Node264&#45;&gt;Node265</title>
<path fill="none" stroke="#191970" d="M670.2381,-301.2423C685.6517,-300.2856 702.6344,-299.2315 717.9641,-298.28"/>
<polygon fill="#191970" stroke="#191970" points="669.6213,-297.7737 659.8573,-301.8866 670.055,-304.7603 669.6213,-297.7737"/>
</g>
<!-- Node265&#45;&gt;Node252 -->
<g id="edge28" class="edge">
<title>Node265&#45;&gt;Node252</title>
<path fill="none" stroke="#191970" d="M790.7267,-280.0882C800.553,-273.5743 811.7062,-265.5679 821,-257.2984 863.8264,-219.1921 906.2649,-164.9433 922.7824,-143.0329"/>
<polygon fill="#191970" stroke="#191970" points="788.6692,-277.2505 782.167,-285.6155 792.4665,-283.131 788.6692,-277.2505"/>
</g>
<!-- Node266&#45;&gt;Node247 -->
<g id="edge31" class="edge">
<title>Node266&#45;&gt;Node247</title>
<path fill="none" stroke="#191970" d="M240.6262,-190.2984C257.2914,-190.2984 279.6835,-190.2984 298.8941,-190.2984"/>
<polygon fill="#191970" stroke="#191970" points="240.5928,-186.7985 230.5927,-190.2984 240.5927,-193.7985 240.5928,-186.7985"/>
</g>
<!-- Node266&#45;&gt;Node255 -->
<g id="edge36" class="edge">
<title>Node266&#45;&gt;Node255</title>
<path fill="none" stroke="#191970" d="M240.3389,-182.7791C260.6496,-176.5043 289.6115,-167.5567 310.9042,-160.9784"/>
<polygon fill="#191970" stroke="#191970" points="239.114,-179.4942 230.5927,-185.7901 241.1803,-186.1823 239.114,-179.4942"/>
</g>
<!-- Node267 -->
<g id="node24" class="node">
<title>Node267</title>
<g id="a_node24"><a xlink:href="xcs__single__step_8h.html#afd31e5406eeef1fb9b244f635a0f0408" target="_top" xlink:title="Creates the action set, updates the classifiers and runs the EA. ">
<polygon fill="none" stroke="#000000" points="290,-218.7984 290,-237.7984 388,-237.7984 388,-218.7984 290,-218.7984"/>
<text text-anchor="middle" x="339" y="-225.7984" font-family="Helvetica,sans-Serif" font-size="10.00" fill="#000000">xcs_single_update</text>
</a>
</g>
</g>
<!-- Node266&#45;&gt;Node267 -->
<g id="edge32" class="edge">
<title>Node266&#45;&gt;Node267</title>
<path fill="none" stroke="#191970" d="M240.1966,-197.7738C259.5927,-203.7661 286.9449,-212.2164 307.9545,-218.7071"/>
<polygon fill="#191970" stroke="#191970" points="241.1803,-194.4146 230.5927,-194.8068 239.114,-201.1027 241.1803,-194.4146"/>
</g>
<!-- Node267&#45;&gt;Node253 -->
<g id="edge35" class="edge">
<title>Node267&#45;&gt;Node253</title>
<path fill="none" stroke="#191970" d="M398.4928,-228.2984C411.2995,-228.2984 424.5863,-228.2984 436.5857,-228.2984"/>
<polygon fill="#191970" stroke="#191970" points="398.3588,-224.7985 388.3588,-228.2984 398.3587,-231.7985 398.3588,-224.7985"/>
</g>
<!-- Node268 -->
<g id="node25" class="node">
<title>Node268</title>
<g id="a_node25"><a xlink:href="structXCS.html#aedc01ad6f00a54b260a7605929a1d4c9" target="_top" xlink:title="XCS::single_update">
<polygon fill="none" stroke="#000000" points="427,-332.7984 427,-351.7984 531,-351.7984 531,-332.7984 427,-332.7984"/>
<text text-anchor="middle" x="479" y="-339.7984" font-family="Helvetica,sans-Serif" font-size="10.00" fill="#000000">XCS::single_update</text>
</a>
</g>
</g>
<!-- Node267&#45;&gt;Node268 -->
<g id="edge33" class="edge">
<title>Node267&#45;&gt;Node268</title>
<path fill="none" stroke="#191970" d="M358.904,-244.506C388.4604,-268.5733 443.0459,-313.0215 467.0939,-332.6035"/>
<polygon fill="#191970" stroke="#191970" points="360.9007,-241.6183 350.9363,-238.018 356.4807,-247.0463 360.9007,-241.6183"/>
</g>
<!-- Node268&#45;&gt;Node252 -->
<g id="edge34" class="edge">
<title>Node268&#45;&gt;Node252</title>
<path fill="none" stroke="#191970" d="M540.9432,-353.175C613.7328,-362.5701 735.4195,-367.3851 821,-314.2984 887.707,-272.9193 919.0565,-174.2396 927.5475,-142.9742"/>
<polygon fill="#191970" stroke="#191970" points="541.3859,-349.7031 531.0056,-351.8245 540.4431,-356.6393 541.3859,-349.7031"/>
</g>
</g>
</svg>
