<?xml version="1.0" encoding="UTF-8" standalone="no"?>
<!DOCTYPE svg PUBLIC "-//W3C//DTD SVG 1.1//EN"
 "http://www.w3.org/Graphics/SVG/1.1/DTD/svg11.dtd">
<!-- Generated by graphviz version 2.40.1 (20161225.0304)
 -->
<!-- Title: cl.c Pages: 1 -->
<svg width="732pt" height="84pt"
 viewBox="0.00 0.00 732.00 84.00" xmlns="http://www.w3.org/2000/svg" xmlns:xlink="http://www.w3.org/1999/xlink">
<g id="graph0" class="graph" transform="scale(1 1) rotate(0) translate(4 80)">
<title>cl.c</title>
<!-- Node0 -->
<g id="node1" class="node">
<title>Node0</title>
<polygon fill="#bfbfbf" stroke="#000000" points="338,-56.5 338,-75.5 370,-75.5 370,-56.5 338,-56.5"/>
<text text-anchor="middle" x="354" y="-63.5" font-family="Helvetica,sans-Serif" font-size="10.00" fill="#000000">cl.c</text>
</g>
<!-- Node1 -->
<g id="node2" class="node">
<title>Node1</title>
<polygon fill="none" stroke="#bfbfbf" points="0,-.5 0,-19.5 46,-19.5 46,-.5 0,-.5"/>
<text text-anchor="middle" x="23" y="-7.5" font-family="Helvetica,sans-Serif" font-size="10.00" fill="#000000">stdio.h</text>
</g>
<!-- Node0&#45;&gt;Node1 -->
<g id="edge1" class="edge">
<title>Node0&#45;&gt;Node1</title>
<path fill="none" stroke="#191970" d="M337.9563,-64.3905C294.1993,-59.8224 169.0417,-45.5658 56.1452,-19.993"/>
<polygon fill="#191970" stroke="#191970" points="56.8377,-16.5609 46.3074,-17.7281 55.2672,-23.3825 56.8377,-16.5609"/>
</g>
<!-- Node2 -->
<g id="node3" class="node">
<title>Node2</title>
<polygon fill="none" stroke="#bfbfbf" points="64,-.5 64,-19.5 112,-19.5 112,-.5 64,-.5"/>
<text text-anchor="middle" x="88" y="-7.5" font-family="Helvetica,sans-Serif" font-size="10.00" fill="#000000">stdlib.h</text>
</g>
<!-- Node0&#45;&gt;Node2 -->
<g id="edge2" class="edge">
<title>Node0&#45;&gt;Node2</title>
<path fill="none" stroke="#191970" d="M337.7763,-63.3686C301.0521,-57.2926 208.6188,-41.3289 121.8095,-20.0159"/>
<polygon fill="#191970" stroke="#191970" points="122.6226,-16.6115 112.0737,-17.5966 120.9345,-23.405 122.6226,-16.6115"/>
</g>
<!-- Node3 -->
<g id="node4" class="node">
<title>Node3</title>
<polygon fill="none" stroke="#bfbfbf" points="130,-.5 130,-19.5 186,-19.5 186,-.5 130,-.5"/>
<text text-anchor="middle" x="158" y="-7.5" font-family="Helvetica,sans-Serif" font-size="10.00" fill="#000000">stdbool.h</text>
</g>
<!-- Node0&#45;&gt;Node3 -->
<g id="edge3" class="edge">
<title>Node0&#45;&gt;Node3</title>
<path fill="none" stroke="#191970" d="M337.9605,-61.4173C307.1511,-52.6146 238.9402,-33.1258 195.9074,-20.8307"/>
<polygon fill="#191970" stroke="#191970" points="196.6523,-17.4035 186.0755,-18.0216 194.7292,-24.1342 196.6523,-17.4035"/>
</g>
<!-- Node4 -->
<g id="node5" class="node">
<title>Node4</title>
<polygon fill="none" stroke="#bfbfbf" points="204.5,-.5 204.5,-19.5 251.5,-19.5 251.5,-.5 204.5,-.5"/>
<text text-anchor="middle" x="228" y="-7.5" font-family="Helvetica,sans-Serif" font-size="10.00" fill="#000000">math.h</text>
</g>
<!-- Node0&#45;&gt;Node4 -->
<g id="edge4" class="edge">
<title>Node0&#45;&gt;Node4</title>
<path fill="none" stroke="#191970" d="M337.7857,-58.7936C317.9528,-49.979 283.9483,-34.8659 259.0267,-23.7896"/>
<polygon fill="#191970" stroke="#191970" points="260.1963,-20.4794 249.6367,-19.6163 257.3533,-26.8761 260.1963,-20.4794"/>
</g>
<!-- Node5 -->
<g id="node6" class="node">
<title>Node5</title>
<g id="a_node6"><a xlink:href="xcsf_8h.html" target="_top" xlink:title="XCSF data structures. ">
<polygon fill="none" stroke="#000000" points="270,-.5 270,-19.5 314,-19.5 314,-.5 270,-.5"/>
<text text-anchor="middle" x="292" y="-7.5" font-family="Helvetica,sans-Serif" font-size="10.00" fill="#000000">xcsf.h</text>
</a>
</g>
</g>
<!-- Node0&#45;&gt;Node5 -->
<g id="edge5" class="edge">
<title>Node0&#45;&gt;Node5</title>
<path fill="none" stroke="#191970" d="M343.2004,-56.2455C334.1322,-48.0549 320.9794,-36.1749 310.2755,-26.5069"/>
<polygon fill="#191970" stroke="#191970" points="312.4429,-23.7482 302.6758,-19.6427 307.7509,-28.9429 312.4429,-23.7482"/>
</g>
<!-- Node6 -->
<g id="node7" class="node">
<title>Node6</title>
<g id="a_node7"><a xlink:href="utils_8h.html" target="_top" xlink:title="Utility functions for random number handling, etc. ">
<polygon fill="none" stroke="#000000" points="332.5,-.5 332.5,-19.5 375.5,-19.5 375.5,-.5 332.5,-.5"/>
<text text-anchor="middle" x="354" y="-7.5" font-family="Helvetica,sans-Serif" font-size="10.00" fill="#000000">utils.h</text>
</a>
</g>
</g>
<!-- Node0&#45;&gt;Node6 -->
<g id="edge6" class="edge">
<title>Node0&#45;&gt;Node6</title>
<path fill="none" stroke="#191970" d="M354,-56.2455C354,-48.9382 354,-38.6944 354,-29.7046"/>
<polygon fill="#191970" stroke="#191970" points="357.5001,-29.6426 354,-19.6427 350.5001,-29.6427 357.5001,-29.6426"/>
</g>
<!-- Node7 -->
<g id="node8" class="node">
<title>Node7</title>
<g id="a_node8"><a xlink:href="loss_8h.html" target="_top" xlink:title="Loss functions for calculating prediction error. ">
<polygon fill="none" stroke="#000000" points="393.5,-.5 393.5,-19.5 436.5,-19.5 436.5,-.5 393.5,-.5"/>
<text text-anchor="middle" x="415" y="-7.5" font-family="Helvetica,sans-Serif" font-size="10.00" fill="#000000">loss.h</text>
</a>
</g>
</g>
<!-- Node0&#45;&gt;Node7 -->
<g id="edge7" class="edge">
<title>Node0&#45;&gt;Node7</title>
<path fill="none" stroke="#191970" d="M364.6254,-56.2455C373.5473,-48.0549 386.488,-36.1749 397.0192,-26.5069"/>
<polygon fill="#191970" stroke="#191970" points="399.4968,-28.9837 404.4964,-19.6427 394.7629,-23.8271 399.4968,-28.9837"/>
</g>
<!-- Node8 -->
<g id="node9" class="node">
<title>Node8</title>
<g id="a_node9"><a xlink:href="condition_8h.html" target="_top" xlink:title="Interface for classifier conditions. ">
<polygon fill="none" stroke="#000000" points="455,-.5 455,-19.5 519,-19.5 519,-.5 455,-.5"/>
<text text-anchor="middle" x="487" y="-7.5" font-family="Helvetica,sans-Serif" font-size="10.00" fill="#000000">condition.h</text>
</a>
</g>
</g>
<!-- Node0&#45;&gt;Node8 -->
<g id="edge8" class="edge">
<title>Node0&#45;&gt;Node8</title>
<path fill="none" stroke="#191970" d="M370.0429,-59.2451C390.9641,-50.4362 428.0489,-34.8215 454.8599,-23.5327"/>
<polygon fill="#191970" stroke="#191970" points="456.3658,-26.6963 464.2239,-19.5899 453.6493,-20.2448 456.3658,-26.6963"/>
</g>
<!-- Node9 -->
<g id="node10" class="node">
<title>Node9</title>
<g id="a_node10"><a xlink:href="prediction_8h.html" target="_top" xlink:title="Interface for classifier predictions. ">
<polygon fill="none" stroke="#000000" points="537.5,-.5 537.5,-19.5 604.5,-19.5 604.5,-.5 537.5,-.5"/>
<text text-anchor="middle" x="571" y="-7.5" font-family="Helvetica,sans-Serif" font-size="10.00" fill="#000000">prediction.h</text>
</a>
</g>
</g>
<!-- Node0&#45;&gt;Node9 -->
<g id="edge9" class="edge">
<title>Node0&#45;&gt;Node9</title>
<path fill="none" stroke="#191970" d="M370.3103,-61.7909C403.3457,-53.2656 479.1288,-33.7087 527.5374,-21.2162"/>
<polygon fill="#191970" stroke="#191970" points="528.6184,-24.5519 537.4265,-18.6641 526.8692,-17.774 528.6184,-24.5519"/>
</g>
<!-- Node10 -->
<g id="node11" class="node">
<title>Node10</title>
<g id="a_node11"><a xlink:href="action_8h.html" target="_top" xlink:title="Interface for classifier actions. ">
<polygon fill="none" stroke="#000000" points="622.5,-.5 622.5,-19.5 673.5,-19.5 673.5,-.5 622.5,-.5"/>
<text text-anchor="middle" x="648" y="-7.5" font-family="Helvetica,sans-Serif" font-size="10.00" fill="#000000">action.h</text>
</a>
</g>
</g>
<!-- Node0&#45;&gt;Node10 -->
<g id="edge10" class="edge">
<title>Node0&#45;&gt;Node10</title>
<path fill="none" stroke="#191970" d="M370.253,-63.7653C410.0034,-58.166 515.4202,-42.5114 612.4924,-20.1673"/>
<polygon fill="#191970" stroke="#191970" points="613.5179,-23.5221 622.4612,-17.8416 611.9275,-16.7051 613.5179,-23.5221"/>
</g>
<!-- Node11 -->
<g id="node12" class="node">
<title>Node11</title>
<g id="a_node12"><a xlink:href="cl_8h.html" target="_top" xlink:title="Functions operating on classifiers. ">
<polygon fill="none" stroke="#000000" points="692,-.5 692,-19.5 724,-19.5 724,-.5 692,-.5"/>
<text text-anchor="middle" x="708" y="-7.5" font-family="Helvetica,sans-Serif" font-size="10.00" fill="#000000">cl.h</text>
</a>
</g>
</g>
<!-- Node0&#45;&gt;Node11 -->
<g id="edge11" class="edge">
<title>Node0&#45;&gt;Node11</title>
<path fill="none" stroke="#191970" d="M370.0213,-65.1325C416.8818,-62.3124 557.694,-51.8243 681.7461,-19.7912"/>
<polygon fill="#191970" stroke="#191970" points="683.0101,-23.0775 691.7855,-17.141 681.2234,-16.3093 683.0101,-23.0775"/>
</g>
</g>
</svg>
