<?xml version="1.0" encoding="UTF-8" standalone="no"?>
<!DOCTYPE svg PUBLIC "-//W3C//DTD SVG 1.1//EN"
 "http://www.w3.org/Graphics/SVG/1.1/DTD/svg11.dtd">
<!-- Generated by graphviz version 2.40.1 (20161225.0304)
 -->
<!-- Title: cl_mfrac Pages: 1 -->
<svg width="847pt" height="294pt"
 viewBox="0.00 0.00 847.00 294.00" xmlns="http://www.w3.org/2000/svg" xmlns:xlink="http://www.w3.org/1999/xlink">
<g id="graph0" class="graph" transform="scale(1 1) rotate(0) translate(4 290)">
<title>cl_mfrac</title>
<!-- Node296 -->
<g id="node1" class="node">
<title>Node296</title>
<polygon fill="#bfbfbf" stroke="#000000" points="0,-178.5 0,-197.5 54,-197.5 54,-178.5 0,-178.5"/>
<text text-anchor="middle" x="27" y="-185.5" font-family="Helvetica,sans-Serif" font-size="10.00" fill="#000000">cl_mfrac</text>
</g>
<!-- Node297 -->
<g id="node2" class="node">
<title>Node297</title>
<g id="a_node2"><a xlink:href="cl_8h.html#ae72baabb74be8c1a8eca64eacb1941d1" target="_top" xlink:title="Prints the classifier. ">
<polygon fill="none" stroke="#000000" points="100,-206.5 100,-225.5 148,-225.5 148,-206.5 100,-206.5"/>
<text text-anchor="middle" x="124" y="-213.5" font-family="Helvetica,sans-Serif" font-size="10.00" fill="#000000">cl_print</text>
</a>
</g>
</g>
<!-- Node296&#45;&gt;Node297 -->
<g id="edge1" class="edge">
<title>Node296&#45;&gt;Node297</title>
<path fill="none" stroke="#191970" d="M63.8185,-198.628C75.8531,-202.1019 88.9079,-205.8703 99.773,-209.0066"/>
<polygon fill="#191970" stroke="#191970" points="64.5983,-195.2103 54.0199,-195.7996 62.6569,-201.9357 64.5983,-195.2103"/>
</g>
<!-- Node302 -->
<g id="node7" class="node">
<title>Node302</title>
<g id="a_node7"><a xlink:href="clset_8h.html#ab6ceafb49b749c1e063e83b31945bceb" target="_top" xlink:title="Returns the fraction of inputs matched by the most general rule with error below EPS_0. If no rules below EPS_0, the lowest error rule is used. ">
<polygon fill="none" stroke="#000000" points="90,-159.5 90,-178.5 158,-178.5 158,-159.5 90,-159.5"/>
<text text-anchor="middle" x="124" y="-166.5" font-family="Helvetica,sans-Serif" font-size="10.00" fill="#000000">clset_mfrac</text>
</a>
</g>
</g>
<!-- Node296&#45;&gt;Node302 -->
<g id="edge6" class="edge">
<title>Node296&#45;&gt;Node302</title>
<path fill="none" stroke="#191970" d="M64.0414,-180.7445C72.5205,-179.0836 81.4951,-177.3257 89.8462,-175.6899"/>
<polygon fill="#191970" stroke="#191970" points="63.1606,-177.3504 54.0199,-182.7074 64.5062,-184.2199 63.1606,-177.3504"/>
</g>
<!-- Node298 -->
<g id="node3" class="node">
<title>Node298</title>
<g id="a_node3"><a xlink:href="clset_8h.html#af735b50009ce40e991d187e2c57033d4" target="_top" xlink:title="Prints the classifiers in the set. ">
<polygon fill="none" stroke="#000000" points="198,-211.5 198,-230.5 260,-230.5 260,-211.5 198,-211.5"/>
<text text-anchor="middle" x="229" y="-218.5" font-family="Helvetica,sans-Serif" font-size="10.00" fill="#000000">clset_print</text>
</a>
</g>
</g>
<!-- Node297&#45;&gt;Node298 -->
<g id="edge2" class="edge">
<title>Node297&#45;&gt;Node298</title>
<path fill="none" stroke="#191970" d="M158.3227,-217.6344C171.0538,-218.2407 185.412,-218.9244 197.8451,-219.5164"/>
<polygon fill="#191970" stroke="#191970" points="158.2443,-214.1268 148.0891,-217.1471 157.9113,-221.1189 158.2443,-214.1268"/>
</g>
<!-- Node299 -->
<g id="node4" class="node">
<title>Node299</title>
<g id="a_node4"><a xlink:href="xcsf_8h.html#a84d6ba23771186ab252b9120f87f9eac" target="_top" xlink:title="Prints the current XCSF population. ">
<polygon fill="none" stroke="#000000" points="313,-237.5 313,-256.5 393,-256.5 393,-237.5 313,-237.5"/>
<text text-anchor="middle" x="353" y="-244.5" font-family="Helvetica,sans-Serif" font-size="10.00" fill="#000000">xcsf_print_pop</text>
</a>
</g>
</g>
<!-- Node298&#45;&gt;Node299 -->
<g id="edge3" class="edge">
<title>Node298&#45;&gt;Node299</title>
<path fill="none" stroke="#191970" d="M270.3927,-229.6791C284.0545,-232.5437 299.2226,-235.7241 312.7943,-238.5698"/>
<polygon fill="#191970" stroke="#191970" points="270.7959,-226.1876 260.2904,-227.5609 269.3593,-233.0386 270.7959,-226.1876"/>
</g>
<!-- Node300 -->
<g id="node5" class="node">
<title>Node300</title>
<g id="a_node5"><a xlink:href="classXCS.html#a17153434b6e3310591eafb94e81cda9a" target="_top" xlink:title="XCS::print_pop">
<polygon fill="none" stroke="#000000" points="609.5,-266.5 609.5,-285.5 692.5,-285.5 692.5,-266.5 609.5,-266.5"/>
<text text-anchor="middle" x="651" y="-273.5" font-family="Helvetica,sans-Serif" font-size="10.00" fill="#000000">XCS::print_pop</text>
</a>
</g>
</g>
<!-- Node299&#45;&gt;Node300 -->
<g id="edge4" class="edge">
<title>Node299&#45;&gt;Node300</title>
<path fill="none" stroke="#191970" d="M403.591,-252.8729C416.1365,-254.2773 429.5523,-255.735 442,-257 499.9963,-262.8937 567.1378,-268.8422 609.3383,-272.4747"/>
<polygon fill="#191970" stroke="#191970" points="403.6273,-249.3548 393.2978,-251.7112 402.8422,-256.3107 403.6273,-249.3548"/>
</g>
<!-- Node301 -->
<g id="node6" class="node">
<title>Node301</title>
<g id="a_node6"><a xlink:href="pybind__wrapper_8cpp.html#a9f26280e01308c4674f2473fb6f78730" target="_top" xlink:title="pybind11_init_xcsf">
<polygon fill="none" stroke="#000000" points="741,-190.5 741,-209.5 839,-209.5 839,-190.5 741,-190.5"/>
<text text-anchor="middle" x="790" y="-197.5" font-family="Helvetica,sans-Serif" font-size="10.00" fill="#000000">pybind11_init_xcsf</text>
</a>
</g>
</g>
<!-- Node300&#45;&gt;Node301 -->
<g id="edge5" class="edge">
<title>Node300&#45;&gt;Node301</title>
<path fill="none" stroke="#191970" d="M692.0731,-262.7835C696.5034,-260.9945 700.8906,-259.0592 705,-257 732.64,-243.1499 761.9748,-221.7947 777.9315,-209.535"/>
<polygon fill="#191970" stroke="#191970" points="690.5029,-259.6358 682.3963,-266.4573 692.9875,-266.18 690.5029,-259.6358"/>
</g>
<!-- Node303 -->
<g id="node8" class="node">
<title>Node303</title>
<g id="a_node8"><a xlink:href="clset_8h.html#a229207544a5b8b601de05d231bb84650" target="_top" xlink:title="Constructs the match set. ">
<polygon fill="none" stroke="#000000" points="194,-140.5 194,-159.5 264,-159.5 264,-140.5 194,-140.5"/>
<text text-anchor="middle" x="229" y="-147.5" font-family="Helvetica,sans-Serif" font-size="10.00" fill="#000000">clset_match</text>
</a>
</g>
</g>
<!-- Node302&#45;&gt;Node303 -->
<g id="edge7" class="edge">
<title>Node302&#45;&gt;Node303</title>
<path fill="none" stroke="#191970" d="M167.947,-161.0477C176.5137,-159.4975 185.3927,-157.8908 193.6382,-156.3988"/>
<polygon fill="#191970" stroke="#191970" points="167.3074,-157.6065 158.0905,-162.8312 168.5539,-164.4946 167.3074,-157.6065"/>
</g>
<!-- Node304 -->
<g id="node9" class="node">
<title>Node304</title>
<g id="a_node9"><a xlink:href="xcs__multi__step_8h.html#af2eaa15cba52d29fa3630218d9780a6a" target="_top" xlink:title="Constructs the match set and selects an action to perform. ">
<polygon fill="none" stroke="#000000" points="303,-57.5 303,-76.5 403,-76.5 403,-57.5 303,-57.5"/>
<text text-anchor="middle" x="353" y="-64.5" font-family="Helvetica,sans-Serif" font-size="10.00" fill="#000000">xcs_multi_decision</text>
</a>
</g>
</g>
<!-- Node303&#45;&gt;Node304 -->
<g id="edge8" class="edge">
<title>Node303&#45;&gt;Node304</title>
<path fill="none" stroke="#191970" d="M251.8237,-134.7228C277.1474,-117.7723 317.2422,-90.9346 338.5596,-76.6658"/>
<polygon fill="#191970" stroke="#191970" points="249.5877,-132.0078 243.2244,-140.4788 253.4814,-137.8249 249.5877,-132.0078"/>
</g>
<!-- Node308 -->
<g id="node13" class="node">
<title>Node308</title>
<g id="a_node13"><a xlink:href="xcs__single__step_8h.html#a5c1d53976f601ae3603aed34f0767c29" target="_top" xlink:title="Constructs the match set and selects an action to perform. ">
<polygon fill="none" stroke="#000000" points="301,-114.5 301,-133.5 405,-133.5 405,-114.5 301,-114.5"/>
<text text-anchor="middle" x="353" y="-121.5" font-family="Helvetica,sans-Serif" font-size="10.00" fill="#000000">xcs_single_decision</text>
</a>
</g>
</g>
<!-- Node303&#45;&gt;Node308 -->
<g id="edge12" class="edge">
<title>Node303&#45;&gt;Node308</title>
<path fill="none" stroke="#191970" d="M274.3017,-140.5013C285.1199,-138.2329 296.671,-135.8109 307.4981,-133.5407"/>
<polygon fill="#191970" stroke="#191970" points="273.2706,-137.1413 264.2017,-142.619 274.7072,-143.9923 273.2706,-137.1413"/>
</g>
<!-- Node312 -->
<g id="node17" class="node">
<title>Node312</title>
<g id="a_node17"><a xlink:href="xcs__supervised_8c.html#ad48f3f1110cd2295710b91192dc80b31" target="_top" xlink:title="Executes a single XCSF trial. ">
<polygon fill="none" stroke="#000000" points="300,-171.5 300,-190.5 406,-190.5 406,-171.5 300,-171.5"/>
<text text-anchor="middle" x="353" y="-178.5" font-family="Helvetica,sans-Serif" font-size="10.00" fill="#000000">xcs_supervised_trial</text>
</a>
</g>
</g>
<!-- Node303&#45;&gt;Node312 -->
<g id="edge18" class="edge">
<title>Node303&#45;&gt;Node312</title>
<path fill="none" stroke="#191970" d="M274.1096,-161.2774C287.411,-164.6027 301.8352,-168.2088 314.6677,-171.4169"/>
<polygon fill="#191970" stroke="#191970" points="274.7521,-157.8304 264.2017,-158.8004 273.0543,-164.6214 274.7521,-157.8304"/>
</g>
<!-- Node305 -->
<g id="node10" class="node">
<title>Node305</title>
<g id="a_node10"><a xlink:href="xcs__multi__step_8c.html#ad50c415970b4bfc42f469fb38c5e68fa" target="_top" xlink:title="Executes a multi&#45;step trial using a built&#45;in environment. ">
<polygon fill="none" stroke="#000000" points="461.5,-19.5 461.5,-38.5 541.5,-38.5 541.5,-19.5 461.5,-19.5"/>
<text text-anchor="middle" x="501.5" y="-26.5" font-family="Helvetica,sans-Serif" font-size="10.00" fill="#000000">xcs_multi_trial</text>
</a>
</g>
</g>
<!-- Node304&#45;&gt;Node305 -->
<g id="edge9" class="edge">
<title>Node304&#45;&gt;Node305</title>
<path fill="none" stroke="#191970" d="M400.3329,-54.8879C421.0146,-49.5956 444.9188,-43.4787 464.2966,-38.5201"/>
<polygon fill="#191970" stroke="#191970" points="399.293,-51.5411 390.4728,-57.411 401.0284,-58.3226 399.293,-51.5411"/>
</g>
<!-- Node306 -->
<g id="node11" class="node">
<title>Node306</title>
<g id="a_node11"><a xlink:href="xcs__multi__step_8h.html#acc29d4a55dbd56c16ea5f19f15a7c677" target="_top" xlink:title="Executes a multi&#45;step reinforcement learning experiment. ">
<polygon fill="none" stroke="#000000" points="599,-.5 599,-19.5 703,-19.5 703,-.5 599,-.5"/>
<text text-anchor="middle" x="651" y="-7.5" font-family="Helvetica,sans-Serif" font-size="10.00" fill="#000000">xcs_multi_step_exp</text>
</a>
</g>
</g>
<!-- Node305&#45;&gt;Node306 -->
<g id="edge10" class="edge">
<title>Node305&#45;&gt;Node306</title>
<path fill="none" stroke="#191970" d="M551.8017,-22.6071C566.9917,-20.6766 583.6954,-18.5538 598.9941,-16.6094"/>
<polygon fill="#191970" stroke="#191970" points="551.0422,-19.1754 541.5633,-23.9083 551.9248,-26.1196 551.0422,-19.1754"/>
</g>
<!-- Node307 -->
<g id="node12" class="node">
<title>Node307</title>
<g id="a_node12"><a xlink:href="main_8c.html#a3c04138a5bfe5d72780bb7e82a18e627" target="_top" xlink:title="main">
<polygon fill="none" stroke="#000000" points="771,-38.5 771,-57.5 809,-57.5 809,-38.5 771,-38.5"/>
<text text-anchor="middle" x="790" y="-45.5" font-family="Helvetica,sans-Serif" font-size="10.00" fill="#000000">main</text>
</a>
</g>
</g>
<!-- Node306&#45;&gt;Node307 -->
<g id="edge11" class="edge">
<title>Node306&#45;&gt;Node307</title>
<path fill="none" stroke="#191970" d="M695.8597,-22.2638C721.1892,-29.1884 751.5345,-37.4843 770.7913,-42.7487"/>
<polygon fill="#191970" stroke="#191970" points="696.6446,-18.85 686.0756,-19.589 694.7986,-25.6022 696.6446,-18.85"/>
</g>
<!-- Node309 -->
<g id="node14" class="node">
<title>Node309</title>
<g id="a_node14"><a xlink:href="classXCS.html#a92001d251c372244fd07c624f2dcff83" target="_top" xlink:title="XCS::single_decision">
<polygon fill="none" stroke="#000000" points="446.5,-114.5 446.5,-133.5 556.5,-133.5 556.5,-114.5 446.5,-114.5"/>
<text text-anchor="middle" x="501.5" y="-121.5" font-family="Helvetica,sans-Serif" font-size="10.00" fill="#000000">XCS::single_decision</text>
</a>
</g>
</g>
<!-- Node308&#45;&gt;Node309 -->
<g id="edge13" class="edge">
<title>Node308&#45;&gt;Node309</title>
<path fill="none" stroke="#191970" d="M415.4758,-124C425.7284,-124 436.2884,-124 446.3467,-124"/>
<polygon fill="#191970" stroke="#191970" points="415.3556,-120.5001 405.3555,-124 415.3555,-127.5001 415.3556,-120.5001"/>
</g>
<!-- Node310 -->
<g id="node15" class="node">
<title>Node310</title>
<g id="a_node15"><a xlink:href="xcs__single__step_8c.html#a536ab4256e871e31959ea6e907455340" target="_top" xlink:title="Executes a single&#45;step trial using a built&#45;in environment. ">
<polygon fill="none" stroke="#000000" points="459.5,-67.5 459.5,-86.5 543.5,-86.5 543.5,-67.5 459.5,-67.5"/>
<text text-anchor="middle" x="501.5" y="-74.5" font-family="Helvetica,sans-Serif" font-size="10.00" fill="#000000">xcs_single_trial</text>
</a>
</g>
</g>
<!-- Node308&#45;&gt;Node310 -->
<g id="edge15" class="edge">
<title>Node308&#45;&gt;Node310</title>
<path fill="none" stroke="#191970" d="M392.8286,-111.3943C417.4738,-103.5942 448.6164,-93.7376 471.239,-86.5776"/>
<polygon fill="#191970" stroke="#191970" points="391.5289,-108.1345 383.0512,-114.4888 393.6412,-114.8082 391.5289,-108.1345"/>
</g>
<!-- Node309&#45;&gt;Node301 -->
<g id="edge14" class="edge">
<title>Node309&#45;&gt;Node301</title>
<path fill="none" stroke="#191970" d="M566.7298,-121.9893C607.548,-122.6838 660.6221,-127.2068 705,-143 734.7961,-153.6039 764.251,-177.0189 779.4341,-190.3031"/>
<polygon fill="#191970" stroke="#191970" points="566.6628,-118.4886 556.6291,-121.8907 566.5944,-125.4883 566.6628,-118.4886"/>
</g>
<!-- Node311 -->
<g id="node16" class="node">
<title>Node311</title>
<g id="a_node16"><a xlink:href="xcs__single__step_8h.html#a39a031bf59eaa9b33e30e614610dcda8" target="_top" xlink:title="Executes a single&#45;step reinforcement learning experiment. ">
<polygon fill="none" stroke="#000000" points="597,-38.5 597,-57.5 705,-57.5 705,-38.5 597,-38.5"/>
<text text-anchor="middle" x="651" y="-45.5" font-family="Helvetica,sans-Serif" font-size="10.00" fill="#000000">xcs_single_step_exp</text>
</a>
</g>
</g>
<!-- Node310&#45;&gt;Node311 -->
<g id="edge16" class="edge">
<title>Node310&#45;&gt;Node311</title>
<path fill="none" stroke="#191970" d="M553.5956,-66.8945C569.2662,-63.8547 586.4037,-60.5304 601.875,-57.5293"/>
<polygon fill="#191970" stroke="#191970" points="552.6924,-63.5044 543.5419,-68.8447 554.0255,-70.3763 552.6924,-63.5044"/>
</g>
<!-- Node311&#45;&gt;Node307 -->
<g id="edge17" class="edge">
<title>Node311&#45;&gt;Node307</title>
<path fill="none" stroke="#191970" d="M715.3039,-48C735.5242,-48 756.3344,-48 770.8368,-48"/>
<polygon fill="#191970" stroke="#191970" points="715.1391,-44.5001 705.139,-48 715.139,-51.5001 715.1391,-44.5001"/>
</g>
<!-- Node313 -->
<g id="node18" class="node">
<title>Node313</title>
<g id="a_node18"><a xlink:href="xcs__supervised_8h.html#aa4daa45596a8cf402d58d029f780db3a" target="_top" xlink:title="Executes MAX_TRIALS number of XCSF learning iterations using the training data and test iterations us...">
<polygon fill="none" stroke="#000000" points="452.5,-152.5 452.5,-171.5 550.5,-171.5 550.5,-152.5 452.5,-152.5"/>
<text text-anchor="middle" x="501.5" y="-159.5" font-family="Helvetica,sans-Serif" font-size="10.00" fill="#000000">xcs_supervised_fit</text>
</a>
</g>
</g>
<!-- Node312&#45;&gt;Node313 -->
<g id="edge19" class="edge">
<title>Node312&#45;&gt;Node313</title>
<path fill="none" stroke="#191970" d="M416.1737,-172.9172C428.2011,-171.3783 440.6252,-169.7887 452.1451,-168.3148"/>
<polygon fill="#191970" stroke="#191970" points="415.6674,-169.4533 406.1925,-174.1942 416.5558,-176.3967 415.6674,-169.4533"/>
</g>
<!-- Node315 -->
<g id="node20" class="node">
<title>Node315</title>
<g id="a_node20"><a xlink:href="xcs__supervised_8h.html#a11b5fbece61ea9da003cda48fbf7d728" target="_top" xlink:title="Calculates the XCSF predictions for the provided input. ">
<polygon fill="none" stroke="#000000" points="442,-228.5 442,-247.5 561,-247.5 561,-228.5 442,-228.5"/>
<text text-anchor="middle" x="501.5" y="-235.5" font-family="Helvetica,sans-Serif" font-size="10.00" fill="#000000">xcs_supervised_predict</text>
</a>
</g>
</g>
<!-- Node312&#45;&gt;Node315 -->
<g id="edge23" class="edge">
<title>Node312&#45;&gt;Node315</title>
<path fill="none" stroke="#191970" d="M383.4431,-194.8425C400.502,-202.385 422.2565,-211.6515 442,-219 450.9431,-222.3286 460.7686,-225.6139 469.8131,-228.4924"/>
<polygon fill="#191970" stroke="#191970" points="384.5509,-191.5044 373.9924,-190.6283 381.7001,-197.8976 384.5509,-191.5044"/>
</g>
<!-- Node317 -->
<g id="node22" class="node">
<title>Node317</title>
<g id="a_node22"><a xlink:href="xcs__supervised_8h.html#a19dea220a72a3646e490ff13ea7ed5fa" target="_top" xlink:title="Calculates the XCSF error for the input data. ">
<polygon fill="none" stroke="#000000" points="444.5,-190.5 444.5,-209.5 558.5,-209.5 558.5,-190.5 444.5,-190.5"/>
<text text-anchor="middle" x="501.5" y="-197.5" font-family="Helvetica,sans-Serif" font-size="10.00" fill="#000000">xcs_supervised_score</text>
</a>
</g>
</g>
<!-- Node312&#45;&gt;Node317 -->
<g id="edge26" class="edge">
<title>Node312&#45;&gt;Node317</title>
<path fill="none" stroke="#191970" d="M416.2258,-189.0895C425.5854,-190.287 435.184,-191.5151 444.4087,-192.6954"/>
<polygon fill="#191970" stroke="#191970" points="416.5558,-185.6033 406.1925,-187.8058 415.6674,-192.5467 416.5558,-185.6033"/>
</g>
<!-- Node313&#45;&gt;Node307 -->
<g id="edge20" class="edge">
<title>Node313&#45;&gt;Node307</title>
<path fill="none" stroke="#191970" d="M542.7032,-149.3401C548.8649,-147.3033 555.1199,-145.1542 561,-143 640.0123,-114.0538 731.8972,-73.9149 770.9143,-56.5597"/>
<polygon fill="#191970" stroke="#191970" points="541.5978,-146.0191 533.1649,-152.4329 543.7569,-152.6778 541.5978,-146.0191"/>
</g>
<!-- Node314 -->
<g id="node19" class="node">
<title>Node314</title>
<g id="a_node19"><a xlink:href="classXCS.html#ac9a4a7cb0ec6238ef1d4d77996f8975b" target="_top" xlink:title="XCS::fit">
<polygon fill="none" stroke="#000000" points="625,-152.5 625,-171.5 677,-171.5 677,-152.5 625,-152.5"/>
<text text-anchor="middle" x="651" y="-159.5" font-family="Helvetica,sans-Serif" font-size="10.00" fill="#000000">XCS::fit</text>
</a>
</g>
</g>
<!-- Node313&#45;&gt;Node314 -->
<g id="edge21" class="edge">
<title>Node313&#45;&gt;Node314</title>
<path fill="none" stroke="#191970" d="M560.8853,-162C583.0445,-162 607.0864,-162 624.7599,-162"/>
<polygon fill="#191970" stroke="#191970" points="560.8663,-158.5001 550.8662,-162 560.8662,-165.5001 560.8663,-158.5001"/>
</g>
<!-- Node314&#45;&gt;Node301 -->
<g id="edge22" class="edge">
<title>Node314&#45;&gt;Node301</title>
<path fill="none" stroke="#191970" d="M686.9603,-171.8309C707.9287,-177.5632 734.2547,-184.7603 755.0478,-190.4447"/>
<polygon fill="#191970" stroke="#191970" points="687.7139,-168.4085 677.1448,-169.1475 685.8679,-175.1607 687.7139,-168.4085"/>
</g>
<!-- Node316 -->
<g id="node21" class="node">
<title>Node316</title>
<g id="a_node21"><a xlink:href="classXCS.html#a8e8db281054f9e5937610eed434cd4a5" target="_top" xlink:title="XCS::predict">
<polygon fill="none" stroke="#000000" points="614.5,-228.5 614.5,-247.5 687.5,-247.5 687.5,-228.5 614.5,-228.5"/>
<text text-anchor="middle" x="651" y="-235.5" font-family="Helvetica,sans-Serif" font-size="10.00" fill="#000000">XCS::predict</text>
</a>
</g>
</g>
<!-- Node315&#45;&gt;Node316 -->
<g id="edge24" class="edge">
<title>Node315&#45;&gt;Node316</title>
<path fill="none" stroke="#191970" d="M571.2856,-238C586.2234,-238 601.4268,-238 614.4954,-238"/>
<polygon fill="#191970" stroke="#191970" points="571.016,-234.5001 561.0159,-238 571.0159,-241.5001 571.016,-234.5001"/>
</g>
<!-- Node316&#45;&gt;Node301 -->
<g id="edge25" class="edge">
<title>Node316&#45;&gt;Node301</title>
<path fill="none" stroke="#191970" d="M695.7953,-225.7538C714.9547,-220.516 736.9938,-214.4909 754.9357,-209.5859"/>
<polygon fill="#191970" stroke="#191970" points="694.7986,-222.3978 686.0756,-228.411 696.6446,-229.15 694.7986,-222.3978"/>
</g>
<!-- Node318 -->
<g id="node23" class="node">
<title>Node318</title>
<g id="a_node23"><a xlink:href="classXCS.html#ad32ffc841106ec036029e4c90a33b761" target="_top" xlink:title="XCS::score">
<polygon fill="none" stroke="#000000" points="617,-190.5 617,-209.5 685,-209.5 685,-190.5 617,-190.5"/>
<text text-anchor="middle" x="651" y="-197.5" font-family="Helvetica,sans-Serif" font-size="10.00" fill="#000000">XCS::score</text>
</a>
</g>
</g>
<!-- Node317&#45;&gt;Node318 -->
<g id="edge27" class="edge">
<title>Node317&#45;&gt;Node318</title>
<path fill="none" stroke="#191970" d="M569.0982,-200C585.6658,-200 602.7064,-200 616.9242,-200"/>
<polygon fill="#191970" stroke="#191970" points="568.8731,-196.5001 558.873,-200 568.873,-203.5001 568.8731,-196.5001"/>
</g>
<!-- Node318&#45;&gt;Node301 -->
<g id="edge28" class="edge">
<title>Node318&#45;&gt;Node301</title>
<path fill="none" stroke="#191970" d="M695.2347,-200C709.7597,-200 725.989,-200 740.8555,-200"/>
<polygon fill="#191970" stroke="#191970" points="695.0033,-196.5001 685.0032,-200 695.0032,-203.5001 695.0033,-196.5001"/>
</g>
</g>
</svg>
