<?xml version="1.0" encoding="UTF-8" standalone="no"?>
<!DOCTYPE svg PUBLIC "-//W3C//DTD SVG 1.1//EN"
 "http://www.w3.org/Graphics/SVG/1.1/DTD/svg11.dtd">
<!-- Generated by graphviz version 2.40.1 (20161225.0304)
 -->
<!-- Title: cl_mutate Pages: 1 -->
<svg width="732pt" height="256pt"
 viewBox="0.00 0.00 732.00 256.00" xmlns="http://www.w3.org/2000/svg" xmlns:xlink="http://www.w3.org/1999/xlink">
<g id="graph0" class="graph" transform="scale(1 1) rotate(0) translate(4 252)">
<title>cl_mutate</title>
<!-- Node323 -->
<g id="node1" class="node">
<title>Node323</title>
<polygon fill="#bfbfbf" stroke="#000000" points="0,-171.5 0,-190.5 59,-190.5 59,-171.5 0,-171.5"/>
<text text-anchor="middle" x="29.5" y="-178.5" font-family="Helvetica,sans-Serif" font-size="10.00" fill="#000000">cl_mutate</text>
</g>
<!-- Node324 -->
<g id="node2" class="node">
<title>Node324</title>
<g id="a_node2"><a xlink:href="$ea_8h.html#ae90a9b4131bb94462265b9c928499eb8" xlink:title="Executes the evolutionary algorithm (EA). ">
<polygon fill="none" stroke="#000000" points="95,-171.5 95,-190.5 124,-190.5 124,-171.5 95,-171.5"/>
<text text-anchor="middle" x="109.5" y="-178.5" font-family="Helvetica,sans-Serif" font-size="10.00" fill="#000000">ea</text>
</a>
</g>
</g>
<!-- Node323&#45;&gt;Node324 -->
<g id="edge1" class="edge">
<title>Node323&#45;&gt;Node324</title>
<path fill="none" stroke="#191970" d="M69.4014,-181C78.4479,-181 87.5011,-181 94.7102,-181"/>
<polygon fill="#191970" stroke="#191970" points="69.2891,-177.5001 59.289,-181 69.289,-184.5001 69.2891,-177.5001"/>
</g>
<!-- Node325 -->
<g id="node3" class="node">
<title>Node325</title>
<g id="a_node3"><a xlink:href="$xcs__multi__step_8c.html#ad50c415970b4bfc42f469fb38c5e68fa" xlink:title="Executes a multi&#45;step trial using a built&#45;in environment. ">
<polygon fill="none" stroke="#000000" points="169,-218.5 169,-237.5 249,-237.5 249,-218.5 169,-218.5"/>
<text text-anchor="middle" x="209" y="-225.5" font-family="Helvetica,sans-Serif" font-size="10.00" fill="#000000">xcs_multi_trial</text>
</a>
</g>
</g>
<!-- Node324&#45;&gt;Node325 -->
<g id="edge2" class="edge">
<title>Node324&#45;&gt;Node325</title>
<path fill="none" stroke="#191970" d="M133.4056,-192.2921C150.3056,-200.275 172.714,-210.8599 188.7373,-218.4287"/>
<polygon fill="#191970" stroke="#191970" points="134.7185,-189.0415 124.1816,-187.935 131.7287,-195.3709 134.7185,-189.0415"/>
</g>
<!-- Node328 -->
<g id="node6" class="node">
<title>Node328</title>
<g id="a_node6"><a xlink:href="$xcs__single__step_8h.html#a0ff6b521f66224d56ef0e6f50f5781b9" xlink:title="Creates the action set, updates the classifiers and runs the EA. ">
<polygon fill="none" stroke="#000000" points="160,-171.5 160,-190.5 258,-190.5 258,-171.5 160,-171.5"/>
<text text-anchor="middle" x="209" y="-178.5" font-family="Helvetica,sans-Serif" font-size="10.00" fill="#000000">xcs_single_update</text>
</a>
</g>
</g>
<!-- Node324&#45;&gt;Node328 -->
<g id="edge5" class="edge">
<title>Node324&#45;&gt;Node328</title>
<path fill="none" stroke="#191970" d="M134.2801,-181C142.0174,-181 150.8425,-181 159.6508,-181"/>
<polygon fill="#191970" stroke="#191970" points="134.1816,-177.5001 124.1816,-181 134.1815,-184.5001 134.1816,-177.5001"/>
</g>
<!-- Node333 -->
<g id="node11" class="node">
<title>Node333</title>
<g id="a_node11"><a xlink:href="$xcsf_8c.html#af5fb604e81235fdcb2ed8925d9291f59" xlink:title="Executes a single XCSF trial. ">
<polygon fill="none" stroke="#000000" points="181,-57.5 181,-76.5 237,-76.5 237,-57.5 181,-57.5"/>
<text text-anchor="middle" x="209" y="-64.5" font-family="Helvetica,sans-Serif" font-size="10.00" fill="#000000">xcsf_trial</text>
</a>
</g>
</g>
<!-- Node324&#45;&gt;Node333 -->
<g id="edge11" class="edge">
<title>Node324&#45;&gt;Node333</title>
<path fill="none" stroke="#191970" d="M124.7434,-163.5352C145.9778,-139.2063 183.7403,-95.9408 200.5382,-76.695"/>
<polygon fill="#191970" stroke="#191970" points="121.9221,-161.445 117.9833,-171.2804 127.1959,-166.048 121.9221,-161.445"/>
</g>
<!-- Node326 -->
<g id="node4" class="node">
<title>Node326</title>
<g id="a_node4"><a xlink:href="$xcs__multi__step_8h.html#acc29d4a55dbd56c16ea5f19f15a7c677" xlink:title="Executes a multi&#45;step reinforcement learning experiment. ">
<polygon fill="none" stroke="#000000" points="436,-228.5 436,-247.5 540,-247.5 540,-228.5 436,-228.5"/>
<text text-anchor="middle" x="488" y="-235.5" font-family="Helvetica,sans-Serif" font-size="10.00" fill="#000000">xcs_multi_step_exp</text>
</a>
</g>
</g>
<!-- Node325&#45;&gt;Node326 -->
<g id="edge3" class="edge">
<title>Node325&#45;&gt;Node326</title>
<path fill="none" stroke="#191970" d="M259.5047,-229.8102C309.4046,-231.5987 385.3872,-234.3221 435.8508,-236.1309"/>
<polygon fill="#191970" stroke="#191970" points="259.39,-226.3039 249.271,-229.4434 259.1392,-233.2994 259.39,-226.3039"/>
</g>
<!-- Node327 -->
<g id="node5" class="node">
<title>Node327</title>
<g id="a_node5"><a xlink:href="$main_8c.html#a3c04138a5bfe5d72780bb7e82a18e627" xlink:title="main">
<polygon fill="none" stroke="#000000" points="632,-190.5 632,-209.5 670,-209.5 670,-190.5 632,-190.5"/>
<text text-anchor="middle" x="651" y="-197.5" font-family="Helvetica,sans-Serif" font-size="10.00" fill="#000000">main</text>
</a>
</g>
</g>
<!-- Node326&#45;&gt;Node327 -->
<g id="edge4" class="edge">
<title>Node326&#45;&gt;Node327</title>
<path fill="none" stroke="#191970" d="M539.0525,-226.0982C570.4599,-218.7762 608.9128,-209.8117 631.6012,-204.5224"/>
<polygon fill="#191970" stroke="#191970" points="538.076,-222.7319 529.1318,-228.411 539.6653,-229.5491 538.076,-222.7319"/>
</g>
<!-- Node329 -->
<g id="node7" class="node">
<title>Node329</title>
<g id="a_node7"><a xlink:href="$structXCS.html#aedc01ad6f00a54b260a7605929a1d4c9" xlink:title="XCS::single_update">
<polygon fill="none" stroke="#000000" points="294,-152.5 294,-171.5 398,-171.5 398,-152.5 294,-152.5"/>
<text text-anchor="middle" x="346" y="-159.5" font-family="Helvetica,sans-Serif" font-size="10.00" fill="#000000">XCS::single_update</text>
</a>
</g>
</g>
<!-- Node328&#45;&gt;Node329 -->
<g id="edge6" class="edge">
<title>Node328&#45;&gt;Node329</title>
<path fill="none" stroke="#191970" d="M268.2254,-172.7863C276.6549,-171.6172 285.2753,-170.4217 293.5632,-169.2723"/>
<polygon fill="#191970" stroke="#191970" points="267.4976,-169.3536 258.0732,-174.1942 268.4592,-176.2873 267.4976,-169.3536"/>
</g>
<!-- Node331 -->
<g id="node9" class="node">
<title>Node331</title>
<g id="a_node9"><a xlink:href="$xcs__single__step_8c.html#a536ab4256e871e31959ea6e907455340" xlink:title="Executes a single&#45;step trial using a built&#45;in environment. ">
<polygon fill="none" stroke="#000000" points="304,-190.5 304,-209.5 388,-209.5 388,-190.5 304,-190.5"/>
<text text-anchor="middle" x="346" y="-197.5" font-family="Helvetica,sans-Serif" font-size="10.00" fill="#000000">xcs_single_trial</text>
</a>
</g>
</g>
<!-- Node328&#45;&gt;Node331 -->
<g id="edge8" class="edge">
<title>Node328&#45;&gt;Node331</title>
<path fill="none" stroke="#191970" d="M268.0069,-189.1834C279.9825,-190.8443 292.3528,-192.5599 303.6154,-194.1218"/>
<polygon fill="#191970" stroke="#191970" points="268.4592,-185.7128 258.0732,-187.8058 267.4976,-192.6464 268.4592,-185.7128"/>
</g>
<!-- Node330 -->
<g id="node8" class="node">
<title>Node330</title>
<g id="a_node8"><a xlink:href="$python__wrapper_8cpp.html#afbdcc1358036a0b83a6b239da2b098a2" xlink:title="BOOST_PYTHON_MODULE">
<polygon fill="none" stroke="#000000" points="578,-57.5 578,-76.5 724,-76.5 724,-57.5 578,-57.5"/>
<text text-anchor="middle" x="651" y="-64.5" font-family="Helvetica,sans-Serif" font-size="10.00" fill="#000000">BOOST_PYTHON_MODULE</text>
</a>
</g>
</g>
<!-- Node329&#45;&gt;Node330 -->
<g id="edge7" class="edge">
<title>Node329&#45;&gt;Node330</title>
<path fill="none" stroke="#191970" d="M390.5475,-149.7635C430.4055,-138.6446 490.3418,-121.5037 542,-105 570.4442,-95.9127 602.7024,-84.5307 624.6992,-76.6036"/>
<polygon fill="#191970" stroke="#191970" points="389.5605,-146.405 380.8639,-152.4565 391.4361,-153.1491 389.5605,-146.405"/>
</g>
<!-- Node332 -->
<g id="node10" class="node">
<title>Node332</title>
<g id="a_node10"><a xlink:href="$xcs__single__step_8h.html#a39a031bf59eaa9b33e30e614610dcda8" xlink:title="Executes a single&#45;step reinforcement learning experiment. ">
<polygon fill="none" stroke="#000000" points="434,-190.5 434,-209.5 542,-209.5 542,-190.5 434,-190.5"/>
<text text-anchor="middle" x="488" y="-197.5" font-family="Helvetica,sans-Serif" font-size="10.00" fill="#000000">xcs_single_step_exp</text>
</a>
</g>
</g>
<!-- Node331&#45;&gt;Node332 -->
<g id="edge9" class="edge">
<title>Node331&#45;&gt;Node332</title>
<path fill="none" stroke="#191970" d="M398.551,-200C410.0539,-200 422.2511,-200 433.8166,-200"/>
<polygon fill="#191970" stroke="#191970" points="398.2203,-196.5001 388.2202,-200 398.2202,-203.5001 398.2203,-196.5001"/>
</g>
<!-- Node332&#45;&gt;Node327 -->
<g id="edge10" class="edge">
<title>Node332&#45;&gt;Node327</title>
<path fill="none" stroke="#191970" d="M552.611,-200C581.0891,-200 612.4445,-200 631.9303,-200"/>
<polygon fill="#191970" stroke="#191970" points="552.2767,-196.5001 542.2766,-200 552.2766,-203.5001 552.2767,-196.5001"/>
</g>
<!-- Node334 -->
<g id="node12" class="node">
<title>Node334</title>
<g id="a_node12"><a xlink:href="$xcsf_8h.html#aee465caea59599a71fc69528598156cb" xlink:title="Executes MAX_TRIALS number of XCSF learning iterations using the training. data and test iterations u...">
<polygon fill="none" stroke="#000000" points="321.5,-76.5 321.5,-95.5 370.5,-95.5 370.5,-76.5 321.5,-76.5"/>
<text text-anchor="middle" x="346" y="-83.5" font-family="Helvetica,sans-Serif" font-size="10.00" fill="#000000">xcsf_fit</text>
</a>
</g>
</g>
<!-- Node333&#45;&gt;Node334 -->
<g id="edge12" class="edge">
<title>Node333&#45;&gt;Node334</title>
<path fill="none" stroke="#191970" d="M247.1185,-72.2865C270.7972,-75.5704 300.5501,-79.6967 321.2027,-82.561"/>
<polygon fill="#191970" stroke="#191970" points="247.4406,-68.7978 237.0546,-70.8908 246.479,-75.7314 247.4406,-68.7978"/>
</g>
<!-- Node336 -->
<g id="node14" class="node">
<title>Node336</title>
<g id="a_node14"><a xlink:href="$xcsf_8h.html#af128a7da769acabe2e841e8d06749b0b" xlink:title="Calculates the XCSF predictions for the provided input. ">
<polygon fill="none" stroke="#000000" points="311,-38.5 311,-57.5 381,-57.5 381,-38.5 311,-38.5"/>
<text text-anchor="middle" x="346" y="-45.5" font-family="Helvetica,sans-Serif" font-size="10.00" fill="#000000">xcsf_predict</text>
</a>
</g>
</g>
<!-- Node333&#45;&gt;Node336 -->
<g id="edge16" class="edge">
<title>Node333&#45;&gt;Node336</title>
<path fill="none" stroke="#191970" d="M247.064,-61.721C267.0542,-58.9487 291.385,-55.5743 310.9157,-52.8657"/>
<polygon fill="#191970" stroke="#191970" points="246.479,-58.2686 237.0546,-63.1092 247.4406,-65.2022 246.479,-58.2686"/>
</g>
<!-- Node338 -->
<g id="node16" class="node">
<title>Node338</title>
<g id="a_node16"><a xlink:href="$xcsf_8h.html#a348b8cd321211c377fb1deedc62c7c67" xlink:title="Calculates the XCSF error for the input data. ">
<polygon fill="none" stroke="#000000" points="313.5,-.5 313.5,-19.5 378.5,-19.5 378.5,-.5 313.5,-.5"/>
<text text-anchor="middle" x="346" y="-7.5" font-family="Helvetica,sans-Serif" font-size="10.00" fill="#000000">xcsf_score</text>
</a>
</g>
</g>
<!-- Node333&#45;&gt;Node338 -->
<g id="edge19" class="edge">
<title>Node333&#45;&gt;Node338</title>
<path fill="none" stroke="#191970" d="M238.9163,-53.0094C255.1046,-45.5955 275.5173,-36.4974 294,-29 302.016,-25.7484 310.8227,-22.4347 318.8735,-19.5046"/>
<polygon fill="#191970" stroke="#191970" points="237.0541,-50.0138 229.4377,-57.3787 239.9845,-56.3709 237.0541,-50.0138"/>
</g>
<!-- Node334&#45;&gt;Node327 -->
<g id="edge13" class="edge">
<title>Node334&#45;&gt;Node327</title>
<path fill="none" stroke="#191970" d="M380.3792,-98.8499C444.6984,-122.8906 581.2779,-173.94 631.7389,-192.8008"/>
<polygon fill="#191970" stroke="#191970" points="381.2936,-95.4553 370.7011,-95.2325 378.8427,-102.0122 381.2936,-95.4553"/>
</g>
<!-- Node335 -->
<g id="node13" class="node">
<title>Node335</title>
<g id="a_node13"><a xlink:href="$structXCS.html#ad2ccafe59d2b4ae6d0e1cbc15edee53c" xlink:title="XCS::fit">
<polygon fill="none" stroke="#000000" points="462,-76.5 462,-95.5 514,-95.5 514,-76.5 462,-76.5"/>
<text text-anchor="middle" x="488" y="-83.5" font-family="Helvetica,sans-Serif" font-size="10.00" fill="#000000">XCS::fit</text>
</a>
</g>
</g>
<!-- Node334&#45;&gt;Node335 -->
<g id="edge14" class="edge">
<title>Node334&#45;&gt;Node335</title>
<path fill="none" stroke="#191970" d="M380.8735,-86C405.8145,-86 438.8634,-86 461.6237,-86"/>
<polygon fill="#191970" stroke="#191970" points="380.7345,-82.5001 370.7345,-86 380.7345,-89.5001 380.7345,-82.5001"/>
</g>
<!-- Node335&#45;&gt;Node330 -->
<g id="edge15" class="edge">
<title>Node335&#45;&gt;Node330</title>
<path fill="none" stroke="#191970" d="M524.5233,-81.7427C540.2717,-79.907 559.2822,-77.691 577.7251,-75.5412"/>
<polygon fill="#191970" stroke="#191970" points="523.7163,-78.313 514.1888,-82.9473 524.5268,-85.2659 523.7163,-78.313"/>
</g>
<!-- Node337 -->
<g id="node15" class="node">
<title>Node337</title>
<g id="a_node15"><a xlink:href="$structXCS.html#a911ed75c86abed7807d33eb1385240ed" xlink:title="XCS::predict">
<polygon fill="none" stroke="#000000" points="451.5,-38.5 451.5,-57.5 524.5,-57.5 524.5,-38.5 451.5,-38.5"/>
<text text-anchor="middle" x="488" y="-45.5" font-family="Helvetica,sans-Serif" font-size="10.00" fill="#000000">XCS::predict</text>
</a>
</g>
</g>
<!-- Node336&#45;&gt;Node337 -->
<g id="edge17" class="edge">
<title>Node336&#45;&gt;Node337</title>
<path fill="none" stroke="#191970" d="M391.2292,-48C410.6223,-48 432.9834,-48 451.3219,-48"/>
<polygon fill="#191970" stroke="#191970" points="391.1012,-44.5001 381.1011,-48 391.1011,-51.5001 391.1012,-44.5001"/>
</g>
<!-- Node337&#45;&gt;Node330 -->
<g id="edge18" class="edge">
<title>Node337&#45;&gt;Node330</title>
<path fill="none" stroke="#191970" d="M534.5613,-53.4274C548.0572,-55.0005 563.1298,-56.7575 577.8365,-58.4717"/>
<polygon fill="#191970" stroke="#191970" points="534.9184,-49.9454 524.5804,-52.264 534.1079,-56.8983 534.9184,-49.9454"/>
</g>
<!-- Node339 -->
<g id="node17" class="node">
<title>Node339</title>
<g id="a_node17"><a xlink:href="$structXCS.html#aa77bc77484d6d14bf512304a23cfec88" xlink:title="XCS::score">
<polygon fill="none" stroke="#000000" points="454,-.5 454,-19.5 522,-19.5 522,-.5 454,-.5"/>
<text text-anchor="middle" x="488" y="-7.5" font-family="Helvetica,sans-Serif" font-size="10.00" fill="#000000">XCS::score</text>
</a>
</g>
</g>
<!-- Node338&#45;&gt;Node339 -->
<g id="edge20" class="edge">
<title>Node338&#45;&gt;Node339</title>
<path fill="none" stroke="#191970" d="M388.7215,-10C409.4707,-10 434.0715,-10 453.5932,-10"/>
<polygon fill="#191970" stroke="#191970" points="388.5777,-6.5001 378.5777,-10 388.5776,-13.5001 388.5777,-6.5001"/>
</g>
<!-- Node339&#45;&gt;Node330 -->
<g id="edge21" class="edge">
<title>Node339&#45;&gt;Node330</title>
<path fill="none" stroke="#191970" d="M524.9708,-22.9285C554.9626,-33.4164 596.5636,-47.9639 623.6285,-57.4284"/>
<polygon fill="#191970" stroke="#191970" points="525.8774,-19.5377 515.2825,-19.5405 523.5667,-26.1453 525.8774,-19.5377"/>
</g>
</g>
</svg>
