<?xml version="1.0" encoding="UTF-8" standalone="no"?>
<!DOCTYPE svg PUBLIC "-//W3C//DTD SVG 1.1//EN"
 "http://www.w3.org/Graphics/SVG/1.1/DTD/svg11.dtd">
<!-- Generated by graphviz version 2.40.1 (20161225.0304)
 -->
<!-- Title: cl_predict Pages: 1 -->
<svg width="839pt" height="294pt"
 viewBox="0.00 0.00 839.00 294.00" xmlns="http://www.w3.org/2000/svg" xmlns:xlink="http://www.w3.org/1999/xlink">
<g id="graph0" class="graph" transform="scale(1 1) rotate(0) translate(4 290)">
<title>cl_predict</title>
<!-- Node439 -->
<g id="node1" class="node">
<title>Node439</title>
<polygon fill="#bfbfbf" stroke="#000000" points="0,-135.5 0,-154.5 59,-154.5 59,-135.5 0,-135.5"/>
<text text-anchor="middle" x="29.5" y="-142.5" font-family="Helvetica,sans-Serif" font-size="10.00" fill="#000000">cl_predict</text>
</g>
<!-- Node440 -->
<g id="node2" class="node">
<title>Node440</title>
<g id="a_node2"><a xlink:href="pa_8h.html#aa3098dbad2e3e1e113b0176ebd76ae65" target="_top" xlink:title="Builds the prediction array for the specified input. ">
<polygon fill="none" stroke="#000000" points="95.5,-209.5 95.5,-228.5 148.5,-228.5 148.5,-209.5 95.5,-209.5"/>
<text text-anchor="middle" x="122" y="-216.5" font-family="Helvetica,sans-Serif" font-size="10.00" fill="#000000">pa_build</text>
</a>
</g>
</g>
<!-- Node439&#45;&gt;Node440 -->
<g id="edge1" class="edge">
<title>Node439&#45;&gt;Node440</title>
<path fill="none" stroke="#191970" d="M49.8849,-161.3079C68.2616,-176.0093 94.6682,-197.1346 109.9043,-209.3234"/>
<polygon fill="#191970" stroke="#191970" points="51.5879,-158.1881 41.5928,-154.6742 47.215,-163.6542 51.5879,-158.1881"/>
</g>
<!-- Node451 -->
<g id="node13" class="node">
<title>Node451</title>
<g id="a_node13"><a xlink:href="cl__set_8h.html#a67f86a207056d80953cf3d491327f02a" target="_top" xlink:title="Calculates the set mean fitness weighted prediction. ">
<polygon fill="none" stroke="#000000" points="95,-107.5 95,-126.5 149,-126.5 149,-107.5 95,-107.5"/>
<text text-anchor="middle" x="122" y="-114.5" font-family="Helvetica,sans-Serif" font-size="10.00" fill="#000000">set_pred</text>
</a>
</g>
</g>
<!-- Node439&#45;&gt;Node451 -->
<g id="edge14" class="edge">
<title>Node439&#45;&gt;Node451</title>
<path fill="none" stroke="#191970" d="M68.7657,-133.1142C77.5892,-130.4433 86.7597,-127.6673 94.9527,-125.1873"/>
<polygon fill="#191970" stroke="#191970" points="67.579,-129.8165 59.0219,-136.0636 69.6071,-136.5163 67.579,-129.8165"/>
</g>
<!-- Node441 -->
<g id="node3" class="node">
<title>Node441</title>
<g id="a_node3"><a xlink:href="xcs__multi__step_8c.html#a617d9e432dc180dccf0c5ef11a94f79f" target="_top" xlink:title="Executes a multi&#45;step explore trial. ">
<polygon fill="none" stroke="#000000" points="189.5,-266.5 189.5,-285.5 284.5,-285.5 284.5,-266.5 189.5,-266.5"/>
<text text-anchor="middle" x="237" y="-273.5" font-family="Helvetica,sans-Serif" font-size="10.00" fill="#000000">xcs_multi_explore</text>
</a>
</g>
</g>
<!-- Node440&#45;&gt;Node441 -->
<g id="edge2" class="edge">
<title>Node440&#45;&gt;Node441</title>
<path fill="none" stroke="#191970" d="M144.7624,-234.1863C156.4836,-241.6267 171.1824,-250.3843 185,-257 192.1954,-260.445 200.1911,-263.6534 207.7119,-266.4165"/>
<polygon fill="#191970" stroke="#191970" points="146.372,-231.0591 136.0742,-228.5677 142.5707,-236.9371 146.372,-231.0591"/>
</g>
<!-- Node445 -->
<g id="node7" class="node">
<title>Node445</title>
<g id="a_node7"><a xlink:href="xcs__multi__step_8c.html#a7c317faec2f018cc620fe5e465ebf378" target="_top" xlink:title="Executes a multi&#45;step exploit trial. ">
<polygon fill="none" stroke="#000000" points="191,-228.5 191,-247.5 283,-247.5 283,-228.5 191,-228.5"/>
<text text-anchor="middle" x="237" y="-235.5" font-family="Helvetica,sans-Serif" font-size="10.00" fill="#000000">xcs_multi_exploit</text>
</a>
</g>
</g>
<!-- Node440&#45;&gt;Node445 -->
<g id="edge6" class="edge">
<title>Node440&#45;&gt;Node445</title>
<path fill="none" stroke="#191970" d="M158.8049,-225.0808C168.9323,-226.754 180.048,-228.5905 190.6394,-230.3404"/>
<polygon fill="#191970" stroke="#191970" points="159.1092,-221.5837 148.6724,-223.4067 157.9681,-228.4901 159.1092,-221.5837"/>
</g>
<!-- Node446 -->
<g id="node8" class="node">
<title>Node446</title>
<g id="a_node8"><a xlink:href="xcs__single__step_8h.html#a6cd0f3c0c1c71e13dba1ce493ef873a5" target="_top" xlink:title="Constructs the match set and selects an action to perform. ">
<polygon fill="none" stroke="#000000" points="185,-190.5 185,-209.5 289,-209.5 289,-190.5 185,-190.5"/>
<text text-anchor="middle" x="237" y="-197.5" font-family="Helvetica,sans-Serif" font-size="10.00" fill="#000000">xcs_single_decision</text>
</a>
</g>
</g>
<!-- Node440&#45;&gt;Node446 -->
<g id="edge8" class="edge">
<title>Node440&#45;&gt;Node446</title>
<path fill="none" stroke="#191970" d="M158.7233,-212.9327C166.9864,-211.5675 175.9109,-210.093 184.6738,-208.6452"/>
<polygon fill="#191970" stroke="#191970" points="157.9681,-209.5099 148.6724,-214.5933 159.1092,-216.4163 157.9681,-209.5099"/>
</g>
<!-- Node442 -->
<g id="node4" class="node">
<title>Node442</title>
<g id="a_node4"><a xlink:href="xcs__multi__step_8h.html#acc29d4a55dbd56c16ea5f19f15a7c677" target="_top" xlink:title="Executes a multi&#45;step reinforcement learning experiment. ">
<polygon fill="none" stroke="#000000" points="325,-266.5 325,-285.5 429,-285.5 429,-266.5 325,-266.5"/>
<text text-anchor="middle" x="377" y="-273.5" font-family="Helvetica,sans-Serif" font-size="10.00" fill="#000000">xcs_multi_step_exp</text>
</a>
</g>
</g>
<!-- Node441&#45;&gt;Node442 -->
<g id="edge3" class="edge">
<title>Node441&#45;&gt;Node442</title>
<path fill="none" stroke="#191970" d="M294.9011,-276C304.7523,-276 314.9332,-276 324.6312,-276"/>
<polygon fill="#191970" stroke="#191970" points="294.7885,-272.5001 284.7885,-276 294.7885,-279.5001 294.7885,-272.5001"/>
</g>
<!-- Node443 -->
<g id="node5" class="node">
<title>Node443</title>
<g id="a_node5"><a xlink:href="main_8c.html#ab572a67aa431827116ebd6931d667d21" target="_top" xlink:title="classification">
<polygon fill="none" stroke="#000000" points="647,-228.5 647,-247.5 721,-247.5 721,-228.5 647,-228.5"/>
<text text-anchor="middle" x="684" y="-235.5" font-family="Helvetica,sans-Serif" font-size="10.00" fill="#000000">classification</text>
</a>
</g>
</g>
<!-- Node442&#45;&gt;Node443 -->
<g id="edge4" class="edge">
<title>Node442&#45;&gt;Node443</title>
<path fill="none" stroke="#191970" d="M439.3985,-271.2495C478.45,-267.9703 529.7618,-263.1041 575,-257 598.9859,-253.7635 625.7658,-249.1102 646.7788,-245.2188"/>
<polygon fill="#191970" stroke="#191970" points="438.9135,-267.7775 429.2362,-272.0903 439.4908,-274.7537 438.9135,-267.7775"/>
</g>
<!-- Node444 -->
<g id="node6" class="node">
<title>Node444</title>
<g id="a_node6"><a xlink:href="main_8c.html#a3c04138a5bfe5d72780bb7e82a18e627" target="_top" xlink:title="main">
<polygon fill="none" stroke="#000000" points="793,-171.5 793,-190.5 831,-190.5 831,-171.5 793,-171.5"/>
<text text-anchor="middle" x="812" y="-178.5" font-family="Helvetica,sans-Serif" font-size="10.00" fill="#000000">main</text>
</a>
</g>
</g>
<!-- Node443&#45;&gt;Node444 -->
<g id="edge5" class="edge">
<title>Node443&#45;&gt;Node444</title>
<path fill="none" stroke="#191970" d="M714.873,-224.2519C739.067,-213.478 771.981,-198.821 792.6041,-189.6372"/>
<polygon fill="#191970" stroke="#191970" points="713.1357,-221.1941 705.4243,-228.4595 715.9833,-227.5887 713.1357,-221.1941"/>
</g>
<!-- Node445&#45;&gt;Node442 -->
<g id="edge7" class="edge">
<title>Node445&#45;&gt;Node442</title>
<path fill="none" stroke="#191970" d="M282.1176,-250.2462C301.4149,-255.484 323.6124,-261.5091 341.6834,-266.4141"/>
<polygon fill="#191970" stroke="#191970" points="282.8956,-246.8308 272.3279,-247.589 281.0619,-253.5864 282.8956,-246.8308"/>
</g>
<!-- Node447 -->
<g id="node9" class="node">
<title>Node447</title>
<g id="a_node9"><a xlink:href="structXCS.html#a94d556a5e545ec415d7165d5e91b21d4" target="_top" xlink:title="XCS::single_decision">
<polygon fill="none" stroke="#000000" points="465,-190.5 465,-209.5 575,-209.5 575,-190.5 465,-190.5"/>
<text text-anchor="middle" x="520" y="-197.5" font-family="Helvetica,sans-Serif" font-size="10.00" fill="#000000">XCS::single_decision</text>
</a>
</g>
</g>
<!-- Node446&#45;&gt;Node447 -->
<g id="edge9" class="edge">
<title>Node446&#45;&gt;Node447</title>
<path fill="none" stroke="#191970" d="M299.4792,-200C348.8932,-200 417.2321,-200 464.684,-200"/>
<polygon fill="#191970" stroke="#191970" points="299.2364,-196.5001 289.2364,-200 299.2363,-203.5001 299.2364,-196.5001"/>
</g>
<!-- Node449 -->
<g id="node11" class="node">
<title>Node449</title>
<g id="a_node11"><a xlink:href="xcs__single__step_8c.html#a3d1fd2472d35310800aed897219a65af" target="_top" xlink:title="Executes a single&#45;step trial using a built&#45;in environment. ">
<polygon fill="none" stroke="#000000" points="335,-228.5 335,-247.5 419,-247.5 419,-228.5 335,-228.5"/>
<text text-anchor="middle" x="377" y="-235.5" font-family="Helvetica,sans-Serif" font-size="10.00" fill="#000000">xcs_single_trial</text>
</a>
</g>
</g>
<!-- Node446&#45;&gt;Node449 -->
<g id="edge11" class="edge">
<title>Node446&#45;&gt;Node449</title>
<path fill="none" stroke="#191970" d="M282.1176,-212.2462C301.4149,-217.484 323.6124,-223.5091 341.6834,-228.4141"/>
<polygon fill="#191970" stroke="#191970" points="282.8956,-208.8308 272.3279,-209.589 281.0619,-215.5864 282.8956,-208.8308"/>
</g>
<!-- Node448 -->
<g id="node10" class="node">
<title>Node448</title>
<g id="a_node10"><a xlink:href="python__wrapper_8cpp.html#afbdcc1358036a0b83a6b239da2b098a2" target="_top" xlink:title="BOOST_PYTHON_MODULE">
<polygon fill="none" stroke="#000000" points="611,-152.5 611,-171.5 757,-171.5 757,-152.5 611,-152.5"/>
<text text-anchor="middle" x="684" y="-159.5" font-family="Helvetica,sans-Serif" font-size="10.00" fill="#000000">BOOST_PYTHON_MODULE</text>
</a>
</g>
</g>
<!-- Node447&#45;&gt;Node448 -->
<g id="edge10" class="edge">
<title>Node447&#45;&gt;Node448</title>
<path fill="none" stroke="#191970" d="M571.341,-188.1039C594.3929,-182.7626 621.2211,-176.5463 642.9135,-171.5201"/>
<polygon fill="#191970" stroke="#191970" points="570.336,-184.744 561.3841,-190.411 571.9161,-191.5633 570.336,-184.744"/>
</g>
<!-- Node450 -->
<g id="node12" class="node">
<title>Node450</title>
<g id="a_node12"><a xlink:href="xcs__single__step_8h.html#a39a031bf59eaa9b33e30e614610dcda8" target="_top" xlink:title="Executes a single&#45;step experiment. ">
<polygon fill="none" stroke="#000000" points="466,-228.5 466,-247.5 574,-247.5 574,-228.5 466,-228.5"/>
<text text-anchor="middle" x="520" y="-235.5" font-family="Helvetica,sans-Serif" font-size="10.00" fill="#000000">xcs_single_step_exp</text>
</a>
</g>
</g>
<!-- Node449&#45;&gt;Node450 -->
<g id="edge12" class="edge">
<title>Node449&#45;&gt;Node450</title>
<path fill="none" stroke="#191970" d="M429.3691,-238C441.285,-238 453.9661,-238 465.9506,-238"/>
<polygon fill="#191970" stroke="#191970" points="429.1313,-234.5001 419.1313,-238 429.1312,-241.5001 429.1313,-234.5001"/>
</g>
<!-- Node450&#45;&gt;Node443 -->
<g id="edge13" class="edge">
<title>Node450&#45;&gt;Node443</title>
<path fill="none" stroke="#191970" d="M584.4163,-238C605.6445,-238 628.5225,-238 646.9907,-238"/>
<polygon fill="#191970" stroke="#191970" points="584.1543,-234.5001 574.1542,-238 584.1542,-241.5001 584.1543,-234.5001"/>
</g>
<!-- Node452 -->
<g id="node14" class="node">
<title>Node452</title>
<g id="a_node14"><a xlink:href="xcsf_8c.html#a474f4e13cfc5f00958c689cd8c81135a" target="_top" xlink:title="Executes a single XCSF learning trial. ">
<polygon fill="none" stroke="#000000" points="195.5,-126.5 195.5,-145.5 278.5,-145.5 278.5,-126.5 195.5,-126.5"/>
<text text-anchor="middle" x="237" y="-133.5" font-family="Helvetica,sans-Serif" font-size="10.00" fill="#000000">xcsf_learn_trial</text>
</a>
</g>
</g>
<!-- Node451&#45;&gt;Node452 -->
<g id="edge15" class="edge">
<title>Node451&#45;&gt;Node452</title>
<path fill="none" stroke="#191970" d="M159.3387,-123.169C170.7595,-125.0559 183.3954,-127.1436 195.0985,-129.0772"/>
<polygon fill="#191970" stroke="#191970" points="159.6902,-119.6797 149.2534,-121.5027 158.5491,-126.5861 159.6902,-119.6797"/>
</g>
<!-- Node458 -->
<g id="node20" class="node">
<title>Node458</title>
<g id="a_node20"><a xlink:href="xcsf_8c.html#aa6edd3962ddd04940e2c78a4f99de7cd" target="_top" xlink:title="Executes a single XCSF testing trial. ">
<polygon fill="none" stroke="#000000" points="198,-88.5 198,-107.5 276,-107.5 276,-88.5 198,-88.5"/>
<text text-anchor="middle" x="237" y="-95.5" font-family="Helvetica,sans-Serif" font-size="10.00" fill="#000000">xcsf_test_trial</text>
</a>
</g>
</g>
<!-- Node451&#45;&gt;Node458 -->
<g id="edge23" class="edge">
<title>Node451&#45;&gt;Node458</title>
<path fill="none" stroke="#191970" d="M159.2098,-110.8523C171.5326,-108.8163 185.2817,-106.5448 197.7527,-104.4843"/>
<polygon fill="#191970" stroke="#191970" points="158.5491,-107.4139 149.2534,-112.4973 159.6902,-114.3203 158.5491,-107.4139"/>
</g>
<!-- Node461 -->
<g id="node23" class="node">
<title>Node461</title>
<g id="a_node23"><a xlink:href="xcsf_8h.html#af0b9db7273578fdff649d46823cd9790" target="_top" xlink:title="Calculates the XCSF predictions for the provided input. ">
<polygon fill="none" stroke="#000000" points="202,-42.5 202,-61.5 272,-61.5 272,-42.5 202,-42.5"/>
<text text-anchor="middle" x="237" y="-49.5" font-family="Helvetica,sans-Serif" font-size="10.00" fill="#000000">xcsf_predict</text>
</a>
</g>
</g>
<!-- Node451&#45;&gt;Node461 -->
<g id="edge28" class="edge">
<title>Node451&#45;&gt;Node461</title>
<path fill="none" stroke="#191970" d="M146.0858,-101.9788C157.7371,-94.8397 171.9877,-86.2928 185,-79 195.6483,-73.0321 207.7396,-66.7265 217.5814,-61.7111"/>
<polygon fill="#191970" stroke="#191970" points="144.0472,-99.1239 137.3722,-107.3517 147.7212,-105.0823 144.0472,-99.1239"/>
</g>
<!-- Node453 -->
<g id="node15" class="node">
<title>Node453</title>
<g id="a_node15"><a xlink:href="xcsf_8h.html#a874829f28fee20f9ad15b540f4b4d6ff" target="_top" xlink:title="Executes MAX_TRIALS number of XCSF learning iterations using the training data. ">
<polygon fill="none" stroke="#000000" points="350,-149.5 350,-168.5 404,-168.5 404,-149.5 350,-149.5"/>
<text text-anchor="middle" x="377" y="-156.5" font-family="Helvetica,sans-Serif" font-size="10.00" fill="#000000">xcsf_fit1</text>
</a>
</g>
</g>
<!-- Node452&#45;&gt;Node453 -->
<g id="edge16" class="edge">
<title>Node452&#45;&gt;Node453</title>
<path fill="none" stroke="#191970" d="M288.6085,-144.4785C309.3974,-147.8939 332.5155,-151.6918 349.8938,-154.5468"/>
<polygon fill="#191970" stroke="#191970" points="289.0607,-141.006 278.6256,-142.8385 287.9259,-147.9134 289.0607,-141.006"/>
</g>
<!-- Node455 -->
<g id="node17" class="node">
<title>Node455</title>
<g id="a_node17"><a xlink:href="xcsf_8h.html#a0b4de57cb9dadc9deca7901aa36e5025" target="_top" xlink:title="Executes MAX_TRIALS number of XCSF learning iterations using the training. data and test iterations u...">
<polygon fill="none" stroke="#000000" points="350,-107.5 350,-126.5 404,-126.5 404,-107.5 350,-107.5"/>
<text text-anchor="middle" x="377" y="-114.5" font-family="Helvetica,sans-Serif" font-size="10.00" fill="#000000">xcsf_fit2</text>
</a>
</g>
</g>
<!-- Node452&#45;&gt;Node455 -->
<g id="edge19" class="edge">
<title>Node452&#45;&gt;Node455</title>
<path fill="none" stroke="#191970" d="M288.6085,-128.996C309.3974,-126.1746 332.5155,-123.0372 349.8938,-120.6787"/>
<polygon fill="#191970" stroke="#191970" points="288.064,-125.5377 278.6256,-130.3508 289.0054,-132.4741 288.064,-125.5377"/>
</g>
<!-- Node454 -->
<g id="node16" class="node">
<title>Node454</title>
<g id="a_node16"><a xlink:href="structXCS.html#ad2ccafe59d2b4ae6d0e1cbc15edee53c" target="_top" xlink:title="XCS::fit">
<polygon fill="none" stroke="#000000" points="494,-152.5 494,-171.5 546,-171.5 546,-152.5 494,-152.5"/>
<text text-anchor="middle" x="520" y="-159.5" font-family="Helvetica,sans-Serif" font-size="10.00" fill="#000000">XCS::fit</text>
</a>
</g>
</g>
<!-- Node453&#45;&gt;Node454 -->
<g id="edge17" class="edge">
<title>Node453&#45;&gt;Node454</title>
<path fill="none" stroke="#191970" d="M414.44,-159.7855C439.4041,-160.3092 471.5964,-160.9845 493.8327,-161.451"/>
<polygon fill="#191970" stroke="#191970" points="414.305,-156.2819 404.2338,-159.5713 414.1582,-163.2804 414.305,-156.2819"/>
</g>
<!-- Node454&#45;&gt;Node448 -->
<g id="edge18" class="edge">
<title>Node454&#45;&gt;Node448</title>
<path fill="none" stroke="#191970" d="M556.4003,-162C572.5152,-162 592.0749,-162 610.9889,-162"/>
<polygon fill="#191970" stroke="#191970" points="556.3495,-158.5001 546.3494,-162 556.3494,-165.5001 556.3495,-158.5001"/>
</g>
<!-- Node456 -->
<g id="node18" class="node">
<title>Node456</title>
<g id="a_node18"><a xlink:href="main_8c.html#a968c78da8ed8ad08662a86280deec99a" target="_top" xlink:title="regression">
<polygon fill="none" stroke="#000000" points="653,-114.5 653,-133.5 715,-133.5 715,-114.5 653,-114.5"/>
<text text-anchor="middle" x="684" y="-121.5" font-family="Helvetica,sans-Serif" font-size="10.00" fill="#000000">regression</text>
</a>
</g>
</g>
<!-- Node455&#45;&gt;Node456 -->
<g id="edge20" class="edge">
<title>Node455&#45;&gt;Node456</title>
<path fill="none" stroke="#191970" d="M414.6085,-117.8575C475.8279,-119.2534 595.8946,-121.9911 652.7401,-123.2872"/>
<polygon fill="#191970" stroke="#191970" points="414.3214,-114.3502 404.2442,-117.6212 414.1618,-121.3483 414.3214,-114.3502"/>
</g>
<!-- Node457 -->
<g id="node19" class="node">
<title>Node457</title>
<g id="a_node19"><a xlink:href="structXCS.html#a7d53320740db8e846251bacd0238a9fb" target="_top" xlink:title="XCS::fit">
<polygon fill="none" stroke="#000000" points="494,-76.5 494,-95.5 546,-95.5 546,-76.5 494,-76.5"/>
<text text-anchor="middle" x="520" y="-83.5" font-family="Helvetica,sans-Serif" font-size="10.00" fill="#000000">XCS::fit</text>
</a>
</g>
</g>
<!-- Node455&#45;&gt;Node457 -->
<g id="edge22" class="edge">
<title>Node455&#45;&gt;Node457</title>
<path fill="none" stroke="#191970" d="M414.1061,-108.956C439.1164,-103.5342 471.4971,-96.5146 493.8327,-91.6726"/>
<polygon fill="#191970" stroke="#191970" points="413.2653,-105.5569 404.2338,-111.0962 414.7483,-112.398 413.2653,-105.5569"/>
</g>
<!-- Node456&#45;&gt;Node444 -->
<g id="edge21" class="edge">
<title>Node456&#45;&gt;Node444</title>
<path fill="none" stroke="#191970" d="M724.9907,-131.9888C735.6702,-134.7873 746.9852,-138.4117 757,-143 773.2491,-150.4445 789.8517,-162.6837 800.5024,-171.255"/>
<polygon fill="#191970" stroke="#191970" points="725.5542,-128.5236 715.0096,-129.5541 723.8953,-135.3243 725.5542,-128.5236"/>
</g>
<!-- Node458&#45;&gt;Node455 -->
<g id="edge24" class="edge">
<title>Node458&#45;&gt;Node455</title>
<path fill="none" stroke="#191970" d="M286.5651,-104.7267C307.8643,-107.6173 331.93,-110.8834 349.8782,-113.3192"/>
<polygon fill="#191970" stroke="#191970" points="286.7502,-101.2198 276.3704,-103.3431 285.8088,-108.1562 286.7502,-101.2198"/>
</g>
<!-- Node459 -->
<g id="node21" class="node">
<title>Node459</title>
<g id="a_node21"><a xlink:href="xcsf_8h.html#a2cf95733e5f97410d94211b72e835847" target="_top" xlink:title="Calculates the XCSF error for the input data. ">
<polygon fill="none" stroke="#000000" points="344.5,-61.5 344.5,-80.5 409.5,-80.5 409.5,-61.5 344.5,-61.5"/>
<text text-anchor="middle" x="377" y="-68.5" font-family="Helvetica,sans-Serif" font-size="10.00" fill="#000000">xcsf_score</text>
</a>
</g>
</g>
<!-- Node458&#45;&gt;Node459 -->
<g id="edge25" class="edge">
<title>Node458&#45;&gt;Node459</title>
<path fill="none" stroke="#191970" d="M286.421,-88.4688C305.5349,-84.7826 326.8956,-80.663 344.0712,-77.3506"/>
<polygon fill="#191970" stroke="#191970" points="285.5266,-85.0767 276.3704,-90.4071 286.8522,-91.9501 285.5266,-85.0767"/>
</g>
<!-- Node460 -->
<g id="node22" class="node">
<title>Node460</title>
<g id="a_node22"><a xlink:href="structXCS.html#aa77bc77484d6d14bf512304a23cfec88" target="_top" xlink:title="XCS::score">
<polygon fill="none" stroke="#000000" points="486,-38.5 486,-57.5 554,-57.5 554,-38.5 486,-38.5"/>
<text text-anchor="middle" x="520" y="-45.5" font-family="Helvetica,sans-Serif" font-size="10.00" fill="#000000">XCS::score</text>
</a>
</g>
</g>
<!-- Node459&#45;&gt;Node460 -->
<g id="edge26" class="edge">
<title>Node459&#45;&gt;Node460</title>
<path fill="none" stroke="#191970" d="M419.8115,-64.1142C440.9289,-60.7177 466.0489,-56.6774 485.853,-53.4922"/>
<polygon fill="#191970" stroke="#191970" points="419.1244,-60.6797 409.8071,-65.7233 420.236,-67.5909 419.1244,-60.6797"/>
</g>
<!-- Node460&#45;&gt;Node448 -->
<g id="edge27" class="edge">
<title>Node460&#45;&gt;Node448</title>
<path fill="none" stroke="#191970" d="M563.5726,-59.2497C567.7027,-61.4019 571.6069,-63.9603 575,-67 602.8384,-91.9392 582.2105,-119.1651 611,-143 615.6402,-146.8416 620.9698,-149.9161 626.5913,-152.3752"/>
<polygon fill="#191970" stroke="#191970" points="564.8438,-55.9851 554.2813,-55.1574 562.0222,-62.3913 564.8438,-55.9851"/>
</g>
<!-- Node462 -->
<g id="node24" class="node">
<title>Node462</title>
<g id="a_node24"><a xlink:href="structXCS.html#a911ed75c86abed7807d33eb1385240ed" target="_top" xlink:title="XCS::predict">
<polygon fill="none" stroke="#000000" points="483.5,-.5 483.5,-19.5 556.5,-19.5 556.5,-.5 483.5,-.5"/>
<text text-anchor="middle" x="520" y="-7.5" font-family="Helvetica,sans-Serif" font-size="10.00" fill="#000000">XCS::predict</text>
</a>
</g>
</g>
<!-- Node461&#45;&gt;Node462 -->
<g id="edge29" class="edge">
<title>Node461&#45;&gt;Node462</title>
<path fill="none" stroke="#191970" d="M282.2309,-45.2873C338.0467,-37.0037 431.8679,-23.0797 483.3878,-15.4336"/>
<polygon fill="#191970" stroke="#191970" points="281.6478,-41.8354 272.2699,-46.7656 282.6754,-48.7596 281.6478,-41.8354"/>
</g>
<!-- Node462&#45;&gt;Node448 -->
<g id="edge30" class="edge">
<title>Node462&#45;&gt;Node448</title>
<path fill="none" stroke="#191970" d="M565.5361,-21.6675C569.0027,-23.7271 572.2251,-26.1499 575,-29 612.065,-67.0696 572.4789,-106.4044 611,-143 615.0826,-146.8785 619.8533,-149.9902 624.9657,-152.4831"/>
<polygon fill="#191970" stroke="#191970" points="567.0522,-18.5128 556.5317,-17.2597 563.9745,-24.8 567.0522,-18.5128"/>
</g>
</g>
</svg>
