<?xml version="1.0" encoding="UTF-8" standalone="no"?>
<!DOCTYPE svg PUBLIC "-//W3C//DTD SVG 1.1//EN"
 "http://www.w3.org/Graphics/SVG/1.1/DTD/svg11.dtd">
<!-- Generated by graphviz version 2.40.1 (20161225.0304)
 -->
<!-- Title: cl_predict Pages: 1 -->
<svg width="885pt" height="294pt"
 viewBox="0.00 0.00 885.00 294.00" xmlns="http://www.w3.org/2000/svg" xmlns:xlink="http://www.w3.org/1999/xlink">
<g id="graph0" class="graph" transform="scale(1 1) rotate(0) translate(4 290)">
<title>cl_predict</title>
<!-- Node394 -->
<g id="node1" class="node">
<title>Node394</title>
<polygon fill="#bfbfbf" stroke="#000000" points="0,-150.5 0,-169.5 59,-169.5 59,-150.5 0,-150.5"/>
<text text-anchor="middle" x="29.5" y="-157.5" font-family="Helvetica,sans-Serif" font-size="10.00" fill="#000000">cl_predict</text>
</g>
<!-- Node395 -->
<g id="node2" class="node">
<title>Node395</title>
<g id="a_node2"><a xlink:href="cl_8h.html#ad3ef5eea9801c3b8c38ad8e5e2141dc0" target="_top" xlink:title="Updates the classifier&#39;s parameters as well as condition, action, and prediction depending on the kno...">
<polygon fill="none" stroke="#000000" points="96.5,-150.5 96.5,-169.5 155.5,-169.5 155.5,-150.5 96.5,-150.5"/>
<text text-anchor="middle" x="126" y="-157.5" font-family="Helvetica,sans-Serif" font-size="10.00" fill="#000000">cl_update</text>
</a>
</g>
</g>
<!-- Node394&#45;&gt;Node395 -->
<g id="edge1" class="edge">
<title>Node394&#45;&gt;Node395</title>
<path fill="none" stroke="#191970" d="M69.4789,-160C78.4184,-160 87.7484,-160 96.1915,-160"/>
<polygon fill="#191970" stroke="#191970" points="69.2406,-156.5001 59.2406,-160 69.2406,-163.5001 69.2406,-156.5001"/>
</g>
<!-- Node412 -->
<g id="node19" class="node">
<title>Node412</title>
<g id="a_node19"><a xlink:href="clset_8h.html#a7146a28cbf1fbbcc90f8bb583144fb12" target="_top" xlink:title="Calculates the set mean fitness weighted prediction. ">
<polygon fill="none" stroke="#000000" points="95,-93.5 95,-112.5 157,-112.5 157,-93.5 95,-93.5"/>
<text text-anchor="middle" x="126" y="-100.5" font-family="Helvetica,sans-Serif" font-size="10.00" fill="#000000">clset_pred</text>
</a>
</g>
</g>
<!-- Node394&#45;&gt;Node412 -->
<g id="edge23" class="edge">
<title>Node394&#45;&gt;Node412</title>
<path fill="none" stroke="#191970" d="M54.9295,-144.9794C72.3356,-134.6982 94.8895,-121.3762 109.8718,-112.5265"/>
<polygon fill="#191970" stroke="#191970" points="52.7,-142.2313 45.8699,-150.3307 56.2601,-148.2584 52.7,-142.2313"/>
</g>
<!-- Node413 -->
<g id="node20" class="node">
<title>Node413</title>
<g id="a_node20"><a xlink:href="pa_8h.html#a5cf732b7d7928a84d6745d0cba498a6a" target="_top" xlink:title="Builds the prediction array for the specified input. ">
<polygon fill="none" stroke="#000000" points="202.5,-188.5 202.5,-207.5 255.5,-207.5 255.5,-188.5 202.5,-188.5"/>
<text text-anchor="middle" x="229" y="-195.5" font-family="Helvetica,sans-Serif" font-size="10.00" fill="#000000">pa_build</text>
</a>
</g>
</g>
<!-- Node394&#45;&gt;Node413 -->
<g id="edge25" class="edge">
<title>Node394&#45;&gt;Node413</title>
<path fill="none" stroke="#191970" d="M68.745,-172.3618C77.339,-174.794 86.43,-177.1591 95,-179 131.871,-186.9201 175.1806,-192.3775 202.3626,-195.347"/>
<polygon fill="#191970" stroke="#191970" points="69.5258,-168.9438 58.9457,-169.5032 67.5654,-175.6637 69.5258,-168.9438"/>
</g>
<!-- Node396 -->
<g id="node3" class="node">
<title>Node396</title>
<g id="a_node3"><a xlink:href="clset_8h.html#add82b1503285b43b57b320ea3ef78a85" target="_top" xlink:title="Provides reinforcement to the set and performs set subsumption. ">
<polygon fill="none" stroke="#000000" points="193,-150.5 193,-169.5 265,-169.5 265,-150.5 193,-150.5"/>
<text text-anchor="middle" x="229" y="-157.5" font-family="Helvetica,sans-Serif" font-size="10.00" fill="#000000">clset_update</text>
</a>
</g>
</g>
<!-- Node395&#45;&gt;Node396 -->
<g id="edge2" class="edge">
<title>Node395&#45;&gt;Node396</title>
<path fill="none" stroke="#191970" d="M165.7157,-160C174.6598,-160 184.105,-160 192.892,-160"/>
<polygon fill="#191970" stroke="#191970" points="165.5157,-156.5001 155.5157,-160 165.5156,-163.5001 165.5157,-156.5001"/>
</g>
<!-- Node397 -->
<g id="node4" class="node">
<title>Node397</title>
<g id="a_node4"><a xlink:href="xcs__multi__step_8c.html#ad50c415970b4bfc42f469fb38c5e68fa" target="_top" xlink:title="Executes a multi&#45;step trial using a built&#45;in environment. ">
<polygon fill="none" stroke="#000000" points="456,-264.5 456,-283.5 536,-283.5 536,-264.5 456,-264.5"/>
<text text-anchor="middle" x="496" y="-271.5" font-family="Helvetica,sans-Serif" font-size="10.00" fill="#000000">xcs_multi_trial</text>
</a>
</g>
</g>
<!-- Node396&#45;&gt;Node397 -->
<g id="edge3" class="edge">
<title>Node396&#45;&gt;Node397</title>
<path fill="none" stroke="#191970" d="M258.5971,-174.5863C260.8195,-175.9916 262.9802,-177.4676 265,-179 283.5342,-193.0612 281.1471,-204.8717 301,-217 326.9601,-232.8592 406.4736,-253.2262 455.5818,-264.8252"/>
<polygon fill="#191970" stroke="#191970" points="260.2954,-171.5253 249.887,-169.5464 256.7895,-177.5841 260.2954,-171.5253"/>
</g>
<!-- Node400 -->
<g id="node7" class="node">
<title>Node400</title>
<g id="a_node7"><a xlink:href="xcs__single__step_8h.html#a0ff6b521f66224d56ef0e6f50f5781b9" target="_top" xlink:title="Creates the action set, updates the classifiers and runs the EA. ">
<polygon fill="none" stroke="#000000" points="304,-150.5 304,-169.5 402,-169.5 402,-150.5 304,-150.5"/>
<text text-anchor="middle" x="353" y="-157.5" font-family="Helvetica,sans-Serif" font-size="10.00" fill="#000000">xcs_single_update</text>
</a>
</g>
</g>
<!-- Node396&#45;&gt;Node400 -->
<g id="edge6" class="edge">
<title>Node396&#45;&gt;Node400</title>
<path fill="none" stroke="#191970" d="M275.3559,-160C284.5798,-160 294.298,-160 303.6189,-160"/>
<polygon fill="#191970" stroke="#191970" points="275.1993,-156.5001 265.1993,-160 275.1992,-163.5001 275.1993,-156.5001"/>
</g>
<!-- Node405 -->
<g id="node12" class="node">
<title>Node405</title>
<g id="a_node12"><a xlink:href="xcsf_8c.html#af5fb604e81235fdcb2ed8925d9291f59" target="_top" xlink:title="Executes a single XCSF trial. ">
<polygon fill="none" stroke="#000000" points="325,-79.5 325,-98.5 381,-98.5 381,-79.5 325,-79.5"/>
<text text-anchor="middle" x="353" y="-86.5" font-family="Helvetica,sans-Serif" font-size="10.00" fill="#000000">xcsf_trial</text>
</a>
</g>
</g>
<!-- Node396&#45;&gt;Node405 -->
<g id="edge12" class="edge">
<title>Node396&#45;&gt;Node405</title>
<path fill="none" stroke="#191970" d="M254.4549,-145.425C278.8885,-131.4348 315.0973,-110.7024 336.1457,-98.6504"/>
<polygon fill="#191970" stroke="#191970" points="252.6622,-142.4183 245.7232,-150.4246 256.1405,-148.493 252.6622,-142.4183"/>
</g>
<!-- Node398 -->
<g id="node5" class="node">
<title>Node398</title>
<g id="a_node5"><a xlink:href="xcs__multi__step_8h.html#acc29d4a55dbd56c16ea5f19f15a7c677" target="_top" xlink:title="Executes a multi&#45;step reinforcement learning experiment. ">
<polygon fill="none" stroke="#000000" points="589,-266.5 589,-285.5 693,-285.5 693,-266.5 589,-266.5"/>
<text text-anchor="middle" x="641" y="-273.5" font-family="Helvetica,sans-Serif" font-size="10.00" fill="#000000">xcs_multi_step_exp</text>
</a>
</g>
</g>
<!-- Node397&#45;&gt;Node398 -->
<g id="edge4" class="edge">
<title>Node397&#45;&gt;Node398</title>
<path fill="none" stroke="#191970" d="M546.273,-274.6934C560.0508,-274.8835 575.0143,-275.0899 588.8925,-275.2813"/>
<polygon fill="#191970" stroke="#191970" points="546.0531,-271.1901 536.0057,-274.5518 545.9565,-278.1895 546.0531,-271.1901"/>
</g>
<!-- Node399 -->
<g id="node6" class="node">
<title>Node399</title>
<g id="a_node6"><a xlink:href="main_8c.html#a3c04138a5bfe5d72780bb7e82a18e627" target="_top" xlink:title="main">
<polygon fill="none" stroke="#000000" points="785,-228.5 785,-247.5 823,-247.5 823,-228.5 785,-228.5"/>
<text text-anchor="middle" x="804" y="-235.5" font-family="Helvetica,sans-Serif" font-size="10.00" fill="#000000">main</text>
</a>
</g>
</g>
<!-- Node398&#45;&gt;Node399 -->
<g id="edge5" class="edge">
<title>Node398&#45;&gt;Node399</title>
<path fill="none" stroke="#191970" d="M692.0525,-264.0982C723.4599,-256.7762 761.9128,-247.8117 784.6012,-242.5224"/>
<polygon fill="#191970" stroke="#191970" points="691.076,-260.7319 682.1318,-266.411 692.6653,-267.5491 691.076,-260.7319"/>
</g>
<!-- Node401 -->
<g id="node8" class="node">
<title>Node401</title>
<g id="a_node8"><a xlink:href="structXCS.html#aedc01ad6f00a54b260a7605929a1d4c9" target="_top" xlink:title="XCS::single_update">
<polygon fill="none" stroke="#000000" points="589,-152.5 589,-171.5 693,-171.5 693,-152.5 589,-152.5"/>
<text text-anchor="middle" x="641" y="-159.5" font-family="Helvetica,sans-Serif" font-size="10.00" fill="#000000">XCS::single_update</text>
</a>
</g>
</g>
<!-- Node400&#45;&gt;Node401 -->
<g id="edge7" class="edge">
<title>Node400&#45;&gt;Node401</title>
<path fill="none" stroke="#191970" d="M412.2439,-160.4114C464.146,-160.7718 538.8555,-161.2907 588.6112,-161.6362"/>
<polygon fill="#191970" stroke="#191970" points="412.2058,-156.9112 402.1817,-160.3415 412.1571,-163.911 412.2058,-156.9112"/>
</g>
<!-- Node403 -->
<g id="node10" class="node">
<title>Node403</title>
<g id="a_node10"><a xlink:href="xcs__single__step_8c.html#a536ab4256e871e31959ea6e907455340" target="_top" xlink:title="Executes a single&#45;step trial using a built&#45;in environment. ">
<polygon fill="none" stroke="#000000" points="454,-188.5 454,-207.5 538,-207.5 538,-188.5 454,-188.5"/>
<text text-anchor="middle" x="496" y="-195.5" font-family="Helvetica,sans-Serif" font-size="10.00" fill="#000000">xcs_single_trial</text>
</a>
</g>
</g>
<!-- Node400&#45;&gt;Node403 -->
<g id="edge9" class="edge">
<title>Node400&#45;&gt;Node403</title>
<path fill="none" stroke="#191970" d="M398.8133,-172.1742C418.5871,-177.4287 441.3838,-183.4866 459.9266,-188.4141"/>
<polygon fill="#191970" stroke="#191970" points="399.6484,-168.7747 389.0849,-169.589 397.8506,-175.5399 399.6484,-168.7747"/>
</g>
<!-- Node402 -->
<g id="node9" class="node">
<title>Node402</title>
<g id="a_node9"><a xlink:href="python__wrapper_8cpp.html#afbdcc1358036a0b83a6b239da2b098a2" target="_top" xlink:title="BOOST_PYTHON_MODULE">
<polygon fill="none" stroke="#000000" points="731,-76.5 731,-95.5 877,-95.5 877,-76.5 731,-76.5"/>
<text text-anchor="middle" x="804" y="-83.5" font-family="Helvetica,sans-Serif" font-size="10.00" fill="#000000">BOOST_PYTHON_MODULE</text>
</a>
</g>
</g>
<!-- Node401&#45;&gt;Node402 -->
<g id="edge8" class="edge">
<title>Node401&#45;&gt;Node402</title>
<path fill="none" stroke="#191970" d="M670.7304,-148.138C703.4221,-132.8952 755.0776,-108.8104 783.5236,-95.5473"/>
<polygon fill="#191970" stroke="#191970" points="669.2283,-144.9765 661.6441,-152.3745 672.1864,-151.3208 669.2283,-144.9765"/>
</g>
<!-- Node404 -->
<g id="node11" class="node">
<title>Node404</title>
<g id="a_node11"><a xlink:href="xcs__single__step_8h.html#a39a031bf59eaa9b33e30e614610dcda8" target="_top" xlink:title="Executes a single&#45;step reinforcement learning experiment. ">
<polygon fill="none" stroke="#000000" points="587,-228.5 587,-247.5 695,-247.5 695,-228.5 587,-228.5"/>
<text text-anchor="middle" x="641" y="-235.5" font-family="Helvetica,sans-Serif" font-size="10.00" fill="#000000">xcs_single_step_exp</text>
</a>
</g>
</g>
<!-- Node403&#45;&gt;Node404 -->
<g id="edge10" class="edge">
<title>Node403&#45;&gt;Node404</title>
<path fill="none" stroke="#191970" d="M540.504,-210.277C561.7494,-216.1378 586.7844,-223.044 606.5523,-228.4972"/>
<polygon fill="#191970" stroke="#191970" points="541.3018,-206.8664 530.7311,-207.581 539.4403,-213.6143 541.3018,-206.8664"/>
</g>
<!-- Node404&#45;&gt;Node399 -->
<g id="edge11" class="edge">
<title>Node404&#45;&gt;Node399</title>
<path fill="none" stroke="#191970" d="M705.611,-238C734.0891,-238 765.4445,-238 784.9303,-238"/>
<polygon fill="#191970" stroke="#191970" points="705.2767,-234.5001 695.2766,-238 705.2766,-241.5001 705.2767,-234.5001"/>
</g>
<!-- Node406 -->
<g id="node13" class="node">
<title>Node406</title>
<g id="a_node13"><a xlink:href="xcsf_8h.html#aee465caea59599a71fc69528598156cb" target="_top" xlink:title="Executes MAX_TRIALS number of XCSF learning iterations using the training. data and test iterations u...">
<polygon fill="none" stroke="#000000" points="471.5,-79.5 471.5,-98.5 520.5,-98.5 520.5,-79.5 471.5,-79.5"/>
<text text-anchor="middle" x="496" y="-86.5" font-family="Helvetica,sans-Serif" font-size="10.00" fill="#000000">xcsf_fit</text>
</a>
</g>
</g>
<!-- Node405&#45;&gt;Node406 -->
<g id="edge13" class="edge">
<title>Node405&#45;&gt;Node406</title>
<path fill="none" stroke="#191970" d="M391.2738,-89C416.6179,-89 449.1245,-89 471.15,-89"/>
<polygon fill="#191970" stroke="#191970" points="391.2522,-85.5001 381.2522,-89 391.2522,-92.5001 391.2522,-85.5001"/>
</g>
<!-- Node408 -->
<g id="node15" class="node">
<title>Node408</title>
<g id="a_node15"><a xlink:href="xcsf_8h.html#a90b938e4ae2ef92284e8eabfcf4b7b7b" target="_top" xlink:title="Calculates the XCSF predictions for the provided input. ">
<polygon fill="none" stroke="#000000" points="461,-40.5 461,-59.5 531,-59.5 531,-40.5 461,-40.5"/>
<text text-anchor="middle" x="496" y="-47.5" font-family="Helvetica,sans-Serif" font-size="10.00" fill="#000000">xcsf_predict</text>
</a>
</g>
</g>
<!-- Node405&#45;&gt;Node408 -->
<g id="edge17" class="edge">
<title>Node405&#45;&gt;Node408</title>
<path fill="none" stroke="#191970" d="M391.1196,-78.6038C412.8185,-72.6859 439.8061,-65.3256 460.9711,-59.5533"/>
<polygon fill="#191970" stroke="#191970" points="389.9789,-75.2869 381.2522,-81.2949 391.8208,-82.0403 389.9789,-75.2869"/>
</g>
<!-- Node410 -->
<g id="node17" class="node">
<title>Node410</title>
<g id="a_node17"><a xlink:href="xcsf_8h.html#a348b8cd321211c377fb1deedc62c7c67" target="_top" xlink:title="Calculates the XCSF error for the input data. ">
<polygon fill="none" stroke="#000000" points="463.5,-2.5 463.5,-21.5 528.5,-21.5 528.5,-2.5 463.5,-2.5"/>
<text text-anchor="middle" x="496" y="-9.5" font-family="Helvetica,sans-Serif" font-size="10.00" fill="#000000">xcsf_score</text>
</a>
</g>
</g>
<!-- Node405&#45;&gt;Node410 -->
<g id="edge20" class="edge">
<title>Node405&#45;&gt;Node410</title>
<path fill="none" stroke="#191970" d="M373.7401,-73.1747C391.0308,-60.5223 416.6784,-42.9799 441,-31 448.2501,-27.4289 456.3399,-24.2343 464.0367,-21.5295"/>
<polygon fill="#191970" stroke="#191970" points="371.4499,-70.516 365.5112,-79.29 375.6252,-76.1344 371.4499,-70.516"/>
</g>
<!-- Node406&#45;&gt;Node399 -->
<g id="edge14" class="edge">
<title>Node406&#45;&gt;Node399</title>
<path fill="none" stroke="#191970" d="M530.5402,-96.4028C579.5699,-107.2428 666.5579,-127.7954 695,-143 738.1683,-166.0769 778.8159,-209.1181 795.736,-228.3196"/>
<polygon fill="#191970" stroke="#191970" points="531.2063,-92.9658 520.6887,-94.2425 529.7069,-99.8033 531.2063,-92.9658"/>
</g>
<!-- Node407 -->
<g id="node14" class="node">
<title>Node407</title>
<g id="a_node14"><a xlink:href="structXCS.html#ad2ccafe59d2b4ae6d0e1cbc15edee53c" target="_top" xlink:title="XCS::fit">
<polygon fill="none" stroke="#000000" points="615,-76.5 615,-95.5 667,-95.5 667,-76.5 615,-76.5"/>
<text text-anchor="middle" x="641" y="-83.5" font-family="Helvetica,sans-Serif" font-size="10.00" fill="#000000">XCS::fit</text>
</a>
</g>
</g>
<!-- Node406&#45;&gt;Node407 -->
<g id="edge15" class="edge">
<title>Node406&#45;&gt;Node407</title>
<path fill="none" stroke="#191970" d="M530.7186,-88.2817C556.5568,-87.7471 591.2798,-87.0287 614.8098,-86.5419"/>
<polygon fill="#191970" stroke="#191970" points="530.5227,-84.7849 520.5973,-88.4911 530.6676,-91.7834 530.5227,-84.7849"/>
</g>
<!-- Node407&#45;&gt;Node402 -->
<g id="edge16" class="edge">
<title>Node407&#45;&gt;Node402</title>
<path fill="none" stroke="#191970" d="M677.5233,-86C693.2717,-86 712.2822,-86 730.7251,-86"/>
<polygon fill="#191970" stroke="#191970" points="677.1888,-82.5001 667.1888,-86 677.1887,-89.5001 677.1888,-82.5001"/>
</g>
<!-- Node409 -->
<g id="node16" class="node">
<title>Node409</title>
<g id="a_node16"><a xlink:href="structXCS.html#a911ed75c86abed7807d33eb1385240ed" target="_top" xlink:title="XCS::predict">
<polygon fill="none" stroke="#000000" points="604.5,-38.5 604.5,-57.5 677.5,-57.5 677.5,-38.5 604.5,-38.5"/>
<text text-anchor="middle" x="641" y="-45.5" font-family="Helvetica,sans-Serif" font-size="10.00" fill="#000000">XCS::predict</text>
</a>
</g>
</g>
<!-- Node408&#45;&gt;Node409 -->
<g id="edge18" class="edge">
<title>Node408&#45;&gt;Node409</title>
<path fill="none" stroke="#191970" d="M541.3762,-49.3741C561.6837,-49.094 585.3085,-48.7682 604.4543,-48.5041"/>
<polygon fill="#191970" stroke="#191970" points="541.0512,-45.8782 531.1005,-49.5159 541.1478,-52.8775 541.0512,-45.8782"/>
</g>
<!-- Node409&#45;&gt;Node402 -->
<g id="edge19" class="edge">
<title>Node409&#45;&gt;Node402</title>
<path fill="none" stroke="#191970" d="M687.4857,-58.8372C711.3798,-64.4076 740.2318,-71.1338 763.2469,-76.4993"/>
<polygon fill="#191970" stroke="#191970" points="688.1139,-55.3898 677.5804,-56.5279 686.5246,-62.207 688.1139,-55.3898"/>
</g>
<!-- Node411 -->
<g id="node18" class="node">
<title>Node411</title>
<g id="a_node18"><a xlink:href="structXCS.html#aa77bc77484d6d14bf512304a23cfec88" target="_top" xlink:title="XCS::score">
<polygon fill="none" stroke="#000000" points="607,-.5 607,-19.5 675,-19.5 675,-.5 607,-.5"/>
<text text-anchor="middle" x="641" y="-7.5" font-family="Helvetica,sans-Serif" font-size="10.00" fill="#000000">XCS::score</text>
</a>
</g>
</g>
<!-- Node410&#45;&gt;Node411 -->
<g id="edge21" class="edge">
<title>Node410&#45;&gt;Node411</title>
<path fill="none" stroke="#191970" d="M538.8002,-11.4097C560.489,-11.1105 586.4651,-10.7522 606.8013,-10.4717"/>
<polygon fill="#191970" stroke="#191970" points="538.4916,-7.9135 528.5408,-11.5512 538.5882,-14.9128 538.4916,-7.9135"/>
</g>
<!-- Node411&#45;&gt;Node402 -->
<g id="edge22" class="edge">
<title>Node411&#45;&gt;Node402</title>
<path fill="none" stroke="#191970" d="M680.0744,-22.9973C685.1396,-24.901 690.2235,-26.9235 695,-29 728.6851,-43.6436 766.3102,-64.3406 787.3749,-76.3464"/>
<polygon fill="#191970" stroke="#191970" points="681.0366,-19.6232 670.4424,-19.5001 678.6475,-26.2029 681.0366,-19.6232"/>
</g>
<!-- Node412&#45;&gt;Node405 -->
<g id="edge24" class="edge">
<title>Node412&#45;&gt;Node405</title>
<path fill="none" stroke="#191970" d="M167.2377,-100.4567C212.8719,-97.6423 285.1867,-93.1823 324.7852,-90.7401"/>
<polygon fill="#191970" stroke="#191970" points="166.853,-96.9737 157.0874,-101.0827 167.2839,-103.9604 166.853,-96.9737"/>
</g>
<!-- Node414 -->
<g id="node21" class="node">
<title>Node414</title>
<g id="a_node21"><a xlink:href="xcs__multi__step_8h.html#af2eaa15cba52d29fa3630218d9780a6a" target="_top" xlink:title="Constructs the match set and selects an action to perform. ">
<polygon fill="none" stroke="#000000" points="303,-264.5 303,-283.5 403,-283.5 403,-264.5 303,-264.5"/>
<text text-anchor="middle" x="353" y="-271.5" font-family="Helvetica,sans-Serif" font-size="10.00" fill="#000000">xcs_multi_decision</text>
</a>
</g>
</g>
<!-- Node413&#45;&gt;Node414 -->
<g id="edge26" class="edge">
<title>Node413&#45;&gt;Node414</title>
<path fill="none" stroke="#191970" d="M248.7378,-213.85C262.8245,-224.7577 282.4797,-239.1748 301,-250 310.0992,-255.3185 320.5784,-260.3473 329.7347,-264.4146"/>
<polygon fill="#191970" stroke="#191970" points="250.7732,-210.9981 240.7464,-207.5753 246.4502,-216.5038 250.7732,-210.9981"/>
</g>
<!-- Node415 -->
<g id="node22" class="node">
<title>Node415</title>
<g id="a_node22"><a xlink:href="xcs__single__step_8h.html#a5c1d53976f601ae3603aed34f0767c29" target="_top" xlink:title="Constructs the match set and selects an action to perform. ">
<polygon fill="none" stroke="#000000" points="301,-188.5 301,-207.5 405,-207.5 405,-188.5 301,-188.5"/>
<text text-anchor="middle" x="353" y="-195.5" font-family="Helvetica,sans-Serif" font-size="10.00" fill="#000000">xcs_single_decision</text>
</a>
</g>
</g>
<!-- Node413&#45;&gt;Node415 -->
<g id="edge28" class="edge">
<title>Node413&#45;&gt;Node415</title>
<path fill="none" stroke="#191970" d="M265.7295,-198C276.7661,-198 289.0916,-198 300.9223,-198"/>
<polygon fill="#191970" stroke="#191970" points="265.6011,-194.5001 255.6011,-198 265.6011,-201.5001 265.6011,-194.5001"/>
</g>
<!-- Node414&#45;&gt;Node397 -->
<g id="edge27" class="edge">
<title>Node414&#45;&gt;Node397</title>
<path fill="none" stroke="#191970" d="M413.2898,-274C427.5969,-274 442.5182,-274 455.6847,-274"/>
<polygon fill="#191970" stroke="#191970" points="413.0145,-270.5001 403.0145,-274 413.0144,-277.5001 413.0145,-270.5001"/>
</g>
<!-- Node415&#45;&gt;Node403 -->
<g id="edge31" class="edge">
<title>Node415&#45;&gt;Node403</title>
<path fill="none" stroke="#191970" d="M415.2919,-198C428.2375,-198 441.5926,-198 453.6214,-198"/>
<polygon fill="#191970" stroke="#191970" points="415.0308,-194.5001 405.0308,-198 415.0308,-201.5001 415.0308,-194.5001"/>
</g>
<!-- Node416 -->
<g id="node23" class="node">
<title>Node416</title>
<g id="a_node23"><a xlink:href="structXCS.html#a94d556a5e545ec415d7165d5e91b21d4" target="_top" xlink:title="XCS::single_decision">
<polygon fill="none" stroke="#000000" points="441,-226.5 441,-245.5 551,-245.5 551,-226.5 441,-226.5"/>
<text text-anchor="middle" x="496" y="-233.5" font-family="Helvetica,sans-Serif" font-size="10.00" fill="#000000">XCS::single_decision</text>
</a>
</g>
</g>
<!-- Node415&#45;&gt;Node416 -->
<g id="edge29" class="edge">
<title>Node415&#45;&gt;Node416</title>
<path fill="none" stroke="#191970" d="M398.8133,-210.1742C418.5871,-215.4287 441.3838,-221.4866 459.9266,-226.4141"/>
<polygon fill="#191970" stroke="#191970" points="399.6484,-206.7747 389.0849,-207.589 397.8506,-213.5399 399.6484,-206.7747"/>
</g>
<!-- Node416&#45;&gt;Node402 -->
<g id="edge30" class="edge">
<title>Node416&#45;&gt;Node402</title>
<path fill="none" stroke="#191970" d="M549.2094,-224.1159C599.1758,-212.4514 669.8943,-194.4965 695,-181 738.1143,-157.8223 778.7901,-114.8339 795.7268,-95.6632"/>
<polygon fill="#191970" stroke="#191970" points="548.1522,-220.768 539.1995,-226.4336 549.7313,-227.5876 548.1522,-220.768"/>
</g>
</g>
</svg>
