<?xml version="1.0" encoding="UTF-8" standalone="no"?>
<!DOCTYPE svg PUBLIC "-//W3C//DTD SVG 1.1//EN"
 "http://www.w3.org/Graphics/SVG/1.1/DTD/svg11.dtd">
<!-- Generated by graphviz version 2.40.1 (20161225.0304)
 -->
<!-- Title: cl_print Pages: 1 -->
<svg width="523pt" height="28pt"
 viewBox="0.00 0.00 523.00 28.00" xmlns="http://www.w3.org/2000/svg" xmlns:xlink="http://www.w3.org/1999/xlink">
<g id="graph0" class="graph" transform="scale(1 1) rotate(0) translate(4 24)">
<title>cl_print</title>
<!-- Node399 -->
<g id="node1" class="node">
<title>Node399</title>
<polygon fill="#bfbfbf" stroke="#000000" points="0,-.5 0,-19.5 48,-19.5 48,-.5 0,-.5"/>
<text text-anchor="middle" x="24" y="-7.5" font-family="Helvetica,sans-Serif" font-size="10.00" fill="#000000">cl_print</text>
</g>
<!-- Node400 -->
<g id="node2" class="node">
<title>Node400</title>
<g id="a_node2"><a xlink:href="clset_8h.html#af735b50009ce40e991d187e2c57033d4" target="_top" xlink:title="Prints the classifiers in the set. ">
<polygon fill="none" stroke="#000000" points="84,-.5 84,-19.5 146,-19.5 146,-.5 84,-.5"/>
<text text-anchor="middle" x="115" y="-7.5" font-family="Helvetica,sans-Serif" font-size="10.00" fill="#000000">clset_print</text>
</a>
</g>
</g>
<!-- Node399&#45;&gt;Node400 -->
<g id="edge1" class="edge">
<title>Node399&#45;&gt;Node400</title>
<path fill="none" stroke="#191970" d="M58.4999,-10C66.7727,-10 75.5615,-10 83.681,-10"/>
<polygon fill="#191970" stroke="#191970" points="58.3864,-6.5001 48.3863,-10 58.3863,-13.5001 58.3864,-6.5001"/>
</g>
<!-- Node401 -->
<g id="node3" class="node">
<title>Node401</title>
<g id="a_node3"><a xlink:href="xcsf_8h.html#a84d6ba23771186ab252b9120f87f9eac" target="_top" xlink:title="Prints the current XCSF population. ">
<polygon fill="none" stroke="#000000" points="182,-.5 182,-19.5 262,-19.5 262,-.5 182,-.5"/>
<text text-anchor="middle" x="222" y="-7.5" font-family="Helvetica,sans-Serif" font-size="10.00" fill="#000000">xcsf_print_pop</text>
</a>
</g>
</g>
<!-- Node400&#45;&gt;Node401 -->
<g id="edge2" class="edge">
<title>Node400&#45;&gt;Node401</title>
<path fill="none" stroke="#191970" d="M156.4724,-10C164.7766,-10 173.4884,-10 181.7504,-10"/>
<polygon fill="#191970" stroke="#191970" points="156.2365,-6.5001 146.2365,-10 156.2364,-13.5001 156.2365,-6.5001"/>
</g>
<!-- Node402 -->
<g id="node4" class="node">
<title>Node402</title>
<g id="a_node4"><a xlink:href="classXCS.html#a17153434b6e3310591eafb94e81cda9a" target="_top" xlink:title="XCS::print_pop">
<polygon fill="none" stroke="#000000" points="298,-.5 298,-19.5 381,-19.5 381,-.5 298,-.5"/>
<text text-anchor="middle" x="339.5" y="-7.5" font-family="Helvetica,sans-Serif" font-size="10.00" fill="#000000">XCS::print_pop</text>
</a>
</g>
</g>
<!-- Node401&#45;&gt;Node402 -->
<g id="edge3" class="edge">
<title>Node401&#45;&gt;Node402</title>
<path fill="none" stroke="#191970" d="M272.3595,-10C280.9028,-10 289.6879,-10 297.9719,-10"/>
<polygon fill="#191970" stroke="#191970" points="272.1082,-6.5001 262.1082,-10 272.1082,-13.5001 272.1082,-6.5001"/>
</g>
<!-- Node403 -->
<g id="node5" class="node">
<title>Node403</title>
<g id="a_node5"><a xlink:href="pybind__wrapper_8cpp.html#a9f26280e01308c4674f2473fb6f78730" target="_top" xlink:title="pybind11_init_xcsf">
<polygon fill="none" stroke="#000000" points="417,-.5 417,-19.5 515,-19.5 515,-.5 417,-.5"/>
<text text-anchor="middle" x="466" y="-7.5" font-family="Helvetica,sans-Serif" font-size="10.00" fill="#000000">pybind11_init_xcsf</text>
</a>
</g>
</g>
<!-- Node402&#45;&gt;Node403 -->
<g id="edge4" class="edge">
<title>Node402&#45;&gt;Node403</title>
<path fill="none" stroke="#191970" d="M391.3535,-10C399.7664,-10 408.4575,-10 416.8046,-10"/>
<polygon fill="#191970" stroke="#191970" points="391.2715,-6.5001 381.2714,-10 391.2714,-13.5001 391.2715,-6.5001"/>
</g>
</g>
</svg>
