<?xml version="1.0" encoding="UTF-8" standalone="no"?>
<!DOCTYPE svg PUBLIC "-//W3C//DTD SVG 1.1//EN"
 "http://www.w3.org/Graphics/SVG/1.1/DTD/svg11.dtd">
<!-- Generated by graphviz version 2.40.1 (20161225.0304)
 -->
<!-- Title: cl.h Pages: 1 -->
<svg width="1812pt" height="84pt"
 viewBox="0.00 0.00 1811.50 84.00" xmlns="http://www.w3.org/2000/svg" xmlns:xlink="http://www.w3.org/1999/xlink">
<g id="graph0" class="graph" transform="scale(1 1) rotate(0) translate(4 80)">
<title>cl.h</title>
<!-- Node1 -->
<g id="node1" class="node">
<title>Node1</title>
<polygon fill="#bfbfbf" stroke="#000000" points="843,-56.5 843,-75.5 875,-75.5 875,-56.5 843,-56.5"/>
<text text-anchor="middle" x="859" y="-63.5" font-family="Helvetica,sans-Serif" font-size="10.00" fill="#000000">cl.h</text>
</g>
<!-- Node2 -->
<g id="node2" class="node">
<title>Node2</title>
<g id="a_node2"><a xlink:href="cl_8c.html" target="_top" xlink:title="Functions operating on classifiers. ">
<polygon fill="none" stroke="#000000" points="0,-.5 0,-19.5 32,-19.5 32,-.5 0,-.5"/>
<text text-anchor="middle" x="16" y="-7.5" font-family="Helvetica,sans-Serif" font-size="10.00" fill="#000000">cl.c</text>
</a>
</g>
</g>
<!-- Node1&#45;&gt;Node2 -->
<g id="edge1" class="edge">
<title>Node1&#45;&gt;Node2</title>
<path fill="none" stroke="#191970" d="M832.3582,-65.6584C709.5067,-63.9066 197.0343,-54.6206 41,-20 38.0793,-19.352 35.0564,-18.4029 32.165,-17.3439"/>
<polygon fill="#191970" stroke="#191970" points="832.6547,-69.1627 842.702,-65.801 832.7512,-62.1634 832.6547,-69.1627"/>
</g>
<!-- Node3 -->
<g id="node3" class="node">
<title>Node3</title>
<g id="a_node3"><a xlink:href="clset_8c.html" target="_top" xlink:title="Functions operating on sets of classifiers. ">
<polygon fill="none" stroke="#000000" points="50,-.5 50,-19.5 96,-19.5 96,-.5 50,-.5"/>
<text text-anchor="middle" x="73" y="-7.5" font-family="Helvetica,sans-Serif" font-size="10.00" fill="#000000">clset.c</text>
</a>
</g>
</g>
<!-- Node1&#45;&gt;Node3 -->
<g id="edge2" class="edge">
<title>Node1&#45;&gt;Node3</title>
<path fill="none" stroke="#191970" d="M832.6589,-65.2478C716.4677,-61.7989 249.1629,-46.5176 105,-20 102.1378,-19.4735 99.1729,-18.7712 96.2546,-17.9819"/>
<polygon fill="#191970" stroke="#191970" points="832.6861,-68.75 842.7844,-65.5446 832.8913,-61.753 832.6861,-68.75"/>
</g>
<!-- Node4 -->
<g id="node4" class="node">
<title>Node4</title>
<g id="a_node4"><a xlink:href="cond__dgp_8c.html" target="_top" xlink:title="Dynamical GP graph condition functions. ">
<polygon fill="none" stroke="#000000" points="114.5,-.5 114.5,-19.5 181.5,-19.5 181.5,-.5 114.5,-.5"/>
<text text-anchor="middle" x="148" y="-7.5" font-family="Helvetica,sans-Serif" font-size="10.00" fill="#000000">cond_dgp.c</text>
</a>
</g>
</g>
<!-- Node1&#45;&gt;Node4 -->
<g id="edge3" class="edge">
<title>Node1&#45;&gt;Node4</title>
<path fill="none" stroke="#191970" d="M832.703,-65.7479C742.5759,-64.5539 438.0359,-57.7908 190,-20 187.3324,-19.5936 184.5845,-19.1037 181.8316,-18.5619"/>
<polygon fill="#191970" stroke="#191970" points="832.8002,-69.2493 842.8417,-65.8701 832.8847,-62.2498 832.8002,-69.2493"/>
</g>
<!-- Node5 -->
<g id="node5" class="node">
<title>Node5</title>
<g id="a_node5"><a xlink:href="cond__dummy_8c.html" target="_top" xlink:title="Always&#45;matching dummy condition functions. ">
<polygon fill="none" stroke="#000000" points="199.5,-.5 199.5,-19.5 282.5,-19.5 282.5,-.5 199.5,-.5"/>
<text text-anchor="middle" x="241" y="-7.5" font-family="Helvetica,sans-Serif" font-size="10.00" fill="#000000">cond_dummy.c</text>
</a>
</g>
</g>
<!-- Node1&#45;&gt;Node5 -->
<g id="edge4" class="edge">
<title>Node1&#45;&gt;Node5</title>
<path fill="none" stroke="#191970" d="M832.3724,-64.9072C751.0651,-61.342 498.9627,-48.5931 292,-20 288.9611,-19.5802 285.8299,-19.0955 282.6843,-18.5705"/>
<polygon fill="#191970" stroke="#191970" points="832.5483,-68.4179 842.6892,-65.35 832.8485,-61.4243 832.5483,-68.4179"/>
</g>
<!-- Node6 -->
<g id="node6" class="node">
<title>Node6</title>
<g id="a_node6"><a xlink:href="cond__ellipsoid_8c.html" target="_top" xlink:title="Hyperellipsoid condition functions. ">
<polygon fill="none" stroke="#000000" points="301,-.5 301,-19.5 387,-19.5 387,-.5 301,-.5"/>
<text text-anchor="middle" x="344" y="-7.5" font-family="Helvetica,sans-Serif" font-size="10.00" fill="#000000">cond_ellipsoid.c</text>
</a>
</g>
</g>
<!-- Node1&#45;&gt;Node6 -->
<g id="edge5" class="edge">
<title>Node1&#45;&gt;Node6</title>
<path fill="none" stroke="#191970" d="M832.7198,-64.2308C761.927,-59.2833 561.4108,-44.0709 396,-20 393.0888,-19.5764 390.093,-19.1024 387.0791,-18.5973"/>
<polygon fill="#191970" stroke="#191970" points="832.7252,-67.7394 842.9426,-64.9365 833.2074,-60.756 832.7252,-67.7394"/>
</g>
<!-- Node7 -->
<g id="node7" class="node">
<title>Node7</title>
<g id="a_node7"><a xlink:href="cond__gp_8c.html" target="_top" xlink:title="Tree GP condition functions. ">
<polygon fill="none" stroke="#000000" points="405,-.5 405,-19.5 467,-19.5 467,-.5 405,-.5"/>
<text text-anchor="middle" x="436" y="-7.5" font-family="Helvetica,sans-Serif" font-size="10.00" fill="#000000">cond_gp.c</text>
</a>
</g>
</g>
<!-- Node1&#45;&gt;Node7 -->
<g id="edge6" class="edge">
<title>Node1&#45;&gt;Node7</title>
<path fill="none" stroke="#191970" d="M832.7118,-63.9871C770.3962,-58.9673 608.9609,-44.5048 476,-20 473.1842,-19.481 470.2717,-18.8801 467.3616,-18.2355"/>
<polygon fill="#191970" stroke="#191970" points="832.5915,-67.4885 842.8367,-64.7893 833.1445,-60.5104 832.5915,-67.4885"/>
</g>
<!-- Node8 -->
<g id="node8" class="node">
<title>Node8</title>
<g id="a_node8"><a xlink:href="cond__neural_8c.html" target="_top" xlink:title="Multi&#45;layer perceptron neural network condition functions. ">
<polygon fill="none" stroke="#000000" points="485.5,-.5 485.5,-19.5 562.5,-19.5 562.5,-.5 485.5,-.5"/>
<text text-anchor="middle" x="524" y="-7.5" font-family="Helvetica,sans-Serif" font-size="10.00" fill="#000000">cond_neural.c</text>
</a>
</g>
</g>
<!-- Node1&#45;&gt;Node8 -->
<g id="edge7" class="edge">
<title>Node1&#45;&gt;Node8</title>
<path fill="none" stroke="#191970" d="M832.5955,-62.2452C781.7989,-54.9194 666.9985,-37.867 571,-20 568.2935,-19.4963 565.5038,-18.9562 562.6973,-18.3976"/>
<polygon fill="#191970" stroke="#191970" points="832.3148,-65.7407 842.7106,-63.6972 833.3094,-58.8117 832.3148,-65.7407"/>
</g>
<!-- Node9 -->
<g id="node9" class="node">
<title>Node9</title>
<g id="a_node9"><a xlink:href="cond__rectangle_8c.html" target="_top" xlink:title="Hyperrectangle condition functions. ">
<polygon fill="none" stroke="#000000" points="580.5,-.5 580.5,-19.5 671.5,-19.5 671.5,-.5 580.5,-.5"/>
<text text-anchor="middle" x="626" y="-7.5" font-family="Helvetica,sans-Serif" font-size="10.00" fill="#000000">cond_rectangle.c</text>
</a>
</g>
</g>
<!-- Node1&#45;&gt;Node9 -->
<g id="edge8" class="edge">
<title>Node1&#45;&gt;Node9</title>
<path fill="none" stroke="#191970" d="M833.0623,-59.766C792.4428,-50.0034 713.5339,-31.0382 665.7233,-19.5472"/>
<polygon fill="#191970" stroke="#191970" points="832.4439,-63.217 842.985,-62.1509 834.0798,-56.4108 832.4439,-63.217"/>
</g>
<!-- Node10 -->
<g id="node10" class="node">
<title>Node10</title>
<g id="a_node10"><a xlink:href="cond__ternary_8c.html" target="_top" xlink:title="Ternary condition functions. ">
<polygon fill="none" stroke="#000000" points="689.5,-.5 689.5,-19.5 770.5,-19.5 770.5,-.5 689.5,-.5"/>
<text text-anchor="middle" x="730" y="-7.5" font-family="Helvetica,sans-Serif" font-size="10.00" fill="#000000">cond_ternary.c</text>
</a>
</g>
</g>
<!-- Node1&#45;&gt;Node10 -->
<g id="edge9" class="edge">
<title>Node1&#45;&gt;Node10</title>
<path fill="none" stroke="#191970" d="M833.4767,-54.9201C809.6509,-44.5771 774.4721,-29.3057 751.8945,-19.5046"/>
<polygon fill="#191970" stroke="#191970" points="832.3562,-58.2492 842.9229,-59.0208 835.1437,-51.8281 832.3562,-58.2492"/>
</g>
<!-- Node11 -->
<g id="node11" class="node">
<title>Node11</title>
<g id="a_node11"><a xlink:href="ea_8c.html" target="_top" xlink:title="Evolutionary algorithm functions. ">
<polygon fill="none" stroke="#000000" points="788.5,-.5 788.5,-19.5 823.5,-19.5 823.5,-.5 788.5,-.5"/>
<text text-anchor="middle" x="806" y="-7.5" font-family="Helvetica,sans-Serif" font-size="10.00" fill="#000000">ea.c</text>
</a>
</g>
</g>
<!-- Node1&#45;&gt;Node11 -->
<g id="edge10" class="edge">
<title>Node1&#45;&gt;Node11</title>
<path fill="none" stroke="#191970" d="M842.7104,-48.7884C833.6438,-39.2085 822.6946,-27.6396 815.1261,-19.6427"/>
<polygon fill="#191970" stroke="#191970" points="840.3522,-51.3884 849.7681,-56.2455 845.4363,-46.5767 840.3522,-51.3884"/>
</g>
<!-- Node12 -->
<g id="node12" class="node">
<title>Node12</title>
<g id="a_node12"><a xlink:href="pa_8c.html" target="_top" xlink:title="Prediction array functions. ">
<polygon fill="none" stroke="#000000" points="841.5,-.5 841.5,-19.5 876.5,-19.5 876.5,-.5 841.5,-.5"/>
<text text-anchor="middle" x="859" y="-7.5" font-family="Helvetica,sans-Serif" font-size="10.00" fill="#000000">pa.c</text>
</a>
</g>
</g>
<!-- Node1&#45;&gt;Node12 -->
<g id="edge11" class="edge">
<title>Node1&#45;&gt;Node12</title>
<path fill="none" stroke="#191970" d="M859,-46.1575C859,-37.155 859,-26.9199 859,-19.6427"/>
<polygon fill="#191970" stroke="#191970" points="855.5001,-46.2455 859,-56.2455 862.5001,-46.2456 855.5001,-46.2455"/>
</g>
<!-- Node13 -->
<g id="node13" class="node">
<title>Node13</title>
<g id="a_node13"><a xlink:href="perf_8c.html" target="_top" xlink:title="System performance printing. ">
<polygon fill="none" stroke="#000000" points="894.5,-.5 894.5,-19.5 935.5,-19.5 935.5,-.5 894.5,-.5"/>
<text text-anchor="middle" x="915" y="-7.5" font-family="Helvetica,sans-Serif" font-size="10.00" fill="#000000">perf.c</text>
</a>
</g>
</g>
<!-- Node1&#45;&gt;Node13 -->
<g id="edge12" class="edge">
<title>Node1&#45;&gt;Node13</title>
<path fill="none" stroke="#191970" d="M875.9249,-49.0751C885.5598,-39.4402 897.2804,-27.7196 905.3573,-19.6427"/>
<polygon fill="#191970" stroke="#191970" points="873.3507,-46.6996 868.7545,-56.2455 878.3004,-51.6493 873.3507,-46.6996"/>
</g>
<!-- Node14 -->
<g id="node14" class="node">
<title>Node14</title>
<g id="a_node14"><a xlink:href="pred__constant_8c.html" target="_top" xlink:title="Piece&#45;wise constant prediction functions. ">
<polygon fill="none" stroke="#000000" points="954,-.5 954,-19.5 1040,-19.5 1040,-.5 954,-.5"/>
<text text-anchor="middle" x="997" y="-7.5" font-family="Helvetica,sans-Serif" font-size="10.00" fill="#000000">pred_constant.c</text>
</a>
</g>
</g>
<!-- Node1&#45;&gt;Node14 -->
<g id="edge13" class="edge">
<title>Node1&#45;&gt;Node14</title>
<path fill="none" stroke="#191970" d="M884.4275,-55.6816C909.7701,-45.3977 948.3855,-29.7276 973.1567,-19.6756"/>
<polygon fill="#191970" stroke="#191970" points="883.0505,-52.4631 875.1004,-59.4665 885.6827,-58.9494 883.0505,-52.4631"/>
</g>
<!-- Node15 -->
<g id="node15" class="node">
<title>Node15</title>
<g id="a_node15"><a xlink:href="pred__neural_8c.html" target="_top" xlink:title="Multi&#45;layer perceptron neural network prediction functions. ">
<polygon fill="none" stroke="#000000" points="1058.5,-.5 1058.5,-19.5 1133.5,-19.5 1133.5,-.5 1058.5,-.5"/>
<text text-anchor="middle" x="1096" y="-7.5" font-family="Helvetica,sans-Serif" font-size="10.00" fill="#000000">pred_neural.c</text>
</a>
</g>
</g>
<!-- Node1&#45;&gt;Node15 -->
<g id="edge14" class="edge">
<title>Node1&#45;&gt;Node15</title>
<path fill="none" stroke="#191970" d="M885.0363,-59.848C927.0124,-49.9296 1009.8245,-30.3621 1058.2706,-18.915"/>
<polygon fill="#191970" stroke="#191970" points="884.2171,-56.4451 875.29,-62.1509 885.8269,-63.2575 884.2171,-56.4451"/>
</g>
<!-- Node16 -->
<g id="node16" class="node">
<title>Node16</title>
<g id="a_node16"><a xlink:href="pred__nlms_8c.html" target="_top" xlink:title="Normalised least mean squares prediction functions. ">
<polygon fill="none" stroke="#000000" points="1152,-.5 1152,-19.5 1222,-19.5 1222,-.5 1152,-.5"/>
<text text-anchor="middle" x="1187" y="-7.5" font-family="Helvetica,sans-Serif" font-size="10.00" fill="#000000">pred_nlms.c</text>
</a>
</g>
</g>
<!-- Node1&#45;&gt;Node16 -->
<g id="edge15" class="edge">
<title>Node1&#45;&gt;Node16</title>
<path fill="none" stroke="#191970" d="M885.058,-62.3395C935.1835,-55.1742 1048.4457,-38.3835 1143,-20 1145.9221,-19.4319 1148.9462,-18.8121 1151.9776,-18.1685"/>
<polygon fill="#191970" stroke="#191970" points="884.4842,-58.8858 875.0762,-63.7581 885.4692,-65.8161 884.4842,-58.8858"/>
</g>
<!-- Node17 -->
<g id="node17" class="node">
<title>Node17</title>
<g id="a_node17"><a xlink:href="pred__rls_8c.html" target="_top" xlink:title="Recursive least mean squares prediction functions. ">
<polygon fill="none" stroke="#000000" points="1240.5,-.5 1240.5,-19.5 1299.5,-19.5 1299.5,-.5 1240.5,-.5"/>
<text text-anchor="middle" x="1270" y="-7.5" font-family="Helvetica,sans-Serif" font-size="10.00" fill="#000000">pred_rls.c</text>
</a>
</g>
</g>
<!-- Node1&#45;&gt;Node17 -->
<g id="edge16" class="edge">
<title>Node1&#45;&gt;Node17</title>
<path fill="none" stroke="#191970" d="M885.3463,-63.9094C946.4646,-58.8061 1102.4858,-44.3185 1231,-20 1234.0219,-19.4282 1237.1571,-18.7575 1240.2775,-18.0388"/>
<polygon fill="#191970" stroke="#191970" points="884.7467,-60.4468 875.0667,-64.7534 885.3195,-67.4233 884.7467,-60.4468"/>
</g>
<!-- Node18 -->
<g id="node18" class="node">
<title>Node18</title>
<g id="a_node18"><a xlink:href="rule__dgp_8c.html" target="_top" xlink:title="Dynamical GP graph rule (condition + action) functions. ">
<polygon fill="none" stroke="#000000" points="1318,-.5 1318,-19.5 1380,-19.5 1380,-.5 1318,-.5"/>
<text text-anchor="middle" x="1349" y="-7.5" font-family="Helvetica,sans-Serif" font-size="10.00" fill="#000000">rule_dgp.c</text>
</a>
</g>
</g>
<!-- Node1&#45;&gt;Node18 -->
<g id="edge17" class="edge">
<title>Node1&#45;&gt;Node18</title>
<path fill="none" stroke="#191970" d="M885.0959,-64.6417C954.5107,-60.7468 1149.2985,-47.977 1309,-20 1311.8203,-19.5059 1314.7358,-18.9221 1317.648,-18.2887"/>
<polygon fill="#191970" stroke="#191970" points="884.8499,-61.1498 875.0563,-65.1916 885.2328,-68.1394 884.8499,-61.1498"/>
</g>
<!-- Node19 -->
<g id="node19" class="node">
<title>Node19</title>
<g id="a_node19"><a xlink:href="rule__neural_8c.html" target="_top" xlink:title="Neural network rule (condition + action) functions. ">
<polygon fill="none" stroke="#000000" points="1398,-.5 1398,-19.5 1470,-19.5 1470,-.5 1398,-.5"/>
<text text-anchor="middle" x="1434" y="-7.5" font-family="Helvetica,sans-Serif" font-size="10.00" fill="#000000">rule_neural.c</text>
</a>
</g>
</g>
<!-- Node1&#45;&gt;Node19 -->
<g id="edge18" class="edge">
<title>Node1&#45;&gt;Node19</title>
<path fill="none" stroke="#191970" d="M885.4366,-64.9422C963.0984,-61.5698 1197.1492,-49.5102 1389,-20 1391.8476,-19.562 1394.7842,-19.0494 1397.7285,-18.4919"/>
<polygon fill="#191970" stroke="#191970" points="884.9799,-61.4583 875.1368,-65.3778 885.2757,-68.452 884.9799,-61.4583"/>
</g>
<!-- Node20 -->
<g id="node20" class="node">
<title>Node20</title>
<g id="a_node20"><a xlink:href="xcs__multi__step_8c.html" target="_top" xlink:title="Multi&#45;step reinforcement learning functions. ">
<polygon fill="none" stroke="#000000" points="1488.5,-.5 1488.5,-19.5 1579.5,-19.5 1579.5,-.5 1488.5,-.5"/>
<text text-anchor="middle" x="1534" y="-7.5" font-family="Helvetica,sans-Serif" font-size="10.00" fill="#000000">xcs_multi_step.c</text>
</a>
</g>
</g>
<!-- Node1&#45;&gt;Node20 -->
<g id="edge19" class="edge">
<title>Node1&#45;&gt;Node20</title>
<path fill="none" stroke="#191970" d="M885.5256,-65.0364C971.5195,-61.698 1250.2686,-49.1958 1479,-20 1482.0807,-19.6068 1485.2505,-19.1556 1488.4392,-18.6671"/>
<polygon fill="#191970" stroke="#191970" points="885.2088,-61.5458 875.349,-65.4232 885.4748,-68.5407 885.2088,-61.5458"/>
</g>
<!-- Node21 -->
<g id="node21" class="node">
<title>Node21</title>
<g id="a_node21"><a xlink:href="xcs__single__step_8c.html" target="_top" xlink:title="Single&#45;step reinforcement learning functions. ">
<polygon fill="none" stroke="#000000" points="1597.5,-.5 1597.5,-19.5 1692.5,-19.5 1692.5,-.5 1597.5,-.5"/>
<text text-anchor="middle" x="1645" y="-7.5" font-family="Helvetica,sans-Serif" font-size="10.00" fill="#000000">xcs_single_step.c</text>
</a>
</g>
</g>
<!-- Node1&#45;&gt;Node21 -->
<g id="edge20" class="edge">
<title>Node1&#45;&gt;Node21</title>
<path fill="none" stroke="#191970" d="M885.4156,-65.4208C980.6524,-63.1023 1315.2211,-52.962 1589,-20 1591.7455,-19.6695 1594.5603,-19.2916 1597.3964,-18.8807"/>
<polygon fill="#191970" stroke="#191970" points="885.1621,-61.9257 875.2474,-65.6603 885.3271,-68.9237 885.1621,-61.9257"/>
</g>
<!-- Node22 -->
<g id="node22" class="node">
<title>Node22</title>
<g id="a_node22"><a xlink:href="xcs__supervised_8c.html" target="_top" xlink:title="Supervised regression learning functions. ">
<polygon fill="none" stroke="#000000" points="1710.5,-.5 1710.5,-19.5 1803.5,-19.5 1803.5,-.5 1710.5,-.5"/>
<text text-anchor="middle" x="1757" y="-7.5" font-family="Helvetica,sans-Serif" font-size="10.00" fill="#000000">xcs_supervised.c</text>
</a>
</g>
</g>
<!-- Node1&#45;&gt;Node22 -->
<g id="edge21" class="edge">
<title>Node1&#45;&gt;Node22</title>
<path fill="none" stroke="#191970" d="M885.3465,-65.7632C989.4094,-64.5744 1381.776,-57.6976 1702,-20 1704.6988,-19.6823 1707.4652,-19.3144 1710.2521,-18.9112"/>
<polygon fill="#191970" stroke="#191970" points="885.0992,-62.2655 875.137,-65.8717 885.1736,-69.2651 885.0992,-62.2655"/>
</g>
</g>
</svg>
