<?xml version="1.0" encoding="UTF-8" standalone="no"?>
<!DOCTYPE svg PUBLIC "-//W3C//DTD SVG 1.1//EN"
 "http://www.w3.org/Graphics/SVG/1.1/DTD/svg11.dtd">
<!-- Generated by graphviz version 2.40.1 (20161225.0304)
 -->
<!-- Title: cl_mutation_rate Pages: 1 -->
<svg width="796pt" height="185pt"
 viewBox="0.00 0.00 796.00 185.00" xmlns="http://www.w3.org/2000/svg" xmlns:xlink="http://www.w3.org/1999/xlink">
<g id="graph0" class="graph" transform="scale(1 1) rotate(0) translate(4 181)">
<title>cl_mutation_rate</title>
<!-- Node386 -->
<g id="node1" class="node">
<title>Node386</title>
<polygon fill="#bfbfbf" stroke="#000000" points="0,-57.5 0,-76.5 89,-76.5 89,-57.5 0,-57.5"/>
<text text-anchor="middle" x="44.5" y="-64.5" font-family="Helvetica,sans-Serif" font-size="10.00" fill="#000000">cl_mutation_rate</text>
</g>
<!-- Node387 -->
<g id="node2" class="node">
<title>Node387</title>
<g id="a_node2"><a xlink:href="cl__set_8h.html#a81227ac29f572c4dce57d5fed7ac2517" target="_top" xlink:title="Calculates the mean mutation rate of classifiers in the set. ">
<polygon fill="none" stroke="#000000" points="125,-57.5 125,-76.5 198,-76.5 198,-57.5 125,-57.5"/>
<text text-anchor="middle" x="161.5" y="-64.5" font-family="Helvetica,sans-Serif" font-size="10.00" fill="#000000">set_avg_mut</text>
</a>
</g>
</g>
<!-- Node386&#45;&gt;Node387 -->
<g id="edge1" class="edge">
<title>Node386&#45;&gt;Node387</title>
<path fill="none" stroke="#191970" d="M99.1267,-67C107.7798,-67 116.5465,-67 124.6649,-67"/>
<polygon fill="#191970" stroke="#191970" points="99.0665,-63.5001 89.0664,-67 99.0664,-70.5001 99.0665,-63.5001"/>
</g>
<!-- Node388 -->
<g id="node3" class="node">
<title>Node388</title>
<g id="a_node3"><a xlink:href="perf_8h.html#ab8a54728a7f58890e6c7001969254d16" target="_top" xlink:title="gplot_free">
<polygon fill="none" stroke="#000000" points="263.5,-76.5 263.5,-95.5 322.5,-95.5 322.5,-76.5 263.5,-76.5"/>
<text text-anchor="middle" x="293" y="-83.5" font-family="Helvetica,sans-Serif" font-size="10.00" fill="#000000">gplot_free</text>
</a>
</g>
</g>
<!-- Node387&#45;&gt;Node388 -->
<g id="edge2" class="edge">
<title>Node387&#45;&gt;Node388</title>
<path fill="none" stroke="#191970" d="M208.0547,-73.7265C226.3971,-76.3768 246.9241,-79.3427 263.2043,-81.6949"/>
<polygon fill="#191970" stroke="#191970" points="208.5278,-70.2586 198.1301,-72.2926 207.5268,-77.1867 208.5278,-70.2586"/>
</g>
<!-- Node399 -->
<g id="node14" class="node">
<title>Node399</title>
<g id="a_node14"><a xlink:href="perf_8h.html#a6951afc97f1e102dda5b0e88fd626602" target="_top" xlink:title="disp_perf1">
<polygon fill="none" stroke="#000000" points="262,-38.5 262,-57.5 324,-57.5 324,-38.5 262,-38.5"/>
<text text-anchor="middle" x="293" y="-45.5" font-family="Helvetica,sans-Serif" font-size="10.00" fill="#000000">disp_perf1</text>
</a>
</g>
</g>
<!-- Node387&#45;&gt;Node399 -->
<g id="edge16" class="edge">
<title>Node387&#45;&gt;Node399</title>
<path fill="none" stroke="#191970" d="M208.3266,-60.2342C226.1161,-57.6638 245.9259,-54.8016 261.9092,-52.4922"/>
<polygon fill="#191970" stroke="#191970" points="207.5268,-56.8133 198.1301,-61.7074 208.5278,-63.7414 207.5268,-56.8133"/>
</g>
<!-- Node400 -->
<g id="node15" class="node">
<title>Node400</title>
<g id="a_node15"><a xlink:href="perf_8h.html#ada9784544f0b0c0b2690427ce3b21949" target="_top" xlink:title="disp_perf2">
<polygon fill="none" stroke="#000000" points="262,-132.5 262,-151.5 324,-151.5 324,-132.5 262,-132.5"/>
<text text-anchor="middle" x="293" y="-139.5" font-family="Helvetica,sans-Serif" font-size="10.00" fill="#000000">disp_perf2</text>
</a>
</g>
</g>
<!-- Node387&#45;&gt;Node400 -->
<g id="edge18" class="edge">
<title>Node387&#45;&gt;Node400</title>
<path fill="none" stroke="#191970" d="M179.3246,-83.6267C193.302,-95.9241 213.7216,-112.3235 234,-123 242.665,-127.5621 252.6248,-131.2816 261.8641,-134.1811"/>
<polygon fill="#191970" stroke="#191970" points="181.285,-80.6818 171.5131,-76.5878 176.5991,-85.8821 181.285,-80.6818"/>
</g>
<!-- Node401 -->
<g id="node16" class="node">
<title>Node401</title>
<g id="a_node16"><a xlink:href="structXCS.html#a83114eb6066038b9350a906ad1ab988b" target="_top" xlink:title="XCS::get_pop_avg_mu">
<polygon fill="none" stroke="#000000" points="234,-.5 234,-19.5 352,-19.5 352,-.5 234,-.5"/>
<text text-anchor="middle" x="293" y="-7.5" font-family="Helvetica,sans-Serif" font-size="10.00" fill="#000000">XCS::get_pop_avg_mu</text>
</a>
</g>
</g>
<!-- Node387&#45;&gt;Node401 -->
<g id="edge22" class="edge">
<title>Node387&#45;&gt;Node401</title>
<path fill="none" stroke="#191970" d="M186.654,-52.4541C200.3736,-44.871 217.8155,-35.7885 234,-29 242.2365,-25.5452 251.3341,-22.3334 259.8686,-19.5702"/>
<polygon fill="#191970" stroke="#191970" points="184.8184,-49.4707 177.8118,-57.4179 188.2451,-55.5747 184.8184,-49.4707"/>
</g>
<!-- Node388&#45;&gt;Node388 -->
<g id="edge3" class="edge">
<title>Node388&#45;&gt;Node388</title>
<path fill="none" stroke="#191970" d="M268.8186,-105.0292C270.1376,-110.128 278.1981,-114 293,-114 316.1055,-114 322.7844,-104.5653 313.0368,-95.7571"/>
<polygon fill="#191970" stroke="#191970" points="272.0776,-106.3148 272.9632,-95.7571 265.687,-103.4582 272.0776,-106.3148"/>
</g>
<!-- Node389 -->
<g id="node4" class="node">
<title>Node389</title>
<g id="a_node4"><a xlink:href="xcs__multi__step_8h.html#acc29d4a55dbd56c16ea5f19f15a7c677" target="_top" xlink:title="Executes a multi&#45;step reinforcement learning experiment. ">
<polygon fill="none" stroke="#000000" points="390,-114.5 390,-133.5 494,-133.5 494,-114.5 390,-114.5"/>
<text text-anchor="middle" x="442" y="-121.5" font-family="Helvetica,sans-Serif" font-size="10.00" fill="#000000">xcs_multi_step_exp</text>
</a>
</g>
</g>
<!-- Node388&#45;&gt;Node389 -->
<g id="edge4" class="edge">
<title>Node388&#45;&gt;Node389</title>
<path fill="none" stroke="#191970" d="M332.6266,-96.1061C354.939,-101.7965 382.6406,-108.8614 404.5821,-114.4572"/>
<polygon fill="#191970" stroke="#191970" points="333.3491,-92.6784 322.7943,-93.5985 331.6191,-99.4613 333.3491,-92.6784"/>
</g>
<!-- Node392 -->
<g id="node7" class="node">
<title>Node392</title>
<g id="a_node7"><a xlink:href="xcs__single__step_8h.html#a39a031bf59eaa9b33e30e614610dcda8" target="_top" xlink:title="Executes a single&#45;step experiment. ">
<polygon fill="none" stroke="#000000" points="388,-76.5 388,-95.5 496,-95.5 496,-76.5 388,-76.5"/>
<text text-anchor="middle" x="442" y="-83.5" font-family="Helvetica,sans-Serif" font-size="10.00" fill="#000000">xcs_single_step_exp</text>
</a>
</g>
</g>
<!-- Node388&#45;&gt;Node392 -->
<g id="edge7" class="edge">
<title>Node388&#45;&gt;Node392</title>
<path fill="none" stroke="#191970" d="M332.8641,-86C349.7387,-86 369.6628,-86 387.838,-86"/>
<polygon fill="#191970" stroke="#191970" points="332.7943,-82.5001 322.7943,-86 332.7942,-89.5001 332.7943,-82.5001"/>
</g>
<!-- Node393 -->
<g id="node8" class="node">
<title>Node393</title>
<g id="a_node8"><a xlink:href="xcsf_8h.html#a874829f28fee20f9ad15b540f4b4d6ff" target="_top" xlink:title="Executes MAX_TRIALS number of XCSF learning iterations using the training data. ">
<polygon fill="none" stroke="#000000" points="415,-38.5 415,-57.5 469,-57.5 469,-38.5 415,-38.5"/>
<text text-anchor="middle" x="442" y="-45.5" font-family="Helvetica,sans-Serif" font-size="10.00" fill="#000000">xcsf_fit1</text>
</a>
</g>
</g>
<!-- Node388&#45;&gt;Node393 -->
<g id="edge9" class="edge">
<title>Node388&#45;&gt;Node393</title>
<path fill="none" stroke="#191970" d="M332.6941,-75.8767C358.6192,-69.2649 391.7978,-60.8033 414.7659,-54.9456"/>
<polygon fill="#191970" stroke="#191970" points="331.6191,-72.5387 322.7943,-78.4015 333.3491,-79.3216 331.6191,-72.5387"/>
</g>
<!-- Node396 -->
<g id="node11" class="node">
<title>Node396</title>
<g id="a_node11"><a xlink:href="xcsf_8h.html#a0b4de57cb9dadc9deca7901aa36e5025" target="_top" xlink:title="Executes MAX_TRIALS number of XCSF learning iterations using the training. data and test iterations u...">
<polygon fill="none" stroke="#000000" points="415,-152.5 415,-171.5 469,-171.5 469,-152.5 415,-152.5"/>
<text text-anchor="middle" x="442" y="-159.5" font-family="Helvetica,sans-Serif" font-size="10.00" fill="#000000">xcsf_fit2</text>
</a>
</g>
</g>
<!-- Node388&#45;&gt;Node396 -->
<g id="edge12" class="edge">
<title>Node388&#45;&gt;Node396</title>
<path fill="none" stroke="#191970" d="M316.8912,-101.0909C340.1635,-115.6519 374.0158,-136.4272 388,-143 396.5447,-147.0161 406.184,-150.668 414.9288,-153.673"/>
<polygon fill="#191970" stroke="#191970" points="318.5842,-98.0212 308.2539,-95.6685 314.8623,-103.9498 318.5842,-98.0212"/>
</g>
<!-- Node390 -->
<g id="node5" class="node">
<title>Node390</title>
<g id="a_node5"><a xlink:href="main_8c.html#ab572a67aa431827116ebd6931d667d21" target="_top" xlink:title="classification">
<polygon fill="none" stroke="#000000" points="532,-81.5 532,-100.5 606,-100.5 606,-81.5 532,-81.5"/>
<text text-anchor="middle" x="569" y="-88.5" font-family="Helvetica,sans-Serif" font-size="10.00" fill="#000000">classification</text>
</a>
</g>
</g>
<!-- Node389&#45;&gt;Node390 -->
<g id="edge5" class="edge">
<title>Node389&#45;&gt;Node390</title>
<path fill="none" stroke="#191970" d="M488.4953,-111.9185C502.9469,-108.1634 518.667,-104.0786 532.3489,-100.5235"/>
<polygon fill="#191970" stroke="#191970" points="487.532,-108.5525 478.7337,-114.455 489.2925,-115.3276 487.532,-108.5525"/>
</g>
<!-- Node391 -->
<g id="node6" class="node">
<title>Node391</title>
<g id="a_node6"><a xlink:href="main_8c.html#a3c04138a5bfe5d72780bb7e82a18e627" target="_top" xlink:title="main">
<polygon fill="none" stroke="#000000" points="696,-90.5 696,-109.5 734,-109.5 734,-90.5 696,-90.5"/>
<text text-anchor="middle" x="715" y="-97.5" font-family="Helvetica,sans-Serif" font-size="10.00" fill="#000000">main</text>
</a>
</g>
</g>
<!-- Node390&#45;&gt;Node391 -->
<g id="edge6" class="edge">
<title>Node390&#45;&gt;Node391</title>
<path fill="none" stroke="#191970" d="M616.2611,-93.9134C643.2443,-95.5767 675.6082,-97.5717 695.7429,-98.8129"/>
<polygon fill="#191970" stroke="#191970" points="616.4162,-90.4164 606.2197,-93.2944 615.9854,-97.4031 616.4162,-90.4164"/>
</g>
<!-- Node392&#45;&gt;Node390 -->
<g id="edge8" class="edge">
<title>Node392&#45;&gt;Node390</title>
<path fill="none" stroke="#191970" d="M506.4211,-88.5363C515.1287,-88.8791 523.8132,-89.221 531.8194,-89.5362"/>
<polygon fill="#191970" stroke="#191970" points="506.3578,-85.0312 496.2278,-88.135 506.0823,-92.0257 506.3578,-85.0312"/>
</g>
<!-- Node394 -->
<g id="node9" class="node">
<title>Node394</title>
<g id="a_node9"><a xlink:href="structXCS.html#ad2ccafe59d2b4ae6d0e1cbc15edee53c" target="_top" xlink:title="XCS::fit">
<polygon fill="none" stroke="#000000" points="543,-38.5 543,-57.5 595,-57.5 595,-38.5 543,-38.5"/>
<text text-anchor="middle" x="569" y="-45.5" font-family="Helvetica,sans-Serif" font-size="10.00" fill="#000000">XCS::fit</text>
</a>
</g>
</g>
<!-- Node393&#45;&gt;Node394 -->
<g id="edge10" class="edge">
<title>Node393&#45;&gt;Node394</title>
<path fill="none" stroke="#191970" d="M479.4227,-48C499.7458,-48 524.3818,-48 542.6699,-48"/>
<polygon fill="#191970" stroke="#191970" points="479.2447,-44.5001 469.2447,-48 479.2447,-51.5001 479.2447,-44.5001"/>
</g>
<!-- Node395 -->
<g id="node10" class="node">
<title>Node395</title>
<g id="a_node10"><a xlink:href="python__wrapper_8cpp.html#afbdcc1358036a0b83a6b239da2b098a2" target="_top" xlink:title="BOOST_PYTHON_MODULE">
<polygon fill="none" stroke="#000000" points="642,-33.5 642,-52.5 788,-52.5 788,-33.5 642,-33.5"/>
<text text-anchor="middle" x="715" y="-40.5" font-family="Helvetica,sans-Serif" font-size="10.00" fill="#000000">BOOST_PYTHON_MODULE</text>
</a>
</g>
</g>
<!-- Node394&#45;&gt;Node395 -->
<g id="edge11" class="edge">
<title>Node394&#45;&gt;Node395</title>
<path fill="none" stroke="#191970" d="M605.2709,-46.7578C616.4242,-46.3759 629.1243,-45.9409 641.8312,-45.5058"/>
<polygon fill="#191970" stroke="#191970" points="604.9762,-43.2658 595.1019,-47.1061 605.2158,-50.2617 604.9762,-43.2658"/>
</g>
<!-- Node397 -->
<g id="node12" class="node">
<title>Node397</title>
<g id="a_node12"><a xlink:href="main_8c.html#a968c78da8ed8ad08662a86280deec99a" target="_top" xlink:title="regression">
<polygon fill="none" stroke="#000000" points="538,-157.5 538,-176.5 600,-176.5 600,-157.5 538,-157.5"/>
<text text-anchor="middle" x="569" y="-164.5" font-family="Helvetica,sans-Serif" font-size="10.00" fill="#000000">regression</text>
</a>
</g>
</g>
<!-- Node396&#45;&gt;Node397 -->
<g id="edge13" class="edge">
<title>Node396&#45;&gt;Node397</title>
<path fill="none" stroke="#191970" d="M479.4152,-163.473C497.9779,-164.2039 520.1403,-165.0764 537.7773,-165.7708"/>
<polygon fill="#191970" stroke="#191970" points="479.3747,-159.9688 469.2447,-163.0726 479.0992,-166.9634 479.3747,-159.9688"/>
</g>
<!-- Node398 -->
<g id="node13" class="node">
<title>Node398</title>
<g id="a_node13"><a xlink:href="structXCS.html#a7d53320740db8e846251bacd0238a9fb" target="_top" xlink:title="XCS::fit">
<polygon fill="none" stroke="#000000" points="543,-119.5 543,-138.5 595,-138.5 595,-119.5 543,-119.5"/>
<text text-anchor="middle" x="569" y="-126.5" font-family="Helvetica,sans-Serif" font-size="10.00" fill="#000000">XCS::fit</text>
</a>
</g>
</g>
<!-- Node396&#45;&gt;Node398 -->
<g id="edge15" class="edge">
<title>Node396&#45;&gt;Node398</title>
<path fill="none" stroke="#191970" d="M479.1433,-152.3486C499.5197,-147.0539 524.2979,-140.6155 542.6699,-135.8417"/>
<polygon fill="#191970" stroke="#191970" points="478.043,-149.0182 469.2447,-154.9207 479.8035,-155.7932 478.043,-149.0182"/>
</g>
<!-- Node397&#45;&gt;Node391 -->
<g id="edge14" class="edge">
<title>Node397&#45;&gt;Node391</title>
<path fill="none" stroke="#191970" d="M599.1983,-153.1419C628.2856,-139.7936 671.3901,-120.0127 695.9786,-108.729"/>
<polygon fill="#191970" stroke="#191970" points="597.5471,-150.0486 589.9182,-157.4005 600.4667,-156.4107 597.5471,-150.0486"/>
</g>
<!-- Node399&#45;&gt;Node393 -->
<g id="edge17" class="edge">
<title>Node399&#45;&gt;Node393</title>
<path fill="none" stroke="#191970" d="M334.4294,-48C360.1017,-48 392.3472,-48 414.8078,-48"/>
<polygon fill="#191970" stroke="#191970" points="334.2353,-44.5001 324.2353,-48 334.2352,-51.5001 334.2353,-44.5001"/>
</g>
<!-- Node400&#45;&gt;Node389 -->
<g id="edge19" class="edge">
<title>Node400&#45;&gt;Node389</title>
<path fill="none" stroke="#191970" d="M334.5144,-136.9848C351.703,-134.9084 371.8267,-132.4773 389.9843,-130.2838"/>
<polygon fill="#191970" stroke="#191970" points="333.7433,-133.5525 324.2353,-138.2266 334.5829,-140.5019 333.7433,-133.5525"/>
</g>
<!-- Node400&#45;&gt;Node392 -->
<g id="edge20" class="edge">
<title>Node400&#45;&gt;Node392</title>
<path fill="none" stroke="#191970" d="M333.7882,-129.7615C339.9463,-127.6562 346.1811,-125.3756 352,-123 368.5616,-116.2388 371.5304,-111.9824 388,-105 395.869,-101.6639 404.5452,-98.425 412.5981,-95.5945"/>
<polygon fill="#191970" stroke="#191970" points="332.6426,-126.4538 324.2452,-132.9139 334.8384,-133.1005 332.6426,-126.4538"/>
</g>
<!-- Node400&#45;&gt;Node396 -->
<g id="edge21" class="edge">
<title>Node400&#45;&gt;Node396</title>
<path fill="none" stroke="#191970" d="M334.4294,-147.561C360.1017,-151.0069 392.3472,-155.3352 414.8078,-158.35"/>
<polygon fill="#191970" stroke="#191970" points="334.612,-144.0542 324.2353,-146.1927 333.6807,-150.992 334.612,-144.0542"/>
</g>
<!-- Node401&#45;&gt;Node395 -->
<g id="edge23" class="edge">
<title>Node401&#45;&gt;Node395</title>
<path fill="none" stroke="#191970" d="M362.5136,-12.8806C426.0105,-15.8298 522.4427,-21.1068 606,-29 619.1062,-30.2381 633.0659,-31.8258 646.4668,-33.4848"/>
<polygon fill="#191970" stroke="#191970" points="362.3727,-9.3705 352.2231,-12.4096 362.0526,-16.3632 362.3727,-9.3705"/>
</g>
</g>
</svg>
