<?xml version="1.0" encoding="UTF-8" standalone="no"?>
<!DOCTYPE svg PUBLIC "-//W3C//DTD SVG 1.1//EN"
 "http://www.w3.org/Graphics/SVG/1.1/DTD/svg11.dtd">
<!-- Generated by graphviz version 2.40.1 (20161225.0304)
 -->
<!-- Title: cl_cover Pages: 1 -->
<svg width="858pt" height="256pt"
 viewBox="0.00 0.00 858.00 256.00" xmlns="http://www.w3.org/2000/svg" xmlns:xlink="http://www.w3.org/1999/xlink">
<g id="graph0" class="graph" transform="scale(1 1) rotate(0) translate(4 252)">
<title>cl_cover</title>
<!-- Node100 -->
<g id="node1" class="node">
<title>Node100</title>
<polygon fill="#bfbfbf" stroke="#000000" points="0,-171.5 0,-190.5 53,-190.5 53,-171.5 0,-171.5"/>
<text text-anchor="middle" x="26.5" y="-178.5" font-family="Helvetica,sans-Serif" font-size="10.00" fill="#000000">cl_cover</text>
</g>
<!-- Node101 -->
<g id="node2" class="node">
<title>Node101</title>
<g id="a_node2"><a xlink:href="clset_8c.html#a60fd3363a0a370e8b5a18671861be461" target="_top" xlink:title="Ensures all possible actions are covered by the match set. ">
<polygon fill="none" stroke="#000000" points="89,-171.5 89,-190.5 156,-190.5 156,-171.5 89,-171.5"/>
<text text-anchor="middle" x="122.5" y="-178.5" font-family="Helvetica,sans-Serif" font-size="10.00" fill="#000000">clset_cover</text>
</a>
</g>
</g>
<!-- Node100&#45;&gt;Node101 -->
<g id="edge1" class="edge">
<title>Node100&#45;&gt;Node101</title>
<path fill="none" stroke="#191970" d="M63.4364,-181C71.7463,-181 80.5242,-181 88.6983,-181"/>
<polygon fill="#191970" stroke="#191970" points="63.2414,-177.5001 53.2414,-181 63.2413,-184.5001 63.2414,-177.5001"/>
</g>
<!-- Node102 -->
<g id="node3" class="node">
<title>Node102</title>
<g id="a_node3"><a xlink:href="clset_8h.html#a229207544a5b8b601de05d231bb84650" target="_top" xlink:title="Constructs the match set. ">
<polygon fill="none" stroke="#000000" points="192,-171.5 192,-190.5 262,-190.5 262,-171.5 192,-171.5"/>
<text text-anchor="middle" x="227" y="-178.5" font-family="Helvetica,sans-Serif" font-size="10.00" fill="#000000">clset_match</text>
</a>
</g>
</g>
<!-- Node101&#45;&gt;Node102 -->
<g id="edge2" class="edge">
<title>Node101&#45;&gt;Node102</title>
<path fill="none" stroke="#191970" d="M166.3543,-181C174.9061,-181 183.7659,-181 191.985,-181"/>
<polygon fill="#191970" stroke="#191970" points="166.1397,-177.5001 156.1397,-181 166.1396,-184.5001 166.1397,-177.5001"/>
</g>
<!-- Node103 -->
<g id="node4" class="node">
<title>Node103</title>
<g id="a_node4"><a xlink:href="xcs__multi__step_8h.html#af2eaa15cba52d29fa3630218d9780a6a" target="_top" xlink:title="Constructs the match set and selects an action to perform. ">
<polygon fill="none" stroke="#000000" points="300,-218.5 300,-237.5 400,-237.5 400,-218.5 300,-218.5"/>
<text text-anchor="middle" x="350" y="-225.5" font-family="Helvetica,sans-Serif" font-size="10.00" fill="#000000">xcs_multi_decision</text>
</a>
</g>
</g>
<!-- Node102&#45;&gt;Node103 -->
<g id="edge3" class="edge">
<title>Node102&#45;&gt;Node103</title>
<path fill="none" stroke="#191970" d="M261.3253,-194.1162C281.4409,-201.8026 306.4114,-211.3442 324.724,-218.3417"/>
<polygon fill="#191970" stroke="#191970" points="262.4815,-190.8112 251.8909,-190.5112 259.9828,-197.3501 262.4815,-190.8112"/>
</g>
<!-- Node107 -->
<g id="node8" class="node">
<title>Node107</title>
<g id="a_node8"><a xlink:href="xcs__single__step_8h.html#a5c1d53976f601ae3603aed34f0767c29" target="_top" xlink:title="Constructs the match set and selects an action to perform. ">
<polygon fill="none" stroke="#000000" points="298,-171.5 298,-190.5 402,-190.5 402,-171.5 298,-171.5"/>
<text text-anchor="middle" x="350" y="-178.5" font-family="Helvetica,sans-Serif" font-size="10.00" fill="#000000">xcs_single_decision</text>
</a>
</g>
</g>
<!-- Node102&#45;&gt;Node107 -->
<g id="edge7" class="edge">
<title>Node102&#45;&gt;Node107</title>
<path fill="none" stroke="#191970" d="M272.4304,-181C280.6841,-181 289.3532,-181 297.784,-181"/>
<polygon fill="#191970" stroke="#191970" points="272.2469,-177.5001 262.2469,-181 272.2468,-184.5001 272.2469,-177.5001"/>
</g>
<!-- Node112 -->
<g id="node13" class="node">
<title>Node112</title>
<g id="a_node13"><a xlink:href="xcsf_8c.html#af5fb604e81235fdcb2ed8925d9291f59" target="_top" xlink:title="Executes a single XCSF trial. ">
<polygon fill="none" stroke="#000000" points="322,-57.5 322,-76.5 378,-76.5 378,-57.5 322,-57.5"/>
<text text-anchor="middle" x="350" y="-64.5" font-family="Helvetica,sans-Serif" font-size="10.00" fill="#000000">xcsf_trial</text>
</a>
</g>
</g>
<!-- Node102&#45;&gt;Node112 -->
<g id="edge13" class="edge">
<title>Node102&#45;&gt;Node112</title>
<path fill="none" stroke="#191970" d="M244.8226,-164.4815C270.8656,-140.3441 318.5024,-96.1929 339.5396,-76.695"/>
<polygon fill="#191970" stroke="#191970" points="242.4421,-161.9157 237.4869,-171.2804 247.2004,-167.0498 242.4421,-161.9157"/>
</g>
<!-- Node104 -->
<g id="node5" class="node">
<title>Node104</title>
<g id="a_node5"><a xlink:href="xcs__multi__step_8c.html#ad50c415970b4bfc42f469fb38c5e68fa" target="_top" xlink:title="Executes a multi&#45;step trial using a built&#45;in environment. ">
<polygon fill="none" stroke="#000000" points="440,-228.5 440,-247.5 520,-247.5 520,-228.5 440,-228.5"/>
<text text-anchor="middle" x="480" y="-235.5" font-family="Helvetica,sans-Serif" font-size="10.00" fill="#000000">xcs_multi_trial</text>
</a>
</g>
</g>
<!-- Node103&#45;&gt;Node104 -->
<g id="edge4" class="edge">
<title>Node103&#45;&gt;Node104</title>
<path fill="none" stroke="#191970" d="M410.2445,-232.6342C420.3147,-233.4088 430.538,-234.1952 439.9405,-234.9185"/>
<polygon fill="#191970" stroke="#191970" points="410.5004,-229.1436 400.2614,-231.8663 409.9635,-236.123 410.5004,-229.1436"/>
</g>
<!-- Node105 -->
<g id="node6" class="node">
<title>Node105</title>
<g id="a_node6"><a xlink:href="xcs__multi__step_8h.html#acc29d4a55dbd56c16ea5f19f15a7c677" target="_top" xlink:title="Executes a multi&#45;step reinforcement learning experiment. ">
<polygon fill="none" stroke="#000000" points="561,-228.5 561,-247.5 665,-247.5 665,-228.5 561,-228.5"/>
<text text-anchor="middle" x="613" y="-235.5" font-family="Helvetica,sans-Serif" font-size="10.00" fill="#000000">xcs_multi_step_exp</text>
</a>
</g>
</g>
<!-- Node104&#45;&gt;Node105 -->
<g id="edge5" class="edge">
<title>Node104&#45;&gt;Node105</title>
<path fill="none" stroke="#191970" d="M530.3445,-238C540.2308,-238 550.6241,-238 560.5766,-238"/>
<polygon fill="#191970" stroke="#191970" points="530.2653,-234.5001 520.2653,-238 530.2653,-241.5001 530.2653,-234.5001"/>
</g>
<!-- Node106 -->
<g id="node7" class="node">
<title>Node106</title>
<g id="a_node7"><a xlink:href="main_8c.html#a3c04138a5bfe5d72780bb7e82a18e627" target="_top" xlink:title="main">
<polygon fill="none" stroke="#000000" points="758,-190.5 758,-209.5 796,-209.5 796,-190.5 758,-190.5"/>
<text text-anchor="middle" x="777" y="-197.5" font-family="Helvetica,sans-Serif" font-size="10.00" fill="#000000">main</text>
</a>
</g>
</g>
<!-- Node105&#45;&gt;Node106 -->
<g id="edge6" class="edge">
<title>Node105&#45;&gt;Node106</title>
<path fill="none" stroke="#191970" d="M664.4247,-226.0845C696.2153,-218.7184 735.1618,-209.6942 757.9164,-204.4218"/>
<polygon fill="#191970" stroke="#191970" points="663.336,-222.744 654.3841,-228.411 664.9161,-229.5633 663.336,-222.744"/>
</g>
<!-- Node108 -->
<g id="node9" class="node">
<title>Node108</title>
<g id="a_node9"><a xlink:href="structXCS.html#a94d556a5e545ec415d7165d5e91b21d4" target="_top" xlink:title="XCS::single_decision">
<polygon fill="none" stroke="#000000" points="558,-152.5 558,-171.5 668,-171.5 668,-152.5 558,-152.5"/>
<text text-anchor="middle" x="613" y="-159.5" font-family="Helvetica,sans-Serif" font-size="10.00" fill="#000000">XCS::single_decision</text>
</a>
</g>
</g>
<!-- Node107&#45;&gt;Node108 -->
<g id="edge8" class="edge">
<title>Node107&#45;&gt;Node108</title>
<path fill="none" stroke="#191970" d="M412.3116,-176.4984C456.4572,-173.3092 515.1486,-169.0691 557.6486,-165.9988"/>
<polygon fill="#191970" stroke="#191970" points="411.9966,-173.0119 402.2748,-177.2235 412.501,-179.9937 411.9966,-173.0119"/>
</g>
<!-- Node110 -->
<g id="node11" class="node">
<title>Node110</title>
<g id="a_node11"><a xlink:href="xcs__single__step_8c.html#a536ab4256e871e31959ea6e907455340" target="_top" xlink:title="Executes a single&#45;step trial using a built&#45;in environment. ">
<polygon fill="none" stroke="#000000" points="438,-190.5 438,-209.5 522,-209.5 522,-190.5 438,-190.5"/>
<text text-anchor="middle" x="480" y="-197.5" font-family="Helvetica,sans-Serif" font-size="10.00" fill="#000000">xcs_single_trial</text>
</a>
</g>
</g>
<!-- Node107&#45;&gt;Node110 -->
<g id="edge10" class="edge">
<title>Node107&#45;&gt;Node110</title>
<path fill="none" stroke="#191970" d="M412.2443,-190.0972C420.9202,-191.3653 429.6616,-192.6428 437.8488,-193.8394"/>
<polygon fill="#191970" stroke="#191970" points="412.528,-186.6016 402.1269,-188.6185 411.5156,-193.528 412.528,-186.6016"/>
</g>
<!-- Node109 -->
<g id="node10" class="node">
<title>Node109</title>
<g id="a_node10"><a xlink:href="python__wrapper_8cpp.html#afbdcc1358036a0b83a6b239da2b098a2" target="_top" xlink:title="BOOST_PYTHON_MODULE">
<polygon fill="none" stroke="#000000" points="704,-57.5 704,-76.5 850,-76.5 850,-57.5 704,-57.5"/>
<text text-anchor="middle" x="777" y="-64.5" font-family="Helvetica,sans-Serif" font-size="10.00" fill="#000000">BOOST_PYTHON_MODULE</text>
</a>
</g>
</g>
<!-- Node108&#45;&gt;Node109 -->
<g id="edge9" class="edge">
<title>Node108&#45;&gt;Node109</title>
<path fill="none" stroke="#191970" d="M638.4912,-147.2338C672.4456,-127.565 731.5655,-93.3188 760.3283,-76.6574"/>
<polygon fill="#191970" stroke="#191970" points="636.5264,-144.327 629.6277,-152.3681 640.0352,-150.3842 636.5264,-144.327"/>
</g>
<!-- Node111 -->
<g id="node12" class="node">
<title>Node111</title>
<g id="a_node12"><a xlink:href="xcs__single__step_8h.html#a39a031bf59eaa9b33e30e614610dcda8" target="_top" xlink:title="Executes a single&#45;step reinforcement learning experiment. ">
<polygon fill="none" stroke="#000000" points="559,-190.5 559,-209.5 667,-209.5 667,-190.5 559,-190.5"/>
<text text-anchor="middle" x="613" y="-197.5" font-family="Helvetica,sans-Serif" font-size="10.00" fill="#000000">xcs_single_step_exp</text>
</a>
</g>
</g>
<!-- Node110&#45;&gt;Node111 -->
<g id="edge11" class="edge">
<title>Node110&#45;&gt;Node111</title>
<path fill="none" stroke="#191970" d="M532.2102,-200C541.0085,-200 550.157,-200 558.9997,-200"/>
<polygon fill="#191970" stroke="#191970" points="532.0821,-196.5001 522.082,-200 532.082,-203.5001 532.0821,-196.5001"/>
</g>
<!-- Node111&#45;&gt;Node106 -->
<g id="edge12" class="edge">
<title>Node111&#45;&gt;Node106</title>
<path fill="none" stroke="#191970" d="M677.1924,-200C706.0058,-200 737.9013,-200 757.7011,-200"/>
<polygon fill="#191970" stroke="#191970" points="677.1543,-196.5001 667.1542,-200 677.1542,-203.5001 677.1543,-196.5001"/>
</g>
<!-- Node113 -->
<g id="node14" class="node">
<title>Node113</title>
<g id="a_node14"><a xlink:href="xcsf_8h.html#aee465caea59599a71fc69528598156cb" target="_top" xlink:title="Executes MAX_TRIALS number of XCSF learning iterations using the training. data and test iterations u...">
<polygon fill="none" stroke="#000000" points="455.5,-76.5 455.5,-95.5 504.5,-95.5 504.5,-76.5 455.5,-76.5"/>
<text text-anchor="middle" x="480" y="-83.5" font-family="Helvetica,sans-Serif" font-size="10.00" fill="#000000">xcsf_fit</text>
</a>
</g>
</g>
<!-- Node112&#45;&gt;Node113 -->
<g id="edge14" class="edge">
<title>Node112&#45;&gt;Node113</title>
<path fill="none" stroke="#191970" d="M388.1062,-72.5694C409.8128,-75.7419 436.3775,-79.6244 455.3521,-82.3976"/>
<polygon fill="#191970" stroke="#191970" points="388.6091,-69.1058 378.2081,-71.1227 387.5968,-76.0322 388.6091,-69.1058"/>
</g>
<!-- Node115 -->
<g id="node16" class="node">
<title>Node115</title>
<g id="a_node16"><a xlink:href="xcsf_8h.html#af128a7da769acabe2e841e8d06749b0b" target="_top" xlink:title="Calculates the XCSF predictions for the provided input. ">
<polygon fill="none" stroke="#000000" points="445,-38.5 445,-57.5 515,-57.5 515,-38.5 445,-38.5"/>
<text text-anchor="middle" x="480" y="-45.5" font-family="Helvetica,sans-Serif" font-size="10.00" fill="#000000">xcsf_predict</text>
</a>
</g>
</g>
<!-- Node112&#45;&gt;Node115 -->
<g id="edge18" class="edge">
<title>Node112&#45;&gt;Node115</title>
<path fill="none" stroke="#191970" d="M388.3206,-61.3993C406.2267,-58.7822 427.4012,-55.6875 444.887,-53.1319"/>
<polygon fill="#191970" stroke="#191970" points="387.5968,-57.9678 378.2081,-62.8773 388.6091,-64.8942 387.5968,-57.9678"/>
</g>
<!-- Node117 -->
<g id="node18" class="node">
<title>Node117</title>
<g id="a_node18"><a xlink:href="xcsf_8h.html#a348b8cd321211c377fb1deedc62c7c67" target="_top" xlink:title="Calculates the XCSF error for the input data. ">
<polygon fill="none" stroke="#000000" points="447.5,-.5 447.5,-19.5 512.5,-19.5 512.5,-.5 447.5,-.5"/>
<text text-anchor="middle" x="480" y="-7.5" font-family="Helvetica,sans-Serif" font-size="10.00" fill="#000000">xcsf_score</text>
</a>
</g>
</g>
<!-- Node112&#45;&gt;Node117 -->
<g id="edge21" class="edge">
<title>Node112&#45;&gt;Node117</title>
<path fill="none" stroke="#191970" d="M381.0588,-53.3819C404.8428,-42.9535 437.0537,-28.8303 458.1699,-19.5716"/>
<polygon fill="#191970" stroke="#191970" points="379.5119,-50.2384 371.7591,-57.4595 382.3229,-56.6493 379.5119,-50.2384"/>
</g>
<!-- Node113&#45;&gt;Node106 -->
<g id="edge15" class="edge">
<title>Node113&#45;&gt;Node106</title>
<path fill="none" stroke="#191970" d="M514.6397,-94.4159C552.8773,-104.1831 615.914,-121.7051 668,-143 702.1963,-156.9809 739.9523,-178.0965 760.8401,-190.319"/>
<polygon fill="#191970" stroke="#191970" points="515.0942,-90.9211 504.542,-91.87 513.3829,-97.7087 515.0942,-90.9211"/>
</g>
<!-- Node114 -->
<g id="node15" class="node">
<title>Node114</title>
<g id="a_node15"><a xlink:href="structXCS.html#ad2ccafe59d2b4ae6d0e1cbc15edee53c" target="_top" xlink:title="XCS::fit">
<polygon fill="none" stroke="#000000" points="587,-76.5 587,-95.5 639,-95.5 639,-76.5 587,-76.5"/>
<text text-anchor="middle" x="613" y="-83.5" font-family="Helvetica,sans-Serif" font-size="10.00" fill="#000000">XCS::fit</text>
</a>
</g>
</g>
<!-- Node113&#45;&gt;Node114 -->
<g id="edge16" class="edge">
<title>Node113&#45;&gt;Node114</title>
<path fill="none" stroke="#191970" d="M514.8437,-86C537.2999,-86 566.0378,-86 586.6055,-86"/>
<polygon fill="#191970" stroke="#191970" points="514.7046,-82.5001 504.7046,-86 514.7045,-89.5001 514.7046,-82.5001"/>
</g>
<!-- Node114&#45;&gt;Node109 -->
<g id="edge17" class="edge">
<title>Node114&#45;&gt;Node109</title>
<path fill="none" stroke="#191970" d="M649.4003,-81.7829C665.5152,-79.9159 685.0749,-77.6499 703.9889,-75.4586"/>
<polygon fill="#191970" stroke="#191970" points="648.8802,-78.3196 639.3494,-82.9473 649.6858,-85.2731 648.8802,-78.3196"/>
</g>
<!-- Node116 -->
<g id="node17" class="node">
<title>Node116</title>
<g id="a_node17"><a xlink:href="structXCS.html#a911ed75c86abed7807d33eb1385240ed" target="_top" xlink:title="XCS::predict">
<polygon fill="none" stroke="#000000" points="576.5,-38.5 576.5,-57.5 649.5,-57.5 649.5,-38.5 576.5,-38.5"/>
<text text-anchor="middle" x="613" y="-45.5" font-family="Helvetica,sans-Serif" font-size="10.00" fill="#000000">XCS::predict</text>
</a>
</g>
</g>
<!-- Node115&#45;&gt;Node116 -->
<g id="edge19" class="edge">
<title>Node115&#45;&gt;Node116</title>
<path fill="none" stroke="#191970" d="M525.3126,-48C541.8804,-48 560.4075,-48 576.148,-48"/>
<polygon fill="#191970" stroke="#191970" points="525.2924,-44.5001 515.2924,-48 525.2923,-51.5001 525.2924,-44.5001"/>
</g>
<!-- Node116&#45;&gt;Node109 -->
<g id="edge20" class="edge">
<title>Node116&#45;&gt;Node109</title>
<path fill="none" stroke="#191970" d="M659.9088,-53.4346C673.5731,-55.0176 688.8398,-56.7863 703.7192,-58.5101"/>
<polygon fill="#191970" stroke="#191970" points="660.1412,-49.9382 649.8048,-52.264 659.3355,-56.8916 660.1412,-49.9382"/>
</g>
<!-- Node118 -->
<g id="node19" class="node">
<title>Node118</title>
<g id="a_node19"><a xlink:href="structXCS.html#aa77bc77484d6d14bf512304a23cfec88" target="_top" xlink:title="XCS::score">
<polygon fill="none" stroke="#000000" points="579,-.5 579,-19.5 647,-19.5 647,-.5 579,-.5"/>
<text text-anchor="middle" x="613" y="-7.5" font-family="Helvetica,sans-Serif" font-size="10.00" fill="#000000">XCS::score</text>
</a>
</g>
</g>
<!-- Node117&#45;&gt;Node118 -->
<g id="edge22" class="edge">
<title>Node117&#45;&gt;Node118</title>
<path fill="none" stroke="#191970" d="M522.6082,-10C540.8206,-10 561.7904,-10 578.9448,-10"/>
<polygon fill="#191970" stroke="#191970" points="522.5355,-6.5001 512.5355,-10 522.5354,-13.5001 522.5355,-6.5001"/>
</g>
<!-- Node118&#45;&gt;Node109 -->
<g id="edge23" class="edge">
<title>Node118&#45;&gt;Node109</title>
<path fill="none" stroke="#191970" d="M650.4075,-22.9067C656.2955,-24.9428 662.3139,-27.0267 668,-29 695.8314,-38.6586 727.6404,-49.7545 749.6823,-57.4524"/>
<polygon fill="#191970" stroke="#191970" points="651.2978,-19.5113 640.7031,-19.5531 649.0114,-26.1274 651.2978,-19.5113"/>
</g>
</g>
</svg>
