<?xml version="1.0" encoding="UTF-8" standalone="no"?>
<!DOCTYPE svg PUBLIC "-//W3C//DTD SVG 1.1//EN"
 "http://www.w3.org/Graphics/SVG/1.1/DTD/svg11.dtd">
<!-- Generated by graphviz version 2.40.1 (20161225.0304)
 -->
<!-- Title: cl_cond_size Pages: 1 -->
<svg width="1211pt" height="398pt"
 viewBox="0.00 0.00 1211.00 398.00" xmlns="http://www.w3.org/2000/svg" xmlns:xlink="http://www.w3.org/1999/xlink">
<g id="graph0" class="graph" transform="scale(1 1) rotate(0) translate(4 394)">
<title>cl_cond_size</title>
<!-- Node43 -->
<g id="node1" class="node">
<title>Node43</title>
<polygon fill="#bfbfbf" stroke="#000000" points="0,-261.5 0,-280.5 74,-280.5 74,-261.5 0,-261.5"/>
<text text-anchor="middle" x="37" y="-268.5" font-family="Helvetica,sans-Serif" font-size="10.00" fill="#000000">cl_cond_size</text>
</g>
<!-- Node44 -->
<g id="node2" class="node">
<title>Node44</title>
<g id="a_node2"><a xlink:href="cl__set_8h.html#a7ff6217fb822a2eca84c9ac23e8b5cb5" target="_top" xlink:title="Deletes a single classifier from the population set. ">
<polygon fill="none" stroke="#000000" points="110,-242.5 110,-261.5 160,-261.5 160,-242.5 110,-242.5"/>
<text text-anchor="middle" x="135" y="-249.5" font-family="Helvetica,sans-Serif" font-size="10.00" fill="#000000">pop_del</text>
</a>
</g>
</g>
<!-- Node43&#45;&gt;Node44 -->
<g id="edge1" class="edge">
<title>Node43&#45;&gt;Node44</title>
<path fill="none" stroke="#191970" d="M83.9944,-261.8888C92.8914,-260.1639 101.8768,-258.4219 109.7745,-256.8907"/>
<polygon fill="#191970" stroke="#191970" points="83.2006,-258.4775 74.0496,-263.8169 84.533,-265.3495 83.2006,-258.4775"/>
</g>
<!-- Node71 -->
<g id="node29" class="node">
<title>Node71</title>
<g id="a_node29"><a xlink:href="cl__set_8h.html#a83f22ece229912e4673e79aedd776c13" target="_top" xlink:title="Calculates the mean condition size of classifiers in the set. ">
<polygon fill="none" stroke="#000000" points="196,-300.5 196,-319.5 297,-319.5 297,-300.5 196,-300.5"/>
<text text-anchor="middle" x="246.5" y="-307.5" font-family="Helvetica,sans-Serif" font-size="10.00" fill="#000000">set_avg_cond_size</text>
</a>
</g>
</g>
<!-- Node43&#45;&gt;Node71 -->
<g id="edge39" class="edge">
<title>Node43&#45;&gt;Node71</title>
<path fill="none" stroke="#191970" d="M84.3936,-279.8227C117.6506,-286.0137 162.0594,-294.2807 195.9862,-300.5965"/>
<polygon fill="#191970" stroke="#191970" points="84.9261,-276.3617 74.4544,-277.9724 83.6449,-283.2435 84.9261,-276.3617"/>
</g>
<!-- Node45 -->
<g id="node3" class="node">
<title>Node45</title>
<g id="a_node3"><a xlink:href="cl__set_8h.html#a8537e849783523d1e2394e4a027cf33a" target="_top" xlink:title="Enforces the maximum population size limit. ">
<polygon fill="none" stroke="#000000" points="200,-242.5 200,-261.5 293,-261.5 293,-242.5 200,-242.5"/>
<text text-anchor="middle" x="246.5" y="-249.5" font-family="Helvetica,sans-Serif" font-size="10.00" fill="#000000">pop_enforce_limit</text>
</a>
</g>
</g>
<!-- Node44&#45;&gt;Node45 -->
<g id="edge2" class="edge">
<title>Node44&#45;&gt;Node45</title>
<path fill="none" stroke="#191970" d="M170.1279,-252C179.4777,-252 189.7282,-252 199.5989,-252"/>
<polygon fill="#191970" stroke="#191970" points="170.0228,-248.5001 160.0228,-252 170.0227,-255.5001 170.0228,-248.5001"/>
</g>
<!-- Node46 -->
<g id="node4" class="node">
<title>Node46</title>
<g id="a_node4"><a xlink:href="cl__set_8c.html#aa4b74b698e7491734e4788fcfae8e27a" target="_top" xlink:title="Ensures all possible actions are covered by the match set. ">
<polygon fill="none" stroke="#000000" points="378,-242.5 378,-261.5 437,-261.5 437,-242.5 378,-242.5"/>
<text text-anchor="middle" x="407.5" y="-249.5" font-family="Helvetica,sans-Serif" font-size="10.00" fill="#000000">set_cover</text>
</a>
</g>
</g>
<!-- Node45&#45;&gt;Node46 -->
<g id="edge3" class="edge">
<title>Node45&#45;&gt;Node46</title>
<path fill="none" stroke="#191970" d="M303.2383,-252C328.3823,-252 356.9236,-252 377.7796,-252"/>
<polygon fill="#191970" stroke="#191970" points="303.0679,-248.5001 293.0679,-252 303.0678,-255.5001 303.0679,-248.5001"/>
</g>
<!-- Node68 -->
<g id="node26" class="node">
<title>Node68</title>
<g id="a_node26"><a xlink:href="ea_8h.html#ae3824341a2f5482cb6ac70b3839ded51" target="_top" xlink:title="Executes the evolutionary algorithm (EA). ">
<polygon fill="none" stroke="#000000" points="534.5,-153.5 534.5,-172.5 563.5,-172.5 563.5,-153.5 534.5,-153.5"/>
<text text-anchor="middle" x="549" y="-160.5" font-family="Helvetica,sans-Serif" font-size="10.00" fill="#000000">ea</text>
</a>
</g>
</g>
<!-- Node45&#45;&gt;Node68 -->
<g id="edge32" class="edge">
<title>Node45&#45;&gt;Node68</title>
<path fill="none" stroke="#191970" d="M288.5057,-239.6413C357.0771,-219.4666 489.8674,-180.3977 534.1922,-167.3567"/>
<polygon fill="#191970" stroke="#191970" points="287.4783,-236.2952 278.8728,-242.4754 289.4541,-243.0105 287.4783,-236.2952"/>
</g>
<!-- Node47 -->
<g id="node5" class="node">
<title>Node47</title>
<g id="a_node5"><a xlink:href="cl__set_8h.html#af3bea0b4d03654b9d6cb08fbf272c847" target="_top" xlink:title="Constructs the match set. ">
<polygon fill="none" stroke="#000000" points="518,-242.5 518,-261.5 580,-261.5 580,-242.5 518,-242.5"/>
<text text-anchor="middle" x="549" y="-249.5" font-family="Helvetica,sans-Serif" font-size="10.00" fill="#000000">set_match</text>
</a>
</g>
</g>
<!-- Node46&#45;&gt;Node47 -->
<g id="edge4" class="edge">
<title>Node46&#45;&gt;Node47</title>
<path fill="none" stroke="#191970" d="M447.348,-252C469.6947,-252 497.1602,-252 517.9062,-252"/>
<polygon fill="#191970" stroke="#191970" points="447.1631,-248.5001 437.163,-252 447.163,-255.5001 447.1631,-248.5001"/>
</g>
<!-- Node48 -->
<g id="node6" class="node">
<title>Node48</title>
<g id="a_node6"><a xlink:href="xcs__multi__step_8c.html#a1e1c2a3094be715b468dda79cd59ebf3" target="_top" xlink:title="Executes a multi&#45;step trial using a built&#45;in environment. ">
<polygon fill="none" stroke="#000000" points="631,-86.5 631,-105.5 711,-105.5 711,-86.5 631,-86.5"/>
<text text-anchor="middle" x="671" y="-93.5" font-family="Helvetica,sans-Serif" font-size="10.00" fill="#000000">xcs_multi_trial</text>
</a>
</g>
</g>
<!-- Node47&#45;&gt;Node48 -->
<g id="edge5" class="edge">
<title>Node47&#45;&gt;Node48</title>
<path fill="none" stroke="#191970" d="M557.2269,-233.2073C572.9119,-197.693 606.389,-123.5026 616,-115 620.3885,-111.1176 625.6116,-108.0191 631.066,-105.5487"/>
<polygon fill="#191970" stroke="#191970" points="553.9649,-231.9306 553.1421,-242.4934 560.3724,-234.7491 553.9649,-231.9306"/>
</g>
<!-- Node51 -->
<g id="node9" class="node">
<title>Node51</title>
<g id="a_node9"><a xlink:href="xcs__single__step_8h.html#a6cd0f3c0c1c71e13dba1ce493ef873a5" target="_top" xlink:title="Constructs the match set and selects an action to perform. ">
<polygon fill="none" stroke="#000000" points="619,-223.5 619,-242.5 723,-242.5 723,-223.5 619,-223.5"/>
<text text-anchor="middle" x="671" y="-230.5" font-family="Helvetica,sans-Serif" font-size="10.00" fill="#000000">xcs_single_decision</text>
</a>
</g>
</g>
<!-- Node47&#45;&gt;Node51 -->
<g id="edge8" class="edge">
<title>Node47&#45;&gt;Node51</title>
<path fill="none" stroke="#191970" d="M590.1023,-245.5988C599.2583,-244.1729 609.086,-242.6423 618.6263,-241.1566"/>
<polygon fill="#191970" stroke="#191970" points="589.4437,-242.1591 580.1014,-247.1563 590.5209,-249.0757 589.4437,-242.1591"/>
</g>
<!-- Node56 -->
<g id="node14" class="node">
<title>Node56</title>
<g id="a_node14"><a xlink:href="xcsf_8c.html#a474f4e13cfc5f00958c689cd8c81135a" target="_top" xlink:title="Executes a single XCSF learning trial. ">
<polygon fill="none" stroke="#000000" points="629.5,-181.5 629.5,-200.5 712.5,-200.5 712.5,-181.5 629.5,-181.5"/>
<text text-anchor="middle" x="671" y="-188.5" font-family="Helvetica,sans-Serif" font-size="10.00" fill="#000000">xcsf_learn_trial</text>
</a>
</g>
</g>
<!-- Node47&#45;&gt;Node56 -->
<g id="edge14" class="edge">
<title>Node47&#45;&gt;Node56</title>
<path fill="none" stroke="#191970" d="M573.5851,-237.118C586.0925,-229.7892 601.6489,-221.0389 616,-214 625.757,-209.2144 636.7627,-204.4852 646.3515,-200.5713"/>
<polygon fill="#191970" stroke="#191970" points="571.5029,-234.2835 564.6854,-242.3935 575.0724,-240.3051 571.5029,-234.2835"/>
</g>
<!-- Node61 -->
<g id="node19" class="node">
<title>Node61</title>
<g id="a_node19"><a xlink:href="xcsf_8c.html#aa6edd3962ddd04940e2c78a4f99de7cd" target="_top" xlink:title="Executes a single XCSF testing trial. ">
<polygon fill="none" stroke="#000000" points="632,-261.5 632,-280.5 710,-280.5 710,-261.5 632,-261.5"/>
<text text-anchor="middle" x="671" y="-268.5" font-family="Helvetica,sans-Serif" font-size="10.00" fill="#000000">xcsf_test_trial</text>
</a>
</g>
</g>
<!-- Node47&#45;&gt;Node61 -->
<g id="edge21" class="edge">
<title>Node47&#45;&gt;Node61</title>
<path fill="none" stroke="#191970" d="M590.0347,-258.3907C603.4596,-260.4814 618.3346,-262.798 631.6335,-264.8692"/>
<polygon fill="#191970" stroke="#191970" points="590.5209,-254.9243 580.1014,-256.8437 589.4437,-261.8409 590.5209,-254.9243"/>
</g>
<!-- Node64 -->
<g id="node22" class="node">
<title>Node64</title>
<g id="a_node22"><a xlink:href="xcsf_8h.html#af0b9db7273578fdff649d46823cd9790" target="_top" xlink:title="Calculates the XCSF predictions for the provided input. ">
<polygon fill="none" stroke="#000000" points="636,-301.5 636,-320.5 706,-320.5 706,-301.5 636,-301.5"/>
<text text-anchor="middle" x="671" y="-308.5" font-family="Helvetica,sans-Serif" font-size="10.00" fill="#000000">xcsf_predict</text>
</a>
</g>
</g>
<!-- Node47&#45;&gt;Node64 -->
<g id="edge26" class="edge">
<title>Node47&#45;&gt;Node64</title>
<path fill="none" stroke="#191970" d="M573.2433,-266.9271C585.7692,-274.335 601.4439,-283.1414 616,-290 624.7837,-294.1387 634.6223,-298.0977 643.5233,-301.4403"/>
<polygon fill="#191970" stroke="#191970" points="574.7247,-263.7343 564.3491,-261.5903 571.1231,-269.7367 574.7247,-263.7343"/>
</g>
<!-- Node66 -->
<g id="node24" class="node">
<title>Node66</title>
<g id="a_node24"><a xlink:href="xcsf_8h.html#ae1f6851f682e015601030a5c725c6618" target="_top" xlink:title="Prints the XCSF match set for the supplied input. ">
<polygon fill="none" stroke="#000000" points="616,-341.5 616,-360.5 726,-360.5 726,-341.5 616,-341.5"/>
<text text-anchor="middle" x="671" y="-348.5" font-family="Helvetica,sans-Serif" font-size="10.00" fill="#000000">xcsf_print_match_set</text>
</a>
</g>
</g>
<!-- Node47&#45;&gt;Node66 -->
<g id="edge29" class="edge">
<title>Node47&#45;&gt;Node66</title>
<path fill="none" stroke="#191970" d="M560.8453,-270.4793C572.8701,-287.9372 592.9607,-313.7969 616,-330 622.6047,-334.645 630.3708,-338.423 637.9524,-341.4267"/>
<polygon fill="#191970" stroke="#191970" points="563.4889,-268.1353 555.0272,-261.7596 557.6661,-272.0205 563.4889,-268.1353"/>
</g>
<!-- Node49 -->
<g id="node7" class="node">
<title>Node49</title>
<g id="a_node7"><a xlink:href="xcs__multi__step_8h.html#acc29d4a55dbd56c16ea5f19f15a7c677" target="_top" xlink:title="Executes a multi&#45;step reinforcement learning experiment. ">
<polygon fill="none" stroke="#000000" points="914,-.5 914,-19.5 1018,-19.5 1018,-.5 914,-.5"/>
<text text-anchor="middle" x="966" y="-7.5" font-family="Helvetica,sans-Serif" font-size="10.00" fill="#000000">xcs_multi_step_exp</text>
</a>
</g>
</g>
<!-- Node48&#45;&gt;Node49 -->
<g id="edge6" class="edge">
<title>Node48&#45;&gt;Node49</title>
<path fill="none" stroke="#191970" d="M709.6571,-83.3418C725.796,-78.1454 744.7653,-72.1521 762,-67 820.6623,-49.4635 889.3114,-30.6267 930.142,-19.5991"/>
<polygon fill="#191970" stroke="#191970" points="708.4531,-80.0526 700.015,-86.4596 710.6068,-86.7131 708.4531,-80.0526"/>
</g>
<!-- Node50 -->
<g id="node8" class="node">
<title>Node50</title>
<g id="a_node8"><a xlink:href="main_8c.html#a3c04138a5bfe5d72780bb7e82a18e627" target="_top" xlink:title="main">
<polygon fill="none" stroke="#000000" points="1111,-38.5 1111,-57.5 1149,-57.5 1149,-38.5 1111,-38.5"/>
<text text-anchor="middle" x="1130" y="-45.5" font-family="Helvetica,sans-Serif" font-size="10.00" fill="#000000">main</text>
</a>
</g>
</g>
<!-- Node49&#45;&gt;Node50 -->
<g id="edge7" class="edge">
<title>Node49&#45;&gt;Node50</title>
<path fill="none" stroke="#191970" d="M1017.4247,-21.9155C1049.2153,-29.2816 1088.1618,-38.3058 1110.9164,-43.5782"/>
<polygon fill="#191970" stroke="#191970" points="1017.9161,-18.4367 1007.3841,-19.589 1016.336,-25.256 1017.9161,-18.4367"/>
</g>
<!-- Node52 -->
<g id="node10" class="node">
<title>Node52</title>
<g id="a_node10"><a xlink:href="structXCS.html#a94d556a5e545ec415d7165d5e91b21d4" target="_top" xlink:title="XCS::single_decision">
<polygon fill="none" stroke="#000000" points="911,-228.5 911,-247.5 1021,-247.5 1021,-228.5 911,-228.5"/>
<text text-anchor="middle" x="966" y="-235.5" font-family="Helvetica,sans-Serif" font-size="10.00" fill="#000000">XCS::single_decision</text>
</a>
</g>
</g>
<!-- Node51&#45;&gt;Node52 -->
<g id="edge9" class="edge">
<title>Node51&#45;&gt;Node52</title>
<path fill="none" stroke="#191970" d="M733.2754,-234.0555C785.8836,-234.9472 860.5099,-236.212 910.9574,-237.0671"/>
<polygon fill="#191970" stroke="#191970" points="733.1189,-230.5525 723.061,-233.8824 733.0002,-237.5515 733.1189,-230.5525"/>
</g>
<!-- Node54 -->
<g id="node12" class="node">
<title>Node54</title>
<g id="a_node12"><a xlink:href="xcs__single__step_8c.html#a3d1fd2472d35310800aed897219a65af" target="_top" xlink:title="Executes a single&#45;step trial using a built&#45;in environment. ">
<polygon fill="none" stroke="#000000" points="776.5,-76.5 776.5,-95.5 860.5,-95.5 860.5,-76.5 776.5,-76.5"/>
<text text-anchor="middle" x="818.5" y="-83.5" font-family="Helvetica,sans-Serif" font-size="10.00" fill="#000000">xcs_single_trial</text>
</a>
</g>
</g>
<!-- Node51&#45;&gt;Node54 -->
<g id="edge11" class="edge">
<title>Node51&#45;&gt;Node54</title>
<path fill="none" stroke="#191970" d="M713.0896,-219.0401C717.7399,-216.4704 722.1701,-213.4754 726,-210 751.0335,-187.2835 741.8932,-170.1741 762,-143 775.5919,-124.6307 794.9568,-106.4042 807.1199,-95.6764"/>
<polygon fill="#191970" stroke="#191970" points="711.4381,-215.9512 703.9756,-223.4719 714.4993,-222.2464 711.4381,-215.9512"/>
</g>
<!-- Node53 -->
<g id="node11" class="node">
<title>Node53</title>
<g id="a_node11"><a xlink:href="python__wrapper_8cpp.html#afbdcc1358036a0b83a6b239da2b098a2" target="_top" xlink:title="BOOST_PYTHON_MODULE">
<polygon fill="none" stroke="#000000" points="1057,-266.5 1057,-285.5 1203,-285.5 1203,-266.5 1057,-266.5"/>
<text text-anchor="middle" x="1130" y="-273.5" font-family="Helvetica,sans-Serif" font-size="10.00" fill="#000000">BOOST_PYTHON_MODULE</text>
</a>
</g>
</g>
<!-- Node52&#45;&gt;Node53 -->
<g id="edge10" class="edge">
<title>Node52&#45;&gt;Node53</title>
<path fill="none" stroke="#191970" d="M1017.341,-249.8961C1040.3929,-255.2374 1067.2211,-261.4537 1088.9135,-266.4799"/>
<polygon fill="#191970" stroke="#191970" points="1017.9161,-246.4367 1007.3841,-247.589 1016.336,-253.256 1017.9161,-246.4367"/>
</g>
<!-- Node55 -->
<g id="node13" class="node">
<title>Node55</title>
<g id="a_node13"><a xlink:href="xcs__single__step_8h.html#a39a031bf59eaa9b33e30e614610dcda8" target="_top" xlink:title="Executes a single&#45;step experiment. ">
<polygon fill="none" stroke="#000000" points="912,-38.5 912,-57.5 1020,-57.5 1020,-38.5 912,-38.5"/>
<text text-anchor="middle" x="966" y="-45.5" font-family="Helvetica,sans-Serif" font-size="10.00" fill="#000000">xcs_single_step_exp</text>
</a>
</g>
</g>
<!-- Node54&#45;&gt;Node55 -->
<g id="edge12" class="edge">
<title>Node54&#45;&gt;Node55</title>
<path fill="none" stroke="#191970" d="M865.5141,-73.8879C886.0566,-68.5956 909.7998,-62.4787 929.0472,-57.5201"/>
<polygon fill="#191970" stroke="#191970" points="864.5311,-70.5268 855.7205,-76.411 866.2775,-77.3054 864.5311,-70.5268"/>
</g>
<!-- Node55&#45;&gt;Node50 -->
<g id="edge13" class="edge">
<title>Node55&#45;&gt;Node50</title>
<path fill="none" stroke="#191970" d="M1030.1924,-48C1059.0058,-48 1090.9013,-48 1110.7011,-48"/>
<polygon fill="#191970" stroke="#191970" points="1030.1543,-44.5001 1020.1542,-48 1030.1542,-51.5001 1030.1543,-44.5001"/>
</g>
<!-- Node57 -->
<g id="node15" class="node">
<title>Node57</title>
<g id="a_node15"><a xlink:href="xcsf_8h.html#a874829f28fee20f9ad15b540f4b4d6ff" target="_top" xlink:title="Executes MAX_TRIALS number of XCSF learning iterations using the training data. ">
<polygon fill="none" stroke="#000000" points="791.5,-152.5 791.5,-171.5 845.5,-171.5 845.5,-152.5 791.5,-152.5"/>
<text text-anchor="middle" x="818.5" y="-159.5" font-family="Helvetica,sans-Serif" font-size="10.00" fill="#000000">xcsf_fit1</text>
</a>
</g>
</g>
<!-- Node56&#45;&gt;Node57 -->
<g id="edge15" class="edge">
<title>Node56&#45;&gt;Node57</title>
<path fill="none" stroke="#191970" d="M722.8959,-180.7967C746.0137,-176.2515 772.2809,-171.0871 791.4248,-167.3233"/>
<polygon fill="#191970" stroke="#191970" points="722.01,-177.4038 712.873,-182.7673 723.3604,-184.2723 722.01,-177.4038"/>
</g>
<!-- Node59 -->
<g id="node17" class="node">
<title>Node59</title>
<g id="a_node17"><a xlink:href="xcsf_8h.html#a0b4de57cb9dadc9deca7901aa36e5025" target="_top" xlink:title="Executes MAX_TRIALS number of XCSF learning iterations using the training. data and test iterations u...">
<polygon fill="none" stroke="#000000" points="791.5,-190.5 791.5,-209.5 845.5,-209.5 845.5,-190.5 791.5,-190.5"/>
<text text-anchor="middle" x="818.5" y="-197.5" font-family="Helvetica,sans-Serif" font-size="10.00" fill="#000000">xcsf_fit2</text>
</a>
</g>
</g>
<!-- Node56&#45;&gt;Node59 -->
<g id="edge18" class="edge">
<title>Node56&#45;&gt;Node59</title>
<path fill="none" stroke="#191970" d="M722.8959,-194.1665C746.0137,-195.5771 772.2809,-197.1799 791.4248,-198.348"/>
<polygon fill="#191970" stroke="#191970" points="723.0677,-190.6706 712.873,-193.555 722.6413,-197.6576 723.0677,-190.6706"/>
</g>
<!-- Node58 -->
<g id="node16" class="node">
<title>Node58</title>
<g id="a_node16"><a xlink:href="structXCS.html#ad2ccafe59d2b4ae6d0e1cbc15edee53c" target="_top" xlink:title="XCS::fit">
<polygon fill="none" stroke="#000000" points="940,-152.5 940,-171.5 992,-171.5 992,-152.5 940,-152.5"/>
<text text-anchor="middle" x="966" y="-159.5" font-family="Helvetica,sans-Serif" font-size="10.00" fill="#000000">XCS::fit</text>
</a>
</g>
</g>
<!-- Node57&#45;&gt;Node58 -->
<g id="edge16" class="edge">
<title>Node57&#45;&gt;Node58</title>
<path fill="none" stroke="#191970" d="M855.8464,-162C881.9913,-162 916.2833,-162 939.614,-162"/>
<polygon fill="#191970" stroke="#191970" points="855.5538,-158.5001 845.5538,-162 855.5537,-165.5001 855.5538,-158.5001"/>
</g>
<!-- Node58&#45;&gt;Node53 -->
<g id="edge17" class="edge">
<title>Node58&#45;&gt;Node53</title>
<path fill="none" stroke="#191970" d="M1001.6464,-172.0641C1008.283,-174.5584 1015.0083,-177.5315 1021,-181 1063.146,-205.3977 1104.011,-247.3742 1121.3329,-266.2755"/>
<polygon fill="#191970" stroke="#191970" points="1002.6769,-168.717 992.0821,-168.7502 1000.3851,-175.3313 1002.6769,-168.717"/>
</g>
<!-- Node59&#45;&gt;Node50 -->
<g id="edge19" class="edge">
<title>Node59&#45;&gt;Node50</title>
<path fill="none" stroke="#191970" d="M855.4052,-190.4976C862.1971,-187.953 869.023,-184.8177 875,-181 894.6063,-168.4769 891.4453,-155.6035 911,-143 954.4759,-114.9785 973.5059,-125.4858 1021,-105 1054.7267,-90.4525 1092.3375,-69.7225 1113.3884,-57.6847"/>
<polygon fill="#191970" stroke="#191970" points="853.9365,-187.2993 845.5813,-193.814 856.1755,-193.9316 853.9365,-187.2993"/>
</g>
<!-- Node60 -->
<g id="node18" class="node">
<title>Node60</title>
<g id="a_node18"><a xlink:href="structXCS.html#a7d53320740db8e846251bacd0238a9fb" target="_top" xlink:title="XCS::fit">
<polygon fill="none" stroke="#000000" points="940,-190.5 940,-209.5 992,-209.5 992,-190.5 940,-190.5"/>
<text text-anchor="middle" x="966" y="-197.5" font-family="Helvetica,sans-Serif" font-size="10.00" fill="#000000">XCS::fit</text>
</a>
</g>
</g>
<!-- Node59&#45;&gt;Node60 -->
<g id="edge20" class="edge">
<title>Node59&#45;&gt;Node60</title>
<path fill="none" stroke="#191970" d="M855.8464,-200C881.9913,-200 916.2833,-200 939.614,-200"/>
<polygon fill="#191970" stroke="#191970" points="855.5538,-196.5001 845.5538,-200 855.5537,-203.5001 855.5538,-196.5001"/>
</g>
<!-- Node61&#45;&gt;Node59 -->
<g id="edge22" class="edge">
<title>Node61&#45;&gt;Node59</title>
<path fill="none" stroke="#191970" d="M711.4051,-257.9779C716.3736,-256.1031 721.3395,-254.0946 726,-252 754.3981,-239.2372 785.6139,-220.6633 803.5511,-209.513"/>
<polygon fill="#191970" stroke="#191970" points="710.14,-254.7135 701.9264,-261.4058 712.5206,-261.2962 710.14,-254.7135"/>
</g>
<!-- Node62 -->
<g id="node20" class="node">
<title>Node62</title>
<g id="a_node20"><a xlink:href="xcsf_8h.html#a2cf95733e5f97410d94211b72e835847" target="_top" xlink:title="Calculates the XCSF error for the input data. ">
<polygon fill="none" stroke="#000000" points="786,-266.5 786,-285.5 851,-285.5 851,-266.5 786,-266.5"/>
<text text-anchor="middle" x="818.5" y="-273.5" font-family="Helvetica,sans-Serif" font-size="10.00" fill="#000000">xcsf_score</text>
</a>
</g>
</g>
<!-- Node61&#45;&gt;Node62 -->
<g id="edge23" class="edge">
<title>Node61&#45;&gt;Node62</title>
<path fill="none" stroke="#191970" d="M720.4017,-272.6746C741.8895,-273.403 766.4834,-274.2367 785.6705,-274.8871"/>
<polygon fill="#191970" stroke="#191970" points="720.2529,-269.1677 710.14,-272.3268 720.0157,-276.1637 720.2529,-269.1677"/>
</g>
<!-- Node63 -->
<g id="node21" class="node">
<title>Node63</title>
<g id="a_node21"><a xlink:href="structXCS.html#aa77bc77484d6d14bf512304a23cfec88" target="_top" xlink:title="XCS::score">
<polygon fill="none" stroke="#000000" points="932,-266.5 932,-285.5 1000,-285.5 1000,-266.5 932,-266.5"/>
<text text-anchor="middle" x="966" y="-273.5" font-family="Helvetica,sans-Serif" font-size="10.00" fill="#000000">XCS::score</text>
</a>
</g>
</g>
<!-- Node62&#45;&gt;Node63 -->
<g id="edge24" class="edge">
<title>Node62&#45;&gt;Node63</title>
<path fill="none" stroke="#191970" d="M861.4832,-276C883.8724,-276 910.8709,-276 931.8188,-276"/>
<polygon fill="#191970" stroke="#191970" points="861.2351,-272.5001 851.235,-276 861.235,-279.5001 861.2351,-272.5001"/>
</g>
<!-- Node63&#45;&gt;Node53 -->
<g id="edge25" class="edge">
<title>Node63&#45;&gt;Node53</title>
<path fill="none" stroke="#191970" d="M1010.4237,-276C1024.7375,-276 1041.0002,-276 1056.82,-276"/>
<polygon fill="#191970" stroke="#191970" points="1010.3798,-272.5001 1000.3798,-276 1010.3797,-279.5001 1010.3798,-272.5001"/>
</g>
<!-- Node65 -->
<g id="node23" class="node">
<title>Node65</title>
<g id="a_node23"><a xlink:href="structXCS.html#a911ed75c86abed7807d33eb1385240ed" target="_top" xlink:title="XCS::predict">
<polygon fill="none" stroke="#000000" points="782,-304.5 782,-323.5 855,-323.5 855,-304.5 782,-304.5"/>
<text text-anchor="middle" x="818.5" y="-311.5" font-family="Helvetica,sans-Serif" font-size="10.00" fill="#000000">XCS::predict</text>
</a>
</g>
</g>
<!-- Node64&#45;&gt;Node65 -->
<g id="edge27" class="edge">
<title>Node64&#45;&gt;Node65</title>
<path fill="none" stroke="#191970" d="M716.3334,-311.922C737.3834,-312.3502 762.0797,-312.8525 781.9179,-313.256"/>
<polygon fill="#191970" stroke="#191970" points="716.3991,-308.4227 706.3299,-311.7186 716.2567,-315.4213 716.3991,-308.4227"/>
</g>
<!-- Node65&#45;&gt;Node53 -->
<g id="edge28" class="edge">
<title>Node65&#45;&gt;Node53</title>
<path fill="none" stroke="#191970" d="M865.1793,-310.6731C906.2993,-307.4917 967.764,-302.126 1021,-295 1040.4199,-292.4005 1061.6686,-288.8562 1080.2058,-285.5326"/>
<polygon fill="#191970" stroke="#191970" points="864.8861,-307.1852 855.1808,-311.4346 865.4177,-314.165 864.8861,-307.1852"/>
</g>
<!-- Node67 -->
<g id="node25" class="node">
<title>Node67</title>
<g id="a_node25"><a xlink:href="structXCS.html#aa5608b379fae01b724267a99068d55bb" target="_top" xlink:title="XCS::print_match_set">
<polygon fill="none" stroke="#000000" points="762,-342.5 762,-361.5 875,-361.5 875,-342.5 762,-342.5"/>
<text text-anchor="middle" x="818.5" y="-349.5" font-family="Helvetica,sans-Serif" font-size="10.00" fill="#000000">XCS::print_match_set</text>
</a>
</g>
</g>
<!-- Node66&#45;&gt;Node67 -->
<g id="edge30" class="edge">
<title>Node66&#45;&gt;Node67</title>
<path fill="none" stroke="#191970" d="M736.542,-351.4444C744.9872,-351.5016 753.5777,-351.5598 761.8632,-351.616"/>
<polygon fill="#191970" stroke="#191970" points="736.3667,-347.9432 726.3432,-351.3752 736.3192,-354.943 736.3667,-347.9432"/>
</g>
<!-- Node67&#45;&gt;Node53 -->
<g id="edge31" class="edge">
<title>Node67&#45;&gt;Node53</title>
<path fill="none" stroke="#191970" d="M885.4142,-342.0346C925.1454,-335.4766 976.3273,-325.9065 1021,-314 1050.8215,-306.0517 1084.2087,-293.9149 1106.0798,-285.5051"/>
<polygon fill="#191970" stroke="#191970" points="884.6189,-338.6178 875.3107,-343.6782 885.7429,-345.527 884.6189,-338.6178"/>
</g>
<!-- Node68&#45;&gt;Node48 -->
<g id="edge33" class="edge">
<title>Node68&#45;&gt;Node48</title>
<path fill="none" stroke="#191970" d="M568.2899,-146.8841C581.1794,-136.7106 598.8563,-123.863 616,-115 622.9997,-111.3813 630.8399,-108.2039 638.3585,-105.5348"/>
<polygon fill="#191970" stroke="#191970" points="565.7788,-144.4131 560.1967,-153.4182 570.176,-149.8597 565.7788,-144.4131"/>
</g>
<!-- Node68&#45;&gt;Node56 -->
<g id="edge38" class="edge">
<title>Node68&#45;&gt;Node56</title>
<path fill="none" stroke="#191970" d="M574.0873,-168.7577C590.0252,-172.4156 611.0428,-177.2393 629.4303,-181.4594"/>
<polygon fill="#191970" stroke="#191970" points="574.4891,-165.259 563.9596,-166.4333 572.9232,-172.0817 574.4891,-165.259"/>
</g>
<!-- Node69 -->
<g id="node27" class="node">
<title>Node69</title>
<g id="a_node27"><a xlink:href="xcs__single__step_8h.html#aff4aec035e4573993a7906569f2028f5" target="_top" xlink:title="Creates the action set, updates the classifiers and runs the EA. ">
<polygon fill="none" stroke="#000000" points="622,-124.5 622,-143.5 720,-143.5 720,-124.5 622,-124.5"/>
<text text-anchor="middle" x="671" y="-131.5" font-family="Helvetica,sans-Serif" font-size="10.00" fill="#000000">xcs_single_update</text>
</a>
</g>
</g>
<!-- Node68&#45;&gt;Node69 -->
<g id="edge34" class="edge">
<title>Node68&#45;&gt;Node69</title>
<path fill="none" stroke="#191970" d="M573.8766,-157.0867C590.3,-153.1828 612.184,-147.9809 631.021,-143.5032"/>
<polygon fill="#191970" stroke="#191970" points="572.8791,-153.7262 563.9596,-159.444 574.498,-160.5365 572.8791,-153.7262"/>
</g>
<!-- Node69&#45;&gt;Node54 -->
<g id="edge37" class="edge">
<title>Node69&#45;&gt;Node54</title>
<path fill="none" stroke="#191970" d="M710.301,-121.2105C735.0441,-113.1585 766.4596,-102.9352 789.0568,-95.5815"/>
<polygon fill="#191970" stroke="#191970" points="708.9204,-117.9791 700.4943,-124.4018 711.0866,-124.6355 708.9204,-117.9791"/>
</g>
<!-- Node70 -->
<g id="node28" class="node">
<title>Node70</title>
<g id="a_node28"><a xlink:href="structXCS.html#aedc01ad6f00a54b260a7605929a1d4c9" target="_top" xlink:title="XCS::single_update">
<polygon fill="none" stroke="#000000" points="914,-76.5 914,-95.5 1018,-95.5 1018,-76.5 914,-76.5"/>
<text text-anchor="middle" x="966" y="-83.5" font-family="Helvetica,sans-Serif" font-size="10.00" fill="#000000">XCS::single_update</text>
</a>
</g>
</g>
<!-- Node69&#45;&gt;Node70 -->
<g id="edge35" class="edge">
<title>Node69&#45;&gt;Node70</title>
<path fill="none" stroke="#191970" d="M730.2376,-126.6075C771.0382,-121.2642 826.4383,-113.5122 875,-105 890.738,-102.2414 907.9128,-98.7749 923.0595,-95.5606"/>
<polygon fill="#191970" stroke="#191970" points="729.6576,-123.1534 720.1921,-127.9131 730.5599,-130.095 729.6576,-123.1534"/>
</g>
<!-- Node70&#45;&gt;Node53 -->
<g id="edge36" class="edge">
<title>Node70&#45;&gt;Node53</title>
<path fill="none" stroke="#191970" d="M983.3273,-103.2226C994.3483,-114.3548 1008.7908,-129.2758 1021,-143 1060.8843,-187.8334 1105.3331,-244.2549 1122.5912,-266.4291"/>
<polygon fill="#191970" stroke="#191970" points="985.5258,-100.4704 975.9878,-95.8575 980.5674,-105.4115 985.5258,-100.4704"/>
</g>
<!-- Node72 -->
<g id="node30" class="node">
<title>Node72</title>
<g id="a_node30"><a xlink:href="structXCS.html#a6dc7bea7d667fda1677497fd5a6f0def" target="_top" xlink:title="XCS::get_pop_avg_cond_size">
<polygon fill="none" stroke="#000000" points="333,-321.5 333,-340.5 482,-340.5 482,-321.5 333,-321.5"/>
<text text-anchor="middle" x="407.5" y="-328.5" font-family="Helvetica,sans-Serif" font-size="10.00" fill="#000000">XCS::get_pop_avg_cond_size</text>
</a>
</g>
</g>
<!-- Node71&#45;&gt;Node72 -->
<g id="edge40" class="edge">
<title>Node71&#45;&gt;Node72</title>
<path fill="none" stroke="#191970" d="M307.5968,-317.9691C316.3997,-319.1174 325.5318,-320.3085 334.537,-321.4831"/>
<polygon fill="#191970" stroke="#191970" points="307.8101,-314.4674 297.4414,-316.6445 306.9047,-321.4086 307.8101,-314.4674"/>
</g>
<!-- Node72&#45;&gt;Node53 -->
<g id="edge41" class="edge">
<title>Node72&#45;&gt;Node53</title>
<path fill="none" stroke="#191970" d="M442.5528,-344.0291C492.5229,-361.4048 587.451,-390 671,-390 671,-390 671,-390 818.5,-390 911.3104,-390 934.9973,-373.8899 1021,-339 1057.2544,-324.2922 1096.1001,-299.3512 1116.1884,-285.6782"/>
<polygon fill="#191970" stroke="#191970" points="443.4783,-340.6441 432.8835,-340.6107 441.145,-347.2438 443.4783,-340.6441"/>
</g>
</g>
</svg>
