<?xml version="1.0" encoding="UTF-8" standalone="no"?>
<!DOCTYPE svg PUBLIC "-//W3C//DTD SVG 1.1//EN"
 "http://www.w3.org/Graphics/SVG/1.1/DTD/svg11.dtd">
<!-- Generated by graphviz version 2.40.1 (20161225.0304)
 -->
<!-- Title: cl_pred_size Pages: 1 -->
<svg width="1302pt" height="328pt"
 viewBox="0.00 0.00 1302.00 328.00" xmlns="http://www.w3.org/2000/svg" xmlns:xlink="http://www.w3.org/1999/xlink">
<g id="graph0" class="graph" transform="scale(1 1) rotate(0) translate(4 324)">
<title>cl_pred_size</title>
<!-- Node342 -->
<g id="node1" class="node">
<title>Node342</title>
<polygon fill="#bfbfbf" stroke="#000000" points="0,-235.5 0,-254.5 71,-254.5 71,-235.5 0,-235.5"/>
<text text-anchor="middle" x="35.5" y="-242.5" font-family="Helvetica,sans-Serif" font-size="10.00" fill="#000000">cl_pred_size</text>
</g>
<!-- Node343 -->
<g id="node2" class="node">
<title>Node343</title>
<g id="a_node2"><a xlink:href="clset_8h.html#a153a7fb58d6742e0509b006fe224dcaf" target="_top" xlink:title="Calculates the mean prediction size of classifiers in the set. ">
<polygon fill="none" stroke="#000000" points="107,-282.5 107,-301.5 221,-301.5 221,-282.5 107,-282.5"/>
<text text-anchor="middle" x="164" y="-289.5" font-family="Helvetica,sans-Serif" font-size="10.00" fill="#000000">clset_mean_pred_size</text>
</a>
</g>
</g>
<!-- Node342&#45;&gt;Node343 -->
<g id="edge1" class="edge">
<title>Node342&#45;&gt;Node343</title>
<path fill="none" stroke="#191970" d="M71.074,-258.0115C92.1379,-265.7158 118.3754,-275.3124 137.5937,-282.3417"/>
<polygon fill="#191970" stroke="#191970" points="72.0977,-254.6592 61.5039,-254.5112 69.6931,-261.2333 72.0977,-254.6592"/>
</g>
<!-- Node346 -->
<g id="node5" class="node">
<title>Node346</title>
<g id="a_node5"><a xlink:href="clset_8c.html#a008502b88c280aa55bb9a3645216209c" target="_top" xlink:title="clset_pop_roulette">
<polygon fill="none" stroke="#000000" points="116,-216.5 116,-235.5 212,-235.5 212,-216.5 116,-216.5"/>
<text text-anchor="middle" x="164" y="-223.5" font-family="Helvetica,sans-Serif" font-size="10.00" fill="#000000">clset_pop_roulette</text>
</a>
</g>
</g>
<!-- Node342&#45;&gt;Node346 -->
<g id="edge4" class="edge">
<title>Node342&#45;&gt;Node346</title>
<path fill="none" stroke="#191970" d="M81.3248,-238.2243C92.5455,-236.5653 104.5851,-234.7851 115.9086,-233.1108"/>
<polygon fill="#191970" stroke="#191970" points="80.6749,-234.7823 71.2944,-239.7074 81.6988,-241.707 80.6749,-234.7823"/>
</g>
<!-- Node344 -->
<g id="node3" class="node">
<title>Node344</title>
<g id="a_node3"><a xlink:href="classXCS.html#ad9367f471d3bd009d3d84a6e85f5b619" target="_top" xlink:title="XCS::get_pop_mean_pred_size">
<polygon fill="none" stroke="#000000" points="370,-300.5 370,-319.5 525,-319.5 525,-300.5 370,-300.5"/>
<text text-anchor="middle" x="447.5" y="-307.5" font-family="Helvetica,sans-Serif" font-size="10.00" fill="#000000">XCS::get_pop_mean_pred_size</text>
</a>
</g>
</g>
<!-- Node343&#45;&gt;Node344 -->
<g id="edge2" class="edge">
<title>Node343&#45;&gt;Node344</title>
<path fill="none" stroke="#191970" d="M231.0729,-296.2586C272.7191,-298.9028 326.4021,-302.3112 369.8834,-305.072"/>
<polygon fill="#191970" stroke="#191970" points="231.2311,-292.7617 221.0294,-295.6209 230.7875,-299.7476 231.2311,-292.7617"/>
</g>
<!-- Node345 -->
<g id="node4" class="node">
<title>Node345</title>
<g id="a_node4"><a xlink:href="pybind__wrapper_8cpp.html#a9f26280e01308c4674f2473fb6f78730" target="_top" xlink:title="pybind11_init_xcsf">
<polygon fill="none" stroke="#000000" points="1196,-209.5 1196,-228.5 1294,-228.5 1294,-209.5 1196,-209.5"/>
<text text-anchor="middle" x="1245" y="-216.5" font-family="Helvetica,sans-Serif" font-size="10.00" fill="#000000">pybind11_init_xcsf</text>
</a>
</g>
</g>
<!-- Node344&#45;&gt;Node345 -->
<g id="edge3" class="edge">
<title>Node344&#45;&gt;Node345</title>
<path fill="none" stroke="#191970" d="M535.2136,-312.0789C583.5303,-313.0519 644.5736,-314 699,-314 699,-314 699,-314 962,-314 1051.3643,-314 1077.5106,-313.3726 1160,-279 1189.8455,-266.5637 1219.511,-242.1844 1234.6566,-228.6438"/>
<polygon fill="#191970" stroke="#191970" points="535.1733,-308.5774 525.1034,-311.8712 535.0294,-315.5759 535.1733,-308.5774"/>
</g>
<!-- Node347 -->
<g id="node6" class="node">
<title>Node347</title>
<g id="a_node6"><a xlink:href="clset_8c.html#ab1434372d7fab6e40f3c8d898d20e025" target="_top" xlink:title="Deletes a single classifier from the population set. ">
<polygon fill="none" stroke="#000000" points="257,-159.5 257,-178.5 334,-178.5 334,-159.5 257,-159.5"/>
<text text-anchor="middle" x="295.5" y="-166.5" font-family="Helvetica,sans-Serif" font-size="10.00" fill="#000000">clset_pop_del</text>
</a>
</g>
</g>
<!-- Node346&#45;&gt;Node347 -->
<g id="edge5" class="edge">
<title>Node346&#45;&gt;Node347</title>
<path fill="none" stroke="#191970" d="M195.4172,-212.3819C219.4756,-201.9535 252.0582,-187.8303 273.418,-178.5716"/>
<polygon fill="#191970" stroke="#191970" points="193.7933,-209.2711 186.0101,-216.4595 196.5773,-215.6937 193.7933,-209.2711"/>
</g>
<!-- Node348 -->
<g id="node7" class="node">
<title>Node348</title>
<g id="a_node7"><a xlink:href="clset_8h.html#aa9a3c8630ce227b87a65c6e624430c99" target="_top" xlink:title="Enforces the maximum population size limit. ">
<polygon fill="none" stroke="#000000" points="388,-152.5 388,-171.5 507,-171.5 507,-152.5 388,-152.5"/>
<text text-anchor="middle" x="447.5" y="-159.5" font-family="Helvetica,sans-Serif" font-size="10.00" fill="#000000">clset_pop_enforce_limit</text>
</a>
</g>
</g>
<!-- Node347&#45;&gt;Node348 -->
<g id="edge6" class="edge">
<title>Node347&#45;&gt;Node348</title>
<path fill="none" stroke="#191970" d="M344.5036,-166.7433C358.3084,-166.1075 373.479,-165.4089 387.8337,-164.7478"/>
<polygon fill="#191970" stroke="#191970" points="344.0777,-163.2591 334.2493,-167.2155 344.3998,-170.2517 344.0777,-163.2591"/>
</g>
<!-- Node349 -->
<g id="node8" class="node">
<title>Node349</title>
<g id="a_node8"><a xlink:href="clset_8c.html#a60fd3363a0a370e8b5a18671861be461" target="_top" xlink:title="Ensures all possible actions are covered by the match set. ">
<polygon fill="none" stroke="#000000" points="561,-114.5 561,-133.5 628,-133.5 628,-114.5 561,-114.5"/>
<text text-anchor="middle" x="594.5" y="-121.5" font-family="Helvetica,sans-Serif" font-size="10.00" fill="#000000">clset_cover</text>
</a>
</g>
</g>
<!-- Node348&#45;&gt;Node349 -->
<g id="edge7" class="edge">
<title>Node348&#45;&gt;Node349</title>
<path fill="none" stroke="#191970" d="M494.5587,-149.8352C516.1633,-144.2503 541.2848,-137.7563 560.9365,-132.6763"/>
<polygon fill="#191970" stroke="#191970" points="493.4001,-146.5195 484.5943,-152.411 495.152,-153.2968 493.4001,-146.5195"/>
</g>
<!-- Node366 -->
<g id="node25" class="node">
<title>Node366</title>
<g id="a_node25"><a xlink:href="ea_8h.html#ae90a9b4131bb94462265b9c928499eb8" target="_top" xlink:title="Executes the evolutionary algorithm (EA). ">
<polygon fill="none" stroke="#000000" points="684.5,-152.5 684.5,-171.5 713.5,-171.5 713.5,-152.5 684.5,-152.5"/>
<text text-anchor="middle" x="699" y="-159.5" font-family="Helvetica,sans-Serif" font-size="10.00" fill="#000000">ea</text>
</a>
</g>
</g>
<!-- Node348&#45;&gt;Node366 -->
<g id="edge30" class="edge">
<title>Node348&#45;&gt;Node366</title>
<path fill="none" stroke="#191970" d="M517.2663,-162C574.96,-162 652.4084,-162 684.3192,-162"/>
<polygon fill="#191970" stroke="#191970" points="517.102,-158.5001 507.102,-162 517.102,-165.5001 517.102,-158.5001"/>
</g>
<!-- Node350 -->
<g id="node9" class="node">
<title>Node350</title>
<g id="a_node9"><a xlink:href="clset_8h.html#a229207544a5b8b601de05d231bb84650" target="_top" xlink:title="Constructs the match set. ">
<polygon fill="none" stroke="#000000" points="664,-114.5 664,-133.5 734,-133.5 734,-114.5 664,-114.5"/>
<text text-anchor="middle" x="699" y="-121.5" font-family="Helvetica,sans-Serif" font-size="10.00" fill="#000000">clset_match</text>
</a>
</g>
</g>
<!-- Node349&#45;&gt;Node350 -->
<g id="edge8" class="edge">
<title>Node349&#45;&gt;Node350</title>
<path fill="none" stroke="#191970" d="M638.3543,-124C646.9061,-124 655.7659,-124 663.985,-124"/>
<polygon fill="#191970" stroke="#191970" points="638.1397,-120.5001 628.1397,-124 638.1396,-127.5001 638.1397,-120.5001"/>
</g>
<!-- Node351 -->
<g id="node10" class="node">
<title>Node351</title>
<g id="a_node10"><a xlink:href="xcs__multi__step_8h.html#af2eaa15cba52d29fa3630218d9780a6a" target="_top" xlink:title="Constructs the match set and selects an action to perform. ">
<polygon fill="none" stroke="#000000" points="772,-38.5 772,-57.5 872,-57.5 872,-38.5 772,-38.5"/>
<text text-anchor="middle" x="822" y="-45.5" font-family="Helvetica,sans-Serif" font-size="10.00" fill="#000000">xcs_multi_decision</text>
</a>
</g>
</g>
<!-- Node350&#45;&gt;Node351 -->
<g id="edge9" class="edge">
<title>Node350&#45;&gt;Node351</title>
<path fill="none" stroke="#191970" d="M718.4307,-108.1265C732.3065,-97.2079 751.6841,-82.7876 770,-72 779.0814,-66.6513 789.5576,-61.6172 798.7165,-57.5543"/>
<polygon fill="#191970" stroke="#191970" points="716.1927,-105.4346 710.5607,-114.4086 720.5596,-110.9054 716.1927,-105.4346"/>
</g>
<!-- Node355 -->
<g id="node14" class="node">
<title>Node355</title>
<g id="a_node14"><a xlink:href="xcs__single__step_8h.html#a5c1d53976f601ae3603aed34f0767c29" target="_top" xlink:title="Constructs the match set and selects an action to perform. ">
<polygon fill="none" stroke="#000000" points="770,-114.5 770,-133.5 874,-133.5 874,-114.5 770,-114.5"/>
<text text-anchor="middle" x="822" y="-121.5" font-family="Helvetica,sans-Serif" font-size="10.00" fill="#000000">xcs_single_decision</text>
</a>
</g>
</g>
<!-- Node350&#45;&gt;Node355 -->
<g id="edge13" class="edge">
<title>Node350&#45;&gt;Node355</title>
<path fill="none" stroke="#191970" d="M744.4304,-124C752.6841,-124 761.3532,-124 769.784,-124"/>
<polygon fill="#191970" stroke="#191970" points="744.2469,-120.5001 734.2469,-124 744.2468,-127.5001 744.2469,-120.5001"/>
</g>
<!-- Node359 -->
<g id="node18" class="node">
<title>Node359</title>
<g id="a_node18"><a xlink:href="xcsf_8c.html#af5fb604e81235fdcb2ed8925d9291f59" target="_top" xlink:title="Executes a single XCSF trial. ">
<polygon fill="none" stroke="#000000" points="794,-152.5 794,-171.5 850,-171.5 850,-152.5 794,-152.5"/>
<text text-anchor="middle" x="822" y="-159.5" font-family="Helvetica,sans-Serif" font-size="10.00" fill="#000000">xcsf_trial</text>
</a>
</g>
</g>
<!-- Node350&#45;&gt;Node359 -->
<g id="edge19" class="edge">
<title>Node350&#45;&gt;Node359</title>
<path fill="none" stroke="#191970" d="M739.607,-136.5453C757.4018,-142.0428 777.845,-148.3586 793.9162,-153.3237"/>
<polygon fill="#191970" stroke="#191970" points="740.6257,-133.1968 730.0381,-133.589 738.5594,-139.8849 740.6257,-133.1968"/>
</g>
<!-- Node352 -->
<g id="node11" class="node">
<title>Node352</title>
<g id="a_node11"><a xlink:href="xcs__multi__step_8c.html#ad50c415970b4bfc42f469fb38c5e68fa" target="_top" xlink:title="Executes a multi&#45;step trial using a built&#45;in environment. ">
<polygon fill="none" stroke="#000000" points="922,-38.5 922,-57.5 1002,-57.5 1002,-38.5 922,-38.5"/>
<text text-anchor="middle" x="962" y="-45.5" font-family="Helvetica,sans-Serif" font-size="10.00" fill="#000000">xcs_multi_trial</text>
</a>
</g>
</g>
<!-- Node351&#45;&gt;Node352 -->
<g id="edge10" class="edge">
<title>Node351&#45;&gt;Node352</title>
<path fill="none" stroke="#191970" d="M882.2536,-48C895.6359,-48 909.5029,-48 921.8465,-48"/>
<polygon fill="#191970" stroke="#191970" points="882.1478,-44.5001 872.1478,-48 882.1477,-51.5001 882.1478,-44.5001"/>
</g>
<!-- Node353 -->
<g id="node12" class="node">
<title>Node353</title>
<g id="a_node12"><a xlink:href="xcs__multi__step_8h.html#acc29d4a55dbd56c16ea5f19f15a7c677" target="_top" xlink:title="Executes a multi&#45;step reinforcement learning experiment. ">
<polygon fill="none" stroke="#000000" points="1053,-.5 1053,-19.5 1157,-19.5 1157,-.5 1053,-.5"/>
<text text-anchor="middle" x="1105" y="-7.5" font-family="Helvetica,sans-Serif" font-size="10.00" fill="#000000">xcs_multi_step_exp</text>
</a>
</g>
</g>
<!-- Node352&#45;&gt;Node353 -->
<g id="edge11" class="edge">
<title>Node352&#45;&gt;Node353</title>
<path fill="none" stroke="#191970" d="M1007.8133,-35.8258C1027.5871,-30.5713 1050.3838,-24.5134 1068.9266,-19.5859"/>
<polygon fill="#191970" stroke="#191970" points="1006.8506,-32.4601 998.0849,-38.411 1008.6484,-39.2253 1006.8506,-32.4601"/>
</g>
<!-- Node354 -->
<g id="node13" class="node">
<title>Node354</title>
<g id="a_node13"><a xlink:href="main_8c.html#a3c04138a5bfe5d72780bb7e82a18e627" target="_top" xlink:title="main">
<polygon fill="none" stroke="#000000" points="1226,-38.5 1226,-57.5 1264,-57.5 1264,-38.5 1226,-38.5"/>
<text text-anchor="middle" x="1245" y="-45.5" font-family="Helvetica,sans-Serif" font-size="10.00" fill="#000000">main</text>
</a>
</g>
</g>
<!-- Node353&#45;&gt;Node354 -->
<g id="edge12" class="edge">
<title>Node353&#45;&gt;Node354</title>
<path fill="none" stroke="#191970" d="M1150.1824,-22.2638C1175.6942,-29.1884 1206.2578,-37.4843 1225.6531,-42.7487"/>
<polygon fill="#191970" stroke="#191970" points="1150.8956,-18.8308 1140.3279,-19.589 1149.0619,-25.5864 1150.8956,-18.8308"/>
</g>
<!-- Node356 -->
<g id="node15" class="node">
<title>Node356</title>
<g id="a_node15"><a xlink:href="classXCS.html#a92001d251c372244fd07c624f2dcff83" target="_top" xlink:title="XCS::single_decision">
<polygon fill="none" stroke="#000000" points="1050,-114.5 1050,-133.5 1160,-133.5 1160,-114.5 1050,-114.5"/>
<text text-anchor="middle" x="1105" y="-121.5" font-family="Helvetica,sans-Serif" font-size="10.00" fill="#000000">XCS::single_decision</text>
</a>
</g>
</g>
<!-- Node355&#45;&gt;Node356 -->
<g id="edge14" class="edge">
<title>Node355&#45;&gt;Node356</title>
<path fill="none" stroke="#191970" d="M867.7147,-112.2021C881.234,-109.2379 896.1292,-106.4804 910,-105 955.9612,-100.0948 968.0224,-100.2513 1014,-105 1031.9804,-106.857 1051.6459,-110.7259 1068.0805,-114.4908"/>
<polygon fill="#191970" stroke="#191970" points="866.6549,-108.8539 857.6844,-114.4914 868.2125,-115.6784 866.6549,-108.8539"/>
</g>
<!-- Node357 -->
<g id="node16" class="node">
<title>Node357</title>
<g id="a_node16"><a xlink:href="xcs__single__step_8c.html#a536ab4256e871e31959ea6e907455340" target="_top" xlink:title="Executes a single&#45;step trial using a built&#45;in environment. ">
<polygon fill="none" stroke="#000000" points="920,-114.5 920,-133.5 1004,-133.5 1004,-114.5 920,-114.5"/>
<text text-anchor="middle" x="962" y="-121.5" font-family="Helvetica,sans-Serif" font-size="10.00" fill="#000000">xcs_single_trial</text>
</a>
</g>
</g>
<!-- Node355&#45;&gt;Node357 -->
<g id="edge16" class="edge">
<title>Node355&#45;&gt;Node357</title>
<path fill="none" stroke="#191970" d="M884.1666,-124C896.2402,-124 908.6287,-124 919.8708,-124"/>
<polygon fill="#191970" stroke="#191970" points="884.1309,-120.5001 874.1308,-124 884.1308,-127.5001 884.1309,-120.5001"/>
</g>
<!-- Node356&#45;&gt;Node345 -->
<g id="edge15" class="edge">
<title>Node356&#45;&gt;Node345</title>
<path fill="none" stroke="#191970" d="M1148.9721,-137.3923C1152.792,-139.0898 1156.5225,-140.9574 1160,-143 1191.9186,-161.7483 1222.5608,-193.6589 1236.7601,-209.4988"/>
<polygon fill="#191970" stroke="#191970" points="1149.9686,-134.0201 1139.3856,-133.5203 1147.3471,-140.5107 1149.9686,-134.0201"/>
</g>
<!-- Node358 -->
<g id="node17" class="node">
<title>Node358</title>
<g id="a_node17"><a xlink:href="xcs__single__step_8h.html#a39a031bf59eaa9b33e30e614610dcda8" target="_top" xlink:title="Executes a single&#45;step reinforcement learning experiment. ">
<polygon fill="none" stroke="#000000" points="1051,-38.5 1051,-57.5 1159,-57.5 1159,-38.5 1051,-38.5"/>
<text text-anchor="middle" x="1105" y="-45.5" font-family="Helvetica,sans-Serif" font-size="10.00" fill="#000000">xcs_single_step_exp</text>
</a>
</g>
</g>
<!-- Node357&#45;&gt;Node358 -->
<g id="edge17" class="edge">
<title>Node357&#45;&gt;Node358</title>
<path fill="none" stroke="#191970" d="M985.8672,-108.8208C1003.3205,-97.988 1027.7358,-83.3819 1050,-72 1060.1111,-66.831 1071.5829,-61.7128 1081.4236,-57.5392"/>
<polygon fill="#191970" stroke="#191970" points="983.5639,-106.1334 976.945,-114.4064 987.2783,-112.0666 983.5639,-106.1334"/>
</g>
<!-- Node358&#45;&gt;Node354 -->
<g id="edge18" class="edge">
<title>Node358&#45;&gt;Node354</title>
<path fill="none" stroke="#191970" d="M1169.1791,-48C1189.8302,-48 1211.1618,-48 1225.9174,-48"/>
<polygon fill="#191970" stroke="#191970" points="1169.1277,-44.5001 1159.1277,-48 1169.1276,-51.5001 1169.1277,-44.5001"/>
</g>
<!-- Node360 -->
<g id="node19" class="node">
<title>Node360</title>
<g id="a_node19"><a xlink:href="xcsf_8h.html#aee465caea59599a71fc69528598156cb" target="_top" xlink:title="Executes MAX_TRIALS number of XCSF learning iterations using the training data and test iterations us...">
<polygon fill="none" stroke="#000000" points="937.5,-152.5 937.5,-171.5 986.5,-171.5 986.5,-152.5 937.5,-152.5"/>
<text text-anchor="middle" x="962" y="-159.5" font-family="Helvetica,sans-Serif" font-size="10.00" fill="#000000">xcsf_fit</text>
</a>
</g>
</g>
<!-- Node359&#45;&gt;Node360 -->
<g id="edge20" class="edge">
<title>Node359&#45;&gt;Node360</title>
<path fill="none" stroke="#191970" d="M860.4176,-162C885.0044,-162 916.1683,-162 937.4537,-162"/>
<polygon fill="#191970" stroke="#191970" points="860.3311,-158.5001 850.3311,-162 860.3311,-165.5001 860.3311,-158.5001"/>
</g>
<!-- Node362 -->
<g id="node21" class="node">
<title>Node362</title>
<g id="a_node21"><a xlink:href="xcsf_8h.html#af128a7da769acabe2e841e8d06749b0b" target="_top" xlink:title="Calculates the XCSF predictions for the provided input. ">
<polygon fill="none" stroke="#000000" points="927,-228.5 927,-247.5 997,-247.5 997,-228.5 927,-228.5"/>
<text text-anchor="middle" x="962" y="-235.5" font-family="Helvetica,sans-Serif" font-size="10.00" fill="#000000">xcsf_predict</text>
</a>
</g>
</g>
<!-- Node359&#45;&gt;Node362 -->
<g id="edge24" class="edge">
<title>Node359&#45;&gt;Node362</title>
<path fill="none" stroke="#191970" d="M859.7029,-173.3955C864.6903,-175.5786 869.5947,-178.1052 874,-181 893.4424,-193.7761 890.5576,-206.2239 910,-219 915.7031,-222.7476 922.2425,-225.8779 928.7158,-228.4451"/>
<polygon fill="#191970" stroke="#191970" points="860.7056,-170.0286 850.1189,-169.6138 858.1363,-176.54 860.7056,-170.0286"/>
</g>
<!-- Node364 -->
<g id="node23" class="node">
<title>Node364</title>
<g id="a_node23"><a xlink:href="xcsf_8h.html#a348b8cd321211c377fb1deedc62c7c67" target="_top" xlink:title="Calculates the XCSF error for the input data. ">
<polygon fill="none" stroke="#000000" points="929.5,-190.5 929.5,-209.5 994.5,-209.5 994.5,-190.5 929.5,-190.5"/>
<text text-anchor="middle" x="962" y="-197.5" font-family="Helvetica,sans-Serif" font-size="10.00" fill="#000000">xcsf_score</text>
</a>
</g>
</g>
<!-- Node359&#45;&gt;Node364 -->
<g id="edge27" class="edge">
<title>Node359&#45;&gt;Node364</title>
<path fill="none" stroke="#191970" d="M860.1812,-172.3635C881.8239,-178.2379 908.6217,-185.5116 929.2922,-191.1222"/>
<polygon fill="#191970" stroke="#191970" points="860.8988,-168.9317 850.3311,-169.6899 859.0651,-175.6872 860.8988,-168.9317"/>
</g>
<!-- Node360&#45;&gt;Node354 -->
<g id="edge21" class="edge">
<title>Node360&#45;&gt;Node354</title>
<path fill="none" stroke="#191970" d="M996.2163,-152.0718C1002.383,-149.5762 1008.5705,-146.5678 1014,-143 1033.4424,-130.2239 1030.1471,-117.1283 1050,-105 1080.1739,-86.5665 1182.6976,-62.0431 1225.733,-52.2764"/>
<polygon fill="#191970" stroke="#191970" points="994.8383,-148.8491 986.6547,-155.578 997.2483,-155.4211 994.8383,-148.8491"/>
</g>
<!-- Node361 -->
<g id="node20" class="node">
<title>Node361</title>
<g id="a_node20"><a xlink:href="classXCS.html#ac9a4a7cb0ec6238ef1d4d77996f8975b" target="_top" xlink:title="XCS::fit">
<polygon fill="none" stroke="#000000" points="1079,-152.5 1079,-171.5 1131,-171.5 1131,-152.5 1079,-152.5"/>
<text text-anchor="middle" x="1105" y="-159.5" font-family="Helvetica,sans-Serif" font-size="10.00" fill="#000000">XCS::fit</text>
</a>
</g>
</g>
<!-- Node360&#45;&gt;Node361 -->
<g id="edge22" class="edge">
<title>Node360&#45;&gt;Node361</title>
<path fill="none" stroke="#191970" d="M996.849,-162C1022.1305,-162 1055.7911,-162 1078.8041,-162"/>
<polygon fill="#191970" stroke="#191970" points="996.5826,-158.5001 986.5826,-162 996.5825,-165.5001 996.5826,-158.5001"/>
</g>
<!-- Node361&#45;&gt;Node345 -->
<g id="edge23" class="edge">
<title>Node361&#45;&gt;Node345</title>
<path fill="none" stroke="#191970" d="M1140.9748,-173.9187C1147.3484,-176.1747 1153.8964,-178.5868 1160,-181 1182.5483,-189.915 1207.8553,-201.429 1224.9467,-209.4356"/>
<polygon fill="#191970" stroke="#191970" points="1141.7862,-170.4956 1131.1914,-170.5241 1139.4915,-177.1088 1141.7862,-170.4956"/>
</g>
<!-- Node363 -->
<g id="node22" class="node">
<title>Node363</title>
<g id="a_node22"><a xlink:href="classXCS.html#a8e8db281054f9e5937610eed434cd4a5" target="_top" xlink:title="XCS::predict">
<polygon fill="none" stroke="#000000" points="1068.5,-228.5 1068.5,-247.5 1141.5,-247.5 1141.5,-228.5 1068.5,-228.5"/>
<text text-anchor="middle" x="1105" y="-235.5" font-family="Helvetica,sans-Serif" font-size="10.00" fill="#000000">XCS::predict</text>
</a>
</g>
</g>
<!-- Node362&#45;&gt;Node363 -->
<g id="edge25" class="edge">
<title>Node362&#45;&gt;Node363</title>
<path fill="none" stroke="#191970" d="M1007.5882,-238C1027.1972,-238 1049.8131,-238 1068.3147,-238"/>
<polygon fill="#191970" stroke="#191970" points="1007.3484,-234.5001 997.3483,-238 1007.3483,-241.5001 1007.3484,-234.5001"/>
</g>
<!-- Node363&#45;&gt;Node345 -->
<g id="edge26" class="edge">
<title>Node363&#45;&gt;Node345</title>
<path fill="none" stroke="#191970" d="M1151.7965,-231.649C1165.9473,-229.7286 1181.5245,-227.6145 1195.8258,-225.6736"/>
<polygon fill="#191970" stroke="#191970" points="1151.2218,-228.1949 1141.7834,-233.008 1152.1632,-235.1313 1151.2218,-228.1949"/>
</g>
<!-- Node365 -->
<g id="node24" class="node">
<title>Node365</title>
<g id="a_node24"><a xlink:href="classXCS.html#ad32ffc841106ec036029e4c90a33b761" target="_top" xlink:title="XCS::score">
<polygon fill="none" stroke="#000000" points="1071,-190.5 1071,-209.5 1139,-209.5 1139,-190.5 1071,-190.5"/>
<text text-anchor="middle" x="1105" y="-197.5" font-family="Helvetica,sans-Serif" font-size="10.00" fill="#000000">XCS::score</text>
</a>
</g>
</g>
<!-- Node364&#45;&gt;Node365 -->
<g id="edge28" class="edge">
<title>Node364&#45;&gt;Node365</title>
<path fill="none" stroke="#191970" d="M1004.8115,-200C1025.9289,-200 1051.0489,-200 1070.853,-200"/>
<polygon fill="#191970" stroke="#191970" points="1004.8071,-196.5001 994.8071,-200 1004.8071,-203.5001 1004.8071,-196.5001"/>
</g>
<!-- Node365&#45;&gt;Node345 -->
<g id="edge29" class="edge">
<title>Node365&#45;&gt;Node345</title>
<path fill="none" stroke="#191970" d="M1149.1761,-205.9953C1163.9882,-208.0055 1180.5944,-210.2592 1195.7689,-212.3186"/>
<polygon fill="#191970" stroke="#191970" points="1149.6277,-202.5246 1139.2479,-204.6479 1148.6863,-209.461 1149.6277,-202.5246"/>
</g>
<!-- Node366&#45;&gt;Node352 -->
<g id="edge31" class="edge">
<title>Node366&#45;&gt;Node352</title>
<path fill="none" stroke="#191970" d="M722.5858,-150.5301C726.5328,-148.24 730.4836,-145.7003 734,-143 752.4515,-128.8304 750.1726,-117.17 770,-105 795.4854,-89.3571 873.3967,-69.0037 921.782,-57.3309"/>
<polygon fill="#191970" stroke="#191970" points="720.7318,-147.5533 713.5894,-155.3788 724.0529,-153.7154 720.7318,-147.5533"/>
</g>
<!-- Node366&#45;&gt;Node359 -->
<g id="edge36" class="edge">
<title>Node366&#45;&gt;Node359</title>
<path fill="none" stroke="#191970" d="M723.6189,-162C743.9151,-162 772.7091,-162 793.9042,-162"/>
<polygon fill="#191970" stroke="#191970" points="723.5928,-158.5001 713.5927,-162 723.5927,-165.5001 723.5928,-158.5001"/>
</g>
<!-- Node367 -->
<g id="node26" class="node">
<title>Node367</title>
<g id="a_node26"><a xlink:href="xcs__single__step_8h.html#a0ff6b521f66224d56ef0e6f50f5781b9" target="_top" xlink:title="Creates the action set, updates the classifiers and runs the EA. ">
<polygon fill="none" stroke="#000000" points="773,-190.5 773,-209.5 871,-209.5 871,-190.5 773,-190.5"/>
<text text-anchor="middle" x="822" y="-197.5" font-family="Helvetica,sans-Serif" font-size="10.00" fill="#000000">xcs_single_update</text>
</a>
</g>
</g>
<!-- Node366&#45;&gt;Node367 -->
<g id="edge32" class="edge">
<title>Node366&#45;&gt;Node367</title>
<path fill="none" stroke="#191970" d="M723.1966,-169.4754C742.5927,-175.4677 769.9449,-183.9179 790.9545,-190.4087"/>
<polygon fill="#191970" stroke="#191970" points="724.1803,-166.1161 713.5927,-166.5083 722.114,-172.8042 724.1803,-166.1161"/>
</g>
<!-- Node367&#45;&gt;Node357 -->
<g id="edge35" class="edge">
<title>Node367&#45;&gt;Node357</title>
<path fill="none" stroke="#191970" d="M864.6347,-186.3122C867.8963,-184.7006 871.0594,-182.9324 874,-181 893.4424,-168.2239 890.5576,-155.7761 910,-143 915.7031,-139.2524 922.2425,-136.1221 928.7158,-133.5549"/>
<polygon fill="#191970" stroke="#191970" points="863.0156,-183.2011 855.2842,-190.4451 865.8456,-189.6035 863.0156,-183.2011"/>
</g>
<!-- Node368 -->
<g id="node27" class="node">
<title>Node368</title>
<g id="a_node27"><a xlink:href="classXCS.html#aedc01ad6f00a54b260a7605929a1d4c9" target="_top" xlink:title="XCS::single_update">
<polygon fill="none" stroke="#000000" points="910,-266.5 910,-285.5 1014,-285.5 1014,-266.5 910,-266.5"/>
<text text-anchor="middle" x="962" y="-273.5" font-family="Helvetica,sans-Serif" font-size="10.00" fill="#000000">XCS::single_update</text>
</a>
</g>
</g>
<!-- Node367&#45;&gt;Node368 -->
<g id="edge33" class="edge">
<title>Node367&#45;&gt;Node368</title>
<path fill="none" stroke="#191970" d="M843.1382,-215.6265C860.4813,-227.9636 886.0016,-245.0339 910,-257 917.0533,-260.5169 924.9232,-263.7302 932.3631,-266.4736"/>
<polygon fill="#191970" stroke="#191970" points="845.0233,-212.6707 834.8656,-209.6585 840.9278,-218.3477 845.0233,-212.6707"/>
</g>
<!-- Node368&#45;&gt;Node345 -->
<g id="edge34" class="edge">
<title>Node368&#45;&gt;Node345</title>
<path fill="none" stroke="#191970" d="M1024.1018,-275.1887C1063.5815,-273.418 1115.462,-268.7544 1160,-257 1184.6943,-250.4827 1211.2848,-237.5352 1228.0244,-228.5774"/>
<polygon fill="#191970" stroke="#191970" points="1023.9393,-271.6923 1014.0868,-275.5882 1024.2183,-278.6868 1023.9393,-271.6923"/>
</g>
</g>
</svg>
