<?xml version="1.0" encoding="UTF-8" standalone="no"?>
<!DOCTYPE svg PUBLIC "-//W3C//DTD SVG 1.1//EN"
 "http://www.w3.org/Graphics/SVG/1.1/DTD/svg11.dtd">
<!-- Generated by graphviz version 2.40.1 (20161225.0304)
 -->
<!-- Title: cl_copy Pages: 1 -->
<svg width="797pt" height="192pt"
 viewBox="0.00 0.00 797.00 192.06" xmlns="http://www.w3.org/2000/svg" xmlns:xlink="http://www.w3.org/1999/xlink">
<g id="graph0" class="graph" transform="scale(1 1) rotate(0) translate(4 188.0566)">
<title>cl_copy</title>
<!-- Node85 -->
<g id="node1" class="node">
<title>Node85</title>
<polygon fill="#bfbfbf" stroke="#000000" points="0,-67.5 0,-86.5 50,-86.5 50,-67.5 0,-67.5"/>
<text text-anchor="middle" x="25" y="-74.5" font-family="Helvetica,sans-Serif" font-size="10.00" fill="#000000">cl_copy</text>
</g>
<!-- Node86 -->
<g id="node2" class="node">
<title>Node86</title>
<g id="a_node2"><a xlink:href="ea_8h.html#ae3824341a2f5482cb6ac70b3839ded51" target="_top" xlink:title="Executes the evolutionary algorithm (EA). ">
<polygon fill="none" stroke="#000000" points="86,-67.5 86,-86.5 115,-86.5 115,-67.5 86,-67.5"/>
<text text-anchor="middle" x="100.5" y="-74.5" font-family="Helvetica,sans-Serif" font-size="10.00" fill="#000000">ea</text>
</a>
</g>
</g>
<!-- Node85&#45;&gt;Node86 -->
<g id="edge1" class="edge">
<title>Node85&#45;&gt;Node86</title>
<path fill="none" stroke="#191970" d="M60.1602,-77C69.2088,-77 78.4567,-77 85.8113,-77"/>
<polygon fill="#191970" stroke="#191970" points="60.1404,-73.5001 50.1404,-77 60.1404,-80.5001 60.1404,-73.5001"/>
</g>
<!-- Node87 -->
<g id="node3" class="node">
<title>Node87</title>
<g id="a_node3"><a xlink:href="xcs__multi__step_8c.html#a1e1c2a3094be715b468dda79cd59ebf3" target="_top" xlink:title="Executes a multi&#45;step trial using a built&#45;in environment. ">
<polygon fill="none" stroke="#000000" points="160,-10.5 160,-29.5 240,-29.5 240,-10.5 160,-10.5"/>
<text text-anchor="middle" x="200" y="-17.5" font-family="Helvetica,sans-Serif" font-size="10.00" fill="#000000">xcs_multi_trial</text>
</a>
</g>
</g>
<!-- Node86&#45;&gt;Node87 -->
<g id="edge2" class="edge">
<title>Node86&#45;&gt;Node87</title>
<path fill="none" stroke="#191970" d="M124.0287,-63.5213C142.2445,-53.0861 167.0271,-38.889 183.2618,-29.5887"/>
<polygon fill="#191970" stroke="#191970" points="122.1189,-60.5817 115.1816,-68.5895 125.5984,-66.6556 122.1189,-60.5817"/>
</g>
<!-- Node91 -->
<g id="node7" class="node">
<title>Node91</title>
<g id="a_node7"><a xlink:href="xcs__single__step_8h.html#aff4aec035e4573993a7906569f2028f5" target="_top" xlink:title="Creates the action set, updates the classifiers and runs the EA. ">
<polygon fill="none" stroke="#000000" points="151,-67.5 151,-86.5 249,-86.5 249,-67.5 151,-67.5"/>
<text text-anchor="middle" x="200" y="-74.5" font-family="Helvetica,sans-Serif" font-size="10.00" fill="#000000">xcs_single_update</text>
</a>
</g>
</g>
<!-- Node86&#45;&gt;Node91 -->
<g id="edge6" class="edge">
<title>Node86&#45;&gt;Node91</title>
<path fill="none" stroke="#191970" d="M125.2801,-77C133.0174,-77 141.8425,-77 150.6508,-77"/>
<polygon fill="#191970" stroke="#191970" points="125.1816,-73.5001 115.1816,-77 125.1815,-80.5001 125.1816,-73.5001"/>
</g>
<!-- Node96 -->
<g id="node12" class="node">
<title>Node96</title>
<g id="a_node12"><a xlink:href="xcsf_8c.html#a474f4e13cfc5f00958c689cd8c81135a" target="_top" xlink:title="Executes a single XCSF learning trial. ">
<polygon fill="none" stroke="#000000" points="158.5,-114.5 158.5,-133.5 241.5,-133.5 241.5,-114.5 158.5,-114.5"/>
<text text-anchor="middle" x="200" y="-121.5" font-family="Helvetica,sans-Serif" font-size="10.00" fill="#000000">xcsf_learn_trial</text>
</a>
</g>
</g>
<!-- Node86&#45;&gt;Node96 -->
<g id="edge12" class="edge">
<title>Node86&#45;&gt;Node96</title>
<path fill="none" stroke="#191970" d="M124.4056,-88.2921C141.3056,-96.275 163.714,-106.8599 179.7373,-114.4287"/>
<polygon fill="#191970" stroke="#191970" points="125.7185,-85.0415 115.1816,-83.935 122.7287,-91.3709 125.7185,-85.0415"/>
</g>
<!-- Node88 -->
<g id="node4" class="node">
<title>Node88</title>
<g id="a_node4"><a xlink:href="xcs__multi__step_8h.html#acc29d4a55dbd56c16ea5f19f15a7c677" target="_top" xlink:title="Executes a multi&#45;step reinforcement learning experiment. ">
<polygon fill="none" stroke="#000000" points="427,-.5 427,-19.5 531,-19.5 531,-.5 427,-.5"/>
<text text-anchor="middle" x="479" y="-7.5" font-family="Helvetica,sans-Serif" font-size="10.00" fill="#000000">xcs_multi_step_exp</text>
</a>
</g>
</g>
<!-- Node87&#45;&gt;Node88 -->
<g id="edge3" class="edge">
<title>Node87&#45;&gt;Node88</title>
<path fill="none" stroke="#191970" d="M250.5047,-18.1898C300.4046,-16.4013 376.3872,-13.6779 426.8508,-11.8691"/>
<polygon fill="#191970" stroke="#191970" points="250.1392,-14.7006 240.271,-18.5566 250.39,-21.6961 250.1392,-14.7006"/>
</g>
<!-- Node89 -->
<g id="node5" class="node">
<title>Node89</title>
<g id="a_node5"><a xlink:href="main_8c.html#ab572a67aa431827116ebd6931d667d21" target="_top" xlink:title="classification">
<polygon fill="none" stroke="#000000" points="605,-38.5 605,-57.5 679,-57.5 679,-38.5 605,-38.5"/>
<text text-anchor="middle" x="642" y="-45.5" font-family="Helvetica,sans-Serif" font-size="10.00" fill="#000000">classification</text>
</a>
</g>
</g>
<!-- Node88&#45;&gt;Node89 -->
<g id="edge4" class="edge">
<title>Node88&#45;&gt;Node89</title>
<path fill="none" stroke="#191970" d="M529.8838,-21.8625C554.1266,-27.5142 582.5982,-34.1517 604.7833,-39.3237"/>
<polygon fill="#191970" stroke="#191970" points="530.6653,-18.4509 520.1318,-19.589 529.076,-25.2681 530.6653,-18.4509"/>
</g>
<!-- Node90 -->
<g id="node6" class="node">
<title>Node90</title>
<g id="a_node6"><a xlink:href="main_8c.html#a3c04138a5bfe5d72780bb7e82a18e627" target="_top" xlink:title="main">
<polygon fill="none" stroke="#000000" points="751,-76.5 751,-95.5 789,-95.5 789,-76.5 751,-76.5"/>
<text text-anchor="middle" x="770" y="-83.5" font-family="Helvetica,sans-Serif" font-size="10.00" fill="#000000">main</text>
</a>
</g>
</g>
<!-- Node89&#45;&gt;Node90 -->
<g id="edge5" class="edge">
<title>Node89&#45;&gt;Node90</title>
<path fill="none" stroke="#191970" d="M683.9951,-60.4673C706.5448,-67.1617 733.2443,-75.0882 750.8458,-80.3136"/>
<polygon fill="#191970" stroke="#191970" points="684.8824,-57.0798 674.2998,-57.589 682.8902,-63.7903 684.8824,-57.0798"/>
</g>
<!-- Node92 -->
<g id="node8" class="node">
<title>Node92</title>
<g id="a_node8"><a xlink:href="structXCS.html#aedc01ad6f00a54b260a7605929a1d4c9" target="_top" xlink:title="XCS::single_update">
<polygon fill="none" stroke="#000000" points="285,-76.5 285,-95.5 389,-95.5 389,-76.5 285,-76.5"/>
<text text-anchor="middle" x="337" y="-83.5" font-family="Helvetica,sans-Serif" font-size="10.00" fill="#000000">XCS::single_update</text>
</a>
</g>
</g>
<!-- Node91&#45;&gt;Node92 -->
<g id="edge7" class="edge">
<title>Node91&#45;&gt;Node92</title>
<path fill="none" stroke="#191970" d="M259.2254,-80.8907C267.6549,-81.4445 276.2753,-82.0108 284.5632,-82.5552"/>
<polygon fill="#191970" stroke="#191970" points="259.2811,-77.3869 249.0732,-80.2238 258.8222,-84.3719 259.2811,-77.3869"/>
</g>
<!-- Node94 -->
<g id="node10" class="node">
<title>Node94</title>
<g id="a_node10"><a xlink:href="xcs__single__step_8c.html#a3d1fd2472d35310800aed897219a65af" target="_top" xlink:title="Executes a single&#45;step trial using a built&#45;in environment. ">
<polygon fill="none" stroke="#000000" points="295,-38.5 295,-57.5 379,-57.5 379,-38.5 295,-38.5"/>
<text text-anchor="middle" x="337" y="-45.5" font-family="Helvetica,sans-Serif" font-size="10.00" fill="#000000">xcs_single_trial</text>
</a>
</g>
</g>
<!-- Node91&#45;&gt;Node94 -->
<g id="edge9" class="edge">
<title>Node91&#45;&gt;Node94</title>
<path fill="none" stroke="#191970" d="M255.1285,-65.3305C268.2801,-62.5466 282.1158,-59.6178 294.5935,-56.9766"/>
<polygon fill="#191970" stroke="#191970" points="254.297,-61.9288 245.2386,-67.4239 255.7467,-68.7771 254.297,-61.9288"/>
</g>
<!-- Node93 -->
<g id="node9" class="node">
<title>Node93</title>
<g id="a_node9"><a xlink:href="python__wrapper_8cpp.html#afbdcc1358036a0b83a6b239da2b098a2" target="_top" xlink:title="BOOST_PYTHON_MODULE">
<polygon fill="none" stroke="#000000" points="569,-95.5 569,-114.5 715,-114.5 715,-95.5 569,-95.5"/>
<text text-anchor="middle" x="642" y="-102.5" font-family="Helvetica,sans-Serif" font-size="10.00" fill="#000000">BOOST_PYTHON_MODULE</text>
</a>
</g>
</g>
<!-- Node92&#45;&gt;Node93 -->
<g id="edge8" class="edge">
<title>Node92&#45;&gt;Node93</title>
<path fill="none" stroke="#191970" d="M399.2714,-89.8792C448.4614,-92.9435 517.2093,-97.2262 568.9881,-100.4517"/>
<polygon fill="#191970" stroke="#191970" points="399.2831,-86.3732 389.0848,-89.2446 398.8478,-93.3597 399.2831,-86.3732"/>
</g>
<!-- Node95 -->
<g id="node11" class="node">
<title>Node95</title>
<g id="a_node11"><a xlink:href="xcs__single__step_8h.html#a39a031bf59eaa9b33e30e614610dcda8" target="_top" xlink:title="Executes a single&#45;step experiment. ">
<polygon fill="none" stroke="#000000" points="425,-38.5 425,-57.5 533,-57.5 533,-38.5 425,-38.5"/>
<text text-anchor="middle" x="479" y="-45.5" font-family="Helvetica,sans-Serif" font-size="10.00" fill="#000000">xcs_single_step_exp</text>
</a>
</g>
</g>
<!-- Node94&#45;&gt;Node95 -->
<g id="edge10" class="edge">
<title>Node94&#45;&gt;Node95</title>
<path fill="none" stroke="#191970" d="M389.551,-48C401.0539,-48 413.2511,-48 424.8166,-48"/>
<polygon fill="#191970" stroke="#191970" points="389.2203,-44.5001 379.2202,-48 389.2202,-51.5001 389.2203,-44.5001"/>
</g>
<!-- Node95&#45;&gt;Node89 -->
<g id="edge11" class="edge">
<title>Node95&#45;&gt;Node89</title>
<path fill="none" stroke="#191970" d="M543.3777,-48C564.2632,-48 586.7197,-48 604.9204,-48"/>
<polygon fill="#191970" stroke="#191970" points="543.2767,-44.5001 533.2766,-48 543.2766,-51.5001 543.2767,-44.5001"/>
</g>
<!-- Node97 -->
<g id="node13" class="node">
<title>Node97</title>
<g id="a_node13"><a xlink:href="xcsf_8h.html#a874829f28fee20f9ad15b540f4b4d6ff" target="_top" xlink:title="Executes MAX_TRIALS number of XCSF learning iterations using the training data. ">
<polygon fill="none" stroke="#000000" points="310,-114.5 310,-133.5 364,-133.5 364,-114.5 310,-114.5"/>
<text text-anchor="middle" x="337" y="-121.5" font-family="Helvetica,sans-Serif" font-size="10.00" fill="#000000">xcsf_fit1</text>
</a>
</g>
</g>
<!-- Node96&#45;&gt;Node97 -->
<g id="edge13" class="edge">
<title>Node96&#45;&gt;Node97</title>
<path fill="none" stroke="#191970" d="M251.9115,-124C271.5628,-124 293.1522,-124 309.6669,-124"/>
<polygon fill="#191970" stroke="#191970" points="251.849,-120.5001 241.8489,-124 251.8489,-127.5001 251.849,-120.5001"/>
</g>
<!-- Node99 -->
<g id="node15" class="node">
<title>Node99</title>
<g id="a_node15"><a xlink:href="xcsf_8h.html#a0b4de57cb9dadc9deca7901aa36e5025" target="_top" xlink:title="Executes MAX_TRIALS number of XCSF learning iterations using the training. data and test iterations u...">
<polygon fill="none" stroke="#000000" points="310,-152.5 310,-171.5 364,-171.5 364,-152.5 310,-152.5"/>
<text text-anchor="middle" x="337" y="-159.5" font-family="Helvetica,sans-Serif" font-size="10.00" fill="#000000">xcsf_fit2</text>
</a>
</g>
</g>
<!-- Node96&#45;&gt;Node99 -->
<g id="edge16" class="edge">
<title>Node96&#45;&gt;Node99</title>
<path fill="none" stroke="#191970" d="M244.4823,-136.3382C266.0016,-142.307 291.1417,-149.2802 309.7797,-154.4498"/>
<polygon fill="#191970" stroke="#191970" points="245.1426,-132.8892 234.5709,-133.589 243.2716,-139.6346 245.1426,-132.8892"/>
</g>
<!-- Node98 -->
<g id="node14" class="node">
<title>Node98</title>
<g id="a_node14"><a xlink:href="structXCS.html#ad2ccafe59d2b4ae6d0e1cbc15edee53c" target="_top" xlink:title="XCS::fit">
<polygon fill="none" stroke="#000000" points="453,-114.5 453,-133.5 505,-133.5 505,-114.5 453,-114.5"/>
<text text-anchor="middle" x="479" y="-121.5" font-family="Helvetica,sans-Serif" font-size="10.00" fill="#000000">XCS::fit</text>
</a>
</g>
</g>
<!-- Node97&#45;&gt;Node98 -->
<g id="edge14" class="edge">
<title>Node97&#45;&gt;Node98</title>
<path fill="none" stroke="#191970" d="M374.1114,-124C398.7321,-124 430.4557,-124 452.538,-124"/>
<polygon fill="#191970" stroke="#191970" points="374.0434,-120.5001 364.0434,-124 374.0433,-127.5001 374.0434,-120.5001"/>
</g>
<!-- Node98&#45;&gt;Node93 -->
<g id="edge15" class="edge">
<title>Node98&#45;&gt;Node93</title>
<path fill="none" stroke="#191970" d="M515.5233,-119.7427C531.2717,-117.907 550.2822,-115.691 568.7251,-113.5412"/>
<polygon fill="#191970" stroke="#191970" points="514.7163,-116.313 505.1888,-120.9473 515.5268,-123.2659 514.7163,-116.313"/>
</g>
<!-- Node100 -->
<g id="node16" class="node">
<title>Node100</title>
<g id="a_node16"><a xlink:href="main_8c.html#a968c78da8ed8ad08662a86280deec99a" target="_top" xlink:title="regression">
<polygon fill="none" stroke="#000000" points="611,-161.5 611,-180.5 673,-180.5 673,-161.5 611,-161.5"/>
<text text-anchor="middle" x="642" y="-168.5" font-family="Helvetica,sans-Serif" font-size="10.00" fill="#000000">regression</text>
</a>
</g>
</g>
<!-- Node99&#45;&gt;Node100 -->
<g id="edge17" class="edge">
<title>Node99&#45;&gt;Node100</title>
<path fill="none" stroke="#191970" d="M373.9242,-171.8011C389.5572,-175.4723 408.0439,-179.1904 425,-181 490.8136,-188.024 568.3751,-180.7177 610.6462,-175.4282"/>
<polygon fill="#191970" stroke="#191970" points="374.6517,-168.376 364.108,-169.4159 372.9988,-175.1781 374.6517,-168.376"/>
</g>
<!-- Node101 -->
<g id="node17" class="node">
<title>Node101</title>
<g id="a_node17"><a xlink:href="structXCS.html#a7d53320740db8e846251bacd0238a9fb" target="_top" xlink:title="XCS::fit">
<polygon fill="none" stroke="#000000" points="453,-152.5 453,-171.5 505,-171.5 505,-152.5 453,-152.5"/>
<text text-anchor="middle" x="479" y="-159.5" font-family="Helvetica,sans-Serif" font-size="10.00" fill="#000000">XCS::fit</text>
</a>
</g>
</g>
<!-- Node99&#45;&gt;Node101 -->
<g id="edge19" class="edge">
<title>Node99&#45;&gt;Node101</title>
<path fill="none" stroke="#191970" d="M374.1114,-162C398.7321,-162 430.4557,-162 452.538,-162"/>
<polygon fill="#191970" stroke="#191970" points="374.0434,-158.5001 364.0434,-162 374.0433,-165.5001 374.0434,-158.5001"/>
</g>
<!-- Node100&#45;&gt;Node90 -->
<g id="edge18" class="edge">
<title>Node100&#45;&gt;Node90</title>
<path fill="none" stroke="#191970" d="M665.9274,-155.8714C680.2407,-146.7529 698.7482,-134.8418 715,-124 729.096,-114.5963 745.0028,-103.559 756.0702,-95.81"/>
<polygon fill="#191970" stroke="#191970" points="663.7564,-153.104 657.193,-161.421 667.5104,-159.0123 663.7564,-153.104"/>
</g>
</g>
</svg>
