<?xml version="1.0" encoding="UTF-8" standalone="no"?>
<!DOCTYPE svg PUBLIC "-//W3C//DTD SVG 1.1//EN"
 "http://www.w3.org/Graphics/SVG/1.1/DTD/svg11.dtd">
<!-- Generated by graphviz version 2.40.1 (20161225.0304)
 -->
<!-- Title: cl_update_err Pages: 1 -->
<svg width="953pt" height="192pt"
 viewBox="0.00 0.00 953.00 192.06" xmlns="http://www.w3.org/2000/svg" xmlns:xlink="http://www.w3.org/1999/xlink">
<g id="graph0" class="graph" transform="scale(1 1) rotate(0) translate(4 188.0566)">
<title>cl_update_err</title>
<!-- Node553 -->
<g id="node1" class="node">
<title>Node553</title>
<polygon fill="#bfbfbf" stroke="#000000" points="0,-67.5 0,-86.5 75,-86.5 75,-67.5 0,-67.5"/>
<text text-anchor="middle" x="37.5" y="-74.5" font-family="Helvetica,sans-Serif" font-size="10.00" fill="#000000">cl_update_err</text>
</g>
<!-- Node554 -->
<g id="node2" class="node">
<title>Node554</title>
<g id="a_node2"><a xlink:href="cl_8h.html#ae53336b60c1a03b8faa06c11979ce91e" target="_top" xlink:title="Updates the classifier&#39;s parameters as well as condition, action, and prediction depending on the kno...">
<polygon fill="none" stroke="#000000" points="111,-67.5 111,-86.5 170,-86.5 170,-67.5 111,-67.5"/>
<text text-anchor="middle" x="140.5" y="-74.5" font-family="Helvetica,sans-Serif" font-size="10.00" fill="#000000">cl_update</text>
</a>
</g>
</g>
<!-- Node553&#45;&gt;Node554 -->
<g id="edge1" class="edge">
<title>Node553&#45;&gt;Node554</title>
<path fill="none" stroke="#191970" d="M85.3341,-77C94.0137,-77 102.8329,-77 110.7988,-77"/>
<polygon fill="#191970" stroke="#191970" points="85.2686,-73.5001 75.2685,-77 85.2685,-80.5001 85.2686,-73.5001"/>
</g>
<!-- Node555 -->
<g id="node3" class="node">
<title>Node555</title>
<g id="a_node3"><a xlink:href="cl__set_8h.html#a0993c66e2751530b39449164017d6654" target="_top" xlink:title="Provides reinforcement to the set and performs set subsumption. ">
<polygon fill="none" stroke="#000000" points="206,-67.5 206,-86.5 271,-86.5 271,-67.5 206,-67.5"/>
<text text-anchor="middle" x="238.5" y="-74.5" font-family="Helvetica,sans-Serif" font-size="10.00" fill="#000000">set_update</text>
</a>
</g>
</g>
<!-- Node554&#45;&gt;Node555 -->
<g id="edge2" class="edge">
<title>Node554&#45;&gt;Node555</title>
<path fill="none" stroke="#191970" d="M180.2748,-77C188.7751,-77 197.6596,-77 205.8547,-77"/>
<polygon fill="#191970" stroke="#191970" points="180.1692,-73.5001 170.1692,-77 180.1691,-80.5001 180.1692,-73.5001"/>
</g>
<!-- Node556 -->
<g id="node4" class="node">
<title>Node556</title>
<g id="a_node4"><a xlink:href="xcs__multi__step_8c.html#a1e1c2a3094be715b468dda79cd59ebf3" target="_top" xlink:title="Executes a multi&#45;step trial using a built&#45;in environment. ">
<polygon fill="none" stroke="#000000" points="316,-10.5 316,-29.5 396,-29.5 396,-10.5 316,-10.5"/>
<text text-anchor="middle" x="356" y="-17.5" font-family="Helvetica,sans-Serif" font-size="10.00" fill="#000000">xcs_multi_trial</text>
</a>
</g>
</g>
<!-- Node555&#45;&gt;Node556 -->
<g id="edge3" class="edge">
<title>Node555&#45;&gt;Node556</title>
<path fill="none" stroke="#191970" d="M267.4363,-62.9628C288.8441,-52.5778 317.4376,-38.7069 336.269,-29.5716"/>
<polygon fill="#191970" stroke="#191970" points="265.6365,-59.9458 258.1669,-67.4595 268.6917,-66.2438 265.6365,-59.9458"/>
</g>
<!-- Node560 -->
<g id="node8" class="node">
<title>Node560</title>
<g id="a_node8"><a xlink:href="xcs__single__step_8h.html#aff4aec035e4573993a7906569f2028f5" target="_top" xlink:title="Creates the action set, updates the classifiers and runs the EA. ">
<polygon fill="none" stroke="#000000" points="307,-67.5 307,-86.5 405,-86.5 405,-67.5 307,-67.5"/>
<text text-anchor="middle" x="356" y="-74.5" font-family="Helvetica,sans-Serif" font-size="10.00" fill="#000000">xcs_single_update</text>
</a>
</g>
</g>
<!-- Node555&#45;&gt;Node560 -->
<g id="edge7" class="edge">
<title>Node555&#45;&gt;Node560</title>
<path fill="none" stroke="#191970" d="M281.3769,-77C289.6204,-77 298.3146,-77 306.7413,-77"/>
<polygon fill="#191970" stroke="#191970" points="281.2303,-73.5001 271.2303,-77 281.2303,-80.5001 281.2303,-73.5001"/>
</g>
<!-- Node565 -->
<g id="node13" class="node">
<title>Node565</title>
<g id="a_node13"><a xlink:href="xcsf_8c.html#a474f4e13cfc5f00958c689cd8c81135a" target="_top" xlink:title="Executes a single XCSF learning trial. ">
<polygon fill="none" stroke="#000000" points="314.5,-114.5 314.5,-133.5 397.5,-133.5 397.5,-114.5 314.5,-114.5"/>
<text text-anchor="middle" x="356" y="-121.5" font-family="Helvetica,sans-Serif" font-size="10.00" fill="#000000">xcsf_learn_trial</text>
</a>
</g>
</g>
<!-- Node555&#45;&gt;Node565 -->
<g id="edge13" class="edge">
<title>Node555&#45;&gt;Node565</title>
<path fill="none" stroke="#191970" d="M271.8157,-90.3263C290.9397,-97.9759 314.5196,-107.4078 331.8542,-114.3417"/>
<polygon fill="#191970" stroke="#191970" points="272.8625,-86.9754 262.2779,-86.5112 270.2628,-93.4748 272.8625,-86.9754"/>
</g>
<!-- Node557 -->
<g id="node5" class="node">
<title>Node557</title>
<g id="a_node5"><a xlink:href="xcs__multi__step_8h.html#acc29d4a55dbd56c16ea5f19f15a7c677" target="_top" xlink:title="Executes a multi&#45;step reinforcement learning experiment. ">
<polygon fill="none" stroke="#000000" points="583,-.5 583,-19.5 687,-19.5 687,-.5 583,-.5"/>
<text text-anchor="middle" x="635" y="-7.5" font-family="Helvetica,sans-Serif" font-size="10.00" fill="#000000">xcs_multi_step_exp</text>
</a>
</g>
</g>
<!-- Node556&#45;&gt;Node557 -->
<g id="edge4" class="edge">
<title>Node556&#45;&gt;Node557</title>
<path fill="none" stroke="#191970" d="M406.5047,-18.1898C456.4046,-16.4013 532.3872,-13.6779 582.8508,-11.8691"/>
<polygon fill="#191970" stroke="#191970" points="406.1392,-14.7006 396.271,-18.5566 406.39,-21.6961 406.1392,-14.7006"/>
</g>
<!-- Node558 -->
<g id="node6" class="node">
<title>Node558</title>
<g id="a_node6"><a xlink:href="main_8c.html#ab572a67aa431827116ebd6931d667d21" target="_top" xlink:title="classification">
<polygon fill="none" stroke="#000000" points="761,-38.5 761,-57.5 835,-57.5 835,-38.5 761,-38.5"/>
<text text-anchor="middle" x="798" y="-45.5" font-family="Helvetica,sans-Serif" font-size="10.00" fill="#000000">classification</text>
</a>
</g>
</g>
<!-- Node557&#45;&gt;Node558 -->
<g id="edge5" class="edge">
<title>Node557&#45;&gt;Node558</title>
<path fill="none" stroke="#191970" d="M685.8838,-21.8625C710.1266,-27.5142 738.5982,-34.1517 760.7833,-39.3237"/>
<polygon fill="#191970" stroke="#191970" points="686.6653,-18.4509 676.1318,-19.589 685.076,-25.2681 686.6653,-18.4509"/>
</g>
<!-- Node559 -->
<g id="node7" class="node">
<title>Node559</title>
<g id="a_node7"><a xlink:href="main_8c.html#a3c04138a5bfe5d72780bb7e82a18e627" target="_top" xlink:title="main">
<polygon fill="none" stroke="#000000" points="907,-76.5 907,-95.5 945,-95.5 945,-76.5 907,-76.5"/>
<text text-anchor="middle" x="926" y="-83.5" font-family="Helvetica,sans-Serif" font-size="10.00" fill="#000000">main</text>
</a>
</g>
</g>
<!-- Node558&#45;&gt;Node559 -->
<g id="edge6" class="edge">
<title>Node558&#45;&gt;Node559</title>
<path fill="none" stroke="#191970" d="M839.9951,-60.4673C862.5448,-67.1617 889.2443,-75.0882 906.8458,-80.3136"/>
<polygon fill="#191970" stroke="#191970" points="840.8824,-57.0798 830.2998,-57.589 838.8902,-63.7903 840.8824,-57.0798"/>
</g>
<!-- Node561 -->
<g id="node9" class="node">
<title>Node561</title>
<g id="a_node9"><a xlink:href="structXCS.html#aedc01ad6f00a54b260a7605929a1d4c9" target="_top" xlink:title="XCS::single_update">
<polygon fill="none" stroke="#000000" points="441,-76.5 441,-95.5 545,-95.5 545,-76.5 441,-76.5"/>
<text text-anchor="middle" x="493" y="-83.5" font-family="Helvetica,sans-Serif" font-size="10.00" fill="#000000">XCS::single_update</text>
</a>
</g>
</g>
<!-- Node560&#45;&gt;Node561 -->
<g id="edge8" class="edge">
<title>Node560&#45;&gt;Node561</title>
<path fill="none" stroke="#191970" d="M415.2254,-80.8907C423.6549,-81.4445 432.2753,-82.0108 440.5632,-82.5552"/>
<polygon fill="#191970" stroke="#191970" points="415.2811,-77.3869 405.0732,-80.2238 414.8222,-84.3719 415.2811,-77.3869"/>
</g>
<!-- Node563 -->
<g id="node11" class="node">
<title>Node563</title>
<g id="a_node11"><a xlink:href="xcs__single__step_8c.html#a3d1fd2472d35310800aed897219a65af" target="_top" xlink:title="Executes a single&#45;step trial using a built&#45;in environment. ">
<polygon fill="none" stroke="#000000" points="451,-38.5 451,-57.5 535,-57.5 535,-38.5 451,-38.5"/>
<text text-anchor="middle" x="493" y="-45.5" font-family="Helvetica,sans-Serif" font-size="10.00" fill="#000000">xcs_single_trial</text>
</a>
</g>
</g>
<!-- Node560&#45;&gt;Node563 -->
<g id="edge10" class="edge">
<title>Node560&#45;&gt;Node563</title>
<path fill="none" stroke="#191970" d="M411.1285,-65.3305C424.2801,-62.5466 438.1158,-59.6178 450.5935,-56.9766"/>
<polygon fill="#191970" stroke="#191970" points="410.297,-61.9288 401.2386,-67.4239 411.7467,-68.7771 410.297,-61.9288"/>
</g>
<!-- Node562 -->
<g id="node10" class="node">
<title>Node562</title>
<g id="a_node10"><a xlink:href="python__wrapper_8cpp.html#afbdcc1358036a0b83a6b239da2b098a2" target="_top" xlink:title="BOOST_PYTHON_MODULE">
<polygon fill="none" stroke="#000000" points="725,-95.5 725,-114.5 871,-114.5 871,-95.5 725,-95.5"/>
<text text-anchor="middle" x="798" y="-102.5" font-family="Helvetica,sans-Serif" font-size="10.00" fill="#000000">BOOST_PYTHON_MODULE</text>
</a>
</g>
</g>
<!-- Node561&#45;&gt;Node562 -->
<g id="edge9" class="edge">
<title>Node561&#45;&gt;Node562</title>
<path fill="none" stroke="#191970" d="M555.2714,-89.8792C604.4614,-92.9435 673.2093,-97.2262 724.9881,-100.4517"/>
<polygon fill="#191970" stroke="#191970" points="555.2831,-86.3732 545.0848,-89.2446 554.8478,-93.3597 555.2831,-86.3732"/>
</g>
<!-- Node564 -->
<g id="node12" class="node">
<title>Node564</title>
<g id="a_node12"><a xlink:href="xcs__single__step_8h.html#a39a031bf59eaa9b33e30e614610dcda8" target="_top" xlink:title="Executes a single&#45;step experiment. ">
<polygon fill="none" stroke="#000000" points="581,-38.5 581,-57.5 689,-57.5 689,-38.5 581,-38.5"/>
<text text-anchor="middle" x="635" y="-45.5" font-family="Helvetica,sans-Serif" font-size="10.00" fill="#000000">xcs_single_step_exp</text>
</a>
</g>
</g>
<!-- Node563&#45;&gt;Node564 -->
<g id="edge11" class="edge">
<title>Node563&#45;&gt;Node564</title>
<path fill="none" stroke="#191970" d="M545.551,-48C557.0539,-48 569.2511,-48 580.8166,-48"/>
<polygon fill="#191970" stroke="#191970" points="545.2203,-44.5001 535.2202,-48 545.2202,-51.5001 545.2203,-44.5001"/>
</g>
<!-- Node564&#45;&gt;Node558 -->
<g id="edge12" class="edge">
<title>Node564&#45;&gt;Node558</title>
<path fill="none" stroke="#191970" d="M699.3777,-48C720.2632,-48 742.7197,-48 760.9204,-48"/>
<polygon fill="#191970" stroke="#191970" points="699.2767,-44.5001 689.2766,-48 699.2766,-51.5001 699.2767,-44.5001"/>
</g>
<!-- Node566 -->
<g id="node14" class="node">
<title>Node566</title>
<g id="a_node14"><a xlink:href="xcsf_8h.html#a874829f28fee20f9ad15b540f4b4d6ff" target="_top" xlink:title="Executes MAX_TRIALS number of XCSF learning iterations using the training data. ">
<polygon fill="none" stroke="#000000" points="466,-114.5 466,-133.5 520,-133.5 520,-114.5 466,-114.5"/>
<text text-anchor="middle" x="493" y="-121.5" font-family="Helvetica,sans-Serif" font-size="10.00" fill="#000000">xcsf_fit1</text>
</a>
</g>
</g>
<!-- Node565&#45;&gt;Node566 -->
<g id="edge14" class="edge">
<title>Node565&#45;&gt;Node566</title>
<path fill="none" stroke="#191970" d="M407.9115,-124C427.5628,-124 449.1522,-124 465.6669,-124"/>
<polygon fill="#191970" stroke="#191970" points="407.849,-120.5001 397.8489,-124 407.8489,-127.5001 407.849,-120.5001"/>
</g>
<!-- Node568 -->
<g id="node16" class="node">
<title>Node568</title>
<g id="a_node16"><a xlink:href="xcsf_8h.html#a0b4de57cb9dadc9deca7901aa36e5025" target="_top" xlink:title="Executes MAX_TRIALS number of XCSF learning iterations using the training. data and test iterations u...">
<polygon fill="none" stroke="#000000" points="466,-152.5 466,-171.5 520,-171.5 520,-152.5 466,-152.5"/>
<text text-anchor="middle" x="493" y="-159.5" font-family="Helvetica,sans-Serif" font-size="10.00" fill="#000000">xcsf_fit2</text>
</a>
</g>
</g>
<!-- Node565&#45;&gt;Node568 -->
<g id="edge17" class="edge">
<title>Node565&#45;&gt;Node568</title>
<path fill="none" stroke="#191970" d="M400.4823,-136.3382C422.0016,-142.307 447.1417,-149.2802 465.7797,-154.4498"/>
<polygon fill="#191970" stroke="#191970" points="401.1426,-132.8892 390.5709,-133.589 399.2716,-139.6346 401.1426,-132.8892"/>
</g>
<!-- Node567 -->
<g id="node15" class="node">
<title>Node567</title>
<g id="a_node15"><a xlink:href="structXCS.html#ad2ccafe59d2b4ae6d0e1cbc15edee53c" target="_top" xlink:title="XCS::fit">
<polygon fill="none" stroke="#000000" points="609,-114.5 609,-133.5 661,-133.5 661,-114.5 609,-114.5"/>
<text text-anchor="middle" x="635" y="-121.5" font-family="Helvetica,sans-Serif" font-size="10.00" fill="#000000">XCS::fit</text>
</a>
</g>
</g>
<!-- Node566&#45;&gt;Node567 -->
<g id="edge15" class="edge">
<title>Node566&#45;&gt;Node567</title>
<path fill="none" stroke="#191970" d="M530.1114,-124C554.7321,-124 586.4557,-124 608.538,-124"/>
<polygon fill="#191970" stroke="#191970" points="530.0434,-120.5001 520.0434,-124 530.0433,-127.5001 530.0434,-120.5001"/>
</g>
<!-- Node567&#45;&gt;Node562 -->
<g id="edge16" class="edge">
<title>Node567&#45;&gt;Node562</title>
<path fill="none" stroke="#191970" d="M671.5233,-119.7427C687.2717,-117.907 706.2822,-115.691 724.7251,-113.5412"/>
<polygon fill="#191970" stroke="#191970" points="670.7163,-116.313 661.1888,-120.9473 671.5268,-123.2659 670.7163,-116.313"/>
</g>
<!-- Node569 -->
<g id="node17" class="node">
<title>Node569</title>
<g id="a_node17"><a xlink:href="main_8c.html#a968c78da8ed8ad08662a86280deec99a" target="_top" xlink:title="regression">
<polygon fill="none" stroke="#000000" points="767,-161.5 767,-180.5 829,-180.5 829,-161.5 767,-161.5"/>
<text text-anchor="middle" x="798" y="-168.5" font-family="Helvetica,sans-Serif" font-size="10.00" fill="#000000">regression</text>
</a>
</g>
</g>
<!-- Node568&#45;&gt;Node569 -->
<g id="edge18" class="edge">
<title>Node568&#45;&gt;Node569</title>
<path fill="none" stroke="#191970" d="M529.9242,-171.8011C545.5572,-175.4723 564.0439,-179.1904 581,-181 646.8136,-188.024 724.3751,-180.7177 766.6462,-175.4282"/>
<polygon fill="#191970" stroke="#191970" points="530.6517,-168.376 520.108,-169.4159 528.9988,-175.1781 530.6517,-168.376"/>
</g>
<!-- Node570 -->
<g id="node18" class="node">
<title>Node570</title>
<g id="a_node18"><a xlink:href="structXCS.html#a7d53320740db8e846251bacd0238a9fb" target="_top" xlink:title="XCS::fit">
<polygon fill="none" stroke="#000000" points="609,-152.5 609,-171.5 661,-171.5 661,-152.5 609,-152.5"/>
<text text-anchor="middle" x="635" y="-159.5" font-family="Helvetica,sans-Serif" font-size="10.00" fill="#000000">XCS::fit</text>
</a>
</g>
</g>
<!-- Node568&#45;&gt;Node570 -->
<g id="edge20" class="edge">
<title>Node568&#45;&gt;Node570</title>
<path fill="none" stroke="#191970" d="M530.1114,-162C554.7321,-162 586.4557,-162 608.538,-162"/>
<polygon fill="#191970" stroke="#191970" points="530.0434,-158.5001 520.0434,-162 530.0433,-165.5001 530.0434,-158.5001"/>
</g>
<!-- Node569&#45;&gt;Node559 -->
<g id="edge19" class="edge">
<title>Node569&#45;&gt;Node559</title>
<path fill="none" stroke="#191970" d="M821.9274,-155.8714C836.2407,-146.7529 854.7482,-134.8418 871,-124 885.096,-114.5963 901.0028,-103.559 912.0702,-95.81"/>
<polygon fill="#191970" stroke="#191970" points="819.7564,-153.104 813.193,-161.421 823.5104,-159.0123 819.7564,-153.104"/>
</g>
</g>
</svg>
