<?xml version="1.0" encoding="UTF-8" standalone="no"?>
<!DOCTYPE svg PUBLIC "-//W3C//DTD SVG 1.1//EN"
 "http://www.w3.org/Graphics/SVG/1.1/DTD/svg11.dtd">
<!-- Generated by graphviz version 2.40.1 (20161225.0304)
 -->
<!-- Title: cl_cond_size Pages: 1 -->
<svg width="1285pt" height="377pt"
 viewBox="0.00 0.00 1285.00 376.68" xmlns="http://www.w3.org/2000/svg" xmlns:xlink="http://www.w3.org/1999/xlink">
<g id="graph0" class="graph" transform="scale(1 1) rotate(0) translate(4 372.684)">
<title>cl_cond_size</title>
<!-- Node49 -->
<g id="node1" class="node">
<title>Node49</title>
<polygon fill="#bfbfbf" stroke="#000000" points="0,-260.0252 0,-279.0252 74,-279.0252 74,-260.0252 0,-260.0252"/>
<text text-anchor="middle" x="37" y="-267.0252" font-family="Helvetica,sans-Serif" font-size="10.00" fill="#000000">cl_cond_size</text>
</g>
<!-- Node50 -->
<g id="node2" class="node">
<title>Node50</title>
<g id="a_node2"><a xlink:href="cl__set_8h.html#a7ff6217fb822a2eca84c9ac23e8b5cb5" target="_top" xlink:title="Deletes a single classifier from the population set. ">
<polygon fill="none" stroke="#000000" points="110,-241.0252 110,-260.0252 160,-260.0252 160,-241.0252 110,-241.0252"/>
<text text-anchor="middle" x="135" y="-248.0252" font-family="Helvetica,sans-Serif" font-size="10.00" fill="#000000">pop_del</text>
</a>
</g>
</g>
<!-- Node49&#45;&gt;Node50 -->
<g id="edge1" class="edge">
<title>Node49&#45;&gt;Node50</title>
<path fill="none" stroke="#191970" d="M83.9944,-260.414C92.8914,-258.6891 101.8768,-256.947 109.7745,-255.4158"/>
<polygon fill="#191970" stroke="#191970" points="83.2006,-257.0027 74.0496,-262.3421 84.533,-263.8747 83.2006,-257.0027"/>
</g>
<!-- Node80 -->
<g id="node32" class="node">
<title>Node80</title>
<g id="a_node32"><a xlink:href="cl__set_8h.html#a83f22ece229912e4673e79aedd776c13" target="_top" xlink:title="Calculates the mean condition size of classifiers in the set. ">
<polygon fill="none" stroke="#000000" points="196,-336.0252 196,-355.0252 297,-355.0252 297,-336.0252 196,-336.0252"/>
<text text-anchor="middle" x="246.5" y="-343.0252" font-family="Helvetica,sans-Serif" font-size="10.00" fill="#000000">set_avg_cond_size</text>
</a>
</g>
</g>
<!-- Node49&#45;&gt;Node80 -->
<g id="edge43" class="edge">
<title>Node49&#45;&gt;Node80</title>
<path fill="none" stroke="#191970" d="M73.0696,-282.6101C114.9413,-297.7998 182.9935,-322.487 220.1821,-335.9779"/>
<polygon fill="#191970" stroke="#191970" points="74.1275,-279.2707 63.5333,-279.1506 71.7403,-285.8511 74.1275,-279.2707"/>
</g>
<!-- Node51 -->
<g id="node3" class="node">
<title>Node51</title>
<g id="a_node3"><a xlink:href="cl__set_8h.html#a8537e849783523d1e2394e4a027cf33a" target="_top" xlink:title="Enforces the maximum population size limit. ">
<polygon fill="none" stroke="#000000" points="200,-165.0252 200,-184.0252 293,-184.0252 293,-165.0252 200,-165.0252"/>
<text text-anchor="middle" x="246.5" y="-172.0252" font-family="Helvetica,sans-Serif" font-size="10.00" fill="#000000">pop_enforce_limit</text>
</a>
</g>
</g>
<!-- Node50&#45;&gt;Node51 -->
<g id="edge2" class="edge">
<title>Node50&#45;&gt;Node51</title>
<path fill="none" stroke="#191970" d="M157.3869,-235.2659C179.8086,-219.983 213.6193,-196.9372 232.4931,-184.0725"/>
<polygon fill="#191970" stroke="#191970" points="155.4133,-232.3754 149.1216,-240.8997 159.3559,-238.1595 155.4133,-232.3754"/>
</g>
<!-- Node52 -->
<g id="node4" class="node">
<title>Node52</title>
<g id="a_node4"><a xlink:href="cl__set_8c.html#aa4b74b698e7491734e4788fcfae8e27a" target="_top" xlink:title="Ensures all possible actions are covered by the match set. ">
<polygon fill="none" stroke="#000000" points="378,-165.0252 378,-184.0252 437,-184.0252 437,-165.0252 378,-165.0252"/>
<text text-anchor="middle" x="407.5" y="-172.0252" font-family="Helvetica,sans-Serif" font-size="10.00" fill="#000000">set_cover</text>
</a>
</g>
</g>
<!-- Node51&#45;&gt;Node52 -->
<g id="edge3" class="edge">
<title>Node51&#45;&gt;Node52</title>
<path fill="none" stroke="#191970" d="M303.2383,-174.5252C328.3823,-174.5252 356.9236,-174.5252 377.7796,-174.5252"/>
<polygon fill="#191970" stroke="#191970" points="303.0679,-171.0253 293.0679,-174.5252 303.0678,-178.0253 303.0679,-171.0253"/>
</g>
<!-- Node77 -->
<g id="node29" class="node">
<title>Node77</title>
<g id="a_node29"><a xlink:href="ea_8h.html#ae3824341a2f5482cb6ac70b3839ded51" target="_top" xlink:title="Executes the evolutionary algorithm (EA). ">
<polygon fill="none" stroke="#000000" points="534.5,-108.0252 534.5,-127.0252 563.5,-127.0252 563.5,-108.0252 534.5,-108.0252"/>
<text text-anchor="middle" x="549" y="-115.0252" font-family="Helvetica,sans-Serif" font-size="10.00" fill="#000000">ea</text>
</a>
</g>
</g>
<!-- Node51&#45;&gt;Node77 -->
<g id="edge36" class="edge">
<title>Node51&#45;&gt;Node77</title>
<path fill="none" stroke="#191970" d="M298.1012,-162.8183C309.5714,-160.3201 321.6839,-157.7624 333,-155.5252 408.4529,-140.6082 499.3175,-125.5725 534.2938,-119.8931"/>
<polygon fill="#191970" stroke="#191970" points="297.2386,-159.4243 288.2228,-164.9889 298.7409,-166.2612 297.2386,-159.4243"/>
</g>
<!-- Node53 -->
<g id="node5" class="node">
<title>Node53</title>
<g id="a_node5"><a xlink:href="cl__set_8h.html#af3bea0b4d03654b9d6cb08fbf272c847" target="_top" xlink:title="Constructs the match set. ">
<polygon fill="none" stroke="#000000" points="518,-165.0252 518,-184.0252 580,-184.0252 580,-165.0252 518,-165.0252"/>
<text text-anchor="middle" x="549" y="-172.0252" font-family="Helvetica,sans-Serif" font-size="10.00" fill="#000000">set_match</text>
</a>
</g>
</g>
<!-- Node52&#45;&gt;Node53 -->
<g id="edge4" class="edge">
<title>Node52&#45;&gt;Node53</title>
<path fill="none" stroke="#191970" d="M447.348,-174.5252C469.6947,-174.5252 497.1602,-174.5252 517.9062,-174.5252"/>
<polygon fill="#191970" stroke="#191970" points="447.1631,-171.0253 437.163,-174.5252 447.163,-178.0253 447.1631,-171.0253"/>
</g>
<!-- Node54 -->
<g id="node6" class="node">
<title>Node54</title>
<g id="a_node6"><a xlink:href="xcs__multi__step_8c.html#a617d9e432dc180dccf0c5ef11a94f79f" target="_top" xlink:title="Executes a multi&#45;step explore trial. ">
<polygon fill="none" stroke="#000000" points="623.5,-13.0252 623.5,-32.0252 718.5,-32.0252 718.5,-13.0252 623.5,-13.0252"/>
<text text-anchor="middle" x="671" y="-20.0252" font-family="Helvetica,sans-Serif" font-size="10.00" fill="#000000">xcs_multi_explore</text>
</a>
</g>
</g>
<!-- Node53&#45;&gt;Node54 -->
<g id="edge5" class="edge">
<title>Node53&#45;&gt;Node54</title>
<path fill="none" stroke="#191970" d="M565.1448,-157.1555C570.3527,-150.9595 575.8465,-143.7248 580,-136.5252 602.5629,-97.4146 583.6035,-72.9764 616,-41.5252 619.9866,-37.6549 624.7989,-34.5706 629.8981,-32.1133"/>
<polygon fill="#191970" stroke="#191970" points="562.346,-155.0382 558.3731,-164.86 567.6038,-159.6595 562.346,-155.0382"/>
</g>
<!-- Node58 -->
<g id="node10" class="node">
<title>Node58</title>
<g id="a_node10"><a xlink:href="xcs__multi__step_8c.html#a7c317faec2f018cc620fe5e465ebf378" target="_top" xlink:title="Executes a multi&#45;step exploit trial. ">
<polygon fill="none" stroke="#000000" points="625,-51.0252 625,-70.0252 717,-70.0252 717,-51.0252 625,-51.0252"/>
<text text-anchor="middle" x="671" y="-58.0252" font-family="Helvetica,sans-Serif" font-size="10.00" fill="#000000">xcs_multi_exploit</text>
</a>
</g>
</g>
<!-- Node53&#45;&gt;Node58 -->
<g id="edge9" class="edge">
<title>Node53&#45;&gt;Node58</title>
<path fill="none" stroke="#191970" d="M564.122,-156.8981C569.3249,-150.5995 575.0764,-143.3666 580,-136.5252 597.5022,-112.2054 592.5153,-98.1329 616,-79.5252 620.83,-75.6982 626.4811,-72.6162 632.2876,-70.1415"/>
<polygon fill="#191970" stroke="#191970" points="561.2499,-154.8755 557.4966,-164.7832 566.6093,-159.3786 561.2499,-154.8755"/>
</g>
<!-- Node59 -->
<g id="node11" class="node">
<title>Node59</title>
<g id="a_node11"><a xlink:href="xcs__single__step_8h.html#a6cd0f3c0c1c71e13dba1ce493ef873a5" target="_top" xlink:title="Constructs the match set and selects an action to perform. ">
<polygon fill="none" stroke="#000000" points="619,-165.0252 619,-184.0252 723,-184.0252 723,-165.0252 619,-165.0252"/>
<text text-anchor="middle" x="671" y="-172.0252" font-family="Helvetica,sans-Serif" font-size="10.00" fill="#000000">xcs_single_decision</text>
</a>
</g>
</g>
<!-- Node53&#45;&gt;Node59 -->
<g id="edge11" class="edge">
<title>Node53&#45;&gt;Node59</title>
<path fill="none" stroke="#191970" d="M590.1023,-174.5252C599.2583,-174.5252 609.086,-174.5252 618.6263,-174.5252"/>
<polygon fill="#191970" stroke="#191970" points="590.1015,-171.0253 580.1014,-174.5252 590.1014,-178.0253 590.1015,-171.0253"/>
</g>
<!-- Node64 -->
<g id="node16" class="node">
<title>Node64</title>
<g id="a_node16"><a xlink:href="xcsf_8c.html#a474f4e13cfc5f00958c689cd8c81135a" target="_top" xlink:title="Executes a single XCSF learning trial. ">
<polygon fill="none" stroke="#000000" points="629.5,-127.0252 629.5,-146.0252 712.5,-146.0252 712.5,-127.0252 629.5,-127.0252"/>
<text text-anchor="middle" x="671" y="-134.0252" font-family="Helvetica,sans-Serif" font-size="10.00" fill="#000000">xcsf_learn_trial</text>
</a>
</g>
</g>
<!-- Node53&#45;&gt;Node64 -->
<g id="edge17" class="edge">
<title>Node53&#45;&gt;Node64</title>
<path fill="none" stroke="#191970" d="M589.7108,-161.8447C606.195,-156.7103 624.91,-150.8811 640.2241,-146.1111"/>
<polygon fill="#191970" stroke="#191970" points="588.2925,-158.6206 579.7858,-164.9362 590.3742,-165.3039 588.2925,-158.6206"/>
</g>
<!-- Node70 -->
<g id="node22" class="node">
<title>Node70</title>
<g id="a_node22"><a xlink:href="xcsf_8c.html#aa6edd3962ddd04940e2c78a4f99de7cd" target="_top" xlink:title="Executes a single XCSF testing trial. ">
<polygon fill="none" stroke="#000000" points="632,-203.0252 632,-222.0252 710,-222.0252 710,-203.0252 632,-203.0252"/>
<text text-anchor="middle" x="671" y="-210.0252" font-family="Helvetica,sans-Serif" font-size="10.00" fill="#000000">xcsf_test_trial</text>
</a>
</g>
</g>
<!-- Node53&#45;&gt;Node70 -->
<g id="edge25" class="edge">
<title>Node53&#45;&gt;Node70</title>
<path fill="none" stroke="#191970" d="M589.7108,-187.2056C606.195,-192.34 624.91,-198.1693 640.2241,-202.9392"/>
<polygon fill="#191970" stroke="#191970" points="590.3742,-183.7464 579.7858,-184.1142 588.2925,-190.4297 590.3742,-183.7464"/>
</g>
<!-- Node73 -->
<g id="node25" class="node">
<title>Node73</title>
<g id="a_node25"><a xlink:href="xcsf_8h.html#af0b9db7273578fdff649d46823cd9790" target="_top" xlink:title="Calculates the XCSF predictions for the provided input. ">
<polygon fill="none" stroke="#000000" points="783.5,-317.0252 783.5,-336.0252 853.5,-336.0252 853.5,-317.0252 783.5,-317.0252"/>
<text text-anchor="middle" x="818.5" y="-324.0252" font-family="Helvetica,sans-Serif" font-size="10.00" fill="#000000">xcsf_predict</text>
</a>
</g>
</g>
<!-- Node53&#45;&gt;Node73 -->
<g id="edge30" class="edge">
<title>Node53&#45;&gt;Node73</title>
<path fill="none" stroke="#191970" d="M555.871,-193.5255C565.5157,-217.4068 585.393,-257.8842 616,-279.5252 666.5387,-315.2591 740.2445,-324.2085 783.3956,-326.2233"/>
<polygon fill="#191970" stroke="#191970" points="559.1141,-192.2076 552.2599,-184.1286 552.58,-194.7186 559.1141,-192.2076"/>
</g>
<!-- Node75 -->
<g id="node27" class="node">
<title>Node75</title>
<g id="a_node27"><a xlink:href="xcsf_8h.html#ae1f6851f682e015601030a5c725c6618" target="_top" xlink:title="Prints the XCSF match set for the supplied input. ">
<polygon fill="none" stroke="#000000" points="616,-251.0252 616,-270.0252 726,-270.0252 726,-251.0252 616,-251.0252"/>
<text text-anchor="middle" x="671" y="-258.0252" font-family="Helvetica,sans-Serif" font-size="10.00" fill="#000000">xcsf_print_match_set</text>
</a>
</g>
</g>
<!-- Node53&#45;&gt;Node75 -->
<g id="edge33" class="edge">
<title>Node53&#45;&gt;Node75</title>
<path fill="none" stroke="#191970" d="M566.2218,-191.0249C579.2765,-203.0606 597.9863,-219.3311 616,-231.5252 626.8163,-238.8471 639.695,-245.7262 650.2702,-250.9454"/>
<polygon fill="#191970" stroke="#191970" points="568.5732,-188.4318 558.881,-184.1526 563.7891,-193.542 568.5732,-188.4318"/>
</g>
<!-- Node55 -->
<g id="node7" class="node">
<title>Node55</title>
<g id="a_node7"><a xlink:href="xcs__multi__step_8h.html#acc29d4a55dbd56c16ea5f19f15a7c677" target="_top" xlink:title="Executes a multi&#45;step reinforcement learning experiment. ">
<polygon fill="none" stroke="#000000" points="766.5,-13.0252 766.5,-32.0252 870.5,-32.0252 870.5,-13.0252 766.5,-13.0252"/>
<text text-anchor="middle" x="818.5" y="-20.0252" font-family="Helvetica,sans-Serif" font-size="10.00" fill="#000000">xcs_multi_step_exp</text>
</a>
</g>
</g>
<!-- Node54&#45;&gt;Node55 -->
<g id="edge6" class="edge">
<title>Node54&#45;&gt;Node55</title>
<path fill="none" stroke="#191970" d="M729.0328,-22.5252C741.3175,-22.5252 754.2124,-22.5252 766.2667,-22.5252"/>
<polygon fill="#191970" stroke="#191970" points="728.8891,-19.0253 718.889,-22.5252 728.889,-26.0253 728.8891,-19.0253"/>
</g>
<!-- Node56 -->
<g id="node8" class="node">
<title>Node56</title>
<g id="a_node8"><a xlink:href="main_8c.html#ab572a67aa431827116ebd6931d667d21" target="_top" xlink:title="classification">
<polygon fill="none" stroke="#000000" points="1093,-13.0252 1093,-32.0252 1167,-32.0252 1167,-13.0252 1093,-13.0252"/>
<text text-anchor="middle" x="1130" y="-20.0252" font-family="Helvetica,sans-Serif" font-size="10.00" fill="#000000">classification</text>
</a>
</g>
</g>
<!-- Node55&#45;&gt;Node56 -->
<g id="edge7" class="edge">
<title>Node55&#45;&gt;Node56</title>
<path fill="none" stroke="#191970" d="M866.1644,-10.8135C880.4863,-7.8162 896.3004,-5.0193 911,-3.5252 959.6383,1.4185 972.293,.6882 1021,-3.5252 1045.1132,-5.6111 1071.8951,-10.2464 1092.8773,-14.4162"/>
<polygon fill="#191970" stroke="#191970" points="865.0648,-7.4707 856.0369,-13.0157 866.5522,-14.3109 865.0648,-7.4707"/>
</g>
<!-- Node57 -->
<g id="node9" class="node">
<title>Node57</title>
<g id="a_node9"><a xlink:href="main_8c.html#a3c04138a5bfe5d72780bb7e82a18e627" target="_top" xlink:title="main">
<polygon fill="none" stroke="#000000" points="1239,-51.0252 1239,-70.0252 1277,-70.0252 1277,-51.0252 1239,-51.0252"/>
<text text-anchor="middle" x="1258" y="-58.0252" font-family="Helvetica,sans-Serif" font-size="10.00" fill="#000000">main</text>
</a>
</g>
</g>
<!-- Node56&#45;&gt;Node57 -->
<g id="edge8" class="edge">
<title>Node56&#45;&gt;Node57</title>
<path fill="none" stroke="#191970" d="M1171.9951,-34.9925C1194.5448,-41.6869 1221.2443,-49.6133 1238.8458,-54.8388"/>
<polygon fill="#191970" stroke="#191970" points="1172.8824,-31.605 1162.2998,-32.1142 1170.8902,-38.3155 1172.8824,-31.605"/>
</g>
<!-- Node58&#45;&gt;Node55 -->
<g id="edge10" class="edge">
<title>Node58&#45;&gt;Node55</title>
<path fill="none" stroke="#191970" d="M718.0141,-48.4131C738.5566,-43.1208 762.2998,-37.0039 781.5472,-32.0452"/>
<polygon fill="#191970" stroke="#191970" points="717.0311,-45.052 708.2205,-50.9362 718.7775,-51.8306 717.0311,-45.052"/>
</g>
<!-- Node60 -->
<g id="node12" class="node">
<title>Node60</title>
<g id="a_node12"><a xlink:href="structXCS.html#a94d556a5e545ec415d7165d5e91b21d4" target="_top" xlink:title="XCS::single_decision">
<polygon fill="none" stroke="#000000" points="911,-203.0252 911,-222.0252 1021,-222.0252 1021,-203.0252 911,-203.0252"/>
<text text-anchor="middle" x="966" y="-210.0252" font-family="Helvetica,sans-Serif" font-size="10.00" fill="#000000">XCS::single_decision</text>
</a>
</g>
</g>
<!-- Node59&#45;&gt;Node60 -->
<g id="edge12" class="edge">
<title>Node59&#45;&gt;Node60</title>
<path fill="none" stroke="#191970" d="M722.1808,-186.2684C735.1221,-188.9459 749.0291,-191.5734 762,-193.5252 812.1229,-201.0673 869.6541,-206.1 910.8155,-209.0801"/>
<polygon fill="#191970" stroke="#191970" points="722.5537,-182.7699 712.0455,-184.1224 721.1036,-189.618 722.5537,-182.7699"/>
</g>
<!-- Node62 -->
<g id="node14" class="node">
<title>Node62</title>
<g id="a_node14"><a xlink:href="xcs__single__step_8c.html#a3d1fd2472d35310800aed897219a65af" target="_top" xlink:title="Executes a single&#45;step trial using a built&#45;in environment. ">
<polygon fill="none" stroke="#000000" points="776.5,-51.0252 776.5,-70.0252 860.5,-70.0252 860.5,-51.0252 776.5,-51.0252"/>
<text text-anchor="middle" x="818.5" y="-58.0252" font-family="Helvetica,sans-Serif" font-size="10.00" fill="#000000">xcs_single_trial</text>
</a>
</g>
</g>
<!-- Node59&#45;&gt;Node62 -->
<g id="edge14" class="edge">
<title>Node59&#45;&gt;Node62</title>
<path fill="none" stroke="#191970" d="M716.0848,-161.0006C719.5385,-159.3526 722.8874,-157.5313 726,-155.5252 745.5547,-142.9216 745.8101,-134.2321 762,-117.5252 778.2901,-100.7149 797.532,-81.4203 808.8358,-70.1416"/>
<polygon fill="#191970" stroke="#191970" points="714.6126,-157.8234 706.7882,-164.967 717.3596,-164.262 714.6126,-157.8234"/>
</g>
<!-- Node61 -->
<g id="node13" class="node">
<title>Node61</title>
<g id="a_node13"><a xlink:href="python__wrapper_8cpp.html#afbdcc1358036a0b83a6b239da2b098a2" target="_top" xlink:title="BOOST_PYTHON_MODULE">
<polygon fill="none" stroke="#000000" points="1057,-241.0252 1057,-260.0252 1203,-260.0252 1203,-241.0252 1057,-241.0252"/>
<text text-anchor="middle" x="1130" y="-248.0252" font-family="Helvetica,sans-Serif" font-size="10.00" fill="#000000">BOOST_PYTHON_MODULE</text>
</a>
</g>
</g>
<!-- Node60&#45;&gt;Node61 -->
<g id="edge13" class="edge">
<title>Node60&#45;&gt;Node61</title>
<path fill="none" stroke="#191970" d="M1017.341,-224.4212C1040.3929,-229.7625 1067.2211,-235.9789 1088.9135,-241.0051"/>
<polygon fill="#191970" stroke="#191970" points="1017.9161,-220.9619 1007.3841,-222.1142 1016.336,-227.7812 1017.9161,-220.9619"/>
</g>
<!-- Node63 -->
<g id="node15" class="node">
<title>Node63</title>
<g id="a_node15"><a xlink:href="xcs__single__step_8h.html#a39a031bf59eaa9b33e30e614610dcda8" target="_top" xlink:title="Executes a single&#45;step experiment. ">
<polygon fill="none" stroke="#000000" points="912,-13.0252 912,-32.0252 1020,-32.0252 1020,-13.0252 912,-13.0252"/>
<text text-anchor="middle" x="966" y="-20.0252" font-family="Helvetica,sans-Serif" font-size="10.00" fill="#000000">xcs_single_step_exp</text>
</a>
</g>
</g>
<!-- Node62&#45;&gt;Node63 -->
<g id="edge15" class="edge">
<title>Node62&#45;&gt;Node63</title>
<path fill="none" stroke="#191970" d="M865.5141,-48.4131C886.0566,-43.1208 909.7998,-37.0039 929.0472,-32.0452"/>
<polygon fill="#191970" stroke="#191970" points="864.5311,-45.052 855.7205,-50.9362 866.2775,-51.8306 864.5311,-45.052"/>
</g>
<!-- Node63&#45;&gt;Node56 -->
<g id="edge16" class="edge">
<title>Node63&#45;&gt;Node56</title>
<path fill="none" stroke="#191970" d="M1030.4163,-22.5252C1051.6445,-22.5252 1074.5225,-22.5252 1092.9907,-22.5252"/>
<polygon fill="#191970" stroke="#191970" points="1030.1543,-19.0253 1020.1542,-22.5252 1030.1542,-26.0253 1030.1543,-19.0253"/>
</g>
<!-- Node65 -->
<g id="node17" class="node">
<title>Node65</title>
<g id="a_node17"><a xlink:href="xcsf_8h.html#a874829f28fee20f9ad15b540f4b4d6ff" target="_top" xlink:title="Executes MAX_TRIALS number of XCSF learning iterations using the training data. ">
<polygon fill="none" stroke="#000000" points="791.5,-127.0252 791.5,-146.0252 845.5,-146.0252 845.5,-127.0252 791.5,-127.0252"/>
<text text-anchor="middle" x="818.5" y="-134.0252" font-family="Helvetica,sans-Serif" font-size="10.00" fill="#000000">xcsf_fit1</text>
</a>
</g>
</g>
<!-- Node64&#45;&gt;Node65 -->
<g id="edge18" class="edge">
<title>Node64&#45;&gt;Node65</title>
<path fill="none" stroke="#191970" d="M722.8959,-136.5252C746.0137,-136.5252 772.2809,-136.5252 791.4248,-136.5252"/>
<polygon fill="#191970" stroke="#191970" points="722.8731,-133.0253 712.873,-136.5252 722.873,-140.0253 722.8731,-133.0253"/>
</g>
<!-- Node67 -->
<g id="node19" class="node">
<title>Node67</title>
<g id="a_node19"><a xlink:href="xcsf_8h.html#a0b4de57cb9dadc9deca7901aa36e5025" target="_top" xlink:title="Executes MAX_TRIALS number of XCSF learning iterations using the training. data and test iterations u...">
<polygon fill="none" stroke="#000000" points="791.5,-165.0252 791.5,-184.0252 845.5,-184.0252 845.5,-165.0252 791.5,-165.0252"/>
<text text-anchor="middle" x="818.5" y="-172.0252" font-family="Helvetica,sans-Serif" font-size="10.00" fill="#000000">xcsf_fit2</text>
</a>
</g>
</g>
<!-- Node64&#45;&gt;Node67 -->
<g id="edge21" class="edge">
<title>Node64&#45;&gt;Node67</title>
<path fill="none" stroke="#191970" d="M718.223,-148.6911C742.2658,-154.8852 770.6482,-162.1973 791.0697,-167.4584"/>
<polygon fill="#191970" stroke="#191970" points="718.7775,-145.2197 708.2205,-146.1142 717.0311,-151.9984 718.7775,-145.2197"/>
</g>
<!-- Node66 -->
<g id="node18" class="node">
<title>Node66</title>
<g id="a_node18"><a xlink:href="structXCS.html#ad2ccafe59d2b4ae6d0e1cbc15edee53c" target="_top" xlink:title="XCS::fit">
<polygon fill="none" stroke="#000000" points="940,-127.0252 940,-146.0252 992,-146.0252 992,-127.0252 940,-127.0252"/>
<text text-anchor="middle" x="966" y="-134.0252" font-family="Helvetica,sans-Serif" font-size="10.00" fill="#000000">XCS::fit</text>
</a>
</g>
</g>
<!-- Node65&#45;&gt;Node66 -->
<g id="edge19" class="edge">
<title>Node65&#45;&gt;Node66</title>
<path fill="none" stroke="#191970" d="M855.8464,-136.5252C881.9913,-136.5252 916.2833,-136.5252 939.614,-136.5252"/>
<polygon fill="#191970" stroke="#191970" points="855.5538,-133.0253 845.5538,-136.5252 855.5537,-140.0253 855.5538,-133.0253"/>
</g>
<!-- Node66&#45;&gt;Node61 -->
<g id="edge20" class="edge">
<title>Node66&#45;&gt;Node61</title>
<path fill="none" stroke="#191970" d="M1001.6464,-146.5893C1008.283,-149.0836 1015.0083,-152.0567 1021,-155.5252 1063.146,-179.9229 1104.011,-221.8994 1121.3329,-240.8007"/>
<polygon fill="#191970" stroke="#191970" points="1002.6769,-143.2422 992.0821,-143.2754 1000.3851,-149.8565 1002.6769,-143.2422"/>
</g>
<!-- Node68 -->
<g id="node20" class="node">
<title>Node68</title>
<g id="a_node20"><a xlink:href="main_8c.html#a968c78da8ed8ad08662a86280deec99a" target="_top" xlink:title="regression">
<polygon fill="none" stroke="#000000" points="1099,-70.0252 1099,-89.0252 1161,-89.0252 1161,-70.0252 1099,-70.0252"/>
<text text-anchor="middle" x="1130" y="-77.0252" font-family="Helvetica,sans-Serif" font-size="10.00" fill="#000000">regression</text>
</a>
</g>
</g>
<!-- Node67&#45;&gt;Node68 -->
<g id="edge22" class="edge">
<title>Node67&#45;&gt;Node68</title>
<path fill="none" stroke="#191970" d="M855.4052,-165.0228C862.1971,-162.4781 869.023,-159.3428 875,-155.5252 894.6063,-143.0021 890.4962,-128.5174 911,-117.5252 971.7076,-84.9796 1054.2298,-79.345 1098.6307,-78.9162"/>
<polygon fill="#191970" stroke="#191970" points="853.9365,-161.8245 845.5813,-168.3391 856.1755,-168.4568 853.9365,-161.8245"/>
</g>
<!-- Node69 -->
<g id="node21" class="node">
<title>Node69</title>
<g id="a_node21"><a xlink:href="structXCS.html#a7d53320740db8e846251bacd0238a9fb" target="_top" xlink:title="XCS::fit">
<polygon fill="none" stroke="#000000" points="940,-165.0252 940,-184.0252 992,-184.0252 992,-165.0252 940,-165.0252"/>
<text text-anchor="middle" x="966" y="-172.0252" font-family="Helvetica,sans-Serif" font-size="10.00" fill="#000000">XCS::fit</text>
</a>
</g>
</g>
<!-- Node67&#45;&gt;Node69 -->
<g id="edge24" class="edge">
<title>Node67&#45;&gt;Node69</title>
<path fill="none" stroke="#191970" d="M855.8464,-174.5252C881.9913,-174.5252 916.2833,-174.5252 939.614,-174.5252"/>
<polygon fill="#191970" stroke="#191970" points="855.5538,-171.0253 845.5538,-174.5252 855.5537,-178.0253 855.5538,-171.0253"/>
</g>
<!-- Node68&#45;&gt;Node57 -->
<g id="edge23" class="edge">
<title>Node68&#45;&gt;Node57</title>
<path fill="none" stroke="#191970" d="M1171.3896,-73.3814C1194.0966,-70.0108 1221.1611,-65.9935 1238.9192,-63.3575"/>
<polygon fill="#191970" stroke="#191970" points="1170.69,-69.9468 1161.3123,-74.8773 1171.7179,-76.8709 1170.69,-69.9468"/>
</g>
<!-- Node70&#45;&gt;Node67 -->
<g id="edge26" class="edge">
<title>Node70&#45;&gt;Node67</title>
<path fill="none" stroke="#191970" d="M718.223,-200.3592C742.2658,-194.1652 770.6482,-186.8531 791.0697,-181.592"/>
<polygon fill="#191970" stroke="#191970" points="717.0311,-197.052 708.2205,-202.9362 718.7775,-203.8306 717.0311,-197.052"/>
</g>
<!-- Node71 -->
<g id="node23" class="node">
<title>Node71</title>
<g id="a_node23"><a xlink:href="xcsf_8h.html#a2cf95733e5f97410d94211b72e835847" target="_top" xlink:title="Calculates the XCSF error for the input data. ">
<polygon fill="none" stroke="#000000" points="786,-241.0252 786,-260.0252 851,-260.0252 851,-241.0252 786,-241.0252"/>
<text text-anchor="middle" x="818.5" y="-248.0252" font-family="Helvetica,sans-Serif" font-size="10.00" fill="#000000">xcsf_score</text>
</a>
</g>
</g>
<!-- Node70&#45;&gt;Node71 -->
<g id="edge27" class="edge">
<title>Node70&#45;&gt;Node71</title>
<path fill="none" stroke="#191970" d="M718.0695,-224.6516C740.1448,-230.3388 765.9063,-236.9756 785.8107,-242.1035"/>
<polygon fill="#191970" stroke="#191970" points="718.7775,-221.2197 708.2205,-222.1142 717.0311,-227.9984 718.7775,-221.2197"/>
</g>
<!-- Node72 -->
<g id="node24" class="node">
<title>Node72</title>
<g id="a_node24"><a xlink:href="structXCS.html#aa77bc77484d6d14bf512304a23cfec88" target="_top" xlink:title="XCS::score">
<polygon fill="none" stroke="#000000" points="932,-241.0252 932,-260.0252 1000,-260.0252 1000,-241.0252 932,-241.0252"/>
<text text-anchor="middle" x="966" y="-248.0252" font-family="Helvetica,sans-Serif" font-size="10.00" fill="#000000">XCS::score</text>
</a>
</g>
</g>
<!-- Node71&#45;&gt;Node72 -->
<g id="edge28" class="edge">
<title>Node71&#45;&gt;Node72</title>
<path fill="none" stroke="#191970" d="M861.4832,-250.5252C883.8724,-250.5252 910.8709,-250.5252 931.8188,-250.5252"/>
<polygon fill="#191970" stroke="#191970" points="861.2351,-247.0253 851.235,-250.5252 861.235,-254.0253 861.2351,-247.0253"/>
</g>
<!-- Node72&#45;&gt;Node61 -->
<g id="edge29" class="edge">
<title>Node72&#45;&gt;Node61</title>
<path fill="none" stroke="#191970" d="M1010.4237,-250.5252C1024.7375,-250.5252 1041.0002,-250.5252 1056.82,-250.5252"/>
<polygon fill="#191970" stroke="#191970" points="1010.3798,-247.0253 1000.3798,-250.5252 1010.3797,-254.0253 1010.3798,-247.0253"/>
</g>
<!-- Node74 -->
<g id="node26" class="node">
<title>Node74</title>
<g id="a_node26"><a xlink:href="structXCS.html#a911ed75c86abed7807d33eb1385240ed" target="_top" xlink:title="XCS::predict">
<polygon fill="none" stroke="#000000" points="929.5,-317.0252 929.5,-336.0252 1002.5,-336.0252 1002.5,-317.0252 929.5,-317.0252"/>
<text text-anchor="middle" x="966" y="-324.0252" font-family="Helvetica,sans-Serif" font-size="10.00" fill="#000000">XCS::predict</text>
</a>
</g>
</g>
<!-- Node73&#45;&gt;Node74 -->
<g id="edge31" class="edge">
<title>Node73&#45;&gt;Node74</title>
<path fill="none" stroke="#191970" d="M863.8334,-326.5252C884.8834,-326.5252 909.5797,-326.5252 929.4179,-326.5252"/>
<polygon fill="#191970" stroke="#191970" points="863.83,-323.0253 853.8299,-326.5252 863.8299,-330.0253 863.83,-323.0253"/>
</g>
<!-- Node74&#45;&gt;Node61 -->
<g id="edge32" class="edge">
<title>Node74&#45;&gt;Node61</title>
<path fill="none" stroke="#191970" d="M997.6513,-312.9307C1005.3164,-309.5787 1013.4701,-305.963 1021,-302.5252 1052.4703,-288.1572 1088.6543,-270.7085 1110.4023,-260.1192"/>
<polygon fill="#191970" stroke="#191970" points="996.0622,-309.805 988.2872,-317.0023 998.8535,-316.2244 996.0622,-309.805"/>
</g>
<!-- Node76 -->
<g id="node28" class="node">
<title>Node76</title>
<g id="a_node28"><a xlink:href="structXCS.html#aa5608b379fae01b724267a99068d55bb" target="_top" xlink:title="XCS::print_match_set">
<polygon fill="none" stroke="#000000" points="762,-279.0252 762,-298.0252 875,-298.0252 875,-279.0252 762,-279.0252"/>
<text text-anchor="middle" x="818.5" y="-286.0252" font-family="Helvetica,sans-Serif" font-size="10.00" fill="#000000">XCS::print_match_set</text>
</a>
</g>
</g>
<!-- Node75&#45;&gt;Node76 -->
<g id="edge34" class="edge">
<title>Node75&#45;&gt;Node76</title>
<path fill="none" stroke="#191970" d="M731.4974,-272.0094C743.7578,-274.3368 756.5234,-276.7601 768.3783,-279.0106"/>
<polygon fill="#191970" stroke="#191970" points="731.8259,-268.5094 721.3486,-270.0829 730.5204,-275.3865 731.8259,-268.5094"/>
</g>
<!-- Node76&#45;&gt;Node61 -->
<g id="edge35" class="edge">
<title>Node76&#45;&gt;Node61</title>
<path fill="none" stroke="#191970" d="M885.4236,-283.5825C924.9525,-280.3302 975.9257,-275.5587 1021,-269.5252 1040.4199,-266.9257 1061.6686,-263.3814 1080.2058,-260.0578"/>
<polygon fill="#191970" stroke="#191970" points="885.0569,-280.1007 875.3723,-284.3971 885.6224,-287.0778 885.0569,-280.1007"/>
</g>
<!-- Node77&#45;&gt;Node54 -->
<g id="edge37" class="edge">
<title>Node77&#45;&gt;Node54</title>
<path fill="none" stroke="#191970" d="M560.8386,-99.3709C572.8585,-82.251 592.9455,-56.976 616,-41.5252 621.7065,-37.7007 628.2621,-34.5674 634.813,-32.028"/>
<polygon fill="#191970" stroke="#191970" points="557.7489,-97.6906 555.0233,-107.9289 563.5386,-101.6249 557.7489,-97.6906"/>
</g>
<!-- Node77&#45;&gt;Node64 -->
<g id="edge42" class="edge">
<title>Node77&#45;&gt;Node64</title>
<path fill="none" stroke="#191970" d="M574.0873,-121.4322C590.0252,-123.9143 611.0428,-127.1876 629.4303,-130.0512"/>
<polygon fill="#191970" stroke="#191970" points="574.3791,-117.9355 563.9596,-119.8549 573.3019,-124.8522 574.3791,-117.9355"/>
</g>
<!-- Node78 -->
<g id="node30" class="node">
<title>Node78</title>
<g id="a_node30"><a xlink:href="xcs__single__step_8h.html#aff4aec035e4573993a7906569f2028f5" target="_top" xlink:title="Creates the action set, updates the classifiers and runs the EA. ">
<polygon fill="none" stroke="#000000" points="622,-89.0252 622,-108.0252 720,-108.0252 720,-89.0252 622,-89.0252"/>
<text text-anchor="middle" x="671" y="-96.0252" font-family="Helvetica,sans-Serif" font-size="10.00" fill="#000000">xcs_single_update</text>
</a>
</g>
</g>
<!-- Node77&#45;&gt;Node78 -->
<g id="edge38" class="edge">
<title>Node77&#45;&gt;Node78</title>
<path fill="none" stroke="#191970" d="M574.1035,-113.6156C587.8851,-111.4693 605.4612,-108.732 621.8504,-106.1796"/>
<polygon fill="#191970" stroke="#191970" points="573.3019,-110.1982 563.9596,-115.1954 574.3791,-117.1148 573.3019,-110.1982"/>
</g>
<!-- Node78&#45;&gt;Node62 -->
<g id="edge41" class="edge">
<title>Node78&#45;&gt;Node62</title>
<path fill="none" stroke="#191970" d="M718.0141,-86.4131C738.5566,-81.1208 762.2998,-75.0039 781.5472,-70.0452"/>
<polygon fill="#191970" stroke="#191970" points="717.0311,-83.052 708.2205,-88.9362 718.7775,-89.8306 717.0311,-83.052"/>
</g>
<!-- Node79 -->
<g id="node31" class="node">
<title>Node79</title>
<g id="a_node31"><a xlink:href="structXCS.html#aedc01ad6f00a54b260a7605929a1d4c9" target="_top" xlink:title="XCS::single_update">
<polygon fill="none" stroke="#000000" points="914,-51.0252 914,-70.0252 1018,-70.0252 1018,-51.0252 914,-51.0252"/>
<text text-anchor="middle" x="966" y="-58.0252" font-family="Helvetica,sans-Serif" font-size="10.00" fill="#000000">XCS::single_update</text>
</a>
</g>
</g>
<!-- Node78&#45;&gt;Node79 -->
<g id="edge39" class="edge">
<title>Node78&#45;&gt;Node79</title>
<path fill="none" stroke="#191970" d="M730.2918,-94.7799C771.1166,-91.7668 826.5231,-86.8196 875,-79.5252 891.4384,-77.0516 909.3802,-73.4928 924.9545,-70.1224"/>
<polygon fill="#191970" stroke="#191970" points="729.9624,-91.2944 720.2399,-95.5045 730.4657,-98.2763 729.9624,-91.2944"/>
</g>
<!-- Node79&#45;&gt;Node61 -->
<g id="edge40" class="edge">
<title>Node79&#45;&gt;Node61</title>
<path fill="none" stroke="#191970" d="M983.3273,-77.7478C994.3483,-88.88 1008.7908,-103.8009 1021,-117.5252 1060.8843,-162.3586 1105.3331,-218.7801 1122.5912,-240.9543"/>
<polygon fill="#191970" stroke="#191970" points="985.5258,-74.9955 975.9878,-70.3827 980.5674,-79.9367 985.5258,-74.9955"/>
</g>
<!-- Node81 -->
<g id="node33" class="node">
<title>Node81</title>
<g id="a_node33"><a xlink:href="structXCS.html#a6dc7bea7d667fda1677497fd5a6f0def" target="_top" xlink:title="XCS::get_pop_avg_cond_size">
<polygon fill="none" stroke="#000000" points="333,-346.0252 333,-365.0252 482,-365.0252 482,-346.0252 333,-346.0252"/>
<text text-anchor="middle" x="407.5" y="-353.0252" font-family="Helvetica,sans-Serif" font-size="10.00" fill="#000000">XCS::get_pop_avg_cond_size</text>
</a>
</g>
</g>
<!-- Node80&#45;&gt;Node81 -->
<g id="edge44" class="edge">
<title>Node80&#45;&gt;Node81</title>
<path fill="none" stroke="#191970" d="M307.6596,-349.3239C315.8689,-349.8338 324.3635,-350.3614 332.7737,-350.8838"/>
<polygon fill="#191970" stroke="#191970" points="307.6392,-345.816 297.4414,-348.6892 307.2052,-352.8025 307.6392,-345.816"/>
</g>
<!-- Node81&#45;&gt;Node61 -->
<g id="edge45" class="edge">
<title>Node81&#45;&gt;Node61</title>
<path fill="none" stroke="#191970" d="M492.2674,-359.8909C543.9109,-362.1847 611.2445,-364.5252 671,-364.5252 671,-364.5252 671,-364.5252 818.5,-364.5252 908.8953,-364.5252 937.9252,-381.1605 1021,-345.5252 1066.4468,-326.0306 1106.4956,-280.2824 1122.5416,-260.2309"/>
<polygon fill="#191970" stroke="#191970" points="492.3028,-356.389 482.1548,-359.4334 491.9864,-363.3818 492.3028,-356.389"/>
</g>
</g>
</svg>
