<?xml version="1.0" encoding="UTF-8" standalone="no"?>
<!DOCTYPE svg PUBLIC "-//W3C//DTD SVG 1.1//EN"
 "http://www.w3.org/Graphics/SVG/1.1/DTD/svg11.dtd">
<!-- Generated by graphviz version 2.40.1 (20161225.0304)
 -->
<!-- Title: cl_init Pages: 1 -->
<svg width="991pt" height="370pt"
 viewBox="0.00 0.00 991.00 370.00" xmlns="http://www.w3.org/2000/svg" xmlns:xlink="http://www.w3.org/1999/xlink">
<g id="graph0" class="graph" transform="scale(1 1) rotate(0) translate(4 366)">
<title>cl_init</title>
<!-- Node249 -->
<g id="node1" class="node">
<title>Node249</title>
<polygon fill="#bfbfbf" stroke="#000000" points="0,-133.5 0,-152.5 42,-152.5 42,-133.5 0,-133.5"/>
<text text-anchor="middle" x="21" y="-140.5" font-family="Helvetica,sans-Serif" font-size="10.00" fill="#000000">cl_init</text>
</g>
<!-- Node250 -->
<g id="node2" class="node">
<title>Node250</title>
<g id="a_node2"><a xlink:href="clset_8c.html#a60fd3363a0a370e8b5a18671861be461" target="_top" xlink:title="Ensures all possible actions are covered by the match set. ">
<polygon fill="none" stroke="#000000" points="78,-133.5 78,-152.5 145,-152.5 145,-133.5 78,-133.5"/>
<text text-anchor="middle" x="111.5" y="-140.5" font-family="Helvetica,sans-Serif" font-size="10.00" fill="#000000">clset_cover</text>
</a>
</g>
</g>
<!-- Node249&#45;&gt;Node250 -->
<g id="edge1" class="edge">
<title>Node249&#45;&gt;Node250</title>
<path fill="none" stroke="#191970" d="M52.6711,-143C60.8075,-143 69.5894,-143 77.8233,-143"/>
<polygon fill="#191970" stroke="#191970" points="52.4473,-139.5001 42.4472,-143 52.4472,-146.5001 52.4473,-139.5001"/>
</g>
<!-- Node270 -->
<g id="node22" class="node">
<title>Node270</title>
<g id="a_node22"><a xlink:href="clset_8h.html#a010148dc53ed67a07156c06cd3bedc17" target="_top" xlink:title="Initialises a new population of random classifiers. ">
<polygon fill="none" stroke="#000000" points="562.5,-.5 562.5,-19.5 639.5,-19.5 639.5,-.5 562.5,-.5"/>
<text text-anchor="middle" x="601" y="-7.5" font-family="Helvetica,sans-Serif" font-size="10.00" fill="#000000">clset_pop_init</text>
</a>
</g>
</g>
<!-- Node249&#45;&gt;Node270 -->
<g id="edge26" class="edge">
<title>Node249&#45;&gt;Node270</title>
<path fill="none" stroke="#191970" d="M43.4925,-127.867C78.6852,-105.6986 149.6256,-67 216,-67 216,-67 216,-67 339,-67 427.2125,-67 528.3912,-35.767 575.0043,-19.5405"/>
<polygon fill="#191970" stroke="#191970" points="41.4542,-125.0166 34.943,-133.3745 45.2452,-130.9013 41.4542,-125.0166"/>
</g>
<!-- Node272 -->
<g id="node24" class="node">
<title>Node272</title>
<g id="a_node24"><a xlink:href="ea_8h.html#ae90a9b4131bb94462265b9c928499eb8" target="_top" xlink:title="Executes the evolutionary algorithm (EA). ">
<polygon fill="none" stroke="#000000" points="201.5,-171.5 201.5,-190.5 230.5,-190.5 230.5,-171.5 201.5,-171.5"/>
<text text-anchor="middle" x="216" y="-178.5" font-family="Helvetica,sans-Serif" font-size="10.00" fill="#000000">ea</text>
</a>
</g>
</g>
<!-- Node249&#45;&gt;Node272 -->
<g id="edge31" class="edge">
<title>Node249&#45;&gt;Node272</title>
<path fill="none" stroke="#191970" d="M51.6058,-154.357C60.0662,-157.1785 69.3116,-159.9722 78,-162 122.2767,-172.3337 175.9463,-177.7366 201.3343,-179.8778"/>
<polygon fill="#191970" stroke="#191970" points="52.7098,-151.0355 42.115,-151.0763 50.4228,-157.6514 52.7098,-151.0355"/>
</g>
<!-- Node251 -->
<g id="node3" class="node">
<title>Node251</title>
<g id="a_node3"><a xlink:href="clset_8h.html#a229207544a5b8b601de05d231bb84650" target="_top" xlink:title="Constructs the match set. ">
<polygon fill="none" stroke="#000000" points="181,-133.5 181,-152.5 251,-152.5 251,-133.5 181,-133.5"/>
<text text-anchor="middle" x="216" y="-140.5" font-family="Helvetica,sans-Serif" font-size="10.00" fill="#000000">clset_match</text>
</a>
</g>
</g>
<!-- Node250&#45;&gt;Node251 -->
<g id="edge2" class="edge">
<title>Node250&#45;&gt;Node251</title>
<path fill="none" stroke="#191970" d="M155.3543,-143C163.9061,-143 172.7659,-143 180.985,-143"/>
<polygon fill="#191970" stroke="#191970" points="155.1397,-139.5001 145.1397,-143 155.1396,-146.5001 155.1397,-139.5001"/>
</g>
<!-- Node252 -->
<g id="node4" class="node">
<title>Node252</title>
<g id="a_node4"><a xlink:href="xcs__multi__step_8h.html#af2eaa15cba52d29fa3630218d9780a6a" target="_top" xlink:title="Constructs the match set and selects an action to perform. ">
<polygon fill="none" stroke="#000000" points="289,-95.5 289,-114.5 389,-114.5 389,-95.5 289,-95.5"/>
<text text-anchor="middle" x="339" y="-102.5" font-family="Helvetica,sans-Serif" font-size="10.00" fill="#000000">xcs_multi_decision</text>
</a>
</g>
</g>
<!-- Node251&#45;&gt;Node252 -->
<g id="edge3" class="edge">
<title>Node251&#45;&gt;Node252</title>
<path fill="none" stroke="#191970" d="M257.0445,-130.3196C273.6638,-125.1852 292.5322,-119.3559 307.9718,-114.5859"/>
<polygon fill="#191970" stroke="#191970" points="255.5594,-127.1151 247.0381,-133.411 257.6257,-133.8032 255.5594,-127.1151"/>
</g>
<!-- Node256 -->
<g id="node8" class="node">
<title>Node256</title>
<g id="a_node8"><a xlink:href="xcs__single__step_8h.html#a5c1d53976f601ae3603aed34f0767c29" target="_top" xlink:title="Constructs the match set and selects an action to perform. ">
<polygon fill="none" stroke="#000000" points="287,-228.5 287,-247.5 391,-247.5 391,-228.5 287,-228.5"/>
<text text-anchor="middle" x="339" y="-235.5" font-family="Helvetica,sans-Serif" font-size="10.00" fill="#000000">xcs_single_decision</text>
</a>
</g>
</g>
<!-- Node251&#45;&gt;Node256 -->
<g id="edge7" class="edge">
<title>Node251&#45;&gt;Node256</title>
<path fill="none" stroke="#191970" d="M245.2295,-157.9341C247.2293,-159.2377 249.1733,-160.5972 251,-162 269.4515,-176.1696 269.5365,-184.6292 287,-200 298.9186,-210.4903 313.6142,-221.0347 324.3391,-228.3455"/>
<polygon fill="#191970" stroke="#191970" points="246.6785,-154.7234 236.2956,-152.6149 243.0974,-160.7381 246.6785,-154.7234"/>
</g>
<!-- Node261 -->
<g id="node13" class="node">
<title>Node261</title>
<g id="a_node13"><a xlink:href="xcsf_8c.html#af5fb604e81235fdcb2ed8925d9291f59" target="_top" xlink:title="Executes a single XCSF trial. ">
<polygon fill="none" stroke="#000000" points="311,-171.5 311,-190.5 367,-190.5 367,-171.5 311,-171.5"/>
<text text-anchor="middle" x="339" y="-178.5" font-family="Helvetica,sans-Serif" font-size="10.00" fill="#000000">xcsf_trial</text>
</a>
</g>
</g>
<!-- Node251&#45;&gt;Node261 -->
<g id="edge13" class="edge">
<title>Node251&#45;&gt;Node261</title>
<path fill="none" stroke="#191970" d="M256.607,-155.5453C274.4018,-161.0428 294.845,-167.3586 310.9162,-172.3237"/>
<polygon fill="#191970" stroke="#191970" points="257.6257,-152.1968 247.0381,-152.589 255.5594,-158.8849 257.6257,-152.1968"/>
</g>
<!-- Node253 -->
<g id="node5" class="node">
<title>Node253</title>
<g id="a_node5"><a xlink:href="xcs__multi__step_8c.html#ad50c415970b4bfc42f469fb38c5e68fa" target="_top" xlink:title="Executes a multi&#45;step trial using a built&#45;in environment. ">
<polygon fill="none" stroke="#000000" points="429,-95.5 429,-114.5 509,-114.5 509,-95.5 429,-95.5"/>
<text text-anchor="middle" x="469" y="-102.5" font-family="Helvetica,sans-Serif" font-size="10.00" fill="#000000">xcs_multi_trial</text>
</a>
</g>
</g>
<!-- Node252&#45;&gt;Node253 -->
<g id="edge4" class="edge">
<title>Node252&#45;&gt;Node253</title>
<path fill="none" stroke="#191970" d="M399.5593,-105C409.5276,-105 419.6359,-105 428.9405,-105"/>
<polygon fill="#191970" stroke="#191970" points="399.2614,-101.5001 389.2614,-105 399.2614,-108.5001 399.2614,-101.5001"/>
</g>
<!-- Node254 -->
<g id="node6" class="node">
<title>Node254</title>
<g id="a_node6"><a xlink:href="xcs__multi__step_8h.html#acc29d4a55dbd56c16ea5f19f15a7c677" target="_top" xlink:title="Executes a multi&#45;step reinforcement learning experiment. ">
<polygon fill="none" stroke="#000000" points="549,-76.5 549,-95.5 653,-95.5 653,-76.5 549,-76.5"/>
<text text-anchor="middle" x="601" y="-83.5" font-family="Helvetica,sans-Serif" font-size="10.00" fill="#000000">xcs_multi_step_exp</text>
</a>
</g>
</g>
<!-- Node253&#45;&gt;Node254 -->
<g id="edge5" class="edge">
<title>Node253&#45;&gt;Node254</title>
<path fill="none" stroke="#191970" d="M519.4938,-97.732C529.0732,-96.3531 539.1146,-94.9077 548.7472,-93.5212"/>
<polygon fill="#191970" stroke="#191970" points="518.7209,-94.307 509.3216,-99.1961 519.7183,-101.2356 518.7209,-94.307"/>
</g>
<!-- Node255 -->
<g id="node7" class="node">
<title>Node255</title>
<g id="a_node7"><a xlink:href="main_8c.html#a3c04138a5bfe5d72780bb7e82a18e627" target="_top" xlink:title="main">
<polygon fill="none" stroke="#000000" points="727,-95.5 727,-114.5 765,-114.5 765,-95.5 727,-95.5"/>
<text text-anchor="middle" x="746" y="-102.5" font-family="Helvetica,sans-Serif" font-size="10.00" fill="#000000">main</text>
</a>
</g>
</g>
<!-- Node254&#45;&gt;Node255 -->
<g id="edge6" class="edge">
<title>Node254&#45;&gt;Node255</title>
<path fill="none" stroke="#191970" d="M663.4129,-94.1782C686.3558,-97.1846 710.6732,-100.371 726.932,-102.5014"/>
<polygon fill="#191970" stroke="#191970" points="663.7183,-90.6884 653.3483,-92.8594 662.8088,-97.6291 663.7183,-90.6884"/>
</g>
<!-- Node257 -->
<g id="node9" class="node">
<title>Node257</title>
<g id="a_node9"><a xlink:href="structXCS.html#a94d556a5e545ec415d7165d5e91b21d4" target="_top" xlink:title="XCS::single_decision">
<polygon fill="none" stroke="#000000" points="691,-304.5 691,-323.5 801,-323.5 801,-304.5 691,-304.5"/>
<text text-anchor="middle" x="746" y="-311.5" font-family="Helvetica,sans-Serif" font-size="10.00" fill="#000000">XCS::single_decision</text>
</a>
</g>
</g>
<!-- Node256&#45;&gt;Node257 -->
<g id="edge8" class="edge">
<title>Node256&#45;&gt;Node257</title>
<path fill="none" stroke="#191970" d="M376.9953,-251.2038C381.7497,-253.0545 386.5146,-255.0079 391,-257 407.5343,-264.3435 409.7276,-270.6174 427,-276 516.5895,-303.9189 626.2088,-311.5537 690.8318,-313.5074"/>
<polygon fill="#191970" stroke="#191970" points="377.9356,-247.818 367.3437,-247.5693 375.4687,-254.3689 377.9356,-247.818"/>
</g>
<!-- Node259 -->
<g id="node11" class="node">
<title>Node259</title>
<g id="a_node11"><a xlink:href="xcs__single__step_8c.html#a536ab4256e871e31959ea6e907455340" target="_top" xlink:title="Executes a single&#45;step trial using a built&#45;in environment. ">
<polygon fill="none" stroke="#000000" points="427,-247.5 427,-266.5 511,-266.5 511,-247.5 427,-247.5"/>
<text text-anchor="middle" x="469" y="-254.5" font-family="Helvetica,sans-Serif" font-size="10.00" fill="#000000">xcs_single_trial</text>
</a>
</g>
</g>
<!-- Node256&#45;&gt;Node259 -->
<g id="edge10" class="edge">
<title>Node256&#45;&gt;Node259</title>
<path fill="none" stroke="#191970" d="M401.2443,-247.0972C409.9202,-248.3653 418.6616,-249.6428 426.8488,-250.8394"/>
<polygon fill="#191970" stroke="#191970" points="401.528,-243.6016 391.1269,-245.6185 400.5156,-250.528 401.528,-243.6016"/>
</g>
<!-- Node258 -->
<g id="node10" class="node">
<title>Node258</title>
<g id="a_node10"><a xlink:href="python__wrapper_8cpp.html#afbdcc1358036a0b83a6b239da2b098a2" target="_top" xlink:title="BOOST_PYTHON_MODULE">
<polygon fill="none" stroke="#000000" points="837,-247.5 837,-266.5 983,-266.5 983,-247.5 837,-247.5"/>
<text text-anchor="middle" x="910" y="-254.5" font-family="Helvetica,sans-Serif" font-size="10.00" fill="#000000">BOOST_PYTHON_MODULE</text>
</a>
</g>
</g>
<!-- Node257&#45;&gt;Node258 -->
<g id="edge9" class="edge">
<title>Node257&#45;&gt;Node258</title>
<path fill="none" stroke="#191970" d="M783.4075,-301.0933C789.2955,-299.0572 795.3139,-296.9733 801,-295 828.8314,-285.3414 860.6404,-274.2455 882.6823,-266.5476"/>
<polygon fill="#191970" stroke="#191970" points="782.0114,-297.8726 773.7031,-304.4469 784.2978,-304.4887 782.0114,-297.8726"/>
</g>
<!-- Node260 -->
<g id="node12" class="node">
<title>Node260</title>
<g id="a_node12"><a xlink:href="xcs__single__step_8h.html#a39a031bf59eaa9b33e30e614610dcda8" target="_top" xlink:title="Executes a single&#45;step reinforcement learning experiment. ">
<polygon fill="none" stroke="#000000" points="547,-190.5 547,-209.5 655,-209.5 655,-190.5 547,-190.5"/>
<text text-anchor="middle" x="601" y="-197.5" font-family="Helvetica,sans-Serif" font-size="10.00" fill="#000000">xcs_single_step_exp</text>
</a>
</g>
</g>
<!-- Node259&#45;&gt;Node260 -->
<g id="edge11" class="edge">
<title>Node259&#45;&gt;Node260</title>
<path fill="none" stroke="#191970" d="M500.5367,-243.3819C524.6866,-232.9535 557.393,-218.8303 578.8341,-209.5716"/>
<polygon fill="#191970" stroke="#191970" points="498.8869,-240.2818 491.0938,-247.4595 501.662,-246.7083 498.8869,-240.2818"/>
</g>
<!-- Node260&#45;&gt;Node255 -->
<g id="edge12" class="edge">
<title>Node260&#45;&gt;Node255</title>
<path fill="none" stroke="#191970" d="M643.4567,-186.7153C647.4455,-184.9781 651.3554,-183.0726 655,-181 688.2807,-162.074 721.2386,-130.53 736.7742,-114.6944"/>
<polygon fill="#191970" stroke="#191970" points="642.0776,-183.4973 634.0942,-190.4626 644.6788,-189.9961 642.0776,-183.4973"/>
</g>
<!-- Node262 -->
<g id="node14" class="node">
<title>Node262</title>
<g id="a_node14"><a xlink:href="xcsf_8h.html#a40f4dfe69c6480f25c55d21c44746eb8" target="_top" xlink:title="Executes MAX_TRIALS number of XCSF learning iterations using the training. data and test iterations u...">
<polygon fill="none" stroke="#000000" points="442,-133.5 442,-152.5 496,-152.5 496,-133.5 442,-133.5"/>
<text text-anchor="middle" x="469" y="-140.5" font-family="Helvetica,sans-Serif" font-size="10.00" fill="#000000">xcsf_fit2</text>
</a>
</g>
</g>
<!-- Node261&#45;&gt;Node262 -->
<g id="edge14" class="edge">
<title>Node261&#45;&gt;Node262</title>
<path fill="none" stroke="#191970" d="M376.9876,-169.8959C397.7371,-163.8307 422.9539,-156.4596 441.7378,-150.9689"/>
<polygon fill="#191970" stroke="#191970" points="375.8244,-166.5894 367.2081,-172.7546 377.7884,-173.3082 375.8244,-166.5894"/>
</g>
<!-- Node266 -->
<g id="node18" class="node">
<title>Node266</title>
<g id="a_node18"><a xlink:href="xcsf_8h.html#a90b938e4ae2ef92284e8eabfcf4b7b7b" target="_top" xlink:title="Calculates the XCSF predictions for the provided input. ">
<polygon fill="none" stroke="#000000" points="434,-171.5 434,-190.5 504,-190.5 504,-171.5 434,-171.5"/>
<text text-anchor="middle" x="469" y="-178.5" font-family="Helvetica,sans-Serif" font-size="10.00" fill="#000000">xcsf_predict</text>
</a>
</g>
</g>
<!-- Node261&#45;&gt;Node266 -->
<g id="edge20" class="edge">
<title>Node261&#45;&gt;Node266</title>
<path fill="none" stroke="#191970" d="M377.3206,-181C395.2267,-181 416.4012,-181 433.887,-181"/>
<polygon fill="#191970" stroke="#191970" points="377.2081,-177.5001 367.2081,-181 377.208,-184.5001 377.2081,-177.5001"/>
</g>
<!-- Node268 -->
<g id="node20" class="node">
<title>Node268</title>
<g id="a_node20"><a xlink:href="xcsf_8h.html#a348b8cd321211c377fb1deedc62c7c67" target="_top" xlink:title="Calculates the XCSF error for the input data. ">
<polygon fill="none" stroke="#000000" points="436.5,-209.5 436.5,-228.5 501.5,-228.5 501.5,-209.5 436.5,-209.5"/>
<text text-anchor="middle" x="469" y="-216.5" font-family="Helvetica,sans-Serif" font-size="10.00" fill="#000000">xcsf_score</text>
</a>
</g>
</g>
<!-- Node261&#45;&gt;Node268 -->
<g id="edge23" class="edge">
<title>Node261&#45;&gt;Node268</title>
<path fill="none" stroke="#191970" d="M376.9417,-192.0907C395.7429,-197.5864 418.2206,-204.1568 436.2585,-209.4294"/>
<polygon fill="#191970" stroke="#191970" points="377.7884,-188.6918 367.2081,-189.2454 375.8244,-195.4106 377.7884,-188.6918"/>
</g>
<!-- Node262&#45;&gt;Node255 -->
<g id="edge15" class="edge">
<title>Node262&#45;&gt;Node255</title>
<path fill="none" stroke="#191970" d="M506.2035,-137.8963C565.9796,-129.6959 681.3082,-113.8747 726.8394,-107.6285"/>
<polygon fill="#191970" stroke="#191970" points="505.4958,-134.4605 496.0643,-139.2872 506.4472,-141.3955 505.4958,-134.4605"/>
</g>
<!-- Node263 -->
<g id="node15" class="node">
<title>Node263</title>
<g id="a_node15"><a xlink:href="structXCS.html#a7d53320740db8e846251bacd0238a9fb" target="_top" xlink:title="XCS::fit">
<polygon fill="none" stroke="#000000" points="575,-152.5 575,-171.5 627,-171.5 627,-152.5 575,-152.5"/>
<text text-anchor="middle" x="601" y="-159.5" font-family="Helvetica,sans-Serif" font-size="10.00" fill="#000000">XCS::fit</text>
</a>
</g>
</g>
<!-- Node262&#45;&gt;Node263 -->
<g id="edge16" class="edge">
<title>Node262&#45;&gt;Node263</title>
<path fill="none" stroke="#191970" d="M506.0015,-148.326C527.9406,-151.4839 555.2158,-155.4098 574.905,-158.2439"/>
<polygon fill="#191970" stroke="#191970" points="506.4274,-144.8513 496.0307,-146.8908 505.43,-151.7799 506.4274,-144.8513"/>
</g>
<!-- Node264 -->
<g id="node16" class="node">
<title>Node264</title>
<g id="a_node16"><a xlink:href="xcsf_8h.html#afd4a983899f1980887b8375e40b32a72" target="_top" xlink:title="Executes MAX_TRIALS number of XCSF learning iterations using the training data. ">
<polygon fill="none" stroke="#000000" points="574,-38.5 574,-57.5 628,-57.5 628,-38.5 574,-38.5"/>
<text text-anchor="middle" x="601" y="-45.5" font-family="Helvetica,sans-Serif" font-size="10.00" fill="#000000">xcsf_fit1</text>
</a>
</g>
</g>
<!-- Node262&#45;&gt;Node264 -->
<g id="edge17" class="edge">
<title>Node262&#45;&gt;Node264</title>
<path fill="none" stroke="#191970" d="M505.3243,-128.3044C507.3236,-126.9704 509.2342,-125.5368 511,-124 533.6021,-104.3296 523.5685,-85.6746 547,-67 554.772,-60.8058 564.7118,-56.5517 573.94,-53.6671"/>
<polygon fill="#191970" stroke="#191970" points="503.1194,-125.5326 496.1655,-133.526 506.5864,-131.6137 503.1194,-125.5326"/>
</g>
<!-- Node265 -->
<g id="node17" class="node">
<title>Node265</title>
<g id="a_node17"><a xlink:href="structXCS.html#ad2ccafe59d2b4ae6d0e1cbc15edee53c" target="_top" xlink:title="XCS::fit">
<polygon fill="none" stroke="#000000" points="720,-38.5 720,-57.5 772,-57.5 772,-38.5 720,-38.5"/>
<text text-anchor="middle" x="746" y="-45.5" font-family="Helvetica,sans-Serif" font-size="10.00" fill="#000000">XCS::fit</text>
</a>
</g>
</g>
<!-- Node264&#45;&gt;Node265 -->
<g id="edge18" class="edge">
<title>Node264&#45;&gt;Node265</title>
<path fill="none" stroke="#191970" d="M638.3422,-48C663.8746,-48 697.0827,-48 719.8256,-48"/>
<polygon fill="#191970" stroke="#191970" points="638.2734,-44.5001 628.2734,-48 638.2734,-51.5001 638.2734,-44.5001"/>
</g>
<!-- Node265&#45;&gt;Node258 -->
<g id="edge19" class="edge">
<title>Node265&#45;&gt;Node258</title>
<path fill="none" stroke="#191970" d="M772.0373,-62.9265C781.7949,-69.2717 792.5532,-77.2337 801,-86 852.0547,-138.9855 892.3972,-219.4304 905.4896,-247.1828"/>
<polygon fill="#191970" stroke="#191970" points="773.7908,-59.8953 763.4526,-57.5772 770.0888,-65.8363 773.7908,-59.8953"/>
</g>
<!-- Node267 -->
<g id="node19" class="node">
<title>Node267</title>
<g id="a_node19"><a xlink:href="structXCS.html#a911ed75c86abed7807d33eb1385240ed" target="_top" xlink:title="XCS::predict">
<polygon fill="none" stroke="#000000" points="709.5,-228.5 709.5,-247.5 782.5,-247.5 782.5,-228.5 709.5,-228.5"/>
<text text-anchor="middle" x="746" y="-235.5" font-family="Helvetica,sans-Serif" font-size="10.00" fill="#000000">XCS::predict</text>
</a>
</g>
</g>
<!-- Node266&#45;&gt;Node267 -->
<g id="edge21" class="edge">
<title>Node266&#45;&gt;Node267</title>
<path fill="none" stroke="#191970" d="M500.0147,-194.7733C503.7322,-196.4999 507.4621,-198.2681 511,-200 527.2492,-207.9543 529.6659,-213.8196 547,-219 601.8667,-235.3971 668.6755,-238.5503 709.2395,-238.7201"/>
<polygon fill="#191970" stroke="#191970" points="501.4661,-191.5885 490.9164,-190.6115 498.5543,-197.9541 501.4661,-191.5885"/>
</g>
<!-- Node267&#45;&gt;Node258 -->
<g id="edge22" class="edge">
<title>Node267&#45;&gt;Node258</title>
<path fill="none" stroke="#191970" d="M792.9088,-243.4346C806.5731,-245.0176 821.8398,-246.7863 836.7192,-248.5101"/>
<polygon fill="#191970" stroke="#191970" points="793.1412,-239.9382 782.8048,-242.264 792.3355,-246.8916 793.1412,-239.9382"/>
</g>
<!-- Node269 -->
<g id="node21" class="node">
<title>Node269</title>
<g id="a_node21"><a xlink:href="structXCS.html#aa77bc77484d6d14bf512304a23cfec88" target="_top" xlink:title="XCS::score">
<polygon fill="none" stroke="#000000" points="712,-266.5 712,-285.5 780,-285.5 780,-266.5 712,-266.5"/>
<text text-anchor="middle" x="746" y="-273.5" font-family="Helvetica,sans-Serif" font-size="10.00" fill="#000000">XCS::score</text>
</a>
</g>
</g>
<!-- Node268&#45;&gt;Node269 -->
<g id="edge24" class="edge">
<title>Node268&#45;&gt;Node269</title>
<path fill="none" stroke="#191970" d="M509.662,-231.3056C521.6264,-234.6989 534.7834,-238.2103 547,-241 604.4536,-254.1197 672.2015,-265.0931 711.9892,-271.0869"/>
<polygon fill="#191970" stroke="#191970" points="510.5175,-227.9098 499.9392,-228.5015 508.5776,-234.6356 510.5175,-227.9098"/>
</g>
<!-- Node269&#45;&gt;Node258 -->
<g id="edge25" class="edge">
<title>Node269&#45;&gt;Node258</title>
<path fill="none" stroke="#191970" d="M790.4237,-270.8533C804.7375,-269.1951 821.0002,-267.3109 836.82,-265.4782"/>
<polygon fill="#191970" stroke="#191970" points="789.9105,-267.3893 780.3798,-272.017 790.7162,-274.3428 789.9105,-267.3893"/>
</g>
<!-- Node270&#45;&gt;Node255 -->
<g id="edge27" class="edge">
<title>Node270&#45;&gt;Node255</title>
<path fill="none" stroke="#191970" d="M645.1166,-23.506C648.5598,-25.1612 651.8992,-26.9889 655,-29 674.5186,-41.6593 673.3345,-51.8618 691,-67 703.5142,-77.7239 719.0678,-88.2428 730.4386,-95.4845"/>
<polygon fill="#191970" stroke="#191970" points="646.4212,-20.2571 635.852,-19.52 643.6547,-26.6873 646.4212,-20.2571"/>
</g>
<!-- Node270&#45;&gt;Node265 -->
<g id="edge30" class="edge">
<title>Node270&#45;&gt;Node265</title>
<path fill="none" stroke="#191970" d="M647.5568,-22.2011C671.5215,-28.4815 699.8425,-35.9035 719.9409,-41.1707"/>
<polygon fill="#191970" stroke="#191970" points="648.1503,-18.7385 637.5896,-19.589 646.3757,-25.5098 648.1503,-18.7385"/>
</g>
<!-- Node271 -->
<g id="node23" class="node">
<title>Node271</title>
<g id="a_node23"><a xlink:href="structXCS.html#ab58a4fb495b05f3450b182bc21dcba1f" target="_top" xlink:title="XCS::single_reset">
<polygon fill="none" stroke="#000000" points="698,-.5 698,-19.5 794,-19.5 794,-.5 698,-.5"/>
<text text-anchor="middle" x="746" y="-7.5" font-family="Helvetica,sans-Serif" font-size="10.00" fill="#000000">XCS::single_reset</text>
</a>
</g>
</g>
<!-- Node270&#45;&gt;Node271 -->
<g id="edge28" class="edge">
<title>Node270&#45;&gt;Node271</title>
<path fill="none" stroke="#191970" d="M650.2381,-10C665.6517,-10 682.6344,-10 697.9641,-10"/>
<polygon fill="#191970" stroke="#191970" points="649.8574,-6.5001 639.8573,-10 649.8573,-13.5001 649.8574,-6.5001"/>
</g>
<!-- Node271&#45;&gt;Node258 -->
<g id="edge29" class="edge">
<title>Node271&#45;&gt;Node258</title>
<path fill="none" stroke="#191970" d="M794.8298,-24.3207C797.014,-25.7376 799.0876,-27.2929 801,-29 872.0262,-92.4007 900.9596,-212.1402 908.1268,-247.1519"/>
<polygon fill="#191970" stroke="#191970" points="796.4243,-21.2039 785.9651,-19.5137 793.0874,-27.3574 796.4243,-21.2039"/>
</g>
<!-- Node272&#45;&gt;Node253 -->
<g id="edge32" class="edge">
<title>Node272&#45;&gt;Node253</title>
<path fill="none" stroke="#191970" d="M240.4318,-173.6608C286.4693,-159.8313 386.0261,-129.925 437.2046,-114.5512"/>
<polygon fill="#191970" stroke="#191970" points="239.2662,-170.3564 230.6959,-176.5854 241.2801,-177.0604 239.2662,-170.3564"/>
</g>
<!-- Node272&#45;&gt;Node261 -->
<g id="edge37" class="edge">
<title>Node272&#45;&gt;Node261</title>
<path fill="none" stroke="#191970" d="M240.6189,-181C260.9151,-181 289.7091,-181 310.9042,-181"/>
<polygon fill="#191970" stroke="#191970" points="240.5928,-177.5001 230.5927,-181 240.5927,-184.5001 240.5928,-177.5001"/>
</g>
<!-- Node273 -->
<g id="node25" class="node">
<title>Node273</title>
<g id="a_node25"><a xlink:href="xcs__single__step_8h.html#a0ff6b521f66224d56ef0e6f50f5781b9" target="_top" xlink:title="Creates the action set, updates the classifiers and runs the EA. ">
<polygon fill="none" stroke="#000000" points="290,-266.5 290,-285.5 388,-285.5 388,-266.5 290,-266.5"/>
<text text-anchor="middle" x="339" y="-273.5" font-family="Helvetica,sans-Serif" font-size="10.00" fill="#000000">xcs_single_update</text>
</a>
</g>
</g>
<!-- Node272&#45;&gt;Node273 -->
<g id="edge33" class="edge">
<title>Node272&#45;&gt;Node273</title>
<path fill="none" stroke="#191970" d="M228.8441,-199.0316C241.8019,-216.0611 263.2456,-241.2715 287,-257 292.69,-260.7675 299.2236,-263.9067 305.6952,-266.4763"/>
<polygon fill="#191970" stroke="#191970" points="231.3156,-196.4868 222.5576,-190.5246 225.686,-200.647 231.3156,-196.4868"/>
</g>
<!-- Node273&#45;&gt;Node259 -->
<g id="edge36" class="edge">
<title>Node273&#45;&gt;Node259</title>
<path fill="none" stroke="#191970" d="M398.0696,-267.3667C407.6858,-265.9613 417.4765,-264.5304 426.5905,-263.1983"/>
<polygon fill="#191970" stroke="#191970" points="397.5361,-263.9074 388.1474,-268.8169 398.5485,-270.8339 397.5361,-263.9074"/>
</g>
<!-- Node274 -->
<g id="node26" class="node">
<title>Node274</title>
<g id="a_node26"><a xlink:href="structXCS.html#aedc01ad6f00a54b260a7605929a1d4c9" target="_top" xlink:title="XCS::single_update">
<polygon fill="none" stroke="#000000" points="549,-342.5 549,-361.5 653,-361.5 653,-342.5 549,-342.5"/>
<text text-anchor="middle" x="601" y="-349.5" font-family="Helvetica,sans-Serif" font-size="10.00" fill="#000000">XCS::single_update</text>
</a>
</g>
</g>
<!-- Node273&#45;&gt;Node274 -->
<g id="edge34" class="edge">
<title>Node273&#45;&gt;Node274</title>
<path fill="none" stroke="#191970" d="M359.7662,-291.5057C376.8971,-303.4736 402.3135,-319.3954 427,-328 466.4495,-341.7503 513.508,-347.6569 548.7334,-350.1771"/>
<polygon fill="#191970" stroke="#191970" points="361.7794,-288.6425 351.6108,-285.6675 357.7047,-294.3344 361.7794,-288.6425"/>
</g>
<!-- Node274&#45;&gt;Node258 -->
<g id="edge35" class="edge">
<title>Node274&#45;&gt;Node258</title>
<path fill="none" stroke="#191970" d="M663.3881,-354.15C703.7791,-353.6064 756.8735,-349.1973 801,-333 842.1474,-317.8962 882.2584,-283.3481 900.2057,-266.5381"/>
<polygon fill="#191970" stroke="#191970" points="663.1228,-350.6514 653.1433,-354.2093 663.1634,-357.6513 663.1228,-350.6514"/>
</g>
</g>
</svg>
