<?xml version="1.0" encoding="UTF-8" standalone="no"?>
<!DOCTYPE svg PUBLIC "-//W3C//DTD SVG 1.1//EN"
 "http://www.w3.org/Graphics/SVG/1.1/DTD/svg11.dtd">
<!-- Generated by graphviz version 2.40.1 (20161225.0304)
 -->
<!-- Title: cl_free Pages: 1 -->
<svg width="1175pt" height="377pt"
 viewBox="0.00 0.00 1175.00 377.25" xmlns="http://www.w3.org/2000/svg" xmlns:xlink="http://www.w3.org/1999/xlink">
<g id="graph0" class="graph" transform="scale(1 1) rotate(0) translate(4 373.2474)">
<title>cl_free</title>
<!-- Node180 -->
<g id="node1" class="node">
<title>Node180</title>
<polygon fill="#bfbfbf" stroke="#000000" points="0,-211.9918 0,-230.9918 46,-230.9918 46,-211.9918 0,-211.9918"/>
<text text-anchor="middle" x="23" y="-218.9918" font-family="Helvetica,sans-Serif" font-size="10.00" fill="#000000">cl_free</text>
</g>
<!-- Node181 -->
<g id="node2" class="node">
<title>Node181</title>
<g id="a_node2"><a xlink:href="$ea_8c.html#a14278fc032b7fb0c473e11764ab1c4d1" xlink:title="Adds offspring to the population. ">
<polygon fill="none" stroke="#000000" points="190,-249.9918 190,-268.9918 238,-268.9918 238,-249.9918 190,-249.9918"/>
<text text-anchor="middle" x="214" y="-256.9918" font-family="Helvetica,sans-Serif" font-size="10.00" fill="#000000">ea_add</text>
</a>
</g>
</g>
<!-- Node180&#45;&gt;Node181 -->
<g id="edge1" class="edge">
<title>Node180&#45;&gt;Node181</title>
<path fill="none" stroke="#191970" d="M55.5997,-233.0722C64.1134,-235.7971 73.334,-238.4878 82,-240.4918 119.22,-249.0988 163.2966,-254.5038 189.9293,-257.2589"/>
<polygon fill="#191970" stroke="#191970" points="56.5991,-229.7163 46.0058,-229.8966 54.3994,-236.3617 56.5991,-229.7163"/>
</g>
<!-- Node196 -->
<g id="node17" class="node">
<title>Node196</title>
<g id="a_node17"><a xlink:href="$ea_8c.html#afe1eb3a920dc0bbcd5f737b9cdda2170" xlink:title="Performs evolutionary algorithm subsumption. ">
<polygon fill="none" stroke="#000000" points="82,-211.9918 82,-230.9918 154,-230.9918 154,-211.9918 82,-211.9918"/>
<text text-anchor="middle" x="118" y="-218.9918" font-family="Helvetica,sans-Serif" font-size="10.00" fill="#000000">ea_subsume</text>
</a>
</g>
</g>
<!-- Node180&#45;&gt;Node196 -->
<g id="edge19" class="edge">
<title>Node180&#45;&gt;Node196</title>
<path fill="none" stroke="#191970" d="M56.7462,-221.4918C64.8798,-221.4918 73.6022,-221.4918 81.8411,-221.4918"/>
<polygon fill="#191970" stroke="#191970" points="56.4832,-217.9919 46.4832,-221.4918 56.4831,-224.9919 56.4832,-217.9919"/>
</g>
<!-- Node197 -->
<g id="node18" class="node">
<title>Node197</title>
<g id="a_node18"><a xlink:href="$cl__set_8h.html#a0b2479df1a61213f1f150907c62278bb" xlink:title="Frees the set and the classifiers. ">
<polygon fill="none" stroke="#000000" points="364.5,-173.9918 364.5,-192.9918 411.5,-192.9918 411.5,-173.9918 364.5,-173.9918"/>
<text text-anchor="middle" x="388" y="-180.9918" font-family="Helvetica,sans-Serif" font-size="10.00" fill="#000000">set_kill</text>
</a>
</g>
</g>
<!-- Node180&#45;&gt;Node197 -->
<g id="edge21" class="edge">
<title>Node180&#45;&gt;Node197</title>
<path fill="none" stroke="#191970" d="M55.7203,-209.3559C64.1739,-206.6647 73.336,-204.1291 82,-202.4918 185.8186,-182.8719 312.6138,-182.2548 364.335,-182.9673"/>
<polygon fill="#191970" stroke="#191970" points="54.5675,-206.0508 46.194,-212.5421 56.7878,-212.6894 54.5675,-206.0508"/>
</g>
<!-- Node182 -->
<g id="node3" class="node">
<title>Node182</title>
<g id="a_node3"><a xlink:href="$ea_8h.html#ae3824341a2f5482cb6ac70b3839ded51" xlink:title="Executes the evolutionary algorithm (EA). ">
<polygon fill="none" stroke="#000000" points="274,-249.9918 274,-268.9918 303,-268.9918 303,-249.9918 274,-249.9918"/>
<text text-anchor="middle" x="288.5" y="-256.9918" font-family="Helvetica,sans-Serif" font-size="10.00" fill="#000000">ea</text>
</a>
</g>
</g>
<!-- Node181&#45;&gt;Node182 -->
<g id="edge2" class="edge">
<title>Node181&#45;&gt;Node182</title>
<path fill="none" stroke="#191970" d="M248.613,-259.4918C257.5007,-259.4918 266.5897,-259.4918 273.8423,-259.4918"/>
<polygon fill="#191970" stroke="#191970" points="248.3941,-255.9919 238.3941,-259.4918 248.3941,-262.9919 248.3941,-255.9919"/>
</g>
<!-- Node183 -->
<g id="node4" class="node">
<title>Node183</title>
<g id="a_node4"><a xlink:href="$xcs__multi__step_8c.html#a1e1c2a3094be715b468dda79cd59ebf3" xlink:title="Executes a multi&#45;step trial using a built&#45;in environment. ">
<polygon fill="none" stroke="#000000" points="488,-249.9918 488,-268.9918 568,-268.9918 568,-249.9918 488,-249.9918"/>
<text text-anchor="middle" x="528" y="-256.9918" font-family="Helvetica,sans-Serif" font-size="10.00" fill="#000000">xcs_multi_trial</text>
</a>
</g>
</g>
<!-- Node182&#45;&gt;Node183 -->
<g id="edge3" class="edge">
<title>Node182&#45;&gt;Node183</title>
<path fill="none" stroke="#191970" d="M313.3769,-259.4918C354.7116,-259.4918 437.9078,-259.4918 487.7031,-259.4918"/>
<polygon fill="#191970" stroke="#191970" points="313.1213,-255.9919 303.1213,-259.4918 313.1212,-262.9919 313.1213,-255.9919"/>
</g>
<!-- Node186 -->
<g id="node7" class="node">
<title>Node186</title>
<g id="a_node7"><a xlink:href="$xcs__single__step_8h.html#aff4aec035e4573993a7906569f2028f5" xlink:title="Creates the action set, updates the classifiers and runs the EA. ">
<polygon fill="none" stroke="#000000" points="339,-287.9918 339,-306.9918 437,-306.9918 437,-287.9918 339,-287.9918"/>
<text text-anchor="middle" x="388" y="-294.9918" font-family="Helvetica,sans-Serif" font-size="10.00" fill="#000000">xcs_single_update</text>
</a>
</g>
</g>
<!-- Node182&#45;&gt;Node186 -->
<g id="edge6" class="edge">
<title>Node182&#45;&gt;Node186</title>
<path fill="none" stroke="#191970" d="M312.8929,-268.8076C328.0608,-274.6004 347.5207,-282.0323 362.8317,-287.8797"/>
<polygon fill="#191970" stroke="#191970" points="313.7722,-265.3969 303.1816,-265.0988 311.2747,-271.9363 313.7722,-265.3969"/>
</g>
<!-- Node191 -->
<g id="node12" class="node">
<title>Node191</title>
<g id="a_node12"><a xlink:href="$xcsf_8c.html#a474f4e13cfc5f00958c689cd8c81135a" xlink:title="Executes a single XCSF learning trial. ">
<polygon fill="none" stroke="#000000" points="486.5,-173.9918 486.5,-192.9918 569.5,-192.9918 569.5,-173.9918 486.5,-173.9918"/>
<text text-anchor="middle" x="528" y="-180.9918" font-family="Helvetica,sans-Serif" font-size="10.00" fill="#000000">xcsf_learn_trial</text>
</a>
</g>
</g>
<!-- Node182&#45;&gt;Node191 -->
<g id="edge12" class="edge">
<title>Node182&#45;&gt;Node191</title>
<path fill="none" stroke="#191970" d="M312.7095,-251.8094C356.7015,-237.8495 449.6441,-208.3563 497.7411,-193.0937"/>
<polygon fill="#191970" stroke="#191970" points="311.5942,-248.4912 303.1213,-254.852 313.7115,-255.1634 311.5942,-248.4912"/>
</g>
<!-- Node184 -->
<g id="node5" class="node">
<title>Node184</title>
<g id="a_node5"><a xlink:href="$xcs__multi__step_8h.html#acc29d4a55dbd56c16ea5f19f15a7c677" xlink:title="Executes a multi&#45;step reinforcement learning experiment. ">
<polygon fill="none" stroke="#000000" points="621,-249.9918 621,-268.9918 725,-268.9918 725,-249.9918 621,-249.9918"/>
<text text-anchor="middle" x="673" y="-256.9918" font-family="Helvetica,sans-Serif" font-size="10.00" fill="#000000">xcs_multi_step_exp</text>
</a>
</g>
</g>
<!-- Node183&#45;&gt;Node184 -->
<g id="edge4" class="edge">
<title>Node183&#45;&gt;Node184</title>
<path fill="none" stroke="#191970" d="M578.273,-259.4918C592.0508,-259.4918 607.0143,-259.4918 620.8925,-259.4918"/>
<polygon fill="#191970" stroke="#191970" points="578.0058,-255.9919 568.0057,-259.4918 578.0057,-262.9919 578.0058,-255.9919"/>
</g>
<!-- Node185 -->
<g id="node6" class="node">
<title>Node185</title>
<g id="a_node6"><a xlink:href="$main_8c.html#a3c04138a5bfe5d72780bb7e82a18e627" xlink:title="main">
<polygon fill="none" stroke="#000000" points="780.5,-249.9918 780.5,-268.9918 818.5,-268.9918 818.5,-249.9918 780.5,-249.9918"/>
<text text-anchor="middle" x="799.5" y="-256.9918" font-family="Helvetica,sans-Serif" font-size="10.00" fill="#000000">main</text>
</a>
</g>
</g>
<!-- Node184&#45;&gt;Node185 -->
<g id="edge5" class="edge">
<title>Node184&#45;&gt;Node185</title>
<path fill="none" stroke="#191970" d="M735.3081,-259.4918C751.6501,-259.4918 768.076,-259.4918 780.2207,-259.4918"/>
<polygon fill="#191970" stroke="#191970" points="735.1828,-255.9919 725.1827,-259.4918 735.1827,-262.9919 735.1828,-255.9919"/>
</g>
<!-- Node187 -->
<g id="node8" class="node">
<title>Node187</title>
<g id="a_node8"><a xlink:href="$structXCS.html#aedc01ad6f00a54b260a7605929a1d4c9" xlink:title="XCS::single_update">
<polygon fill="none" stroke="#000000" points="876.5,-334.9918 876.5,-353.9918 980.5,-353.9918 980.5,-334.9918 876.5,-334.9918"/>
<text text-anchor="middle" x="928.5" y="-341.9918" font-family="Helvetica,sans-Serif" font-size="10.00" fill="#000000">XCS::single_update</text>
</a>
</g>
</g>
<!-- Node186&#45;&gt;Node187 -->
<g id="edge7" class="edge">
<title>Node186&#45;&gt;Node187</title>
<path fill="none" stroke="#191970" d="M409.7477,-312.6065C426.2887,-323.2472 450.0431,-336.7504 473,-343.4918 613.9401,-384.879 790.1612,-366.7327 876.2631,-353.6569"/>
<polygon fill="#191970" stroke="#191970" points="411.6223,-309.6501 401.3513,-307.0506 407.7595,-315.4878 411.6223,-309.6501"/>
</g>
<!-- Node189 -->
<g id="node10" class="node">
<title>Node189</title>
<g id="a_node10"><a xlink:href="$xcs__single__step_8c.html#a3d1fd2472d35310800aed897219a65af" xlink:title="Executes a single&#45;step trial using a built&#45;in environment. ">
<polygon fill="none" stroke="#000000" points="486,-287.9918 486,-306.9918 570,-306.9918 570,-287.9918 486,-287.9918"/>
<text text-anchor="middle" x="528" y="-294.9918" font-family="Helvetica,sans-Serif" font-size="10.00" fill="#000000">xcs_single_trial</text>
</a>
</g>
</g>
<!-- Node186&#45;&gt;Node189 -->
<g id="edge9" class="edge">
<title>Node186&#45;&gt;Node189</title>
<path fill="none" stroke="#191970" d="M447.4928,-297.4918C460.2995,-297.4918 473.5863,-297.4918 485.5857,-297.4918"/>
<polygon fill="#191970" stroke="#191970" points="447.3588,-293.9919 437.3588,-297.4918 447.3587,-300.9919 447.3588,-293.9919"/>
</g>
<!-- Node188 -->
<g id="node9" class="node">
<title>Node188</title>
<g id="a_node9"><a xlink:href="$python__wrapper_8cpp.html#afbdcc1358036a0b83a6b239da2b098a2" xlink:title="BOOST_PYTHON_MODULE">
<polygon fill="none" stroke="#000000" points="1021,-135.9918 1021,-154.9918 1167,-154.9918 1167,-135.9918 1021,-135.9918"/>
<text text-anchor="middle" x="1094" y="-142.9918" font-family="Helvetica,sans-Serif" font-size="10.00" fill="#000000">BOOST_PYTHON_MODULE</text>
</a>
</g>
</g>
<!-- Node187&#45;&gt;Node188 -->
<g id="edge8" class="edge">
<title>Node187&#45;&gt;Node188</title>
<path fill="none" stroke="#191970" d="M947.9944,-328.1799C959.299,-318.3318 973.5228,-305.2538 985,-292.4918 1028.34,-244.3001 1071.8229,-179.5675 1087.6997,-155.2582"/>
<polygon fill="#191970" stroke="#191970" points="945.6708,-325.5618 940.3598,-334.7294 950.2285,-330.8747 945.6708,-325.5618"/>
</g>
<!-- Node190 -->
<g id="node11" class="node">
<title>Node190</title>
<g id="a_node11"><a xlink:href="$xcs__single__step_8h.html#a39a031bf59eaa9b33e30e614610dcda8" xlink:title="Executes a single&#45;step experiment. ">
<polygon fill="none" stroke="#000000" points="619,-287.9918 619,-306.9918 727,-306.9918 727,-287.9918 619,-287.9918"/>
<text text-anchor="middle" x="673" y="-294.9918" font-family="Helvetica,sans-Serif" font-size="10.00" fill="#000000">xcs_single_step_exp</text>
</a>
</g>
</g>
<!-- Node189&#45;&gt;Node190 -->
<g id="edge10" class="edge">
<title>Node189&#45;&gt;Node190</title>
<path fill="none" stroke="#191970" d="M580.5872,-297.4918C593.081,-297.4918 606.4301,-297.4918 618.9864,-297.4918"/>
<polygon fill="#191970" stroke="#191970" points="580.3298,-293.9919 570.3298,-297.4918 580.3298,-300.9919 580.3298,-293.9919"/>
</g>
<!-- Node190&#45;&gt;Node185 -->
<g id="edge11" class="edge">
<title>Node190&#45;&gt;Node185</title>
<path fill="none" stroke="#191970" d="M714.7404,-284.9531C736.8185,-278.321 762.8657,-270.4965 780.2014,-265.289"/>
<polygon fill="#191970" stroke="#191970" points="713.4916,-281.6737 704.9213,-287.9028 715.5055,-288.3778 713.4916,-281.6737"/>
</g>
<!-- Node192 -->
<g id="node13" class="node">
<title>Node192</title>
<g id="a_node13"><a xlink:href="$xcsf_8h.html#a0b4de57cb9dadc9deca7901aa36e5025" xlink:title="Executes MAX_TRIALS number of XCSF learning iterations using the training. data and test iterations u...">
<polygon fill="none" stroke="#000000" points="646,-173.9918 646,-192.9918 700,-192.9918 700,-173.9918 646,-173.9918"/>
<text text-anchor="middle" x="673" y="-180.9918" font-family="Helvetica,sans-Serif" font-size="10.00" fill="#000000">xcsf_fit2</text>
</a>
</g>
</g>
<!-- Node191&#45;&gt;Node192 -->
<g id="edge13" class="edge">
<title>Node191&#45;&gt;Node192</title>
<path fill="none" stroke="#191970" d="M579.5591,-183.4918C601.8578,-183.4918 627.0475,-183.4918 645.6494,-183.4918"/>
<polygon fill="#191970" stroke="#191970" points="579.5512,-179.9919 569.5512,-183.4918 579.5511,-186.9919 579.5512,-179.9919"/>
</g>
<!-- Node192&#45;&gt;Node185 -->
<g id="edge14" class="edge">
<title>Node192&#45;&gt;Node185</title>
<path fill="none" stroke="#191970" d="M708.3851,-197.2347C714.776,-200.2657 721.2347,-203.7138 727,-207.4918 745.1545,-219.3882 745.2213,-228.0407 763,-240.4918 768.3835,-244.262 774.6116,-247.7762 780.382,-250.7315"/>
<polygon fill="#191970" stroke="#191970" points="709.7158,-193.9957 699.1587,-193.1023 706.8545,-200.3842 709.7158,-193.9957"/>
</g>
<!-- Node193 -->
<g id="node14" class="node">
<title>Node193</title>
<g id="a_node14"><a xlink:href="$structXCS.html#a7d53320740db8e846251bacd0238a9fb" xlink:title="XCS::fit">
<polygon fill="none" stroke="#000000" points="773.5,-211.9918 773.5,-230.9918 825.5,-230.9918 825.5,-211.9918 773.5,-211.9918"/>
<text text-anchor="middle" x="799.5" y="-218.9918" font-family="Helvetica,sans-Serif" font-size="10.00" fill="#000000">XCS::fit</text>
</a>
</g>
</g>
<!-- Node192&#45;&gt;Node193 -->
<g id="edge15" class="edge">
<title>Node192&#45;&gt;Node193</title>
<path fill="none" stroke="#191970" d="M709.7193,-194.5221C730.0677,-200.6346 754.8904,-208.0912 773.2735,-213.6134"/>
<polygon fill="#191970" stroke="#191970" points="710.7216,-191.1687 700.1374,-191.6437 708.7077,-197.8728 710.7216,-191.1687"/>
</g>
<!-- Node194 -->
<g id="node15" class="node">
<title>Node194</title>
<g id="a_node15"><a xlink:href="$xcsf_8h.html#a874829f28fee20f9ad15b540f4b4d6ff" xlink:title="Executes MAX_TRIALS number of XCSF learning iterations using the training data. ">
<polygon fill="none" stroke="#000000" points="772.5,-173.9918 772.5,-192.9918 826.5,-192.9918 826.5,-173.9918 772.5,-173.9918"/>
<text text-anchor="middle" x="799.5" y="-180.9918" font-family="Helvetica,sans-Serif" font-size="10.00" fill="#000000">xcsf_fit1</text>
</a>
</g>
</g>
<!-- Node192&#45;&gt;Node194 -->
<g id="edge16" class="edge">
<title>Node192&#45;&gt;Node194</title>
<path fill="none" stroke="#191970" d="M710.4082,-183.4918C730.3063,-183.4918 754.3252,-183.4918 772.4075,-183.4918"/>
<polygon fill="#191970" stroke="#191970" points="710.1375,-179.9919 700.1374,-183.4918 710.1374,-186.9919 710.1375,-179.9919"/>
</g>
<!-- Node195 -->
<g id="node16" class="node">
<title>Node195</title>
<g id="a_node16"><a xlink:href="$structXCS.html#ad2ccafe59d2b4ae6d0e1cbc15edee53c" xlink:title="XCS::fit">
<polygon fill="none" stroke="#000000" points="902.5,-173.9918 902.5,-192.9918 954.5,-192.9918 954.5,-173.9918 902.5,-173.9918"/>
<text text-anchor="middle" x="928.5" y="-180.9918" font-family="Helvetica,sans-Serif" font-size="10.00" fill="#000000">XCS::fit</text>
</a>
</g>
</g>
<!-- Node194&#45;&gt;Node195 -->
<g id="edge17" class="edge">
<title>Node194&#45;&gt;Node195</title>
<path fill="none" stroke="#191970" d="M836.7344,-183.4918C857.753,-183.4918 883.5058,-183.4918 902.3743,-183.4918"/>
<polygon fill="#191970" stroke="#191970" points="836.5427,-179.9919 826.5426,-183.4918 836.5426,-186.9919 836.5427,-179.9919"/>
</g>
<!-- Node195&#45;&gt;Node188 -->
<g id="edge18" class="edge">
<title>Node195&#45;&gt;Node188</title>
<path fill="none" stroke="#191970" d="M964.5117,-175.2232C990.3942,-169.2804 1025.3539,-161.2534 1052.4243,-155.0378"/>
<polygon fill="#191970" stroke="#191970" points="963.6871,-171.8214 954.724,-177.4705 965.2536,-178.6439 963.6871,-171.8214"/>
</g>
<!-- Node196&#45;&gt;Node181 -->
<g id="edge20" class="edge">
<title>Node196&#45;&gt;Node181</title>
<path fill="none" stroke="#191970" d="M151.8816,-234.9032C164.3892,-239.8542 178.3009,-245.3608 189.7829,-249.9058"/>
<polygon fill="#191970" stroke="#191970" points="152.8111,-231.507 142.2249,-231.0808 150.2347,-238.0156 152.8111,-231.507"/>
</g>
<!-- Node197&#45;&gt;Node183 -->
<g id="edge25" class="edge">
<title>Node197&#45;&gt;Node183</title>
<path fill="none" stroke="#191970" d="M410.9848,-198.744C427.8099,-209.612 451.3814,-224.2303 473,-235.4918 482.9788,-240.6899 494.3268,-245.7736 504.1128,-249.9142"/>
<polygon fill="#191970" stroke="#191970" points="412.675,-195.6678 402.3868,-193.1371 408.8514,-201.5312 412.675,-195.6678"/>
</g>
<!-- Node197&#45;&gt;Node185 -->
<g id="edge22" class="edge">
<title>Node197&#45;&gt;Node185</title>
<path fill="none" stroke="#191970" d="M421.905,-191.6533C437.4263,-195.2392 456.0907,-199.3412 473,-202.4918 585.2141,-223.3997 615.1849,-217.5456 727,-240.4918 745.2271,-244.2322 765.7131,-249.7224 780.247,-253.8404"/>
<polygon fill="#191970" stroke="#191970" points="422.2562,-188.141 411.7218,-189.2712 420.6617,-194.957 422.2562,-188.141"/>
</g>
<!-- Node197&#45;&gt;Node189 -->
<g id="edge26" class="edge">
<title>Node197&#45;&gt;Node189</title>
<path fill="none" stroke="#191970" d="M399.7611,-201.4507C414.5106,-222.6596 441.695,-257.678 473,-278.4918 478.7206,-282.2952 485.2827,-285.4186 491.8357,-287.955"/>
<polygon fill="#191970" stroke="#191970" points="402.5642,-199.348 394.057,-193.033 396.7694,-203.2748 402.5642,-199.348"/>
</g>
<!-- Node197&#45;&gt;Node191 -->
<g id="edge27" class="edge">
<title>Node197&#45;&gt;Node191</title>
<path fill="none" stroke="#191970" d="M421.9287,-183.4918C441.2928,-183.4918 465.7243,-183.4918 486.2576,-183.4918"/>
<polygon fill="#191970" stroke="#191970" points="421.7491,-179.9919 411.7491,-183.4918 421.7491,-186.9919 421.7491,-179.9919"/>
</g>
<!-- Node198 -->
<g id="node19" class="node">
<title>Node198</title>
<g id="a_node19"><a xlink:href="$structXCS.html#ab58a4fb495b05f3450b182bc21dcba1f" xlink:title="XCS::single_reset">
<polygon fill="none" stroke="#000000" points="880.5,-21.9918 880.5,-40.9918 976.5,-40.9918 976.5,-21.9918 880.5,-21.9918"/>
<text text-anchor="middle" x="928.5" y="-28.9918" font-family="Helvetica,sans-Serif" font-size="10.00" fill="#000000">XCS::single_reset</text>
</a>
</g>
</g>
<!-- Node197&#45;&gt;Node198 -->
<g id="edge23" class="edge">
<title>Node197&#45;&gt;Node198</title>
<path fill="none" stroke="#191970" d="M393.9552,-163.9914C404.4058,-133.5648 429.2056,-75.6777 473,-50.4918 608.851,27.6355 807.0401,-3.7244 889.8713,-21.9447"/>
<polygon fill="#191970" stroke="#191970" points="390.5142,-163.255 390.7456,-173.8473 397.1701,-165.4225 390.5142,-163.255"/>
</g>
<!-- Node199 -->
<g id="node20" class="node">
<title>Node199</title>
<g id="a_node20"><a xlink:href="$xcsf_8c.html#aa6edd3962ddd04940e2c78a4f99de7cd" xlink:title="Executes a single XCSF testing trial. ">
<polygon fill="none" stroke="#000000" points="489,-135.9918 489,-154.9918 567,-154.9918 567,-135.9918 489,-135.9918"/>
<text text-anchor="middle" x="528" y="-142.9918" font-family="Helvetica,sans-Serif" font-size="10.00" fill="#000000">xcsf_test_trial</text>
</a>
</g>
</g>
<!-- Node197&#45;&gt;Node199 -->
<g id="edge28" class="edge">
<title>Node197&#45;&gt;Node199</title>
<path fill="none" stroke="#191970" d="M421.4506,-174.4123C442.9907,-168.5657 470.9482,-160.9772 492.8203,-155.0405"/>
<polygon fill="#191970" stroke="#191970" points="420.4831,-171.0482 411.7491,-177.0456 422.3168,-177.8038 420.4831,-171.0482"/>
</g>
<!-- Node202 -->
<g id="node23" class="node">
<title>Node202</title>
<g id="a_node23"><a xlink:href="$xcsf_8h.html#af0b9db7273578fdff649d46823cd9790" xlink:title="Calculates the XCSF predictions for the provided input. ">
<polygon fill="none" stroke="#000000" points="493,-97.9918 493,-116.9918 563,-116.9918 563,-97.9918 493,-97.9918"/>
<text text-anchor="middle" x="528" y="-104.9918" font-family="Helvetica,sans-Serif" font-size="10.00" fill="#000000">xcsf_predict</text>
</a>
</g>
</g>
<!-- Node197&#45;&gt;Node202 -->
<g id="edge33" class="edge">
<title>Node197&#45;&gt;Node202</title>
<path fill="none" stroke="#191970" d="M408.4524,-167.5708C425.1226,-155.15 449.6455,-138.1112 473,-126.4918 480.1453,-122.9368 488.1183,-119.7665 495.7277,-117.0821"/>
<polygon fill="#191970" stroke="#191970" points="405.9132,-165.1036 400.0564,-173.9324 410.1406,-170.6829 405.9132,-165.1036"/>
</g>
<!-- Node204 -->
<g id="node25" class="node">
<title>Node204</title>
<g id="a_node25"><a xlink:href="$xcsf_8h.html#ae1f6851f682e015601030a5c725c6618" xlink:title="Prints the XCSF match set for the supplied input. ">
<polygon fill="none" stroke="#000000" points="473,-59.9918 473,-78.9918 583,-78.9918 583,-59.9918 473,-59.9918"/>
<text text-anchor="middle" x="528" y="-66.9918" font-family="Helvetica,sans-Serif" font-size="10.00" fill="#000000">xcsf_print_match_set</text>
</a>
</g>
</g>
<!-- Node197&#45;&gt;Node204 -->
<g id="edge36" class="edge">
<title>Node197&#45;&gt;Node204</title>
<path fill="none" stroke="#191970" d="M399.7611,-165.5329C414.5106,-144.3239 441.695,-109.3055 473,-88.4918 478.7206,-84.6883 485.2827,-81.5649 491.8357,-79.0285"/>
<polygon fill="#191970" stroke="#191970" points="396.7694,-163.7087 394.057,-173.9505 402.5642,-167.6355 396.7694,-163.7087"/>
</g>
<!-- Node206 -->
<g id="node27" class="node">
<title>Node206</title>
<g id="a_node27"><a xlink:href="$xcsf_8h.html#a70e6ae30c7d4e471009c4611255ed873" xlink:title="Reads the state of XCSF from a binary file. ">
<polygon fill="none" stroke="#000000" points="643.5,-325.9918 643.5,-344.9918 702.5,-344.9918 702.5,-325.9918 643.5,-325.9918"/>
<text text-anchor="middle" x="673" y="-332.9918" font-family="Helvetica,sans-Serif" font-size="10.00" fill="#000000">xcsf_load</text>
</a>
</g>
</g>
<!-- Node197&#45;&gt;Node206 -->
<g id="edge39" class="edge">
<title>Node197&#45;&gt;Node206</title>
<path fill="none" stroke="#191970" d="M397.522,-202.5828C414.605,-236.0122 450.7483,-302.8975 473,-316.4918 525.9792,-348.8585 601.9761,-345.401 643.3684,-340.2893"/>
<polygon fill="#191970" stroke="#191970" points="400.504,-200.7236 392.8687,-193.3783 394.2569,-203.8818 400.504,-200.7236"/>
</g>
<!-- Node198&#45;&gt;Node188 -->
<g id="edge24" class="edge">
<title>Node198&#45;&gt;Node188</title>
<path fill="none" stroke="#191970" d="M973.4756,-44.7834C977.4645,-46.5061 981.3641,-48.4069 985,-50.4918 1027.2459,-74.7161 1068.0594,-116.782 1085.3504,-135.7368"/>
<polygon fill="#191970" stroke="#191970" points="974.6754,-41.4943 964.0885,-41.0841 972.1088,-48.0068 974.6754,-41.4943"/>
</g>
<!-- Node199&#45;&gt;Node192 -->
<g id="edge29" class="edge">
<title>Node199&#45;&gt;Node192</title>
<path fill="none" stroke="#191970" d="M574.3555,-157.6401C597.8263,-163.7911 625.5181,-171.0482 645.5775,-176.3052"/>
<polygon fill="#191970" stroke="#191970" points="575.1503,-154.2302 564.5896,-155.0808 573.3757,-161.0016 575.1503,-154.2302"/>
</g>
<!-- Node200 -->
<g id="node21" class="node">
<title>Node200</title>
<g id="a_node21"><a xlink:href="$xcsf_8h.html#a2cf95733e5f97410d94211b72e835847" xlink:title="Calculates the XCSF error for the input data. ">
<polygon fill="none" stroke="#000000" points="640.5,-135.9918 640.5,-154.9918 705.5,-154.9918 705.5,-135.9918 640.5,-135.9918"/>
<text text-anchor="middle" x="673" y="-142.9918" font-family="Helvetica,sans-Serif" font-size="10.00" fill="#000000">xcsf_score</text>
</a>
</g>
</g>
<!-- Node199&#45;&gt;Node200 -->
<g id="edge30" class="edge">
<title>Node199&#45;&gt;Node200</title>
<path fill="none" stroke="#191970" d="M577.4448,-145.4918C598.1263,-145.4918 621.6017,-145.4918 640.1086,-145.4918"/>
<polygon fill="#191970" stroke="#191970" points="577.2391,-141.9919 567.2391,-145.4918 577.2391,-148.9919 577.2391,-141.9919"/>
</g>
<!-- Node201 -->
<g id="node22" class="node">
<title>Node201</title>
<g id="a_node22"><a xlink:href="$structXCS.html#aa77bc77484d6d14bf512304a23cfec88" xlink:title="XCS::score">
<polygon fill="none" stroke="#000000" points="894.5,-135.9918 894.5,-154.9918 962.5,-154.9918 962.5,-135.9918 894.5,-135.9918"/>
<text text-anchor="middle" x="928.5" y="-142.9918" font-family="Helvetica,sans-Serif" font-size="10.00" fill="#000000">XCS::score</text>
</a>
</g>
</g>
<!-- Node200&#45;&gt;Node201 -->
<g id="edge31" class="edge">
<title>Node200&#45;&gt;Node201</title>
<path fill="none" stroke="#191970" d="M715.8292,-145.4918C766.0716,-145.4918 848.3462,-145.4918 894.4493,-145.4918"/>
<polygon fill="#191970" stroke="#191970" points="715.6188,-141.9919 705.6188,-145.4918 715.6187,-148.9919 715.6188,-141.9919"/>
</g>
<!-- Node201&#45;&gt;Node188 -->
<g id="edge32" class="edge">
<title>Node201&#45;&gt;Node188</title>
<path fill="none" stroke="#191970" d="M973.1037,-145.4918C987.8156,-145.4918 1004.5869,-145.4918 1020.856,-145.4918"/>
<polygon fill="#191970" stroke="#191970" points="972.7917,-141.9919 962.7917,-145.4918 972.7917,-148.9919 972.7917,-141.9919"/>
</g>
<!-- Node203 -->
<g id="node24" class="node">
<title>Node203</title>
<g id="a_node24"><a xlink:href="$structXCS.html#a911ed75c86abed7807d33eb1385240ed" xlink:title="XCS::predict">
<polygon fill="none" stroke="#000000" points="763,-97.9918 763,-116.9918 836,-116.9918 836,-97.9918 763,-97.9918"/>
<text text-anchor="middle" x="799.5" y="-104.9918" font-family="Helvetica,sans-Serif" font-size="10.00" fill="#000000">XCS::predict</text>
</a>
</g>
</g>
<!-- Node202&#45;&gt;Node203 -->
<g id="edge34" class="edge">
<title>Node202&#45;&gt;Node203</title>
<path fill="none" stroke="#191970" d="M573.3671,-107.4918C626.4869,-107.4918 713.4452,-107.4918 762.61,-107.4918"/>
<polygon fill="#191970" stroke="#191970" points="573.2156,-103.9919 563.2155,-107.4918 573.2155,-110.9919 573.2156,-103.9919"/>
</g>
<!-- Node203&#45;&gt;Node188 -->
<g id="edge35" class="edge">
<title>Node203&#45;&gt;Node188</title>
<path fill="none" stroke="#191970" d="M846.3368,-111.3689C883.9081,-114.7005 937.9531,-119.9902 985,-126.4918 1004.2184,-129.1476 1025.2387,-132.6653 1043.6476,-135.9513"/>
<polygon fill="#191970" stroke="#191970" points="846.4631,-107.8667 836.1961,-110.4818 845.853,-114.8401 846.4631,-107.8667"/>
</g>
<!-- Node205 -->
<g id="node26" class="node">
<title>Node205</title>
<g id="a_node26"><a xlink:href="$structXCS.html#aa5608b379fae01b724267a99068d55bb" xlink:title="XCS::print_match_set">
<polygon fill="none" stroke="#000000" points="872,-59.9918 872,-78.9918 985,-78.9918 985,-59.9918 872,-59.9918"/>
<text text-anchor="middle" x="928.5" y="-66.9918" font-family="Helvetica,sans-Serif" font-size="10.00" fill="#000000">XCS::print_match_set</text>
</a>
</g>
</g>
<!-- Node204&#45;&gt;Node205 -->
<g id="edge37" class="edge">
<title>Node204&#45;&gt;Node205</title>
<path fill="none" stroke="#191970" d="M593.3823,-69.4918C670.8048,-69.4918 798.4815,-69.4918 871.8633,-69.4918"/>
<polygon fill="#191970" stroke="#191970" points="593.2674,-65.9919 583.2673,-69.4918 593.2673,-72.9919 593.2674,-65.9919"/>
</g>
<!-- Node205&#45;&gt;Node188 -->
<g id="edge38" class="edge">
<title>Node205&#45;&gt;Node188</title>
<path fill="none" stroke="#191970" d="M960.9854,-83.0056C968.8736,-86.3657 977.2635,-90.0052 985,-93.4918 1016.5402,-107.7058 1052.7039,-125.1989 1074.4287,-135.8394"/>
<polygon fill="#191970" stroke="#191970" points="962.2633,-79.746 951.6897,-79.0749 959.537,-86.1933 962.2633,-79.746"/>
</g>
<!-- Node206&#45;&gt;Node185 -->
<g id="edge40" class="edge">
<title>Node206&#45;&gt;Node185</title>
<path fill="none" stroke="#191970" d="M712.3013,-323.3832C717.3607,-321.3293 722.3819,-319.0284 727,-316.4918 751.4181,-303.0791 776.136,-281.5667 789.4657,-269.1615"/>
<polygon fill="#191970" stroke="#191970" points="710.7476,-320.2282 702.6209,-327.0258 713.2129,-326.7798 710.7476,-320.2282"/>
</g>
<!-- Node207 -->
<g id="node28" class="node">
<title>Node207</title>
<g id="a_node28"><a xlink:href="$structXCS.html#adc9b621f2b7a306fbf381dd0efaf268b" xlink:title="XCS::load">
<polygon fill="none" stroke="#000000" points="768.5,-306.9918 768.5,-325.9918 830.5,-325.9918 830.5,-306.9918 768.5,-306.9918"/>
<text text-anchor="middle" x="799.5" y="-313.9918" font-family="Helvetica,sans-Serif" font-size="10.00" fill="#000000">XCS::load</text>
</a>
</g>
</g>
<!-- Node206&#45;&gt;Node207 -->
<g id="edge41" class="edge">
<title>Node206&#45;&gt;Node207</title>
<path fill="none" stroke="#191970" d="M712.5551,-329.5507C730.5074,-326.8543 751.4368,-323.7107 768.262,-321.1836"/>
<polygon fill="#191970" stroke="#191970" points="712.0278,-326.0905 702.6586,-331.0371 713.0676,-333.0129 712.0278,-326.0905"/>
</g>
<!-- Node207&#45;&gt;Node188 -->
<g id="edge42" class="edge">
<title>Node207&#45;&gt;Node188</title>
<path fill="none" stroke="#191970" d="M824.867,-301.7626C883.776,-267.5573 1028.5403,-183.5006 1077.5055,-155.0692"/>
<polygon fill="#191970" stroke="#191970" points="823.0678,-298.7599 816.1774,-306.8081 826.5828,-304.8135 823.0678,-298.7599"/>
</g>
</g>
</svg>
