<?xml version="1.0" encoding="UTF-8" standalone="no"?>
<!DOCTYPE svg PUBLIC "-//W3C//DTD SVG 1.1//EN"
 "http://www.w3.org/Graphics/SVG/1.1/DTD/svg11.dtd">
<!-- Generated by graphviz version 2.40.1 (20161225.0304)
 -->
<!-- Title: cl_update Pages: 1 -->
<svg width="895pt" height="199pt"
 viewBox="0.00 0.00 895.00 199.00" xmlns="http://www.w3.org/2000/svg" xmlns:xlink="http://www.w3.org/1999/xlink">
<g id="graph0" class="graph" transform="scale(1 1) rotate(0) translate(4 195)">
<title>cl_update</title>
<!-- Node497 -->
<g id="node1" class="node">
<title>Node497</title>
<polygon fill="#bfbfbf" stroke="#000000" points="0,-57.5 0,-76.5 59,-76.5 59,-57.5 0,-57.5"/>
<text text-anchor="middle" x="29.5" y="-64.5" font-family="Helvetica,sans-Serif" font-size="10.00" fill="#000000">cl_update</text>
</g>
<!-- Node498 -->
<g id="node2" class="node">
<title>Node498</title>
<g id="a_node2"><a xlink:href="clset_8h.html#a75a41281822e032413356a4b7b353559" target="_top" xlink:title="Provides reinforcement to the set and performs set subsumption. ">
<polygon fill="none" stroke="#000000" points="95,-57.5 95,-76.5 167,-76.5 167,-57.5 95,-57.5"/>
<text text-anchor="middle" x="131" y="-64.5" font-family="Helvetica,sans-Serif" font-size="10.00" fill="#000000">clset_update</text>
</a>
</g>
</g>
<!-- Node497&#45;&gt;Node498 -->
<g id="edge1" class="edge">
<title>Node497&#45;&gt;Node498</title>
<path fill="none" stroke="#191970" d="M69.3956,-67C77.7292,-67 86.4725,-67 94.6686,-67"/>
<polygon fill="#191970" stroke="#191970" points="69.1309,-63.5001 59.1309,-67 69.1308,-70.5001 69.1309,-63.5001"/>
</g>
<!-- Node499 -->
<g id="node3" class="node">
<title>Node499</title>
<g id="a_node3"><a xlink:href="xcs__multi__step_8c.html#a1e1c2a3094be715b468dda79cd59ebf3" target="_top" xlink:title="Executes a multi&#45;step trial using a built&#45;in environment. ">
<polygon fill="none" stroke="#000000" points="212,-57.5 212,-76.5 292,-76.5 292,-57.5 212,-57.5"/>
<text text-anchor="middle" x="252" y="-64.5" font-family="Helvetica,sans-Serif" font-size="10.00" fill="#000000">xcs_multi_trial</text>
</a>
</g>
</g>
<!-- Node498&#45;&gt;Node499 -->
<g id="edge2" class="edge">
<title>Node498&#45;&gt;Node499</title>
<path fill="none" stroke="#191970" d="M177.4857,-67C188.8396,-67 200.8903,-67 211.9162,-67"/>
<polygon fill="#191970" stroke="#191970" points="177.304,-63.5001 167.304,-67 177.304,-70.5001 177.304,-63.5001"/>
</g>
<!-- Node502 -->
<g id="node6" class="node">
<title>Node502</title>
<g id="a_node6"><a xlink:href="xcs__single__step_8h.html#ae0fc4c261bd470fbd11276afc045f29b" target="_top" xlink:title="Creates the action set, updates the classifiers and runs the EA. ">
<polygon fill="none" stroke="#000000" points="203,-19.5 203,-38.5 301,-38.5 301,-19.5 203,-19.5"/>
<text text-anchor="middle" x="252" y="-26.5" font-family="Helvetica,sans-Serif" font-size="10.00" fill="#000000">xcs_single_update</text>
</a>
</g>
</g>
<!-- Node498&#45;&gt;Node502 -->
<g id="edge5" class="edge">
<title>Node498&#45;&gt;Node502</title>
<path fill="none" stroke="#191970" d="M171.3771,-54.3196C187.7262,-49.1852 206.2878,-43.3559 221.4764,-38.5859"/>
<polygon fill="#191970" stroke="#191970" points="170.0253,-51.0755 161.5334,-57.411 172.1227,-57.7539 170.0253,-51.0755"/>
</g>
<!-- Node507 -->
<g id="node11" class="node">
<title>Node507</title>
<g id="a_node11"><a xlink:href="xcsf_8c.html#a2a65c7cb7cfe8e680b609ce8c4e36d56" target="_top" xlink:title="Executes a single XCSF learning trial. ">
<polygon fill="none" stroke="#000000" points="210.5,-114.5 210.5,-133.5 293.5,-133.5 293.5,-114.5 210.5,-114.5"/>
<text text-anchor="middle" x="252" y="-121.5" font-family="Helvetica,sans-Serif" font-size="10.00" fill="#000000">xcsf_learn_trial</text>
</a>
</g>
</g>
<!-- Node498&#45;&gt;Node507 -->
<g id="edge11" class="edge">
<title>Node498&#45;&gt;Node507</title>
<path fill="none" stroke="#191970" d="M160.5008,-80.8971C182.5782,-91.2972 212.2016,-105.252 231.6812,-114.4284"/>
<polygon fill="#191970" stroke="#191970" points="161.7908,-77.6359 151.2527,-76.5405 158.8076,-83.9684 161.7908,-77.6359"/>
</g>
<!-- Node500 -->
<g id="node4" class="node">
<title>Node500</title>
<g id="a_node4"><a xlink:href="xcs__multi__step_8h.html#acc29d4a55dbd56c16ea5f19f15a7c677" target="_top" xlink:title="Executes a multi&#45;step reinforcement learning experiment. ">
<polygon fill="none" stroke="#000000" points="459,-57.5 459,-76.5 563,-76.5 563,-57.5 459,-57.5"/>
<text text-anchor="middle" x="511" y="-64.5" font-family="Helvetica,sans-Serif" font-size="10.00" fill="#000000">xcs_multi_step_exp</text>
</a>
</g>
</g>
<!-- Node499&#45;&gt;Node500 -->
<g id="edge3" class="edge">
<title>Node499&#45;&gt;Node500</title>
<path fill="none" stroke="#191970" d="M302.3033,-67C347.2998,-67 413.0047,-67 458.6234,-67"/>
<polygon fill="#191970" stroke="#191970" points="302.1846,-63.5001 292.1846,-67 302.1845,-70.5001 302.1846,-63.5001"/>
</g>
<!-- Node501 -->
<g id="node5" class="node">
<title>Node501</title>
<g id="a_node5"><a xlink:href="main_8c.html#a3c04138a5bfe5d72780bb7e82a18e627" target="_top" xlink:title="main">
<polygon fill="none" stroke="#000000" points="634,-57.5 634,-76.5 672,-76.5 672,-57.5 634,-57.5"/>
<text text-anchor="middle" x="653" y="-64.5" font-family="Helvetica,sans-Serif" font-size="10.00" fill="#000000">main</text>
</a>
</g>
</g>
<!-- Node500&#45;&gt;Node501 -->
<g id="edge4" class="edge">
<title>Node500&#45;&gt;Node501</title>
<path fill="none" stroke="#191970" d="M573.3496,-67C595.2345,-67 618.2324,-67 633.8585,-67"/>
<polygon fill="#191970" stroke="#191970" points="573.0693,-63.5001 563.0692,-67 573.0692,-70.5001 573.0693,-63.5001"/>
</g>
<!-- Node503 -->
<g id="node7" class="node">
<title>Node503</title>
<g id="a_node7"><a xlink:href="structXCS.html#aedc01ad6f00a54b260a7605929a1d4c9" target="_top" xlink:title="XCS::single_update">
<polygon fill="none" stroke="#000000" points="601,-.5 601,-19.5 705,-19.5 705,-.5 601,-.5"/>
<text text-anchor="middle" x="653" y="-7.5" font-family="Helvetica,sans-Serif" font-size="10.00" fill="#000000">XCS::single_update</text>
</a>
</g>
</g>
<!-- Node502&#45;&gt;Node503 -->
<g id="edge6" class="edge">
<title>Node502&#45;&gt;Node503</title>
<path fill="none" stroke="#191970" d="M296.5202,-17.1157C309.4758,-14.1847 323.7174,-11.4664 337,-10 429.428,.2043 537.992,-3.1041 600.805,-6.5049"/>
<polygon fill="#191970" stroke="#191970" points="295.3777,-13.7891 286.4487,-19.4921 296.9852,-20.602 295.3777,-13.7891"/>
</g>
<!-- Node505 -->
<g id="node9" class="node">
<title>Node505</title>
<g id="a_node9"><a xlink:href="xcs__single__step_8c.html#a3d1fd2472d35310800aed897219a65af" target="_top" xlink:title="Executes a single&#45;step trial using a built&#45;in environment. ">
<polygon fill="none" stroke="#000000" points="337,-19.5 337,-38.5 421,-38.5 421,-19.5 337,-19.5"/>
<text text-anchor="middle" x="379" y="-26.5" font-family="Helvetica,sans-Serif" font-size="10.00" fill="#000000">xcs_single_trial</text>
</a>
</g>
</g>
<!-- Node502&#45;&gt;Node505 -->
<g id="edge8" class="edge">
<title>Node502&#45;&gt;Node505</title>
<path fill="none" stroke="#191970" d="M311.1216,-29C319.732,-29 328.4503,-29 336.6391,-29"/>
<polygon fill="#191970" stroke="#191970" points="311.1016,-25.5001 301.1015,-29 311.1015,-32.5001 311.1016,-25.5001"/>
</g>
<!-- Node504 -->
<g id="node8" class="node">
<title>Node504</title>
<g id="a_node8"><a xlink:href="python__wrapper_8cpp.html#afbdcc1358036a0b83a6b239da2b098a2" target="_top" xlink:title="BOOST_PYTHON_MODULE">
<polygon fill="none" stroke="#000000" points="741,-38.5 741,-57.5 887,-57.5 887,-38.5 741,-38.5"/>
<text text-anchor="middle" x="814" y="-45.5" font-family="Helvetica,sans-Serif" font-size="10.00" fill="#000000">BOOST_PYTHON_MODULE</text>
</a>
</g>
</g>
<!-- Node503&#45;&gt;Node504 -->
<g id="edge7" class="edge">
<title>Node503&#45;&gt;Node504</title>
<path fill="none" stroke="#191970" d="M703.4018,-21.8961C726.032,-27.2374 752.3695,-33.4537 773.665,-38.4799"/>
<polygon fill="#191970" stroke="#191970" points="704.1637,-18.4798 693.6271,-19.589 702.5557,-25.2926 704.1637,-18.4798"/>
</g>
<!-- Node506 -->
<g id="node10" class="node">
<title>Node506</title>
<g id="a_node10"><a xlink:href="xcs__single__step_8h.html#a39a031bf59eaa9b33e30e614610dcda8" target="_top" xlink:title="Executes a single&#45;step experiment. ">
<polygon fill="none" stroke="#000000" points="457,-19.5 457,-38.5 565,-38.5 565,-19.5 457,-19.5"/>
<text text-anchor="middle" x="511" y="-26.5" font-family="Helvetica,sans-Serif" font-size="10.00" fill="#000000">xcs_single_step_exp</text>
</a>
</g>
</g>
<!-- Node505&#45;&gt;Node506 -->
<g id="edge9" class="edge">
<title>Node505&#45;&gt;Node506</title>
<path fill="none" stroke="#191970" d="M431.1756,-29C439.5711,-29 448.2792,-29 456.7227,-29"/>
<polygon fill="#191970" stroke="#191970" points="431.1286,-25.5001 421.1285,-29 431.1285,-32.5001 431.1286,-25.5001"/>
</g>
<!-- Node506&#45;&gt;Node501 -->
<g id="edge10" class="edge">
<title>Node506&#45;&gt;Node501</title>
<path fill="none" stroke="#191970" d="M556.5443,-41.1879C582.6525,-48.1746 614.0537,-56.5778 633.7754,-61.8554"/>
<polygon fill="#191970" stroke="#191970" points="557.3975,-37.7931 546.8326,-38.589 555.5879,-44.5552 557.3975,-37.7931"/>
</g>
<!-- Node508 -->
<g id="node12" class="node">
<title>Node508</title>
<g id="a_node12"><a xlink:href="xcsf_8h.html#a0b4de57cb9dadc9deca7901aa36e5025" target="_top" xlink:title="Executes MAX_TRIALS number of XCSF learning iterations using the training. data and test iterations u...">
<polygon fill="none" stroke="#000000" points="352,-123.5 352,-142.5 406,-142.5 406,-123.5 352,-123.5"/>
<text text-anchor="middle" x="379" y="-130.5" font-family="Helvetica,sans-Serif" font-size="10.00" fill="#000000">xcsf_fit2</text>
</a>
</g>
</g>
<!-- Node507&#45;&gt;Node508 -->
<g id="edge12" class="edge">
<title>Node507&#45;&gt;Node508</title>
<path fill="none" stroke="#191970" d="M303.6576,-127.6608C320.131,-128.8282 337.7068,-130.0737 351.7358,-131.0679"/>
<polygon fill="#191970" stroke="#191970" points="303.807,-124.1627 293.5845,-126.9469 303.3121,-131.1452 303.807,-124.1627"/>
</g>
<!-- Node508&#45;&gt;Node501 -->
<g id="edge13" class="edge">
<title>Node508&#45;&gt;Node501</title>
<path fill="none" stroke="#191970" d="M416.4528,-136.7996C454.7558,-139.4028 515.494,-139.9435 565,-124 596.0141,-114.0119 626.6807,-90.1238 642.3228,-76.6573"/>
<polygon fill="#191970" stroke="#191970" points="416.5097,-133.2939 406.2723,-136.0227 415.977,-140.2736 416.5097,-133.2939"/>
</g>
<!-- Node509 -->
<g id="node13" class="node">
<title>Node509</title>
<g id="a_node13"><a xlink:href="structXCS.html#a7d53320740db8e846251bacd0238a9fb" target="_top" xlink:title="XCS::fit">
<polygon fill="none" stroke="#000000" points="485,-95.5 485,-114.5 537,-114.5 537,-95.5 485,-95.5"/>
<text text-anchor="middle" x="511" y="-102.5" font-family="Helvetica,sans-Serif" font-size="10.00" fill="#000000">XCS::fit</text>
</a>
</g>
</g>
<!-- Node508&#45;&gt;Node509 -->
<g id="edge14" class="edge">
<title>Node508&#45;&gt;Node509</title>
<path fill="none" stroke="#191970" d="M416.0015,-125.1512C437.9406,-120.4974 465.2158,-114.7118 484.905,-110.5353"/>
<polygon fill="#191970" stroke="#191970" points="415.0867,-121.7673 406.0307,-127.2662 416.5393,-128.6149 415.0867,-121.7673"/>
</g>
<!-- Node510 -->
<g id="node14" class="node">
<title>Node510</title>
<g id="a_node14"><a xlink:href="xcsf_8h.html#a874829f28fee20f9ad15b540f4b4d6ff" target="_top" xlink:title="Executes MAX_TRIALS number of XCSF learning iterations using the training data. ">
<polygon fill="none" stroke="#000000" points="484,-171.5 484,-190.5 538,-190.5 538,-171.5 484,-171.5"/>
<text text-anchor="middle" x="511" y="-178.5" font-family="Helvetica,sans-Serif" font-size="10.00" fill="#000000">xcsf_fit1</text>
</a>
</g>
</g>
<!-- Node508&#45;&gt;Node510 -->
<g id="edge15" class="edge">
<title>Node508&#45;&gt;Node510</title>
<path fill="none" stroke="#191970" d="M415.0599,-146.1127C437.0624,-154.1136 464.6979,-164.1629 484.6508,-171.4185"/>
<polygon fill="#191970" stroke="#191970" points="415.989,-142.7264 405.3949,-142.5982 413.5967,-149.3049 415.989,-142.7264"/>
</g>
<!-- Node511 -->
<g id="node15" class="node">
<title>Node511</title>
<g id="a_node15"><a xlink:href="structXCS.html#ad2ccafe59d2b4ae6d0e1cbc15edee53c" target="_top" xlink:title="XCS::fit">
<polygon fill="none" stroke="#000000" points="627,-133.5 627,-152.5 679,-152.5 679,-133.5 627,-133.5"/>
<text text-anchor="middle" x="653" y="-140.5" font-family="Helvetica,sans-Serif" font-size="10.00" fill="#000000">XCS::fit</text>
</a>
</g>
</g>
<!-- Node510&#45;&gt;Node511 -->
<g id="edge16" class="edge">
<title>Node510&#45;&gt;Node511</title>
<path fill="none" stroke="#191970" d="M547.7821,-171.1569C572.4487,-164.556 604.3571,-156.0171 626.538,-150.0814"/>
<polygon fill="#191970" stroke="#191970" points="546.7986,-167.7968 538.0434,-173.763 548.6083,-174.5589 546.7986,-167.7968"/>
</g>
<!-- Node511&#45;&gt;Node504 -->
<g id="edge17" class="edge">
<title>Node511&#45;&gt;Node504</title>
<path fill="none" stroke="#191970" d="M678.0249,-128.2338C711.3582,-108.565 769.3966,-74.3188 797.6332,-57.6574"/>
<polygon fill="#191970" stroke="#191970" points="676.1573,-125.2718 669.3235,-133.3681 679.7147,-131.3005 676.1573,-125.2718"/>
</g>
</g>
</svg>
