<?xml version="1.0" encoding="UTF-8" standalone="no"?>
<!DOCTYPE svg PUBLIC "-//W3C//DTD SVG 1.1//EN"
 "http://www.w3.org/Graphics/SVG/1.1/DTD/svg11.dtd">
<!-- Generated by graphviz version 2.40.1 (20161225.0304)
 -->
<!-- Title: cl.h Pages: 1 -->
<svg width="1752pt" height="84pt"
 viewBox="0.00 0.00 1752.00 84.00" xmlns="http://www.w3.org/2000/svg" xmlns:xlink="http://www.w3.org/1999/xlink">
<g id="graph0" class="graph" transform="scale(1 1) rotate(0) translate(4 80)">
<title>cl.h</title>
<!-- Node1 -->
<g id="node1" class="node">
<title>Node1</title>
<polygon fill="#bfbfbf" stroke="#000000" points="866,-56.5 866,-75.5 898,-75.5 898,-56.5 866,-56.5"/>
<text text-anchor="middle" x="882" y="-63.5" font-family="Helvetica,sans-Serif" font-size="10.00" fill="#000000">cl.h</text>
</g>
<!-- Node2 -->
<g id="node2" class="node">
<title>Node2</title>
<g id="a_node2"><a xlink:href="cl_8c.html" target="_top" xlink:title="Functions operating on classifiers. ">
<polygon fill="none" stroke="#000000" points="0,-.5 0,-19.5 32,-19.5 32,-.5 0,-.5"/>
<text text-anchor="middle" x="16" y="-7.5" font-family="Helvetica,sans-Serif" font-size="10.00" fill="#000000">cl.c</text>
</a>
</g>
</g>
<!-- Node1&#45;&gt;Node2 -->
<g id="edge1" class="edge">
<title>Node1&#45;&gt;Node2</title>
<path fill="none" stroke="#191970" d="M855.7975,-65.7111C731.6473,-64.168 201.9432,-55.5803 41,-20 38.0788,-19.3542 35.0557,-18.4063 32.1642,-17.3477"/>
<polygon fill="#191970" stroke="#191970" points="855.8677,-69.2121 865.9089,-65.8321 855.9516,-62.2126 855.8677,-69.2121"/>
</g>
<!-- Node3 -->
<g id="node3" class="node">
<title>Node3</title>
<g id="a_node3"><a xlink:href="cl__set_8c.html" target="_top" xlink:title="Functions operating on sets of classifiers. ">
<polygon fill="none" stroke="#000000" points="50.5,-.5 50.5,-19.5 101.5,-19.5 101.5,-.5 50.5,-.5"/>
<text text-anchor="middle" x="76" y="-7.5" font-family="Helvetica,sans-Serif" font-size="10.00" fill="#000000">cl_set.c</text>
</a>
</g>
</g>
<!-- Node1&#45;&gt;Node3 -->
<g id="edge2" class="edge">
<title>Node1&#45;&gt;Node3</title>
<path fill="none" stroke="#191970" d="M855.4263,-65.2249C737.16,-61.6512 257.9936,-45.8284 110,-20 107.3331,-19.5346 104.5785,-18.9337 101.8452,-18.2577"/>
<polygon fill="#191970" stroke="#191970" points="855.6215,-68.7322 865.7216,-65.5324 855.8306,-61.7353 855.6215,-68.7322"/>
</g>
<!-- Node4 -->
<g id="node4" class="node">
<title>Node4</title>
<g id="a_node4"><a xlink:href="cond__dgp_8c.html" target="_top" xlink:title="Dynamical GP graph condition functions. ">
<polygon fill="none" stroke="#000000" points="119.5,-.5 119.5,-19.5 186.5,-19.5 186.5,-.5 119.5,-.5"/>
<text text-anchor="middle" x="153" y="-7.5" font-family="Helvetica,sans-Serif" font-size="10.00" fill="#000000">cond_dgp.c</text>
</a>
</g>
</g>
<!-- Node1&#45;&gt;Node4 -->
<g id="edge3" class="edge">
<title>Node1&#45;&gt;Node4</title>
<path fill="none" stroke="#191970" d="M855.8903,-65.8164C764.4759,-64.8419 450.5402,-58.6997 195,-20 192.332,-19.596 189.5839,-19.1078 186.8308,-18.5672"/>
<polygon fill="#191970" stroke="#191970" points="855.8836,-69.3164 865.9164,-65.9114 855.95,-62.3167 855.8836,-69.3164"/>
</g>
<!-- Node5 -->
<g id="node5" class="node">
<title>Node5</title>
<g id="a_node5"><a xlink:href="cond__dummy_8c.html" target="_top" xlink:title="Always&#45;matching dummy condition functions. ">
<polygon fill="none" stroke="#000000" points="204.5,-.5 204.5,-19.5 287.5,-19.5 287.5,-.5 204.5,-.5"/>
<text text-anchor="middle" x="246" y="-7.5" font-family="Helvetica,sans-Serif" font-size="10.00" fill="#000000">cond_dummy.c</text>
</a>
</g>
</g>
<!-- Node1&#45;&gt;Node5 -->
<g id="edge4" class="edge">
<title>Node1&#45;&gt;Node5</title>
<path fill="none" stroke="#191970" d="M855.6006,-65.0083C772.878,-61.6691 511.4467,-49.3561 297,-20 293.9606,-19.5839 290.829,-19.102 287.6832,-18.579"/>
<polygon fill="#191970" stroke="#191970" points="855.5115,-68.5074 865.6417,-65.4045 855.7875,-61.5129 855.5115,-68.5074"/>
</g>
<!-- Node6 -->
<g id="node6" class="node">
<title>Node6</title>
<g id="a_node6"><a xlink:href="cond__ellipsoid_8c.html" target="_top" xlink:title="Hyperellipsoid condition functions. ">
<polygon fill="none" stroke="#000000" points="306,-.5 306,-19.5 392,-19.5 392,-.5 306,-.5"/>
<text text-anchor="middle" x="349" y="-7.5" font-family="Helvetica,sans-Serif" font-size="10.00" fill="#000000">cond_ellipsoid.c</text>
</a>
</g>
</g>
<!-- Node1&#45;&gt;Node6 -->
<g id="edge5" class="edge">
<title>Node1&#45;&gt;Node6</title>
<path fill="none" stroke="#191970" d="M855.6498,-64.36C782.9625,-59.6464 573.5739,-44.7889 401,-20 398.0881,-19.5817 395.0916,-19.1118 392.0773,-18.6096"/>
<polygon fill="#191970" stroke="#191970" points="855.5366,-67.8598 865.7397,-65.0057 855.9837,-60.8741 855.5366,-67.8598"/>
</g>
<!-- Node7 -->
<g id="node7" class="node">
<title>Node7</title>
<g id="a_node7"><a xlink:href="cond__gp_8c.html" target="_top" xlink:title="Tree GP condition functions. ">
<polygon fill="none" stroke="#000000" points="410,-.5 410,-19.5 472,-19.5 472,-.5 410,-.5"/>
<text text-anchor="middle" x="441" y="-7.5" font-family="Helvetica,sans-Serif" font-size="10.00" fill="#000000">cond_gp.c</text>
</a>
</g>
</g>
<!-- Node1&#45;&gt;Node7 -->
<g id="edge6" class="edge">
<title>Node1&#45;&gt;Node7</title>
<path fill="none" stroke="#191970" d="M855.7814,-64.1858C791.5082,-59.4799 621.1305,-45.441 481,-20 478.1828,-19.4885 475.2694,-18.8927 472.3586,-18.2515"/>
<polygon fill="#191970" stroke="#191970" points="855.6193,-67.683 865.8445,-64.9092 856.1212,-60.7011 855.6193,-67.683"/>
</g>
<!-- Node8 -->
<g id="node8" class="node">
<title>Node8</title>
<g id="a_node8"><a xlink:href="cond__neural_8c.html" target="_top" xlink:title="Multi&#45;layer perceptron neural network condition functions. ">
<polygon fill="none" stroke="#000000" points="490.5,-.5 490.5,-19.5 567.5,-19.5 567.5,-.5 490.5,-.5"/>
<text text-anchor="middle" x="529" y="-7.5" font-family="Helvetica,sans-Serif" font-size="10.00" fill="#000000">cond_neural.c</text>
</a>
</g>
</g>
<!-- Node1&#45;&gt;Node8 -->
<g id="edge7" class="edge">
<title>Node1&#45;&gt;Node8</title>
<path fill="none" stroke="#191970" d="M855.7652,-62.6004C802.7461,-55.6101 679.1085,-38.7013 576,-20 573.2912,-19.5087 570.4998,-18.9779 567.6921,-18.4259"/>
<polygon fill="#191970" stroke="#191970" points="855.3177,-66.0716 865.6879,-63.9013 856.2277,-59.131 855.3177,-66.0716"/>
</g>
<!-- Node9 -->
<g id="node9" class="node">
<title>Node9</title>
<g id="a_node9"><a xlink:href="cond__rectangle_8c.html" target="_top" xlink:title="Hyperrectangle condition functions. ">
<polygon fill="none" stroke="#000000" points="585.5,-.5 585.5,-19.5 676.5,-19.5 676.5,-.5 585.5,-.5"/>
<text text-anchor="middle" x="631" y="-7.5" font-family="Helvetica,sans-Serif" font-size="10.00" fill="#000000">cond_rectangle.c</text>
</a>
</g>
</g>
<!-- Node1&#45;&gt;Node9 -->
<g id="edge8" class="edge">
<title>Node1&#45;&gt;Node9</title>
<path fill="none" stroke="#191970" d="M855.9323,-60.1841C812.783,-50.5572 726.0994,-31.2174 673.8443,-19.5589"/>
<polygon fill="#191970" stroke="#191970" points="855.3948,-63.6502 865.917,-62.4118 856.9191,-56.8181 855.3948,-63.6502"/>
</g>
<!-- Node10 -->
<g id="node10" class="node">
<title>Node10</title>
<g id="a_node10"><a xlink:href="cond__ternary_8c.html" target="_top" xlink:title="Ternary condition functions. ">
<polygon fill="none" stroke="#000000" points="694.5,-.5 694.5,-19.5 775.5,-19.5 775.5,-.5 694.5,-.5"/>
<text text-anchor="middle" x="735" y="-7.5" font-family="Helvetica,sans-Serif" font-size="10.00" fill="#000000">cond_ternary.c</text>
</a>
</g>
</g>
<!-- Node1&#45;&gt;Node10 -->
<g id="edge9" class="edge">
<title>Node1&#45;&gt;Node10</title>
<path fill="none" stroke="#191970" d="M856.4325,-56.26C829.3656,-45.9488 786.9194,-29.7788 760.0504,-19.543"/>
<polygon fill="#191970" stroke="#191970" points="855.3977,-59.6111 865.9886,-59.9004 857.8897,-53.0697 855.3977,-59.6111"/>
</g>
<!-- Node11 -->
<g id="node11" class="node">
<title>Node11</title>
<g id="a_node11"><a xlink:href="ea_8c.html" target="_top" xlink:title="Evolutionary algorithm functions. ">
<polygon fill="none" stroke="#000000" points="793.5,-.5 793.5,-19.5 828.5,-19.5 828.5,-.5 793.5,-.5"/>
<text text-anchor="middle" x="811" y="-7.5" font-family="Helvetica,sans-Serif" font-size="10.00" fill="#000000">ea.c</text>
</a>
</g>
</g>
<!-- Node1&#45;&gt;Node11 -->
<g id="edge10" class="edge">
<title>Node1&#45;&gt;Node11</title>
<path fill="none" stroke="#191970" d="M861.623,-49.928C849.2129,-40.1397 833.77,-27.9595 823.2255,-19.6427"/>
<polygon fill="#191970" stroke="#191970" points="859.6136,-52.8007 869.6327,-56.2455 863.9486,-47.3046 859.6136,-52.8007"/>
</g>
<!-- Node12 -->
<g id="node12" class="node">
<title>Node12</title>
<g id="a_node12"><a xlink:href="env__maze_8c.html" target="_top" xlink:title="The discrete maze problem environment module. ">
<polygon fill="none" stroke="#000000" points="847,-.5 847,-19.5 917,-19.5 917,-.5 847,-.5"/>
<text text-anchor="middle" x="882" y="-7.5" font-family="Helvetica,sans-Serif" font-size="10.00" fill="#000000">env_maze.c</text>
</a>
</g>
</g>
<!-- Node1&#45;&gt;Node12 -->
<g id="edge11" class="edge">
<title>Node1&#45;&gt;Node12</title>
<path fill="none" stroke="#191970" d="M882,-46.1575C882,-37.155 882,-26.9199 882,-19.6427"/>
<polygon fill="#191970" stroke="#191970" points="878.5001,-46.2455 882,-56.2455 885.5001,-46.2456 878.5001,-46.2455"/>
</g>
<!-- Node13 -->
<g id="node13" class="node">
<title>Node13</title>
<g id="a_node13"><a xlink:href="pa_8c.html" target="_top" xlink:title="Prediction array functions. ">
<polygon fill="none" stroke="#000000" points="935.5,-.5 935.5,-19.5 970.5,-19.5 970.5,-.5 935.5,-.5"/>
<text text-anchor="middle" x="953" y="-7.5" font-family="Helvetica,sans-Serif" font-size="10.00" fill="#000000">pa.c</text>
</a>
</g>
</g>
<!-- Node1&#45;&gt;Node13 -->
<g id="edge12" class="edge">
<title>Node1&#45;&gt;Node13</title>
<path fill="none" stroke="#191970" d="M902.377,-49.928C914.7871,-40.1397 930.23,-27.9595 940.7745,-19.6427"/>
<polygon fill="#191970" stroke="#191970" points="900.0514,-47.3046 894.3673,-56.2455 904.3864,-52.8007 900.0514,-47.3046"/>
</g>
<!-- Node14 -->
<g id="node14" class="node">
<title>Node14</title>
<g id="a_node14"><a xlink:href="perf_8c.html" target="_top" xlink:title="System performance printing and plotting with Gnuplot. ">
<polygon fill="none" stroke="#000000" points="988.5,-.5 988.5,-19.5 1029.5,-19.5 1029.5,-.5 988.5,-.5"/>
<text text-anchor="middle" x="1009" y="-7.5" font-family="Helvetica,sans-Serif" font-size="10.00" fill="#000000">perf.c</text>
</a>
</g>
</g>
<!-- Node1&#45;&gt;Node14 -->
<g id="edge13" class="edge">
<title>Node1&#45;&gt;Node14</title>
<path fill="none" stroke="#191970" d="M907.5249,-54.7449C931.3241,-44.2508 966.3723,-28.7965 988.4276,-19.0713"/>
<polygon fill="#191970" stroke="#191970" points="905.8225,-51.6704 898.0846,-58.9076 908.6467,-58.0754 905.8225,-51.6704"/>
</g>
<!-- Node15 -->
<g id="node15" class="node">
<title>Node15</title>
<g id="a_node15"><a xlink:href="pred__neural_8c.html" target="_top" xlink:title="Multi&#45;layer perceptron neural network prediction functions. ">
<polygon fill="none" stroke="#000000" points="1047.5,-.5 1047.5,-19.5 1122.5,-19.5 1122.5,-.5 1047.5,-.5"/>
<text text-anchor="middle" x="1085" y="-7.5" font-family="Helvetica,sans-Serif" font-size="10.00" fill="#000000">pred_neural.c</text>
</a>
</g>
</g>
<!-- Node1&#45;&gt;Node15 -->
<g id="edge14" class="edge">
<title>Node1&#45;&gt;Node15</title>
<path fill="none" stroke="#191970" d="M908.0838,-58.8045C944.3048,-48.8125 1009.9194,-30.7119 1050.2572,-19.5842"/>
<polygon fill="#191970" stroke="#191970" points="906.9783,-55.4786 898.2692,-61.5119 908.8399,-62.2266 906.9783,-55.4786"/>
</g>
<!-- Node16 -->
<g id="node16" class="node">
<title>Node16</title>
<g id="a_node16"><a xlink:href="pred__nlms_8c.html" target="_top" xlink:title="Normalised least mean squares prediction functions. ">
<polygon fill="none" stroke="#000000" points="1141,-.5 1141,-19.5 1211,-19.5 1211,-.5 1141,-.5"/>
<text text-anchor="middle" x="1176" y="-7.5" font-family="Helvetica,sans-Serif" font-size="10.00" fill="#000000">pred_nlms.c</text>
</a>
</g>
</g>
<!-- Node1&#45;&gt;Node16 -->
<g id="edge15" class="edge">
<title>Node1&#45;&gt;Node16</title>
<path fill="none" stroke="#191970" d="M908.0565,-61.5727C953.5916,-53.7538 1050.5606,-36.7394 1132,-20 1134.9158,-19.4007 1137.9355,-18.7589 1140.964,-18.1006"/>
<polygon fill="#191970" stroke="#191970" points="907.3976,-58.1344 898.1312,-63.271 908.5783,-65.0342 907.3976,-58.1344"/>
</g>
<!-- Node17 -->
<g id="node17" class="node">
<title>Node17</title>
<g id="a_node17"><a xlink:href="pred__rls_8c.html" target="_top" xlink:title="Recursive least mean squares prediction functions. ">
<polygon fill="none" stroke="#000000" points="1229.5,-.5 1229.5,-19.5 1288.5,-19.5 1288.5,-.5 1229.5,-.5"/>
<text text-anchor="middle" x="1259" y="-7.5" font-family="Helvetica,sans-Serif" font-size="10.00" fill="#000000">pred_rls.c</text>
</a>
</g>
</g>
<!-- Node1&#45;&gt;Node17 -->
<g id="edge16" class="edge">
<title>Node1&#45;&gt;Node17</title>
<path fill="none" stroke="#191970" d="M908.2721,-63.4715C965.3456,-57.75 1104.791,-42.5315 1220,-20 1223.0184,-19.4097 1226.1513,-18.7269 1229.2702,-18.0008"/>
<polygon fill="#191970" stroke="#191970" points="907.8989,-59.9913 898.2921,-64.4588 908.5882,-66.9573 907.8989,-59.9913"/>
</g>
<!-- Node18 -->
<g id="node18" class="node">
<title>Node18</title>
<g id="a_node18"><a xlink:href="rule__dgp_8c.html" target="_top" xlink:title="Dynamical GP graph rule (condition + action) functions. ">
<polygon fill="none" stroke="#000000" points="1307,-.5 1307,-19.5 1369,-19.5 1369,-.5 1307,-.5"/>
<text text-anchor="middle" x="1338" y="-7.5" font-family="Helvetica,sans-Serif" font-size="10.00" fill="#000000">rule_dgp.c</text>
</a>
</g>
</g>
<!-- Node1&#45;&gt;Node18 -->
<g id="edge17" class="edge">
<title>Node1&#45;&gt;Node18</title>
<path fill="none" stroke="#191970" d="M908.7376,-64.2991C975.0599,-59.8083 1152.303,-46.1444 1298,-20 1300.8183,-19.4943 1303.7324,-18.9025 1306.6436,-18.2638"/>
<polygon fill="#191970" stroke="#191970" points="908.1147,-60.8326 898.3684,-64.987 908.5782,-67.8172 908.1147,-60.8326"/>
</g>
<!-- Node19 -->
<g id="node19" class="node">
<title>Node19</title>
<g id="a_node19"><a xlink:href="rule__neural_8c.html" target="_top" xlink:title="Neural network rule (condition + action) functions. ">
<polygon fill="none" stroke="#000000" points="1387,-.5 1387,-19.5 1459,-19.5 1459,-.5 1387,-.5"/>
<text text-anchor="middle" x="1423" y="-7.5" font-family="Helvetica,sans-Serif" font-size="10.00" fill="#000000">rule_neural.c</text>
</a>
</g>
</g>
<!-- Node1&#45;&gt;Node19 -->
<g id="edge18" class="edge">
<title>Node1&#45;&gt;Node19</title>
<path fill="none" stroke="#191970" d="M908.7006,-64.7116C983.2842,-60.8572 1200.0307,-47.9128 1378,-20 1380.8463,-19.5536 1383.782,-19.035 1386.7256,-18.4733"/>
<polygon fill="#191970" stroke="#191970" points="908.1733,-61.2336 898.3628,-65.2341 908.5267,-68.2247 908.1733,-61.2336"/>
</g>
<!-- Node20 -->
<g id="node20" class="node">
<title>Node20</title>
<g id="a_node20"><a xlink:href="xcs__multi__step_8c.html" target="_top" xlink:title="Multi&#45;step reinforcement learning functions. ">
<polygon fill="none" stroke="#000000" points="1477.5,-.5 1477.5,-19.5 1568.5,-19.5 1568.5,-.5 1477.5,-.5"/>
<text text-anchor="middle" x="1523" y="-7.5" font-family="Helvetica,sans-Serif" font-size="10.00" fill="#000000">xcs_multi_step.c</text>
</a>
</g>
</g>
<!-- Node1&#45;&gt;Node20 -->
<g id="edge19" class="edge">
<title>Node1&#45;&gt;Node20</title>
<path fill="none" stroke="#191970" d="M908.4274,-64.883C991.2415,-61.178 1252.9897,-47.9121 1468,-20 1471.0798,-19.6002 1474.249,-19.1441 1477.4372,-18.652"/>
<polygon fill="#191970" stroke="#191970" points="908.212,-61.389 898.3754,-65.3247 908.5194,-68.3822 908.212,-61.389"/>
</g>
<!-- Node21 -->
<g id="node21" class="node">
<title>Node21</title>
<g id="a_node21"><a xlink:href="xcs__single__step_8c.html" target="_top" xlink:title="Single&#45;step reinforcement learning functions. ">
<polygon fill="none" stroke="#000000" points="1586.5,-.5 1586.5,-19.5 1681.5,-19.5 1681.5,-.5 1586.5,-.5"/>
<text text-anchor="middle" x="1634" y="-7.5" font-family="Helvetica,sans-Serif" font-size="10.00" fill="#000000">xcs_single_step.c</text>
</a>
</g>
</g>
<!-- Node1&#45;&gt;Node21 -->
<g id="edge20" class="edge">
<title>Node1&#45;&gt;Node21</title>
<path fill="none" stroke="#191970" d="M908.3785,-65.3087C1000.7493,-62.6645 1318.1006,-51.6952 1578,-20 1580.7449,-19.6652 1583.5594,-19.2841 1586.3952,-18.8707"/>
<polygon fill="#191970" stroke="#191970" points="908.1467,-61.8137 898.248,-65.5908 908.3416,-68.811 908.1467,-61.8137"/>
</g>
<!-- Node22 -->
<g id="node22" class="node">
<title>Node22</title>
<g id="a_node22"><a xlink:href="xcsf_8c.html" target="_top" xlink:title="High level XCSF functions for executing training, predicting, saving and reloading the system from pe...">
<polygon fill="none" stroke="#000000" points="1700,-.5 1700,-19.5 1744,-19.5 1744,-.5 1700,-.5"/>
<text text-anchor="middle" x="1722" y="-7.5" font-family="Helvetica,sans-Serif" font-size="10.00" fill="#000000">xcsf.c</text>
</a>
</g>
</g>
<!-- Node1&#45;&gt;Node22 -->
<g id="edge21" class="edge">
<title>Node1&#45;&gt;Node22</title>
<path fill="none" stroke="#191970" d="M908.3005,-65.4063C1029.5852,-62.5306 1535.6045,-48.9875 1691,-20 1693.8908,-19.4608 1696.8862,-18.728 1699.8245,-17.9026"/>
<polygon fill="#191970" stroke="#191970" points="908.0043,-61.9122 898.0887,-65.6446 908.1677,-68.9103 908.0043,-61.9122"/>
</g>
</g>
</svg>
