<?xml version="1.0" encoding="UTF-8" standalone="no"?>
<!DOCTYPE svg PUBLIC "-//W3C//DTD SVG 1.1//EN"
 "http://www.w3.org/Graphics/SVG/1.1/DTD/svg11.dtd">
<!-- Generated by graphviz version 2.40.1 (20161225.0304)
 -->
<!-- Title: cl_init Pages: 1 -->
<svg width="986pt" height="66pt"
 viewBox="0.00 0.00 986.00 66.00" xmlns="http://www.w3.org/2000/svg" xmlns:xlink="http://www.w3.org/1999/xlink">
<g id="graph0" class="graph" transform="scale(1 1) rotate(0) translate(4 62)">
<title>cl_init</title>
<!-- Node230 -->
<g id="node1" class="node">
<title>Node230</title>
<polygon fill="#bfbfbf" stroke="#000000" points="0,-19.5 0,-38.5 42,-38.5 42,-19.5 0,-19.5"/>
<text text-anchor="middle" x="21" y="-26.5" font-family="Helvetica,sans-Serif" font-size="10.00" fill="#000000">cl_init</text>
</g>
<!-- Node231 -->
<g id="node2" class="node">
<title>Node231</title>
<g id="a_node2"><a xlink:href="sam_8c.html#ab529fdda992a0d15c0f798ec3fefe843" target="_top" xlink:title="Initialises a classifier&#39;s self&#45;adaptive mutation rates. ">
<polygon fill="none" stroke="#000000" points="78,-19.5 78,-38.5 131,-38.5 131,-19.5 78,-19.5"/>
<text text-anchor="middle" x="104.5" y="-26.5" font-family="Helvetica,sans-Serif" font-size="10.00" fill="#000000">sam_init</text>
</a>
</g>
</g>
<!-- Node230&#45;&gt;Node231 -->
<g id="edge1" class="edge">
<title>Node230&#45;&gt;Node231</title>
<path fill="none" stroke="#191970" d="M42.0706,-29C49.8489,-29 58.9085,-29 67.6744,-29"/>
<polygon fill="#191970" stroke="#191970" points="67.7356,-32.5001 77.7355,-29 67.7355,-25.5001 67.7356,-32.5001"/>
</g>
<!-- Node232 -->
<g id="node3" class="node">
<title>Node232</title>
<g id="a_node3"><a xlink:href="sam_8c.html#af9ece15d6d1cb98bb4817cb267d24f82" target="_top" xlink:title="Initialises log normal self&#45;adaptive mutation rates. ">
<polygon fill="none" stroke="#000000" points="322,-38.5 322,-57.5 428,-57.5 428,-38.5 322,-38.5"/>
<text text-anchor="middle" x="375" y="-45.5" font-family="Helvetica,sans-Serif" font-size="10.00" fill="#000000">sam_log_normal_init</text>
</a>
</g>
</g>
<!-- Node231&#45;&gt;Node232 -->
<g id="edge2" class="edge">
<title>Node231&#45;&gt;Node232</title>
<path fill="none" stroke="#191970" d="M131.4255,-30.8913C173.1525,-33.8222 254.5782,-39.5415 311.7609,-43.5581"/>
<polygon fill="#191970" stroke="#191970" points="311.5642,-47.0528 321.7849,-44.2622 312.0548,-40.07 311.5642,-47.0528"/>
</g>
<!-- Node238 -->
<g id="node9" class="node">
<title>Node238</title>
<g id="a_node9"><a xlink:href="sam_8c.html#ade3e812ff797267372cee374fa55aad8" target="_top" xlink:title="Initialises rate selection self&#45;adaptive mutation. ">
<polygon fill="none" stroke="#000000" points="167,-.5 167,-19.5 286,-19.5 286,-.5 167,-.5"/>
<text text-anchor="middle" x="226.5" y="-7.5" font-family="Helvetica,sans-Serif" font-size="10.00" fill="#000000">sam_rate_selection_init</text>
</a>
</g>
</g>
<!-- Node231&#45;&gt;Node238 -->
<g id="edge8" class="edge">
<title>Node231&#45;&gt;Node238</title>
<path fill="none" stroke="#191970" d="M131.2734,-24.8304C139,-23.627 147.8098,-22.255 156.879,-20.8426"/>
<polygon fill="#191970" stroke="#191970" points="157.4407,-24.2974 166.783,-19.3002 156.3635,-17.3808 157.4407,-24.2974"/>
</g>
<!-- Node233 -->
<g id="node4" class="node">
<title>Node233</title>
<g id="a_node4"><a xlink:href="utils_8c.html#ae42a9e1d467853befaa7922cfafed3bb" target="_top" xlink:title="Returns a uniform random float [min,max]. ">
<polygon fill="none" stroke="#000000" points="464,-19.5 464,-38.5 537,-38.5 537,-19.5 464,-19.5"/>
<text text-anchor="middle" x="500.5" y="-26.5" font-family="Helvetica,sans-Serif" font-size="10.00" fill="#000000">rand_uniform</text>
</a>
</g>
</g>
<!-- Node232&#45;&gt;Node233 -->
<g id="edge3" class="edge">
<title>Node232&#45;&gt;Node233</title>
<path fill="none" stroke="#191970" d="M428.2233,-39.9423C436.7725,-38.648 445.5632,-37.3171 453.9406,-36.0488"/>
<polygon fill="#191970" stroke="#191970" points="454.5469,-39.497 463.9103,-34.5395 453.4991,-32.5759 454.5469,-39.497"/>
</g>
<!-- Node234 -->
<g id="node5" class="node">
<title>Node234</title>
<g id="a_node5"><a xlink:href="utils_8c.html#a0c0a81e7797a05c535bad34449d8642c" target="_top" xlink:title="Returns a uniform random float [0,1]. ">
<polygon fill="none" stroke="#000000" points="573,-19.5 573,-38.5 614,-38.5 614,-19.5 573,-19.5"/>
<text text-anchor="middle" x="593.5" y="-26.5" font-family="Helvetica,sans-Serif" font-size="10.00" fill="#000000">drand</text>
</a>
</g>
</g>
<!-- Node233&#45;&gt;Node234 -->
<g id="edge4" class="edge">
<title>Node233&#45;&gt;Node234</title>
<path fill="none" stroke="#191970" d="M537.2561,-29C545.658,-29 554.5043,-29 562.63,-29"/>
<polygon fill="#191970" stroke="#191970" points="562.799,-32.5001 572.7989,-29 562.7989,-25.5001 562.799,-32.5001"/>
</g>
<!-- Node235 -->
<g id="node6" class="node">
<title>Node235</title>
<g id="a_node6"><a xlink:href="mt19937-64_8c.html#aa0b74daf51eca91df224d00f1730084a" target="_top" xlink:title="genrand64_real1">
<polygon fill="none" stroke="#000000" points="650,-19.5 650,-38.5 738,-38.5 738,-19.5 650,-19.5"/>
<text text-anchor="middle" x="694" y="-26.5" font-family="Helvetica,sans-Serif" font-size="10.00" fill="#000000">genrand64_real1</text>
</a>
</g>
</g>
<!-- Node234&#45;&gt;Node235 -->
<g id="edge5" class="edge">
<title>Node234&#45;&gt;Node235</title>
<path fill="none" stroke="#191970" d="M614.3237,-29C621.8428,-29 630.7193,-29 639.769,-29"/>
<polygon fill="#191970" stroke="#191970" points="639.9969,-32.5001 649.9969,-29 639.9969,-25.5001 639.9969,-32.5001"/>
</g>
<!-- Node236 -->
<g id="node7" class="node">
<title>Node236</title>
<g id="a_node7"><a xlink:href="mt19937-64_8c.html#a265bf48d20d6e0347371fcf4fe340e6d" target="_top" xlink:title="genrand64_int64">
<polygon fill="none" stroke="#000000" points="774,-19.5 774,-38.5 862,-38.5 862,-19.5 774,-19.5"/>
<text text-anchor="middle" x="818" y="-26.5" font-family="Helvetica,sans-Serif" font-size="10.00" fill="#000000">genrand64_int64</text>
</a>
</g>
</g>
<!-- Node235&#45;&gt;Node236 -->
<g id="edge6" class="edge">
<title>Node235&#45;&gt;Node236</title>
<path fill="none" stroke="#191970" d="M738.0669,-29C746.2822,-29 754.957,-29 763.4432,-29"/>
<polygon fill="#191970" stroke="#191970" points="763.6572,-32.5001 773.6572,-29 763.6572,-25.5001 763.6572,-32.5001"/>
</g>
<!-- Node237 -->
<g id="node8" class="node">
<title>Node237</title>
<g id="a_node8"><a xlink:href="mt19937-64_8c.html#adf4127d44c2dc34fcb318d406131ef7c" target="_top" xlink:title="init_genrand64">
<polygon fill="none" stroke="#000000" points="898,-19.5 898,-38.5 978,-38.5 978,-19.5 898,-19.5"/>
<text text-anchor="middle" x="938" y="-26.5" font-family="Helvetica,sans-Serif" font-size="10.00" fill="#000000">init_genrand64</text>
</a>
</g>
</g>
<!-- Node236&#45;&gt;Node237 -->
<g id="edge7" class="edge">
<title>Node236&#45;&gt;Node237</title>
<path fill="none" stroke="#191970" d="M862.0022,-29C870.3719,-29 879.1896,-29 887.7365,-29"/>
<polygon fill="#191970" stroke="#191970" points="887.9792,-32.5001 897.9792,-29 887.9792,-25.5001 887.9792,-32.5001"/>
</g>
<!-- Node239 -->
<g id="node10" class="node">
<title>Node239</title>
<g id="a_node10"><a xlink:href="utils_8c.html#a32648ab076544a9ac1c086d0f07b599f" target="_top" xlink:title="Returns a uniform random integer [min,max] not inclusive of max. ">
<polygon fill="none" stroke="#000000" points="337.5,-.5 337.5,-19.5 412.5,-19.5 412.5,-.5 337.5,-.5"/>
<text text-anchor="middle" x="375" y="-7.5" font-family="Helvetica,sans-Serif" font-size="10.00" fill="#000000">irand_uniform</text>
</a>
</g>
</g>
<!-- Node238&#45;&gt;Node239 -->
<g id="edge9" class="edge">
<title>Node238&#45;&gt;Node239</title>
<path fill="none" stroke="#191970" d="M286.045,-10C299.6704,-10 313.9841,-10 327.05,-10"/>
<polygon fill="#191970" stroke="#191970" points="327.2241,-13.5001 337.2241,-10 327.2241,-6.5001 327.2241,-13.5001"/>
</g>
<!-- Node239&#45;&gt;Node233 -->
<g id="edge10" class="edge">
<title>Node239&#45;&gt;Node233</title>
<path fill="none" stroke="#191970" d="M412.6541,-15.7006C425.542,-17.6518 440.1208,-19.8589 453.6451,-21.9064"/>
<polygon fill="#191970" stroke="#191970" points="453.3248,-25.3977 463.7361,-23.4342 454.3727,-18.4766 453.3248,-25.3977"/>
</g>
</g>
</svg>
