<?xml version="1.0" encoding="UTF-8" standalone="no"?>
<!DOCTYPE svg PUBLIC "-//W3C//DTD SVG 1.1//EN"
 "http://www.w3.org/Graphics/SVG/1.1/DTD/svg11.dtd">
<!-- Generated by graphviz version 2.40.1 (20161225.0304)
 -->
<!-- Title: cl_subsumer Pages: 1 -->
<svg width="1006pt" height="256pt"
 viewBox="0.00 0.00 1006.00 256.00" xmlns="http://www.w3.org/2000/svg" xmlns:xlink="http://www.w3.org/1999/xlink">
<g id="graph0" class="graph" transform="scale(1 1) rotate(0) translate(4 252)">
<title>cl_subsumer</title>
<!-- Node445 -->
<g id="node1" class="node">
<title>Node445</title>
<polygon fill="#bfbfbf" stroke="#000000" points="0,-133.5 0,-152.5 72,-152.5 72,-133.5 0,-133.5"/>
<text text-anchor="middle" x="36" y="-140.5" font-family="Helvetica,sans-Serif" font-size="10.00" fill="#000000">cl_subsumer</text>
</g>
<!-- Node446 -->
<g id="node2" class="node">
<title>Node446</title>
<g id="a_node2"><a xlink:href="$clset_8c.html#aa301d85075acc82499cb031066d89778" xlink:title="Performs set subsumption. ">
<polygon fill="none" stroke="#000000" points="108,-152.5 108,-171.5 206,-171.5 206,-152.5 108,-152.5"/>
<text text-anchor="middle" x="157" y="-159.5" font-family="Helvetica,sans-Serif" font-size="10.00" fill="#000000">clset_subsumption</text>
</a>
</g>
</g>
<!-- Node445&#45;&gt;Node446 -->
<g id="edge1" class="edge">
<title>Node445&#45;&gt;Node446</title>
<path fill="none" stroke="#191970" d="M82.245,-150.2616C90.5884,-151.5717 99.3155,-152.9421 107.741,-154.2651"/>
<polygon fill="#191970" stroke="#191970" points="82.7259,-146.7943 72.304,-148.7006 81.64,-153.7096 82.7259,-146.7943"/>
</g>
<!-- Node463 -->
<g id="node19" class="node">
<title>Node463</title>
<g id="a_node19"><a xlink:href="$ea_8c.html#a8ea16017fe8753d9b079e8e333d98545" xlink:title="Performs evolutionary algorithm subsumption. ">
<polygon fill="none" stroke="#000000" points="121,-114.5 121,-133.5 193,-133.5 193,-114.5 121,-114.5"/>
<text text-anchor="middle" x="157" y="-121.5" font-family="Helvetica,sans-Serif" font-size="10.00" fill="#000000">ea_subsume</text>
</a>
</g>
</g>
<!-- Node445&#45;&gt;Node463 -->
<g id="edge23" class="edge">
<title>Node445&#45;&gt;Node463</title>
<path fill="none" stroke="#191970" d="M82.2793,-135.733C95.0139,-133.7333 108.6396,-131.5938 120.7216,-129.6966"/>
<polygon fill="#191970" stroke="#191970" points="81.64,-132.2904 72.304,-137.2994 82.7259,-139.2057 81.64,-132.2904"/>
</g>
<!-- Node447 -->
<g id="node3" class="node">
<title>Node447</title>
<g id="a_node3"><a xlink:href="$clset_8h.html#add82b1503285b43b57b320ea3ef78a85" xlink:title="Provides reinforcement to the set and performs set subsumption. ">
<polygon fill="none" stroke="#000000" points="326,-152.5 326,-171.5 398,-171.5 398,-152.5 326,-152.5"/>
<text text-anchor="middle" x="362" y="-159.5" font-family="Helvetica,sans-Serif" font-size="10.00" fill="#000000">clset_update</text>
</a>
</g>
</g>
<!-- Node446&#45;&gt;Node447 -->
<g id="edge2" class="edge">
<title>Node446&#45;&gt;Node447</title>
<path fill="none" stroke="#191970" d="M216.3198,-162C251.7228,-162 295.5359,-162 325.8174,-162"/>
<polygon fill="#191970" stroke="#191970" points="216.1026,-158.5001 206.1026,-162 216.1026,-165.5001 216.1026,-158.5001"/>
</g>
<!-- Node448 -->
<g id="node4" class="node">
<title>Node448</title>
<g id="a_node4"><a xlink:href="$xcs__multi__step_8c.html#ad50c415970b4bfc42f469fb38c5e68fa" xlink:title="Executes a multi&#45;step trial using a built&#45;in environment. ">
<polygon fill="none" stroke="#000000" points="443,-190.5 443,-209.5 523,-209.5 523,-190.5 443,-190.5"/>
<text text-anchor="middle" x="483" y="-197.5" font-family="Helvetica,sans-Serif" font-size="10.00" fill="#000000">xcs_multi_trial</text>
</a>
</g>
</g>
<!-- Node447&#45;&gt;Node448 -->
<g id="edge3" class="edge">
<title>Node447&#45;&gt;Node448</title>
<path fill="none" stroke="#191970" d="M402.3771,-174.6804C418.7262,-179.8148 437.2878,-185.6441 452.4764,-190.4141"/>
<polygon fill="#191970" stroke="#191970" points="403.1227,-171.2461 392.5334,-171.589 401.0253,-177.9245 403.1227,-171.2461"/>
</g>
<!-- Node451 -->
<g id="node7" class="node">
<title>Node451</title>
<g id="a_node7"><a xlink:href="$xcs__single__step_8h.html#a0ff6b521f66224d56ef0e6f50f5781b9" xlink:title="Creates the action set, updates the classifiers and runs the EA. ">
<polygon fill="none" stroke="#000000" points="434,-152.5 434,-171.5 532,-171.5 532,-152.5 434,-152.5"/>
<text text-anchor="middle" x="483" y="-159.5" font-family="Helvetica,sans-Serif" font-size="10.00" fill="#000000">xcs_single_update</text>
</a>
</g>
</g>
<!-- Node447&#45;&gt;Node451 -->
<g id="edge6" class="edge">
<title>Node447&#45;&gt;Node451</title>
<path fill="none" stroke="#191970" d="M408.5202,-162C416.7802,-162 425.4081,-162 433.741,-162"/>
<polygon fill="#191970" stroke="#191970" points="408.304,-158.5001 398.304,-162 408.304,-165.5001 408.304,-158.5001"/>
</g>
<!-- Node456 -->
<g id="node12" class="node">
<title>Node456</title>
<g id="a_node12"><a xlink:href="$xcsf_8c.html#af5fb604e81235fdcb2ed8925d9291f59" xlink:title="Executes a single XCSF trial. ">
<polygon fill="none" stroke="#000000" points="455,-114.5 455,-133.5 511,-133.5 511,-114.5 455,-114.5"/>
<text text-anchor="middle" x="483" y="-121.5" font-family="Helvetica,sans-Serif" font-size="10.00" fill="#000000">xcsf_trial</text>
</a>
</g>
</g>
<!-- Node447&#45;&gt;Node456 -->
<g id="edge12" class="edge">
<title>Node447&#45;&gt;Node456</title>
<path fill="none" stroke="#191970" d="M402.3595,-149.3251C419.617,-143.9054 439.3424,-137.7107 454.9646,-132.8045"/>
<polygon fill="#191970" stroke="#191970" points="401.0253,-146.0755 392.5334,-152.411 403.1227,-152.7539 401.0253,-146.0755"/>
</g>
<!-- Node449 -->
<g id="node5" class="node">
<title>Node449</title>
<g id="a_node5"><a xlink:href="$xcs__multi__step_8h.html#acc29d4a55dbd56c16ea5f19f15a7c677" xlink:title="Executes a multi&#45;step reinforcement learning experiment. ">
<polygon fill="none" stroke="#000000" points="710,-228.5 710,-247.5 814,-247.5 814,-228.5 710,-228.5"/>
<text text-anchor="middle" x="762" y="-235.5" font-family="Helvetica,sans-Serif" font-size="10.00" fill="#000000">xcs_multi_step_exp</text>
</a>
</g>
</g>
<!-- Node448&#45;&gt;Node449 -->
<g id="edge4" class="edge">
<title>Node448&#45;&gt;Node449</title>
<path fill="none" stroke="#191970" d="M530.7899,-211.7578C542.8756,-214.4342 555.8686,-217.0575 568,-219 615.785,-226.6512 670.7184,-231.6831 709.9039,-234.6346"/>
<polygon fill="#191970" stroke="#191970" points="531.4169,-208.3112 520.8902,-209.511 529.8675,-215.1375 531.4169,-208.3112"/>
</g>
<!-- Node450 -->
<g id="node6" class="node">
<title>Node450</title>
<g id="a_node6"><a xlink:href="$main_8c.html#a3c04138a5bfe5d72780bb7e82a18e627" xlink:title="main">
<polygon fill="none" stroke="#000000" points="906,-190.5 906,-209.5 944,-209.5 944,-190.5 906,-190.5"/>
<text text-anchor="middle" x="925" y="-197.5" font-family="Helvetica,sans-Serif" font-size="10.00" fill="#000000">main</text>
</a>
</g>
</g>
<!-- Node449&#45;&gt;Node450 -->
<g id="edge5" class="edge">
<title>Node449&#45;&gt;Node450</title>
<path fill="none" stroke="#191970" d="M813.0525,-226.0982C844.4599,-218.7762 882.9128,-209.8117 905.6012,-204.5224"/>
<polygon fill="#191970" stroke="#191970" points="812.076,-222.7319 803.1318,-228.411 813.6653,-229.5491 812.076,-222.7319"/>
</g>
<!-- Node452 -->
<g id="node8" class="node">
<title>Node452</title>
<g id="a_node8"><a xlink:href="$structXCS.html#aedc01ad6f00a54b260a7605929a1d4c9" xlink:title="XCS::single_update">
<polygon fill="none" stroke="#000000" points="568,-152.5 568,-171.5 672,-171.5 672,-152.5 568,-152.5"/>
<text text-anchor="middle" x="620" y="-159.5" font-family="Helvetica,sans-Serif" font-size="10.00" fill="#000000">XCS::single_update</text>
</a>
</g>
</g>
<!-- Node451&#45;&gt;Node452 -->
<g id="edge7" class="edge">
<title>Node451&#45;&gt;Node452</title>
<path fill="none" stroke="#191970" d="M542.2254,-162C550.6549,-162 559.2753,-162 567.5632,-162"/>
<polygon fill="#191970" stroke="#191970" points="542.0732,-158.5001 532.0732,-162 542.0731,-165.5001 542.0732,-158.5001"/>
</g>
<!-- Node454 -->
<g id="node10" class="node">
<title>Node454</title>
<g id="a_node10"><a xlink:href="$xcs__single__step_8c.html#a536ab4256e871e31959ea6e907455340" xlink:title="Executes a single&#45;step trial using a built&#45;in environment. ">
<polygon fill="none" stroke="#000000" points="578,-190.5 578,-209.5 662,-209.5 662,-190.5 578,-190.5"/>
<text text-anchor="middle" x="620" y="-197.5" font-family="Helvetica,sans-Serif" font-size="10.00" fill="#000000">xcs_single_trial</text>
</a>
</g>
</g>
<!-- Node451&#45;&gt;Node454 -->
<g id="edge9" class="edge">
<title>Node451&#45;&gt;Node454</title>
<path fill="none" stroke="#191970" d="M527.4108,-174.3183C546.2337,-179.5393 567.8376,-185.5316 585.4402,-190.4141"/>
<polygon fill="#191970" stroke="#191970" points="528.1426,-170.8892 517.5709,-171.589 526.2716,-177.6346 528.1426,-170.8892"/>
</g>
<!-- Node453 -->
<g id="node9" class="node">
<title>Node453</title>
<g id="a_node9"><a xlink:href="$python__wrapper_8cpp.html#afbdcc1358036a0b83a6b239da2b098a2" xlink:title="BOOST_PYTHON_MODULE">
<polygon fill="none" stroke="#000000" points="852,-57.5 852,-76.5 998,-76.5 998,-57.5 852,-57.5"/>
<text text-anchor="middle" x="925" y="-64.5" font-family="Helvetica,sans-Serif" font-size="10.00" fill="#000000">BOOST_PYTHON_MODULE</text>
</a>
</g>
</g>
<!-- Node452&#45;&gt;Node453 -->
<g id="edge8" class="edge">
<title>Node452&#45;&gt;Node453</title>
<path fill="none" stroke="#191970" d="M664.5475,-149.7635C704.4055,-138.6446 764.3418,-121.5037 816,-105 844.4442,-95.9127 876.7024,-84.5307 898.6992,-76.6036"/>
<polygon fill="#191970" stroke="#191970" points="663.5605,-146.405 654.8639,-152.4565 665.4361,-153.1491 663.5605,-146.405"/>
</g>
<!-- Node455 -->
<g id="node11" class="node">
<title>Node455</title>
<g id="a_node11"><a xlink:href="$xcs__single__step_8h.html#a39a031bf59eaa9b33e30e614610dcda8" xlink:title="Executes a single&#45;step reinforcement learning experiment. ">
<polygon fill="none" stroke="#000000" points="708,-190.5 708,-209.5 816,-209.5 816,-190.5 708,-190.5"/>
<text text-anchor="middle" x="762" y="-197.5" font-family="Helvetica,sans-Serif" font-size="10.00" fill="#000000">xcs_single_step_exp</text>
</a>
</g>
</g>
<!-- Node454&#45;&gt;Node455 -->
<g id="edge10" class="edge">
<title>Node454&#45;&gt;Node455</title>
<path fill="none" stroke="#191970" d="M672.551,-200C684.0539,-200 696.2511,-200 707.8166,-200"/>
<polygon fill="#191970" stroke="#191970" points="672.2203,-196.5001 662.2202,-200 672.2202,-203.5001 672.2203,-196.5001"/>
</g>
<!-- Node455&#45;&gt;Node450 -->
<g id="edge11" class="edge">
<title>Node455&#45;&gt;Node450</title>
<path fill="none" stroke="#191970" d="M826.611,-200C855.0891,-200 886.4445,-200 905.9303,-200"/>
<polygon fill="#191970" stroke="#191970" points="826.2767,-196.5001 816.2766,-200 826.2766,-203.5001 826.2767,-196.5001"/>
</g>
<!-- Node457 -->
<g id="node13" class="node">
<title>Node457</title>
<g id="a_node13"><a xlink:href="$xcsf_8h.html#aee465caea59599a71fc69528598156cb" xlink:title="Executes MAX_TRIALS number of XCSF learning iterations using the training. data and test iterations u...">
<polygon fill="none" stroke="#000000" points="595.5,-114.5 595.5,-133.5 644.5,-133.5 644.5,-114.5 595.5,-114.5"/>
<text text-anchor="middle" x="620" y="-121.5" font-family="Helvetica,sans-Serif" font-size="10.00" fill="#000000">xcsf_fit</text>
</a>
</g>
</g>
<!-- Node456&#45;&gt;Node457 -->
<g id="edge13" class="edge">
<title>Node456&#45;&gt;Node457</title>
<path fill="none" stroke="#191970" d="M521.1185,-124C544.7972,-124 574.5501,-124 595.2027,-124"/>
<polygon fill="#191970" stroke="#191970" points="521.0546,-120.5001 511.0546,-124 521.0546,-127.5001 521.0546,-120.5001"/>
</g>
<!-- Node459 -->
<g id="node15" class="node">
<title>Node459</title>
<g id="a_node15"><a xlink:href="$xcsf_8h.html#af128a7da769acabe2e841e8d06749b0b" xlink:title="Calculates the XCSF predictions for the provided input. ">
<polygon fill="none" stroke="#000000" points="585,-67.5 585,-86.5 655,-86.5 655,-67.5 585,-67.5"/>
<text text-anchor="middle" x="620" y="-74.5" font-family="Helvetica,sans-Serif" font-size="10.00" fill="#000000">xcsf_predict</text>
</a>
</g>
</g>
<!-- Node456&#45;&gt;Node459 -->
<g id="edge17" class="edge">
<title>Node456&#45;&gt;Node459</title>
<path fill="none" stroke="#191970" d="M520.3188,-111.1972C542.8775,-103.4581 571.172,-93.7512 591.847,-86.6583"/>
<polygon fill="#191970" stroke="#191970" points="519.0471,-107.9332 510.724,-114.4888 521.3186,-114.5544 519.0471,-107.9332"/>
</g>
<!-- Node461 -->
<g id="node17" class="node">
<title>Node461</title>
<g id="a_node17"><a xlink:href="$xcsf_8h.html#a348b8cd321211c377fb1deedc62c7c67" xlink:title="Calculates the XCSF error for the input data. ">
<polygon fill="none" stroke="#000000" points="587.5,-10.5 587.5,-29.5 652.5,-29.5 652.5,-10.5 587.5,-10.5"/>
<text text-anchor="middle" x="620" y="-17.5" font-family="Helvetica,sans-Serif" font-size="10.00" fill="#000000">xcsf_score</text>
</a>
</g>
</g>
<!-- Node456&#45;&gt;Node461 -->
<g id="edge20" class="edge">
<title>Node456&#45;&gt;Node461</title>
<path fill="none" stroke="#191970" d="M503.1809,-108.0637C520.3234,-94.5911 545.6351,-74.849 568,-58 581.0388,-48.177 596.1185,-37.1986 606.6703,-29.5777"/>
<polygon fill="#191970" stroke="#191970" points="500.7119,-105.553 495.02,-114.4891 505.0422,-111.0529 500.7119,-105.553"/>
</g>
<!-- Node457&#45;&gt;Node450 -->
<g id="edge14" class="edge">
<title>Node457&#45;&gt;Node450</title>
<path fill="none" stroke="#191970" d="M654.7772,-132.6658C719.2601,-148.7337 855.3818,-182.6525 905.7389,-195.2005"/>
<polygon fill="#191970" stroke="#191970" points="655.2507,-129.1768 644.7011,-130.155 653.5581,-135.9691 655.2507,-129.1768"/>
</g>
<!-- Node458 -->
<g id="node14" class="node">
<title>Node458</title>
<g id="a_node14"><a xlink:href="$structXCS.html#ad2ccafe59d2b4ae6d0e1cbc15edee53c" xlink:title="XCS::fit">
<polygon fill="none" stroke="#000000" points="736,-76.5 736,-95.5 788,-95.5 788,-76.5 736,-76.5"/>
<text text-anchor="middle" x="762" y="-83.5" font-family="Helvetica,sans-Serif" font-size="10.00" fill="#000000">XCS::fit</text>
</a>
</g>
</g>
<!-- Node457&#45;&gt;Node458 -->
<g id="edge15" class="edge">
<title>Node457&#45;&gt;Node458</title>
<path fill="none" stroke="#191970" d="M654.5399,-114.7569C679.5192,-108.0723 712.7618,-99.1764 735.6237,-93.0585"/>
<polygon fill="#191970" stroke="#191970" points="653.4898,-111.4147 644.7345,-117.3809 655.2994,-118.1768 653.4898,-111.4147"/>
</g>
<!-- Node458&#45;&gt;Node453 -->
<g id="edge16" class="edge">
<title>Node458&#45;&gt;Node453</title>
<path fill="none" stroke="#191970" d="M798.5233,-81.7427C814.2717,-79.907 833.2822,-77.691 851.7251,-75.5412"/>
<polygon fill="#191970" stroke="#191970" points="797.7163,-78.313 788.1888,-82.9473 798.5268,-85.2659 797.7163,-78.313"/>
</g>
<!-- Node460 -->
<g id="node16" class="node">
<title>Node460</title>
<g id="a_node16"><a xlink:href="$structXCS.html#a911ed75c86abed7807d33eb1385240ed" xlink:title="XCS::predict">
<polygon fill="none" stroke="#000000" points="725.5,-38.5 725.5,-57.5 798.5,-57.5 798.5,-38.5 725.5,-38.5"/>
<text text-anchor="middle" x="762" y="-45.5" font-family="Helvetica,sans-Serif" font-size="10.00" fill="#000000">XCS::predict</text>
</a>
</g>
</g>
<!-- Node459&#45;&gt;Node460 -->
<g id="edge18" class="edge">
<title>Node459&#45;&gt;Node460</title>
<path fill="none" stroke="#191970" d="M664.9613,-67.8178C684.4161,-63.8446 706.8989,-59.253 725.3219,-55.4906"/>
<polygon fill="#191970" stroke="#191970" points="664.1985,-64.4012 655.1011,-69.8315 665.5993,-71.2596 664.1985,-64.4012"/>
</g>
<!-- Node460&#45;&gt;Node453 -->
<g id="edge19" class="edge">
<title>Node460&#45;&gt;Node453</title>
<path fill="none" stroke="#191970" d="M808.5613,-53.4274C822.0572,-55.0005 837.1298,-56.7575 851.8365,-58.4717"/>
<polygon fill="#191970" stroke="#191970" points="808.9184,-49.9454 798.5804,-52.264 808.1079,-56.8983 808.9184,-49.9454"/>
</g>
<!-- Node462 -->
<g id="node18" class="node">
<title>Node462</title>
<g id="a_node18"><a xlink:href="$structXCS.html#aa77bc77484d6d14bf512304a23cfec88" xlink:title="XCS::score">
<polygon fill="none" stroke="#000000" points="728,-.5 728,-19.5 796,-19.5 796,-.5 728,-.5"/>
<text text-anchor="middle" x="762" y="-7.5" font-family="Helvetica,sans-Serif" font-size="10.00" fill="#000000">XCS::score</text>
</a>
</g>
</g>
<!-- Node461&#45;&gt;Node462 -->
<g id="edge21" class="edge">
<title>Node461&#45;&gt;Node462</title>
<path fill="none" stroke="#191970" d="M662.7215,-16.9914C683.4707,-15.5302 708.0715,-13.7978 727.5932,-12.423"/>
<polygon fill="#191970" stroke="#191970" points="662.3071,-13.5119 652.5777,-17.7058 662.7989,-20.4946 662.3071,-13.5119"/>
</g>
<!-- Node462&#45;&gt;Node453 -->
<g id="edge22" class="edge">
<title>Node462&#45;&gt;Node453</title>
<path fill="none" stroke="#191970" d="M798.9708,-22.9285C828.9626,-33.4164 870.5636,-47.9639 897.6285,-57.4284"/>
<polygon fill="#191970" stroke="#191970" points="799.8774,-19.5377 789.2825,-19.5405 797.5667,-26.1453 799.8774,-19.5377"/>
</g>
<!-- Node464 -->
<g id="node20" class="node">
<title>Node464</title>
<g id="a_node20"><a xlink:href="$ea_8c.html#a72cd70b4efb82200d9c3004e1658a69c" xlink:title="Adds offspring to the population. ">
<polygon fill="none" stroke="#000000" points="242,-114.5 242,-133.5 290,-133.5 290,-114.5 242,-114.5"/>
<text text-anchor="middle" x="266" y="-121.5" font-family="Helvetica,sans-Serif" font-size="10.00" fill="#000000">ea_add</text>
</a>
</g>
</g>
<!-- Node463&#45;&gt;Node464 -->
<g id="edge24" class="edge">
<title>Node463&#45;&gt;Node464</title>
<path fill="none" stroke="#191970" d="M203.6609,-124C216.8277,-124 230.6179,-124 241.8707,-124"/>
<polygon fill="#191970" stroke="#191970" points="203.2955,-120.5001 193.2954,-124 203.2954,-127.5001 203.2955,-120.5001"/>
</g>
<!-- Node465 -->
<g id="node21" class="node">
<title>Node465</title>
<g id="a_node21"><a xlink:href="$ea_8h.html#ae90a9b4131bb94462265b9c928499eb8" xlink:title="Executes the evolutionary algorithm (EA). ">
<polygon fill="none" stroke="#000000" points="347.5,-114.5 347.5,-133.5 376.5,-133.5 376.5,-114.5 347.5,-114.5"/>
<text text-anchor="middle" x="362" y="-121.5" font-family="Helvetica,sans-Serif" font-size="10.00" fill="#000000">ea</text>
</a>
</g>
</g>
<!-- Node464&#45;&gt;Node465 -->
<g id="edge25" class="edge">
<title>Node464&#45;&gt;Node465</title>
<path fill="none" stroke="#191970" d="M300.4184,-124C316.5491,-124 334.9096,-124 347.3544,-124"/>
<polygon fill="#191970" stroke="#191970" points="300.2249,-120.5001 290.2249,-124 300.2248,-127.5001 300.2249,-120.5001"/>
</g>
<!-- Node465&#45;&gt;Node448 -->
<g id="edge26" class="edge">
<title>Node465&#45;&gt;Node448</title>
<path fill="none" stroke="#191970" d="M385.713,-135.0907C389.9563,-137.4679 394.2243,-140.1355 398,-143 416.5342,-157.0612 414.6837,-168.0341 434,-181 439.5302,-184.7121 445.8909,-187.8521 452.1587,-190.4445"/>
<polygon fill="#191970" stroke="#191970" points="387.1512,-131.8937 376.6641,-130.3865 383.9224,-138.1046 387.1512,-131.8937"/>
</g>
<!-- Node465&#45;&gt;Node451 -->
<g id="edge27" class="edge">
<title>Node465&#45;&gt;Node451</title>
<path fill="none" stroke="#191970" d="M386.5961,-131.7244C405.7053,-137.7256 432.3023,-146.0784 452.7203,-152.4907"/>
<polygon fill="#191970" stroke="#191970" points="387.4263,-128.3166 376.837,-128.6595 385.3289,-134.995 387.4263,-128.3166"/>
</g>
<!-- Node465&#45;&gt;Node456 -->
<g id="edge28" class="edge">
<title>Node465&#45;&gt;Node456</title>
<path fill="none" stroke="#191970" d="M386.8816,-124C406.58,-124 434.1018,-124 454.65,-124"/>
<polygon fill="#191970" stroke="#191970" points="386.837,-120.5001 376.837,-124 386.8369,-127.5001 386.837,-120.5001"/>
</g>
</g>
</svg>
