<?xml version="1.0" encoding="UTF-8" standalone="no"?>
<!DOCTYPE svg PUBLIC "-//W3C//DTD SVG 1.1//EN"
 "http://www.w3.org/Graphics/SVG/1.1/DTD/svg11.dtd">
<!-- Generated by graphviz version 2.40.1 (20161225.0304)
 -->
<!-- Title: cl_action Pages: 1 -->
<svg width="747pt" height="256pt"
 viewBox="0.00 0.00 747.00 256.00" xmlns="http://www.w3.org/2000/svg" xmlns:xlink="http://www.w3.org/1999/xlink">
<g id="graph0" class="graph" transform="scale(1 1) rotate(0) translate(4 252)">
<title>cl_action</title>
<!-- Node21 -->
<g id="node1" class="node">
<title>Node21</title>
<polygon fill="#bfbfbf" stroke="#000000" points="0,-171.5 0,-190.5 56,-190.5 56,-171.5 0,-171.5"/>
<text text-anchor="middle" x="28" y="-178.5" font-family="Helvetica,sans-Serif" font-size="10.00" fill="#000000">cl_action</text>
</g>
<!-- Node22 -->
<g id="node2" class="node">
<title>Node22</title>
<g id="a_node2"><a xlink:href="clset_8h.html#a229207544a5b8b601de05d231bb84650" target="_top" xlink:title="Constructs the match set. ">
<polygon fill="none" stroke="#000000" points="92,-171.5 92,-190.5 162,-190.5 162,-171.5 92,-171.5"/>
<text text-anchor="middle" x="127" y="-178.5" font-family="Helvetica,sans-Serif" font-size="10.00" fill="#000000">clset_match</text>
</a>
</g>
</g>
<!-- Node21&#45;&gt;Node22 -->
<g id="edge1" class="edge">
<title>Node21&#45;&gt;Node22</title>
<path fill="none" stroke="#191970" d="M66.374,-181C74.7305,-181 83.533,-181 91.7609,-181"/>
<polygon fill="#191970" stroke="#191970" points="66.1046,-177.5001 56.1046,-181 66.1046,-184.5001 66.1046,-177.5001"/>
</g>
<!-- Node23 -->
<g id="node3" class="node">
<title>Node23</title>
<g id="a_node3"><a xlink:href="xcs__multi__step_8h.html#af2eaa15cba52d29fa3630218d9780a6a" target="_top" xlink:title="Constructs the match set and selects an action to perform. ">
<polygon fill="none" stroke="#000000" points="201,-218.5 201,-237.5 301,-237.5 301,-218.5 201,-218.5"/>
<text text-anchor="middle" x="251" y="-225.5" font-family="Helvetica,sans-Serif" font-size="10.00" fill="#000000">xcs_multi_decision</text>
</a>
</g>
</g>
<!-- Node22&#45;&gt;Node23 -->
<g id="edge2" class="edge">
<title>Node22&#45;&gt;Node23</title>
<path fill="none" stroke="#191970" d="M161.6044,-194.1162C181.8835,-201.8026 207.0571,-211.3442 225.5185,-218.3417"/>
<polygon fill="#191970" stroke="#191970" points="162.6846,-190.7827 152.0933,-190.5112 160.2036,-197.3283 162.6846,-190.7827"/>
</g>
<!-- Node27 -->
<g id="node7" class="node">
<title>Node27</title>
<g id="a_node7"><a xlink:href="xcs__single__step_8h.html#a5c1d53976f601ae3603aed34f0767c29" target="_top" xlink:title="Constructs the match set and selects an action to perform. ">
<polygon fill="none" stroke="#000000" points="199,-171.5 199,-190.5 303,-190.5 303,-171.5 199,-171.5"/>
<text text-anchor="middle" x="251" y="-178.5" font-family="Helvetica,sans-Serif" font-size="10.00" fill="#000000">xcs_single_decision</text>
</a>
</g>
</g>
<!-- Node22&#45;&gt;Node27 -->
<g id="edge6" class="edge">
<title>Node22&#45;&gt;Node27</title>
<path fill="none" stroke="#191970" d="M172.3337,-181C180.8644,-181 189.8497,-181 198.5757,-181"/>
<polygon fill="#191970" stroke="#191970" points="172.2018,-177.5001 162.2017,-181 172.2017,-184.5001 172.2018,-177.5001"/>
</g>
<!-- Node32 -->
<g id="node12" class="node">
<title>Node32</title>
<g id="a_node12"><a xlink:href="xcs__supervised_8c.html#ad48f3f1110cd2295710b91192dc80b31" target="_top" xlink:title="Executes a single XCSF trial. ">
<polygon fill="none" stroke="#000000" points="198,-57.5 198,-76.5 304,-76.5 304,-57.5 198,-57.5"/>
<text text-anchor="middle" x="251" y="-64.5" font-family="Helvetica,sans-Serif" font-size="10.00" fill="#000000">xcs_supervised_trial</text>
</a>
</g>
</g>
<!-- Node22&#45;&gt;Node32 -->
<g id="edge12" class="edge">
<title>Node22&#45;&gt;Node32</title>
<path fill="none" stroke="#191970" d="M144.9675,-164.4815C171.2222,-140.3441 219.2463,-96.1929 240.4546,-76.695"/>
<polygon fill="#191970" stroke="#191970" points="142.5651,-161.9358 137.5722,-171.2804 147.3027,-167.089 142.5651,-161.9358"/>
</g>
<!-- Node24 -->
<g id="node4" class="node">
<title>Node24</title>
<g id="a_node4"><a xlink:href="xcs__multi__step_8c.html#ad50c415970b4bfc42f469fb38c5e68fa" target="_top" xlink:title="Executes a multi&#45;step trial using a built&#45;in environment. ">
<polygon fill="none" stroke="#000000" points="359.5,-228.5 359.5,-247.5 439.5,-247.5 439.5,-228.5 359.5,-228.5"/>
<text text-anchor="middle" x="399.5" y="-235.5" font-family="Helvetica,sans-Serif" font-size="10.00" fill="#000000">xcs_multi_trial</text>
</a>
</g>
</g>
<!-- Node23&#45;&gt;Node24 -->
<g id="edge3" class="edge">
<title>Node23&#45;&gt;Node24</title>
<path fill="none" stroke="#191970" d="M311.6265,-232.0826C327.6193,-233.1596 344.4853,-234.2953 359.1179,-235.2807"/>
<polygon fill="#191970" stroke="#191970" points="311.4879,-228.5654 301.2753,-231.3855 311.0175,-235.5496 311.4879,-228.5654"/>
</g>
<!-- Node25 -->
<g id="node5" class="node">
<title>Node25</title>
<g id="a_node5"><a xlink:href="xcs__multi__step_8h.html#acc29d4a55dbd56c16ea5f19f15a7c677" target="_top" xlink:title="Executes a multi&#45;step reinforcement learning experiment. ">
<polygon fill="none" stroke="#000000" points="498,-228.5 498,-247.5 602,-247.5 602,-228.5 498,-228.5"/>
<text text-anchor="middle" x="550" y="-235.5" font-family="Helvetica,sans-Serif" font-size="10.00" fill="#000000">xcs_multi_step_exp</text>
</a>
</g>
</g>
<!-- Node24&#45;&gt;Node25 -->
<g id="edge4" class="edge">
<title>Node24&#45;&gt;Node25</title>
<path fill="none" stroke="#191970" d="M450.1901,-238C465.5601,-238 482.4655,-238 497.9249,-238"/>
<polygon fill="#191970" stroke="#191970" points="449.8313,-234.5001 439.8312,-238 449.8312,-241.5001 449.8313,-234.5001"/>
</g>
<!-- Node26 -->
<g id="node6" class="node">
<title>Node26</title>
<g id="a_node6"><a xlink:href="main_8c.html#a3c04138a5bfe5d72780bb7e82a18e627" target="_top" xlink:title="main">
<polygon fill="none" stroke="#000000" points="671,-190.5 671,-209.5 709,-209.5 709,-190.5 671,-190.5"/>
<text text-anchor="middle" x="690" y="-197.5" font-family="Helvetica,sans-Serif" font-size="10.00" fill="#000000">main</text>
</a>
</g>
</g>
<!-- Node25&#45;&gt;Node26 -->
<g id="edge5" class="edge">
<title>Node25&#45;&gt;Node26</title>
<path fill="none" stroke="#191970" d="M595.1824,-225.7362C620.6942,-218.8116 651.2578,-210.5157 670.6531,-205.2513"/>
<polygon fill="#191970" stroke="#191970" points="594.0619,-222.4136 585.3279,-228.411 595.8956,-229.1692 594.0619,-222.4136"/>
</g>
<!-- Node28 -->
<g id="node8" class="node">
<title>Node28</title>
<g id="a_node8"><a xlink:href="classXCS.html#a92001d251c372244fd07c624f2dcff83" target="_top" xlink:title="XCS::single_decision">
<polygon fill="none" stroke="#000000" points="495,-152.5 495,-171.5 605,-171.5 605,-152.5 495,-152.5"/>
<text text-anchor="middle" x="550" y="-159.5" font-family="Helvetica,sans-Serif" font-size="10.00" fill="#000000">XCS::single_decision</text>
</a>
</g>
</g>
<!-- Node27&#45;&gt;Node28 -->
<g id="edge7" class="edge">
<title>Node27&#45;&gt;Node28</title>
<path fill="none" stroke="#191970" d="M313.1512,-177.0506C366.7866,-173.6423 443.5252,-168.766 494.9738,-165.4966"/>
<polygon fill="#191970" stroke="#191970" points="312.8397,-173.5632 303.0818,-177.6905 313.2837,-180.5491 312.8397,-173.5632"/>
</g>
<!-- Node30 -->
<g id="node10" class="node">
<title>Node30</title>
<g id="a_node10"><a xlink:href="xcs__single__step_8c.html#a536ab4256e871e31959ea6e907455340" target="_top" xlink:title="Executes a single&#45;step trial using a built&#45;in environment. ">
<polygon fill="none" stroke="#000000" points="357.5,-190.5 357.5,-209.5 441.5,-209.5 441.5,-190.5 357.5,-190.5"/>
<text text-anchor="middle" x="399.5" y="-197.5" font-family="Helvetica,sans-Serif" font-size="10.00" fill="#000000">xcs_single_trial</text>
</a>
</g>
</g>
<!-- Node27&#45;&gt;Node30 -->
<g id="edge9" class="edge">
<title>Node27&#45;&gt;Node30</title>
<path fill="none" stroke="#191970" d="M313.4758,-188.9935C328.2851,-190.8883 343.7357,-192.8652 357.3896,-194.6121"/>
<polygon fill="#191970" stroke="#191970" points="313.7189,-185.4962 303.3555,-187.6987 312.8305,-192.4396 313.7189,-185.4962"/>
</g>
<!-- Node29 -->
<g id="node9" class="node">
<title>Node29</title>
<g id="a_node9"><a xlink:href="pybind__wrapper_8cpp.html#a9f26280e01308c4674f2473fb6f78730" target="_top" xlink:title="pybind11_init_xcsf">
<polygon fill="none" stroke="#000000" points="641,-57.5 641,-76.5 739,-76.5 739,-57.5 641,-57.5"/>
<text text-anchor="middle" x="690" y="-64.5" font-family="Helvetica,sans-Serif" font-size="10.00" fill="#000000">pybind11_init_xcsf</text>
</a>
</g>
</g>
<!-- Node28&#45;&gt;Node29 -->
<g id="edge8" class="edge">
<title>Node28&#45;&gt;Node29</title>
<path fill="none" stroke="#191970" d="M572.5086,-146.7263C601.6071,-126.9809 651.4243,-93.1763 675.768,-76.6574"/>
<polygon fill="#191970" stroke="#191970" points="570.5039,-143.8569 564.1944,-152.3681 574.4344,-149.6492 570.5039,-143.8569"/>
</g>
<!-- Node31 -->
<g id="node11" class="node">
<title>Node31</title>
<g id="a_node11"><a xlink:href="xcs__single__step_8h.html#a39a031bf59eaa9b33e30e614610dcda8" target="_top" xlink:title="Executes a single&#45;step reinforcement learning experiment. ">
<polygon fill="none" stroke="#000000" points="496,-190.5 496,-209.5 604,-209.5 604,-190.5 496,-190.5"/>
<text text-anchor="middle" x="550" y="-197.5" font-family="Helvetica,sans-Serif" font-size="10.00" fill="#000000">xcs_single_step_exp</text>
</a>
</g>
</g>
<!-- Node30&#45;&gt;Node31 -->
<g id="edge10" class="edge">
<title>Node30&#45;&gt;Node31</title>
<path fill="none" stroke="#191970" d="M451.9334,-200C466.1549,-200 481.5773,-200 495.8895,-200"/>
<polygon fill="#191970" stroke="#191970" points="451.8232,-196.5001 441.8231,-200 451.8231,-203.5001 451.8232,-196.5001"/>
</g>
<!-- Node31&#45;&gt;Node26 -->
<g id="edge11" class="edge">
<title>Node31&#45;&gt;Node26</title>
<path fill="none" stroke="#191970" d="M614.1791,-200C634.8302,-200 656.1618,-200 670.9174,-200"/>
<polygon fill="#191970" stroke="#191970" points="614.1277,-196.5001 604.1277,-200 614.1276,-203.5001 614.1277,-196.5001"/>
</g>
<!-- Node33 -->
<g id="node13" class="node">
<title>Node33</title>
<g id="a_node13"><a xlink:href="xcs__supervised_8h.html#aa4daa45596a8cf402d58d029f780db3a" target="_top" xlink:title="Executes MAX_TRIALS number of XCSF learning iterations using the training data and test iterations us...">
<polygon fill="none" stroke="#000000" points="350.5,-76.5 350.5,-95.5 448.5,-95.5 448.5,-76.5 350.5,-76.5"/>
<text text-anchor="middle" x="399.5" y="-83.5" font-family="Helvetica,sans-Serif" font-size="10.00" fill="#000000">xcs_supervised_fit</text>
</a>
</g>
</g>
<!-- Node32&#45;&gt;Node33 -->
<g id="edge13" class="edge">
<title>Node32&#45;&gt;Node33</title>
<path fill="none" stroke="#191970" d="M314.1737,-75.0828C326.2011,-76.6217 338.6252,-78.2113 350.1451,-79.6852"/>
<polygon fill="#191970" stroke="#191970" points="314.5558,-71.6033 304.1925,-73.8058 313.6674,-78.5467 314.5558,-71.6033"/>
</g>
<!-- Node35 -->
<g id="node15" class="node">
<title>Node35</title>
<g id="a_node15"><a xlink:href="xcs__supervised_8h.html#a11b5fbece61ea9da003cda48fbf7d728" target="_top" xlink:title="Calculates the XCSF predictions for the provided input. ">
<polygon fill="none" stroke="#000000" points="340,-38.5 340,-57.5 459,-57.5 459,-38.5 340,-38.5"/>
<text text-anchor="middle" x="399.5" y="-45.5" font-family="Helvetica,sans-Serif" font-size="10.00" fill="#000000">xcs_supervised_predict</text>
</a>
</g>
</g>
<!-- Node32&#45;&gt;Node35 -->
<g id="edge17" class="edge">
<title>Node32&#45;&gt;Node35</title>
<path fill="none" stroke="#191970" d="M314.3802,-58.8908C322.8353,-57.809 331.4826,-56.7026 339.8707,-55.6293"/>
<polygon fill="#191970" stroke="#191970" points="313.6674,-55.4533 304.1925,-60.1942 314.5558,-62.3967 313.6674,-55.4533"/>
</g>
<!-- Node37 -->
<g id="node17" class="node">
<title>Node37</title>
<g id="a_node17"><a xlink:href="xcs__supervised_8h.html#a19dea220a72a3646e490ff13ea7ed5fa" target="_top" xlink:title="Calculates the XCSF error for the input data. ">
<polygon fill="none" stroke="#000000" points="342.5,-.5 342.5,-19.5 456.5,-19.5 456.5,-.5 342.5,-.5"/>
<text text-anchor="middle" x="399.5" y="-7.5" font-family="Helvetica,sans-Serif" font-size="10.00" fill="#000000">xcs_supervised_score</text>
</a>
</g>
</g>
<!-- Node32&#45;&gt;Node37 -->
<g id="edge20" class="edge">
<title>Node32&#45;&gt;Node37</title>
<path fill="none" stroke="#191970" d="M281.4431,-53.1575C298.502,-45.615 320.2565,-36.3485 340,-29 348.9431,-25.6714 358.7686,-22.3861 367.8131,-19.5076"/>
<polygon fill="#191970" stroke="#191970" points="279.7001,-50.1024 271.9924,-57.3717 282.5509,-56.4956 279.7001,-50.1024"/>
</g>
<!-- Node33&#45;&gt;Node26 -->
<g id="edge14" class="edge">
<title>Node33&#45;&gt;Node26</title>
<path fill="none" stroke="#191970" d="M458.6001,-97.1253C500.6467,-106.2884 557.8127,-121.3223 605,-143 633.2548,-155.9802 662.6005,-177.8501 678.3422,-190.3902"/>
<polygon fill="#191970" stroke="#191970" points="459.3021,-93.6964 448.7921,-95.0343 457.8425,-100.5426 459.3021,-93.6964"/>
</g>
<!-- Node34 -->
<g id="node14" class="node">
<title>Node34</title>
<g id="a_node14"><a xlink:href="classXCS.html#ac9a4a7cb0ec6238ef1d4d77996f8975b" target="_top" xlink:title="XCS::fit">
<polygon fill="none" stroke="#000000" points="524,-76.5 524,-95.5 576,-95.5 576,-76.5 524,-76.5"/>
<text text-anchor="middle" x="550" y="-83.5" font-family="Helvetica,sans-Serif" font-size="10.00" fill="#000000">XCS::fit</text>
</a>
</g>
</g>
<!-- Node33&#45;&gt;Node34 -->
<g id="edge15" class="edge">
<title>Node33&#45;&gt;Node34</title>
<path fill="none" stroke="#191970" d="M458.9536,-86C481.4672,-86 505.9561,-86 523.8601,-86"/>
<polygon fill="#191970" stroke="#191970" points="458.7794,-82.5001 448.7793,-86 458.7793,-89.5001 458.7794,-82.5001"/>
</g>
<!-- Node34&#45;&gt;Node29 -->
<g id="edge16" class="edge">
<title>Node34&#45;&gt;Node29</title>
<path fill="none" stroke="#191970" d="M585.9243,-81.1246C602.6465,-78.8551 622.8002,-76.12 640.9011,-73.6634"/>
<polygon fill="#191970" stroke="#191970" points="585.4433,-77.6577 576.0048,-82.4708 586.3847,-84.5941 585.4433,-77.6577"/>
</g>
<!-- Node36 -->
<g id="node16" class="node">
<title>Node36</title>
<g id="a_node16"><a xlink:href="classXCS.html#a8e8db281054f9e5937610eed434cd4a5" target="_top" xlink:title="XCS::predict">
<polygon fill="none" stroke="#000000" points="513.5,-38.5 513.5,-57.5 586.5,-57.5 586.5,-38.5 513.5,-38.5"/>
<text text-anchor="middle" x="550" y="-45.5" font-family="Helvetica,sans-Serif" font-size="10.00" fill="#000000">XCS::predict</text>
</a>
</g>
</g>
<!-- Node35&#45;&gt;Node36 -->
<g id="edge18" class="edge">
<title>Node35&#45;&gt;Node36</title>
<path fill="none" stroke="#191970" d="M469.7524,-48C484.7901,-48 500.0952,-48 513.2513,-48"/>
<polygon fill="#191970" stroke="#191970" points="469.4141,-44.5001 459.414,-48 469.414,-51.5001 469.4141,-44.5001"/>
</g>
<!-- Node36&#45;&gt;Node29 -->
<g id="edge19" class="edge">
<title>Node36&#45;&gt;Node29</title>
<path fill="none" stroke="#191970" d="M596.7965,-54.351C610.9473,-56.2714 626.5245,-58.3855 640.8258,-60.3264"/>
<polygon fill="#191970" stroke="#191970" points="597.1632,-50.8687 586.7834,-52.992 596.2218,-57.8051 597.1632,-50.8687"/>
</g>
<!-- Node38 -->
<g id="node18" class="node">
<title>Node38</title>
<g id="a_node18"><a xlink:href="classXCS.html#ad32ffc841106ec036029e4c90a33b761" target="_top" xlink:title="XCS::score">
<polygon fill="none" stroke="#000000" points="516,-.5 516,-19.5 584,-19.5 584,-.5 516,-.5"/>
<text text-anchor="middle" x="550" y="-7.5" font-family="Helvetica,sans-Serif" font-size="10.00" fill="#000000">XCS::score</text>
</a>
</g>
</g>
<!-- Node37&#45;&gt;Node38 -->
<g id="edge21" class="edge">
<title>Node37&#45;&gt;Node38</title>
<path fill="none" stroke="#191970" d="M467.2339,-10C484.1031,-10 501.4812,-10 515.9315,-10"/>
<polygon fill="#191970" stroke="#191970" points="466.827,-6.5001 456.8269,-10 466.8269,-13.5001 466.827,-6.5001"/>
</g>
<!-- Node38&#45;&gt;Node29 -->
<g id="edge22" class="edge">
<title>Node38&#45;&gt;Node29</title>
<path fill="none" stroke="#191970" d="M588.9188,-22.9676C594.3474,-24.915 599.8329,-26.9571 605,-29 627.5483,-37.915 652.8553,-49.429 669.9467,-57.4356"/>
<polygon fill="#191970" stroke="#191970" points="589.8845,-19.5973 579.2897,-19.5851 587.5645,-26.2016 589.8845,-19.5973"/>
</g>
</g>
</svg>
