<?xml version="1.0" encoding="UTF-8" standalone="no"?>
<!DOCTYPE svg PUBLIC "-//W3C//DTD SVG 1.1//EN"
 "http://www.w3.org/Graphics/SVG/1.1/DTD/svg11.dtd">
<!-- Generated by graphviz version 2.40.1 (20161225.0304)
 -->
<!-- Title: cl_load Pages: 1 -->
<svg width="500pt" height="66pt"
 viewBox="0.00 0.00 500.00 66.00" xmlns="http://www.w3.org/2000/svg" xmlns:xlink="http://www.w3.org/1999/xlink">
<g id="graph0" class="graph" transform="scale(1 1) rotate(0) translate(4 62)">
<title>cl_load</title>
<!-- Node250 -->
<g id="node1" class="node">
<title>Node250</title>
<polygon fill="#bfbfbf" stroke="#000000" points="0,-19.5 0,-38.5 47,-38.5 47,-19.5 0,-19.5"/>
<text text-anchor="middle" x="23.5" y="-26.5" font-family="Helvetica,sans-Serif" font-size="10.00" fill="#000000">cl_load</text>
</g>
<!-- Node251 -->
<g id="node2" class="node">
<title>Node251</title>
<g id="a_node2"><a xlink:href="clset_8h.html#a50717081740d969067fe82d38c74b5fc" target="_top" xlink:title="Reads the population set from a binary file. ">
<polygon fill="none" stroke="#000000" points="83,-19.5 83,-38.5 165,-38.5 165,-19.5 83,-19.5"/>
<text text-anchor="middle" x="124" y="-26.5" font-family="Helvetica,sans-Serif" font-size="10.00" fill="#000000">clset_pop_load</text>
</a>
</g>
</g>
<!-- Node250&#45;&gt;Node251 -->
<g id="edge1" class="edge">
<title>Node250&#45;&gt;Node251</title>
<path fill="none" stroke="#191970" d="M57.0902,-29C65.355,-29 74.2977,-29 82.8736,-29"/>
<polygon fill="#191970" stroke="#191970" points="57.0628,-25.5001 47.0628,-29 57.0627,-32.5001 57.0628,-25.5001"/>
</g>
<!-- Node252 -->
<g id="node3" class="node">
<title>Node252</title>
<g id="a_node3"><a xlink:href="xcsf_8h.html#af419720749752a7b5596f9def871a71c" target="_top" xlink:title="Reads the state of XCSF from a binary file. ">
<polygon fill="none" stroke="#000000" points="201,-19.5 201,-38.5 260,-38.5 260,-19.5 201,-19.5"/>
<text text-anchor="middle" x="230.5" y="-26.5" font-family="Helvetica,sans-Serif" font-size="10.00" fill="#000000">xcsf_load</text>
</a>
</g>
</g>
<!-- Node251&#45;&gt;Node252 -->
<g id="edge2" class="edge">
<title>Node251&#45;&gt;Node252</title>
<path fill="none" stroke="#191970" d="M175.3963,-29C184.178,-29 193.0269,-29 200.9863,-29"/>
<polygon fill="#191970" stroke="#191970" points="175.1757,-25.5001 165.1757,-29 175.1756,-32.5001 175.1757,-25.5001"/>
</g>
<!-- Node253 -->
<g id="node4" class="node">
<title>Node253</title>
<g id="a_node4"><a xlink:href="main_8c.html#a3c04138a5bfe5d72780bb7e82a18e627" target="_top" xlink:title="main">
<polygon fill="none" stroke="#000000" points="308,-38.5 308,-57.5 346,-57.5 346,-38.5 308,-38.5"/>
<text text-anchor="middle" x="327" y="-45.5" font-family="Helvetica,sans-Serif" font-size="10.00" fill="#000000">main</text>
</a>
</g>
</g>
<!-- Node252&#45;&gt;Node253 -->
<g id="edge3" class="edge">
<title>Node252&#45;&gt;Node253</title>
<path fill="none" stroke="#191970" d="M270.3799,-36.852C283.3376,-39.4033 297.1261,-42.1181 307.8518,-44.2299"/>
<polygon fill="#191970" stroke="#191970" points="270.7284,-33.3535 260.2406,-34.8557 269.3761,-40.2216 270.7284,-33.3535"/>
</g>
<!-- Node254 -->
<g id="node5" class="node">
<title>Node254</title>
<g id="a_node5"><a xlink:href="classXCS.html#adc9b621f2b7a306fbf381dd0efaf268b" target="_top" xlink:title="XCS::load">
<polygon fill="none" stroke="#000000" points="296,-.5 296,-19.5 358,-19.5 358,-.5 296,-.5"/>
<text text-anchor="middle" x="327" y="-7.5" font-family="Helvetica,sans-Serif" font-size="10.00" fill="#000000">XCS::load</text>
</a>
</g>
</g>
<!-- Node252&#45;&gt;Node254 -->
<g id="edge4" class="edge">
<title>Node252&#45;&gt;Node254</title>
<path fill="none" stroke="#191970" d="M270.0832,-21.2064C278.674,-19.515 287.6438,-17.7489 295.8545,-16.1323"/>
<polygon fill="#191970" stroke="#191970" points="269.3761,-17.7784 260.2406,-23.1443 270.7284,-24.6465 269.3761,-17.7784"/>
</g>
<!-- Node255 -->
<g id="node6" class="node">
<title>Node255</title>
<g id="a_node6"><a xlink:href="pybind__wrapper_8cpp.html#a9f26280e01308c4674f2473fb6f78730" target="_top" xlink:title="pybind11_init_xcsf">
<polygon fill="none" stroke="#000000" points="394,-.5 394,-19.5 492,-19.5 492,-.5 394,-.5"/>
<text text-anchor="middle" x="443" y="-7.5" font-family="Helvetica,sans-Serif" font-size="10.00" fill="#000000">pybind11_init_xcsf</text>
</a>
</g>
</g>
<!-- Node254&#45;&gt;Node255 -->
<g id="edge5" class="edge">
<title>Node254&#45;&gt;Node255</title>
<path fill="none" stroke="#191970" d="M368.2701,-10C376.5664,-10 385.3622,-10 393.8949,-10"/>
<polygon fill="#191970" stroke="#191970" points="368.0859,-6.5001 358.0859,-10 368.0858,-13.5001 368.0859,-6.5001"/>
</g>
</g>
</svg>
