<?xml version="1.0" encoding="UTF-8" standalone="no"?>
<!DOCTYPE svg PUBLIC "-//W3C//DTD SVG 1.1//EN"
 "http://www.w3.org/Graphics/SVG/1.1/DTD/svg11.dtd">
<!-- Generated by graphviz version 2.40.1 (20161225.0304)
 -->
<!-- Title: set_free Pages: 1 -->
<svg width="673pt" height="294pt"
 viewBox="0.00 0.00 673.00 294.00" xmlns="http://www.w3.org/2000/svg" xmlns:xlink="http://www.w3.org/1999/xlink">
<g id="graph0" class="graph" transform="scale(1 1) rotate(0) translate(4 290)">
<title>set_free</title>
<!-- Node298 -->
<g id="node1" class="node">
<title>Node298</title>
<polygon fill="#bfbfbf" stroke="#000000" points="0,-133.5 0,-152.5 52,-152.5 52,-133.5 0,-133.5"/>
<text text-anchor="middle" x="26" y="-140.5" font-family="Helvetica,sans-Serif" font-size="10.00" fill="#000000">set_free</text>
</g>
<!-- Node299 -->
<g id="node2" class="node">
<title>Node299</title>
<g id="a_node2"><a xlink:href="xcs__multi__step_8c.html#af458a8b42e79e924ffcf87a7d9c9711d" target="_top" xlink:title="Executes a multi&#45;step exploit trial. ">
<polygon fill="none" stroke="#000000" points="92,-228.5 92,-247.5 184,-247.5 184,-228.5 92,-228.5"/>
<text text-anchor="middle" x="138" y="-235.5" font-family="Helvetica,sans-Serif" font-size="10.00" fill="#000000">xcs_multi_exploit</text>
</a>
</g>
</g>
<!-- Node298&#45;&gt;Node299 -->
<g id="edge1" class="edge">
<title>Node298&#45;&gt;Node299</title>
<path fill="none" stroke="#191970" d="M36.7533,-161.0371C47.7273,-178.0707 66.209,-203.284 88,-219 93.1969,-222.7481 99.2247,-225.856 105.2579,-228.3966"/>
<polygon fill="#191970" stroke="#191970" points="39.7121,-159.1673 31.4557,-152.5278 33.7697,-162.8669 39.7121,-159.1673"/>
</g>
<!-- Node303 -->
<g id="node6" class="node">
<title>Node303</title>
<g id="a_node6"><a xlink:href="xcs__multi__step_8c.html#a9f6d53384f68b9354b5757dd2c7771fd" target="_top" xlink:title="Executes a multi&#45;step explore trial. ">
<polygon fill="none" stroke="#000000" points="90.5,-266.5 90.5,-285.5 185.5,-285.5 185.5,-266.5 90.5,-266.5"/>
<text text-anchor="middle" x="138" y="-273.5" font-family="Helvetica,sans-Serif" font-size="10.00" fill="#000000">xcs_multi_explore</text>
</a>
</g>
</g>
<!-- Node298&#45;&gt;Node303 -->
<g id="edge5" class="edge">
<title>Node298&#45;&gt;Node303</title>
<path fill="none" stroke="#191970" d="M31.8884,-162.5642C40.3975,-187.7059 58.4374,-231.1806 88,-257 92.4063,-260.8484 97.672,-263.9533 103.1072,-266.4477"/>
<polygon fill="#191970" stroke="#191970" points="35.1188,-161.1759 28.7306,-152.7236 28.4536,-163.3149 35.1188,-161.1759"/>
</g>
<!-- Node304 -->
<g id="node7" class="node">
<title>Node304</title>
<g id="a_node7"><a xlink:href="xcs__single__step_8c.html#a5d3ed7cfbd01de00beaa8e2559f463b5" target="_top" xlink:title="Executes a single&#45;step exploit trial. ">
<polygon fill="none" stroke="#000000" points="89.5,-190.5 89.5,-209.5 186.5,-209.5 186.5,-190.5 89.5,-190.5"/>
<text text-anchor="middle" x="138" y="-197.5" font-family="Helvetica,sans-Serif" font-size="10.00" fill="#000000">xcs_single_exploit</text>
</a>
</g>
</g>
<!-- Node298&#45;&gt;Node304 -->
<g id="edge7" class="edge">
<title>Node298&#45;&gt;Node304</title>
<path fill="none" stroke="#191970" d="M48.407,-158.1363C59.9437,-165.564 74.4087,-174.3253 88,-181 95.0016,-184.4385 102.7917,-187.6661 110.0991,-190.4511"/>
<polygon fill="#191970" stroke="#191970" points="50.1374,-155.0857 39.8552,-152.5307 46.2999,-160.94 50.1374,-155.0857"/>
</g>
<!-- Node306 -->
<g id="node9" class="node">
<title>Node306</title>
<g id="a_node9"><a xlink:href="xcs__single__step_8c.html#aef07baf4de9b02d9c6fd33a1c485e7ea" target="_top" xlink:title="Executes a single&#45;step explore trial. ">
<polygon fill="none" stroke="#000000" points="88,-152.5 88,-171.5 188,-171.5 188,-152.5 88,-152.5"/>
<text text-anchor="middle" x="138" y="-159.5" font-family="Helvetica,sans-Serif" font-size="10.00" fill="#000000">xcs_single_explore</text>
</a>
</g>
</g>
<!-- Node298&#45;&gt;Node306 -->
<g id="edge10" class="edge">
<title>Node298&#45;&gt;Node306</title>
<path fill="none" stroke="#191970" d="M62.1707,-149.1361C70.316,-150.5179 79.104,-152.0087 87.7103,-153.4687"/>
<polygon fill="#191970" stroke="#191970" points="62.7036,-145.6766 52.259,-147.4547 61.5327,-152.578 62.7036,-145.6766"/>
</g>
<!-- Node307 -->
<g id="node10" class="node">
<title>Node307</title>
<g id="a_node10"><a xlink:href="xcsf_8c.html#a6dfb03d255a2684e9e06e88f9a4e3a3d" target="_top" xlink:title="Executes a single XCSF learning trial. ">
<polygon fill="none" stroke="#000000" points="96.5,-76.5 96.5,-95.5 179.5,-95.5 179.5,-76.5 96.5,-76.5"/>
<text text-anchor="middle" x="138" y="-83.5" font-family="Helvetica,sans-Serif" font-size="10.00" fill="#000000">xcsf_learn_trial</text>
</a>
</g>
</g>
<!-- Node298&#45;&gt;Node307 -->
<g id="edge12" class="edge">
<title>Node298&#45;&gt;Node307</title>
<path fill="none" stroke="#191970" d="M48.407,-127.8637C59.9437,-120.436 74.4087,-111.6747 88,-105 95.0016,-101.5615 102.7917,-98.3339 110.0991,-95.5489"/>
<polygon fill="#191970" stroke="#191970" points="46.2999,-125.06 39.8552,-133.4693 50.1374,-130.9143 46.2999,-125.06"/>
</g>
<!-- Node314 -->
<g id="node17" class="node">
<title>Node314</title>
<g id="a_node17"><a xlink:href="xcsf_8h.html#af0b9db7273578fdff649d46823cd9790" target="_top" xlink:title="Calculates the XCSF predictions for the provided input. ">
<polygon fill="none" stroke="#000000" points="244,-38.5 244,-57.5 314,-57.5 314,-38.5 244,-38.5"/>
<text text-anchor="middle" x="279" y="-45.5" font-family="Helvetica,sans-Serif" font-size="10.00" fill="#000000">xcsf_predict</text>
</a>
</g>
</g>
<!-- Node298&#45;&gt;Node314 -->
<g id="edge20" class="edge">
<title>Node298&#45;&gt;Node314</title>
<path fill="none" stroke="#191970" d="M35.5938,-124.2112C45.9002,-106.1794 64.077,-79.8472 88,-67 137.1745,-40.5922 203.7675,-40.6075 243.9334,-43.7741"/>
<polygon fill="#191970" stroke="#191970" points="32.389,-122.7786 30.6911,-133.2365 38.54,-126.1199 32.389,-122.7786"/>
</g>
<!-- Node316 -->
<g id="node19" class="node">
<title>Node316</title>
<g id="a_node19"><a xlink:href="xcsf_8h.html#ae1f6851f682e015601030a5c725c6618" target="_top" xlink:title="Prints the XCSF match set for the supplied input. ">
<polygon fill="none" stroke="#000000" points="224,-.5 224,-19.5 334,-19.5 334,-.5 224,-.5"/>
<text text-anchor="middle" x="279" y="-7.5" font-family="Helvetica,sans-Serif" font-size="10.00" fill="#000000">xcsf_print_match_set</text>
</a>
</g>
</g>
<!-- Node298&#45;&gt;Node316 -->
<g id="edge23" class="edge">
<title>Node298&#45;&gt;Node316</title>
<path fill="none" stroke="#191970" d="M31.6889,-123.6311C39.9012,-99.3573 57.5369,-58.4623 88,-38 127.9225,-11.1837 183.1028,-5.6331 223.8913,-5.9333"/>
<polygon fill="#191970" stroke="#191970" points="28.3426,-122.605 28.6512,-133.1953 35.0142,-124.724 28.3426,-122.605"/>
</g>
<!-- Node318 -->
<g id="node21" class="node">
<title>Node318</title>
<g id="a_node21"><a xlink:href="xcsf_8c.html#a40ac6b86844534bd5124b4e936c768ee" target="_top" xlink:title="Executes a single XCSF testing trial. ">
<polygon fill="none" stroke="#000000" points="99,-114.5 99,-133.5 177,-133.5 177,-114.5 99,-114.5"/>
<text text-anchor="middle" x="138" y="-121.5" font-family="Helvetica,sans-Serif" font-size="10.00" fill="#000000">xcsf_test_trial</text>
</a>
</g>
</g>
<!-- Node298&#45;&gt;Node318 -->
<g id="edge26" class="edge">
<title>Node298&#45;&gt;Node318</title>
<path fill="none" stroke="#191970" d="M62.1276,-136.8712C73.8159,-134.8884 86.8313,-132.6804 98.7356,-130.6609"/>
<polygon fill="#191970" stroke="#191970" points="61.5327,-133.422 52.259,-138.5453 62.7036,-140.3234 61.5327,-133.422"/>
</g>
<!-- Node300 -->
<g id="node3" class="node">
<title>Node300</title>
<g id="a_node3"><a xlink:href="xcs__multi__step_8h.html#acc29d4a55dbd56c16ea5f19f15a7c677" target="_top" xlink:title="Executes a multi&#45;step reinforcement learning experiment. ">
<polygon fill="none" stroke="#000000" points="227,-228.5 227,-247.5 331,-247.5 331,-228.5 227,-228.5"/>
<text text-anchor="middle" x="279" y="-235.5" font-family="Helvetica,sans-Serif" font-size="10.00" fill="#000000">xcs_multi_step_exp</text>
</a>
</g>
</g>
<!-- Node299&#45;&gt;Node300 -->
<g id="edge2" class="edge">
<title>Node299&#45;&gt;Node300</title>
<path fill="none" stroke="#191970" d="M194.2986,-238C205.0471,-238 216.2549,-238 226.8661,-238"/>
<polygon fill="#191970" stroke="#191970" points="194.1687,-234.5001 184.1687,-238 194.1686,-241.5001 194.1687,-234.5001"/>
</g>
<!-- Node301 -->
<g id="node4" class="node">
<title>Node301</title>
<g id="a_node4"><a xlink:href="main_8c.html#ab572a67aa431827116ebd6931d667d21" target="_top" xlink:title="classification">
<polygon fill="none" stroke="#000000" points="389.5,-228.5 389.5,-247.5 463.5,-247.5 463.5,-228.5 389.5,-228.5"/>
<text text-anchor="middle" x="426.5" y="-235.5" font-family="Helvetica,sans-Serif" font-size="10.00" fill="#000000">classification</text>
</a>
</g>
</g>
<!-- Node300&#45;&gt;Node301 -->
<g id="edge3" class="edge">
<title>Node300&#45;&gt;Node301</title>
<path fill="none" stroke="#191970" d="M341.0871,-238C357.495,-238 374.6931,-238 389.3212,-238"/>
<polygon fill="#191970" stroke="#191970" points="341.003,-234.5001 331.003,-238 341.0029,-241.5001 341.003,-234.5001"/>
</g>
<!-- Node302 -->
<g id="node5" class="node">
<title>Node302</title>
<g id="a_node5"><a xlink:href="main_8c.html#a3c04138a5bfe5d72780bb7e82a18e627" target="_top" xlink:title="main">
<polygon fill="none" stroke="#000000" points="573,-190.5 573,-209.5 611,-209.5 611,-190.5 573,-190.5"/>
<text text-anchor="middle" x="592" y="-197.5" font-family="Helvetica,sans-Serif" font-size="10.00" fill="#000000">main</text>
</a>
</g>
</g>
<!-- Node301&#45;&gt;Node302 -->
<g id="edge4" class="edge">
<title>Node301&#45;&gt;Node302</title>
<path fill="none" stroke="#191970" d="M473.5453,-227.1981C506.5245,-219.6258 548.8651,-209.9041 572.9621,-204.3713"/>
<polygon fill="#191970" stroke="#191970" points="472.6045,-223.8229 463.6414,-229.4721 474.1711,-230.6454 472.6045,-223.8229"/>
</g>
<!-- Node303&#45;&gt;Node300 -->
<g id="edge6" class="edge">
<title>Node303&#45;&gt;Node300</title>
<path fill="none" stroke="#191970" d="M183.4398,-263.7538C202.875,-258.516 225.2311,-252.4909 243.4311,-247.5859"/>
<polygon fill="#191970" stroke="#191970" points="182.325,-260.4293 173.5803,-266.411 184.1465,-267.1882 182.325,-260.4293"/>
</g>
<!-- Node305 -->
<g id="node8" class="node">
<title>Node305</title>
<g id="a_node8"><a xlink:href="xcs__single__step_8h.html#a39a031bf59eaa9b33e30e614610dcda8" target="_top" xlink:title="Executes a single&#45;step experiment. ">
<polygon fill="none" stroke="#000000" points="225,-190.5 225,-209.5 333,-209.5 333,-190.5 225,-190.5"/>
<text text-anchor="middle" x="279" y="-197.5" font-family="Helvetica,sans-Serif" font-size="10.00" fill="#000000">xcs_single_step_exp</text>
</a>
</g>
</g>
<!-- Node304&#45;&gt;Node305 -->
<g id="edge8" class="edge">
<title>Node304&#45;&gt;Node305</title>
<path fill="none" stroke="#191970" d="M196.774,-200C205.9867,-200 215.4743,-200 224.5834,-200"/>
<polygon fill="#191970" stroke="#191970" points="196.5242,-196.5001 186.5242,-200 196.5242,-203.5001 196.5242,-196.5001"/>
</g>
<!-- Node305&#45;&gt;Node301 -->
<g id="edge9" class="edge">
<title>Node305&#45;&gt;Node301</title>
<path fill="none" stroke="#191970" d="M326.0141,-212.1121C346.5566,-217.4044 370.2998,-223.5213 389.5472,-228.4799"/>
<polygon fill="#191970" stroke="#191970" points="326.7775,-208.6946 316.2205,-209.589 325.0311,-215.4732 326.7775,-208.6946"/>
</g>
<!-- Node306&#45;&gt;Node305 -->
<g id="edge11" class="edge">
<title>Node306&#45;&gt;Node305</title>
<path fill="none" stroke="#191970" d="M183.4398,-174.2462C202.875,-179.484 225.2311,-185.5091 243.4311,-190.4141"/>
<polygon fill="#191970" stroke="#191970" points="184.1465,-170.8118 173.5803,-171.589 182.325,-177.5707 184.1465,-170.8118"/>
</g>
<!-- Node308 -->
<g id="node11" class="node">
<title>Node308</title>
<g id="a_node11"><a xlink:href="xcsf_8h.html#a874829f28fee20f9ad15b540f4b4d6ff" target="_top" xlink:title="Executes MAX_TRIALS number of XCSF learning iterations using the training data. ">
<polygon fill="none" stroke="#000000" points="252,-76.5 252,-95.5 306,-95.5 306,-76.5 252,-76.5"/>
<text text-anchor="middle" x="279" y="-83.5" font-family="Helvetica,sans-Serif" font-size="10.00" fill="#000000">xcsf_fit1</text>
</a>
</g>
</g>
<!-- Node307&#45;&gt;Node308 -->
<g id="edge13" class="edge">
<title>Node307&#45;&gt;Node308</title>
<path fill="none" stroke="#191970" d="M189.6807,-86C210.8063,-86 234.3646,-86 251.9806,-86"/>
<polygon fill="#191970" stroke="#191970" points="189.5421,-82.5001 179.542,-86 189.542,-89.5001 189.5421,-82.5001"/>
</g>
<!-- Node311 -->
<g id="node14" class="node">
<title>Node311</title>
<g id="a_node14"><a xlink:href="xcsf_8h.html#a0b4de57cb9dadc9deca7901aa36e5025" target="_top" xlink:title="Executes MAX_TRIALS number of XCSF learning iterations using the training. data and test iterations u...">
<polygon fill="none" stroke="#000000" points="252,-114.5 252,-133.5 306,-133.5 306,-114.5 252,-114.5"/>
<text text-anchor="middle" x="279" y="-121.5" font-family="Helvetica,sans-Serif" font-size="10.00" fill="#000000">xcsf_fit2</text>
</a>
</g>
</g>
<!-- Node307&#45;&gt;Node311 -->
<g id="edge16" class="edge">
<title>Node307&#45;&gt;Node311</title>
<path fill="none" stroke="#191970" d="M183.3153,-98.2126C205.9134,-104.3029 232.4861,-111.4643 251.8868,-116.6929"/>
<polygon fill="#191970" stroke="#191970" points="184.1465,-94.8118 173.5803,-95.589 182.325,-101.5707 184.1465,-94.8118"/>
</g>
<!-- Node309 -->
<g id="node12" class="node">
<title>Node309</title>
<g id="a_node12"><a xlink:href="structXCS.html#ad2ccafe59d2b4ae6d0e1cbc15edee53c" target="_top" xlink:title="XCS::fit">
<polygon fill="none" stroke="#000000" points="400.5,-76.5 400.5,-95.5 452.5,-95.5 452.5,-76.5 400.5,-76.5"/>
<text text-anchor="middle" x="426.5" y="-83.5" font-family="Helvetica,sans-Serif" font-size="10.00" fill="#000000">XCS::fit</text>
</a>
</g>
</g>
<!-- Node308&#45;&gt;Node309 -->
<g id="edge14" class="edge">
<title>Node308&#45;&gt;Node309</title>
<path fill="none" stroke="#191970" d="M316.3464,-86C342.4913,-86 376.7833,-86 400.114,-86"/>
<polygon fill="#191970" stroke="#191970" points="316.0538,-82.5001 306.0538,-86 316.0537,-89.5001 316.0538,-82.5001"/>
</g>
<!-- Node310 -->
<g id="node13" class="node">
<title>Node310</title>
<g id="a_node13"><a xlink:href="python__wrapper_8cpp.html#afbdcc1358036a0b83a6b239da2b098a2" target="_top" xlink:title="BOOST_PYTHON_MODULE">
<polygon fill="none" stroke="#000000" points="519,-57.5 519,-76.5 665,-76.5 665,-57.5 519,-57.5"/>
<text text-anchor="middle" x="592" y="-64.5" font-family="Helvetica,sans-Serif" font-size="10.00" fill="#000000">BOOST_PYTHON_MODULE</text>
</a>
</g>
</g>
<!-- Node309&#45;&gt;Node310 -->
<g id="edge15" class="edge">
<title>Node309&#45;&gt;Node310</title>
<path fill="none" stroke="#191970" d="M462.9611,-81.8141C479.3946,-79.9275 499.4187,-77.6287 518.743,-75.4102"/>
<polygon fill="#191970" stroke="#191970" points="462.2595,-78.3716 452.724,-82.9894 463.0579,-85.3259 462.2595,-78.3716"/>
</g>
<!-- Node312 -->
<g id="node15" class="node">
<title>Node312</title>
<g id="a_node15"><a xlink:href="main_8c.html#a968c78da8ed8ad08662a86280deec99a" target="_top" xlink:title="regression">
<polygon fill="none" stroke="#000000" points="395.5,-152.5 395.5,-171.5 457.5,-171.5 457.5,-152.5 395.5,-152.5"/>
<text text-anchor="middle" x="426.5" y="-159.5" font-family="Helvetica,sans-Serif" font-size="10.00" fill="#000000">regression</text>
</a>
</g>
</g>
<!-- Node311&#45;&gt;Node312 -->
<g id="edge17" class="edge">
<title>Node311&#45;&gt;Node312</title>
<path fill="none" stroke="#191970" d="M316.0371,-133.5418C340.4695,-139.8362 372.118,-147.9897 395.2726,-153.955"/>
<polygon fill="#191970" stroke="#191970" points="316.6108,-130.0753 306.0538,-130.9698 314.8644,-136.854 316.6108,-130.0753"/>
</g>
<!-- Node313 -->
<g id="node16" class="node">
<title>Node313</title>
<g id="a_node16"><a xlink:href="structXCS.html#a7d53320740db8e846251bacd0238a9fb" target="_top" xlink:title="XCS::fit">
<polygon fill="none" stroke="#000000" points="400.5,-114.5 400.5,-133.5 452.5,-133.5 452.5,-114.5 400.5,-114.5"/>
<text text-anchor="middle" x="426.5" y="-121.5" font-family="Helvetica,sans-Serif" font-size="10.00" fill="#000000">XCS::fit</text>
</a>
</g>
</g>
<!-- Node311&#45;&gt;Node313 -->
<g id="edge19" class="edge">
<title>Node311&#45;&gt;Node313</title>
<path fill="none" stroke="#191970" d="M316.3464,-124C342.4913,-124 376.7833,-124 400.114,-124"/>
<polygon fill="#191970" stroke="#191970" points="316.0538,-120.5001 306.0538,-124 316.0537,-127.5001 316.0538,-120.5001"/>
</g>
<!-- Node312&#45;&gt;Node302 -->
<g id="edge18" class="edge">
<title>Node312&#45;&gt;Node302</title>
<path fill="none" stroke="#191970" d="M467.6335,-171.4445C501.2693,-179.1676 547.3073,-189.7382 572.8863,-195.6113"/>
<polygon fill="#191970" stroke="#191970" points="468.1589,-167.9742 457.6293,-169.1475 466.5924,-174.7967 468.1589,-167.9742"/>
</g>
<!-- Node315 -->
<g id="node18" class="node">
<title>Node315</title>
<g id="a_node18"><a xlink:href="structXCS.html#a911ed75c86abed7807d33eb1385240ed" target="_top" xlink:title="XCS::predict">
<polygon fill="none" stroke="#000000" points="390,-38.5 390,-57.5 463,-57.5 463,-38.5 390,-38.5"/>
<text text-anchor="middle" x="426.5" y="-45.5" font-family="Helvetica,sans-Serif" font-size="10.00" fill="#000000">XCS::predict</text>
</a>
</g>
</g>
<!-- Node314&#45;&gt;Node315 -->
<g id="edge21" class="edge">
<title>Node314&#45;&gt;Node315</title>
<path fill="none" stroke="#191970" d="M324.3334,-48C345.3834,-48 370.0797,-48 389.9179,-48"/>
<polygon fill="#191970" stroke="#191970" points="324.33,-44.5001 314.3299,-48 324.3299,-51.5001 324.33,-44.5001"/>
</g>
<!-- Node315&#45;&gt;Node310 -->
<g id="edge22" class="edge">
<title>Node315&#45;&gt;Node310</title>
<path fill="none" stroke="#191970" d="M473.1994,-53.3613C487.359,-54.9868 503.2692,-56.8134 518.7317,-58.5885"/>
<polygon fill="#191970" stroke="#191970" points="473.5638,-49.8802 463.2298,-52.2167 472.7653,-56.8345 473.5638,-49.8802"/>
</g>
<!-- Node317 -->
<g id="node20" class="node">
<title>Node317</title>
<g id="a_node20"><a xlink:href="structXCS.html#aa5608b379fae01b724267a99068d55bb" target="_top" xlink:title="XCS::print_match_set">
<polygon fill="none" stroke="#000000" points="370,-.5 370,-19.5 483,-19.5 483,-.5 370,-.5"/>
<text text-anchor="middle" x="426.5" y="-7.5" font-family="Helvetica,sans-Serif" font-size="10.00" fill="#000000">XCS::print_match_set</text>
</a>
</g>
</g>
<!-- Node316&#45;&gt;Node317 -->
<g id="edge24" class="edge">
<title>Node316&#45;&gt;Node317</title>
<path fill="none" stroke="#191970" d="M344.542,-10C352.9872,-10 361.5777,-10 369.8632,-10"/>
<polygon fill="#191970" stroke="#191970" points="344.3432,-6.5001 334.3432,-10 344.3432,-13.5001 344.3432,-6.5001"/>
</g>
<!-- Node317&#45;&gt;Node310 -->
<g id="edge25" class="edge">
<title>Node317&#45;&gt;Node310</title>
<path fill="none" stroke="#191970" d="M464.4998,-22.7146C470.6871,-24.8033 477.0246,-26.9538 483,-29 510.8708,-38.5441 542.674,-49.6571 564.7037,-57.3902"/>
<polygon fill="#191970" stroke="#191970" points="465.5681,-19.3813 454.974,-19.5071 463.3342,-26.0153 465.5681,-19.3813"/>
</g>
<!-- Node318&#45;&gt;Node311 -->
<g id="edge27" class="edge">
<title>Node318&#45;&gt;Node311</title>
<path fill="none" stroke="#191970" d="M187.3319,-124C209.042,-124 233.7041,-124 251.9754,-124"/>
<polygon fill="#191970" stroke="#191970" points="187.2764,-120.5001 177.2764,-124 187.2763,-127.5001 187.2764,-120.5001"/>
</g>
<!-- Node319 -->
<g id="node22" class="node">
<title>Node319</title>
<g id="a_node22"><a xlink:href="xcsf_8h.html#a2cf95733e5f97410d94211b72e835847" target="_top" xlink:title="Calculates the XCSF error for the input data. ">
<polygon fill="none" stroke="#000000" points="246.5,-152.5 246.5,-171.5 311.5,-171.5 311.5,-152.5 246.5,-152.5"/>
<text text-anchor="middle" x="279" y="-159.5" font-family="Helvetica,sans-Serif" font-size="10.00" fill="#000000">xcsf_score</text>
</a>
</g>
</g>
<!-- Node318&#45;&gt;Node319 -->
<g id="edge28" class="edge">
<title>Node318&#45;&gt;Node319</title>
<path fill="none" stroke="#191970" d="M183.3459,-136.2209C203.8477,-141.7462 227.6159,-148.1518 246.3306,-153.1955"/>
<polygon fill="#191970" stroke="#191970" points="184.1465,-132.8118 173.5803,-133.589 182.325,-139.5707 184.1465,-132.8118"/>
</g>
<!-- Node320 -->
<g id="node23" class="node">
<title>Node320</title>
<g id="a_node23"><a xlink:href="structXCS.html#aa77bc77484d6d14bf512304a23cfec88" target="_top" xlink:title="XCS::score">
<polygon fill="none" stroke="#000000" points="392.5,-190.5 392.5,-209.5 460.5,-209.5 460.5,-190.5 392.5,-190.5"/>
<text text-anchor="middle" x="426.5" y="-197.5" font-family="Helvetica,sans-Serif" font-size="10.00" fill="#000000">XCS::score</text>
</a>
</g>
</g>
<!-- Node319&#45;&gt;Node320 -->
<g id="edge29" class="edge">
<title>Node319&#45;&gt;Node320</title>
<path fill="none" stroke="#191970" d="M321.6796,-172.9954C344.1279,-178.7787 371.2761,-185.7728 392.3188,-191.194"/>
<polygon fill="#191970" stroke="#191970" points="322.292,-169.539 311.735,-170.4334 320.5456,-176.3176 322.292,-169.539"/>
</g>
<!-- Node320&#45;&gt;Node310 -->
<g id="edge30" class="edge">
<title>Node320&#45;&gt;Node310</title>
<path fill="none" stroke="#191970" d="M469.98,-187.8145C474.5243,-185.833 478.9549,-183.5706 483,-181 529.2217,-151.6264 569.7503,-98.569 585.2698,-76.7619"/>
<polygon fill="#191970" stroke="#191970" points="468.6147,-184.5903 460.5797,-191.4961 471.1674,-191.1082 468.6147,-184.5903"/>
</g>
</g>
</svg>
