<?xml version="1.0" encoding="UTF-8" standalone="no"?>
<!DOCTYPE svg PUBLIC "-//W3C//DTD SVG 1.1//EN"
 "http://www.w3.org/Graphics/SVG/1.1/DTD/svg11.dtd">
<!-- Generated by graphviz version 2.40.1 (20161225.0304)
 -->
<!-- Title: set_match Pages: 1 -->
<svg width="1163pt" height="522pt"
 viewBox="0.00 0.00 1163.00 522.00" xmlns="http://www.w3.org/2000/svg" xmlns:xlink="http://www.w3.org/1999/xlink">
<g id="graph0" class="graph" transform="scale(1 1) rotate(0) translate(4 518)">
<title>set_match</title>
<!-- Node319 -->
<g id="node1" class="node">
<title>Node319</title>
<polygon fill="#bfbfbf" stroke="#000000" points="0,-152.5 0,-171.5 62,-171.5 62,-152.5 0,-152.5"/>
<text text-anchor="middle" x="31" y="-159.5" font-family="Helvetica,sans-Serif" font-size="10.00" fill="#000000">set_match</text>
</g>
<!-- Node320 -->
<g id="node2" class="node">
<title>Node320</title>
<g id="a_node2"><a xlink:href="cl_8c.html#ae2fc6cc72c129339a3301573f80a52ee" target="_top" xlink:title="Computes the current classifier action using the input. ">
<polygon fill="none" stroke="#000000" points="120.5,-408.5 120.5,-427.5 176.5,-427.5 176.5,-408.5 120.5,-408.5"/>
<text text-anchor="middle" x="148.5" y="-415.5" font-family="Helvetica,sans-Serif" font-size="10.00" fill="#000000">cl_action</text>
</a>
</g>
</g>
<!-- Node319&#45;&gt;Node320 -->
<g id="edge1" class="edge">
<title>Node319&#45;&gt;Node320</title>
<path fill="none" stroke="#191970" d="M32.3535,-171.9099C37.0021,-203.2977 54.4938,-302.4853 98,-371 105.5237,-382.8486 116.7414,-393.6982 126.6946,-401.9806"/>
<polygon fill="#191970" stroke="#191970" points="124.6419,-404.8199 134.649,-408.2996 128.996,-399.3388 124.6419,-404.8199"/>
</g>
<!-- Node322 -->
<g id="node4" class="node">
<title>Node322</title>
<g id="a_node4"><a xlink:href="cl_8c.html#a42adb85e78d1f9af3dbd53cd9e9ae0fd" target="_top" xlink:title="Covers the condition and action for a classifier. ">
<polygon fill="none" stroke="#000000" points="122,-342.5 122,-361.5 175,-361.5 175,-342.5 122,-342.5"/>
<text text-anchor="middle" x="148.5" y="-349.5" font-family="Helvetica,sans-Serif" font-size="10.00" fill="#000000">cl_cover</text>
</a>
</g>
</g>
<!-- Node319&#45;&gt;Node322 -->
<g id="edge3" class="edge">
<title>Node319&#45;&gt;Node322</title>
<path fill="none" stroke="#191970" d="M36.9884,-171.6833C55.5267,-201.6602 112.203,-293.3069 136.8495,-333.1609"/>
<polygon fill="#191970" stroke="#191970" points="134.1463,-335.4442 142.3828,-342.1083 140.0998,-331.7624 134.1463,-335.4442"/>
</g>
<!-- Node332 -->
<g id="node14" class="node">
<title>Node332</title>
<g id="a_node14"><a xlink:href="cl_8c.html#ab76fe4ea183f51174a3797c3cbb1b3bf" target="_top" xlink:title="Initialises a new classifier. ">
<polygon fill="none" stroke="#000000" points="127.5,-228.5 127.5,-247.5 169.5,-247.5 169.5,-228.5 127.5,-228.5"/>
<text text-anchor="middle" x="148.5" y="-235.5" font-family="Helvetica,sans-Serif" font-size="10.00" fill="#000000">cl_init</text>
</a>
</g>
</g>
<!-- Node319&#45;&gt;Node332 -->
<g id="edge13" class="edge">
<title>Node319&#45;&gt;Node332</title>
<path fill="none" stroke="#191970" d="M40.1717,-171.6464C52.3804,-184.0265 75.1048,-205.5117 98,-219 104.0733,-222.578 110.9396,-225.6942 117.6079,-228.3109"/>
<polygon fill="#191970" stroke="#191970" points="116.5267,-231.6421 127.1206,-231.783 118.9268,-225.0664 116.5267,-231.6421"/>
</g>
<!-- Node342 -->
<g id="node24" class="node">
<title>Node342</title>
<g id="a_node24"><a xlink:href="cl_8c.html#ac759904d9a05b2109c39ef17f9f889c3" target="_top" xlink:title="Returns whether the classifier matched the most recent input. ">
<polygon fill="none" stroke="#000000" points="129.5,-190.5 129.5,-209.5 167.5,-209.5 167.5,-190.5 129.5,-190.5"/>
<text text-anchor="middle" x="148.5" y="-197.5" font-family="Helvetica,sans-Serif" font-size="10.00" fill="#000000">cl_m</text>
</a>
</g>
</g>
<!-- Node319&#45;&gt;Node342 -->
<g id="edge24" class="edge">
<title>Node319&#45;&gt;Node342</title>
<path fill="none" stroke="#191970" d="M60.6502,-171.589C78.6928,-177.4241 101.6343,-184.8434 119.5483,-190.6369"/>
<polygon fill="#191970" stroke="#191970" points="118.5877,-194.0047 129.1795,-193.7517 120.7418,-187.3443 118.5877,-194.0047"/>
</g>
<!-- Node343 -->
<g id="node25" class="node">
<title>Node343</title>
<g id="a_node25"><a xlink:href="cl_8c.html#a5d3c4060ef3fd0476e3c8e439a8f81e1" target="_top" xlink:title="Calculates whether the classifier matches the input. ">
<polygon fill="none" stroke="#000000" points="120.5,-152.5 120.5,-171.5 176.5,-171.5 176.5,-152.5 120.5,-152.5"/>
<text text-anchor="middle" x="148.5" y="-159.5" font-family="Helvetica,sans-Serif" font-size="10.00" fill="#000000">cl_match</text>
</a>
</g>
</g>
<!-- Node319&#45;&gt;Node343 -->
<g id="edge25" class="edge">
<title>Node319&#45;&gt;Node343</title>
<path fill="none" stroke="#191970" d="M62.1794,-162C76.8733,-162 94.5431,-162 110.0581,-162"/>
<polygon fill="#191970" stroke="#191970" points="110.392,-165.5001 120.392,-162 110.392,-158.5001 110.392,-165.5001"/>
</g>
<!-- Node345 -->
<g id="node27" class="node">
<title>Node345</title>
<g id="a_node27"><a xlink:href="cl__set_8c.html#a8537e849783523d1e2394e4a027cf33a" target="_top" xlink:title="Enforces the maximum population size limit. ">
<polygon fill="none" stroke="#000000" points="102,-114.5 102,-133.5 195,-133.5 195,-114.5 102,-114.5"/>
<text text-anchor="middle" x="148.5" y="-121.5" font-family="Helvetica,sans-Serif" font-size="10.00" fill="#000000">pop_enforce_limit</text>
</a>
</g>
</g>
<!-- Node319&#45;&gt;Node345 -->
<g id="edge27" class="edge">
<title>Node319&#45;&gt;Node345</title>
<path fill="none" stroke="#191970" d="M60.6502,-152.411C75.4009,-147.6406 93.4258,-141.8112 109.301,-136.6771"/>
<polygon fill="#191970" stroke="#191970" points="110.4215,-139.9933 118.8593,-133.5859 108.2675,-133.333 110.4215,-139.9933"/>
</g>
<!-- Node352 -->
<g id="node34" class="node">
<title>Node352</title>
<g id="a_node34"><a xlink:href="cl__set_8c.html#a274578f0b79dea927e8148a7c41bf75f" target="_top" xlink:title="Adds a classifier to the set. ">
<polygon fill="none" stroke="#000000" points="378,-.5 378,-19.5 429,-19.5 429,-.5 378,-.5"/>
<text text-anchor="middle" x="403.5" y="-7.5" font-family="Helvetica,sans-Serif" font-size="10.00" fill="#000000">set_add</text>
</a>
</g>
</g>
<!-- Node319&#45;&gt;Node352 -->
<g id="edge38" class="edge">
<title>Node319&#45;&gt;Node352</title>
<path fill="none" stroke="#191970" d="M40.0535,-152.1462C52.1345,-139.5419 74.7209,-117.8145 98,-105 122.1657,-91.6974 292.7914,-41.8336 368.0189,-20.1622"/>
<polygon fill="#191970" stroke="#191970" points="369.3328,-23.4262 377.9755,-17.2981 367.3976,-16.699 369.3328,-23.4262"/>
</g>
<!-- Node354 -->
<g id="node36" class="node">
<title>Node354</title>
<g id="a_node36"><a xlink:href="cl__set_8c.html#a55395d23e56e86a5dd11be34a4e051ff" target="_top" xlink:title="Returns whether an action is covered by the set. ">
<polygon fill="none" stroke="#000000" points="98,-38.5 98,-57.5 199,-57.5 199,-38.5 98,-38.5"/>
<text text-anchor="middle" x="148.5" y="-45.5" font-family="Helvetica,sans-Serif" font-size="10.00" fill="#000000">set_action_covered</text>
</a>
</g>
</g>
<!-- Node319&#45;&gt;Node354 -->
<g id="edge37" class="edge">
<title>Node319&#45;&gt;Node354</title>
<path fill="none" stroke="#191970" d="M36.0481,-152.3864C45.8575,-134.4887 69.09,-95.7274 98,-72 102.5666,-68.2521 107.816,-64.9297 113.1655,-62.0425"/>
<polygon fill="#191970" stroke="#191970" points="114.7467,-65.1652 122.1599,-57.5959 111.6444,-58.8901 114.7467,-65.1652"/>
</g>
<!-- Node355 -->
<g id="node37" class="node">
<title>Node355</title>
<g id="a_node37"><a xlink:href="cl__set_8c.html#ad2333ccd5fef4fcef4f5ae98406611d3" target="_top" xlink:title="Removes classifiers with 0 numerosity from the set. ">
<polygon fill="none" stroke="#000000" points="114,-.5 114,-19.5 183,-19.5 183,-.5 114,-.5"/>
<text text-anchor="middle" x="148.5" y="-7.5" font-family="Helvetica,sans-Serif" font-size="10.00" fill="#000000">set_validate</text>
</a>
</g>
</g>
<!-- Node319&#45;&gt;Node355 -->
<g id="edge39" class="edge">
<title>Node319&#45;&gt;Node355</title>
<path fill="none" stroke="#191970" d="M33.2237,-152.4854C39.3278,-128.4007 58.575,-64.4244 98,-29 100.1557,-27.0631 102.5278,-25.3168 105.0327,-23.7434"/>
<polygon fill="#191970" stroke="#191970" points="106.7345,-26.8028 113.9386,-19.0341 103.4623,-20.6147 106.7345,-26.8028"/>
</g>
<!-- Node321 -->
<g id="node3" class="node">
<title>Node321</title>
<g id="a_node3"><a xlink:href="action_8h.html#a0d7fce139fe8ea66b42b95ebcb941c1d" target="_top" xlink:title="act_compute">
<polygon fill="none" stroke="#000000" points="235,-437.5 235,-456.5 308,-456.5 308,-437.5 235,-437.5"/>
<text text-anchor="middle" x="271.5" y="-444.5" font-family="Helvetica,sans-Serif" font-size="10.00" fill="#000000">act_compute</text>
</a>
</g>
</g>
<!-- Node320&#45;&gt;Node321 -->
<g id="edge2" class="edge">
<title>Node320&#45;&gt;Node321</title>
<path fill="none" stroke="#191970" d="M176.7187,-424.6532C190.9326,-428.0044 208.5406,-432.1559 224.708,-435.9677"/>
<polygon fill="#191970" stroke="#191970" points="224.0088,-439.3988 234.5451,-438.2871 225.6152,-432.5856 224.0088,-439.3988"/>
</g>
<!-- Node323 -->
<g id="node5" class="node">
<title>Node323</title>
<g id="a_node5"><a xlink:href="action_8h.html#aef1564c19502c8f890ff9f3c1260d6cf" target="_top" xlink:title="act_cover">
<polygon fill="none" stroke="#000000" points="242,-399.5 242,-418.5 301,-418.5 301,-399.5 242,-399.5"/>
<text text-anchor="middle" x="271.5" y="-406.5" font-family="Helvetica,sans-Serif" font-size="10.00" fill="#000000">act_cover</text>
</a>
</g>
</g>
<!-- Node322&#45;&gt;Node323 -->
<g id="edge4" class="edge">
<title>Node322&#45;&gt;Node323</title>
<path fill="none" stroke="#191970" d="M169.0874,-361.5405C188.9544,-370.7472 219.246,-384.7847 241.7371,-395.2074"/>
<polygon fill="#191970" stroke="#191970" points="240.3007,-398.3993 250.8454,-399.4284 243.2439,-392.0481 240.3007,-398.3993"/>
</g>
<!-- Node324 -->
<g id="node6" class="node">
<title>Node324</title>
<g id="a_node6"><a xlink:href="cl_8c.html#a5c1f93d94c386004e38c02f6d7d19004" target="_top" xlink:title="Initialises random actions, conditions and predictions. ">
<polygon fill="none" stroke="#000000" points="247.5,-361.5 247.5,-380.5 295.5,-380.5 295.5,-361.5 247.5,-361.5"/>
<text text-anchor="middle" x="271.5" y="-368.5" font-family="Helvetica,sans-Serif" font-size="10.00" fill="#000000">cl_rand</text>
</a>
</g>
</g>
<!-- Node322&#45;&gt;Node324 -->
<g id="edge5" class="edge">
<title>Node322&#45;&gt;Node324</title>
<path fill="none" stroke="#191970" d="M175.1892,-356.1227C193.396,-358.9352 217.6722,-362.6851 237.2964,-365.7165"/>
<polygon fill="#191970" stroke="#191970" points="236.9471,-369.204 247.3642,-367.2717 238.0158,-362.286 236.9471,-369.204"/>
</g>
<!-- Node331 -->
<g id="node13" class="node">
<title>Node331</title>
<g id="a_node13"><a xlink:href="condition_8h.html#a641c2ffa4792f9f5549a73f31bb66d44" target="_top" xlink:title="cond_cover">
<polygon fill="none" stroke="#000000" points="238,-323.5 238,-342.5 305,-342.5 305,-323.5 238,-323.5"/>
<text text-anchor="middle" x="271.5" y="-330.5" font-family="Helvetica,sans-Serif" font-size="10.00" fill="#000000">cond_cover</text>
</a>
</g>
</g>
<!-- Node322&#45;&gt;Node331 -->
<g id="edge12" class="edge">
<title>Node322&#45;&gt;Node331</title>
<path fill="none" stroke="#191970" d="M175.1892,-347.8773C190.5456,-345.5052 210.2196,-342.4661 227.7784,-339.7537"/>
<polygon fill="#191970" stroke="#191970" points="228.4752,-343.1877 237.8236,-338.202 227.4065,-336.2698 228.4752,-343.1877"/>
</g>
<!-- Node325 -->
<g id="node7" class="node">
<title>Node325</title>
<g id="a_node7"><a xlink:href="action_8h.html#a5fff1d9e3cc60eaae50fda42aef83661" target="_top" xlink:title="act_init">
<polygon fill="none" stroke="#000000" points="379.5,-494.5 379.5,-513.5 427.5,-513.5 427.5,-494.5 379.5,-494.5"/>
<text text-anchor="middle" x="403.5" y="-501.5" font-family="Helvetica,sans-Serif" font-size="10.00" fill="#000000">act_init</text>
</a>
</g>
</g>
<!-- Node324&#45;&gt;Node325 -->
<g id="edge6" class="edge">
<title>Node324&#45;&gt;Node325</title>
<path fill="none" stroke="#191970" d="M295.667,-380.378C300.2011,-382.9702 304.5832,-386.1552 308,-390 337.9939,-423.7503 311.2358,-453.932 344,-485 350.992,-491.6301 360.2989,-495.9466 369.4711,-498.7569"/>
<polygon fill="#191970" stroke="#191970" points="368.7003,-502.1723 379.2552,-501.2535 370.431,-495.3897 368.7003,-502.1723"/>
</g>
<!-- Node326 -->
<g id="node8" class="node">
<title>Node326</title>
<g id="a_node8"><a xlink:href="action_8c.html#a3dda6c6f441d69995296435482803ae8" target="_top" xlink:title="Sets a classifier&#39;s action functions to the implementations. ">
<polygon fill="none" stroke="#000000" points="372.5,-456.5 372.5,-475.5 434.5,-475.5 434.5,-456.5 372.5,-456.5"/>
<text text-anchor="middle" x="403.5" y="-463.5" font-family="Helvetica,sans-Serif" font-size="10.00" fill="#000000">action_set</text>
</a>
</g>
</g>
<!-- Node324&#45;&gt;Node326 -->
<g id="edge7" class="edge">
<title>Node324&#45;&gt;Node326</title>
<path fill="none" stroke="#191970" d="M294.3329,-380.5187C299.164,-383.1563 304.0042,-386.3242 308,-390 330.0515,-410.2857 320.2981,-428.6698 344,-447 349.5327,-451.2788 356.0545,-454.6076 362.7158,-457.1935"/>
<polygon fill="#191970" stroke="#191970" points="361.8822,-460.6057 372.4763,-460.4747 364.1128,-453.9706 361.8822,-460.6057"/>
</g>
<!-- Node327 -->
<g id="node9" class="node">
<title>Node327</title>
<g id="a_node9"><a xlink:href="condition_8h.html#ac4d6ce7d2050452ba7b242cad65d592b" target="_top" xlink:title="cond_init">
<polygon fill="none" stroke="#000000" points="375.5,-418.5 375.5,-437.5 431.5,-437.5 431.5,-418.5 375.5,-418.5"/>
<text text-anchor="middle" x="403.5" y="-425.5" font-family="Helvetica,sans-Serif" font-size="10.00" fill="#000000">cond_init</text>
</a>
</g>
</g>
<!-- Node324&#45;&gt;Node327 -->
<g id="edge8" class="edge">
<title>Node324&#45;&gt;Node327</title>
<path fill="none" stroke="#191970" d="M290.0791,-380.6454C295.8276,-383.6367 302.1788,-386.9488 308,-390 324.0239,-398.399 327.3179,-401.9988 344,-409 350.8742,-411.885 358.3475,-414.5907 365.6022,-417.0054"/>
<polygon fill="#191970" stroke="#191970" points="364.6918,-420.3889 375.2829,-420.1073 366.8278,-413.7228 364.6918,-420.3889"/>
</g>
<!-- Node328 -->
<g id="node10" class="node">
<title>Node328</title>
<g id="a_node10"><a xlink:href="condition_8c.html#a3329903e950755c55a38c98db2641e3d" target="_top" xlink:title="Sets a classifier&#39;s condition functions to the implementations. ">
<polygon fill="none" stroke="#000000" points="366.5,-380.5 366.5,-399.5 440.5,-399.5 440.5,-380.5 366.5,-380.5"/>
<text text-anchor="middle" x="403.5" y="-387.5" font-family="Helvetica,sans-Serif" font-size="10.00" fill="#000000">condition_set</text>
</a>
</g>
</g>
<!-- Node324&#45;&gt;Node328 -->
<g id="edge9" class="edge">
<title>Node324&#45;&gt;Node328</title>
<path fill="none" stroke="#191970" d="M295.7108,-374.4849C312.6473,-376.9227 335.8208,-380.2583 356.3417,-383.2121"/>
<polygon fill="#191970" stroke="#191970" points="356.0761,-386.7098 366.4728,-384.6703 357.0734,-379.7812 356.0761,-386.7098"/>
</g>
<!-- Node329 -->
<g id="node11" class="node">
<title>Node329</title>
<g id="a_node11"><a xlink:href="prediction_8h.html#a9466870f30753fb12cd3670e3be4b8d2" target="_top" xlink:title="pred_init">
<polygon fill="none" stroke="#000000" points="377,-342.5 377,-361.5 430,-361.5 430,-342.5 377,-342.5"/>
<text text-anchor="middle" x="403.5" y="-349.5" font-family="Helvetica,sans-Serif" font-size="10.00" fill="#000000">pred_init</text>
</a>
</g>
</g>
<!-- Node324&#45;&gt;Node329 -->
<g id="edge10" class="edge">
<title>Node324&#45;&gt;Node329</title>
<path fill="none" stroke="#191970" d="M295.7108,-367.5151C315.5902,-364.6537 344.0621,-360.5555 366.7518,-357.2895"/>
<polygon fill="#191970" stroke="#191970" points="367.3189,-360.744 376.7183,-355.8549 366.3216,-353.8154 367.3189,-360.744"/>
</g>
<!-- Node330 -->
<g id="node12" class="node">
<title>Node330</title>
<g id="a_node12"><a xlink:href="prediction_8c.html#a68bf56c06ff52c2e31c4fb31436e1eed" target="_top" xlink:title="Sets a classifier&#39;s prediction functions to the implementations. ">
<polygon fill="none" stroke="#000000" points="365,-304.5 365,-323.5 442,-323.5 442,-304.5 365,-304.5"/>
<text text-anchor="middle" x="403.5" y="-311.5" font-family="Helvetica,sans-Serif" font-size="10.00" fill="#000000">prediction_set</text>
</a>
</g>
</g>
<!-- Node324&#45;&gt;Node330 -->
<g id="edge11" class="edge">
<title>Node324&#45;&gt;Node330</title>
<path fill="none" stroke="#191970" d="M290.0791,-361.3546C295.8276,-358.3633 302.1788,-355.0512 308,-352 324.0239,-343.601 327.3179,-340.0012 344,-333 349.1869,-330.8231 354.7149,-328.7483 360.2327,-326.8236"/>
<polygon fill="#191970" stroke="#191970" points="361.704,-330.0222 370.0779,-323.5316 359.4841,-323.3835 361.704,-330.0222"/>
</g>
<!-- Node333 -->
<g id="node15" class="node">
<title>Node333</title>
<g id="a_node15"><a xlink:href="sam_8c.html#ab529fdda992a0d15c0f798ec3fefe843" target="_top" xlink:title="Initialises a classifier&#39;s self&#45;adaptive mutation rates. ">
<polygon fill="none" stroke="#000000" points="245,-228.5 245,-247.5 298,-247.5 298,-228.5 245,-228.5"/>
<text text-anchor="middle" x="271.5" y="-235.5" font-family="Helvetica,sans-Serif" font-size="10.00" fill="#000000">sam_init</text>
</a>
</g>
</g>
<!-- Node332&#45;&gt;Node333 -->
<g id="edge14" class="edge">
<title>Node332&#45;&gt;Node333</title>
<path fill="none" stroke="#191970" d="M169.6445,-238C187.3897,-238 213.1606,-238 234.3395,-238"/>
<polygon fill="#191970" stroke="#191970" points="234.62,-241.5001 244.62,-238 234.6199,-234.5001 234.62,-241.5001"/>
</g>
<!-- Node334 -->
<g id="node16" class="node">
<title>Node334</title>
<g id="a_node16"><a xlink:href="sam_8c.html#a2142f014cab38e1a66523856ad64f825" target="_top" xlink:title="Initialises log normal self&#45;adaptive mutation rates. ">
<polygon fill="none" stroke="#000000" points="499,-266.5 499,-285.5 605,-285.5 605,-266.5 499,-266.5"/>
<text text-anchor="middle" x="552" y="-273.5" font-family="Helvetica,sans-Serif" font-size="10.00" fill="#000000">sam_log_normal_init</text>
</a>
</g>
</g>
<!-- Node333&#45;&gt;Node334 -->
<g id="edge15" class="edge">
<title>Node333&#45;&gt;Node334</title>
<path fill="none" stroke="#191970" d="M298.1227,-246.1046C311.7293,-249.958 328.6207,-254.3014 344,-257 392.0712,-265.4349 447.0903,-270.2524 488.4636,-272.9246"/>
<polygon fill="#191970" stroke="#191970" points="488.478,-276.4322 498.6757,-273.5587 488.9119,-269.4456 488.478,-276.4322"/>
</g>
<!-- Node340 -->
<g id="node22" class="node">
<title>Node340</title>
<g id="a_node22"><a xlink:href="sam_8c.html#a3406e320683ba972c0573809afabc6b3" target="_top" xlink:title="Initialises rate selection self&#45;adaptive mutation. ">
<polygon fill="none" stroke="#000000" points="344,-228.5 344,-247.5 463,-247.5 463,-228.5 344,-228.5"/>
<text text-anchor="middle" x="403.5" y="-235.5" font-family="Helvetica,sans-Serif" font-size="10.00" fill="#000000">sam_rate_selection_init</text>
</a>
</g>
</g>
<!-- Node333&#45;&gt;Node340 -->
<g id="edge21" class="edge">
<title>Node333&#45;&gt;Node340</title>
<path fill="none" stroke="#191970" d="M298.2122,-238C308.6147,-238 321.0645,-238 333.7006,-238"/>
<polygon fill="#191970" stroke="#191970" points="333.839,-241.5001 343.8389,-238 333.8389,-234.5001 333.839,-241.5001"/>
</g>
<!-- Node335 -->
<g id="node17" class="node">
<title>Node335</title>
<g id="a_node17"><a xlink:href="utils_8c.html#ae42a9e1d467853befaa7922cfafed3bb" target="_top" xlink:title="Returns a uniform random float [min,max]. ">
<polygon fill="none" stroke="#000000" points="641,-228.5 641,-247.5 714,-247.5 714,-228.5 641,-228.5"/>
<text text-anchor="middle" x="677.5" y="-235.5" font-family="Helvetica,sans-Serif" font-size="10.00" fill="#000000">rand_uniform</text>
</a>
</g>
</g>
<!-- Node334&#45;&gt;Node335 -->
<g id="edge16" class="edge">
<title>Node334&#45;&gt;Node335</title>
<path fill="none" stroke="#191970" d="M583.6689,-266.411C599.5725,-261.5956 619.0396,-255.7012 636.1114,-250.532"/>
<polygon fill="#191970" stroke="#191970" points="637.2846,-253.8338 645.8412,-247.5859 635.256,-247.1342 637.2846,-253.8338"/>
</g>
<!-- Node336 -->
<g id="node18" class="node">
<title>Node336</title>
<g id="a_node18"><a xlink:href="utils_8c.html#a0c0a81e7797a05c535bad34449d8642c" target="_top" xlink:title="Returns a uniform random float [0,1]. ">
<polygon fill="none" stroke="#000000" points="750,-228.5 750,-247.5 791,-247.5 791,-228.5 750,-228.5"/>
<text text-anchor="middle" x="770.5" y="-235.5" font-family="Helvetica,sans-Serif" font-size="10.00" fill="#000000">drand</text>
</a>
</g>
</g>
<!-- Node335&#45;&gt;Node336 -->
<g id="edge17" class="edge">
<title>Node335&#45;&gt;Node336</title>
<path fill="none" stroke="#191970" d="M714.2561,-238C722.658,-238 731.5043,-238 739.63,-238"/>
<polygon fill="#191970" stroke="#191970" points="739.799,-241.5001 749.7989,-238 739.7989,-234.5001 739.799,-241.5001"/>
</g>
<!-- Node337 -->
<g id="node19" class="node">
<title>Node337</title>
<g id="a_node19"><a xlink:href="mt19937-64_8c.html#aa0b74daf51eca91df224d00f1730084a" target="_top" xlink:title="genrand64_real1">
<polygon fill="none" stroke="#000000" points="827,-228.5 827,-247.5 915,-247.5 915,-228.5 827,-228.5"/>
<text text-anchor="middle" x="871" y="-235.5" font-family="Helvetica,sans-Serif" font-size="10.00" fill="#000000">genrand64_real1</text>
</a>
</g>
</g>
<!-- Node336&#45;&gt;Node337 -->
<g id="edge18" class="edge">
<title>Node336&#45;&gt;Node337</title>
<path fill="none" stroke="#191970" d="M791.3237,-238C798.8428,-238 807.7193,-238 816.769,-238"/>
<polygon fill="#191970" stroke="#191970" points="816.9969,-241.5001 826.9969,-238 816.9969,-234.5001 816.9969,-241.5001"/>
</g>
<!-- Node338 -->
<g id="node20" class="node">
<title>Node338</title>
<g id="a_node20"><a xlink:href="mt19937-64_8c.html#a265bf48d20d6e0347371fcf4fe340e6d" target="_top" xlink:title="genrand64_int64">
<polygon fill="none" stroke="#000000" points="951,-228.5 951,-247.5 1039,-247.5 1039,-228.5 951,-228.5"/>
<text text-anchor="middle" x="995" y="-235.5" font-family="Helvetica,sans-Serif" font-size="10.00" fill="#000000">genrand64_int64</text>
</a>
</g>
</g>
<!-- Node337&#45;&gt;Node338 -->
<g id="edge19" class="edge">
<title>Node337&#45;&gt;Node338</title>
<path fill="none" stroke="#191970" d="M915.0669,-238C923.2822,-238 931.957,-238 940.4432,-238"/>
<polygon fill="#191970" stroke="#191970" points="940.6572,-241.5001 950.6572,-238 940.6572,-234.5001 940.6572,-241.5001"/>
</g>
<!-- Node339 -->
<g id="node21" class="node">
<title>Node339</title>
<g id="a_node21"><a xlink:href="mt19937-64_8c.html#adf4127d44c2dc34fcb318d406131ef7c" target="_top" xlink:title="init_genrand64">
<polygon fill="none" stroke="#000000" points="1075,-228.5 1075,-247.5 1155,-247.5 1155,-228.5 1075,-228.5"/>
<text text-anchor="middle" x="1115" y="-235.5" font-family="Helvetica,sans-Serif" font-size="10.00" fill="#000000">init_genrand64</text>
</a>
</g>
</g>
<!-- Node338&#45;&gt;Node339 -->
<g id="edge20" class="edge">
<title>Node338&#45;&gt;Node339</title>
<path fill="none" stroke="#191970" d="M1039.0022,-238C1047.3719,-238 1056.1896,-238 1064.7365,-238"/>
<polygon fill="#191970" stroke="#191970" points="1064.9792,-241.5001 1074.9792,-238 1064.9792,-234.5001 1064.9792,-241.5001"/>
</g>
<!-- Node341 -->
<g id="node23" class="node">
<title>Node341</title>
<g id="a_node23"><a xlink:href="utils_8c.html#a32648ab076544a9ac1c086d0f07b599f" target="_top" xlink:title="Returns a uniform random integer [min,max] not inclusive of max. ">
<polygon fill="none" stroke="#000000" points="514.5,-228.5 514.5,-247.5 589.5,-247.5 589.5,-228.5 514.5,-228.5"/>
<text text-anchor="middle" x="552" y="-235.5" font-family="Helvetica,sans-Serif" font-size="10.00" fill="#000000">irand_uniform</text>
</a>
</g>
</g>
<!-- Node340&#45;&gt;Node341 -->
<g id="edge22" class="edge">
<title>Node340&#45;&gt;Node341</title>
<path fill="none" stroke="#191970" d="M463.045,-238C476.6704,-238 490.9841,-238 504.05,-238"/>
<polygon fill="#191970" stroke="#191970" points="504.2241,-241.5001 514.2241,-238 504.2241,-234.5001 504.2241,-241.5001"/>
</g>
<!-- Node341&#45;&gt;Node335 -->
<g id="edge23" class="edge">
<title>Node341&#45;&gt;Node335</title>
<path fill="none" stroke="#191970" d="M589.6541,-238C602.542,-238 617.1208,-238 630.6451,-238"/>
<polygon fill="#191970" stroke="#191970" points="630.7361,-241.5001 640.7361,-238 630.7361,-234.5001 630.7361,-241.5001"/>
</g>
<!-- Node344 -->
<g id="node26" class="node">
<title>Node344</title>
<g id="a_node26"><a xlink:href="condition_8h.html#a733d2f270aa8c0c18afa29d5a449b45f" target="_top" xlink:title="cond_match">
<polygon fill="none" stroke="#000000" points="236.5,-152.5 236.5,-171.5 306.5,-171.5 306.5,-152.5 236.5,-152.5"/>
<text text-anchor="middle" x="271.5" y="-159.5" font-family="Helvetica,sans-Serif" font-size="10.00" fill="#000000">cond_match</text>
</a>
</g>
</g>
<!-- Node343&#45;&gt;Node344 -->
<g id="edge26" class="edge">
<title>Node343&#45;&gt;Node344</title>
<path fill="none" stroke="#191970" d="M176.7187,-162C191.4025,-162 209.7085,-162 226.3065,-162"/>
<polygon fill="#191970" stroke="#191970" points="226.3728,-165.5001 236.3728,-162 226.3727,-158.5001 226.3728,-165.5001"/>
</g>
<!-- Node346 -->
<g id="node28" class="node">
<title>Node346</title>
<g id="a_node28"><a xlink:href="cl__set_8c.html#a7ff6217fb822a2eca84c9ac23e8b5cb5" target="_top" xlink:title="Deletes a single classifier from the population set. ">
<polygon fill="none" stroke="#000000" points="246.5,-114.5 246.5,-133.5 296.5,-133.5 296.5,-114.5 246.5,-114.5"/>
<text text-anchor="middle" x="271.5" y="-121.5" font-family="Helvetica,sans-Serif" font-size="10.00" fill="#000000">pop_del</text>
</a>
</g>
</g>
<!-- Node345&#45;&gt;Node346 -->
<g id="edge28" class="edge">
<title>Node345&#45;&gt;Node346</title>
<path fill="none" stroke="#191970" d="M195.001,-124C208.6071,-124 223.2562,-124 236.0574,-124"/>
<polygon fill="#191970" stroke="#191970" points="236.3123,-127.5001 246.3123,-124 236.3123,-120.5001 236.3123,-127.5001"/>
</g>
<!-- Node346&#45;&gt;Node335 -->
<g id="edge34" class="edge">
<title>Node346&#45;&gt;Node335</title>
<path fill="none" stroke="#191970" d="M292.6824,-133.5119C297.8973,-136.2556 303.323,-139.4726 308,-143 326.574,-157.0086 323.3484,-170.288 344,-181 448.0574,-234.9749 490.1239,-195.6607 605,-219 614.5585,-220.942 624.7355,-223.3758 634.3492,-225.8469"/>
<polygon fill="#191970" stroke="#191970" points="633.5528,-229.2564 644.1143,-228.4164 635.3342,-222.4868 633.5528,-229.2564"/>
</g>
<!-- Node347 -->
<g id="node29" class="node">
<title>Node347</title>
<g id="a_node29"><a xlink:href="cl_8c.html#ab34a0468e7a08b58586daccab5f49651" target="_top" xlink:title="Returns the size of the classifier condition. ">
<polygon fill="none" stroke="#000000" points="366.5,-152.5 366.5,-171.5 440.5,-171.5 440.5,-152.5 366.5,-152.5"/>
<text text-anchor="middle" x="403.5" y="-159.5" font-family="Helvetica,sans-Serif" font-size="10.00" fill="#000000">cl_cond_size</text>
</a>
</g>
</g>
<!-- Node346&#45;&gt;Node347 -->
<g id="edge29" class="edge">
<title>Node346&#45;&gt;Node347</title>
<path fill="none" stroke="#191970" d="M296.6389,-131.237C314.7199,-136.4421 339.5463,-143.5891 360.719,-149.6843"/>
<polygon fill="#191970" stroke="#191970" points="359.8842,-153.086 370.4622,-152.4891 361.8208,-146.3592 359.8842,-153.086"/>
</g>
<!-- Node349 -->
<g id="node31" class="node">
<title>Node349</title>
<g id="a_node31"><a xlink:href="cl_8c.html#af708b9effceaf930cbe524f7aaffd2f9" target="_top" xlink:title="Returns the deletion vote of the classifier. ">
<polygon fill="none" stroke="#000000" points="370.5,-114.5 370.5,-133.5 436.5,-133.5 436.5,-114.5 370.5,-114.5"/>
<text text-anchor="middle" x="403.5" y="-121.5" font-family="Helvetica,sans-Serif" font-size="10.00" fill="#000000">cl_del_vote</text>
</a>
</g>
</g>
<!-- Node346&#45;&gt;Node349 -->
<g id="edge31" class="edge">
<title>Node346&#45;&gt;Node349</title>
<path fill="none" stroke="#191970" d="M296.6389,-124C314.6381,-124 339.3218,-124 360.4314,-124"/>
<polygon fill="#191970" stroke="#191970" points="360.4623,-127.5001 370.4622,-124 360.4622,-120.5001 360.4623,-127.5001"/>
</g>
<!-- Node350 -->
<g id="node32" class="node">
<title>Node350</title>
<g id="a_node32"><a xlink:href="cl_8c.html#aaa9b5b7ca68222f98cc38c80b643edbe" target="_top" xlink:title="Returns the size of the classifier prediction. ">
<polygon fill="none" stroke="#000000" points="368,-76.5 368,-95.5 439,-95.5 439,-76.5 368,-76.5"/>
<text text-anchor="middle" x="403.5" y="-83.5" font-family="Helvetica,sans-Serif" font-size="10.00" fill="#000000">cl_pred_size</text>
</a>
</g>
</g>
<!-- Node346&#45;&gt;Node350 -->
<g id="edge32" class="edge">
<title>Node346&#45;&gt;Node350</title>
<path fill="none" stroke="#191970" d="M296.6389,-116.763C314.7199,-111.5579 339.5463,-104.4109 360.719,-98.3157"/>
<polygon fill="#191970" stroke="#191970" points="361.8208,-101.6408 370.4622,-95.5109 359.8842,-94.914 361.8208,-101.6408"/>
</g>
<!-- Node346&#45;&gt;Node352 -->
<g id="edge35" class="edge">
<title>Node346&#45;&gt;Node352</title>
<path fill="none" stroke="#191970" d="M290.0137,-114.4255C296.2722,-110.5546 302.947,-105.6554 308,-100 331.5729,-73.6169 317.0612,-51.9359 344,-29 350.8245,-23.1895 359.4449,-19.1504 367.99,-16.3446"/>
<polygon fill="#191970" stroke="#191970" points="369.184,-19.6452 377.8746,-13.5851 367.3017,-12.903 369.184,-19.6452"/>
</g>
<!-- Node353 -->
<g id="node35" class="node">
<title>Node353</title>
<g id="a_node35"><a xlink:href="cl__set_8c.html#ac2ecc83b8ceaada1cc75c14e76021d83" target="_top" xlink:title="Calculates the total fitness of classifiers in the set. ">
<polygon fill="none" stroke="#000000" points="369.5,-38.5 369.5,-57.5 437.5,-57.5 437.5,-38.5 369.5,-38.5"/>
<text text-anchor="middle" x="403.5" y="-45.5" font-family="Helvetica,sans-Serif" font-size="10.00" fill="#000000">set_total_fit</text>
</a>
</g>
</g>
<!-- Node346&#45;&gt;Node353 -->
<g id="edge36" class="edge">
<title>Node346&#45;&gt;Node353</title>
<path fill="none" stroke="#191970" d="M287.1525,-114.4879C293.7543,-110.2788 301.4188,-105.1267 308,-100 325.1229,-86.6614 325.2237,-77.8886 344,-67 348.8661,-64.178 354.2033,-61.7196 359.6209,-59.5932"/>
<polygon fill="#191970" stroke="#191970" points="361.1298,-62.7711 369.3748,-56.1175 358.7801,-56.1773 361.1298,-62.7711"/>
</g>
<!-- Node348 -->
<g id="node30" class="node">
<title>Node348</title>
<g id="a_node30"><a xlink:href="condition_8h.html#a1433f279ed8c1fff6eb5c4517d216315" target="_top" xlink:title="cond_size">
<polygon fill="none" stroke="#000000" points="521.5,-152.5 521.5,-171.5 582.5,-171.5 582.5,-152.5 521.5,-152.5"/>
<text text-anchor="middle" x="552" y="-159.5" font-family="Helvetica,sans-Serif" font-size="10.00" fill="#000000">cond_size</text>
</a>
</g>
</g>
<!-- Node347&#45;&gt;Node348 -->
<g id="edge30" class="edge">
<title>Node347&#45;&gt;Node348</title>
<path fill="none" stroke="#191970" d="M440.5898,-162C462.0968,-162 489.2084,-162 511.3015,-162"/>
<polygon fill="#191970" stroke="#191970" points="511.3785,-165.5001 521.3784,-162 511.3784,-158.5001 511.3785,-165.5001"/>
</g>
<!-- Node351 -->
<g id="node33" class="node">
<title>Node351</title>
<g id="a_node33"><a xlink:href="prediction_8h.html#a5a7d522104f8457884c00e432dbe0a35" target="_top" xlink:title="pred_size">
<polygon fill="none" stroke="#000000" points="522.5,-76.5 522.5,-95.5 581.5,-95.5 581.5,-76.5 522.5,-76.5"/>
<text text-anchor="middle" x="552" y="-83.5" font-family="Helvetica,sans-Serif" font-size="10.00" fill="#000000">pred_size</text>
</a>
</g>
</g>
<!-- Node350&#45;&gt;Node351 -->
<g id="edge33" class="edge">
<title>Node350&#45;&gt;Node351</title>
<path fill="none" stroke="#191970" d="M439.0694,-86C461.0946,-86 489.42,-86 512.1925,-86"/>
<polygon fill="#191970" stroke="#191970" points="512.2222,-89.5001 522.2222,-86 512.2222,-82.5001 512.2222,-89.5001"/>
</g>
</g>
</svg>
