<?xml version="1.0" encoding="UTF-8" standalone="no"?>
<!DOCTYPE svg PUBLIC "-//W3C//DTD SVG 1.1//EN"
 "http://www.w3.org/Graphics/SVG/1.1/DTD/svg11.dtd">
<!-- Generated by graphviz version 2.40.1 (20161225.0304)
 -->
<!-- Title: set_avg_pred_size Pages: 1 -->
<svg width="308pt" height="28pt"
 viewBox="0.00 0.00 308.00 28.00" xmlns="http://www.w3.org/2000/svg" xmlns:xlink="http://www.w3.org/1999/xlink">
<g id="graph0" class="graph" transform="scale(1 1) rotate(0) translate(4 24)">
<title>set_avg_pred_size</title>
<!-- Node234 -->
<g id="node1" class="node">
<title>Node234</title>
<polygon fill="#bfbfbf" stroke="#000000" points="0,-.5 0,-19.5 98,-19.5 98,-.5 0,-.5"/>
<text text-anchor="middle" x="49" y="-7.5" font-family="Helvetica,sans-Serif" font-size="10.00" fill="#000000">set_avg_pred_size</text>
</g>
<!-- Node235 -->
<g id="node2" class="node">
<title>Node235</title>
<g id="a_node2"><a xlink:href="$cl_8c.html#aaa9b5b7ca68222f98cc38c80b643edbe" xlink:title="Returns the size of the classifier prediction. ">
<polygon fill="none" stroke="#000000" points="134,-.5 134,-19.5 205,-19.5 205,-.5 134,-.5"/>
<text text-anchor="middle" x="169.5" y="-7.5" font-family="Helvetica,sans-Serif" font-size="10.00" fill="#000000">cl_pred_size</text>
</a>
</g>
</g>
<!-- Node234&#45;&gt;Node235 -->
<g id="edge1" class="edge">
<title>Node234&#45;&gt;Node235</title>
<path fill="none" stroke="#191970" d="M98.012,-10C106.5355,-10 115.3701,-10 123.8005,-10"/>
<polygon fill="#191970" stroke="#191970" points="123.8352,-13.5001 133.8351,-10 123.8351,-6.5001 123.8352,-13.5001"/>
</g>
<!-- Node236 -->
<g id="node3" class="node">
<title>Node236</title>
<g id="a_node3"><a xlink:href="$prediction_8h.html#a5a7d522104f8457884c00e432dbe0a35" xlink:title="pred_size">
<polygon fill="none" stroke="#000000" points="241,-.5 241,-19.5 300,-19.5 300,-.5 241,-.5"/>
<text text-anchor="middle" x="270.5" y="-7.5" font-family="Helvetica,sans-Serif" font-size="10.00" fill="#000000">pred_size</text>
</a>
</g>
</g>
<!-- Node235&#45;&gt;Node236 -->
<g id="edge2" class="edge">
<title>Node235&#45;&gt;Node236</title>
<path fill="none" stroke="#191970" d="M205.1088,-10C213.4265,-10 222.336,-10 230.8183,-10"/>
<polygon fill="#191970" stroke="#191970" points="230.8845,-13.5001 240.8844,-10 230.8844,-6.5001 230.8845,-13.5001"/>
</g>
</g>
</svg>
