<?xml version="1.0" encoding="UTF-8" standalone="no"?>
<!DOCTYPE svg PUBLIC "-//W3C//DTD SVG 1.1//EN"
 "http://www.w3.org/Graphics/SVG/1.1/DTD/svg11.dtd">
<!-- Generated by graphviz version 2.40.1 (20161225.0304)
 -->
<!-- Title: set_match Pages: 1 -->
<svg width="683pt" height="294pt"
 viewBox="0.00 0.00 683.00 294.00" xmlns="http://www.w3.org/2000/svg" xmlns:xlink="http://www.w3.org/1999/xlink">
<g id="graph0" class="graph" transform="scale(1 1) rotate(0) translate(4 290)">
<title>set_match</title>
<!-- Node418 -->
<g id="node1" class="node">
<title>Node418</title>
<polygon fill="#bfbfbf" stroke="#000000" points="0,-133.5 0,-152.5 62,-152.5 62,-133.5 0,-133.5"/>
<text text-anchor="middle" x="31" y="-140.5" font-family="Helvetica,sans-Serif" font-size="10.00" fill="#000000">set_match</text>
</g>
<!-- Node419 -->
<g id="node2" class="node">
<title>Node419</title>
<g id="a_node2"><a xlink:href="xcs__multi__step_8c.html#af458a8b42e79e924ffcf87a7d9c9711d" target="_top" xlink:title="Executes a multi&#45;step exploit trial. ">
<polygon fill="none" stroke="#000000" points="102,-228.5 102,-247.5 194,-247.5 194,-228.5 102,-228.5"/>
<text text-anchor="middle" x="148" y="-235.5" font-family="Helvetica,sans-Serif" font-size="10.00" fill="#000000">xcs_multi_exploit</text>
</a>
</g>
</g>
<!-- Node418&#45;&gt;Node419 -->
<g id="edge1" class="edge">
<title>Node418&#45;&gt;Node419</title>
<path fill="none" stroke="#191970" d="M42.9439,-160.9996C55.0415,-178.0056 75.184,-203.1991 98,-219 103.4203,-222.7537 109.68,-225.8868 115.8965,-228.4547"/>
<polygon fill="#191970" stroke="#191970" points="45.6441,-158.7501 37.0849,-152.5059 39.8821,-162.7248 45.6441,-158.7501"/>
</g>
<!-- Node423 -->
<g id="node6" class="node">
<title>Node423</title>
<g id="a_node6"><a xlink:href="xcs__multi__step_8c.html#a9f6d53384f68b9354b5757dd2c7771fd" target="_top" xlink:title="Executes a multi&#45;step explore trial. ">
<polygon fill="none" stroke="#000000" points="100.5,-266.5 100.5,-285.5 195.5,-285.5 195.5,-266.5 100.5,-266.5"/>
<text text-anchor="middle" x="148" y="-273.5" font-family="Helvetica,sans-Serif" font-size="10.00" fill="#000000">xcs_multi_explore</text>
</a>
</g>
</g>
<!-- Node418&#45;&gt;Node423 -->
<g id="edge5" class="edge">
<title>Node418&#45;&gt;Node423</title>
<path fill="none" stroke="#191970" d="M37.6597,-162.2313C47.2678,-187.3246 67.3067,-231.079 98,-257 102.5406,-260.8346 107.9359,-263.9394 113.4747,-266.4396"/>
<polygon fill="#191970" stroke="#191970" points="40.9044,-160.9133 34.1799,-152.726 34.331,-163.3197 40.9044,-160.9133"/>
</g>
<!-- Node424 -->
<g id="node7" class="node">
<title>Node424</title>
<g id="a_node7"><a xlink:href="xcs__single__step_8c.html#a5d3ed7cfbd01de00beaa8e2559f463b5" target="_top" xlink:title="Executes a single&#45;step exploit trial. ">
<polygon fill="none" stroke="#000000" points="99.5,-190.5 99.5,-209.5 196.5,-209.5 196.5,-190.5 99.5,-190.5"/>
<text text-anchor="middle" x="148" y="-197.5" font-family="Helvetica,sans-Serif" font-size="10.00" fill="#000000">xcs_single_exploit</text>
</a>
</g>
</g>
<!-- Node418&#45;&gt;Node424 -->
<g id="edge7" class="edge">
<title>Node418&#45;&gt;Node424</title>
<path fill="none" stroke="#191970" d="M55.2387,-157.9369C67.7634,-165.3473 83.4385,-174.153 98,-181 105.227,-184.3982 113.2411,-187.6575 120.6978,-190.4877"/>
<polygon fill="#191970" stroke="#191970" points="56.7207,-154.7443 46.3457,-152.5976 53.1175,-160.7458 56.7207,-154.7443"/>
</g>
<!-- Node426 -->
<g id="node9" class="node">
<title>Node426</title>
<g id="a_node9"><a xlink:href="xcs__single__step_8c.html#aef07baf4de9b02d9c6fd33a1c485e7ea" target="_top" xlink:title="Executes a single&#45;step explore trial. ">
<polygon fill="none" stroke="#000000" points="98,-152.5 98,-171.5 198,-171.5 198,-152.5 98,-152.5"/>
<text text-anchor="middle" x="148" y="-159.5" font-family="Helvetica,sans-Serif" font-size="10.00" fill="#000000">xcs_single_explore</text>
</a>
</g>
</g>
<!-- Node418&#45;&gt;Node426 -->
<g id="edge10" class="edge">
<title>Node418&#45;&gt;Node426</title>
<path fill="none" stroke="#191970" d="M71.9227,-149.6456C80.2761,-151.0021 89.1567,-152.4443 97.7914,-153.8465"/>
<polygon fill="#191970" stroke="#191970" points="72.4784,-146.19 62.0467,-148.0418 71.3563,-153.0995 72.4784,-146.19"/>
</g>
<!-- Node427 -->
<g id="node10" class="node">
<title>Node427</title>
<g id="a_node10"><a xlink:href="xcsf_8c.html#a6dfb03d255a2684e9e06e88f9a4e3a3d" target="_top" xlink:title="Executes a single XCSF learning trial. ">
<polygon fill="none" stroke="#000000" points="106.5,-76.5 106.5,-95.5 189.5,-95.5 189.5,-76.5 106.5,-76.5"/>
<text text-anchor="middle" x="148" y="-83.5" font-family="Helvetica,sans-Serif" font-size="10.00" fill="#000000">xcsf_learn_trial</text>
</a>
</g>
</g>
<!-- Node418&#45;&gt;Node427 -->
<g id="edge12" class="edge">
<title>Node418&#45;&gt;Node427</title>
<path fill="none" stroke="#191970" d="M55.2387,-128.0631C67.7634,-120.6527 83.4385,-111.847 98,-105 105.227,-101.6018 113.2411,-98.3425 120.6978,-95.5123"/>
<polygon fill="#191970" stroke="#191970" points="53.1175,-125.2542 46.3457,-133.4024 56.7207,-131.2557 53.1175,-125.2542"/>
</g>
<!-- Node434 -->
<g id="node17" class="node">
<title>Node434</title>
<g id="a_node17"><a xlink:href="xcsf_8h.html#af0b9db7273578fdff649d46823cd9790" target="_top" xlink:title="Calculates the XCSF predictions for the provided input. ">
<polygon fill="none" stroke="#000000" points="254,-38.5 254,-57.5 324,-57.5 324,-38.5 254,-38.5"/>
<text text-anchor="middle" x="289" y="-45.5" font-family="Helvetica,sans-Serif" font-size="10.00" fill="#000000">xcsf_predict</text>
</a>
</g>
</g>
<!-- Node418&#45;&gt;Node434 -->
<g id="edge20" class="edge">
<title>Node418&#45;&gt;Node434</title>
<path fill="none" stroke="#191970" d="M41.5668,-124.4751C52.967,-106.4199 72.9066,-79.8636 98,-67 147.5222,-41.6134 213.7139,-41.2629 253.7523,-44.0875"/>
<polygon fill="#191970" stroke="#191970" points="38.2978,-123.1188 36.1334,-133.4902 44.2931,-126.7322 38.2978,-123.1188"/>
</g>
<!-- Node436 -->
<g id="node19" class="node">
<title>Node436</title>
<g id="a_node19"><a xlink:href="xcsf_8h.html#ae1f6851f682e015601030a5c725c6618" target="_top" xlink:title="Prints the XCSF match set for the supplied input. ">
<polygon fill="none" stroke="#000000" points="234,-.5 234,-19.5 344,-19.5 344,-.5 234,-.5"/>
<text text-anchor="middle" x="289" y="-7.5" font-family="Helvetica,sans-Serif" font-size="10.00" fill="#000000">xcsf_print_match_set</text>
</a>
</g>
</g>
<!-- Node418&#45;&gt;Node436 -->
<g id="edge23" class="edge">
<title>Node418&#45;&gt;Node436</title>
<path fill="none" stroke="#191970" d="M37.669,-123.8054C47.0986,-99.7519 66.7471,-59.2349 98,-39 138.2601,-12.9334 193.1392,-6.9393 233.743,-6.7264"/>
<polygon fill="#191970" stroke="#191970" points="34.3496,-122.6902 34.1496,-133.2832 40.9118,-125.127 34.3496,-122.6902"/>
</g>
<!-- Node438 -->
<g id="node21" class="node">
<title>Node438</title>
<g id="a_node21"><a xlink:href="xcsf_8c.html#a40ac6b86844534bd5124b4e936c768ee" target="_top" xlink:title="Executes a single XCSF testing trial. ">
<polygon fill="none" stroke="#000000" points="109,-114.5 109,-133.5 187,-133.5 187,-114.5 109,-114.5"/>
<text text-anchor="middle" x="148" y="-121.5" font-family="Helvetica,sans-Serif" font-size="10.00" fill="#000000">xcsf_test_trial</text>
</a>
</g>
</g>
<!-- Node418&#45;&gt;Node438 -->
<g id="edge26" class="edge">
<title>Node418&#45;&gt;Node438</title>
<path fill="none" stroke="#191970" d="M72.1846,-136.3119C84.0929,-134.3781 97.0533,-132.2734 108.8348,-130.3602"/>
<polygon fill="#191970" stroke="#191970" points="71.3563,-132.9005 62.0467,-137.9582 72.4784,-139.81 71.3563,-132.9005"/>
</g>
<!-- Node420 -->
<g id="node3" class="node">
<title>Node420</title>
<g id="a_node3"><a xlink:href="xcs__multi__step_8h.html#acc29d4a55dbd56c16ea5f19f15a7c677" target="_top" xlink:title="Executes a multi&#45;step reinforcement learning experiment. ">
<polygon fill="none" stroke="#000000" points="237,-228.5 237,-247.5 341,-247.5 341,-228.5 237,-228.5"/>
<text text-anchor="middle" x="289" y="-235.5" font-family="Helvetica,sans-Serif" font-size="10.00" fill="#000000">xcs_multi_step_exp</text>
</a>
</g>
</g>
<!-- Node419&#45;&gt;Node420 -->
<g id="edge2" class="edge">
<title>Node419&#45;&gt;Node420</title>
<path fill="none" stroke="#191970" d="M204.2986,-238C215.0471,-238 226.2549,-238 236.8661,-238"/>
<polygon fill="#191970" stroke="#191970" points="204.1687,-234.5001 194.1687,-238 204.1686,-241.5001 204.1687,-234.5001"/>
</g>
<!-- Node421 -->
<g id="node4" class="node">
<title>Node421</title>
<g id="a_node4"><a xlink:href="main_8c.html#ab572a67aa431827116ebd6931d667d21" target="_top" xlink:title="classification">
<polygon fill="none" stroke="#000000" points="399.5,-228.5 399.5,-247.5 473.5,-247.5 473.5,-228.5 399.5,-228.5"/>
<text text-anchor="middle" x="436.5" y="-235.5" font-family="Helvetica,sans-Serif" font-size="10.00" fill="#000000">classification</text>
</a>
</g>
</g>
<!-- Node420&#45;&gt;Node421 -->
<g id="edge3" class="edge">
<title>Node420&#45;&gt;Node421</title>
<path fill="none" stroke="#191970" d="M351.0871,-238C367.495,-238 384.6931,-238 399.3212,-238"/>
<polygon fill="#191970" stroke="#191970" points="351.003,-234.5001 341.003,-238 351.0029,-241.5001 351.003,-234.5001"/>
</g>
<!-- Node422 -->
<g id="node5" class="node">
<title>Node422</title>
<g id="a_node5"><a xlink:href="main_8c.html#a3c04138a5bfe5d72780bb7e82a18e627" target="_top" xlink:title="main">
<polygon fill="none" stroke="#000000" points="583,-190.5 583,-209.5 621,-209.5 621,-190.5 583,-190.5"/>
<text text-anchor="middle" x="602" y="-197.5" font-family="Helvetica,sans-Serif" font-size="10.00" fill="#000000">main</text>
</a>
</g>
</g>
<!-- Node421&#45;&gt;Node422 -->
<g id="edge4" class="edge">
<title>Node421&#45;&gt;Node422</title>
<path fill="none" stroke="#191970" d="M483.5453,-227.1981C516.5245,-219.6258 558.8651,-209.9041 582.9621,-204.3713"/>
<polygon fill="#191970" stroke="#191970" points="482.6045,-223.8229 473.6414,-229.4721 484.1711,-230.6454 482.6045,-223.8229"/>
</g>
<!-- Node423&#45;&gt;Node420 -->
<g id="edge6" class="edge">
<title>Node423&#45;&gt;Node420</title>
<path fill="none" stroke="#191970" d="M193.4398,-263.7538C212.875,-258.516 235.2311,-252.4909 253.4311,-247.5859"/>
<polygon fill="#191970" stroke="#191970" points="192.325,-260.4293 183.5803,-266.411 194.1465,-267.1882 192.325,-260.4293"/>
</g>
<!-- Node425 -->
<g id="node8" class="node">
<title>Node425</title>
<g id="a_node8"><a xlink:href="xcs__single__step_8h.html#a39a031bf59eaa9b33e30e614610dcda8" target="_top" xlink:title="Executes a single&#45;step experiment. ">
<polygon fill="none" stroke="#000000" points="235,-190.5 235,-209.5 343,-209.5 343,-190.5 235,-190.5"/>
<text text-anchor="middle" x="289" y="-197.5" font-family="Helvetica,sans-Serif" font-size="10.00" fill="#000000">xcs_single_step_exp</text>
</a>
</g>
</g>
<!-- Node424&#45;&gt;Node425 -->
<g id="edge8" class="edge">
<title>Node424&#45;&gt;Node425</title>
<path fill="none" stroke="#191970" d="M206.774,-200C215.9867,-200 225.4743,-200 234.5834,-200"/>
<polygon fill="#191970" stroke="#191970" points="206.5242,-196.5001 196.5242,-200 206.5242,-203.5001 206.5242,-196.5001"/>
</g>
<!-- Node425&#45;&gt;Node421 -->
<g id="edge9" class="edge">
<title>Node425&#45;&gt;Node421</title>
<path fill="none" stroke="#191970" d="M336.0141,-212.1121C356.5566,-217.4044 380.2998,-223.5213 399.5472,-228.4799"/>
<polygon fill="#191970" stroke="#191970" points="336.7775,-208.6946 326.2205,-209.589 335.0311,-215.4732 336.7775,-208.6946"/>
</g>
<!-- Node426&#45;&gt;Node425 -->
<g id="edge11" class="edge">
<title>Node426&#45;&gt;Node425</title>
<path fill="none" stroke="#191970" d="M193.4398,-174.2462C212.875,-179.484 235.2311,-185.5091 253.4311,-190.4141"/>
<polygon fill="#191970" stroke="#191970" points="194.1465,-170.8118 183.5803,-171.589 192.325,-177.5707 194.1465,-170.8118"/>
</g>
<!-- Node428 -->
<g id="node11" class="node">
<title>Node428</title>
<g id="a_node11"><a xlink:href="xcsf_8h.html#a874829f28fee20f9ad15b540f4b4d6ff" target="_top" xlink:title="Executes MAX_TRIALS number of XCSF learning iterations using the training data. ">
<polygon fill="none" stroke="#000000" points="262,-76.5 262,-95.5 316,-95.5 316,-76.5 262,-76.5"/>
<text text-anchor="middle" x="289" y="-83.5" font-family="Helvetica,sans-Serif" font-size="10.00" fill="#000000">xcsf_fit1</text>
</a>
</g>
</g>
<!-- Node427&#45;&gt;Node428 -->
<g id="edge13" class="edge">
<title>Node427&#45;&gt;Node428</title>
<path fill="none" stroke="#191970" d="M199.6807,-86C220.8063,-86 244.3646,-86 261.9806,-86"/>
<polygon fill="#191970" stroke="#191970" points="199.5421,-82.5001 189.542,-86 199.542,-89.5001 199.5421,-82.5001"/>
</g>
<!-- Node431 -->
<g id="node14" class="node">
<title>Node431</title>
<g id="a_node14"><a xlink:href="xcsf_8h.html#a0b4de57cb9dadc9deca7901aa36e5025" target="_top" xlink:title="Executes MAX_TRIALS number of XCSF learning iterations using the training. data and test iterations u...">
<polygon fill="none" stroke="#000000" points="262,-114.5 262,-133.5 316,-133.5 316,-114.5 262,-114.5"/>
<text text-anchor="middle" x="289" y="-121.5" font-family="Helvetica,sans-Serif" font-size="10.00" fill="#000000">xcsf_fit2</text>
</a>
</g>
</g>
<!-- Node427&#45;&gt;Node431 -->
<g id="edge16" class="edge">
<title>Node427&#45;&gt;Node431</title>
<path fill="none" stroke="#191970" d="M193.3153,-98.2126C215.9134,-104.3029 242.4861,-111.4643 261.8868,-116.6929"/>
<polygon fill="#191970" stroke="#191970" points="194.1465,-94.8118 183.5803,-95.589 192.325,-101.5707 194.1465,-94.8118"/>
</g>
<!-- Node429 -->
<g id="node12" class="node">
<title>Node429</title>
<g id="a_node12"><a xlink:href="structXCS.html#ad2ccafe59d2b4ae6d0e1cbc15edee53c" target="_top" xlink:title="XCS::fit">
<polygon fill="none" stroke="#000000" points="410.5,-76.5 410.5,-95.5 462.5,-95.5 462.5,-76.5 410.5,-76.5"/>
<text text-anchor="middle" x="436.5" y="-83.5" font-family="Helvetica,sans-Serif" font-size="10.00" fill="#000000">XCS::fit</text>
</a>
</g>
</g>
<!-- Node428&#45;&gt;Node429 -->
<g id="edge14" class="edge">
<title>Node428&#45;&gt;Node429</title>
<path fill="none" stroke="#191970" d="M326.3464,-86C352.4913,-86 386.7833,-86 410.114,-86"/>
<polygon fill="#191970" stroke="#191970" points="326.0538,-82.5001 316.0538,-86 326.0537,-89.5001 326.0538,-82.5001"/>
</g>
<!-- Node430 -->
<g id="node13" class="node">
<title>Node430</title>
<g id="a_node13"><a xlink:href="python__wrapper_8cpp.html#afbdcc1358036a0b83a6b239da2b098a2" target="_top" xlink:title="BOOST_PYTHON_MODULE">
<polygon fill="none" stroke="#000000" points="529,-57.5 529,-76.5 675,-76.5 675,-57.5 529,-57.5"/>
<text text-anchor="middle" x="602" y="-64.5" font-family="Helvetica,sans-Serif" font-size="10.00" fill="#000000">BOOST_PYTHON_MODULE</text>
</a>
</g>
</g>
<!-- Node429&#45;&gt;Node430 -->
<g id="edge15" class="edge">
<title>Node429&#45;&gt;Node430</title>
<path fill="none" stroke="#191970" d="M472.9611,-81.8141C489.3946,-79.9275 509.4187,-77.6287 528.743,-75.4102"/>
<polygon fill="#191970" stroke="#191970" points="472.2595,-78.3716 462.724,-82.9894 473.0579,-85.3259 472.2595,-78.3716"/>
</g>
<!-- Node432 -->
<g id="node15" class="node">
<title>Node432</title>
<g id="a_node15"><a xlink:href="main_8c.html#a968c78da8ed8ad08662a86280deec99a" target="_top" xlink:title="regression">
<polygon fill="none" stroke="#000000" points="405.5,-152.5 405.5,-171.5 467.5,-171.5 467.5,-152.5 405.5,-152.5"/>
<text text-anchor="middle" x="436.5" y="-159.5" font-family="Helvetica,sans-Serif" font-size="10.00" fill="#000000">regression</text>
</a>
</g>
</g>
<!-- Node431&#45;&gt;Node432 -->
<g id="edge17" class="edge">
<title>Node431&#45;&gt;Node432</title>
<path fill="none" stroke="#191970" d="M326.0371,-133.5418C350.4695,-139.8362 382.118,-147.9897 405.2726,-153.955"/>
<polygon fill="#191970" stroke="#191970" points="326.6108,-130.0753 316.0538,-130.9698 324.8644,-136.854 326.6108,-130.0753"/>
</g>
<!-- Node433 -->
<g id="node16" class="node">
<title>Node433</title>
<g id="a_node16"><a xlink:href="structXCS.html#a7d53320740db8e846251bacd0238a9fb" target="_top" xlink:title="XCS::fit">
<polygon fill="none" stroke="#000000" points="410.5,-114.5 410.5,-133.5 462.5,-133.5 462.5,-114.5 410.5,-114.5"/>
<text text-anchor="middle" x="436.5" y="-121.5" font-family="Helvetica,sans-Serif" font-size="10.00" fill="#000000">XCS::fit</text>
</a>
</g>
</g>
<!-- Node431&#45;&gt;Node433 -->
<g id="edge19" class="edge">
<title>Node431&#45;&gt;Node433</title>
<path fill="none" stroke="#191970" d="M326.3464,-124C352.4913,-124 386.7833,-124 410.114,-124"/>
<polygon fill="#191970" stroke="#191970" points="326.0538,-120.5001 316.0538,-124 326.0537,-127.5001 326.0538,-120.5001"/>
</g>
<!-- Node432&#45;&gt;Node422 -->
<g id="edge18" class="edge">
<title>Node432&#45;&gt;Node422</title>
<path fill="none" stroke="#191970" d="M477.6335,-171.4445C511.2693,-179.1676 557.3073,-189.7382 582.8863,-195.6113"/>
<polygon fill="#191970" stroke="#191970" points="478.1589,-167.9742 467.6293,-169.1475 476.5924,-174.7967 478.1589,-167.9742"/>
</g>
<!-- Node435 -->
<g id="node18" class="node">
<title>Node435</title>
<g id="a_node18"><a xlink:href="structXCS.html#a911ed75c86abed7807d33eb1385240ed" target="_top" xlink:title="XCS::predict">
<polygon fill="none" stroke="#000000" points="400,-38.5 400,-57.5 473,-57.5 473,-38.5 400,-38.5"/>
<text text-anchor="middle" x="436.5" y="-45.5" font-family="Helvetica,sans-Serif" font-size="10.00" fill="#000000">XCS::predict</text>
</a>
</g>
</g>
<!-- Node434&#45;&gt;Node435 -->
<g id="edge21" class="edge">
<title>Node434&#45;&gt;Node435</title>
<path fill="none" stroke="#191970" d="M334.3334,-48C355.3834,-48 380.0797,-48 399.9179,-48"/>
<polygon fill="#191970" stroke="#191970" points="334.33,-44.5001 324.3299,-48 334.3299,-51.5001 334.33,-44.5001"/>
</g>
<!-- Node435&#45;&gt;Node430 -->
<g id="edge22" class="edge">
<title>Node435&#45;&gt;Node430</title>
<path fill="none" stroke="#191970" d="M483.1994,-53.3613C497.359,-54.9868 513.2692,-56.8134 528.7317,-58.5885"/>
<polygon fill="#191970" stroke="#191970" points="483.5638,-49.8802 473.2298,-52.2167 482.7653,-56.8345 483.5638,-49.8802"/>
</g>
<!-- Node437 -->
<g id="node20" class="node">
<title>Node437</title>
<g id="a_node20"><a xlink:href="structXCS.html#aa5608b379fae01b724267a99068d55bb" target="_top" xlink:title="XCS::print_match_set">
<polygon fill="none" stroke="#000000" points="380,-.5 380,-19.5 493,-19.5 493,-.5 380,-.5"/>
<text text-anchor="middle" x="436.5" y="-7.5" font-family="Helvetica,sans-Serif" font-size="10.00" fill="#000000">XCS::print_match_set</text>
</a>
</g>
</g>
<!-- Node436&#45;&gt;Node437 -->
<g id="edge24" class="edge">
<title>Node436&#45;&gt;Node437</title>
<path fill="none" stroke="#191970" d="M354.542,-10C362.9872,-10 371.5777,-10 379.8632,-10"/>
<polygon fill="#191970" stroke="#191970" points="354.3432,-6.5001 344.3432,-10 354.3432,-13.5001 354.3432,-6.5001"/>
</g>
<!-- Node437&#45;&gt;Node430 -->
<g id="edge25" class="edge">
<title>Node437&#45;&gt;Node430</title>
<path fill="none" stroke="#191970" d="M474.4998,-22.7146C480.6871,-24.8033 487.0246,-26.9538 493,-29 520.8708,-38.5441 552.674,-49.6571 574.7037,-57.3902"/>
<polygon fill="#191970" stroke="#191970" points="475.5681,-19.3813 464.974,-19.5071 473.3342,-26.0153 475.5681,-19.3813"/>
</g>
<!-- Node438&#45;&gt;Node431 -->
<g id="edge27" class="edge">
<title>Node438&#45;&gt;Node431</title>
<path fill="none" stroke="#191970" d="M197.3319,-124C219.042,-124 243.7041,-124 261.9754,-124"/>
<polygon fill="#191970" stroke="#191970" points="197.2764,-120.5001 187.2764,-124 197.2763,-127.5001 197.2764,-120.5001"/>
</g>
<!-- Node439 -->
<g id="node22" class="node">
<title>Node439</title>
<g id="a_node22"><a xlink:href="xcsf_8h.html#a2cf95733e5f97410d94211b72e835847" target="_top" xlink:title="Calculates the XCSF error for the input data. ">
<polygon fill="none" stroke="#000000" points="256.5,-152.5 256.5,-171.5 321.5,-171.5 321.5,-152.5 256.5,-152.5"/>
<text text-anchor="middle" x="289" y="-159.5" font-family="Helvetica,sans-Serif" font-size="10.00" fill="#000000">xcsf_score</text>
</a>
</g>
</g>
<!-- Node438&#45;&gt;Node439 -->
<g id="edge28" class="edge">
<title>Node438&#45;&gt;Node439</title>
<path fill="none" stroke="#191970" d="M193.3459,-136.2209C213.8477,-141.7462 237.6159,-148.1518 256.3306,-153.1955"/>
<polygon fill="#191970" stroke="#191970" points="194.1465,-132.8118 183.5803,-133.589 192.325,-139.5707 194.1465,-132.8118"/>
</g>
<!-- Node440 -->
<g id="node23" class="node">
<title>Node440</title>
<g id="a_node23"><a xlink:href="structXCS.html#aa77bc77484d6d14bf512304a23cfec88" target="_top" xlink:title="XCS::score">
<polygon fill="none" stroke="#000000" points="402.5,-190.5 402.5,-209.5 470.5,-209.5 470.5,-190.5 402.5,-190.5"/>
<text text-anchor="middle" x="436.5" y="-197.5" font-family="Helvetica,sans-Serif" font-size="10.00" fill="#000000">XCS::score</text>
</a>
</g>
</g>
<!-- Node439&#45;&gt;Node440 -->
<g id="edge29" class="edge">
<title>Node439&#45;&gt;Node440</title>
<path fill="none" stroke="#191970" d="M331.6796,-172.9954C354.1279,-178.7787 381.2761,-185.7728 402.3188,-191.194"/>
<polygon fill="#191970" stroke="#191970" points="332.292,-169.539 321.735,-170.4334 330.5456,-176.3176 332.292,-169.539"/>
</g>
<!-- Node440&#45;&gt;Node430 -->
<g id="edge30" class="edge">
<title>Node440&#45;&gt;Node430</title>
<path fill="none" stroke="#191970" d="M479.98,-187.8145C484.5243,-185.833 488.9549,-183.5706 493,-181 539.2217,-151.6264 579.7503,-98.569 595.2698,-76.7619"/>
<polygon fill="#191970" stroke="#191970" points="478.6147,-184.5903 470.5797,-191.4961 481.1674,-191.1082 478.6147,-184.5903"/>
</g>
</g>
</svg>
