<?xml version="1.0" encoding="UTF-8" standalone="no"?>
<!DOCTYPE svg PUBLIC "-//W3C//DTD SVG 1.1//EN"
 "http://www.w3.org/Graphics/SVG/1.1/DTD/svg11.dtd">
<!-- Generated by graphviz version 2.40.1 (20161225.0304)
 -->
<!-- Title: set_init Pages: 1 -->
<svg width="797pt" height="400pt"
 viewBox="0.00 0.00 797.00 399.86" xmlns="http://www.w3.org/2000/svg" xmlns:xlink="http://www.w3.org/1999/xlink">
<g id="graph0" class="graph" transform="scale(1 1) rotate(0) translate(4 395.862)">
<title>set_init</title>
<!-- Node257 -->
<g id="node1" class="node">
<title>Node257</title>
<polygon fill="#bfbfbf" stroke="#000000" points="0,-204.7305 0,-223.7305 48,-223.7305 48,-204.7305 0,-204.7305"/>
<text text-anchor="middle" x="24" y="-211.7305" font-family="Helvetica,sans-Serif" font-size="10.00" fill="#000000">set_init</text>
</g>
<!-- Node258 -->
<g id="node2" class="node">
<title>Node258</title>
<g id="a_node2"><a xlink:href="cl__set_8h.html#a1e1060f1e8c1f916d798864804078e88" target="_top" xlink:title="Initialises a new population set. ">
<polygon fill="none" stroke="#000000" points="233,-280.7305 233,-299.7305 283,-299.7305 283,-280.7305 233,-280.7305"/>
<text text-anchor="middle" x="258" y="-287.7305" font-family="Helvetica,sans-Serif" font-size="10.00" fill="#000000">pop_init</text>
</a>
</g>
</g>
<!-- Node257&#45;&gt;Node258 -->
<g id="edge1" class="edge">
<title>Node257&#45;&gt;Node258</title>
<path fill="none" stroke="#191970" d="M37.1695,-231.8655C48.1272,-245.1024 64.968,-262.4036 84,-271.2305 132.9319,-293.9247 197.6591,-294.2826 232.754,-292.3682"/>
<polygon fill="#191970" stroke="#191970" points="39.804,-229.5544 30.8544,-223.8839 34.3144,-233.8978 39.804,-229.5544"/>
</g>
<!-- Node262 -->
<g id="node6" class="node">
<title>Node262</title>
<g id="a_node6"><a xlink:href="structXCS.html#ab58a4fb495b05f3450b182bc21dcba1f" target="_top" xlink:title="XCS::single_reset">
<polygon fill="none" stroke="#000000" points="355,-280.7305 355,-299.7305 451,-299.7305 451,-280.7305 355,-280.7305"/>
<text text-anchor="middle" x="403" y="-287.7305" font-family="Helvetica,sans-Serif" font-size="10.00" fill="#000000">XCS::single_reset</text>
</a>
</g>
</g>
<!-- Node257&#45;&gt;Node262 -->
<g id="edge12" class="edge">
<title>Node257&#45;&gt;Node262</title>
<path fill="none" stroke="#191970" d="M28.6958,-233.7374C38.2334,-271.5416 60.9313,-352.4606 84,-368.2305 186.3704,-438.2117 345.0568,-332.9763 390.4714,-299.7407"/>
<polygon fill="#191970" stroke="#191970" points="32.0636,-232.7761 26.2684,-223.9067 25.2677,-234.4542 32.0636,-232.7761"/>
</g>
<!-- Node263 -->
<g id="node7" class="node">
<title>Node263</title>
<g id="a_node7"><a xlink:href="cl__set_8h.html#a488209fe1e7dc1ef3d09d9aa94340329" target="_top" xlink:title="Reads the population set from a binary file. ">
<polygon fill="none" stroke="#000000" points="98,-318.7305 98,-337.7305 154,-337.7305 154,-318.7305 98,-318.7305"/>
<text text-anchor="middle" x="126" y="-325.7305" font-family="Helvetica,sans-Serif" font-size="10.00" fill="#000000">pop_load</text>
</a>
</g>
</g>
<!-- Node257&#45;&gt;Node263 -->
<g id="edge7" class="edge">
<title>Node257&#45;&gt;Node263</title>
<path fill="none" stroke="#191970" d="M33.2093,-233.0911C43.496,-252.701 61.6718,-283.3891 84,-304.2305 90.0165,-309.8464 97.5815,-314.6797 104.6278,-318.5066"/>
<polygon fill="#191970" stroke="#191970" points="36.2187,-231.2873 28.5689,-223.9571 29.9779,-234.4579 36.2187,-231.2873"/>
</g>
<!-- Node264 -->
<g id="node8" class="node">
<title>Node264</title>
<g id="a_node8"><a xlink:href="xcsf_8h.html#a70e6ae30c7d4e471009c4611255ed873" target="_top" xlink:title="Reads the state of XCSF from a binary file. ">
<polygon fill="none" stroke="#000000" points="228.5,-318.7305 228.5,-337.7305 287.5,-337.7305 287.5,-318.7305 228.5,-318.7305"/>
<text text-anchor="middle" x="258" y="-325.7305" font-family="Helvetica,sans-Serif" font-size="10.00" fill="#000000">xcsf_load</text>
</a>
</g>
</g>
<!-- Node257&#45;&gt;Node264 -->
<g id="edge27" class="edge">
<title>Node257&#45;&gt;Node264</title>
<path fill="none" stroke="#191970" d="M26.3122,-234.0963C31.0487,-264.5786 44.9435,-322.0031 84,-347.2305 132.3718,-378.4749 204.4734,-353.0519 238.6684,-337.7356"/>
<polygon fill="#191970" stroke="#191970" points="29.7346,-233.2897 24.912,-223.8562 22.7991,-234.2382 29.7346,-233.2897"/>
</g>
<!-- Node266 -->
<g id="node10" class="node">
<title>Node266</title>
<g id="a_node10"><a xlink:href="structXCS.html#ad372bae45743be0fbf7d95b67e13b390" target="_top" xlink:title="Initialises python XCS structure. ">
<polygon fill="none" stroke="#000000" points="87.5,-242.7305 87.5,-261.7305 164.5,-261.7305 164.5,-242.7305 87.5,-242.7305"/>
<text text-anchor="middle" x="126" y="-249.7305" font-family="Helvetica,sans-Serif" font-size="10.00" fill="#000000">XCS::xcs_init</text>
</a>
</g>
</g>
<!-- Node257&#45;&gt;Node266 -->
<g id="edge13" class="edge">
<title>Node257&#45;&gt;Node266</title>
<path fill="none" stroke="#191970" d="M57.827,-226.8327C71.6413,-231.9792 87.3587,-237.8347 100.2178,-242.6254"/>
<polygon fill="#191970" stroke="#191970" points="58.7653,-223.4473 48.1726,-223.236 56.3215,-230.0069 58.7653,-223.4473"/>
</g>
<!-- Node268 -->
<g id="node12" class="node">
<title>Node268</title>
<g id="a_node12"><a xlink:href="xcs__multi__step_8c.html#a1e1c2a3094be715b468dda79cd59ebf3" target="_top" xlink:title="Executes a multi&#45;step trial using a built&#45;in environment. ">
<polygon fill="none" stroke="#000000" points="86,-166.7305 86,-185.7305 166,-185.7305 166,-166.7305 86,-166.7305"/>
<text text-anchor="middle" x="126" y="-173.7305" font-family="Helvetica,sans-Serif" font-size="10.00" fill="#000000">xcs_multi_trial</text>
</a>
</g>
</g>
<!-- Node257&#45;&gt;Node268 -->
<g id="edge15" class="edge">
<title>Node257&#45;&gt;Node268</title>
<path fill="none" stroke="#191970" d="M57.827,-201.6283C71.6413,-196.4818 87.3587,-190.6263 100.2178,-185.8356"/>
<polygon fill="#191970" stroke="#191970" points="56.3215,-198.4541 48.1726,-205.225 58.7653,-205.0137 56.3215,-198.4541"/>
</g>
<!-- Node270 -->
<g id="node14" class="node">
<title>Node270</title>
<g id="a_node14"><a xlink:href="xcs__single__step_8c.html#a3d1fd2472d35310800aed897219a65af" target="_top" xlink:title="Executes a single&#45;step trial using a built&#45;in environment. ">
<polygon fill="none" stroke="#000000" points="84,-204.7305 84,-223.7305 168,-223.7305 168,-204.7305 84,-204.7305"/>
<text text-anchor="middle" x="126" y="-211.7305" font-family="Helvetica,sans-Serif" font-size="10.00" fill="#000000">xcs_single_trial</text>
</a>
</g>
</g>
<!-- Node257&#45;&gt;Node270 -->
<g id="edge18" class="edge">
<title>Node257&#45;&gt;Node270</title>
<path fill="none" stroke="#191970" d="M58.3877,-214.2305C66.4947,-214.2305 75.2303,-214.2305 83.6428,-214.2305"/>
<polygon fill="#191970" stroke="#191970" points="58.1726,-210.7306 48.1726,-214.2305 58.1725,-217.7306 58.1726,-210.7306"/>
</g>
<!-- Node272 -->
<g id="node16" class="node">
<title>Node272</title>
<g id="a_node16"><a xlink:href="xcsf_8c.html#a474f4e13cfc5f00958c689cd8c81135a" target="_top" xlink:title="Executes a single XCSF learning trial. ">
<polygon fill="none" stroke="#000000" points="84.5,-128.7305 84.5,-147.7305 167.5,-147.7305 167.5,-128.7305 84.5,-128.7305"/>
<text text-anchor="middle" x="126" y="-135.7305" font-family="Helvetica,sans-Serif" font-size="10.00" fill="#000000">xcsf_learn_trial</text>
</a>
</g>
</g>
<!-- Node257&#45;&gt;Node272 -->
<g id="edge21" class="edge">
<title>Node257&#45;&gt;Node272</title>
<path fill="none" stroke="#191970" d="M39.179,-197.0016C50.6099,-184.769 67.1475,-168.5703 84,-157.2305 89.3119,-153.6562 95.4054,-150.4604 101.2733,-147.7555"/>
<polygon fill="#191970" stroke="#191970" points="36.2872,-194.9788 32.1401,-204.7283 41.4619,-199.6929 36.2872,-194.9788"/>
</g>
<!-- Node276 -->
<g id="node20" class="node">
<title>Node276</title>
<g id="a_node20"><a xlink:href="xcsf_8h.html#af0b9db7273578fdff649d46823cd9790" target="_top" xlink:title="Calculates the XCSF predictions for the provided input. ">
<polygon fill="none" stroke="#000000" points="368,-52.7305 368,-71.7305 438,-71.7305 438,-52.7305 368,-52.7305"/>
<text text-anchor="middle" x="403" y="-59.7305" font-family="Helvetica,sans-Serif" font-size="10.00" fill="#000000">xcsf_predict</text>
</a>
</g>
</g>
<!-- Node257&#45;&gt;Node276 -->
<g id="edge28" class="edge">
<title>Node257&#45;&gt;Node276</title>
<path fill="none" stroke="#191970" d="M26.5696,-194.2029C31.6212,-163.9843 45.896,-107.4809 84,-81.2305 170.8066,-21.4281 304.4784,-39.9289 367.633,-53.4433"/>
<polygon fill="#191970" stroke="#191970" points="23.0653,-193.9733 25.0546,-204.3796 29.989,-195.004 23.0653,-193.9733"/>
</g>
<!-- Node278 -->
<g id="node22" class="node">
<title>Node278</title>
<g id="a_node22"><a xlink:href="xcsf_8h.html#ae1f6851f682e015601030a5c725c6618" target="_top" xlink:title="Prints the XCSF match set for the supplied input. ">
<polygon fill="none" stroke="#000000" points="348,-14.7305 348,-33.7305 458,-33.7305 458,-14.7305 348,-14.7305"/>
<text text-anchor="middle" x="403" y="-21.7305" font-family="Helvetica,sans-Serif" font-size="10.00" fill="#000000">xcsf_print_match_set</text>
</a>
</g>
</g>
<!-- Node257&#45;&gt;Node278 -->
<g id="edge31" class="edge">
<title>Node257&#45;&gt;Node278</title>
<path fill="none" stroke="#191970" d="M28.1129,-194.5361C37.0327,-153.8703 59.3484,-62.8566 84,-44.2305 167.7882,19.0777 302.0284,-.2862 366.3361,-14.6883"/>
<polygon fill="#191970" stroke="#191970" points="24.6361,-194.0572 25.9615,-204.5688 31.4805,-195.525 24.6361,-194.0572"/>
</g>
<!-- Node280 -->
<g id="node24" class="node">
<title>Node280</title>
<g id="a_node24"><a xlink:href="xcsf_8c.html#aa6edd3962ddd04940e2c78a4f99de7cd" target="_top" xlink:title="Executes a single XCSF testing trial. ">
<polygon fill="none" stroke="#000000" points="87,-90.7305 87,-109.7305 165,-109.7305 165,-90.7305 87,-90.7305"/>
<text text-anchor="middle" x="126" y="-97.7305" font-family="Helvetica,sans-Serif" font-size="10.00" fill="#000000">xcsf_test_trial</text>
</a>
</g>
</g>
<!-- Node257&#45;&gt;Node280 -->
<g id="edge34" class="edge">
<title>Node257&#45;&gt;Node280</title>
<path fill="none" stroke="#191970" d="M31.8514,-195.4161C41.4411,-174.414 59.4675,-140.5809 84,-119.2305 88.2259,-115.5527 93.281,-112.4657 98.3959,-109.9212"/>
<polygon fill="#191970" stroke="#191970" points="28.6416,-194.0209 27.83,-204.5846 35.0521,-196.8327 28.6416,-194.0209"/>
</g>
<!-- Node259 -->
<g id="node3" class="node">
<title>Node259</title>
<g id="a_node3"><a xlink:href="structXCS.html#ad2ccafe59d2b4ae6d0e1cbc15edee53c" target="_top" xlink:title="XCS::fit">
<polygon fill="none" stroke="#000000" points="524.5,-128.7305 524.5,-147.7305 576.5,-147.7305 576.5,-128.7305 524.5,-128.7305"/>
<text text-anchor="middle" x="550.5" y="-135.7305" font-family="Helvetica,sans-Serif" font-size="10.00" fill="#000000">XCS::fit</text>
</a>
</g>
</g>
<!-- Node258&#45;&gt;Node259 -->
<g id="edge2" class="edge">
<title>Node258&#45;&gt;Node259</title>
<path fill="none" stroke="#191970" d="M293.2717,-282.493C342.8322,-271.2325 430.1429,-249.8602 458,-233.2305 496.5433,-210.2215 530.0382,-167.1448 543.8122,-147.9225"/>
<polygon fill="#191970" stroke="#191970" points="292.2911,-279.1261 283.304,-284.737 293.8286,-285.9552 292.2911,-279.1261"/>
</g>
<!-- Node261 -->
<g id="node5" class="node">
<title>Node261</title>
<g id="a_node5"><a xlink:href="main_8c.html#a3c04138a5bfe5d72780bb7e82a18e627" target="_top" xlink:title="main">
<polygon fill="none" stroke="#000000" points="384,-204.7305 384,-223.7305 422,-223.7305 422,-204.7305 384,-204.7305"/>
<text text-anchor="middle" x="403" y="-211.7305" font-family="Helvetica,sans-Serif" font-size="10.00" fill="#000000">main</text>
</a>
</g>
</g>
<!-- Node258&#45;&gt;Node261 -->
<g id="edge4" class="edge">
<title>Node258&#45;&gt;Node261</title>
<path fill="none" stroke="#191970" d="M292.6822,-280.3676C299.3166,-277.8389 306.0442,-274.8017 312,-271.2305 330.6151,-260.0686 329.8054,-250.0655 348,-238.2305 359.1784,-230.9593 372.9284,-224.9593 383.8838,-220.7771"/>
<polygon fill="#191970" stroke="#191970" points="291.4116,-277.104 283.1295,-283.7115 293.7244,-283.7109 291.4116,-277.104"/>
</g>
<!-- Node258&#45;&gt;Node262 -->
<g id="edge5" class="edge">
<title>Node258&#45;&gt;Node262</title>
<path fill="none" stroke="#191970" d="M293.3154,-290.2305C311.8312,-290.2305 334.7839,-290.2305 354.8996,-290.2305"/>
<polygon fill="#191970" stroke="#191970" points="293.2571,-286.7306 283.2571,-290.2305 293.257,-293.7306 293.2571,-286.7306"/>
</g>
<!-- Node260 -->
<g id="node4" class="node">
<title>Node260</title>
<g id="a_node4"><a xlink:href="python__wrapper_8cpp.html#afbdcc1358036a0b83a6b239da2b098a2" target="_top" xlink:title="BOOST_PYTHON_MODULE">
<polygon fill="none" stroke="#000000" points="643,-109.7305 643,-128.7305 789,-128.7305 789,-109.7305 643,-109.7305"/>
<text text-anchor="middle" x="716" y="-116.7305" font-family="Helvetica,sans-Serif" font-size="10.00" fill="#000000">BOOST_PYTHON_MODULE</text>
</a>
</g>
</g>
<!-- Node259&#45;&gt;Node260 -->
<g id="edge3" class="edge">
<title>Node259&#45;&gt;Node260</title>
<path fill="none" stroke="#191970" d="M586.9611,-134.0446C603.3946,-132.158 623.4187,-129.8592 642.743,-127.6407"/>
<polygon fill="#191970" stroke="#191970" points="586.2595,-130.6021 576.724,-135.2199 587.0579,-137.5564 586.2595,-130.6021"/>
</g>
<!-- Node262&#45;&gt;Node260 -->
<g id="edge6" class="edge">
<title>Node262&#45;&gt;Node260</title>
<path fill="none" stroke="#191970" d="M434.3376,-276.5638C442.1324,-273.0066 450.424,-269.0864 458,-265.2305 551.7983,-217.4903 660.3758,-152.8561 700.2652,-128.783"/>
<polygon fill="#191970" stroke="#191970" points="432.8409,-273.3992 425.1576,-280.6942 435.7131,-279.7828 432.8409,-273.3992"/>
</g>
<!-- Node263&#45;&gt;Node264 -->
<g id="edge8" class="edge">
<title>Node263&#45;&gt;Node264</title>
<path fill="none" stroke="#191970" d="M164.5259,-328.2305C184.8892,-328.2305 209.5,-328.2305 228.3561,-328.2305"/>
<polygon fill="#191970" stroke="#191970" points="164.3173,-324.7306 154.3173,-328.2305 164.3173,-331.7306 164.3173,-324.7306"/>
</g>
<!-- Node264&#45;&gt;Node261 -->
<g id="edge9" class="edge">
<title>Node264&#45;&gt;Node261</title>
<path fill="none" stroke="#191970" d="M297.112,-316.9855C302.306,-314.7782 307.414,-312.2049 312,-309.2305 331.5186,-296.5712 331.9228,-288.0459 348,-271.2305 363.9653,-254.5322 382.6627,-235.2025 393.6306,-223.8866"/>
<polygon fill="#191970" stroke="#191970" points="295.8475,-313.7218 287.7641,-320.5709 298.3543,-320.2576 295.8475,-313.7218"/>
</g>
<!-- Node265 -->
<g id="node9" class="node">
<title>Node265</title>
<g id="a_node9"><a xlink:href="structXCS.html#adc9b621f2b7a306fbf381dd0efaf268b" target="_top" xlink:title="XCS::load">
<polygon fill="none" stroke="#000000" points="519.5,-289.7305 519.5,-308.7305 581.5,-308.7305 581.5,-289.7305 519.5,-289.7305"/>
<text text-anchor="middle" x="550.5" y="-296.7305" font-family="Helvetica,sans-Serif" font-size="10.00" fill="#000000">XCS::load</text>
</a>
</g>
</g>
<!-- Node264&#45;&gt;Node265 -->
<g id="edge10" class="edge">
<title>Node264&#45;&gt;Node265</title>
<path fill="none" stroke="#191970" d="M297.8084,-324.602C338.1816,-320.8859 402.4568,-314.8709 458,-309.2305 478.4088,-307.158 501.3334,-304.6807 519.2547,-302.7103"/>
<polygon fill="#191970" stroke="#191970" points="297.468,-321.1184 287.83,-325.5184 298.1082,-328.0891 297.468,-321.1184"/>
</g>
<!-- Node265&#45;&gt;Node260 -->
<g id="edge11" class="edge">
<title>Node265&#45;&gt;Node260</title>
<path fill="none" stroke="#191970" d="M569.2622,-282.9984C580.5224,-273.0062 594.9508,-259.7534 607,-247.2305 647.4747,-205.1648 691.236,-150.7018 708.4448,-128.8871"/>
<polygon fill="#191970" stroke="#191970" points="566.9042,-280.4111 561.7023,-289.6409 571.5247,-285.6696 566.9042,-280.4111"/>
</g>
<!-- Node267 -->
<g id="node11" class="node">
<title>Node267</title>
<g id="a_node11"><a xlink:href="structXCS.html#a0dd359a4dfc0a6439a5c6554768c8b9f" target="_top" xlink:title="Constructor for single&#45;step reinforcement learning. ">
<polygon fill="none" stroke="#000000" points="225.5,-242.7305 225.5,-261.7305 290.5,-261.7305 290.5,-242.7305 225.5,-242.7305"/>
<text text-anchor="middle" x="258" y="-249.7305" font-family="Helvetica,sans-Serif" font-size="10.00" fill="#000000">XCS::XCS</text>
</a>
</g>
</g>
<!-- Node266&#45;&gt;Node267 -->
<g id="edge14" class="edge">
<title>Node266&#45;&gt;Node267</title>
<path fill="none" stroke="#191970" d="M174.7966,-252.2305C191.6827,-252.2305 210.184,-252.2305 225.4436,-252.2305"/>
<polygon fill="#191970" stroke="#191970" points="174.5347,-248.7306 164.5347,-252.2305 174.5347,-255.7306 174.5347,-248.7306"/>
</g>
<!-- Node269 -->
<g id="node13" class="node">
<title>Node269</title>
<g id="a_node13"><a xlink:href="xcs__multi__step_8h.html#acc29d4a55dbd56c16ea5f19f15a7c677" target="_top" xlink:title="Executes a multi&#45;step reinforcement learning experiment. ">
<polygon fill="none" stroke="#000000" points="206,-166.7305 206,-185.7305 310,-185.7305 310,-166.7305 206,-166.7305"/>
<text text-anchor="middle" x="258" y="-173.7305" font-family="Helvetica,sans-Serif" font-size="10.00" fill="#000000">xcs_multi_step_exp</text>
</a>
</g>
</g>
<!-- Node268&#45;&gt;Node269 -->
<g id="edge16" class="edge">
<title>Node268&#45;&gt;Node269</title>
<path fill="none" stroke="#191970" d="M176.4938,-176.2305C186.0732,-176.2305 196.1146,-176.2305 205.7472,-176.2305"/>
<polygon fill="#191970" stroke="#191970" points="176.3216,-172.7306 166.3216,-176.2305 176.3216,-179.7306 176.3216,-172.7306"/>
</g>
<!-- Node269&#45;&gt;Node261 -->
<g id="edge17" class="edge">
<title>Node269&#45;&gt;Node261</title>
<path fill="none" stroke="#191970" d="M304.5673,-188.4344C331.394,-195.4648 363.6769,-203.9251 383.7732,-209.1918"/>
<polygon fill="#191970" stroke="#191970" points="305.1503,-184.969 294.5896,-185.8195 303.3757,-191.7403 305.1503,-184.969"/>
</g>
<!-- Node271 -->
<g id="node15" class="node">
<title>Node271</title>
<g id="a_node15"><a xlink:href="xcs__single__step_8h.html#a39a031bf59eaa9b33e30e614610dcda8" target="_top" xlink:title="Executes a single&#45;step experiment. ">
<polygon fill="none" stroke="#000000" points="204,-204.7305 204,-223.7305 312,-223.7305 312,-204.7305 204,-204.7305"/>
<text text-anchor="middle" x="258" y="-211.7305" font-family="Helvetica,sans-Serif" font-size="10.00" fill="#000000">xcs_single_step_exp</text>
</a>
</g>
</g>
<!-- Node270&#45;&gt;Node271 -->
<g id="edge19" class="edge">
<title>Node270&#45;&gt;Node271</title>
<path fill="none" stroke="#191970" d="M178.1756,-214.2305C186.5711,-214.2305 195.2792,-214.2305 203.7227,-214.2305"/>
<polygon fill="#191970" stroke="#191970" points="178.1286,-210.7306 168.1285,-214.2305 178.1285,-217.7306 178.1286,-210.7306"/>
</g>
<!-- Node271&#45;&gt;Node261 -->
<g id="edge20" class="edge">
<title>Node271&#45;&gt;Node261</title>
<path fill="none" stroke="#191970" d="M322.5275,-214.2305C344.7805,-214.2305 368.0477,-214.2305 383.8059,-214.2305"/>
<polygon fill="#191970" stroke="#191970" points="322.4052,-210.7306 312.4052,-214.2305 322.4052,-217.7306 322.4052,-210.7306"/>
</g>
<!-- Node273 -->
<g id="node17" class="node">
<title>Node273</title>
<g id="a_node17"><a xlink:href="xcsf_8h.html#a0b4de57cb9dadc9deca7901aa36e5025" target="_top" xlink:title="Executes MAX_TRIALS number of XCSF learning iterations using the training. data and test iterations u...">
<polygon fill="none" stroke="#000000" points="231,-128.7305 231,-147.7305 285,-147.7305 285,-128.7305 231,-128.7305"/>
<text text-anchor="middle" x="258" y="-135.7305" font-family="Helvetica,sans-Serif" font-size="10.00" fill="#000000">xcsf_fit2</text>
</a>
</g>
</g>
<!-- Node272&#45;&gt;Node273 -->
<g id="edge22" class="edge">
<title>Node272&#45;&gt;Node273</title>
<path fill="none" stroke="#191970" d="M177.8768,-138.2305C195.9015,-138.2305 215.4005,-138.2305 230.6495,-138.2305"/>
<polygon fill="#191970" stroke="#191970" points="177.7657,-134.7306 167.7656,-138.2305 177.7656,-141.7306 177.7657,-134.7306"/>
</g>
<!-- Node273&#45;&gt;Node261 -->
<g id="edge23" class="edge">
<title>Node273&#45;&gt;Node261</title>
<path fill="none" stroke="#191970" d="M294.6549,-148.4604C300.6852,-150.8828 306.6922,-153.788 312,-157.2305 331.5186,-169.8898 328.4453,-182.627 348,-195.2305 358.9539,-202.2906 372.834,-207.06 383.9098,-210.0545"/>
<polygon fill="#191970" stroke="#191970" points="295.8508,-145.1711 285.2567,-145.0435 293.459,-151.7498 295.8508,-145.1711"/>
</g>
<!-- Node274 -->
<g id="node18" class="node">
<title>Node274</title>
<g id="a_node18"><a xlink:href="structXCS.html#a7d53320740db8e846251bacd0238a9fb" target="_top" xlink:title="XCS::fit">
<polygon fill="none" stroke="#000000" points="377,-166.7305 377,-185.7305 429,-185.7305 429,-166.7305 377,-166.7305"/>
<text text-anchor="middle" x="403" y="-173.7305" font-family="Helvetica,sans-Serif" font-size="10.00" fill="#000000">XCS::fit</text>
</a>
</g>
</g>
<!-- Node273&#45;&gt;Node274 -->
<g id="edge24" class="edge">
<title>Node273&#45;&gt;Node274</title>
<path fill="none" stroke="#191970" d="M295.0022,-147.9276C320.5792,-154.6306 353.9816,-163.3843 376.8256,-169.371"/>
<polygon fill="#191970" stroke="#191970" points="295.834,-144.5275 285.2734,-145.378 294.0594,-151.2988 295.834,-144.5275"/>
</g>
<!-- Node275 -->
<g id="node19" class="node">
<title>Node275</title>
<g id="a_node19"><a xlink:href="xcsf_8h.html#a874829f28fee20f9ad15b540f4b4d6ff" target="_top" xlink:title="Executes MAX_TRIALS number of XCSF learning iterations using the training data. ">
<polygon fill="none" stroke="#000000" points="376,-128.7305 376,-147.7305 430,-147.7305 430,-128.7305 376,-128.7305"/>
<text text-anchor="middle" x="403" y="-135.7305" font-family="Helvetica,sans-Serif" font-size="10.00" fill="#000000">xcsf_fit1</text>
</a>
</g>
</g>
<!-- Node273&#45;&gt;Node275 -->
<g id="edge25" class="edge">
<title>Node273&#45;&gt;Node275</title>
<path fill="none" stroke="#191970" d="M295.5466,-138.2305C320.6879,-138.2305 353.2011,-138.2305 375.8489,-138.2305"/>
<polygon fill="#191970" stroke="#191970" points="295.2734,-134.7306 285.2734,-138.2305 295.2734,-141.7306 295.2734,-134.7306"/>
</g>
<!-- Node275&#45;&gt;Node259 -->
<g id="edge26" class="edge">
<title>Node275&#45;&gt;Node259</title>
<path fill="none" stroke="#191970" d="M440.3464,-138.2305C466.4913,-138.2305 500.7833,-138.2305 524.114,-138.2305"/>
<polygon fill="#191970" stroke="#191970" points="440.0538,-134.7306 430.0538,-138.2305 440.0537,-141.7306 440.0538,-134.7306"/>
</g>
<!-- Node277 -->
<g id="node21" class="node">
<title>Node277</title>
<g id="a_node21"><a xlink:href="structXCS.html#a911ed75c86abed7807d33eb1385240ed" target="_top" xlink:title="XCS::predict">
<polygon fill="none" stroke="#000000" points="514,-52.7305 514,-71.7305 587,-71.7305 587,-52.7305 514,-52.7305"/>
<text text-anchor="middle" x="550.5" y="-59.7305" font-family="Helvetica,sans-Serif" font-size="10.00" fill="#000000">XCS::predict</text>
</a>
</g>
</g>
<!-- Node276&#45;&gt;Node277 -->
<g id="edge29" class="edge">
<title>Node276&#45;&gt;Node277</title>
<path fill="none" stroke="#191970" d="M448.3334,-62.2305C469.3834,-62.2305 494.0797,-62.2305 513.9179,-62.2305"/>
<polygon fill="#191970" stroke="#191970" points="448.33,-58.7306 438.3299,-62.2305 448.3299,-65.7306 448.33,-58.7306"/>
</g>
<!-- Node277&#45;&gt;Node260 -->
<g id="edge30" class="edge">
<title>Node277&#45;&gt;Node260</title>
<path fill="none" stroke="#191970" d="M588.4998,-74.9451C594.6871,-77.0338 601.0246,-79.1843 607,-81.2305 634.8708,-90.7746 666.674,-101.8876 688.7037,-109.6207"/>
<polygon fill="#191970" stroke="#191970" points="589.5681,-71.6118 578.974,-71.7376 587.3342,-78.2458 589.5681,-71.6118"/>
</g>
<!-- Node279 -->
<g id="node23" class="node">
<title>Node279</title>
<g id="a_node23"><a xlink:href="structXCS.html#aa5608b379fae01b724267a99068d55bb" target="_top" xlink:title="XCS::print_match_set">
<polygon fill="none" stroke="#000000" points="494,-14.7305 494,-33.7305 607,-33.7305 607,-14.7305 494,-14.7305"/>
<text text-anchor="middle" x="550.5" y="-21.7305" font-family="Helvetica,sans-Serif" font-size="10.00" fill="#000000">XCS::print_match_set</text>
</a>
</g>
</g>
<!-- Node278&#45;&gt;Node279 -->
<g id="edge32" class="edge">
<title>Node278&#45;&gt;Node279</title>
<path fill="none" stroke="#191970" d="M468.542,-24.2305C476.9872,-24.2305 485.5777,-24.2305 493.8632,-24.2305"/>
<polygon fill="#191970" stroke="#191970" points="468.3432,-20.7306 458.3432,-24.2305 468.3432,-27.7306 468.3432,-20.7306"/>
</g>
<!-- Node279&#45;&gt;Node260 -->
<g id="edge33" class="edge">
<title>Node279&#45;&gt;Node260</title>
<path fill="none" stroke="#191970" d="M593.5064,-37.2501C598.1388,-39.0764 602.7196,-41.0743 607,-43.2305 645.3214,-62.5348 685.4974,-93.9074 704.6034,-109.621"/>
<polygon fill="#191970" stroke="#191970" points="594.5984,-33.9224 584.005,-33.7467 592.1766,-40.4902 594.5984,-33.9224"/>
</g>
<!-- Node280&#45;&gt;Node273 -->
<g id="edge35" class="edge">
<title>Node280&#45;&gt;Node273</title>
<path fill="none" stroke="#191970" d="M169.0025,-112.61C189.3776,-118.4756 213.0946,-125.3032 230.9194,-130.4346"/>
<polygon fill="#191970" stroke="#191970" points="169.8872,-109.2226 159.3092,-109.8195 167.9506,-115.9494 169.8872,-109.2226"/>
</g>
<!-- Node281 -->
<g id="node25" class="node">
<title>Node281</title>
<g id="a_node25"><a xlink:href="xcsf_8h.html#a2cf95733e5f97410d94211b72e835847" target="_top" xlink:title="Calculates the XCSF error for the input data. ">
<polygon fill="none" stroke="#000000" points="225.5,-90.7305 225.5,-109.7305 290.5,-109.7305 290.5,-90.7305 225.5,-90.7305"/>
<text text-anchor="middle" x="258" y="-97.7305" font-family="Helvetica,sans-Serif" font-size="10.00" fill="#000000">xcsf_score</text>
</a>
</g>
</g>
<!-- Node280&#45;&gt;Node281 -->
<g id="edge36" class="edge">
<title>Node280&#45;&gt;Node281</title>
<path fill="none" stroke="#191970" d="M175.4007,-100.2305C192.0893,-100.2305 210.2922,-100.2305 225.3522,-100.2305"/>
<polygon fill="#191970" stroke="#191970" points="175.247,-96.7306 165.247,-100.2305 175.2469,-103.7306 175.247,-96.7306"/>
</g>
<!-- Node282 -->
<g id="node26" class="node">
<title>Node282</title>
<g id="a_node26"><a xlink:href="structXCS.html#aa77bc77484d6d14bf512304a23cfec88" target="_top" xlink:title="XCS::score">
<polygon fill="none" stroke="#000000" points="516.5,-90.7305 516.5,-109.7305 584.5,-109.7305 584.5,-90.7305 516.5,-90.7305"/>
<text text-anchor="middle" x="550.5" y="-97.7305" font-family="Helvetica,sans-Serif" font-size="10.00" fill="#000000">XCS::score</text>
</a>
</g>
</g>
<!-- Node281&#45;&gt;Node282 -->
<g id="edge37" class="edge">
<title>Node281&#45;&gt;Node282</title>
<path fill="none" stroke="#191970" d="M300.7056,-100.2305C359.0687,-100.2305 462.5998,-100.2305 516.2045,-100.2305"/>
<polygon fill="#191970" stroke="#191970" points="300.7021,-96.7306 290.7021,-100.2305 300.702,-103.7306 300.7021,-96.7306"/>
</g>
<!-- Node282&#45;&gt;Node260 -->
<g id="edge38" class="edge">
<title>Node282&#45;&gt;Node260</title>
<path fill="none" stroke="#191970" d="M595.1037,-105.3512C609.8156,-107.0402 626.5869,-108.9656 642.856,-110.8333"/>
<polygon fill="#191970" stroke="#191970" points="595.1257,-101.8308 584.7917,-104.1673 594.3272,-108.7851 595.1257,-101.8308"/>
</g>
</g>
</svg>
