<?xml version="1.0" encoding="UTF-8" standalone="no"?>
<!DOCTYPE svg PUBLIC "-//W3C//DTD SVG 1.1//EN"
 "http://www.w3.org/Graphics/SVG/1.1/DTD/svg11.dtd">
<!-- Generated by graphviz version 2.40.1 (20161225.0304)
 -->
<!-- Title: set_init Pages: 1 -->
<svg width="677pt" height="370pt"
 viewBox="0.00 0.00 677.00 370.00" xmlns="http://www.w3.org/2000/svg" xmlns:xlink="http://www.w3.org/1999/xlink">
<g id="graph0" class="graph" transform="scale(1 1) rotate(0) translate(4 366)">
<title>set_init</title>
<!-- Node311 -->
<g id="node1" class="node">
<title>Node311</title>
<polygon fill="#bfbfbf" stroke="#000000" points="0,-171.5 0,-190.5 48,-190.5 48,-171.5 0,-171.5"/>
<text text-anchor="middle" x="24" y="-178.5" font-family="Helvetica,sans-Serif" font-size="10.00" fill="#000000">set_init</text>
</g>
<!-- Node312 -->
<g id="node2" class="node">
<title>Node312</title>
<g id="a_node2"><a xlink:href="cl__set_8h.html#a1e1060f1e8c1f916d798864804078e88" target="_top" xlink:title="Initialises a new population set. ">
<polygon fill="none" stroke="#000000" points="259,-76.5 259,-95.5 309,-95.5 309,-76.5 259,-76.5"/>
<text text-anchor="middle" x="284" y="-83.5" font-family="Helvetica,sans-Serif" font-size="10.00" fill="#000000">pop_init</text>
</a>
</g>
</g>
<!-- Node311&#45;&gt;Node312 -->
<g id="edge1" class="edge">
<title>Node311&#45;&gt;Node312</title>
<path fill="none" stroke="#191970" d="M32.9612,-162.4851C42.7773,-144.4378 60.3315,-117.8875 84,-105 140.3629,-74.3104 219.0244,-77.9217 258.8132,-82.3806"/>
<polygon fill="#191970" stroke="#191970" points="29.7871,-161.0039 28.3142,-171.4958 36.0085,-164.2123 29.7871,-161.0039"/>
</g>
<!-- Node314 -->
<g id="node4" class="node">
<title>Node314</title>
<g id="a_node4"><a xlink:href="structXCS.html#ab58a4fb495b05f3450b182bc21dcba1f" target="_top" xlink:title="XCS::single_reset">
<polygon fill="none" stroke="#000000" points="382.5,-76.5 382.5,-95.5 478.5,-95.5 478.5,-76.5 382.5,-76.5"/>
<text text-anchor="middle" x="430.5" y="-83.5" font-family="Helvetica,sans-Serif" font-size="10.00" fill="#000000">XCS::single_reset</text>
</a>
</g>
</g>
<!-- Node311&#45;&gt;Node314 -->
<g id="edge12" class="edge">
<title>Node311&#45;&gt;Node314</title>
<path fill="none" stroke="#191970" d="M28.8726,-161.4043C36.2094,-136.5005 52.6934,-94.4203 84,-75 187.8248,-10.5947 344.869,-55.249 405.4449,-76.4992"/>
<polygon fill="#191970" stroke="#191970" points="25.4548,-160.634 26.1979,-171.2028 32.2078,-162.4774 25.4548,-160.634"/>
</g>
<!-- Node317 -->
<g id="node7" class="node">
<title>Node317</title>
<g id="a_node7"><a xlink:href="cl__set_8h.html#a488209fe1e7dc1ef3d09d9aa94340329" target="_top" xlink:title="Reads the population set from a binary file. ">
<polygon fill="none" stroke="#000000" points="111,-228.5 111,-247.5 167,-247.5 167,-228.5 111,-228.5"/>
<text text-anchor="middle" x="139" y="-235.5" font-family="Helvetica,sans-Serif" font-size="10.00" fill="#000000">pop_load</text>
</a>
</g>
</g>
<!-- Node311&#45;&gt;Node317 -->
<g id="edge7" class="edge">
<title>Node311&#45;&gt;Node317</title>
<path fill="none" stroke="#191970" d="M45.8696,-196.5801C56.943,-204.0143 70.8068,-212.6498 84,-219 92.4656,-223.0747 102.0389,-226.6963 110.7979,-229.6564"/>
<polygon fill="#191970" stroke="#191970" points="47.5247,-193.4709 37.3002,-190.6944 43.5617,-199.241 47.5247,-193.4709"/>
</g>
<!-- Node318 -->
<g id="node8" class="node">
<title>Node318</title>
<g id="a_node8"><a xlink:href="xcsf_8h.html#a70e6ae30c7d4e471009c4611255ed873" target="_top" xlink:title="Reads the state of XCSF from a binary file. ">
<polygon fill="none" stroke="#000000" points="254.5,-266.5 254.5,-285.5 313.5,-285.5 313.5,-266.5 254.5,-266.5"/>
<text text-anchor="middle" x="284" y="-273.5" font-family="Helvetica,sans-Serif" font-size="10.00" fill="#000000">xcsf_load</text>
</a>
</g>
</g>
<!-- Node311&#45;&gt;Node318 -->
<g id="edge25" class="edge">
<title>Node311&#45;&gt;Node318</title>
<path fill="none" stroke="#191970" d="M32.9612,-199.5149C42.7773,-217.5622 60.3315,-244.1125 84,-257 138.3718,-286.6055 213.4947,-284.2907 254.4536,-280.0873"/>
<polygon fill="#191970" stroke="#191970" points="36.0085,-197.7877 28.3142,-190.5042 29.7871,-200.9961 36.0085,-197.7877"/>
</g>
<!-- Node320 -->
<g id="node10" class="node">
<title>Node320</title>
<g id="a_node10"><a xlink:href="xcs__multi__step_8c.html#a1e1c2a3094be715b468dda79cd59ebf3" target="_top" xlink:title="Executes a multi&#45;step trial using a built&#45;in environment. ">
<polygon fill="none" stroke="#000000" points="99,-152.5 99,-171.5 179,-171.5 179,-152.5 99,-152.5"/>
<text text-anchor="middle" x="139" y="-159.5" font-family="Helvetica,sans-Serif" font-size="10.00" fill="#000000">xcs_multi_trial</text>
</a>
</g>
</g>
<!-- Node311&#45;&gt;Node320 -->
<g id="edge13" class="edge">
<title>Node311&#45;&gt;Node320</title>
<path fill="none" stroke="#191970" d="M58.2672,-175.3385C70.9514,-173.2428 85.4488,-170.8476 98.6258,-168.6705"/>
<polygon fill="#191970" stroke="#191970" points="57.4035,-171.9336 48.1078,-177.017 58.5446,-178.84 57.4035,-171.9336"/>
</g>
<!-- Node322 -->
<g id="node12" class="node">
<title>Node322</title>
<g id="a_node12"><a xlink:href="xcs__single__step_8c.html#a3d1fd2472d35310800aed897219a65af" target="_top" xlink:title="Executes a single&#45;step trial using a built&#45;in environment. ">
<polygon fill="none" stroke="#000000" points="97,-190.5 97,-209.5 181,-209.5 181,-190.5 97,-190.5"/>
<text text-anchor="middle" x="139" y="-197.5" font-family="Helvetica,sans-Serif" font-size="10.00" fill="#000000">xcs_single_trial</text>
</a>
</g>
</g>
<!-- Node311&#45;&gt;Node322 -->
<g id="edge16" class="edge">
<title>Node311&#45;&gt;Node322</title>
<path fill="none" stroke="#191970" d="M58.2501,-186.6587C70.3533,-188.6584 84.1093,-190.9311 96.7943,-193.0269"/>
<polygon fill="#191970" stroke="#191970" points="58.5446,-183.16 48.1078,-184.983 57.4035,-190.0664 58.5446,-183.16"/>
</g>
<!-- Node324 -->
<g id="node14" class="node">
<title>Node324</title>
<g id="a_node14"><a xlink:href="xcsf_8c.html#a474f4e13cfc5f00958c689cd8c81135a" target="_top" xlink:title="Executes a single XCSF learning trial. ">
<polygon fill="none" stroke="#000000" points="97.5,-114.5 97.5,-133.5 180.5,-133.5 180.5,-114.5 97.5,-114.5"/>
<text text-anchor="middle" x="139" y="-121.5" font-family="Helvetica,sans-Serif" font-size="10.00" fill="#000000">xcsf_learn_trial</text>
</a>
</g>
</g>
<!-- Node311&#45;&gt;Node324 -->
<g id="edge19" class="edge">
<title>Node311&#45;&gt;Node324</title>
<path fill="none" stroke="#191970" d="M45.8696,-165.4199C56.943,-157.9857 70.8068,-149.3502 84,-143 91.3732,-139.4511 99.5868,-136.2458 107.3708,-133.522"/>
<polygon fill="#191970" stroke="#191970" points="43.5617,-162.759 37.3002,-171.3056 47.5247,-168.5291 43.5617,-162.759"/>
</g>
<!-- Node328 -->
<g id="node18" class="node">
<title>Node328</title>
<g id="a_node18"><a xlink:href="xcsf_8h.html#af0b9db7273578fdff649d46823cd9790" target="_top" xlink:title="Calculates the XCSF predictions for the provided input. ">
<polygon fill="none" stroke="#000000" points="104,-342.5 104,-361.5 174,-361.5 174,-342.5 104,-342.5"/>
<text text-anchor="middle" x="139" y="-349.5" font-family="Helvetica,sans-Serif" font-size="10.00" fill="#000000">xcsf_predict</text>
</a>
</g>
</g>
<!-- Node311&#45;&gt;Node328 -->
<g id="edge26" class="edge">
<title>Node311&#45;&gt;Node328</title>
<path fill="none" stroke="#191970" d="M26.4509,-200.6606C31.4737,-232.7587 45.8741,-296.4917 84,-333 89.5454,-338.3101 96.6456,-342.1419 103.8887,-344.9051"/>
<polygon fill="#191970" stroke="#191970" points="29.9112,-200.1325 25.0419,-190.7229 22.9805,-201.1152 29.9112,-200.1325"/>
</g>
<!-- Node330 -->
<g id="node20" class="node">
<title>Node330</title>
<g id="a_node20"><a xlink:href="xcsf_8h.html#ae1f6851f682e015601030a5c725c6618" target="_top" xlink:title="Prints the XCSF match set for the supplied input. ">
<polygon fill="none" stroke="#000000" points="84,-304.5 84,-323.5 194,-323.5 194,-304.5 84,-304.5"/>
<text text-anchor="middle" x="139" y="-311.5" font-family="Helvetica,sans-Serif" font-size="10.00" fill="#000000">xcsf_print_match_set</text>
</a>
</g>
</g>
<!-- Node311&#45;&gt;Node330 -->
<g id="edge29" class="edge">
<title>Node311&#45;&gt;Node330</title>
<path fill="none" stroke="#191970" d="M30.3194,-200.5417C38.9627,-224.5035 56.5985,-265.0037 84,-290 90.6962,-296.1084 99.1932,-300.8369 107.4937,-304.4178"/>
<polygon fill="#191970" stroke="#191970" points="33.5361,-199.1324 26.9781,-190.8111 26.9155,-201.4058 33.5361,-199.1324"/>
</g>
<!-- Node332 -->
<g id="node22" class="node">
<title>Node332</title>
<g id="a_node22"><a xlink:href="xcsf_8c.html#aa6edd3962ddd04940e2c78a4f99de7cd" target="_top" xlink:title="Executes a single XCSF testing trial. ">
<polygon fill="none" stroke="#000000" points="100,-.5 100,-19.5 178,-19.5 178,-.5 100,-.5"/>
<text text-anchor="middle" x="139" y="-7.5" font-family="Helvetica,sans-Serif" font-size="10.00" fill="#000000">xcsf_test_trial</text>
</a>
</g>
</g>
<!-- Node311&#45;&gt;Node332 -->
<g id="edge32" class="edge">
<title>Node311&#45;&gt;Node332</title>
<path fill="none" stroke="#191970" d="M27.1258,-161.4496C33.0128,-130.5886 48.4986,-70.3614 84,-34 90.0408,-27.8129 97.946,-23.1149 105.8716,-19.5908"/>
<polygon fill="#191970" stroke="#191970" points="23.6624,-160.9363 25.3719,-171.3923 30.556,-162.1524 23.6624,-160.9363"/>
</g>
<!-- Node313 -->
<g id="node3" class="node">
<title>Node313</title>
<g id="a_node3"><a xlink:href="main_8c.html#a3c04138a5bfe5d72780bb7e82a18e627" target="_top" xlink:title="main">
<polygon fill="none" stroke="#000000" points="411.5,-190.5 411.5,-209.5 449.5,-209.5 449.5,-190.5 411.5,-190.5"/>
<text text-anchor="middle" x="430.5" y="-197.5" font-family="Helvetica,sans-Serif" font-size="10.00" fill="#000000">main</text>
</a>
</g>
</g>
<!-- Node312&#45;&gt;Node313 -->
<g id="edge2" class="edge">
<title>Node312&#45;&gt;Node313</title>
<path fill="none" stroke="#191970" d="M318.5241,-93.5875C325.5462,-96.32 332.467,-100.0147 338,-105 365.7671,-130.0185 346.0594,-156.1754 374,-181 384.3667,-190.2106 399.3611,-194.9846 411.2981,-197.443"/>
<polygon fill="#191970" stroke="#191970" points="319.6002,-90.2569 309.0067,-90.4269 317.394,-96.9002 319.6002,-90.2569"/>
</g>
<!-- Node312&#45;&gt;Node314 -->
<g id="edge3" class="edge">
<title>Node312&#45;&gt;Node314</title>
<path fill="none" stroke="#191970" d="M319.4233,-86C338.293,-86 361.7783,-86 382.2871,-86"/>
<polygon fill="#191970" stroke="#191970" points="319.1843,-82.5001 309.1842,-86 319.1842,-89.5001 319.1843,-82.5001"/>
</g>
<!-- Node316 -->
<g id="node6" class="node">
<title>Node316</title>
<g id="a_node6"><a xlink:href="structXCS.html#ad2ccafe59d2b4ae6d0e1cbc15edee53c" target="_top" xlink:title="XCS::fit">
<polygon fill="none" stroke="#000000" points="404.5,-114.5 404.5,-133.5 456.5,-133.5 456.5,-114.5 404.5,-114.5"/>
<text text-anchor="middle" x="430.5" y="-121.5" font-family="Helvetica,sans-Serif" font-size="10.00" fill="#000000">XCS::fit</text>
</a>
</g>
</g>
<!-- Node312&#45;&gt;Node316 -->
<g id="edge5" class="edge">
<title>Node312&#45;&gt;Node316</title>
<path fill="none" stroke="#191970" d="M319.0746,-95.0978C345.226,-101.8811 380.3871,-111.0014 404.1634,-117.1687"/>
<polygon fill="#191970" stroke="#191970" points="319.7427,-91.6554 309.1842,-92.5324 317.9851,-98.4312 319.7427,-91.6554"/>
</g>
<!-- Node315 -->
<g id="node5" class="node">
<title>Node315</title>
<g id="a_node5"><a xlink:href="python__wrapper_8cpp.html#afbdcc1358036a0b83a6b239da2b098a2" target="_top" xlink:title="BOOST_PYTHON_MODULE">
<polygon fill="none" stroke="#000000" points="523,-171.5 523,-190.5 669,-190.5 669,-171.5 523,-171.5"/>
<text text-anchor="middle" x="596" y="-178.5" font-family="Helvetica,sans-Serif" font-size="10.00" fill="#000000">BOOST_PYTHON_MODULE</text>
</a>
</g>
</g>
<!-- Node314&#45;&gt;Node315 -->
<g id="edge4" class="edge">
<title>Node314&#45;&gt;Node315</title>
<path fill="none" stroke="#191970" d="M473.5064,-99.0196C478.1388,-100.8459 482.7196,-102.8438 487,-105 525.3214,-124.3043 565.4974,-155.6769 584.6034,-171.3905"/>
<polygon fill="#191970" stroke="#191970" points="474.5984,-95.6919 464.005,-95.5162 472.1766,-102.2597 474.5984,-95.6919"/>
</g>
<!-- Node316&#45;&gt;Node315 -->
<g id="edge6" class="edge">
<title>Node316&#45;&gt;Node315</title>
<path fill="none" stroke="#191970" d="M466.4294,-136.0162C473.2645,-138.3208 480.3561,-140.7249 487,-143 514.8708,-152.5441 546.674,-163.6571 568.7037,-171.3902"/>
<polygon fill="#191970" stroke="#191970" points="467.2747,-132.6079 456.6807,-132.7371 465.0431,-139.2426 467.2747,-132.6079"/>
</g>
<!-- Node317&#45;&gt;Node318 -->
<g id="edge8" class="edge">
<title>Node317&#45;&gt;Node318</title>
<path fill="none" stroke="#191970" d="M177.1874,-248.0077C201.2959,-254.3258 231.9838,-262.3682 254.2743,-268.2098"/>
<polygon fill="#191970" stroke="#191970" points="177.8623,-244.5665 167.3017,-245.417 176.0877,-251.3378 177.8623,-244.5665"/>
</g>
<!-- Node318&#45;&gt;Node313 -->
<g id="edge9" class="edge">
<title>Node318&#45;&gt;Node313</title>
<path fill="none" stroke="#191970" d="M323.2187,-263.3193C328.2606,-261.3644 333.2996,-259.2433 338,-257 367.4511,-242.9442 399.3401,-221.8549 416.9223,-209.6573"/>
<polygon fill="#191970" stroke="#191970" points="321.7798,-260.1194 313.6076,-266.8622 324.201,-266.6874 321.7798,-260.1194"/>
</g>
<!-- Node319 -->
<g id="node9" class="node">
<title>Node319</title>
<g id="a_node9"><a xlink:href="structXCS.html#adc9b621f2b7a306fbf381dd0efaf268b" target="_top" xlink:title="XCS::load">
<polygon fill="none" stroke="#000000" points="399.5,-247.5 399.5,-266.5 461.5,-266.5 461.5,-247.5 399.5,-247.5"/>
<text text-anchor="middle" x="430.5" y="-254.5" font-family="Helvetica,sans-Serif" font-size="10.00" fill="#000000">XCS::load</text>
</a>
</g>
</g>
<!-- Node318&#45;&gt;Node319 -->
<g id="edge10" class="edge">
<title>Node318&#45;&gt;Node319</title>
<path fill="none" stroke="#191970" d="M323.7648,-270.8428C347.5445,-267.7587 377.3236,-263.8966 399.3807,-261.0359"/>
<polygon fill="#191970" stroke="#191970" points="323.1132,-267.3979 313.6465,-272.1551 324.0136,-274.3398 323.1132,-267.3979"/>
</g>
<!-- Node319&#45;&gt;Node315 -->
<g id="edge11" class="edge">
<title>Node319&#45;&gt;Node315</title>
<path fill="none" stroke="#191970" d="M460.6864,-243.138C493.8795,-227.8952 546.3272,-203.8104 575.2095,-190.5473"/>
<polygon fill="#191970" stroke="#191970" points="459.0877,-240.0207 451.4607,-247.3745 462.0089,-246.382 459.0877,-240.0207"/>
</g>
<!-- Node321 -->
<g id="node11" class="node">
<title>Node321</title>
<g id="a_node11"><a xlink:href="xcs__multi__step_8h.html#acc29d4a55dbd56c16ea5f19f15a7c677" target="_top" xlink:title="Executes a multi&#45;step reinforcement learning experiment. ">
<polygon fill="none" stroke="#000000" points="232,-190.5 232,-209.5 336,-209.5 336,-190.5 232,-190.5"/>
<text text-anchor="middle" x="284" y="-197.5" font-family="Helvetica,sans-Serif" font-size="10.00" fill="#000000">xcs_multi_step_exp</text>
</a>
</g>
</g>
<!-- Node320&#45;&gt;Node321 -->
<g id="edge14" class="edge">
<title>Node320&#45;&gt;Node321</title>
<path fill="none" stroke="#191970" d="M185.4928,-174.1843C205.6237,-179.46 228.8383,-185.5438 247.6735,-190.4799"/>
<polygon fill="#191970" stroke="#191970" points="186.1503,-170.7385 175.5896,-171.589 184.3757,-177.5098 186.1503,-170.7385"/>
</g>
<!-- Node321&#45;&gt;Node313 -->
<g id="edge15" class="edge">
<title>Node321&#45;&gt;Node313</title>
<path fill="none" stroke="#191970" d="M346.3413,-200C369.7917,-200 394.7679,-200 411.3641,-200"/>
<polygon fill="#191970" stroke="#191970" points="346.063,-196.5001 336.0629,-200 346.0629,-203.5001 346.063,-196.5001"/>
</g>
<!-- Node323 -->
<g id="node13" class="node">
<title>Node323</title>
<g id="a_node13"><a xlink:href="xcs__single__step_8h.html#a39a031bf59eaa9b33e30e614610dcda8" target="_top" xlink:title="Executes a single&#45;step experiment. ">
<polygon fill="none" stroke="#000000" points="230,-228.5 230,-247.5 338,-247.5 338,-228.5 230,-228.5"/>
<text text-anchor="middle" x="284" y="-235.5" font-family="Helvetica,sans-Serif" font-size="10.00" fill="#000000">xcs_single_step_exp</text>
</a>
</g>
</g>
<!-- Node322&#45;&gt;Node323 -->
<g id="edge17" class="edge">
<title>Node322&#45;&gt;Node323</title>
<path fill="none" stroke="#191970" d="M185.4928,-212.1843C205.6237,-217.46 228.8383,-223.5438 247.6735,-228.4799"/>
<polygon fill="#191970" stroke="#191970" points="186.1503,-208.7385 175.5896,-209.589 184.3757,-215.5098 186.1503,-208.7385"/>
</g>
<!-- Node323&#45;&gt;Node313 -->
<g id="edge18" class="edge">
<title>Node323&#45;&gt;Node313</title>
<path fill="none" stroke="#191970" d="M330.7504,-225.8736C358.094,-218.7811 391.1316,-210.2116 411.4791,-204.9337"/>
<polygon fill="#191970" stroke="#191970" points="329.769,-222.5123 320.9681,-228.411 331.5266,-229.288 329.769,-222.5123"/>
</g>
<!-- Node325 -->
<g id="node15" class="node">
<title>Node325</title>
<g id="a_node15"><a xlink:href="xcsf_8h.html#a874829f28fee20f9ad15b540f4b4d6ff" target="_top" xlink:title="Executes MAX_TRIALS number of XCSF learning iterations using the training data. ">
<polygon fill="none" stroke="#000000" points="257,-114.5 257,-133.5 311,-133.5 311,-114.5 257,-114.5"/>
<text text-anchor="middle" x="284" y="-121.5" font-family="Helvetica,sans-Serif" font-size="10.00" fill="#000000">xcsf_fit1</text>
</a>
</g>
</g>
<!-- Node324&#45;&gt;Node325 -->
<g id="edge20" class="edge">
<title>Node324&#45;&gt;Node325</title>
<path fill="none" stroke="#191970" d="M190.5591,-124C212.8578,-124 238.0475,-124 256.6494,-124"/>
<polygon fill="#191970" stroke="#191970" points="190.5512,-120.5001 180.5512,-124 190.5511,-127.5001 190.5512,-120.5001"/>
</g>
<!-- Node326 -->
<g id="node16" class="node">
<title>Node326</title>
<g id="a_node16"><a xlink:href="xcsf_8h.html#a0b4de57cb9dadc9deca7901aa36e5025" target="_top" xlink:title="Executes MAX_TRIALS number of XCSF learning iterations using the training. data and test iterations u...">
<polygon fill="none" stroke="#000000" points="257,-152.5 257,-171.5 311,-171.5 311,-152.5 257,-152.5"/>
<text text-anchor="middle" x="284" y="-159.5" font-family="Helvetica,sans-Serif" font-size="10.00" fill="#000000">xcsf_fit2</text>
</a>
</g>
</g>
<!-- Node324&#45;&gt;Node326 -->
<g id="edge22" class="edge">
<title>Node324&#45;&gt;Node326</title>
<path fill="none" stroke="#191970" d="M185.3555,-136.1483C208.8263,-142.2993 236.5181,-149.5565 256.5775,-154.8134"/>
<polygon fill="#191970" stroke="#191970" points="186.1503,-132.7385 175.5896,-133.589 184.3757,-139.5098 186.1503,-132.7385"/>
</g>
<!-- Node325&#45;&gt;Node316 -->
<g id="edge21" class="edge">
<title>Node325&#45;&gt;Node316</title>
<path fill="none" stroke="#191970" d="M321.4437,-124C347.4137,-124 381.3473,-124 404.4182,-124"/>
<polygon fill="#191970" stroke="#191970" points="321.2122,-120.5001 311.2122,-124 321.2122,-127.5001 321.2122,-120.5001"/>
</g>
<!-- Node326&#45;&gt;Node313 -->
<g id="edge23" class="edge">
<title>Node326&#45;&gt;Node313</title>
<path fill="none" stroke="#191970" d="M320.9307,-171.5793C349.7071,-179.0435 388.4954,-189.1046 411.3665,-195.037"/>
<polygon fill="#191970" stroke="#191970" points="321.7707,-168.1814 311.2122,-169.0585 320.0131,-174.9572 321.7707,-168.1814"/>
</g>
<!-- Node327 -->
<g id="node17" class="node">
<title>Node327</title>
<g id="a_node17"><a xlink:href="structXCS.html#a7d53320740db8e846251bacd0238a9fb" target="_top" xlink:title="XCS::fit">
<polygon fill="none" stroke="#000000" points="404.5,-152.5 404.5,-171.5 456.5,-171.5 456.5,-152.5 404.5,-152.5"/>
<text text-anchor="middle" x="430.5" y="-159.5" font-family="Helvetica,sans-Serif" font-size="10.00" fill="#000000">XCS::fit</text>
</a>
</g>
</g>
<!-- Node326&#45;&gt;Node327 -->
<g id="edge24" class="edge">
<title>Node326&#45;&gt;Node327</title>
<path fill="none" stroke="#191970" d="M321.4437,-162C347.4137,-162 381.3473,-162 404.4182,-162"/>
<polygon fill="#191970" stroke="#191970" points="321.2122,-158.5001 311.2122,-162 321.2122,-165.5001 321.2122,-158.5001"/>
</g>
<!-- Node329 -->
<g id="node19" class="node">
<title>Node329</title>
<g id="a_node19"><a xlink:href="structXCS.html#a911ed75c86abed7807d33eb1385240ed" target="_top" xlink:title="XCS::predict">
<polygon fill="none" stroke="#000000" points="394,-337.5 394,-356.5 467,-356.5 467,-337.5 394,-337.5"/>
<text text-anchor="middle" x="430.5" y="-344.5" font-family="Helvetica,sans-Serif" font-size="10.00" fill="#000000">XCS::predict</text>
</a>
</g>
</g>
<!-- Node328&#45;&gt;Node329 -->
<g id="edge27" class="edge">
<title>Node328&#45;&gt;Node329</title>
<path fill="none" stroke="#191970" d="M184.4457,-351.2205C242.1701,-350.2304 340.655,-348.5411 393.8385,-347.6288"/>
<polygon fill="#191970" stroke="#191970" points="184.1002,-347.7258 174.1617,-351.3969 184.2203,-354.7248 184.1002,-347.7258"/>
</g>
<!-- Node329&#45;&gt;Node315 -->
<g id="edge28" class="edge">
<title>Node329&#45;&gt;Node315</title>
<path fill="none" stroke="#191970" d="M470.1424,-333.2762C476.0823,-330.3556 481.9126,-326.9394 487,-323 537.6194,-283.8029 577.3531,-215.7405 590.9431,-190.6489"/>
<polygon fill="#191970" stroke="#191970" points="468.5014,-330.1762 460.8092,-337.4618 471.3658,-336.5633 468.5014,-330.1762"/>
</g>
<!-- Node331 -->
<g id="node21" class="node">
<title>Node331</title>
<g id="a_node21"><a xlink:href="structXCS.html#aa5608b379fae01b724267a99068d55bb" target="_top" xlink:title="XCS::print_match_set">
<polygon fill="none" stroke="#000000" points="374,-294.5 374,-313.5 487,-313.5 487,-294.5 374,-294.5"/>
<text text-anchor="middle" x="430.5" y="-301.5" font-family="Helvetica,sans-Serif" font-size="10.00" fill="#000000">XCS::print_match_set</text>
</a>
</g>
</g>
<!-- Node330&#45;&gt;Node331 -->
<g id="edge30" class="edge">
<title>Node330&#45;&gt;Node331</title>
<path fill="none" stroke="#191970" d="M204.4105,-311.7561C255.3246,-310.0094 325.2616,-307.6102 373.814,-305.9446"/>
<polygon fill="#191970" stroke="#191970" points="204.0457,-308.2664 194.1716,-312.1073 204.2858,-315.2623 204.0457,-308.2664"/>
</g>
<!-- Node331&#45;&gt;Node315 -->
<g id="edge31" class="edge">
<title>Node331&#45;&gt;Node315</title>
<path fill="none" stroke="#191970" d="M462.0872,-290.126C470.4294,-285.9885 479.2593,-281.1659 487,-276 527.2976,-249.1066 568.7868,-208.7678 586.7668,-190.5423"/>
<polygon fill="#191970" stroke="#191970" points="460.4731,-287.0182 452.9598,-294.4882 463.4916,-293.334 460.4731,-287.0182"/>
</g>
<!-- Node332&#45;&gt;Node326 -->
<g id="edge33" class="edge">
<title>Node332&#45;&gt;Node326</title>
<path fill="none" stroke="#191970" d="M149.7278,-28.5748C168.8696,-61.1793 208.8794,-126.7924 230,-143 237.8056,-148.9899 247.6498,-153.1884 256.7886,-156.0854"/>
<polygon fill="#191970" stroke="#191970" points="152.5606,-26.4845 144.5012,-19.6072 146.5128,-30.0093 152.5606,-26.4845"/>
</g>
<!-- Node333 -->
<g id="node23" class="node">
<title>Node333</title>
<g id="a_node23"><a xlink:href="xcsf_8h.html#a2cf95733e5f97410d94211b72e835847" target="_top" xlink:title="Calculates the XCSF error for the input data. ">
<polygon fill="none" stroke="#000000" points="251.5,-.5 251.5,-19.5 316.5,-19.5 316.5,-.5 251.5,-.5"/>
<text text-anchor="middle" x="284" y="-7.5" font-family="Helvetica,sans-Serif" font-size="10.00" fill="#000000">xcsf_score</text>
</a>
</g>
</g>
<!-- Node332&#45;&gt;Node333 -->
<g id="edge34" class="edge">
<title>Node332&#45;&gt;Node333</title>
<path fill="none" stroke="#191970" d="M188.4448,-10C209.1263,-10 232.6017,-10 251.1086,-10"/>
<polygon fill="#191970" stroke="#191970" points="188.2391,-6.5001 178.2391,-10 188.2391,-13.5001 188.2391,-6.5001"/>
</g>
<!-- Node334 -->
<g id="node24" class="node">
<title>Node334</title>
<g id="a_node24"><a xlink:href="structXCS.html#aa77bc77484d6d14bf512304a23cfec88" target="_top" xlink:title="XCS::score">
<polygon fill="none" stroke="#000000" points="396.5,-19.5 396.5,-38.5 464.5,-38.5 464.5,-19.5 396.5,-19.5"/>
<text text-anchor="middle" x="430.5" y="-26.5" font-family="Helvetica,sans-Serif" font-size="10.00" fill="#000000">XCS::score</text>
</a>
</g>
</g>
<!-- Node333&#45;&gt;Node334 -->
<g id="edge35" class="edge">
<title>Node333&#45;&gt;Node334</title>
<path fill="none" stroke="#191970" d="M326.6544,-15.532C348.8077,-18.4051 375.5127,-21.8685 396.2938,-24.5637"/>
<polygon fill="#191970" stroke="#191970" points="326.8802,-12.032 316.5131,-14.2167 325.9799,-18.9739 326.8802,-12.032"/>
</g>
<!-- Node334&#45;&gt;Node315 -->
<g id="edge36" class="edge">
<title>Node334&#45;&gt;Node315</title>
<path fill="none" stroke="#191970" d="M455.4468,-44.1195C465.593,-50.6858 477.2095,-58.7545 487,-67 528.4699,-101.9258 570.9955,-151.0212 588.1362,-171.4748"/>
<polygon fill="#191970" stroke="#191970" points="457.3136,-41.1589 446.9918,-38.7692 453.5705,-47.0741 457.3136,-41.1589"/>
</g>
</g>
</svg>
