<?xml version="1.0" encoding="UTF-8" standalone="no"?>
<!DOCTYPE svg PUBLIC "-//W3C//DTD SVG 1.1//EN"
 "http://www.w3.org/Graphics/SVG/1.1/DTD/svg11.dtd">
<!-- Generated by graphviz version 2.40.1 (20161225.0304)
 -->
<!-- Title: set_init Pages: 1 -->
<svg width="677pt" height="369pt"
 viewBox="0.00 0.00 677.00 368.77" xmlns="http://www.w3.org/2000/svg" xmlns:xlink="http://www.w3.org/1999/xlink">
<g id="graph0" class="graph" transform="scale(1 1) rotate(0) translate(4 364.7668)">
<title>set_init</title>
<!-- Node257 -->
<g id="node1" class="node">
<title>Node257</title>
<polygon fill="#bfbfbf" stroke="#000000" points="0,-171.5 0,-190.5 48,-190.5 48,-171.5 0,-171.5"/>
<text text-anchor="middle" x="24" y="-178.5" font-family="Helvetica,sans-Serif" font-size="10.00" fill="#000000">set_init</text>
</g>
<!-- Node258 -->
<g id="node2" class="node">
<title>Node258</title>
<g id="a_node2"><a xlink:href="cl__set_8h.html#a1e1060f1e8c1f916d798864804078e88" target="_top" xlink:title="Initialises a new population set. ">
<polygon fill="none" stroke="#000000" points="259,-304.5 259,-323.5 309,-323.5 309,-304.5 259,-304.5"/>
<text text-anchor="middle" x="284" y="-311.5" font-family="Helvetica,sans-Serif" font-size="10.00" fill="#000000">pop_init</text>
</a>
</g>
</g>
<!-- Node257&#45;&gt;Node258 -->
<g id="edge1" class="edge">
<title>Node257&#45;&gt;Node258</title>
<path fill="none" stroke="#191970" d="M28.2494,-200.683C35.0679,-227.0294 51.1634,-272.9895 84,-295 137.5981,-330.9271 218.1766,-324.8507 258.7498,-318.7167"/>
<polygon fill="#191970" stroke="#191970" points="31.5977,-199.6348 25.8734,-190.7195 24.7886,-201.2586 31.5977,-199.6348"/>
</g>
<!-- Node262 -->
<g id="node6" class="node">
<title>Node262</title>
<g id="a_node6"><a xlink:href="structXCS.html#ab58a4fb495b05f3450b182bc21dcba1f" target="_top" xlink:title="XCS::single_reset">
<polygon fill="none" stroke="#000000" points="382.5,-304.5 382.5,-323.5 478.5,-323.5 478.5,-304.5 382.5,-304.5"/>
<text text-anchor="middle" x="430.5" y="-311.5" font-family="Helvetica,sans-Serif" font-size="10.00" fill="#000000">XCS::single_reset</text>
</a>
</g>
</g>
<!-- Node257&#45;&gt;Node262 -->
<g id="edge12" class="edge">
<title>Node257&#45;&gt;Node262</title>
<path fill="none" stroke="#191970" d="M25.9673,-200.9446C30.2731,-232.7265 43.6403,-294.2051 84,-323 184.1781,-394.4728 345.4168,-346.0135 406.236,-323.6237"/>
<polygon fill="#191970" stroke="#191970" points="29.4056,-200.2154 24.7577,-190.6946 22.4538,-201.0359 29.4056,-200.2154"/>
</g>
<!-- Node263 -->
<g id="node7" class="node">
<title>Node263</title>
<g id="a_node7"><a xlink:href="cl__set_8h.html#a488209fe1e7dc1ef3d09d9aa94340329" target="_top" xlink:title="Reads the population set from a binary file. ">
<polygon fill="none" stroke="#000000" points="111,-114.5 111,-133.5 167,-133.5 167,-114.5 111,-114.5"/>
<text text-anchor="middle" x="139" y="-121.5" font-family="Helvetica,sans-Serif" font-size="10.00" fill="#000000">pop_load</text>
</a>
</g>
</g>
<!-- Node257&#45;&gt;Node263 -->
<g id="edge7" class="edge">
<title>Node257&#45;&gt;Node263</title>
<path fill="none" stroke="#191970" d="M45.8696,-165.4199C56.943,-157.9857 70.8068,-149.3502 84,-143 92.4656,-138.9253 102.0389,-135.3037 110.7979,-132.3436"/>
<polygon fill="#191970" stroke="#191970" points="43.5617,-162.759 37.3002,-171.3056 47.5247,-168.5291 43.5617,-162.759"/>
</g>
<!-- Node264 -->
<g id="node8" class="node">
<title>Node264</title>
<g id="a_node8"><a xlink:href="xcsf_8h.html#a70e6ae30c7d4e471009c4611255ed873" target="_top" xlink:title="Reads the state of XCSF from a binary file. ">
<polygon fill="none" stroke="#000000" points="254.5,-76.5 254.5,-95.5 313.5,-95.5 313.5,-76.5 254.5,-76.5"/>
<text text-anchor="middle" x="284" y="-83.5" font-family="Helvetica,sans-Serif" font-size="10.00" fill="#000000">xcsf_load</text>
</a>
</g>
</g>
<!-- Node257&#45;&gt;Node264 -->
<g id="edge25" class="edge">
<title>Node257&#45;&gt;Node264</title>
<path fill="none" stroke="#191970" d="M32.9612,-162.4851C42.7773,-144.4378 60.3315,-117.8875 84,-105 138.3718,-75.3945 213.4947,-77.7093 254.4536,-81.9127"/>
<polygon fill="#191970" stroke="#191970" points="29.7871,-161.0039 28.3142,-171.4958 36.0085,-164.2123 29.7871,-161.0039"/>
</g>
<!-- Node266 -->
<g id="node10" class="node">
<title>Node266</title>
<g id="a_node10"><a xlink:href="xcs__multi__step_8c.html#a1e1c2a3094be715b468dda79cd59ebf3" target="_top" xlink:title="Executes a multi&#45;step trial using a built&#45;in environment. ">
<polygon fill="none" stroke="#000000" points="99,-190.5 99,-209.5 179,-209.5 179,-190.5 99,-190.5"/>
<text text-anchor="middle" x="139" y="-197.5" font-family="Helvetica,sans-Serif" font-size="10.00" fill="#000000">xcs_multi_trial</text>
</a>
</g>
</g>
<!-- Node257&#45;&gt;Node266 -->
<g id="edge13" class="edge">
<title>Node257&#45;&gt;Node266</title>
<path fill="none" stroke="#191970" d="M58.2672,-186.6615C70.9514,-188.7572 85.4488,-191.1524 98.6258,-193.3295"/>
<polygon fill="#191970" stroke="#191970" points="58.5446,-183.16 48.1078,-184.983 57.4035,-190.0664 58.5446,-183.16"/>
</g>
<!-- Node268 -->
<g id="node12" class="node">
<title>Node268</title>
<g id="a_node12"><a xlink:href="xcs__single__step_8c.html#a3d1fd2472d35310800aed897219a65af" target="_top" xlink:title="Executes a single&#45;step trial using a built&#45;in environment. ">
<polygon fill="none" stroke="#000000" points="97,-266.5 97,-285.5 181,-285.5 181,-266.5 97,-266.5"/>
<text text-anchor="middle" x="139" y="-273.5" font-family="Helvetica,sans-Serif" font-size="10.00" fill="#000000">xcs_single_trial</text>
</a>
</g>
</g>
<!-- Node257&#45;&gt;Node268 -->
<g id="edge16" class="edge">
<title>Node257&#45;&gt;Node268</title>
<path fill="none" stroke="#191970" d="M34.4614,-199.6733C44.9437,-216.8124 62.5753,-241.7834 84,-257 89.3536,-260.8023 95.5344,-263.8987 101.7771,-266.4025"/>
<polygon fill="#191970" stroke="#191970" points="37.2252,-197.4682 29.1411,-190.6201 31.1902,-201.0149 37.2252,-197.4682"/>
</g>
<!-- Node270 -->
<g id="node14" class="node">
<title>Node270</title>
<g id="a_node14"><a xlink:href="xcsf_8c.html#a474f4e13cfc5f00958c689cd8c81135a" target="_top" xlink:title="Executes a single XCSF learning trial. ">
<polygon fill="none" stroke="#000000" points="97.5,-228.5 97.5,-247.5 180.5,-247.5 180.5,-228.5 97.5,-228.5"/>
<text text-anchor="middle" x="139" y="-235.5" font-family="Helvetica,sans-Serif" font-size="10.00" fill="#000000">xcsf_learn_trial</text>
</a>
</g>
</g>
<!-- Node257&#45;&gt;Node270 -->
<g id="edge19" class="edge">
<title>Node257&#45;&gt;Node270</title>
<path fill="none" stroke="#191970" d="M45.8696,-196.5801C56.943,-204.0143 70.8068,-212.6498 84,-219 91.3732,-222.5489 99.5868,-225.7542 107.3708,-228.478"/>
<polygon fill="#191970" stroke="#191970" points="47.5247,-193.4709 37.3002,-190.6944 43.5617,-199.241 47.5247,-193.4709"/>
</g>
<!-- Node274 -->
<g id="node18" class="node">
<title>Node274</title>
<g id="a_node18"><a xlink:href="xcsf_8h.html#af0b9db7273578fdff649d46823cd9790" target="_top" xlink:title="Calculates the XCSF predictions for the provided input. ">
<polygon fill="none" stroke="#000000" points="104,-38.5 104,-57.5 174,-57.5 174,-38.5 104,-38.5"/>
<text text-anchor="middle" x="139" y="-45.5" font-family="Helvetica,sans-Serif" font-size="10.00" fill="#000000">xcsf_predict</text>
</a>
</g>
</g>
<!-- Node257&#45;&gt;Node274 -->
<g id="edge26" class="edge">
<title>Node257&#45;&gt;Node274</title>
<path fill="none" stroke="#191970" d="M30.3194,-161.4583C38.9627,-137.4965 56.5985,-96.9963 84,-72 90.6962,-65.8916 99.1932,-61.1631 107.4937,-57.5822"/>
<polygon fill="#191970" stroke="#191970" points="26.9155,-160.5942 26.9781,-171.1889 33.5361,-162.8676 26.9155,-160.5942"/>
</g>
<!-- Node276 -->
<g id="node20" class="node">
<title>Node276</title>
<g id="a_node20"><a xlink:href="xcsf_8h.html#ae1f6851f682e015601030a5c725c6618" target="_top" xlink:title="Prints the XCSF match set for the supplied input. ">
<polygon fill="none" stroke="#000000" points="84,-.5 84,-19.5 194,-19.5 194,-.5 84,-.5"/>
<text text-anchor="middle" x="139" y="-7.5" font-family="Helvetica,sans-Serif" font-size="10.00" fill="#000000">xcsf_print_match_set</text>
</a>
</g>
</g>
<!-- Node257&#45;&gt;Node276 -->
<g id="edge29" class="edge">
<title>Node257&#45;&gt;Node276</title>
<path fill="none" stroke="#191970" d="M26.4509,-161.3394C31.4737,-129.2413 45.8741,-65.5083 84,-29 88.0861,-25.0873 93.0163,-21.9772 98.2259,-19.5059"/>
<polygon fill="#191970" stroke="#191970" points="22.9805,-160.8848 25.0419,-171.2771 29.9112,-161.8675 22.9805,-160.8848"/>
</g>
<!-- Node278 -->
<g id="node22" class="node">
<title>Node278</title>
<g id="a_node22"><a xlink:href="xcsf_8c.html#aa6edd3962ddd04940e2c78a4f99de7cd" target="_top" xlink:title="Executes a single XCSF testing trial. ">
<polygon fill="none" stroke="#000000" points="100,-152.5 100,-171.5 178,-171.5 178,-152.5 100,-152.5"/>
<text text-anchor="middle" x="139" y="-159.5" font-family="Helvetica,sans-Serif" font-size="10.00" fill="#000000">xcsf_test_trial</text>
</a>
</g>
</g>
<!-- Node257&#45;&gt;Node278 -->
<g id="edge32" class="edge">
<title>Node257&#45;&gt;Node278</title>
<path fill="none" stroke="#191970" d="M58.1644,-175.3554C71.3115,-173.1833 86.4187,-170.6873 99.9885,-168.4454"/>
<polygon fill="#191970" stroke="#191970" points="57.4035,-171.9336 48.1078,-177.017 58.5446,-178.84 57.4035,-171.9336"/>
</g>
<!-- Node259 -->
<g id="node3" class="node">
<title>Node259</title>
<g id="a_node3"><a xlink:href="structXCS.html#ad2ccafe59d2b4ae6d0e1cbc15edee53c" target="_top" xlink:title="XCS::fit">
<polygon fill="none" stroke="#000000" points="404.5,-228.5 404.5,-247.5 456.5,-247.5 456.5,-228.5 404.5,-228.5"/>
<text text-anchor="middle" x="430.5" y="-235.5" font-family="Helvetica,sans-Serif" font-size="10.00" fill="#000000">XCS::fit</text>
</a>
</g>
</g>
<!-- Node258&#45;&gt;Node259 -->
<g id="edge2" class="edge">
<title>Node258&#45;&gt;Node259</title>
<path fill="none" stroke="#191970" d="M319.0312,-302.9062C325.4402,-300.5313 331.9962,-297.8654 338,-295 367.4511,-280.9442 399.3401,-259.8549 416.9223,-247.6573"/>
<polygon fill="#191970" stroke="#191970" points="317.4447,-299.7546 309.1814,-306.3854 319.7762,-306.3549 317.4447,-299.7546"/>
</g>
<!-- Node261 -->
<g id="node5" class="node">
<title>Node261</title>
<g id="a_node5"><a xlink:href="main_8c.html#a3c04138a5bfe5d72780bb7e82a18e627" target="_top" xlink:title="main">
<polygon fill="none" stroke="#000000" points="411.5,-190.5 411.5,-209.5 449.5,-209.5 449.5,-190.5 411.5,-190.5"/>
<text text-anchor="middle" x="430.5" y="-197.5" font-family="Helvetica,sans-Serif" font-size="10.00" fill="#000000">main</text>
</a>
</g>
</g>
<!-- Node258&#45;&gt;Node261 -->
<g id="edge4" class="edge">
<title>Node258&#45;&gt;Node261</title>
<path fill="none" stroke="#191970" d="M318.5241,-306.4125C325.5462,-303.68 332.467,-299.9853 338,-295 365.7671,-269.9815 346.0594,-243.8246 374,-219 384.3667,-209.7894 399.3611,-205.0154 411.2981,-202.557"/>
<polygon fill="#191970" stroke="#191970" points="317.394,-303.0998 309.0067,-309.5731 319.6002,-309.7431 317.394,-303.0998"/>
</g>
<!-- Node258&#45;&gt;Node262 -->
<g id="edge5" class="edge">
<title>Node258&#45;&gt;Node262</title>
<path fill="none" stroke="#191970" d="M319.4233,-314C338.293,-314 361.7783,-314 382.2871,-314"/>
<polygon fill="#191970" stroke="#191970" points="319.1843,-310.5001 309.1842,-314 319.1842,-317.5001 319.1843,-310.5001"/>
</g>
<!-- Node260 -->
<g id="node4" class="node">
<title>Node260</title>
<g id="a_node4"><a xlink:href="python__wrapper_8cpp.html#afbdcc1358036a0b83a6b239da2b098a2" target="_top" xlink:title="BOOST_PYTHON_MODULE">
<polygon fill="none" stroke="#000000" points="523,-95.5 523,-114.5 669,-114.5 669,-95.5 523,-95.5"/>
<text text-anchor="middle" x="596" y="-102.5" font-family="Helvetica,sans-Serif" font-size="10.00" fill="#000000">BOOST_PYTHON_MODULE</text>
</a>
</g>
</g>
<!-- Node259&#45;&gt;Node260 -->
<g id="edge3" class="edge">
<title>Node259&#45;&gt;Node260</title>
<path fill="none" stroke="#191970" d="M466.3042,-228.8775C473.4531,-226.2647 480.6949,-223.0068 487,-219 533.2217,-189.6264 573.7503,-136.569 589.2698,-114.7619"/>
<polygon fill="#191970" stroke="#191970" points="465.1055,-225.5874 456.7101,-232.0501 467.3033,-232.2334 465.1055,-225.5874"/>
</g>
<!-- Node262&#45;&gt;Node260 -->
<g id="edge6" class="edge">
<title>Node262&#45;&gt;Node260</title>
<path fill="none" stroke="#191970" d="M448.3304,-297.4346C459.8393,-286.4056 474.871,-271.3548 487,-257 529.964,-206.1519 574.0148,-139.2701 589.8611,-114.64"/>
<polygon fill="#191970" stroke="#191970" points="445.8606,-294.9531 441.0044,-304.3694 450.6728,-300.0367 445.8606,-294.9531"/>
</g>
<!-- Node263&#45;&gt;Node264 -->
<g id="edge8" class="edge">
<title>Node263&#45;&gt;Node264</title>
<path fill="none" stroke="#191970" d="M177.1874,-113.9923C201.2959,-107.6742 231.9838,-99.6318 254.2743,-93.7902"/>
<polygon fill="#191970" stroke="#191970" points="176.0877,-110.6622 167.3017,-116.583 177.8623,-117.4335 176.0877,-110.6622"/>
</g>
<!-- Node264&#45;&gt;Node261 -->
<g id="edge9" class="edge">
<title>Node264&#45;&gt;Node261</title>
<path fill="none" stroke="#191970" d="M323.3935,-95.6555C328.6919,-98.1094 333.7545,-101.1748 338,-105 365.7671,-130.0185 346.0594,-156.1754 374,-181 384.3667,-190.2106 399.3611,-194.9846 411.2981,-197.443"/>
<polygon fill="#191970" stroke="#191970" points="324.3147,-92.2573 313.727,-91.8668 321.7602,-98.7746 324.3147,-92.2573"/>
</g>
<!-- Node265 -->
<g id="node9" class="node">
<title>Node265</title>
<g id="a_node9"><a xlink:href="structXCS.html#adc9b621f2b7a306fbf381dd0efaf268b" target="_top" xlink:title="XCS::load">
<polygon fill="none" stroke="#000000" points="399.5,-76.5 399.5,-95.5 461.5,-95.5 461.5,-76.5 399.5,-76.5"/>
<text text-anchor="middle" x="430.5" y="-83.5" font-family="Helvetica,sans-Serif" font-size="10.00" fill="#000000">XCS::load</text>
</a>
</g>
</g>
<!-- Node264&#45;&gt;Node265 -->
<g id="edge10" class="edge">
<title>Node264&#45;&gt;Node265</title>
<path fill="none" stroke="#191970" d="M323.7648,-86C347.5445,-86 377.3236,-86 399.3807,-86"/>
<polygon fill="#191970" stroke="#191970" points="323.6465,-82.5001 313.6465,-86 323.6464,-89.5001 323.6465,-82.5001"/>
</g>
<!-- Node265&#45;&gt;Node260 -->
<g id="edge11" class="edge">
<title>Node265&#45;&gt;Node260</title>
<path fill="none" stroke="#191970" d="M471.8643,-90.7488C487.3016,-92.521 505.3267,-94.5904 522.7788,-96.5939"/>
<polygon fill="#191970" stroke="#191970" points="471.9633,-87.2372 461.6293,-89.5738 471.1648,-94.1915 471.9633,-87.2372"/>
</g>
<!-- Node267 -->
<g id="node11" class="node">
<title>Node267</title>
<g id="a_node11"><a xlink:href="xcs__multi__step_8h.html#acc29d4a55dbd56c16ea5f19f15a7c677" target="_top" xlink:title="Executes a multi&#45;step reinforcement learning experiment. ">
<polygon fill="none" stroke="#000000" points="232,-190.5 232,-209.5 336,-209.5 336,-190.5 232,-190.5"/>
<text text-anchor="middle" x="284" y="-197.5" font-family="Helvetica,sans-Serif" font-size="10.00" fill="#000000">xcs_multi_step_exp</text>
</a>
</g>
</g>
<!-- Node266&#45;&gt;Node267 -->
<g id="edge14" class="edge">
<title>Node266&#45;&gt;Node267</title>
<path fill="none" stroke="#191970" d="M189.273,-200C203.0508,-200 218.0143,-200 231.8925,-200"/>
<polygon fill="#191970" stroke="#191970" points="189.0058,-196.5001 179.0057,-200 189.0057,-203.5001 189.0058,-196.5001"/>
</g>
<!-- Node267&#45;&gt;Node261 -->
<g id="edge15" class="edge">
<title>Node267&#45;&gt;Node261</title>
<path fill="none" stroke="#191970" d="M346.3413,-200C369.7917,-200 394.7679,-200 411.3641,-200"/>
<polygon fill="#191970" stroke="#191970" points="346.063,-196.5001 336.0629,-200 346.0629,-203.5001 346.063,-196.5001"/>
</g>
<!-- Node269 -->
<g id="node13" class="node">
<title>Node269</title>
<g id="a_node13"><a xlink:href="xcs__single__step_8h.html#a39a031bf59eaa9b33e30e614610dcda8" target="_top" xlink:title="Executes a single&#45;step experiment. ">
<polygon fill="none" stroke="#000000" points="230,-266.5 230,-285.5 338,-285.5 338,-266.5 230,-266.5"/>
<text text-anchor="middle" x="284" y="-273.5" font-family="Helvetica,sans-Serif" font-size="10.00" fill="#000000">xcs_single_step_exp</text>
</a>
</g>
</g>
<!-- Node268&#45;&gt;Node269 -->
<g id="edge17" class="edge">
<title>Node268&#45;&gt;Node269</title>
<path fill="none" stroke="#191970" d="M191.5872,-276C204.081,-276 217.4301,-276 229.9864,-276"/>
<polygon fill="#191970" stroke="#191970" points="191.3298,-272.5001 181.3298,-276 191.3298,-279.5001 191.3298,-272.5001"/>
</g>
<!-- Node269&#45;&gt;Node261 -->
<g id="edge18" class="edge">
<title>Node269&#45;&gt;Node261</title>
<path fill="none" stroke="#191970" d="M328.1166,-262.494C331.5598,-260.8388 334.8992,-259.0111 338,-257 357.5186,-244.3407 354.3937,-231.5231 374,-219 385.4252,-211.7024 399.9523,-206.8982 411.4149,-203.9464"/>
<polygon fill="#191970" stroke="#191970" points="326.6547,-259.3127 318.852,-266.48 329.4212,-265.7429 326.6547,-259.3127"/>
</g>
<!-- Node271 -->
<g id="node15" class="node">
<title>Node271</title>
<g id="a_node15"><a xlink:href="xcsf_8h.html#a874829f28fee20f9ad15b540f4b4d6ff" target="_top" xlink:title="Executes MAX_TRIALS number of XCSF learning iterations using the training data. ">
<polygon fill="none" stroke="#000000" points="257,-228.5 257,-247.5 311,-247.5 311,-228.5 257,-228.5"/>
<text text-anchor="middle" x="284" y="-235.5" font-family="Helvetica,sans-Serif" font-size="10.00" fill="#000000">xcsf_fit1</text>
</a>
</g>
</g>
<!-- Node270&#45;&gt;Node271 -->
<g id="edge20" class="edge">
<title>Node270&#45;&gt;Node271</title>
<path fill="none" stroke="#191970" d="M190.5591,-238C212.8578,-238 238.0475,-238 256.6494,-238"/>
<polygon fill="#191970" stroke="#191970" points="190.5512,-234.5001 180.5512,-238 190.5511,-241.5001 190.5512,-234.5001"/>
</g>
<!-- Node272 -->
<g id="node16" class="node">
<title>Node272</title>
<g id="a_node16"><a xlink:href="xcsf_8h.html#a0b4de57cb9dadc9deca7901aa36e5025" target="_top" xlink:title="Executes MAX_TRIALS number of XCSF learning iterations using the training. data and test iterations u...">
<polygon fill="none" stroke="#000000" points="257,-152.5 257,-171.5 311,-171.5 311,-152.5 257,-152.5"/>
<text text-anchor="middle" x="284" y="-159.5" font-family="Helvetica,sans-Serif" font-size="10.00" fill="#000000">xcsf_fit2</text>
</a>
</g>
</g>
<!-- Node270&#45;&gt;Node272 -->
<g id="edge22" class="edge">
<title>Node270&#45;&gt;Node272</title>
<path fill="none" stroke="#191970" d="M184.0848,-224.4755C187.5385,-222.8274 190.8874,-221.0062 194,-219 213.5547,-206.3965 210.4814,-193.6593 230,-181 238.0881,-175.7543 247.7997,-171.756 256.7433,-168.813"/>
<polygon fill="#191970" stroke="#191970" points="182.6126,-221.2983 174.7882,-228.4418 185.3596,-227.7368 182.6126,-221.2983"/>
</g>
<!-- Node271&#45;&gt;Node259 -->
<g id="edge21" class="edge">
<title>Node271&#45;&gt;Node259</title>
<path fill="none" stroke="#191970" d="M321.4437,-238C347.4137,-238 381.3473,-238 404.4182,-238"/>
<polygon fill="#191970" stroke="#191970" points="321.2122,-234.5001 311.2122,-238 321.2122,-241.5001 321.2122,-234.5001"/>
</g>
<!-- Node272&#45;&gt;Node261 -->
<g id="edge23" class="edge">
<title>Node272&#45;&gt;Node261</title>
<path fill="none" stroke="#191970" d="M320.9307,-171.5793C349.7071,-179.0435 388.4954,-189.1046 411.3665,-195.037"/>
<polygon fill="#191970" stroke="#191970" points="321.7707,-168.1814 311.2122,-169.0585 320.0131,-174.9572 321.7707,-168.1814"/>
</g>
<!-- Node273 -->
<g id="node17" class="node">
<title>Node273</title>
<g id="a_node17"><a xlink:href="structXCS.html#a7d53320740db8e846251bacd0238a9fb" target="_top" xlink:title="XCS::fit">
<polygon fill="none" stroke="#000000" points="404.5,-152.5 404.5,-171.5 456.5,-171.5 456.5,-152.5 404.5,-152.5"/>
<text text-anchor="middle" x="430.5" y="-159.5" font-family="Helvetica,sans-Serif" font-size="10.00" fill="#000000">XCS::fit</text>
</a>
</g>
</g>
<!-- Node272&#45;&gt;Node273 -->
<g id="edge24" class="edge">
<title>Node272&#45;&gt;Node273</title>
<path fill="none" stroke="#191970" d="M321.4437,-162C347.4137,-162 381.3473,-162 404.4182,-162"/>
<polygon fill="#191970" stroke="#191970" points="321.2122,-158.5001 311.2122,-162 321.2122,-165.5001 321.2122,-158.5001"/>
</g>
<!-- Node275 -->
<g id="node19" class="node">
<title>Node275</title>
<g id="a_node19"><a xlink:href="structXCS.html#a911ed75c86abed7807d33eb1385240ed" target="_top" xlink:title="XCS::predict">
<polygon fill="none" stroke="#000000" points="394,-38.5 394,-57.5 467,-57.5 467,-38.5 394,-38.5"/>
<text text-anchor="middle" x="430.5" y="-45.5" font-family="Helvetica,sans-Serif" font-size="10.00" fill="#000000">XCS::predict</text>
</a>
</g>
</g>
<!-- Node274&#45;&gt;Node275 -->
<g id="edge27" class="edge">
<title>Node274&#45;&gt;Node275</title>
<path fill="none" stroke="#191970" d="M184.4457,-48C242.1701,-48 340.655,-48 393.8385,-48"/>
<polygon fill="#191970" stroke="#191970" points="184.1617,-44.5001 174.1617,-48 184.1617,-51.5001 184.1617,-44.5001"/>
</g>
<!-- Node275&#45;&gt;Node260 -->
<g id="edge28" class="edge">
<title>Node275&#45;&gt;Node260</title>
<path fill="none" stroke="#191970" d="M468.4998,-60.7146C474.6871,-62.8033 481.0246,-64.9538 487,-67 514.8708,-76.5441 546.674,-87.6571 568.7037,-95.3902"/>
<polygon fill="#191970" stroke="#191970" points="469.5681,-57.3813 458.974,-57.5071 467.3342,-64.0153 469.5681,-57.3813"/>
</g>
<!-- Node277 -->
<g id="node21" class="node">
<title>Node277</title>
<g id="a_node21"><a xlink:href="structXCS.html#aa5608b379fae01b724267a99068d55bb" target="_top" xlink:title="XCS::print_match_set">
<polygon fill="none" stroke="#000000" points="374,-.5 374,-19.5 487,-19.5 487,-.5 374,-.5"/>
<text text-anchor="middle" x="430.5" y="-7.5" font-family="Helvetica,sans-Serif" font-size="10.00" fill="#000000">XCS::print_match_set</text>
</a>
</g>
</g>
<!-- Node276&#45;&gt;Node277 -->
<g id="edge30" class="edge">
<title>Node276&#45;&gt;Node277</title>
<path fill="none" stroke="#191970" d="M204.4105,-10C255.3246,-10 325.2616,-10 373.814,-10"/>
<polygon fill="#191970" stroke="#191970" points="204.1717,-6.5001 194.1716,-10 204.1716,-13.5001 204.1717,-6.5001"/>
</g>
<!-- Node277&#45;&gt;Node260 -->
<g id="edge31" class="edge">
<title>Node277&#45;&gt;Node260</title>
<path fill="none" stroke="#191970" d="M473.5064,-23.0196C478.1388,-24.8459 482.7196,-26.8438 487,-29 525.3214,-48.3043 565.4974,-79.6769 584.6034,-95.3905"/>
<polygon fill="#191970" stroke="#191970" points="474.5984,-19.6919 464.005,-19.5162 472.1766,-26.2597 474.5984,-19.6919"/>
</g>
<!-- Node278&#45;&gt;Node272 -->
<g id="edge33" class="edge">
<title>Node278&#45;&gt;Node272</title>
<path fill="none" stroke="#191970" d="M188.4448,-162C211.2595,-162 237.474,-162 256.6681,-162"/>
<polygon fill="#191970" stroke="#191970" points="188.2391,-158.5001 178.2391,-162 188.2391,-165.5001 188.2391,-158.5001"/>
</g>
<!-- Node279 -->
<g id="node23" class="node">
<title>Node279</title>
<g id="a_node23"><a xlink:href="xcsf_8h.html#a2cf95733e5f97410d94211b72e835847" target="_top" xlink:title="Calculates the XCSF error for the input data. ">
<polygon fill="none" stroke="#000000" points="251.5,-114.5 251.5,-133.5 316.5,-133.5 316.5,-114.5 251.5,-114.5"/>
<text text-anchor="middle" x="284" y="-121.5" font-family="Helvetica,sans-Serif" font-size="10.00" fill="#000000">xcsf_score</text>
</a>
</g>
</g>
<!-- Node278&#45;&gt;Node279 -->
<g id="edge34" class="edge">
<title>Node278&#45;&gt;Node279</title>
<path fill="none" stroke="#191970" d="M185.4918,-149.8159C206.965,-144.1885 231.9472,-137.6414 251.3801,-132.5487"/>
<polygon fill="#191970" stroke="#191970" points="184.3757,-146.4902 175.5896,-152.411 186.1503,-153.2615 184.3757,-146.4902"/>
</g>
<!-- Node280 -->
<g id="node24" class="node">
<title>Node280</title>
<g id="a_node24"><a xlink:href="structXCS.html#aa77bc77484d6d14bf512304a23cfec88" target="_top" xlink:title="XCS::score">
<polygon fill="none" stroke="#000000" points="396.5,-114.5 396.5,-133.5 464.5,-133.5 464.5,-114.5 396.5,-114.5"/>
<text text-anchor="middle" x="430.5" y="-121.5" font-family="Helvetica,sans-Serif" font-size="10.00" fill="#000000">XCS::score</text>
</a>
</g>
</g>
<!-- Node279&#45;&gt;Node280 -->
<g id="edge35" class="edge">
<title>Node279&#45;&gt;Node280</title>
<path fill="none" stroke="#191970" d="M326.6544,-124C348.8077,-124 375.5127,-124 396.2938,-124"/>
<polygon fill="#191970" stroke="#191970" points="326.5131,-120.5001 316.5131,-124 326.5131,-127.5001 326.5131,-120.5001"/>
</g>
<!-- Node280&#45;&gt;Node260 -->
<g id="edge36" class="edge">
<title>Node280&#45;&gt;Node260</title>
<path fill="none" stroke="#191970" d="M475.1037,-118.8793C489.8156,-117.1904 506.5869,-115.265 522.856,-113.3972"/>
<polygon fill="#191970" stroke="#191970" points="474.3272,-115.4454 464.7917,-120.0632 475.1257,-122.3997 474.3272,-115.4454"/>
</g>
</g>
</svg>
