<?xml version="1.0" encoding="UTF-8" standalone="no"?>
<!DOCTYPE svg PUBLIC "-//W3C//DTD SVG 1.1//EN"
 "http://www.w3.org/Graphics/SVG/1.1/DTD/svg11.dtd">
<!-- Generated by graphviz version 2.40.1 (20161225.0304)
 -->
<!-- Title: set_update Pages: 1 -->
<svg width="673pt" height="218pt"
 viewBox="0.00 0.00 673.00 218.00" xmlns="http://www.w3.org/2000/svg" xmlns:xlink="http://www.w3.org/1999/xlink">
<g id="graph0" class="graph" transform="scale(1 1) rotate(0) translate(4 214)">
<title>set_update</title>
<!-- Node569 -->
<g id="node1" class="node">
<title>Node569</title>
<polygon fill="#bfbfbf" stroke="#000000" points="0,-133.5 0,-152.5 65,-152.5 65,-133.5 0,-133.5"/>
<text text-anchor="middle" x="32.5" y="-140.5" font-family="Helvetica,sans-Serif" font-size="10.00" fill="#000000">set_update</text>
</g>
<!-- Node570 -->
<g id="node2" class="node">
<title>Node570</title>
<g id="a_node2"><a xlink:href="xcs__multi__step_8c.html#a1e1c2a3094be715b468dda79cd59ebf3" target="_top" xlink:title="Executes a multi&#45;step trial using a built&#45;in environment. ">
<polygon fill="none" stroke="#000000" points="110,-180.5 110,-199.5 190,-199.5 190,-180.5 110,-180.5"/>
<text text-anchor="middle" x="150" y="-187.5" font-family="Helvetica,sans-Serif" font-size="10.00" fill="#000000">xcs_multi_trial</text>
</a>
</g>
</g>
<!-- Node569&#45;&gt;Node570 -->
<g id="edge1" class="edge">
<title>Node569&#45;&gt;Node570</title>
<path fill="none" stroke="#191970" d="M65.8157,-156.3263C84.9397,-163.9759 108.5196,-173.4078 125.8542,-180.3417"/>
<polygon fill="#191970" stroke="#191970" points="66.8625,-152.9754 56.2779,-152.5112 64.2628,-159.4748 66.8625,-152.9754"/>
</g>
<!-- Node573 -->
<g id="node5" class="node">
<title>Node573</title>
<g id="a_node5"><a xlink:href="xcs__single__step_8h.html#aff4aec035e4573993a7906569f2028f5" target="_top" xlink:title="Creates the action set, updates the classifiers and runs the EA. ">
<polygon fill="none" stroke="#000000" points="101,-133.5 101,-152.5 199,-152.5 199,-133.5 101,-133.5"/>
<text text-anchor="middle" x="150" y="-140.5" font-family="Helvetica,sans-Serif" font-size="10.00" fill="#000000">xcs_single_update</text>
</a>
</g>
</g>
<!-- Node569&#45;&gt;Node573 -->
<g id="edge4" class="edge">
<title>Node569&#45;&gt;Node573</title>
<path fill="none" stroke="#191970" d="M75.3769,-143C83.6204,-143 92.3146,-143 100.7413,-143"/>
<polygon fill="#191970" stroke="#191970" points="75.2303,-139.5001 65.2303,-143 75.2303,-146.5001 75.2303,-139.5001"/>
</g>
<!-- Node578 -->
<g id="node10" class="node">
<title>Node578</title>
<g id="a_node10"><a xlink:href="xcsf_8c.html#a474f4e13cfc5f00958c689cd8c81135a" target="_top" xlink:title="Executes a single XCSF learning trial. ">
<polygon fill="none" stroke="#000000" points="108.5,-57.5 108.5,-76.5 191.5,-76.5 191.5,-57.5 108.5,-57.5"/>
<text text-anchor="middle" x="150" y="-64.5" font-family="Helvetica,sans-Serif" font-size="10.00" fill="#000000">xcsf_learn_trial</text>
</a>
</g>
</g>
<!-- Node569&#45;&gt;Node578 -->
<g id="edge10" class="edge">
<title>Node569&#45;&gt;Node578</title>
<path fill="none" stroke="#191970" d="M55.7786,-127.9432C79.4042,-112.662 115.2619,-89.4689 135.2394,-76.5473"/>
<polygon fill="#191970" stroke="#191970" points="53.8773,-125.0046 47.3815,-133.3745 57.679,-130.8823 53.8773,-125.0046"/>
</g>
<!-- Node571 -->
<g id="node3" class="node">
<title>Node571</title>
<g id="a_node3"><a xlink:href="xcs__multi__step_8h.html#acc29d4a55dbd56c16ea5f19f15a7c677" target="_top" xlink:title="Executes a multi&#45;step reinforcement learning experiment. ">
<polygon fill="none" stroke="#000000" points="377,-190.5 377,-209.5 481,-209.5 481,-190.5 377,-190.5"/>
<text text-anchor="middle" x="429" y="-197.5" font-family="Helvetica,sans-Serif" font-size="10.00" fill="#000000">xcs_multi_step_exp</text>
</a>
</g>
</g>
<!-- Node570&#45;&gt;Node571 -->
<g id="edge2" class="edge">
<title>Node570&#45;&gt;Node571</title>
<path fill="none" stroke="#191970" d="M200.5047,-191.8102C250.4046,-193.5987 326.3872,-196.3221 376.8508,-198.1309"/>
<polygon fill="#191970" stroke="#191970" points="200.39,-188.3039 190.271,-191.4434 200.1392,-195.2994 200.39,-188.3039"/>
</g>
<!-- Node572 -->
<g id="node4" class="node">
<title>Node572</title>
<g id="a_node4"><a xlink:href="main_8c.html#a3c04138a5bfe5d72780bb7e82a18e627" target="_top" xlink:title="main">
<polygon fill="none" stroke="#000000" points="573,-152.5 573,-171.5 611,-171.5 611,-152.5 573,-152.5"/>
<text text-anchor="middle" x="592" y="-159.5" font-family="Helvetica,sans-Serif" font-size="10.00" fill="#000000">main</text>
</a>
</g>
</g>
<!-- Node571&#45;&gt;Node572 -->
<g id="edge3" class="edge">
<title>Node571&#45;&gt;Node572</title>
<path fill="none" stroke="#191970" d="M480.0525,-188.0982C511.4599,-180.7762 549.9128,-171.8117 572.6012,-166.5224"/>
<polygon fill="#191970" stroke="#191970" points="479.076,-184.7319 470.1318,-190.411 480.6653,-191.5491 479.076,-184.7319"/>
</g>
<!-- Node574 -->
<g id="node6" class="node">
<title>Node574</title>
<g id="a_node6"><a xlink:href="structXCS.html#aedc01ad6f00a54b260a7605929a1d4c9" target="_top" xlink:title="XCS::single_update">
<polygon fill="none" stroke="#000000" points="235,-114.5 235,-133.5 339,-133.5 339,-114.5 235,-114.5"/>
<text text-anchor="middle" x="287" y="-121.5" font-family="Helvetica,sans-Serif" font-size="10.00" fill="#000000">XCS::single_update</text>
</a>
</g>
</g>
<!-- Node573&#45;&gt;Node574 -->
<g id="edge5" class="edge">
<title>Node573&#45;&gt;Node574</title>
<path fill="none" stroke="#191970" d="M209.2254,-134.7863C217.6549,-133.6172 226.2753,-132.4217 234.5632,-131.2723"/>
<polygon fill="#191970" stroke="#191970" points="208.4976,-131.3536 199.0732,-136.1942 209.4592,-138.2873 208.4976,-131.3536"/>
</g>
<!-- Node576 -->
<g id="node8" class="node">
<title>Node576</title>
<g id="a_node8"><a xlink:href="xcs__single__step_8c.html#a3d1fd2472d35310800aed897219a65af" target="_top" xlink:title="Executes a single&#45;step trial using a built&#45;in environment. ">
<polygon fill="none" stroke="#000000" points="245,-152.5 245,-171.5 329,-171.5 329,-152.5 245,-152.5"/>
<text text-anchor="middle" x="287" y="-159.5" font-family="Helvetica,sans-Serif" font-size="10.00" fill="#000000">xcs_single_trial</text>
</a>
</g>
</g>
<!-- Node573&#45;&gt;Node576 -->
<g id="edge7" class="edge">
<title>Node573&#45;&gt;Node576</title>
<path fill="none" stroke="#191970" d="M209.0069,-151.1834C220.9825,-152.8443 233.3528,-154.5599 244.6154,-156.1218"/>
<polygon fill="#191970" stroke="#191970" points="209.4592,-147.7128 199.0732,-149.8058 208.4976,-154.6464 209.4592,-147.7128"/>
</g>
<!-- Node575 -->
<g id="node7" class="node">
<title>Node575</title>
<g id="a_node7"><a xlink:href="python__wrapper_8cpp.html#afbdcc1358036a0b83a6b239da2b098a2" target="_top" xlink:title="BOOST_PYTHON_MODULE">
<polygon fill="none" stroke="#000000" points="519,-57.5 519,-76.5 665,-76.5 665,-57.5 519,-57.5"/>
<text text-anchor="middle" x="592" y="-64.5" font-family="Helvetica,sans-Serif" font-size="10.00" fill="#000000">BOOST_PYTHON_MODULE</text>
</a>
</g>
</g>
<!-- Node574&#45;&gt;Node575 -->
<g id="edge6" class="edge">
<title>Node574&#45;&gt;Node575</title>
<path fill="none" stroke="#191970" d="M347.945,-112.6103C404.5512,-102.0314 487.8787,-86.4587 541.0378,-76.5241"/>
<polygon fill="#191970" stroke="#191970" points="347.237,-109.1819 338.0501,-114.4595 348.523,-116.0628 347.237,-109.1819"/>
</g>
<!-- Node577 -->
<g id="node9" class="node">
<title>Node577</title>
<g id="a_node9"><a xlink:href="xcs__single__step_8h.html#a39a031bf59eaa9b33e30e614610dcda8" target="_top" xlink:title="Executes a single&#45;step experiment. ">
<polygon fill="none" stroke="#000000" points="375,-152.5 375,-171.5 483,-171.5 483,-152.5 375,-152.5"/>
<text text-anchor="middle" x="429" y="-159.5" font-family="Helvetica,sans-Serif" font-size="10.00" fill="#000000">xcs_single_step_exp</text>
</a>
</g>
</g>
<!-- Node576&#45;&gt;Node577 -->
<g id="edge8" class="edge">
<title>Node576&#45;&gt;Node577</title>
<path fill="none" stroke="#191970" d="M339.551,-162C351.0539,-162 363.2511,-162 374.8166,-162"/>
<polygon fill="#191970" stroke="#191970" points="339.2203,-158.5001 329.2202,-162 339.2202,-165.5001 339.2203,-158.5001"/>
</g>
<!-- Node577&#45;&gt;Node572 -->
<g id="edge9" class="edge">
<title>Node577&#45;&gt;Node572</title>
<path fill="none" stroke="#191970" d="M493.611,-162C522.0891,-162 553.4445,-162 572.9303,-162"/>
<polygon fill="#191970" stroke="#191970" points="493.2767,-158.5001 483.2766,-162 493.2766,-165.5001 493.2767,-158.5001"/>
</g>
<!-- Node579 -->
<g id="node11" class="node">
<title>Node579</title>
<g id="a_node11"><a xlink:href="xcsf_8h.html#a874829f28fee20f9ad15b540f4b4d6ff" target="_top" xlink:title="Executes MAX_TRIALS number of XCSF learning iterations using the training data. ">
<polygon fill="none" stroke="#000000" points="260,-10.5 260,-29.5 314,-29.5 314,-10.5 260,-10.5"/>
<text text-anchor="middle" x="287" y="-17.5" font-family="Helvetica,sans-Serif" font-size="10.00" fill="#000000">xcsf_fit1</text>
</a>
</g>
</g>
<!-- Node578&#45;&gt;Node579 -->
<g id="edge11" class="edge">
<title>Node578&#45;&gt;Node579</title>
<path fill="none" stroke="#191970" d="M187.4515,-54.1517C210.3317,-46.3022 239.0738,-36.4418 259.7848,-29.3366"/>
<polygon fill="#191970" stroke="#191970" points="186.0471,-50.9332 177.724,-57.4888 188.3186,-57.5544 186.0471,-50.9332"/>
</g>
<!-- Node581 -->
<g id="node13" class="node">
<title>Node581</title>
<g id="a_node13"><a xlink:href="xcsf_8h.html#a0b4de57cb9dadc9deca7901aa36e5025" target="_top" xlink:title="Executes MAX_TRIALS number of XCSF learning iterations using the training. data and test iterations u...">
<polygon fill="none" stroke="#000000" points="260,-57.5 260,-76.5 314,-76.5 314,-57.5 260,-57.5"/>
<text text-anchor="middle" x="287" y="-64.5" font-family="Helvetica,sans-Serif" font-size="10.00" fill="#000000">xcsf_fit2</text>
</a>
</g>
</g>
<!-- Node578&#45;&gt;Node581 -->
<g id="edge14" class="edge">
<title>Node578&#45;&gt;Node581</title>
<path fill="none" stroke="#191970" d="M201.9115,-67C221.5628,-67 243.1522,-67 259.6669,-67"/>
<polygon fill="#191970" stroke="#191970" points="201.849,-63.5001 191.8489,-67 201.8489,-70.5001 201.849,-63.5001"/>
</g>
<!-- Node580 -->
<g id="node12" class="node">
<title>Node580</title>
<g id="a_node12"><a xlink:href="structXCS.html#ad2ccafe59d2b4ae6d0e1cbc15edee53c" target="_top" xlink:title="XCS::fit">
<polygon fill="none" stroke="#000000" points="403,-.5 403,-19.5 455,-19.5 455,-.5 403,-.5"/>
<text text-anchor="middle" x="429" y="-7.5" font-family="Helvetica,sans-Serif" font-size="10.00" fill="#000000">XCS::fit</text>
</a>
</g>
</g>
<!-- Node579&#45;&gt;Node580 -->
<g id="edge12" class="edge">
<title>Node579&#45;&gt;Node580</title>
<path fill="none" stroke="#191970" d="M324.1114,-17.3865C348.7321,-15.6527 380.4557,-13.4186 402.538,-11.8635"/>
<polygon fill="#191970" stroke="#191970" points="323.7727,-13.9016 314.0434,-18.0955 324.2646,-20.8843 323.7727,-13.9016"/>
</g>
<!-- Node580&#45;&gt;Node575 -->
<g id="edge13" class="edge">
<title>Node580&#45;&gt;Node575</title>
<path fill="none" stroke="#191970" d="M464.8957,-22.5525C495.0205,-33.0869 537.4042,-47.9082 564.7892,-57.4846"/>
<polygon fill="#191970" stroke="#191970" points="465.7836,-19.1552 455.1888,-19.158 463.4729,-25.7628 465.7836,-19.1552"/>
</g>
<!-- Node581&#45;&gt;Node572 -->
<g id="edge15" class="edge">
<title>Node581&#45;&gt;Node572</title>
<path fill="none" stroke="#191970" d="M323.9399,-78.5059C389.2604,-98.8516 522.9534,-140.4937 572.7475,-156.0033"/>
<polygon fill="#191970" stroke="#191970" points="324.6552,-75.0629 314.0667,-75.4306 322.5734,-81.7462 324.6552,-75.0629"/>
</g>
<!-- Node582 -->
<g id="node14" class="node">
<title>Node582</title>
<g id="a_node14"><a xlink:href="structXCS.html#a7d53320740db8e846251bacd0238a9fb" target="_top" xlink:title="XCS::fit">
<polygon fill="none" stroke="#000000" points="403,-38.5 403,-57.5 455,-57.5 455,-38.5 403,-38.5"/>
<text text-anchor="middle" x="429" y="-45.5" font-family="Helvetica,sans-Serif" font-size="10.00" fill="#000000">XCS::fit</text>
</a>
</g>
</g>
<!-- Node581&#45;&gt;Node582 -->
<g id="edge16" class="edge">
<title>Node581&#45;&gt;Node582</title>
<path fill="none" stroke="#191970" d="M324.1114,-62.0344C348.7321,-58.7401 380.4557,-54.4954 402.538,-51.5407"/>
<polygon fill="#191970" stroke="#191970" points="323.4908,-58.5861 314.0434,-63.3815 324.4192,-65.5243 323.4908,-58.5861"/>
</g>
</g>
</svg>
