<?xml version="1.0" encoding="UTF-8" standalone="no"?>
<!DOCTYPE svg PUBLIC "-//W3C//DTD SVG 1.1//EN"
 "http://www.w3.org/Graphics/SVG/1.1/DTD/svg11.dtd">
<!-- Generated by graphviz version 2.40.1 (20161225.0304)
 -->
<!-- Title: set_mean_time Pages: 1 -->
<svg width="876pt" height="199pt"
 viewBox="0.00 0.00 876.00 199.00" xmlns="http://www.w3.org/2000/svg" xmlns:xlink="http://www.w3.org/1999/xlink">
<g id="graph0" class="graph" transform="scale(1 1) rotate(0) translate(4 195)">
<title>set_mean_time</title>
<!-- Node424 -->
<g id="node1" class="node">
<title>Node424</title>
<polygon fill="#bfbfbf" stroke="#000000" points="0,-57.5 0,-76.5 83,-76.5 83,-57.5 0,-57.5"/>
<text text-anchor="middle" x="41.5" y="-64.5" font-family="Helvetica,sans-Serif" font-size="10.00" fill="#000000">set_mean_time</text>
</g>
<!-- Node425 -->
<g id="node2" class="node">
<title>Node425</title>
<g id="a_node2"><a xlink:href="ea_8h.html#ae3824341a2f5482cb6ac70b3839ded51" target="_top" xlink:title="Executes the evolutionary algorithm (EA). ">
<polygon fill="none" stroke="#000000" points="119,-57.5 119,-76.5 148,-76.5 148,-57.5 119,-57.5"/>
<text text-anchor="middle" x="133.5" y="-64.5" font-family="Helvetica,sans-Serif" font-size="10.00" fill="#000000">ea</text>
</a>
</g>
</g>
<!-- Node424&#45;&gt;Node425 -->
<g id="edge1" class="edge">
<title>Node424&#45;&gt;Node425</title>
<path fill="none" stroke="#191970" d="M93.3665,-67C102.692,-67 111.6906,-67 118.7951,-67"/>
<polygon fill="#191970" stroke="#191970" points="93.1931,-63.5001 83.1931,-67 93.1931,-70.5001 93.1931,-63.5001"/>
</g>
<!-- Node426 -->
<g id="node3" class="node">
<title>Node426</title>
<g id="a_node3"><a xlink:href="xcs__multi__step_8c.html#a1e1c2a3094be715b468dda79cd59ebf3" target="_top" xlink:title="Executes a multi&#45;step trial using a built&#45;in environment. ">
<polygon fill="none" stroke="#000000" points="193,-57.5 193,-76.5 273,-76.5 273,-57.5 193,-57.5"/>
<text text-anchor="middle" x="233" y="-64.5" font-family="Helvetica,sans-Serif" font-size="10.00" fill="#000000">xcs_multi_trial</text>
</a>
</g>
</g>
<!-- Node425&#45;&gt;Node426 -->
<g id="edge2" class="edge">
<title>Node425&#45;&gt;Node426</title>
<path fill="none" stroke="#191970" d="M158.2467,-67C168.7074,-67 181.1611,-67 192.8746,-67"/>
<polygon fill="#191970" stroke="#191970" points="158.1816,-63.5001 148.1816,-67 158.1815,-70.5001 158.1816,-63.5001"/>
</g>
<!-- Node429 -->
<g id="node6" class="node">
<title>Node429</title>
<g id="a_node6"><a xlink:href="xcs__single__step_8h.html#aff4aec035e4573993a7906569f2028f5" target="_top" xlink:title="Creates the action set, updates the classifiers and runs the EA. ">
<polygon fill="none" stroke="#000000" points="184,-19.5 184,-38.5 282,-38.5 282,-19.5 184,-19.5"/>
<text text-anchor="middle" x="233" y="-26.5" font-family="Helvetica,sans-Serif" font-size="10.00" fill="#000000">xcs_single_update</text>
</a>
</g>
</g>
<!-- Node425&#45;&gt;Node429 -->
<g id="edge5" class="edge">
<title>Node425&#45;&gt;Node429</title>
<path fill="none" stroke="#191970" d="M157.8929,-57.6841C173.0608,-51.8914 192.5207,-44.4594 207.8317,-38.612"/>
<polygon fill="#191970" stroke="#191970" points="156.2747,-54.5555 148.1816,-61.393 158.7722,-61.0948 156.2747,-54.5555"/>
</g>
<!-- Node434 -->
<g id="node11" class="node">
<title>Node434</title>
<g id="a_node11"><a xlink:href="xcsf_8c.html#a474f4e13cfc5f00958c689cd8c81135a" target="_top" xlink:title="Executes a single XCSF learning trial. ">
<polygon fill="none" stroke="#000000" points="191.5,-114.5 191.5,-133.5 274.5,-133.5 274.5,-114.5 191.5,-114.5"/>
<text text-anchor="middle" x="233" y="-121.5" font-family="Helvetica,sans-Serif" font-size="10.00" fill="#000000">xcsf_learn_trial</text>
</a>
</g>
</g>
<!-- Node425&#45;&gt;Node434 -->
<g id="edge11" class="edge">
<title>Node425&#45;&gt;Node434</title>
<path fill="none" stroke="#191970" d="M157.0287,-80.4787C175.2445,-90.9139 200.0271,-105.111 216.2618,-114.4113"/>
<polygon fill="#191970" stroke="#191970" points="158.5984,-77.3444 148.1816,-75.4105 155.1189,-83.4183 158.5984,-77.3444"/>
</g>
<!-- Node427 -->
<g id="node4" class="node">
<title>Node427</title>
<g id="a_node4"><a xlink:href="xcs__multi__step_8h.html#acc29d4a55dbd56c16ea5f19f15a7c677" target="_top" xlink:title="Executes a multi&#45;step reinforcement learning experiment. ">
<polygon fill="none" stroke="#000000" points="440,-57.5 440,-76.5 544,-76.5 544,-57.5 440,-57.5"/>
<text text-anchor="middle" x="492" y="-64.5" font-family="Helvetica,sans-Serif" font-size="10.00" fill="#000000">xcs_multi_step_exp</text>
</a>
</g>
</g>
<!-- Node426&#45;&gt;Node427 -->
<g id="edge3" class="edge">
<title>Node426&#45;&gt;Node427</title>
<path fill="none" stroke="#191970" d="M283.3033,-67C328.2998,-67 394.0047,-67 439.6234,-67"/>
<polygon fill="#191970" stroke="#191970" points="283.1846,-63.5001 273.1846,-67 283.1845,-70.5001 283.1846,-63.5001"/>
</g>
<!-- Node428 -->
<g id="node5" class="node">
<title>Node428</title>
<g id="a_node5"><a xlink:href="main_8c.html#a3c04138a5bfe5d72780bb7e82a18e627" target="_top" xlink:title="main">
<polygon fill="none" stroke="#000000" points="615,-57.5 615,-76.5 653,-76.5 653,-57.5 615,-57.5"/>
<text text-anchor="middle" x="634" y="-64.5" font-family="Helvetica,sans-Serif" font-size="10.00" fill="#000000">main</text>
</a>
</g>
</g>
<!-- Node427&#45;&gt;Node428 -->
<g id="edge4" class="edge">
<title>Node427&#45;&gt;Node428</title>
<path fill="none" stroke="#191970" d="M554.3496,-67C576.2345,-67 599.2324,-67 614.8585,-67"/>
<polygon fill="#191970" stroke="#191970" points="554.0693,-63.5001 544.0692,-67 554.0692,-70.5001 554.0693,-63.5001"/>
</g>
<!-- Node430 -->
<g id="node7" class="node">
<title>Node430</title>
<g id="a_node7"><a xlink:href="structXCS.html#aedc01ad6f00a54b260a7605929a1d4c9" target="_top" xlink:title="XCS::single_update">
<polygon fill="none" stroke="#000000" points="582,-.5 582,-19.5 686,-19.5 686,-.5 582,-.5"/>
<text text-anchor="middle" x="634" y="-7.5" font-family="Helvetica,sans-Serif" font-size="10.00" fill="#000000">XCS::single_update</text>
</a>
</g>
</g>
<!-- Node429&#45;&gt;Node430 -->
<g id="edge6" class="edge">
<title>Node429&#45;&gt;Node430</title>
<path fill="none" stroke="#191970" d="M277.5202,-17.1157C290.4758,-14.1847 304.7174,-11.4664 318,-10 410.428,.2043 518.992,-3.1041 581.805,-6.5049"/>
<polygon fill="#191970" stroke="#191970" points="276.3777,-13.7891 267.4487,-19.4921 277.9852,-20.602 276.3777,-13.7891"/>
</g>
<!-- Node432 -->
<g id="node9" class="node">
<title>Node432</title>
<g id="a_node9"><a xlink:href="xcs__single__step_8c.html#a3d1fd2472d35310800aed897219a65af" target="_top" xlink:title="Executes a single&#45;step trial using a built&#45;in environment. ">
<polygon fill="none" stroke="#000000" points="318,-19.5 318,-38.5 402,-38.5 402,-19.5 318,-19.5"/>
<text text-anchor="middle" x="360" y="-26.5" font-family="Helvetica,sans-Serif" font-size="10.00" fill="#000000">xcs_single_trial</text>
</a>
</g>
</g>
<!-- Node429&#45;&gt;Node432 -->
<g id="edge8" class="edge">
<title>Node429&#45;&gt;Node432</title>
<path fill="none" stroke="#191970" d="M292.1216,-29C300.732,-29 309.4503,-29 317.6391,-29"/>
<polygon fill="#191970" stroke="#191970" points="292.1016,-25.5001 282.1015,-29 292.1015,-32.5001 292.1016,-25.5001"/>
</g>
<!-- Node431 -->
<g id="node8" class="node">
<title>Node431</title>
<g id="a_node8"><a xlink:href="python__wrapper_8cpp.html#afbdcc1358036a0b83a6b239da2b098a2" target="_top" xlink:title="BOOST_PYTHON_MODULE">
<polygon fill="none" stroke="#000000" points="722,-38.5 722,-57.5 868,-57.5 868,-38.5 722,-38.5"/>
<text text-anchor="middle" x="795" y="-45.5" font-family="Helvetica,sans-Serif" font-size="10.00" fill="#000000">BOOST_PYTHON_MODULE</text>
</a>
</g>
</g>
<!-- Node430&#45;&gt;Node431 -->
<g id="edge7" class="edge">
<title>Node430&#45;&gt;Node431</title>
<path fill="none" stroke="#191970" d="M684.4018,-21.8961C707.032,-27.2374 733.3695,-33.4537 754.665,-38.4799"/>
<polygon fill="#191970" stroke="#191970" points="685.1637,-18.4798 674.6271,-19.589 683.5557,-25.2926 685.1637,-18.4798"/>
</g>
<!-- Node433 -->
<g id="node10" class="node">
<title>Node433</title>
<g id="a_node10"><a xlink:href="xcs__single__step_8h.html#a39a031bf59eaa9b33e30e614610dcda8" target="_top" xlink:title="Executes a single&#45;step experiment. ">
<polygon fill="none" stroke="#000000" points="438,-19.5 438,-38.5 546,-38.5 546,-19.5 438,-19.5"/>
<text text-anchor="middle" x="492" y="-26.5" font-family="Helvetica,sans-Serif" font-size="10.00" fill="#000000">xcs_single_step_exp</text>
</a>
</g>
</g>
<!-- Node432&#45;&gt;Node433 -->
<g id="edge9" class="edge">
<title>Node432&#45;&gt;Node433</title>
<path fill="none" stroke="#191970" d="M412.1756,-29C420.5711,-29 429.2792,-29 437.7227,-29"/>
<polygon fill="#191970" stroke="#191970" points="412.1286,-25.5001 402.1285,-29 412.1285,-32.5001 412.1286,-25.5001"/>
</g>
<!-- Node433&#45;&gt;Node428 -->
<g id="edge10" class="edge">
<title>Node433&#45;&gt;Node428</title>
<path fill="none" stroke="#191970" d="M537.5443,-41.1879C563.6525,-48.1746 595.0537,-56.5778 614.7754,-61.8554"/>
<polygon fill="#191970" stroke="#191970" points="538.3975,-37.7931 527.8326,-38.589 536.5879,-44.5552 538.3975,-37.7931"/>
</g>
<!-- Node435 -->
<g id="node12" class="node">
<title>Node435</title>
<g id="a_node12"><a xlink:href="xcsf_8h.html#a0b4de57cb9dadc9deca7901aa36e5025" target="_top" xlink:title="Executes MAX_TRIALS number of XCSF learning iterations using the training. data and test iterations u...">
<polygon fill="none" stroke="#000000" points="333,-123.5 333,-142.5 387,-142.5 387,-123.5 333,-123.5"/>
<text text-anchor="middle" x="360" y="-130.5" font-family="Helvetica,sans-Serif" font-size="10.00" fill="#000000">xcsf_fit2</text>
</a>
</g>
</g>
<!-- Node434&#45;&gt;Node435 -->
<g id="edge12" class="edge">
<title>Node434&#45;&gt;Node435</title>
<path fill="none" stroke="#191970" d="M284.6576,-127.6608C301.131,-128.8282 318.7068,-130.0737 332.7358,-131.0679"/>
<polygon fill="#191970" stroke="#191970" points="284.807,-124.1627 274.5845,-126.9469 284.3121,-131.1452 284.807,-124.1627"/>
</g>
<!-- Node435&#45;&gt;Node428 -->
<g id="edge13" class="edge">
<title>Node435&#45;&gt;Node428</title>
<path fill="none" stroke="#191970" d="M397.4528,-136.7996C435.7558,-139.4028 496.494,-139.9435 546,-124 577.0141,-114.0119 607.6807,-90.1238 623.3228,-76.6573"/>
<polygon fill="#191970" stroke="#191970" points="397.5097,-133.2939 387.2723,-136.0227 396.977,-140.2736 397.5097,-133.2939"/>
</g>
<!-- Node436 -->
<g id="node13" class="node">
<title>Node436</title>
<g id="a_node13"><a xlink:href="structXCS.html#a7d53320740db8e846251bacd0238a9fb" target="_top" xlink:title="XCS::fit">
<polygon fill="none" stroke="#000000" points="466,-95.5 466,-114.5 518,-114.5 518,-95.5 466,-95.5"/>
<text text-anchor="middle" x="492" y="-102.5" font-family="Helvetica,sans-Serif" font-size="10.00" fill="#000000">XCS::fit</text>
</a>
</g>
</g>
<!-- Node435&#45;&gt;Node436 -->
<g id="edge14" class="edge">
<title>Node435&#45;&gt;Node436</title>
<path fill="none" stroke="#191970" d="M397.0015,-125.1512C418.9406,-120.4974 446.2158,-114.7118 465.905,-110.5353"/>
<polygon fill="#191970" stroke="#191970" points="396.0867,-121.7673 387.0307,-127.2662 397.5393,-128.6149 396.0867,-121.7673"/>
</g>
<!-- Node437 -->
<g id="node14" class="node">
<title>Node437</title>
<g id="a_node14"><a xlink:href="xcsf_8h.html#a874829f28fee20f9ad15b540f4b4d6ff" target="_top" xlink:title="Executes MAX_TRIALS number of XCSF learning iterations using the training data. ">
<polygon fill="none" stroke="#000000" points="465,-171.5 465,-190.5 519,-190.5 519,-171.5 465,-171.5"/>
<text text-anchor="middle" x="492" y="-178.5" font-family="Helvetica,sans-Serif" font-size="10.00" fill="#000000">xcsf_fit1</text>
</a>
</g>
</g>
<!-- Node435&#45;&gt;Node437 -->
<g id="edge15" class="edge">
<title>Node435&#45;&gt;Node437</title>
<path fill="none" stroke="#191970" d="M396.0599,-146.1127C418.0624,-154.1136 445.6979,-164.1629 465.6508,-171.4185"/>
<polygon fill="#191970" stroke="#191970" points="396.989,-142.7264 386.3949,-142.5982 394.5967,-149.3049 396.989,-142.7264"/>
</g>
<!-- Node438 -->
<g id="node15" class="node">
<title>Node438</title>
<g id="a_node15"><a xlink:href="structXCS.html#ad2ccafe59d2b4ae6d0e1cbc15edee53c" target="_top" xlink:title="XCS::fit">
<polygon fill="none" stroke="#000000" points="608,-133.5 608,-152.5 660,-152.5 660,-133.5 608,-133.5"/>
<text text-anchor="middle" x="634" y="-140.5" font-family="Helvetica,sans-Serif" font-size="10.00" fill="#000000">XCS::fit</text>
</a>
</g>
</g>
<!-- Node437&#45;&gt;Node438 -->
<g id="edge16" class="edge">
<title>Node437&#45;&gt;Node438</title>
<path fill="none" stroke="#191970" d="M528.7821,-171.1569C553.4487,-164.556 585.3571,-156.0171 607.538,-150.0814"/>
<polygon fill="#191970" stroke="#191970" points="527.7986,-167.7968 519.0434,-173.763 529.6083,-174.5589 527.7986,-167.7968"/>
</g>
<!-- Node438&#45;&gt;Node431 -->
<g id="edge17" class="edge">
<title>Node438&#45;&gt;Node431</title>
<path fill="none" stroke="#191970" d="M659.0249,-128.2338C692.3582,-108.565 750.3966,-74.3188 778.6332,-57.6574"/>
<polygon fill="#191970" stroke="#191970" points="657.1573,-125.2718 650.3235,-133.3681 660.7147,-131.3005 657.1573,-125.2718"/>
</g>
</g>
</svg>
