<?xml version="1.0" encoding="UTF-8" standalone="no"?>
<!DOCTYPE svg PUBLIC "-//W3C//DTD SVG 1.1//EN"
 "http://www.w3.org/Graphics/SVG/1.1/DTD/svg11.dtd">
<!-- Generated by graphviz version 2.40.1 (20161225.0304)
 -->
<!-- Title: set_action Pages: 1 -->
<svg width="534pt" height="142pt"
 viewBox="0.00 0.00 534.00 142.00" xmlns="http://www.w3.org/2000/svg" xmlns:xlink="http://www.w3.org/1999/xlink">
<g id="graph0" class="graph" transform="scale(1 1) rotate(0) translate(4 138)">
<title>set_action</title>
<!-- Node134 -->
<g id="node1" class="node">
<title>Node134</title>
<polygon fill="#bfbfbf" stroke="#000000" points="0,-57.5 0,-76.5 62,-76.5 62,-57.5 0,-57.5"/>
<text text-anchor="middle" x="31" y="-64.5" font-family="Helvetica,sans-Serif" font-size="10.00" fill="#000000">set_action</text>
</g>
<!-- Node135 -->
<g id="node2" class="node">
<title>Node135</title>
<g id="a_node2"><a xlink:href="$xcs__multi__step_8c.html#af458a8b42e79e924ffcf87a7d9c9711d" xlink:title="Executes a multi&#45;step exploit trial. ">
<polygon fill="none" stroke="#000000" points="102,-114.5 102,-133.5 194,-133.5 194,-114.5 102,-114.5"/>
<text text-anchor="middle" x="148" y="-121.5" font-family="Helvetica,sans-Serif" font-size="10.00" fill="#000000">xcs_multi_exploit</text>
</a>
</g>
</g>
<!-- Node134&#45;&gt;Node135 -->
<g id="edge1" class="edge">
<title>Node134&#45;&gt;Node135</title>
<path fill="none" stroke="#191970" d="M55.2387,-81.9369C67.7634,-89.3473 83.4385,-98.153 98,-105 105.227,-108.3982 113.2411,-111.6575 120.6978,-114.4877"/>
<polygon fill="#191970" stroke="#191970" points="56.7207,-78.7443 46.3457,-76.5976 53.1175,-84.7458 56.7207,-78.7443"/>
</g>
<!-- Node139 -->
<g id="node6" class="node">
<title>Node139</title>
<g id="a_node6"><a xlink:href="$xcs__multi__step_8c.html#a9f6d53384f68b9354b5757dd2c7771fd" xlink:title="Executes a multi&#45;step explore trial. ">
<polygon fill="none" stroke="#000000" points="100.5,-76.5 100.5,-95.5 195.5,-95.5 195.5,-76.5 100.5,-76.5"/>
<text text-anchor="middle" x="148" y="-83.5" font-family="Helvetica,sans-Serif" font-size="10.00" fill="#000000">xcs_multi_explore</text>
</a>
</g>
</g>
<!-- Node134&#45;&gt;Node139 -->
<g id="edge5" class="edge">
<title>Node134&#45;&gt;Node139</title>
<path fill="none" stroke="#191970" d="M72.0859,-73.6721C81.2629,-75.1623 91.0689,-76.7548 100.4815,-78.2833"/>
<polygon fill="#191970" stroke="#191970" points="72.4784,-70.19 62.0467,-72.0418 71.3563,-77.0995 72.4784,-70.19"/>
</g>
<!-- Node140 -->
<g id="node7" class="node">
<title>Node140</title>
<g id="a_node7"><a xlink:href="$xcs__single__step_8c.html#a5d3ed7cfbd01de00beaa8e2559f463b5" xlink:title="Executes a single&#45;step exploit trial. ">
<polygon fill="none" stroke="#000000" points="99.5,-38.5 99.5,-57.5 196.5,-57.5 196.5,-38.5 99.5,-38.5"/>
<text text-anchor="middle" x="148" y="-45.5" font-family="Helvetica,sans-Serif" font-size="10.00" fill="#000000">xcs_single_exploit</text>
</a>
</g>
</g>
<!-- Node134&#45;&gt;Node140 -->
<g id="edge7" class="edge">
<title>Node134&#45;&gt;Node140</title>
<path fill="none" stroke="#191970" d="M72.0145,-60.3395C80.7766,-58.9166 90.115,-57.4001 99.1388,-55.9347"/>
<polygon fill="#191970" stroke="#191970" points="71.3563,-56.9005 62.0467,-61.9582 72.4784,-63.81 71.3563,-56.9005"/>
</g>
<!-- Node142 -->
<g id="node9" class="node">
<title>Node142</title>
<g id="a_node9"><a xlink:href="$xcs__single__step_8c.html#aef07baf4de9b02d9c6fd33a1c485e7ea" xlink:title="Executes a single&#45;step explore trial. ">
<polygon fill="none" stroke="#000000" points="98,-.5 98,-19.5 198,-19.5 198,-.5 98,-.5"/>
<text text-anchor="middle" x="148" y="-7.5" font-family="Helvetica,sans-Serif" font-size="10.00" fill="#000000">xcs_single_explore</text>
</a>
</g>
</g>
<!-- Node134&#45;&gt;Node142 -->
<g id="edge10" class="edge">
<title>Node134&#45;&gt;Node142</title>
<path fill="none" stroke="#191970" d="M55.2387,-52.0631C67.7634,-44.6527 83.4385,-35.847 98,-29 105.227,-25.6018 113.2411,-22.3425 120.6978,-19.5123"/>
<polygon fill="#191970" stroke="#191970" points="53.1175,-49.2542 46.3457,-57.4024 56.7207,-55.2557 53.1175,-49.2542"/>
</g>
<!-- Node136 -->
<g id="node3" class="node">
<title>Node136</title>
<g id="a_node3"><a xlink:href="$xcs__multi__step_8h.html#acc29d4a55dbd56c16ea5f19f15a7c677" xlink:title="Executes a multi&#45;step reinforcement learning experiment. ">
<polygon fill="none" stroke="#000000" points="236,-76.5 236,-95.5 340,-95.5 340,-76.5 236,-76.5"/>
<text text-anchor="middle" x="288" y="-83.5" font-family="Helvetica,sans-Serif" font-size="10.00" fill="#000000">xcs_multi_step_exp</text>
</a>
</g>
</g>
<!-- Node135&#45;&gt;Node136 -->
<g id="edge2" class="edge">
<title>Node135&#45;&gt;Node136</title>
<path fill="none" stroke="#191970" d="M193.1176,-111.7538C212.4149,-106.516 234.6124,-100.4909 252.6834,-95.5859"/>
<polygon fill="#191970" stroke="#191970" points="192.0619,-108.4136 183.3279,-114.411 193.8956,-115.1692 192.0619,-108.4136"/>
</g>
<!-- Node137 -->
<g id="node4" class="node">
<title>Node137</title>
<g id="a_node4"><a xlink:href="$main_8c.html#ab572a67aa431827116ebd6931d667d21" xlink:title="classification">
<polygon fill="none" stroke="#000000" points="378,-57.5 378,-76.5 452,-76.5 452,-57.5 378,-57.5"/>
<text text-anchor="middle" x="415" y="-64.5" font-family="Helvetica,sans-Serif" font-size="10.00" fill="#000000">classification</text>
</a>
</g>
</g>
<!-- Node136&#45;&gt;Node137 -->
<g id="edge3" class="edge">
<title>Node136&#45;&gt;Node137</title>
<path fill="none" stroke="#191970" d="M350.1594,-76.7006C359.5516,-75.2954 368.9829,-73.8845 377.6309,-72.5907"/>
<polygon fill="#191970" stroke="#191970" points="349.3942,-73.276 340.0222,-78.2172 350.43,-80.1989 349.3942,-73.276"/>
</g>
<!-- Node138 -->
<g id="node5" class="node">
<title>Node138</title>
<g id="a_node5"><a xlink:href="$main_8c.html#a3c04138a5bfe5d72780bb7e82a18e627" xlink:title="main">
<polygon fill="none" stroke="#000000" points="488,-57.5 488,-76.5 526,-76.5 526,-57.5 488,-57.5"/>
<text text-anchor="middle" x="507" y="-64.5" font-family="Helvetica,sans-Serif" font-size="10.00" fill="#000000">main</text>
</a>
</g>
</g>
<!-- Node137&#45;&gt;Node138 -->
<g id="edge4" class="edge">
<title>Node137&#45;&gt;Node138</title>
<path fill="none" stroke="#191970" d="M462.3389,-67C471.3996,-67 480.391,-67 487.9053,-67"/>
<polygon fill="#191970" stroke="#191970" points="462.1548,-63.5001 452.1547,-67 462.1547,-70.5001 462.1548,-63.5001"/>
</g>
<!-- Node139&#45;&gt;Node136 -->
<g id="edge6" class="edge">
<title>Node139&#45;&gt;Node136</title>
<path fill="none" stroke="#191970" d="M205.9011,-86C215.7523,-86 225.9332,-86 235.6312,-86"/>
<polygon fill="#191970" stroke="#191970" points="205.7885,-82.5001 195.7885,-86 205.7885,-89.5001 205.7885,-82.5001"/>
</g>
<!-- Node141 -->
<g id="node8" class="node">
<title>Node141</title>
<g id="a_node8"><a xlink:href="$xcs__single__step_8h.html#a39a031bf59eaa9b33e30e614610dcda8" xlink:title="Executes a single&#45;step experiment. ">
<polygon fill="none" stroke="#000000" points="234,-38.5 234,-57.5 342,-57.5 342,-38.5 234,-38.5"/>
<text text-anchor="middle" x="288" y="-45.5" font-family="Helvetica,sans-Serif" font-size="10.00" fill="#000000">xcs_single_step_exp</text>
</a>
</g>
</g>
<!-- Node140&#45;&gt;Node141 -->
<g id="edge8" class="edge">
<title>Node140&#45;&gt;Node141</title>
<path fill="none" stroke="#191970" d="M206.5953,-48C215.5994,-48 224.8621,-48 233.7659,-48"/>
<polygon fill="#191970" stroke="#191970" points="206.5723,-44.5001 196.5723,-48 206.5723,-51.5001 206.5723,-44.5001"/>
</g>
<!-- Node141&#45;&gt;Node137 -->
<g id="edge9" class="edge">
<title>Node141&#45;&gt;Node137</title>
<path fill="none" stroke="#191970" d="M352.1372,-57.5953C360.9398,-58.9123 369.7261,-60.2267 377.8194,-61.4376"/>
<polygon fill="#191970" stroke="#191970" points="352.6356,-54.131 342.2278,-56.1128 351.5999,-61.054 352.6356,-54.131"/>
</g>
<!-- Node142&#45;&gt;Node141 -->
<g id="edge11" class="edge">
<title>Node142&#45;&gt;Node141</title>
<path fill="none" stroke="#191970" d="M193.1176,-22.2462C212.4149,-27.484 234.6124,-33.5091 252.6834,-38.4141"/>
<polygon fill="#191970" stroke="#191970" points="193.8956,-18.8308 183.3279,-19.589 192.0619,-25.5864 193.8956,-18.8308"/>
</g>
</g>
</svg>
