<?xml version="1.0" encoding="UTF-8" standalone="no"?>
<!DOCTYPE svg PUBLIC "-//W3C//DTD SVG 1.1//EN"
 "http://www.w3.org/Graphics/SVG/1.1/DTD/svg11.dtd">
<!-- Generated by graphviz version 2.40.1 (20161225.0304)
 -->
<!-- Title: pop_del Pages: 1 -->
<svg width="629pt" height="218pt"
 viewBox="0.00 0.00 629.00 218.00" xmlns="http://www.w3.org/2000/svg" xmlns:xlink="http://www.w3.org/1999/xlink">
<g id="graph0" class="graph" transform="scale(1 1) rotate(0) translate(4 214)">
<title>pop_del</title>
<!-- Node0 -->
<g id="node1" class="node">
<title>Node0</title>
<polygon fill="#bfbfbf" stroke="#000000" points="0,-95.5 0,-114.5 50,-114.5 50,-95.5 0,-95.5"/>
<text text-anchor="middle" x="25" y="-102.5" font-family="Helvetica,sans-Serif" font-size="10.00" fill="#000000">pop_del</text>
</g>
<!-- Node1 -->
<g id="node2" class="node">
<title>Node1</title>
<g id="a_node2"><a xlink:href="cl_8c.html#ab34a0468e7a08b58586daccab5f49651" target="_top" xlink:title="Returns the size of the classifier condition. ">
<polygon fill="none" stroke="#000000" points="86,-190.5 86,-209.5 160,-209.5 160,-190.5 86,-190.5"/>
<text text-anchor="middle" x="123" y="-197.5" font-family="Helvetica,sans-Serif" font-size="10.00" fill="#000000">cl_cond_size</text>
</a>
</g>
</g>
<!-- Node0&#45;&gt;Node1 -->
<g id="edge1" class="edge">
<title>Node0&#45;&gt;Node1</title>
<path fill="none" stroke="#191970" d="M31.0377,-114.983C40.9201,-130.6673 61.8805,-161.3183 86,-181 87.7728,-182.4466 89.6737,-183.8263 91.6437,-185.1333"/>
<polygon fill="#191970" stroke="#191970" points="90.1494,-188.3154 100.5408,-190.3815 93.7059,-182.2861 90.1494,-188.3154"/>
</g>
<!-- Node3 -->
<g id="node4" class="node">
<title>Node3</title>
<g id="a_node4"><a xlink:href="cl_8c.html#af708b9effceaf930cbe524f7aaffd2f9" target="_top" xlink:title="Returns the deletion vote of the classifier. ">
<polygon fill="none" stroke="#000000" points="90,-152.5 90,-171.5 156,-171.5 156,-152.5 90,-152.5"/>
<text text-anchor="middle" x="123" y="-159.5" font-family="Helvetica,sans-Serif" font-size="10.00" fill="#000000">cl_del_vote</text>
</a>
</g>
</g>
<!-- Node0&#45;&gt;Node3 -->
<g id="edge3" class="edge">
<title>Node0&#45;&gt;Node3</title>
<path fill="none" stroke="#191970" d="M39.8326,-114.7203C52.0581,-122.6149 69.9361,-133.8926 86,-143 88.7384,-144.5526 91.6172,-146.1273 94.509,-147.6717"/>
<polygon fill="#191970" stroke="#191970" points="93.1508,-150.9109 103.6352,-152.437 96.3909,-144.7059 93.1508,-150.9109"/>
</g>
<!-- Node4 -->
<g id="node5" class="node">
<title>Node4</title>
<g id="a_node5"><a xlink:href="cl_8c.html#aaa9b5b7ca68222f98cc38c80b643edbe" target="_top" xlink:title="Returns the size of the classifier prediction. ">
<polygon fill="none" stroke="#000000" points="87.5,-114.5 87.5,-133.5 158.5,-133.5 158.5,-114.5 87.5,-114.5"/>
<text text-anchor="middle" x="123" y="-121.5" font-family="Helvetica,sans-Serif" font-size="10.00" fill="#000000">cl_pred_size</text>
</a>
</g>
</g>
<!-- Node0&#45;&gt;Node4 -->
<g id="edge4" class="edge">
<title>Node0&#45;&gt;Node4</title>
<path fill="none" stroke="#191970" d="M50.2374,-109.893C58.4838,-111.4917 67.9148,-113.3202 77.1926,-115.119"/>
<polygon fill="#191970" stroke="#191970" points="76.6531,-118.5795 87.1365,-117.0469 77.9855,-111.7074 76.6531,-118.5795"/>
</g>
<!-- Node6 -->
<g id="node7" class="node">
<title>Node6</title>
<g id="a_node7"><a xlink:href="utils_8c.html#ae42a9e1d467853befaa7922cfafed3bb" target="_top" xlink:title="Returns a uniform random float [min,max]. ">
<polygon fill="none" stroke="#000000" points="86.5,-76.5 86.5,-95.5 159.5,-95.5 159.5,-76.5 86.5,-76.5"/>
<text text-anchor="middle" x="123" y="-83.5" font-family="Helvetica,sans-Serif" font-size="10.00" fill="#000000">rand_uniform</text>
</a>
</g>
</g>
<!-- Node0&#45;&gt;Node6 -->
<g id="edge6" class="edge">
<title>Node0&#45;&gt;Node6</title>
<path fill="none" stroke="#191970" d="M50.2374,-100.107C58.2312,-98.5572 67.3383,-96.7916 76.3398,-95.0464"/>
<polygon fill="#191970" stroke="#191970" points="77.242,-98.4367 86.393,-93.0973 75.9096,-91.5647 77.242,-98.4367"/>
</g>
<!-- Node11 -->
<g id="node12" class="node">
<title>Node11</title>
<g id="a_node12"><a xlink:href="cl__set_8c.html#a274578f0b79dea927e8148a7c41bf75f" target="_top" xlink:title="Adds a classifier to the set. ">
<polygon fill="none" stroke="#000000" points="97.5,-38.5 97.5,-57.5 148.5,-57.5 148.5,-38.5 97.5,-38.5"/>
<text text-anchor="middle" x="123" y="-45.5" font-family="Helvetica,sans-Serif" font-size="10.00" fill="#000000">set_add</text>
</a>
</g>
</g>
<!-- Node0&#45;&gt;Node11 -->
<g id="edge11" class="edge">
<title>Node0&#45;&gt;Node11</title>
<path fill="none" stroke="#191970" d="M39.8326,-95.2797C52.0581,-87.3851 69.9361,-76.1074 86,-67 88.7384,-65.4474 91.6172,-63.8727 94.509,-62.3283"/>
<polygon fill="#191970" stroke="#191970" points="96.3909,-65.2941 103.6352,-57.563 93.1508,-59.0891 96.3909,-65.2941"/>
</g>
<!-- Node12 -->
<g id="node13" class="node">
<title>Node12</title>
<g id="a_node13"><a xlink:href="cl__set_8c.html#ac2ecc83b8ceaada1cc75c14e76021d83" target="_top" xlink:title="Calculates the total fitness of classifiers in the set. ">
<polygon fill="none" stroke="#000000" points="89,-.5 89,-19.5 157,-19.5 157,-.5 89,-.5"/>
<text text-anchor="middle" x="123" y="-7.5" font-family="Helvetica,sans-Serif" font-size="10.00" fill="#000000">set_total_fit</text>
</a>
</g>
</g>
<!-- Node0&#45;&gt;Node12 -->
<g id="edge12" class="edge">
<title>Node0&#45;&gt;Node12</title>
<path fill="none" stroke="#191970" d="M31.0377,-95.017C40.9201,-79.3327 61.8805,-48.6817 86,-29 87.7728,-27.5534 89.6737,-26.1737 91.6437,-24.8667"/>
<polygon fill="#191970" stroke="#191970" points="93.7059,-27.7139 100.5408,-19.6185 90.1494,-21.6846 93.7059,-27.7139"/>
</g>
<!-- Node2 -->
<g id="node3" class="node">
<title>Node2</title>
<g id="a_node3"><a xlink:href="condition_8h.html#a1433f279ed8c1fff6eb5c4517d216315" target="_top" xlink:title="cond_size">
<polygon fill="none" stroke="#000000" points="196,-190.5 196,-209.5 257,-209.5 257,-190.5 196,-190.5"/>
<text text-anchor="middle" x="226.5" y="-197.5" font-family="Helvetica,sans-Serif" font-size="10.00" fill="#000000">cond_size</text>
</a>
</g>
</g>
<!-- Node1&#45;&gt;Node2 -->
<g id="edge2" class="edge">
<title>Node1&#45;&gt;Node2</title>
<path fill="none" stroke="#191970" d="M160.0735,-200C168.4035,-200 177.2865,-200 185.7571,-200"/>
<polygon fill="#191970" stroke="#191970" points="185.8197,-203.5001 195.8197,-200 185.8197,-196.5001 185.8197,-203.5001"/>
</g>
<!-- Node5 -->
<g id="node6" class="node">
<title>Node5</title>
<g id="a_node6"><a xlink:href="prediction_8h.html#a5a7d522104f8457884c00e432dbe0a35" target="_top" xlink:title="pred_size">
<polygon fill="none" stroke="#000000" points="197,-114.5 197,-133.5 256,-133.5 256,-114.5 197,-114.5"/>
<text text-anchor="middle" x="226.5" y="-121.5" font-family="Helvetica,sans-Serif" font-size="10.00" fill="#000000">pred_size</text>
</a>
</g>
</g>
<!-- Node4&#45;&gt;Node5 -->
<g id="edge5" class="edge">
<title>Node4&#45;&gt;Node5</title>
<path fill="none" stroke="#191970" d="M158.6188,-124C167.7107,-124 177.5406,-124 186.8219,-124"/>
<polygon fill="#191970" stroke="#191970" points="186.9991,-127.5001 196.999,-124 186.999,-120.5001 186.9991,-127.5001"/>
</g>
<!-- Node7 -->
<g id="node8" class="node">
<title>Node7</title>
<g id="a_node8"><a xlink:href="utils_8c.html#a101d27cdda714b7f17a06224c65cac56" target="_top" xlink:title="Returns a uniform random float [0,1]. ">
<polygon fill="none" stroke="#000000" points="206,-76.5 206,-95.5 247,-95.5 247,-76.5 206,-76.5"/>
<text text-anchor="middle" x="226.5" y="-83.5" font-family="Helvetica,sans-Serif" font-size="10.00" fill="#000000">drand</text>
</a>
</g>
</g>
<!-- Node6&#45;&gt;Node7 -->
<g id="edge7" class="edge">
<title>Node6&#45;&gt;Node7</title>
<path fill="none" stroke="#191970" d="M159.7817,-86C171.494,-86 184.3256,-86 195.5796,-86"/>
<polygon fill="#191970" stroke="#191970" points="195.7982,-89.5001 205.7982,-86 195.7981,-82.5001 195.7982,-89.5001"/>
</g>
<!-- Node8 -->
<g id="node9" class="node">
<title>Node8</title>
<g id="a_node9"><a xlink:href="mt19937-64_8c.html#aa0b74daf51eca91df224d00f1730084a" target="_top" xlink:title="genrand64_real1">
<polygon fill="none" stroke="#000000" points="293,-76.5 293,-95.5 381,-95.5 381,-76.5 293,-76.5"/>
<text text-anchor="middle" x="337" y="-83.5" font-family="Helvetica,sans-Serif" font-size="10.00" fill="#000000">genrand64_real1</text>
</a>
</g>
</g>
<!-- Node7&#45;&gt;Node8 -->
<g id="edge8" class="edge">
<title>Node7&#45;&gt;Node8</title>
<path fill="none" stroke="#191970" d="M247.0252,-86C257.1704,-86 269.9424,-86 282.6509,-86"/>
<polygon fill="#191970" stroke="#191970" points="282.7779,-89.5001 292.7778,-86 282.7778,-82.5001 282.7779,-89.5001"/>
</g>
<!-- Node9 -->
<g id="node10" class="node">
<title>Node9</title>
<g id="a_node10"><a xlink:href="mt19937-64_8c.html#a265bf48d20d6e0347371fcf4fe340e6d" target="_top" xlink:title="genrand64_int64">
<polygon fill="none" stroke="#000000" points="417,-76.5 417,-95.5 505,-95.5 505,-76.5 417,-76.5"/>
<text text-anchor="middle" x="461" y="-83.5" font-family="Helvetica,sans-Serif" font-size="10.00" fill="#000000">genrand64_int64</text>
</a>
</g>
</g>
<!-- Node8&#45;&gt;Node9 -->
<g id="edge9" class="edge">
<title>Node8&#45;&gt;Node9</title>
<path fill="none" stroke="#191970" d="M381.0669,-86C389.2822,-86 397.957,-86 406.4432,-86"/>
<polygon fill="#191970" stroke="#191970" points="406.6572,-89.5001 416.6572,-86 406.6572,-82.5001 406.6572,-89.5001"/>
</g>
<!-- Node10 -->
<g id="node11" class="node">
<title>Node10</title>
<g id="a_node11"><a xlink:href="mt19937-64_8c.html#adf4127d44c2dc34fcb318d406131ef7c" target="_top" xlink:title="init_genrand64">
<polygon fill="none" stroke="#000000" points="541,-76.5 541,-95.5 621,-95.5 621,-76.5 541,-76.5"/>
<text text-anchor="middle" x="581" y="-83.5" font-family="Helvetica,sans-Serif" font-size="10.00" fill="#000000">init_genrand64</text>
</a>
</g>
</g>
<!-- Node9&#45;&gt;Node10 -->
<g id="edge10" class="edge">
<title>Node9&#45;&gt;Node10</title>
<path fill="none" stroke="#191970" d="M505.0022,-86C513.3719,-86 522.1896,-86 530.7365,-86"/>
<polygon fill="#191970" stroke="#191970" points="530.9792,-89.5001 540.9792,-86 530.9792,-82.5001 530.9792,-89.5001"/>
</g>
</g>
</svg>
