<?xml version="1.0" encoding="UTF-8" standalone="no"?>
<!DOCTYPE svg PUBLIC "-//W3C//DTD SVG 1.1//EN"
 "http://www.w3.org/Graphics/SVG/1.1/DTD/svg11.dtd">
<!-- Generated by graphviz version 2.40.1 (20161225.0304)
 -->
<!-- Title: set_validate Pages: 1 -->
<svg width="1002pt" height="365pt"
 viewBox="0.00 0.00 1002.00 365.00" xmlns="http://www.w3.org/2000/svg" xmlns:xlink="http://www.w3.org/1999/xlink">
<g id="graph0" class="graph" transform="scale(1 1) rotate(0) translate(4 361)">
<title>set_validate</title>
<!-- Node542 -->
<g id="node1" class="node">
<title>Node542</title>
<polygon fill="#bfbfbf" stroke="#000000" points="0,-261.5 0,-280.5 69,-280.5 69,-261.5 0,-261.5"/>
<text text-anchor="middle" x="34.5" y="-268.5" font-family="Helvetica,sans-Serif" font-size="10.00" fill="#000000">set_validate</text>
</g>
<!-- Node543 -->
<g id="node2" class="node">
<title>Node543</title>
<g id="a_node2"><a xlink:href="cl__set_8c.html#aa4b74b698e7491734e4788fcfae8e27a" target="_top" xlink:title="Ensures all possible actions are covered by the match set. ">
<polygon fill="none" stroke="#000000" points="121,-204.5 121,-223.5 180,-223.5 180,-204.5 121,-204.5"/>
<text text-anchor="middle" x="150.5" y="-211.5" font-family="Helvetica,sans-Serif" font-size="10.00" fill="#000000">set_cover</text>
</a>
</g>
</g>
<!-- Node542&#45;&gt;Node543 -->
<g id="edge1" class="edge">
<title>Node542&#45;&gt;Node543</title>
<path fill="none" stroke="#191970" d="M63.0669,-256.9628C84.2014,-246.5778 112.4299,-232.7069 131.0209,-223.5716"/>
<polygon fill="#191970" stroke="#191970" points="61.3472,-253.908 53.9158,-261.4595 64.4344,-260.1906 61.3472,-253.908"/>
</g>
<!-- Node545 -->
<g id="node4" class="node">
<title>Node545</title>
<g id="a_node4"><a xlink:href="xcs__multi__step_8c.html#a1e1c2a3094be715b468dda79cd59ebf3" target="_top" xlink:title="Executes a multi&#45;step trial using a built&#45;in environment. ">
<polygon fill="none" stroke="#000000" points="348,-299.5 348,-318.5 428,-318.5 428,-299.5 348,-299.5"/>
<text text-anchor="middle" x="388" y="-306.5" font-family="Helvetica,sans-Serif" font-size="10.00" fill="#000000">xcs_multi_trial</text>
</a>
</g>
</g>
<!-- Node542&#45;&gt;Node545 -->
<g id="edge40" class="edge">
<title>Node542&#45;&gt;Node545</title>
<path fill="none" stroke="#191970" d="M74.6822,-283.2869C84.5168,-285.8885 95.0702,-288.3451 105,-290 190.7306,-304.288 292.7696,-307.9057 347.8775,-308.7748"/>
<polygon fill="#191970" stroke="#191970" points="75.3205,-279.8325 64.7501,-280.5508 73.4614,-286.5811 75.3205,-279.8325"/>
</g>
<!-- Node567 -->
<g id="node26" class="node">
<title>Node567</title>
<g id="a_node26"><a xlink:href="cl__set_8c.html#ac1b10f17cdd9c68bf95b3ca7bf708e14" target="_top" xlink:title="Performs set subsumption. ">
<polygon fill="none" stroke="#000000" points="105,-261.5 105,-280.5 196,-280.5 196,-261.5 105,-261.5"/>
<text text-anchor="middle" x="150.5" y="-268.5" font-family="Helvetica,sans-Serif" font-size="10.00" fill="#000000">set_subsumption</text>
</a>
</g>
</g>
<!-- Node542&#45;&gt;Node567 -->
<g id="edge32" class="edge">
<title>Node542&#45;&gt;Node567</title>
<path fill="none" stroke="#191970" d="M79.3223,-271C87.7364,-271 96.5411,-271 104.9763,-271"/>
<polygon fill="#191970" stroke="#191970" points="79.3039,-267.5001 69.3038,-271 79.3038,-274.5001 79.3039,-267.5001"/>
</g>
<!-- Node544 -->
<g id="node3" class="node">
<title>Node544</title>
<g id="a_node3"><a xlink:href="cl__set_8h.html#af3bea0b4d03654b9d6cb08fbf272c847" target="_top" xlink:title="Constructs the match set. ">
<polygon fill="none" stroke="#000000" points="233.5,-185.5 233.5,-204.5 295.5,-204.5 295.5,-185.5 233.5,-185.5"/>
<text text-anchor="middle" x="264.5" y="-192.5" font-family="Helvetica,sans-Serif" font-size="10.00" fill="#000000">set_match</text>
</a>
</g>
</g>
<!-- Node543&#45;&gt;Node544 -->
<g id="edge2" class="edge">
<title>Node543&#45;&gt;Node544</title>
<path fill="none" stroke="#191970" d="M190.1349,-207.3942C204.3037,-205.0327 220.0552,-202.4075 233.4008,-200.1832"/>
<polygon fill="#191970" stroke="#191970" points="189.4431,-203.9611 180.1546,-209.0576 190.5939,-210.8659 189.4431,-203.9611"/>
</g>
<!-- Node544&#45;&gt;Node545 -->
<g id="edge3" class="edge">
<title>Node544&#45;&gt;Node545</title>
<path fill="none" stroke="#191970" d="M273.4327,-213.6044C284.5684,-234.9341 305.5315,-269.5763 333,-290 338.1884,-293.8578 344.2202,-296.9742 350.3493,-299.4788"/>
<polygon fill="#191970" stroke="#191970" points="276.5146,-211.9425 268.8946,-204.5814 270.261,-215.0877 276.5146,-211.9425"/>
</g>
<!-- Node549 -->
<g id="node8" class="node">
<title>Node549</title>
<g id="a_node8"><a xlink:href="xcs__single__step_8h.html#a6cd0f3c0c1c71e13dba1ce493ef873a5" target="_top" xlink:title="Constructs the match set and selects an action to perform. ">
<polygon fill="none" stroke="#000000" points="336,-223.5 336,-242.5 440,-242.5 440,-223.5 336,-223.5"/>
<text text-anchor="middle" x="388" y="-230.5" font-family="Helvetica,sans-Serif" font-size="10.00" fill="#000000">xcs_single_decision</text>
</a>
</g>
</g>
<!-- Node544&#45;&gt;Node549 -->
<g id="edge7" class="edge">
<title>Node544&#45;&gt;Node549</title>
<path fill="none" stroke="#191970" d="M305.2397,-207.5353C322.0405,-212.7048 341.197,-218.5991 356.8457,-223.4141"/>
<polygon fill="#191970" stroke="#191970" points="306.2514,-204.1847 295.6643,-204.589 304.1927,-210.8752 306.2514,-204.1847"/>
</g>
<!-- Node554 -->
<g id="node13" class="node">
<title>Node554</title>
<g id="a_node13"><a xlink:href="xcsf_8c.html#a474f4e13cfc5f00958c689cd8c81135a" target="_top" xlink:title="Executes a single XCSF learning trial. ">
<polygon fill="none" stroke="#000000" points="346.5,-185.5 346.5,-204.5 429.5,-204.5 429.5,-185.5 346.5,-185.5"/>
<text text-anchor="middle" x="388" y="-192.5" font-family="Helvetica,sans-Serif" font-size="10.00" fill="#000000">xcsf_learn_trial</text>
</a>
</g>
</g>
<!-- Node544&#45;&gt;Node554 -->
<g id="edge13" class="edge">
<title>Node544&#45;&gt;Node554</title>
<path fill="none" stroke="#191970" d="M305.7366,-195C318.7252,-195 333.0798,-195 346.1132,-195"/>
<polygon fill="#191970" stroke="#191970" points="305.6643,-191.5001 295.6643,-195 305.6642,-198.5001 305.6643,-191.5001"/>
</g>
<!-- Node560 -->
<g id="node19" class="node">
<title>Node560</title>
<g id="a_node19"><a xlink:href="xcsf_8h.html#af0b9db7273578fdff649d46823cd9790" target="_top" xlink:title="Calculates the XCSF predictions for the provided input. ">
<polygon fill="none" stroke="#000000" points="353,-93.5 353,-112.5 423,-112.5 423,-93.5 353,-93.5"/>
<text text-anchor="middle" x="388" y="-100.5" font-family="Helvetica,sans-Serif" font-size="10.00" fill="#000000">xcsf_predict</text>
</a>
</g>
</g>
<!-- Node544&#45;&gt;Node560 -->
<g id="edge21" class="edge">
<title>Node544&#45;&gt;Node560</title>
<path fill="none" stroke="#191970" d="M282.945,-178.5564C296.4467,-166.7944 315.4056,-150.8384 333,-138 345.6171,-128.7935 360.6137,-119.3421 371.7581,-112.5852"/>
<polygon fill="#191970" stroke="#191970" points="280.5045,-176.0417 275.3045,-185.2726 285.126,-181.2993 280.5045,-176.0417"/>
</g>
<!-- Node562 -->
<g id="node21" class="node">
<title>Node562</title>
<g id="a_node21"><a xlink:href="xcsf_8h.html#ae1f6851f682e015601030a5c725c6618" target="_top" xlink:title="Prints the XCSF match set for the supplied input. ">
<polygon fill="none" stroke="#000000" points="333,-22.5 333,-41.5 443,-41.5 443,-22.5 333,-22.5"/>
<text text-anchor="middle" x="388" y="-29.5" font-family="Helvetica,sans-Serif" font-size="10.00" fill="#000000">xcsf_print_match_set</text>
</a>
</g>
</g>
<!-- Node544&#45;&gt;Node562 -->
<g id="edge24" class="edge">
<title>Node544&#45;&gt;Node562</title>
<path fill="none" stroke="#191970" d="M274.1127,-176.2408C286.2736,-153.3472 308.594,-113.9859 333,-84 346.2721,-67.6935 364.4385,-51.4576 376.1968,-41.5738"/>
<polygon fill="#191970" stroke="#191970" points="270.9399,-174.7553 269.4075,-185.2387 277.143,-177.999 270.9399,-174.7553"/>
</g>
<!-- Node564 -->
<g id="node23" class="node">
<title>Node564</title>
<g id="a_node23"><a xlink:href="xcsf_8c.html#aa6edd3962ddd04940e2c78a4f99de7cd" target="_top" xlink:title="Executes a single XCSF testing trial. ">
<polygon fill="none" stroke="#000000" points="349,-147.5 349,-166.5 427,-166.5 427,-147.5 349,-147.5"/>
<text text-anchor="middle" x="388" y="-154.5" font-family="Helvetica,sans-Serif" font-size="10.00" fill="#000000">xcsf_test_trial</text>
</a>
</g>
</g>
<!-- Node544&#45;&gt;Node564 -->
<g id="edge27" class="edge">
<title>Node544&#45;&gt;Node564</title>
<path fill="none" stroke="#191970" d="M305.2397,-182.4647C322.0405,-177.2952 341.197,-171.4009 356.8457,-166.5859"/>
<polygon fill="#191970" stroke="#191970" points="304.1927,-179.1248 295.6643,-185.411 306.2514,-185.8153 304.1927,-179.1248"/>
</g>
<!-- Node546 -->
<g id="node5" class="node">
<title>Node546</title>
<g id="a_node5"><a xlink:href="xcs__multi__step_8h.html#acc29d4a55dbd56c16ea5f19f15a7c677" target="_top" xlink:title="Executes a multi&#45;step reinforcement learning experiment. ">
<polygon fill="none" stroke="#000000" points="631,-337.5 631,-356.5 735,-356.5 735,-337.5 631,-337.5"/>
<text text-anchor="middle" x="683" y="-344.5" font-family="Helvetica,sans-Serif" font-size="10.00" fill="#000000">xcs_multi_step_exp</text>
</a>
</g>
</g>
<!-- Node545&#45;&gt;Node546 -->
<g id="edge4" class="edge">
<title>Node545&#45;&gt;Node546</title>
<path fill="none" stroke="#191970" d="M438.0377,-320.5061C451.3005,-323.2651 465.6463,-325.9906 479,-328 530.354,-335.7274 589.4846,-340.8206 630.8185,-343.7708"/>
<polygon fill="#191970" stroke="#191970" points="438.6504,-317.0582 428.141,-318.4011 437.194,-323.905 438.6504,-317.0582"/>
</g>
<!-- Node547 -->
<g id="node6" class="node">
<title>Node547</title>
<g id="a_node6"><a xlink:href="main_8c.html#ab572a67aa431827116ebd6931d667d21" target="_top" xlink:title="classification">
<polygon fill="none" stroke="#000000" points="810,-299.5 810,-318.5 884,-318.5 884,-299.5 810,-299.5"/>
<text text-anchor="middle" x="847" y="-306.5" font-family="Helvetica,sans-Serif" font-size="10.00" fill="#000000">classification</text>
</a>
</g>
</g>
<!-- Node546&#45;&gt;Node547 -->
<g id="edge5" class="edge">
<title>Node546&#45;&gt;Node547</title>
<path fill="none" stroke="#191970" d="M734.2325,-335.1291C758.7166,-329.4559 787.4812,-322.7909 809.8307,-317.6124"/>
<polygon fill="#191970" stroke="#191970" points="733.336,-331.744 724.3841,-337.411 734.9161,-338.5633 733.336,-331.744"/>
</g>
<!-- Node548 -->
<g id="node7" class="node">
<title>Node548</title>
<g id="a_node7"><a xlink:href="main_8c.html#a3c04138a5bfe5d72780bb7e82a18e627" target="_top" xlink:title="main">
<polygon fill="none" stroke="#000000" points="956,-223.5 956,-242.5 994,-242.5 994,-223.5 956,-223.5"/>
<text text-anchor="middle" x="975" y="-230.5" font-family="Helvetica,sans-Serif" font-size="10.00" fill="#000000">main</text>
</a>
</g>
</g>
<!-- Node547&#45;&gt;Node548 -->
<g id="edge6" class="edge">
<title>Node547&#45;&gt;Node548</title>
<path fill="none" stroke="#191970" d="M872.0195,-294.1447C897.7511,-278.8665 937.0618,-255.5258 958.9203,-242.5473"/>
<polygon fill="#191970" stroke="#191970" points="870.0229,-291.2596 863.2113,-299.3745 873.5968,-297.2786 870.0229,-291.2596"/>
</g>
<!-- Node550 -->
<g id="node9" class="node">
<title>Node550</title>
<g id="a_node9"><a xlink:href="structXCS.html#a94d556a5e545ec415d7165d5e91b21d4" target="_top" xlink:title="XCS::single_decision">
<polygon fill="none" stroke="#000000" points="628,-223.5 628,-242.5 738,-242.5 738,-223.5 628,-223.5"/>
<text text-anchor="middle" x="683" y="-230.5" font-family="Helvetica,sans-Serif" font-size="10.00" fill="#000000">XCS::single_decision</text>
</a>
</g>
</g>
<!-- Node549&#45;&gt;Node550 -->
<g id="edge8" class="edge">
<title>Node549&#45;&gt;Node550</title>
<path fill="none" stroke="#191970" d="M450.2754,-233C502.8836,-233 577.5099,-233 627.9574,-233"/>
<polygon fill="#191970" stroke="#191970" points="450.061,-229.5001 440.061,-233 450.061,-236.5001 450.061,-229.5001"/>
</g>
<!-- Node552 -->
<g id="node11" class="node">
<title>Node552</title>
<g id="a_node11"><a xlink:href="xcs__single__step_8c.html#a3d1fd2472d35310800aed897219a65af" target="_top" xlink:title="Executes a single&#45;step trial using a built&#45;in environment. ">
<polygon fill="none" stroke="#000000" points="493.5,-299.5 493.5,-318.5 577.5,-318.5 577.5,-299.5 493.5,-299.5"/>
<text text-anchor="middle" x="535.5" y="-306.5" font-family="Helvetica,sans-Serif" font-size="10.00" fill="#000000">xcs_single_trial</text>
</a>
</g>
</g>
<!-- Node549&#45;&gt;Node552 -->
<g id="edge10" class="edge">
<title>Node549&#45;&gt;Node552</title>
<path fill="none" stroke="#191970" d="M429.218,-246.1242C433.9271,-247.9507 438.6092,-249.9198 443,-252 472.4911,-265.9718 504.366,-287.0906 521.9349,-299.3162"/>
<polygon fill="#191970" stroke="#191970" points="430.1923,-242.7534 419.5988,-242.5858 427.7756,-249.323 430.1923,-242.7534"/>
</g>
<!-- Node551 -->
<g id="node10" class="node">
<title>Node551</title>
<g id="a_node10"><a xlink:href="python__wrapper_8cpp.html#afbdcc1358036a0b83a6b239da2b098a2" target="_top" xlink:title="BOOST_PYTHON_MODULE">
<polygon fill="none" stroke="#000000" points="774,-185.5 774,-204.5 920,-204.5 920,-185.5 774,-185.5"/>
<text text-anchor="middle" x="847" y="-192.5" font-family="Helvetica,sans-Serif" font-size="10.00" fill="#000000">BOOST_PYTHON_MODULE</text>
</a>
</g>
</g>
<!-- Node550&#45;&gt;Node551 -->
<g id="edge9" class="edge">
<title>Node550&#45;&gt;Node551</title>
<path fill="none" stroke="#191970" d="M734.341,-221.1039C757.3929,-215.7626 784.2211,-209.5463 805.9135,-204.5201"/>
<polygon fill="#191970" stroke="#191970" points="733.336,-217.744 724.3841,-223.411 734.9161,-224.5633 733.336,-217.744"/>
</g>
<!-- Node553 -->
<g id="node12" class="node">
<title>Node553</title>
<g id="a_node12"><a xlink:href="xcs__single__step_8h.html#a39a031bf59eaa9b33e30e614610dcda8" target="_top" xlink:title="Executes a single&#45;step experiment. ">
<polygon fill="none" stroke="#000000" points="629,-299.5 629,-318.5 737,-318.5 737,-299.5 629,-299.5"/>
<text text-anchor="middle" x="683" y="-306.5" font-family="Helvetica,sans-Serif" font-size="10.00" fill="#000000">xcs_single_step_exp</text>
</a>
</g>
</g>
<!-- Node552&#45;&gt;Node553 -->
<g id="edge11" class="edge">
<title>Node552&#45;&gt;Node553</title>
<path fill="none" stroke="#191970" d="M588.1265,-309C601.3533,-309 615.5701,-309 628.8691,-309"/>
<polygon fill="#191970" stroke="#191970" points="587.7676,-305.5001 577.7676,-309 587.7675,-312.5001 587.7676,-305.5001"/>
</g>
<!-- Node553&#45;&gt;Node547 -->
<g id="edge12" class="edge">
<title>Node553&#45;&gt;Node547</title>
<path fill="none" stroke="#191970" d="M747.4163,-309C768.6445,-309 791.5225,-309 809.9907,-309"/>
<polygon fill="#191970" stroke="#191970" points="747.1543,-305.5001 737.1542,-309 747.1542,-312.5001 747.1543,-305.5001"/>
</g>
<!-- Node555 -->
<g id="node14" class="node">
<title>Node555</title>
<g id="a_node14"><a xlink:href="xcsf_8h.html#a874829f28fee20f9ad15b540f4b4d6ff" target="_top" xlink:title="Executes MAX_TRIALS number of XCSF learning iterations using the training data. ">
<polygon fill="none" stroke="#000000" points="508.5,-185.5 508.5,-204.5 562.5,-204.5 562.5,-185.5 508.5,-185.5"/>
<text text-anchor="middle" x="535.5" y="-192.5" font-family="Helvetica,sans-Serif" font-size="10.00" fill="#000000">xcsf_fit1</text>
</a>
</g>
</g>
<!-- Node554&#45;&gt;Node555 -->
<g id="edge14" class="edge">
<title>Node554&#45;&gt;Node555</title>
<path fill="none" stroke="#191970" d="M439.8959,-195C463.0137,-195 489.2809,-195 508.4248,-195"/>
<polygon fill="#191970" stroke="#191970" points="439.8731,-191.5001 429.873,-195 439.873,-198.5001 439.8731,-191.5001"/>
</g>
<!-- Node557 -->
<g id="node16" class="node">
<title>Node557</title>
<g id="a_node16"><a xlink:href="xcsf_8h.html#a0b4de57cb9dadc9deca7901aa36e5025" target="_top" xlink:title="Executes MAX_TRIALS number of XCSF learning iterations using the training. data and test iterations u...">
<polygon fill="none" stroke="#000000" points="508.5,-147.5 508.5,-166.5 562.5,-166.5 562.5,-147.5 508.5,-147.5"/>
<text text-anchor="middle" x="535.5" y="-154.5" font-family="Helvetica,sans-Serif" font-size="10.00" fill="#000000">xcsf_fit2</text>
</a>
</g>
</g>
<!-- Node554&#45;&gt;Node557 -->
<g id="edge17" class="edge">
<title>Node554&#45;&gt;Node557</title>
<path fill="none" stroke="#191970" d="M435.223,-182.8341C459.2658,-176.64 487.6482,-169.3279 508.0697,-164.0668"/>
<polygon fill="#191970" stroke="#191970" points="434.0311,-179.5268 425.2205,-185.411 435.7775,-186.3054 434.0311,-179.5268"/>
</g>
<!-- Node556 -->
<g id="node15" class="node">
<title>Node556</title>
<g id="a_node15"><a xlink:href="structXCS.html#ad2ccafe59d2b4ae6d0e1cbc15edee53c" target="_top" xlink:title="XCS::fit">
<polygon fill="none" stroke="#000000" points="657,-185.5 657,-204.5 709,-204.5 709,-185.5 657,-185.5"/>
<text text-anchor="middle" x="683" y="-192.5" font-family="Helvetica,sans-Serif" font-size="10.00" fill="#000000">XCS::fit</text>
</a>
</g>
</g>
<!-- Node555&#45;&gt;Node556 -->
<g id="edge15" class="edge">
<title>Node555&#45;&gt;Node556</title>
<path fill="none" stroke="#191970" d="M572.8464,-195C598.9913,-195 633.2833,-195 656.614,-195"/>
<polygon fill="#191970" stroke="#191970" points="572.5538,-191.5001 562.5538,-195 572.5537,-198.5001 572.5538,-191.5001"/>
</g>
<!-- Node556&#45;&gt;Node551 -->
<g id="edge16" class="edge">
<title>Node556&#45;&gt;Node551</title>
<path fill="none" stroke="#191970" d="M719.4003,-195C735.5152,-195 755.0749,-195 773.9889,-195"/>
<polygon fill="#191970" stroke="#191970" points="719.3495,-191.5001 709.3494,-195 719.3494,-198.5001 719.3495,-191.5001"/>
</g>
<!-- Node558 -->
<g id="node17" class="node">
<title>Node558</title>
<g id="a_node17"><a xlink:href="main_8c.html#a968c78da8ed8ad08662a86280deec99a" target="_top" xlink:title="regression">
<polygon fill="none" stroke="#000000" points="816,-147.5 816,-166.5 878,-166.5 878,-147.5 816,-147.5"/>
<text text-anchor="middle" x="847" y="-154.5" font-family="Helvetica,sans-Serif" font-size="10.00" fill="#000000">regression</text>
</a>
</g>
</g>
<!-- Node557&#45;&gt;Node558 -->
<g id="edge18" class="edge">
<title>Node557&#45;&gt;Node558</title>
<path fill="none" stroke="#191970" d="M572.7088,-157C634.6438,-157 757.7787,-157 815.6148,-157"/>
<polygon fill="#191970" stroke="#191970" points="572.5987,-153.5001 562.5987,-157 572.5986,-160.5001 572.5987,-153.5001"/>
</g>
<!-- Node559 -->
<g id="node18" class="node">
<title>Node559</title>
<g id="a_node18"><a xlink:href="structXCS.html#a7d53320740db8e846251bacd0238a9fb" target="_top" xlink:title="XCS::fit">
<polygon fill="none" stroke="#000000" points="657,-109.5 657,-128.5 709,-128.5 709,-109.5 657,-109.5"/>
<text text-anchor="middle" x="683" y="-116.5" font-family="Helvetica,sans-Serif" font-size="10.00" fill="#000000">XCS::fit</text>
</a>
</g>
</g>
<!-- Node557&#45;&gt;Node559 -->
<g id="edge20" class="edge">
<title>Node557&#45;&gt;Node559</title>
<path fill="none" stroke="#191970" d="M572.4983,-147.4682C598.6863,-140.7215 633.1796,-131.8351 656.614,-125.7977"/>
<polygon fill="#191970" stroke="#191970" points="571.3644,-144.146 562.5538,-150.0302 573.1108,-150.9247 571.3644,-144.146"/>
</g>
<!-- Node558&#45;&gt;Node548 -->
<g id="edge19" class="edge">
<title>Node558&#45;&gt;Node548</title>
<path fill="none" stroke="#191970" d="M888.0517,-163.514C898.9143,-166.3311 910.3049,-170.3333 920,-176 940.8952,-188.2131 959.0556,-210.5746 968.3653,-223.3578"/>
<polygon fill="#191970" stroke="#191970" points="888.8208,-160.0996 878.2882,-161.2464 887.2371,-166.9181 888.8208,-160.0996"/>
</g>
<!-- Node561 -->
<g id="node20" class="node">
<title>Node561</title>
<g id="a_node20"><a xlink:href="structXCS.html#a911ed75c86abed7807d33eb1385240ed" target="_top" xlink:title="XCS::predict">
<polygon fill="none" stroke="#000000" points="499,-57.5 499,-76.5 572,-76.5 572,-57.5 499,-57.5"/>
<text text-anchor="middle" x="535.5" y="-64.5" font-family="Helvetica,sans-Serif" font-size="10.00" fill="#000000">XCS::predict</text>
</a>
</g>
</g>
<!-- Node560&#45;&gt;Node561 -->
<g id="edge22" class="edge">
<title>Node560&#45;&gt;Node561</title>
<path fill="none" stroke="#191970" d="M433.0466,-92.0056C454.1588,-86.8528 478.9895,-80.7924 498.9179,-75.9285"/>
<polygon fill="#191970" stroke="#191970" points="432.2149,-88.6058 423.3299,-94.3771 433.8747,-95.4061 432.2149,-88.6058"/>
</g>
<!-- Node561&#45;&gt;Node551 -->
<g id="edge23" class="edge">
<title>Node561&#45;&gt;Node551</title>
<path fill="none" stroke="#191970" d="M570.4159,-54.3197C614.0863,-40.8874 689.054,-26.1281 738,-62 780.8558,-93.4085 735.4789,-139.4044 774,-176 778.0826,-179.8785 782.8533,-182.9902 787.9657,-185.4831"/>
<polygon fill="#191970" stroke="#191970" points="569.2558,-51.0162 560.8076,-57.4099 571.399,-57.6801 569.2558,-51.0162"/>
</g>
<!-- Node563 -->
<g id="node22" class="node">
<title>Node563</title>
<g id="a_node22"><a xlink:href="structXCS.html#aa5608b379fae01b724267a99068d55bb" target="_top" xlink:title="XCS::print_match_set">
<polygon fill="none" stroke="#000000" points="479,-.5 479,-19.5 592,-19.5 592,-.5 479,-.5"/>
<text text-anchor="middle" x="535.5" y="-7.5" font-family="Helvetica,sans-Serif" font-size="10.00" fill="#000000">XCS::print_match_set</text>
</a>
</g>
</g>
<!-- Node562&#45;&gt;Node563 -->
<g id="edge25" class="edge">
<title>Node562&#45;&gt;Node563</title>
<path fill="none" stroke="#191970" d="M453.2637,-22.2658C461.7983,-20.9928 470.4866,-19.6969 478.8632,-18.4475"/>
<polygon fill="#191970" stroke="#191970" points="452.7174,-18.8084 443.3432,-23.7454 453.7502,-25.7318 452.7174,-18.8084"/>
</g>
<!-- Node563&#45;&gt;Node551 -->
<g id="edge26" class="edge">
<title>Node563&#45;&gt;Node551</title>
<path fill="none" stroke="#191970" d="M602.203,-.8089C645.92,1.3524 701.5209,-3.7852 738,-36 786.1565,-78.5272 728.6376,-130.5043 774,-176 777.7911,-179.8022 782.2403,-182.8739 787.0396,-185.3515"/>
<polygon fill="#191970" stroke="#191970" points="601.9783,2.684 592.218,-1.4374 602.4181,-4.3022 601.9783,2.684"/>
</g>
<!-- Node564&#45;&gt;Node557 -->
<g id="edge28" class="edge">
<title>Node564&#45;&gt;Node557</title>
<path fill="none" stroke="#191970" d="M437.3635,-157C461.0342,-157 488.4816,-157 508.32,-157"/>
<polygon fill="#191970" stroke="#191970" points="437.1401,-153.5001 427.14,-157 437.14,-160.5001 437.1401,-153.5001"/>
</g>
<!-- Node565 -->
<g id="node24" class="node">
<title>Node565</title>
<g id="a_node24"><a xlink:href="xcsf_8h.html#a2cf95733e5f97410d94211b72e835847" target="_top" xlink:title="Calculates the XCSF error for the input data. ">
<polygon fill="none" stroke="#000000" points="503,-100.5 503,-119.5 568,-119.5 568,-100.5 503,-100.5"/>
<text text-anchor="middle" x="535.5" y="-107.5" font-family="Helvetica,sans-Serif" font-size="10.00" fill="#000000">xcsf_score</text>
</a>
</g>
</g>
<!-- Node564&#45;&gt;Node565 -->
<g id="edge29" class="edge">
<title>Node564&#45;&gt;Node565</title>
<path fill="none" stroke="#191970" d="M427.5604,-144.3943C452.0396,-136.5942 482.9725,-126.7376 505.4428,-119.5776"/>
<polygon fill="#191970" stroke="#191970" points="426.3142,-141.1179 417.8488,-147.4888 428.4395,-147.7875 426.3142,-141.1179"/>
</g>
<!-- Node566 -->
<g id="node25" class="node">
<title>Node566</title>
<g id="a_node25"><a xlink:href="structXCS.html#aa77bc77484d6d14bf512304a23cfec88" target="_top" xlink:title="XCS::score">
<polygon fill="none" stroke="#000000" points="649,-71.5 649,-90.5 717,-90.5 717,-71.5 649,-71.5"/>
<text text-anchor="middle" x="683" y="-78.5" font-family="Helvetica,sans-Serif" font-size="10.00" fill="#000000">XCS::score</text>
</a>
</g>
</g>
<!-- Node565&#45;&gt;Node566 -->
<g id="edge30" class="edge">
<title>Node565&#45;&gt;Node566</title>
<path fill="none" stroke="#191970" d="M578.1796,-101.6088C600.6279,-97.1952 627.7761,-91.8576 648.8188,-87.7204"/>
<polygon fill="#191970" stroke="#191970" points="577.3719,-98.2005 568.235,-103.564 578.7224,-105.069 577.3719,-98.2005"/>
</g>
<!-- Node566&#45;&gt;Node551 -->
<g id="edge31" class="edge">
<title>Node566&#45;&gt;Node551</title>
<path fill="none" stroke="#191970" d="M726.5726,-92.2497C730.7027,-94.4019 734.6069,-96.9603 738,-100 765.8384,-124.9392 745.2105,-152.1651 774,-176 778.6402,-179.8416 783.9698,-182.9161 789.5913,-185.3752"/>
<polygon fill="#191970" stroke="#191970" points="727.8438,-88.9851 717.2813,-88.1574 725.0222,-95.3913 727.8438,-88.9851"/>
</g>
<!-- Node568 -->
<g id="node27" class="node">
<title>Node568</title>
<g id="a_node27"><a xlink:href="cl__set_8h.html#a0993c66e2751530b39449164017d6654" target="_top" xlink:title="Provides reinforcement to the set and performs set subsumption. ">
<polygon fill="none" stroke="#000000" points="232,-261.5 232,-280.5 297,-280.5 297,-261.5 232,-261.5"/>
<text text-anchor="middle" x="264.5" y="-268.5" font-family="Helvetica,sans-Serif" font-size="10.00" fill="#000000">set_update</text>
</a>
</g>
</g>
<!-- Node567&#45;&gt;Node568 -->
<g id="edge33" class="edge">
<title>Node567&#45;&gt;Node568</title>
<path fill="none" stroke="#191970" d="M206.3598,-271C215.0601,-271 223.7959,-271 231.7558,-271"/>
<polygon fill="#191970" stroke="#191970" points="206.2113,-267.5001 196.2113,-271 206.2113,-274.5001 206.2113,-267.5001"/>
</g>
<!-- Node568&#45;&gt;Node545 -->
<g id="edge34" class="edge">
<title>Node568&#45;&gt;Node545</title>
<path fill="none" stroke="#191970" d="M305.2397,-283.5353C322.0405,-288.7048 341.197,-294.5991 356.8457,-299.4141"/>
<polygon fill="#191970" stroke="#191970" points="306.2514,-280.1847 295.6643,-280.589 304.1927,-286.8752 306.2514,-280.1847"/>
</g>
<!-- Node568&#45;&gt;Node554 -->
<g id="edge39" class="edge">
<title>Node568&#45;&gt;Node554</title>
<path fill="none" stroke="#191970" d="M281.192,-254.1224C294.3198,-241.6296 313.5802,-224.9474 333,-214 339.5122,-210.3289 346.8552,-207.1926 354.0046,-204.5886"/>
<polygon fill="#191970" stroke="#191970" points="278.5782,-251.7826 273.8639,-261.2709 283.4662,-256.7934 278.5782,-251.7826"/>
</g>
<!-- Node569 -->
<g id="node28" class="node">
<title>Node569</title>
<g id="a_node28"><a xlink:href="xcs__single__step_8h.html#aff4aec035e4573993a7906569f2028f5" target="_top" xlink:title="Creates the action set, updates the classifiers and runs the EA. ">
<polygon fill="none" stroke="#000000" points="339,-261.5 339,-280.5 437,-280.5 437,-261.5 339,-261.5"/>
<text text-anchor="middle" x="388" y="-268.5" font-family="Helvetica,sans-Serif" font-size="10.00" fill="#000000">xcs_single_update</text>
</a>
</g>
</g>
<!-- Node568&#45;&gt;Node569 -->
<g id="edge35" class="edge">
<title>Node568&#45;&gt;Node569</title>
<path fill="none" stroke="#191970" d="M307.4809,-271C317.5848,-271 328.4295,-271 338.7834,-271"/>
<polygon fill="#191970" stroke="#191970" points="307.2715,-267.5001 297.2715,-271 307.2715,-274.5001 307.2715,-267.5001"/>
</g>
<!-- Node569&#45;&gt;Node552 -->
<g id="edge38" class="edge">
<title>Node569&#45;&gt;Node552</title>
<path fill="none" stroke="#191970" d="M435.0141,-283.1121C455.5566,-288.4044 479.2998,-294.5213 498.5472,-299.4799"/>
<polygon fill="#191970" stroke="#191970" points="435.7775,-279.6946 425.2205,-280.589 434.0311,-286.4732 435.7775,-279.6946"/>
</g>
<!-- Node570 -->
<g id="node29" class="node">
<title>Node570</title>
<g id="a_node29"><a xlink:href="structXCS.html#aedc01ad6f00a54b260a7605929a1d4c9" target="_top" xlink:title="XCS::single_update">
<polygon fill="none" stroke="#000000" points="631,-261.5 631,-280.5 735,-280.5 735,-261.5 631,-261.5"/>
<text text-anchor="middle" x="683" y="-268.5" font-family="Helvetica,sans-Serif" font-size="10.00" fill="#000000">XCS::single_update</text>
</a>
</g>
</g>
<!-- Node569&#45;&gt;Node570 -->
<g id="edge36" class="edge">
<title>Node569&#45;&gt;Node570</title>
<path fill="none" stroke="#191970" d="M447.1126,-271C500.8561,-271 579.4023,-271 630.8549,-271"/>
<polygon fill="#191970" stroke="#191970" points="447.0444,-267.5001 437.0444,-271 447.0444,-274.5001 447.0444,-267.5001"/>
</g>
<!-- Node570&#45;&gt;Node551 -->
<g id="edge37" class="edge">
<title>Node570&#45;&gt;Node551</title>
<path fill="none" stroke="#191970" d="M722.9849,-257.9747C728.0832,-256.0841 733.1952,-254.0725 738,-252 771.7267,-237.4525 809.3375,-216.7225 830.3884,-204.6847"/>
<polygon fill="#191970" stroke="#191970" points="721.519,-254.7818 713.282,-261.4453 723.8766,-261.3728 721.519,-254.7818"/>
</g>
</g>
</svg>
