<?xml version="1.0" encoding="UTF-8" standalone="no"?>
<!DOCTYPE svg PUBLIC "-//W3C//DTD SVG 1.1//EN"
 "http://www.w3.org/Graphics/SVG/1.1/DTD/svg11.dtd">
<!-- Generated by graphviz version 2.40.1 (20161225.0304)
 -->
<!-- Title: XCS::XCS Pages: 1 -->
<svg width="1298pt" height="636pt"
 viewBox="0.00 0.00 1298.00 636.00" xmlns="http://www.w3.org/2000/svg" xmlns:xlink="http://www.w3.org/1999/xlink">
<g id="graph0" class="graph" transform="scale(1 1) rotate(0) translate(4 632)">
<title>XCS::XCS</title>
<!-- Node0 -->
<g id="node1" class="node">
<title>Node0</title>
<polygon fill="#bfbfbf" stroke="#000000" points="0,-114.5 0,-133.5 65,-133.5 65,-114.5 0,-114.5"/>
<text text-anchor="middle" x="32.5" y="-121.5" font-family="Helvetica,sans-Serif" font-size="10.00" fill="#000000">XCS::XCS</text>
</g>
<!-- Node1 -->
<g id="node2" class="node">
<title>Node1</title>
<g id="a_node2"><a xlink:href="pa_8c.html#aa55a39344262edf881d250e41fa2c581" target="_top" xlink:title="Initialises the prediction array. ">
<polygon fill="none" stroke="#000000" points="117,-152.5 117,-171.5 162,-171.5 162,-152.5 117,-152.5"/>
<text text-anchor="middle" x="139.5" y="-159.5" font-family="Helvetica,sans-Serif" font-size="10.00" fill="#000000">pa_init</text>
</a>
</g>
</g>
<!-- Node0&#45;&gt;Node1 -->
<g id="edge1" class="edge">
<title>Node0&#45;&gt;Node1</title>
<path fill="none" stroke="#191970" d="M59.5006,-133.589C74.0253,-138.7473 92.0361,-145.1437 107.2886,-150.5604"/>
<polygon fill="#191970" stroke="#191970" points="106.2542,-153.9072 116.8489,-153.9557 108.5969,-147.3108 106.2542,-153.9072"/>
</g>
<!-- Node2 -->
<g id="node3" class="node">
<title>Node2</title>
<g id="a_node3"><a xlink:href="classXCS.html#ad372bae45743be0fbf7d95b67e13b390" target="_top" xlink:title="Initialises python XCS structure. ">
<polygon fill="none" stroke="#000000" points="101,-114.5 101,-133.5 178,-133.5 178,-114.5 101,-114.5"/>
<text text-anchor="middle" x="139.5" y="-121.5" font-family="Helvetica,sans-Serif" font-size="10.00" fill="#000000">XCS::xcs_init</text>
</a>
</g>
</g>
<!-- Node0&#45;&gt;Node2 -->
<g id="edge2" class="edge">
<title>Node0&#45;&gt;Node2</title>
<path fill="none" stroke="#191970" d="M65.1849,-124C73.1371,-124 81.8161,-124 90.3468,-124"/>
<polygon fill="#191970" stroke="#191970" points="90.62,-127.5001 100.6199,-124 90.6199,-120.5001 90.62,-127.5001"/>
</g>
<!-- Node43 -->
<g id="node44" class="node">
<title>Node43</title>
<g id="a_node44"><a xlink:href="xcs__single__step_8c.html#a1b3026fe84124f1e9d8aaa871a507b01" target="_top" xlink:title="Initialises match, action, and kill sets. ">
<polygon fill="none" stroke="#000000" points="214,-76.5 214,-95.5 295,-95.5 295,-76.5 214,-76.5"/>
<text text-anchor="middle" x="254.5" y="-83.5" font-family="Helvetica,sans-Serif" font-size="10.00" fill="#000000">xcs_single_init</text>
</a>
</g>
</g>
<!-- Node0&#45;&gt;Node43 -->
<g id="edge45" class="edge">
<title>Node0&#45;&gt;Node43</title>
<path fill="none" stroke="#191970" d="M63.2982,-114.4164C75.0103,-111.0476 88.5339,-107.4863 101,-105 134.9215,-98.2345 173.5699,-93.467 203.5999,-90.3997"/>
<polygon fill="#191970" stroke="#191970" points="204.2344,-93.854 213.8406,-89.3851 203.5443,-86.8881 204.2344,-93.854"/>
</g>
<!-- Node3 -->
<g id="node4" class="node">
<title>Node3</title>
<g id="a_node4"><a xlink:href="config_8c.html#a37df9fe8af1e1583876040747eeee030" target="_top" xlink:title="Initialises global constants and reads the specified configuration file. ">
<polygon fill="none" stroke="#000000" points="224,-152.5 224,-171.5 285,-171.5 285,-152.5 224,-152.5"/>
<text text-anchor="middle" x="254.5" y="-159.5" font-family="Helvetica,sans-Serif" font-size="10.00" fill="#000000">config_init</text>
</a>
</g>
</g>
<!-- Node2&#45;&gt;Node3 -->
<g id="edge3" class="edge">
<title>Node2&#45;&gt;Node3</title>
<path fill="none" stroke="#191970" d="M168.5194,-133.589C182.82,-138.3144 200.265,-144.0789 215.6947,-149.1774"/>
<polygon fill="#191970" stroke="#191970" points="214.8967,-152.5998 225.4899,-152.4141 217.093,-145.9532 214.8967,-152.5998"/>
</g>
<!-- Node41 -->
<g id="node42" class="node">
<title>Node41</title>
<g id="a_node42"><a xlink:href="xcsf_8c.html#ac2cf4a27bb10f866b2e393a2804c8c33" target="_top" xlink:title="Initialises XCSF with an empty population. ">
<polygon fill="none" stroke="#000000" points="228,-114.5 228,-133.5 281,-133.5 281,-114.5 228,-114.5"/>
<text text-anchor="middle" x="254.5" y="-121.5" font-family="Helvetica,sans-Serif" font-size="10.00" fill="#000000">xcsf_init</text>
</a>
</g>
</g>
<!-- Node2&#45;&gt;Node41 -->
<g id="edge43" class="edge">
<title>Node2&#45;&gt;Node41</title>
<path fill="none" stroke="#191970" d="M178.1133,-124C190.8577,-124 204.9946,-124 217.6071,-124"/>
<polygon fill="#191970" stroke="#191970" points="217.779,-127.5001 227.779,-124 217.779,-120.5001 217.779,-127.5001"/>
</g>
<!-- Node4 -->
<g id="node5" class="node">
<title>Node4</title>
<g id="a_node5"><a xlink:href="config_8c.html#ac931b458cf465c2119a3631b0f9bc9ed" target="_top" xlink:title="Initialises default XCSF parameters. ">
<polygon fill="none" stroke="#000000" points="331,-456.5 331,-475.5 414,-475.5 414,-456.5 331,-456.5"/>
<text text-anchor="middle" x="372.5" y="-463.5" font-family="Helvetica,sans-Serif" font-size="10.00" fill="#000000">config_defaults</text>
</a>
</g>
</g>
<!-- Node3&#45;&gt;Node4 -->
<g id="edge4" class="edge">
<title>Node3&#45;&gt;Node4</title>
<path fill="none" stroke="#191970" d="M258.2924,-171.7703C275.0411,-214.9195 342.547,-388.833 365.1124,-446.9676"/>
<polygon fill="#191970" stroke="#191970" points="361.8991,-448.3618 368.7805,-456.4177 368.4248,-445.8288 361.8991,-448.3618"/>
</g>
<!-- Node13 -->
<g id="node14" class="node">
<title>Node13</title>
<g id="a_node14"><a xlink:href="config_8c.html#a9c6e238be77841517a31c44c39c84dc7" target="_top" xlink:title="Reads the specified configuration file. ">
<polygon fill="none" stroke="#000000" points="339,-266.5 339,-285.5 406,-285.5 406,-266.5 339,-266.5"/>
<text text-anchor="middle" x="372.5" y="-273.5" font-family="Helvetica,sans-Serif" font-size="10.00" fill="#000000">config_read</text>
</a>
</g>
</g>
<!-- Node3&#45;&gt;Node13 -->
<g id="edge13" class="edge">
<title>Node3&#45;&gt;Node13</title>
<path fill="none" stroke="#191970" d="M264.5606,-171.7196C284.677,-191.1541 330.073,-235.0112 355.1094,-259.1989"/>
<polygon fill="#191970" stroke="#191970" points="352.8411,-261.8741 362.4649,-266.305 357.7048,-256.8397 352.8411,-261.8741"/>
</g>
<!-- Node27 -->
<g id="node28" class="node">
<title>Node27</title>
<g id="a_node28"><a xlink:href="loss_8c.html#a1accbbfc21d6eefe2d2cb676497953f6" target="_top" xlink:title="Sets the XCSF error function to the implemented function. ">
<polygon fill="none" stroke="#000000" points="334,-152.5 334,-171.5 411,-171.5 411,-152.5 334,-152.5"/>
<text text-anchor="middle" x="372.5" y="-159.5" font-family="Helvetica,sans-Serif" font-size="10.00" fill="#000000">loss_set_func</text>
</a>
</g>
</g>
<!-- Node3&#45;&gt;Node27 -->
<g id="edge28" class="edge">
<title>Node3&#45;&gt;Node27</title>
<path fill="none" stroke="#191970" d="M285.1951,-162C296.9415,-162 310.6495,-162 323.6753,-162"/>
<polygon fill="#191970" stroke="#191970" points="323.9249,-165.5001 333.9249,-162 323.9249,-158.5001 323.9249,-165.5001"/>
</g>
<!-- Node34 -->
<g id="node35" class="node">
<title>Node34</title>
<g id="a_node35"><a xlink:href="gp_8c.html#a262c601e1744b1d1c654f609a5138b94" target="_top" xlink:title="Initialises the constants shared among all GP trees. ">
<polygon fill="none" stroke="#000000" points="334,-114.5 334,-133.5 411,-133.5 411,-114.5 334,-114.5"/>
<text text-anchor="middle" x="372.5" y="-121.5" font-family="Helvetica,sans-Serif" font-size="10.00" fill="#000000">tree_init_cons</text>
</a>
</g>
</g>
<!-- Node3&#45;&gt;Node34 -->
<g id="edge36" class="edge">
<title>Node3&#45;&gt;Node34</title>
<path fill="none" stroke="#191970" d="M284.2764,-152.411C299.0898,-147.6406 317.1914,-141.8112 333.1342,-136.6771"/>
<polygon fill="#191970" stroke="#191970" points="334.2874,-139.9828 342.7331,-133.5859 332.1416,-133.3198 334.2874,-139.9828"/>
</g>
<!-- Node5 -->
<g id="node6" class="node">
<title>Node5</title>
<g id="a_node6"><a xlink:href="config_8c.html#aa65e39367040ffcdaa6e50783e521ade" target="_top" xlink:title="Initialises default classifier action parameters. ">
<polygon fill="none" stroke="#000000" points="458.5,-608.5 458.5,-627.5 553.5,-627.5 553.5,-608.5 458.5,-608.5"/>
<text text-anchor="middle" x="506" y="-615.5" font-family="Helvetica,sans-Serif" font-size="10.00" fill="#000000">defaults_cl_action</text>
</a>
</g>
</g>
<!-- Node4&#45;&gt;Node5 -->
<g id="edge5" class="edge">
<title>Node4&#45;&gt;Node5</title>
<path fill="none" stroke="#191970" d="M375.4511,-475.6048C383.4007,-499.901 407.5784,-564.3329 450,-599 452.2359,-600.8271 454.6563,-602.4822 457.1939,-603.9808"/>
<polygon fill="#191970" stroke="#191970" points="455.668,-607.131 466.1745,-608.4965 458.8127,-600.8771 455.668,-607.131"/>
</g>
<!-- Node6 -->
<g id="node7" class="node">
<title>Node6</title>
<g id="a_node7"><a xlink:href="config_8c.html#a907b8123196bcc81c04b570783b9236e" target="_top" xlink:title="Initialises default classifier condition parameters. ">
<polygon fill="none" stroke="#000000" points="452,-570.5 452,-589.5 560,-589.5 560,-570.5 452,-570.5"/>
<text text-anchor="middle" x="506" y="-577.5" font-family="Helvetica,sans-Serif" font-size="10.00" fill="#000000">defaults_cl_condition</text>
</a>
</g>
</g>
<!-- Node4&#45;&gt;Node6 -->
<g id="edge6" class="edge">
<title>Node4&#45;&gt;Node6</title>
<path fill="none" stroke="#191970" d="M377.7961,-475.5797C388.7844,-494.6001 415.9039,-537.3316 450,-561 452.741,-562.9027 455.6885,-564.6285 458.7461,-566.1917"/>
<polygon fill="#191970" stroke="#191970" points="457.5952,-569.5113 468.152,-570.4075 460.4583,-563.1235 457.5952,-569.5113"/>
</g>
<!-- Node7 -->
<g id="node8" class="node">
<title>Node7</title>
<g id="a_node8"><a xlink:href="config_8c.html#a90a9b25bd263909155ac04ad9595d994" target="_top" xlink:title="Initialises default general classifier parameters. ">
<polygon fill="none" stroke="#000000" points="455.5,-532.5 455.5,-551.5 556.5,-551.5 556.5,-532.5 455.5,-532.5"/>
<text text-anchor="middle" x="506" y="-539.5" font-family="Helvetica,sans-Serif" font-size="10.00" fill="#000000">defaults_cl_general</text>
</a>
</g>
</g>
<!-- Node4&#45;&gt;Node7 -->
<g id="edge7" class="edge">
<title>Node4&#45;&gt;Node7</title>
<path fill="none" stroke="#191970" d="M383.3288,-475.6625C397.6885,-488.0599 424.2308,-509.5639 450,-523 454.0525,-525.113 458.3889,-527.0656 462.7879,-528.8498"/>
<polygon fill="#191970" stroke="#191970" points="461.8405,-532.2329 472.4324,-532.4834 464.3085,-525.6824 461.8405,-532.2329"/>
</g>
<!-- Node8 -->
<g id="node9" class="node">
<title>Node8</title>
<g id="a_node9"><a xlink:href="config_8c.html#ac8486f9bd2ab0692781e37fde9722c21" target="_top" xlink:title="Initialises default classifier prediction parameters. ">
<polygon fill="none" stroke="#000000" points="450.5,-494.5 450.5,-513.5 561.5,-513.5 561.5,-494.5 450.5,-494.5"/>
<text text-anchor="middle" x="506" y="-501.5" font-family="Helvetica,sans-Serif" font-size="10.00" fill="#000000">defaults_cl_prediction</text>
</a>
</g>
</g>
<!-- Node4&#45;&gt;Node8 -->
<g id="edge8" class="edge">
<title>Node4&#45;&gt;Node8</title>
<path fill="none" stroke="#191970" d="M406.1877,-475.589C423.2632,-480.4494 444.2004,-486.4091 462.4816,-491.6127"/>
<polygon fill="#191970" stroke="#191970" points="461.7469,-495.0426 472.3231,-494.4141 463.6634,-488.31 461.7469,-495.0426"/>
</g>
<!-- Node9 -->
<g id="node10" class="node">
<title>Node9</title>
<g id="a_node10"><a xlink:href="config_8c.html#ac52e02ba17ba4277efcd2eb82ab55bfa" target="_top" xlink:title="Initialises default evolutionary algorithm parameters. ">
<polygon fill="none" stroke="#000000" points="472.5,-456.5 472.5,-475.5 539.5,-475.5 539.5,-456.5 472.5,-456.5"/>
<text text-anchor="middle" x="506" y="-463.5" font-family="Helvetica,sans-Serif" font-size="10.00" fill="#000000">defaults_ea</text>
</a>
</g>
</g>
<!-- Node4&#45;&gt;Node9 -->
<g id="edge9" class="edge">
<title>Node4&#45;&gt;Node9</title>
<path fill="none" stroke="#191970" d="M414.0084,-466C429.1828,-466 446.3981,-466 461.7988,-466"/>
<polygon fill="#191970" stroke="#191970" points="462.1236,-469.5001 472.1235,-466 462.1235,-462.5001 462.1236,-469.5001"/>
</g>
<!-- Node10 -->
<g id="node11" class="node">
<title>Node10</title>
<g id="a_node11"><a xlink:href="config_8c.html#a479aea84defefad8b7eb13e1bf08e118" target="_top" xlink:title="Initialises default XCSF general parameters. ">
<polygon fill="none" stroke="#000000" points="462,-418.5 462,-437.5 550,-437.5 550,-418.5 462,-418.5"/>
<text text-anchor="middle" x="506" y="-425.5" font-family="Helvetica,sans-Serif" font-size="10.00" fill="#000000">defaults_general</text>
</a>
</g>
</g>
<!-- Node4&#45;&gt;Node10 -->
<g id="edge10" class="edge">
<title>Node4&#45;&gt;Node10</title>
<path fill="none" stroke="#191970" d="M406.1877,-456.411C423.2632,-451.5506 444.2004,-445.5909 462.4816,-440.3873"/>
<polygon fill="#191970" stroke="#191970" points="463.6634,-443.69 472.3231,-437.5859 461.7469,-436.9574 463.6634,-443.69"/>
</g>
<!-- Node11 -->
<g id="node12" class="node">
<title>Node11</title>
<g id="a_node12"><a xlink:href="config_8c.html#adbf541d020a99adbbfdde6d5ecb75fee" target="_top" xlink:title="Initialises default multistep parameters. ">
<polygon fill="none" stroke="#000000" points="458,-380.5 458,-399.5 554,-399.5 554,-380.5 458,-380.5"/>
<text text-anchor="middle" x="506" y="-387.5" font-family="Helvetica,sans-Serif" font-size="10.00" fill="#000000">defaults_multistep</text>
</a>
</g>
</g>
<!-- Node4&#45;&gt;Node11 -->
<g id="edge11" class="edge">
<title>Node4&#45;&gt;Node11</title>
<path fill="none" stroke="#191970" d="M383.3288,-456.3375C397.6885,-443.9401 424.2308,-422.4361 450,-409 454.0525,-406.887 458.3889,-404.9344 462.7879,-403.1502"/>
<polygon fill="#191970" stroke="#191970" points="464.3085,-406.3176 472.4324,-399.5166 461.8405,-399.7671 464.3085,-406.3176"/>
</g>
<!-- Node12 -->
<g id="node13" class="node">
<title>Node12</title>
<g id="a_node13"><a xlink:href="config_8c.html#a80bab2f1c498bca20249c1ff554cd8ab" target="_top" xlink:title="Initialises default subsumption parameters. ">
<polygon fill="none" stroke="#000000" points="450,-342.5 450,-361.5 562,-361.5 562,-342.5 450,-342.5"/>
<text text-anchor="middle" x="506" y="-349.5" font-family="Helvetica,sans-Serif" font-size="10.00" fill="#000000">defaults_subsumption</text>
</a>
</g>
</g>
<!-- Node4&#45;&gt;Node12 -->
<g id="edge12" class="edge">
<title>Node4&#45;&gt;Node12</title>
<path fill="none" stroke="#191970" d="M377.7961,-456.4203C388.7844,-437.3999 415.9039,-394.6684 450,-371 452.741,-369.0973 455.6885,-367.3715 458.7461,-365.8083"/>
<polygon fill="#191970" stroke="#191970" points="460.4583,-368.8765 468.152,-361.5925 457.5952,-362.4887 460.4583,-368.8765"/>
</g>
<!-- Node14 -->
<g id="node15" class="node">
<title>Node14</title>
<g id="a_node15"><a xlink:href="config_8c.html#a7a16c67bd1965c9f62f75fc88e2abe98" target="_top" xlink:title="Parses a line of the config file and adds to the list. ">
<polygon fill="none" stroke="#000000" points="464.5,-304.5 464.5,-323.5 547.5,-323.5 547.5,-304.5 464.5,-304.5"/>
<text text-anchor="middle" x="506" y="-311.5" font-family="Helvetica,sans-Serif" font-size="10.00" fill="#000000">config_process</text>
</a>
</g>
</g>
<!-- Node13&#45;&gt;Node14 -->
<g id="edge14" class="edge">
<title>Node13&#45;&gt;Node14</title>
<path fill="none" stroke="#191970" d="M406.1877,-285.589C423.2632,-290.4494 444.2004,-296.4091 462.4816,-301.6127"/>
<polygon fill="#191970" stroke="#191970" points="461.7469,-305.0426 472.3231,-304.4141 463.6634,-298.31 461.7469,-305.0426"/>
</g>
<!-- Node26 -->
<g id="node27" class="node">
<title>Node26</title>
<g id="a_node27"><a xlink:href="config_8c.html#a0c81724e9bdc867a3dd41bafab67cbd3" target="_top" xlink:title="Removes tabs/spaces/lf/cr. ">
<polygon fill="none" stroke="#000000" points="473.5,-266.5 473.5,-285.5 538.5,-285.5 538.5,-266.5 473.5,-266.5"/>
<text text-anchor="middle" x="506" y="-273.5" font-family="Helvetica,sans-Serif" font-size="10.00" fill="#000000">config_trim</text>
</a>
</g>
</g>
<!-- Node13&#45;&gt;Node26 -->
<g id="edge27" class="edge">
<title>Node13&#45;&gt;Node26</title>
<path fill="none" stroke="#191970" d="M406.1877,-276C423.4436,-276 444.6434,-276 463.0602,-276"/>
<polygon fill="#191970" stroke="#191970" points="463.2461,-279.5001 473.2461,-276 463.246,-272.5001 463.2461,-279.5001"/>
</g>
<!-- Node15 -->
<g id="node16" class="node">
<title>Node15</title>
<g id="a_node16"><a xlink:href="config_8c.html#ae0ef249c19382a8125003e1c53221767" target="_top" xlink:title="Adds a parameter to the list. ">
<polygon fill="none" stroke="#000000" points="598,-304.5 598,-323.5 690,-323.5 690,-304.5 598,-304.5"/>
<text text-anchor="middle" x="644" y="-311.5" font-family="Helvetica,sans-Serif" font-size="10.00" fill="#000000">config_newnvpair</text>
</a>
</g>
</g>
<!-- Node14&#45;&gt;Node15 -->
<g id="edge15" class="edge">
<title>Node14&#45;&gt;Node15</title>
<path fill="none" stroke="#191970" d="M547.779,-314C560.2958,-314 574.2359,-314 587.5333,-314"/>
<polygon fill="#191970" stroke="#191970" points="587.5425,-317.5001 597.5425,-314 587.5424,-310.5001 587.5425,-317.5001"/>
</g>
<!-- Node16 -->
<g id="node17" class="node">
<title>Node16</title>
<g id="a_node17"><a xlink:href="config_8c.html#afff38fecf537b6cbe65c3d26201a71e9" target="_top" xlink:title="Sets specified parameter. ">
<polygon fill="none" stroke="#000000" points="768,-304.5 768,-323.5 833,-323.5 833,-304.5 768,-304.5"/>
<text text-anchor="middle" x="800.5" y="-311.5" font-family="Helvetica,sans-Serif" font-size="10.00" fill="#000000">param_add</text>
</a>
</g>
</g>
<!-- Node15&#45;&gt;Node16 -->
<g id="edge16" class="edge">
<title>Node15&#45;&gt;Node16</title>
<path fill="none" stroke="#191970" d="M690.1087,-314C711.3971,-314 736.527,-314 757.4282,-314"/>
<polygon fill="#191970" stroke="#191970" points="757.621,-317.5001 767.6209,-314 757.6209,-310.5001 757.621,-317.5001"/>
</g>
<!-- Node17 -->
<g id="node18" class="node">
<title>Node17</title>
<g id="a_node18"><a xlink:href="config_8c.html#a03d953f3697e255dc6955bd4b0e4f155" target="_top" xlink:title="Sets classifier action parameters. ">
<polygon fill="none" stroke="#000000" points="931.5,-437.5 931.5,-456.5 1024.5,-456.5 1024.5,-437.5 931.5,-437.5"/>
<text text-anchor="middle" x="978" y="-444.5" font-family="Helvetica,sans-Serif" font-size="10.00" fill="#000000">params_cl_action</text>
</a>
</g>
</g>
<!-- Node16&#45;&gt;Node17 -->
<g id="edge17" class="edge">
<title>Node16&#45;&gt;Node17</title>
<path fill="none" stroke="#191970" d="M807.0243,-323.5895C822.4453,-345.5105 863.4428,-399.5795 911,-428 914.6195,-430.163 918.4963,-432.0894 922.4931,-433.8033"/>
<polygon fill="#191970" stroke="#191970" points="921.3815,-437.1254 931.9721,-437.4286 923.8821,-430.5872 921.3815,-437.1254"/>
</g>
<!-- Node18 -->
<g id="node19" class="node">
<title>Node18</title>
<g id="a_node19"><a xlink:href="config_8c.html#ab31e8dc9f7f2da0ab2b3a96ff16c13c3" target="_top" xlink:title="Sets classifier condition parameters. ">
<polygon fill="none" stroke="#000000" points="925,-399.5 925,-418.5 1031,-418.5 1031,-399.5 925,-399.5"/>
<text text-anchor="middle" x="978" y="-406.5" font-family="Helvetica,sans-Serif" font-size="10.00" fill="#000000">params_cl_condition</text>
</a>
</g>
</g>
<!-- Node16&#45;&gt;Node18 -->
<g id="edge18" class="edge">
<title>Node16&#45;&gt;Node18</title>
<path fill="none" stroke="#191970" d="M811.6674,-323.5506C830.7977,-339.4631 871.596,-371.4781 911,-390 915.9239,-392.3145 921.187,-394.4024 926.5179,-396.2718"/>
<polygon fill="#191970" stroke="#191970" points="925.5358,-399.6329 936.1281,-399.4026 927.7041,-392.9771 925.5358,-399.6329"/>
</g>
<!-- Node20 -->
<g id="node21" class="node">
<title>Node20</title>
<g id="a_node21"><a xlink:href="config_8c.html#ab977df8efbefd43ac742766dc163b553" target="_top" xlink:title="Sets general classifier parameters. ">
<polygon fill="none" stroke="#000000" points="929,-361.5 929,-380.5 1027,-380.5 1027,-361.5 929,-361.5"/>
<text text-anchor="middle" x="978" y="-368.5" font-family="Helvetica,sans-Serif" font-size="10.00" fill="#000000">params_cl_general</text>
</a>
</g>
</g>
<!-- Node16&#45;&gt;Node20 -->
<g id="edge20" class="edge">
<title>Node16&#45;&gt;Node20</title>
<path fill="none" stroke="#191970" d="M827.1588,-323.6275C849.4559,-331.5688 882.1568,-342.9583 911,-352 918.2197,-354.2632 925.9132,-356.5553 933.4175,-358.7268"/>
<polygon fill="#191970" stroke="#191970" points="932.5411,-362.1164 943.118,-361.4996 934.465,-355.386 932.5411,-362.1164"/>
</g>
<!-- Node21 -->
<g id="node22" class="node">
<title>Node21</title>
<g id="a_node22"><a xlink:href="config_8c.html#ab49abbc5d1d5571fe940b94baad6f72b" target="_top" xlink:title="Sets classifier prediction parameters. ">
<polygon fill="none" stroke="#000000" points="923.5,-323.5 923.5,-342.5 1032.5,-342.5 1032.5,-323.5 923.5,-323.5"/>
<text text-anchor="middle" x="978" y="-330.5" font-family="Helvetica,sans-Serif" font-size="10.00" fill="#000000">params_cl_prediction</text>
</a>
</g>
</g>
<!-- Node16&#45;&gt;Node21 -->
<g id="edge21" class="edge">
<title>Node16&#45;&gt;Node21</title>
<path fill="none" stroke="#191970" d="M833.0562,-317.4849C855.4202,-319.8788 885.8713,-323.1383 913.0909,-326.052"/>
<polygon fill="#191970" stroke="#191970" points="913.0255,-329.5649 923.3412,-327.1492 913.7706,-322.6047 913.0255,-329.5649"/>
</g>
<!-- Node22 -->
<g id="node23" class="node">
<title>Node22</title>
<g id="a_node23"><a xlink:href="config_8c.html#a4f01f41dc856a626b8f9ad3481351e9a" target="_top" xlink:title="Sets evolutionary algorithm parameters. ">
<polygon fill="none" stroke="#000000" points="945.5,-285.5 945.5,-304.5 1010.5,-304.5 1010.5,-285.5 945.5,-285.5"/>
<text text-anchor="middle" x="978" y="-292.5" font-family="Helvetica,sans-Serif" font-size="10.00" fill="#000000">params_ea</text>
</a>
</g>
</g>
<!-- Node16&#45;&gt;Node22 -->
<g id="edge23" class="edge">
<title>Node16&#45;&gt;Node22</title>
<path fill="none" stroke="#191970" d="M833.0562,-310.5151C861.7403,-307.4447 903.7283,-302.9502 935.1381,-299.588"/>
<polygon fill="#191970" stroke="#191970" points="935.7794,-303.0395 945.3501,-298.4949 935.0343,-296.0792 935.7794,-303.0395"/>
</g>
<!-- Node23 -->
<g id="node24" class="node">
<title>Node23</title>
<g id="a_node24"><a xlink:href="config_8c.html#a4aae2f8189d834caecc5a3da57b765bf" target="_top" xlink:title="Sets general XCSF parameters. ">
<polygon fill="none" stroke="#000000" points="935,-247.5 935,-266.5 1021,-266.5 1021,-247.5 935,-247.5"/>
<text text-anchor="middle" x="978" y="-254.5" font-family="Helvetica,sans-Serif" font-size="10.00" fill="#000000">params_general</text>
</a>
</g>
</g>
<!-- Node16&#45;&gt;Node23 -->
<g id="edge24" class="edge">
<title>Node16&#45;&gt;Node23</title>
<path fill="none" stroke="#191970" d="M827.1588,-304.3725C849.4559,-296.4312 882.1568,-285.0417 911,-276 918.2197,-273.7368 925.9132,-271.4447 933.4175,-269.2732"/>
<polygon fill="#191970" stroke="#191970" points="934.465,-272.614 943.118,-266.5004 932.5411,-265.8836 934.465,-272.614"/>
</g>
<!-- Node24 -->
<g id="node25" class="node">
<title>Node24</title>
<g id="a_node25"><a xlink:href="config_8c.html#ae532cfa2a746dd8a5b808dac93293ef6" target="_top" xlink:title="Sets multistep experiment parameters. ">
<polygon fill="none" stroke="#000000" points="931,-209.5 931,-228.5 1025,-228.5 1025,-209.5 931,-209.5"/>
<text text-anchor="middle" x="978" y="-216.5" font-family="Helvetica,sans-Serif" font-size="10.00" fill="#000000">params_multistep</text>
</a>
</g>
</g>
<!-- Node16&#45;&gt;Node24 -->
<g id="edge25" class="edge">
<title>Node16&#45;&gt;Node24</title>
<path fill="none" stroke="#191970" d="M811.6674,-304.4494C830.7977,-288.5369 871.596,-256.5219 911,-238 915.9239,-235.6855 921.187,-233.5976 926.5179,-231.7282"/>
<polygon fill="#191970" stroke="#191970" points="927.7041,-235.0229 936.1281,-228.5974 925.5358,-228.3671 927.7041,-235.0229"/>
</g>
<!-- Node25 -->
<g id="node26" class="node">
<title>Node25</title>
<g id="a_node26"><a xlink:href="config_8c.html#a9cf4e54a8e3a754ed9656e7ccd48e64f" target="_top" xlink:title="Sets subsumption parameters. ">
<polygon fill="none" stroke="#000000" points="923,-171.5 923,-190.5 1033,-190.5 1033,-171.5 923,-171.5"/>
<text text-anchor="middle" x="978" y="-178.5" font-family="Helvetica,sans-Serif" font-size="10.00" fill="#000000">params_subsumption</text>
</a>
</g>
</g>
<!-- Node16&#45;&gt;Node25 -->
<g id="edge26" class="edge">
<title>Node16&#45;&gt;Node25</title>
<path fill="none" stroke="#191970" d="M807.0243,-304.4105C822.4453,-282.4895 863.4428,-228.4205 911,-200 914.6195,-197.837 918.4963,-195.9106 922.4931,-194.1967"/>
<polygon fill="#191970" stroke="#191970" points="923.8821,-197.4128 931.9721,-190.5714 921.3815,-190.8746 923.8821,-197.4128"/>
</g>
<!-- Node19 -->
<g id="node20" class="node">
<title>Node19</title>
<g id="a_node20"><a xlink:href="config_8c.html#a54fb0ed34172561dc44ca18d88a78f13" target="_top" xlink:title="Reads a csv list of ints into an array. ">
<polygon fill="none" stroke="#000000" points="1090,-361.5 1090,-380.5 1173,-380.5 1173,-361.5 1090,-361.5"/>
<text text-anchor="middle" x="1131.5" y="-368.5" font-family="Helvetica,sans-Serif" font-size="10.00" fill="#000000">config_get_ints</text>
</a>
</g>
</g>
<!-- Node18&#45;&gt;Node19 -->
<g id="edge19" class="edge">
<title>Node18&#45;&gt;Node19</title>
<path fill="none" stroke="#191970" d="M1016.7345,-399.411C1036.8993,-394.4191 1061.7479,-388.2676 1083.1611,-382.9666"/>
<polygon fill="#191970" stroke="#191970" points="1084.1781,-386.3206 1093.044,-380.5201 1082.4959,-379.5257 1084.1781,-386.3206"/>
</g>
<!-- Node21&#45;&gt;Node19 -->
<g id="edge22" class="edge">
<title>Node21&#45;&gt;Node19</title>
<path fill="none" stroke="#191970" d="M1016.7345,-342.589C1036.8993,-347.5809 1061.7479,-353.7324 1083.1611,-359.0334"/>
<polygon fill="#191970" stroke="#191970" points="1082.4959,-362.4743 1093.044,-361.4799 1084.1781,-355.6794 1082.4959,-362.4743"/>
</g>
<!-- Node28 -->
<g id="node29" class="node">
<title>Node28</title>
<g id="a_node29"><a xlink:href="loss_8c.html#a39395cf45199ace9d5d1417cea421ef1" target="_top" xlink:title="Binary logistic log loss for binary&#45;class classification. ">
<polygon fill="none" stroke="#000000" points="464,-228.5 464,-247.5 548,-247.5 548,-228.5 464,-228.5"/>
<text text-anchor="middle" x="506" y="-235.5" font-family="Helvetica,sans-Serif" font-size="10.00" fill="#000000">loss_binary_log</text>
</a>
</g>
</g>
<!-- Node27&#45;&gt;Node28 -->
<g id="edge29" class="edge">
<title>Node27&#45;&gt;Node28</title>
<path fill="none" stroke="#191970" d="M383.3288,-171.6625C397.6885,-184.0599 424.2308,-205.5639 450,-219 454.0525,-221.113 458.3889,-223.0656 462.7879,-224.8498"/>
<polygon fill="#191970" stroke="#191970" points="461.8405,-228.2329 472.4324,-228.4834 464.3085,-221.6824 461.8405,-228.2329"/>
</g>
<!-- Node29 -->
<g id="node30" class="node">
<title>Node29</title>
<g id="a_node30"><a xlink:href="loss_8c.html#ae77d02973678eda049e5c2d002443f8b" target="_top" xlink:title="Logistic log loss for multi&#45;class classification. ">
<polygon fill="none" stroke="#000000" points="479.5,-190.5 479.5,-209.5 532.5,-209.5 532.5,-190.5 479.5,-190.5"/>
<text text-anchor="middle" x="506" y="-197.5" font-family="Helvetica,sans-Serif" font-size="10.00" fill="#000000">loss_log</text>
</a>
</g>
</g>
<!-- Node27&#45;&gt;Node29 -->
<g id="edge30" class="edge">
<title>Node27&#45;&gt;Node29</title>
<path fill="none" stroke="#191970" d="M406.1877,-171.589C425.5261,-177.0936 449.8178,-184.0081 469.5947,-189.6374"/>
<polygon fill="#191970" stroke="#191970" points="468.8989,-193.0784 479.4751,-192.4498 470.8153,-186.3458 468.8989,-193.0784"/>
</g>
<!-- Node30 -->
<g id="node31" class="node">
<title>Node30</title>
<g id="a_node31"><a xlink:href="loss_8c.html#adccb11b8a1e21aae044940951c6da988" target="_top" xlink:title="Mean absolute error loss function. ">
<polygon fill="none" stroke="#000000" points="476.5,-152.5 476.5,-171.5 535.5,-171.5 535.5,-152.5 476.5,-152.5"/>
<text text-anchor="middle" x="506" y="-159.5" font-family="Helvetica,sans-Serif" font-size="10.00" fill="#000000">loss_mae</text>
</a>
</g>
</g>
<!-- Node27&#45;&gt;Node30 -->
<g id="edge31" class="edge">
<title>Node27&#45;&gt;Node30</title>
<path fill="none" stroke="#191970" d="M411.1137,-162C428.332,-162 448.6077,-162 465.9865,-162"/>
<polygon fill="#191970" stroke="#191970" points="466.3798,-165.5001 476.3798,-162 466.3798,-158.5001 466.3798,-165.5001"/>
</g>
<!-- Node31 -->
<g id="node32" class="node">
<title>Node31</title>
<g id="a_node32"><a xlink:href="loss_8c.html#ad3492e9d69c36471df1fbe572aee0ea7" target="_top" xlink:title="Mean squared error loss function. ">
<polygon fill="none" stroke="#000000" points="614.5,-76.5 614.5,-95.5 673.5,-95.5 673.5,-76.5 614.5,-76.5"/>
<text text-anchor="middle" x="644" y="-83.5" font-family="Helvetica,sans-Serif" font-size="10.00" fill="#000000">loss_mse</text>
</a>
</g>
</g>
<!-- Node27&#45;&gt;Node31 -->
<g id="edge32" class="edge">
<title>Node27&#45;&gt;Node31</title>
<path fill="none" stroke="#191970" d="M406.6108,-152.4515C457.0524,-138.3316 551.3021,-111.9486 604.6148,-97.0249"/>
<polygon fill="#191970" stroke="#191970" points="605.7036,-100.3548 614.3899,-94.2886 603.8166,-93.6139 605.7036,-100.3548"/>
</g>
<!-- Node32 -->
<g id="node33" class="node">
<title>Node32</title>
<g id="a_node33"><a xlink:href="loss_8c.html#ace95b144b0430b39e6a1486f73b2dfd8" target="_top" xlink:title="One&#45;hot classification error. ">
<polygon fill="none" stroke="#000000" points="461,-76.5 461,-95.5 551,-95.5 551,-76.5 461,-76.5"/>
<text text-anchor="middle" x="506" y="-83.5" font-family="Helvetica,sans-Serif" font-size="10.00" fill="#000000">loss_onehot_acc</text>
</a>
</g>
</g>
<!-- Node27&#45;&gt;Node32 -->
<g id="edge33" class="edge">
<title>Node27&#45;&gt;Node32</title>
<path fill="none" stroke="#191970" d="M396.8838,-152.3752C402.6834,-149.6734 408.7172,-146.504 414,-143 432.088,-131.0027 431.7666,-121.7752 450,-110 455.9103,-106.1831 462.5299,-102.7294 469.0911,-99.7079"/>
<polygon fill="#191970" stroke="#191970" points="470.7895,-102.7864 478.5729,-95.5983 468.0058,-96.3637 470.7895,-102.7864"/>
</g>
<!-- Node33 -->
<g id="node34" class="node">
<title>Node33</title>
<g id="a_node34"><a xlink:href="loss_8c.html#a8b9f770f00ca3c534690d727bc9d61ea" target="_top" xlink:title="Root mean squared error loss function. ">
<polygon fill="none" stroke="#000000" points="475,-38.5 475,-57.5 537,-57.5 537,-38.5 475,-38.5"/>
<text text-anchor="middle" x="506" y="-45.5" font-family="Helvetica,sans-Serif" font-size="10.00" fill="#000000">loss_rmse</text>
</a>
</g>
</g>
<!-- Node27&#45;&gt;Node33 -->
<g id="edge34" class="edge">
<title>Node27&#45;&gt;Node33</title>
<path fill="none" stroke="#191970" d="M400.5667,-152.4338C405.4394,-149.9002 410.1651,-146.7853 414,-143 440.6001,-116.7441 422.0929,-91.8622 450,-67 454.4689,-63.0187 459.8064,-59.8654 465.3853,-57.3694"/>
<polygon fill="#191970" stroke="#191970" points="466.7853,-60.5817 474.8912,-53.7593 464.3,-54.0377 466.7853,-60.5817"/>
</g>
<!-- Node33&#45;&gt;Node31 -->
<g id="edge35" class="edge">
<title>Node33&#45;&gt;Node31</title>
<path fill="none" stroke="#191970" d="M537.3143,-56.6228C557.223,-62.1049 583.1698,-69.2496 604.4897,-75.1204"/>
<polygon fill="#191970" stroke="#191970" points="603.6582,-78.5216 614.2286,-77.8021 605.5167,-71.7728 603.6582,-78.5216"/>
</g>
<!-- Node35 -->
<g id="node36" class="node">
<title>Node35</title>
<g id="a_node36"><a xlink:href="utils_8c.html#ae42a9e1d467853befaa7922cfafed3bb" target="_top" xlink:title="Returns a uniform random float [min,max]. ">
<polygon fill="none" stroke="#000000" points="469.5,-.5 469.5,-19.5 542.5,-19.5 542.5,-.5 469.5,-.5"/>
<text text-anchor="middle" x="506" y="-7.5" font-family="Helvetica,sans-Serif" font-size="10.00" fill="#000000">rand_uniform</text>
</a>
</g>
</g>
<!-- Node34&#45;&gt;Node35 -->
<g id="edge37" class="edge">
<title>Node34&#45;&gt;Node35</title>
<path fill="none" stroke="#191970" d="M400.5667,-114.4338C405.4394,-111.9002 410.1651,-108.7853 414,-105 440.6001,-78.7441 422.0929,-53.8622 450,-29 453.0184,-26.311 456.433,-23.9996 460.0507,-22.0134"/>
<polygon fill="#191970" stroke="#191970" points="461.7415,-25.0878 469.3512,-17.7161 458.8053,-18.7333 461.7415,-25.0878"/>
</g>
<!-- Node36 -->
<g id="node37" class="node">
<title>Node36</title>
<g id="a_node37"><a xlink:href="utils_8c.html#a101d27cdda714b7f17a06224c65cac56" target="_top" xlink:title="Returns a uniform random float (0,1) ">
<polygon fill="none" stroke="#000000" points="623.5,-.5 623.5,-19.5 664.5,-19.5 664.5,-.5 623.5,-.5"/>
<text text-anchor="middle" x="644" y="-7.5" font-family="Helvetica,sans-Serif" font-size="10.00" fill="#000000">drand</text>
</a>
</g>
</g>
<!-- Node35&#45;&gt;Node36 -->
<g id="edge38" class="edge">
<title>Node35&#45;&gt;Node36</title>
<path fill="none" stroke="#191970" d="M542.6192,-10C564.6503,-10 592.3772,-10 613.2637,-10"/>
<polygon fill="#191970" stroke="#191970" points="613.496,-13.5001 623.496,-10 613.496,-6.5001 613.496,-13.5001"/>
</g>
<!-- Node37 -->
<g id="node38" class="node">
<title>Node37</title>
<g id="a_node38"><a xlink:href="dSFMT_8h.html#af6dbcef408462da1f40edd1a1ea5dcd3" target="_top" xlink:title="dsfmt_gv_genrand_open_open">
<polygon fill="none" stroke="#000000" points="726,-.5 726,-19.5 875,-19.5 875,-.5 726,-.5"/>
<text text-anchor="middle" x="800.5" y="-7.5" font-family="Helvetica,sans-Serif" font-size="10.00" fill="#000000">dsfmt_gv_genrand_open_open</text>
</a>
</g>
</g>
<!-- Node36&#45;&gt;Node37 -->
<g id="edge39" class="edge">
<title>Node36&#45;&gt;Node37</title>
<path fill="none" stroke="#191970" d="M664.782,-10C678.1731,-10 696.5687,-10 715.4952,-10"/>
<polygon fill="#191970" stroke="#191970" points="715.7253,-13.5001 725.7253,-10 715.7253,-6.5001 715.7253,-13.5001"/>
</g>
<!-- Node38 -->
<g id="node39" class="node">
<title>Node38</title>
<g id="a_node39"><a xlink:href="dSFMT_8h.html#a147a0a05c969a4cb5d92ce3963b839c2" target="_top" xlink:title="dsfmt_genrand_open_open">
<polygon fill="none" stroke="#000000" points="911,-.5 911,-19.5 1045,-19.5 1045,-.5 911,-.5"/>
<text text-anchor="middle" x="978" y="-7.5" font-family="Helvetica,sans-Serif" font-size="10.00" fill="#000000">dsfmt_genrand_open_open</text>
</a>
</g>
</g>
<!-- Node37&#45;&gt;Node38 -->
<g id="edge40" class="edge">
<title>Node37&#45;&gt;Node38</title>
<path fill="none" stroke="#191970" d="M875.0045,-10C883.4355,-10 892.0427,-10 900.5109,-10"/>
<polygon fill="#191970" stroke="#191970" points="900.7501,-13.5001 910.75,-10 900.75,-6.5001 900.7501,-13.5001"/>
</g>
<!-- Node39 -->
<g id="node40" class="node">
<title>Node39</title>
<g id="a_node40"><a xlink:href="dSFMT_8h.html#afccb1e4d75cea7ffe3b45cba53d1e5e0" target="_top" xlink:title="dsfmt_gen_rand_all">
<polygon fill="none" stroke="#000000" points="1081,-.5 1081,-19.5 1182,-19.5 1182,-.5 1081,-.5"/>
<text text-anchor="middle" x="1131.5" y="-7.5" font-family="Helvetica,sans-Serif" font-size="10.00" fill="#000000">dsfmt_gen_rand_all</text>
</a>
</g>
</g>
<!-- Node38&#45;&gt;Node39 -->
<g id="edge41" class="edge">
<title>Node38&#45;&gt;Node39</title>
<path fill="none" stroke="#191970" d="M1045.3273,-10C1053.8031,-10 1062.4345,-10 1070.7997,-10"/>
<polygon fill="#191970" stroke="#191970" points="1070.8429,-13.5001 1080.8429,-10 1070.8428,-6.5001 1070.8429,-13.5001"/>
</g>
<!-- Node40 -->
<g id="node41" class="node">
<title>Node40</title>
<g id="a_node41"><a xlink:href="dSFMT-common_8h.html#a43e33e2235015c9c072bad7dfe1a282c" target="_top" xlink:title="do_recursion">
<polygon fill="none" stroke="#000000" points="1218,-.5 1218,-19.5 1290,-19.5 1290,-.5 1218,-.5"/>
<text text-anchor="middle" x="1254" y="-7.5" font-family="Helvetica,sans-Serif" font-size="10.00" fill="#000000">do_recursion</text>
</a>
</g>
</g>
<!-- Node39&#45;&gt;Node40 -->
<g id="edge42" class="edge">
<title>Node39&#45;&gt;Node40</title>
<path fill="none" stroke="#191970" d="M1182.0327,-10C1190.5603,-10 1199.3741,-10 1207.7846,-10"/>
<polygon fill="#191970" stroke="#191970" points="1207.7975,-13.5001 1217.7974,-10 1207.7974,-6.5001 1207.7975,-13.5001"/>
</g>
<!-- Node42 -->
<g id="node43" class="node">
<title>Node42</title>
<g id="a_node43"><a xlink:href="clset_8c.html#a23c23122a8e68a161d3511b995591075" target="_top" xlink:title="Initialises a new set. ">
<polygon fill="none" stroke="#000000" points="344.5,-76.5 344.5,-95.5 400.5,-95.5 400.5,-76.5 344.5,-76.5"/>
<text text-anchor="middle" x="372.5" y="-83.5" font-family="Helvetica,sans-Serif" font-size="10.00" fill="#000000">clset_init</text>
</a>
</g>
</g>
<!-- Node41&#45;&gt;Node42 -->
<g id="edge44" class="edge">
<title>Node41&#45;&gt;Node42</title>
<path fill="none" stroke="#191970" d="M281.276,-115.3772C296.9644,-110.325 317.0377,-103.8607 334.3584,-98.2829"/>
<polygon fill="#191970" stroke="#191970" points="335.7387,-101.5155 344.1845,-95.1186 333.593,-94.8524 335.7387,-101.5155"/>
</g>
<!-- Node43&#45;&gt;Node42 -->
<g id="edge46" class="edge">
<title>Node43&#45;&gt;Node42</title>
<path fill="none" stroke="#191970" d="M295.1089,-86C307.8172,-86 321.7903,-86 334.3249,-86"/>
<polygon fill="#191970" stroke="#191970" points="334.4562,-89.5001 344.4562,-86 334.4561,-82.5001 334.4562,-89.5001"/>
</g>
</g>
</svg>
