<?xml version="1.0" encoding="UTF-8" standalone="no"?>
<!DOCTYPE svg PUBLIC "-//W3C//DTD SVG 1.1//EN"
 "http://www.w3.org/Graphics/SVG/1.1/DTD/svg11.dtd">
<!-- Generated by graphviz version 2.40.1 (20161225.0304)
 -->
<!-- Title: clset_print Pages: 1 -->
<svg width="487pt" height="28pt"
 viewBox="0.00 0.00 487.00 28.00" xmlns="http://www.w3.org/2000/svg" xmlns:xlink="http://www.w3.org/1999/xlink">
<g id="graph0" class="graph" transform="scale(1 1) rotate(0) translate(4 24)">
<title>clset_print</title>
<!-- Node370 -->
<g id="node1" class="node">
<title>Node370</title>
<polygon fill="#bfbfbf" stroke="#000000" points="0,-.5 0,-19.5 62,-19.5 62,-.5 0,-.5"/>
<text text-anchor="middle" x="31" y="-7.5" font-family="Helvetica,sans-Serif" font-size="10.00" fill="#000000">clset_print</text>
</g>
<!-- Node371 -->
<g id="node2" class="node">
<title>Node371</title>
<g id="a_node2"><a xlink:href="xcsf_8h.html#a84d6ba23771186ab252b9120f87f9eac" target="_top" xlink:title="Prints the current XCSF population. ">
<polygon fill="none" stroke="#000000" points="98,-.5 98,-19.5 178,-19.5 178,-.5 98,-.5"/>
<text text-anchor="middle" x="138" y="-7.5" font-family="Helvetica,sans-Serif" font-size="10.00" fill="#000000">xcsf_print_pop</text>
</a>
</g>
</g>
<!-- Node370&#45;&gt;Node371 -->
<g id="edge1" class="edge">
<title>Node370&#45;&gt;Node371</title>
<path fill="none" stroke="#191970" d="M72.4724,-10C80.7766,-10 89.4884,-10 97.7504,-10"/>
<polygon fill="#191970" stroke="#191970" points="72.2365,-6.5001 62.2365,-10 72.2364,-13.5001 72.2365,-6.5001"/>
</g>
<!-- Node372 -->
<g id="node3" class="node">
<title>Node372</title>
<g id="a_node3"><a xlink:href="structXCS.html#a17153434b6e3310591eafb94e81cda9a" target="_top" xlink:title="XCS::print_pop">
<polygon fill="none" stroke="#000000" points="214,-.5 214,-19.5 297,-19.5 297,-.5 214,-.5"/>
<text text-anchor="middle" x="255.5" y="-7.5" font-family="Helvetica,sans-Serif" font-size="10.00" fill="#000000">XCS::print_pop</text>
</a>
</g>
</g>
<!-- Node371&#45;&gt;Node372 -->
<g id="edge2" class="edge">
<title>Node371&#45;&gt;Node372</title>
<path fill="none" stroke="#191970" d="M188.3595,-10C196.9028,-10 205.6879,-10 213.9719,-10"/>
<polygon fill="#191970" stroke="#191970" points="188.1082,-6.5001 178.1082,-10 188.1082,-13.5001 188.1082,-6.5001"/>
</g>
<!-- Node373 -->
<g id="node4" class="node">
<title>Node373</title>
<g id="a_node4"><a xlink:href="python__wrapper_8cpp.html#afbdcc1358036a0b83a6b239da2b098a2" target="_top" xlink:title="BOOST_PYTHON_MODULE">
<polygon fill="none" stroke="#000000" points="333,-.5 333,-19.5 479,-19.5 479,-.5 333,-.5"/>
<text text-anchor="middle" x="406" y="-7.5" font-family="Helvetica,sans-Serif" font-size="10.00" fill="#000000">BOOST_PYTHON_MODULE</text>
</a>
</g>
</g>
<!-- Node372&#45;&gt;Node373 -->
<g id="edge3" class="edge">
<title>Node372&#45;&gt;Node373</title>
<path fill="none" stroke="#191970" d="M307.236,-10C315.5037,-10 324.1924,-10 332.8441,-10"/>
<polygon fill="#191970" stroke="#191970" points="307.0232,-6.5001 297.0232,-10 307.0231,-13.5001 307.0232,-6.5001"/>
</g>
</g>
</svg>
