<?xml version="1.0" encoding="UTF-8" standalone="no"?>
<!DOCTYPE svg PUBLIC "-//W3C//DTD SVG 1.1//EN"
 "http://www.w3.org/Graphics/SVG/1.1/DTD/svg11.dtd">
<!-- Generated by graphviz version 2.40.1 (20161225.0304)
 -->
<!-- Title: clset.c Pages: 1 -->
<svg width="810pt" height="84pt"
 viewBox="0.00 0.00 809.50 84.00" xmlns="http://www.w3.org/2000/svg" xmlns:xlink="http://www.w3.org/1999/xlink">
<g id="graph0" class="graph" transform="scale(1 1) rotate(0) translate(4 80)">
<title>clset.c</title>
<!-- Node0 -->
<g id="node1" class="node">
<title>Node0</title>
<polygon fill="#bfbfbf" stroke="#000000" points="364,-56.5 364,-75.5 410,-75.5 410,-56.5 364,-56.5"/>
<text text-anchor="middle" x="387" y="-63.5" font-family="Helvetica,sans-Serif" font-size="10.00" fill="#000000">clset.c</text>
</g>
<!-- Node1 -->
<g id="node2" class="node">
<title>Node1</title>
<polygon fill="none" stroke="#bfbfbf" points="0,-.5 0,-19.5 46,-19.5 46,-.5 0,-.5"/>
<text text-anchor="middle" x="23" y="-7.5" font-family="Helvetica,sans-Serif" font-size="10.00" fill="#000000">stdio.h</text>
</g>
<!-- Node0&#45;&gt;Node1 -->
<g id="edge1" class="edge">
<title>Node0&#45;&gt;Node1</title>
<path fill="none" stroke="#191970" d="M363.8228,-64.1167C310.8398,-59.5316 176.7412,-46.3408 56.0703,-19.9431"/>
<polygon fill="#191970" stroke="#191970" points="56.8194,-16.5243 46.298,-17.7693 55.2994,-23.3573 56.8194,-16.5243"/>
</g>
<!-- Node2 -->
<g id="node3" class="node">
<title>Node2</title>
<polygon fill="none" stroke="#bfbfbf" points="64,-.5 64,-19.5 112,-19.5 112,-.5 64,-.5"/>
<text text-anchor="middle" x="88" y="-7.5" font-family="Helvetica,sans-Serif" font-size="10.00" fill="#000000">stdlib.h</text>
</g>
<!-- Node0&#45;&gt;Node2 -->
<g id="edge2" class="edge">
<title>Node0&#45;&gt;Node2</title>
<path fill="none" stroke="#191970" d="M363.6781,-62.9512C318.7073,-56.8636 216.766,-42.0516 121.8131,-19.9648"/>
<polygon fill="#191970" stroke="#191970" points="122.5939,-16.553 112.0574,-17.6635 120.9867,-23.366 122.5939,-16.553"/>
</g>
<!-- Node3 -->
<g id="node4" class="node">
<title>Node3</title>
<polygon fill="none" stroke="#bfbfbf" points="130,-.5 130,-19.5 186,-19.5 186,-.5 130,-.5"/>
<text text-anchor="middle" x="158" y="-7.5" font-family="Helvetica,sans-Serif" font-size="10.00" fill="#000000">stdbool.h</text>
</g>
<!-- Node0&#45;&gt;Node3 -->
<g id="edge3" class="edge">
<title>Node0&#45;&gt;Node3</title>
<path fill="none" stroke="#191970" d="M363.8946,-60.691C329.4707,-52.7326 262.4538,-37.0528 196.0488,-20.2189"/>
<polygon fill="#191970" stroke="#191970" points="196.814,-16.8022 186.2597,-17.7276 195.0875,-23.5859 196.814,-16.8022"/>
</g>
<!-- Node4 -->
<g id="node5" class="node">
<title>Node4</title>
<polygon fill="none" stroke="#bfbfbf" points="204,-.5 204,-19.5 248,-19.5 248,-.5 204,-.5"/>
<text text-anchor="middle" x="226" y="-7.5" font-family="Helvetica,sans-Serif" font-size="10.00" fill="#000000">float.h</text>
</g>
<!-- Node0&#45;&gt;Node4 -->
<g id="edge4" class="edge">
<title>Node0&#45;&gt;Node4</title>
<path fill="none" stroke="#191970" d="M363.9326,-57.9766C336.08,-48.2887 289.0875,-31.9435 257.8073,-21.0634"/>
<polygon fill="#191970" stroke="#191970" points="258.8425,-17.7178 248.2477,-17.7383 256.5428,-24.3293 258.8425,-17.7178"/>
</g>
<!-- Node5 -->
<g id="node6" class="node">
<title>Node5</title>
<polygon fill="none" stroke="#bfbfbf" points="266.5,-.5 266.5,-19.5 315.5,-19.5 315.5,-.5 266.5,-.5"/>
<text text-anchor="middle" x="291" y="-7.5" font-family="Helvetica,sans-Serif" font-size="10.00" fill="#000000">string.h</text>
</g>
<!-- Node0&#45;&gt;Node5 -->
<g id="edge5" class="edge">
<title>Node0&#45;&gt;Node5</title>
<path fill="none" stroke="#191970" d="M370.2781,-56.2455C355.4111,-47.5731 333.4534,-34.7645 316.4142,-24.825"/>
<polygon fill="#191970" stroke="#191970" points="317.9317,-21.6582 307.5303,-19.6427 314.4045,-27.7047 317.9317,-21.6582"/>
</g>
<!-- Node6 -->
<g id="node7" class="node">
<title>Node6</title>
<g id="a_node7"><a xlink:href="xcsf_8h.html" target="_top" xlink:title="XCSF data structures. ">
<polygon fill="none" stroke="#000000" points="334,-.5 334,-19.5 378,-19.5 378,-.5 334,-.5"/>
<text text-anchor="middle" x="356" y="-7.5" font-family="Helvetica,sans-Serif" font-size="10.00" fill="#000000">xcsf.h</text>
</a>
</g>
</g>
<!-- Node0&#45;&gt;Node6 -->
<g id="edge6" class="edge">
<title>Node0&#45;&gt;Node6</title>
<path fill="none" stroke="#191970" d="M381.6002,-56.2455C377.3773,-48.617 371.3827,-37.7881 366.2559,-28.5267"/>
<polygon fill="#191970" stroke="#191970" points="369.2432,-26.6965 361.3379,-19.6427 363.119,-30.0867 369.2432,-26.6965"/>
</g>
<!-- Node7 -->
<g id="node8" class="node">
<title>Node7</title>
<g id="a_node8"><a xlink:href="utils_8h.html" target="_top" xlink:title="Utility functions for random number handling, etc. ">
<polygon fill="none" stroke="#000000" points="396.5,-.5 396.5,-19.5 439.5,-19.5 439.5,-.5 396.5,-.5"/>
<text text-anchor="middle" x="418" y="-7.5" font-family="Helvetica,sans-Serif" font-size="10.00" fill="#000000">utils.h</text>
</a>
</g>
</g>
<!-- Node0&#45;&gt;Node7 -->
<g id="edge7" class="edge">
<title>Node0&#45;&gt;Node7</title>
<path fill="none" stroke="#191970" d="M392.3998,-56.2455C396.6227,-48.617 402.6173,-37.7881 407.7441,-28.5267"/>
<polygon fill="#191970" stroke="#191970" points="410.881,-30.0867 412.6621,-19.6427 404.7568,-26.6965 410.881,-30.0867"/>
</g>
<!-- Node8 -->
<g id="node9" class="node">
<title>Node8</title>
<g id="a_node9"><a xlink:href="cl_8h.html" target="_top" xlink:title="Functions operating on classifiers. ">
<polygon fill="none" stroke="#000000" points="458,-.5 458,-19.5 490,-19.5 490,-.5 458,-.5"/>
<text text-anchor="middle" x="474" y="-7.5" font-family="Helvetica,sans-Serif" font-size="10.00" fill="#000000">cl.h</text>
</a>
</g>
</g>
<!-- Node0&#45;&gt;Node8 -->
<g id="edge8" class="edge">
<title>Node0&#45;&gt;Node8</title>
<path fill="none" stroke="#191970" d="M402.1542,-56.2455C415.5027,-47.6534 435.1586,-35.0014 450.5383,-25.1018"/>
<polygon fill="#191970" stroke="#191970" points="452.5051,-27.9982 459.0194,-19.6427 448.7164,-22.1121 452.5051,-27.9982"/>
</g>
<!-- Node9 -->
<g id="node10" class="node">
<title>Node9</title>
<g id="a_node10"><a xlink:href="clset_8h.html" target="_top" xlink:title="Functions operating on sets of classifiers. ">
<polygon fill="none" stroke="#000000" points="508,-.5 508,-19.5 554,-19.5 554,-.5 508,-.5"/>
<text text-anchor="middle" x="531" y="-7.5" font-family="Helvetica,sans-Serif" font-size="10.00" fill="#000000">clset.h</text>
</a>
</g>
</g>
<!-- Node0&#45;&gt;Node9 -->
<g id="edge9" class="edge">
<title>Node0&#45;&gt;Node9</title>
<path fill="none" stroke="#191970" d="M410.1361,-57.0026C434.0689,-47.6954 471.6402,-33.0844 498.5391,-22.6237"/>
<polygon fill="#191970" stroke="#191970" points="499.8699,-25.8616 507.9213,-18.975 497.3327,-19.3375 499.8699,-25.8616"/>
</g>
<!-- Node10 -->
<g id="node11" class="node">
<title>Node10</title>
<g id="a_node11"><a xlink:href="prediction_8h.html" target="_top" xlink:title="Interface for classifier predictions. ">
<polygon fill="none" stroke="#000000" points="572.5,-.5 572.5,-19.5 639.5,-19.5 639.5,-.5 572.5,-.5"/>
<text text-anchor="middle" x="606" y="-7.5" font-family="Helvetica,sans-Serif" font-size="10.00" fill="#000000">prediction.h</text>
</a>
</g>
</g>
<!-- Node0&#45;&gt;Node10 -->
<g id="edge10" class="edge">
<title>Node0&#45;&gt;Node10</title>
<path fill="none" stroke="#191970" d="M410.0229,-60.1129C446.0633,-50.897 516.4189,-32.9066 562.292,-21.1765"/>
<polygon fill="#191970" stroke="#191970" points="563.4335,-24.4973 572.2547,-18.6289 561.6993,-17.7155 563.4335,-24.4973"/>
</g>
<!-- Node11 -->
<g id="node12" class="node">
<title>Node11</title>
<g id="a_node12"><a xlink:href="neural_8h.html" target="_top" xlink:title="An implementation of a multi&#45;layer perceptron neural network. ">
<polygon fill="none" stroke="#000000" points="657.5,-.5 657.5,-19.5 708.5,-19.5 708.5,-.5 657.5,-.5"/>
<text text-anchor="middle" x="683" y="-7.5" font-family="Helvetica,sans-Serif" font-size="10.00" fill="#000000">neural.h</text>
</a>
</g>
</g>
<!-- Node0&#45;&gt;Node11 -->
<g id="edge11" class="edge">
<title>Node0&#45;&gt;Node11</title>
<path fill="none" stroke="#191970" d="M410.3087,-62.8055C454.7128,-56.5293 554.6239,-41.4939 647.6178,-20.1364"/>
<polygon fill="#191970" stroke="#191970" points="648.5158,-23.521 657.4621,-17.8452 646.929,-16.7032 648.5158,-23.521"/>
</g>
<!-- Node12 -->
<g id="node13" class="node">
<title>Node12</title>
<g id="a_node13"><a xlink:href="pred__neural_8h.html" target="_top" xlink:title="Multi&#45;layer perceptron neural network prediction functions. ">
<polygon fill="none" stroke="#000000" points="726.5,-.5 726.5,-19.5 801.5,-19.5 801.5,-.5 726.5,-.5"/>
<text text-anchor="middle" x="764" y="-7.5" font-family="Helvetica,sans-Serif" font-size="10.00" fill="#000000">pred_neural.h</text>
</a>
</g>
</g>
<!-- Node0&#45;&gt;Node12 -->
<g id="edge12" class="edge">
<title>Node0&#45;&gt;Node12</title>
<path fill="none" stroke="#191970" d="M410.3714,-63.3712C463.1317,-57.3054 595.6726,-41.3329 716.2517,-20.2129"/>
<polygon fill="#191970" stroke="#191970" points="717.1531,-23.6079 726.3906,-18.4196 715.9338,-16.7149 717.1531,-23.6079"/>
</g>
</g>
</svg>
