<?xml version="1.0" encoding="UTF-8" standalone="no"?>
<!DOCTYPE svg PUBLIC "-//W3C//DTD SVG 1.1//EN"
 "http://www.w3.org/Graphics/SVG/1.1/DTD/svg11.dtd">
<!-- Generated by graphviz version 2.40.1 (20161225.0304)
 -->
<!-- Title: clset_mean_time Pages: 1 -->
<svg width="764pt" height="256pt"
 viewBox="0.00 0.00 764.00 256.00" xmlns="http://www.w3.org/2000/svg" xmlns:xlink="http://www.w3.org/1999/xlink">
<g id="graph0" class="graph" transform="scale(1 1) rotate(0) translate(4 252)">
<title>clset_mean_time</title>
<!-- Node192 -->
<g id="node1" class="node">
<title>Node192</title>
<polygon fill="#bfbfbf" stroke="#000000" points="0,-171.5 0,-190.5 91,-190.5 91,-171.5 0,-171.5"/>
<text text-anchor="middle" x="45.5" y="-178.5" font-family="Helvetica,sans-Serif" font-size="10.00" fill="#000000">clset_mean_time</text>
</g>
<!-- Node193 -->
<g id="node2" class="node">
<title>Node193</title>
<g id="a_node2"><a xlink:href="ea_8h.html#ae90a9b4131bb94462265b9c928499eb8" target="_top" xlink:title="Executes the evolutionary algorithm (EA). ">
<polygon fill="none" stroke="#000000" points="127,-171.5 127,-190.5 156,-190.5 156,-171.5 127,-171.5"/>
<text text-anchor="middle" x="141.5" y="-178.5" font-family="Helvetica,sans-Serif" font-size="10.00" fill="#000000">ea</text>
</a>
</g>
</g>
<!-- Node192&#45;&gt;Node193 -->
<g id="edge1" class="edge">
<title>Node192&#45;&gt;Node193</title>
<path fill="none" stroke="#191970" d="M101.5397,-181C110.934,-181 119.9054,-181 126.9588,-181"/>
<polygon fill="#191970" stroke="#191970" points="101.2508,-177.5001 91.2507,-181 101.2507,-184.5001 101.2508,-177.5001"/>
</g>
<!-- Node194 -->
<g id="node3" class="node">
<title>Node194</title>
<g id="a_node3"><a xlink:href="xcs__multi__step_8c.html#ad50c415970b4bfc42f469fb38c5e68fa" target="_top" xlink:title="Executes a multi&#45;step trial using a built&#45;in environment. ">
<polygon fill="none" stroke="#000000" points="201,-218.5 201,-237.5 281,-237.5 281,-218.5 201,-218.5"/>
<text text-anchor="middle" x="241" y="-225.5" font-family="Helvetica,sans-Serif" font-size="10.00" fill="#000000">xcs_multi_trial</text>
</a>
</g>
</g>
<!-- Node193&#45;&gt;Node194 -->
<g id="edge2" class="edge">
<title>Node193&#45;&gt;Node194</title>
<path fill="none" stroke="#191970" d="M165.4056,-192.2921C182.3056,-200.275 204.714,-210.8599 220.7373,-218.4287"/>
<polygon fill="#191970" stroke="#191970" points="166.7185,-189.0415 156.1816,-187.935 163.7287,-195.3709 166.7185,-189.0415"/>
</g>
<!-- Node197 -->
<g id="node6" class="node">
<title>Node197</title>
<g id="a_node6"><a xlink:href="xcs__single__step_8h.html#a0ff6b521f66224d56ef0e6f50f5781b9" target="_top" xlink:title="Creates the action set, updates the classifiers and runs the EA. ">
<polygon fill="none" stroke="#000000" points="192,-171.5 192,-190.5 290,-190.5 290,-171.5 192,-171.5"/>
<text text-anchor="middle" x="241" y="-178.5" font-family="Helvetica,sans-Serif" font-size="10.00" fill="#000000">xcs_single_update</text>
</a>
</g>
</g>
<!-- Node193&#45;&gt;Node197 -->
<g id="edge5" class="edge">
<title>Node193&#45;&gt;Node197</title>
<path fill="none" stroke="#191970" d="M166.2801,-181C174.0174,-181 182.8425,-181 191.6508,-181"/>
<polygon fill="#191970" stroke="#191970" points="166.1816,-177.5001 156.1816,-181 166.1815,-184.5001 166.1816,-177.5001"/>
</g>
<!-- Node202 -->
<g id="node11" class="node">
<title>Node202</title>
<g id="a_node11"><a xlink:href="xcsf_8c.html#af5fb604e81235fdcb2ed8925d9291f59" target="_top" xlink:title="Executes a single XCSF trial. ">
<polygon fill="none" stroke="#000000" points="213,-57.5 213,-76.5 269,-76.5 269,-57.5 213,-57.5"/>
<text text-anchor="middle" x="241" y="-64.5" font-family="Helvetica,sans-Serif" font-size="10.00" fill="#000000">xcsf_trial</text>
</a>
</g>
</g>
<!-- Node193&#45;&gt;Node202 -->
<g id="edge11" class="edge">
<title>Node193&#45;&gt;Node202</title>
<path fill="none" stroke="#191970" d="M156.7434,-163.5352C177.9778,-139.2063 215.7403,-95.9408 232.5382,-76.695"/>
<polygon fill="#191970" stroke="#191970" points="153.9221,-161.445 149.9833,-171.2804 159.1959,-166.048 153.9221,-161.445"/>
</g>
<!-- Node195 -->
<g id="node4" class="node">
<title>Node195</title>
<g id="a_node4"><a xlink:href="xcs__multi__step_8h.html#acc29d4a55dbd56c16ea5f19f15a7c677" target="_top" xlink:title="Executes a multi&#45;step reinforcement learning experiment. ">
<polygon fill="none" stroke="#000000" points="468,-228.5 468,-247.5 572,-247.5 572,-228.5 468,-228.5"/>
<text text-anchor="middle" x="520" y="-235.5" font-family="Helvetica,sans-Serif" font-size="10.00" fill="#000000">xcs_multi_step_exp</text>
</a>
</g>
</g>
<!-- Node194&#45;&gt;Node195 -->
<g id="edge3" class="edge">
<title>Node194&#45;&gt;Node195</title>
<path fill="none" stroke="#191970" d="M291.5047,-229.8102C341.4046,-231.5987 417.3872,-234.3221 467.8508,-236.1309"/>
<polygon fill="#191970" stroke="#191970" points="291.39,-226.3039 281.271,-229.4434 291.1392,-233.2994 291.39,-226.3039"/>
</g>
<!-- Node196 -->
<g id="node5" class="node">
<title>Node196</title>
<g id="a_node5"><a xlink:href="main_8c.html#a3c04138a5bfe5d72780bb7e82a18e627" target="_top" xlink:title="main">
<polygon fill="none" stroke="#000000" points="664,-190.5 664,-209.5 702,-209.5 702,-190.5 664,-190.5"/>
<text text-anchor="middle" x="683" y="-197.5" font-family="Helvetica,sans-Serif" font-size="10.00" fill="#000000">main</text>
</a>
</g>
</g>
<!-- Node195&#45;&gt;Node196 -->
<g id="edge4" class="edge">
<title>Node195&#45;&gt;Node196</title>
<path fill="none" stroke="#191970" d="M571.0525,-226.0982C602.4599,-218.7762 640.9128,-209.8117 663.6012,-204.5224"/>
<polygon fill="#191970" stroke="#191970" points="570.076,-222.7319 561.1318,-228.411 571.6653,-229.5491 570.076,-222.7319"/>
</g>
<!-- Node198 -->
<g id="node7" class="node">
<title>Node198</title>
<g id="a_node7"><a xlink:href="structXCS.html#aedc01ad6f00a54b260a7605929a1d4c9" target="_top" xlink:title="XCS::single_update">
<polygon fill="none" stroke="#000000" points="326,-152.5 326,-171.5 430,-171.5 430,-152.5 326,-152.5"/>
<text text-anchor="middle" x="378" y="-159.5" font-family="Helvetica,sans-Serif" font-size="10.00" fill="#000000">XCS::single_update</text>
</a>
</g>
</g>
<!-- Node197&#45;&gt;Node198 -->
<g id="edge6" class="edge">
<title>Node197&#45;&gt;Node198</title>
<path fill="none" stroke="#191970" d="M300.2254,-172.7863C308.6549,-171.6172 317.2753,-170.4217 325.5632,-169.2723"/>
<polygon fill="#191970" stroke="#191970" points="299.4976,-169.3536 290.0732,-174.1942 300.4592,-176.2873 299.4976,-169.3536"/>
</g>
<!-- Node200 -->
<g id="node9" class="node">
<title>Node200</title>
<g id="a_node9"><a xlink:href="xcs__single__step_8c.html#a536ab4256e871e31959ea6e907455340" target="_top" xlink:title="Executes a single&#45;step trial using a built&#45;in environment. ">
<polygon fill="none" stroke="#000000" points="336,-190.5 336,-209.5 420,-209.5 420,-190.5 336,-190.5"/>
<text text-anchor="middle" x="378" y="-197.5" font-family="Helvetica,sans-Serif" font-size="10.00" fill="#000000">xcs_single_trial</text>
</a>
</g>
</g>
<!-- Node197&#45;&gt;Node200 -->
<g id="edge8" class="edge">
<title>Node197&#45;&gt;Node200</title>
<path fill="none" stroke="#191970" d="M300.0069,-189.1834C311.9825,-190.8443 324.3528,-192.5599 335.6154,-194.1218"/>
<polygon fill="#191970" stroke="#191970" points="300.4592,-185.7128 290.0732,-187.8058 299.4976,-192.6464 300.4592,-185.7128"/>
</g>
<!-- Node199 -->
<g id="node8" class="node">
<title>Node199</title>
<g id="a_node8"><a xlink:href="python__wrapper_8cpp.html#afbdcc1358036a0b83a6b239da2b098a2" target="_top" xlink:title="BOOST_PYTHON_MODULE">
<polygon fill="none" stroke="#000000" points="610,-57.5 610,-76.5 756,-76.5 756,-57.5 610,-57.5"/>
<text text-anchor="middle" x="683" y="-64.5" font-family="Helvetica,sans-Serif" font-size="10.00" fill="#000000">BOOST_PYTHON_MODULE</text>
</a>
</g>
</g>
<!-- Node198&#45;&gt;Node199 -->
<g id="edge7" class="edge">
<title>Node198&#45;&gt;Node199</title>
<path fill="none" stroke="#191970" d="M422.5475,-149.7635C462.4055,-138.6446 522.3418,-121.5037 574,-105 602.4442,-95.9127 634.7024,-84.5307 656.6992,-76.6036"/>
<polygon fill="#191970" stroke="#191970" points="421.5605,-146.405 412.8639,-152.4565 423.4361,-153.1491 421.5605,-146.405"/>
</g>
<!-- Node201 -->
<g id="node10" class="node">
<title>Node201</title>
<g id="a_node10"><a xlink:href="xcs__single__step_8h.html#a39a031bf59eaa9b33e30e614610dcda8" target="_top" xlink:title="Executes a single&#45;step reinforcement learning experiment. ">
<polygon fill="none" stroke="#000000" points="466,-190.5 466,-209.5 574,-209.5 574,-190.5 466,-190.5"/>
<text text-anchor="middle" x="520" y="-197.5" font-family="Helvetica,sans-Serif" font-size="10.00" fill="#000000">xcs_single_step_exp</text>
</a>
</g>
</g>
<!-- Node200&#45;&gt;Node201 -->
<g id="edge9" class="edge">
<title>Node200&#45;&gt;Node201</title>
<path fill="none" stroke="#191970" d="M430.551,-200C442.0539,-200 454.2511,-200 465.8166,-200"/>
<polygon fill="#191970" stroke="#191970" points="430.2203,-196.5001 420.2202,-200 430.2202,-203.5001 430.2203,-196.5001"/>
</g>
<!-- Node201&#45;&gt;Node196 -->
<g id="edge10" class="edge">
<title>Node201&#45;&gt;Node196</title>
<path fill="none" stroke="#191970" d="M584.611,-200C613.0891,-200 644.4445,-200 663.9303,-200"/>
<polygon fill="#191970" stroke="#191970" points="584.2767,-196.5001 574.2766,-200 584.2766,-203.5001 584.2767,-196.5001"/>
</g>
<!-- Node203 -->
<g id="node12" class="node">
<title>Node203</title>
<g id="a_node12"><a xlink:href="xcsf_8h.html#aee465caea59599a71fc69528598156cb" target="_top" xlink:title="Executes MAX_TRIALS number of XCSF learning iterations using the training. data and test iterations u...">
<polygon fill="none" stroke="#000000" points="353.5,-76.5 353.5,-95.5 402.5,-95.5 402.5,-76.5 353.5,-76.5"/>
<text text-anchor="middle" x="378" y="-83.5" font-family="Helvetica,sans-Serif" font-size="10.00" fill="#000000">xcsf_fit</text>
</a>
</g>
</g>
<!-- Node202&#45;&gt;Node203 -->
<g id="edge12" class="edge">
<title>Node202&#45;&gt;Node203</title>
<path fill="none" stroke="#191970" d="M279.1185,-72.2865C302.7972,-75.5704 332.5501,-79.6967 353.2027,-82.561"/>
<polygon fill="#191970" stroke="#191970" points="279.4406,-68.7978 269.0546,-70.8908 278.479,-75.7314 279.4406,-68.7978"/>
</g>
<!-- Node205 -->
<g id="node14" class="node">
<title>Node205</title>
<g id="a_node14"><a xlink:href="xcsf_8h.html#af128a7da769acabe2e841e8d06749b0b" target="_top" xlink:title="Calculates the XCSF predictions for the provided input. ">
<polygon fill="none" stroke="#000000" points="343,-38.5 343,-57.5 413,-57.5 413,-38.5 343,-38.5"/>
<text text-anchor="middle" x="378" y="-45.5" font-family="Helvetica,sans-Serif" font-size="10.00" fill="#000000">xcsf_predict</text>
</a>
</g>
</g>
<!-- Node202&#45;&gt;Node205 -->
<g id="edge16" class="edge">
<title>Node202&#45;&gt;Node205</title>
<path fill="none" stroke="#191970" d="M279.064,-61.721C299.0542,-58.9487 323.385,-55.5743 342.9157,-52.8657"/>
<polygon fill="#191970" stroke="#191970" points="278.479,-58.2686 269.0546,-63.1092 279.4406,-65.2022 278.479,-58.2686"/>
</g>
<!-- Node207 -->
<g id="node16" class="node">
<title>Node207</title>
<g id="a_node16"><a xlink:href="xcsf_8h.html#a348b8cd321211c377fb1deedc62c7c67" target="_top" xlink:title="Calculates the XCSF error for the input data. ">
<polygon fill="none" stroke="#000000" points="345.5,-.5 345.5,-19.5 410.5,-19.5 410.5,-.5 345.5,-.5"/>
<text text-anchor="middle" x="378" y="-7.5" font-family="Helvetica,sans-Serif" font-size="10.00" fill="#000000">xcsf_score</text>
</a>
</g>
</g>
<!-- Node202&#45;&gt;Node207 -->
<g id="edge19" class="edge">
<title>Node202&#45;&gt;Node207</title>
<path fill="none" stroke="#191970" d="M270.9163,-53.0094C287.1046,-45.5955 307.5173,-36.4974 326,-29 334.016,-25.7484 342.8227,-22.4347 350.8735,-19.5046"/>
<polygon fill="#191970" stroke="#191970" points="269.0541,-50.0138 261.4377,-57.3787 271.9845,-56.3709 269.0541,-50.0138"/>
</g>
<!-- Node203&#45;&gt;Node196 -->
<g id="edge13" class="edge">
<title>Node203&#45;&gt;Node196</title>
<path fill="none" stroke="#191970" d="M412.3792,-98.8499C476.6984,-122.8906 613.2779,-173.94 663.7389,-192.8008"/>
<polygon fill="#191970" stroke="#191970" points="413.2936,-95.4553 402.7011,-95.2325 410.8427,-102.0122 413.2936,-95.4553"/>
</g>
<!-- Node204 -->
<g id="node13" class="node">
<title>Node204</title>
<g id="a_node13"><a xlink:href="structXCS.html#ad2ccafe59d2b4ae6d0e1cbc15edee53c" target="_top" xlink:title="XCS::fit">
<polygon fill="none" stroke="#000000" points="494,-76.5 494,-95.5 546,-95.5 546,-76.5 494,-76.5"/>
<text text-anchor="middle" x="520" y="-83.5" font-family="Helvetica,sans-Serif" font-size="10.00" fill="#000000">XCS::fit</text>
</a>
</g>
</g>
<!-- Node203&#45;&gt;Node204 -->
<g id="edge14" class="edge">
<title>Node203&#45;&gt;Node204</title>
<path fill="none" stroke="#191970" d="M412.8735,-86C437.8145,-86 470.8634,-86 493.6237,-86"/>
<polygon fill="#191970" stroke="#191970" points="412.7345,-82.5001 402.7345,-86 412.7345,-89.5001 412.7345,-82.5001"/>
</g>
<!-- Node204&#45;&gt;Node199 -->
<g id="edge15" class="edge">
<title>Node204&#45;&gt;Node199</title>
<path fill="none" stroke="#191970" d="M556.5233,-81.7427C572.2717,-79.907 591.2822,-77.691 609.7251,-75.5412"/>
<polygon fill="#191970" stroke="#191970" points="555.7163,-78.313 546.1888,-82.9473 556.5268,-85.2659 555.7163,-78.313"/>
</g>
<!-- Node206 -->
<g id="node15" class="node">
<title>Node206</title>
<g id="a_node15"><a xlink:href="structXCS.html#a911ed75c86abed7807d33eb1385240ed" target="_top" xlink:title="XCS::predict">
<polygon fill="none" stroke="#000000" points="483.5,-38.5 483.5,-57.5 556.5,-57.5 556.5,-38.5 483.5,-38.5"/>
<text text-anchor="middle" x="520" y="-45.5" font-family="Helvetica,sans-Serif" font-size="10.00" fill="#000000">XCS::predict</text>
</a>
</g>
</g>
<!-- Node205&#45;&gt;Node206 -->
<g id="edge17" class="edge">
<title>Node205&#45;&gt;Node206</title>
<path fill="none" stroke="#191970" d="M423.2292,-48C442.6223,-48 464.9834,-48 483.3219,-48"/>
<polygon fill="#191970" stroke="#191970" points="423.1012,-44.5001 413.1011,-48 423.1011,-51.5001 423.1012,-44.5001"/>
</g>
<!-- Node206&#45;&gt;Node199 -->
<g id="edge18" class="edge">
<title>Node206&#45;&gt;Node199</title>
<path fill="none" stroke="#191970" d="M566.5613,-53.4274C580.0572,-55.0005 595.1298,-56.7575 609.8365,-58.4717"/>
<polygon fill="#191970" stroke="#191970" points="566.9184,-49.9454 556.5804,-52.264 566.1079,-56.8983 566.9184,-49.9454"/>
</g>
<!-- Node208 -->
<g id="node17" class="node">
<title>Node208</title>
<g id="a_node17"><a xlink:href="structXCS.html#aa77bc77484d6d14bf512304a23cfec88" target="_top" xlink:title="XCS::score">
<polygon fill="none" stroke="#000000" points="486,-.5 486,-19.5 554,-19.5 554,-.5 486,-.5"/>
<text text-anchor="middle" x="520" y="-7.5" font-family="Helvetica,sans-Serif" font-size="10.00" fill="#000000">XCS::score</text>
</a>
</g>
</g>
<!-- Node207&#45;&gt;Node208 -->
<g id="edge20" class="edge">
<title>Node207&#45;&gt;Node208</title>
<path fill="none" stroke="#191970" d="M420.7215,-10C441.4707,-10 466.0715,-10 485.5932,-10"/>
<polygon fill="#191970" stroke="#191970" points="420.5777,-6.5001 410.5777,-10 420.5776,-13.5001 420.5777,-6.5001"/>
</g>
<!-- Node208&#45;&gt;Node199 -->
<g id="edge21" class="edge">
<title>Node208&#45;&gt;Node199</title>
<path fill="none" stroke="#191970" d="M556.9708,-22.9285C586.9626,-33.4164 628.5636,-47.9639 655.6285,-57.4284"/>
<polygon fill="#191970" stroke="#191970" points="557.8774,-19.5377 547.2825,-19.5405 555.5667,-26.1453 557.8774,-19.5377"/>
</g>
</g>
</svg>
