<?xml version="1.0" encoding="UTF-8" standalone="no"?>
<!DOCTYPE svg PUBLIC "-//W3C//DTD SVG 1.1//EN"
 "http://www.w3.org/Graphics/SVG/1.1/DTD/svg11.dtd">
<!-- Generated by graphviz version 2.40.1 (20161225.0304)
 -->
<!-- Title: clset_init Pages: 1 -->
<svg width="580pt" height="403pt"
 viewBox="0.00 0.00 580.00 403.00" xmlns="http://www.w3.org/2000/svg" xmlns:xlink="http://www.w3.org/1999/xlink">
<g id="graph0" class="graph" transform="scale(1 1) rotate(0) translate(4 399)">
<title>clset_init</title>
<!-- Node64 -->
<g id="node1" class="node">
<title>Node64</title>
<polygon fill="#bfbfbf" stroke="#000000" points="0,-247.5 0,-266.5 56,-266.5 56,-247.5 0,-247.5"/>
<text text-anchor="middle" x="28" y="-254.5" font-family="Helvetica,sans-Serif" font-size="10.00" fill="#000000">clset_init</text>
</g>
<!-- Node65 -->
<g id="node2" class="node">
<title>Node65</title>
<g id="a_node2"><a xlink:href="clset_8h.html#a50717081740d969067fe82d38c74b5fc" target="_top" xlink:title="Reads the population set from a binary file. ">
<polygon fill="none" stroke="#000000" points="92,-190.5 92,-209.5 174,-209.5 174,-190.5 92,-190.5"/>
<text text-anchor="middle" x="133" y="-197.5" font-family="Helvetica,sans-Serif" font-size="10.00" fill="#000000">clset_pop_load</text>
</a>
</g>
</g>
<!-- Node64&#45;&gt;Node65 -->
<g id="edge1" class="edge">
<title>Node64&#45;&gt;Node65</title>
<path fill="none" stroke="#191970" d="M54.6231,-242.5475C73.6969,-232.1931 98.8473,-218.54 115.4512,-209.5265"/>
<polygon fill="#191970" stroke="#191970" points="52.9305,-239.4838 45.8118,-247.3307 56.2702,-245.6357 52.9305,-239.4838"/>
</g>
<!-- Node66 -->
<g id="node3" class="node">
<title>Node66</title>
<g id="a_node3"><a xlink:href="xcsf_8h.html#af419720749752a7b5596f9def871a71c" target="_top" xlink:title="Reads the state of XCSF from a binary file. ">
<polygon fill="none" stroke="#000000" points="222.5,-190.5 222.5,-209.5 281.5,-209.5 281.5,-190.5 222.5,-190.5"/>
<text text-anchor="middle" x="252" y="-197.5" font-family="Helvetica,sans-Serif" font-size="10.00" fill="#000000">xcsf_load</text>
</a>
</g>
</g>
<!-- Node64&#45;&gt;Node66 -->
<g id="edge18" class="edge">
<title>Node64&#45;&gt;Node66</title>
<path fill="none" stroke="#191970" d="M66.1688,-247.2874C110.3778,-236.0378 182.264,-217.7453 222.4387,-207.5223"/>
<polygon fill="#191970" stroke="#191970" points="65.1978,-243.9229 56.3698,-249.7809 66.9241,-250.7067 65.1978,-243.9229"/>
</g>
<!-- Node70 -->
<g id="node7" class="node">
<title>Node70</title>
<g id="a_node7"><a xlink:href="xcs__multi__step_8c.html#ad50c415970b4bfc42f469fb38c5e68fa" target="_top" xlink:title="Executes a multi&#45;step trial using a built&#45;in environment. ">
<polygon fill="none" stroke="#000000" points="93,-361.5 93,-380.5 173,-380.5 173,-361.5 93,-361.5"/>
<text text-anchor="middle" x="133" y="-368.5" font-family="Helvetica,sans-Serif" font-size="10.00" fill="#000000">xcs_multi_trial</text>
</a>
</g>
</g>
<!-- Node64&#45;&gt;Node70 -->
<g id="edge6" class="edge">
<title>Node64&#45;&gt;Node70</title>
<path fill="none" stroke="#191970" d="M41.7607,-274.5594C54.3419,-290.3113 73.72,-313.8295 92,-333 101.6444,-343.1142 113.4115,-353.8734 121.8617,-361.3517"/>
<polygon fill="#191970" stroke="#191970" points="44.4743,-272.3484 35.5205,-266.6843 38.9879,-276.6957 44.4743,-272.3484"/>
</g>
<!-- Node72 -->
<g id="node9" class="node">
<title>Node72</title>
<g id="a_node9"><a xlink:href="xcs__single__step_8h.html#a1b3026fe84124f1e9d8aaa871a507b01" target="_top" xlink:title="Initialises match, action, and kill sets. ">
<polygon fill="none" stroke="#000000" points="92.5,-304.5 92.5,-323.5 173.5,-323.5 173.5,-304.5 92.5,-304.5"/>
<text text-anchor="middle" x="133" y="-311.5" font-family="Helvetica,sans-Serif" font-size="10.00" fill="#000000">xcs_single_init</text>
</a>
</g>
</g>
<!-- Node64&#45;&gt;Node72 -->
<g id="edge9" class="edge">
<title>Node64&#45;&gt;Node72</title>
<path fill="none" stroke="#191970" d="M51.8735,-271.9601C63.7687,-279.2114 78.4685,-287.8712 92,-295 98.108,-298.2179 104.8615,-301.4686 111.0949,-304.3493"/>
<polygon fill="#191970" stroke="#191970" points="53.3612,-268.7659 43.0109,-266.5029 49.6909,-274.7266 53.3612,-268.7659"/>
</g>
<!-- Node76 -->
<g id="node13" class="node">
<title>Node76</title>
<g id="a_node13"><a xlink:href="xcsf_8h.html#ac2cf4a27bb10f866b2e393a2804c8c33" target="_top" xlink:title="Initialises XCSF with an empty population. ">
<polygon fill="none" stroke="#000000" points="106.5,-266.5 106.5,-285.5 159.5,-285.5 159.5,-266.5 106.5,-266.5"/>
<text text-anchor="middle" x="133" y="-273.5" font-family="Helvetica,sans-Serif" font-size="10.00" fill="#000000">xcsf_init</text>
</a>
</g>
</g>
<!-- Node64&#45;&gt;Node76 -->
<g id="edge14" class="edge">
<title>Node64&#45;&gt;Node76</title>
<path fill="none" stroke="#191970" d="M66.0048,-263.8771C79.3351,-266.2892 94.0181,-268.9461 106.2324,-271.1563"/>
<polygon fill="#191970" stroke="#191970" points="66.6015,-260.4283 56.1381,-262.0917 65.355,-267.3164 66.6015,-260.4283"/>
</g>
<!-- Node78 -->
<g id="node15" class="node">
<title>Node78</title>
<g id="a_node15"><a xlink:href="xcsf_8c.html#af5fb604e81235fdcb2ed8925d9291f59" target="_top" xlink:title="Executes a single XCSF trial. ">
<polygon fill="none" stroke="#000000" points="105,-57.5 105,-76.5 161,-76.5 161,-57.5 105,-57.5"/>
<text text-anchor="middle" x="133" y="-64.5" font-family="Helvetica,sans-Serif" font-size="10.00" fill="#000000">xcsf_trial</text>
</a>
</g>
</g>
<!-- Node64&#45;&gt;Node78 -->
<g id="edge19" class="edge">
<title>Node64&#45;&gt;Node78</title>
<path fill="none" stroke="#191970" d="M38.2592,-238.4358C60.1514,-198.8212 110.8105,-107.1524 127.5335,-76.8917"/>
<polygon fill="#191970" stroke="#191970" points="35.1249,-236.8713 33.3513,-247.3167 41.2516,-240.2572 35.1249,-236.8713"/>
</g>
<!-- Node65&#45;&gt;Node66 -->
<g id="edge2" class="edge">
<title>Node65&#45;&gt;Node66</title>
<path fill="none" stroke="#191970" d="M184.5182,-200C197.4736,-200 210.9432,-200 222.4099,-200"/>
<polygon fill="#191970" stroke="#191970" points="184.2865,-196.5001 174.2865,-200 184.2864,-203.5001 184.2865,-196.5001"/>
</g>
<!-- Node67 -->
<g id="node4" class="node">
<title>Node67</title>
<g id="a_node4"><a xlink:href="main_8c.html#a3c04138a5bfe5d72780bb7e82a18e627" target="_top" xlink:title="main">
<polygon fill="none" stroke="#000000" points="504,-228.5 504,-247.5 542,-247.5 542,-228.5 504,-228.5"/>
<text text-anchor="middle" x="523" y="-235.5" font-family="Helvetica,sans-Serif" font-size="10.00" fill="#000000">main</text>
</a>
</g>
</g>
<!-- Node66&#45;&gt;Node67 -->
<g id="edge3" class="edge">
<title>Node66&#45;&gt;Node67</title>
<path fill="none" stroke="#191970" d="M291.746,-204.7209C329.4434,-209.295 387.648,-216.6072 438,-224 460.6396,-227.324 486.5792,-231.6755 503.7876,-234.639"/>
<polygon fill="#191970" stroke="#191970" points="292.0283,-201.2297 281.6808,-203.5056 291.1891,-208.1792 292.0283,-201.2297"/>
</g>
<!-- Node68 -->
<g id="node5" class="node">
<title>Node68</title>
<g id="a_node5"><a xlink:href="classXCS.html#adc9b621f2b7a306fbf381dd0efaf268b" target="_top" xlink:title="XCS::load">
<polygon fill="none" stroke="#000000" points="353,-114.5 353,-133.5 415,-133.5 415,-114.5 353,-114.5"/>
<text text-anchor="middle" x="384" y="-121.5" font-family="Helvetica,sans-Serif" font-size="10.00" fill="#000000">XCS::load</text>
</a>
</g>
</g>
<!-- Node66&#45;&gt;Node68 -->
<g id="edge4" class="edge">
<title>Node66&#45;&gt;Node68</title>
<path fill="none" stroke="#191970" d="M277.453,-185.3452C303.9811,-170.0715 344.7773,-146.5828 367.4179,-133.5473"/>
<polygon fill="#191970" stroke="#191970" points="275.6377,-182.3517 268.7179,-190.3745 279.1305,-188.418 275.6377,-182.3517"/>
</g>
<!-- Node69 -->
<g id="node6" class="node">
<title>Node69</title>
<g id="a_node6"><a xlink:href="pybind__wrapper_8cpp.html#a9f26280e01308c4674f2473fb6f78730" target="_top" xlink:title="pybind11_init_xcsf">
<polygon fill="none" stroke="#000000" points="474,-57.5 474,-76.5 572,-76.5 572,-57.5 474,-57.5"/>
<text text-anchor="middle" x="523" y="-64.5" font-family="Helvetica,sans-Serif" font-size="10.00" fill="#000000">pybind11_init_xcsf</text>
</a>
</g>
</g>
<!-- Node68&#45;&gt;Node69 -->
<g id="edge5" class="edge">
<title>Node68&#45;&gt;Node69</title>
<path fill="none" stroke="#191970" d="M422.0214,-111.064C427.4118,-109.1019 432.8648,-107.0473 438,-105 460.5228,-96.0207 485.8341,-84.5178 502.9336,-76.5314"/>
<polygon fill="#191970" stroke="#191970" points="420.7097,-107.8159 412.4686,-114.4744 423.0633,-114.4084 420.7097,-107.8159"/>
</g>
<!-- Node71 -->
<g id="node8" class="node">
<title>Node71</title>
<g id="a_node8"><a xlink:href="xcs__multi__step_8h.html#acc29d4a55dbd56c16ea5f19f15a7c677" target="_top" xlink:title="Executes a multi&#45;step reinforcement learning experiment. ">
<polygon fill="none" stroke="#000000" points="332,-375.5 332,-394.5 436,-394.5 436,-375.5 332,-375.5"/>
<text text-anchor="middle" x="384" y="-382.5" font-family="Helvetica,sans-Serif" font-size="10.00" fill="#000000">xcs_multi_step_exp</text>
</a>
</g>
</g>
<!-- Node70&#45;&gt;Node71 -->
<g id="edge7" class="edge">
<title>Node70&#45;&gt;Node71</title>
<path fill="none" stroke="#191970" d="M183.0362,-373.7909C226.1565,-376.196 288.1828,-379.6556 331.8944,-382.0937"/>
<polygon fill="#191970" stroke="#191970" points="183.2287,-370.2963 173.0492,-373.2338 182.8388,-377.2854 183.2287,-370.2963"/>
</g>
<!-- Node71&#45;&gt;Node67 -->
<g id="edge8" class="edge">
<title>Node71&#45;&gt;Node67</title>
<path fill="none" stroke="#191970" d="M422.4563,-371.0904C427.9712,-368.2131 433.345,-364.8589 438,-361 478.3667,-327.537 507.9524,-270.3006 518.6377,-247.6429"/>
<polygon fill="#191970" stroke="#191970" points="420.6922,-368.0527 413.1439,-375.4873 423.681,-374.3826 420.6922,-368.0527"/>
</g>
<!-- Node73 -->
<g id="node10" class="node">
<title>Node73</title>
<g id="a_node10"><a xlink:href="classXCS.html#a621482fa1ba66543d343e208666aee90" target="_top" xlink:title="Constructor for single&#45;step reinforcement learning. ">
<polygon fill="none" stroke="#000000" points="351.5,-285.5 351.5,-304.5 416.5,-304.5 416.5,-285.5 351.5,-285.5"/>
<text text-anchor="middle" x="384" y="-292.5" font-family="Helvetica,sans-Serif" font-size="10.00" fill="#000000">XCS::XCS</text>
</a>
</g>
</g>
<!-- Node72&#45;&gt;Node73 -->
<g id="edge10" class="edge">
<title>Node72&#45;&gt;Node73</title>
<path fill="none" stroke="#191970" d="M183.5791,-310.1713C233.6512,-306.381 308.8225,-300.6907 351.447,-297.4642"/>
<polygon fill="#191970" stroke="#191970" points="183.3137,-306.6813 173.6065,-310.9262 183.8421,-313.6613 183.3137,-306.6813"/>
</g>
<!-- Node74 -->
<g id="node11" class="node">
<title>Node74</title>
<g id="a_node11"><a xlink:href="xcs__single__step_8c.html#a536ab4256e871e31959ea6e907455340" target="_top" xlink:title="Executes a single&#45;step trial using a built&#45;in environment. ">
<polygon fill="none" stroke="#000000" points="210,-342.5 210,-361.5 294,-361.5 294,-342.5 210,-342.5"/>
<text text-anchor="middle" x="252" y="-349.5" font-family="Helvetica,sans-Serif" font-size="10.00" fill="#000000">xcs_single_trial</text>
</a>
</g>
</g>
<!-- Node72&#45;&gt;Node74 -->
<g id="edge11" class="edge">
<title>Node72&#45;&gt;Node74</title>
<path fill="none" stroke="#191970" d="M172.7098,-326.6804C188.7886,-331.8148 207.0433,-337.6441 221.9809,-342.4141"/>
<polygon fill="#191970" stroke="#191970" points="173.6195,-323.2969 163.0287,-323.589 171.4901,-329.9652 173.6195,-323.2969"/>
</g>
<!-- Node75 -->
<g id="node12" class="node">
<title>Node75</title>
<g id="a_node12"><a xlink:href="xcs__single__step_8h.html#a39a031bf59eaa9b33e30e614610dcda8" target="_top" xlink:title="Executes a single&#45;step reinforcement learning experiment. ">
<polygon fill="none" stroke="#000000" points="330,-332.5 330,-351.5 438,-351.5 438,-332.5 330,-332.5"/>
<text text-anchor="middle" x="384" y="-339.5" font-family="Helvetica,sans-Serif" font-size="10.00" fill="#000000">xcs_single_step_exp</text>
</a>
</g>
</g>
<!-- Node74&#45;&gt;Node75 -->
<g id="edge12" class="edge">
<title>Node74&#45;&gt;Node75</title>
<path fill="none" stroke="#191970" d="M304.1756,-348.0473C312.5711,-347.4113 321.2792,-346.7516 329.7227,-346.1119"/>
<polygon fill="#191970" stroke="#191970" points="303.8356,-344.5629 294.1285,-348.8084 304.3644,-351.5429 303.8356,-344.5629"/>
</g>
<!-- Node75&#45;&gt;Node67 -->
<g id="edge13" class="edge">
<title>Node75&#45;&gt;Node67</title>
<path fill="none" stroke="#191970" d="M414.4591,-327.9016C422.3561,-323.7946 430.6904,-319.0433 438,-314 467.9802,-293.3149 498.775,-263.1029 513.7256,-247.7449"/>
<polygon fill="#191970" stroke="#191970" points="412.8473,-324.7944 405.4772,-332.4057 415.9852,-331.0517 412.8473,-324.7944"/>
</g>
<!-- Node76&#45;&gt;Node67 -->
<g id="edge15" class="edge">
<title>Node76&#45;&gt;Node67</title>
<path fill="none" stroke="#191970" d="M169.6042,-265.5295C182.296,-262.284 196.6817,-259.0302 210,-257 320.3281,-240.1817 454.6703,-238.1152 503.8185,-237.9593"/>
<polygon fill="#191970" stroke="#191970" points="168.6168,-262.1702 159.8416,-268.107 170.4038,-268.9383 168.6168,-262.1702"/>
</g>
<!-- Node77 -->
<g id="node14" class="node">
<title>Node77</title>
<g id="a_node14"><a xlink:href="classXCS.html#ad372bae45743be0fbf7d95b67e13b390" target="_top" xlink:title="Initialises python XCS structure. ">
<polygon fill="none" stroke="#000000" points="213.5,-266.5 213.5,-285.5 290.5,-285.5 290.5,-266.5 213.5,-266.5"/>
<text text-anchor="middle" x="252" y="-273.5" font-family="Helvetica,sans-Serif" font-size="10.00" fill="#000000">XCS::xcs_init</text>
</a>
</g>
</g>
<!-- Node76&#45;&gt;Node77 -->
<g id="edge16" class="edge">
<title>Node76&#45;&gt;Node77</title>
<path fill="none" stroke="#191970" d="M169.8026,-276C183.5709,-276 199.2466,-276 213.1906,-276"/>
<polygon fill="#191970" stroke="#191970" points="169.706,-272.5001 159.7059,-276 169.7059,-279.5001 169.706,-272.5001"/>
</g>
<!-- Node77&#45;&gt;Node73 -->
<g id="edge17" class="edge">
<title>Node77&#45;&gt;Node73</title>
<path fill="none" stroke="#191970" d="M300.7966,-283.0238C317.6827,-285.4543 336.184,-288.1174 351.4436,-290.3138"/>
<polygon fill="#191970" stroke="#191970" points="300.9314,-279.5072 290.5347,-281.5467 299.934,-286.4358 300.9314,-279.5072"/>
</g>
<!-- Node79 -->
<g id="node16" class="node">
<title>Node79</title>
<g id="a_node16"><a xlink:href="xcsf_8h.html#aee465caea59599a71fc69528598156cb" target="_top" xlink:title="Executes MAX_TRIALS number of XCSF learning iterations using the training data and test iterations us...">
<polygon fill="none" stroke="#000000" points="227.5,-76.5 227.5,-95.5 276.5,-95.5 276.5,-76.5 227.5,-76.5"/>
<text text-anchor="middle" x="252" y="-83.5" font-family="Helvetica,sans-Serif" font-size="10.00" fill="#000000">xcsf_fit</text>
</a>
</g>
</g>
<!-- Node78&#45;&gt;Node79 -->
<g id="edge20" class="edge">
<title>Node78&#45;&gt;Node79</title>
<path fill="none" stroke="#191970" d="M171.2971,-73.1147C189.6349,-76.0426 211.064,-79.464 227.2302,-82.0452"/>
<polygon fill="#191970" stroke="#191970" points="171.6281,-69.6233 161.2013,-71.5027 170.5244,-76.5357 171.6281,-69.6233"/>
</g>
<!-- Node81 -->
<g id="node18" class="node">
<title>Node81</title>
<g id="a_node18"><a xlink:href="xcsf_8h.html#af128a7da769acabe2e841e8d06749b0b" target="_top" xlink:title="Calculates the XCSF predictions for the provided input. ">
<polygon fill="none" stroke="#000000" points="217,-38.5 217,-57.5 287,-57.5 287,-38.5 217,-38.5"/>
<text text-anchor="middle" x="252" y="-45.5" font-family="Helvetica,sans-Serif" font-size="10.00" fill="#000000">xcsf_predict</text>
</a>
</g>
</g>
<!-- Node78&#45;&gt;Node81 -->
<g id="edge24" class="edge">
<title>Node78&#45;&gt;Node81</title>
<path fill="none" stroke="#191970" d="M171.4093,-60.8674C185.9809,-58.5409 202.491,-55.9048 216.7565,-53.6271"/>
<polygon fill="#191970" stroke="#191970" points="170.5244,-57.4643 161.2013,-62.4973 171.6281,-64.3767 170.5244,-57.4643"/>
</g>
<!-- Node83 -->
<g id="node20" class="node">
<title>Node83</title>
<g id="a_node20"><a xlink:href="xcsf_8h.html#a348b8cd321211c377fb1deedc62c7c67" target="_top" xlink:title="Calculates the XCSF error for the input data. ">
<polygon fill="none" stroke="#000000" points="219.5,-.5 219.5,-19.5 284.5,-19.5 284.5,-.5 219.5,-.5"/>
<text text-anchor="middle" x="252" y="-7.5" font-family="Helvetica,sans-Serif" font-size="10.00" fill="#000000">xcsf_score</text>
</a>
</g>
</g>
<!-- Node78&#45;&gt;Node83 -->
<g id="edge27" class="edge">
<title>Node78&#45;&gt;Node83</title>
<path fill="none" stroke="#191970" d="M160.904,-52.948C175.4774,-45.6805 193.6381,-36.7356 210,-29 216.6564,-25.853 223.9528,-22.514 230.5696,-19.5275"/>
<polygon fill="#191970" stroke="#191970" points="159.2778,-49.8479 151.9001,-57.4519 162.4094,-56.1084 159.2778,-49.8479"/>
</g>
<!-- Node79&#45;&gt;Node67 -->
<g id="edge21" class="edge">
<title>Node79&#45;&gt;Node67</title>
<path fill="none" stroke="#191970" d="M271.931,-102.0582C287.3079,-114.0729 309.369,-130.5138 330,-143 391.0251,-179.9333 468.4239,-214.6375 503.7938,-229.8797"/>
<polygon fill="#191970" stroke="#191970" points="273.7262,-99.0157 263.7111,-95.559 269.3846,-104.5067 273.7262,-99.0157"/>
</g>
<!-- Node80 -->
<g id="node17" class="node">
<title>Node80</title>
<g id="a_node17"><a xlink:href="classXCS.html#ac9a4a7cb0ec6238ef1d4d77996f8975b" target="_top" xlink:title="XCS::fit">
<polygon fill="none" stroke="#000000" points="358,-76.5 358,-95.5 410,-95.5 410,-76.5 358,-76.5"/>
<text text-anchor="middle" x="384" y="-83.5" font-family="Helvetica,sans-Serif" font-size="10.00" fill="#000000">XCS::fit</text>
</a>
</g>
</g>
<!-- Node79&#45;&gt;Node80 -->
<g id="edge22" class="edge">
<title>Node79&#45;&gt;Node80</title>
<path fill="none" stroke="#191970" d="M286.5818,-86C308.8691,-86 337.3909,-86 357.8039,-86"/>
<polygon fill="#191970" stroke="#191970" points="286.5189,-82.5001 276.5188,-86 286.5188,-89.5001 286.5189,-82.5001"/>
</g>
<!-- Node80&#45;&gt;Node69 -->
<g id="edge23" class="edge">
<title>Node80&#45;&gt;Node69</title>
<path fill="none" stroke="#191970" d="M420.3776,-81.0275C436.7306,-78.7922 456.2768,-76.1204 473.9021,-73.7112"/>
<polygon fill="#191970" stroke="#191970" points="419.5787,-77.6041 410.1448,-82.4262 420.5267,-84.5396 419.5787,-77.6041"/>
</g>
<!-- Node82 -->
<g id="node19" class="node">
<title>Node82</title>
<g id="a_node19"><a xlink:href="classXCS.html#a8e8db281054f9e5937610eed434cd4a5" target="_top" xlink:title="XCS::predict">
<polygon fill="none" stroke="#000000" points="347.5,-38.5 347.5,-57.5 420.5,-57.5 420.5,-38.5 347.5,-38.5"/>
<text text-anchor="middle" x="384" y="-45.5" font-family="Helvetica,sans-Serif" font-size="10.00" fill="#000000">XCS::predict</text>
</a>
</g>
</g>
<!-- Node81&#45;&gt;Node82 -->
<g id="edge25" class="edge">
<title>Node81&#45;&gt;Node82</title>
<path fill="none" stroke="#191970" d="M297.4378,-48C313.7618,-48 331.9503,-48 347.4251,-48"/>
<polygon fill="#191970" stroke="#191970" points="297.0271,-44.5001 287.027,-48 297.027,-51.5001 297.0271,-44.5001"/>
</g>
<!-- Node82&#45;&gt;Node69 -->
<g id="edge26" class="edge">
<title>Node82&#45;&gt;Node69</title>
<path fill="none" stroke="#191970" d="M430.8196,-54.3998C444.6882,-56.2955 459.9099,-58.3762 473.9174,-60.2909"/>
<polygon fill="#191970" stroke="#191970" points="430.9025,-50.8787 420.5206,-52.992 429.9544,-57.8142 430.9025,-50.8787"/>
</g>
<!-- Node84 -->
<g id="node21" class="node">
<title>Node84</title>
<g id="a_node21"><a xlink:href="classXCS.html#ad32ffc841106ec036029e4c90a33b761" target="_top" xlink:title="XCS::score">
<polygon fill="none" stroke="#000000" points="350,-.5 350,-19.5 418,-19.5 418,-.5 350,-.5"/>
<text text-anchor="middle" x="384" y="-7.5" font-family="Helvetica,sans-Serif" font-size="10.00" fill="#000000">XCS::score</text>
</a>
</g>
</g>
<!-- Node83&#45;&gt;Node84 -->
<g id="edge28" class="edge">
<title>Node83&#45;&gt;Node84</title>
<path fill="none" stroke="#191970" d="M294.7933,-10C312.6455,-10 333.0935,-10 349.9048,-10"/>
<polygon fill="#191970" stroke="#191970" points="294.6293,-6.5001 284.6292,-10 294.6292,-13.5001 294.6293,-6.5001"/>
</g>
<!-- Node84&#45;&gt;Node69 -->
<g id="edge29" class="edge">
<title>Node84&#45;&gt;Node69</title>
<path fill="none" stroke="#191970" d="M422.0214,-22.936C427.4118,-24.8981 432.8648,-26.9527 438,-29 460.5228,-37.9793 485.8341,-49.4822 502.9336,-57.4686"/>
<polygon fill="#191970" stroke="#191970" points="423.0633,-19.5916 412.4686,-19.5256 420.7097,-26.1841 423.0633,-19.5916"/>
</g>
</g>
</svg>
