<?xml version="1.0" encoding="UTF-8" standalone="no"?>
<!DOCTYPE svg PUBLIC "-//W3C//DTD SVG 1.1//EN"
 "http://www.w3.org/Graphics/SVG/1.1/DTD/svg11.dtd">
<!-- Generated by graphviz version 2.40.1 (20161225.0304)
 -->
<!-- Title: clset_pred Pages: 1 -->
<svg width="511pt" height="142pt"
 viewBox="0.00 0.00 511.00 142.00" xmlns="http://www.w3.org/2000/svg" xmlns:xlink="http://www.w3.org/1999/xlink">
<g id="graph0" class="graph" transform="scale(1 1) rotate(0) translate(4 138)">
<title>clset_pred</title>
<!-- Node311 -->
<g id="node1" class="node">
<title>Node311</title>
<polygon fill="#bfbfbf" stroke="#000000" points="0,-38.5 0,-57.5 62,-57.5 62,-38.5 0,-38.5"/>
<text text-anchor="middle" x="31" y="-45.5" font-family="Helvetica,sans-Serif" font-size="10.00" fill="#000000">clset_pred</text>
</g>
<!-- Node312 -->
<g id="node2" class="node">
<title>Node312</title>
<g id="a_node2"><a xlink:href="xcsf_8c.html#af5fb604e81235fdcb2ed8925d9291f59" target="_top" xlink:title="Executes a single XCSF trial. ">
<polygon fill="none" stroke="#000000" points="98,-38.5 98,-57.5 154,-57.5 154,-38.5 98,-38.5"/>
<text text-anchor="middle" x="126" y="-45.5" font-family="Helvetica,sans-Serif" font-size="10.00" fill="#000000">xcsf_trial</text>
</a>
</g>
</g>
<!-- Node311&#45;&gt;Node312 -->
<g id="edge1" class="edge">
<title>Node311&#45;&gt;Node312</title>
<path fill="none" stroke="#191970" d="M72.3429,-48C80.908,-48 89.7449,-48 97.7139,-48"/>
<polygon fill="#191970" stroke="#191970" points="72.1066,-44.5001 62.1066,-48 72.1065,-51.5001 72.1066,-44.5001"/>
</g>
<!-- Node313 -->
<g id="node3" class="node">
<title>Node313</title>
<g id="a_node3"><a xlink:href="xcsf_8h.html#aee465caea59599a71fc69528598156cb" target="_top" xlink:title="Executes MAX_TRIALS number of XCSF learning iterations using the training. data and test iterations u...">
<polygon fill="none" stroke="#000000" points="200.5,-76.5 200.5,-95.5 249.5,-95.5 249.5,-76.5 200.5,-76.5"/>
<text text-anchor="middle" x="225" y="-83.5" font-family="Helvetica,sans-Serif" font-size="10.00" fill="#000000">xcsf_fit</text>
</a>
</g>
</g>
<!-- Node312&#45;&gt;Node313 -->
<g id="edge2" class="edge">
<title>Node312&#45;&gt;Node313</title>
<path fill="none" stroke="#191970" d="M160.6335,-61.2937C173.7356,-66.3228 188.3694,-71.9398 200.3691,-76.5457"/>
<polygon fill="#191970" stroke="#191970" points="161.572,-57.905 150.9819,-57.589 159.0635,-64.4401 161.572,-57.905"/>
</g>
<!-- Node317 -->
<g id="node7" class="node">
<title>Node317</title>
<g id="a_node7"><a xlink:href="xcsf_8h.html#af128a7da769acabe2e841e8d06749b0b" target="_top" xlink:title="Calculates the XCSF predictions for the provided input. ">
<polygon fill="none" stroke="#000000" points="190,-38.5 190,-57.5 260,-57.5 260,-38.5 190,-38.5"/>
<text text-anchor="middle" x="225" y="-45.5" font-family="Helvetica,sans-Serif" font-size="10.00" fill="#000000">xcsf_predict</text>
</a>
</g>
</g>
<!-- Node312&#45;&gt;Node317 -->
<g id="edge6" class="edge">
<title>Node312&#45;&gt;Node317</title>
<path fill="none" stroke="#191970" d="M164.374,-48C172.7305,-48 181.533,-48 189.7609,-48"/>
<polygon fill="#191970" stroke="#191970" points="164.1046,-44.5001 154.1046,-48 164.1046,-51.5001 164.1046,-44.5001"/>
</g>
<!-- Node319 -->
<g id="node9" class="node">
<title>Node319</title>
<g id="a_node9"><a xlink:href="xcsf_8h.html#a348b8cd321211c377fb1deedc62c7c67" target="_top" xlink:title="Calculates the XCSF error for the input data. ">
<polygon fill="none" stroke="#000000" points="192.5,-.5 192.5,-19.5 257.5,-19.5 257.5,-.5 192.5,-.5"/>
<text text-anchor="middle" x="225" y="-7.5" font-family="Helvetica,sans-Serif" font-size="10.00" fill="#000000">xcsf_score</text>
</a>
</g>
</g>
<!-- Node312&#45;&gt;Node319 -->
<g id="edge9" class="edge">
<title>Node312&#45;&gt;Node319</title>
<path fill="none" stroke="#191970" d="M160.5577,-34.7354C173.5546,-29.7467 188.068,-24.1759 200.0261,-19.5859"/>
<polygon fill="#191970" stroke="#191970" points="159.0635,-31.5599 150.9819,-38.411 161.572,-38.095 159.0635,-31.5599"/>
</g>
<!-- Node314 -->
<g id="node4" class="node">
<title>Node314</title>
<g id="a_node4"><a xlink:href="main_8c.html#a3c04138a5bfe5d72780bb7e82a18e627" target="_top" xlink:title="main">
<polygon fill="none" stroke="#000000" points="313.5,-114.5 313.5,-133.5 351.5,-133.5 351.5,-114.5 313.5,-114.5"/>
<text text-anchor="middle" x="332.5" y="-121.5" font-family="Helvetica,sans-Serif" font-size="10.00" fill="#000000">main</text>
</a>
</g>
</g>
<!-- Node313&#45;&gt;Node314 -->
<g id="edge3" class="edge">
<title>Node313&#45;&gt;Node314</title>
<path fill="none" stroke="#191970" d="M259.1941,-98.0872C277.0797,-104.4096 298.3102,-111.9143 313.3083,-117.2159"/>
<polygon fill="#191970" stroke="#191970" points="260.2575,-94.7509 249.6627,-94.718 257.9245,-101.3507 260.2575,-94.7509"/>
</g>
<!-- Node315 -->
<g id="node5" class="node">
<title>Node315</title>
<g id="a_node5"><a xlink:href="classXCS.html#ac9a4a7cb0ec6238ef1d4d77996f8975b" target="_top" xlink:title="XCS::fit">
<polygon fill="none" stroke="#000000" points="306.5,-76.5 306.5,-95.5 358.5,-95.5 358.5,-76.5 306.5,-76.5"/>
<text text-anchor="middle" x="332.5" y="-83.5" font-family="Helvetica,sans-Serif" font-size="10.00" fill="#000000">XCS::fit</text>
</a>
</g>
</g>
<!-- Node313&#45;&gt;Node315 -->
<g id="edge4" class="edge">
<title>Node313&#45;&gt;Node315</title>
<path fill="none" stroke="#191970" d="M259.7302,-86C274.9112,-86 292.4162,-86 306.4526,-86"/>
<polygon fill="#191970" stroke="#191970" points="259.6627,-82.5001 249.6627,-86 259.6626,-89.5001 259.6627,-82.5001"/>
</g>
<!-- Node316 -->
<g id="node6" class="node">
<title>Node316</title>
<g id="a_node6"><a xlink:href="pybind__wrapper_8cpp.html#a9f26280e01308c4674f2473fb6f78730" target="_top" xlink:title="pybind11_init_xcsf">
<polygon fill="none" stroke="#000000" points="405,-38.5 405,-57.5 503,-57.5 503,-38.5 405,-38.5"/>
<text text-anchor="middle" x="454" y="-45.5" font-family="Helvetica,sans-Serif" font-size="10.00" fill="#000000">pybind11_init_xcsf</text>
</a>
</g>
</g>
<!-- Node315&#45;&gt;Node316 -->
<g id="edge5" class="edge">
<title>Node315&#45;&gt;Node316</title>
<path fill="none" stroke="#191970" d="M368.3919,-74.7746C385.8242,-69.3225 406.5565,-62.8383 423.2521,-57.6166"/>
<polygon fill="#191970" stroke="#191970" points="367.0641,-71.5226 358.5648,-77.848 369.1537,-78.2034 367.0641,-71.5226"/>
</g>
<!-- Node318 -->
<g id="node8" class="node">
<title>Node318</title>
<g id="a_node8"><a xlink:href="classXCS.html#a8e8db281054f9e5937610eed434cd4a5" target="_top" xlink:title="XCS::predict">
<polygon fill="none" stroke="#000000" points="296,-38.5 296,-57.5 369,-57.5 369,-38.5 296,-38.5"/>
<text text-anchor="middle" x="332.5" y="-45.5" font-family="Helvetica,sans-Serif" font-size="10.00" fill="#000000">XCS::predict</text>
</a>
</g>
</g>
<!-- Node317&#45;&gt;Node318 -->
<g id="edge7" class="edge">
<title>Node317&#45;&gt;Node318</title>
<path fill="none" stroke="#191970" d="M270.3353,-48C278.8091,-48 287.569,-48 295.7442,-48"/>
<polygon fill="#191970" stroke="#191970" points="270.1996,-44.5001 260.1995,-48 270.1995,-51.5001 270.1996,-44.5001"/>
</g>
<!-- Node318&#45;&gt;Node316 -->
<g id="edge8" class="edge">
<title>Node318&#45;&gt;Node316</title>
<path fill="none" stroke="#191970" d="M379.5277,-48C387.8057,-48 396.4423,-48 404.7783,-48"/>
<polygon fill="#191970" stroke="#191970" points="379.2838,-44.5001 369.2837,-48 379.2837,-51.5001 379.2838,-44.5001"/>
</g>
<!-- Node320 -->
<g id="node10" class="node">
<title>Node320</title>
<g id="a_node10"><a xlink:href="classXCS.html#ad32ffc841106ec036029e4c90a33b761" target="_top" xlink:title="XCS::score">
<polygon fill="none" stroke="#000000" points="298.5,-.5 298.5,-19.5 366.5,-19.5 366.5,-.5 298.5,-.5"/>
<text text-anchor="middle" x="332.5" y="-7.5" font-family="Helvetica,sans-Serif" font-size="10.00" fill="#000000">XCS::score</text>
</a>
</g>
</g>
<!-- Node319&#45;&gt;Node320 -->
<g id="edge10" class="edge">
<title>Node319&#45;&gt;Node320</title>
<path fill="none" stroke="#191970" d="M267.8079,-10C277.9033,-10 288.5364,-10 298.2,-10"/>
<polygon fill="#191970" stroke="#191970" points="267.5453,-6.5001 257.5453,-10 267.5452,-13.5001 267.5453,-6.5001"/>
</g>
<!-- Node320&#45;&gt;Node316 -->
<g id="edge11" class="edge">
<title>Node320&#45;&gt;Node316</title>
<path fill="none" stroke="#191970" d="M373.044,-22.6804C389.4606,-27.8148 408.0989,-33.6441 423.3502,-38.4141"/>
<polygon fill="#191970" stroke="#191970" points="373.7485,-19.2336 363.1596,-19.589 371.6589,-25.9145 373.7485,-19.2336"/>
</g>
</g>
</svg>
