<?xml version="1.0" encoding="UTF-8" standalone="no"?>
<!DOCTYPE svg PUBLIC "-//W3C//DTD SVG 1.1//EN"
 "http://www.w3.org/Graphics/SVG/1.1/DTD/svg11.dtd">
<!-- Generated by graphviz version 2.40.1 (20161225.0304)
 -->
<!-- Title: clset.h Pages: 1 -->
<svg width="750pt" height="84pt"
 viewBox="0.00 0.00 750.00 84.00" xmlns="http://www.w3.org/2000/svg" xmlns:xlink="http://www.w3.org/1999/xlink">
<g id="graph0" class="graph" transform="scale(1 1) rotate(0) translate(4 80)">
<title>clset.h</title>
<!-- Node1 -->
<g id="node1" class="node">
<title>Node1</title>
<polygon fill="#bfbfbf" stroke="#000000" points="271,-56.5 271,-75.5 317,-75.5 317,-56.5 271,-56.5"/>
<text text-anchor="middle" x="294" y="-63.5" font-family="Helvetica,sans-Serif" font-size="10.00" fill="#000000">clset.h</text>
</g>
<!-- Node2 -->
<g id="node2" class="node">
<title>Node2</title>
<g id="a_node2"><a xlink:href="clset_8c.html" target="_top" xlink:title="Functions operating on sets of classifiers. ">
<polygon fill="none" stroke="#000000" points="0,-.5 0,-19.5 46,-19.5 46,-.5 0,-.5"/>
<text text-anchor="middle" x="23" y="-7.5" font-family="Helvetica,sans-Serif" font-size="10.00" fill="#000000">clset.c</text>
</a>
</g>
</g>
<!-- Node1&#45;&gt;Node2 -->
<g id="edge1" class="edge">
<title>Node1&#45;&gt;Node2</title>
<path fill="none" stroke="#191970" d="M260.6434,-60.8011C214.2094,-53.2876 127.6105,-38.2711 55,-20 52.1777,-19.2898 49.2372,-18.4756 46.3323,-17.625"/>
<polygon fill="#191970" stroke="#191970" points="260.3099,-64.2922 270.7377,-62.4183 261.4173,-57.3803 260.3099,-64.2922"/>
</g>
<!-- Node3 -->
<g id="node3" class="node">
<title>Node3</title>
<g id="a_node3"><a xlink:href="ea_8c.html" target="_top" xlink:title="Evolutionary algorithm functions. ">
<polygon fill="none" stroke="#000000" points="64.5,-.5 64.5,-19.5 99.5,-19.5 99.5,-.5 64.5,-.5"/>
<text text-anchor="middle" x="82" y="-7.5" font-family="Helvetica,sans-Serif" font-size="10.00" fill="#000000">ea.c</text>
</a>
</g>
</g>
<!-- Node1&#45;&gt;Node3 -->
<g id="edge2" class="edge">
<title>Node1&#45;&gt;Node3</title>
<path fill="none" stroke="#191970" d="M261.1887,-58.9991C223.9695,-50.791 161.6122,-36.2291 109,-20 105.943,-19.057 102.727,-17.9605 99.6225,-16.8462"/>
<polygon fill="#191970" stroke="#191970" points="260.474,-62.4255 270.9908,-61.1419 261.9689,-55.587 260.474,-62.4255"/>
</g>
<!-- Node4 -->
<g id="node4" class="node">
<title>Node4</title>
<g id="a_node4"><a xlink:href="main_8c.html" target="_top" xlink:title="Main function for stand&#45;alone binary execution. ">
<polygon fill="none" stroke="#000000" points="118,-.5 118,-19.5 164,-19.5 164,-.5 118,-.5"/>
<text text-anchor="middle" x="141" y="-7.5" font-family="Helvetica,sans-Serif" font-size="10.00" fill="#000000">main.c</text>
</a>
</g>
</g>
<!-- Node1&#45;&gt;Node4 -->
<g id="edge3" class="edge">
<title>Node1&#45;&gt;Node4</title>
<path fill="none" stroke="#191970" d="M261.0451,-53.9381C231.9552,-43.2908 190.2702,-28.0336 164.4561,-18.5852"/>
<polygon fill="#191970" stroke="#191970" points="260.1688,-57.3444 270.7626,-57.4948 262.5749,-50.7708 260.1688,-57.3444"/>
</g>
<!-- Node5 -->
<g id="node5" class="node">
<title>Node5</title>
<g id="a_node5"><a xlink:href="perf_8c.html" target="_top" xlink:title="System performance printing. ">
<polygon fill="none" stroke="#000000" points="182.5,-.5 182.5,-19.5 223.5,-19.5 223.5,-.5 182.5,-.5"/>
<text text-anchor="middle" x="203" y="-7.5" font-family="Helvetica,sans-Serif" font-size="10.00" fill="#000000">perf.c</text>
</a>
</g>
</g>
<!-- Node1&#45;&gt;Node5 -->
<g id="edge4" class="edge">
<title>Node1&#45;&gt;Node5</title>
<path fill="none" stroke="#191970" d="M269.2496,-50.769C253.1242,-40.8456 232.574,-28.1994 218.6693,-19.6427"/>
<polygon fill="#191970" stroke="#191970" points="267.7981,-53.9853 278.149,-56.2455 271.4668,-48.0237 267.7981,-53.9853"/>
</g>
<!-- Node6 -->
<g id="node6" class="node">
<title>Node6</title>
<g id="a_node6"><a xlink:href="pybind__wrapper_8cpp.html" target="_top" xlink:title="Python library wrapper functions. ">
<polygon fill="none" stroke="#000000" points="242,-.5 242,-19.5 346,-19.5 346,-.5 242,-.5"/>
<text text-anchor="middle" x="294" y="-7.5" font-family="Helvetica,sans-Serif" font-size="10.00" fill="#000000">pybind_wrapper.cpp</text>
</a>
</g>
</g>
<!-- Node1&#45;&gt;Node6 -->
<g id="edge5" class="edge">
<title>Node1&#45;&gt;Node6</title>
<path fill="none" stroke="#191970" d="M294,-46.1575C294,-37.155 294,-26.9199 294,-19.6427"/>
<polygon fill="#191970" stroke="#191970" points="290.5001,-46.2455 294,-56.2455 297.5001,-46.2456 290.5001,-46.2455"/>
</g>
<!-- Node7 -->
<g id="node7" class="node">
<title>Node7</title>
<g id="a_node7"><a xlink:href="xcs__multi__step_8c.html" target="_top" xlink:title="Multi&#45;step reinforcement learning functions. ">
<polygon fill="none" stroke="#000000" points="364.5,-.5 364.5,-19.5 455.5,-19.5 455.5,-.5 364.5,-.5"/>
<text text-anchor="middle" x="410" y="-7.5" font-family="Helvetica,sans-Serif" font-size="10.00" fill="#000000">xcs_multi_step.c</text>
</a>
</g>
</g>
<!-- Node1&#45;&gt;Node7 -->
<g id="edge6" class="edge">
<title>Node1&#45;&gt;Node7</title>
<path fill="none" stroke="#191970" d="M323.0537,-51.9741C344.0565,-41.8348 371.8691,-28.408 390.3191,-19.5011"/>
<polygon fill="#191970" stroke="#191970" points="321.425,-48.8738 313.9411,-56.3733 324.4683,-55.1776 321.425,-48.8738"/>
</g>
<!-- Node8 -->
<g id="node8" class="node">
<title>Node8</title>
<g id="a_node8"><a xlink:href="xcs__single__step_8c.html" target="_top" xlink:title="Single&#45;step reinforcement learning functions. ">
<polygon fill="none" stroke="#000000" points="473.5,-.5 473.5,-19.5 568.5,-19.5 568.5,-.5 473.5,-.5"/>
<text text-anchor="middle" x="521" y="-7.5" font-family="Helvetica,sans-Serif" font-size="10.00" fill="#000000">xcs_single_step.c</text>
</a>
</g>
</g>
<!-- Node1&#45;&gt;Node8 -->
<g id="edge7" class="edge">
<title>Node1&#45;&gt;Node8</title>
<path fill="none" stroke="#191970" d="M326.8313,-57.9007C368.0679,-47.7277 438.7088,-30.3009 482.4634,-19.5068"/>
<polygon fill="#191970" stroke="#191970" points="325.8858,-54.5289 317.0152,-60.3222 327.5624,-61.3251 325.8858,-54.5289"/>
</g>
<!-- Node9 -->
<g id="node9" class="node">
<title>Node9</title>
<g id="a_node9"><a xlink:href="xcs__supervised_8c.html" target="_top" xlink:title="Supervised regression learning functions. ">
<polygon fill="none" stroke="#000000" points="586.5,-.5 586.5,-19.5 679.5,-19.5 679.5,-.5 586.5,-.5"/>
<text text-anchor="middle" x="633" y="-7.5" font-family="Helvetica,sans-Serif" font-size="10.00" fill="#000000">xcs_supervised.c</text>
</a>
</g>
</g>
<!-- Node1&#45;&gt;Node9 -->
<g id="edge8" class="edge">
<title>Node1&#45;&gt;Node9</title>
<path fill="none" stroke="#191970" d="M327.4068,-60.8028C380.528,-52.4903 487.5049,-35.5542 578,-20 580.6782,-19.5397 583.4285,-19.0604 586.203,-18.5719"/>
<polygon fill="#191970" stroke="#191970" points="326.5573,-57.3929 317.2175,-62.3947 327.638,-64.309 326.5573,-57.3929"/>
</g>
<!-- Node10 -->
<g id="node10" class="node">
<title>Node10</title>
<g id="a_node10"><a xlink:href="xcsf_8c.html" target="_top" xlink:title="System&#45;level functions for initialising, saving, loading, etc. ">
<polygon fill="none" stroke="#000000" points="698,-.5 698,-19.5 742,-19.5 742,-.5 698,-.5"/>
<text text-anchor="middle" x="720" y="-7.5" font-family="Helvetica,sans-Serif" font-size="10.00" fill="#000000">xcsf.c</text>
</a>
</g>
</g>
<!-- Node1&#45;&gt;Node10 -->
<g id="edge9" class="edge">
<title>Node1&#45;&gt;Node10</title>
<path fill="none" stroke="#191970" d="M327.6157,-64.3118C396.2331,-60.3792 557.0792,-48.6684 689,-20 691.8735,-19.3755 694.8588,-18.5922 697.7917,-17.7402"/>
<polygon fill="#191970" stroke="#191970" points="327.2042,-60.8291 317.4134,-64.8775 327.5919,-67.8184 327.2042,-60.8291"/>
</g>
</g>
</svg>
