<?xml version="1.0" encoding="UTF-8" standalone="no"?>
<!DOCTYPE svg PUBLIC "-//W3C//DTD SVG 1.1//EN"
 "http://www.w3.org/Graphics/SVG/1.1/DTD/svg11.dtd">
<!-- Generated by graphviz version 2.40.1 (20161225.0304)
 -->
<!-- Title: clset_pop_roulette Pages: 1 -->
<svg width="1348pt" height="342pt"
 viewBox="0.00 0.00 1348.00 342.00" xmlns="http://www.w3.org/2000/svg" xmlns:xlink="http://www.w3.org/1999/xlink">
<g id="graph0" class="graph" transform="scale(1 1) rotate(0) translate(4 338)">
<title>clset_pop_roulette</title>
<!-- Node513 -->
<g id="node1" class="node">
<title>Node513</title>
<polygon fill="#bfbfbf" stroke="#000000" points="0,-214.5 0,-233.5 96,-233.5 96,-214.5 0,-214.5"/>
<text text-anchor="middle" x="48" y="-221.5" font-family="Helvetica,sans-Serif" font-size="10.00" fill="#000000">clset_pop_roulette</text>
</g>
<!-- Node514 -->
<g id="node2" class="node">
<title>Node514</title>
<g id="a_node2"><a xlink:href="clset_8c.html#a6dae2bd49bceef5337bcad19010098f8" target="_top" xlink:title="Deletes a single classifier from the population set. ">
<polygon fill="none" stroke="#000000" points="132,-214.5 132,-233.5 209,-233.5 209,-214.5 132,-214.5"/>
<text text-anchor="middle" x="170.5" y="-221.5" font-family="Helvetica,sans-Serif" font-size="10.00" fill="#000000">clset_pop_del</text>
</a>
</g>
</g>
<!-- Node513&#45;&gt;Node514 -->
<g id="edge1" class="edge">
<title>Node513&#45;&gt;Node514</title>
<path fill="none" stroke="#191970" d="M106.1386,-224C114.7888,-224 123.522,-224 131.6456,-224"/>
<polygon fill="#191970" stroke="#191970" points="106.0637,-220.5001 96.0637,-224 106.0636,-227.5001 106.0637,-220.5001"/>
</g>
<!-- Node515 -->
<g id="node3" class="node">
<title>Node515</title>
<g id="a_node3"><a xlink:href="clset_8h.html#ad87086ed11e5fdd6bffe41b8a34f3608" target="_top" xlink:title="Enforces the maximum population size limit. ">
<polygon fill="none" stroke="#000000" points="245,-214.5 245,-233.5 364,-233.5 364,-214.5 245,-214.5"/>
<text text-anchor="middle" x="304.5" y="-221.5" font-family="Helvetica,sans-Serif" font-size="10.00" fill="#000000">clset_pop_enforce_limit</text>
</a>
</g>
</g>
<!-- Node514&#45;&gt;Node515 -->
<g id="edge2" class="edge">
<title>Node514&#45;&gt;Node515</title>
<path fill="none" stroke="#191970" d="M219.4663,-224C227.7249,-224 236.3785,-224 244.8721,-224"/>
<polygon fill="#191970" stroke="#191970" points="219.2584,-220.5001 209.2584,-224 219.2583,-227.5001 219.2584,-220.5001"/>
</g>
<!-- Node516 -->
<g id="node4" class="node">
<title>Node516</title>
<g id="a_node4"><a xlink:href="clset_8c.html#afc4b91ff72294195a5462944b92ec9b2" target="_top" xlink:title="Ensures all possible actions are covered by the match set. ">
<polygon fill="none" stroke="#000000" points="400,-195.5 400,-214.5 467,-214.5 467,-195.5 400,-195.5"/>
<text text-anchor="middle" x="433.5" y="-202.5" font-family="Helvetica,sans-Serif" font-size="10.00" fill="#000000">clset_cover</text>
</a>
</g>
</g>
<!-- Node515&#45;&gt;Node516 -->
<g id="edge3" class="edge">
<title>Node515&#45;&gt;Node516</title>
<path fill="none" stroke="#191970" d="M374.1806,-213.737C383.0995,-212.4233 391.8853,-211.1293 399.8502,-209.9562"/>
<polygon fill="#191970" stroke="#191970" points="373.4744,-210.3031 364.0911,-215.223 374.4944,-217.2284 373.4744,-210.3031"/>
</g>
<!-- Node538 -->
<g id="node26" class="node">
<title>Node538</title>
<g id="a_node26"><a xlink:href="ea_8h.html#a3e63f4f98f4b3eb0de9a52a1abe1c225" target="_top" xlink:title="Executes the evolutionary algorithm (EA). ">
<polygon fill="none" stroke="#000000" points="523.5,-247.5 523.5,-266.5 552.5,-266.5 552.5,-247.5 523.5,-247.5"/>
<text text-anchor="middle" x="538" y="-254.5" font-family="Helvetica,sans-Serif" font-size="10.00" fill="#000000">ea</text>
</a>
</g>
</g>
<!-- Node515&#45;&gt;Node538 -->
<g id="edge32" class="edge">
<title>Node515&#45;&gt;Node538</title>
<path fill="none" stroke="#191970" d="M373.9649,-233.8173C426.4317,-241.2323 494.2296,-250.814 523.4955,-254.9501"/>
<polygon fill="#191970" stroke="#191970" points="374.4175,-230.3466 364.0261,-232.4127 373.4379,-237.2777 374.4175,-230.3466"/>
</g>
<!-- Node517 -->
<g id="node5" class="node">
<title>Node517</title>
<g id="a_node5"><a xlink:href="clset_8h.html#a460e3bd1d979c502e9e9d97d4253f97c" target="_top" xlink:title="Constructs the match set. ">
<polygon fill="none" stroke="#000000" points="503,-176.5 503,-195.5 573,-195.5 573,-176.5 503,-176.5"/>
<text text-anchor="middle" x="538" y="-183.5" font-family="Helvetica,sans-Serif" font-size="10.00" fill="#000000">clset_match</text>
</a>
</g>
</g>
<!-- Node516&#45;&gt;Node517 -->
<g id="edge4" class="edge">
<title>Node516&#45;&gt;Node517</title>
<path fill="none" stroke="#191970" d="M477.0725,-197.0777C485.7113,-195.507 494.6756,-193.8772 502.985,-192.3664"/>
<polygon fill="#191970" stroke="#191970" points="476.3522,-193.6512 467.1397,-198.8837 477.6045,-200.5383 476.3522,-193.6512"/>
</g>
<!-- Node518 -->
<g id="node6" class="node">
<title>Node518</title>
<g id="a_node6"><a xlink:href="xcs__multi__step_8c.html#a1e1c2a3094be715b468dda79cd59ebf3" target="_top" xlink:title="Executes a multi&#45;step trial using a built&#45;in environment. ">
<polygon fill="none" stroke="#000000" points="624,-252.5 624,-271.5 704,-271.5 704,-252.5 624,-252.5"/>
<text text-anchor="middle" x="664" y="-259.5" font-family="Helvetica,sans-Serif" font-size="10.00" fill="#000000">xcs_multi_trial</text>
</a>
</g>
</g>
<!-- Node517&#45;&gt;Node518 -->
<g id="edge5" class="edge">
<title>Node517&#45;&gt;Node518</title>
<path fill="none" stroke="#191970" d="M555.4098,-202.8414C569.0738,-215.3152 589.0609,-231.9894 609,-243 615.6327,-246.6626 623.0997,-249.81 630.3429,-252.4296"/>
<polygon fill="#191970" stroke="#191970" points="557.4715,-199.9776 547.7761,-195.7057 552.6914,-205.0913 557.4715,-199.9776"/>
</g>
<!-- Node521 -->
<g id="node9" class="node">
<title>Node521</title>
<g id="a_node9"><a xlink:href="xcs__single__step_8h.html#ae25a81ce7f997ab7167ab23daec18183" target="_top" xlink:title="Constructs the match set and selects an action to perform. ">
<polygon fill="none" stroke="#000000" points="612,-214.5 612,-233.5 716,-233.5 716,-214.5 612,-214.5"/>
<text text-anchor="middle" x="664" y="-221.5" font-family="Helvetica,sans-Serif" font-size="10.00" fill="#000000">xcs_single_decision</text>
</a>
</g>
</g>
<!-- Node517&#45;&gt;Node521 -->
<g id="edge8" class="edge">
<title>Node517&#45;&gt;Node521</title>
<path fill="none" stroke="#191970" d="M579.5644,-198.5353C596.7052,-203.7048 616.2496,-209.5991 632.2151,-214.4141"/>
<polygon fill="#191970" stroke="#191970" points="580.3798,-195.1256 569.7951,-195.589 578.3586,-201.8274 580.3798,-195.1256"/>
</g>
<!-- Node526 -->
<g id="node14" class="node">
<title>Node526</title>
<g id="a_node14"><a xlink:href="xcsf_8c.html#a2a65c7cb7cfe8e680b609ce8c4e36d56" target="_top" xlink:title="Executes a single XCSF learning trial. ">
<polygon fill="none" stroke="#000000" points="622.5,-176.5 622.5,-195.5 705.5,-195.5 705.5,-176.5 622.5,-176.5"/>
<text text-anchor="middle" x="664" y="-183.5" font-family="Helvetica,sans-Serif" font-size="10.00" fill="#000000">xcsf_learn_trial</text>
</a>
</g>
</g>
<!-- Node517&#45;&gt;Node526 -->
<g id="edge14" class="edge">
<title>Node517&#45;&gt;Node526</title>
<path fill="none" stroke="#191970" d="M583.4772,-186C596.1827,-186 609.9212,-186 622.391,-186"/>
<polygon fill="#191970" stroke="#191970" points="583.0981,-182.5001 573.098,-186 583.098,-189.5001 583.0981,-182.5001"/>
</g>
<!-- Node531 -->
<g id="node19" class="node">
<title>Node531</title>
<g id="a_node19"><a xlink:href="xcsf_8c.html#a3089cd4a65514a0a3030e5cb6e11ff7e" target="_top" xlink:title="Executes a single XCSF testing trial. ">
<polygon fill="none" stroke="#000000" points="625,-138.5 625,-157.5 703,-157.5 703,-138.5 625,-138.5"/>
<text text-anchor="middle" x="664" y="-145.5" font-family="Helvetica,sans-Serif" font-size="10.00" fill="#000000">xcsf_test_trial</text>
</a>
</g>
</g>
<!-- Node517&#45;&gt;Node531 -->
<g id="edge21" class="edge">
<title>Node517&#45;&gt;Node531</title>
<path fill="none" stroke="#191970" d="M579.5644,-173.4647C596.7052,-168.2952 616.2496,-162.4009 632.2151,-157.5859"/>
<polygon fill="#191970" stroke="#191970" points="578.3586,-170.1726 569.7951,-176.411 580.3798,-176.8744 578.3586,-170.1726"/>
</g>
<!-- Node534 -->
<g id="node22" class="node">
<title>Node534</title>
<g id="a_node22"><a xlink:href="xcsf_8h.html#a90b938e4ae2ef92284e8eabfcf4b7b7b" target="_top" xlink:title="Calculates the XCSF predictions for the provided input. ">
<polygon fill="none" stroke="#000000" points="776.5,-57.5 776.5,-76.5 846.5,-76.5 846.5,-57.5 776.5,-57.5"/>
<text text-anchor="middle" x="811.5" y="-64.5" font-family="Helvetica,sans-Serif" font-size="10.00" fill="#000000">xcsf_predict</text>
</a>
</g>
</g>
<!-- Node517&#45;&gt;Node534 -->
<g id="edge26" class="edge">
<title>Node517&#45;&gt;Node534</title>
<path fill="none" stroke="#191970" d="M555.2995,-168.9547C568.9056,-156.3738 588.8686,-139.6548 609,-129 663.9188,-99.9335 734.5784,-82.2239 776.2621,-73.5439"/>
<polygon fill="#191970" stroke="#191970" points="552.5491,-166.7397 547.7046,-176.1621 557.3676,-171.8173 552.5491,-166.7397"/>
</g>
<!-- Node536 -->
<g id="node24" class="node">
<title>Node536</title>
<g id="a_node24"><a xlink:href="xcsf_8h.html#aeb5e08c233a6b01b6a6d1560ef0927fc" target="_top" xlink:title="Prints the XCSF match set for the supplied input. ">
<polygon fill="none" stroke="#000000" points="609,-5.5 609,-24.5 719,-24.5 719,-5.5 609,-5.5"/>
<text text-anchor="middle" x="664" y="-12.5" font-family="Helvetica,sans-Serif" font-size="10.00" fill="#000000">xcsf_print_match_set</text>
</a>
</g>
</g>
<!-- Node517&#45;&gt;Node536 -->
<g id="edge29" class="edge">
<title>Node517&#45;&gt;Node536</title>
<path fill="none" stroke="#191970" d="M548.8046,-167.6442C562.087,-145.5174 585.7382,-107.5048 609,-77 623.8325,-57.5491 643.2194,-36.5908 654.5711,-24.7044"/>
<polygon fill="#191970" stroke="#191970" points="545.7312,-165.9647 543.624,-176.3479 551.7463,-169.5451 545.7312,-165.9647"/>
</g>
<!-- Node519 -->
<g id="node7" class="node">
<title>Node519</title>
<g id="a_node7"><a xlink:href="xcs__multi__step_8h.html#acc29d4a55dbd56c16ea5f19f15a7c677" target="_top" xlink:title="Executes a multi&#45;step reinforcement learning experiment. ">
<polygon fill="none" stroke="#000000" points="906,-295.5 906,-314.5 1010,-314.5 1010,-295.5 906,-295.5"/>
<text text-anchor="middle" x="958" y="-302.5" font-family="Helvetica,sans-Serif" font-size="10.00" fill="#000000">xcs_multi_step_exp</text>
</a>
</g>
</g>
<!-- Node518&#45;&gt;Node519 -->
<g id="edge6" class="edge">
<title>Node518&#45;&gt;Node519</title>
<path fill="none" stroke="#191970" d="M705.1133,-274.378C720.6231,-278.6406 738.5039,-283.0732 755,-286 805.8851,-295.0281 864.7564,-299.9384 905.954,-302.4913"/>
<polygon fill="#191970" stroke="#191970" points="705.8761,-270.9569 695.302,-271.619 703.9811,-277.6955 705.8761,-270.9569"/>
</g>
<!-- Node520 -->
<g id="node8" class="node">
<title>Node520</title>
<g id="a_node8"><a xlink:href="main_8c.html#a3c04138a5bfe5d72780bb7e82a18e627" target="_top" xlink:title="main">
<polygon fill="none" stroke="#000000" points="1084,-257.5 1084,-276.5 1122,-276.5 1122,-257.5 1084,-257.5"/>
<text text-anchor="middle" x="1103" y="-264.5" font-family="Helvetica,sans-Serif" font-size="10.00" fill="#000000">main</text>
</a>
</g>
</g>
<!-- Node519&#45;&gt;Node520 -->
<g id="edge7" class="edge">
<title>Node519&#45;&gt;Node520</title>
<path fill="none" stroke="#191970" d="M1004.5673,-292.7962C1031.394,-285.7657 1063.6769,-277.3054 1083.7732,-272.0387"/>
<polygon fill="#191970" stroke="#191970" points="1003.3757,-289.4902 994.5896,-295.411 1005.1503,-296.2615 1003.3757,-289.4902"/>
</g>
<!-- Node522 -->
<g id="node10" class="node">
<title>Node522</title>
<g id="a_node10"><a xlink:href="structXCS.html#a94d556a5e545ec415d7165d5e91b21d4" target="_top" xlink:title="XCS::single_decision">
<polygon fill="none" stroke="#000000" points="1048,-181.5 1048,-200.5 1158,-200.5 1158,-181.5 1048,-181.5"/>
<text text-anchor="middle" x="1103" y="-188.5" font-family="Helvetica,sans-Serif" font-size="10.00" fill="#000000">XCS::single_decision</text>
</a>
</g>
</g>
<!-- Node521&#45;&gt;Node522 -->
<g id="edge9" class="edge">
<title>Node521&#45;&gt;Node522</title>
<path fill="none" stroke="#191970" d="M726.219,-219.3229C812.1651,-212.8623 965.8695,-201.3082 1047.8847,-195.1431"/>
<polygon fill="#191970" stroke="#191970" points="725.7925,-215.845 716.083,-220.0849 726.3172,-222.8253 725.7925,-215.845"/>
</g>
<!-- Node524 -->
<g id="node12" class="node">
<title>Node524</title>
<g id="a_node12"><a xlink:href="xcs__single__step_8c.html#a3d1fd2472d35310800aed897219a65af" target="_top" xlink:title="Executes a single&#45;step trial using a built&#45;in environment. ">
<polygon fill="none" stroke="#000000" points="769.5,-257.5 769.5,-276.5 853.5,-276.5 853.5,-257.5 769.5,-257.5"/>
<text text-anchor="middle" x="811.5" y="-264.5" font-family="Helvetica,sans-Serif" font-size="10.00" fill="#000000">xcs_single_trial</text>
</a>
</g>
</g>
<!-- Node521&#45;&gt;Node524 -->
<g id="edge11" class="edge">
<title>Node521&#45;&gt;Node524</title>
<path fill="none" stroke="#191970" d="M706.5893,-236.4159C729.6055,-243.1257 757.5833,-251.2819 778.8565,-257.4836"/>
<polygon fill="#191970" stroke="#191970" points="707.315,-232.9818 696.735,-233.5431 705.3558,-239.702 707.315,-232.9818"/>
</g>
<!-- Node523 -->
<g id="node11" class="node">
<title>Node523</title>
<g id="a_node11"><a xlink:href="python__wrapper_8cpp.html#afbdcc1358036a0b83a6b239da2b098a2" target="_top" xlink:title="BOOST_PYTHON_MODULE">
<polygon fill="none" stroke="#000000" points="1194,-86.5 1194,-105.5 1340,-105.5 1340,-86.5 1194,-86.5"/>
<text text-anchor="middle" x="1267" y="-93.5" font-family="Helvetica,sans-Serif" font-size="10.00" fill="#000000">BOOST_PYTHON_MODULE</text>
</a>
</g>
</g>
<!-- Node522&#45;&gt;Node523 -->
<g id="edge10" class="edge">
<title>Node522&#45;&gt;Node523</title>
<path fill="none" stroke="#191970" d="M1128.4912,-176.2338C1162.4456,-156.565 1221.5655,-122.3188 1250.3283,-105.6574"/>
<polygon fill="#191970" stroke="#191970" points="1126.5264,-173.327 1119.6277,-181.3681 1130.0352,-179.3842 1126.5264,-173.327"/>
</g>
<!-- Node525 -->
<g id="node13" class="node">
<title>Node525</title>
<g id="a_node13"><a xlink:href="xcs__single__step_8h.html#a39a031bf59eaa9b33e30e614610dcda8" target="_top" xlink:title="Executes a single&#45;step experiment. ">
<polygon fill="none" stroke="#000000" points="904,-257.5 904,-276.5 1012,-276.5 1012,-257.5 904,-257.5"/>
<text text-anchor="middle" x="958" y="-264.5" font-family="Helvetica,sans-Serif" font-size="10.00" fill="#000000">xcs_single_step_exp</text>
</a>
</g>
</g>
<!-- Node524&#45;&gt;Node525 -->
<g id="edge12" class="edge">
<title>Node524&#45;&gt;Node525</title>
<path fill="none" stroke="#191970" d="M864.0389,-267C877.0094,-267 890.9239,-267 903.9641,-267"/>
<polygon fill="#191970" stroke="#191970" points="863.8739,-263.5001 853.8739,-267 863.8738,-270.5001 863.8739,-263.5001"/>
</g>
<!-- Node525&#45;&gt;Node520 -->
<g id="edge13" class="edge">
<title>Node525&#45;&gt;Node520</title>
<path fill="none" stroke="#191970" d="M1022.5275,-267C1044.7805,-267 1068.0477,-267 1083.8059,-267"/>
<polygon fill="#191970" stroke="#191970" points="1022.4052,-263.5001 1012.4052,-267 1022.4052,-270.5001 1022.4052,-263.5001"/>
</g>
<!-- Node527 -->
<g id="node15" class="node">
<title>Node527</title>
<g id="a_node15"><a xlink:href="xcsf_8h.html#a40f4dfe69c6480f25c55d21c44746eb8" target="_top" xlink:title="Executes MAX_TRIALS number of XCSF learning iterations using the training. data and test iterations u...">
<polygon fill="none" stroke="#000000" points="784.5,-143.5 784.5,-162.5 838.5,-162.5 838.5,-143.5 784.5,-143.5"/>
<text text-anchor="middle" x="811.5" y="-150.5" font-family="Helvetica,sans-Serif" font-size="10.00" fill="#000000">xcsf_fit2</text>
</a>
</g>
</g>
<!-- Node526&#45;&gt;Node527 -->
<g id="edge15" class="edge">
<title>Node526&#45;&gt;Node527</title>
<path fill="none" stroke="#191970" d="M715.8959,-174.3894C739.0137,-169.2173 765.2809,-163.3405 784.4248,-159.0575"/>
<polygon fill="#191970" stroke="#191970" points="714.8676,-171.0328 705.873,-176.6318 716.396,-177.864 714.8676,-171.0328"/>
</g>
<!-- Node527&#45;&gt;Node520 -->
<g id="edge16" class="edge">
<title>Node527&#45;&gt;Node520</title>
<path fill="none" stroke="#191970" d="M845.5064,-166.2993C907.1813,-190.4191 1035.5759,-240.6317 1083.9819,-259.5624"/>
<polygon fill="#191970" stroke="#191970" points="846.4397,-162.9061 835.8517,-162.5235 843.8901,-169.4253 846.4397,-162.9061"/>
</g>
<!-- Node528 -->
<g id="node16" class="node">
<title>Node528</title>
<g id="a_node16"><a xlink:href="structXCS.html#a7d53320740db8e846251bacd0238a9fb" target="_top" xlink:title="XCS::fit">
<polygon fill="none" stroke="#000000" points="932,-143.5 932,-162.5 984,-162.5 984,-143.5 932,-143.5"/>
<text text-anchor="middle" x="958" y="-150.5" font-family="Helvetica,sans-Serif" font-size="10.00" fill="#000000">XCS::fit</text>
</a>
</g>
</g>
<!-- Node527&#45;&gt;Node528 -->
<g id="edge17" class="edge">
<title>Node527&#45;&gt;Node528</title>
<path fill="none" stroke="#191970" d="M848.9437,-153C874.9137,-153 908.8473,-153 931.9182,-153"/>
<polygon fill="#191970" stroke="#191970" points="848.7122,-149.5001 838.7122,-153 848.7122,-156.5001 848.7122,-149.5001"/>
</g>
<!-- Node529 -->
<g id="node17" class="node">
<title>Node529</title>
<g id="a_node17"><a xlink:href="xcsf_8h.html#afd4a983899f1980887b8375e40b32a72" target="_top" xlink:title="Executes MAX_TRIALS number of XCSF learning iterations using the training data. ">
<polygon fill="none" stroke="#000000" points="931,-105.5 931,-124.5 985,-124.5 985,-105.5 931,-105.5"/>
<text text-anchor="middle" x="958" y="-112.5" font-family="Helvetica,sans-Serif" font-size="10.00" fill="#000000">xcsf_fit1</text>
</a>
</g>
</g>
<!-- Node527&#45;&gt;Node529 -->
<g id="edge18" class="edge">
<title>Node527&#45;&gt;Node529</title>
<path fill="none" stroke="#191970" d="M848.4693,-143.4107C874.1336,-136.7538 907.7471,-128.0349 930.9335,-122.0207"/>
<polygon fill="#191970" stroke="#191970" points="847.5131,-140.0428 838.7122,-145.9415 849.2707,-146.8186 847.5131,-140.0428"/>
</g>
<!-- Node530 -->
<g id="node18" class="node">
<title>Node530</title>
<g id="a_node18"><a xlink:href="structXCS.html#ad2ccafe59d2b4ae6d0e1cbc15edee53c" target="_top" xlink:title="XCS::fit">
<polygon fill="none" stroke="#000000" points="1077,-105.5 1077,-124.5 1129,-124.5 1129,-105.5 1077,-105.5"/>
<text text-anchor="middle" x="1103" y="-112.5" font-family="Helvetica,sans-Serif" font-size="10.00" fill="#000000">XCS::fit</text>
</a>
</g>
</g>
<!-- Node529&#45;&gt;Node530 -->
<g id="edge19" class="edge">
<title>Node529&#45;&gt;Node530</title>
<path fill="none" stroke="#191970" d="M995.3422,-115C1020.8746,-115 1054.0827,-115 1076.8256,-115"/>
<polygon fill="#191970" stroke="#191970" points="995.2734,-111.5001 985.2734,-115 995.2734,-118.5001 995.2734,-111.5001"/>
</g>
<!-- Node530&#45;&gt;Node523 -->
<g id="edge20" class="edge">
<title>Node530&#45;&gt;Node523</title>
<path fill="none" stroke="#191970" d="M1139.4003,-110.7829C1155.5152,-108.9159 1175.0749,-106.6499 1193.9889,-104.4586"/>
<polygon fill="#191970" stroke="#191970" points="1138.8802,-107.3196 1129.3494,-111.9473 1139.6858,-114.2731 1138.8802,-107.3196"/>
</g>
<!-- Node531&#45;&gt;Node527 -->
<g id="edge22" class="edge">
<title>Node531&#45;&gt;Node527</title>
<path fill="none" stroke="#191970" d="M713.3635,-149.6733C737.0342,-150.4757 764.4816,-151.4062 784.32,-152.0786"/>
<polygon fill="#191970" stroke="#191970" points="713.2529,-146.1677 703.14,-149.3268 713.0157,-153.1637 713.2529,-146.1677"/>
</g>
<!-- Node532 -->
<g id="node20" class="node">
<title>Node532</title>
<g id="a_node20"><a xlink:href="xcsf_8h.html#a348b8cd321211c377fb1deedc62c7c67" target="_top" xlink:title="Calculates the XCSF error for the input data. ">
<polygon fill="none" stroke="#000000" points="779,-100.5 779,-119.5 844,-119.5 844,-100.5 779,-100.5"/>
<text text-anchor="middle" x="811.5" y="-107.5" font-family="Helvetica,sans-Serif" font-size="10.00" fill="#000000">xcsf_score</text>
</a>
</g>
</g>
<!-- Node531&#45;&gt;Node532 -->
<g id="edge23" class="edge">
<title>Node531&#45;&gt;Node532</title>
<path fill="none" stroke="#191970" d="M711.0695,-135.8736C733.1448,-130.1864 758.9063,-123.5496 778.8107,-118.4216"/>
<polygon fill="#191970" stroke="#191970" points="710.0311,-132.5268 701.2205,-138.411 711.7775,-139.3054 710.0311,-132.5268"/>
</g>
<!-- Node533 -->
<g id="node21" class="node">
<title>Node533</title>
<g id="a_node21"><a xlink:href="structXCS.html#aa77bc77484d6d14bf512304a23cfec88" target="_top" xlink:title="XCS::score">
<polygon fill="none" stroke="#000000" points="1069,-67.5 1069,-86.5 1137,-86.5 1137,-67.5 1069,-67.5"/>
<text text-anchor="middle" x="1103" y="-74.5" font-family="Helvetica,sans-Serif" font-size="10.00" fill="#000000">XCS::score</text>
</a>
</g>
</g>
<!-- Node532&#45;&gt;Node533 -->
<g id="edge24" class="edge">
<title>Node532&#45;&gt;Node533</title>
<path fill="none" stroke="#191970" d="M854.3084,-103.0188C869.9225,-100.6052 887.7354,-98.0057 904,-96 961.695,-88.8851 1029.0835,-82.9467 1068.7811,-79.6912"/>
<polygon fill="#191970" stroke="#191970" points="853.7417,-99.5648 844.4036,-104.5699 854.8247,-106.4805 853.7417,-99.5648"/>
</g>
<!-- Node533&#45;&gt;Node523 -->
<g id="edge25" class="edge">
<title>Node533&#45;&gt;Node523</title>
<path fill="none" stroke="#191970" d="M1147.4237,-82.1467C1161.7375,-83.8049 1178.0002,-85.6891 1193.82,-87.5218"/>
<polygon fill="#191970" stroke="#191970" points="1147.7162,-78.6572 1137.3798,-80.983 1146.9105,-85.6107 1147.7162,-78.6572"/>
</g>
<!-- Node535 -->
<g id="node23" class="node">
<title>Node535</title>
<g id="a_node23"><a xlink:href="structXCS.html#a911ed75c86abed7807d33eb1385240ed" target="_top" xlink:title="XCS::predict">
<polygon fill="none" stroke="#000000" points="921.5,-29.5 921.5,-48.5 994.5,-48.5 994.5,-29.5 921.5,-29.5"/>
<text text-anchor="middle" x="958" y="-36.5" font-family="Helvetica,sans-Serif" font-size="10.00" fill="#000000">XCS::predict</text>
</a>
</g>
</g>
<!-- Node534&#45;&gt;Node535 -->
<g id="edge27" class="edge">
<title>Node534&#45;&gt;Node535</title>
<path fill="none" stroke="#191970" d="M856.4878,-58.4017C877.3127,-54.4215 901.7372,-49.7533 921.409,-45.9935"/>
<polygon fill="#191970" stroke="#191970" points="855.7555,-54.9782 846.5904,-60.2933 857.0697,-61.8537 855.7555,-54.9782"/>
</g>
<!-- Node535&#45;&gt;Node523 -->
<g id="edge28" class="edge">
<title>Node535&#45;&gt;Node523</title>
<path fill="none" stroke="#191970" d="M1004.7323,-40.265C1045.58,-42.1212 1106.2787,-46.7009 1158,-58 1188.7388,-64.7152 1222.771,-77.4861 1244.4957,-86.3594"/>
<polygon fill="#191970" stroke="#191970" points="1004.6726,-36.7596 994.5354,-39.8395 1004.3807,-43.7535 1004.6726,-36.7596"/>
</g>
<!-- Node537 -->
<g id="node25" class="node">
<title>Node537</title>
<g id="a_node25"><a xlink:href="structXCS.html#aa5608b379fae01b724267a99068d55bb" target="_top" xlink:title="XCS::print_match_set">
<polygon fill="none" stroke="#000000" points="755,-.5 755,-19.5 868,-19.5 868,-.5 755,-.5"/>
<text text-anchor="middle" x="811.5" y="-7.5" font-family="Helvetica,sans-Serif" font-size="10.00" fill="#000000">XCS::print_match_set</text>
</a>
</g>
</g>
<!-- Node536&#45;&gt;Node537 -->
<g id="edge30" class="edge">
<title>Node536&#45;&gt;Node537</title>
<path fill="none" stroke="#191970" d="M729.542,-12.7782C737.9872,-12.492 746.5777,-12.2008 754.8632,-11.9199"/>
<polygon fill="#191970" stroke="#191970" points="729.2189,-9.2871 719.3432,-13.124 729.4561,-16.2831 729.2189,-9.2871"/>
</g>
<!-- Node537&#45;&gt;Node523 -->
<g id="edge31" class="edge">
<title>Node537&#45;&gt;Node523</title>
<path fill="none" stroke="#191970" d="M878.3296,-6.9789C949.3681,-5.7331 1064.1711,-9.3967 1158,-39 1194.0466,-50.3728 1232.3542,-73.2676 1252.5644,-86.3149"/>
<polygon fill="#191970" stroke="#191970" points="878.0967,-3.483 868.1738,-7.1959 878.2463,-10.4814 878.0967,-3.483"/>
</g>
<!-- Node538&#45;&gt;Node518 -->
<g id="edge33" class="edge">
<title>Node538&#45;&gt;Node518</title>
<path fill="none" stroke="#191970" d="M563.3549,-258.0061C580.6509,-258.6925 603.9248,-259.6161 623.7349,-260.4022"/>
<polygon fill="#191970" stroke="#191970" points="563.0796,-254.4926 552.9486,-257.5932 562.802,-261.4871 563.0796,-254.4926"/>
</g>
<!-- Node538&#45;&gt;Node526 -->
<g id="edge38" class="edge">
<title>Node538&#45;&gt;Node526</title>
<path fill="none" stroke="#191970" d="M556.6206,-240.945C570.3757,-229.7075 589.9447,-214.9781 609,-205 615.8912,-201.3915 623.6127,-198.2348 631.0416,-195.5846"/>
<polygon fill="#191970" stroke="#191970" points="554.3,-238.3229 548.8641,-247.4169 558.7847,-243.6977 554.3,-238.3229"/>
</g>
<!-- Node539 -->
<g id="node27" class="node">
<title>Node539</title>
<g id="a_node27"><a xlink:href="xcs__single__step_8h.html#afd31e5406eeef1fb9b244f635a0f0408" target="_top" xlink:title="Creates the action set, updates the classifiers and runs the EA. ">
<polygon fill="none" stroke="#000000" points="615,-290.5 615,-309.5 713,-309.5 713,-290.5 615,-290.5"/>
<text text-anchor="middle" x="664" y="-297.5" font-family="Helvetica,sans-Serif" font-size="10.00" fill="#000000">xcs_single_update</text>
</a>
</g>
</g>
<!-- Node538&#45;&gt;Node539 -->
<g id="edge34" class="edge">
<title>Node538&#45;&gt;Node539</title>
<path fill="none" stroke="#191970" d="M562.4281,-265.3366C583.4135,-272.4982 613.681,-282.8276 635.7133,-290.3466"/>
<polygon fill="#191970" stroke="#191970" points="563.5432,-262.019 552.9486,-262.1015 561.2823,-268.6438 563.5432,-262.019"/>
</g>
<!-- Node539&#45;&gt;Node524 -->
<g id="edge37" class="edge">
<title>Node539&#45;&gt;Node524</title>
<path fill="none" stroke="#191970" d="M716.6397,-288.223C733.9726,-284.3451 753.0043,-280.0872 769.4421,-276.4096"/>
<polygon fill="#191970" stroke="#191970" points="715.6577,-284.8561 706.6631,-290.455 717.186,-291.6872 715.6577,-284.8561"/>
</g>
<!-- Node540 -->
<g id="node28" class="node">
<title>Node540</title>
<g id="a_node28"><a xlink:href="structXCS.html#aedc01ad6f00a54b260a7605929a1d4c9" target="_top" xlink:title="XCS::single_update">
<polygon fill="none" stroke="#000000" points="1051,-314.5 1051,-333.5 1155,-333.5 1155,-314.5 1051,-314.5"/>
<text text-anchor="middle" x="1103" y="-321.5" font-family="Helvetica,sans-Serif" font-size="10.00" fill="#000000">XCS::single_update</text>
</a>
</g>
</g>
<!-- Node539&#45;&gt;Node540 -->
<g id="edge35" class="edge">
<title>Node539&#45;&gt;Node540</title>
<path fill="none" stroke="#191970" d="M723.0797,-307.565C771.5835,-313.3763 842.1133,-320.9134 904,-324 953.6882,-326.4782 1010.4421,-326.1685 1050.591,-325.423"/>
<polygon fill="#191970" stroke="#191970" points="723.4231,-304.0811 713.0748,-306.3534 722.5815,-311.0304 723.4231,-304.0811"/>
</g>
<!-- Node540&#45;&gt;Node523 -->
<g id="edge36" class="edge">
<title>Node540&#45;&gt;Node523</title>
<path fill="none" stroke="#191970" d="M1129.4678,-309.1383C1139.1953,-302.8412 1149.82,-294.8955 1158,-286 1212.5711,-226.6557 1251.51,-135.3001 1263.2832,-105.6497"/>
<polygon fill="#191970" stroke="#191970" points="1127.5536,-306.2067 1120.8825,-314.4376 1131.2304,-312.1633 1127.5536,-306.2067"/>
</g>
</g>
</svg>
