<?xml version="1.0" encoding="UTF-8" standalone="no"?>
<!DOCTYPE svg PUBLIC "-//W3C//DTD SVG 1.1//EN"
 "http://www.w3.org/Graphics/SVG/1.1/DTD/svg11.dtd">
<!-- Generated by graphviz version 2.40.1 (20161225.0304)
 -->
<!-- Title: clset_pop_enforce_limit Pages: 1 -->
<svg width="812pt" height="218pt"
 viewBox="0.00 0.00 812.00 218.00" xmlns="http://www.w3.org/2000/svg" xmlns:xlink="http://www.w3.org/1999/xlink">
<g id="graph0" class="graph" transform="scale(1 1) rotate(0) translate(4 214)">
<title>clset_pop_enforce_limit</title>
<!-- Node250 -->
<g id="node1" class="node">
<title>Node250</title>
<polygon fill="#bfbfbf" stroke="#000000" points="0,-95.5 0,-114.5 119,-114.5 119,-95.5 0,-95.5"/>
<text text-anchor="middle" x="59.5" y="-102.5" font-family="Helvetica,sans-Serif" font-size="10.00" fill="#000000">clset_pop_enforce_limit</text>
</g>
<!-- Node251 -->
<g id="node2" class="node">
<title>Node251</title>
<g id="a_node2"><a xlink:href="clset_8c.html#a6dae2bd49bceef5337bcad19010098f8" target="_top" xlink:title="Deletes a single classifier from the population set. ">
<polygon fill="none" stroke="#000000" points="155,-95.5 155,-114.5 232,-114.5 232,-95.5 155,-95.5"/>
<text text-anchor="middle" x="193.5" y="-102.5" font-family="Helvetica,sans-Serif" font-size="10.00" fill="#000000">clset_pop_del</text>
</a>
</g>
</g>
<!-- Node250&#45;&gt;Node251 -->
<g id="edge1" class="edge">
<title>Node250&#45;&gt;Node251</title>
<path fill="none" stroke="#191970" d="M119.0547,-105C127.6064,-105 136.3219,-105 144.6346,-105"/>
<polygon fill="#191970" stroke="#191970" points="144.906,-108.5001 154.906,-105 144.9059,-101.5001 144.906,-108.5001"/>
</g>
<!-- Node252 -->
<g id="node3" class="node">
<title>Node252</title>
<g id="a_node3"><a xlink:href="cl_8c.html#a49f5a7f4f2f47ce1cf7f33b3769de7cc" target="_top" xlink:title="Returns the size of the classifier condition. ">
<polygon fill="none" stroke="#000000" points="268.5,-190.5 268.5,-209.5 342.5,-209.5 342.5,-190.5 268.5,-190.5"/>
<text text-anchor="middle" x="305.5" y="-197.5" font-family="Helvetica,sans-Serif" font-size="10.00" fill="#000000">cl_cond_size</text>
</a>
</g>
</g>
<!-- Node251&#45;&gt;Node252 -->
<g id="edge2" class="edge">
<title>Node251&#45;&gt;Node252</title>
<path fill="none" stroke="#191970" d="M201.3558,-114.8865C214.0855,-130.4385 240.5731,-160.9115 268,-181 270.0608,-182.5094 272.259,-183.9612 274.5186,-185.343"/>
<polygon fill="#191970" stroke="#191970" points="272.9407,-188.4707 283.3767,-190.2988 276.3585,-182.3618 272.9407,-188.4707"/>
</g>
<!-- Node254 -->
<g id="node5" class="node">
<title>Node254</title>
<g id="a_node5"><a xlink:href="cl_8c.html#aa0059f455cba46b3a1acb6b8a271b95f" target="_top" xlink:title="Returns the deletion vote of the classifier. ">
<polygon fill="none" stroke="#000000" points="272.5,-152.5 272.5,-171.5 338.5,-171.5 338.5,-152.5 272.5,-152.5"/>
<text text-anchor="middle" x="305.5" y="-159.5" font-family="Helvetica,sans-Serif" font-size="10.00" fill="#000000">cl_del_vote</text>
</a>
</g>
</g>
<!-- Node251&#45;&gt;Node254 -->
<g id="edge4" class="edge">
<title>Node251&#45;&gt;Node254</title>
<path fill="none" stroke="#191970" d="M212.1693,-114.5402C227.2334,-122.2339 248.9739,-133.3278 268,-143 270.9927,-144.5214 274.1207,-146.1095 277.2388,-147.6912"/>
<polygon fill="#191970" stroke="#191970" points="275.9157,-150.9445 286.4177,-152.3442 279.0808,-144.7009 275.9157,-150.9445"/>
</g>
<!-- Node255 -->
<g id="node6" class="node">
<title>Node255</title>
<g id="a_node6"><a xlink:href="cl_8c.html#a72d3cf213699a8d68d348ff75c2b2d49" target="_top" xlink:title="Returns the size of the classifier prediction. ">
<polygon fill="none" stroke="#000000" points="270,-114.5 270,-133.5 341,-133.5 341,-114.5 270,-114.5"/>
<text text-anchor="middle" x="305.5" y="-121.5" font-family="Helvetica,sans-Serif" font-size="10.00" fill="#000000">cl_pred_size</text>
</a>
</g>
</g>
<!-- Node251&#45;&gt;Node255 -->
<g id="edge5" class="edge">
<title>Node251&#45;&gt;Node255</title>
<path fill="none" stroke="#191970" d="M232.044,-111.5387C241.059,-113.068 250.7445,-114.7111 260.0294,-116.2862"/>
<polygon fill="#191970" stroke="#191970" points="259.452,-119.7382 269.8966,-117.9601 260.6229,-112.8368 259.452,-119.7382"/>
</g>
<!-- Node257 -->
<g id="node8" class="node">
<title>Node257</title>
<g id="a_node8"><a xlink:href="clset_8c.html#a73ab8d4cc3a3e4f70561c7f5bf20c265" target="_top" xlink:title="Adds a classifier to the set. ">
<polygon fill="none" stroke="#000000" points="276,-76.5 276,-95.5 335,-95.5 335,-76.5 276,-76.5"/>
<text text-anchor="middle" x="305.5" y="-83.5" font-family="Helvetica,sans-Serif" font-size="10.00" fill="#000000">clset_add</text>
</a>
</g>
</g>
<!-- Node251&#45;&gt;Node257 -->
<g id="edge7" class="edge">
<title>Node251&#45;&gt;Node257</title>
<path fill="none" stroke="#191970" d="M232.044,-98.4613C242.8811,-96.6228 254.6873,-94.62 265.6017,-92.7685"/>
<polygon fill="#191970" stroke="#191970" points="266.4582,-96.1733 275.7319,-91.0499 265.2874,-89.2719 266.4582,-96.1733"/>
</g>
<!-- Node258 -->
<g id="node9" class="node">
<title>Node258</title>
<g id="a_node9"><a xlink:href="clset_8c.html#a9a50c1393921d731b6840a654c366fb8" target="_top" xlink:title="Calculates the total fitness of classifiers in the set. ">
<polygon fill="none" stroke="#000000" points="268,-38.5 268,-57.5 343,-57.5 343,-38.5 268,-38.5"/>
<text text-anchor="middle" x="305.5" y="-45.5" font-family="Helvetica,sans-Serif" font-size="10.00" fill="#000000">clset_total_fit</text>
</a>
</g>
</g>
<!-- Node251&#45;&gt;Node258 -->
<g id="edge8" class="edge">
<title>Node251&#45;&gt;Node258</title>
<path fill="none" stroke="#191970" d="M212.1693,-95.4598C227.2334,-87.7661 248.9739,-76.6722 268,-67 270.9927,-65.4786 274.1207,-63.8905 277.2388,-62.3088"/>
<polygon fill="#191970" stroke="#191970" points="279.0808,-65.2991 286.4177,-57.6558 275.9157,-59.0555 279.0808,-65.2991"/>
</g>
<!-- Node259 -->
<g id="node10" class="node">
<title>Node259</title>
<g id="a_node10"><a xlink:href="utils_8c.html#ae42a9e1d467853befaa7922cfafed3bb" target="_top" xlink:title="Returns a uniform random float [min,max]. ">
<polygon fill="none" stroke="#000000" points="269,-.5 269,-19.5 342,-19.5 342,-.5 269,-.5"/>
<text text-anchor="middle" x="305.5" y="-7.5" font-family="Helvetica,sans-Serif" font-size="10.00" fill="#000000">rand_uniform</text>
</a>
</g>
</g>
<!-- Node251&#45;&gt;Node259 -->
<g id="edge9" class="edge">
<title>Node251&#45;&gt;Node259</title>
<path fill="none" stroke="#191970" d="M201.3558,-95.1135C214.0855,-79.5615 240.5731,-49.0885 268,-29 270.0608,-27.4906 272.259,-26.0388 274.5186,-24.657"/>
<polygon fill="#191970" stroke="#191970" points="276.3585,-27.6382 283.3767,-19.7012 272.9407,-21.5293 276.3585,-27.6382"/>
</g>
<!-- Node253 -->
<g id="node4" class="node">
<title>Node253</title>
<g id="a_node4"><a xlink:href="condition_8h.html#afc882c8ebd96835127f8e611b815d447" target="_top" xlink:title="cond_size">
<polygon fill="none" stroke="#000000" points="379,-190.5 379,-209.5 440,-209.5 440,-190.5 379,-190.5"/>
<text text-anchor="middle" x="409.5" y="-197.5" font-family="Helvetica,sans-Serif" font-size="10.00" fill="#000000">cond_size</text>
</a>
</g>
</g>
<!-- Node252&#45;&gt;Node253 -->
<g id="edge3" class="edge">
<title>Node252&#45;&gt;Node253</title>
<path fill="none" stroke="#191970" d="M342.7526,-200C351.1228,-200 360.0488,-200 368.5602,-200"/>
<polygon fill="#191970" stroke="#191970" points="368.6715,-203.5001 378.6715,-200 368.6715,-196.5001 368.6715,-203.5001"/>
</g>
<!-- Node256 -->
<g id="node7" class="node">
<title>Node256</title>
<g id="a_node7"><a xlink:href="prediction_8h.html#a60ead673b526125328224ec152916290" target="_top" xlink:title="pred_size">
<polygon fill="none" stroke="#000000" points="380,-114.5 380,-133.5 439,-133.5 439,-114.5 380,-114.5"/>
<text text-anchor="middle" x="409.5" y="-121.5" font-family="Helvetica,sans-Serif" font-size="10.00" fill="#000000">pred_size</text>
</a>
</g>
</g>
<!-- Node255&#45;&gt;Node256 -->
<g id="edge6" class="edge">
<title>Node255&#45;&gt;Node256</title>
<path fill="none" stroke="#191970" d="M341,-124C350.1493,-124 360.0589,-124 369.4232,-124"/>
<polygon fill="#191970" stroke="#191970" points="369.6945,-127.5001 379.6945,-124 369.6945,-120.5001 369.6945,-127.5001"/>
</g>
<!-- Node260 -->
<g id="node11" class="node">
<title>Node260</title>
<g id="a_node11"><a xlink:href="utils_8c.html#a101d27cdda714b7f17a06224c65cac56" target="_top" xlink:title="Returns a uniform random float [0,1]. ">
<polygon fill="none" stroke="#000000" points="389,-.5 389,-19.5 430,-19.5 430,-.5 389,-.5"/>
<text text-anchor="middle" x="409.5" y="-7.5" font-family="Helvetica,sans-Serif" font-size="10.00" fill="#000000">drand</text>
</a>
</g>
</g>
<!-- Node259&#45;&gt;Node260 -->
<g id="edge10" class="edge">
<title>Node259&#45;&gt;Node260</title>
<path fill="none" stroke="#191970" d="M342.1665,-10C354.1661,-10 367.362,-10 378.8681,-10"/>
<polygon fill="#191970" stroke="#191970" points="378.8772,-13.5001 388.8772,-10 378.8772,-6.5001 378.8772,-13.5001"/>
</g>
<!-- Node261 -->
<g id="node12" class="node">
<title>Node261</title>
<g id="a_node12"><a xlink:href="mt19937-64_8c.html#aa0b74daf51eca91df224d00f1730084a" target="_top" xlink:title="genrand64_real1">
<polygon fill="none" stroke="#000000" points="476,-.5 476,-19.5 564,-19.5 564,-.5 476,-.5"/>
<text text-anchor="middle" x="520" y="-7.5" font-family="Helvetica,sans-Serif" font-size="10.00" fill="#000000">genrand64_real1</text>
</a>
</g>
</g>
<!-- Node260&#45;&gt;Node261 -->
<g id="edge11" class="edge">
<title>Node260&#45;&gt;Node261</title>
<path fill="none" stroke="#191970" d="M430.0252,-10C440.1704,-10 452.9424,-10 465.6509,-10"/>
<polygon fill="#191970" stroke="#191970" points="465.7779,-13.5001 475.7778,-10 465.7778,-6.5001 465.7779,-13.5001"/>
</g>
<!-- Node262 -->
<g id="node13" class="node">
<title>Node262</title>
<g id="a_node13"><a xlink:href="mt19937-64_8c.html#a265bf48d20d6e0347371fcf4fe340e6d" target="_top" xlink:title="genrand64_int64">
<polygon fill="none" stroke="#000000" points="600,-.5 600,-19.5 688,-19.5 688,-.5 600,-.5"/>
<text text-anchor="middle" x="644" y="-7.5" font-family="Helvetica,sans-Serif" font-size="10.00" fill="#000000">genrand64_int64</text>
</a>
</g>
</g>
<!-- Node261&#45;&gt;Node262 -->
<g id="edge12" class="edge">
<title>Node261&#45;&gt;Node262</title>
<path fill="none" stroke="#191970" d="M564.0669,-10C572.2822,-10 580.957,-10 589.4432,-10"/>
<polygon fill="#191970" stroke="#191970" points="589.6572,-13.5001 599.6572,-10 589.6572,-6.5001 589.6572,-13.5001"/>
</g>
<!-- Node263 -->
<g id="node14" class="node">
<title>Node263</title>
<g id="a_node14"><a xlink:href="mt19937-64_8c.html#adf4127d44c2dc34fcb318d406131ef7c" target="_top" xlink:title="init_genrand64">
<polygon fill="none" stroke="#000000" points="724,-.5 724,-19.5 804,-19.5 804,-.5 724,-.5"/>
<text text-anchor="middle" x="764" y="-7.5" font-family="Helvetica,sans-Serif" font-size="10.00" fill="#000000">init_genrand64</text>
</a>
</g>
</g>
<!-- Node262&#45;&gt;Node263 -->
<g id="edge13" class="edge">
<title>Node262&#45;&gt;Node263</title>
<path fill="none" stroke="#191970" d="M688.0022,-10C696.3719,-10 705.1896,-10 713.7365,-10"/>
<polygon fill="#191970" stroke="#191970" points="713.9792,-13.5001 723.9792,-10 713.9792,-6.5001 713.9792,-13.5001"/>
</g>
</g>
</svg>
