<?xml version="1.0" encoding="UTF-8" standalone="no"?>
<!DOCTYPE svg PUBLIC "-//W3C//DTD SVG 1.1//EN"
 "http://www.w3.org/Graphics/SVG/1.1/DTD/svg11.dtd">
<!-- Generated by graphviz version 2.40.1 (20161225.0304)
 -->
<!-- Title: clset_mean_layers Pages: 1 -->
<svg width="455pt" height="39pt"
 viewBox="0.00 0.00 455.00 39.00" xmlns="http://www.w3.org/2000/svg" xmlns:xlink="http://www.w3.org/1999/xlink">
<g id="graph0" class="graph" transform="scale(1 1) rotate(0) translate(4 35)">
<title>clset_mean_layers</title>
<!-- Node287 -->
<g id="node1" class="node">
<title>Node287</title>
<polygon fill="#bfbfbf" stroke="#000000" points="0,-6 0,-25 98,-25 98,-6 0,-6"/>
<text text-anchor="middle" x="49" y="-13" font-family="Helvetica,sans-Serif" font-size="10.00" fill="#000000">clset_mean_layers</text>
</g>
<!-- Node288 -->
<g id="node2" class="node">
<title>Node288</title>
<g id="a_node2"><a xlink:href="structXCS.html#a58ad19780e86b0ea47f65539678a4f5b" target="_top" xlink:title="XCS::get_pop_mean_pred\l_layers">
<polygon fill="none" stroke="#000000" points="134,-.5 134,-30.5 265,-30.5 265,-.5 134,-.5"/>
<text text-anchor="start" x="142" y="-18.5" font-family="Helvetica,sans-Serif" font-size="10.00" fill="#000000">XCS::get_pop_mean_pred</text>
<text text-anchor="middle" x="199.5" y="-7.5" font-family="Helvetica,sans-Serif" font-size="10.00" fill="#000000">_layers</text>
</a>
</g>
</g>
<!-- Node287&#45;&gt;Node288 -->
<g id="edge1" class="edge">
<title>Node287&#45;&gt;Node288</title>
<path fill="none" stroke="#191970" d="M108.364,-15.5C116.7689,-15.5 125.4507,-15.5 133.9639,-15.5"/>
<polygon fill="#191970" stroke="#191970" points="108.2794,-12.0001 98.2793,-15.5 108.2793,-19.0001 108.2794,-12.0001"/>
</g>
<!-- Node289 -->
<g id="node3" class="node">
<title>Node289</title>
<g id="a_node3"><a xlink:href="python__wrapper_8cpp.html#afbdcc1358036a0b83a6b239da2b098a2" target="_top" xlink:title="BOOST_PYTHON_MODULE">
<polygon fill="none" stroke="#000000" points="301,-6 301,-25 447,-25 447,-6 301,-6"/>
<text text-anchor="middle" x="374" y="-13" font-family="Helvetica,sans-Serif" font-size="10.00" fill="#000000">BOOST_PYTHON_MODULE</text>
</a>
</g>
</g>
<!-- Node288&#45;&gt;Node289 -->
<g id="edge2" class="edge">
<title>Node288&#45;&gt;Node289</title>
<path fill="none" stroke="#191970" d="M275.6266,-15.5C284.0269,-15.5 292.5669,-15.5 300.9284,-15.5"/>
<polygon fill="#191970" stroke="#191970" points="275.471,-12.0001 265.471,-15.5 275.4709,-19.0001 275.471,-12.0001"/>
</g>
</g>
</svg>
