<?xml version="1.0" encoding="UTF-8" standalone="no"?>
<!DOCTYPE svg PUBLIC "-//W3C//DTD SVG 1.1//EN"
 "http://www.w3.org/Graphics/SVG/1.1/DTD/svg11.dtd">
<!-- Generated by graphviz version 2.40.1 (20161225.0304)
 -->
<!-- Title: clset_mean_time Pages: 1 -->
<svg width="716pt" height="256pt"
 viewBox="0.00 0.00 716.00 256.00" xmlns="http://www.w3.org/2000/svg" xmlns:xlink="http://www.w3.org/1999/xlink">
<g id="graph0" class="graph" transform="scale(1 1) rotate(0) translate(4 252)">
<title>clset_mean_time</title>
<!-- Node193 -->
<g id="node1" class="node">
<title>Node193</title>
<polygon fill="#bfbfbf" stroke="#000000" points="0,-171.5 0,-190.5 91,-190.5 91,-171.5 0,-171.5"/>
<text text-anchor="middle" x="45.5" y="-178.5" font-family="Helvetica,sans-Serif" font-size="10.00" fill="#000000">clset_mean_time</text>
</g>
<!-- Node194 -->
<g id="node2" class="node">
<title>Node194</title>
<g id="a_node2"><a xlink:href="ea_8h.html#ae90a9b4131bb94462265b9c928499eb8" target="_top" xlink:title="Executes the evolutionary algorithm (EA). ">
<polygon fill="none" stroke="#000000" points="127,-171.5 127,-190.5 156,-190.5 156,-171.5 127,-171.5"/>
<text text-anchor="middle" x="141.5" y="-178.5" font-family="Helvetica,sans-Serif" font-size="10.00" fill="#000000">ea</text>
</a>
</g>
</g>
<!-- Node193&#45;&gt;Node194 -->
<g id="edge1" class="edge">
<title>Node193&#45;&gt;Node194</title>
<path fill="none" stroke="#191970" d="M101.5397,-181C110.934,-181 119.9054,-181 126.9588,-181"/>
<polygon fill="#191970" stroke="#191970" points="101.2508,-177.5001 91.2507,-181 101.2507,-184.5001 101.2508,-177.5001"/>
</g>
<!-- Node195 -->
<g id="node3" class="node">
<title>Node195</title>
<g id="a_node3"><a xlink:href="xcs__multi__step_8c.html#ad50c415970b4bfc42f469fb38c5e68fa" target="_top" xlink:title="Executes a multi&#45;step trial using a built&#45;in environment. ">
<polygon fill="none" stroke="#000000" points="201,-218.5 201,-237.5 281,-237.5 281,-218.5 201,-218.5"/>
<text text-anchor="middle" x="241" y="-225.5" font-family="Helvetica,sans-Serif" font-size="10.00" fill="#000000">xcs_multi_trial</text>
</a>
</g>
</g>
<!-- Node194&#45;&gt;Node195 -->
<g id="edge2" class="edge">
<title>Node194&#45;&gt;Node195</title>
<path fill="none" stroke="#191970" d="M165.4056,-192.2921C182.3056,-200.275 204.714,-210.8599 220.7373,-218.4287"/>
<polygon fill="#191970" stroke="#191970" points="166.7185,-189.0415 156.1816,-187.935 163.7287,-195.3709 166.7185,-189.0415"/>
</g>
<!-- Node198 -->
<g id="node6" class="node">
<title>Node198</title>
<g id="a_node6"><a xlink:href="xcs__single__step_8h.html#a0ff6b521f66224d56ef0e6f50f5781b9" target="_top" xlink:title="Creates the action set, updates the classifiers and runs the EA. ">
<polygon fill="none" stroke="#000000" points="192,-171.5 192,-190.5 290,-190.5 290,-171.5 192,-171.5"/>
<text text-anchor="middle" x="241" y="-178.5" font-family="Helvetica,sans-Serif" font-size="10.00" fill="#000000">xcs_single_update</text>
</a>
</g>
</g>
<!-- Node194&#45;&gt;Node198 -->
<g id="edge5" class="edge">
<title>Node194&#45;&gt;Node198</title>
<path fill="none" stroke="#191970" d="M166.2801,-181C174.0174,-181 182.8425,-181 191.6508,-181"/>
<polygon fill="#191970" stroke="#191970" points="166.1816,-177.5001 156.1816,-181 166.1815,-184.5001 166.1816,-177.5001"/>
</g>
<!-- Node203 -->
<g id="node11" class="node">
<title>Node203</title>
<g id="a_node11"><a xlink:href="xcsf_8c.html#af5fb604e81235fdcb2ed8925d9291f59" target="_top" xlink:title="Executes a single XCSF trial. ">
<polygon fill="none" stroke="#000000" points="213,-57.5 213,-76.5 269,-76.5 269,-57.5 213,-57.5"/>
<text text-anchor="middle" x="241" y="-64.5" font-family="Helvetica,sans-Serif" font-size="10.00" fill="#000000">xcsf_trial</text>
</a>
</g>
</g>
<!-- Node194&#45;&gt;Node203 -->
<g id="edge11" class="edge">
<title>Node194&#45;&gt;Node203</title>
<path fill="none" stroke="#191970" d="M156.7434,-163.5352C177.9778,-139.2063 215.7403,-95.9408 232.5382,-76.695"/>
<polygon fill="#191970" stroke="#191970" points="153.9221,-161.445 149.9833,-171.2804 159.1959,-166.048 153.9221,-161.445"/>
</g>
<!-- Node196 -->
<g id="node4" class="node">
<title>Node196</title>
<g id="a_node4"><a xlink:href="xcs__multi__step_8h.html#acc29d4a55dbd56c16ea5f19f15a7c677" target="_top" xlink:title="Executes a multi&#45;step reinforcement learning experiment. ">
<polygon fill="none" stroke="#000000" points="468,-228.5 468,-247.5 572,-247.5 572,-228.5 468,-228.5"/>
<text text-anchor="middle" x="520" y="-235.5" font-family="Helvetica,sans-Serif" font-size="10.00" fill="#000000">xcs_multi_step_exp</text>
</a>
</g>
</g>
<!-- Node195&#45;&gt;Node196 -->
<g id="edge3" class="edge">
<title>Node195&#45;&gt;Node196</title>
<path fill="none" stroke="#191970" d="M291.5047,-229.8102C341.4046,-231.5987 417.3872,-234.3221 467.8508,-236.1309"/>
<polygon fill="#191970" stroke="#191970" points="291.39,-226.3039 281.271,-229.4434 291.1392,-233.2994 291.39,-226.3039"/>
</g>
<!-- Node197 -->
<g id="node5" class="node">
<title>Node197</title>
<g id="a_node5"><a xlink:href="main_8c.html#a3c04138a5bfe5d72780bb7e82a18e627" target="_top" xlink:title="main">
<polygon fill="none" stroke="#000000" points="640,-190.5 640,-209.5 678,-209.5 678,-190.5 640,-190.5"/>
<text text-anchor="middle" x="659" y="-197.5" font-family="Helvetica,sans-Serif" font-size="10.00" fill="#000000">main</text>
</a>
</g>
</g>
<!-- Node196&#45;&gt;Node197 -->
<g id="edge4" class="edge">
<title>Node196&#45;&gt;Node197</title>
<path fill="none" stroke="#191970" d="M564.8597,-225.7362C590.1892,-218.8116 620.5345,-210.5157 639.7913,-205.2513"/>
<polygon fill="#191970" stroke="#191970" points="563.7986,-222.3978 555.0756,-228.411 565.6446,-229.15 563.7986,-222.3978"/>
</g>
<!-- Node199 -->
<g id="node7" class="node">
<title>Node199</title>
<g id="a_node7"><a xlink:href="classXCS.html#aedc01ad6f00a54b260a7605929a1d4c9" target="_top" xlink:title="XCS::single_update">
<polygon fill="none" stroke="#000000" points="326,-152.5 326,-171.5 430,-171.5 430,-152.5 326,-152.5"/>
<text text-anchor="middle" x="378" y="-159.5" font-family="Helvetica,sans-Serif" font-size="10.00" fill="#000000">XCS::single_update</text>
</a>
</g>
</g>
<!-- Node198&#45;&gt;Node199 -->
<g id="edge6" class="edge">
<title>Node198&#45;&gt;Node199</title>
<path fill="none" stroke="#191970" d="M300.2254,-172.7863C308.6549,-171.6172 317.2753,-170.4217 325.5632,-169.2723"/>
<polygon fill="#191970" stroke="#191970" points="299.4976,-169.3536 290.0732,-174.1942 300.4592,-176.2873 299.4976,-169.3536"/>
</g>
<!-- Node201 -->
<g id="node9" class="node">
<title>Node201</title>
<g id="a_node9"><a xlink:href="xcs__single__step_8c.html#a536ab4256e871e31959ea6e907455340" target="_top" xlink:title="Executes a single&#45;step trial using a built&#45;in environment. ">
<polygon fill="none" stroke="#000000" points="336,-190.5 336,-209.5 420,-209.5 420,-190.5 336,-190.5"/>
<text text-anchor="middle" x="378" y="-197.5" font-family="Helvetica,sans-Serif" font-size="10.00" fill="#000000">xcs_single_trial</text>
</a>
</g>
</g>
<!-- Node198&#45;&gt;Node201 -->
<g id="edge8" class="edge">
<title>Node198&#45;&gt;Node201</title>
<path fill="none" stroke="#191970" d="M300.0069,-189.1834C311.9825,-190.8443 324.3528,-192.5599 335.6154,-194.1218"/>
<polygon fill="#191970" stroke="#191970" points="300.4592,-185.7128 290.0732,-187.8058 299.4976,-192.6464 300.4592,-185.7128"/>
</g>
<!-- Node200 -->
<g id="node8" class="node">
<title>Node200</title>
<g id="a_node8"><a xlink:href="pybind__wrapper_8cpp.html#a9f26280e01308c4674f2473fb6f78730" target="_top" xlink:title="pybind11_init_xcsf">
<polygon fill="none" stroke="#000000" points="610,-57.5 610,-76.5 708,-76.5 708,-57.5 610,-57.5"/>
<text text-anchor="middle" x="659" y="-64.5" font-family="Helvetica,sans-Serif" font-size="10.00" fill="#000000">pybind11_init_xcsf</text>
</a>
</g>
</g>
<!-- Node199&#45;&gt;Node200 -->
<g id="edge7" class="edge">
<title>Node199&#45;&gt;Node200</title>
<path fill="none" stroke="#191970" d="M426.2146,-149.9595C466.2575,-139.4896 524.4693,-123.176 574,-105 597.066,-96.5356 622.7069,-84.7262 639.7334,-76.528"/>
<polygon fill="#191970" stroke="#191970" points="425.2436,-146.5954 416.442,-152.493 427.0003,-153.3714 425.2436,-146.5954"/>
</g>
<!-- Node202 -->
<g id="node10" class="node">
<title>Node202</title>
<g id="a_node10"><a xlink:href="xcs__single__step_8h.html#a39a031bf59eaa9b33e30e614610dcda8" target="_top" xlink:title="Executes a single&#45;step reinforcement learning experiment. ">
<polygon fill="none" stroke="#000000" points="466,-190.5 466,-209.5 574,-209.5 574,-190.5 466,-190.5"/>
<text text-anchor="middle" x="520" y="-197.5" font-family="Helvetica,sans-Serif" font-size="10.00" fill="#000000">xcs_single_step_exp</text>
</a>
</g>
</g>
<!-- Node201&#45;&gt;Node202 -->
<g id="edge9" class="edge">
<title>Node201&#45;&gt;Node202</title>
<path fill="none" stroke="#191970" d="M430.551,-200C442.0539,-200 454.2511,-200 465.8166,-200"/>
<polygon fill="#191970" stroke="#191970" points="430.2203,-196.5001 420.2202,-200 430.2202,-203.5001 430.2203,-196.5001"/>
</g>
<!-- Node202&#45;&gt;Node197 -->
<g id="edge10" class="edge">
<title>Node202&#45;&gt;Node197</title>
<path fill="none" stroke="#191970" d="M584.3039,-200C604.5242,-200 625.3344,-200 639.8368,-200"/>
<polygon fill="#191970" stroke="#191970" points="584.1391,-196.5001 574.139,-200 584.139,-203.5001 584.1391,-196.5001"/>
</g>
<!-- Node204 -->
<g id="node12" class="node">
<title>Node204</title>
<g id="a_node12"><a xlink:href="xcsf_8h.html#aee465caea59599a71fc69528598156cb" target="_top" xlink:title="Executes MAX_TRIALS number of XCSF learning iterations using the training. data and test iterations u...">
<polygon fill="none" stroke="#000000" points="353.5,-76.5 353.5,-95.5 402.5,-95.5 402.5,-76.5 353.5,-76.5"/>
<text text-anchor="middle" x="378" y="-83.5" font-family="Helvetica,sans-Serif" font-size="10.00" fill="#000000">xcsf_fit</text>
</a>
</g>
</g>
<!-- Node203&#45;&gt;Node204 -->
<g id="edge12" class="edge">
<title>Node203&#45;&gt;Node204</title>
<path fill="none" stroke="#191970" d="M279.1185,-72.2865C302.7972,-75.5704 332.5501,-79.6967 353.2027,-82.561"/>
<polygon fill="#191970" stroke="#191970" points="279.4406,-68.7978 269.0546,-70.8908 278.479,-75.7314 279.4406,-68.7978"/>
</g>
<!-- Node206 -->
<g id="node14" class="node">
<title>Node206</title>
<g id="a_node14"><a xlink:href="xcsf_8h.html#af128a7da769acabe2e841e8d06749b0b" target="_top" xlink:title="Calculates the XCSF predictions for the provided input. ">
<polygon fill="none" stroke="#000000" points="343,-38.5 343,-57.5 413,-57.5 413,-38.5 343,-38.5"/>
<text text-anchor="middle" x="378" y="-45.5" font-family="Helvetica,sans-Serif" font-size="10.00" fill="#000000">xcsf_predict</text>
</a>
</g>
</g>
<!-- Node203&#45;&gt;Node206 -->
<g id="edge16" class="edge">
<title>Node203&#45;&gt;Node206</title>
<path fill="none" stroke="#191970" d="M279.064,-61.721C299.0542,-58.9487 323.385,-55.5743 342.9157,-52.8657"/>
<polygon fill="#191970" stroke="#191970" points="278.479,-58.2686 269.0546,-63.1092 279.4406,-65.2022 278.479,-58.2686"/>
</g>
<!-- Node208 -->
<g id="node16" class="node">
<title>Node208</title>
<g id="a_node16"><a xlink:href="xcsf_8h.html#a348b8cd321211c377fb1deedc62c7c67" target="_top" xlink:title="Calculates the XCSF error for the input data. ">
<polygon fill="none" stroke="#000000" points="345.5,-.5 345.5,-19.5 410.5,-19.5 410.5,-.5 345.5,-.5"/>
<text text-anchor="middle" x="378" y="-7.5" font-family="Helvetica,sans-Serif" font-size="10.00" fill="#000000">xcsf_score</text>
</a>
</g>
</g>
<!-- Node203&#45;&gt;Node208 -->
<g id="edge19" class="edge">
<title>Node203&#45;&gt;Node208</title>
<path fill="none" stroke="#191970" d="M270.9163,-53.0094C287.1046,-45.5955 307.5173,-36.4974 326,-29 334.016,-25.7484 342.8227,-22.4347 350.8735,-19.5046"/>
<polygon fill="#191970" stroke="#191970" points="269.0541,-50.0138 261.4377,-57.3787 271.9845,-56.3709 269.0541,-50.0138"/>
</g>
<!-- Node204&#45;&gt;Node197 -->
<g id="edge13" class="edge">
<title>Node204&#45;&gt;Node197</title>
<path fill="none" stroke="#191970" d="M411.1003,-99.4286C470.3724,-123.4749 592.8314,-173.1558 639.9488,-192.271"/>
<polygon fill="#191970" stroke="#191970" points="412.0568,-96.0396 401.4746,-95.5235 409.4253,-102.5262 412.0568,-96.0396"/>
</g>
<!-- Node205 -->
<g id="node13" class="node">
<title>Node205</title>
<g id="a_node13"><a xlink:href="classXCS.html#ac9a4a7cb0ec6238ef1d4d77996f8975b" target="_top" xlink:title="XCS::fit">
<polygon fill="none" stroke="#000000" points="494,-76.5 494,-95.5 546,-95.5 546,-76.5 494,-76.5"/>
<text text-anchor="middle" x="520" y="-83.5" font-family="Helvetica,sans-Serif" font-size="10.00" fill="#000000">XCS::fit</text>
</a>
</g>
</g>
<!-- Node204&#45;&gt;Node205 -->
<g id="edge14" class="edge">
<title>Node204&#45;&gt;Node205</title>
<path fill="none" stroke="#191970" d="M412.8735,-86C437.8145,-86 470.8634,-86 493.6237,-86"/>
<polygon fill="#191970" stroke="#191970" points="412.7345,-82.5001 402.7345,-86 412.7345,-89.5001 412.7345,-82.5001"/>
</g>
<!-- Node205&#45;&gt;Node200 -->
<g id="edge15" class="edge">
<title>Node205&#45;&gt;Node200</title>
<path fill="none" stroke="#191970" d="M556.3776,-81.0275C572.7306,-78.7922 592.2768,-76.1204 609.9021,-73.7112"/>
<polygon fill="#191970" stroke="#191970" points="555.5787,-77.6041 546.1448,-82.4262 556.5267,-84.5396 555.5787,-77.6041"/>
</g>
<!-- Node207 -->
<g id="node15" class="node">
<title>Node207</title>
<g id="a_node15"><a xlink:href="classXCS.html#a8e8db281054f9e5937610eed434cd4a5" target="_top" xlink:title="XCS::predict">
<polygon fill="none" stroke="#000000" points="483.5,-38.5 483.5,-57.5 556.5,-57.5 556.5,-38.5 483.5,-38.5"/>
<text text-anchor="middle" x="520" y="-45.5" font-family="Helvetica,sans-Serif" font-size="10.00" fill="#000000">XCS::predict</text>
</a>
</g>
</g>
<!-- Node206&#45;&gt;Node207 -->
<g id="edge17" class="edge">
<title>Node206&#45;&gt;Node207</title>
<path fill="none" stroke="#191970" d="M423.2292,-48C442.6223,-48 464.9834,-48 483.3219,-48"/>
<polygon fill="#191970" stroke="#191970" points="423.1012,-44.5001 413.1011,-48 423.1011,-51.5001 423.1012,-44.5001"/>
</g>
<!-- Node207&#45;&gt;Node200 -->
<g id="edge18" class="edge">
<title>Node207&#45;&gt;Node200</title>
<path fill="none" stroke="#191970" d="M566.8196,-54.3998C580.6882,-56.2955 595.9099,-58.3762 609.9174,-60.2909"/>
<polygon fill="#191970" stroke="#191970" points="566.9025,-50.8787 556.5206,-52.992 565.9544,-57.8142 566.9025,-50.8787"/>
</g>
<!-- Node209 -->
<g id="node17" class="node">
<title>Node209</title>
<g id="a_node17"><a xlink:href="classXCS.html#ad32ffc841106ec036029e4c90a33b761" target="_top" xlink:title="XCS::score">
<polygon fill="none" stroke="#000000" points="486,-.5 486,-19.5 554,-19.5 554,-.5 486,-.5"/>
<text text-anchor="middle" x="520" y="-7.5" font-family="Helvetica,sans-Serif" font-size="10.00" fill="#000000">XCS::score</text>
</a>
</g>
</g>
<!-- Node208&#45;&gt;Node209 -->
<g id="edge20" class="edge">
<title>Node208&#45;&gt;Node209</title>
<path fill="none" stroke="#191970" d="M420.7215,-10C441.4707,-10 466.0715,-10 485.5932,-10"/>
<polygon fill="#191970" stroke="#191970" points="420.5777,-6.5001 410.5777,-10 420.5776,-13.5001 420.5777,-6.5001"/>
</g>
<!-- Node209&#45;&gt;Node200 -->
<g id="edge21" class="edge">
<title>Node209&#45;&gt;Node200</title>
<path fill="none" stroke="#191970" d="M558.0214,-22.936C563.4118,-24.8981 568.8648,-26.9527 574,-29 596.5228,-37.9793 621.8341,-49.4822 638.9336,-57.4686"/>
<polygon fill="#191970" stroke="#191970" points="559.0633,-19.5916 548.4686,-19.5256 556.7097,-26.1841 559.0633,-19.5916"/>
</g>
</g>
</svg>
