<?xml version="1.0" encoding="UTF-8" standalone="no"?>
<!DOCTYPE svg PUBLIC "-//W3C//DTD SVG 1.1//EN"
 "http://www.w3.org/Graphics/SVG/1.1/DTD/svg11.dtd">
<!-- Generated by graphviz version 2.40.1 (20161225.0304)
 -->
<!-- Title: clset_mean_eta Pages: 1 -->
<svg width="462pt" height="28pt"
 viewBox="0.00 0.00 462.00 28.00" xmlns="http://www.w3.org/2000/svg" xmlns:xlink="http://www.w3.org/1999/xlink">
<g id="graph0" class="graph" transform="scale(1 1) rotate(0) translate(4 24)">
<title>clset_mean_eta</title>
<!-- Node239 -->
<g id="node1" class="node">
<title>Node239</title>
<polygon fill="#bfbfbf" stroke="#000000" points="0,-.5 0,-19.5 86,-19.5 86,-.5 0,-.5"/>
<text text-anchor="middle" x="43" y="-7.5" font-family="Helvetica,sans-Serif" font-size="10.00" fill="#000000">clset_mean_eta</text>
</g>
<!-- Node240 -->
<g id="node2" class="node">
<title>Node240</title>
<g id="a_node2"><a xlink:href="$structXCS.html#a60e9750120f819fde4b2e3f398ca7f07" xlink:title="XCS::get_pop_mean_pred_eta">
<polygon fill="none" stroke="#000000" points="122,-.5 122,-19.5 272,-19.5 272,-.5 122,-.5"/>
<text text-anchor="middle" x="197" y="-7.5" font-family="Helvetica,sans-Serif" font-size="10.00" fill="#000000">XCS::get_pop_mean_pred_eta</text>
</a>
</g>
</g>
<!-- Node239&#45;&gt;Node240 -->
<g id="edge1" class="edge">
<title>Node239&#45;&gt;Node240</title>
<path fill="none" stroke="#191970" d="M96.4881,-10C104.7183,-10 113.3449,-10 121.9393,-10"/>
<polygon fill="#191970" stroke="#191970" points="96.3074,-6.5001 86.3074,-10 96.3074,-13.5001 96.3074,-6.5001"/>
</g>
<!-- Node241 -->
<g id="node3" class="node">
<title>Node241</title>
<g id="a_node3"><a xlink:href="$python__wrapper_8cpp.html#afbdcc1358036a0b83a6b239da2b098a2" xlink:title="BOOST_PYTHON_MODULE">
<polygon fill="none" stroke="#000000" points="308,-.5 308,-19.5 454,-19.5 454,-.5 308,-.5"/>
<text text-anchor="middle" x="381" y="-7.5" font-family="Helvetica,sans-Serif" font-size="10.00" fill="#000000">BOOST_PYTHON_MODULE</text>
</a>
</g>
</g>
<!-- Node240&#45;&gt;Node241 -->
<g id="edge2" class="edge">
<title>Node240&#45;&gt;Node241</title>
<path fill="none" stroke="#191970" d="M282.156,-10C290.7648,-10 299.4539,-10 307.9196,-10"/>
<polygon fill="#191970" stroke="#191970" points="282.1053,-6.5001 272.1052,-10 282.1052,-13.5001 282.1053,-6.5001"/>
</g>
</g>
</svg>
