<?xml version="1.0" encoding="UTF-8" standalone="no"?>
<!DOCTYPE svg PUBLIC "-//W3C//DTD SVG 1.1//EN"
 "http://www.w3.org/Graphics/SVG/1.1/DTD/svg11.dtd">
<!-- Generated by graphviz version 2.40.1 (20161225.0304)
 -->
<!-- Title: clset.c Pages: 1 -->
<svg width="807pt" height="84pt"
 viewBox="0.00 0.00 806.50 84.00" xmlns="http://www.w3.org/2000/svg" xmlns:xlink="http://www.w3.org/1999/xlink">
<g id="graph0" class="graph" transform="scale(1 1) rotate(0) translate(4 80)">
<title>clset.c</title>
<!-- Node0 -->
<g id="node1" class="node">
<title>Node0</title>
<polygon fill="#bfbfbf" stroke="#000000" points="368,-56.5 368,-75.5 414,-75.5 414,-56.5 368,-56.5"/>
<text text-anchor="middle" x="391" y="-63.5" font-family="Helvetica,sans-Serif" font-size="10.00" fill="#000000">clset.c</text>
</g>
<!-- Node1 -->
<g id="node2" class="node">
<title>Node1</title>
<polygon fill="none" stroke="#bfbfbf" points="0,-.5 0,-19.5 46,-19.5 46,-.5 0,-.5"/>
<text text-anchor="middle" x="23" y="-7.5" font-family="Helvetica,sans-Serif" font-size="10.00" fill="#000000">stdio.h</text>
</g>
<!-- Node0&#45;&gt;Node1 -->
<g id="edge1" class="edge">
<title>Node0&#45;&gt;Node1</title>
<path fill="none" stroke="#191970" d="M367.9513,-64.1796C314.6157,-59.6859 178.512,-46.6079 56.2017,-19.968"/>
<polygon fill="#191970" stroke="#191970" points="56.8173,-16.5196 46.297,-17.7738 55.3032,-23.3539 56.8173,-16.5196"/>
</g>
<!-- Node2 -->
<g id="node3" class="node">
<title>Node2</title>
<polygon fill="none" stroke="#bfbfbf" points="64,-.5 64,-19.5 112,-19.5 112,-.5 64,-.5"/>
<text text-anchor="middle" x="88" y="-7.5" font-family="Helvetica,sans-Serif" font-size="10.00" fill="#000000">stdlib.h</text>
</g>
<!-- Node0&#45;&gt;Node2 -->
<g id="edge2" class="edge">
<title>Node0&#45;&gt;Node2</title>
<path fill="none" stroke="#191970" d="M367.6882,-63.0329C322.2291,-57.0341 218.4472,-42.2962 121.9676,-19.995"/>
<polygon fill="#191970" stroke="#191970" points="122.5908,-16.5462 112.0558,-17.6706 120.9925,-23.3614 122.5908,-16.5462"/>
</g>
<!-- Node3 -->
<g id="node4" class="node">
<title>Node3</title>
<polygon fill="none" stroke="#bfbfbf" points="130.5,-.5 130.5,-19.5 179.5,-19.5 179.5,-.5 130.5,-.5"/>
<text text-anchor="middle" x="155" y="-7.5" font-family="Helvetica,sans-Serif" font-size="10.00" fill="#000000">string.h</text>
</g>
<!-- Node0&#45;&gt;Node3 -->
<g id="edge3" class="edge">
<title>Node0&#45;&gt;Node3</title>
<path fill="none" stroke="#191970" d="M367.8635,-61.2205C331.8978,-53.6863 260.2107,-38.2522 189.7614,-20.0792"/>
<polygon fill="#191970" stroke="#191970" points="190.3918,-16.6268 179.8328,-17.4973 188.63,-23.4015 190.3918,-16.6268"/>
</g>
<!-- Node4 -->
<g id="node5" class="node">
<title>Node4</title>
<polygon fill="none" stroke="#bfbfbf" points="198,-.5 198,-19.5 254,-19.5 254,-.5 198,-.5"/>
<text text-anchor="middle" x="226" y="-7.5" font-family="Helvetica,sans-Serif" font-size="10.00" fill="#000000">stdbool.h</text>
</g>
<!-- Node0&#45;&gt;Node4 -->
<g id="edge4" class="edge">
<title>Node0&#45;&gt;Node4</title>
<path fill="none" stroke="#191970" d="M367.7095,-58.0953C340.6599,-48.9149 295.6619,-33.6428 263.6318,-22.772"/>
<polygon fill="#191970" stroke="#191970" points="264.7363,-19.4508 254.1419,-19.5512 262.4865,-26.0795 264.7363,-19.4508"/>
</g>
<!-- Node5 -->
<g id="node6" class="node">
<title>Node5</title>
<polygon fill="none" stroke="#bfbfbf" points="272.5,-.5 272.5,-19.5 319.5,-19.5 319.5,-.5 272.5,-.5"/>
<text text-anchor="middle" x="296" y="-7.5" font-family="Helvetica,sans-Serif" font-size="10.00" fill="#000000">math.h</text>
</g>
<!-- Node0&#45;&gt;Node5 -->
<g id="edge5" class="edge">
<title>Node0&#45;&gt;Node5</title>
<path fill="none" stroke="#191970" d="M374.4523,-56.2455C359.7401,-47.5731 338.0112,-34.7645 321.1495,-24.825"/>
<polygon fill="#191970" stroke="#191970" points="322.7502,-21.7057 312.3581,-19.6427 319.1954,-27.736 322.7502,-21.7057"/>
</g>
<!-- Node6 -->
<g id="node7" class="node">
<title>Node6</title>
<polygon fill="none" stroke="#bfbfbf" points="338,-.5 338,-19.5 382,-19.5 382,-.5 338,-.5"/>
<text text-anchor="middle" x="360" y="-7.5" font-family="Helvetica,sans-Serif" font-size="10.00" fill="#000000">float.h</text>
</g>
<!-- Node0&#45;&gt;Node6 -->
<g id="edge6" class="edge">
<title>Node0&#45;&gt;Node6</title>
<path fill="none" stroke="#191970" d="M385.6002,-56.2455C381.3773,-48.617 375.3827,-37.7881 370.2559,-28.5267"/>
<polygon fill="#191970" stroke="#191970" points="373.2432,-26.6965 365.3379,-19.6427 367.119,-30.0867 373.2432,-26.6965"/>
</g>
<!-- Node7 -->
<g id="node8" class="node">
<title>Node7</title>
<g id="a_node8"><a xlink:href="xcsf_8h.html" target="_top" xlink:title="XCSF data structures. ">
<polygon fill="none" stroke="#000000" points="400,-.5 400,-19.5 444,-19.5 444,-.5 400,-.5"/>
<text text-anchor="middle" x="422" y="-7.5" font-family="Helvetica,sans-Serif" font-size="10.00" fill="#000000">xcsf.h</text>
</a>
</g>
</g>
<!-- Node0&#45;&gt;Node7 -->
<g id="edge7" class="edge">
<title>Node0&#45;&gt;Node7</title>
<path fill="none" stroke="#191970" d="M396.3998,-56.2455C400.6227,-48.617 406.6173,-37.7881 411.7441,-28.5267"/>
<polygon fill="#191970" stroke="#191970" points="414.881,-30.0867 416.6621,-19.6427 408.7568,-26.6965 414.881,-30.0867"/>
</g>
<!-- Node8 -->
<g id="node9" class="node">
<title>Node8</title>
<g id="a_node9"><a xlink:href="utils_8h.html" target="_top" xlink:title="Utility functions for random number handling, etc. ">
<polygon fill="none" stroke="#000000" points="462.5,-.5 462.5,-19.5 505.5,-19.5 505.5,-.5 462.5,-.5"/>
<text text-anchor="middle" x="484" y="-7.5" font-family="Helvetica,sans-Serif" font-size="10.00" fill="#000000">utils.h</text>
</a>
</g>
</g>
<!-- Node0&#45;&gt;Node8 -->
<g id="edge8" class="edge">
<title>Node0&#45;&gt;Node8</title>
<path fill="none" stroke="#191970" d="M407.1994,-56.2455C421.6018,-47.5731 442.8732,-34.7645 459.3799,-24.825"/>
<polygon fill="#191970" stroke="#191970" points="461.225,-27.7996 467.9863,-19.6427 457.614,-21.8028 461.225,-27.7996"/>
</g>
<!-- Node9 -->
<g id="node10" class="node">
<title>Node9</title>
<g id="a_node10"><a xlink:href="cl_8h.html" target="_top" xlink:title="Functions operating on classifiers. ">
<polygon fill="none" stroke="#000000" points="524,-.5 524,-19.5 556,-19.5 556,-.5 524,-.5"/>
<text text-anchor="middle" x="540" y="-7.5" font-family="Helvetica,sans-Serif" font-size="10.00" fill="#000000">cl.h</text>
</a>
</g>
</g>
<!-- Node0&#45;&gt;Node9 -->
<g id="edge9" class="edge">
<title>Node0&#45;&gt;Node9</title>
<path fill="none" stroke="#191970" d="M414.3774,-57.5275C437.5503,-49.0858 474.2737,-35.5925 514.4412,-20.1563"/>
<polygon fill="#191970" stroke="#191970" points="515.814,-23.3782 523.8856,-16.5152 513.2959,-16.8467 515.814,-23.3782"/>
</g>
<!-- Node10 -->
<g id="node11" class="node">
<title>Node10</title>
<g id="a_node11"><a xlink:href="clset_8h.html" target="_top" xlink:title="Functions operating on sets of classifiers. ">
<polygon fill="none" stroke="#000000" points="574,-.5 574,-19.5 620,-19.5 620,-.5 574,-.5"/>
<text text-anchor="middle" x="597" y="-7.5" font-family="Helvetica,sans-Serif" font-size="10.00" fill="#000000">clset.h</text>
</a>
</g>
</g>
<!-- Node0&#45;&gt;Node10 -->
<g id="edge10" class="edge">
<title>Node0&#45;&gt;Node10</title>
<path fill="none" stroke="#191970" d="M414.1694,-60.2235C445.838,-52.2533 504.6282,-37.1917 564.041,-20.1894"/>
<polygon fill="#191970" stroke="#191970" points="565.3233,-23.4625 573.9648,-17.3327 563.3868,-16.7357 565.3233,-23.4625"/>
</g>
<!-- Node11 -->
<g id="node12" class="node">
<title>Node11</title>
<g id="a_node12"><a xlink:href="prediction_8h.html" target="_top" xlink:title="Interface for classifier predictions. ">
<polygon fill="none" stroke="#000000" points="638.5,-.5 638.5,-19.5 705.5,-19.5 705.5,-.5 638.5,-.5"/>
<text text-anchor="middle" x="672" y="-7.5" font-family="Helvetica,sans-Serif" font-size="10.00" fill="#000000">prediction.h</text>
</a>
</g>
</g>
<!-- Node0&#45;&gt;Node11 -->
<g id="edge11" class="edge">
<title>Node0&#45;&gt;Node11</title>
<path fill="none" stroke="#191970" d="M414.0334,-61.8456C455.0125,-54.3909 543.49,-38.0093 628.4244,-20.0623"/>
<polygon fill="#191970" stroke="#191970" points="629.1709,-23.4819 638.2257,-17.9808 627.7167,-16.6346 629.1709,-23.4819"/>
</g>
<!-- Node12 -->
<g id="node13" class="node">
<title>Node12</title>
<g id="a_node13"><a xlink:href="pred__neural_8h.html" target="_top" xlink:title="Multi&#45;layer perceptron neural network prediction functions. ">
<polygon fill="none" stroke="#000000" points="723.5,-.5 723.5,-19.5 798.5,-19.5 798.5,-.5 723.5,-.5"/>
<text text-anchor="middle" x="761" y="-7.5" font-family="Helvetica,sans-Serif" font-size="10.00" fill="#000000">pred_neural.h</text>
</a>
</g>
</g>
<!-- Node0&#45;&gt;Node12 -->
<g id="edge12" class="edge">
<title>Node0&#45;&gt;Node12</title>
<path fill="none" stroke="#191970" d="M414.2725,-63.2881C466.1816,-57.1136 595.5439,-41.0307 713.4723,-20.1802"/>
<polygon fill="#191970" stroke="#191970" points="714.1594,-23.6129 723.389,-18.4105 712.9296,-16.7218 714.1594,-23.6129"/>
</g>
</g>
</svg>
