<?xml version="1.0" encoding="UTF-8" standalone="no"?>
<!DOCTYPE svg PUBLIC "-//W3C//DTD SVG 1.1//EN"
 "http://www.w3.org/Graphics/SVG/1.1/DTD/svg11.dtd">
<!-- Generated by graphviz version 2.40.1 (20161225.0304)
 -->
<!-- Title: clset_cover Pages: 1 -->
<svg width="913pt" height="289pt"
 viewBox="0.00 0.00 913.00 289.00" xmlns="http://www.w3.org/2000/svg" xmlns:xlink="http://www.w3.org/1999/xlink">
<g id="graph0" class="graph" transform="scale(1 1) rotate(0) translate(4 285)">
<title>clset_cover</title>
<!-- Node103 -->
<g id="node1" class="node">
<title>Node103</title>
<polygon fill="#bfbfbf" stroke="#000000" points="0,-204.5 0,-223.5 67,-223.5 67,-204.5 0,-204.5"/>
<text text-anchor="middle" x="33.5" y="-211.5" font-family="Helvetica,sans-Serif" font-size="10.00" fill="#000000">clset_cover</text>
</g>
<!-- Node104 -->
<g id="node2" class="node">
<title>Node104</title>
<g id="a_node2"><a xlink:href="clset_8h.html#a460e3bd1d979c502e9e9d97d4253f97c" target="_top" xlink:title="Constructs the match set. ">
<polygon fill="none" stroke="#000000" points="103,-204.5 103,-223.5 173,-223.5 173,-204.5 103,-204.5"/>
<text text-anchor="middle" x="138" y="-211.5" font-family="Helvetica,sans-Serif" font-size="10.00" fill="#000000">clset_match</text>
</a>
</g>
</g>
<!-- Node103&#45;&gt;Node104 -->
<g id="edge1" class="edge">
<title>Node103&#45;&gt;Node104</title>
<path fill="none" stroke="#191970" d="M77.3543,-214C85.9061,-214 94.7659,-214 102.985,-214"/>
<polygon fill="#191970" stroke="#191970" points="77.1397,-210.5001 67.1397,-214 77.1396,-217.5001 77.1397,-210.5001"/>
</g>
<!-- Node105 -->
<g id="node3" class="node">
<title>Node105</title>
<g id="a_node3"><a xlink:href="xcs__multi__step_8c.html#a1e1c2a3094be715b468dda79cd59ebf3" target="_top" xlink:title="Executes a multi&#45;step trial using a built&#45;in environment. ">
<polygon fill="none" stroke="#000000" points="221,-251.5 221,-270.5 301,-270.5 301,-251.5 221,-251.5"/>
<text text-anchor="middle" x="261" y="-258.5" font-family="Helvetica,sans-Serif" font-size="10.00" fill="#000000">xcs_multi_trial</text>
</a>
</g>
</g>
<!-- Node104&#45;&gt;Node105 -->
<g id="edge2" class="edge">
<title>Node104&#45;&gt;Node105</title>
<path fill="none" stroke="#191970" d="M172.3253,-227.1162C192.4409,-234.8026 217.4114,-244.3442 235.724,-251.3417"/>
<polygon fill="#191970" stroke="#191970" points="173.4815,-223.8112 162.8909,-223.5112 170.9828,-230.3501 173.4815,-223.8112"/>
</g>
<!-- Node108 -->
<g id="node6" class="node">
<title>Node108</title>
<g id="a_node6"><a xlink:href="xcs__single__step_8h.html#ae25a81ce7f997ab7167ab23daec18183" target="_top" xlink:title="Constructs the match set and selects an action to perform. ">
<polygon fill="none" stroke="#000000" points="209,-204.5 209,-223.5 313,-223.5 313,-204.5 209,-204.5"/>
<text text-anchor="middle" x="261" y="-211.5" font-family="Helvetica,sans-Serif" font-size="10.00" fill="#000000">xcs_single_decision</text>
</a>
</g>
</g>
<!-- Node104&#45;&gt;Node108 -->
<g id="edge5" class="edge">
<title>Node104&#45;&gt;Node108</title>
<path fill="none" stroke="#191970" d="M183.4304,-214C191.6841,-214 200.3532,-214 208.784,-214"/>
<polygon fill="#191970" stroke="#191970" points="183.2469,-210.5001 173.2469,-214 183.2468,-217.5001 183.2469,-210.5001"/>
</g>
<!-- Node113 -->
<g id="node11" class="node">
<title>Node113</title>
<g id="a_node11"><a xlink:href="xcsf_8c.html#af5fb604e81235fdcb2ed8925d9291f59" target="_top" xlink:title="Executes a single XCSF trial. ">
<polygon fill="none" stroke="#000000" points="233,-76.5 233,-95.5 289,-95.5 289,-76.5 233,-76.5"/>
<text text-anchor="middle" x="261" y="-83.5" font-family="Helvetica,sans-Serif" font-size="10.00" fill="#000000">xcsf_trial</text>
</a>
</g>
</g>
<!-- Node104&#45;&gt;Node113 -->
<g id="edge11" class="edge">
<title>Node104&#45;&gt;Node113</title>
<path fill="none" stroke="#191970" d="M154.2064,-197.1348C180.2986,-169.982 230.7989,-117.4288 251.6477,-95.7324"/>
<polygon fill="#191970" stroke="#191970" points="151.6502,-194.7436 147.245,-204.3792 156.6975,-199.5938 151.6502,-194.7436"/>
</g>
<!-- Node106 -->
<g id="node4" class="node">
<title>Node106</title>
<g id="a_node4"><a xlink:href="xcs__multi__step_8h.html#acc29d4a55dbd56c16ea5f19f15a7c677" target="_top" xlink:title="Executes a multi&#45;step reinforcement learning experiment. ">
<polygon fill="none" stroke="#000000" points="471,-261.5 471,-280.5 575,-280.5 575,-261.5 471,-261.5"/>
<text text-anchor="middle" x="523" y="-268.5" font-family="Helvetica,sans-Serif" font-size="10.00" fill="#000000">xcs_multi_step_exp</text>
</a>
</g>
</g>
<!-- Node105&#45;&gt;Node106 -->
<g id="edge3" class="edge">
<title>Node105&#45;&gt;Node106</title>
<path fill="none" stroke="#191970" d="M311.0713,-262.9111C356.8389,-264.658 424.2744,-267.2318 470.7224,-269.0047"/>
<polygon fill="#191970" stroke="#191970" points="311.2036,-259.4137 301.0774,-262.5297 310.9366,-266.4086 311.2036,-259.4137"/>
</g>
<!-- Node107 -->
<g id="node5" class="node">
<title>Node107</title>
<g id="a_node5"><a xlink:href="main_8c.html#a3c04138a5bfe5d72780bb7e82a18e627" target="_top" xlink:title="main">
<polygon fill="none" stroke="#000000" points="649,-223.5 649,-242.5 687,-242.5 687,-223.5 649,-223.5"/>
<text text-anchor="middle" x="668" y="-230.5" font-family="Helvetica,sans-Serif" font-size="10.00" fill="#000000">main</text>
</a>
</g>
</g>
<!-- Node106&#45;&gt;Node107 -->
<g id="edge4" class="edge">
<title>Node106&#45;&gt;Node107</title>
<path fill="none" stroke="#191970" d="M569.5673,-258.7962C596.394,-251.7657 628.6769,-243.3054 648.7732,-238.0387"/>
<polygon fill="#191970" stroke="#191970" points="568.3757,-255.4902 559.5896,-261.411 570.1503,-262.2615 568.3757,-255.4902"/>
</g>
<!-- Node109 -->
<g id="node7" class="node">
<title>Node109</title>
<g id="a_node7"><a xlink:href="structXCS.html#a94d556a5e545ec415d7165d5e91b21d4" target="_top" xlink:title="XCS::single_decision">
<polygon fill="none" stroke="#000000" points="613,-162.5 613,-181.5 723,-181.5 723,-162.5 613,-162.5"/>
<text text-anchor="middle" x="668" y="-169.5" font-family="Helvetica,sans-Serif" font-size="10.00" fill="#000000">XCS::single_decision</text>
</a>
</g>
</g>
<!-- Node108&#45;&gt;Node109 -->
<g id="edge6" class="edge">
<title>Node108&#45;&gt;Node109</title>
<path fill="none" stroke="#191970" d="M323.6819,-207.5316C402.7814,-199.369 537.5699,-185.4596 612.901,-177.6859"/>
<polygon fill="#191970" stroke="#191970" points="322.9628,-204.0871 313.3749,-208.5952 323.6814,-211.0502 322.9628,-204.0871"/>
</g>
<!-- Node111 -->
<g id="node9" class="node">
<title>Node111</title>
<g id="a_node9"><a xlink:href="xcs__single__step_8c.html#a3d1fd2472d35310800aed897219a65af" target="_top" xlink:title="Executes a single&#45;step trial using a built&#45;in environment. ">
<polygon fill="none" stroke="#000000" points="349,-223.5 349,-242.5 433,-242.5 433,-223.5 349,-223.5"/>
<text text-anchor="middle" x="391" y="-230.5" font-family="Helvetica,sans-Serif" font-size="10.00" fill="#000000">xcs_single_trial</text>
</a>
</g>
</g>
<!-- Node108&#45;&gt;Node111 -->
<g id="edge8" class="edge">
<title>Node108&#45;&gt;Node111</title>
<path fill="none" stroke="#191970" d="M323.2443,-223.0972C331.9202,-224.3653 340.6616,-225.6428 348.8488,-226.8394"/>
<polygon fill="#191970" stroke="#191970" points="323.528,-219.6016 313.1269,-221.6185 322.5156,-226.528 323.528,-219.6016"/>
</g>
<!-- Node110 -->
<g id="node8" class="node">
<title>Node110</title>
<g id="a_node8"><a xlink:href="python__wrapper_8cpp.html#afbdcc1358036a0b83a6b239da2b098a2" target="_top" xlink:title="BOOST_PYTHON_MODULE">
<polygon fill="none" stroke="#000000" points="759,-78.5 759,-97.5 905,-97.5 905,-78.5 759,-78.5"/>
<text text-anchor="middle" x="832" y="-85.5" font-family="Helvetica,sans-Serif" font-size="10.00" fill="#000000">BOOST_PYTHON_MODULE</text>
</a>
</g>
</g>
<!-- Node109&#45;&gt;Node110 -->
<g id="edge7" class="edge">
<title>Node109&#45;&gt;Node110</title>
<path fill="none" stroke="#191970" d="M696.0642,-157.6257C729.5948,-140.4515 784.7483,-112.2021 813.4065,-97.5235"/>
<polygon fill="#191970" stroke="#191970" points="694.1177,-154.6902 686.8129,-162.3641 697.3089,-160.9205 694.1177,-154.6902"/>
</g>
<!-- Node112 -->
<g id="node10" class="node">
<title>Node112</title>
<g id="a_node10"><a xlink:href="xcs__single__step_8h.html#a39a031bf59eaa9b33e30e614610dcda8" target="_top" xlink:title="Executes a single&#45;step experiment. ">
<polygon fill="none" stroke="#000000" points="469,-223.5 469,-242.5 577,-242.5 577,-223.5 469,-223.5"/>
<text text-anchor="middle" x="523" y="-230.5" font-family="Helvetica,sans-Serif" font-size="10.00" fill="#000000">xcs_single_step_exp</text>
</a>
</g>
</g>
<!-- Node111&#45;&gt;Node112 -->
<g id="edge9" class="edge">
<title>Node111&#45;&gt;Node112</title>
<path fill="none" stroke="#191970" d="M443.1756,-233C451.5711,-233 460.2792,-233 468.7227,-233"/>
<polygon fill="#191970" stroke="#191970" points="443.1286,-229.5001 433.1285,-233 443.1285,-236.5001 443.1286,-229.5001"/>
</g>
<!-- Node112&#45;&gt;Node107 -->
<g id="edge10" class="edge">
<title>Node112&#45;&gt;Node107</title>
<path fill="none" stroke="#191970" d="M587.5275,-233C609.7805,-233 633.0477,-233 648.8059,-233"/>
<polygon fill="#191970" stroke="#191970" points="587.4052,-229.5001 577.4052,-233 587.4052,-236.5001 587.4052,-229.5001"/>
</g>
<!-- Node114 -->
<g id="node12" class="node">
<title>Node114</title>
<g id="a_node12"><a xlink:href="xcsf_8h.html#a40f4dfe69c6480f25c55d21c44746eb8" target="_top" xlink:title="Executes MAX_TRIALS number of XCSF learning iterations using the training. data and test iterations u...">
<polygon fill="none" stroke="#000000" points="364,-104.5 364,-123.5 418,-123.5 418,-104.5 364,-104.5"/>
<text text-anchor="middle" x="391" y="-111.5" font-family="Helvetica,sans-Serif" font-size="10.00" fill="#000000">xcsf_fit2</text>
</a>
</g>
</g>
<!-- Node113&#45;&gt;Node114 -->
<g id="edge12" class="edge">
<title>Node113&#45;&gt;Node114</title>
<path fill="none" stroke="#191970" d="M298.9876,-94.1819C319.7371,-98.6511 344.9539,-104.0824 363.7378,-108.1282"/>
<polygon fill="#191970" stroke="#191970" points="299.7209,-90.7597 289.2081,-92.0756 298.2469,-97.6028 299.7209,-90.7597"/>
</g>
<!-- Node118 -->
<g id="node16" class="node">
<title>Node118</title>
<g id="a_node16"><a xlink:href="xcsf_8h.html#a90b938e4ae2ef92284e8eabfcf4b7b7b" target="_top" xlink:title="Calculates the XCSF predictions for the provided input. ">
<polygon fill="none" stroke="#000000" points="356,-47.5 356,-66.5 426,-66.5 426,-47.5 356,-47.5"/>
<text text-anchor="middle" x="391" y="-54.5" font-family="Helvetica,sans-Serif" font-size="10.00" fill="#000000">xcsf_predict</text>
</a>
</g>
</g>
<!-- Node113&#45;&gt;Node118 -->
<g id="edge18" class="edge">
<title>Node113&#45;&gt;Node118</title>
<path fill="none" stroke="#191970" d="M299.0698,-77.5075C317.0287,-73.5013 338.3195,-68.7518 355.887,-64.8329"/>
<polygon fill="#191970" stroke="#191970" points="298.2061,-74.1141 289.2081,-79.7074 299.7302,-80.9461 298.2061,-74.1141"/>
</g>
<!-- Node120 -->
<g id="node18" class="node">
<title>Node120</title>
<g id="a_node18"><a xlink:href="xcsf_8h.html#a348b8cd321211c377fb1deedc62c7c67" target="_top" xlink:title="Calculates the XCSF error for the input data. ">
<polygon fill="none" stroke="#000000" points="358.5,-.5 358.5,-19.5 423.5,-19.5 423.5,-.5 358.5,-.5"/>
<text text-anchor="middle" x="391" y="-7.5" font-family="Helvetica,sans-Serif" font-size="10.00" fill="#000000">xcsf_score</text>
</a>
</g>
</g>
<!-- Node113&#45;&gt;Node120 -->
<g id="edge21" class="edge">
<title>Node113&#45;&gt;Node120</title>
<path fill="none" stroke="#191970" d="M286.4104,-71.1447C312.5441,-55.8665 352.469,-32.5258 374.6691,-19.5473"/>
<polygon fill="#191970" stroke="#191970" points="284.3311,-68.306 277.4646,-76.3745 287.864,-74.3491 284.3311,-68.306"/>
</g>
<!-- Node114&#45;&gt;Node107 -->
<g id="edge13" class="edge">
<title>Node114&#45;&gt;Node107</title>
<path fill="none" stroke="#191970" d="M422.5675,-127.5615C480.3651,-152.3915 601.5755,-204.4638 648.6904,-224.7045"/>
<polygon fill="#191970" stroke="#191970" points="423.7694,-124.2686 413.1998,-123.5371 421.0063,-130.7002 423.7694,-124.2686"/>
</g>
<!-- Node115 -->
<g id="node13" class="node">
<title>Node115</title>
<g id="a_node13"><a xlink:href="structXCS.html#a7d53320740db8e846251bacd0238a9fb" target="_top" xlink:title="XCS::fit">
<polygon fill="none" stroke="#000000" points="497,-71.5 497,-90.5 549,-90.5 549,-71.5 497,-71.5"/>
<text text-anchor="middle" x="523" y="-78.5" font-family="Helvetica,sans-Serif" font-size="10.00" fill="#000000">XCS::fit</text>
</a>
</g>
</g>
<!-- Node114&#45;&gt;Node115 -->
<g id="edge14" class="edge">
<title>Node114&#45;&gt;Node115</title>
<path fill="none" stroke="#191970" d="M428.0015,-104.7496C449.9406,-99.2648 477.2158,-92.4461 496.905,-87.5237"/>
<polygon fill="#191970" stroke="#191970" points="426.8832,-101.4214 418.0307,-107.2423 428.581,-108.2124 426.8832,-101.4214"/>
</g>
<!-- Node116 -->
<g id="node14" class="node">
<title>Node116</title>
<g id="a_node14"><a xlink:href="xcsf_8h.html#afd4a983899f1980887b8375e40b32a72" target="_top" xlink:title="Executes MAX_TRIALS number of XCSF learning iterations using the training data. ">
<polygon fill="none" stroke="#000000" points="496,-109.5 496,-128.5 550,-128.5 550,-109.5 496,-109.5"/>
<text text-anchor="middle" x="523" y="-116.5" font-family="Helvetica,sans-Serif" font-size="10.00" fill="#000000">xcsf_fit1</text>
</a>
</g>
</g>
<!-- Node114&#45;&gt;Node116 -->
<g id="edge15" class="edge">
<title>Node114&#45;&gt;Node116</title>
<path fill="none" stroke="#191970" d="M428.0891,-115.4049C449.5146,-116.2165 476.0062,-117.2199 495.5518,-117.9603"/>
<polygon fill="#191970" stroke="#191970" points="428.156,-111.905 418.0307,-115.0239 427.891,-118.9 428.156,-111.905"/>
</g>
<!-- Node117 -->
<g id="node15" class="node">
<title>Node117</title>
<g id="a_node15"><a xlink:href="structXCS.html#ad2ccafe59d2b4ae6d0e1cbc15edee53c" target="_top" xlink:title="XCS::fit">
<polygon fill="none" stroke="#000000" points="642,-100.5 642,-119.5 694,-119.5 694,-100.5 642,-100.5"/>
<text text-anchor="middle" x="668" y="-107.5" font-family="Helvetica,sans-Serif" font-size="10.00" fill="#000000">XCS::fit</text>
</a>
</g>
</g>
<!-- Node116&#45;&gt;Node117 -->
<g id="edge16" class="edge">
<title>Node116&#45;&gt;Node117</title>
<path fill="none" stroke="#191970" d="M560.3422,-116.6822C585.8746,-115.0974 619.0827,-113.0362 641.8256,-111.6246"/>
<polygon fill="#191970" stroke="#191970" points="560.0373,-113.1943 550.2734,-117.3072 560.471,-120.1809 560.0373,-113.1943"/>
</g>
<!-- Node117&#45;&gt;Node110 -->
<g id="edge17" class="edge">
<title>Node117&#45;&gt;Node110</title>
<path fill="none" stroke="#191970" d="M704.7283,-105.073C721.3895,-102.838 741.6825,-100.1158 761.1253,-97.5076"/>
<polygon fill="#191970" stroke="#191970" points="703.7953,-101.6668 694.3494,-106.4653 704.726,-108.6046 703.7953,-101.6668"/>
</g>
<!-- Node119 -->
<g id="node17" class="node">
<title>Node119</title>
<g id="a_node17"><a xlink:href="structXCS.html#a911ed75c86abed7807d33eb1385240ed" target="_top" xlink:title="XCS::predict">
<polygon fill="none" stroke="#000000" points="631.5,-57.5 631.5,-76.5 704.5,-76.5 704.5,-57.5 631.5,-57.5"/>
<text text-anchor="middle" x="668" y="-64.5" font-family="Helvetica,sans-Serif" font-size="10.00" fill="#000000">XCS::predict</text>
</a>
</g>
</g>
<!-- Node118&#45;&gt;Node119 -->
<g id="edge19" class="edge">
<title>Node118&#45;&gt;Node119</title>
<path fill="none" stroke="#191970" d="M436.4672,-57.8668C474.1327,-58.6703 529.0583,-60.0389 577,-62 594.8644,-62.7308 614.6883,-63.7906 631.2611,-64.7466"/>
<polygon fill="#191970" stroke="#191970" points="436.3922,-54.3646 426.3214,-57.6552 436.2462,-61.3631 436.3922,-54.3646"/>
</g>
<!-- Node119&#45;&gt;Node110 -->
<g id="edge20" class="edge">
<title>Node119&#45;&gt;Node110</title>
<path fill="none" stroke="#191970" d="M714.9088,-73.0066C728.5731,-74.7563 743.8398,-76.7112 758.7192,-78.6165"/>
<polygon fill="#191970" stroke="#191970" points="715.1684,-69.5114 704.8048,-71.7128 714.2792,-76.4547 715.1684,-69.5114"/>
</g>
<!-- Node121 -->
<g id="node19" class="node">
<title>Node121</title>
<g id="a_node19"><a xlink:href="structXCS.html#aa77bc77484d6d14bf512304a23cfec88" target="_top" xlink:title="XCS::score">
<polygon fill="none" stroke="#000000" points="634,-.5 634,-19.5 702,-19.5 702,-.5 634,-.5"/>
<text text-anchor="middle" x="668" y="-7.5" font-family="Helvetica,sans-Serif" font-size="10.00" fill="#000000">XCS::score</text>
</a>
</g>
</g>
<!-- Node120&#45;&gt;Node121 -->
<g id="edge22" class="edge">
<title>Node120&#45;&gt;Node121</title>
<path fill="none" stroke="#191970" d="M433.7127,-10C488.7311,-10 583.2742,-10 633.8027,-10"/>
<polygon fill="#191970" stroke="#191970" points="433.59,-6.5001 423.59,-10 433.5899,-13.5001 433.59,-6.5001"/>
</g>
<!-- Node121&#45;&gt;Node110 -->
<g id="edge23" class="edge">
<title>Node121&#45;&gt;Node110</title>
<path fill="none" stroke="#191970" d="M697.2822,-23.9269C730.3609,-39.6595 783.3087,-64.842 811.9827,-78.4796"/>
<polygon fill="#191970" stroke="#191970" points="698.6436,-20.6987 688.1096,-19.5643 695.637,-27.0202 698.6436,-20.6987"/>
</g>
</g>
</svg>
