<?xml version="1.0" encoding="UTF-8" standalone="no"?>
<!DOCTYPE svg PUBLIC "-//W3C//DTD SVG 1.1//EN"
 "http://www.w3.org/Graphics/SVG/1.1/DTD/svg11.dtd">
<!-- Generated by graphviz version 2.40.1 (20161225.0304)
 -->
<!-- Title: clset_validate Pages: 1 -->
<svg width="1059pt" height="332pt"
 viewBox="0.00 0.00 1059.00 332.00" xmlns="http://www.w3.org/2000/svg" xmlns:xlink="http://www.w3.org/1999/xlink">
<g id="graph0" class="graph" transform="scale(1 1) rotate(0) translate(4 328)">
<title>clset_validate</title>
<!-- Node717 -->
<g id="node1" class="node">
<title>Node717</title>
<polygon fill="#bfbfbf" stroke="#000000" points="0,-190.5 0,-209.5 77,-209.5 77,-190.5 0,-190.5"/>
<text text-anchor="middle" x="38.5" y="-197.5" font-family="Helvetica,sans-Serif" font-size="10.00" fill="#000000">clset_validate</text>
</g>
<!-- Node718 -->
<g id="node2" class="node">
<title>Node718</title>
<g id="a_node2"><a xlink:href="clset_8c.html#a60fd3363a0a370e8b5a18671861be461" target="_top" xlink:title="Ensures all possible actions are covered by the match set. ">
<polygon fill="none" stroke="#000000" points="128.5,-190.5 128.5,-209.5 195.5,-209.5 195.5,-190.5 128.5,-190.5"/>
<text text-anchor="middle" x="162" y="-197.5" font-family="Helvetica,sans-Serif" font-size="10.00" fill="#000000">clset_cover</text>
</a>
</g>
</g>
<!-- Node717&#45;&gt;Node718 -->
<g id="edge1" class="edge">
<title>Node717&#45;&gt;Node718</title>
<path fill="none" stroke="#191970" d="M87.5039,-200C101.2149,-200 115.8025,-200 128.4009,-200"/>
<polygon fill="#191970" stroke="#191970" points="87.2374,-196.5001 77.2373,-200 87.2373,-203.5001 87.2374,-196.5001"/>
</g>
<!-- Node721 -->
<g id="node5" class="node">
<title>Node721</title>
<g id="a_node5"><a xlink:href="xcs__multi__step_8c.html#ad50c415970b4bfc42f469fb38c5e68fa" target="_top" xlink:title="Executes a multi&#45;step trial using a built&#45;in environment. ">
<polygon fill="none" stroke="#000000" points="497,-304.5 497,-323.5 577,-323.5 577,-304.5 497,-304.5"/>
<text text-anchor="middle" x="537" y="-311.5" font-family="Helvetica,sans-Serif" font-size="10.00" fill="#000000">xcs_multi_trial</text>
</a>
</g>
</g>
<!-- Node717&#45;&gt;Node721 -->
<g id="edge34" class="edge">
<title>Node717&#45;&gt;Node721</title>
<path fill="none" stroke="#191970" d="M73.7535,-212.9611C131.6286,-233.6958 250.7774,-274.1105 355,-295 403.2816,-304.6771 459.817,-309.6011 496.9117,-311.9802"/>
<polygon fill="#191970" stroke="#191970" points="74.9334,-209.666 64.339,-209.5677 72.5597,-216.2513 74.9334,-209.666"/>
</g>
<!-- Node738 -->
<g id="node22" class="node">
<title>Node738</title>
<g id="a_node22"><a xlink:href="clset_8c.html#aa301d85075acc82499cb031066d89778" target="_top" xlink:title="Performs set subsumption. ">
<polygon fill="none" stroke="#000000" points="113,-152.5 113,-171.5 211,-171.5 211,-152.5 113,-152.5"/>
<text text-anchor="middle" x="162" y="-159.5" font-family="Helvetica,sans-Serif" font-size="10.00" fill="#000000">clset_subsumption</text>
</a>
</g>
</g>
<!-- Node717&#45;&gt;Node738 -->
<g id="edge26" class="edge">
<title>Node717&#45;&gt;Node738</title>
<path fill="none" stroke="#191970" d="M79.2397,-187.4647C96.0405,-182.2952 115.197,-176.4009 130.8457,-171.5859"/>
<polygon fill="#191970" stroke="#191970" points="78.1927,-184.1248 69.6643,-190.411 80.2514,-190.8153 78.1927,-184.1248"/>
</g>
<!-- Node719 -->
<g id="node3" class="node">
<title>Node719</title>
<g id="a_node3"><a xlink:href="clset_8h.html#a229207544a5b8b601de05d231bb84650" target="_top" xlink:title="Constructs the match set. ">
<polygon fill="none" stroke="#000000" points="248,-190.5 248,-209.5 318,-209.5 318,-190.5 248,-190.5"/>
<text text-anchor="middle" x="283" y="-197.5" font-family="Helvetica,sans-Serif" font-size="10.00" fill="#000000">clset_match</text>
</a>
</g>
</g>
<!-- Node718&#45;&gt;Node719 -->
<g id="edge2" class="edge">
<title>Node718&#45;&gt;Node719</title>
<path fill="none" stroke="#191970" d="M205.9376,-200C219.7028,-200 234.7073,-200 247.7884,-200"/>
<polygon fill="#191970" stroke="#191970" points="205.7053,-196.5001 195.7052,-200 205.7052,-203.5001 205.7053,-196.5001"/>
</g>
<!-- Node720 -->
<g id="node4" class="node">
<title>Node720</title>
<g id="a_node4"><a xlink:href="xcs__multi__step_8h.html#af2eaa15cba52d29fa3630218d9780a6a" target="_top" xlink:title="Constructs the match set and selects an action to perform. ">
<polygon fill="none" stroke="#000000" points="357,-266.5 357,-285.5 457,-285.5 457,-266.5 357,-266.5"/>
<text text-anchor="middle" x="407" y="-273.5" font-family="Helvetica,sans-Serif" font-size="10.00" fill="#000000">xcs_multi_decision</text>
</a>
</g>
</g>
<!-- Node719&#45;&gt;Node720 -->
<g id="edge3" class="edge">
<title>Node719&#45;&gt;Node720</title>
<path fill="none" stroke="#191970" d="M302.7378,-215.85C316.8245,-226.7577 336.4797,-241.1748 355,-252 364.0992,-257.3185 374.5784,-262.3473 383.7347,-266.4146"/>
<polygon fill="#191970" stroke="#191970" points="304.7732,-212.9981 294.7464,-209.5753 300.4502,-218.5038 304.7732,-212.9981"/>
</g>
<!-- Node724 -->
<g id="node8" class="node">
<title>Node724</title>
<g id="a_node8"><a xlink:href="xcs__single__step_8h.html#a5c1d53976f601ae3603aed34f0767c29" target="_top" xlink:title="Constructs the match set and selects an action to perform. ">
<polygon fill="none" stroke="#000000" points="355,-190.5 355,-209.5 459,-209.5 459,-190.5 355,-190.5"/>
<text text-anchor="middle" x="407" y="-197.5" font-family="Helvetica,sans-Serif" font-size="10.00" fill="#000000">xcs_single_decision</text>
</a>
</g>
</g>
<!-- Node719&#45;&gt;Node724 -->
<g id="edge7" class="edge">
<title>Node719&#45;&gt;Node724</title>
<path fill="none" stroke="#191970" d="M328.3337,-200C336.8644,-200 345.8497,-200 354.5757,-200"/>
<polygon fill="#191970" stroke="#191970" points="328.2018,-196.5001 318.2017,-200 328.2017,-203.5001 328.2018,-196.5001"/>
</g>
<!-- Node729 -->
<g id="node13" class="node">
<title>Node729</title>
<g id="a_node13"><a xlink:href="xcsf_8c.html#af5fb604e81235fdcb2ed8925d9291f59" target="_top" xlink:title="Executes a single XCSF trial. ">
<polygon fill="none" stroke="#000000" points="379,-152.5 379,-171.5 435,-171.5 435,-152.5 379,-152.5"/>
<text text-anchor="middle" x="407" y="-159.5" font-family="Helvetica,sans-Serif" font-size="10.00" fill="#000000">xcsf_trial</text>
</a>
</g>
</g>
<!-- Node719&#45;&gt;Node729 -->
<g id="edge13" class="edge">
<title>Node719&#45;&gt;Node729</title>
<path fill="none" stroke="#191970" d="M323.9372,-187.4547C341.8766,-181.9572 362.486,-175.6414 378.6879,-170.6763"/>
<polygon fill="#191970" stroke="#191970" points="322.826,-184.1345 314.2904,-190.411 324.8771,-190.8273 322.826,-184.1345"/>
</g>
<!-- Node720&#45;&gt;Node721 -->
<g id="edge4" class="edge">
<title>Node720&#45;&gt;Node721</title>
<path fill="none" stroke="#191970" d="M449.8839,-288.5353C467.5689,-293.7048 487.7337,-299.5991 504.206,-304.4141"/>
<polygon fill="#191970" stroke="#191970" points="450.3848,-285.0353 439.8045,-285.589 448.4208,-291.7542 450.3848,-285.0353"/>
</g>
<!-- Node722 -->
<g id="node6" class="node">
<title>Node722</title>
<g id="a_node6"><a xlink:href="xcs__multi__step_8h.html#acc29d4a55dbd56c16ea5f19f15a7c677" target="_top" xlink:title="Executes a multi&#45;step reinforcement learning experiment. ">
<polygon fill="none" stroke="#000000" points="617,-304.5 617,-323.5 721,-323.5 721,-304.5 617,-304.5"/>
<text text-anchor="middle" x="669" y="-311.5" font-family="Helvetica,sans-Serif" font-size="10.00" fill="#000000">xcs_multi_step_exp</text>
</a>
</g>
</g>
<!-- Node721&#45;&gt;Node722 -->
<g id="edge5" class="edge">
<title>Node721&#45;&gt;Node722</title>
<path fill="none" stroke="#191970" d="M587.4938,-314C597.0732,-314 607.1146,-314 616.7472,-314"/>
<polygon fill="#191970" stroke="#191970" points="587.3216,-310.5001 577.3216,-314 587.3216,-317.5001 587.3216,-310.5001"/>
</g>
<!-- Node723 -->
<g id="node7" class="node">
<title>Node723</title>
<g id="a_node7"><a xlink:href="main_8c.html#a3c04138a5bfe5d72780bb7e82a18e627" target="_top" xlink:title="main">
<polygon fill="none" stroke="#000000" points="795,-228.5 795,-247.5 833,-247.5 833,-228.5 795,-228.5"/>
<text text-anchor="middle" x="814" y="-235.5" font-family="Helvetica,sans-Serif" font-size="10.00" fill="#000000">main</text>
</a>
</g>
</g>
<!-- Node722&#45;&gt;Node723 -->
<g id="edge6" class="edge">
<title>Node722&#45;&gt;Node723</title>
<path fill="none" stroke="#191970" d="M690.308,-298.5071C708.0479,-286.1076 734.307,-268.8853 759,-257 770.5605,-251.4357 784.1868,-246.7161 794.9841,-243.3726"/>
<polygon fill="#191970" stroke="#191970" points="687.9932,-295.8579 681.8611,-304.4979 692.0427,-301.5677 687.9932,-295.8579"/>
</g>
<!-- Node725 -->
<g id="node9" class="node">
<title>Node725</title>
<g id="a_node9"><a xlink:href="structXCS.html#a94d556a5e545ec415d7165d5e91b21d4" target="_top" xlink:title="XCS::single_decision">
<polygon fill="none" stroke="#000000" points="759,-266.5 759,-285.5 869,-285.5 869,-266.5 759,-266.5"/>
<text text-anchor="middle" x="814" y="-273.5" font-family="Helvetica,sans-Serif" font-size="10.00" fill="#000000">XCS::single_decision</text>
</a>
</g>
</g>
<!-- Node724&#45;&gt;Node725 -->
<g id="edge8" class="edge">
<title>Node724&#45;&gt;Node725</title>
<path fill="none" stroke="#191970" d="M450.1052,-212.2397C506.1314,-228.0818 598.7578,-254.0221 615,-257 663.1328,-265.8249 718.6129,-270.6924 758.7453,-273.2848"/>
<polygon fill="#191970" stroke="#191970" points="451.0091,-208.8581 440.4339,-209.5025 449.1028,-215.5935 451.0091,-208.8581"/>
</g>
<!-- Node727 -->
<g id="node11" class="node">
<title>Node727</title>
<g id="a_node11"><a xlink:href="xcs__single__step_8c.html#a536ab4256e871e31959ea6e907455340" target="_top" xlink:title="Executes a single&#45;step trial using a built&#45;in environment. ">
<polygon fill="none" stroke="#000000" points="495,-190.5 495,-209.5 579,-209.5 579,-190.5 495,-190.5"/>
<text text-anchor="middle" x="537" y="-197.5" font-family="Helvetica,sans-Serif" font-size="10.00" fill="#000000">xcs_single_trial</text>
</a>
</g>
</g>
<!-- Node724&#45;&gt;Node727 -->
<g id="edge10" class="edge">
<title>Node724&#45;&gt;Node727</title>
<path fill="none" stroke="#191970" d="M469.2443,-200C477.9202,-200 486.6616,-200 494.8488,-200"/>
<polygon fill="#191970" stroke="#191970" points="469.127,-196.5001 459.1269,-200 469.1269,-203.5001 469.127,-196.5001"/>
</g>
<!-- Node726 -->
<g id="node10" class="node">
<title>Node726</title>
<g id="a_node10"><a xlink:href="python__wrapper_8cpp.html#afbdcc1358036a0b83a6b239da2b098a2" target="_top" xlink:title="BOOST_PYTHON_MODULE">
<polygon fill="none" stroke="#000000" points="905,-76.5 905,-95.5 1051,-95.5 1051,-76.5 905,-76.5"/>
<text text-anchor="middle" x="978" y="-83.5" font-family="Helvetica,sans-Serif" font-size="10.00" fill="#000000">BOOST_PYTHON_MODULE</text>
</a>
</g>
</g>
<!-- Node725&#45;&gt;Node726 -->
<g id="edge9" class="edge">
<title>Node725&#45;&gt;Node726</title>
<path fill="none" stroke="#191970" d="M861.6004,-261.9662C864.2045,-260.469 866.695,-258.8185 869,-257 927.3194,-210.9891 963.5506,-124.6577 974.4861,-95.7286"/>
<polygon fill="#191970" stroke="#191970" points="859.8399,-258.9316 852.4128,-266.4873 862.9307,-265.2124 859.8399,-258.9316"/>
</g>
<!-- Node728 -->
<g id="node12" class="node">
<title>Node728</title>
<g id="a_node12"><a xlink:href="xcs__single__step_8h.html#a39a031bf59eaa9b33e30e614610dcda8" target="_top" xlink:title="Executes a single&#45;step reinforcement learning experiment. ">
<polygon fill="none" stroke="#000000" points="615,-228.5 615,-247.5 723,-247.5 723,-228.5 615,-228.5"/>
<text text-anchor="middle" x="669" y="-235.5" font-family="Helvetica,sans-Serif" font-size="10.00" fill="#000000">xcs_single_step_exp</text>
</a>
</g>
</g>
<!-- Node727&#45;&gt;Node728 -->
<g id="edge11" class="edge">
<title>Node727&#45;&gt;Node728</title>
<path fill="none" stroke="#191970" d="M580.0409,-212.3906C598.1177,-217.5945 618.8195,-223.5541 635.7015,-228.4141"/>
<polygon fill="#191970" stroke="#191970" points="580.8872,-208.9921 570.3092,-209.589 578.9506,-215.7189 580.8872,-208.9921"/>
</g>
<!-- Node728&#45;&gt;Node723 -->
<g id="edge12" class="edge">
<title>Node728&#45;&gt;Node723</title>
<path fill="none" stroke="#191970" d="M733.5275,-238C755.7805,-238 779.0477,-238 794.8059,-238"/>
<polygon fill="#191970" stroke="#191970" points="733.4052,-234.5001 723.4052,-238 733.4052,-241.5001 733.4052,-234.5001"/>
</g>
<!-- Node730 -->
<g id="node14" class="node">
<title>Node730</title>
<g id="a_node14"><a xlink:href="xcsf_8h.html#a40f4dfe69c6480f25c55d21c44746eb8" target="_top" xlink:title="Executes MAX_TRIALS number of XCSF learning iterations using the training. data and test iterations u...">
<polygon fill="none" stroke="#000000" points="510,-152.5 510,-171.5 564,-171.5 564,-152.5 510,-152.5"/>
<text text-anchor="middle" x="537" y="-159.5" font-family="Helvetica,sans-Serif" font-size="10.00" fill="#000000">xcsf_fit2</text>
</a>
</g>
</g>
<!-- Node729&#45;&gt;Node730 -->
<g id="edge14" class="edge">
<title>Node729&#45;&gt;Node730</title>
<path fill="none" stroke="#191970" d="M445.2708,-162C465.9662,-162 491.0393,-162 509.7378,-162"/>
<polygon fill="#191970" stroke="#191970" points="445.2081,-158.5001 435.2081,-162 445.208,-165.5001 445.2081,-158.5001"/>
</g>
<!-- Node734 -->
<g id="node18" class="node">
<title>Node734</title>
<g id="a_node18"><a xlink:href="xcsf_8h.html#a90b938e4ae2ef92284e8eabfcf4b7b7b" target="_top" xlink:title="Calculates the XCSF predictions for the provided input. ">
<polygon fill="none" stroke="#000000" points="502,-105.5 502,-124.5 572,-124.5 572,-105.5 502,-105.5"/>
<text text-anchor="middle" x="537" y="-112.5" font-family="Helvetica,sans-Serif" font-size="10.00" fill="#000000">xcsf_predict</text>
</a>
</g>
</g>
<!-- Node729&#45;&gt;Node734 -->
<g id="edge20" class="edge">
<title>Node729&#45;&gt;Node734</title>
<path fill="none" stroke="#191970" d="M442.9892,-148.9885C464.2991,-141.2842 490.8428,-131.6876 510.2855,-124.6583"/>
<polygon fill="#191970" stroke="#191970" points="441.5217,-145.7973 433.3074,-152.4888 443.9017,-152.3803 441.5217,-145.7973"/>
</g>
<!-- Node736 -->
<g id="node20" class="node">
<title>Node736</title>
<g id="a_node20"><a xlink:href="xcsf_8h.html#a348b8cd321211c377fb1deedc62c7c67" target="_top" xlink:title="Calculates the XCSF error for the input data. ">
<polygon fill="none" stroke="#000000" points="504.5,-62.5 504.5,-81.5 569.5,-81.5 569.5,-62.5 504.5,-62.5"/>
<text text-anchor="middle" x="537" y="-69.5" font-family="Helvetica,sans-Serif" font-size="10.00" fill="#000000">xcsf_score</text>
</a>
</g>
</g>
<!-- Node729&#45;&gt;Node736 -->
<g id="edge23" class="edge">
<title>Node729&#45;&gt;Node736</title>
<path fill="none" stroke="#191970" d="M444.83,-151.099C449.8309,-148.8365 454.7051,-146.1562 459,-143 480.2031,-127.4188 475.1861,-113.3135 495,-96 501.324,-90.474 509.1161,-85.6031 516.2643,-81.7187"/>
<polygon fill="#191970" stroke="#191970" points="443.167,-147.9941 435.1757,-154.9504 445.7608,-154.4959 443.167,-147.9941"/>
</g>
<!-- Node730&#45;&gt;Node723 -->
<g id="edge15" class="edge">
<title>Node730&#45;&gt;Node723</title>
<path fill="none" stroke="#191970" d="M573.8329,-172.1058C633.5018,-188.477 749.2139,-220.2248 794.8394,-232.7429"/>
<polygon fill="#191970" stroke="#191970" points="574.634,-168.6963 564.0643,-169.4256 572.7818,-175.4468 574.634,-168.6963"/>
</g>
<!-- Node731 -->
<g id="node15" class="node">
<title>Node731</title>
<g id="a_node15"><a xlink:href="structXCS.html#a7d53320740db8e846251bacd0238a9fb" target="_top" xlink:title="XCS::fit">
<polygon fill="none" stroke="#000000" points="643,-152.5 643,-171.5 695,-171.5 695,-152.5 643,-152.5"/>
<text text-anchor="middle" x="669" y="-159.5" font-family="Helvetica,sans-Serif" font-size="10.00" fill="#000000">XCS::fit</text>
</a>
</g>
</g>
<!-- Node730&#45;&gt;Node731 -->
<g id="edge16" class="edge">
<title>Node730&#45;&gt;Node731</title>
<path fill="none" stroke="#191970" d="M574.2996,-162C596.1873,-162 623.3049,-162 642.905,-162"/>
<polygon fill="#191970" stroke="#191970" points="574.0307,-158.5001 564.0307,-162 574.0307,-165.5001 574.0307,-158.5001"/>
</g>
<!-- Node732 -->
<g id="node16" class="node">
<title>Node732</title>
<g id="a_node16"><a xlink:href="xcsf_8h.html#afd4a983899f1980887b8375e40b32a72" target="_top" xlink:title="Executes MAX_TRIALS number of XCSF learning iterations using the training data. ">
<polygon fill="none" stroke="#000000" points="642,-114.5 642,-133.5 696,-133.5 696,-114.5 642,-114.5"/>
<text text-anchor="middle" x="669" y="-121.5" font-family="Helvetica,sans-Serif" font-size="10.00" fill="#000000">xcsf_fit1</text>
</a>
</g>
</g>
<!-- Node730&#45;&gt;Node732 -->
<g id="edge17" class="edge">
<title>Node730&#45;&gt;Node732</title>
<path fill="none" stroke="#191970" d="M573.7972,-151.4069C595.2736,-145.2243 621.9173,-137.5541 641.5518,-131.9017"/>
<polygon fill="#191970" stroke="#191970" points="572.6721,-148.0885 564.0307,-154.2184 574.6087,-154.8153 572.6721,-148.0885"/>
</g>
<!-- Node733 -->
<g id="node17" class="node">
<title>Node733</title>
<g id="a_node17"><a xlink:href="structXCS.html#ad2ccafe59d2b4ae6d0e1cbc15edee53c" target="_top" xlink:title="XCS::fit">
<polygon fill="none" stroke="#000000" points="788,-114.5 788,-133.5 840,-133.5 840,-114.5 788,-114.5"/>
<text text-anchor="middle" x="814" y="-121.5" font-family="Helvetica,sans-Serif" font-size="10.00" fill="#000000">XCS::fit</text>
</a>
</g>
</g>
<!-- Node732&#45;&gt;Node733 -->
<g id="edge18" class="edge">
<title>Node732&#45;&gt;Node733</title>
<path fill="none" stroke="#191970" d="M706.3422,-124C731.8746,-124 765.0827,-124 787.8256,-124"/>
<polygon fill="#191970" stroke="#191970" points="706.2734,-120.5001 696.2734,-124 706.2734,-127.5001 706.2734,-120.5001"/>
</g>
<!-- Node733&#45;&gt;Node726 -->
<g id="edge19" class="edge">
<title>Node733&#45;&gt;Node726</title>
<path fill="none" stroke="#191970" d="M850.4051,-115.5647C876.038,-109.6253 910.3853,-101.6668 936.9861,-95.5032"/>
<polygon fill="#191970" stroke="#191970" points="849.3013,-112.2276 840.3494,-117.8946 850.8814,-119.047 849.3013,-112.2276"/>
</g>
<!-- Node735 -->
<g id="node19" class="node">
<title>Node735</title>
<g id="a_node19"><a xlink:href="structXCS.html#a911ed75c86abed7807d33eb1385240ed" target="_top" xlink:title="XCS::predict">
<polygon fill="none" stroke="#000000" points="777.5,-76.5 777.5,-95.5 850.5,-95.5 850.5,-76.5 777.5,-76.5"/>
<text text-anchor="middle" x="814" y="-83.5" font-family="Helvetica,sans-Serif" font-size="10.00" fill="#000000">XCS::predict</text>
</a>
</g>
</g>
<!-- Node734&#45;&gt;Node735 -->
<g id="edge21" class="edge">
<title>Node734&#45;&gt;Node735</title>
<path fill="none" stroke="#191970" d="M582.3174,-108.9384C593.026,-107.5758 604.4096,-106.1841 615,-105 671.5649,-98.6754 737.3257,-92.6566 777.2859,-89.1474"/>
<polygon fill="#191970" stroke="#191970" points="581.776,-105.4792 572.3052,-110.2282 582.6704,-112.4218 581.776,-105.4792"/>
</g>
<!-- Node735&#45;&gt;Node726 -->
<g id="edge22" class="edge">
<title>Node735&#45;&gt;Node726</title>
<path fill="none" stroke="#191970" d="M860.9088,-86C874.5731,-86 889.8398,-86 904.7192,-86"/>
<polygon fill="#191970" stroke="#191970" points="860.8048,-82.5001 850.8048,-86 860.8048,-89.5001 860.8048,-82.5001"/>
</g>
<!-- Node737 -->
<g id="node21" class="node">
<title>Node737</title>
<g id="a_node21"><a xlink:href="structXCS.html#aa77bc77484d6d14bf512304a23cfec88" target="_top" xlink:title="XCS::score">
<polygon fill="none" stroke="#000000" points="780,-38.5 780,-57.5 848,-57.5 848,-38.5 780,-38.5"/>
<text text-anchor="middle" x="814" y="-45.5" font-family="Helvetica,sans-Serif" font-size="10.00" fill="#000000">XCS::score</text>
</a>
</g>
</g>
<!-- Node736&#45;&gt;Node737 -->
<g id="edge24" class="edge">
<title>Node736&#45;&gt;Node737</title>
<path fill="none" stroke="#191970" d="M579.7127,-68.2993C634.7311,-63.5323 729.2742,-55.3409 779.8027,-50.9629"/>
<polygon fill="#191970" stroke="#191970" points="579.2505,-64.8261 569.59,-69.1763 579.8548,-71.8 579.2505,-64.8261"/>
</g>
<!-- Node737&#45;&gt;Node726 -->
<g id="edge25" class="edge">
<title>Node737&#45;&gt;Node726</title>
<path fill="none" stroke="#191970" d="M858.1559,-58.2313C882.6816,-63.914 912.993,-70.9374 936.9952,-76.4989"/>
<polygon fill="#191970" stroke="#191970" points="858.9118,-54.8137 848.3798,-55.966 857.3316,-61.6331 858.9118,-54.8137"/>
</g>
<!-- Node739 -->
<g id="node23" class="node">
<title>Node739</title>
<g id="a_node23"><a xlink:href="clset_8h.html#add82b1503285b43b57b320ea3ef78a85" target="_top" xlink:title="Provides reinforcement to the set and performs set subsumption. ">
<polygon fill="none" stroke="#000000" points="247,-152.5 247,-171.5 319,-171.5 319,-152.5 247,-152.5"/>
<text text-anchor="middle" x="283" y="-159.5" font-family="Helvetica,sans-Serif" font-size="10.00" fill="#000000">clset_update</text>
</a>
</g>
</g>
<!-- Node738&#45;&gt;Node739 -->
<g id="edge27" class="edge">
<title>Node738&#45;&gt;Node739</title>
<path fill="none" stroke="#191970" d="M221.3632,-162C230.0566,-162 238.7813,-162 246.819,-162"/>
<polygon fill="#191970" stroke="#191970" points="221.2154,-158.5001 211.2153,-162 221.2153,-165.5001 221.2154,-158.5001"/>
</g>
<!-- Node739&#45;&gt;Node721 -->
<g id="edge28" class="edge">
<title>Node739&#45;&gt;Node721</title>
<path fill="none" stroke="#191970" d="M312.5971,-176.5863C314.8195,-177.9916 316.9802,-179.4676 319,-181 337.5342,-195.0612 335.5576,-206.2239 355,-219 396.1263,-246.0251 416.9472,-231.4405 459,-257 477.5479,-268.2733 477.4687,-277.203 495,-290 502.1903,-295.2485 510.6269,-300.2654 518.045,-304.3425"/>
<polygon fill="#191970" stroke="#191970" points="314.2954,-173.5253 303.887,-171.5464 310.7895,-179.5841 314.2954,-173.5253"/>
</g>
<!-- Node739&#45;&gt;Node729 -->
<g id="edge33" class="edge">
<title>Node739&#45;&gt;Node729</title>
<path fill="none" stroke="#191970" d="M329.3063,-162C345.9492,-162 364.207,-162 378.8395,-162"/>
<polygon fill="#191970" stroke="#191970" points="329.1993,-158.5001 319.1993,-162 329.1992,-165.5001 329.1993,-158.5001"/>
</g>
<!-- Node740 -->
<g id="node24" class="node">
<title>Node740</title>
<g id="a_node24"><a xlink:href="xcs__single__step_8h.html#a0ff6b521f66224d56ef0e6f50f5781b9" target="_top" xlink:title="Creates the action set, updates the classifiers and runs the EA. ">
<polygon fill="none" stroke="#000000" points="358,-114.5 358,-133.5 456,-133.5 456,-114.5 358,-114.5"/>
<text text-anchor="middle" x="407" y="-121.5" font-family="Helvetica,sans-Serif" font-size="10.00" fill="#000000">xcs_single_update</text>
</a>
</g>
</g>
<!-- Node739&#45;&gt;Node740 -->
<g id="edge29" class="edge">
<title>Node739&#45;&gt;Node740</title>
<path fill="none" stroke="#191970" d="M323.9047,-149.4647C340.7734,-144.2952 360.0076,-138.4009 375.7196,-133.5859"/>
<polygon fill="#191970" stroke="#191970" points="322.826,-146.1345 314.2904,-152.411 324.8771,-152.8273 322.826,-146.1345"/>
</g>
<!-- Node740&#45;&gt;Node727 -->
<g id="edge32" class="edge">
<title>Node740&#45;&gt;Node727</title>
<path fill="none" stroke="#191970" d="M449.6347,-137.6878C452.8963,-139.2994 456.0594,-141.0676 459,-143 478.4424,-155.7761 476.047,-167.5086 495,-181 500.0855,-184.6201 505.9711,-187.798 511.6971,-190.4672"/>
<polygon fill="#191970" stroke="#191970" points="450.8456,-134.3965 440.2842,-133.5549 448.0156,-140.7989 450.8456,-134.3965"/>
</g>
<!-- Node741 -->
<g id="node25" class="node">
<title>Node741</title>
<g id="a_node25"><a xlink:href="structXCS.html#aedc01ad6f00a54b260a7605929a1d4c9" target="_top" xlink:title="XCS::single_update">
<polygon fill="none" stroke="#000000" points="617,-.5 617,-19.5 721,-19.5 721,-.5 617,-.5"/>
<text text-anchor="middle" x="669" y="-7.5" font-family="Helvetica,sans-Serif" font-size="10.00" fill="#000000">XCS::single_update</text>
</a>
</g>
</g>
<!-- Node740&#45;&gt;Node741 -->
<g id="edge30" class="edge">
<title>Node740&#45;&gt;Node741</title>
<path fill="none" stroke="#191970" d="M423.5603,-106.851C440.1642,-90.6376 467.1941,-66.7964 495,-53 533.4669,-33.9139 581.024,-22.9097 616.693,-16.8203"/>
<polygon fill="#191970" stroke="#191970" points="420.8866,-104.5749 416.2891,-114.1202 425.8357,-109.5253 420.8866,-104.5749"/>
</g>
<!-- Node741&#45;&gt;Node726 -->
<g id="edge31" class="edge">
<title>Node741&#45;&gt;Node726</title>
<path fill="none" stroke="#191970" d="M731.1676,-9.7702C771.2516,-11.1088 824.0881,-15.6822 869,-29 905.4432,-39.8065 943.9046,-63.1424 963.9589,-76.3595"/>
<polygon fill="#191970" stroke="#191970" points="731.0959,-6.267 721.0034,-9.4905 730.9033,-13.2644 731.0959,-6.267"/>
</g>
</g>
</svg>
