<?xml version="1.0" encoding="UTF-8" standalone="no"?>
<!DOCTYPE svg PUBLIC "-//W3C//DTD SVG 1.1//EN"
 "http://www.w3.org/Graphics/SVG/1.1/DTD/svg11.dtd">
<!-- Generated by graphviz version 2.40.1 (20161225.0304)
 -->
<!-- Title: clset_update Pages: 1 -->
<svg width="442pt" height="408pt"
 viewBox="0.00 0.00 442.00 408.00" xmlns="http://www.w3.org/2000/svg" xmlns:xlink="http://www.w3.org/1999/xlink">
<g id="graph0" class="graph" transform="scale(1 1) rotate(0) translate(4 404)">
<title>clset_update</title>
<!-- Node558 -->
<g id="node1" class="node">
<title>Node558</title>
<polygon fill="#bfbfbf" stroke="#000000" points="0,-133.5 0,-152.5 72,-152.5 72,-133.5 0,-133.5"/>
<text text-anchor="middle" x="36" y="-140.5" font-family="Helvetica,sans-Serif" font-size="10.00" fill="#000000">clset_update</text>
</g>
<!-- Node559 -->
<g id="node2" class="node">
<title>Node559</title>
<g id="a_node2"><a xlink:href="cl_8c.html#ad3ef5eea9801c3b8c38ad8e5e2141dc0" target="_top" xlink:title="Updates the classifier&#39;s parameters as well as condition, action, and prediction depending on the kno...">
<polygon fill="none" stroke="#000000" points="127.5,-285.5 127.5,-304.5 186.5,-304.5 186.5,-285.5 127.5,-285.5"/>
<text text-anchor="middle" x="157" y="-292.5" font-family="Helvetica,sans-Serif" font-size="10.00" fill="#000000">cl_update</text>
</a>
</g>
</g>
<!-- Node558&#45;&gt;Node559 -->
<g id="edge1" class="edge">
<title>Node558&#45;&gt;Node559</title>
<path fill="none" stroke="#191970" d="M43.5691,-152.5083C63.4316,-177.4596 117.2814,-245.1055 142.9827,-277.3915"/>
<polygon fill="#191970" stroke="#191970" points="140.4673,-279.8514 149.4338,-285.4953 145.9439,-275.4917 140.4673,-279.8514"/>
</g>
<!-- Node565 -->
<g id="node8" class="node">
<title>Node565</title>
<g id="a_node8"><a xlink:href="clset_8c.html#a94421523353ff7ff3f31617d9230f3f1" target="_top" xlink:title="Performs set subsumption. ">
<polygon fill="none" stroke="#000000" points="108,-133.5 108,-152.5 206,-152.5 206,-133.5 108,-133.5"/>
<text text-anchor="middle" x="157" y="-140.5" font-family="Helvetica,sans-Serif" font-size="10.00" fill="#000000">clset_subsumption</text>
</a>
</g>
</g>
<!-- Node558&#45;&gt;Node565 -->
<g id="edge7" class="edge">
<title>Node558&#45;&gt;Node565</title>
<path fill="none" stroke="#191970" d="M72.304,-143C80.3094,-143 88.9914,-143 97.6423,-143"/>
<polygon fill="#191970" stroke="#191970" points="97.7411,-146.5001 107.741,-143 97.741,-139.5001 97.7411,-146.5001"/>
</g>
<!-- Node572 -->
<g id="node15" class="node">
<title>Node572</title>
<g id="a_node15"><a xlink:href="clset_8c.html#ae368f8fa88b6d2c02eaf4ac9e63d2bbc" target="_top" xlink:title="Updates the fitness of classifiers in the set. ">
<polygon fill="none" stroke="#000000" points="114,-38.5 114,-57.5 200,-57.5 200,-38.5 114,-38.5"/>
<text text-anchor="middle" x="157" y="-45.5" font-family="Helvetica,sans-Serif" font-size="10.00" fill="#000000">clset_update_fit</text>
</a>
</g>
</g>
<!-- Node558&#45;&gt;Node572 -->
<g id="edge14" class="edge">
<title>Node558&#45;&gt;Node572</title>
<path fill="none" stroke="#191970" d="M48.4934,-133.1911C69.3424,-116.8221 111.42,-83.786 136.6111,-64.0078"/>
<polygon fill="#191970" stroke="#191970" points="139.0507,-66.5423 144.7548,-57.614 134.7279,-61.0365 139.0507,-66.5423"/>
</g>
<!-- Node560 -->
<g id="node3" class="node">
<title>Node560</title>
<g id="a_node3"><a xlink:href="action_8h.html#aed53610388c1e8a2f7f42e99ae7f4e47" target="_top" xlink:title="act_update">
<polygon fill="none" stroke="#000000" points="250.5,-380.5 250.5,-399.5 315.5,-399.5 315.5,-380.5 250.5,-380.5"/>
<text text-anchor="middle" x="283" y="-387.5" font-family="Helvetica,sans-Serif" font-size="10.00" fill="#000000">act_update</text>
</a>
</g>
</g>
<!-- Node559&#45;&gt;Node560 -->
<g id="edge2" class="edge">
<title>Node559&#45;&gt;Node560</title>
<path fill="none" stroke="#191970" d="M166.1672,-304.904C180.9709,-320.4801 211.568,-350.9855 242,-371 244.6034,-372.7122 247.386,-374.3505 250.2294,-375.8966"/>
<polygon fill="#191970" stroke="#191970" points="248.868,-379.1297 259.3741,-380.4985 252.0147,-372.8768 248.868,-379.1297"/>
</g>
<!-- Node561 -->
<g id="node4" class="node">
<title>Node561</title>
<g id="a_node4"><a xlink:href="cl_8c.html#a838afb0899d8b1ac10b6bced06eda8fb" target="_top" xlink:title="Updates the error of the classifier using the payoff. ">
<polygon fill="none" stroke="#000000" points="245.5,-342.5 245.5,-361.5 320.5,-361.5 320.5,-342.5 245.5,-342.5"/>
<text text-anchor="middle" x="283" y="-349.5" font-family="Helvetica,sans-Serif" font-size="10.00" fill="#000000">cl_update_err</text>
</a>
</g>
</g>
<!-- Node559&#45;&gt;Node561 -->
<g id="edge3" class="edge">
<title>Node559&#45;&gt;Node561</title>
<path fill="none" stroke="#191970" d="M178.0896,-304.5405C198.4411,-313.7472 229.4715,-327.7847 252.5112,-338.2074"/>
<polygon fill="#191970" stroke="#191970" points="251.2879,-341.4955 261.8416,-342.4284 254.1731,-335.1177 251.2879,-341.4955"/>
</g>
<!-- Node562 -->
<g id="node5" class="node">
<title>Node562</title>
<g id="a_node5"><a xlink:href="cl_8c.html#a71d859a36f2d65210687cf9bebec6568" target="_top" xlink:title="Updates the set size estimate for the classifier. ">
<polygon fill="none" stroke="#000000" points="242,-304.5 242,-323.5 324,-323.5 324,-304.5 242,-304.5"/>
<text text-anchor="middle" x="283" y="-311.5" font-family="Helvetica,sans-Serif" font-size="10.00" fill="#000000">cl_update_size</text>
</a>
</g>
</g>
<!-- Node559&#45;&gt;Node562 -->
<g id="edge4" class="edge">
<title>Node559&#45;&gt;Node562</title>
<path fill="none" stroke="#191970" d="M186.5414,-299.4547C200.0263,-301.4881 216.3924,-303.956 231.7851,-306.2771"/>
<polygon fill="#191970" stroke="#191970" points="231.3096,-309.7449 241.7197,-307.7752 232.3534,-302.8232 231.3096,-309.7449"/>
</g>
<!-- Node563 -->
<g id="node6" class="node">
<title>Node563</title>
<g id="a_node6"><a xlink:href="condition_8h.html#a59fbf229988db588ac8e6e69d65c4edc" target="_top" xlink:title="cond_update">
<polygon fill="none" stroke="#000000" points="247,-266.5 247,-285.5 319,-285.5 319,-266.5 247,-266.5"/>
<text text-anchor="middle" x="283" y="-273.5" font-family="Helvetica,sans-Serif" font-size="10.00" fill="#000000">cond_update</text>
</a>
</g>
</g>
<!-- Node559&#45;&gt;Node563 -->
<g id="edge5" class="edge">
<title>Node559&#45;&gt;Node563</title>
<path fill="none" stroke="#191970" d="M186.5414,-290.5453C201.4799,-288.2927 219.9543,-285.5069 236.7242,-282.9781"/>
<polygon fill="#191970" stroke="#191970" points="237.5324,-286.3959 246.8987,-281.4438 236.4886,-279.4741 237.5324,-286.3959"/>
</g>
<!-- Node564 -->
<g id="node7" class="node">
<title>Node564</title>
<g id="a_node7"><a xlink:href="prediction_8h.html#ac5e234b921427038fb9f4c14d167b8f7" target="_top" xlink:title="pred_update">
<polygon fill="none" stroke="#000000" points="248,-228.5 248,-247.5 318,-247.5 318,-228.5 248,-228.5"/>
<text text-anchor="middle" x="283" y="-235.5" font-family="Helvetica,sans-Serif" font-size="10.00" fill="#000000">pred_update</text>
</a>
</g>
</g>
<!-- Node559&#45;&gt;Node564 -->
<g id="edge6" class="edge">
<title>Node559&#45;&gt;Node564</title>
<path fill="none" stroke="#191970" d="M178.0896,-285.4595C198.4411,-276.2528 229.4715,-262.2153 252.5112,-251.7926"/>
<polygon fill="#191970" stroke="#191970" points="254.1731,-254.8823 261.8416,-247.5716 251.2879,-248.5045 254.1731,-254.8823"/>
</g>
<!-- Node566 -->
<g id="node9" class="node">
<title>Node566</title>
<g id="a_node9"><a xlink:href="cl_8c.html#ac3f5d4c78b479b4ef340dffb9d583801" target="_top" xlink:title="Returns whether classifier c1 is more general than c2. ">
<polygon fill="none" stroke="#000000" points="252.5,-190.5 252.5,-209.5 313.5,-209.5 313.5,-190.5 252.5,-190.5"/>
<text text-anchor="middle" x="283" y="-197.5" font-family="Helvetica,sans-Serif" font-size="10.00" fill="#000000">cl_general</text>
</a>
</g>
</g>
<!-- Node565&#45;&gt;Node566 -->
<g id="edge8" class="edge">
<title>Node565&#45;&gt;Node566</title>
<path fill="none" stroke="#191970" d="M178.0896,-152.5405C198.4411,-161.7472 229.4715,-175.7847 252.5112,-186.2074"/>
<polygon fill="#191970" stroke="#191970" points="251.2879,-189.4955 261.8416,-190.4284 254.1731,-183.1177 251.2879,-189.4955"/>
</g>
<!-- Node569 -->
<g id="node12" class="node">
<title>Node569</title>
<g id="a_node12"><a xlink:href="cl_8c.html#a9cd91d62a6a406323815e7b4a2acd321" target="_top" xlink:title="Returns whether the classifier is a potential subsumer. ">
<polygon fill="none" stroke="#000000" points="247,-152.5 247,-171.5 319,-171.5 319,-152.5 247,-152.5"/>
<text text-anchor="middle" x="283" y="-159.5" font-family="Helvetica,sans-Serif" font-size="10.00" fill="#000000">cl_subsumer</text>
</a>
</g>
</g>
<!-- Node565&#45;&gt;Node569 -->
<g id="edge11" class="edge">
<title>Node565&#45;&gt;Node569</title>
<path fill="none" stroke="#191970" d="M206.0757,-150.4003C216.1274,-151.916 226.677,-153.5068 236.6301,-155.0077"/>
<polygon fill="#191970" stroke="#191970" points="236.3303,-158.502 246.7405,-156.5323 237.3742,-151.5803 236.3303,-158.502"/>
</g>
<!-- Node570 -->
<g id="node13" class="node">
<title>Node570</title>
<g id="a_node13"><a xlink:href="clset_8c.html#a73ab8d4cc3a3e4f70561c7f5bf20c265" target="_top" xlink:title="Adds a classifier to the set. ">
<polygon fill="none" stroke="#000000" points="253.5,-114.5 253.5,-133.5 312.5,-133.5 312.5,-114.5 253.5,-114.5"/>
<text text-anchor="middle" x="283" y="-121.5" font-family="Helvetica,sans-Serif" font-size="10.00" fill="#000000">clset_add</text>
</a>
</g>
</g>
<!-- Node565&#45;&gt;Node570 -->
<g id="edge12" class="edge">
<title>Node565&#45;&gt;Node570</title>
<path fill="none" stroke="#191970" d="M206.0757,-135.5997C218.3677,-133.7461 231.4043,-131.7803 243.1841,-130.004"/>
<polygon fill="#191970" stroke="#191970" points="243.7959,-133.4514 253.1622,-128.4993 242.7521,-126.5296 243.7959,-133.4514"/>
</g>
<!-- Node571 -->
<g id="node14" class="node">
<title>Node571</title>
<g id="a_node14"><a xlink:href="clset_8c.html#a7ec1121fd19ff524f19b46ffa0522dd9" target="_top" xlink:title="Removes classifiers with 0 numerosity from the set. ">
<polygon fill="none" stroke="#000000" points="244.5,-76.5 244.5,-95.5 321.5,-95.5 321.5,-76.5 244.5,-76.5"/>
<text text-anchor="middle" x="283" y="-83.5" font-family="Helvetica,sans-Serif" font-size="10.00" fill="#000000">clset_validate</text>
</a>
</g>
</g>
<!-- Node565&#45;&gt;Node571 -->
<g id="edge13" class="edge">
<title>Node565&#45;&gt;Node571</title>
<path fill="none" stroke="#191970" d="M178.0896,-133.4595C198.4411,-124.2528 229.4715,-110.2153 252.5112,-99.7926"/>
<polygon fill="#191970" stroke="#191970" points="254.1731,-102.8823 261.8416,-95.5716 251.2879,-96.5045 254.1731,-102.8823"/>
</g>
<!-- Node567 -->
<g id="node10" class="node">
<title>Node567</title>
<g id="a_node10"><a xlink:href="action_8h.html#a49160bc58c4d980d8c812f7b00a18178" target="_top" xlink:title="act_general">
<polygon fill="none" stroke="#000000" points="363.5,-209.5 363.5,-228.5 430.5,-228.5 430.5,-209.5 363.5,-209.5"/>
<text text-anchor="middle" x="397" y="-216.5" font-family="Helvetica,sans-Serif" font-size="10.00" fill="#000000">act_general</text>
</a>
</g>
</g>
<!-- Node566&#45;&gt;Node567 -->
<g id="edge9" class="edge">
<title>Node566&#45;&gt;Node567</title>
<path fill="none" stroke="#191970" d="M313.5499,-205.0917C325.7431,-207.1238 340.0111,-209.5018 353.2658,-211.711"/>
<polygon fill="#191970" stroke="#191970" points="352.7137,-215.1671 363.1531,-213.3588 353.8645,-208.2624 352.7137,-215.1671"/>
</g>
<!-- Node568 -->
<g id="node11" class="node">
<title>Node568</title>
<g id="a_node11"><a xlink:href="condition_8h.html#ac2a5d917e2036017ba0e79d608858527" target="_top" xlink:title="cond_general">
<polygon fill="none" stroke="#000000" points="360,-171.5 360,-190.5 434,-190.5 434,-171.5 360,-171.5"/>
<text text-anchor="middle" x="397" y="-178.5" font-family="Helvetica,sans-Serif" font-size="10.00" fill="#000000">cond_general</text>
</a>
</g>
</g>
<!-- Node566&#45;&gt;Node568 -->
<g id="edge10" class="edge">
<title>Node566&#45;&gt;Node568</title>
<path fill="none" stroke="#191970" d="M313.5499,-194.9083C324.6796,-193.0534 337.5379,-190.9103 349.7764,-188.8706"/>
<polygon fill="#191970" stroke="#191970" points="350.5709,-192.2865 359.8594,-187.1901 349.4201,-185.3818 350.5709,-192.2865"/>
</g>
<!-- Node573 -->
<g id="node16" class="node">
<title>Node573</title>
<g id="a_node16"><a xlink:href="cl_8c.html#a44bd006ac0a83f4aec12ac0dd554c6ec" target="_top" xlink:title="Returns the accuracy of the classifier. ">
<polygon fill="none" stroke="#000000" points="260.5,-38.5 260.5,-57.5 305.5,-57.5 305.5,-38.5 260.5,-38.5"/>
<text text-anchor="middle" x="283" y="-45.5" font-family="Helvetica,sans-Serif" font-size="10.00" fill="#000000">cl_acc</text>
</a>
</g>
</g>
<!-- Node572&#45;&gt;Node573 -->
<g id="edge15" class="edge">
<title>Node572&#45;&gt;Node573</title>
<path fill="none" stroke="#191970" d="M200.0096,-48C216.4601,-48 234.9394,-48 250.2773,-48"/>
<polygon fill="#191970" stroke="#191970" points="250.3305,-51.5001 260.3305,-48 250.3304,-44.5001 250.3305,-51.5001"/>
</g>
<!-- Node574 -->
<g id="node17" class="node">
<title>Node574</title>
<g id="a_node17"><a xlink:href="cl_8c.html#a8ef8cb774f6f4910f26ca414a9bd02d3" target="_top" xlink:title="Updates the fitness of the classifier. ">
<polygon fill="none" stroke="#000000" points="247,-.5 247,-19.5 319,-19.5 319,-.5 247,-.5"/>
<text text-anchor="middle" x="283" y="-7.5" font-family="Helvetica,sans-Serif" font-size="10.00" fill="#000000">cl_update_fit</text>
</a>
</g>
</g>
<!-- Node572&#45;&gt;Node574 -->
<g id="edge16" class="edge">
<title>Node572&#45;&gt;Node574</title>
<path fill="none" stroke="#191970" d="M188.7951,-38.411C204.7621,-33.5956 224.3067,-27.7012 241.4465,-22.532"/>
<polygon fill="#191970" stroke="#191970" points="242.6516,-25.8244 251.2151,-19.5859 240.6304,-19.1225 242.6516,-25.8244"/>
</g>
</g>
</svg>
