<?xml version="1.0" encoding="UTF-8" standalone="no"?>
<!DOCTYPE svg PUBLIC "-//W3C//DTD SVG 1.1//EN"
 "http://www.w3.org/Graphics/SVG/1.1/DTD/svg11.dtd">
<!-- Generated by graphviz version 2.40.1 (20161225.0304)
 -->
<!-- Title: clset_pop_enforce_limit Pages: 1 -->
<svg width="604pt" height="180pt"
 viewBox="0.00 0.00 604.00 180.00" xmlns="http://www.w3.org/2000/svg" xmlns:xlink="http://www.w3.org/1999/xlink">
<g id="graph0" class="graph" transform="scale(1 1) rotate(0) translate(4 176)">
<title>clset_pop_enforce_limit</title>
<!-- Node326 -->
<g id="node1" class="node">
<title>Node326</title>
<polygon fill="#bfbfbf" stroke="#000000" points="0,-114.5 0,-133.5 119,-133.5 119,-114.5 0,-114.5"/>
<text text-anchor="middle" x="59.5" y="-121.5" font-family="Helvetica,sans-Serif" font-size="10.00" fill="#000000">clset_pop_enforce_limit</text>
</g>
<!-- Node327 -->
<g id="node2" class="node">
<title>Node327</title>
<g id="a_node2"><a xlink:href="clset_8c.html#ab1434372d7fab6e40f3c8d898d20e025" target="_top" xlink:title="Deletes a single classifier from the population set. ">
<polygon fill="none" stroke="#000000" points="155,-114.5 155,-133.5 232,-133.5 232,-114.5 155,-114.5"/>
<text text-anchor="middle" x="193.5" y="-121.5" font-family="Helvetica,sans-Serif" font-size="10.00" fill="#000000">clset_pop_del</text>
</a>
</g>
</g>
<!-- Node326&#45;&gt;Node327 -->
<g id="edge1" class="edge">
<title>Node326&#45;&gt;Node327</title>
<path fill="none" stroke="#191970" d="M119.0547,-124C127.6064,-124 136.3219,-124 144.6346,-124"/>
<polygon fill="#191970" stroke="#191970" points="144.906,-127.5001 154.906,-124 144.9059,-120.5001 144.906,-127.5001"/>
</g>
<!-- Node328 -->
<g id="node3" class="node">
<title>Node328</title>
<g id="a_node3"><a xlink:href="clset_8c.html#ae702f77855a5f1c42a8177f197706aee" target="_top" xlink:title="Adds a classifier to the set. ">
<polygon fill="none" stroke="#000000" points="298.5,-152.5 298.5,-171.5 357.5,-171.5 357.5,-152.5 298.5,-152.5"/>
<text text-anchor="middle" x="328" y="-159.5" font-family="Helvetica,sans-Serif" font-size="10.00" fill="#000000">clset_add</text>
</a>
</g>
</g>
<!-- Node327&#45;&gt;Node328 -->
<g id="edge2" class="edge">
<title>Node327&#45;&gt;Node328</title>
<path fill="none" stroke="#191970" d="M227.44,-133.589C245.9956,-138.8315 269.0775,-145.3527 288.4457,-150.8248"/>
<polygon fill="#191970" stroke="#191970" points="287.6169,-154.2276 298.1918,-153.5784 289.5201,-147.4913 287.6169,-154.2276"/>
</g>
<!-- Node329 -->
<g id="node4" class="node">
<title>Node329</title>
<g id="a_node4"><a xlink:href="clset_8c.html#af899fada328f41ed56991a51fe80db17" target="_top" xlink:title="Finds a rule in the population that never matches an input. ">
<polygon fill="none" stroke="#000000" points="268,-114.5 268,-133.5 388,-133.5 388,-114.5 268,-114.5"/>
<text text-anchor="middle" x="328" y="-121.5" font-family="Helvetica,sans-Serif" font-size="10.00" fill="#000000">clset_pop_never_match</text>
</a>
</g>
</g>
<!-- Node327&#45;&gt;Node329 -->
<g id="edge3" class="edge">
<title>Node327&#45;&gt;Node329</title>
<path fill="none" stroke="#191970" d="M232.0423,-124C240.1639,-124 248.9732,-124 257.85,-124"/>
<polygon fill="#191970" stroke="#191970" points="257.8679,-127.5001 267.8678,-124 257.8678,-120.5001 257.8679,-127.5001"/>
</g>
<!-- Node330 -->
<g id="node5" class="node">
<title>Node330</title>
<g id="a_node5"><a xlink:href="clset_8c.html#a008502b88c280aa55bb9a3645216209c" target="_top" xlink:title="clset_pop_roulette">
<polygon fill="none" stroke="#000000" points="280,-76.5 280,-95.5 376,-95.5 376,-76.5 280,-76.5"/>
<text text-anchor="middle" x="328" y="-83.5" font-family="Helvetica,sans-Serif" font-size="10.00" fill="#000000">clset_pop_roulette</text>
</a>
</g>
</g>
<!-- Node327&#45;&gt;Node330 -->
<g id="edge4" class="edge">
<title>Node327&#45;&gt;Node330</title>
<path fill="none" stroke="#191970" d="M227.44,-114.411C244.7231,-109.5281 265.9329,-103.5357 284.4112,-98.315"/>
<polygon fill="#191970" stroke="#191970" points="285.3992,-101.673 294.0708,-95.5859 283.4959,-94.9367 285.3992,-101.673"/>
</g>
<!-- Node331 -->
<g id="node6" class="node">
<title>Node331</title>
<g id="a_node6"><a xlink:href="clset_8c.html#aff1b530c481a2283ff4293449d1f8305" target="_top" xlink:title="Calculates the total fitness of classifiers in the set. ">
<polygon fill="none" stroke="#000000" points="424,-152.5 424,-171.5 499,-171.5 499,-152.5 424,-152.5"/>
<text text-anchor="middle" x="461.5" y="-159.5" font-family="Helvetica,sans-Serif" font-size="10.00" fill="#000000">clset_total_fit</text>
</a>
</g>
</g>
<!-- Node330&#45;&gt;Node331 -->
<g id="edge5" class="edge">
<title>Node330&#45;&gt;Node331</title>
<path fill="none" stroke="#191970" d="M367.9925,-95.5369C374.9399,-98.0551 381.8883,-101.1721 388,-105 407.7165,-117.3488 405.3493,-129.0937 424,-143 426.0478,-144.5269 428.2367,-145.9915 430.4897,-147.3822"/>
<polygon fill="#191970" stroke="#191970" points="428.9027,-150.5051 439.3347,-152.3556 432.3336,-144.4035 428.9027,-150.5051"/>
</g>
<!-- Node332 -->
<g id="node7" class="node">
<title>Node332</title>
<g id="a_node7"><a xlink:href="cl_8c.html#aa0059f455cba46b3a1acb6b8a271b95f" target="_top" xlink:title="Returns the deletion vote of the classifier. ">
<polygon fill="none" stroke="#000000" points="428.5,-114.5 428.5,-133.5 494.5,-133.5 494.5,-114.5 428.5,-114.5"/>
<text text-anchor="middle" x="461.5" y="-121.5" font-family="Helvetica,sans-Serif" font-size="10.00" fill="#000000">cl_del_vote</text>
</a>
</g>
</g>
<!-- Node330&#45;&gt;Node332 -->
<g id="edge6" class="edge">
<title>Node330&#45;&gt;Node332</title>
<path fill="none" stroke="#191970" d="M361.6877,-95.589C378.9732,-100.5092 400.216,-106.5559 418.6548,-111.8044"/>
<polygon fill="#191970" stroke="#191970" points="417.7094,-115.1742 428.2855,-114.5457 419.6258,-108.4416 417.7094,-115.1742"/>
</g>
<!-- Node333 -->
<g id="node8" class="node">
<title>Node333</title>
<g id="a_node8"><a xlink:href="utils_8c.html#ae42a9e1d467853befaa7922cfafed3bb" target="_top" xlink:title="Returns a uniform random float [min,max]. ">
<polygon fill="none" stroke="#000000" points="425,-76.5 425,-95.5 498,-95.5 498,-76.5 425,-76.5"/>
<text text-anchor="middle" x="461.5" y="-83.5" font-family="Helvetica,sans-Serif" font-size="10.00" fill="#000000">rand_uniform</text>
</a>
</g>
</g>
<!-- Node330&#45;&gt;Node333 -->
<g id="edge7" class="edge">
<title>Node330&#45;&gt;Node333</title>
<path fill="none" stroke="#191970" d="M376.1966,-86C388.6832,-86 402.1108,-86 414.5334,-86"/>
<polygon fill="#191970" stroke="#191970" points="414.6893,-89.5001 424.6893,-86 414.6892,-82.5001 414.6893,-89.5001"/>
</g>
<!-- Node335 -->
<g id="node10" class="node">
<title>Node335</title>
<g id="a_node10"><a xlink:href="cl_8c.html#a49f5a7f4f2f47ce1cf7f33b3769de7cc" target="_top" xlink:title="Returns the size of the classifier condition. ">
<polygon fill="none" stroke="#000000" points="424.5,-38.5 424.5,-57.5 498.5,-57.5 498.5,-38.5 424.5,-38.5"/>
<text text-anchor="middle" x="461.5" y="-45.5" font-family="Helvetica,sans-Serif" font-size="10.00" fill="#000000">cl_cond_size</text>
</a>
</g>
</g>
<!-- Node330&#45;&gt;Node335 -->
<g id="edge9" class="edge">
<title>Node330&#45;&gt;Node335</title>
<path fill="none" stroke="#191970" d="M361.6877,-76.411C378.7632,-71.5506 399.7004,-65.5909 417.9816,-60.3873"/>
<polygon fill="#191970" stroke="#191970" points="419.1634,-63.69 427.8231,-57.5859 417.2469,-56.9574 419.1634,-63.69"/>
</g>
<!-- Node337 -->
<g id="node12" class="node">
<title>Node337</title>
<g id="a_node12"><a xlink:href="cl_8c.html#a72d3cf213699a8d68d348ff75c2b2d49" target="_top" xlink:title="Returns the size of the classifier prediction. ">
<polygon fill="none" stroke="#000000" points="426,-.5 426,-19.5 497,-19.5 497,-.5 426,-.5"/>
<text text-anchor="middle" x="461.5" y="-7.5" font-family="Helvetica,sans-Serif" font-size="10.00" fill="#000000">cl_pred_size</text>
</a>
</g>
</g>
<!-- Node330&#45;&gt;Node337 -->
<g id="edge11" class="edge">
<title>Node330&#45;&gt;Node337</title>
<path fill="none" stroke="#191970" d="M343.4453,-76.3958C362.2625,-64.7963 395.1203,-44.8667 424,-29 426.8784,-27.4186 429.9037,-25.806 432.9351,-24.2222"/>
<polygon fill="#191970" stroke="#191970" points="434.6095,-27.2969 441.9075,-19.6165 431.4128,-21.0694 434.6095,-27.2969"/>
</g>
<!-- Node334 -->
<g id="node9" class="node">
<title>Node334</title>
<g id="a_node9"><a xlink:href="utils_8c.html#a101d27cdda714b7f17a06224c65cac56" target="_top" xlink:title="Returns a uniform random float (0,1) ">
<polygon fill="none" stroke="#000000" points="545,-76.5 545,-95.5 586,-95.5 586,-76.5 545,-76.5"/>
<text text-anchor="middle" x="565.5" y="-83.5" font-family="Helvetica,sans-Serif" font-size="10.00" fill="#000000">drand</text>
</a>
</g>
</g>
<!-- Node333&#45;&gt;Node334 -->
<g id="edge8" class="edge">
<title>Node333&#45;&gt;Node334</title>
<path fill="none" stroke="#191970" d="M498.1665,-86C510.1661,-86 523.362,-86 534.8681,-86"/>
<polygon fill="#191970" stroke="#191970" points="534.8772,-89.5001 544.8772,-86 534.8772,-82.5001 534.8772,-89.5001"/>
</g>
<!-- Node336 -->
<g id="node11" class="node">
<title>Node336</title>
<g id="a_node11"><a xlink:href="condition_8h.html#afc882c8ebd96835127f8e611b815d447" target="_top" xlink:title="Returns the size of the classifier condition. ">
<polygon fill="none" stroke="#000000" points="535,-38.5 535,-57.5 596,-57.5 596,-38.5 535,-38.5"/>
<text text-anchor="middle" x="565.5" y="-45.5" font-family="Helvetica,sans-Serif" font-size="10.00" fill="#000000">cond_size</text>
</a>
</g>
</g>
<!-- Node335&#45;&gt;Node336 -->
<g id="edge10" class="edge">
<title>Node335&#45;&gt;Node336</title>
<path fill="none" stroke="#191970" d="M498.7526,-48C507.1228,-48 516.0488,-48 524.5602,-48"/>
<polygon fill="#191970" stroke="#191970" points="524.6715,-51.5001 534.6715,-48 524.6715,-44.5001 524.6715,-51.5001"/>
</g>
<!-- Node338 -->
<g id="node13" class="node">
<title>Node338</title>
<g id="a_node13"><a xlink:href="prediction_8h.html#a60ead673b526125328224ec152916290" target="_top" xlink:title="Returns the size of the classifier prediction. ">
<polygon fill="none" stroke="#000000" points="536,-.5 536,-19.5 595,-19.5 595,-.5 536,-.5"/>
<text text-anchor="middle" x="565.5" y="-7.5" font-family="Helvetica,sans-Serif" font-size="10.00" fill="#000000">pred_size</text>
</a>
</g>
</g>
<!-- Node337&#45;&gt;Node338 -->
<g id="edge12" class="edge">
<title>Node337&#45;&gt;Node338</title>
<path fill="none" stroke="#191970" d="M497,-10C506.1493,-10 516.0589,-10 525.4232,-10"/>
<polygon fill="#191970" stroke="#191970" points="525.6945,-13.5001 535.6945,-10 525.6945,-6.5001 525.6945,-13.5001"/>
</g>
</g>
</svg>
