<?xml version="1.0" encoding="UTF-8" standalone="no"?>
<!DOCTYPE svg PUBLIC "-//W3C//DTD SVG 1.1//EN"
 "http://www.w3.org/Graphics/SVG/1.1/DTD/svg11.dtd">
<!-- Generated by graphviz version 2.40.1 (20161225.0304)
 -->
<!-- Title: cond_neural_cover Pages: 1 -->
<svg width="481pt" height="142pt"
 viewBox="0.00 0.00 481.00 142.00" xmlns="http://www.w3.org/2000/svg" xmlns:xlink="http://www.w3.org/1999/xlink">
<g id="graph0" class="graph" transform="scale(1 1) rotate(0) translate(4 138)">
<title>cond_neural_cover</title>
<!-- Node6 -->
<g id="node1" class="node">
<title>Node6</title>
<polygon fill="#bfbfbf" stroke="#000000" points="0,-19.5 0,-38.5 98,-38.5 98,-19.5 0,-19.5"/>
<text text-anchor="middle" x="49" y="-26.5" font-family="Helvetica,sans-Serif" font-size="10.00" fill="#000000">cond_neural_cover</text>
</g>
<!-- Node7 -->
<g id="node2" class="node">
<title>Node7</title>
<g id="a_node2"><a xlink:href="cond__neural_8c.html#ac3692493647d41d7a518e505f0a5ed75" target="_top" xlink:title="cond_neural_match">
<polygon fill="none" stroke="#000000" points="134,-38.5 134,-57.5 235,-57.5 235,-38.5 134,-38.5"/>
<text text-anchor="middle" x="184.5" y="-45.5" font-family="Helvetica,sans-Serif" font-size="10.00" fill="#000000">cond_neural_match</text>
</a>
</g>
</g>
<!-- Node6&#45;&gt;Node7 -->
<g id="edge1" class="edge">
<title>Node6&#45;&gt;Node7</title>
<path fill="none" stroke="#191970" d="M98.3019,-35.9132C106.479,-37.0598 115.0441,-38.2608 123.4693,-39.4422"/>
<polygon fill="#191970" stroke="#191970" points="123.252,-42.9459 133.6412,-40.8685 124.2241,-36.0137 123.252,-42.9459"/>
</g>
<!-- Node13 -->
<g id="node8" class="node">
<title>Node13</title>
<g id="a_node8"><a xlink:href="cond__neural_8c.html#ad6844bd6ba382941a9591a22df990047" target="_top" xlink:title="cond_neural_rand">
<polygon fill="none" stroke="#000000" points="138,-.5 138,-19.5 231,-19.5 231,-.5 138,-.5"/>
<text text-anchor="middle" x="184.5" y="-7.5" font-family="Helvetica,sans-Serif" font-size="10.00" fill="#000000">cond_neural_rand</text>
</a>
</g>
</g>
<!-- Node6&#45;&gt;Node13 -->
<g id="edge8" class="edge">
<title>Node6&#45;&gt;Node13</title>
<path fill="none" stroke="#191970" d="M98.3019,-22.0868C107.8493,-20.7481 117.9257,-19.3351 127.6907,-17.9659"/>
<polygon fill="#191970" stroke="#191970" points="128.3018,-21.4145 137.7189,-16.5597 127.3297,-14.4823 128.3018,-21.4145"/>
</g>
<!-- Node8 -->
<g id="node3" class="node">
<title>Node8</title>
<g id="a_node3"><a xlink:href="neural_8c.html#a54519ef979c15ec72900c5e246e337cf" target="_top" xlink:title="Returns the output of a specified neuron in the output layer of a neural network. ...">
<polygon fill="none" stroke="#000000" points="279,-76.5 279,-95.5 354,-95.5 354,-76.5 279,-76.5"/>
<text text-anchor="middle" x="316.5" y="-83.5" font-family="Helvetica,sans-Serif" font-size="10.00" fill="#000000">neural_output</text>
</a>
</g>
</g>
<!-- Node7&#45;&gt;Node8 -->
<g id="edge2" class="edge">
<title>Node7&#45;&gt;Node8</title>
<path fill="none" stroke="#191970" d="M217.8092,-57.589C234.6928,-62.4494 255.3948,-68.4091 273.4705,-73.6127"/>
<polygon fill="#191970" stroke="#191970" points="272.6235,-77.011 283.2015,-76.4141 274.56,-70.2842 272.6235,-77.011"/>
</g>
<!-- Node11 -->
<g id="node6" class="node">
<title>Node11</title>
<g id="a_node6"><a xlink:href="neural_8c.html#aff8503d553d492dfb12b34deaf8bb1cf" target="_top" xlink:title="Forward propagates a neural network. ">
<polygon fill="none" stroke="#000000" points="271,-38.5 271,-57.5 362,-57.5 362,-38.5 271,-38.5"/>
<text text-anchor="middle" x="316.5" y="-45.5" font-family="Helvetica,sans-Serif" font-size="10.00" fill="#000000">neural_propagate</text>
</a>
</g>
</g>
<!-- Node7&#45;&gt;Node11 -->
<g id="edge5" class="edge">
<title>Node7&#45;&gt;Node11</title>
<path fill="none" stroke="#191970" d="M235.1571,-48C243.5306,-48 252.253,-48 260.7435,-48"/>
<polygon fill="#191970" stroke="#191970" points="260.9461,-51.5001 270.946,-48 260.946,-44.5001 260.9461,-51.5001"/>
</g>
<!-- Node9 -->
<g id="node4" class="node">
<title>Node9</title>
<g id="a_node4"><a xlink:href="neural__layer_8h.html#ae368122593145e157358d7059bbf0901" target="_top" xlink:title="layer_output">
<polygon fill="none" stroke="#000000" points="400.5,-76.5 400.5,-95.5 470.5,-95.5 470.5,-76.5 400.5,-76.5"/>
<text text-anchor="middle" x="435.5" y="-83.5" font-family="Helvetica,sans-Serif" font-size="10.00" fill="#000000">layer_output</text>
</a>
</g>
</g>
<!-- Node8&#45;&gt;Node9 -->
<g id="edge3" class="edge">
<title>Node8&#45;&gt;Node9</title>
<path fill="none" stroke="#191970" d="M354.1523,-86C365.528,-86 378.141,-86 389.9726,-86"/>
<polygon fill="#191970" stroke="#191970" points="390.1183,-89.5001 400.1183,-86 390.1182,-82.5001 390.1183,-89.5001"/>
</g>
<!-- Node10 -->
<g id="node5" class="node">
<title>Node10</title>
<g id="a_node5"><a xlink:href="utils_8c.html#a4d9693be6ce890dc7a2ee825d11ca3ee" target="_top" xlink:title="Returns a float constrained within the specified range. ">
<polygon fill="none" stroke="#000000" points="407.5,-114.5 407.5,-133.5 463.5,-133.5 463.5,-114.5 407.5,-114.5"/>
<text text-anchor="middle" x="435.5" y="-121.5" font-family="Helvetica,sans-Serif" font-size="10.00" fill="#000000">constrain</text>
</a>
</g>
</g>
<!-- Node8&#45;&gt;Node10 -->
<g id="edge4" class="edge">
<title>Node8&#45;&gt;Node10</title>
<path fill="none" stroke="#191970" d="M346.5287,-95.589C361.9238,-100.5051 380.8406,-106.5457 397.2671,-111.7912"/>
<polygon fill="#191970" stroke="#191970" points="396.5286,-115.2294 407.1194,-114.9373 398.658,-108.5611 396.5286,-115.2294"/>
</g>
<!-- Node11&#45;&gt;Node9 -->
<g id="edge7" class="edge">
<title>Node11&#45;&gt;Node9</title>
<path fill="none" stroke="#191970" d="M346.5287,-57.589C361.4677,-62.3594 379.7227,-68.1888 395.8006,-73.3229"/>
<polygon fill="#191970" stroke="#191970" points="394.8901,-76.7062 405.4809,-76.4141 397.0195,-70.0379 394.8901,-76.7062"/>
</g>
<!-- Node12 -->
<g id="node7" class="node">
<title>Node12</title>
<g id="a_node7"><a xlink:href="neural__layer_8h.html#a8b62312b086849e746bb175faeb8d157" target="_top" xlink:title="layer_forward">
<polygon fill="none" stroke="#000000" points="398,-38.5 398,-57.5 473,-57.5 473,-38.5 398,-38.5"/>
<text text-anchor="middle" x="435.5" y="-45.5" font-family="Helvetica,sans-Serif" font-size="10.00" fill="#000000">layer_forward</text>
</a>
</g>
</g>
<!-- Node11&#45;&gt;Node12 -->
<g id="edge6" class="edge">
<title>Node11&#45;&gt;Node12</title>
<path fill="none" stroke="#191970" d="M362.1682,-48C370.5558,-48 379.3316,-48 387.7776,-48"/>
<polygon fill="#191970" stroke="#191970" points="387.8681,-51.5001 397.8681,-48 387.868,-44.5001 387.8681,-51.5001"/>
</g>
<!-- Node14 -->
<g id="node9" class="node">
<title>Node14</title>
<g id="a_node9"><a xlink:href="neural_8c.html#a3c856d22c24c212862bc7d07d9a93549" target="_top" xlink:title="Randomises the layers within a neural network. ">
<polygon fill="none" stroke="#000000" points="283,-.5 283,-19.5 350,-19.5 350,-.5 283,-.5"/>
<text text-anchor="middle" x="316.5" y="-7.5" font-family="Helvetica,sans-Serif" font-size="10.00" fill="#000000">neural_rand</text>
</a>
</g>
</g>
<!-- Node13&#45;&gt;Node14 -->
<g id="edge9" class="edge">
<title>Node13&#45;&gt;Node14</title>
<path fill="none" stroke="#191970" d="M231.0383,-10C244.5091,-10 259.1678,-10 272.4798,-10"/>
<polygon fill="#191970" stroke="#191970" points="272.8186,-13.5001 282.8186,-10 272.8185,-6.5001 272.8186,-13.5001"/>
</g>
<!-- Node15 -->
<g id="node10" class="node">
<title>Node15</title>
<g id="a_node10"><a xlink:href="neural__layer_8h.html#afbff326e8a428fe817bfae53396d3f60" target="_top" xlink:title="layer_rand">
<polygon fill="none" stroke="#000000" points="404.5,-.5 404.5,-19.5 466.5,-19.5 466.5,-.5 404.5,-.5"/>
<text text-anchor="middle" x="435.5" y="-7.5" font-family="Helvetica,sans-Serif" font-size="10.00" fill="#000000">layer_rand</text>
</a>
</g>
</g>
<!-- Node14&#45;&gt;Node15 -->
<g id="edge10" class="edge">
<title>Node14&#45;&gt;Node15</title>
<path fill="none" stroke="#191970" d="M350.2823,-10C363.9951,-10 379.9645,-10 394.3482,-10"/>
<polygon fill="#191970" stroke="#191970" points="394.4867,-13.5001 404.4866,-10 394.4866,-6.5001 394.4867,-13.5001"/>
</g>
</g>
</svg>
