<?xml version="1.0" encoding="UTF-8" standalone="no"?>
<!DOCTYPE svg PUBLIC "-//W3C//DTD SVG 1.1//EN"
 "http://www.w3.org/Graphics/SVG/1.1/DTD/svg11.dtd">
<!-- Generated by graphviz version 2.40.1 (20161225.0304)
 -->
<!-- Title: cond_ellipsoid_init Pages: 1 -->
<svg width="1276pt" height="86pt"
 viewBox="0.00 0.00 1276.00 86.15" xmlns="http://www.w3.org/2000/svg" xmlns:xlink="http://www.w3.org/1999/xlink">
<g id="graph0" class="graph" transform="scale(1 1) rotate(0) translate(4 82.1503)">
<title>cond_ellipsoid_init</title>
<!-- Node22 -->
<g id="node1" class="node">
<title>Node22</title>
<polygon fill="#bfbfbf" stroke="#000000" points="0,-57.5 0,-76.5 96,-76.5 96,-57.5 0,-57.5"/>
<text text-anchor="middle" x="48" y="-64.5" font-family="Helvetica,sans-Serif" font-size="10.00" fill="#000000">cond_ellipsoid_init</text>
</g>
<!-- Node23 -->
<g id="node2" class="node">
<title>Node23</title>
<g id="a_node2"><a xlink:href="utils_8c.html#ae42a9e1d467853befaa7922cfafed3bb" target="_top" xlink:title="Returns a uniform random float [min,max]. ">
<polygon fill="none" stroke="#000000" points="518,-38.5 518,-57.5 591,-57.5 591,-38.5 518,-38.5"/>
<text text-anchor="middle" x="554.5" y="-45.5" font-family="Helvetica,sans-Serif" font-size="10.00" fill="#000000">rand_uniform</text>
</a>
</g>
</g>
<!-- Node22&#45;&gt;Node23 -->
<g id="edge1" class="edge">
<title>Node22&#45;&gt;Node23</title>
<path fill="none" stroke="#191970" d="M96.1008,-70.9942C176.434,-76.7732 342.8166,-84.935 482,-67 492.9533,-65.5886 504.6128,-63.0246 515.3063,-60.2274"/>
<polygon fill="#191970" stroke="#191970" points="516.4945,-63.5306 525.2083,-57.5041 514.6382,-56.7812 516.4945,-63.5306"/>
</g>
<!-- Node29 -->
<g id="node8" class="node">
<title>Node29</title>
<g id="a_node8"><a xlink:href="sam_8c.html#a3164f33509a5dc751b57a544fe2153a7" target="_top" xlink:title="Initialises self&#45;adaptive mutation rates. ">
<polygon fill="none" stroke="#000000" points="132,-38.5 132,-57.5 185,-57.5 185,-38.5 132,-38.5"/>
<text text-anchor="middle" x="158.5" y="-45.5" font-family="Helvetica,sans-Serif" font-size="10.00" fill="#000000">sam_init</text>
</a>
</g>
</g>
<!-- Node22&#45;&gt;Node29 -->
<g id="edge7" class="edge">
<title>Node22&#45;&gt;Node29</title>
<path fill="none" stroke="#191970" d="M96.1455,-58.7216C104.733,-57.245 113.5534,-55.7284 121.7581,-54.3176"/>
<polygon fill="#191970" stroke="#191970" points="122.4954,-57.7423 131.7576,-52.5982 121.3091,-50.8435 122.4954,-57.7423"/>
</g>
<!-- Node24 -->
<g id="node3" class="node">
<title>Node24</title>
<g id="a_node3"><a xlink:href="utils_8c.html#a101d27cdda714b7f17a06224c65cac56" target="_top" xlink:title="Returns a uniform random float (0,1) ">
<polygon fill="none" stroke="#000000" points="627,-38.5 627,-57.5 668,-57.5 668,-38.5 627,-38.5"/>
<text text-anchor="middle" x="647.5" y="-45.5" font-family="Helvetica,sans-Serif" font-size="10.00" fill="#000000">drand</text>
</a>
</g>
</g>
<!-- Node23&#45;&gt;Node24 -->
<g id="edge2" class="edge">
<title>Node23&#45;&gt;Node24</title>
<path fill="none" stroke="#191970" d="M591.2561,-48C599.658,-48 608.5043,-48 616.63,-48"/>
<polygon fill="#191970" stroke="#191970" points="616.799,-51.5001 626.7989,-48 616.7989,-44.5001 616.799,-51.5001"/>
</g>
<!-- Node25 -->
<g id="node4" class="node">
<title>Node25</title>
<g id="a_node4"><a xlink:href="dSFMT_8h.html#af6dbcef408462da1f40edd1a1ea5dcd3" target="_top" xlink:title="dsfmt_gv_genrand_open_open">
<polygon fill="none" stroke="#000000" points="704,-38.5 704,-57.5 853,-57.5 853,-38.5 704,-38.5"/>
<text text-anchor="middle" x="778.5" y="-45.5" font-family="Helvetica,sans-Serif" font-size="10.00" fill="#000000">dsfmt_gv_genrand_open_open</text>
</a>
</g>
</g>
<!-- Node24&#45;&gt;Node25 -->
<g id="edge3" class="edge">
<title>Node24&#45;&gt;Node25</title>
<path fill="none" stroke="#191970" d="M668.2573,-48C675.5688,-48 684.3051,-48 693.6156,-48"/>
<polygon fill="#191970" stroke="#191970" points="693.9038,-51.5001 703.9037,-48 693.9037,-44.5001 693.9038,-51.5001"/>
</g>
<!-- Node26 -->
<g id="node5" class="node">
<title>Node26</title>
<g id="a_node5"><a xlink:href="dSFMT_8h.html#a147a0a05c969a4cb5d92ce3963b839c2" target="_top" xlink:title="dsfmt_genrand_open_open">
<polygon fill="none" stroke="#000000" points="889,-38.5 889,-57.5 1023,-57.5 1023,-38.5 889,-38.5"/>
<text text-anchor="middle" x="956" y="-45.5" font-family="Helvetica,sans-Serif" font-size="10.00" fill="#000000">dsfmt_genrand_open_open</text>
</a>
</g>
</g>
<!-- Node25&#45;&gt;Node26 -->
<g id="edge4" class="edge">
<title>Node25&#45;&gt;Node26</title>
<path fill="none" stroke="#191970" d="M853.0045,-48C861.4355,-48 870.0427,-48 878.5109,-48"/>
<polygon fill="#191970" stroke="#191970" points="878.7501,-51.5001 888.75,-48 878.75,-44.5001 878.7501,-51.5001"/>
</g>
<!-- Node27 -->
<g id="node6" class="node">
<title>Node27</title>
<g id="a_node6"><a xlink:href="dSFMT_8h.html#afccb1e4d75cea7ffe3b45cba53d1e5e0" target="_top" xlink:title="dsfmt_gen_rand_all">
<polygon fill="none" stroke="#000000" points="1059,-38.5 1059,-57.5 1160,-57.5 1160,-38.5 1059,-38.5"/>
<text text-anchor="middle" x="1109.5" y="-45.5" font-family="Helvetica,sans-Serif" font-size="10.00" fill="#000000">dsfmt_gen_rand_all</text>
</a>
</g>
</g>
<!-- Node26&#45;&gt;Node27 -->
<g id="edge5" class="edge">
<title>Node26&#45;&gt;Node27</title>
<path fill="none" stroke="#191970" d="M1023.3273,-48C1031.8031,-48 1040.4345,-48 1048.7997,-48"/>
<polygon fill="#191970" stroke="#191970" points="1048.8429,-51.5001 1058.8429,-48 1048.8428,-44.5001 1048.8429,-51.5001"/>
</g>
<!-- Node28 -->
<g id="node7" class="node">
<title>Node28</title>
<g id="a_node7"><a xlink:href="dSFMT-common_8h.html#a43e33e2235015c9c072bad7dfe1a282c" target="_top" xlink:title="do_recursion">
<polygon fill="none" stroke="#000000" points="1196,-38.5 1196,-57.5 1268,-57.5 1268,-38.5 1196,-38.5"/>
<text text-anchor="middle" x="1232" y="-45.5" font-family="Helvetica,sans-Serif" font-size="10.00" fill="#000000">do_recursion</text>
</a>
</g>
</g>
<!-- Node27&#45;&gt;Node28 -->
<g id="edge6" class="edge">
<title>Node27&#45;&gt;Node28</title>
<path fill="none" stroke="#191970" d="M1160.0327,-48C1168.5603,-48 1177.3741,-48 1185.7846,-48"/>
<polygon fill="#191970" stroke="#191970" points="1185.7975,-51.5001 1195.7974,-48 1185.7974,-44.5001 1185.7975,-51.5001"/>
</g>
<!-- Node30 -->
<g id="node9" class="node">
<title>Node30</title>
<g id="a_node9"><a xlink:href="sam_8c.html#a3376574f2624a397ac253242b1958491" target="_top" xlink:title="Initialises log normal self&#45;adaptive mutation rates. ">
<polygon fill="none" stroke="#000000" points="376,-38.5 376,-57.5 482,-57.5 482,-38.5 376,-38.5"/>
<text text-anchor="middle" x="429" y="-45.5" font-family="Helvetica,sans-Serif" font-size="10.00" fill="#000000">sam_log_normal_init</text>
</a>
</g>
</g>
<!-- Node29&#45;&gt;Node30 -->
<g id="edge8" class="edge">
<title>Node29&#45;&gt;Node30</title>
<path fill="none" stroke="#191970" d="M185.4255,-48C227.1525,-48 308.5782,-48 365.7609,-48"/>
<polygon fill="#191970" stroke="#191970" points="365.7849,-51.5001 375.7849,-48 365.7849,-44.5001 365.7849,-51.5001"/>
</g>
<!-- Node31 -->
<g id="node10" class="node">
<title>Node31</title>
<g id="a_node10"><a xlink:href="sam_8c.html#a5c510f09cd5f6069b67e1b9a59df7acc" target="_top" xlink:title="Initialises rate selection self&#45;adaptive mutation. ">
<polygon fill="none" stroke="#000000" points="221,-.5 221,-19.5 340,-19.5 340,-.5 221,-.5"/>
<text text-anchor="middle" x="280.5" y="-7.5" font-family="Helvetica,sans-Serif" font-size="10.00" fill="#000000">sam_rate_selection_init</text>
</a>
</g>
</g>
<!-- Node29&#45;&gt;Node31 -->
<g id="edge10" class="edge">
<title>Node29&#45;&gt;Node31</title>
<path fill="none" stroke="#191970" d="M185.2734,-39.6607C201.371,-34.6467 222.1704,-28.1682 240.2221,-22.5456"/>
<polygon fill="#191970" stroke="#191970" points="241.4142,-25.8402 249.9209,-19.5246 239.3324,-19.1569 241.4142,-25.8402"/>
</g>
<!-- Node30&#45;&gt;Node23 -->
<g id="edge9" class="edge">
<title>Node30&#45;&gt;Node23</title>
<path fill="none" stroke="#191970" d="M482.2233,-48C490.6785,-48 499.37,-48 507.6643,-48"/>
<polygon fill="#191970" stroke="#191970" points="507.9104,-51.5001 517.9103,-48 507.9103,-44.5001 507.9104,-51.5001"/>
</g>
<!-- Node32 -->
<g id="node11" class="node">
<title>Node32</title>
<g id="a_node11"><a xlink:href="utils_8c.html#a32648ab076544a9ac1c086d0f07b599f" target="_top" xlink:title="Returns a uniform random integer [min,max] not inclusive of max. ">
<polygon fill="none" stroke="#000000" points="391.5,-.5 391.5,-19.5 466.5,-19.5 466.5,-.5 391.5,-.5"/>
<text text-anchor="middle" x="429" y="-7.5" font-family="Helvetica,sans-Serif" font-size="10.00" fill="#000000">irand_uniform</text>
</a>
</g>
</g>
<!-- Node31&#45;&gt;Node32 -->
<g id="edge11" class="edge">
<title>Node31&#45;&gt;Node32</title>
<path fill="none" stroke="#191970" d="M340.045,-10C353.6704,-10 367.9841,-10 381.05,-10"/>
<polygon fill="#191970" stroke="#191970" points="381.2241,-13.5001 391.2241,-10 381.2241,-6.5001 381.2241,-13.5001"/>
</g>
<!-- Node32&#45;&gt;Node23 -->
<g id="edge12" class="edge">
<title>Node32&#45;&gt;Node23</title>
<path fill="none" stroke="#191970" d="M460.6689,-19.589C476.5725,-24.4044 496.0396,-30.2988 513.1114,-35.468"/>
<polygon fill="#191970" stroke="#191970" points="512.256,-38.8658 522.8412,-38.4141 514.2846,-32.1662 512.256,-38.8658"/>
</g>
</g>
</svg>
