<?xml version="1.0" encoding="UTF-8" standalone="no"?>
<!DOCTYPE svg PUBLIC "-//W3C//DTD SVG 1.1//EN"
 "http://www.w3.org/Graphics/SVG/1.1/DTD/svg11.dtd">
<!-- Generated by graphviz version 2.40.1 (20161225.0304)
 -->
<!-- Title: cond_neural_mutate Pages: 1 -->
<svg width="1182pt" height="142pt"
 viewBox="0.00 0.00 1182.00 142.00" xmlns="http://www.w3.org/2000/svg" xmlns:xlink="http://www.w3.org/1999/xlink">
<g id="graph0" class="graph" transform="scale(1 1) rotate(0) translate(4 138)">
<title>cond_neural_mutate</title>
<!-- Node75 -->
<g id="node1" class="node">
<title>Node75</title>
<polygon fill="#bfbfbf" stroke="#000000" points="0,-57.5 0,-76.5 104,-76.5 104,-57.5 0,-57.5"/>
<text text-anchor="middle" x="52" y="-64.5" font-family="Helvetica,sans-Serif" font-size="10.00" fill="#000000">cond_neural_mutate</text>
</g>
<!-- Node76 -->
<g id="node2" class="node">
<title>Node76</title>
<g id="a_node2"><a xlink:href="$neural_8c.html#a9da7f9b824f9ef3e27e2e7c3a275a975" xlink:title="Mutates a neural network. ">
<polygon fill="none" stroke="#000000" points="140,-57.5 140,-76.5 218,-76.5 218,-57.5 140,-57.5"/>
<text text-anchor="middle" x="179" y="-64.5" font-family="Helvetica,sans-Serif" font-size="10.00" fill="#000000">neural_mutate</text>
</a>
</g>
</g>
<!-- Node75&#45;&gt;Node76 -->
<g id="edge1" class="edge">
<title>Node75&#45;&gt;Node76</title>
<path fill="none" stroke="#191970" d="M104.0222,-67C112.496,-67 121.252,-67 129.659,-67"/>
<polygon fill="#191970" stroke="#191970" points="129.6984,-70.5001 139.6983,-67 129.6983,-63.5001 129.6984,-70.5001"/>
</g>
<!-- Node77 -->
<g id="node3" class="node">
<title>Node77</title>
<g id="a_node3"><a xlink:href="$sam_8c.html#a3164f33509a5dc751b57a544fe2153a7" xlink:title="Initialises self&#45;adaptive mutation rates. ">
<polygon fill="none" stroke="#000000" points="264,-114.5 264,-133.5 317,-133.5 317,-114.5 264,-114.5"/>
<text text-anchor="middle" x="290.5" y="-121.5" font-family="Helvetica,sans-Serif" font-size="10.00" fill="#000000">sam_init</text>
</a>
</g>
</g>
<!-- Node76&#45;&gt;Node77 -->
<g id="edge2" class="edge">
<title>Node76&#45;&gt;Node77</title>
<path fill="none" stroke="#191970" d="M197.6626,-76.5405C215.4309,-85.6239 242.3977,-99.4096 262.6969,-109.7867"/>
<polygon fill="#191970" stroke="#191970" points="261.2794,-112.9929 271.7765,-114.4284 264.4657,-106.7601 261.2794,-112.9929"/>
</g>
<!-- Node86 -->
<g id="node12" class="node">
<title>Node86</title>
<g id="a_node12"><a xlink:href="$neural__layer_8h.html#ab76b0a2c3d47e870fb8e8086ece24766" xlink:title="layer_resize">
<polygon fill="none" stroke="#000000" points="256,-76.5 256,-95.5 325,-95.5 325,-76.5 256,-76.5"/>
<text text-anchor="middle" x="290.5" y="-83.5" font-family="Helvetica,sans-Serif" font-size="10.00" fill="#000000">layer_resize</text>
</a>
</g>
</g>
<!-- Node76&#45;&gt;Node86 -->
<g id="edge12" class="edge">
<title>Node76&#45;&gt;Node86</title>
<path fill="none" stroke="#191970" d="M218.3107,-73.6987C227.2394,-75.2202 236.7858,-76.8469 245.9157,-78.4027"/>
<polygon fill="#191970" stroke="#191970" points="245.5456,-81.89 255.9914,-80.1196 246.7215,-74.9894 245.5456,-81.89"/>
</g>
<!-- Node87 -->
<g id="node13" class="node">
<title>Node87</title>
<g id="a_node13"><a xlink:href="$neural__layer_8h.html#aba48b2cb173d0298d54f222dc70eada8" xlink:title="layer_mutate">
<polygon fill="none" stroke="#000000" points="254,-38.5 254,-57.5 327,-57.5 327,-38.5 254,-38.5"/>
<text text-anchor="middle" x="290.5" y="-45.5" font-family="Helvetica,sans-Serif" font-size="10.00" fill="#000000">layer_mutate</text>
</a>
</g>
</g>
<!-- Node76&#45;&gt;Node87 -->
<g id="edge13" class="edge">
<title>Node76&#45;&gt;Node87</title>
<path fill="none" stroke="#191970" d="M218.3107,-60.3013C226.5124,-58.9037 235.2355,-57.4173 243.6781,-55.9786"/>
<polygon fill="#191970" stroke="#191970" points="244.5132,-59.3868 253.7832,-54.2567 243.3373,-52.4863 244.5132,-59.3868"/>
</g>
<!-- Node88 -->
<g id="node14" class="node">
<title>Node88</title>
<g id="a_node14"><a xlink:href="$neural_8c.html#aae496b78c4dfc64d20cef1598ca96184" xlink:title="mutate_eta">
<polygon fill="none" stroke="#000000" points="258,-.5 258,-19.5 323,-19.5 323,-.5 258,-.5"/>
<text text-anchor="middle" x="290.5" y="-7.5" font-family="Helvetica,sans-Serif" font-size="10.00" fill="#000000">mutate_eta</text>
</a>
</g>
</g>
<!-- Node76&#45;&gt;Node88 -->
<g id="edge14" class="edge">
<title>Node76&#45;&gt;Node88</title>
<path fill="none" stroke="#191970" d="M197.6626,-57.4595C215.4309,-48.3761 242.3977,-34.5904 262.6969,-24.2133"/>
<polygon fill="#191970" stroke="#191970" points="264.4657,-27.2399 271.7765,-19.5716 261.2794,-21.0071 264.4657,-27.2399"/>
</g>
<!-- Node78 -->
<g id="node4" class="node">
<title>Node78</title>
<g id="a_node4"><a xlink:href="$sam_8c.html#a3376574f2624a397ac253242b1958491" xlink:title="Initialises log normal self&#45;adaptive mutation rates. ">
<polygon fill="none" stroke="#000000" points="518,-114.5 518,-133.5 624,-133.5 624,-114.5 518,-114.5"/>
<text text-anchor="middle" x="571" y="-121.5" font-family="Helvetica,sans-Serif" font-size="10.00" fill="#000000">sam_log_normal_init</text>
</a>
</g>
</g>
<!-- Node77&#45;&gt;Node78 -->
<g id="edge3" class="edge">
<title>Node77&#45;&gt;Node78</title>
<path fill="none" stroke="#191970" d="M317.1416,-124C360.5778,-124 447.8187,-124 507.7984,-124"/>
<polygon fill="#191970" stroke="#191970" points="507.9207,-127.5001 517.9206,-124 507.9206,-120.5001 507.9207,-127.5001"/>
</g>
<!-- Node84 -->
<g id="node10" class="node">
<title>Node84</title>
<g id="a_node10"><a xlink:href="$sam_8c.html#a5c510f09cd5f6069b67e1b9a59df7acc" xlink:title="Initialises rate selection self&#45;adaptive mutation. ">
<polygon fill="none" stroke="#000000" points="363,-76.5 363,-95.5 482,-95.5 482,-76.5 363,-76.5"/>
<text text-anchor="middle" x="422.5" y="-83.5" font-family="Helvetica,sans-Serif" font-size="10.00" fill="#000000">sam_rate_selection_init</text>
</a>
</g>
</g>
<!-- Node77&#45;&gt;Node84 -->
<g id="edge9" class="edge">
<title>Node77&#45;&gt;Node84</title>
<path fill="none" stroke="#191970" d="M317.2122,-116.3101C335.0804,-111.1663 358.9889,-104.2835 379.5067,-98.3769"/>
<polygon fill="#191970" stroke="#191970" points="380.6239,-101.6974 389.2654,-95.5675 378.6874,-94.9706 380.6239,-101.6974"/>
</g>
<!-- Node79 -->
<g id="node5" class="node">
<title>Node79</title>
<g id="a_node5"><a xlink:href="$utils_8c.html#ae42a9e1d467853befaa7922cfafed3bb" xlink:title="Returns a uniform random float [min,max]. ">
<polygon fill="none" stroke="#000000" points="660,-76.5 660,-95.5 733,-95.5 733,-76.5 660,-76.5"/>
<text text-anchor="middle" x="696.5" y="-83.5" font-family="Helvetica,sans-Serif" font-size="10.00" fill="#000000">rand_uniform</text>
</a>
</g>
</g>
<!-- Node78&#45;&gt;Node79 -->
<g id="edge4" class="edge">
<title>Node78&#45;&gt;Node79</title>
<path fill="none" stroke="#191970" d="M602.6689,-114.411C618.5725,-109.5956 638.0396,-103.7012 655.1114,-98.532"/>
<polygon fill="#191970" stroke="#191970" points="656.2846,-101.8338 664.8412,-95.5859 654.256,-95.1342 656.2846,-101.8338"/>
</g>
<!-- Node80 -->
<g id="node6" class="node">
<title>Node80</title>
<g id="a_node6"><a xlink:href="$utils_8c.html#a101d27cdda714b7f17a06224c65cac56" xlink:title="Returns a uniform random float [0,1]. ">
<polygon fill="none" stroke="#000000" points="769,-57.5 769,-76.5 810,-76.5 810,-57.5 769,-57.5"/>
<text text-anchor="middle" x="789.5" y="-64.5" font-family="Helvetica,sans-Serif" font-size="10.00" fill="#000000">drand</text>
</a>
</g>
</g>
<!-- Node79&#45;&gt;Node80 -->
<g id="edge5" class="edge">
<title>Node79&#45;&gt;Node80</title>
<path fill="none" stroke="#191970" d="M733.2561,-78.4907C741.7524,-76.7549 750.7031,-74.9262 758.9036,-73.2509"/>
<polygon fill="#191970" stroke="#191970" points="759.7019,-76.6602 768.7989,-71.2293 758.3007,-69.8018 759.7019,-76.6602"/>
</g>
<!-- Node81 -->
<g id="node7" class="node">
<title>Node81</title>
<g id="a_node7"><a xlink:href="$mt19937-64_8c.html#aa0b74daf51eca91df224d00f1730084a" xlink:title="genrand64_real1">
<polygon fill="none" stroke="#000000" points="846,-57.5 846,-76.5 934,-76.5 934,-57.5 846,-57.5"/>
<text text-anchor="middle" x="890" y="-64.5" font-family="Helvetica,sans-Serif" font-size="10.00" fill="#000000">genrand64_real1</text>
</a>
</g>
</g>
<!-- Node80&#45;&gt;Node81 -->
<g id="edge6" class="edge">
<title>Node80&#45;&gt;Node81</title>
<path fill="none" stroke="#191970" d="M810.3237,-67C817.8428,-67 826.7193,-67 835.769,-67"/>
<polygon fill="#191970" stroke="#191970" points="835.9969,-70.5001 845.9969,-67 835.9969,-63.5001 835.9969,-70.5001"/>
</g>
<!-- Node82 -->
<g id="node8" class="node">
<title>Node82</title>
<g id="a_node8"><a xlink:href="$mt19937-64_8c.html#a265bf48d20d6e0347371fcf4fe340e6d" xlink:title="genrand64_int64">
<polygon fill="none" stroke="#000000" points="970,-57.5 970,-76.5 1058,-76.5 1058,-57.5 970,-57.5"/>
<text text-anchor="middle" x="1014" y="-64.5" font-family="Helvetica,sans-Serif" font-size="10.00" fill="#000000">genrand64_int64</text>
</a>
</g>
</g>
<!-- Node81&#45;&gt;Node82 -->
<g id="edge7" class="edge">
<title>Node81&#45;&gt;Node82</title>
<path fill="none" stroke="#191970" d="M934.0669,-67C942.2822,-67 950.957,-67 959.4432,-67"/>
<polygon fill="#191970" stroke="#191970" points="959.6572,-70.5001 969.6572,-67 959.6572,-63.5001 959.6572,-70.5001"/>
</g>
<!-- Node83 -->
<g id="node9" class="node">
<title>Node83</title>
<g id="a_node9"><a xlink:href="$mt19937-64_8c.html#adf4127d44c2dc34fcb318d406131ef7c" xlink:title="init_genrand64">
<polygon fill="none" stroke="#000000" points="1094,-57.5 1094,-76.5 1174,-76.5 1174,-57.5 1094,-57.5"/>
<text text-anchor="middle" x="1134" y="-64.5" font-family="Helvetica,sans-Serif" font-size="10.00" fill="#000000">init_genrand64</text>
</a>
</g>
</g>
<!-- Node82&#45;&gt;Node83 -->
<g id="edge8" class="edge">
<title>Node82&#45;&gt;Node83</title>
<path fill="none" stroke="#191970" d="M1058.0022,-67C1066.3719,-67 1075.1896,-67 1083.7365,-67"/>
<polygon fill="#191970" stroke="#191970" points="1083.9792,-70.5001 1093.9792,-67 1083.9792,-63.5001 1083.9792,-70.5001"/>
</g>
<!-- Node85 -->
<g id="node11" class="node">
<title>Node85</title>
<g id="a_node11"><a xlink:href="$utils_8c.html#a32648ab076544a9ac1c086d0f07b599f" xlink:title="Returns a uniform random integer [min,max] not inclusive of max. ">
<polygon fill="none" stroke="#000000" points="533.5,-76.5 533.5,-95.5 608.5,-95.5 608.5,-76.5 533.5,-76.5"/>
<text text-anchor="middle" x="571" y="-83.5" font-family="Helvetica,sans-Serif" font-size="10.00" fill="#000000">irand_uniform</text>
</a>
</g>
</g>
<!-- Node84&#45;&gt;Node85 -->
<g id="edge10" class="edge">
<title>Node84&#45;&gt;Node85</title>
<path fill="none" stroke="#191970" d="M482.045,-86C495.6704,-86 509.9841,-86 523.05,-86"/>
<polygon fill="#191970" stroke="#191970" points="523.2241,-89.5001 533.2241,-86 523.2241,-82.5001 523.2241,-89.5001"/>
</g>
<!-- Node85&#45;&gt;Node79 -->
<g id="edge11" class="edge">
<title>Node85&#45;&gt;Node79</title>
<path fill="none" stroke="#191970" d="M608.6541,-86C621.542,-86 636.1208,-86 649.6451,-86"/>
<polygon fill="#191970" stroke="#191970" points="649.7361,-89.5001 659.7361,-86 649.7361,-82.5001 649.7361,-89.5001"/>
</g>
<!-- Node89 -->
<g id="node15" class="node">
<title>Node89</title>
<g id="a_node15"><a xlink:href="$utils_8c.html#aa57fc0f69e730ce0a348c25ee498643d" xlink:title="Returns a normal random float with specified mean and standard deviation. ">
<polygon fill="none" stroke="#000000" points="661.5,-38.5 661.5,-57.5 731.5,-57.5 731.5,-38.5 661.5,-38.5"/>
<text text-anchor="middle" x="696.5" y="-45.5" font-family="Helvetica,sans-Serif" font-size="10.00" fill="#000000">rand_normal</text>
</a>
</g>
</g>
<!-- Node88&#45;&gt;Node89 -->
<g id="edge15" class="edge">
<title>Node88&#45;&gt;Node89</title>
<path fill="none" stroke="#191970" d="M321.2588,-19.5108C334.0468,-23.0842 349.1192,-26.8082 363,-29 465.0138,-45.108 586.4856,-47.9996 650.9764,-48.2677"/>
<polygon fill="#191970" stroke="#191970" points="651.1965,-51.768 661.2041,-48.2899 651.2117,-44.7681 651.1965,-51.768"/>
</g>
<!-- Node90 -->
<g id="node16" class="node">
<title>Node90</title>
<g id="a_node16"><a xlink:href="$utils_8c.html#a4d9693be6ce890dc7a2ee825d11ca3ee" xlink:title="Returns a float constrained within the specified range. ">
<polygon fill="none" stroke="#000000" points="394.5,-.5 394.5,-19.5 450.5,-19.5 450.5,-.5 394.5,-.5"/>
<text text-anchor="middle" x="422.5" y="-7.5" font-family="Helvetica,sans-Serif" font-size="10.00" fill="#000000">constrain</text>
</a>
</g>
</g>
<!-- Node88&#45;&gt;Node90 -->
<g id="edge17" class="edge">
<title>Node88&#45;&gt;Node90</title>
<path fill="none" stroke="#191970" d="M323.1292,-10C341.6377,-10 364.8975,-10 384.2597,-10"/>
<polygon fill="#191970" stroke="#191970" points="384.2713,-13.5001 394.2713,-10 384.2712,-6.5001 384.2713,-13.5001"/>
</g>
<!-- Node89&#45;&gt;Node80 -->
<g id="edge16" class="edge">
<title>Node89&#45;&gt;Node80</title>
<path fill="none" stroke="#191970" d="M731.6593,-55.1831C740.5821,-57.006 750.0982,-58.9502 758.7814,-60.7241"/>
<polygon fill="#191970" stroke="#191970" points="758.3657,-64.2114 768.8639,-62.784 759.7669,-57.3531 758.3657,-64.2114"/>
</g>
</g>
</svg>
