<?xml version="1.0" encoding="UTF-8" standalone="no"?>
<!DOCTYPE svg PUBLIC "-//W3C//DTD SVG 1.1//EN"
 "http://www.w3.org/Graphics/SVG/1.1/DTD/svg11.dtd">
<!-- Generated by graphviz version 2.40.1 (20161225.0304)
 -->
<!-- Title: cond_ternary_init Pages: 1 -->
<svg width="1262pt" height="104pt"
 viewBox="0.00 0.00 1262.00 104.00" xmlns="http://www.w3.org/2000/svg" xmlns:xlink="http://www.w3.org/1999/xlink">
<g id="graph0" class="graph" transform="scale(1 1) rotate(0) translate(4 100)">
<title>cond_ternary_init</title>
<!-- Node23 -->
<g id="node1" class="node">
<title>Node23</title>
<polygon fill="#bfbfbf" stroke="#000000" points="0,-57.5 0,-76.5 91,-76.5 91,-57.5 0,-57.5"/>
<text text-anchor="middle" x="45.5" y="-64.5" font-family="Helvetica,sans-Serif" font-size="10.00" fill="#000000">cond_ternary_init</text>
</g>
<!-- Node24 -->
<g id="node2" class="node">
<title>Node24</title>
<g id="a_node2"><a xlink:href="cond__ternary_8c.html#af2345313a50182fffbc191ddefc9ea05" target="_top" xlink:title="cond_ternary_rand">
<polygon fill="none" stroke="#000000" points="371,-76.5 371,-95.5 468,-95.5 468,-76.5 371,-76.5"/>
<text text-anchor="middle" x="419.5" y="-83.5" font-family="Helvetica,sans-Serif" font-size="10.00" fill="#000000">cond_ternary_rand</text>
</a>
</g>
</g>
<!-- Node23&#45;&gt;Node24 -->
<g id="edge1" class="edge">
<title>Node23&#45;&gt;Node24</title>
<path fill="none" stroke="#191970" d="M91.3597,-69.3298C159.1707,-72.7747 286.1808,-79.2271 360.7337,-83.0145"/>
<polygon fill="#191970" stroke="#191970" points="360.729,-86.5187 370.8937,-83.5307 361.0842,-79.5277 360.729,-86.5187"/>
</g>
<!-- Node31 -->
<g id="node9" class="node">
<title>Node31</title>
<g id="a_node9"><a xlink:href="sam_8c.html#a3164f33509a5dc751b57a544fe2153a7" target="_top" xlink:title="Initialises self&#45;adaptive mutation rates. ">
<polygon fill="none" stroke="#000000" points="127,-38.5 127,-57.5 180,-57.5 180,-38.5 127,-38.5"/>
<text text-anchor="middle" x="153.5" y="-45.5" font-family="Helvetica,sans-Serif" font-size="10.00" fill="#000000">sam_init</text>
</a>
</g>
</g>
<!-- Node23&#45;&gt;Node31 -->
<g id="edge8" class="edge">
<title>Node23&#45;&gt;Node31</title>
<path fill="none" stroke="#191970" d="M91.3017,-58.9423C99.7906,-57.4489 108.5563,-55.9068 116.733,-54.4683"/>
<polygon fill="#191970" stroke="#191970" points="117.4679,-57.8928 126.7102,-52.713 116.2549,-50.9987 117.4679,-57.8928"/>
</g>
<!-- Node25 -->
<g id="node3" class="node">
<title>Node25</title>
<g id="a_node3"><a xlink:href="utils_8c.html#ae42a9e1d467853befaa7922cfafed3bb" target="_top" xlink:title="Returns a uniform random float [min,max]. ">
<polygon fill="none" stroke="#000000" points="504,-38.5 504,-57.5 577,-57.5 577,-38.5 504,-38.5"/>
<text text-anchor="middle" x="540.5" y="-45.5" font-family="Helvetica,sans-Serif" font-size="10.00" fill="#000000">rand_uniform</text>
</a>
</g>
</g>
<!-- Node24&#45;&gt;Node25 -->
<g id="edge2" class="edge">
<title>Node24&#45;&gt;Node25</title>
<path fill="none" stroke="#191970" d="M450.0334,-76.411C465.2234,-71.6406 483.7853,-65.8112 500.1334,-60.6771"/>
<polygon fill="#191970" stroke="#191970" points="501.4845,-63.9214 509.9764,-57.5859 499.3871,-57.243 501.4845,-63.9214"/>
</g>
<!-- Node26 -->
<g id="node4" class="node">
<title>Node26</title>
<g id="a_node4"><a xlink:href="utils_8c.html#a101d27cdda714b7f17a06224c65cac56" target="_top" xlink:title="Returns a uniform random float (0,1) ">
<polygon fill="none" stroke="#000000" points="613,-38.5 613,-57.5 654,-57.5 654,-38.5 613,-38.5"/>
<text text-anchor="middle" x="633.5" y="-45.5" font-family="Helvetica,sans-Serif" font-size="10.00" fill="#000000">drand</text>
</a>
</g>
</g>
<!-- Node25&#45;&gt;Node26 -->
<g id="edge3" class="edge">
<title>Node25&#45;&gt;Node26</title>
<path fill="none" stroke="#191970" d="M577.2561,-48C585.658,-48 594.5043,-48 602.63,-48"/>
<polygon fill="#191970" stroke="#191970" points="602.799,-51.5001 612.7989,-48 602.7989,-44.5001 602.799,-51.5001"/>
</g>
<!-- Node27 -->
<g id="node5" class="node">
<title>Node27</title>
<g id="a_node5"><a xlink:href="dSFMT_8h.html#af6dbcef408462da1f40edd1a1ea5dcd3" target="_top" xlink:title="dsfmt_gv_genrand_open_open">
<polygon fill="none" stroke="#000000" points="690,-38.5 690,-57.5 839,-57.5 839,-38.5 690,-38.5"/>
<text text-anchor="middle" x="764.5" y="-45.5" font-family="Helvetica,sans-Serif" font-size="10.00" fill="#000000">dsfmt_gv_genrand_open_open</text>
</a>
</g>
</g>
<!-- Node26&#45;&gt;Node27 -->
<g id="edge4" class="edge">
<title>Node26&#45;&gt;Node27</title>
<path fill="none" stroke="#191970" d="M654.2573,-48C661.5688,-48 670.3051,-48 679.6156,-48"/>
<polygon fill="#191970" stroke="#191970" points="679.9038,-51.5001 689.9037,-48 679.9037,-44.5001 679.9038,-51.5001"/>
</g>
<!-- Node28 -->
<g id="node6" class="node">
<title>Node28</title>
<g id="a_node6"><a xlink:href="dSFMT_8h.html#a147a0a05c969a4cb5d92ce3963b839c2" target="_top" xlink:title="dsfmt_genrand_open_open">
<polygon fill="none" stroke="#000000" points="875,-38.5 875,-57.5 1009,-57.5 1009,-38.5 875,-38.5"/>
<text text-anchor="middle" x="942" y="-45.5" font-family="Helvetica,sans-Serif" font-size="10.00" fill="#000000">dsfmt_genrand_open_open</text>
</a>
</g>
</g>
<!-- Node27&#45;&gt;Node28 -->
<g id="edge5" class="edge">
<title>Node27&#45;&gt;Node28</title>
<path fill="none" stroke="#191970" d="M839.0045,-48C847.4355,-48 856.0427,-48 864.5109,-48"/>
<polygon fill="#191970" stroke="#191970" points="864.7501,-51.5001 874.75,-48 864.75,-44.5001 864.7501,-51.5001"/>
</g>
<!-- Node29 -->
<g id="node7" class="node">
<title>Node29</title>
<g id="a_node7"><a xlink:href="dSFMT_8h.html#afccb1e4d75cea7ffe3b45cba53d1e5e0" target="_top" xlink:title="dsfmt_gen_rand_all">
<polygon fill="none" stroke="#000000" points="1045,-38.5 1045,-57.5 1146,-57.5 1146,-38.5 1045,-38.5"/>
<text text-anchor="middle" x="1095.5" y="-45.5" font-family="Helvetica,sans-Serif" font-size="10.00" fill="#000000">dsfmt_gen_rand_all</text>
</a>
</g>
</g>
<!-- Node28&#45;&gt;Node29 -->
<g id="edge6" class="edge">
<title>Node28&#45;&gt;Node29</title>
<path fill="none" stroke="#191970" d="M1009.3273,-48C1017.8031,-48 1026.4345,-48 1034.7997,-48"/>
<polygon fill="#191970" stroke="#191970" points="1034.8429,-51.5001 1044.8429,-48 1034.8428,-44.5001 1034.8429,-51.5001"/>
</g>
<!-- Node30 -->
<g id="node8" class="node">
<title>Node30</title>
<g id="a_node8"><a xlink:href="dSFMT-common_8h.html#a43e33e2235015c9c072bad7dfe1a282c" target="_top" xlink:title="do_recursion">
<polygon fill="none" stroke="#000000" points="1182,-38.5 1182,-57.5 1254,-57.5 1254,-38.5 1182,-38.5"/>
<text text-anchor="middle" x="1218" y="-45.5" font-family="Helvetica,sans-Serif" font-size="10.00" fill="#000000">do_recursion</text>
</a>
</g>
</g>
<!-- Node29&#45;&gt;Node30 -->
<g id="edge7" class="edge">
<title>Node29&#45;&gt;Node30</title>
<path fill="none" stroke="#191970" d="M1146.0327,-48C1154.5603,-48 1163.3741,-48 1171.7846,-48"/>
<polygon fill="#191970" stroke="#191970" points="1171.7975,-51.5001 1181.7974,-48 1171.7974,-44.5001 1171.7975,-51.5001"/>
</g>
<!-- Node32 -->
<g id="node10" class="node">
<title>Node32</title>
<g id="a_node10"><a xlink:href="sam_8c.html#a3376574f2624a397ac253242b1958491" target="_top" xlink:title="Initialises log normal self&#45;adaptive mutation rates. ">
<polygon fill="none" stroke="#000000" points="222.5,-38.5 222.5,-57.5 328.5,-57.5 328.5,-38.5 222.5,-38.5"/>
<text text-anchor="middle" x="275.5" y="-45.5" font-family="Helvetica,sans-Serif" font-size="10.00" fill="#000000">sam_log_normal_init</text>
</a>
</g>
</g>
<!-- Node31&#45;&gt;Node32 -->
<g id="edge9" class="edge">
<title>Node31&#45;&gt;Node32</title>
<path fill="none" stroke="#191970" d="M180.2734,-48C189.7251,-48 200.7976,-48 211.9831,-48"/>
<polygon fill="#191970" stroke="#191970" points="212.2442,-51.5001 222.2441,-48 212.2441,-44.5001 212.2442,-51.5001"/>
</g>
<!-- Node33 -->
<g id="node11" class="node">
<title>Node33</title>
<g id="a_node11"><a xlink:href="sam_8c.html#a5c510f09cd5f6069b67e1b9a59df7acc" target="_top" xlink:title="Initialises rate selection self&#45;adaptive mutation. ">
<polygon fill="none" stroke="#000000" points="216,-.5 216,-19.5 335,-19.5 335,-.5 216,-.5"/>
<text text-anchor="middle" x="275.5" y="-7.5" font-family="Helvetica,sans-Serif" font-size="10.00" fill="#000000">sam_rate_selection_init</text>
</a>
</g>
</g>
<!-- Node31&#45;&gt;Node33 -->
<g id="edge11" class="edge">
<title>Node31&#45;&gt;Node33</title>
<path fill="none" stroke="#191970" d="M180.2734,-39.6607C196.371,-34.6467 217.1704,-28.1682 235.2221,-22.5456"/>
<polygon fill="#191970" stroke="#191970" points="236.4142,-25.8402 244.9209,-19.5246 234.3324,-19.1569 236.4142,-25.8402"/>
</g>
<!-- Node32&#45;&gt;Node25 -->
<g id="edge10" class="edge">
<title>Node32&#45;&gt;Node25</title>
<path fill="none" stroke="#191970" d="M328.8079,-48C377.1448,-48 447.6913,-48 493.8422,-48"/>
<polygon fill="#191970" stroke="#191970" points="493.8747,-51.5001 503.8747,-48 493.8746,-44.5001 493.8747,-51.5001"/>
</g>
<!-- Node34 -->
<g id="node12" class="node">
<title>Node34</title>
<g id="a_node12"><a xlink:href="utils_8c.html#a32648ab076544a9ac1c086d0f07b599f" target="_top" xlink:title="Returns a uniform random integer [min,max] not inclusive of max. ">
<polygon fill="none" stroke="#000000" points="382,-.5 382,-19.5 457,-19.5 457,-.5 382,-.5"/>
<text text-anchor="middle" x="419.5" y="-7.5" font-family="Helvetica,sans-Serif" font-size="10.00" fill="#000000">irand_uniform</text>
</a>
</g>
</g>
<!-- Node33&#45;&gt;Node34 -->
<g id="edge12" class="edge">
<title>Node33&#45;&gt;Node34</title>
<path fill="none" stroke="#191970" d="M335.318,-10C347.387,-10 359.9265,-10 371.5262,-10"/>
<polygon fill="#191970" stroke="#191970" points="371.8744,-13.5001 381.8743,-10 371.8743,-6.5001 371.8744,-13.5001"/>
</g>
<!-- Node34&#45;&gt;Node25 -->
<g id="edge13" class="edge">
<title>Node34&#45;&gt;Node25</title>
<path fill="none" stroke="#191970" d="M450.0334,-19.589C465.2234,-24.3594 483.7853,-30.1888 500.1334,-35.3229"/>
<polygon fill="#191970" stroke="#191970" points="499.3871,-38.757 509.9764,-38.4141 501.4845,-32.0786 499.3871,-38.757"/>
</g>
</g>
</svg>
