<?xml version="1.0" encoding="UTF-8" standalone="no"?>
<!DOCTYPE svg PUBLIC "-//W3C//DTD SVG 1.1//EN"
 "http://www.w3.org/Graphics/SVG/1.1/DTD/svg11.dtd">
<!-- Generated by graphviz version 2.40.1 (20161225.0304)
 -->
<!-- Title: cond_dgp_copy Pages: 1 -->
<svg width="768pt" height="85pt"
 viewBox="0.00 0.00 768.00 85.00" xmlns="http://www.w3.org/2000/svg" xmlns:xlink="http://www.w3.org/1999/xlink">
<g id="graph0" class="graph" transform="scale(1 1) rotate(0) translate(4 81)">
<title>cond_dgp_copy</title>
<!-- Node0 -->
<g id="node1" class="node">
<title>Node0</title>
<polygon fill="#bfbfbf" stroke="#000000" points="0,-38.5 0,-57.5 85,-57.5 85,-38.5 0,-38.5"/>
<text text-anchor="middle" x="42.5" y="-45.5" font-family="Helvetica,sans-Serif" font-size="10.00" fill="#000000">cond_dgp_copy</text>
</g>
<!-- Node1 -->
<g id="node2" class="node">
<title>Node1</title>
<g id="a_node2"><a xlink:href="dgp_8c.html#a3a05dbecca41777e1f60faf95aa7e97e" target="_top" xlink:title="Copies a DGP graph. ">
<polygon fill="none" stroke="#000000" points="121,-57.5 121,-76.5 188,-76.5 188,-57.5 121,-57.5"/>
<text text-anchor="middle" x="154.5" y="-64.5" font-family="Helvetica,sans-Serif" font-size="10.00" fill="#000000">graph_copy</text>
</a>
</g>
</g>
<!-- Node0&#45;&gt;Node1 -->
<g id="edge1" class="edge">
<title>Node0&#45;&gt;Node1</title>
<path fill="none" stroke="#191970" d="M85.1619,-55.2373C93.5122,-56.6539 102.2827,-58.1417 110.6704,-59.5646"/>
<polygon fill="#191970" stroke="#191970" points="110.2132,-63.037 120.6577,-61.2589 111.384,-56.1356 110.2132,-63.037"/>
</g>
<!-- Node2 -->
<g id="node3" class="node">
<title>Node2</title>
<g id="a_node3"><a xlink:href="dgp_8c.html#a10b25afd37a261629da7540c1f7a574c" target="_top" xlink:title="Initialises a new DGP graph. ">
<polygon fill="none" stroke="#000000" points="125,-19.5 125,-38.5 184,-38.5 184,-19.5 125,-19.5"/>
<text text-anchor="middle" x="154.5" y="-26.5" font-family="Helvetica,sans-Serif" font-size="10.00" fill="#000000">graph_init</text>
</a>
</g>
</g>
<!-- Node0&#45;&gt;Node2 -->
<g id="edge2" class="edge">
<title>Node0&#45;&gt;Node2</title>
<path fill="none" stroke="#191970" d="M85.1619,-40.7627C94.8771,-39.1146 105.1609,-37.37 114.749,-35.7435"/>
<polygon fill="#191970" stroke="#191970" points="115.5465,-39.1583 124.8202,-34.035 114.3757,-32.2569 115.5465,-39.1583"/>
</g>
<!-- Node3 -->
<g id="node4" class="node">
<title>Node3</title>
<g id="a_node4"><a xlink:href="sam_8c.html#a3164f33509a5dc751b57a544fe2153a7" target="_top" xlink:title="Initialises self&#45;adaptive mutation rates. ">
<polygon fill="none" stroke="#000000" points="224,-19.5 224,-38.5 277,-38.5 277,-19.5 224,-19.5"/>
<text text-anchor="middle" x="250.5" y="-26.5" font-family="Helvetica,sans-Serif" font-size="10.00" fill="#000000">sam_init</text>
</a>
</g>
</g>
<!-- Node2&#45;&gt;Node3 -->
<g id="edge3" class="edge">
<title>Node2&#45;&gt;Node3</title>
<path fill="none" stroke="#191970" d="M184.0865,-29C193.3919,-29 203.7855,-29 213.5366,-29"/>
<polygon fill="#191970" stroke="#191970" points="213.7836,-32.5001 223.7836,-29 213.7835,-25.5001 213.7836,-32.5001"/>
</g>
<!-- Node4 -->
<g id="node5" class="node">
<title>Node4</title>
<g id="a_node5"><a xlink:href="sam_8c.html#a3376574f2624a397ac253242b1958491" target="_top" xlink:title="Initialises log normal self&#45;adaptive mutation rates. ">
<polygon fill="none" stroke="#000000" points="468,-38.5 468,-57.5 574,-57.5 574,-38.5 468,-38.5"/>
<text text-anchor="middle" x="521" y="-45.5" font-family="Helvetica,sans-Serif" font-size="10.00" fill="#000000">sam_log_normal_init</text>
</a>
</g>
</g>
<!-- Node3&#45;&gt;Node4 -->
<g id="edge4" class="edge">
<title>Node3&#45;&gt;Node4</title>
<path fill="none" stroke="#191970" d="M277.4255,-30.8913C319.1525,-33.8222 400.5782,-39.5415 457.7609,-43.5581"/>
<polygon fill="#191970" stroke="#191970" points="457.5642,-47.0528 467.7849,-44.2622 458.0548,-40.07 457.5642,-47.0528"/>
</g>
<!-- Node7 -->
<g id="node8" class="node">
<title>Node7</title>
<g id="a_node8"><a xlink:href="sam_8c.html#a5c510f09cd5f6069b67e1b9a59df7acc" target="_top" xlink:title="Initialises rate selection self&#45;adaptive mutation. ">
<polygon fill="none" stroke="#000000" points="313,-.5 313,-19.5 432,-19.5 432,-.5 313,-.5"/>
<text text-anchor="middle" x="372.5" y="-7.5" font-family="Helvetica,sans-Serif" font-size="10.00" fill="#000000">sam_rate_selection_init</text>
</a>
</g>
</g>
<!-- Node3&#45;&gt;Node7 -->
<g id="edge7" class="edge">
<title>Node3&#45;&gt;Node7</title>
<path fill="none" stroke="#191970" d="M277.2734,-24.8304C285,-23.627 293.8098,-22.255 302.879,-20.8426"/>
<polygon fill="#191970" stroke="#191970" points="303.4407,-24.2974 312.783,-19.3002 302.3635,-17.3808 303.4407,-24.2974"/>
</g>
<!-- Node5 -->
<g id="node6" class="node">
<title>Node5</title>
<g id="a_node6"><a xlink:href="utils_8c.html#ae42a9e1d467853befaa7922cfafed3bb" target="_top" xlink:title="Returns a uniform random float [min,max]. ">
<polygon fill="none" stroke="#000000" points="610,-19.5 610,-38.5 683,-38.5 683,-19.5 610,-19.5"/>
<text text-anchor="middle" x="646.5" y="-26.5" font-family="Helvetica,sans-Serif" font-size="10.00" fill="#000000">rand_uniform</text>
</a>
</g>
</g>
<!-- Node4&#45;&gt;Node5 -->
<g id="edge5" class="edge">
<title>Node4&#45;&gt;Node5</title>
<path fill="none" stroke="#191970" d="M574.2233,-39.9423C582.7725,-38.648 591.5632,-37.3171 599.9406,-36.0488"/>
<polygon fill="#191970" stroke="#191970" points="600.5469,-39.497 609.9103,-34.5395 599.4991,-32.5759 600.5469,-39.497"/>
</g>
<!-- Node6 -->
<g id="node7" class="node">
<title>Node6</title>
<g id="a_node7"><a xlink:href="utils_8c.html#a101d27cdda714b7f17a06224c65cac56" target="_top" xlink:title="Returns a uniform random float (0,1) ">
<polygon fill="none" stroke="#000000" points="719,-19.5 719,-38.5 760,-38.5 760,-19.5 719,-19.5"/>
<text text-anchor="middle" x="739.5" y="-26.5" font-family="Helvetica,sans-Serif" font-size="10.00" fill="#000000">drand</text>
</a>
</g>
</g>
<!-- Node5&#45;&gt;Node6 -->
<g id="edge6" class="edge">
<title>Node5&#45;&gt;Node6</title>
<path fill="none" stroke="#191970" d="M683.2561,-29C691.658,-29 700.5043,-29 708.63,-29"/>
<polygon fill="#191970" stroke="#191970" points="708.799,-32.5001 718.7989,-29 708.7989,-25.5001 708.799,-32.5001"/>
</g>
<!-- Node8 -->
<g id="node9" class="node">
<title>Node8</title>
<g id="a_node9"><a xlink:href="utils_8c.html#a32648ab076544a9ac1c086d0f07b599f" target="_top" xlink:title="Returns a uniform random integer [min,max] not inclusive of max. ">
<polygon fill="none" stroke="#000000" points="483.5,-.5 483.5,-19.5 558.5,-19.5 558.5,-.5 483.5,-.5"/>
<text text-anchor="middle" x="521" y="-7.5" font-family="Helvetica,sans-Serif" font-size="10.00" fill="#000000">irand_uniform</text>
</a>
</g>
</g>
<!-- Node7&#45;&gt;Node8 -->
<g id="edge8" class="edge">
<title>Node7&#45;&gt;Node8</title>
<path fill="none" stroke="#191970" d="M432.045,-10C445.6704,-10 459.9841,-10 473.05,-10"/>
<polygon fill="#191970" stroke="#191970" points="473.2241,-13.5001 483.2241,-10 473.2241,-6.5001 473.2241,-13.5001"/>
</g>
<!-- Node8&#45;&gt;Node5 -->
<g id="edge9" class="edge">
<title>Node8&#45;&gt;Node5</title>
<path fill="none" stroke="#191970" d="M558.6541,-15.7006C571.542,-17.6518 586.1208,-19.8589 599.6451,-21.9064"/>
<polygon fill="#191970" stroke="#191970" points="599.3248,-25.3977 609.7361,-23.4342 600.3727,-18.4766 599.3248,-25.3977"/>
</g>
</g>
</svg>
