<?xml version="1.0" encoding="UTF-8" standalone="no"?>
<!DOCTYPE svg PUBLIC "-//W3C//DTD SVG 1.1//EN"
 "http://www.w3.org/Graphics/SVG/1.1/DTD/svg11.dtd">
<!-- Generated by graphviz version 2.40.1 (20161225.0304)
 -->
<!-- Title: cond_dummy.h Pages: 1 -->
<svg width="174pt" height="84pt"
 viewBox="0.00 0.00 173.50 84.00" xmlns="http://www.w3.org/2000/svg" xmlns:xlink="http://www.w3.org/1999/xlink">
<g id="graph0" class="graph" transform="scale(1 1) rotate(0) translate(4 80)">
<title>cond_dummy.h</title>
<!-- Node1 -->
<g id="node1" class="node">
<title>Node1</title>
<polygon fill="#bfbfbf" stroke="#000000" points="46,-56.5 46,-75.5 129,-75.5 129,-56.5 46,-56.5"/>
<text text-anchor="middle" x="87.5" y="-63.5" font-family="Helvetica,sans-Serif" font-size="10.00" fill="#000000">cond_dummy.h</text>
</g>
<!-- Node2 -->
<g id="node2" class="node">
<title>Node2</title>
<g id="a_node2"><a xlink:href="$cond__dummy_8c.html" xlink:title="Always&#45;matching dummy condition functions. ">
<polygon fill="none" stroke="#000000" points="0,-.5 0,-19.5 83,-19.5 83,-.5 0,-.5"/>
<text text-anchor="middle" x="41.5" y="-7.5" font-family="Helvetica,sans-Serif" font-size="10.00" fill="#000000">cond_dummy.c</text>
</a>
</g>
</g>
<!-- Node1&#45;&gt;Node2 -->
<g id="edge1" class="edge">
<title>Node1&#45;&gt;Node2</title>
<path fill="none" stroke="#191970" d="M73.1253,-48.5004C65.3029,-38.9775 55.924,-27.5596 49.4208,-19.6427"/>
<polygon fill="#191970" stroke="#191970" points="70.4354,-50.7399 79.4874,-56.2455 75.8445,-46.2967 70.4354,-50.7399"/>
</g>
<!-- Node3 -->
<g id="node3" class="node">
<title>Node3</title>
<g id="a_node3"><a xlink:href="$condition_8c.html" xlink:title="Interface for classifier conditions. ">
<polygon fill="none" stroke="#000000" points="101.5,-.5 101.5,-19.5 165.5,-19.5 165.5,-.5 101.5,-.5"/>
<text text-anchor="middle" x="133.5" y="-7.5" font-family="Helvetica,sans-Serif" font-size="10.00" fill="#000000">condition.c</text>
</a>
</g>
</g>
<!-- Node1&#45;&gt;Node3 -->
<g id="edge2" class="edge">
<title>Node1&#45;&gt;Node3</title>
<path fill="none" stroke="#191970" d="M101.8747,-48.5004C109.6971,-38.9775 119.076,-27.5596 125.5792,-19.6427"/>
<polygon fill="#191970" stroke="#191970" points="99.1555,-46.2967 95.5126,-56.2455 104.5646,-50.7399 99.1555,-46.2967"/>
</g>
</g>
</svg>
