<?xml version="1.0" encoding="UTF-8" standalone="no"?>
<!DOCTYPE svg PUBLIC "-//W3C//DTD SVG 1.1//EN"
 "http://www.w3.org/Graphics/SVG/1.1/DTD/svg11.dtd">
<!-- Generated by graphviz version 2.40.1 (20161225.0304)
 -->
<!-- Title: cond_general Pages: 1 -->
<svg width="1063pt" height="218pt"
 viewBox="0.00 0.00 1063.00 218.00" xmlns="http://www.w3.org/2000/svg" xmlns:xlink="http://www.w3.org/1999/xlink">
<g id="graph0" class="graph" transform="scale(1 1) rotate(0) translate(4 214)">
<title>cond_general</title>
<!-- Node93 -->
<g id="node1" class="node">
<title>Node93</title>
<polygon fill="#bfbfbf" stroke="#000000" points="0,-57.5 0,-76.5 74,-76.5 74,-57.5 0,-57.5"/>
<text text-anchor="middle" x="37" y="-64.5" font-family="Helvetica,sans-Serif" font-size="10.00" fill="#000000">cond_general</text>
</g>
<!-- Node94 -->
<g id="node2" class="node">
<title>Node94</title>
<g id="a_node2"><a xlink:href="cl_8h.html#a7a270c006c5de596626813b0625c9c42" target="_top" xlink:title="Returns whether classifier c1 is more general than c2. ">
<polygon fill="none" stroke="#000000" points="110,-57.5 110,-76.5 171,-76.5 171,-57.5 110,-57.5"/>
<text text-anchor="middle" x="140.5" y="-64.5" font-family="Helvetica,sans-Serif" font-size="10.00" fill="#000000">cl_general</text>
</a>
</g>
</g>
<!-- Node93&#45;&gt;Node94 -->
<g id="edge1" class="edge">
<title>Node93&#45;&gt;Node94</title>
<path fill="none" stroke="#191970" d="M84.1595,-67C92.8707,-67 101.7567,-67 109.8197,-67"/>
<polygon fill="#191970" stroke="#191970" points="84.0736,-63.5001 74.0735,-67 84.0735,-70.5001 84.0736,-63.5001"/>
</g>
<!-- Node95 -->
<g id="node3" class="node">
<title>Node95</title>
<g id="a_node3"><a xlink:href="ea_8c.html#afe1eb3a920dc0bbcd5f737b9cdda2170" target="_top" xlink:title="Performs evolutionary algorithm subsumption. ">
<polygon fill="none" stroke="#000000" points="216.5,-76.5 216.5,-95.5 288.5,-95.5 288.5,-76.5 216.5,-76.5"/>
<text text-anchor="middle" x="252.5" y="-83.5" font-family="Helvetica,sans-Serif" font-size="10.00" fill="#000000">ea_subsume</text>
</a>
</g>
</g>
<!-- Node94&#45;&gt;Node95 -->
<g id="edge2" class="edge">
<title>Node94&#45;&gt;Node95</title>
<path fill="none" stroke="#191970" d="M180.9711,-73.8656C192.5428,-75.8287 205.0751,-77.9547 216.3688,-79.8706"/>
<polygon fill="#191970" stroke="#191970" points="181.549,-70.4137 171.1045,-72.1918 180.3782,-77.3151 181.549,-70.4137"/>
</g>
<!-- Node111 -->
<g id="node19" class="node">
<title>Node111</title>
<g id="a_node19"><a xlink:href="cl__set_8c.html#ac1b10f17cdd9c68bf95b3ca7bf708e14" target="_top" xlink:title="Performs set subsumption. ">
<polygon fill="none" stroke="#000000" points="207,-38.5 207,-57.5 298,-57.5 298,-38.5 207,-38.5"/>
<text text-anchor="middle" x="252.5" y="-45.5" font-family="Helvetica,sans-Serif" font-size="10.00" fill="#000000">set_subsumption</text>
</a>
</g>
</g>
<!-- Node94&#45;&gt;Node111 -->
<g id="edge20" class="edge">
<title>Node94&#45;&gt;Node111</title>
<path fill="none" stroke="#191970" d="M181.0133,-60.1272C189.3864,-58.7068 198.2609,-57.2013 206.804,-55.752"/>
<polygon fill="#191970" stroke="#191970" points="180.3782,-56.6849 171.1045,-61.8082 181.549,-63.5863 180.3782,-56.6849"/>
</g>
<!-- Node96 -->
<g id="node4" class="node">
<title>Node96</title>
<g id="a_node4"><a xlink:href="ea_8c.html#a14278fc032b7fb0c473e11764ab1c4d1" target="_top" xlink:title="Adds offspring to the population. ">
<polygon fill="none" stroke="#000000" points="334,-76.5 334,-95.5 382,-95.5 382,-76.5 334,-76.5"/>
<text text-anchor="middle" x="358" y="-83.5" font-family="Helvetica,sans-Serif" font-size="10.00" fill="#000000">ea_add</text>
</a>
</g>
</g>
<!-- Node95&#45;&gt;Node96 -->
<g id="edge3" class="edge">
<title>Node95&#45;&gt;Node96</title>
<path fill="none" stroke="#191970" d="M298.5339,-86C310.6683,-86 323.2846,-86 333.7579,-86"/>
<polygon fill="#191970" stroke="#191970" points="298.5121,-82.5001 288.512,-86 298.512,-89.5001 298.5121,-82.5001"/>
</g>
<!-- Node97 -->
<g id="node5" class="node">
<title>Node97</title>
<g id="a_node5"><a xlink:href="ea_8h.html#ae3824341a2f5482cb6ac70b3839ded51" target="_top" xlink:title="Executes the evolutionary algorithm (EA). ">
<polygon fill="none" stroke="#000000" points="436,-76.5 436,-95.5 465,-95.5 465,-76.5 436,-76.5"/>
<text text-anchor="middle" x="450.5" y="-83.5" font-family="Helvetica,sans-Serif" font-size="10.00" fill="#000000">ea</text>
</a>
</g>
</g>
<!-- Node96&#45;&gt;Node97 -->
<g id="edge4" class="edge">
<title>Node96&#45;&gt;Node97</title>
<path fill="none" stroke="#191970" d="M392.337,-86C407.3696,-86 424.204,-86 435.8782,-86"/>
<polygon fill="#191970" stroke="#191970" points="392.3033,-82.5001 382.3033,-86 392.3033,-89.5001 392.3033,-82.5001"/>
</g>
<!-- Node98 -->
<g id="node6" class="node">
<title>Node98</title>
<g id="a_node6"><a xlink:href="xcs__multi__step_8c.html#a617d9e432dc180dccf0c5ef11a94f79f" target="_top" xlink:title="Executes a multi&#45;step explore trial. ">
<polygon fill="none" stroke="#000000" points="521.5,-38.5 521.5,-57.5 616.5,-57.5 616.5,-38.5 521.5,-38.5"/>
<text text-anchor="middle" x="569" y="-45.5" font-family="Helvetica,sans-Serif" font-size="10.00" fill="#000000">xcs_multi_explore</text>
</a>
</g>
</g>
<!-- Node97&#45;&gt;Node98 -->
<g id="edge5" class="edge">
<title>Node97&#45;&gt;Node98</title>
<path fill="none" stroke="#191970" d="M474.5879,-78.2756C493.3023,-72.2744 519.3498,-63.9216 539.3459,-57.5093"/>
<polygon fill="#191970" stroke="#191970" points="473.484,-74.954 465.0304,-81.3405 475.6216,-81.6196 473.484,-74.954"/>
</g>
<!-- Node102 -->
<g id="node10" class="node">
<title>Node102</title>
<g id="a_node10"><a xlink:href="xcs__single__step_8c.html#a7aa49a74bb28adda31400d94a29c2b0b" target="_top" xlink:title="Executes a single&#45;step explore trial. ">
<polygon fill="none" stroke="#000000" points="519,-76.5 519,-95.5 619,-95.5 619,-76.5 519,-76.5"/>
<text text-anchor="middle" x="569" y="-83.5" font-family="Helvetica,sans-Serif" font-size="10.00" fill="#000000">xcs_single_explore</text>
</a>
</g>
</g>
<!-- Node97&#45;&gt;Node102 -->
<g id="edge9" class="edge">
<title>Node97&#45;&gt;Node102</title>
<path fill="none" stroke="#191970" d="M475.2222,-86C487.8812,-86 503.77,-86 518.8527,-86"/>
<polygon fill="#191970" stroke="#191970" points="475.0305,-82.5001 465.0304,-86 475.0304,-89.5001 475.0305,-82.5001"/>
</g>
<!-- Node104 -->
<g id="node12" class="node">
<title>Node104</title>
<g id="a_node12"><a xlink:href="xcsf_8c.html#a474f4e13cfc5f00958c689cd8c81135a" target="_top" xlink:title="Executes a single XCSF learning trial. ">
<polygon fill="none" stroke="#000000" points="527.5,-114.5 527.5,-133.5 610.5,-133.5 610.5,-114.5 527.5,-114.5"/>
<text text-anchor="middle" x="569" y="-121.5" font-family="Helvetica,sans-Serif" font-size="10.00" fill="#000000">xcsf_learn_trial</text>
</a>
</g>
</g>
<!-- Node97&#45;&gt;Node104 -->
<g id="edge12" class="edge">
<title>Node97&#45;&gt;Node104</title>
<path fill="none" stroke="#191970" d="M474.5879,-93.7244C493.3023,-99.7256 519.3498,-108.0784 539.3459,-114.4907"/>
<polygon fill="#191970" stroke="#191970" points="475.6216,-90.3804 465.0304,-90.6595 473.484,-97.046 475.6216,-90.3804"/>
</g>
<!-- Node99 -->
<g id="node7" class="node">
<title>Node99</title>
<g id="a_node7"><a xlink:href="xcs__multi__step_8h.html#acc29d4a55dbd56c16ea5f19f15a7c677" target="_top" xlink:title="Executes a multi&#45;step reinforcement learning experiment. ">
<polygon fill="none" stroke="#000000" points="657,-38.5 657,-57.5 761,-57.5 761,-38.5 657,-38.5"/>
<text text-anchor="middle" x="709" y="-45.5" font-family="Helvetica,sans-Serif" font-size="10.00" fill="#000000">xcs_multi_step_exp</text>
</a>
</g>
</g>
<!-- Node98&#45;&gt;Node99 -->
<g id="edge6" class="edge">
<title>Node98&#45;&gt;Node99</title>
<path fill="none" stroke="#191970" d="M626.9011,-48C636.7523,-48 646.9332,-48 656.6312,-48"/>
<polygon fill="#191970" stroke="#191970" points="626.7885,-44.5001 616.7885,-48 626.7885,-51.5001 626.7885,-44.5001"/>
</g>
<!-- Node100 -->
<g id="node8" class="node">
<title>Node100</title>
<g id="a_node8"><a xlink:href="main_8c.html#ab572a67aa431827116ebd6931d667d21" target="_top" xlink:title="classification">
<polygon fill="none" stroke="#000000" points="799,-76.5 799,-95.5 873,-95.5 873,-76.5 799,-76.5"/>
<text text-anchor="middle" x="836" y="-83.5" font-family="Helvetica,sans-Serif" font-size="10.00" fill="#000000">classification</text>
</a>
</g>
</g>
<!-- Node99&#45;&gt;Node100 -->
<g id="edge7" class="edge">
<title>Node99&#45;&gt;Node100</title>
<path fill="none" stroke="#191970" d="M750.8943,-60.5353C768.1712,-65.7048 787.8707,-71.5991 803.9628,-76.4141"/>
<polygon fill="#191970" stroke="#191970" points="751.6311,-57.1025 741.0475,-57.589 749.6245,-63.8088 751.6311,-57.1025"/>
</g>
<!-- Node101 -->
<g id="node9" class="node">
<title>Node101</title>
<g id="a_node9"><a xlink:href="main_8c.html#a3c04138a5bfe5d72780bb7e82a18e627" target="_top" xlink:title="main">
<polygon fill="none" stroke="#000000" points="963,-171.5 963,-190.5 1001,-190.5 1001,-171.5 963,-171.5"/>
<text text-anchor="middle" x="982" y="-178.5" font-family="Helvetica,sans-Serif" font-size="10.00" fill="#000000">main</text>
</a>
</g>
</g>
<!-- Node100&#45;&gt;Node101 -->
<g id="edge8" class="edge">
<title>Node100&#45;&gt;Node101</title>
<path fill="none" stroke="#191970" d="M866.5935,-100.6417C868.8172,-102.027 870.978,-103.4838 873,-105 891.6128,-118.957 890.426,-128.9914 909,-143 925.8828,-155.733 947.6435,-166.4441 962.9994,-173.2155"/>
<polygon fill="#191970" stroke="#191970" points="868.288,-97.579 857.8649,-95.679 864.8282,-103.6642 868.288,-97.579"/>
</g>
<!-- Node103 -->
<g id="node11" class="node">
<title>Node103</title>
<g id="a_node11"><a xlink:href="xcs__single__step_8h.html#a39a031bf59eaa9b33e30e614610dcda8" target="_top" xlink:title="Executes a single&#45;step experiment. ">
<polygon fill="none" stroke="#000000" points="655,-76.5 655,-95.5 763,-95.5 763,-76.5 655,-76.5"/>
<text text-anchor="middle" x="709" y="-83.5" font-family="Helvetica,sans-Serif" font-size="10.00" fill="#000000">xcs_single_step_exp</text>
</a>
</g>
</g>
<!-- Node102&#45;&gt;Node103 -->
<g id="edge10" class="edge">
<title>Node102&#45;&gt;Node103</title>
<path fill="none" stroke="#191970" d="M629.3823,-86C637.8794,-86 646.5692,-86 654.9381,-86"/>
<polygon fill="#191970" stroke="#191970" points="629.1478,-82.5001 619.1478,-86 629.1477,-89.5001 629.1478,-82.5001"/>
</g>
<!-- Node103&#45;&gt;Node100 -->
<g id="edge11" class="edge">
<title>Node103&#45;&gt;Node100</title>
<path fill="none" stroke="#191970" d="M773.4211,-86C782.1287,-86 790.8132,-86 798.8194,-86"/>
<polygon fill="#191970" stroke="#191970" points="773.2278,-82.5001 763.2278,-86 773.2278,-89.5001 773.2278,-82.5001"/>
</g>
<!-- Node105 -->
<g id="node13" class="node">
<title>Node105</title>
<g id="a_node13"><a xlink:href="xcsf_8h.html#a874829f28fee20f9ad15b540f4b4d6ff" target="_top" xlink:title="Executes MAX_TRIALS number of XCSF learning iterations using the training data. ">
<polygon fill="none" stroke="#000000" points="682,-114.5 682,-133.5 736,-133.5 736,-114.5 682,-114.5"/>
<text text-anchor="middle" x="709" y="-121.5" font-family="Helvetica,sans-Serif" font-size="10.00" fill="#000000">xcsf_fit1</text>
</a>
</g>
</g>
<!-- Node104&#45;&gt;Node105 -->
<g id="edge13" class="edge">
<title>Node104&#45;&gt;Node105</title>
<path fill="none" stroke="#191970" d="M620.8921,-124C641.6074,-124 664.5945,-124 681.8938,-124"/>
<polygon fill="#191970" stroke="#191970" points="620.6256,-120.5001 610.6256,-124 620.6255,-127.5001 620.6256,-120.5001"/>
</g>
<!-- Node108 -->
<g id="node16" class="node">
<title>Node108</title>
<g id="a_node16"><a xlink:href="xcsf_8h.html#a0b4de57cb9dadc9deca7901aa36e5025" target="_top" xlink:title="Executes MAX_TRIALS number of XCSF learning iterations using the training. data and test iterations u...">
<polygon fill="none" stroke="#000000" points="682,-152.5 682,-171.5 736,-171.5 736,-152.5 682,-152.5"/>
<text text-anchor="middle" x="709" y="-159.5" font-family="Helvetica,sans-Serif" font-size="10.00" fill="#000000">xcsf_fit2</text>
</a>
</g>
</g>
<!-- Node104&#45;&gt;Node108 -->
<g id="edge16" class="edge">
<title>Node104&#45;&gt;Node108</title>
<path fill="none" stroke="#191970" d="M614.2271,-136.2759C636.4412,-142.3055 662.4767,-149.3723 681.6326,-154.5717"/>
<polygon fill="#191970" stroke="#191970" points="614.8956,-132.8308 604.3279,-133.589 613.0619,-139.5864 614.8956,-132.8308"/>
</g>
<!-- Node106 -->
<g id="node14" class="node">
<title>Node106</title>
<g id="a_node14"><a xlink:href="structXCS.html#ad2ccafe59d2b4ae6d0e1cbc15edee53c" target="_top" xlink:title="XCS::fit">
<polygon fill="none" stroke="#000000" points="810,-114.5 810,-133.5 862,-133.5 862,-114.5 810,-114.5"/>
<text text-anchor="middle" x="836" y="-121.5" font-family="Helvetica,sans-Serif" font-size="10.00" fill="#000000">XCS::fit</text>
</a>
</g>
</g>
<!-- Node105&#45;&gt;Node106 -->
<g id="edge14" class="edge">
<title>Node105&#45;&gt;Node106</title>
<path fill="none" stroke="#191970" d="M746.4227,-124C766.7458,-124 791.3818,-124 809.6699,-124"/>
<polygon fill="#191970" stroke="#191970" points="746.2447,-120.5001 736.2447,-124 746.2447,-127.5001 746.2447,-120.5001"/>
</g>
<!-- Node107 -->
<g id="node15" class="node">
<title>Node107</title>
<g id="a_node15"><a xlink:href="python__wrapper_8cpp.html#afbdcc1358036a0b83a6b239da2b098a2" target="_top" xlink:title="BOOST_PYTHON_MODULE">
<polygon fill="none" stroke="#000000" points="909,-114.5 909,-133.5 1055,-133.5 1055,-114.5 909,-114.5"/>
<text text-anchor="middle" x="982" y="-121.5" font-family="Helvetica,sans-Serif" font-size="10.00" fill="#000000">BOOST_PYTHON_MODULE</text>
</a>
</g>
</g>
<!-- Node106&#45;&gt;Node107 -->
<g id="edge15" class="edge">
<title>Node106&#45;&gt;Node107</title>
<path fill="none" stroke="#191970" d="M872.2709,-124C883.4242,-124 896.1243,-124 908.8312,-124"/>
<polygon fill="#191970" stroke="#191970" points="872.1019,-120.5001 862.1019,-124 872.1018,-127.5001 872.1019,-120.5001"/>
</g>
<!-- Node109 -->
<g id="node17" class="node">
<title>Node109</title>
<g id="a_node17"><a xlink:href="main_8c.html#a968c78da8ed8ad08662a86280deec99a" target="_top" xlink:title="regression">
<polygon fill="none" stroke="#000000" points="805,-190.5 805,-209.5 867,-209.5 867,-190.5 805,-190.5"/>
<text text-anchor="middle" x="836" y="-197.5" font-family="Helvetica,sans-Serif" font-size="10.00" fill="#000000">regression</text>
</a>
</g>
</g>
<!-- Node108&#45;&gt;Node109 -->
<g id="edge17" class="edge">
<title>Node108&#45;&gt;Node109</title>
<path fill="none" stroke="#191970" d="M745.8981,-173.0404C764.5652,-178.6258 786.9762,-185.3315 804.7773,-190.6578"/>
<polygon fill="#191970" stroke="#191970" points="746.8283,-169.6655 736.2447,-170.152 744.8217,-176.3717 746.8283,-169.6655"/>
</g>
<!-- Node110 -->
<g id="node18" class="node">
<title>Node110</title>
<g id="a_node18"><a xlink:href="structXCS.html#a7d53320740db8e846251bacd0238a9fb" target="_top" xlink:title="XCS::fit">
<polygon fill="none" stroke="#000000" points="810,-152.5 810,-171.5 862,-171.5 862,-152.5 810,-152.5"/>
<text text-anchor="middle" x="836" y="-159.5" font-family="Helvetica,sans-Serif" font-size="10.00" fill="#000000">XCS::fit</text>
</a>
</g>
</g>
<!-- Node108&#45;&gt;Node110 -->
<g id="edge19" class="edge">
<title>Node108&#45;&gt;Node110</title>
<path fill="none" stroke="#191970" d="M746.4227,-162C766.7458,-162 791.3818,-162 809.6699,-162"/>
<polygon fill="#191970" stroke="#191970" points="746.2447,-158.5001 736.2447,-162 746.2447,-165.5001 746.2447,-158.5001"/>
</g>
<!-- Node109&#45;&gt;Node101 -->
<g id="edge18" class="edge">
<title>Node109&#45;&gt;Node101</title>
<path fill="none" stroke="#191970" d="M877.2659,-194.6298C905.3244,-190.9783 941.1493,-186.3162 962.7946,-183.4993"/>
<polygon fill="#191970" stroke="#191970" points="876.7853,-191.1627 867.3207,-195.924 877.6887,-198.1042 876.7853,-191.1627"/>
</g>
<!-- Node112 -->
<g id="node20" class="node">
<title>Node112</title>
<g id="a_node20"><a xlink:href="cl__set_8h.html#a0993c66e2751530b39449164017d6654" target="_top" xlink:title="Provides reinforcement to the set and performs set subsumption. ">
<polygon fill="none" stroke="#000000" points="418,-38.5 418,-57.5 483,-57.5 483,-38.5 418,-38.5"/>
<text text-anchor="middle" x="450.5" y="-45.5" font-family="Helvetica,sans-Serif" font-size="10.00" fill="#000000">set_update</text>
</a>
</g>
</g>
<!-- Node111&#45;&gt;Node112 -->
<g id="edge21" class="edge">
<title>Node111&#45;&gt;Node112</title>
<path fill="none" stroke="#191970" d="M308.5853,-48C343.8691,-48 388.1709,-48 417.8043,-48"/>
<polygon fill="#191970" stroke="#191970" points="308.4229,-44.5001 298.4229,-48 308.4228,-51.5001 308.4229,-44.5001"/>
</g>
<!-- Node112&#45;&gt;Node98 -->
<g id="edge24" class="edge">
<title>Node112&#45;&gt;Node98</title>
<path fill="none" stroke="#191970" d="M493.205,-48C502.3314,-48 512.0272,-48 521.3271,-48"/>
<polygon fill="#191970" stroke="#191970" points="493.1944,-44.5001 483.1943,-48 493.1943,-51.5001 493.1944,-44.5001"/>
</g>
<!-- Node112&#45;&gt;Node102 -->
<g id="edge25" class="edge">
<title>Node112&#45;&gt;Node102</title>
<path fill="none" stroke="#191970" d="M490.0429,-60.6804C506.0542,-65.8148 524.2322,-71.6441 539.107,-76.4141"/>
<polygon fill="#191970" stroke="#191970" points="490.9937,-57.3098 480.4026,-57.589 488.8562,-63.9755 490.9937,-57.3098"/>
</g>
<!-- Node112&#45;&gt;Node104 -->
<g id="edge26" class="edge">
<title>Node112&#45;&gt;Node104</title>
<path fill="none" stroke="#191970" d="M477.4842,-62.9532C479.3939,-64.2594 481.2528,-65.6137 483,-67 501.2247,-81.4601 499.64,-92.0995 519,-105 524.5639,-108.7075 530.9532,-111.8325 537.2635,-114.4093"/>
<polygon fill="#191970" stroke="#191970" points="479.2996,-59.9602 468.9745,-57.5843 475.5644,-65.8804 479.2996,-59.9602"/>
</g>
<!-- Node113 -->
<g id="node21" class="node">
<title>Node113</title>
<g id="a_node21"><a xlink:href="xcs__multi__step_8c.html#a7c317faec2f018cc620fe5e465ebf378" target="_top" xlink:title="Executes a multi&#45;step exploit trial. ">
<polygon fill="none" stroke="#000000" points="523,-.5 523,-19.5 615,-19.5 615,-.5 523,-.5"/>
<text text-anchor="middle" x="569" y="-7.5" font-family="Helvetica,sans-Serif" font-size="10.00" fill="#000000">xcs_multi_exploit</text>
</a>
</g>
</g>
<!-- Node112&#45;&gt;Node113 -->
<g id="edge22" class="edge">
<title>Node112&#45;&gt;Node113</title>
<path fill="none" stroke="#191970" d="M490.0429,-35.3196C506.0542,-30.1852 524.2322,-24.3559 539.107,-19.5859"/>
<polygon fill="#191970" stroke="#191970" points="488.8562,-32.0245 480.4026,-38.411 490.9937,-38.6902 488.8562,-32.0245"/>
</g>
<!-- Node113&#45;&gt;Node99 -->
<g id="edge23" class="edge">
<title>Node113&#45;&gt;Node99</title>
<path fill="none" stroke="#191970" d="M614.1176,-22.2462C633.4149,-27.484 655.6124,-33.5091 673.6834,-38.4141"/>
<polygon fill="#191970" stroke="#191970" points="614.8956,-18.8308 604.3279,-19.589 613.0619,-25.5864 614.8956,-18.8308"/>
</g>
</g>
</svg>
