<?xml version="1.0" encoding="UTF-8" standalone="no"?>
<!DOCTYPE svg PUBLIC "-//W3C//DTD SVG 1.1//EN"
 "http://www.w3.org/Graphics/SVG/1.1/DTD/svg11.dtd">
<!-- Generated by graphviz version 2.40.1 (20161225.0304)
 -->
<!-- Title: cond_rectangle_cover Pages: 1 -->
<svg width="670pt" height="28pt"
 viewBox="0.00 0.00 670.00 28.00" xmlns="http://www.w3.org/2000/svg" xmlns:xlink="http://www.w3.org/1999/xlink">
<g id="graph0" class="graph" transform="scale(1 1) rotate(0) translate(4 24)">
<title>cond_rectangle_cover</title>
<!-- Node2 -->
<g id="node1" class="node">
<title>Node2</title>
<polygon fill="#bfbfbf" stroke="#000000" points="0,-.5 0,-19.5 112,-19.5 112,-.5 0,-.5"/>
<text text-anchor="middle" x="56" y="-7.5" font-family="Helvetica,sans-Serif" font-size="10.00" fill="#000000">cond_rectangle_cover</text>
</g>
<!-- Node3 -->
<g id="node2" class="node">
<title>Node3</title>
<g id="a_node2"><a xlink:href="$utils_8c.html#ae42a9e1d467853befaa7922cfafed3bb" xlink:title="Returns a uniform random float [min,max]. ">
<polygon fill="none" stroke="#000000" points="148,-.5 148,-19.5 221,-19.5 221,-.5 148,-.5"/>
<text text-anchor="middle" x="184.5" y="-7.5" font-family="Helvetica,sans-Serif" font-size="10.00" fill="#000000">rand_uniform</text>
</a>
</g>
</g>
<!-- Node2&#45;&gt;Node3 -->
<g id="edge1" class="edge">
<title>Node2&#45;&gt;Node3</title>
<path fill="none" stroke="#191970" d="M112.362,-10C120.8018,-10 129.426,-10 137.6401,-10"/>
<polygon fill="#191970" stroke="#191970" points="137.7806,-13.5001 147.7805,-10 137.7805,-6.5001 137.7806,-13.5001"/>
</g>
<!-- Node4 -->
<g id="node3" class="node">
<title>Node4</title>
<g id="a_node3"><a xlink:href="$utils_8c.html#a101d27cdda714b7f17a06224c65cac56" xlink:title="Returns a uniform random float [0,1]. ">
<polygon fill="none" stroke="#000000" points="257,-.5 257,-19.5 298,-19.5 298,-.5 257,-.5"/>
<text text-anchor="middle" x="277.5" y="-7.5" font-family="Helvetica,sans-Serif" font-size="10.00" fill="#000000">drand</text>
</a>
</g>
</g>
<!-- Node3&#45;&gt;Node4 -->
<g id="edge2" class="edge">
<title>Node3&#45;&gt;Node4</title>
<path fill="none" stroke="#191970" d="M221.2561,-10C229.658,-10 238.5043,-10 246.63,-10"/>
<polygon fill="#191970" stroke="#191970" points="246.799,-13.5001 256.7989,-10 246.7989,-6.5001 246.799,-13.5001"/>
</g>
<!-- Node5 -->
<g id="node4" class="node">
<title>Node5</title>
<g id="a_node4"><a xlink:href="$mt19937-64_8c.html#aa0b74daf51eca91df224d00f1730084a" xlink:title="genrand64_real1">
<polygon fill="none" stroke="#000000" points="334,-.5 334,-19.5 422,-19.5 422,-.5 334,-.5"/>
<text text-anchor="middle" x="378" y="-7.5" font-family="Helvetica,sans-Serif" font-size="10.00" fill="#000000">genrand64_real1</text>
</a>
</g>
</g>
<!-- Node4&#45;&gt;Node5 -->
<g id="edge3" class="edge">
<title>Node4&#45;&gt;Node5</title>
<path fill="none" stroke="#191970" d="M298.3237,-10C305.8428,-10 314.7193,-10 323.769,-10"/>
<polygon fill="#191970" stroke="#191970" points="323.9969,-13.5001 333.9969,-10 323.9969,-6.5001 323.9969,-13.5001"/>
</g>
<!-- Node6 -->
<g id="node5" class="node">
<title>Node6</title>
<g id="a_node5"><a xlink:href="$mt19937-64_8c.html#a265bf48d20d6e0347371fcf4fe340e6d" xlink:title="genrand64_int64">
<polygon fill="none" stroke="#000000" points="458,-.5 458,-19.5 546,-19.5 546,-.5 458,-.5"/>
<text text-anchor="middle" x="502" y="-7.5" font-family="Helvetica,sans-Serif" font-size="10.00" fill="#000000">genrand64_int64</text>
</a>
</g>
</g>
<!-- Node5&#45;&gt;Node6 -->
<g id="edge4" class="edge">
<title>Node5&#45;&gt;Node6</title>
<path fill="none" stroke="#191970" d="M422.0669,-10C430.2822,-10 438.957,-10 447.4432,-10"/>
<polygon fill="#191970" stroke="#191970" points="447.6572,-13.5001 457.6572,-10 447.6572,-6.5001 447.6572,-13.5001"/>
</g>
<!-- Node7 -->
<g id="node6" class="node">
<title>Node7</title>
<g id="a_node6"><a xlink:href="$mt19937-64_8c.html#adf4127d44c2dc34fcb318d406131ef7c" xlink:title="init_genrand64">
<polygon fill="none" stroke="#000000" points="582,-.5 582,-19.5 662,-19.5 662,-.5 582,-.5"/>
<text text-anchor="middle" x="622" y="-7.5" font-family="Helvetica,sans-Serif" font-size="10.00" fill="#000000">init_genrand64</text>
</a>
</g>
</g>
<!-- Node6&#45;&gt;Node7 -->
<g id="edge5" class="edge">
<title>Node6&#45;&gt;Node7</title>
<path fill="none" stroke="#191970" d="M546.0022,-10C554.3719,-10 563.1896,-10 571.7365,-10"/>
<polygon fill="#191970" stroke="#191970" points="571.9792,-13.5001 581.9792,-10 571.9792,-6.5001 571.9792,-13.5001"/>
</g>
</g>
</svg>
