<?xml version="1.0" encoding="UTF-8" standalone="no"?>
<!DOCTYPE svg PUBLIC "-//W3C//DTD SVG 1.1//EN"
 "http://www.w3.org/Graphics/SVG/1.1/DTD/svg11.dtd">
<!-- Generated by graphviz version 2.40.1 (20161225.0304)
 -->
<!-- Title: cond_dgp_cover Pages: 1 -->
<svg width="1376pt" height="180pt"
 viewBox="0.00 0.00 1376.00 180.00" xmlns="http://www.w3.org/2000/svg" xmlns:xlink="http://www.w3.org/1999/xlink">
<g id="graph0" class="graph" transform="scale(1 1) rotate(0) translate(4 176)">
<title>cond_dgp_cover</title>
<!-- Node14 -->
<g id="node1" class="node">
<title>Node14</title>
<polygon fill="#bfbfbf" stroke="#000000" points="0,-76.5 0,-95.5 88,-95.5 88,-76.5 0,-76.5"/>
<text text-anchor="middle" x="44" y="-83.5" font-family="Helvetica,sans-Serif" font-size="10.00" fill="#000000">cond_dgp_cover</text>
</g>
<!-- Node15 -->
<g id="node2" class="node">
<title>Node15</title>
<g id="a_node2"><a xlink:href="cond__dgp_8c.html#a48c7c73e5aa6d9537cce1adee006149e" target="_top" xlink:title="cond_dgp_match">
<polygon fill="none" stroke="#000000" points="124,-114.5 124,-133.5 215,-133.5 215,-114.5 124,-114.5"/>
<text text-anchor="middle" x="169.5" y="-121.5" font-family="Helvetica,sans-Serif" font-size="10.00" fill="#000000">cond_dgp_match</text>
</a>
</g>
</g>
<!-- Node14&#45;&gt;Node15 -->
<g id="edge1" class="edge">
<title>Node14&#45;&gt;Node15</title>
<path fill="none" stroke="#191970" d="M75.6689,-95.589C91.5725,-100.4044 111.0396,-106.2988 128.1114,-111.468"/>
<polygon fill="#191970" stroke="#191970" points="127.256,-114.8658 137.8412,-114.4141 129.2846,-108.1662 127.256,-114.8658"/>
</g>
<!-- Node22 -->
<g id="node9" class="node">
<title>Node22</title>
<g id="a_node9"><a xlink:href="cond__dgp_8c.html#ab1cd55000e40873ee2fef3c519ef627d" target="_top" xlink:title="cond_dgp_rand">
<polygon fill="none" stroke="#000000" points="128,-57.5 128,-76.5 211,-76.5 211,-57.5 128,-57.5"/>
<text text-anchor="middle" x="169.5" y="-64.5" font-family="Helvetica,sans-Serif" font-size="10.00" fill="#000000">cond_dgp_rand</text>
</a>
</g>
</g>
<!-- Node14&#45;&gt;Node22 -->
<g id="edge8" class="edge">
<title>Node14&#45;&gt;Node22</title>
<path fill="none" stroke="#191970" d="M88.2466,-79.3013C97.7792,-77.8581 107.9374,-76.3202 117.7276,-74.838"/>
<polygon fill="#191970" stroke="#191970" points="118.3919,-78.2775 127.7553,-73.3199 117.344,-71.3563 118.3919,-78.2775"/>
</g>
<!-- Node16 -->
<g id="node3" class="node">
<title>Node16</title>
<g id="a_node3"><a xlink:href="dgp_8c.html#ac7037469abc0b8c6875d95f377d95a37" target="_top" xlink:title="Updates a DGP graph T cycles. ">
<polygon fill="none" stroke="#000000" points="251,-114.5 251,-133.5 326,-133.5 326,-114.5 251,-114.5"/>
<text text-anchor="middle" x="288.5" y="-121.5" font-family="Helvetica,sans-Serif" font-size="10.00" fill="#000000">graph_update</text>
</a>
</g>
</g>
<!-- Node15&#45;&gt;Node16 -->
<g id="edge2" class="edge">
<title>Node15&#45;&gt;Node16</title>
<path fill="none" stroke="#191970" d="M215.1682,-124C223.5558,-124 232.3316,-124 240.7776,-124"/>
<polygon fill="#191970" stroke="#191970" points="240.8681,-127.5001 250.8681,-124 240.868,-120.5001 240.8681,-127.5001"/>
</g>
<!-- Node21 -->
<g id="node8" class="node">
<title>Node21</title>
<g id="a_node8"><a xlink:href="dgp_8c.html#a6acff583ba53059413800ec40b129896" target="_top" xlink:title="Returns the current state of a specified node in the graph. ">
<polygon fill="none" stroke="#000000" points="252,-152.5 252,-171.5 325,-171.5 325,-152.5 252,-152.5"/>
<text text-anchor="middle" x="288.5" y="-159.5" font-family="Helvetica,sans-Serif" font-size="10.00" fill="#000000">graph_output</text>
</a>
</g>
</g>
<!-- Node15&#45;&gt;Node21 -->
<g id="edge7" class="edge">
<title>Node15&#45;&gt;Node21</title>
<path fill="none" stroke="#191970" d="M199.5287,-133.589C214.4677,-138.3594 232.7227,-144.1888 248.8006,-149.3229"/>
<polygon fill="#191970" stroke="#191970" points="247.8901,-152.7062 258.4809,-152.4141 250.0195,-146.0379 247.8901,-152.7062"/>
</g>
<!-- Node17 -->
<g id="node4" class="node">
<title>Node17</title>
<g id="a_node4"><a xlink:href="dgp_8c.html#acecb4b6b54630b71479a69f5a568899e" target="_top" xlink:title="Resets the states to their initial state. ">
<polygon fill="none" stroke="#000000" points="381.5,-114.5 381.5,-133.5 449.5,-133.5 449.5,-114.5 381.5,-114.5"/>
<text text-anchor="middle" x="415.5" y="-121.5" font-family="Helvetica,sans-Serif" font-size="10.00" fill="#000000">graph_reset</text>
</a>
</g>
</g>
<!-- Node16&#45;&gt;Node17 -->
<g id="edge3" class="edge">
<title>Node16&#45;&gt;Node17</title>
<path fill="none" stroke="#191970" d="M326.2603,-124C340.2635,-124 356.2768,-124 370.8373,-124"/>
<polygon fill="#191970" stroke="#191970" points="371.1333,-127.5001 381.1333,-124 371.1332,-120.5001 371.1333,-127.5001"/>
</g>
<!-- Node18 -->
<g id="node5" class="node">
<title>Node18</title>
<g id="a_node5"><a xlink:href="dgp_8c.html#afab08701aa17da0be663bae23888cd75" target="_top" xlink:title="Performs a synchronous update. ">
<polygon fill="none" stroke="#000000" points="362,-152.5 362,-171.5 469,-171.5 469,-152.5 362,-152.5"/>
<text text-anchor="middle" x="415.5" y="-159.5" font-family="Helvetica,sans-Serif" font-size="10.00" fill="#000000">synchronous_update</text>
</a>
</g>
</g>
<!-- Node16&#45;&gt;Node18 -->
<g id="edge4" class="edge">
<title>Node16&#45;&gt;Node18</title>
<path fill="none" stroke="#191970" d="M320.5475,-133.589C336.6411,-138.4044 356.3409,-144.2988 373.6167,-149.468"/>
<polygon fill="#191970" stroke="#191970" points="372.8791,-152.9006 383.4628,-152.4141 374.8858,-146.1943 372.8791,-152.9006"/>
</g>
<!-- Node19 -->
<g id="node6" class="node">
<title>Node19</title>
<g id="a_node6"><a xlink:href="dgp_8c.html#a36cd860ca5cce8d9b0ea53cf40b8bfba" target="_top" xlink:title="Returns the result from applying a specified activation function. ">
<polygon fill="none" stroke="#000000" points="505,-152.5 505,-171.5 582,-171.5 582,-152.5 505,-152.5"/>
<text text-anchor="middle" x="543.5" y="-159.5" font-family="Helvetica,sans-Serif" font-size="10.00" fill="#000000">node_activate</text>
</a>
</g>
</g>
<!-- Node18&#45;&gt;Node19 -->
<g id="edge5" class="edge">
<title>Node18&#45;&gt;Node19</title>
<path fill="none" stroke="#191970" d="M469.0419,-162C477.6137,-162 486.4429,-162 494.8916,-162"/>
<polygon fill="#191970" stroke="#191970" points="494.9656,-165.5001 504.9656,-162 494.9656,-158.5001 494.9656,-165.5001"/>
</g>
<!-- Node20 -->
<g id="node7" class="node">
<title>Node20</title>
<g id="a_node7"><a xlink:href="utils_8h.html#ae02d149bec0d867bdb7616bb612439a6" target="_top" xlink:title="Returns a float constrained within the specified range. ">
<polygon fill="none" stroke="#000000" points="626.5,-152.5 626.5,-171.5 682.5,-171.5 682.5,-152.5 626.5,-152.5"/>
<text text-anchor="middle" x="654.5" y="-159.5" font-family="Helvetica,sans-Serif" font-size="10.00" fill="#000000">constrain</text>
</a>
</g>
</g>
<!-- Node19&#45;&gt;Node20 -->
<g id="edge6" class="edge">
<title>Node19&#45;&gt;Node20</title>
<path fill="none" stroke="#191970" d="M582.0109,-162C593.0196,-162 605.0152,-162 616.022,-162"/>
<polygon fill="#191970" stroke="#191970" points="616.2073,-165.5001 626.2073,-162 616.2073,-158.5001 616.2073,-165.5001"/>
</g>
<!-- Node23 -->
<g id="node10" class="node">
<title>Node23</title>
<g id="a_node10"><a xlink:href="dgp_8c.html#a870d8b0c4cbc943f756b54ccbb3ff4c7" target="_top" xlink:title="Randomises a specified DGP graph. ">
<polygon fill="none" stroke="#000000" points="256,-47.5 256,-66.5 321,-66.5 321,-47.5 256,-47.5"/>
<text text-anchor="middle" x="288.5" y="-54.5" font-family="Helvetica,sans-Serif" font-size="10.00" fill="#000000">graph_rand</text>
</a>
</g>
</g>
<!-- Node22&#45;&gt;Node23 -->
<g id="edge9" class="edge">
<title>Node22&#45;&gt;Node23</title>
<path fill="none" stroke="#191970" d="M211.1204,-63.5025C222.3071,-62.5624 234.4233,-61.5443 245.6743,-60.5988"/>
<polygon fill="#191970" stroke="#191970" points="246.0403,-64.0805 255.7121,-59.7553 245.4541,-57.1051 246.0403,-64.0805"/>
</g>
<!-- Node24 -->
<g id="node11" class="node">
<title>Node24</title>
<g id="a_node11"><a xlink:href="utils_8c.html#a32648ab076544a9ac1c086d0f07b599f" target="_top" xlink:title="Returns a uniform random integer [min,max] not inclusive of max. ">
<polygon fill="none" stroke="#000000" points="506,-.5 506,-19.5 581,-19.5 581,-.5 506,-.5"/>
<text text-anchor="middle" x="543.5" y="-7.5" font-family="Helvetica,sans-Serif" font-size="10.00" fill="#000000">irand_uniform</text>
</a>
</g>
</g>
<!-- Node23&#45;&gt;Node24 -->
<g id="edge10" class="edge">
<title>Node23&#45;&gt;Node24</title>
<path fill="none" stroke="#191970" d="M309.2689,-47.4239C323.7441,-41.1668 343.6703,-33.3719 362,-29 406.6489,-18.3505 458.8921,-13.6695 495.8337,-11.6123"/>
<polygon fill="#191970" stroke="#191970" points="496.0211,-15.1073 505.8284,-11.0988 495.6619,-8.1166 496.0211,-15.1073"/>
</g>
<!-- Node25 -->
<g id="node12" class="node">
<title>Node25</title>
<g id="a_node12"><a xlink:href="utils_8c.html#ae42a9e1d467853befaa7922cfafed3bb" target="_top" xlink:title="Returns a uniform random float [min,max]. ">
<polygon fill="none" stroke="#000000" points="618,-38.5 618,-57.5 691,-57.5 691,-38.5 618,-38.5"/>
<text text-anchor="middle" x="654.5" y="-45.5" font-family="Helvetica,sans-Serif" font-size="10.00" fill="#000000">rand_uniform</text>
</a>
</g>
</g>
<!-- Node23&#45;&gt;Node25 -->
<g id="edge17" class="edge">
<title>Node23&#45;&gt;Node25</title>
<path fill="none" stroke="#191970" d="M321.3324,-62.4328C334.0017,-64.2751 348.6375,-66.0952 362,-67 459.5796,-73.6076 484.8712,-73.4642 582,-62 590.4183,-61.0064 599.3249,-59.592 607.9058,-58.0405"/>
<polygon fill="#191970" stroke="#191970" points="608.6052,-61.4704 617.7807,-56.1732 607.3045,-54.5923 608.6052,-61.4704"/>
</g>
<!-- Node31 -->
<g id="node18" class="node">
<title>Node31</title>
<g id="a_node18"><a xlink:href="dgp_8c.html#afdff428427a00c7e6c9ec124bbb4cf5f" target="_top" xlink:title="Returns a random connection. ">
<polygon fill="none" stroke="#000000" points="365,-38.5 365,-57.5 466,-57.5 466,-38.5 365,-38.5"/>
<text text-anchor="middle" x="415.5" y="-45.5" font-family="Helvetica,sans-Serif" font-size="10.00" fill="#000000">random_connection</text>
</a>
</g>
</g>
<!-- Node23&#45;&gt;Node31 -->
<g id="edge18" class="edge">
<title>Node23&#45;&gt;Node31</title>
<path fill="none" stroke="#191970" d="M321.2057,-54.6823C331.4375,-53.9572 343.0767,-53.1324 354.6015,-52.3156"/>
<polygon fill="#191970" stroke="#191970" points="354.9341,-55.8009 364.6617,-51.6027 354.4392,-48.8185 354.9341,-55.8009"/>
</g>
<!-- Node24&#45;&gt;Node25 -->
<g id="edge11" class="edge">
<title>Node24&#45;&gt;Node25</title>
<path fill="none" stroke="#191970" d="M571.51,-19.589C585.1817,-24.2694 601.831,-29.9692 616.6184,-35.0315"/>
<polygon fill="#191970" stroke="#191970" points="615.9044,-38.4864 626.499,-38.4141 618.1716,-31.8638 615.9044,-38.4864"/>
</g>
<!-- Node26 -->
<g id="node13" class="node">
<title>Node26</title>
<g id="a_node13"><a xlink:href="utils_8c.html#a101d27cdda714b7f17a06224c65cac56" target="_top" xlink:title="Returns a uniform random float (0,1) ">
<polygon fill="none" stroke="#000000" points="727,-38.5 727,-57.5 768,-57.5 768,-38.5 727,-38.5"/>
<text text-anchor="middle" x="747.5" y="-45.5" font-family="Helvetica,sans-Serif" font-size="10.00" fill="#000000">drand</text>
</a>
</g>
</g>
<!-- Node25&#45;&gt;Node26 -->
<g id="edge12" class="edge">
<title>Node25&#45;&gt;Node26</title>
<path fill="none" stroke="#191970" d="M691.2561,-48C699.658,-48 708.5043,-48 716.63,-48"/>
<polygon fill="#191970" stroke="#191970" points="716.799,-51.5001 726.7989,-48 716.7989,-44.5001 716.799,-51.5001"/>
</g>
<!-- Node27 -->
<g id="node14" class="node">
<title>Node27</title>
<g id="a_node14"><a xlink:href="dSFMT_8h.html#af6dbcef408462da1f40edd1a1ea5dcd3" target="_top" xlink:title="dsfmt_gv_genrand_open_open">
<polygon fill="none" stroke="#000000" points="804,-38.5 804,-57.5 953,-57.5 953,-38.5 804,-38.5"/>
<text text-anchor="middle" x="878.5" y="-45.5" font-family="Helvetica,sans-Serif" font-size="10.00" fill="#000000">dsfmt_gv_genrand_open_open</text>
</a>
</g>
</g>
<!-- Node26&#45;&gt;Node27 -->
<g id="edge13" class="edge">
<title>Node26&#45;&gt;Node27</title>
<path fill="none" stroke="#191970" d="M768.2573,-48C775.5688,-48 784.3051,-48 793.6156,-48"/>
<polygon fill="#191970" stroke="#191970" points="793.9038,-51.5001 803.9037,-48 793.9037,-44.5001 793.9038,-51.5001"/>
</g>
<!-- Node28 -->
<g id="node15" class="node">
<title>Node28</title>
<g id="a_node15"><a xlink:href="dSFMT_8h.html#a147a0a05c969a4cb5d92ce3963b839c2" target="_top" xlink:title="dsfmt_genrand_open_open">
<polygon fill="none" stroke="#000000" points="989,-38.5 989,-57.5 1123,-57.5 1123,-38.5 989,-38.5"/>
<text text-anchor="middle" x="1056" y="-45.5" font-family="Helvetica,sans-Serif" font-size="10.00" fill="#000000">dsfmt_genrand_open_open</text>
</a>
</g>
</g>
<!-- Node27&#45;&gt;Node28 -->
<g id="edge14" class="edge">
<title>Node27&#45;&gt;Node28</title>
<path fill="none" stroke="#191970" d="M953.0045,-48C961.4355,-48 970.0427,-48 978.5109,-48"/>
<polygon fill="#191970" stroke="#191970" points="978.7501,-51.5001 988.75,-48 978.75,-44.5001 978.7501,-51.5001"/>
</g>
<!-- Node29 -->
<g id="node16" class="node">
<title>Node29</title>
<g id="a_node16"><a xlink:href="dSFMT_8h.html#afccb1e4d75cea7ffe3b45cba53d1e5e0" target="_top" xlink:title="dsfmt_gen_rand_all">
<polygon fill="none" stroke="#000000" points="1159,-38.5 1159,-57.5 1260,-57.5 1260,-38.5 1159,-38.5"/>
<text text-anchor="middle" x="1209.5" y="-45.5" font-family="Helvetica,sans-Serif" font-size="10.00" fill="#000000">dsfmt_gen_rand_all</text>
</a>
</g>
</g>
<!-- Node28&#45;&gt;Node29 -->
<g id="edge15" class="edge">
<title>Node28&#45;&gt;Node29</title>
<path fill="none" stroke="#191970" d="M1123.3273,-48C1131.8031,-48 1140.4345,-48 1148.7997,-48"/>
<polygon fill="#191970" stroke="#191970" points="1148.8429,-51.5001 1158.8429,-48 1148.8428,-44.5001 1148.8429,-51.5001"/>
</g>
<!-- Node30 -->
<g id="node17" class="node">
<title>Node30</title>
<g id="a_node17"><a xlink:href="dSFMT-common_8h.html#a43e33e2235015c9c072bad7dfe1a282c" target="_top" xlink:title="do_recursion">
<polygon fill="none" stroke="#000000" points="1296,-38.5 1296,-57.5 1368,-57.5 1368,-38.5 1296,-38.5"/>
<text text-anchor="middle" x="1332" y="-45.5" font-family="Helvetica,sans-Serif" font-size="10.00" fill="#000000">do_recursion</text>
</a>
</g>
</g>
<!-- Node29&#45;&gt;Node30 -->
<g id="edge16" class="edge">
<title>Node29&#45;&gt;Node30</title>
<path fill="none" stroke="#191970" d="M1260.0327,-48C1268.5603,-48 1277.3741,-48 1285.7846,-48"/>
<polygon fill="#191970" stroke="#191970" points="1285.7975,-51.5001 1295.7974,-48 1285.7974,-44.5001 1285.7975,-51.5001"/>
</g>
<!-- Node31&#45;&gt;Node24 -->
<g id="edge20" class="edge">
<title>Node31&#45;&gt;Node24</title>
<path fill="none" stroke="#191970" d="M447.7998,-38.411C464.0202,-33.5956 483.8751,-27.7012 501.2869,-22.532"/>
<polygon fill="#191970" stroke="#191970" points="502.6202,-25.7873 511.2105,-19.5859 500.6279,-19.0767 502.6202,-25.7873"/>
</g>
<!-- Node31&#45;&gt;Node25 -->
<g id="edge19" class="edge">
<title>Node31&#45;&gt;Node25</title>
<path fill="none" stroke="#191970" d="M466.1858,-48C508.0348,-48 566.9641,-48 607.7056,-48"/>
<polygon fill="#191970" stroke="#191970" points="607.9083,-51.5001 617.9083,-48 607.9083,-44.5001 607.9083,-51.5001"/>
</g>
</g>
</svg>
