<?xml version="1.0" encoding="UTF-8" standalone="no"?>
<!DOCTYPE svg PUBLIC "-//W3C//DTD SVG 1.1//EN"
 "http://www.w3.org/Graphics/SVG/1.1/DTD/svg11.dtd">
<!-- Generated by graphviz version 2.40.1 (20161225.0304)
 -->
<!-- Title: cond_gp_match Pages: 1 -->
<svg width="186pt" height="46pt"
 viewBox="0.00 0.00 186.00 46.00" xmlns="http://www.w3.org/2000/svg" xmlns:xlink="http://www.w3.org/1999/xlink">
<g id="graph0" class="graph" transform="scale(1 1) rotate(0) translate(4 42)">
<title>cond_gp_match</title>
<!-- Node46 -->
<g id="node1" class="node">
<title>Node46</title>
<polygon fill="#bfbfbf" stroke="#000000" points="0,-.5 0,-19.5 86,-19.5 86,-.5 0,-.5"/>
<text text-anchor="middle" x="43" y="-7.5" font-family="Helvetica,sans-Serif" font-size="10.00" fill="#000000">cond_gp_match</text>
</g>
<!-- Node47 -->
<g id="node2" class="node">
<title>Node47</title>
<g id="a_node2"><a xlink:href="gp_8c.html#a8998e7cdda7f7162b8da634efa2b441c" target="_top" xlink:title="Evaluates a GP tree. ">
<polygon fill="none" stroke="#000000" points="122,-.5 122,-19.5 178,-19.5 178,-.5 122,-.5"/>
<text text-anchor="middle" x="150" y="-7.5" font-family="Helvetica,sans-Serif" font-size="10.00" fill="#000000">tree_eval</text>
</a>
</g>
</g>
<!-- Node46&#45;&gt;Node47 -->
<g id="edge1" class="edge">
<title>Node46&#45;&gt;Node47</title>
<path fill="none" stroke="#191970" d="M86.2126,-10C94.6136,-10 103.3664,-10 111.5995,-10"/>
<polygon fill="#191970" stroke="#191970" points="111.6847,-13.5001 121.6847,-10 111.6846,-6.5001 111.6847,-13.5001"/>
</g>
<!-- Node47&#45;&gt;Node47 -->
<g id="edge2" class="edge">
<title>Node47&#45;&gt;Node47</title>
<path fill="none" stroke="#191970" d="M133.6623,-19.7571C125.7143,-28.5653 131.1602,-38 150,-38 161.7749,-38 168.3178,-34.3146 169.6287,-29.4"/>
<polygon fill="#191970" stroke="#191970" points="172.8801,-28.0906 166.3377,-19.7571 166.2553,-30.3516 172.8801,-28.0906"/>
</g>
</g>
</svg>
