<?xml version="1.0" encoding="UTF-8" standalone="no"?>
<!DOCTYPE svg PUBLIC "-//W3C//DTD SVG 1.1//EN"
 "http://www.w3.org/Graphics/SVG/1.1/DTD/svg11.dtd">
<!-- Generated by graphviz version 2.40.1 (20161225.0304)
 -->
<!-- Title: cond_gp_print Pages: 1 -->
<svg width="178pt" height="46pt"
 viewBox="0.00 0.00 178.00 46.00" xmlns="http://www.w3.org/2000/svg" xmlns:xlink="http://www.w3.org/1999/xlink">
<g id="graph0" class="graph" transform="scale(1 1) rotate(0) translate(4 42)">
<title>cond_gp_print</title>
<!-- Node70 -->
<g id="node1" class="node">
<title>Node70</title>
<polygon fill="#bfbfbf" stroke="#000000" points="0,-.5 0,-19.5 77,-19.5 77,-.5 0,-.5"/>
<text text-anchor="middle" x="38.5" y="-7.5" font-family="Helvetica,sans-Serif" font-size="10.00" fill="#000000">cond_gp_print</text>
</g>
<!-- Node71 -->
<g id="node2" class="node">
<title>Node71</title>
<g id="a_node2"><a xlink:href="$gp_8c.html#ac1ce5ebff5dbd537921803e743a1f894" xlink:title="Prints a GP tree. ">
<polygon fill="none" stroke="#000000" points="113,-.5 113,-19.5 170,-19.5 170,-.5 113,-.5"/>
<text text-anchor="middle" x="141.5" y="-7.5" font-family="Helvetica,sans-Serif" font-size="10.00" fill="#000000">tree_print</text>
</a>
</g>
</g>
<!-- Node70&#45;&gt;Node71 -->
<g id="edge1" class="edge">
<title>Node70&#45;&gt;Node71</title>
<path fill="none" stroke="#191970" d="M77.1464,-10C85.4949,-10 94.3247,-10 102.6798,-10"/>
<polygon fill="#191970" stroke="#191970" points="102.937,-13.5001 112.937,-10 102.937,-6.5001 102.937,-13.5001"/>
</g>
<!-- Node71&#45;&gt;Node71 -->
<g id="edge2" class="edge">
<title>Node71&#45;&gt;Node71</title>
<path fill="none" stroke="#191970" d="M125.7788,-19.7571C118.1307,-28.5653 123.3711,-38 141.5,-38 152.8306,-38 159.1266,-34.3146 160.388,-29.4"/>
<polygon fill="#191970" stroke="#191970" points="163.6666,-28.1658 157.2212,-19.7571 157.0161,-30.3499 163.6666,-28.1658"/>
</g>
</g>
</svg>
