<?xml version="1.0" encoding="UTF-8" standalone="no"?>
<!DOCTYPE svg PUBLIC "-//W3C//DTD SVG 1.1//EN"
 "http://www.w3.org/Graphics/SVG/1.1/DTD/svg11.dtd">
<!-- Generated by graphviz version 2.40.1 (20161225.0304)
 -->
<!-- Title: cond_dgp_cover Pages: 1 -->
<svg width="997pt" height="123pt"
 viewBox="0.00 0.00 997.00 123.00" xmlns="http://www.w3.org/2000/svg" xmlns:xlink="http://www.w3.org/1999/xlink">
<g id="graph0" class="graph" transform="scale(1 1) rotate(0) translate(4 119)">
<title>cond_dgp_cover</title>
<!-- Node13 -->
<g id="node1" class="node">
<title>Node13</title>
<polygon fill="#bfbfbf" stroke="#000000" points="0,-38.5 0,-57.5 88,-57.5 88,-38.5 0,-38.5"/>
<text text-anchor="middle" x="44" y="-45.5" font-family="Helvetica,sans-Serif" font-size="10.00" fill="#000000">cond_dgp_cover</text>
</g>
<!-- Node14 -->
<g id="node2" class="node">
<title>Node14</title>
<g id="a_node2"><a xlink:href="cond__dgp_8c.html#a48c7c73e5aa6d9537cce1adee006149e" target="_top" xlink:title="cond_dgp_match">
<polygon fill="none" stroke="#000000" points="124,-57.5 124,-76.5 215,-76.5 215,-57.5 124,-57.5"/>
<text text-anchor="middle" x="169.5" y="-64.5" font-family="Helvetica,sans-Serif" font-size="10.00" fill="#000000">cond_dgp_match</text>
</a>
</g>
</g>
<!-- Node13&#45;&gt;Node14 -->
<g id="edge1" class="edge">
<title>Node13&#45;&gt;Node14</title>
<path fill="none" stroke="#191970" d="M88.2466,-54.6987C96.5651,-55.9581 105.3601,-57.2896 113.9712,-58.5933"/>
<polygon fill="#191970" stroke="#191970" points="113.5447,-62.0685 123.9559,-60.1049 114.5925,-55.1473 113.5447,-62.0685"/>
</g>
<!-- Node20 -->
<g id="node8" class="node">
<title>Node20</title>
<g id="a_node8"><a xlink:href="cond__dgp_8c.html#ab1cd55000e40873ee2fef3c519ef627d" target="_top" xlink:title="cond_dgp_rand">
<polygon fill="none" stroke="#000000" points="128,-19.5 128,-38.5 211,-38.5 211,-19.5 128,-19.5"/>
<text text-anchor="middle" x="169.5" y="-26.5" font-family="Helvetica,sans-Serif" font-size="10.00" fill="#000000">cond_dgp_rand</text>
</a>
</g>
</g>
<!-- Node13&#45;&gt;Node20 -->
<g id="edge7" class="edge">
<title>Node13&#45;&gt;Node20</title>
<path fill="none" stroke="#191970" d="M88.2466,-41.3013C97.7792,-39.8581 107.9374,-38.3202 117.7276,-36.838"/>
<polygon fill="#191970" stroke="#191970" points="118.3919,-40.2775 127.7553,-35.3199 117.344,-33.3563 118.3919,-40.2775"/>
</g>
<!-- Node15 -->
<g id="node3" class="node">
<title>Node15</title>
<g id="a_node3"><a xlink:href="dgp_8c.html#a6acff583ba53059413800ec40b129896" target="_top" xlink:title="Returns the current state of a specified node in the graph. ">
<polygon fill="none" stroke="#000000" points="252,-95.5 252,-114.5 325,-114.5 325,-95.5 252,-95.5"/>
<text text-anchor="middle" x="288.5" y="-102.5" font-family="Helvetica,sans-Serif" font-size="10.00" fill="#000000">graph_output</text>
</a>
</g>
</g>
<!-- Node14&#45;&gt;Node15 -->
<g id="edge2" class="edge">
<title>Node14&#45;&gt;Node15</title>
<path fill="none" stroke="#191970" d="M199.5287,-76.589C214.4677,-81.3594 232.7227,-87.1888 248.8006,-92.3229"/>
<polygon fill="#191970" stroke="#191970" points="247.8901,-95.7062 258.4809,-95.4141 250.0195,-89.0379 247.8901,-95.7062"/>
</g>
<!-- Node16 -->
<g id="node4" class="node">
<title>Node16</title>
<g id="a_node4"><a xlink:href="dgp_8c.html#ac7037469abc0b8c6875d95f377d95a37" target="_top" xlink:title="Synchronously updates a DGP graph T cycles. ">
<polygon fill="none" stroke="#000000" points="251,-57.5 251,-76.5 326,-76.5 326,-57.5 251,-57.5"/>
<text text-anchor="middle" x="288.5" y="-64.5" font-family="Helvetica,sans-Serif" font-size="10.00" fill="#000000">graph_update</text>
</a>
</g>
</g>
<!-- Node14&#45;&gt;Node16 -->
<g id="edge3" class="edge">
<title>Node14&#45;&gt;Node16</title>
<path fill="none" stroke="#191970" d="M215.1682,-67C223.5558,-67 232.3316,-67 240.7776,-67"/>
<polygon fill="#191970" stroke="#191970" points="240.8681,-70.5001 250.8681,-67 240.868,-63.5001 240.8681,-70.5001"/>
</g>
<!-- Node17 -->
<g id="node5" class="node">
<title>Node17</title>
<g id="a_node5"><a xlink:href="dgp_8c.html#acecb4b6b54630b71479a69f5a568899e" target="_top" xlink:title="Resets the states to their initial state. ">
<polygon fill="none" stroke="#000000" points="366.5,-95.5 366.5,-114.5 434.5,-114.5 434.5,-95.5 366.5,-95.5"/>
<text text-anchor="middle" x="400.5" y="-102.5" font-family="Helvetica,sans-Serif" font-size="10.00" fill="#000000">graph_reset</text>
</a>
</g>
</g>
<!-- Node16&#45;&gt;Node17 -->
<g id="edge4" class="edge">
<title>Node16&#45;&gt;Node17</title>
<path fill="none" stroke="#191970" d="M316.7623,-76.589C330.6899,-81.3144 347.6798,-87.0789 362.707,-92.1774"/>
<polygon fill="#191970" stroke="#191970" points="361.6524,-95.5155 372.2467,-95.4141 363.9015,-88.8866 361.6524,-95.5155"/>
</g>
<!-- Node18 -->
<g id="node6" class="node">
<title>Node18</title>
<g id="a_node6"><a xlink:href="dgp_8c.html#a36cd860ca5cce8d9b0ea53cf40b8bfba" target="_top" xlink:title="Returns the result from applying a specified activation function. ">
<polygon fill="none" stroke="#000000" points="362,-57.5 362,-76.5 439,-76.5 439,-57.5 362,-57.5"/>
<text text-anchor="middle" x="400.5" y="-64.5" font-family="Helvetica,sans-Serif" font-size="10.00" fill="#000000">node_activate</text>
</a>
</g>
</g>
<!-- Node16&#45;&gt;Node18 -->
<g id="edge5" class="edge">
<title>Node16&#45;&gt;Node18</title>
<path fill="none" stroke="#191970" d="M326.1059,-67C334.2383,-67 342.9528,-67 351.4504,-67"/>
<polygon fill="#191970" stroke="#191970" points="351.6545,-70.5001 361.6544,-67 351.6544,-63.5001 351.6545,-70.5001"/>
</g>
<!-- Node19 -->
<g id="node7" class="node">
<title>Node19</title>
<g id="a_node7"><a xlink:href="utils_8c.html#a4d9693be6ce890dc7a2ee825d11ca3ee" target="_top" xlink:title="Returns a float constrained within the specified range. ">
<polygon fill="none" stroke="#000000" points="483.5,-57.5 483.5,-76.5 539.5,-76.5 539.5,-57.5 483.5,-57.5"/>
<text text-anchor="middle" x="511.5" y="-64.5" font-family="Helvetica,sans-Serif" font-size="10.00" fill="#000000">constrain</text>
</a>
</g>
</g>
<!-- Node18&#45;&gt;Node19 -->
<g id="edge6" class="edge">
<title>Node18&#45;&gt;Node19</title>
<path fill="none" stroke="#191970" d="M439.0109,-67C450.0196,-67 462.0152,-67 473.022,-67"/>
<polygon fill="#191970" stroke="#191970" points="473.2073,-70.5001 483.2073,-67 473.2073,-63.5001 473.2073,-70.5001"/>
</g>
<!-- Node21 -->
<g id="node9" class="node">
<title>Node21</title>
<g id="a_node9"><a xlink:href="dgp_8c.html#a870d8b0c4cbc943f756b54ccbb3ff4c7" target="_top" xlink:title="Randomises a specified DGP graph. ">
<polygon fill="none" stroke="#000000" points="256,-19.5 256,-38.5 321,-38.5 321,-19.5 256,-19.5"/>
<text text-anchor="middle" x="288.5" y="-26.5" font-family="Helvetica,sans-Serif" font-size="10.00" fill="#000000">graph_rand</text>
</a>
</g>
</g>
<!-- Node20&#45;&gt;Node21 -->
<g id="edge8" class="edge">
<title>Node20&#45;&gt;Node21</title>
<path fill="none" stroke="#191970" d="M211.1204,-29C222.3071,-29 234.4233,-29 245.6743,-29"/>
<polygon fill="#191970" stroke="#191970" points="245.7121,-32.5001 255.7121,-29 245.712,-25.5001 245.7121,-32.5001"/>
</g>
<!-- Node22 -->
<g id="node10" class="node">
<title>Node22</title>
<g id="a_node10"><a xlink:href="utils_8c.html#a32648ab076544a9ac1c086d0f07b599f" target="_top" xlink:title="Returns a uniform random integer [min,max] not inclusive of max. ">
<polygon fill="none" stroke="#000000" points="363,-19.5 363,-38.5 438,-38.5 438,-19.5 363,-19.5"/>
<text text-anchor="middle" x="400.5" y="-26.5" font-family="Helvetica,sans-Serif" font-size="10.00" fill="#000000">irand_uniform</text>
</a>
</g>
</g>
<!-- Node21&#45;&gt;Node22 -->
<g id="edge9" class="edge">
<title>Node21&#45;&gt;Node22</title>
<path fill="none" stroke="#191970" d="M321.1961,-29C331.0799,-29 342.1425,-29 352.7955,-29"/>
<polygon fill="#191970" stroke="#191970" points="352.8319,-32.5001 362.8319,-29 352.8319,-25.5001 352.8319,-32.5001"/>
</g>
<!-- Node23 -->
<g id="node11" class="node">
<title>Node23</title>
<g id="a_node11"><a xlink:href="utils_8c.html#ae42a9e1d467853befaa7922cfafed3bb" target="_top" xlink:title="Returns a uniform random float [min,max]. ">
<polygon fill="none" stroke="#000000" points="475,-.5 475,-19.5 548,-19.5 548,-.5 475,-.5"/>
<text text-anchor="middle" x="511.5" y="-7.5" font-family="Helvetica,sans-Serif" font-size="10.00" fill="#000000">rand_uniform</text>
</a>
</g>
</g>
<!-- Node21&#45;&gt;Node23 -->
<g id="edge15" class="edge">
<title>Node21&#45;&gt;Node23</title>
<path fill="none" stroke="#191970" d="M318.2048,-19.4956C331.4577,-15.7316 347.3565,-11.8621 362,-10 396.2025,-5.6508 435.1634,-5.8151 464.7353,-6.98"/>
<polygon fill="#191970" stroke="#191970" points="464.6344,-10.4789 474.7805,-7.428 464.9464,-3.4858 464.6344,-10.4789"/>
</g>
<!-- Node22&#45;&gt;Node23 -->
<g id="edge10" class="edge">
<title>Node22&#45;&gt;Node23</title>
<path fill="none" stroke="#191970" d="M438.0795,-22.5675C446.6705,-21.0969 455.9033,-19.5166 464.8239,-17.9896"/>
<polygon fill="#191970" stroke="#191970" points="465.4459,-21.4341 474.712,-16.297 464.2649,-14.5345 465.4459,-21.4341"/>
</g>
<!-- Node24 -->
<g id="node12" class="node">
<title>Node24</title>
<g id="a_node12"><a xlink:href="utils_8c.html#a101d27cdda714b7f17a06224c65cac56" target="_top" xlink:title="Returns a uniform random float [0,1]. ">
<polygon fill="none" stroke="#000000" points="584,-.5 584,-19.5 625,-19.5 625,-.5 584,-.5"/>
<text text-anchor="middle" x="604.5" y="-7.5" font-family="Helvetica,sans-Serif" font-size="10.00" fill="#000000">drand</text>
</a>
</g>
</g>
<!-- Node23&#45;&gt;Node24 -->
<g id="edge11" class="edge">
<title>Node23&#45;&gt;Node24</title>
<path fill="none" stroke="#191970" d="M548.2561,-10C556.658,-10 565.5043,-10 573.63,-10"/>
<polygon fill="#191970" stroke="#191970" points="573.799,-13.5001 583.7989,-10 573.7989,-6.5001 573.799,-13.5001"/>
</g>
<!-- Node25 -->
<g id="node13" class="node">
<title>Node25</title>
<g id="a_node13"><a xlink:href="mt19937-64_8c.html#aa0b74daf51eca91df224d00f1730084a" target="_top" xlink:title="genrand64_real1">
<polygon fill="none" stroke="#000000" points="661,-.5 661,-19.5 749,-19.5 749,-.5 661,-.5"/>
<text text-anchor="middle" x="705" y="-7.5" font-family="Helvetica,sans-Serif" font-size="10.00" fill="#000000">genrand64_real1</text>
</a>
</g>
</g>
<!-- Node24&#45;&gt;Node25 -->
<g id="edge12" class="edge">
<title>Node24&#45;&gt;Node25</title>
<path fill="none" stroke="#191970" d="M625.3237,-10C632.8428,-10 641.7193,-10 650.769,-10"/>
<polygon fill="#191970" stroke="#191970" points="650.9969,-13.5001 660.9969,-10 650.9969,-6.5001 650.9969,-13.5001"/>
</g>
<!-- Node26 -->
<g id="node14" class="node">
<title>Node26</title>
<g id="a_node14"><a xlink:href="mt19937-64_8c.html#a265bf48d20d6e0347371fcf4fe340e6d" target="_top" xlink:title="genrand64_int64">
<polygon fill="none" stroke="#000000" points="785,-.5 785,-19.5 873,-19.5 873,-.5 785,-.5"/>
<text text-anchor="middle" x="829" y="-7.5" font-family="Helvetica,sans-Serif" font-size="10.00" fill="#000000">genrand64_int64</text>
</a>
</g>
</g>
<!-- Node25&#45;&gt;Node26 -->
<g id="edge13" class="edge">
<title>Node25&#45;&gt;Node26</title>
<path fill="none" stroke="#191970" d="M749.0669,-10C757.2822,-10 765.957,-10 774.4432,-10"/>
<polygon fill="#191970" stroke="#191970" points="774.6572,-13.5001 784.6572,-10 774.6572,-6.5001 774.6572,-13.5001"/>
</g>
<!-- Node27 -->
<g id="node15" class="node">
<title>Node27</title>
<g id="a_node15"><a xlink:href="mt19937-64_8c.html#adf4127d44c2dc34fcb318d406131ef7c" target="_top" xlink:title="init_genrand64">
<polygon fill="none" stroke="#000000" points="909,-.5 909,-19.5 989,-19.5 989,-.5 909,-.5"/>
<text text-anchor="middle" x="949" y="-7.5" font-family="Helvetica,sans-Serif" font-size="10.00" fill="#000000">init_genrand64</text>
</a>
</g>
</g>
<!-- Node26&#45;&gt;Node27 -->
<g id="edge14" class="edge">
<title>Node26&#45;&gt;Node27</title>
<path fill="none" stroke="#191970" d="M873.0022,-10C881.3719,-10 890.1896,-10 898.7365,-10"/>
<polygon fill="#191970" stroke="#191970" points="898.9792,-13.5001 908.9792,-10 898.9792,-6.5001 898.9792,-13.5001"/>
</g>
</g>
</svg>
