<?xml version="1.0" encoding="UTF-8" standalone="no"?>
<!DOCTYPE svg PUBLIC "-//W3C//DTD SVG 1.1//EN"
 "http://www.w3.org/Graphics/SVG/1.1/DTD/svg11.dtd">
<!-- Generated by graphviz version 2.40.1 (20161225.0304)
 -->
<!-- Title: cond_match Pages: 1 -->
<svg width="1037pt" height="332pt"
 viewBox="0.00 0.00 1037.00 332.00" xmlns="http://www.w3.org/2000/svg" xmlns:xlink="http://www.w3.org/1999/xlink">
<g id="graph0" class="graph" transform="scale(1 1) rotate(0) translate(4 328)">
<title>cond_match</title>
<!-- Node147 -->
<g id="node1" class="node">
<title>Node147</title>
<polygon fill="#bfbfbf" stroke="#000000" points="0,-171.5 0,-190.5 70,-190.5 70,-171.5 0,-171.5"/>
<text text-anchor="middle" x="35" y="-178.5" font-family="Helvetica,sans-Serif" font-size="10.00" fill="#000000">cond_match</text>
</g>
<!-- Node148 -->
<g id="node2" class="node">
<title>Node148</title>
<g id="a_node2"><a xlink:href="cl_8h.html#af5a666538852ce0406d5d8ad933f92f7" target="_top" xlink:title="Calculates whether the classifier matches the input. ">
<polygon fill="none" stroke="#000000" points="106,-171.5 106,-190.5 162,-190.5 162,-171.5 106,-171.5"/>
<text text-anchor="middle" x="134" y="-178.5" font-family="Helvetica,sans-Serif" font-size="10.00" fill="#000000">cl_match</text>
</a>
</g>
</g>
<!-- Node147&#45;&gt;Node148 -->
<g id="edge1" class="edge">
<title>Node147&#45;&gt;Node148</title>
<path fill="none" stroke="#191970" d="M80.2408,-181C88.9334,-181 97.8025,-181 105.7651,-181"/>
<polygon fill="#191970" stroke="#191970" points="80.1825,-177.5001 70.1824,-181 80.1824,-184.5001 80.1825,-177.5001"/>
</g>
<!-- Node149 -->
<g id="node3" class="node">
<title>Node149</title>
<g id="a_node3"><a xlink:href="clset_8h.html#a460e3bd1d979c502e9e9d97d4253f97c" target="_top" xlink:title="Constructs the match set. ">
<polygon fill="none" stroke="#000000" points="198,-171.5 198,-190.5 268,-190.5 268,-171.5 198,-171.5"/>
<text text-anchor="middle" x="233" y="-178.5" font-family="Helvetica,sans-Serif" font-size="10.00" fill="#000000">clset_match</text>
</a>
</g>
</g>
<!-- Node148&#45;&gt;Node149 -->
<g id="edge2" class="edge">
<title>Node148&#45;&gt;Node149</title>
<path fill="none" stroke="#191970" d="M172.374,-181C180.7305,-181 189.533,-181 197.7609,-181"/>
<polygon fill="#191970" stroke="#191970" points="172.1046,-177.5001 162.1046,-181 172.1046,-184.5001 172.1046,-177.5001"/>
</g>
<!-- Node150 -->
<g id="node4" class="node">
<title>Node150</title>
<g id="a_node4"><a xlink:href="xcs__multi__step_8c.html#a1e1c2a3094be715b468dda79cd59ebf3" target="_top" xlink:title="Executes a multi&#45;step trial using a built&#45;in environment. ">
<polygon fill="none" stroke="#000000" points="316,-247.5 316,-266.5 396,-266.5 396,-247.5 316,-247.5"/>
<text text-anchor="middle" x="356" y="-254.5" font-family="Helvetica,sans-Serif" font-size="10.00" fill="#000000">xcs_multi_trial</text>
</a>
</g>
</g>
<!-- Node149&#45;&gt;Node150 -->
<g id="edge3" class="edge">
<title>Node149&#45;&gt;Node150</title>
<path fill="none" stroke="#191970" d="M257.3683,-196.0568C282.0997,-211.338 319.6358,-234.5311 340.5485,-247.4527"/>
<polygon fill="#191970" stroke="#191970" points="258.9249,-192.9044 248.578,-190.6255 255.2454,-198.8594 258.9249,-192.9044"/>
</g>
<!-- Node153 -->
<g id="node7" class="node">
<title>Node153</title>
<g id="a_node7"><a xlink:href="xcs__single__step_8h.html#ae25a81ce7f997ab7167ab23daec18183" target="_top" xlink:title="Constructs the match set and selects an action to perform. ">
<polygon fill="none" stroke="#000000" points="304,-190.5 304,-209.5 408,-209.5 408,-190.5 304,-190.5"/>
<text text-anchor="middle" x="356" y="-197.5" font-family="Helvetica,sans-Serif" font-size="10.00" fill="#000000">xcs_single_decision</text>
</a>
</g>
</g>
<!-- Node149&#45;&gt;Node153 -->
<g id="edge6" class="edge">
<title>Node149&#45;&gt;Node153</title>
<path fill="none" stroke="#191970" d="M278.1554,-187.9752C286.4915,-189.2629 295.2595,-190.6173 303.784,-191.9341"/>
<polygon fill="#191970" stroke="#191970" points="278.664,-184.5124 268.2469,-186.4446 277.5953,-191.4303 278.664,-184.5124"/>
</g>
<!-- Node158 -->
<g id="node12" class="node">
<title>Node158</title>
<g id="a_node12"><a xlink:href="xcsf_8c.html#a2a65c7cb7cfe8e680b609ce8c4e36d56" target="_top" xlink:title="Executes a single XCSF learning trial. ">
<polygon fill="none" stroke="#000000" points="314.5,-152.5 314.5,-171.5 397.5,-171.5 397.5,-152.5 314.5,-152.5"/>
<text text-anchor="middle" x="356" y="-159.5" font-family="Helvetica,sans-Serif" font-size="10.00" fill="#000000">xcsf_learn_trial</text>
</a>
</g>
</g>
<!-- Node149&#45;&gt;Node158 -->
<g id="edge12" class="edge">
<title>Node149&#45;&gt;Node158</title>
<path fill="none" stroke="#191970" d="M278.3069,-174.0014C290.0573,-172.1863 302.6569,-170.24 314.217,-168.4543"/>
<polygon fill="#191970" stroke="#191970" points="277.5953,-170.5697 268.2469,-175.5554 278.664,-177.4876 277.5953,-170.5697"/>
</g>
<!-- Node163 -->
<g id="node17" class="node">
<title>Node163</title>
<g id="a_node17"><a xlink:href="xcsf_8h.html#a90b938e4ae2ef92284e8eabfcf4b7b7b" target="_top" xlink:title="Calculates the XCSF predictions for the provided input. ">
<polygon fill="none" stroke="#000000" points="464,-304.5 464,-323.5 534,-323.5 534,-304.5 464,-304.5"/>
<text text-anchor="middle" x="499" y="-311.5" font-family="Helvetica,sans-Serif" font-size="10.00" fill="#000000">xcsf_predict</text>
</a>
</g>
</g>
<!-- Node149&#45;&gt;Node163 -->
<g id="edge19" class="edge">
<title>Node149&#45;&gt;Node163</title>
<path fill="none" stroke="#191970" d="M241.6244,-199.67C252.7817,-221.6134 274.3619,-257.3887 304,-276 353.364,-306.9983 422.5343,-313.6298 463.8473,-314.557"/>
<polygon fill="#191970" stroke="#191970" points="244.7669,-198.1289 237.24,-190.6726 238.4743,-201.1953 244.7669,-198.1289"/>
</g>
<!-- Node165 -->
<g id="node19" class="node">
<title>Node165</title>
<g id="a_node19"><a xlink:href="xcsf_8h.html#aeb5e08c233a6b01b6a6d1560ef0927fc" target="_top" xlink:title="Prints the XCSF match set for the supplied input. ">
<polygon fill="none" stroke="#000000" points="444,-9.5 444,-28.5 554,-28.5 554,-9.5 444,-9.5"/>
<text text-anchor="middle" x="499" y="-16.5" font-family="Helvetica,sans-Serif" font-size="10.00" fill="#000000">xcsf_print_match_set</text>
</a>
</g>
</g>
<!-- Node149&#45;&gt;Node165 -->
<g id="edge22" class="edge">
<title>Node149&#45;&gt;Node165</title>
<path fill="none" stroke="#191970" d="M246.2869,-163.0359C259.4348,-146.2578 280.8939,-121.4045 304,-105 356.194,-67.9441 426.8972,-41.6971 467.2573,-28.5727"/>
<polygon fill="#191970" stroke="#191970" points="243.1701,-161.3504 239.8799,-171.4214 248.7323,-165.6003 243.1701,-161.3504"/>
</g>
<!-- Node167 -->
<g id="node21" class="node">
<title>Node167</title>
<g id="a_node21"><a xlink:href="xcsf_8c.html#a3089cd4a65514a0a3030e5cb6e11ff7e" target="_top" xlink:title="Executes a single XCSF testing trial. ">
<polygon fill="none" stroke="#000000" points="317,-114.5 317,-133.5 395,-133.5 395,-114.5 317,-114.5"/>
<text text-anchor="middle" x="356" y="-121.5" font-family="Helvetica,sans-Serif" font-size="10.00" fill="#000000">xcsf_test_trial</text>
</a>
</g>
</g>
<!-- Node149&#45;&gt;Node167 -->
<g id="edge25" class="edge">
<title>Node149&#45;&gt;Node167</title>
<path fill="none" stroke="#191970" d="M258.36,-166.3024C271.7131,-158.8532 288.4946,-149.9404 304,-143 311.5446,-139.6229 319.8886,-136.3706 327.6434,-133.5403"/>
<polygon fill="#191970" stroke="#191970" points="256.2926,-163.4505 249.31,-171.4188 259.7376,-169.5441 256.2926,-163.4505"/>
</g>
<!-- Node151 -->
<g id="node5" class="node">
<title>Node151</title>
<g id="a_node5"><a xlink:href="xcs__multi__step_8h.html#acc29d4a55dbd56c16ea5f19f15a7c677" target="_top" xlink:title="Executes a multi&#45;step reinforcement learning experiment. ">
<polygon fill="none" stroke="#000000" points="592,-266.5 592,-285.5 696,-285.5 696,-266.5 592,-266.5"/>
<text text-anchor="middle" x="644" y="-273.5" font-family="Helvetica,sans-Serif" font-size="10.00" fill="#000000">xcs_multi_step_exp</text>
</a>
</g>
</g>
<!-- Node150&#45;&gt;Node151 -->
<g id="edge4" class="edge">
<title>Node150&#45;&gt;Node151</title>
<path fill="none" stroke="#191970" d="M406.044,-260.3015C458.058,-263.733 539.0976,-269.0794 591.8714,-272.561"/>
<polygon fill="#191970" stroke="#191970" points="406.2539,-256.8078 396.0452,-259.6419 405.793,-263.7927 406.2539,-256.8078"/>
</g>
<!-- Node152 -->
<g id="node6" class="node">
<title>Node152</title>
<g id="a_node6"><a xlink:href="main_8c.html#a3c04138a5bfe5d72780bb7e82a18e627" target="_top" xlink:title="main">
<polygon fill="none" stroke="#000000" points="771.5,-228.5 771.5,-247.5 809.5,-247.5 809.5,-228.5 771.5,-228.5"/>
<text text-anchor="middle" x="790.5" y="-235.5" font-family="Helvetica,sans-Serif" font-size="10.00" fill="#000000">main</text>
</a>
</g>
</g>
<!-- Node151&#45;&gt;Node152 -->
<g id="edge5" class="edge">
<title>Node151&#45;&gt;Node152</title>
<path fill="none" stroke="#191970" d="M690.7504,-263.8736C718.094,-256.7811 751.1316,-248.2116 771.4791,-242.9337"/>
<polygon fill="#191970" stroke="#191970" points="689.769,-260.5123 680.9681,-266.411 691.5266,-267.288 689.769,-260.5123"/>
</g>
<!-- Node154 -->
<g id="node8" class="node">
<title>Node154</title>
<g id="a_node8"><a xlink:href="structXCS.html#a94d556a5e545ec415d7165d5e91b21d4" target="_top" xlink:title="XCS::single_decision">
<polygon fill="none" stroke="#000000" points="735.5,-152.5 735.5,-171.5 845.5,-171.5 845.5,-152.5 735.5,-152.5"/>
<text text-anchor="middle" x="790.5" y="-159.5" font-family="Helvetica,sans-Serif" font-size="10.00" fill="#000000">XCS::single_decision</text>
</a>
</g>
</g>
<!-- Node153&#45;&gt;Node154 -->
<g id="edge7" class="edge">
<title>Node153&#45;&gt;Node154</title>
<path fill="none" stroke="#191970" d="M418.4358,-194.5396C503.3865,-187.11 654.0691,-173.9318 735.1636,-166.8396"/>
<polygon fill="#191970" stroke="#191970" points="418.0679,-191.0583 408.4109,-195.4163 418.6778,-198.0317 418.0679,-191.0583"/>
</g>
<!-- Node156 -->
<g id="node10" class="node">
<title>Node156</title>
<g id="a_node10"><a xlink:href="xcs__single__step_8c.html#a3d1fd2472d35310800aed897219a65af" target="_top" xlink:title="Executes a single&#45;step trial using a built&#45;in environment. ">
<polygon fill="none" stroke="#000000" points="457,-228.5 457,-247.5 541,-247.5 541,-228.5 457,-228.5"/>
<text text-anchor="middle" x="499" y="-235.5" font-family="Helvetica,sans-Serif" font-size="10.00" fill="#000000">xcs_single_trial</text>
</a>
</g>
</g>
<!-- Node153&#45;&gt;Node156 -->
<g id="edge9" class="edge">
<title>Node153&#45;&gt;Node156</title>
<path fill="none" stroke="#191970" d="M401.8133,-212.1742C421.5871,-217.4287 444.3838,-223.4866 462.9266,-228.4141"/>
<polygon fill="#191970" stroke="#191970" points="402.6484,-208.7747 392.0849,-209.589 400.8506,-215.5399 402.6484,-208.7747"/>
</g>
<!-- Node155 -->
<g id="node9" class="node">
<title>Node155</title>
<g id="a_node9"><a xlink:href="python__wrapper_8cpp.html#afbdcc1358036a0b83a6b239da2b098a2" target="_top" xlink:title="BOOST_PYTHON_MODULE">
<polygon fill="none" stroke="#000000" points="883,-76.5 883,-95.5 1029,-95.5 1029,-76.5 883,-76.5"/>
<text text-anchor="middle" x="956" y="-83.5" font-family="Helvetica,sans-Serif" font-size="10.00" fill="#000000">BOOST_PYTHON_MODULE</text>
</a>
</g>
</g>
<!-- Node154&#45;&gt;Node155 -->
<g id="edge8" class="edge">
<title>Node154&#45;&gt;Node155</title>
<path fill="none" stroke="#191970" d="M820.6864,-148.138C853.8795,-132.8952 906.3272,-108.8104 935.2095,-95.5473"/>
<polygon fill="#191970" stroke="#191970" points="819.0877,-145.0207 811.4607,-152.3745 822.0089,-151.382 819.0877,-145.0207"/>
</g>
<!-- Node157 -->
<g id="node11" class="node">
<title>Node157</title>
<g id="a_node11"><a xlink:href="xcs__single__step_8h.html#a39a031bf59eaa9b33e30e614610dcda8" target="_top" xlink:title="Executes a single&#45;step experiment. ">
<polygon fill="none" stroke="#000000" points="590,-228.5 590,-247.5 698,-247.5 698,-228.5 590,-228.5"/>
<text text-anchor="middle" x="644" y="-235.5" font-family="Helvetica,sans-Serif" font-size="10.00" fill="#000000">xcs_single_step_exp</text>
</a>
</g>
</g>
<!-- Node156&#45;&gt;Node157 -->
<g id="edge10" class="edge">
<title>Node156&#45;&gt;Node157</title>
<path fill="none" stroke="#191970" d="M551.5872,-238C564.081,-238 577.4301,-238 589.9864,-238"/>
<polygon fill="#191970" stroke="#191970" points="551.3298,-234.5001 541.3298,-238 551.3298,-241.5001 551.3298,-234.5001"/>
</g>
<!-- Node157&#45;&gt;Node152 -->
<g id="edge11" class="edge">
<title>Node157&#45;&gt;Node152</title>
<path fill="none" stroke="#191970" d="M708.17,-238C731.0175,-238 755.0619,-238 771.2265,-238"/>
<polygon fill="#191970" stroke="#191970" points="708.135,-234.5001 698.135,-238 708.1349,-241.5001 708.135,-234.5001"/>
</g>
<!-- Node159 -->
<g id="node13" class="node">
<title>Node159</title>
<g id="a_node13"><a xlink:href="xcsf_8h.html#a0b4de57cb9dadc9deca7901aa36e5025" target="_top" xlink:title="Executes MAX_TRIALS number of XCSF learning iterations using the training. data and test iterations u...">
<polygon fill="none" stroke="#000000" points="472,-114.5 472,-133.5 526,-133.5 526,-114.5 472,-114.5"/>
<text text-anchor="middle" x="499" y="-121.5" font-family="Helvetica,sans-Serif" font-size="10.00" fill="#000000">xcsf_fit2</text>
</a>
</g>
</g>
<!-- Node158&#45;&gt;Node159 -->
<g id="edge13" class="edge">
<title>Node158&#45;&gt;Node159</title>
<path fill="none" stroke="#191970" d="M402.0264,-149.7692C425.1069,-143.6359 452.2613,-136.4201 471.9557,-131.1866"/>
<polygon fill="#191970" stroke="#191970" points="400.8506,-146.4601 392.0849,-152.411 402.6484,-153.2253 400.8506,-146.4601"/>
</g>
<!-- Node159&#45;&gt;Node152 -->
<g id="edge14" class="edge">
<title>Node159&#45;&gt;Node152</title>
<path fill="none" stroke="#191970" d="M533.0064,-137.2993C594.6813,-161.4191 723.0759,-211.6317 771.4819,-230.5624"/>
<polygon fill="#191970" stroke="#191970" points="533.9397,-133.9061 523.3517,-133.5235 531.3901,-140.4253 533.9397,-133.9061"/>
</g>
<!-- Node160 -->
<g id="node14" class="node">
<title>Node160</title>
<g id="a_node14"><a xlink:href="structXCS.html#a7d53320740db8e846251bacd0238a9fb" target="_top" xlink:title="XCS::fit">
<polygon fill="none" stroke="#000000" points="618,-114.5 618,-133.5 670,-133.5 670,-114.5 618,-114.5"/>
<text text-anchor="middle" x="644" y="-121.5" font-family="Helvetica,sans-Serif" font-size="10.00" fill="#000000">XCS::fit</text>
</a>
</g>
</g>
<!-- Node159&#45;&gt;Node160 -->
<g id="edge15" class="edge">
<title>Node159&#45;&gt;Node160</title>
<path fill="none" stroke="#191970" d="M536.3422,-124C561.8746,-124 595.0827,-124 617.8256,-124"/>
<polygon fill="#191970" stroke="#191970" points="536.2734,-120.5001 526.2734,-124 536.2734,-127.5001 536.2734,-120.5001"/>
</g>
<!-- Node161 -->
<g id="node15" class="node">
<title>Node161</title>
<g id="a_node15"><a xlink:href="xcsf_8h.html#a874829f28fee20f9ad15b540f4b4d6ff" target="_top" xlink:title="Executes MAX_TRIALS number of XCSF learning iterations using the training data. ">
<polygon fill="none" stroke="#000000" points="617,-76.5 617,-95.5 671,-95.5 671,-76.5 617,-76.5"/>
<text text-anchor="middle" x="644" y="-83.5" font-family="Helvetica,sans-Serif" font-size="10.00" fill="#000000">xcsf_fit1</text>
</a>
</g>
</g>
<!-- Node159&#45;&gt;Node161 -->
<g id="edge16" class="edge">
<title>Node159&#45;&gt;Node161</title>
<path fill="none" stroke="#191970" d="M536.2104,-114.2483C561.3974,-107.6476 594.1,-99.0772 616.8489,-93.1155"/>
<polygon fill="#191970" stroke="#191970" points="535.0594,-110.9317 526.2734,-116.8525 536.834,-117.703 535.0594,-110.9317"/>
</g>
<!-- Node162 -->
<g id="node16" class="node">
<title>Node162</title>
<g id="a_node16"><a xlink:href="structXCS.html#ad2ccafe59d2b4ae6d0e1cbc15edee53c" target="_top" xlink:title="XCS::fit">
<polygon fill="none" stroke="#000000" points="764.5,-76.5 764.5,-95.5 816.5,-95.5 816.5,-76.5 764.5,-76.5"/>
<text text-anchor="middle" x="790.5" y="-83.5" font-family="Helvetica,sans-Serif" font-size="10.00" fill="#000000">XCS::fit</text>
</a>
</g>
</g>
<!-- Node161&#45;&gt;Node162 -->
<g id="edge17" class="edge">
<title>Node161&#45;&gt;Node162</title>
<path fill="none" stroke="#191970" d="M681.4437,-86C707.4137,-86 741.3473,-86 764.4182,-86"/>
<polygon fill="#191970" stroke="#191970" points="681.2122,-82.5001 671.2122,-86 681.2122,-89.5001 681.2122,-82.5001"/>
</g>
<!-- Node162&#45;&gt;Node155 -->
<g id="edge18" class="edge">
<title>Node162&#45;&gt;Node155</title>
<path fill="none" stroke="#191970" d="M826.9611,-86C843.3946,-86 863.4187,-86 882.743,-86"/>
<polygon fill="#191970" stroke="#191970" points="826.724,-82.5001 816.724,-86 826.7239,-89.5001 826.724,-82.5001"/>
</g>
<!-- Node164 -->
<g id="node18" class="node">
<title>Node164</title>
<g id="a_node18"><a xlink:href="structXCS.html#a911ed75c86abed7807d33eb1385240ed" target="_top" xlink:title="XCS::predict">
<polygon fill="none" stroke="#000000" points="607.5,-304.5 607.5,-323.5 680.5,-323.5 680.5,-304.5 607.5,-304.5"/>
<text text-anchor="middle" x="644" y="-311.5" font-family="Helvetica,sans-Serif" font-size="10.00" fill="#000000">XCS::predict</text>
</a>
</g>
</g>
<!-- Node163&#45;&gt;Node164 -->
<g id="edge20" class="edge">
<title>Node163&#45;&gt;Node164</title>
<path fill="none" stroke="#191970" d="M544.3762,-314C564.6837,-314 588.3085,-314 607.4543,-314"/>
<polygon fill="#191970" stroke="#191970" points="544.1005,-310.5001 534.1005,-314 544.1004,-317.5001 544.1005,-310.5001"/>
</g>
<!-- Node164&#45;&gt;Node155 -->
<g id="edge21" class="edge">
<title>Node164&#45;&gt;Node155</title>
<path fill="none" stroke="#191970" d="M690.9589,-310.3795C735.0234,-304.9176 800.8754,-291.2362 847,-257 906.6485,-212.7257 942.0179,-125.2683 952.6093,-95.8895"/>
<polygon fill="#191970" stroke="#191970" points="690.3402,-306.9274 680.8026,-311.541 691.1356,-313.882 690.3402,-306.9274"/>
</g>
<!-- Node166 -->
<g id="node20" class="node">
<title>Node166</title>
<g id="a_node20"><a xlink:href="structXCS.html#aa5608b379fae01b724267a99068d55bb" target="_top" xlink:title="XCS::print_match_set">
<polygon fill="none" stroke="#000000" points="734,-.5 734,-19.5 847,-19.5 847,-.5 734,-.5"/>
<text text-anchor="middle" x="790.5" y="-7.5" font-family="Helvetica,sans-Serif" font-size="10.00" fill="#000000">XCS::print_match_set</text>
</a>
</g>
</g>
<!-- Node165&#45;&gt;Node166 -->
<g id="edge23" class="edge">
<title>Node165&#45;&gt;Node166</title>
<path fill="none" stroke="#191970" d="M564.4105,-16.9805C615.3246,-15.4085 685.2616,-13.2492 733.814,-11.7502"/>
<polygon fill="#191970" stroke="#191970" points="564.0588,-13.4896 554.1716,-17.2966 564.2749,-20.4862 564.0588,-13.4896"/>
</g>
<!-- Node166&#45;&gt;Node155 -->
<g id="edge24" class="edge">
<title>Node166&#45;&gt;Node155</title>
<path fill="none" stroke="#191970" d="M831.3719,-22.8901C836.6783,-24.8124 842.0024,-26.8687 847,-29 880.9826,-43.4926 918.8138,-64.4283 939.7727,-76.4804"/>
<polygon fill="#191970" stroke="#191970" points="832.5087,-19.5799 821.9138,-19.5873 830.2009,-26.1885 832.5087,-19.5799"/>
</g>
<!-- Node167&#45;&gt;Node159 -->
<g id="edge26" class="edge">
<title>Node167&#45;&gt;Node159</title>
<path fill="none" stroke="#191970" d="M405.3639,-124C427.6032,-124 453.0123,-124 471.7451,-124"/>
<polygon fill="#191970" stroke="#191970" points="405.0754,-120.5001 395.0754,-124 405.0753,-127.5001 405.0754,-120.5001"/>
</g>
<!-- Node168 -->
<g id="node22" class="node">
<title>Node168</title>
<g id="a_node22"><a xlink:href="xcsf_8h.html#a2cf95733e5f97410d94211b72e835847" target="_top" xlink:title="Calculates the XCSF error for the input data. ">
<polygon fill="none" stroke="#000000" points="466.5,-66.5 466.5,-85.5 531.5,-85.5 531.5,-66.5 466.5,-66.5"/>
<text text-anchor="middle" x="499" y="-73.5" font-family="Helvetica,sans-Serif" font-size="10.00" fill="#000000">xcsf_score</text>
</a>
</g>
</g>
<!-- Node167&#45;&gt;Node168 -->
<g id="edge27" class="edge">
<title>Node167&#45;&gt;Node168</title>
<path fill="none" stroke="#191970" d="M394.102,-111.2105C418.0902,-103.1585 448.5473,-92.9352 470.4551,-85.5815"/>
<polygon fill="#191970" stroke="#191970" points="392.9609,-107.9016 384.5945,-114.4018 395.1885,-114.5377 392.9609,-107.9016"/>
</g>
<!-- Node169 -->
<g id="node23" class="node">
<title>Node169</title>
<g id="a_node23"><a xlink:href="structXCS.html#aa77bc77484d6d14bf512304a23cfec88" target="_top" xlink:title="XCS::score">
<polygon fill="none" stroke="#000000" points="756.5,-38.5 756.5,-57.5 824.5,-57.5 824.5,-38.5 756.5,-38.5"/>
<text text-anchor="middle" x="790.5" y="-45.5" font-family="Helvetica,sans-Serif" font-size="10.00" fill="#000000">XCS::score</text>
</a>
</g>
</g>
<!-- Node168&#45;&gt;Node169 -->
<g id="edge28" class="edge">
<title>Node168&#45;&gt;Node169</title>
<path fill="none" stroke="#191970" d="M541.9894,-71.7118C557.1595,-70.2082 574.3365,-68.5167 590,-67 648.4677,-61.3385 716.5447,-54.9251 756.4388,-51.1849"/>
<polygon fill="#191970" stroke="#191970" points="541.4563,-68.2474 531.851,-72.7182 542.1478,-75.2132 541.4563,-68.2474"/>
</g>
<!-- Node169&#45;&gt;Node155 -->
<g id="edge29" class="edge">
<title>Node169&#45;&gt;Node155</title>
<path fill="none" stroke="#191970" d="M834.653,-58.1378C859.4069,-63.8215 890.0992,-70.8687 914.4226,-76.4535"/>
<polygon fill="#191970" stroke="#191970" points="835.3214,-54.7003 824.7917,-55.8736 833.7548,-61.5228 835.3214,-54.7003"/>
</g>
</g>
</svg>
