<?xml version="1.0" encoding="UTF-8" standalone="no"?>
<!DOCTYPE svg PUBLIC "-//W3C//DTD SVG 1.1//EN"
 "http://www.w3.org/Graphics/SVG/1.1/DTD/svg11.dtd">
<!-- Generated by graphviz version 2.40.1 (20161225.0304)
 -->
<!-- Title: cond_crossover Pages: 1 -->
<svg width="987pt" height="199pt"
 viewBox="0.00 0.00 987.00 199.00" xmlns="http://www.w3.org/2000/svg" xmlns:xlink="http://www.w3.org/1999/xlink">
<g id="graph0" class="graph" transform="scale(1 1) rotate(0) translate(4 195)">
<title>cond_crossover</title>
<!-- Node43 -->
<g id="node1" class="node">
<title>Node43</title>
<polygon fill="#bfbfbf" stroke="#000000" points="0,-57.5 0,-76.5 86,-76.5 86,-57.5 0,-57.5"/>
<text text-anchor="middle" x="43" y="-64.5" font-family="Helvetica,sans-Serif" font-size="10.00" fill="#000000">cond_crossover</text>
</g>
<!-- Node44 -->
<g id="node2" class="node">
<title>Node44</title>
<g id="a_node2"><a xlink:href="$cl_8h.html#aef975f46b7a8a43ed1315df48ec6a02a" xlink:title="Performs classifier crossover. ">
<polygon fill="none" stroke="#000000" points="122,-57.5 122,-76.5 194,-76.5 194,-57.5 122,-57.5"/>
<text text-anchor="middle" x="158" y="-64.5" font-family="Helvetica,sans-Serif" font-size="10.00" fill="#000000">cl_crossover</text>
</a>
</g>
</g>
<!-- Node43&#45;&gt;Node44 -->
<g id="edge1" class="edge">
<title>Node43&#45;&gt;Node44</title>
<path fill="none" stroke="#191970" d="M96.1982,-67C104.8501,-67 113.6326,-67 121.7563,-67"/>
<polygon fill="#191970" stroke="#191970" points="96.149,-63.5001 86.1489,-67 96.1489,-70.5001 96.149,-63.5001"/>
</g>
<!-- Node45 -->
<g id="node3" class="node">
<title>Node45</title>
<g id="a_node3"><a xlink:href="$ea_8h.html#ae3824341a2f5482cb6ac70b3839ded51" xlink:title="Executes the evolutionary algorithm (EA). ">
<polygon fill="none" stroke="#000000" points="230,-57.5 230,-76.5 259,-76.5 259,-57.5 230,-57.5"/>
<text text-anchor="middle" x="244.5" y="-64.5" font-family="Helvetica,sans-Serif" font-size="10.00" fill="#000000">ea</text>
</a>
</g>
</g>
<!-- Node44&#45;&gt;Node45 -->
<g id="edge2" class="edge">
<title>Node44&#45;&gt;Node45</title>
<path fill="none" stroke="#191970" d="M204.308,-67C213.6467,-67 222.7942,-67 229.9975,-67"/>
<polygon fill="#191970" stroke="#191970" points="204.1826,-63.5001 194.1826,-67 204.1826,-70.5001 204.1826,-63.5001"/>
</g>
<!-- Node46 -->
<g id="node4" class="node">
<title>Node46</title>
<g id="a_node4"><a xlink:href="$xcs__multi__step_8c.html#a1e1c2a3094be715b468dda79cd59ebf3" xlink:title="Executes a multi&#45;step trial using a built&#45;in environment. ">
<polygon fill="none" stroke="#000000" points="304,-57.5 304,-76.5 384,-76.5 384,-57.5 304,-57.5"/>
<text text-anchor="middle" x="344" y="-64.5" font-family="Helvetica,sans-Serif" font-size="10.00" fill="#000000">xcs_multi_trial</text>
</a>
</g>
</g>
<!-- Node45&#45;&gt;Node46 -->
<g id="edge3" class="edge">
<title>Node45&#45;&gt;Node46</title>
<path fill="none" stroke="#191970" d="M269.2467,-67C279.7074,-67 292.1611,-67 303.8746,-67"/>
<polygon fill="#191970" stroke="#191970" points="269.1816,-63.5001 259.1816,-67 269.1815,-70.5001 269.1816,-63.5001"/>
</g>
<!-- Node49 -->
<g id="node7" class="node">
<title>Node49</title>
<g id="a_node7"><a xlink:href="$xcs__single__step_8h.html#aff4aec035e4573993a7906569f2028f5" xlink:title="Creates the action set, updates the classifiers and runs the EA. ">
<polygon fill="none" stroke="#000000" points="295,-19.5 295,-38.5 393,-38.5 393,-19.5 295,-19.5"/>
<text text-anchor="middle" x="344" y="-26.5" font-family="Helvetica,sans-Serif" font-size="10.00" fill="#000000">xcs_single_update</text>
</a>
</g>
</g>
<!-- Node45&#45;&gt;Node49 -->
<g id="edge6" class="edge">
<title>Node45&#45;&gt;Node49</title>
<path fill="none" stroke="#191970" d="M268.8929,-57.6841C284.0608,-51.8914 303.5207,-44.4594 318.8317,-38.612"/>
<polygon fill="#191970" stroke="#191970" points="267.2747,-54.5555 259.1816,-61.393 269.7722,-61.0948 267.2747,-54.5555"/>
</g>
<!-- Node54 -->
<g id="node12" class="node">
<title>Node54</title>
<g id="a_node12"><a xlink:href="$xcsf_8c.html#a474f4e13cfc5f00958c689cd8c81135a" xlink:title="Executes a single XCSF learning trial. ">
<polygon fill="none" stroke="#000000" points="302.5,-114.5 302.5,-133.5 385.5,-133.5 385.5,-114.5 302.5,-114.5"/>
<text text-anchor="middle" x="344" y="-121.5" font-family="Helvetica,sans-Serif" font-size="10.00" fill="#000000">xcsf_learn_trial</text>
</a>
</g>
</g>
<!-- Node45&#45;&gt;Node54 -->
<g id="edge12" class="edge">
<title>Node45&#45;&gt;Node54</title>
<path fill="none" stroke="#191970" d="M268.0287,-80.4787C286.2445,-90.9139 311.0271,-105.111 327.2618,-114.4113"/>
<polygon fill="#191970" stroke="#191970" points="269.5984,-77.3444 259.1816,-75.4105 266.1189,-83.4183 269.5984,-77.3444"/>
</g>
<!-- Node47 -->
<g id="node5" class="node">
<title>Node47</title>
<g id="a_node5"><a xlink:href="$xcs__multi__step_8h.html#acc29d4a55dbd56c16ea5f19f15a7c677" xlink:title="Executes a multi&#45;step reinforcement learning experiment. ">
<polygon fill="none" stroke="#000000" points="551,-57.5 551,-76.5 655,-76.5 655,-57.5 551,-57.5"/>
<text text-anchor="middle" x="603" y="-64.5" font-family="Helvetica,sans-Serif" font-size="10.00" fill="#000000">xcs_multi_step_exp</text>
</a>
</g>
</g>
<!-- Node46&#45;&gt;Node47 -->
<g id="edge4" class="edge">
<title>Node46&#45;&gt;Node47</title>
<path fill="none" stroke="#191970" d="M394.3033,-67C439.2998,-67 505.0047,-67 550.6234,-67"/>
<polygon fill="#191970" stroke="#191970" points="394.1846,-63.5001 384.1846,-67 394.1845,-70.5001 394.1846,-63.5001"/>
</g>
<!-- Node48 -->
<g id="node6" class="node">
<title>Node48</title>
<g id="a_node6"><a xlink:href="$main_8c.html#a3c04138a5bfe5d72780bb7e82a18e627" xlink:title="main">
<polygon fill="none" stroke="#000000" points="726,-57.5 726,-76.5 764,-76.5 764,-57.5 726,-57.5"/>
<text text-anchor="middle" x="745" y="-64.5" font-family="Helvetica,sans-Serif" font-size="10.00" fill="#000000">main</text>
</a>
</g>
</g>
<!-- Node47&#45;&gt;Node48 -->
<g id="edge5" class="edge">
<title>Node47&#45;&gt;Node48</title>
<path fill="none" stroke="#191970" d="M665.3496,-67C687.2345,-67 710.2324,-67 725.8585,-67"/>
<polygon fill="#191970" stroke="#191970" points="665.0693,-63.5001 655.0692,-67 665.0692,-70.5001 665.0693,-63.5001"/>
</g>
<!-- Node50 -->
<g id="node8" class="node">
<title>Node50</title>
<g id="a_node8"><a xlink:href="$structXCS.html#aedc01ad6f00a54b260a7605929a1d4c9" xlink:title="XCS::single_update">
<polygon fill="none" stroke="#000000" points="693,-.5 693,-19.5 797,-19.5 797,-.5 693,-.5"/>
<text text-anchor="middle" x="745" y="-7.5" font-family="Helvetica,sans-Serif" font-size="10.00" fill="#000000">XCS::single_update</text>
</a>
</g>
</g>
<!-- Node49&#45;&gt;Node50 -->
<g id="edge7" class="edge">
<title>Node49&#45;&gt;Node50</title>
<path fill="none" stroke="#191970" d="M388.5202,-17.1157C401.4758,-14.1847 415.7174,-11.4664 429,-10 521.428,.2043 629.992,-3.1041 692.805,-6.5049"/>
<polygon fill="#191970" stroke="#191970" points="387.3777,-13.7891 378.4487,-19.4921 388.9852,-20.602 387.3777,-13.7891"/>
</g>
<!-- Node52 -->
<g id="node10" class="node">
<title>Node52</title>
<g id="a_node10"><a xlink:href="$xcs__single__step_8c.html#a3d1fd2472d35310800aed897219a65af" xlink:title="Executes a single&#45;step trial using a built&#45;in environment. ">
<polygon fill="none" stroke="#000000" points="429,-19.5 429,-38.5 513,-38.5 513,-19.5 429,-19.5"/>
<text text-anchor="middle" x="471" y="-26.5" font-family="Helvetica,sans-Serif" font-size="10.00" fill="#000000">xcs_single_trial</text>
</a>
</g>
</g>
<!-- Node49&#45;&gt;Node52 -->
<g id="edge9" class="edge">
<title>Node49&#45;&gt;Node52</title>
<path fill="none" stroke="#191970" d="M403.1216,-29C411.732,-29 420.4503,-29 428.6391,-29"/>
<polygon fill="#191970" stroke="#191970" points="403.1016,-25.5001 393.1015,-29 403.1015,-32.5001 403.1016,-25.5001"/>
</g>
<!-- Node51 -->
<g id="node9" class="node">
<title>Node51</title>
<g id="a_node9"><a xlink:href="$python__wrapper_8cpp.html#afbdcc1358036a0b83a6b239da2b098a2" xlink:title="BOOST_PYTHON_MODULE">
<polygon fill="none" stroke="#000000" points="833,-38.5 833,-57.5 979,-57.5 979,-38.5 833,-38.5"/>
<text text-anchor="middle" x="906" y="-45.5" font-family="Helvetica,sans-Serif" font-size="10.00" fill="#000000">BOOST_PYTHON_MODULE</text>
</a>
</g>
</g>
<!-- Node50&#45;&gt;Node51 -->
<g id="edge8" class="edge">
<title>Node50&#45;&gt;Node51</title>
<path fill="none" stroke="#191970" d="M795.4018,-21.8961C818.032,-27.2374 844.3695,-33.4537 865.665,-38.4799"/>
<polygon fill="#191970" stroke="#191970" points="796.1637,-18.4798 785.6271,-19.589 794.5557,-25.2926 796.1637,-18.4798"/>
</g>
<!-- Node53 -->
<g id="node11" class="node">
<title>Node53</title>
<g id="a_node11"><a xlink:href="$xcs__single__step_8h.html#a39a031bf59eaa9b33e30e614610dcda8" xlink:title="Executes a single&#45;step experiment. ">
<polygon fill="none" stroke="#000000" points="549,-19.5 549,-38.5 657,-38.5 657,-19.5 549,-19.5"/>
<text text-anchor="middle" x="603" y="-26.5" font-family="Helvetica,sans-Serif" font-size="10.00" fill="#000000">xcs_single_step_exp</text>
</a>
</g>
</g>
<!-- Node52&#45;&gt;Node53 -->
<g id="edge10" class="edge">
<title>Node52&#45;&gt;Node53</title>
<path fill="none" stroke="#191970" d="M523.1756,-29C531.5711,-29 540.2792,-29 548.7227,-29"/>
<polygon fill="#191970" stroke="#191970" points="523.1286,-25.5001 513.1285,-29 523.1285,-32.5001 523.1286,-25.5001"/>
</g>
<!-- Node53&#45;&gt;Node48 -->
<g id="edge11" class="edge">
<title>Node53&#45;&gt;Node48</title>
<path fill="none" stroke="#191970" d="M648.5443,-41.1879C674.6525,-48.1746 706.0537,-56.5778 725.7754,-61.8554"/>
<polygon fill="#191970" stroke="#191970" points="649.3975,-37.7931 638.8326,-38.589 647.5879,-44.5552 649.3975,-37.7931"/>
</g>
<!-- Node55 -->
<g id="node13" class="node">
<title>Node55</title>
<g id="a_node13"><a xlink:href="$xcsf_8h.html#a0b4de57cb9dadc9deca7901aa36e5025" xlink:title="Executes MAX_TRIALS number of XCSF learning iterations using the training. data and test iterations u...">
<polygon fill="none" stroke="#000000" points="444,-123.5 444,-142.5 498,-142.5 498,-123.5 444,-123.5"/>
<text text-anchor="middle" x="471" y="-130.5" font-family="Helvetica,sans-Serif" font-size="10.00" fill="#000000">xcsf_fit2</text>
</a>
</g>
</g>
<!-- Node54&#45;&gt;Node55 -->
<g id="edge13" class="edge">
<title>Node54&#45;&gt;Node55</title>
<path fill="none" stroke="#191970" d="M395.6576,-127.6608C412.131,-128.8282 429.7068,-130.0737 443.7358,-131.0679"/>
<polygon fill="#191970" stroke="#191970" points="395.807,-124.1627 385.5845,-126.9469 395.3121,-131.1452 395.807,-124.1627"/>
</g>
<!-- Node55&#45;&gt;Node48 -->
<g id="edge14" class="edge">
<title>Node55&#45;&gt;Node48</title>
<path fill="none" stroke="#191970" d="M508.4528,-136.7996C546.7558,-139.4028 607.494,-139.9435 657,-124 688.0141,-114.0119 718.6807,-90.1238 734.3228,-76.6573"/>
<polygon fill="#191970" stroke="#191970" points="508.5097,-133.2939 498.2723,-136.0227 507.977,-140.2736 508.5097,-133.2939"/>
</g>
<!-- Node56 -->
<g id="node14" class="node">
<title>Node56</title>
<g id="a_node14"><a xlink:href="$structXCS.html#a7d53320740db8e846251bacd0238a9fb" xlink:title="XCS::fit">
<polygon fill="none" stroke="#000000" points="577,-95.5 577,-114.5 629,-114.5 629,-95.5 577,-95.5"/>
<text text-anchor="middle" x="603" y="-102.5" font-family="Helvetica,sans-Serif" font-size="10.00" fill="#000000">XCS::fit</text>
</a>
</g>
</g>
<!-- Node55&#45;&gt;Node56 -->
<g id="edge15" class="edge">
<title>Node55&#45;&gt;Node56</title>
<path fill="none" stroke="#191970" d="M508.0015,-125.1512C529.9406,-120.4974 557.2158,-114.7118 576.905,-110.5353"/>
<polygon fill="#191970" stroke="#191970" points="507.0867,-121.7673 498.0307,-127.2662 508.5393,-128.6149 507.0867,-121.7673"/>
</g>
<!-- Node57 -->
<g id="node15" class="node">
<title>Node57</title>
<g id="a_node15"><a xlink:href="$xcsf_8h.html#a874829f28fee20f9ad15b540f4b4d6ff" xlink:title="Executes MAX_TRIALS number of XCSF learning iterations using the training data. ">
<polygon fill="none" stroke="#000000" points="576,-171.5 576,-190.5 630,-190.5 630,-171.5 576,-171.5"/>
<text text-anchor="middle" x="603" y="-178.5" font-family="Helvetica,sans-Serif" font-size="10.00" fill="#000000">xcsf_fit1</text>
</a>
</g>
</g>
<!-- Node55&#45;&gt;Node57 -->
<g id="edge16" class="edge">
<title>Node55&#45;&gt;Node57</title>
<path fill="none" stroke="#191970" d="M507.0599,-146.1127C529.0624,-154.1136 556.6979,-164.1629 576.6508,-171.4185"/>
<polygon fill="#191970" stroke="#191970" points="507.989,-142.7264 497.3949,-142.5982 505.5967,-149.3049 507.989,-142.7264"/>
</g>
<!-- Node58 -->
<g id="node16" class="node">
<title>Node58</title>
<g id="a_node16"><a xlink:href="$structXCS.html#ad2ccafe59d2b4ae6d0e1cbc15edee53c" xlink:title="XCS::fit">
<polygon fill="none" stroke="#000000" points="719,-133.5 719,-152.5 771,-152.5 771,-133.5 719,-133.5"/>
<text text-anchor="middle" x="745" y="-140.5" font-family="Helvetica,sans-Serif" font-size="10.00" fill="#000000">XCS::fit</text>
</a>
</g>
</g>
<!-- Node57&#45;&gt;Node58 -->
<g id="edge17" class="edge">
<title>Node57&#45;&gt;Node58</title>
<path fill="none" stroke="#191970" d="M639.7821,-171.1569C664.4487,-164.556 696.3571,-156.0171 718.538,-150.0814"/>
<polygon fill="#191970" stroke="#191970" points="638.7986,-167.7968 630.0434,-173.763 640.6083,-174.5589 638.7986,-167.7968"/>
</g>
<!-- Node58&#45;&gt;Node51 -->
<g id="edge18" class="edge">
<title>Node58&#45;&gt;Node51</title>
<path fill="none" stroke="#191970" d="M770.0249,-128.2338C803.3582,-108.565 861.3966,-74.3188 889.6332,-57.6574"/>
<polygon fill="#191970" stroke="#191970" points="768.1573,-125.2718 761.3235,-133.3681 771.7147,-131.3005 768.1573,-125.2718"/>
</g>
</g>
</svg>
