<?xml version="1.0" encoding="UTF-8" standalone="no"?>
<!DOCTYPE svg PUBLIC "-//W3C//DTD SVG 1.1//EN"
 "http://www.w3.org/Graphics/SVG/1.1/DTD/svg11.dtd">
<!-- Generated by graphviz version 2.40.1 (20161225.0304)
 -->
<!-- Title: cond_gp_cover Pages: 1 -->
<svg width="788pt" height="179pt"
 viewBox="0.00 0.00 788.00 179.00" xmlns="http://www.w3.org/2000/svg" xmlns:xlink="http://www.w3.org/1999/xlink">
<g id="graph0" class="graph" transform="scale(1 1) rotate(0) translate(4 175)">
<title>cond_gp_cover</title>
<!-- Node3 -->
<g id="node1" class="node">
<title>Node3</title>
<polygon fill="#bfbfbf" stroke="#000000" points="0,-95.5 0,-114.5 83,-114.5 83,-95.5 0,-95.5"/>
<text text-anchor="middle" x="41.5" y="-102.5" font-family="Helvetica,sans-Serif" font-size="10.00" fill="#000000">cond_gp_cover</text>
</g>
<!-- Node4 -->
<g id="node2" class="node">
<title>Node4</title>
<g id="a_node2"><a xlink:href="cond__gp_8c.html#aa6a2b6334c4c95593b662b0834efe8db" target="_top" xlink:title="cond_gp_match">
<polygon fill="none" stroke="#000000" points="119,-133.5 119,-152.5 205,-152.5 205,-133.5 119,-133.5"/>
<text text-anchor="middle" x="162" y="-140.5" font-family="Helvetica,sans-Serif" font-size="10.00" fill="#000000">cond_gp_match</text>
</a>
</g>
</g>
<!-- Node3&#45;&gt;Node4 -->
<g id="edge1" class="edge">
<title>Node3&#45;&gt;Node4</title>
<path fill="none" stroke="#191970" d="M71.9072,-114.589C87.0345,-119.3594 105.5196,-125.1888 121.8002,-130.3229"/>
<polygon fill="#191970" stroke="#191970" points="121.0128,-133.7444 131.6025,-133.4141 123.1181,-127.0685 121.0128,-133.7444"/>
</g>
<!-- Node6 -->
<g id="node4" class="node">
<title>Node6</title>
<g id="a_node4"><a xlink:href="gp_8c.html#aa5345452d3441ba131da2cb41fabd07b" target="_top" xlink:title="Frees a GP tree. ">
<polygon fill="none" stroke="#000000" points="134.5,-95.5 134.5,-114.5 189.5,-114.5 189.5,-95.5 134.5,-95.5"/>
<text text-anchor="middle" x="162" y="-102.5" font-family="Helvetica,sans-Serif" font-size="10.00" fill="#000000">tree_free</text>
</a>
</g>
</g>
<!-- Node3&#45;&gt;Node6 -->
<g id="edge4" class="edge">
<title>Node3&#45;&gt;Node6</title>
<path fill="none" stroke="#191970" d="M83.3069,-105C96.6088,-105 111.238,-105 124.2368,-105"/>
<polygon fill="#191970" stroke="#191970" points="124.2556,-108.5001 134.2556,-105 124.2556,-101.5001 124.2556,-108.5001"/>
</g>
<!-- Node7 -->
<g id="node5" class="node">
<title>Node7</title>
<g id="a_node5"><a xlink:href="gp_8c.html#ae77c9d7102a5e5d3b0ecca6993117e21" target="_top" xlink:title="Creates a random GP tree. ">
<polygon fill="none" stroke="#000000" points="133.5,-57.5 133.5,-76.5 190.5,-76.5 190.5,-57.5 133.5,-57.5"/>
<text text-anchor="middle" x="162" y="-64.5" font-family="Helvetica,sans-Serif" font-size="10.00" fill="#000000">tree_rand</text>
</a>
</g>
</g>
<!-- Node3&#45;&gt;Node7 -->
<g id="edge5" class="edge">
<title>Node3&#45;&gt;Node7</title>
<path fill="none" stroke="#191970" d="M71.9072,-95.411C87.4964,-90.4949 106.6516,-84.4543 123.2852,-79.2088"/>
<polygon fill="#191970" stroke="#191970" points="124.7773,-82.4083 133.2617,-76.0627 122.672,-75.7323 124.7773,-82.4083"/>
</g>
<!-- Node5 -->
<g id="node3" class="node">
<title>Node5</title>
<g id="a_node3"><a xlink:href="gp_8c.html#a38ad09b6b4bf2d9aeb3a6a72b8e04220" target="_top" xlink:title="Evaluates a GP tree. ">
<polygon fill="none" stroke="#000000" points="241,-133.5 241,-152.5 297,-152.5 297,-133.5 241,-133.5"/>
<text text-anchor="middle" x="269" y="-140.5" font-family="Helvetica,sans-Serif" font-size="10.00" fill="#000000">tree_eval</text>
</a>
</g>
</g>
<!-- Node4&#45;&gt;Node5 -->
<g id="edge2" class="edge">
<title>Node4&#45;&gt;Node5</title>
<path fill="none" stroke="#191970" d="M205.2126,-143C213.6136,-143 222.3664,-143 230.5995,-143"/>
<polygon fill="#191970" stroke="#191970" points="230.6847,-146.5001 240.6847,-143 230.6846,-139.5001 230.6847,-146.5001"/>
</g>
<!-- Node5&#45;&gt;Node5 -->
<g id="edge3" class="edge">
<title>Node5&#45;&gt;Node5</title>
<path fill="none" stroke="#191970" d="M252.6623,-152.7571C244.7143,-161.5653 250.1602,-171 269,-171 280.7749,-171 287.3178,-167.3146 288.6287,-162.4"/>
<polygon fill="#191970" stroke="#191970" points="291.8801,-161.0906 285.3377,-152.7571 285.2553,-163.3516 291.8801,-161.0906"/>
</g>
<!-- Node8 -->
<g id="node6" class="node">
<title>Node8</title>
<g id="a_node6"><a xlink:href="gp_8c.html#ab19988d921192b34eb305090b9f2a5e8" target="_top" xlink:title="Grows a random GP tree of specified max length and depth. ">
<polygon fill="none" stroke="#000000" points="363,-76.5 363,-95.5 422,-95.5 422,-76.5 363,-76.5"/>
<text text-anchor="middle" x="392.5" y="-83.5" font-family="Helvetica,sans-Serif" font-size="10.00" fill="#000000">tree_grow</text>
</a>
</g>
</g>
<!-- Node7&#45;&gt;Node8 -->
<g id="edge6" class="edge">
<title>Node7&#45;&gt;Node8</title>
<path fill="none" stroke="#191970" d="M190.7269,-69.3679C231.4809,-72.7273 306.2509,-78.8905 352.4368,-82.6976"/>
<polygon fill="#191970" stroke="#191970" points="352.4261,-86.2085 362.6798,-83.5419 353.0012,-79.2322 352.4261,-86.2085"/>
</g>
<!-- Node12 -->
<g id="node10" class="node">
<title>Node12</title>
<g id="a_node10"><a xlink:href="sam_8c.html#a3164f33509a5dc751b57a544fe2153a7" target="_top" xlink:title="Initialises self&#45;adaptive mutation rates. ">
<polygon fill="none" stroke="#000000" points="242.5,-38.5 242.5,-57.5 295.5,-57.5 295.5,-38.5 242.5,-38.5"/>
<text text-anchor="middle" x="269" y="-45.5" font-family="Helvetica,sans-Serif" font-size="10.00" fill="#000000">sam_init</text>
</a>
</g>
</g>
<!-- Node7&#45;&gt;Node12 -->
<g id="edge10" class="edge">
<title>Node7&#45;&gt;Node12</title>
<path fill="none" stroke="#191970" d="M190.674,-61.9083C203.4997,-59.6309 218.7713,-56.9191 232.409,-54.4975"/>
<polygon fill="#191970" stroke="#191970" points="233.2177,-57.9087 242.4518,-52.7142 231.9938,-51.0165 233.2177,-57.9087"/>
</g>
<!-- Node9 -->
<g id="node7" class="node">
<title>Node9</title>
<g id="a_node7"><a xlink:href="utils_8c.html#a32648ab076544a9ac1c086d0f07b599f" target="_top" xlink:title="Returns a uniform random integer [min,max] not inclusive of max. ">
<polygon fill="none" stroke="#000000" points="503.5,-38.5 503.5,-57.5 578.5,-57.5 578.5,-38.5 503.5,-38.5"/>
<text text-anchor="middle" x="541" y="-45.5" font-family="Helvetica,sans-Serif" font-size="10.00" fill="#000000">irand_uniform</text>
</a>
</g>
</g>
<!-- Node8&#45;&gt;Node9 -->
<g id="edge7" class="edge">
<title>Node8&#45;&gt;Node9</title>
<path fill="none" stroke="#191970" d="M422.1943,-78.4015C442.7091,-73.1519 470.4249,-66.0596 493.9267,-60.0457"/>
<polygon fill="#191970" stroke="#191970" points="494.8875,-63.4127 503.7076,-57.5428 493.1521,-56.6312 494.8875,-63.4127"/>
</g>
<!-- Node10 -->
<g id="node8" class="node">
<title>Node10</title>
<g id="a_node8"><a xlink:href="utils_8c.html#ae42a9e1d467853befaa7922cfafed3bb" target="_top" xlink:title="Returns a uniform random float [min,max]. ">
<polygon fill="none" stroke="#000000" points="630,-19.5 630,-38.5 703,-38.5 703,-19.5 630,-19.5"/>
<text text-anchor="middle" x="666.5" y="-26.5" font-family="Helvetica,sans-Serif" font-size="10.00" fill="#000000">rand_uniform</text>
</a>
</g>
</g>
<!-- Node9&#45;&gt;Node10 -->
<g id="edge8" class="edge">
<title>Node9&#45;&gt;Node10</title>
<path fill="none" stroke="#191970" d="M578.6541,-42.2994C591.542,-40.3482 606.1208,-38.1411 619.6451,-36.0936"/>
<polygon fill="#191970" stroke="#191970" points="620.3727,-39.5234 629.7361,-34.5658 619.3248,-32.6023 620.3727,-39.5234"/>
</g>
<!-- Node11 -->
<g id="node9" class="node">
<title>Node11</title>
<g id="a_node9"><a xlink:href="utils_8c.html#a101d27cdda714b7f17a06224c65cac56" target="_top" xlink:title="Returns a uniform random float (0,1) ">
<polygon fill="none" stroke="#000000" points="739,-19.5 739,-38.5 780,-38.5 780,-19.5 739,-19.5"/>
<text text-anchor="middle" x="759.5" y="-26.5" font-family="Helvetica,sans-Serif" font-size="10.00" fill="#000000">drand</text>
</a>
</g>
</g>
<!-- Node10&#45;&gt;Node11 -->
<g id="edge9" class="edge">
<title>Node10&#45;&gt;Node11</title>
<path fill="none" stroke="#191970" d="M703.2561,-29C711.658,-29 720.5043,-29 728.63,-29"/>
<polygon fill="#191970" stroke="#191970" points="728.799,-32.5001 738.7989,-29 728.7989,-25.5001 728.799,-32.5001"/>
</g>
<!-- Node13 -->
<g id="node11" class="node">
<title>Node13</title>
<g id="a_node11"><a xlink:href="sam_8c.html#a3376574f2624a397ac253242b1958491" target="_top" xlink:title="Initialises log normal self&#45;adaptive mutation rates. ">
<polygon fill="none" stroke="#000000" points="488,-.5 488,-19.5 594,-19.5 594,-.5 488,-.5"/>
<text text-anchor="middle" x="541" y="-7.5" font-family="Helvetica,sans-Serif" font-size="10.00" fill="#000000">sam_log_normal_init</text>
</a>
</g>
</g>
<!-- Node12&#45;&gt;Node13 -->
<g id="edge11" class="edge">
<title>Node12&#45;&gt;Node13</title>
<path fill="none" stroke="#191970" d="M295.8003,-38.7585C307.1493,-35.1824 320.5934,-31.384 333,-29 380.9288,-19.7903 435.9553,-15.0127 477.3676,-12.5526"/>
<polygon fill="#191970" stroke="#191970" points="477.8033,-16.0337 487.5902,-11.9758 477.4088,-9.0448 477.8033,-16.0337"/>
</g>
<!-- Node14 -->
<g id="node12" class="node">
<title>Node14</title>
<g id="a_node12"><a xlink:href="sam_8c.html#a5c510f09cd5f6069b67e1b9a59df7acc" target="_top" xlink:title="Initialises rate selection self&#45;adaptive mutation. ">
<polygon fill="none" stroke="#000000" points="333,-38.5 333,-57.5 452,-57.5 452,-38.5 333,-38.5"/>
<text text-anchor="middle" x="392.5" y="-45.5" font-family="Helvetica,sans-Serif" font-size="10.00" fill="#000000">sam_rate_selection_init</text>
</a>
</g>
</g>
<!-- Node12&#45;&gt;Node14 -->
<g id="edge13" class="edge">
<title>Node12&#45;&gt;Node14</title>
<path fill="none" stroke="#191970" d="M295.7977,-48C303.9061,-48 313.2135,-48 322.7804,-48"/>
<polygon fill="#191970" stroke="#191970" points="322.8047,-51.5001 332.8047,-48 322.8046,-44.5001 322.8047,-51.5001"/>
</g>
<!-- Node13&#45;&gt;Node10 -->
<g id="edge12" class="edge">
<title>Node13&#45;&gt;Node10</title>
<path fill="none" stroke="#191970" d="M594.2233,-18.0577C602.7725,-19.352 611.5632,-20.6829 619.9406,-21.9512"/>
<polygon fill="#191970" stroke="#191970" points="619.4991,-25.4241 629.9103,-23.4605 620.5469,-18.503 619.4991,-25.4241"/>
</g>
<!-- Node14&#45;&gt;Node9 -->
<g id="edge14" class="edge">
<title>Node14&#45;&gt;Node9</title>
<path fill="none" stroke="#191970" d="M452.045,-48C465.6704,-48 479.9841,-48 493.05,-48"/>
<polygon fill="#191970" stroke="#191970" points="493.2241,-51.5001 503.2241,-48 493.2241,-44.5001 493.2241,-51.5001"/>
</g>
</g>
</svg>
