<?xml version="1.0" encoding="UTF-8" standalone="no"?>
<!DOCTYPE svg PUBLIC "-//W3C//DTD SVG 1.1//EN"
 "http://www.w3.org/Graphics/SVG/1.1/DTD/svg11.dtd">
<!-- Generated by graphviz version 2.40.1 (20161225.0304)
 -->
<!-- Title: cond_gp.c Pages: 1 -->
<svg width="780pt" height="84pt"
 viewBox="0.00 0.00 779.50 84.00" xmlns="http://www.w3.org/2000/svg" xmlns:xlink="http://www.w3.org/1999/xlink">
<g id="graph0" class="graph" transform="scale(1 1) rotate(0) translate(4 80)">
<title>cond_gp.c</title>
<!-- Node0 -->
<g id="node1" class="node">
<title>Node0</title>
<polygon fill="#bfbfbf" stroke="#000000" points="360,-56.5 360,-75.5 422,-75.5 422,-56.5 360,-56.5"/>
<text text-anchor="middle" x="391" y="-63.5" font-family="Helvetica,sans-Serif" font-size="10.00" fill="#000000">cond_gp.c</text>
</g>
<!-- Node1 -->
<g id="node2" class="node">
<title>Node1</title>
<polygon fill="none" stroke="#bfbfbf" points="0,-.5 0,-19.5 46,-19.5 46,-.5 0,-.5"/>
<text text-anchor="middle" x="23" y="-7.5" font-family="Helvetica,sans-Serif" font-size="10.00" fill="#000000">stdio.h</text>
</g>
<!-- Node0&#45;&gt;Node1 -->
<g id="edge1" class="edge">
<title>Node0&#45;&gt;Node1</title>
<path fill="none" stroke="#191970" d="M359.6549,-63.468C301.4987,-58.394 172.9062,-45.4117 56.1169,-19.9508"/>
<polygon fill="#191970" stroke="#191970" points="56.8175,-16.5212 46.297,-17.7738 55.3024,-23.3553 56.8175,-16.5212"/>
</g>
<!-- Node2 -->
<g id="node3" class="node">
<title>Node2</title>
<polygon fill="none" stroke="#bfbfbf" points="64,-.5 64,-19.5 112,-19.5 112,-.5 64,-.5"/>
<text text-anchor="middle" x="88" y="-7.5" font-family="Helvetica,sans-Serif" font-size="10.00" fill="#000000">stdlib.h</text>
</g>
<!-- Node0&#45;&gt;Node2 -->
<g id="edge2" class="edge">
<title>Node0&#45;&gt;Node2</title>
<path fill="none" stroke="#191970" d="M359.973,-62.0051C311.2706,-55.4563 213.7903,-41.2296 122.0577,-20.0171"/>
<polygon fill="#191970" stroke="#191970" points="122.5909,-16.5473 112.0558,-17.6706 120.992,-23.3622 122.5909,-16.5473"/>
</g>
<!-- Node3 -->
<g id="node4" class="node">
<title>Node3</title>
<polygon fill="none" stroke="#bfbfbf" points="130.5,-.5 130.5,-19.5 179.5,-19.5 179.5,-.5 130.5,-.5"/>
<text text-anchor="middle" x="155" y="-7.5" font-family="Helvetica,sans-Serif" font-size="10.00" fill="#000000">string.h</text>
</g>
<!-- Node0&#45;&gt;Node3 -->
<g id="edge3" class="edge">
<title>Node0&#45;&gt;Node3</title>
<path fill="none" stroke="#191970" d="M359.7098,-59.5055C321.749,-51.4887 255.6111,-37.0814 189.5721,-20.0316"/>
<polygon fill="#191970" stroke="#191970" points="190.3919,-16.6284 179.8328,-17.4973 188.6291,-23.4028 190.3919,-16.6284"/>
</g>
<!-- Node4 -->
<g id="node5" class="node">
<title>Node4</title>
<polygon fill="none" stroke="#bfbfbf" points="198,-.5 198,-19.5 254,-19.5 254,-.5 198,-.5"/>
<text text-anchor="middle" x="226" y="-7.5" font-family="Helvetica,sans-Serif" font-size="10.00" fill="#000000">stdbool.h</text>
</g>
<!-- Node0&#45;&gt;Node4 -->
<g id="edge4" class="edge">
<title>Node0&#45;&gt;Node4</title>
<path fill="none" stroke="#191970" d="M362.6355,-56.3733C335.3173,-47.1016 293.8204,-33.0178 263.7262,-22.804"/>
<polygon fill="#191970" stroke="#191970" points="264.5887,-19.4008 253.9944,-19.5011 262.339,-26.0294 264.5887,-19.4008"/>
</g>
<!-- Node5 -->
<g id="node6" class="node">
<title>Node5</title>
<polygon fill="none" stroke="#bfbfbf" points="272.5,-.5 272.5,-19.5 319.5,-19.5 319.5,-.5 272.5,-.5"/>
<text text-anchor="middle" x="296" y="-7.5" font-family="Helvetica,sans-Serif" font-size="10.00" fill="#000000">math.h</text>
</g>
<!-- Node0&#45;&gt;Node5 -->
<g id="edge5" class="edge">
<title>Node0&#45;&gt;Node5</title>
<path fill="none" stroke="#191970" d="M374.4523,-56.2455C359.7401,-47.5731 338.0112,-34.7645 321.1495,-24.825"/>
<polygon fill="#191970" stroke="#191970" points="322.7502,-21.7057 312.3581,-19.6427 319.1954,-27.736 322.7502,-21.7057"/>
</g>
<!-- Node6 -->
<g id="node7" class="node">
<title>Node6</title>
<g id="a_node7"><a xlink:href="xcsf_8h.html" target="_top" xlink:title="XCSF data structures. ">
<polygon fill="none" stroke="#000000" points="338,-.5 338,-19.5 382,-19.5 382,-.5 338,-.5"/>
<text text-anchor="middle" x="360" y="-7.5" font-family="Helvetica,sans-Serif" font-size="10.00" fill="#000000">xcsf.h</text>
</a>
</g>
</g>
<!-- Node0&#45;&gt;Node6 -->
<g id="edge6" class="edge">
<title>Node0&#45;&gt;Node6</title>
<path fill="none" stroke="#191970" d="M385.6002,-56.2455C381.3773,-48.617 375.3827,-37.7881 370.2559,-28.5267"/>
<polygon fill="#191970" stroke="#191970" points="373.2432,-26.6965 365.3379,-19.6427 367.119,-30.0867 373.2432,-26.6965"/>
</g>
<!-- Node7 -->
<g id="node8" class="node">
<title>Node7</title>
<g id="a_node8"><a xlink:href="utils_8h.html" target="_top" xlink:title="Utility functions for random number handling, etc. ">
<polygon fill="none" stroke="#000000" points="400.5,-.5 400.5,-19.5 443.5,-19.5 443.5,-.5 400.5,-.5"/>
<text text-anchor="middle" x="422" y="-7.5" font-family="Helvetica,sans-Serif" font-size="10.00" fill="#000000">utils.h</text>
</a>
</g>
</g>
<!-- Node0&#45;&gt;Node7 -->
<g id="edge7" class="edge">
<title>Node0&#45;&gt;Node7</title>
<path fill="none" stroke="#191970" d="M396.3998,-56.2455C400.6227,-48.617 406.6173,-37.7881 411.7441,-28.5267"/>
<polygon fill="#191970" stroke="#191970" points="414.881,-30.0867 416.6621,-19.6427 408.7568,-26.6965 414.881,-30.0867"/>
</g>
<!-- Node8 -->
<g id="node9" class="node">
<title>Node8</title>
<g id="a_node9"><a xlink:href="sam_8h.html" target="_top" xlink:title="Self&#45;adaptive mutation functions. ">
<polygon fill="none" stroke="#000000" points="462,-.5 462,-19.5 506,-19.5 506,-.5 462,-.5"/>
<text text-anchor="middle" x="484" y="-7.5" font-family="Helvetica,sans-Serif" font-size="10.00" fill="#000000">sam.h</text>
</a>
</g>
</g>
<!-- Node0&#45;&gt;Node8 -->
<g id="edge8" class="edge">
<title>Node0&#45;&gt;Node8</title>
<path fill="none" stroke="#191970" d="M407.1994,-56.2455C421.6018,-47.5731 442.8732,-34.7645 459.3799,-24.825"/>
<polygon fill="#191970" stroke="#191970" points="461.225,-27.7996 467.9863,-19.6427 457.614,-21.8028 461.225,-27.7996"/>
</g>
<!-- Node9 -->
<g id="node10" class="node">
<title>Node9</title>
<g id="a_node10"><a xlink:href="cl_8h.html" target="_top" xlink:title="Functions operating on classifiers. ">
<polygon fill="none" stroke="#000000" points="524,-.5 524,-19.5 556,-19.5 556,-.5 524,-.5"/>
<text text-anchor="middle" x="540" y="-7.5" font-family="Helvetica,sans-Serif" font-size="10.00" fill="#000000">cl.h</text>
</a>
</g>
</g>
<!-- Node0&#45;&gt;Node9 -->
<g id="edge9" class="edge">
<title>Node0&#45;&gt;Node9</title>
<path fill="none" stroke="#191970" d="M417.1986,-56.4992C440.479,-48.009 475.6473,-35.0679 514.4797,-20.1419"/>
<polygon fill="#191970" stroke="#191970" points="515.8144,-23.3786 523.8856,-16.5152 513.296,-16.8473 515.8144,-23.3786"/>
</g>
<!-- Node10 -->
<g id="node11" class="node">
<title>Node10</title>
<g id="a_node11"><a xlink:href="condition_8h.html" target="_top" xlink:title="Interface for classifier conditions. ">
<polygon fill="none" stroke="#000000" points="574,-.5 574,-19.5 638,-19.5 638,-.5 574,-.5"/>
<text text-anchor="middle" x="606" y="-7.5" font-family="Helvetica,sans-Serif" font-size="10.00" fill="#000000">condition.h</text>
</a>
</g>
</g>
<!-- Node0&#45;&gt;Node10 -->
<g id="edge10" class="edge">
<title>Node0&#45;&gt;Node10</title>
<path fill="none" stroke="#191970" d="M422.2628,-57.8571C459.7052,-48.1047 522.5696,-31.7307 564.1677,-20.8959"/>
<polygon fill="#191970" stroke="#191970" points="565.2025,-24.2432 573.9974,-18.3356 563.438,-17.4692 565.2025,-24.2432"/>
</g>
<!-- Node11 -->
<g id="node12" class="node">
<title>Node11</title>
<g id="a_node12"><a xlink:href="cond__gp_8h.html" target="_top" xlink:title="Tree GP condition functions. ">
<polygon fill="none" stroke="#000000" points="656,-.5 656,-19.5 718,-19.5 718,-.5 656,-.5"/>
<text text-anchor="middle" x="687" y="-7.5" font-family="Helvetica,sans-Serif" font-size="10.00" fill="#000000">cond_gp.h</text>
</a>
</g>
</g>
<!-- Node0&#45;&gt;Node11 -->
<g id="edge11" class="edge">
<title>Node0&#45;&gt;Node11</title>
<path fill="none" stroke="#191970" d="M422.2641,-61.0777C468.8345,-53.5949 559.3797,-38.4681 645.6509,-20.1881"/>
<polygon fill="#191970" stroke="#191970" points="646.5561,-23.5738 655.6036,-18.0608 645.0929,-16.7284 646.5561,-23.5738"/>
</g>
<!-- Node12 -->
<g id="node13" class="node">
<title>Node12</title>
<g id="a_node13"><a xlink:href="gp_8h.html" target="_top" xlink:title="An implementation of GP trees based upon TinyGP. ">
<polygon fill="none" stroke="#000000" points="736.5,-.5 736.5,-19.5 771.5,-19.5 771.5,-.5 736.5,-.5"/>
<text text-anchor="middle" x="754" y="-7.5" font-family="Helvetica,sans-Serif" font-size="10.00" fill="#000000">gp.h</text>
</a>
</g>
</g>
<!-- Node0&#45;&gt;Node12 -->
<g id="edge12" class="edge">
<title>Node0&#45;&gt;Node12</title>
<path fill="none" stroke="#191970" d="M422.004,-64.029C480.1382,-59.8494 609.444,-48.262 726.6052,-19.5853"/>
<polygon fill="#191970" stroke="#191970" points="727.6012,-22.9441 736.4556,-17.126 725.9056,-16.1526 727.6012,-22.9441"/>
</g>
</g>
</svg>
