<?xml version="1.0" encoding="UTF-8" standalone="no"?>
<!DOCTYPE svg PUBLIC "-//W3C//DTD SVG 1.1//EN"
 "http://www.w3.org/Graphics/SVG/1.1/DTD/svg11.dtd">
<!-- Generated by graphviz version 2.40.1 (20161225.0304)
 -->
<!-- Title: cond_copy Pages: 1 -->
<svg width="775pt" height="256pt"
 viewBox="0.00 0.00 775.00 256.00" xmlns="http://www.w3.org/2000/svg" xmlns:xlink="http://www.w3.org/1999/xlink">
<g id="graph0" class="graph" transform="scale(1 1) rotate(0) translate(4 252)">
<title>cond_copy</title>
<!-- Node1 -->
<g id="node1" class="node">
<title>Node1</title>
<polygon fill="#bfbfbf" stroke="#000000" points="0,-171.5 0,-190.5 64,-190.5 64,-171.5 0,-171.5"/>
<text text-anchor="middle" x="32" y="-178.5" font-family="Helvetica,sans-Serif" font-size="10.00" fill="#000000">cond_copy</text>
</g>
<!-- Node2 -->
<g id="node2" class="node">
<title>Node2</title>
<g id="a_node2"><a xlink:href="cl_8h.html#a85d6f482c5c699b800dd3e43fa867510" target="_top" xlink:title="Copies the condition, action, and prediction from one classifier to another. ">
<polygon fill="none" stroke="#000000" points="100,-171.5 100,-190.5 150,-190.5 150,-171.5 100,-171.5"/>
<text text-anchor="middle" x="125" y="-178.5" font-family="Helvetica,sans-Serif" font-size="10.00" fill="#000000">cl_copy</text>
</a>
</g>
</g>
<!-- Node1&#45;&gt;Node2 -->
<g id="edge1" class="edge">
<title>Node1&#45;&gt;Node2</title>
<path fill="none" stroke="#191970" d="M74.1855,-181C83.0048,-181 92.0328,-181 99.986,-181"/>
<polygon fill="#191970" stroke="#191970" points="74.0054,-177.5001 64.0053,-181 74.0053,-184.5001 74.0054,-177.5001"/>
</g>
<!-- Node3 -->
<g id="node3" class="node">
<title>Node3</title>
<g id="a_node3"><a xlink:href="ea_8h.html#ae90a9b4131bb94462265b9c928499eb8" target="_top" xlink:title="Executes the evolutionary algorithm (EA). ">
<polygon fill="none" stroke="#000000" points="186,-171.5 186,-190.5 215,-190.5 215,-171.5 186,-171.5"/>
<text text-anchor="middle" x="200.5" y="-178.5" font-family="Helvetica,sans-Serif" font-size="10.00" fill="#000000">ea</text>
</a>
</g>
</g>
<!-- Node2&#45;&gt;Node3 -->
<g id="edge2" class="edge">
<title>Node2&#45;&gt;Node3</title>
<path fill="none" stroke="#191970" d="M160.1602,-181C169.2088,-181 178.4567,-181 185.8113,-181"/>
<polygon fill="#191970" stroke="#191970" points="160.1404,-177.5001 150.1404,-181 160.1404,-184.5001 160.1404,-177.5001"/>
</g>
<!-- Node4 -->
<g id="node4" class="node">
<title>Node4</title>
<g id="a_node4"><a xlink:href="xcs__multi__step_8c.html#ad50c415970b4bfc42f469fb38c5e68fa" target="_top" xlink:title="Executes a multi&#45;step trial using a built&#45;in environment. ">
<polygon fill="none" stroke="#000000" points="260,-218.5 260,-237.5 340,-237.5 340,-218.5 260,-218.5"/>
<text text-anchor="middle" x="300" y="-225.5" font-family="Helvetica,sans-Serif" font-size="10.00" fill="#000000">xcs_multi_trial</text>
</a>
</g>
</g>
<!-- Node3&#45;&gt;Node4 -->
<g id="edge3" class="edge">
<title>Node3&#45;&gt;Node4</title>
<path fill="none" stroke="#191970" d="M224.4056,-192.2921C241.3056,-200.275 263.714,-210.8599 279.7373,-218.4287"/>
<polygon fill="#191970" stroke="#191970" points="225.7185,-189.0415 215.1816,-187.935 222.7287,-195.3709 225.7185,-189.0415"/>
</g>
<!-- Node7 -->
<g id="node7" class="node">
<title>Node7</title>
<g id="a_node7"><a xlink:href="xcs__single__step_8h.html#a0ff6b521f66224d56ef0e6f50f5781b9" target="_top" xlink:title="Creates the action set, updates the classifiers and runs the EA. ">
<polygon fill="none" stroke="#000000" points="251,-171.5 251,-190.5 349,-190.5 349,-171.5 251,-171.5"/>
<text text-anchor="middle" x="300" y="-178.5" font-family="Helvetica,sans-Serif" font-size="10.00" fill="#000000">xcs_single_update</text>
</a>
</g>
</g>
<!-- Node3&#45;&gt;Node7 -->
<g id="edge6" class="edge">
<title>Node3&#45;&gt;Node7</title>
<path fill="none" stroke="#191970" d="M225.2801,-181C233.0174,-181 241.8425,-181 250.6508,-181"/>
<polygon fill="#191970" stroke="#191970" points="225.1816,-177.5001 215.1816,-181 225.1815,-184.5001 225.1816,-177.5001"/>
</g>
<!-- Node12 -->
<g id="node12" class="node">
<title>Node12</title>
<g id="a_node12"><a xlink:href="xcsf_8c.html#af5fb604e81235fdcb2ed8925d9291f59" target="_top" xlink:title="Executes a single XCSF trial. ">
<polygon fill="none" stroke="#000000" points="272,-57.5 272,-76.5 328,-76.5 328,-57.5 272,-57.5"/>
<text text-anchor="middle" x="300" y="-64.5" font-family="Helvetica,sans-Serif" font-size="10.00" fill="#000000">xcsf_trial</text>
</a>
</g>
</g>
<!-- Node3&#45;&gt;Node12 -->
<g id="edge12" class="edge">
<title>Node3&#45;&gt;Node12</title>
<path fill="none" stroke="#191970" d="M215.7434,-163.5352C236.9778,-139.2063 274.7403,-95.9408 291.5382,-76.695"/>
<polygon fill="#191970" stroke="#191970" points="212.9221,-161.445 208.9833,-171.2804 218.1959,-166.048 212.9221,-161.445"/>
</g>
<!-- Node5 -->
<g id="node5" class="node">
<title>Node5</title>
<g id="a_node5"><a xlink:href="xcs__multi__step_8h.html#acc29d4a55dbd56c16ea5f19f15a7c677" target="_top" xlink:title="Executes a multi&#45;step reinforcement learning experiment. ">
<polygon fill="none" stroke="#000000" points="527,-228.5 527,-247.5 631,-247.5 631,-228.5 527,-228.5"/>
<text text-anchor="middle" x="579" y="-235.5" font-family="Helvetica,sans-Serif" font-size="10.00" fill="#000000">xcs_multi_step_exp</text>
</a>
</g>
</g>
<!-- Node4&#45;&gt;Node5 -->
<g id="edge4" class="edge">
<title>Node4&#45;&gt;Node5</title>
<path fill="none" stroke="#191970" d="M350.5047,-229.8102C400.4046,-231.5987 476.3872,-234.3221 526.8508,-236.1309"/>
<polygon fill="#191970" stroke="#191970" points="350.39,-226.3039 340.271,-229.4434 350.1392,-233.2994 350.39,-226.3039"/>
</g>
<!-- Node6 -->
<g id="node6" class="node">
<title>Node6</title>
<g id="a_node6"><a xlink:href="main_8c.html#a3c04138a5bfe5d72780bb7e82a18e627" target="_top" xlink:title="main">
<polygon fill="none" stroke="#000000" points="699,-190.5 699,-209.5 737,-209.5 737,-190.5 699,-190.5"/>
<text text-anchor="middle" x="718" y="-197.5" font-family="Helvetica,sans-Serif" font-size="10.00" fill="#000000">main</text>
</a>
</g>
</g>
<!-- Node5&#45;&gt;Node6 -->
<g id="edge5" class="edge">
<title>Node5&#45;&gt;Node6</title>
<path fill="none" stroke="#191970" d="M623.8597,-225.7362C649.1892,-218.8116 679.5345,-210.5157 698.7913,-205.2513"/>
<polygon fill="#191970" stroke="#191970" points="622.7986,-222.3978 614.0756,-228.411 624.6446,-229.15 622.7986,-222.3978"/>
</g>
<!-- Node8 -->
<g id="node8" class="node">
<title>Node8</title>
<g id="a_node8"><a xlink:href="classXCS.html#aedc01ad6f00a54b260a7605929a1d4c9" target="_top" xlink:title="XCS::single_update">
<polygon fill="none" stroke="#000000" points="385,-152.5 385,-171.5 489,-171.5 489,-152.5 385,-152.5"/>
<text text-anchor="middle" x="437" y="-159.5" font-family="Helvetica,sans-Serif" font-size="10.00" fill="#000000">XCS::single_update</text>
</a>
</g>
</g>
<!-- Node7&#45;&gt;Node8 -->
<g id="edge7" class="edge">
<title>Node7&#45;&gt;Node8</title>
<path fill="none" stroke="#191970" d="M359.2254,-172.7863C367.6549,-171.6172 376.2753,-170.4217 384.5632,-169.2723"/>
<polygon fill="#191970" stroke="#191970" points="358.4976,-169.3536 349.0732,-174.1942 359.4592,-176.2873 358.4976,-169.3536"/>
</g>
<!-- Node10 -->
<g id="node10" class="node">
<title>Node10</title>
<g id="a_node10"><a xlink:href="xcs__single__step_8c.html#a536ab4256e871e31959ea6e907455340" target="_top" xlink:title="Executes a single&#45;step trial using a built&#45;in environment. ">
<polygon fill="none" stroke="#000000" points="395,-190.5 395,-209.5 479,-209.5 479,-190.5 395,-190.5"/>
<text text-anchor="middle" x="437" y="-197.5" font-family="Helvetica,sans-Serif" font-size="10.00" fill="#000000">xcs_single_trial</text>
</a>
</g>
</g>
<!-- Node7&#45;&gt;Node10 -->
<g id="edge9" class="edge">
<title>Node7&#45;&gt;Node10</title>
<path fill="none" stroke="#191970" d="M359.0069,-189.1834C370.9825,-190.8443 383.3528,-192.5599 394.6154,-194.1218"/>
<polygon fill="#191970" stroke="#191970" points="359.4592,-185.7128 349.0732,-187.8058 358.4976,-192.6464 359.4592,-185.7128"/>
</g>
<!-- Node9 -->
<g id="node9" class="node">
<title>Node9</title>
<g id="a_node9"><a xlink:href="pybind__wrapper_8cpp.html#a9f26280e01308c4674f2473fb6f78730" target="_top" xlink:title="pybind11_init_xcsf">
<polygon fill="none" stroke="#000000" points="669,-57.5 669,-76.5 767,-76.5 767,-57.5 669,-57.5"/>
<text text-anchor="middle" x="718" y="-64.5" font-family="Helvetica,sans-Serif" font-size="10.00" fill="#000000">pybind11_init_xcsf</text>
</a>
</g>
</g>
<!-- Node8&#45;&gt;Node9 -->
<g id="edge8" class="edge">
<title>Node8&#45;&gt;Node9</title>
<path fill="none" stroke="#191970" d="M485.2146,-149.9595C525.2575,-139.4896 583.4693,-123.176 633,-105 656.066,-96.5356 681.7069,-84.7262 698.7334,-76.528"/>
<polygon fill="#191970" stroke="#191970" points="484.2436,-146.5954 475.442,-152.493 486.0003,-153.3714 484.2436,-146.5954"/>
</g>
<!-- Node11 -->
<g id="node11" class="node">
<title>Node11</title>
<g id="a_node11"><a xlink:href="xcs__single__step_8h.html#a39a031bf59eaa9b33e30e614610dcda8" target="_top" xlink:title="Executes a single&#45;step reinforcement learning experiment. ">
<polygon fill="none" stroke="#000000" points="525,-190.5 525,-209.5 633,-209.5 633,-190.5 525,-190.5"/>
<text text-anchor="middle" x="579" y="-197.5" font-family="Helvetica,sans-Serif" font-size="10.00" fill="#000000">xcs_single_step_exp</text>
</a>
</g>
</g>
<!-- Node10&#45;&gt;Node11 -->
<g id="edge10" class="edge">
<title>Node10&#45;&gt;Node11</title>
<path fill="none" stroke="#191970" d="M489.551,-200C501.0539,-200 513.2511,-200 524.8166,-200"/>
<polygon fill="#191970" stroke="#191970" points="489.2203,-196.5001 479.2202,-200 489.2202,-203.5001 489.2203,-196.5001"/>
</g>
<!-- Node11&#45;&gt;Node6 -->
<g id="edge11" class="edge">
<title>Node11&#45;&gt;Node6</title>
<path fill="none" stroke="#191970" d="M643.3039,-200C663.5242,-200 684.3344,-200 698.8368,-200"/>
<polygon fill="#191970" stroke="#191970" points="643.1391,-196.5001 633.139,-200 643.139,-203.5001 643.1391,-196.5001"/>
</g>
<!-- Node13 -->
<g id="node13" class="node">
<title>Node13</title>
<g id="a_node13"><a xlink:href="xcsf_8h.html#aee465caea59599a71fc69528598156cb" target="_top" xlink:title="Executes MAX_TRIALS number of XCSF learning iterations using the training. data and test iterations u...">
<polygon fill="none" stroke="#000000" points="412.5,-76.5 412.5,-95.5 461.5,-95.5 461.5,-76.5 412.5,-76.5"/>
<text text-anchor="middle" x="437" y="-83.5" font-family="Helvetica,sans-Serif" font-size="10.00" fill="#000000">xcsf_fit</text>
</a>
</g>
</g>
<!-- Node12&#45;&gt;Node13 -->
<g id="edge13" class="edge">
<title>Node12&#45;&gt;Node13</title>
<path fill="none" stroke="#191970" d="M338.1185,-72.2865C361.7972,-75.5704 391.5501,-79.6967 412.2027,-82.561"/>
<polygon fill="#191970" stroke="#191970" points="338.4406,-68.7978 328.0546,-70.8908 337.479,-75.7314 338.4406,-68.7978"/>
</g>
<!-- Node15 -->
<g id="node15" class="node">
<title>Node15</title>
<g id="a_node15"><a xlink:href="xcsf_8h.html#af128a7da769acabe2e841e8d06749b0b" target="_top" xlink:title="Calculates the XCSF predictions for the provided input. ">
<polygon fill="none" stroke="#000000" points="402,-38.5 402,-57.5 472,-57.5 472,-38.5 402,-38.5"/>
<text text-anchor="middle" x="437" y="-45.5" font-family="Helvetica,sans-Serif" font-size="10.00" fill="#000000">xcsf_predict</text>
</a>
</g>
</g>
<!-- Node12&#45;&gt;Node15 -->
<g id="edge17" class="edge">
<title>Node12&#45;&gt;Node15</title>
<path fill="none" stroke="#191970" d="M338.064,-61.721C358.0542,-58.9487 382.385,-55.5743 401.9157,-52.8657"/>
<polygon fill="#191970" stroke="#191970" points="337.479,-58.2686 328.0546,-63.1092 338.4406,-65.2022 337.479,-58.2686"/>
</g>
<!-- Node17 -->
<g id="node17" class="node">
<title>Node17</title>
<g id="a_node17"><a xlink:href="xcsf_8h.html#a348b8cd321211c377fb1deedc62c7c67" target="_top" xlink:title="Calculates the XCSF error for the input data. ">
<polygon fill="none" stroke="#000000" points="404.5,-.5 404.5,-19.5 469.5,-19.5 469.5,-.5 404.5,-.5"/>
<text text-anchor="middle" x="437" y="-7.5" font-family="Helvetica,sans-Serif" font-size="10.00" fill="#000000">xcsf_score</text>
</a>
</g>
</g>
<!-- Node12&#45;&gt;Node17 -->
<g id="edge20" class="edge">
<title>Node12&#45;&gt;Node17</title>
<path fill="none" stroke="#191970" d="M329.9163,-53.0094C346.1046,-45.5955 366.5173,-36.4974 385,-29 393.016,-25.7484 401.8227,-22.4347 409.8735,-19.5046"/>
<polygon fill="#191970" stroke="#191970" points="328.0541,-50.0138 320.4377,-57.3787 330.9845,-56.3709 328.0541,-50.0138"/>
</g>
<!-- Node13&#45;&gt;Node6 -->
<g id="edge14" class="edge">
<title>Node13&#45;&gt;Node6</title>
<path fill="none" stroke="#191970" d="M470.1003,-99.4286C529.3724,-123.4749 651.8314,-173.1558 698.9488,-192.271"/>
<polygon fill="#191970" stroke="#191970" points="471.0568,-96.0396 460.4746,-95.5235 468.4253,-102.5262 471.0568,-96.0396"/>
</g>
<!-- Node14 -->
<g id="node14" class="node">
<title>Node14</title>
<g id="a_node14"><a xlink:href="classXCS.html#ac9a4a7cb0ec6238ef1d4d77996f8975b" target="_top" xlink:title="XCS::fit">
<polygon fill="none" stroke="#000000" points="553,-76.5 553,-95.5 605,-95.5 605,-76.5 553,-76.5"/>
<text text-anchor="middle" x="579" y="-83.5" font-family="Helvetica,sans-Serif" font-size="10.00" fill="#000000">XCS::fit</text>
</a>
</g>
</g>
<!-- Node13&#45;&gt;Node14 -->
<g id="edge15" class="edge">
<title>Node13&#45;&gt;Node14</title>
<path fill="none" stroke="#191970" d="M471.8735,-86C496.8145,-86 529.8634,-86 552.6237,-86"/>
<polygon fill="#191970" stroke="#191970" points="471.7345,-82.5001 461.7345,-86 471.7345,-89.5001 471.7345,-82.5001"/>
</g>
<!-- Node14&#45;&gt;Node9 -->
<g id="edge16" class="edge">
<title>Node14&#45;&gt;Node9</title>
<path fill="none" stroke="#191970" d="M615.3776,-81.0275C631.7306,-78.7922 651.2768,-76.1204 668.9021,-73.7112"/>
<polygon fill="#191970" stroke="#191970" points="614.5787,-77.6041 605.1448,-82.4262 615.5267,-84.5396 614.5787,-77.6041"/>
</g>
<!-- Node16 -->
<g id="node16" class="node">
<title>Node16</title>
<g id="a_node16"><a xlink:href="classXCS.html#a8e8db281054f9e5937610eed434cd4a5" target="_top" xlink:title="XCS::predict">
<polygon fill="none" stroke="#000000" points="542.5,-38.5 542.5,-57.5 615.5,-57.5 615.5,-38.5 542.5,-38.5"/>
<text text-anchor="middle" x="579" y="-45.5" font-family="Helvetica,sans-Serif" font-size="10.00" fill="#000000">XCS::predict</text>
</a>
</g>
</g>
<!-- Node15&#45;&gt;Node16 -->
<g id="edge18" class="edge">
<title>Node15&#45;&gt;Node16</title>
<path fill="none" stroke="#191970" d="M482.2292,-48C501.6223,-48 523.9834,-48 542.3219,-48"/>
<polygon fill="#191970" stroke="#191970" points="482.1012,-44.5001 472.1011,-48 482.1011,-51.5001 482.1012,-44.5001"/>
</g>
<!-- Node16&#45;&gt;Node9 -->
<g id="edge19" class="edge">
<title>Node16&#45;&gt;Node9</title>
<path fill="none" stroke="#191970" d="M625.8196,-54.3998C639.6882,-56.2955 654.9099,-58.3762 668.9174,-60.2909"/>
<polygon fill="#191970" stroke="#191970" points="625.9025,-50.8787 615.5206,-52.992 624.9544,-57.8142 625.9025,-50.8787"/>
</g>
<!-- Node18 -->
<g id="node18" class="node">
<title>Node18</title>
<g id="a_node18"><a xlink:href="classXCS.html#ad32ffc841106ec036029e4c90a33b761" target="_top" xlink:title="XCS::score">
<polygon fill="none" stroke="#000000" points="545,-.5 545,-19.5 613,-19.5 613,-.5 545,-.5"/>
<text text-anchor="middle" x="579" y="-7.5" font-family="Helvetica,sans-Serif" font-size="10.00" fill="#000000">XCS::score</text>
</a>
</g>
</g>
<!-- Node17&#45;&gt;Node18 -->
<g id="edge21" class="edge">
<title>Node17&#45;&gt;Node18</title>
<path fill="none" stroke="#191970" d="M479.7215,-10C500.4707,-10 525.0715,-10 544.5932,-10"/>
<polygon fill="#191970" stroke="#191970" points="479.5777,-6.5001 469.5777,-10 479.5776,-13.5001 479.5777,-6.5001"/>
</g>
<!-- Node18&#45;&gt;Node9 -->
<g id="edge22" class="edge">
<title>Node18&#45;&gt;Node9</title>
<path fill="none" stroke="#191970" d="M617.0214,-22.936C622.4118,-24.8981 627.8648,-26.9527 633,-29 655.5228,-37.9793 680.8341,-49.4822 697.9336,-57.4686"/>
<polygon fill="#191970" stroke="#191970" points="618.0633,-19.5916 607.4686,-19.5256 615.7097,-26.1841 618.0633,-19.5916"/>
</g>
</g>
</svg>
