<?xml version="1.0" encoding="UTF-8" standalone="no"?>
<!DOCTYPE svg PUBLIC "-//W3C//DTD SVG 1.1//EN"
 "http://www.w3.org/Graphics/SVG/1.1/DTD/svg11.dtd">
<!-- Generated by graphviz version 2.40.1 (20161225.0304)
 -->
<!-- Title: cond_neural_init Pages: 1 -->
<svg width="818pt" height="142pt"
 viewBox="0.00 0.00 818.00 142.00" xmlns="http://www.w3.org/2000/svg" xmlns:xlink="http://www.w3.org/1999/xlink">
<g id="graph0" class="graph" transform="scale(1 1) rotate(0) translate(4 138)">
<title>cond_neural_init</title>
<!-- Node24 -->
<g id="node1" class="node">
<title>Node24</title>
<polygon fill="#bfbfbf" stroke="#000000" points="0,-57.5 0,-76.5 87,-76.5 87,-57.5 0,-57.5"/>
<text text-anchor="middle" x="43.5" y="-64.5" font-family="Helvetica,sans-Serif" font-size="10.00" fill="#000000">cond_neural_init</text>
</g>
<!-- Node25 -->
<g id="node2" class="node">
<title>Node25</title>
<g id="a_node2"><a xlink:href="cond__neural_8c.html#a1e18b3a8ea6760223101df8327b5444d" target="_top" xlink:title="cond_neural_lopt">
<polygon fill="none" stroke="#000000" points="146.5,-114.5 146.5,-133.5 236.5,-133.5 236.5,-114.5 146.5,-114.5"/>
<text text-anchor="middle" x="191.5" y="-121.5" font-family="Helvetica,sans-Serif" font-size="10.00" fill="#000000">cond_neural_lopt</text>
</a>
</g>
</g>
<!-- Node24&#45;&gt;Node25 -->
<g id="edge1" class="edge">
<title>Node24&#45;&gt;Node25</title>
<path fill="none" stroke="#191970" d="M61.1074,-76.519C76.9646,-84.8232 101.0802,-96.7937 123,-105 129.29,-107.3549 136.0014,-109.5672 142.6708,-111.5911"/>
<polygon fill="#191970" stroke="#191970" points="141.778,-114.9765 152.358,-114.4163 143.7379,-108.2564 141.778,-114.9765"/>
</g>
<!-- Node26 -->
<g id="node3" class="node">
<title>Node26</title>
<g id="a_node3"><a xlink:href="neural_8c.html#a89a8b1cf58b3c2abe700d9e602e13c8e" target="_top" xlink:title="Initialises an empty neural network. ">
<polygon fill="none" stroke="#000000" points="161,-76.5 161,-95.5 222,-95.5 222,-76.5 161,-76.5"/>
<text text-anchor="middle" x="191.5" y="-83.5" font-family="Helvetica,sans-Serif" font-size="10.00" fill="#000000">neural_init</text>
</a>
</g>
</g>
<!-- Node24&#45;&gt;Node26 -->
<g id="edge2" class="edge">
<title>Node24&#45;&gt;Node26</title>
<path fill="none" stroke="#191970" d="M87.1044,-72.5979C107.2899,-75.1892 131.1274,-78.2495 150.9245,-80.791"/>
<polygon fill="#191970" stroke="#191970" points="150.5037,-84.2656 160.868,-82.0675 151.3951,-77.3226 150.5037,-84.2656"/>
</g>
<!-- Node27 -->
<g id="node4" class="node">
<title>Node27</title>
<g id="a_node4"><a xlink:href="neural__layer__connected_8c.html#adcf59226c12296224d675cfb28892039" target="_top" xlink:title="neural_layer_connected_init">
<polygon fill="none" stroke="#000000" points="123,-38.5 123,-57.5 260,-57.5 260,-38.5 123,-38.5"/>
<text text-anchor="middle" x="191.5" y="-45.5" font-family="Helvetica,sans-Serif" font-size="10.00" fill="#000000">neural_layer_connected_init</text>
</a>
</g>
</g>
<!-- Node24&#45;&gt;Node27 -->
<g id="edge3" class="edge">
<title>Node24&#45;&gt;Node27</title>
<path fill="none" stroke="#191970" d="M87.1044,-61.4021C95.282,-60.3523 104.0589,-59.2255 112.9238,-58.0875"/>
<polygon fill="#191970" stroke="#191970" points="113.4697,-61.5462 122.9426,-56.8013 112.5784,-54.6032 113.4697,-61.5462"/>
</g>
<!-- Node34 -->
<g id="node11" class="node">
<title>Node34</title>
<g id="a_node11"><a xlink:href="neural_8c.html#a6217c5bc4bdba93832cb4d8aa6c64d51" target="_top" xlink:title="Inserts a layer into a neural network. ">
<polygon fill="none" stroke="#000000" points="142.5,-.5 142.5,-19.5 240.5,-19.5 240.5,-.5 142.5,-.5"/>
<text text-anchor="middle" x="191.5" y="-7.5" font-family="Helvetica,sans-Serif" font-size="10.00" fill="#000000">neural_layer_insert</text>
</a>
</g>
</g>
<!-- Node24&#45;&gt;Node34 -->
<g id="edge11" class="edge">
<title>Node24&#45;&gt;Node34</title>
<path fill="none" stroke="#191970" d="M61.1074,-57.481C76.9646,-49.1768 101.0802,-37.2063 123,-29 129.29,-26.6451 136.0014,-24.4328 142.6708,-22.4089"/>
<polygon fill="#191970" stroke="#191970" points="143.7379,-25.7436 152.358,-19.5837 141.778,-19.0235 143.7379,-25.7436"/>
</g>
<!-- Node28 -->
<g id="node5" class="node">
<title>Node28</title>
<g id="a_node5"><a xlink:href="utils_8c.html#aa57fc0f69e730ce0a348c25ee498643d" target="_top" xlink:title="Returns a normal random float with specified mean and standard deviation. ">
<polygon fill="none" stroke="#000000" points="297.5,-57.5 297.5,-76.5 367.5,-76.5 367.5,-57.5 297.5,-57.5"/>
<text text-anchor="middle" x="332.5" y="-64.5" font-family="Helvetica,sans-Serif" font-size="10.00" fill="#000000">rand_normal</text>
</a>
</g>
</g>
<!-- Node27&#45;&gt;Node28 -->
<g id="edge4" class="edge">
<title>Node27&#45;&gt;Node28</title>
<path fill="none" stroke="#191970" d="M260.3478,-57.2774C269.4924,-58.5096 278.6741,-59.7469 287.277,-60.9061"/>
<polygon fill="#191970" stroke="#191970" points="287.0644,-64.409 297.4422,-62.2759 287.9992,-57.4717 287.0644,-64.409"/>
</g>
<!-- Node33 -->
<g id="node10" class="node">
<title>Node33</title>
<g id="a_node10"><a xlink:href="utils_8c.html#ae42a9e1d467853befaa7922cfafed3bb" target="_top" xlink:title="Returns a uniform random float [min,max]. ">
<polygon fill="none" stroke="#000000" points="296,-19.5 296,-38.5 369,-38.5 369,-19.5 296,-19.5"/>
<text text-anchor="middle" x="332.5" y="-26.5" font-family="Helvetica,sans-Serif" font-size="10.00" fill="#000000">rand_uniform</text>
</a>
</g>
</g>
<!-- Node27&#45;&gt;Node33 -->
<g id="edge9" class="edge">
<title>Node27&#45;&gt;Node33</title>
<path fill="none" stroke="#191970" d="M260.3478,-38.7226C268.9987,-37.5569 277.6828,-36.3867 285.8787,-35.2823"/>
<polygon fill="#191970" stroke="#191970" points="286.5168,-38.728 295.9597,-33.9239 285.5819,-31.7907 286.5168,-38.728"/>
</g>
<!-- Node29 -->
<g id="node6" class="node">
<title>Node29</title>
<g id="a_node6"><a xlink:href="utils_8c.html#a101d27cdda714b7f17a06224c65cac56" target="_top" xlink:title="Returns a uniform random float [0,1]. ">
<polygon fill="none" stroke="#000000" points="405,-38.5 405,-57.5 446,-57.5 446,-38.5 405,-38.5"/>
<text text-anchor="middle" x="425.5" y="-45.5" font-family="Helvetica,sans-Serif" font-size="10.00" fill="#000000">drand</text>
</a>
</g>
</g>
<!-- Node28&#45;&gt;Node29 -->
<g id="edge5" class="edge">
<title>Node28&#45;&gt;Node29</title>
<path fill="none" stroke="#191970" d="M367.6593,-59.8169C376.5821,-57.994 386.0982,-56.0498 394.7814,-54.2759"/>
<polygon fill="#191970" stroke="#191970" points="395.7669,-57.6469 404.8639,-52.216 394.3657,-50.7886 395.7669,-57.6469"/>
</g>
<!-- Node30 -->
<g id="node7" class="node">
<title>Node30</title>
<g id="a_node7"><a xlink:href="mt19937-64_8c.html#aa0b74daf51eca91df224d00f1730084a" target="_top" xlink:title="genrand64_real1">
<polygon fill="none" stroke="#000000" points="482,-38.5 482,-57.5 570,-57.5 570,-38.5 482,-38.5"/>
<text text-anchor="middle" x="526" y="-45.5" font-family="Helvetica,sans-Serif" font-size="10.00" fill="#000000">genrand64_real1</text>
</a>
</g>
</g>
<!-- Node29&#45;&gt;Node30 -->
<g id="edge6" class="edge">
<title>Node29&#45;&gt;Node30</title>
<path fill="none" stroke="#191970" d="M446.3237,-48C453.8428,-48 462.7193,-48 471.769,-48"/>
<polygon fill="#191970" stroke="#191970" points="471.9969,-51.5001 481.9969,-48 471.9969,-44.5001 471.9969,-51.5001"/>
</g>
<!-- Node31 -->
<g id="node8" class="node">
<title>Node31</title>
<g id="a_node8"><a xlink:href="mt19937-64_8c.html#a265bf48d20d6e0347371fcf4fe340e6d" target="_top" xlink:title="genrand64_int64">
<polygon fill="none" stroke="#000000" points="606,-38.5 606,-57.5 694,-57.5 694,-38.5 606,-38.5"/>
<text text-anchor="middle" x="650" y="-45.5" font-family="Helvetica,sans-Serif" font-size="10.00" fill="#000000">genrand64_int64</text>
</a>
</g>
</g>
<!-- Node30&#45;&gt;Node31 -->
<g id="edge7" class="edge">
<title>Node30&#45;&gt;Node31</title>
<path fill="none" stroke="#191970" d="M570.0669,-48C578.2822,-48 586.957,-48 595.4432,-48"/>
<polygon fill="#191970" stroke="#191970" points="595.6572,-51.5001 605.6572,-48 595.6572,-44.5001 595.6572,-51.5001"/>
</g>
<!-- Node32 -->
<g id="node9" class="node">
<title>Node32</title>
<g id="a_node9"><a xlink:href="mt19937-64_8c.html#adf4127d44c2dc34fcb318d406131ef7c" target="_top" xlink:title="init_genrand64">
<polygon fill="none" stroke="#000000" points="730,-38.5 730,-57.5 810,-57.5 810,-38.5 730,-38.5"/>
<text text-anchor="middle" x="770" y="-45.5" font-family="Helvetica,sans-Serif" font-size="10.00" fill="#000000">init_genrand64</text>
</a>
</g>
</g>
<!-- Node31&#45;&gt;Node32 -->
<g id="edge8" class="edge">
<title>Node31&#45;&gt;Node32</title>
<path fill="none" stroke="#191970" d="M694.0022,-48C702.3719,-48 711.1896,-48 719.7365,-48"/>
<polygon fill="#191970" stroke="#191970" points="719.9792,-51.5001 729.9792,-48 719.9792,-44.5001 719.9792,-51.5001"/>
</g>
<!-- Node33&#45;&gt;Node29 -->
<g id="edge10" class="edge">
<title>Node33&#45;&gt;Node29</title>
<path fill="none" stroke="#191970" d="M369.2561,-36.5093C377.7524,-38.2451 386.7031,-40.0738 394.9036,-41.7491"/>
<polygon fill="#191970" stroke="#191970" points="394.3007,-45.1982 404.7989,-43.7707 395.7019,-38.3398 394.3007,-45.1982"/>
</g>
</g>
</svg>
