<?xml version="1.0" encoding="UTF-8" standalone="no"?>
<!DOCTYPE svg PUBLIC "-//W3C//DTD SVG 1.1//EN"
 "http://www.w3.org/Graphics/SVG/1.1/DTD/svg11.dtd">
<!-- Generated by graphviz version 2.40.1 (20161225.0304)
 -->
<!-- Title: /home/unknown/work/current/xcsf/xcsf/condition.c Pages: 1 -->
<svg width="1283pt" height="95pt"
 viewBox="0.00 0.00 1283.00 95.00" xmlns="http://www.w3.org/2000/svg" xmlns:xlink="http://www.w3.org/1999/xlink">
<g id="graph0" class="graph" transform="scale(1 1) rotate(0) translate(4 91)">
<title>/home/unknown/work/current/xcsf/xcsf/condition.c</title>
<!-- Node0 -->
<g id="node1" class="node">
<title>Node0</title>
<polygon fill="#bfbfbf" stroke="#000000" points="500.5,-56.5 500.5,-86.5 643.5,-86.5 643.5,-56.5 500.5,-56.5"/>
<text text-anchor="start" x="508.5" y="-74.5" font-family="Helvetica,sans-Serif" font-size="10.00" fill="#000000">/home/unknown/work</text>
<text text-anchor="middle" x="572" y="-63.5" font-family="Helvetica,sans-Serif" font-size="10.00" fill="#000000">/current/xcsf/xcsf/condition.c</text>
</g>
<!-- Node1 -->
<g id="node2" class="node">
<title>Node1</title>
<polygon fill="none" stroke="#bfbfbf" points="0,-.5 0,-19.5 46,-19.5 46,-.5 0,-.5"/>
<text text-anchor="middle" x="23" y="-7.5" font-family="Helvetica,sans-Serif" font-size="10.00" fill="#000000">stdio.h</text>
</g>
<!-- Node0&#45;&gt;Node1 -->
<g id="edge1" class="edge">
<title>Node0&#45;&gt;Node1</title>
<path fill="none" stroke="#191970" d="M500.2289,-68.9631C401.8189,-64.4646 219.5501,-52.4836 56.4911,-19.9463"/>
<polygon fill="#191970" stroke="#191970" points="56.7713,-16.432 46.2753,-17.8754 55.3806,-23.2925 56.7713,-16.432"/>
</g>
<!-- Node2 -->
<g id="node3" class="node">
<title>Node2</title>
<polygon fill="none" stroke="#bfbfbf" points="64,-.5 64,-19.5 112,-19.5 112,-.5 64,-.5"/>
<text text-anchor="middle" x="88" y="-7.5" font-family="Helvetica,sans-Serif" font-size="10.00" fill="#000000">stdlib.h</text>
</g>
<!-- Node0&#45;&gt;Node2 -->
<g id="edge2" class="edge">
<title>Node0&#45;&gt;Node2</title>
<path fill="none" stroke="#191970" d="M500.287,-67.3192C412.8782,-61.3293 260.6952,-48.0194 121.984,-19.8787"/>
<polygon fill="#191970" stroke="#191970" points="122.5217,-16.416 112.0212,-17.8268 121.1096,-23.2721 122.5217,-16.416"/>
</g>
<!-- Node3 -->
<g id="node4" class="node">
<title>Node3</title>
<polygon fill="none" stroke="#bfbfbf" points="130.5,-.5 130.5,-19.5 179.5,-19.5 179.5,-.5 130.5,-.5"/>
<text text-anchor="middle" x="155" y="-7.5" font-family="Helvetica,sans-Serif" font-size="10.00" fill="#000000">string.h</text>
</g>
<!-- Node0&#45;&gt;Node3 -->
<g id="edge3" class="edge">
<title>Node0&#45;&gt;Node3</title>
<path fill="none" stroke="#191970" d="M500.1462,-65.1381C424.9503,-57.7365 303.412,-43.6768 189.6927,-19.8665"/>
<polygon fill="#191970" stroke="#191970" points="190.2796,-16.4131 179.7707,-17.7597 188.8256,-23.2605 190.2796,-16.4131"/>
</g>
<!-- Node4 -->
<g id="node5" class="node">
<title>Node4</title>
<polygon fill="none" stroke="#bfbfbf" points="198,-.5 198,-19.5 254,-19.5 254,-.5 198,-.5"/>
<text text-anchor="middle" x="226" y="-7.5" font-family="Helvetica,sans-Serif" font-size="10.00" fill="#000000">stdbool.h</text>
</g>
<!-- Node0&#45;&gt;Node4 -->
<g id="edge4" class="edge">
<title>Node0&#45;&gt;Node4</title>
<path fill="none" stroke="#191970" d="M500.435,-61.6218C439.8942,-52.7966 350.6894,-38.6956 264.1974,-20.1025"/>
<polygon fill="#191970" stroke="#191970" points="264.7264,-16.6358 254.2112,-17.9328 263.2401,-23.4762 264.7264,-16.6358"/>
</g>
<!-- Node5 -->
<g id="node6" class="node">
<title>Node5</title>
<g id="a_node6"><a xlink:href="xcsf_8h.html" target="_top" xlink:title="XCSF data structures. ">
<polygon fill="none" stroke="#000000" points="272,-.5 272,-19.5 316,-19.5 316,-.5 272,-.5"/>
<text text-anchor="middle" x="294" y="-7.5" font-family="Helvetica,sans-Serif" font-size="10.00" fill="#000000">xcsf.h</text>
</a>
</g>
</g>
<!-- Node0&#45;&gt;Node5 -->
<g id="edge5" class="edge">
<title>Node0&#45;&gt;Node5</title>
<path fill="none" stroke="#191970" d="M500.4592,-58.6731C453.3105,-49.7356 390.077,-36.8334 326.1203,-20.103"/>
<polygon fill="#191970" stroke="#191970" points="326.8296,-16.6703 316.2671,-17.4962 325.0392,-23.4375 326.8296,-16.6703"/>
</g>
<!-- Node6 -->
<g id="node7" class="node">
<title>Node6</title>
<g id="a_node7"><a xlink:href="utils_8h.html" target="_top" xlink:title="Utility functions for random number handling, etc. ">
<polygon fill="none" stroke="#000000" points="334.5,-.5 334.5,-19.5 377.5,-19.5 377.5,-.5 334.5,-.5"/>
<text text-anchor="middle" x="356" y="-7.5" font-family="Helvetica,sans-Serif" font-size="10.00" fill="#000000">utils.h</text>
</a>
</g>
</g>
<!-- Node0&#45;&gt;Node6 -->
<g id="edge6" class="edge">
<title>Node0&#45;&gt;Node6</title>
<path fill="none" stroke="#191970" d="M515.5612,-56.4262C481.1274,-47.0824 436.0094,-34.5797 387.4095,-20.0405"/>
<polygon fill="#191970" stroke="#191970" points="388.2295,-16.6323 377.6452,-17.1058 386.2146,-23.3361 388.2295,-16.6323"/>
</g>
<!-- Node7 -->
<g id="node8" class="node">
<title>Node7</title>
<g id="a_node8"><a xlink:href="condition_8h.html" target="_top" xlink:title="Interface for classifier conditions. ">
<polygon fill="none" stroke="#000000" points="396,-.5 396,-19.5 460,-19.5 460,-.5 396,-.5"/>
<text text-anchor="middle" x="428" y="-7.5" font-family="Helvetica,sans-Serif" font-size="10.00" fill="#000000">condition.h</text>
</a>
</g>
</g>
<!-- Node0&#45;&gt;Node7 -->
<g id="edge7" class="edge">
<title>Node0&#45;&gt;Node7</title>
<path fill="none" stroke="#191970" d="M536.7736,-56.4554C513.1684,-46.374 482.3546,-33.2139 459.5524,-23.4755"/>
<polygon fill="#191970" stroke="#191970" points="460.886,-20.2393 450.3149,-19.5303 458.1366,-26.6767 460.886,-20.2393"/>
</g>
<!-- Node8 -->
<g id="node9" class="node">
<title>Node8</title>
<g id="a_node9"><a xlink:href="cond__dummy_8h.html" target="_top" xlink:title="Always&#45;matching dummy condition functions. ">
<polygon fill="none" stroke="#000000" points="478.5,-.5 478.5,-19.5 561.5,-19.5 561.5,-.5 478.5,-.5"/>
<text text-anchor="middle" x="520" y="-7.5" font-family="Helvetica,sans-Serif" font-size="10.00" fill="#000000">cond_dummy.h</text>
</a>
</g>
</g>
<!-- Node0&#45;&gt;Node8 -->
<g id="edge8" class="edge">
<title>Node0&#45;&gt;Node8</title>
<path fill="none" stroke="#191970" d="M559.1461,-56.2977C551.7776,-47.5831 542.4974,-36.6075 534.8223,-27.5302"/>
<polygon fill="#191970" stroke="#191970" points="537.4552,-25.2233 528.3259,-19.8469 532.1098,-29.743 537.4552,-25.2233"/>
</g>
<!-- Node9 -->
<g id="node10" class="node">
<title>Node9</title>
<g id="a_node10"><a xlink:href="cond__rectangle_8h.html" target="_top" xlink:title="Hyperrectangle condition functions. ">
<polygon fill="none" stroke="#000000" points="579.5,-.5 579.5,-19.5 670.5,-19.5 670.5,-.5 579.5,-.5"/>
<text text-anchor="middle" x="625" y="-7.5" font-family="Helvetica,sans-Serif" font-size="10.00" fill="#000000">cond_rectangle.h</text>
</a>
</g>
</g>
<!-- Node0&#45;&gt;Node9 -->
<g id="edge9" class="edge">
<title>Node0&#45;&gt;Node9</title>
<path fill="none" stroke="#191970" d="M585.1011,-56.2977C592.6113,-47.5831 602.07,-36.6075 609.8927,-27.5302"/>
<polygon fill="#191970" stroke="#191970" points="612.6371,-29.707 616.514,-19.8469 607.3345,-25.1372 612.6371,-29.707"/>
</g>
<!-- Node10 -->
<g id="node11" class="node">
<title>Node10</title>
<g id="a_node11"><a xlink:href="cond__ellipsoid_8h.html" target="_top" xlink:title="Hyperellipsoid condition functions. ">
<polygon fill="none" stroke="#000000" points="689,-.5 689,-19.5 775,-19.5 775,-.5 689,-.5"/>
<text text-anchor="middle" x="732" y="-7.5" font-family="Helvetica,sans-Serif" font-size="10.00" fill="#000000">cond_ellipsoid.h</text>
</a>
</g>
</g>
<!-- Node0&#45;&gt;Node10 -->
<g id="edge10" class="edge">
<title>Node0&#45;&gt;Node10</title>
<path fill="none" stroke="#191970" d="M611.1404,-56.4554C637.6026,-46.284 672.2181,-32.9787 697.6183,-23.2155"/>
<polygon fill="#191970" stroke="#191970" points="699.1272,-26.3852 707.2057,-19.5303 696.6157,-19.8512 699.1272,-26.3852"/>
</g>
<!-- Node11 -->
<g id="node12" class="node">
<title>Node11</title>
<g id="a_node12"><a xlink:href="cond__gp_8h.html" target="_top" xlink:title="Tree GP condition functions. ">
<polygon fill="none" stroke="#000000" points="793,-.5 793,-19.5 855,-19.5 855,-.5 793,-.5"/>
<text text-anchor="middle" x="824" y="-7.5" font-family="Helvetica,sans-Serif" font-size="10.00" fill="#000000">cond_gp.h</text>
</a>
</g>
</g>
<!-- Node0&#45;&gt;Node11 -->
<g id="edge11" class="edge">
<title>Node0&#45;&gt;Node11</title>
<path fill="none" stroke="#191970" d="M634.6422,-56.3987C674.4708,-46.7702 727.3985,-33.9259 782.9617,-20.2453"/>
<polygon fill="#191970" stroke="#191970" points="784.1241,-23.5637 792.9962,-17.7726 782.4492,-16.767 784.1241,-23.5637"/>
</g>
<!-- Node12 -->
<g id="node13" class="node">
<title>Node12</title>
<g id="a_node13"><a xlink:href="cond__dgp_8h.html" target="_top" xlink:title="Dynamical GP graph condition functions. ">
<polygon fill="none" stroke="#000000" points="873.5,-.5 873.5,-19.5 940.5,-19.5 940.5,-.5 873.5,-.5"/>
<text text-anchor="middle" x="907" y="-7.5" font-family="Helvetica,sans-Serif" font-size="10.00" fill="#000000">cond_dgp.h</text>
</a>
</g>
</g>
<!-- Node0&#45;&gt;Node12 -->
<g id="edge12" class="edge">
<title>Node0&#45;&gt;Node12</title>
<path fill="none" stroke="#191970" d="M643.6055,-59.9779C700.5298,-50.5632 782.4062,-36.4566 863.3693,-20.0458"/>
<polygon fill="#191970" stroke="#191970" points="864.1378,-23.4612 873.2366,-18.0332 862.7388,-16.6024 864.1378,-23.4612"/>
</g>
<!-- Node13 -->
<g id="node14" class="node">
<title>Node13</title>
<g id="a_node14"><a xlink:href="cond__neural_8h.html" target="_top" xlink:title="Multi&#45;layer perceptron neural network condition functions. ">
<polygon fill="none" stroke="#000000" points="958.5,-.5 958.5,-19.5 1035.5,-19.5 1035.5,-.5 958.5,-.5"/>
<text text-anchor="middle" x="997" y="-7.5" font-family="Helvetica,sans-Serif" font-size="10.00" fill="#000000">cond_neural.h</text>
</a>
</g>
</g>
<!-- Node0&#45;&gt;Node13 -->
<g id="edge13" class="edge">
<title>Node0&#45;&gt;Node13</title>
<path fill="none" stroke="#191970" d="M643.6555,-63.3442C717.6299,-54.5606 836.5873,-39.424 948.2286,-20.2185"/>
<polygon fill="#191970" stroke="#191970" points="949.061,-23.6264 958.3155,-18.4685 947.8644,-16.7295 949.061,-23.6264"/>
</g>
<!-- Node14 -->
<g id="node15" class="node">
<title>Node14</title>
<g id="a_node15"><a xlink:href="action_8h.html" target="_top" xlink:title="Interface for classifier actions. ">
<polygon fill="none" stroke="#000000" points="1053.5,-.5 1053.5,-19.5 1104.5,-19.5 1104.5,-.5 1053.5,-.5"/>
<text text-anchor="middle" x="1079" y="-7.5" font-family="Helvetica,sans-Serif" font-size="10.00" fill="#000000">action.h</text>
</a>
</g>
</g>
<!-- Node0&#45;&gt;Node14 -->
<g id="edge14" class="edge">
<title>Node0&#45;&gt;Node14</title>
<path fill="none" stroke="#191970" d="M643.5195,-67.6779C734.5842,-61.9293 896.7691,-48.7372 1043.0712,-20.1209"/>
<polygon fill="#191970" stroke="#191970" points="1044.0028,-23.5043 1053.1297,-18.1238 1042.6395,-16.6383 1044.0028,-23.5043"/>
</g>
<!-- Node15 -->
<g id="node16" class="node">
<title>Node15</title>
<g id="a_node16"><a xlink:href="rule__dgp_8h.html" target="_top" xlink:title="Dynamical GP graph rule (condition + action) functions. ">
<polygon fill="none" stroke="#000000" points="1123,-.5 1123,-19.5 1185,-19.5 1185,-.5 1123,-.5"/>
<text text-anchor="middle" x="1154" y="-7.5" font-family="Helvetica,sans-Serif" font-size="10.00" fill="#000000">rule_dgp.h</text>
</a>
</g>
</g>
<!-- Node0&#45;&gt;Node15 -->
<g id="edge15" class="edge">
<title>Node0&#45;&gt;Node15</title>
<path fill="none" stroke="#191970" d="M643.9098,-68.1115C746.1577,-62.5305 939.4696,-49.1624 1112.593,-20.0249"/>
<polygon fill="#191970" stroke="#191970" points="1113.3821,-23.441 1122.6517,-18.3102 1112.2057,-16.5405 1113.3821,-23.441"/>
</g>
<!-- Node16 -->
<g id="node17" class="node">
<title>Node16</title>
<g id="a_node17"><a xlink:href="rule__neural_8h.html" target="_top" xlink:title="Neural network rule (condition + action) functions. ">
<polygon fill="none" stroke="#000000" points="1203,-.5 1203,-19.5 1275,-19.5 1275,-.5 1203,-.5"/>
<text text-anchor="middle" x="1239" y="-7.5" font-family="Helvetica,sans-Serif" font-size="10.00" fill="#000000">rule_neural.h</text>
</a>
</g>
</g>
<!-- Node0&#45;&gt;Node16 -->
<g id="edge16" class="edge">
<title>Node0&#45;&gt;Node16</title>
<path fill="none" stroke="#191970" d="M643.7307,-68.7341C758.0072,-63.6285 988.4992,-50.475 1192.7186,-20.0149"/>
<polygon fill="#191970" stroke="#191970" points="1193.3645,-23.4572 1202.7304,-18.5044 1192.3201,-16.5355 1193.3645,-23.4572"/>
</g>
</g>
</svg>
