<?xml version="1.0" encoding="UTF-8" standalone="no"?>
<!DOCTYPE svg PUBLIC "-//W3C//DTD SVG 1.1//EN"
 "http://www.w3.org/Graphics/SVG/1.1/DTD/svg11.dtd">
<!-- Generated by graphviz version 2.40.1 (20161225.0304)
 -->
<!-- Title: cond_update Pages: 1 -->
<svg width="950pt" height="192pt"
 viewBox="0.00 0.00 950.00 192.06" xmlns="http://www.w3.org/2000/svg" xmlns:xlink="http://www.w3.org/1999/xlink">
<g id="graph0" class="graph" transform="scale(1 1) rotate(0) translate(4 188.0566)">
<title>cond_update</title>
<!-- Node256 -->
<g id="node1" class="node">
<title>Node256</title>
<polygon fill="#bfbfbf" stroke="#000000" points="0,-67.5 0,-86.5 72,-86.5 72,-67.5 0,-67.5"/>
<text text-anchor="middle" x="36" y="-74.5" font-family="Helvetica,sans-Serif" font-size="10.00" fill="#000000">cond_update</text>
</g>
<!-- Node257 -->
<g id="node2" class="node">
<title>Node257</title>
<g id="a_node2"><a xlink:href="cl_8h.html#ae53336b60c1a03b8faa06c11979ce91e" target="_top" xlink:title="Updates the classifier&#39;s parameters as well as condition, action, and prediction depending on the kno...">
<polygon fill="none" stroke="#000000" points="108,-67.5 108,-86.5 167,-86.5 167,-67.5 108,-67.5"/>
<text text-anchor="middle" x="137.5" y="-74.5" font-family="Helvetica,sans-Serif" font-size="10.00" fill="#000000">cl_update</text>
</a>
</g>
</g>
<!-- Node256&#45;&gt;Node257 -->
<g id="edge1" class="edge">
<title>Node256&#45;&gt;Node257</title>
<path fill="none" stroke="#191970" d="M82.184,-77C90.9237,-77 99.8454,-77 107.9012,-77"/>
<polygon fill="#191970" stroke="#191970" points="82.0709,-73.5001 72.0709,-77 82.0709,-80.5001 82.0709,-73.5001"/>
</g>
<!-- Node258 -->
<g id="node3" class="node">
<title>Node258</title>
<g id="a_node3"><a xlink:href="cl__set_8h.html#a0993c66e2751530b39449164017d6654" target="_top" xlink:title="Provides reinforcement to the set and performs set subsumption. ">
<polygon fill="none" stroke="#000000" points="203,-67.5 203,-86.5 268,-86.5 268,-67.5 203,-67.5"/>
<text text-anchor="middle" x="235.5" y="-74.5" font-family="Helvetica,sans-Serif" font-size="10.00" fill="#000000">set_update</text>
</a>
</g>
</g>
<!-- Node257&#45;&gt;Node258 -->
<g id="edge2" class="edge">
<title>Node257&#45;&gt;Node258</title>
<path fill="none" stroke="#191970" d="M177.2748,-77C185.7751,-77 194.6596,-77 202.8547,-77"/>
<polygon fill="#191970" stroke="#191970" points="177.1692,-73.5001 167.1692,-77 177.1691,-80.5001 177.1692,-73.5001"/>
</g>
<!-- Node259 -->
<g id="node4" class="node">
<title>Node259</title>
<g id="a_node4"><a xlink:href="xcs__multi__step_8c.html#a1e1c2a3094be715b468dda79cd59ebf3" target="_top" xlink:title="Executes a multi&#45;step trial using a built&#45;in environment. ">
<polygon fill="none" stroke="#000000" points="313,-10.5 313,-29.5 393,-29.5 393,-10.5 313,-10.5"/>
<text text-anchor="middle" x="353" y="-17.5" font-family="Helvetica,sans-Serif" font-size="10.00" fill="#000000">xcs_multi_trial</text>
</a>
</g>
</g>
<!-- Node258&#45;&gt;Node259 -->
<g id="edge3" class="edge">
<title>Node258&#45;&gt;Node259</title>
<path fill="none" stroke="#191970" d="M264.4363,-62.9628C285.8441,-52.5778 314.4376,-38.7069 333.269,-29.5716"/>
<polygon fill="#191970" stroke="#191970" points="262.6365,-59.9458 255.1669,-67.4595 265.6917,-66.2438 262.6365,-59.9458"/>
</g>
<!-- Node263 -->
<g id="node8" class="node">
<title>Node263</title>
<g id="a_node8"><a xlink:href="xcs__single__step_8h.html#aff4aec035e4573993a7906569f2028f5" target="_top" xlink:title="Creates the action set, updates the classifiers and runs the EA. ">
<polygon fill="none" stroke="#000000" points="304,-67.5 304,-86.5 402,-86.5 402,-67.5 304,-67.5"/>
<text text-anchor="middle" x="353" y="-74.5" font-family="Helvetica,sans-Serif" font-size="10.00" fill="#000000">xcs_single_update</text>
</a>
</g>
</g>
<!-- Node258&#45;&gt;Node263 -->
<g id="edge7" class="edge">
<title>Node258&#45;&gt;Node263</title>
<path fill="none" stroke="#191970" d="M278.3769,-77C286.6204,-77 295.3146,-77 303.7413,-77"/>
<polygon fill="#191970" stroke="#191970" points="278.2303,-73.5001 268.2303,-77 278.2303,-80.5001 278.2303,-73.5001"/>
</g>
<!-- Node268 -->
<g id="node13" class="node">
<title>Node268</title>
<g id="a_node13"><a xlink:href="xcsf_8c.html#a474f4e13cfc5f00958c689cd8c81135a" target="_top" xlink:title="Executes a single XCSF learning trial. ">
<polygon fill="none" stroke="#000000" points="311.5,-114.5 311.5,-133.5 394.5,-133.5 394.5,-114.5 311.5,-114.5"/>
<text text-anchor="middle" x="353" y="-121.5" font-family="Helvetica,sans-Serif" font-size="10.00" fill="#000000">xcsf_learn_trial</text>
</a>
</g>
</g>
<!-- Node258&#45;&gt;Node268 -->
<g id="edge13" class="edge">
<title>Node258&#45;&gt;Node268</title>
<path fill="none" stroke="#191970" d="M268.8157,-90.3263C287.9397,-97.9759 311.5196,-107.4078 328.8542,-114.3417"/>
<polygon fill="#191970" stroke="#191970" points="269.8625,-86.9754 259.2779,-86.5112 267.2628,-93.4748 269.8625,-86.9754"/>
</g>
<!-- Node260 -->
<g id="node5" class="node">
<title>Node260</title>
<g id="a_node5"><a xlink:href="xcs__multi__step_8h.html#acc29d4a55dbd56c16ea5f19f15a7c677" target="_top" xlink:title="Executes a multi&#45;step reinforcement learning experiment. ">
<polygon fill="none" stroke="#000000" points="580,-.5 580,-19.5 684,-19.5 684,-.5 580,-.5"/>
<text text-anchor="middle" x="632" y="-7.5" font-family="Helvetica,sans-Serif" font-size="10.00" fill="#000000">xcs_multi_step_exp</text>
</a>
</g>
</g>
<!-- Node259&#45;&gt;Node260 -->
<g id="edge4" class="edge">
<title>Node259&#45;&gt;Node260</title>
<path fill="none" stroke="#191970" d="M403.5047,-18.1898C453.4046,-16.4013 529.3872,-13.6779 579.8508,-11.8691"/>
<polygon fill="#191970" stroke="#191970" points="403.1392,-14.7006 393.271,-18.5566 403.39,-21.6961 403.1392,-14.7006"/>
</g>
<!-- Node261 -->
<g id="node6" class="node">
<title>Node261</title>
<g id="a_node6"><a xlink:href="main_8c.html#ab572a67aa431827116ebd6931d667d21" target="_top" xlink:title="classification">
<polygon fill="none" stroke="#000000" points="758,-38.5 758,-57.5 832,-57.5 832,-38.5 758,-38.5"/>
<text text-anchor="middle" x="795" y="-45.5" font-family="Helvetica,sans-Serif" font-size="10.00" fill="#000000">classification</text>
</a>
</g>
</g>
<!-- Node260&#45;&gt;Node261 -->
<g id="edge5" class="edge">
<title>Node260&#45;&gt;Node261</title>
<path fill="none" stroke="#191970" d="M682.8838,-21.8625C707.1266,-27.5142 735.5982,-34.1517 757.7833,-39.3237"/>
<polygon fill="#191970" stroke="#191970" points="683.6653,-18.4509 673.1318,-19.589 682.076,-25.2681 683.6653,-18.4509"/>
</g>
<!-- Node262 -->
<g id="node7" class="node">
<title>Node262</title>
<g id="a_node7"><a xlink:href="main_8c.html#a3c04138a5bfe5d72780bb7e82a18e627" target="_top" xlink:title="main">
<polygon fill="none" stroke="#000000" points="904,-76.5 904,-95.5 942,-95.5 942,-76.5 904,-76.5"/>
<text text-anchor="middle" x="923" y="-83.5" font-family="Helvetica,sans-Serif" font-size="10.00" fill="#000000">main</text>
</a>
</g>
</g>
<!-- Node261&#45;&gt;Node262 -->
<g id="edge6" class="edge">
<title>Node261&#45;&gt;Node262</title>
<path fill="none" stroke="#191970" d="M836.9951,-60.4673C859.5448,-67.1617 886.2443,-75.0882 903.8458,-80.3136"/>
<polygon fill="#191970" stroke="#191970" points="837.8824,-57.0798 827.2998,-57.589 835.8902,-63.7903 837.8824,-57.0798"/>
</g>
<!-- Node264 -->
<g id="node9" class="node">
<title>Node264</title>
<g id="a_node9"><a xlink:href="structXCS.html#aedc01ad6f00a54b260a7605929a1d4c9" target="_top" xlink:title="XCS::single_update">
<polygon fill="none" stroke="#000000" points="438,-76.5 438,-95.5 542,-95.5 542,-76.5 438,-76.5"/>
<text text-anchor="middle" x="490" y="-83.5" font-family="Helvetica,sans-Serif" font-size="10.00" fill="#000000">XCS::single_update</text>
</a>
</g>
</g>
<!-- Node263&#45;&gt;Node264 -->
<g id="edge8" class="edge">
<title>Node263&#45;&gt;Node264</title>
<path fill="none" stroke="#191970" d="M412.2254,-80.8907C420.6549,-81.4445 429.2753,-82.0108 437.5632,-82.5552"/>
<polygon fill="#191970" stroke="#191970" points="412.2811,-77.3869 402.0732,-80.2238 411.8222,-84.3719 412.2811,-77.3869"/>
</g>
<!-- Node266 -->
<g id="node11" class="node">
<title>Node266</title>
<g id="a_node11"><a xlink:href="xcs__single__step_8c.html#a3d1fd2472d35310800aed897219a65af" target="_top" xlink:title="Executes a single&#45;step trial using a built&#45;in environment. ">
<polygon fill="none" stroke="#000000" points="448,-38.5 448,-57.5 532,-57.5 532,-38.5 448,-38.5"/>
<text text-anchor="middle" x="490" y="-45.5" font-family="Helvetica,sans-Serif" font-size="10.00" fill="#000000">xcs_single_trial</text>
</a>
</g>
</g>
<!-- Node263&#45;&gt;Node266 -->
<g id="edge10" class="edge">
<title>Node263&#45;&gt;Node266</title>
<path fill="none" stroke="#191970" d="M408.1285,-65.3305C421.2801,-62.5466 435.1158,-59.6178 447.5935,-56.9766"/>
<polygon fill="#191970" stroke="#191970" points="407.297,-61.9288 398.2386,-67.4239 408.7467,-68.7771 407.297,-61.9288"/>
</g>
<!-- Node265 -->
<g id="node10" class="node">
<title>Node265</title>
<g id="a_node10"><a xlink:href="python__wrapper_8cpp.html#afbdcc1358036a0b83a6b239da2b098a2" target="_top" xlink:title="BOOST_PYTHON_MODULE">
<polygon fill="none" stroke="#000000" points="722,-95.5 722,-114.5 868,-114.5 868,-95.5 722,-95.5"/>
<text text-anchor="middle" x="795" y="-102.5" font-family="Helvetica,sans-Serif" font-size="10.00" fill="#000000">BOOST_PYTHON_MODULE</text>
</a>
</g>
</g>
<!-- Node264&#45;&gt;Node265 -->
<g id="edge9" class="edge">
<title>Node264&#45;&gt;Node265</title>
<path fill="none" stroke="#191970" d="M552.2714,-89.8792C601.4614,-92.9435 670.2093,-97.2262 721.9881,-100.4517"/>
<polygon fill="#191970" stroke="#191970" points="552.2831,-86.3732 542.0848,-89.2446 551.8478,-93.3597 552.2831,-86.3732"/>
</g>
<!-- Node267 -->
<g id="node12" class="node">
<title>Node267</title>
<g id="a_node12"><a xlink:href="xcs__single__step_8h.html#a39a031bf59eaa9b33e30e614610dcda8" target="_top" xlink:title="Executes a single&#45;step experiment. ">
<polygon fill="none" stroke="#000000" points="578,-38.5 578,-57.5 686,-57.5 686,-38.5 578,-38.5"/>
<text text-anchor="middle" x="632" y="-45.5" font-family="Helvetica,sans-Serif" font-size="10.00" fill="#000000">xcs_single_step_exp</text>
</a>
</g>
</g>
<!-- Node266&#45;&gt;Node267 -->
<g id="edge11" class="edge">
<title>Node266&#45;&gt;Node267</title>
<path fill="none" stroke="#191970" d="M542.551,-48C554.0539,-48 566.2511,-48 577.8166,-48"/>
<polygon fill="#191970" stroke="#191970" points="542.2203,-44.5001 532.2202,-48 542.2202,-51.5001 542.2203,-44.5001"/>
</g>
<!-- Node267&#45;&gt;Node261 -->
<g id="edge12" class="edge">
<title>Node267&#45;&gt;Node261</title>
<path fill="none" stroke="#191970" d="M696.3777,-48C717.2632,-48 739.7197,-48 757.9204,-48"/>
<polygon fill="#191970" stroke="#191970" points="696.2767,-44.5001 686.2766,-48 696.2766,-51.5001 696.2767,-44.5001"/>
</g>
<!-- Node269 -->
<g id="node14" class="node">
<title>Node269</title>
<g id="a_node14"><a xlink:href="xcsf_8h.html#a874829f28fee20f9ad15b540f4b4d6ff" target="_top" xlink:title="Executes MAX_TRIALS number of XCSF learning iterations using the training data. ">
<polygon fill="none" stroke="#000000" points="463,-114.5 463,-133.5 517,-133.5 517,-114.5 463,-114.5"/>
<text text-anchor="middle" x="490" y="-121.5" font-family="Helvetica,sans-Serif" font-size="10.00" fill="#000000">xcsf_fit1</text>
</a>
</g>
</g>
<!-- Node268&#45;&gt;Node269 -->
<g id="edge14" class="edge">
<title>Node268&#45;&gt;Node269</title>
<path fill="none" stroke="#191970" d="M404.9115,-124C424.5628,-124 446.1522,-124 462.6669,-124"/>
<polygon fill="#191970" stroke="#191970" points="404.849,-120.5001 394.8489,-124 404.8489,-127.5001 404.849,-120.5001"/>
</g>
<!-- Node271 -->
<g id="node16" class="node">
<title>Node271</title>
<g id="a_node16"><a xlink:href="xcsf_8h.html#a0b4de57cb9dadc9deca7901aa36e5025" target="_top" xlink:title="Executes MAX_TRIALS number of XCSF learning iterations using the training. data and test iterations u...">
<polygon fill="none" stroke="#000000" points="463,-152.5 463,-171.5 517,-171.5 517,-152.5 463,-152.5"/>
<text text-anchor="middle" x="490" y="-159.5" font-family="Helvetica,sans-Serif" font-size="10.00" fill="#000000">xcsf_fit2</text>
</a>
</g>
</g>
<!-- Node268&#45;&gt;Node271 -->
<g id="edge17" class="edge">
<title>Node268&#45;&gt;Node271</title>
<path fill="none" stroke="#191970" d="M397.4823,-136.3382C419.0016,-142.307 444.1417,-149.2802 462.7797,-154.4498"/>
<polygon fill="#191970" stroke="#191970" points="398.1426,-132.8892 387.5709,-133.589 396.2716,-139.6346 398.1426,-132.8892"/>
</g>
<!-- Node270 -->
<g id="node15" class="node">
<title>Node270</title>
<g id="a_node15"><a xlink:href="structXCS.html#ad2ccafe59d2b4ae6d0e1cbc15edee53c" target="_top" xlink:title="XCS::fit">
<polygon fill="none" stroke="#000000" points="606,-114.5 606,-133.5 658,-133.5 658,-114.5 606,-114.5"/>
<text text-anchor="middle" x="632" y="-121.5" font-family="Helvetica,sans-Serif" font-size="10.00" fill="#000000">XCS::fit</text>
</a>
</g>
</g>
<!-- Node269&#45;&gt;Node270 -->
<g id="edge15" class="edge">
<title>Node269&#45;&gt;Node270</title>
<path fill="none" stroke="#191970" d="M527.1114,-124C551.7321,-124 583.4557,-124 605.538,-124"/>
<polygon fill="#191970" stroke="#191970" points="527.0434,-120.5001 517.0434,-124 527.0433,-127.5001 527.0434,-120.5001"/>
</g>
<!-- Node270&#45;&gt;Node265 -->
<g id="edge16" class="edge">
<title>Node270&#45;&gt;Node265</title>
<path fill="none" stroke="#191970" d="M668.5233,-119.7427C684.2717,-117.907 703.2822,-115.691 721.7251,-113.5412"/>
<polygon fill="#191970" stroke="#191970" points="667.7163,-116.313 658.1888,-120.9473 668.5268,-123.2659 667.7163,-116.313"/>
</g>
<!-- Node272 -->
<g id="node17" class="node">
<title>Node272</title>
<g id="a_node17"><a xlink:href="main_8c.html#a968c78da8ed8ad08662a86280deec99a" target="_top" xlink:title="regression">
<polygon fill="none" stroke="#000000" points="764,-161.5 764,-180.5 826,-180.5 826,-161.5 764,-161.5"/>
<text text-anchor="middle" x="795" y="-168.5" font-family="Helvetica,sans-Serif" font-size="10.00" fill="#000000">regression</text>
</a>
</g>
</g>
<!-- Node271&#45;&gt;Node272 -->
<g id="edge18" class="edge">
<title>Node271&#45;&gt;Node272</title>
<path fill="none" stroke="#191970" d="M526.9242,-171.8011C542.5572,-175.4723 561.0439,-179.1904 578,-181 643.8136,-188.024 721.3751,-180.7177 763.6462,-175.4282"/>
<polygon fill="#191970" stroke="#191970" points="527.6517,-168.376 517.108,-169.4159 525.9988,-175.1781 527.6517,-168.376"/>
</g>
<!-- Node273 -->
<g id="node18" class="node">
<title>Node273</title>
<g id="a_node18"><a xlink:href="structXCS.html#a7d53320740db8e846251bacd0238a9fb" target="_top" xlink:title="XCS::fit">
<polygon fill="none" stroke="#000000" points="606,-152.5 606,-171.5 658,-171.5 658,-152.5 606,-152.5"/>
<text text-anchor="middle" x="632" y="-159.5" font-family="Helvetica,sans-Serif" font-size="10.00" fill="#000000">XCS::fit</text>
</a>
</g>
</g>
<!-- Node271&#45;&gt;Node273 -->
<g id="edge20" class="edge">
<title>Node271&#45;&gt;Node273</title>
<path fill="none" stroke="#191970" d="M527.1114,-162C551.7321,-162 583.4557,-162 605.538,-162"/>
<polygon fill="#191970" stroke="#191970" points="527.0434,-158.5001 517.0434,-162 527.0433,-165.5001 527.0434,-158.5001"/>
</g>
<!-- Node272&#45;&gt;Node262 -->
<g id="edge19" class="edge">
<title>Node272&#45;&gt;Node262</title>
<path fill="none" stroke="#191970" d="M818.9274,-155.8714C833.2407,-146.7529 851.7482,-134.8418 868,-124 882.096,-114.5963 898.0028,-103.559 909.0702,-95.81"/>
<polygon fill="#191970" stroke="#191970" points="816.7564,-153.104 810.193,-161.421 820.5104,-159.0123 816.7564,-153.104"/>
</g>
</g>
</svg>
