<?xml version="1.0" encoding="UTF-8" standalone="no"?>
<!DOCTYPE svg PUBLIC "-//W3C//DTD SVG 1.1//EN"
 "http://www.w3.org/Graphics/SVG/1.1/DTD/svg11.dtd">
<!-- Generated by graphviz version 2.40.1 (20161225.0304)
 -->
<!-- Title: cond_free Pages: 1 -->
<svg width="984pt" height="352pt"
 viewBox="0.00 0.00 984.00 352.27" xmlns="http://www.w3.org/2000/svg" xmlns:xlink="http://www.w3.org/1999/xlink">
<g id="graph0" class="graph" transform="scale(1 1) rotate(0) translate(4 348.2712)">
<title>cond_free</title>
<!-- Node60 -->
<g id="node1" class="node">
<title>Node60</title>
<polygon fill="#bfbfbf" stroke="#000000" points="0,-124.7712 0,-143.7712 59,-143.7712 59,-124.7712 0,-124.7712"/>
<text text-anchor="middle" x="29.5" y="-131.7712" font-family="Helvetica,sans-Serif" font-size="10.00" fill="#000000">cond_free</text>
</g>
<!-- Node61 -->
<g id="node2" class="node">
<title>Node61</title>
<g id="a_node2"><a xlink:href="cl_8h.html#a2bba8869890a67c2412a358c8f3ec0b4" target="_top" xlink:title="Frees the memory used by the classifier. ">
<polygon fill="none" stroke="#000000" points="95,-124.7712 95,-143.7712 141,-143.7712 141,-124.7712 95,-124.7712"/>
<text text-anchor="middle" x="118" y="-131.7712" font-family="Helvetica,sans-Serif" font-size="10.00" fill="#000000">cl_free</text>
</a>
</g>
</g>
<!-- Node60&#45;&gt;Node61 -->
<g id="edge1" class="edge">
<title>Node60&#45;&gt;Node61</title>
<path fill="none" stroke="#191970" d="M69.7397,-134.2712C78.3199,-134.2712 87.1028,-134.2712 94.7838,-134.2712"/>
<polygon fill="#191970" stroke="#191970" points="69.4621,-130.7713 59.4621,-134.2712 69.462,-137.7713 69.4621,-130.7713"/>
</g>
<!-- Node62 -->
<g id="node3" class="node">
<title>Node62</title>
<g id="a_node3"><a xlink:href="clset_8h.html#aad012238caff12fcd827b1e282c9a4ef" target="_top" xlink:title="Frees the set and the classifiers. ">
<polygon fill="none" stroke="#000000" points="369,-86.7712 369,-105.7712 424,-105.7712 424,-86.7712 369,-86.7712"/>
<text text-anchor="middle" x="396.5" y="-93.7712" font-family="Helvetica,sans-Serif" font-size="10.00" fill="#000000">clset_kill</text>
</a>
</g>
</g>
<!-- Node61&#45;&gt;Node62 -->
<g id="edge2" class="edge">
<title>Node61&#45;&gt;Node62</title>
<path fill="none" stroke="#191970" d="M151.2708,-129.7316C206.7087,-122.1673 316.9821,-107.1211 368.6157,-100.0759"/>
<polygon fill="#191970" stroke="#191970" points="150.7007,-126.2768 141.2657,-131.0967 151.6471,-133.2126 150.7007,-126.2768"/>
</g>
<!-- Node80 -->
<g id="node21" class="node">
<title>Node80</title>
<g id="a_node21"><a xlink:href="ea_8c.html#a72cd70b4efb82200d9c3004e1658a69c" target="_top" xlink:title="Adds offspring to the population. ">
<polygon fill="none" stroke="#000000" points="285,-162.7712 285,-181.7712 333,-181.7712 333,-162.7712 285,-162.7712"/>
<text text-anchor="middle" x="309" y="-169.7712" font-family="Helvetica,sans-Serif" font-size="10.00" fill="#000000">ea_add</text>
</a>
</g>
</g>
<!-- Node61&#45;&gt;Node80 -->
<g id="edge28" class="edge">
<title>Node61&#45;&gt;Node80</title>
<path fill="none" stroke="#191970" d="M151.3614,-137.5939C178.0017,-140.61 216.1736,-145.7458 249,-153.2712 260.9282,-156.0057 273.9036,-159.9843 284.7268,-163.5949"/>
<polygon fill="#191970" stroke="#191970" points="151.7229,-134.1127 141.4016,-136.5043 150.9616,-141.0712 151.7229,-134.1127"/>
</g>
<!-- Node84 -->
<g id="node25" class="node">
<title>Node84</title>
<g id="a_node25"><a xlink:href="ea_8c.html#a8ea16017fe8753d9b079e8e333d98545" target="_top" xlink:title="Performs evolutionary algorithm subsumption. ">
<polygon fill="none" stroke="#000000" points="177,-162.7712 177,-181.7712 249,-181.7712 249,-162.7712 177,-162.7712"/>
<text text-anchor="middle" x="213" y="-169.7712" font-family="Helvetica,sans-Serif" font-size="10.00" fill="#000000">ea_subsume</text>
</a>
</g>
</g>
<!-- Node61&#45;&gt;Node84 -->
<g id="edge36" class="edge">
<title>Node61&#45;&gt;Node84</title>
<path fill="none" stroke="#191970" d="M151.1284,-147.5226C163.6419,-152.528 177.6246,-158.121 189.1271,-162.7221"/>
<polygon fill="#191970" stroke="#191970" points="152.0678,-144.1288 141.4832,-143.6645 149.468,-150.6281 152.0678,-144.1288"/>
</g>
<!-- Node63 -->
<g id="node4" class="node">
<title>Node63</title>
<g id="a_node4"><a xlink:href="main_8c.html#a3c04138a5bfe5d72780bb7e82a18e627" target="_top" xlink:title="main">
<polygon fill="none" stroke="#000000" points="908,-25.7712 908,-44.7712 946,-44.7712 946,-25.7712 908,-25.7712"/>
<text text-anchor="middle" x="927" y="-32.7712" font-family="Helvetica,sans-Serif" font-size="10.00" fill="#000000">main</text>
</a>
</g>
</g>
<!-- Node62&#45;&gt;Node63 -->
<g id="edge3" class="edge">
<title>Node62&#45;&gt;Node63</title>
<path fill="none" stroke="#191970" d="M413.8624,-79.526C425.9088,-68.7972 442.8214,-55.4065 460,-47.2712 515.2466,-21.1082 533.4581,-24.7196 594,-16.2712 703.2079,-1.0316 732.9462,7.0347 842,-9.2712 865.1986,-12.7399 890.8146,-21.2555 907.7991,-27.602"/>
<polygon fill="#191970" stroke="#191970" points="411.3464,-77.0849 406.3567,-86.4311 416.0858,-82.2365 411.3464,-77.0849"/>
</g>
<!-- Node64 -->
<g id="node5" class="node">
<title>Node64</title>
<g id="a_node5"><a xlink:href="xcs__multi__step_8c.html#ad50c415970b4bfc42f469fb38c5e68fa" target="_top" xlink:title="Executes a multi&#45;step trial using a built&#45;in environment. ">
<polygon fill="none" stroke="#000000" points="469,-82.7712 469,-101.7712 549,-101.7712 549,-82.7712 469,-82.7712"/>
<text text-anchor="middle" x="509" y="-89.7712" font-family="Helvetica,sans-Serif" font-size="10.00" fill="#000000">xcs_multi_trial</text>
</a>
</g>
</g>
<!-- Node62&#45;&gt;Node64 -->
<g id="edge4" class="edge">
<title>Node62&#45;&gt;Node64</title>
<path fill="none" stroke="#191970" d="M434.2151,-94.9302C445.2587,-94.5376 457.3754,-94.1068 468.5799,-93.7084"/>
<polygon fill="#191970" stroke="#191970" points="433.8899,-91.4395 424.0206,-95.2927 434.1387,-98.4351 433.8899,-91.4395"/>
</g>
<!-- Node66 -->
<g id="node7" class="node">
<title>Node66</title>
<g id="a_node7"><a xlink:href="xcs__single__step_8h.html#acd3a46a0461d4fcfbc60c4364bc99377" target="_top" xlink:title="Frees memory used by match, action, and kill sets. ">
<polygon fill="none" stroke="#000000" points="466.5,-120.7712 466.5,-139.7712 551.5,-139.7712 551.5,-120.7712 466.5,-120.7712"/>
<text text-anchor="middle" x="509" y="-127.7712" font-family="Helvetica,sans-Serif" font-size="10.00" fill="#000000">xcs_single_free</text>
</a>
</g>
</g>
<!-- Node62&#45;&gt;Node66 -->
<g id="edge7" class="edge">
<title>Node62&#45;&gt;Node66</title>
<path fill="none" stroke="#191970" d="M433.907,-107.5764C447.9988,-111.8353 463.8745,-116.6333 477.3865,-120.7169"/>
<polygon fill="#191970" stroke="#191970" points="434.6056,-104.1313 424.0206,-104.5886 432.5804,-110.8319 434.6056,-104.1313"/>
</g>
<!-- Node71 -->
<g id="node12" class="node">
<title>Node71</title>
<g id="a_node12"><a xlink:href="xcsf_8h.html#af419720749752a7b5596f9def871a71c" target="_top" xlink:title="Reads the state of XCSF from a binary file. ">
<polygon fill="none" stroke="#000000" points="616.5,-25.7712 616.5,-44.7712 675.5,-44.7712 675.5,-25.7712 616.5,-25.7712"/>
<text text-anchor="middle" x="646" y="-32.7712" font-family="Helvetica,sans-Serif" font-size="10.00" fill="#000000">xcsf_load</text>
</a>
</g>
</g>
<!-- Node62&#45;&gt;Node71 -->
<g id="edge13" class="edge">
<title>Node62&#45;&gt;Node71</title>
<path fill="none" stroke="#191970" d="M429.9553,-83.1194C439.5628,-79.6257 450.1158,-76.0549 460,-73.2712 514.4077,-57.9485 579.3935,-46.1016 616.3665,-39.9503"/>
<polygon fill="#191970" stroke="#191970" points="428.5026,-79.9255 420.3533,-86.696 430.946,-86.4852 428.5026,-79.9255"/>
</g>
<!-- Node73 -->
<g id="node14" class="node">
<title>Node73</title>
<g id="a_node14"><a xlink:href="xcsf_8c.html#af5fb604e81235fdcb2ed8925d9291f59" target="_top" xlink:title="Executes a single XCSF trial. ">
<polygon fill="none" stroke="#000000" points="481,-167.7712 481,-186.7712 537,-186.7712 537,-167.7712 481,-167.7712"/>
<text text-anchor="middle" x="509" y="-174.7712" font-family="Helvetica,sans-Serif" font-size="10.00" fill="#000000">xcsf_trial</text>
</a>
</g>
</g>
<!-- Node62&#45;&gt;Node73 -->
<g id="edge17" class="edge">
<title>Node62&#45;&gt;Node73</title>
<path fill="none" stroke="#191970" d="M414.5702,-112.8233C426.9196,-123.76 443.9042,-138.0854 460,-149.2712 469.6549,-155.9809 481.025,-162.5526 490.3808,-167.6414"/>
<polygon fill="#191970" stroke="#191970" points="416.6084,-109.9495 406.8291,-105.8733 411.932,-115.1583 416.6084,-109.9495"/>
</g>
<!-- Node65 -->
<g id="node6" class="node">
<title>Node65</title>
<g id="a_node6"><a xlink:href="xcs__multi__step_8h.html#acc29d4a55dbd56c16ea5f19f15a7c677" target="_top" xlink:title="Executes a multi&#45;step reinforcement learning experiment. ">
<polygon fill="none" stroke="#000000" points="736,-25.7712 736,-44.7712 840,-44.7712 840,-25.7712 736,-25.7712"/>
<text text-anchor="middle" x="788" y="-32.7712" font-family="Helvetica,sans-Serif" font-size="10.00" fill="#000000">xcs_multi_step_exp</text>
</a>
</g>
</g>
<!-- Node64&#45;&gt;Node65 -->
<g id="edge5" class="edge">
<title>Node64&#45;&gt;Node65</title>
<path fill="none" stroke="#191970" d="M559.037,-82.3475C597.1489,-74.7557 650.9071,-63.9761 698,-54.2712 712.7023,-51.2414 728.742,-47.8749 743.1547,-44.8274"/>
<polygon fill="#191970" stroke="#191970" points="558.3348,-78.9185 549.2105,-84.3033 559.7013,-85.7838 558.3348,-78.9185"/>
</g>
<!-- Node65&#45;&gt;Node63 -->
<g id="edge6" class="edge">
<title>Node65&#45;&gt;Node63</title>
<path fill="none" stroke="#191970" d="M850.3011,-35.2712C871.1828,-35.2712 892.9408,-35.2712 907.9255,-35.2712"/>
<polygon fill="#191970" stroke="#191970" points="850.154,-31.7713 840.1539,-35.2712 850.1539,-38.7713 850.154,-31.7713"/>
</g>
<!-- Node67 -->
<g id="node8" class="node">
<title>Node67</title>
<g id="a_node8"><a xlink:href="classXCS.html#ab58a4fb495b05f3450b182bc21dcba1f" target="_top" xlink:title="XCS::single_reset">
<polygon fill="none" stroke="#000000" points="740,-101.7712 740,-120.7712 836,-120.7712 836,-101.7712 740,-101.7712"/>
<text text-anchor="middle" x="788" y="-108.7712" font-family="Helvetica,sans-Serif" font-size="10.00" fill="#000000">XCS::single_reset</text>
</a>
</g>
</g>
<!-- Node66&#45;&gt;Node67 -->
<g id="edge8" class="edge">
<title>Node66&#45;&gt;Node67</title>
<path fill="none" stroke="#191970" d="M561.879,-126.6701C613.0968,-123.1822 690.0961,-117.9385 739.703,-114.5603"/>
<polygon fill="#191970" stroke="#191970" points="561.4169,-123.1934 551.6778,-127.3648 561.8925,-130.1772 561.4169,-123.1934"/>
</g>
<!-- Node69 -->
<g id="node10" class="node">
<title>Node69</title>
<g id="a_node10"><a xlink:href="xcs__single__step_8c.html#a536ab4256e871e31959ea6e907455340" target="_top" xlink:title="Executes a single&#45;step trial using a built&#45;in environment. ">
<polygon fill="none" stroke="#000000" points="604,-139.7712 604,-158.7712 688,-158.7712 688,-139.7712 604,-139.7712"/>
<text text-anchor="middle" x="646" y="-146.7712" font-family="Helvetica,sans-Serif" font-size="10.00" fill="#000000">xcs_single_trial</text>
</a>
</g>
</g>
<!-- Node66&#45;&gt;Node69 -->
<g id="edge10" class="edge">
<title>Node66&#45;&gt;Node69</title>
<path fill="none" stroke="#191970" d="M561.5919,-137.565C575.596,-139.5072 590.5392,-141.5796 603.9002,-143.4326"/>
<polygon fill="#191970" stroke="#191970" points="561.9827,-134.0858 551.5967,-136.1788 561.021,-141.0194 561.9827,-134.0858"/>
</g>
<!-- Node68 -->
<g id="node9" class="node">
<title>Node68</title>
<g id="a_node9"><a xlink:href="pybind__wrapper_8cpp.html#a9f26280e01308c4674f2473fb6f78730" target="_top" xlink:title="pybind11_init_xcsf">
<polygon fill="none" stroke="#000000" points="878,-234.7712 878,-253.7712 976,-253.7712 976,-234.7712 878,-234.7712"/>
<text text-anchor="middle" x="927" y="-241.7712" font-family="Helvetica,sans-Serif" font-size="10.00" fill="#000000">pybind11_init_xcsf</text>
</a>
</g>
</g>
<!-- Node67&#45;&gt;Node68 -->
<g id="edge9" class="edge">
<title>Node67&#45;&gt;Node68</title>
<path fill="none" stroke="#191970" d="M833.9345,-125.2015C836.7621,-126.7317 839.4794,-128.4171 842,-130.2712 881.7735,-159.5283 911.2808,-212.6513 922.287,-234.4926"/>
<polygon fill="#191970" stroke="#191970" points="835.1726,-121.916 824.6339,-120.8262 832.1928,-128.2501 835.1726,-121.916"/>
</g>
<!-- Node70 -->
<g id="node11" class="node">
<title>Node70</title>
<g id="a_node11"><a xlink:href="xcs__single__step_8h.html#a39a031bf59eaa9b33e30e614610dcda8" target="_top" xlink:title="Executes a single&#45;step reinforcement learning experiment. ">
<polygon fill="none" stroke="#000000" points="734,-139.7712 734,-158.7712 842,-158.7712 842,-139.7712 734,-139.7712"/>
<text text-anchor="middle" x="788" y="-146.7712" font-family="Helvetica,sans-Serif" font-size="10.00" fill="#000000">xcs_single_step_exp</text>
</a>
</g>
</g>
<!-- Node69&#45;&gt;Node70 -->
<g id="edge11" class="edge">
<title>Node69&#45;&gt;Node70</title>
<path fill="none" stroke="#191970" d="M698.551,-149.2712C710.0539,-149.2712 722.2511,-149.2712 733.8166,-149.2712"/>
<polygon fill="#191970" stroke="#191970" points="698.2203,-145.7713 688.2202,-149.2712 698.2202,-152.7713 698.2203,-145.7713"/>
</g>
<!-- Node70&#45;&gt;Node63 -->
<g id="edge12" class="edge">
<title>Node70&#45;&gt;Node63</title>
<path fill="none" stroke="#191970" d="M832.7668,-135.5724C835.9878,-133.9721 839.1037,-132.2088 842,-130.2712 877.8692,-106.275 908.4122,-63.7151 920.9313,-44.795"/>
<polygon fill="#191970" stroke="#191970" points="831.2408,-132.4201 823.506,-139.6605 834.0677,-138.8239 831.2408,-132.4201"/>
</g>
<!-- Node71&#45;&gt;Node63 -->
<g id="edge14" class="edge">
<title>Node71&#45;&gt;Node63</title>
<path fill="none" stroke="#191970" d="M685.8473,-24.7911C700.831,-21.3477 718.0893,-17.9693 734,-16.2712 781.7289,-11.1773 794.2899,-11.0039 842,-16.2712 864.9956,-18.81 890.8657,-25.1008 907.9605,-29.752"/>
<polygon fill="#191970" stroke="#191970" points="684.7983,-21.4429 675.8818,-27.1654 686.4208,-28.2523 684.7983,-21.4429"/>
</g>
<!-- Node72 -->
<g id="node13" class="node">
<title>Node72</title>
<g id="a_node13"><a xlink:href="classXCS.html#adc9b621f2b7a306fbf381dd0efaf268b" target="_top" xlink:title="XCS::load">
<polygon fill="none" stroke="#000000" points="757,-63.7712 757,-82.7712 819,-82.7712 819,-63.7712 757,-63.7712"/>
<text text-anchor="middle" x="788" y="-70.7712" font-family="Helvetica,sans-Serif" font-size="10.00" fill="#000000">XCS::load</text>
</a>
</g>
</g>
<!-- Node71&#45;&gt;Node72 -->
<g id="edge15" class="edge">
<title>Node71&#45;&gt;Node72</title>
<path fill="none" stroke="#191970" d="M685.6847,-45.8911C708.1649,-51.9069 735.8828,-59.3244 756.7963,-64.9209"/>
<polygon fill="#191970" stroke="#191970" points="686.3328,-42.4414 675.7679,-43.2373 684.5231,-49.2035 686.3328,-42.4414"/>
</g>
<!-- Node72&#45;&gt;Node68 -->
<g id="edge16" class="edge">
<title>Node72&#45;&gt;Node68</title>
<path fill="none" stroke="#191970" d="M828.5766,-83.8449C833.3988,-86.1406 838.0152,-88.9174 842,-92.2712 890.1152,-132.7665 916.1565,-207.8007 924.2304,-234.5149"/>
<polygon fill="#191970" stroke="#191970" points="829.7421,-80.5403 819.1612,-79.9982 827.0946,-87.0204 829.7421,-80.5403"/>
</g>
<!-- Node74 -->
<g id="node15" class="node">
<title>Node74</title>
<g id="a_node15"><a xlink:href="xcsf_8h.html#aee465caea59599a71fc69528598156cb" target="_top" xlink:title="Executes MAX_TRIALS number of XCSF learning iterations using the training. data and test iterations u...">
<polygon fill="none" stroke="#000000" points="621.5,-177.7712 621.5,-196.7712 670.5,-196.7712 670.5,-177.7712 621.5,-177.7712"/>
<text text-anchor="middle" x="646" y="-184.7712" font-family="Helvetica,sans-Serif" font-size="10.00" fill="#000000">xcsf_fit</text>
</a>
</g>
</g>
<!-- Node73&#45;&gt;Node74 -->
<g id="edge18" class="edge">
<title>Node73&#45;&gt;Node74</title>
<path fill="none" stroke="#191970" d="M547.1185,-180.0536C570.7972,-181.782 600.5501,-183.9537 621.2027,-185.4612"/>
<polygon fill="#191970" stroke="#191970" points="547.2829,-176.5564 537.0546,-179.319 546.7732,-183.5378 547.2829,-176.5564"/>
</g>
<!-- Node76 -->
<g id="node17" class="node">
<title>Node76</title>
<g id="a_node17"><a xlink:href="xcsf_8h.html#af128a7da769acabe2e841e8d06749b0b" target="_top" xlink:title="Calculates the XCSF predictions for the provided input. ">
<polygon fill="none" stroke="#000000" points="611,-281.7712 611,-300.7712 681,-300.7712 681,-281.7712 611,-281.7712"/>
<text text-anchor="middle" x="646" y="-288.7712" font-family="Helvetica,sans-Serif" font-size="10.00" fill="#000000">xcsf_predict</text>
</a>
</g>
</g>
<!-- Node73&#45;&gt;Node76 -->
<g id="edge22" class="edge">
<title>Node73&#45;&gt;Node76</title>
<path fill="none" stroke="#191970" d="M546.4085,-188.4723C550.5826,-190.6537 554.5615,-193.232 558,-196.2712 583.3286,-218.6582 570.1075,-239.3575 594,-263.2712 601.7543,-271.0324 612.1107,-277.1973 621.5395,-281.7444"/>
<polygon fill="#191970" stroke="#191970" points="547.6504,-185.1937 537.0927,-184.3065 544.7928,-191.5839 547.6504,-185.1937"/>
</g>
<!-- Node78 -->
<g id="node19" class="node">
<title>Node78</title>
<g id="a_node19"><a xlink:href="xcsf_8h.html#a348b8cd321211c377fb1deedc62c7c67" target="_top" xlink:title="Calculates the XCSF error for the input data. ">
<polygon fill="none" stroke="#000000" points="613.5,-234.7712 613.5,-253.7712 678.5,-253.7712 678.5,-234.7712 613.5,-234.7712"/>
<text text-anchor="middle" x="646" y="-241.7712" font-family="Helvetica,sans-Serif" font-size="10.00" fill="#000000">xcsf_score</text>
</a>
</g>
</g>
<!-- Node73&#45;&gt;Node78 -->
<g id="edge25" class="edge">
<title>Node73&#45;&gt;Node78</title>
<path fill="none" stroke="#191970" d="M545.0063,-190.6162C549.4192,-192.4324 553.8375,-194.3389 558,-196.2712 583.7291,-208.2155 612.37,-224.4092 629.7838,-234.5986"/>
<polygon fill="#191970" stroke="#191970" points="546.0408,-187.2608 535.4556,-186.8096 543.449,-193.7634 546.0408,-187.2608"/>
</g>
<!-- Node74&#45;&gt;Node63 -->
<g id="edge19" class="edge">
<title>Node74&#45;&gt;Node63</title>
<path fill="none" stroke="#191970" d="M680.9169,-192.5752C722.4923,-197.0442 792.5138,-198.5692 842,-168.2712 890.1436,-138.7952 915.8454,-70.6367 924.0487,-45.1367"/>
<polygon fill="#191970" stroke="#191970" points="681.083,-189.0703 670.7386,-191.3603 680.2532,-196.021 681.083,-189.0703"/>
</g>
<!-- Node75 -->
<g id="node16" class="node">
<title>Node75</title>
<g id="a_node16"><a xlink:href="classXCS.html#ac9a4a7cb0ec6238ef1d4d77996f8975b" target="_top" xlink:title="XCS::fit">
<polygon fill="none" stroke="#000000" points="762,-215.7712 762,-234.7712 814,-234.7712 814,-215.7712 762,-215.7712"/>
<text text-anchor="middle" x="788" y="-222.7712" font-family="Helvetica,sans-Serif" font-size="10.00" fill="#000000">XCS::fit</text>
</a>
</g>
</g>
<!-- Node74&#45;&gt;Node75 -->
<g id="edge20" class="edge">
<title>Node74&#45;&gt;Node75</title>
<path fill="none" stroke="#191970" d="M680.5399,-196.5143C705.5192,-203.1989 738.7618,-212.0948 761.6237,-218.2128"/>
<polygon fill="#191970" stroke="#191970" points="681.2994,-193.0944 670.7345,-193.8903 679.4898,-199.8565 681.2994,-193.0944"/>
</g>
<!-- Node75&#45;&gt;Node68 -->
<g id="edge21" class="edge">
<title>Node75&#45;&gt;Node68</title>
<path fill="none" stroke="#191970" d="M824.3776,-230.2437C840.7306,-232.479 860.2768,-235.1508 877.9021,-237.56"/>
<polygon fill="#191970" stroke="#191970" points="824.5267,-226.7316 814.1448,-228.845 823.5787,-233.6671 824.5267,-226.7316"/>
</g>
<!-- Node77 -->
<g id="node18" class="node">
<title>Node77</title>
<g id="a_node18"><a xlink:href="classXCS.html#a8e8db281054f9e5937610eed434cd4a5" target="_top" xlink:title="XCS::predict">
<polygon fill="none" stroke="#000000" points="751.5,-291.7712 751.5,-310.7712 824.5,-310.7712 824.5,-291.7712 751.5,-291.7712"/>
<text text-anchor="middle" x="788" y="-298.7712" font-family="Helvetica,sans-Serif" font-size="10.00" fill="#000000">XCS::predict</text>
</a>
</g>
</g>
<!-- Node76&#45;&gt;Node77 -->
<g id="edge23" class="edge">
<title>Node76&#45;&gt;Node77</title>
<path fill="none" stroke="#191970" d="M691.2292,-294.4564C710.6223,-295.8221 732.9834,-297.3968 751.3219,-298.6882"/>
<polygon fill="#191970" stroke="#191970" points="691.3223,-290.9543 681.1011,-293.7431 690.8305,-297.9371 691.3223,-290.9543"/>
</g>
<!-- Node77&#45;&gt;Node68 -->
<g id="edge24" class="edge">
<title>Node77&#45;&gt;Node68</title>
<path fill="none" stroke="#191970" d="M826.0214,-288.3353C831.4118,-286.3731 836.8648,-284.3185 842,-282.2712 864.5228,-273.2919 889.8341,-261.789 906.9336,-253.8026"/>
<polygon fill="#191970" stroke="#191970" points="824.7097,-285.0871 816.4686,-291.7456 827.0633,-291.6796 824.7097,-285.0871"/>
</g>
<!-- Node79 -->
<g id="node20" class="node">
<title>Node79</title>
<g id="a_node20"><a xlink:href="classXCS.html#ad32ffc841106ec036029e4c90a33b761" target="_top" xlink:title="XCS::score">
<polygon fill="none" stroke="#000000" points="754,-253.7712 754,-272.7712 822,-272.7712 822,-253.7712 754,-253.7712"/>
<text text-anchor="middle" x="788" y="-260.7712" font-family="Helvetica,sans-Serif" font-size="10.00" fill="#000000">XCS::score</text>
</a>
</g>
</g>
<!-- Node78&#45;&gt;Node79 -->
<g id="edge26" class="edge">
<title>Node78&#45;&gt;Node79</title>
<path fill="none" stroke="#191970" d="M688.7215,-249.9875C709.4707,-252.7638 734.0715,-256.0554 753.5932,-258.6675"/>
<polygon fill="#191970" stroke="#191970" points="688.9535,-246.4874 678.5777,-248.6302 688.0251,-253.4256 688.9535,-246.4874"/>
</g>
<!-- Node79&#45;&gt;Node68 -->
<g id="edge27" class="edge">
<title>Node79&#45;&gt;Node68</title>
<path fill="none" stroke="#191970" d="M832.2347,-257.2248C846.7597,-255.2393 862.989,-253.0209 877.8555,-250.9888"/>
<polygon fill="#191970" stroke="#191970" points="831.4371,-253.8011 822.0032,-258.6233 832.3851,-260.7366 831.4371,-253.8011"/>
</g>
<!-- Node81 -->
<g id="node22" class="node">
<title>Node81</title>
<g id="a_node22"><a xlink:href="ea_8h.html#ae90a9b4131bb94462265b9c928499eb8" target="_top" xlink:title="Executes the evolutionary algorithm (EA). ">
<polygon fill="none" stroke="#000000" points="382,-164.7712 382,-183.7712 411,-183.7712 411,-164.7712 382,-164.7712"/>
<text text-anchor="middle" x="396.5" y="-171.7712" font-family="Helvetica,sans-Serif" font-size="10.00" fill="#000000">ea</text>
</a>
</g>
</g>
<!-- Node80&#45;&gt;Node81 -->
<g id="edge29" class="edge">
<title>Node80&#45;&gt;Node81</title>
<path fill="none" stroke="#191970" d="M343.6783,-173.0639C356.9632,-173.3675 371.4153,-173.6979 381.8391,-173.9361"/>
<polygon fill="#191970" stroke="#191970" points="343.451,-169.5578 333.3736,-172.8283 343.291,-176.556 343.451,-169.5578"/>
</g>
<!-- Node81&#45;&gt;Node64 -->
<g id="edge30" class="edge">
<title>Node81&#45;&gt;Node64</title>
<path fill="none" stroke="#191970" d="M410.7192,-156.6073C422.6558,-142.7317 440.7981,-123.7333 460,-111.2712 465.6636,-107.5955 472.1472,-104.4572 478.5036,-101.8528"/>
<polygon fill="#191970" stroke="#191970" points="407.8653,-154.5641 404.135,-164.4806 413.2351,-159.0548 407.8653,-154.5641"/>
</g>
<!-- Node81&#45;&gt;Node73 -->
<g id="edge35" class="edge">
<title>Node81&#45;&gt;Node73</title>
<path fill="none" stroke="#191970" d="M421.2857,-174.9322C438.8948,-175.4017 462.5687,-176.033 480.8836,-176.5214"/>
<polygon fill="#191970" stroke="#191970" points="421.2972,-171.4313 411.2074,-174.6634 421.1105,-178.4288 421.2972,-171.4313"/>
</g>
<!-- Node82 -->
<g id="node23" class="node">
<title>Node82</title>
<g id="a_node23"><a xlink:href="xcs__single__step_8h.html#a0ff6b521f66224d56ef0e6f50f5781b9" target="_top" xlink:title="Creates the action set, updates the classifiers and runs the EA. ">
<polygon fill="none" stroke="#000000" points="460,-205.7712 460,-224.7712 558,-224.7712 558,-205.7712 460,-205.7712"/>
<text text-anchor="middle" x="509" y="-212.7712" font-family="Helvetica,sans-Serif" font-size="10.00" fill="#000000">xcs_single_update</text>
</a>
</g>
</g>
<!-- Node81&#45;&gt;Node82 -->
<g id="edge31" class="edge">
<title>Node81&#45;&gt;Node82</title>
<path fill="none" stroke="#191970" d="M420.8157,-183.1329C439.0429,-189.7758 463.9602,-198.8567 482.6593,-205.6715"/>
<polygon fill="#191970" stroke="#191970" points="421.8014,-179.767 411.2074,-179.6312 419.4044,-186.3439 421.8014,-179.767"/>
</g>
<!-- Node82&#45;&gt;Node69 -->
<g id="edge34" class="edge">
<title>Node82&#45;&gt;Node69</title>
<path fill="none" stroke="#191970" d="M547.1751,-201.7399C550.9027,-200.0428 554.5703,-198.2144 558,-196.2712 575.6359,-186.2793 576.2671,-178.0899 594,-168.2712 600.5587,-164.6397 607.9481,-161.4572 615.0531,-158.7874"/>
<polygon fill="#191970" stroke="#191970" points="545.7272,-198.5521 537.8871,-205.6783 548.46,-204.9966 545.7272,-198.5521"/>
</g>
<!-- Node83 -->
<g id="node24" class="node">
<title>Node83</title>
<g id="a_node24"><a xlink:href="classXCS.html#aedc01ad6f00a54b260a7605929a1d4c9" target="_top" xlink:title="XCS::single_update">
<polygon fill="none" stroke="#000000" points="594,-324.7712 594,-343.7712 698,-343.7712 698,-324.7712 594,-324.7712"/>
<text text-anchor="middle" x="646" y="-331.7712" font-family="Helvetica,sans-Serif" font-size="10.00" fill="#000000">XCS::single_update</text>
</a>
</g>
</g>
<!-- Node82&#45;&gt;Node83 -->
<g id="edge32" class="edge">
<title>Node82&#45;&gt;Node83</title>
<path fill="none" stroke="#191970" d="M521.3604,-233.0281C536.5179,-253.7596 563.9271,-288.0367 594,-310.2712 601.8351,-316.0641 611.2918,-320.9389 619.9804,-324.7496"/>
<polygon fill="#191970" stroke="#191970" points="524.1346,-230.8906 515.4672,-224.7973 518.443,-234.9657 524.1346,-230.8906"/>
</g>
<!-- Node83&#45;&gt;Node68 -->
<g id="edge33" class="edge">
<title>Node83&#45;&gt;Node68</title>
<path fill="none" stroke="#191970" d="M708.1578,-339.896C747.9364,-341.1053 799.8059,-338.1321 842,-320.2712 876.6361,-305.6097 906.6808,-270.8474 919.8705,-253.8975"/>
<polygon fill="#191970" stroke="#191970" points="708.1908,-336.3947 698.0589,-339.4922 707.9111,-343.3891 708.1908,-336.3947"/>
</g>
<!-- Node84&#45;&gt;Node80 -->
<g id="edge37" class="edge">
<title>Node84&#45;&gt;Node80</title>
<path fill="none" stroke="#191970" d="M259.2541,-172.2712C268.0634,-172.2712 276.9512,-172.2712 284.7286,-172.2712"/>
<polygon fill="#191970" stroke="#191970" points="259.02,-168.7713 249.02,-172.2712 259.02,-175.7713 259.02,-168.7713"/>
</g>
</g>
</svg>
