<?xml version="1.0" encoding="UTF-8" standalone="no"?>
<!DOCTYPE svg PUBLIC "-//W3C//DTD SVG 1.1//EN"
 "http://www.w3.org/Graphics/SVG/1.1/DTD/svg11.dtd">
<!-- Generated by graphviz version 2.40.1 (20161225.0304)
 -->
<!-- Title: cond_cover Pages: 1 -->
<svg width="1118pt" height="332pt"
 viewBox="0.00 0.00 1118.00 332.00" xmlns="http://www.w3.org/2000/svg" xmlns:xlink="http://www.w3.org/1999/xlink">
<g id="graph0" class="graph" transform="scale(1 1) rotate(0) translate(4 328)">
<title>cond_cover</title>
<!-- Node18 -->
<g id="node1" class="node">
<title>Node18</title>
<polygon fill="#bfbfbf" stroke="#000000" points="0,-171.5 0,-190.5 67,-190.5 67,-171.5 0,-171.5"/>
<text text-anchor="middle" x="33.5" y="-178.5" font-family="Helvetica,sans-Serif" font-size="10.00" fill="#000000">cond_cover</text>
</g>
<!-- Node19 -->
<g id="node2" class="node">
<title>Node19</title>
<g id="a_node2"><a xlink:href="cl_8h.html#a42adb85e78d1f9af3dbd53cd9e9ae0fd" target="_top" xlink:title="Covers the condition and action for a classifier. ">
<polygon fill="none" stroke="#000000" points="103,-171.5 103,-190.5 156,-190.5 156,-171.5 103,-171.5"/>
<text text-anchor="middle" x="129.5" y="-178.5" font-family="Helvetica,sans-Serif" font-size="10.00" fill="#000000">cl_cover</text>
</a>
</g>
</g>
<!-- Node18&#45;&gt;Node19 -->
<g id="edge1" class="edge">
<title>Node18&#45;&gt;Node19</title>
<path fill="none" stroke="#191970" d="M77.1585,-181C85.8822,-181 94.7987,-181 102.7427,-181"/>
<polygon fill="#191970" stroke="#191970" points="77.0762,-177.5001 67.0761,-181 77.0761,-184.5001 77.0762,-177.5001"/>
</g>
<!-- Node20 -->
<g id="node3" class="node">
<title>Node20</title>
<g id="a_node3"><a xlink:href="cl__set_8c.html#aa4b74b698e7491734e4788fcfae8e27a" target="_top" xlink:title="Ensures all possible actions are covered by the match set. ">
<polygon fill="none" stroke="#000000" points="192,-171.5 192,-190.5 251,-190.5 251,-171.5 192,-171.5"/>
<text text-anchor="middle" x="221.5" y="-178.5" font-family="Helvetica,sans-Serif" font-size="10.00" fill="#000000">set_cover</text>
</a>
</g>
</g>
<!-- Node19&#45;&gt;Node20 -->
<g id="edge2" class="edge">
<title>Node19&#45;&gt;Node20</title>
<path fill="none" stroke="#191970" d="M166.1583,-181C174.6432,-181 183.5708,-181 191.7196,-181"/>
<polygon fill="#191970" stroke="#191970" points="166.1102,-177.5001 156.1102,-181 166.1102,-184.5001 166.1102,-177.5001"/>
</g>
<!-- Node21 -->
<g id="node4" class="node">
<title>Node21</title>
<g id="a_node4"><a xlink:href="cl__set_8h.html#af3bea0b4d03654b9d6cb08fbf272c847" target="_top" xlink:title="Constructs the match set. ">
<polygon fill="none" stroke="#000000" points="287,-171.5 287,-190.5 349,-190.5 349,-171.5 287,-171.5"/>
<text text-anchor="middle" x="318" y="-178.5" font-family="Helvetica,sans-Serif" font-size="10.00" fill="#000000">set_match</text>
</a>
</g>
</g>
<!-- Node20&#45;&gt;Node21 -->
<g id="edge3" class="edge">
<title>Node20&#45;&gt;Node21</title>
<path fill="none" stroke="#191970" d="M261.3634,-181C269.8689,-181 278.733,-181 286.8545,-181"/>
<polygon fill="#191970" stroke="#191970" points="261.2406,-177.5001 251.2406,-181 261.2406,-184.5001 261.2406,-177.5001"/>
</g>
<!-- Node22 -->
<g id="node5" class="node">
<title>Node22</title>
<g id="a_node5"><a xlink:href="xcs__multi__step_8c.html#a1e1c2a3094be715b468dda79cd59ebf3" target="_top" xlink:title="Executes a multi&#45;step trial using a built&#45;in environment. ">
<polygon fill="none" stroke="#000000" points="397,-247.5 397,-266.5 477,-266.5 477,-247.5 397,-247.5"/>
<text text-anchor="middle" x="437" y="-254.5" font-family="Helvetica,sans-Serif" font-size="10.00" fill="#000000">xcs_multi_trial</text>
</a>
</g>
</g>
<!-- Node21&#45;&gt;Node22 -->
<g id="edge4" class="edge">
<title>Node21&#45;&gt;Node22</title>
<path fill="none" stroke="#191970" d="M341.5758,-196.0568C365.5029,-211.338 401.8184,-234.5311 422.0509,-247.4527"/>
<polygon fill="#191970" stroke="#191970" points="343.3832,-193.0582 333.0714,-190.6255 339.6154,-198.9577 343.3832,-193.0582"/>
</g>
<!-- Node25 -->
<g id="node8" class="node">
<title>Node25</title>
<g id="a_node8"><a xlink:href="xcs__single__step_8h.html#a6cd0f3c0c1c71e13dba1ce493ef873a5" target="_top" xlink:title="Constructs the match set and selects an action to perform. ">
<polygon fill="none" stroke="#000000" points="385,-190.5 385,-209.5 489,-209.5 489,-190.5 385,-190.5"/>
<text text-anchor="middle" x="437" y="-197.5" font-family="Helvetica,sans-Serif" font-size="10.00" fill="#000000">xcs_single_decision</text>
</a>
</g>
</g>
<!-- Node21&#45;&gt;Node25 -->
<g id="edge7" class="edge">
<title>Node21&#45;&gt;Node25</title>
<path fill="none" stroke="#191970" d="M359.3361,-187.5999C367.5439,-188.9104 376.2618,-190.3023 384.7778,-191.662"/>
<polygon fill="#191970" stroke="#191970" points="359.6926,-184.1126 349.2658,-185.992 358.5889,-191.025 359.6926,-184.1126"/>
</g>
<!-- Node30 -->
<g id="node13" class="node">
<title>Node30</title>
<g id="a_node13"><a xlink:href="xcsf_8c.html#a474f4e13cfc5f00958c689cd8c81135a" target="_top" xlink:title="Executes a single XCSF learning trial. ">
<polygon fill="none" stroke="#000000" points="395.5,-152.5 395.5,-171.5 478.5,-171.5 478.5,-152.5 395.5,-152.5"/>
<text text-anchor="middle" x="437" y="-159.5" font-family="Helvetica,sans-Serif" font-size="10.00" fill="#000000">xcsf_learn_trial</text>
</a>
</g>
</g>
<!-- Node21&#45;&gt;Node30 -->
<g id="edge13" class="edge">
<title>Node21&#45;&gt;Node30</title>
<path fill="none" stroke="#191970" d="M359.1838,-174.4244C370.832,-172.5646 383.5179,-170.5392 395.2019,-168.6736"/>
<polygon fill="#191970" stroke="#191970" points="358.5889,-170.975 349.2658,-176.008 359.6926,-177.8874 358.5889,-170.975"/>
</g>
<!-- Node35 -->
<g id="node18" class="node">
<title>Node35</title>
<g id="a_node18"><a xlink:href="xcsf_8h.html#af0b9db7273578fdff649d46823cd9790" target="_top" xlink:title="Calculates the XCSF predictions for the provided input. ">
<polygon fill="none" stroke="#000000" points="545,-304.5 545,-323.5 615,-323.5 615,-304.5 545,-304.5"/>
<text text-anchor="middle" x="580" y="-311.5" font-family="Helvetica,sans-Serif" font-size="10.00" fill="#000000">xcsf_predict</text>
</a>
</g>
</g>
<!-- Node21&#45;&gt;Node35 -->
<g id="edge20" class="edge">
<title>Node21&#45;&gt;Node35</title>
<path fill="none" stroke="#191970" d="M325.9971,-199.9571C336.2918,-221.9152 356.3332,-257.4428 385,-276 433.9321,-307.6757 503.2407,-314.0902 544.6976,-314.7917"/>
<polygon fill="#191970" stroke="#191970" points="329.1204,-198.3676 321.8438,-190.6669 322.7299,-201.2246 329.1204,-198.3676"/>
</g>
<!-- Node37 -->
<g id="node20" class="node">
<title>Node37</title>
<g id="a_node20"><a xlink:href="xcsf_8h.html#ae1f6851f682e015601030a5c725c6618" target="_top" xlink:title="Prints the XCSF match set for the supplied input. ">
<polygon fill="none" stroke="#000000" points="525,-9.5 525,-28.5 635,-28.5 635,-9.5 525,-9.5"/>
<text text-anchor="middle" x="580" y="-16.5" font-family="Helvetica,sans-Serif" font-size="10.00" fill="#000000">xcsf_print_match_set</text>
</a>
</g>
</g>
<!-- Node21&#45;&gt;Node37 -->
<g id="edge23" class="edge">
<title>Node21&#45;&gt;Node37</title>
<path fill="none" stroke="#191970" d="M330.3265,-162.9906C342.5805,-146.1796 362.7241,-121.3035 385,-105 436.3554,-67.4135 506.7281,-41.5121 547.381,-28.5611"/>
<polygon fill="#191970" stroke="#191970" points="327.2965,-161.2128 324.367,-171.3946 333.0065,-165.262 327.2965,-161.2128"/>
</g>
<!-- Node39 -->
<g id="node22" class="node">
<title>Node39</title>
<g id="a_node22"><a xlink:href="xcsf_8c.html#aa6edd3962ddd04940e2c78a4f99de7cd" target="_top" xlink:title="Executes a single XCSF testing trial. ">
<polygon fill="none" stroke="#000000" points="398,-114.5 398,-133.5 476,-133.5 476,-114.5 398,-114.5"/>
<text text-anchor="middle" x="437" y="-121.5" font-family="Helvetica,sans-Serif" font-size="10.00" fill="#000000">xcsf_test_trial</text>
</a>
</g>
</g>
<!-- Node21&#45;&gt;Node39 -->
<g id="edge26" class="edge">
<title>Node21&#45;&gt;Node39</title>
<path fill="none" stroke="#191970" d="M342.2019,-165.9843C354.7172,-158.5536 370.3949,-149.7534 385,-143 392.4154,-139.5711 400.6393,-136.3245 408.3172,-133.5173"/>
<polygon fill="#191970" stroke="#191970" points="340.073,-163.181 333.318,-171.3431 343.6886,-169.1749 340.073,-163.181"/>
</g>
<!-- Node23 -->
<g id="node6" class="node">
<title>Node23</title>
<g id="a_node6"><a xlink:href="xcs__multi__step_8h.html#acc29d4a55dbd56c16ea5f19f15a7c677" target="_top" xlink:title="Executes a multi&#45;step reinforcement learning experiment. ">
<polygon fill="none" stroke="#000000" points="673,-266.5 673,-285.5 777,-285.5 777,-266.5 673,-266.5"/>
<text text-anchor="middle" x="725" y="-273.5" font-family="Helvetica,sans-Serif" font-size="10.00" fill="#000000">xcs_multi_step_exp</text>
</a>
</g>
</g>
<!-- Node22&#45;&gt;Node23 -->
<g id="edge5" class="edge">
<title>Node22&#45;&gt;Node23</title>
<path fill="none" stroke="#191970" d="M487.044,-260.3015C539.058,-263.733 620.0976,-269.0794 672.8714,-272.561"/>
<polygon fill="#191970" stroke="#191970" points="487.2539,-256.8078 477.0452,-259.6419 486.793,-263.7927 487.2539,-256.8078"/>
</g>
<!-- Node24 -->
<g id="node7" class="node">
<title>Node24</title>
<g id="a_node7"><a xlink:href="main_8c.html#a3c04138a5bfe5d72780bb7e82a18e627" target="_top" xlink:title="main">
<polygon fill="none" stroke="#000000" points="852.5,-228.5 852.5,-247.5 890.5,-247.5 890.5,-228.5 852.5,-228.5"/>
<text text-anchor="middle" x="871.5" y="-235.5" font-family="Helvetica,sans-Serif" font-size="10.00" fill="#000000">main</text>
</a>
</g>
</g>
<!-- Node23&#45;&gt;Node24 -->
<g id="edge6" class="edge">
<title>Node23&#45;&gt;Node24</title>
<path fill="none" stroke="#191970" d="M771.7504,-263.8736C799.094,-256.7811 832.1316,-248.2116 852.4791,-242.9337"/>
<polygon fill="#191970" stroke="#191970" points="770.769,-260.5123 761.9681,-266.411 772.5266,-267.288 770.769,-260.5123"/>
</g>
<!-- Node26 -->
<g id="node9" class="node">
<title>Node26</title>
<g id="a_node9"><a xlink:href="structXCS.html#a94d556a5e545ec415d7165d5e91b21d4" target="_top" xlink:title="XCS::single_decision">
<polygon fill="none" stroke="#000000" points="816.5,-152.5 816.5,-171.5 926.5,-171.5 926.5,-152.5 816.5,-152.5"/>
<text text-anchor="middle" x="871.5" y="-159.5" font-family="Helvetica,sans-Serif" font-size="10.00" fill="#000000">XCS::single_decision</text>
</a>
</g>
</g>
<!-- Node25&#45;&gt;Node26 -->
<g id="edge8" class="edge">
<title>Node25&#45;&gt;Node26</title>
<path fill="none" stroke="#191970" d="M499.4358,-194.5396C584.3865,-187.11 735.0691,-173.9318 816.1636,-166.8396"/>
<polygon fill="#191970" stroke="#191970" points="499.0679,-191.0583 489.4109,-195.4163 499.6778,-198.0317 499.0679,-191.0583"/>
</g>
<!-- Node28 -->
<g id="node11" class="node">
<title>Node28</title>
<g id="a_node11"><a xlink:href="xcs__single__step_8c.html#a3d1fd2472d35310800aed897219a65af" target="_top" xlink:title="Executes a single&#45;step trial using a built&#45;in environment. ">
<polygon fill="none" stroke="#000000" points="538,-228.5 538,-247.5 622,-247.5 622,-228.5 538,-228.5"/>
<text text-anchor="middle" x="580" y="-235.5" font-family="Helvetica,sans-Serif" font-size="10.00" fill="#000000">xcs_single_trial</text>
</a>
</g>
</g>
<!-- Node25&#45;&gt;Node28 -->
<g id="edge10" class="edge">
<title>Node25&#45;&gt;Node28</title>
<path fill="none" stroke="#191970" d="M482.8133,-212.1742C502.5871,-217.4287 525.3838,-223.4866 543.9266,-228.4141"/>
<polygon fill="#191970" stroke="#191970" points="483.6484,-208.7747 473.0849,-209.589 481.8506,-215.5399 483.6484,-208.7747"/>
</g>
<!-- Node27 -->
<g id="node10" class="node">
<title>Node27</title>
<g id="a_node10"><a xlink:href="python__wrapper_8cpp.html#afbdcc1358036a0b83a6b239da2b098a2" target="_top" xlink:title="BOOST_PYTHON_MODULE">
<polygon fill="none" stroke="#000000" points="964,-76.5 964,-95.5 1110,-95.5 1110,-76.5 964,-76.5"/>
<text text-anchor="middle" x="1037" y="-83.5" font-family="Helvetica,sans-Serif" font-size="10.00" fill="#000000">BOOST_PYTHON_MODULE</text>
</a>
</g>
</g>
<!-- Node26&#45;&gt;Node27 -->
<g id="edge9" class="edge">
<title>Node26&#45;&gt;Node27</title>
<path fill="none" stroke="#191970" d="M901.6864,-148.138C934.8795,-132.8952 987.3272,-108.8104 1016.2095,-95.5473"/>
<polygon fill="#191970" stroke="#191970" points="900.0877,-145.0207 892.4607,-152.3745 903.0089,-151.382 900.0877,-145.0207"/>
</g>
<!-- Node29 -->
<g id="node12" class="node">
<title>Node29</title>
<g id="a_node12"><a xlink:href="xcs__single__step_8h.html#a39a031bf59eaa9b33e30e614610dcda8" target="_top" xlink:title="Executes a single&#45;step experiment. ">
<polygon fill="none" stroke="#000000" points="671,-228.5 671,-247.5 779,-247.5 779,-228.5 671,-228.5"/>
<text text-anchor="middle" x="725" y="-235.5" font-family="Helvetica,sans-Serif" font-size="10.00" fill="#000000">xcs_single_step_exp</text>
</a>
</g>
</g>
<!-- Node28&#45;&gt;Node29 -->
<g id="edge11" class="edge">
<title>Node28&#45;&gt;Node29</title>
<path fill="none" stroke="#191970" d="M632.5872,-238C645.081,-238 658.4301,-238 670.9864,-238"/>
<polygon fill="#191970" stroke="#191970" points="632.3298,-234.5001 622.3298,-238 632.3298,-241.5001 632.3298,-234.5001"/>
</g>
<!-- Node29&#45;&gt;Node24 -->
<g id="edge12" class="edge">
<title>Node29&#45;&gt;Node24</title>
<path fill="none" stroke="#191970" d="M789.17,-238C812.0175,-238 836.0619,-238 852.2265,-238"/>
<polygon fill="#191970" stroke="#191970" points="789.135,-234.5001 779.135,-238 789.1349,-241.5001 789.135,-234.5001"/>
</g>
<!-- Node31 -->
<g id="node14" class="node">
<title>Node31</title>
<g id="a_node14"><a xlink:href="xcsf_8h.html#a0b4de57cb9dadc9deca7901aa36e5025" target="_top" xlink:title="Executes MAX_TRIALS number of XCSF learning iterations using the training. data and test iterations u...">
<polygon fill="none" stroke="#000000" points="553,-114.5 553,-133.5 607,-133.5 607,-114.5 553,-114.5"/>
<text text-anchor="middle" x="580" y="-121.5" font-family="Helvetica,sans-Serif" font-size="10.00" fill="#000000">xcsf_fit2</text>
</a>
</g>
</g>
<!-- Node30&#45;&gt;Node31 -->
<g id="edge14" class="edge">
<title>Node30&#45;&gt;Node31</title>
<path fill="none" stroke="#191970" d="M483.0264,-149.7692C506.1069,-143.6359 533.2613,-136.4201 552.9557,-131.1866"/>
<polygon fill="#191970" stroke="#191970" points="481.8506,-146.4601 473.0849,-152.411 483.6484,-153.2253 481.8506,-146.4601"/>
</g>
<!-- Node31&#45;&gt;Node24 -->
<g id="edge15" class="edge">
<title>Node31&#45;&gt;Node24</title>
<path fill="none" stroke="#191970" d="M614.0064,-137.2993C675.6813,-161.4191 804.0759,-211.6317 852.4819,-230.5624"/>
<polygon fill="#191970" stroke="#191970" points="614.9397,-133.9061 604.3517,-133.5235 612.3901,-140.4253 614.9397,-133.9061"/>
</g>
<!-- Node32 -->
<g id="node15" class="node">
<title>Node32</title>
<g id="a_node15"><a xlink:href="structXCS.html#a7d53320740db8e846251bacd0238a9fb" target="_top" xlink:title="XCS::fit">
<polygon fill="none" stroke="#000000" points="699,-114.5 699,-133.5 751,-133.5 751,-114.5 699,-114.5"/>
<text text-anchor="middle" x="725" y="-121.5" font-family="Helvetica,sans-Serif" font-size="10.00" fill="#000000">XCS::fit</text>
</a>
</g>
</g>
<!-- Node31&#45;&gt;Node32 -->
<g id="edge16" class="edge">
<title>Node31&#45;&gt;Node32</title>
<path fill="none" stroke="#191970" d="M617.3422,-124C642.8746,-124 676.0827,-124 698.8256,-124"/>
<polygon fill="#191970" stroke="#191970" points="617.2734,-120.5001 607.2734,-124 617.2734,-127.5001 617.2734,-120.5001"/>
</g>
<!-- Node33 -->
<g id="node16" class="node">
<title>Node33</title>
<g id="a_node16"><a xlink:href="xcsf_8h.html#a874829f28fee20f9ad15b540f4b4d6ff" target="_top" xlink:title="Executes MAX_TRIALS number of XCSF learning iterations using the training data. ">
<polygon fill="none" stroke="#000000" points="698,-76.5 698,-95.5 752,-95.5 752,-76.5 698,-76.5"/>
<text text-anchor="middle" x="725" y="-83.5" font-family="Helvetica,sans-Serif" font-size="10.00" fill="#000000">xcsf_fit1</text>
</a>
</g>
</g>
<!-- Node31&#45;&gt;Node33 -->
<g id="edge17" class="edge">
<title>Node31&#45;&gt;Node33</title>
<path fill="none" stroke="#191970" d="M617.2104,-114.2483C642.3974,-107.6476 675.1,-99.0772 697.8489,-93.1155"/>
<polygon fill="#191970" stroke="#191970" points="616.0594,-110.9317 607.2734,-116.8525 617.834,-117.703 616.0594,-110.9317"/>
</g>
<!-- Node34 -->
<g id="node17" class="node">
<title>Node34</title>
<g id="a_node17"><a xlink:href="structXCS.html#ad2ccafe59d2b4ae6d0e1cbc15edee53c" target="_top" xlink:title="XCS::fit">
<polygon fill="none" stroke="#000000" points="845.5,-76.5 845.5,-95.5 897.5,-95.5 897.5,-76.5 845.5,-76.5"/>
<text text-anchor="middle" x="871.5" y="-83.5" font-family="Helvetica,sans-Serif" font-size="10.00" fill="#000000">XCS::fit</text>
</a>
</g>
</g>
<!-- Node33&#45;&gt;Node34 -->
<g id="edge18" class="edge">
<title>Node33&#45;&gt;Node34</title>
<path fill="none" stroke="#191970" d="M762.4437,-86C788.4137,-86 822.3473,-86 845.4182,-86"/>
<polygon fill="#191970" stroke="#191970" points="762.2122,-82.5001 752.2122,-86 762.2122,-89.5001 762.2122,-82.5001"/>
</g>
<!-- Node34&#45;&gt;Node27 -->
<g id="edge19" class="edge">
<title>Node34&#45;&gt;Node27</title>
<path fill="none" stroke="#191970" d="M907.9611,-86C924.3946,-86 944.4187,-86 963.743,-86"/>
<polygon fill="#191970" stroke="#191970" points="907.724,-82.5001 897.724,-86 907.7239,-89.5001 907.724,-82.5001"/>
</g>
<!-- Node36 -->
<g id="node19" class="node">
<title>Node36</title>
<g id="a_node19"><a xlink:href="structXCS.html#a911ed75c86abed7807d33eb1385240ed" target="_top" xlink:title="XCS::predict">
<polygon fill="none" stroke="#000000" points="688.5,-304.5 688.5,-323.5 761.5,-323.5 761.5,-304.5 688.5,-304.5"/>
<text text-anchor="middle" x="725" y="-311.5" font-family="Helvetica,sans-Serif" font-size="10.00" fill="#000000">XCS::predict</text>
</a>
</g>
</g>
<!-- Node35&#45;&gt;Node36 -->
<g id="edge21" class="edge">
<title>Node35&#45;&gt;Node36</title>
<path fill="none" stroke="#191970" d="M625.3762,-314C645.6837,-314 669.3085,-314 688.4543,-314"/>
<polygon fill="#191970" stroke="#191970" points="625.1005,-310.5001 615.1005,-314 625.1004,-317.5001 625.1005,-310.5001"/>
</g>
<!-- Node36&#45;&gt;Node27 -->
<g id="edge22" class="edge">
<title>Node36&#45;&gt;Node27</title>
<path fill="none" stroke="#191970" d="M771.9589,-310.3795C816.0234,-304.9176 881.8754,-291.2362 928,-257 987.6485,-212.7257 1023.0179,-125.2683 1033.6093,-95.8895"/>
<polygon fill="#191970" stroke="#191970" points="771.3402,-306.9274 761.8026,-311.541 772.1356,-313.882 771.3402,-306.9274"/>
</g>
<!-- Node38 -->
<g id="node21" class="node">
<title>Node38</title>
<g id="a_node21"><a xlink:href="structXCS.html#aa5608b379fae01b724267a99068d55bb" target="_top" xlink:title="XCS::print_match_set">
<polygon fill="none" stroke="#000000" points="815,-.5 815,-19.5 928,-19.5 928,-.5 815,-.5"/>
<text text-anchor="middle" x="871.5" y="-7.5" font-family="Helvetica,sans-Serif" font-size="10.00" fill="#000000">XCS::print_match_set</text>
</a>
</g>
</g>
<!-- Node37&#45;&gt;Node38 -->
<g id="edge24" class="edge">
<title>Node37&#45;&gt;Node38</title>
<path fill="none" stroke="#191970" d="M645.4105,-16.9805C696.3246,-15.4085 766.2616,-13.2492 814.814,-11.7502"/>
<polygon fill="#191970" stroke="#191970" points="645.0588,-13.4896 635.1716,-17.2966 645.2749,-20.4862 645.0588,-13.4896"/>
</g>
<!-- Node38&#45;&gt;Node27 -->
<g id="edge25" class="edge">
<title>Node38&#45;&gt;Node27</title>
<path fill="none" stroke="#191970" d="M912.3719,-22.8901C917.6783,-24.8124 923.0024,-26.8687 928,-29 961.9826,-43.4926 999.8138,-64.4283 1020.7727,-76.4804"/>
<polygon fill="#191970" stroke="#191970" points="913.5087,-19.5799 902.9138,-19.5873 911.2009,-26.1885 913.5087,-19.5799"/>
</g>
<!-- Node39&#45;&gt;Node31 -->
<g id="edge27" class="edge">
<title>Node39&#45;&gt;Node31</title>
<path fill="none" stroke="#191970" d="M486.3639,-124C508.6032,-124 534.0123,-124 552.7451,-124"/>
<polygon fill="#191970" stroke="#191970" points="486.0754,-120.5001 476.0754,-124 486.0753,-127.5001 486.0754,-120.5001"/>
</g>
<!-- Node40 -->
<g id="node23" class="node">
<title>Node40</title>
<g id="a_node23"><a xlink:href="xcsf_8h.html#a2cf95733e5f97410d94211b72e835847" target="_top" xlink:title="Calculates the XCSF error for the input data. ">
<polygon fill="none" stroke="#000000" points="547.5,-66.5 547.5,-85.5 612.5,-85.5 612.5,-66.5 547.5,-66.5"/>
<text text-anchor="middle" x="580" y="-73.5" font-family="Helvetica,sans-Serif" font-size="10.00" fill="#000000">xcsf_score</text>
</a>
</g>
</g>
<!-- Node39&#45;&gt;Node40 -->
<g id="edge28" class="edge">
<title>Node39&#45;&gt;Node40</title>
<path fill="none" stroke="#191970" d="M475.102,-111.2105C499.0902,-103.1585 529.5473,-92.9352 551.4551,-85.5815"/>
<polygon fill="#191970" stroke="#191970" points="473.9609,-107.9016 465.5945,-114.4018 476.1885,-114.5377 473.9609,-107.9016"/>
</g>
<!-- Node41 -->
<g id="node24" class="node">
<title>Node41</title>
<g id="a_node24"><a xlink:href="structXCS.html#aa77bc77484d6d14bf512304a23cfec88" target="_top" xlink:title="XCS::score">
<polygon fill="none" stroke="#000000" points="837.5,-38.5 837.5,-57.5 905.5,-57.5 905.5,-38.5 837.5,-38.5"/>
<text text-anchor="middle" x="871.5" y="-45.5" font-family="Helvetica,sans-Serif" font-size="10.00" fill="#000000">XCS::score</text>
</a>
</g>
</g>
<!-- Node40&#45;&gt;Node41 -->
<g id="edge29" class="edge">
<title>Node40&#45;&gt;Node41</title>
<path fill="none" stroke="#191970" d="M622.9894,-71.7118C638.1595,-70.2082 655.3365,-68.5167 671,-67 729.4677,-61.3385 797.5447,-54.9251 837.4388,-51.1849"/>
<polygon fill="#191970" stroke="#191970" points="622.4563,-68.2474 612.851,-72.7182 623.1478,-75.2132 622.4563,-68.2474"/>
</g>
<!-- Node41&#45;&gt;Node27 -->
<g id="edge30" class="edge">
<title>Node41&#45;&gt;Node27</title>
<path fill="none" stroke="#191970" d="M915.653,-58.1378C940.4069,-63.8215 971.0992,-70.8687 995.4226,-76.4535"/>
<polygon fill="#191970" stroke="#191970" points="916.3214,-54.7003 905.7917,-55.8736 914.7548,-61.5228 916.3214,-54.7003"/>
</g>
</g>
</svg>
