<?xml version="1.0" encoding="UTF-8" standalone="no"?>
<!DOCTYPE svg PUBLIC "-//W3C//DTD SVG 1.1//EN"
 "http://www.w3.org/Graphics/SVG/1.1/DTD/svg11.dtd">
<!-- Generated by graphviz version 2.40.1 (20161225.0304)
 -->
<!-- Title: cond_gp_init Pages: 1 -->
<svg width="928pt" height="28pt"
 viewBox="0.00 0.00 928.00 28.00" xmlns="http://www.w3.org/2000/svg" xmlns:xlink="http://www.w3.org/1999/xlink">
<g id="graph0" class="graph" transform="scale(1 1) rotate(0) translate(4 24)">
<title>cond_gp_init</title>
<!-- Node33 -->
<g id="node1" class="node">
<title>Node33</title>
<polygon fill="#bfbfbf" stroke="#000000" points="0,-.5 0,-19.5 71,-19.5 71,-.5 0,-.5"/>
<text text-anchor="middle" x="35.5" y="-7.5" font-family="Helvetica,sans-Serif" font-size="10.00" fill="#000000">cond_gp_init</text>
</g>
<!-- Node34 -->
<g id="node2" class="node">
<title>Node34</title>
<g id="a_node2"><a xlink:href="$gp_8c.html#a33414d31c158a9e6c89f63bb9373b89e" xlink:title="Creates a random GP tree. ">
<polygon fill="none" stroke="#000000" points="107,-.5 107,-19.5 164,-19.5 164,-.5 107,-.5"/>
<text text-anchor="middle" x="135.5" y="-7.5" font-family="Helvetica,sans-Serif" font-size="10.00" fill="#000000">tree_rand</text>
</a>
</g>
</g>
<!-- Node33&#45;&gt;Node34 -->
<g id="edge1" class="edge">
<title>Node33&#45;&gt;Node34</title>
<path fill="none" stroke="#191970" d="M71.0378,-10C79.4191,-10 88.3936,-10 96.9027,-10"/>
<polygon fill="#191970" stroke="#191970" points="96.98,-13.5001 106.9799,-10 96.9799,-6.5001 96.98,-13.5001"/>
</g>
<!-- Node35 -->
<g id="node3" class="node">
<title>Node35</title>
<g id="a_node3"><a xlink:href="$gp_8c.html#aaf89c5486df161ec44733a12a7bf9f04" xlink:title="Grows a random GP tree of specified max length and depth. ">
<polygon fill="none" stroke="#000000" points="200,-.5 200,-19.5 259,-19.5 259,-.5 200,-.5"/>
<text text-anchor="middle" x="229.5" y="-7.5" font-family="Helvetica,sans-Serif" font-size="10.00" fill="#000000">tree_grow</text>
</a>
</g>
</g>
<!-- Node34&#45;&gt;Node35 -->
<g id="edge2" class="edge">
<title>Node34&#45;&gt;Node35</title>
<path fill="none" stroke="#191970" d="M164.2139,-10C172.2746,-10 181.1856,-10 189.7655,-10"/>
<polygon fill="#191970" stroke="#191970" points="189.9876,-13.5001 199.9875,-10 189.9875,-6.5001 189.9876,-13.5001"/>
</g>
<!-- Node36 -->
<g id="node4" class="node">
<title>Node36</title>
<g id="a_node4"><a xlink:href="$utils_8c.html#a32648ab076544a9ac1c086d0f07b599f" xlink:title="Returns a uniform random integer [min,max] not inclusive of max. ">
<polygon fill="none" stroke="#000000" points="295,-.5 295,-19.5 370,-19.5 370,-.5 295,-.5"/>
<text text-anchor="middle" x="332.5" y="-7.5" font-family="Helvetica,sans-Serif" font-size="10.00" fill="#000000">irand_uniform</text>
</a>
</g>
</g>
<!-- Node35&#45;&gt;Node36 -->
<g id="edge3" class="edge">
<title>Node35&#45;&gt;Node36</title>
<path fill="none" stroke="#191970" d="M259.0157,-10C267.0483,-10 275.9593,-10 284.7257,-10"/>
<polygon fill="#191970" stroke="#191970" points="284.8889,-13.5001 294.8888,-10 284.8888,-6.5001 284.8889,-13.5001"/>
</g>
<!-- Node37 -->
<g id="node5" class="node">
<title>Node37</title>
<g id="a_node5"><a xlink:href="$utils_8c.html#ae42a9e1d467853befaa7922cfafed3bb" xlink:title="Returns a uniform random float [min,max]. ">
<polygon fill="none" stroke="#000000" points="406,-.5 406,-19.5 479,-19.5 479,-.5 406,-.5"/>
<text text-anchor="middle" x="442.5" y="-7.5" font-family="Helvetica,sans-Serif" font-size="10.00" fill="#000000">rand_uniform</text>
</a>
</g>
</g>
<!-- Node36&#45;&gt;Node37 -->
<g id="edge4" class="edge">
<title>Node36&#45;&gt;Node37</title>
<path fill="none" stroke="#191970" d="M370.0481,-10C378.2782,-10 387.0899,-10 395.6338,-10"/>
<polygon fill="#191970" stroke="#191970" points="395.8657,-13.5001 405.8656,-10 395.8656,-6.5001 395.8657,-13.5001"/>
</g>
<!-- Node38 -->
<g id="node6" class="node">
<title>Node38</title>
<g id="a_node6"><a xlink:href="$utils_8c.html#a0c0a81e7797a05c535bad34449d8642c" xlink:title="Returns a uniform random float [0,1]. ">
<polygon fill="none" stroke="#000000" points="515,-.5 515,-19.5 556,-19.5 556,-.5 515,-.5"/>
<text text-anchor="middle" x="535.5" y="-7.5" font-family="Helvetica,sans-Serif" font-size="10.00" fill="#000000">drand</text>
</a>
</g>
</g>
<!-- Node37&#45;&gt;Node38 -->
<g id="edge5" class="edge">
<title>Node37&#45;&gt;Node38</title>
<path fill="none" stroke="#191970" d="M479.2561,-10C487.658,-10 496.5043,-10 504.63,-10"/>
<polygon fill="#191970" stroke="#191970" points="504.799,-13.5001 514.7989,-10 504.7989,-6.5001 504.799,-13.5001"/>
</g>
<!-- Node39 -->
<g id="node7" class="node">
<title>Node39</title>
<g id="a_node7"><a xlink:href="$mt19937-64_8c.html#aa0b74daf51eca91df224d00f1730084a" xlink:title="genrand64_real1">
<polygon fill="none" stroke="#000000" points="592,-.5 592,-19.5 680,-19.5 680,-.5 592,-.5"/>
<text text-anchor="middle" x="636" y="-7.5" font-family="Helvetica,sans-Serif" font-size="10.00" fill="#000000">genrand64_real1</text>
</a>
</g>
</g>
<!-- Node38&#45;&gt;Node39 -->
<g id="edge6" class="edge">
<title>Node38&#45;&gt;Node39</title>
<path fill="none" stroke="#191970" d="M556.3237,-10C563.8428,-10 572.7193,-10 581.769,-10"/>
<polygon fill="#191970" stroke="#191970" points="581.9969,-13.5001 591.9969,-10 581.9969,-6.5001 581.9969,-13.5001"/>
</g>
<!-- Node40 -->
<g id="node8" class="node">
<title>Node40</title>
<g id="a_node8"><a xlink:href="$mt19937-64_8c.html#a265bf48d20d6e0347371fcf4fe340e6d" xlink:title="genrand64_int64">
<polygon fill="none" stroke="#000000" points="716,-.5 716,-19.5 804,-19.5 804,-.5 716,-.5"/>
<text text-anchor="middle" x="760" y="-7.5" font-family="Helvetica,sans-Serif" font-size="10.00" fill="#000000">genrand64_int64</text>
</a>
</g>
</g>
<!-- Node39&#45;&gt;Node40 -->
<g id="edge7" class="edge">
<title>Node39&#45;&gt;Node40</title>
<path fill="none" stroke="#191970" d="M680.0669,-10C688.2822,-10 696.957,-10 705.4432,-10"/>
<polygon fill="#191970" stroke="#191970" points="705.6572,-13.5001 715.6572,-10 705.6572,-6.5001 705.6572,-13.5001"/>
</g>
<!-- Node41 -->
<g id="node9" class="node">
<title>Node41</title>
<g id="a_node9"><a xlink:href="$mt19937-64_8c.html#adf4127d44c2dc34fcb318d406131ef7c" xlink:title="init_genrand64">
<polygon fill="none" stroke="#000000" points="840,-.5 840,-19.5 920,-19.5 920,-.5 840,-.5"/>
<text text-anchor="middle" x="880" y="-7.5" font-family="Helvetica,sans-Serif" font-size="10.00" fill="#000000">init_genrand64</text>
</a>
</g>
</g>
<!-- Node40&#45;&gt;Node41 -->
<g id="edge8" class="edge">
<title>Node40&#45;&gt;Node41</title>
<path fill="none" stroke="#191970" d="M804.0022,-10C812.3719,-10 821.1896,-10 829.7365,-10"/>
<polygon fill="#191970" stroke="#191970" points="829.9792,-13.5001 839.9792,-10 829.9792,-6.5001 829.9792,-13.5001"/>
</g>
</g>
</svg>
