<?xml version="1.0" encoding="UTF-8" standalone="no"?>
<!DOCTYPE svg PUBLIC "-//W3C//DTD SVG 1.1//EN"
 "http://www.w3.org/Graphics/SVG/1.1/DTD/svg11.dtd">
<!-- Generated by graphviz version 2.40.1 (20161225.0304)
 -->
<!-- Title: cond_dgp_rand Pages: 1 -->
<svg width="1226pt" height="82pt"
 viewBox="0.00 0.00 1226.00 81.89" xmlns="http://www.w3.org/2000/svg" xmlns:xlink="http://www.w3.org/1999/xlink">
<g id="graph0" class="graph" transform="scale(1 1) rotate(0) translate(4 77.8926)">
<title>cond_dgp_rand</title>
<!-- Node88 -->
<g id="node1" class="node">
<title>Node88</title>
<polygon fill="#bfbfbf" stroke="#000000" points="0,-38.5 0,-57.5 83,-57.5 83,-38.5 0,-38.5"/>
<text text-anchor="middle" x="41.5" y="-45.5" font-family="Helvetica,sans-Serif" font-size="10.00" fill="#000000">cond_dgp_rand</text>
</g>
<!-- Node89 -->
<g id="node2" class="node">
<title>Node89</title>
<g id="a_node2"><a xlink:href="dgp_8c.html#a870d8b0c4cbc943f756b54ccbb3ff4c7" target="_top" xlink:title="Randomises a specified DGP graph. ">
<polygon fill="none" stroke="#000000" points="119,-38.5 119,-57.5 184,-57.5 184,-38.5 119,-38.5"/>
<text text-anchor="middle" x="151.5" y="-45.5" font-family="Helvetica,sans-Serif" font-size="10.00" fill="#000000">graph_rand</text>
</a>
</g>
</g>
<!-- Node88&#45;&gt;Node89 -->
<g id="edge1" class="edge">
<title>Node88&#45;&gt;Node89</title>
<path fill="none" stroke="#191970" d="M83.0863,-48C91.4774,-48 100.3122,-48 108.7428,-48"/>
<polygon fill="#191970" stroke="#191970" points="108.7687,-51.5001 118.7686,-48 108.7686,-44.5001 108.7687,-51.5001"/>
</g>
<!-- Node90 -->
<g id="node3" class="node">
<title>Node90</title>
<g id="a_node3"><a xlink:href="utils_8c.html#a32648ab076544a9ac1c086d0f07b599f" target="_top" xlink:title="Returns a uniform random integer [min,max] not inclusive of max. ">
<polygon fill="none" stroke="#000000" points="357,-38.5 357,-57.5 432,-57.5 432,-38.5 357,-38.5"/>
<text text-anchor="middle" x="394.5" y="-45.5" font-family="Helvetica,sans-Serif" font-size="10.00" fill="#000000">irand_uniform</text>
</a>
</g>
</g>
<!-- Node89&#45;&gt;Node90 -->
<g id="edge2" class="edge">
<title>Node89&#45;&gt;Node90</title>
<path fill="none" stroke="#191970" d="M184.0199,-48C225.8286,-48 298.7534,-48 346.8326,-48"/>
<polygon fill="#191970" stroke="#191970" points="346.9927,-51.5001 356.9927,-48 346.9927,-44.5001 346.9927,-51.5001"/>
</g>
<!-- Node91 -->
<g id="node4" class="node">
<title>Node91</title>
<g id="a_node4"><a xlink:href="utils_8c.html#ae42a9e1d467853befaa7922cfafed3bb" target="_top" xlink:title="Returns a uniform random float [min,max]. ">
<polygon fill="none" stroke="#000000" points="468,-38.5 468,-57.5 541,-57.5 541,-38.5 468,-38.5"/>
<text text-anchor="middle" x="504.5" y="-45.5" font-family="Helvetica,sans-Serif" font-size="10.00" fill="#000000">rand_uniform</text>
</a>
</g>
</g>
<!-- Node89&#45;&gt;Node91 -->
<g id="edge9" class="edge">
<title>Node89&#45;&gt;Node91</title>
<path fill="none" stroke="#191970" d="M184.0731,-55.8015C195.3821,-58.2046 208.1888,-60.5873 220,-62 313.5814,-73.193 338.5244,-79.0451 432,-67 442.9533,-65.5886 454.6128,-63.0246 465.3063,-60.2274"/>
<polygon fill="#191970" stroke="#191970" points="466.4945,-63.5306 475.2083,-57.5041 464.6382,-56.7812 466.4945,-63.5306"/>
</g>
<!-- Node97 -->
<g id="node10" class="node">
<title>Node97</title>
<g id="a_node10"><a xlink:href="dgp_8c.html#afdff428427a00c7e6c9ec124bbb4cf5f" target="_top" xlink:title="Returns a random connection. ">
<polygon fill="none" stroke="#000000" points="220,-.5 220,-19.5 321,-19.5 321,-.5 220,-.5"/>
<text text-anchor="middle" x="270.5" y="-7.5" font-family="Helvetica,sans-Serif" font-size="10.00" fill="#000000">random_connection</text>
</a>
</g>
</g>
<!-- Node89&#45;&gt;Node97 -->
<g id="edge10" class="edge">
<title>Node89&#45;&gt;Node97</title>
<path fill="none" stroke="#191970" d="M181.5287,-38.411C196.4677,-33.6406 214.7227,-27.8112 230.8006,-22.6771"/>
<polygon fill="#191970" stroke="#191970" points="232.0195,-25.9621 240.4809,-19.5859 229.8901,-19.2938 232.0195,-25.9621"/>
</g>
<!-- Node90&#45;&gt;Node91 -->
<g id="edge3" class="edge">
<title>Node90&#45;&gt;Node91</title>
<path fill="none" stroke="#191970" d="M432.0481,-48C440.2782,-48 449.0899,-48 457.6338,-48"/>
<polygon fill="#191970" stroke="#191970" points="457.8657,-51.5001 467.8656,-48 457.8656,-44.5001 457.8657,-51.5001"/>
</g>
<!-- Node92 -->
<g id="node5" class="node">
<title>Node92</title>
<g id="a_node5"><a xlink:href="utils_8c.html#a101d27cdda714b7f17a06224c65cac56" target="_top" xlink:title="Returns a uniform random float (0,1) ">
<polygon fill="none" stroke="#000000" points="577,-38.5 577,-57.5 618,-57.5 618,-38.5 577,-38.5"/>
<text text-anchor="middle" x="597.5" y="-45.5" font-family="Helvetica,sans-Serif" font-size="10.00" fill="#000000">drand</text>
</a>
</g>
</g>
<!-- Node91&#45;&gt;Node92 -->
<g id="edge4" class="edge">
<title>Node91&#45;&gt;Node92</title>
<path fill="none" stroke="#191970" d="M541.2561,-48C549.658,-48 558.5043,-48 566.63,-48"/>
<polygon fill="#191970" stroke="#191970" points="566.799,-51.5001 576.7989,-48 566.7989,-44.5001 566.799,-51.5001"/>
</g>
<!-- Node93 -->
<g id="node6" class="node">
<title>Node93</title>
<g id="a_node6"><a xlink:href="dSFMT_8h.html#af6dbcef408462da1f40edd1a1ea5dcd3" target="_top" xlink:title="dsfmt_gv_genrand_open_open">
<polygon fill="none" stroke="#000000" points="654,-38.5 654,-57.5 803,-57.5 803,-38.5 654,-38.5"/>
<text text-anchor="middle" x="728.5" y="-45.5" font-family="Helvetica,sans-Serif" font-size="10.00" fill="#000000">dsfmt_gv_genrand_open_open</text>
</a>
</g>
</g>
<!-- Node92&#45;&gt;Node93 -->
<g id="edge5" class="edge">
<title>Node92&#45;&gt;Node93</title>
<path fill="none" stroke="#191970" d="M618.2573,-48C625.5688,-48 634.3051,-48 643.6156,-48"/>
<polygon fill="#191970" stroke="#191970" points="643.9038,-51.5001 653.9037,-48 643.9037,-44.5001 643.9038,-51.5001"/>
</g>
<!-- Node94 -->
<g id="node7" class="node">
<title>Node94</title>
<g id="a_node7"><a xlink:href="dSFMT_8h.html#a147a0a05c969a4cb5d92ce3963b839c2" target="_top" xlink:title="dsfmt_genrand_open_open">
<polygon fill="none" stroke="#000000" points="839,-38.5 839,-57.5 973,-57.5 973,-38.5 839,-38.5"/>
<text text-anchor="middle" x="906" y="-45.5" font-family="Helvetica,sans-Serif" font-size="10.00" fill="#000000">dsfmt_genrand_open_open</text>
</a>
</g>
</g>
<!-- Node93&#45;&gt;Node94 -->
<g id="edge6" class="edge">
<title>Node93&#45;&gt;Node94</title>
<path fill="none" stroke="#191970" d="M803.0045,-48C811.4355,-48 820.0427,-48 828.5109,-48"/>
<polygon fill="#191970" stroke="#191970" points="828.7501,-51.5001 838.75,-48 828.75,-44.5001 828.7501,-51.5001"/>
</g>
<!-- Node95 -->
<g id="node8" class="node">
<title>Node95</title>
<g id="a_node8"><a xlink:href="dSFMT_8h.html#afccb1e4d75cea7ffe3b45cba53d1e5e0" target="_top" xlink:title="dsfmt_gen_rand_all">
<polygon fill="none" stroke="#000000" points="1009,-38.5 1009,-57.5 1110,-57.5 1110,-38.5 1009,-38.5"/>
<text text-anchor="middle" x="1059.5" y="-45.5" font-family="Helvetica,sans-Serif" font-size="10.00" fill="#000000">dsfmt_gen_rand_all</text>
</a>
</g>
</g>
<!-- Node94&#45;&gt;Node95 -->
<g id="edge7" class="edge">
<title>Node94&#45;&gt;Node95</title>
<path fill="none" stroke="#191970" d="M973.3273,-48C981.8031,-48 990.4345,-48 998.7997,-48"/>
<polygon fill="#191970" stroke="#191970" points="998.8429,-51.5001 1008.8429,-48 998.8428,-44.5001 998.8429,-51.5001"/>
</g>
<!-- Node96 -->
<g id="node9" class="node">
<title>Node96</title>
<g id="a_node9"><a xlink:href="dSFMT-common_8h.html#a43e33e2235015c9c072bad7dfe1a282c" target="_top" xlink:title="do_recursion">
<polygon fill="none" stroke="#000000" points="1146,-38.5 1146,-57.5 1218,-57.5 1218,-38.5 1146,-38.5"/>
<text text-anchor="middle" x="1182" y="-45.5" font-family="Helvetica,sans-Serif" font-size="10.00" fill="#000000">do_recursion</text>
</a>
</g>
</g>
<!-- Node95&#45;&gt;Node96 -->
<g id="edge8" class="edge">
<title>Node95&#45;&gt;Node96</title>
<path fill="none" stroke="#191970" d="M1110.0327,-48C1118.5603,-48 1127.3741,-48 1135.7846,-48"/>
<polygon fill="#191970" stroke="#191970" points="1135.7975,-51.5001 1145.7974,-48 1135.7974,-44.5001 1135.7975,-51.5001"/>
</g>
<!-- Node97&#45;&gt;Node90 -->
<g id="edge12" class="edge">
<title>Node97&#45;&gt;Node90</title>
<path fill="none" stroke="#191970" d="M301.7904,-19.589C317.5039,-24.4044 336.7383,-30.2988 353.6061,-35.468"/>
<polygon fill="#191970" stroke="#191970" points="352.6329,-38.8304 363.2196,-38.4141 354.684,-32.1376 352.6329,-38.8304"/>
</g>
<!-- Node97&#45;&gt;Node91 -->
<g id="edge11" class="edge">
<title>Node97&#45;&gt;Node91</title>
<path fill="none" stroke="#191970" d="M321.3302,-14.1513C353.2717,-17.2107 395.2433,-22.0564 432,-29 441.7741,-30.8464 452.1757,-33.2843 461.9584,-35.7958"/>
<polygon fill="#191970" stroke="#191970" points="461.3144,-39.2458 471.8769,-38.418 463.1036,-32.4783 461.3144,-39.2458"/>
</g>
</g>
</svg>
