<?xml version="1.0" encoding="UTF-8" standalone="no"?>
<!DOCTYPE svg PUBLIC "-//W3C//DTD SVG 1.1//EN"
 "http://www.w3.org/Graphics/SVG/1.1/DTD/svg11.dtd">
<!-- Generated by graphviz version 2.40.1 (20161225.0304)
 -->
<!-- Title: cond_gp_rand Pages: 1 -->
<svg width="1120pt" height="123pt"
 viewBox="0.00 0.00 1120.00 123.00" xmlns="http://www.w3.org/2000/svg" xmlns:xlink="http://www.w3.org/1999/xlink">
<g id="graph0" class="graph" transform="scale(1 1) rotate(0) translate(4 119)">
<title>cond_gp_rand</title>
<!-- Node73 -->
<g id="node1" class="node">
<title>Node73</title>
<polygon fill="#bfbfbf" stroke="#000000" points="0,-76.5 0,-95.5 77,-95.5 77,-76.5 0,-76.5"/>
<text text-anchor="middle" x="38.5" y="-83.5" font-family="Helvetica,sans-Serif" font-size="10.00" fill="#000000">cond_gp_rand</text>
</g>
<!-- Node74 -->
<g id="node2" class="node">
<title>Node74</title>
<g id="a_node2"><a xlink:href="gp_8c.html#aa5345452d3441ba131da2cb41fabd07b" target="_top" xlink:title="Frees a GP tree. ">
<polygon fill="none" stroke="#000000" points="114,-95.5 114,-114.5 169,-114.5 169,-95.5 114,-95.5"/>
<text text-anchor="middle" x="141.5" y="-102.5" font-family="Helvetica,sans-Serif" font-size="10.00" fill="#000000">tree_free</text>
</a>
</g>
</g>
<!-- Node73&#45;&gt;Node74 -->
<g id="edge1" class="edge">
<title>Node73&#45;&gt;Node74</title>
<path fill="none" stroke="#191970" d="M77.1464,-93.129C85.9266,-94.7486 95.2392,-96.4665 103.972,-98.0774"/>
<polygon fill="#191970" stroke="#191970" points="103.4215,-101.5348 113.8905,-99.907 104.6913,-94.6509 103.4215,-101.5348"/>
</g>
<!-- Node75 -->
<g id="node3" class="node">
<title>Node75</title>
<g id="a_node3"><a xlink:href="gp_8c.html#ae77c9d7102a5e5d3b0ecca6993117e21" target="_top" xlink:title="Creates a random GP tree. ">
<polygon fill="none" stroke="#000000" points="113,-57.5 113,-76.5 170,-76.5 170,-57.5 113,-57.5"/>
<text text-anchor="middle" x="141.5" y="-64.5" font-family="Helvetica,sans-Serif" font-size="10.00" fill="#000000">tree_rand</text>
</a>
</g>
</g>
<!-- Node73&#45;&gt;Node75 -->
<g id="edge2" class="edge">
<title>Node73&#45;&gt;Node75</title>
<path fill="none" stroke="#191970" d="M77.1464,-78.871C85.5876,-77.3139 94.521,-75.666 102.9581,-74.1097"/>
<polygon fill="#191970" stroke="#191970" points="103.7379,-77.525 112.937,-72.2689 102.468,-70.6411 103.7379,-77.525"/>
</g>
<!-- Node76 -->
<g id="node4" class="node">
<title>Node76</title>
<g id="a_node4"><a xlink:href="gp_8c.html#ab19988d921192b34eb305090b9f2a5e8" target="_top" xlink:title="Grows a random GP tree of specified max length and depth. ">
<polygon fill="none" stroke="#000000" points="206,-76.5 206,-95.5 265,-95.5 265,-76.5 206,-76.5"/>
<text text-anchor="middle" x="235.5" y="-83.5" font-family="Helvetica,sans-Serif" font-size="10.00" fill="#000000">tree_grow</text>
</a>
</g>
</g>
<!-- Node75&#45;&gt;Node76 -->
<g id="edge3" class="edge">
<title>Node75&#45;&gt;Node76</title>
<path fill="none" stroke="#191970" d="M170.2139,-72.8039C178.3632,-74.4511 187.3815,-76.2739 196.0482,-78.0257"/>
<polygon fill="#191970" stroke="#191970" points="195.4923,-81.484 205.9875,-80.0347 196.8792,-74.6228 195.4923,-81.484"/>
</g>
<!-- Node83 -->
<g id="node11" class="node">
<title>Node83</title>
<g id="a_node11"><a xlink:href="sam_8c.html#a3164f33509a5dc751b57a544fe2153a7" target="_top" xlink:title="Initialises self&#45;adaptive mutation rates. ">
<polygon fill="none" stroke="#000000" points="209,-38.5 209,-57.5 262,-57.5 262,-38.5 209,-38.5"/>
<text text-anchor="middle" x="235.5" y="-45.5" font-family="Helvetica,sans-Serif" font-size="10.00" fill="#000000">sam_init</text>
</a>
</g>
</g>
<!-- Node75&#45;&gt;Node83 -->
<g id="edge10" class="edge">
<title>Node75&#45;&gt;Node83</title>
<path fill="none" stroke="#191970" d="M170.2139,-61.1961C179.2541,-59.3689 189.3636,-57.3254 198.8763,-55.4027"/>
<polygon fill="#191970" stroke="#191970" points="199.7771,-58.7915 208.8854,-53.3795 198.3902,-51.9302 199.7771,-58.7915"/>
</g>
<!-- Node77 -->
<g id="node5" class="node">
<title>Node77</title>
<g id="a_node5"><a xlink:href="utils_8c.html#a32648ab076544a9ac1c086d0f07b599f" target="_top" xlink:title="Returns a uniform random integer [min,max] not inclusive of max. ">
<polygon fill="none" stroke="#000000" points="471.5,-38.5 471.5,-57.5 546.5,-57.5 546.5,-38.5 471.5,-38.5"/>
<text text-anchor="middle" x="509" y="-45.5" font-family="Helvetica,sans-Serif" font-size="10.00" fill="#000000">irand_uniform</text>
</a>
</g>
</g>
<!-- Node76&#45;&gt;Node77 -->
<g id="edge4" class="edge">
<title>Node76&#45;&gt;Node77</title>
<path fill="none" stroke="#191970" d="M265.0246,-83.945C301.5607,-81.1756 365.6096,-75.5808 420,-67 433.5557,-64.8614 448.1585,-61.9868 461.5371,-59.1217"/>
<polygon fill="#191970" stroke="#191970" points="462.4702,-62.5005 471.4917,-56.945 460.9748,-55.662 462.4702,-62.5005"/>
</g>
<!-- Node78 -->
<g id="node6" class="node">
<title>Node78</title>
<g id="a_node6"><a xlink:href="utils_8c.html#ae42a9e1d467853befaa7922cfafed3bb" target="_top" xlink:title="Returns a uniform random float [min,max]. ">
<polygon fill="none" stroke="#000000" points="598,-19.5 598,-38.5 671,-38.5 671,-19.5 598,-19.5"/>
<text text-anchor="middle" x="634.5" y="-26.5" font-family="Helvetica,sans-Serif" font-size="10.00" fill="#000000">rand_uniform</text>
</a>
</g>
</g>
<!-- Node77&#45;&gt;Node78 -->
<g id="edge5" class="edge">
<title>Node77&#45;&gt;Node78</title>
<path fill="none" stroke="#191970" d="M546.6541,-42.2994C559.542,-40.3482 574.1208,-38.1411 587.6451,-36.0936"/>
<polygon fill="#191970" stroke="#191970" points="588.3727,-39.5234 597.7361,-34.5658 587.3248,-32.6023 588.3727,-39.5234"/>
</g>
<!-- Node79 -->
<g id="node7" class="node">
<title>Node79</title>
<g id="a_node7"><a xlink:href="utils_8c.html#a101d27cdda714b7f17a06224c65cac56" target="_top" xlink:title="Returns a uniform random float [0,1]. ">
<polygon fill="none" stroke="#000000" points="707,-19.5 707,-38.5 748,-38.5 748,-19.5 707,-19.5"/>
<text text-anchor="middle" x="727.5" y="-26.5" font-family="Helvetica,sans-Serif" font-size="10.00" fill="#000000">drand</text>
</a>
</g>
</g>
<!-- Node78&#45;&gt;Node79 -->
<g id="edge6" class="edge">
<title>Node78&#45;&gt;Node79</title>
<path fill="none" stroke="#191970" d="M671.2561,-29C679.658,-29 688.5043,-29 696.63,-29"/>
<polygon fill="#191970" stroke="#191970" points="696.799,-32.5001 706.7989,-29 696.7989,-25.5001 696.799,-32.5001"/>
</g>
<!-- Node80 -->
<g id="node8" class="node">
<title>Node80</title>
<g id="a_node8"><a xlink:href="mt19937-64_8c.html#aa0b74daf51eca91df224d00f1730084a" target="_top" xlink:title="genrand64_real1">
<polygon fill="none" stroke="#000000" points="784,-19.5 784,-38.5 872,-38.5 872,-19.5 784,-19.5"/>
<text text-anchor="middle" x="828" y="-26.5" font-family="Helvetica,sans-Serif" font-size="10.00" fill="#000000">genrand64_real1</text>
</a>
</g>
</g>
<!-- Node79&#45;&gt;Node80 -->
<g id="edge7" class="edge">
<title>Node79&#45;&gt;Node80</title>
<path fill="none" stroke="#191970" d="M748.3237,-29C755.8428,-29 764.7193,-29 773.769,-29"/>
<polygon fill="#191970" stroke="#191970" points="773.9969,-32.5001 783.9969,-29 773.9969,-25.5001 773.9969,-32.5001"/>
</g>
<!-- Node81 -->
<g id="node9" class="node">
<title>Node81</title>
<g id="a_node9"><a xlink:href="mt19937-64_8c.html#a265bf48d20d6e0347371fcf4fe340e6d" target="_top" xlink:title="genrand64_int64">
<polygon fill="none" stroke="#000000" points="908,-19.5 908,-38.5 996,-38.5 996,-19.5 908,-19.5"/>
<text text-anchor="middle" x="952" y="-26.5" font-family="Helvetica,sans-Serif" font-size="10.00" fill="#000000">genrand64_int64</text>
</a>
</g>
</g>
<!-- Node80&#45;&gt;Node81 -->
<g id="edge8" class="edge">
<title>Node80&#45;&gt;Node81</title>
<path fill="none" stroke="#191970" d="M872.0669,-29C880.2822,-29 888.957,-29 897.4432,-29"/>
<polygon fill="#191970" stroke="#191970" points="897.6572,-32.5001 907.6572,-29 897.6572,-25.5001 897.6572,-32.5001"/>
</g>
<!-- Node82 -->
<g id="node10" class="node">
<title>Node82</title>
<g id="a_node10"><a xlink:href="mt19937-64_8c.html#adf4127d44c2dc34fcb318d406131ef7c" target="_top" xlink:title="init_genrand64">
<polygon fill="none" stroke="#000000" points="1032,-19.5 1032,-38.5 1112,-38.5 1112,-19.5 1032,-19.5"/>
<text text-anchor="middle" x="1072" y="-26.5" font-family="Helvetica,sans-Serif" font-size="10.00" fill="#000000">init_genrand64</text>
</a>
</g>
</g>
<!-- Node81&#45;&gt;Node82 -->
<g id="edge9" class="edge">
<title>Node81&#45;&gt;Node82</title>
<path fill="none" stroke="#191970" d="M996.0022,-29C1004.3719,-29 1013.1896,-29 1021.7365,-29"/>
<polygon fill="#191970" stroke="#191970" points="1021.9792,-32.5001 1031.9792,-29 1021.9792,-25.5001 1021.9792,-32.5001"/>
</g>
<!-- Node84 -->
<g id="node12" class="node">
<title>Node84</title>
<g id="a_node12"><a xlink:href="sam_8c.html#a3376574f2624a397ac253242b1958491" target="_top" xlink:title="Initialises log normal self&#45;adaptive mutation rates. ">
<polygon fill="none" stroke="#000000" points="456,-.5 456,-19.5 562,-19.5 562,-.5 456,-.5"/>
<text text-anchor="middle" x="509" y="-7.5" font-family="Helvetica,sans-Serif" font-size="10.00" fill="#000000">sam_log_normal_init</text>
</a>
</g>
</g>
<!-- Node83&#45;&gt;Node84 -->
<g id="edge11" class="edge">
<title>Node83&#45;&gt;Node84</title>
<path fill="none" stroke="#191970" d="M262.3067,-38.9666C274.0563,-35.3357 288.0857,-31.4397 301,-29 348.9574,-19.9403 403.9824,-15.155 445.3868,-12.6538"/>
<polygon fill="#191970" stroke="#191970" points="445.8249,-16.1345 455.6074,-12.0659 445.4228,-9.1461 445.8249,-16.1345"/>
</g>
<!-- Node85 -->
<g id="node13" class="node">
<title>Node85</title>
<g id="a_node13"><a xlink:href="sam_8c.html#a5c510f09cd5f6069b67e1b9a59df7acc" target="_top" xlink:title="Initialises rate selection self&#45;adaptive mutation. ">
<polygon fill="none" stroke="#000000" points="301,-38.5 301,-57.5 420,-57.5 420,-38.5 301,-38.5"/>
<text text-anchor="middle" x="360.5" y="-45.5" font-family="Helvetica,sans-Serif" font-size="10.00" fill="#000000">sam_rate_selection_init</text>
</a>
</g>
</g>
<!-- Node83&#45;&gt;Node85 -->
<g id="edge13" class="edge">
<title>Node83&#45;&gt;Node85</title>
<path fill="none" stroke="#191970" d="M262.0093,-48C270.5554,-48 280.4634,-48 290.6352,-48"/>
<polygon fill="#191970" stroke="#191970" points="290.8545,-51.5001 300.8544,-48 290.8544,-44.5001 290.8545,-51.5001"/>
</g>
<!-- Node84&#45;&gt;Node78 -->
<g id="edge12" class="edge">
<title>Node84&#45;&gt;Node78</title>
<path fill="none" stroke="#191970" d="M562.2233,-18.0577C570.7725,-19.352 579.5632,-20.6829 587.9406,-21.9512"/>
<polygon fill="#191970" stroke="#191970" points="587.4991,-25.4241 597.9103,-23.4605 588.5469,-18.503 587.4991,-25.4241"/>
</g>
<!-- Node85&#45;&gt;Node77 -->
<g id="edge14" class="edge">
<title>Node85&#45;&gt;Node77</title>
<path fill="none" stroke="#191970" d="M420.045,-48C433.6704,-48 447.9841,-48 461.05,-48"/>
<polygon fill="#191970" stroke="#191970" points="461.2241,-51.5001 471.2241,-48 461.2241,-44.5001 461.2241,-51.5001"/>
</g>
</g>
</svg>
