<?xml version="1.0" encoding="UTF-8" standalone="no"?>
<!DOCTYPE svg PUBLIC "-//W3C//DTD SVG 1.1//EN"
 "http://www.w3.org/Graphics/SVG/1.1/DTD/svg11.dtd">
<!-- Generated by graphviz version 2.40.1 (20161225.0304)
 -->
<!-- Title: cond_copy Pages: 1 -->
<svg width="795pt" height="142pt"
 viewBox="0.00 0.00 795.00 142.00" xmlns="http://www.w3.org/2000/svg" xmlns:xlink="http://www.w3.org/1999/xlink">
<g id="graph0" class="graph" transform="scale(1 1) rotate(0) translate(4 138)">
<title>cond_copy</title>
<!-- Node1 -->
<g id="node1" class="node">
<title>Node1</title>
<polygon fill="#bfbfbf" stroke="#000000" points="0,-76.5 0,-95.5 64,-95.5 64,-76.5 0,-76.5"/>
<text text-anchor="middle" x="32" y="-83.5" font-family="Helvetica,sans-Serif" font-size="10.00" fill="#000000">cond_copy</text>
</g>
<!-- Node2 -->
<g id="node2" class="node">
<title>Node2</title>
<g id="a_node2"><a xlink:href="cl_8h.html#aa16f42f7d761f9aedd063225b0b3b76e" target="_top" xlink:title="Copies the condition, action, and prediction from one classifier to another. ">
<polygon fill="none" stroke="#000000" points="100,-76.5 100,-95.5 150,-95.5 150,-76.5 100,-76.5"/>
<text text-anchor="middle" x="125" y="-83.5" font-family="Helvetica,sans-Serif" font-size="10.00" fill="#000000">cl_copy</text>
</a>
</g>
</g>
<!-- Node1&#45;&gt;Node2 -->
<g id="edge1" class="edge">
<title>Node1&#45;&gt;Node2</title>
<path fill="none" stroke="#191970" d="M74.1855,-86C83.0048,-86 92.0328,-86 99.986,-86"/>
<polygon fill="#191970" stroke="#191970" points="74.0054,-82.5001 64.0053,-86 74.0053,-89.5001 74.0054,-82.5001"/>
</g>
<!-- Node3 -->
<g id="node3" class="node">
<title>Node3</title>
<g id="a_node3"><a xlink:href="ea_8h.html#ae3824341a2f5482cb6ac70b3839ded51" target="_top" xlink:title="Executes the evolutionary algorithm (EA). ">
<polygon fill="none" stroke="#000000" points="186,-76.5 186,-95.5 215,-95.5 215,-76.5 186,-76.5"/>
<text text-anchor="middle" x="200.5" y="-83.5" font-family="Helvetica,sans-Serif" font-size="10.00" fill="#000000">ea</text>
</a>
</g>
</g>
<!-- Node2&#45;&gt;Node3 -->
<g id="edge2" class="edge">
<title>Node2&#45;&gt;Node3</title>
<path fill="none" stroke="#191970" d="M160.1602,-86C169.2088,-86 178.4567,-86 185.8113,-86"/>
<polygon fill="#191970" stroke="#191970" points="160.1404,-82.5001 150.1404,-86 160.1404,-89.5001 160.1404,-82.5001"/>
</g>
<!-- Node4 -->
<g id="node4" class="node">
<title>Node4</title>
<g id="a_node4"><a xlink:href="xcs__multi__step_8c.html#a617d9e432dc180dccf0c5ef11a94f79f" target="_top" xlink:title="Executes a multi&#45;step explore trial. ">
<polygon fill="none" stroke="#000000" points="253.5,-114.5 253.5,-133.5 348.5,-133.5 348.5,-114.5 253.5,-114.5"/>
<text text-anchor="middle" x="301" y="-121.5" font-family="Helvetica,sans-Serif" font-size="10.00" fill="#000000">xcs_multi_explore</text>
</a>
</g>
</g>
<!-- Node3&#45;&gt;Node4 -->
<g id="edge3" class="edge">
<title>Node3&#45;&gt;Node4</title>
<path fill="none" stroke="#191970" d="M224.6974,-95.1493C240.08,-100.9656 259.9652,-108.4843 275.5787,-114.388"/>
<polygon fill="#191970" stroke="#191970" points="225.9207,-91.87 215.3291,-91.607 223.4449,-98.4176 225.9207,-91.87"/>
</g>
<!-- Node8 -->
<g id="node8" class="node">
<title>Node8</title>
<g id="a_node8"><a xlink:href="xcs__single__step_8c.html#a7aa49a74bb28adda31400d94a29c2b0b" target="_top" xlink:title="Executes a single&#45;step explore trial. ">
<polygon fill="none" stroke="#000000" points="251,-76.5 251,-95.5 351,-95.5 351,-76.5 251,-76.5"/>
<text text-anchor="middle" x="301" y="-83.5" font-family="Helvetica,sans-Serif" font-size="10.00" fill="#000000">xcs_single_explore</text>
</a>
</g>
</g>
<!-- Node3&#45;&gt;Node8 -->
<g id="edge7" class="edge">
<title>Node3&#45;&gt;Node8</title>
<path fill="none" stroke="#191970" d="M225.4037,-86C233.1182,-86 241.9126,-86 250.7086,-86"/>
<polygon fill="#191970" stroke="#191970" points="225.3292,-82.5001 215.3291,-86 225.3291,-89.5001 225.3292,-82.5001"/>
</g>
<!-- Node10 -->
<g id="node10" class="node">
<title>Node10</title>
<g id="a_node10"><a xlink:href="xcsf_8c.html#a474f4e13cfc5f00958c689cd8c81135a" target="_top" xlink:title="Executes a single XCSF learning trial. ">
<polygon fill="none" stroke="#000000" points="259.5,-38.5 259.5,-57.5 342.5,-57.5 342.5,-38.5 259.5,-38.5"/>
<text text-anchor="middle" x="301" y="-45.5" font-family="Helvetica,sans-Serif" font-size="10.00" fill="#000000">xcsf_learn_trial</text>
</a>
</g>
</g>
<!-- Node3&#45;&gt;Node10 -->
<g id="edge10" class="edge">
<title>Node3&#45;&gt;Node10</title>
<path fill="none" stroke="#191970" d="M224.6974,-76.8507C240.08,-71.0344 259.9652,-63.5157 275.5787,-57.612"/>
<polygon fill="#191970" stroke="#191970" points="223.4449,-73.5824 215.3291,-80.393 225.9207,-80.13 223.4449,-73.5824"/>
</g>
<!-- Node5 -->
<g id="node5" class="node">
<title>Node5</title>
<g id="a_node5"><a xlink:href="xcs__multi__step_8h.html#acc29d4a55dbd56c16ea5f19f15a7c677" target="_top" xlink:title="Executes a multi&#45;step reinforcement learning experiment. ">
<polygon fill="none" stroke="#000000" points="389,-114.5 389,-133.5 493,-133.5 493,-114.5 389,-114.5"/>
<text text-anchor="middle" x="441" y="-121.5" font-family="Helvetica,sans-Serif" font-size="10.00" fill="#000000">xcs_multi_step_exp</text>
</a>
</g>
</g>
<!-- Node4&#45;&gt;Node5 -->
<g id="edge4" class="edge">
<title>Node4&#45;&gt;Node5</title>
<path fill="none" stroke="#191970" d="M358.9011,-124C368.7523,-124 378.9332,-124 388.6312,-124"/>
<polygon fill="#191970" stroke="#191970" points="358.7885,-120.5001 348.7885,-124 358.7885,-127.5001 358.7885,-120.5001"/>
</g>
<!-- Node6 -->
<g id="node6" class="node">
<title>Node6</title>
<g id="a_node6"><a xlink:href="main_8c.html#ab572a67aa431827116ebd6931d667d21" target="_top" xlink:title="classification">
<polygon fill="none" stroke="#000000" points="531,-114.5 531,-133.5 605,-133.5 605,-114.5 531,-114.5"/>
<text text-anchor="middle" x="568" y="-121.5" font-family="Helvetica,sans-Serif" font-size="10.00" fill="#000000">classification</text>
</a>
</g>
</g>
<!-- Node5&#45;&gt;Node6 -->
<g id="edge5" class="edge">
<title>Node5&#45;&gt;Node6</title>
<path fill="none" stroke="#191970" d="M503.1594,-124C512.5516,-124 521.9829,-124 530.6309,-124"/>
<polygon fill="#191970" stroke="#191970" points="503.0222,-120.5001 493.0222,-124 503.0222,-127.5001 503.0222,-120.5001"/>
</g>
<!-- Node7 -->
<g id="node7" class="node">
<title>Node7</title>
<g id="a_node7"><a xlink:href="main_8c.html#a3c04138a5bfe5d72780bb7e82a18e627" target="_top" xlink:title="main">
<polygon fill="none" stroke="#000000" points="695,-95.5 695,-114.5 733,-114.5 733,-95.5 695,-95.5"/>
<text text-anchor="middle" x="714" y="-102.5" font-family="Helvetica,sans-Serif" font-size="10.00" fill="#000000">main</text>
</a>
</g>
</g>
<!-- Node6&#45;&gt;Node7 -->
<g id="edge6" class="edge">
<title>Node6&#45;&gt;Node7</title>
<path fill="none" stroke="#191970" d="M615.2611,-117.8496C642.2443,-114.3381 674.6082,-110.1263 694.7429,-107.5061"/>
<polygon fill="#191970" stroke="#191970" points="614.6844,-114.395 605.2197,-119.1563 615.5878,-121.3365 614.6844,-114.395"/>
</g>
<!-- Node9 -->
<g id="node9" class="node">
<title>Node9</title>
<g id="a_node9"><a xlink:href="xcs__single__step_8h.html#a39a031bf59eaa9b33e30e614610dcda8" target="_top" xlink:title="Executes a single&#45;step experiment. ">
<polygon fill="none" stroke="#000000" points="387,-76.5 387,-95.5 495,-95.5 495,-76.5 387,-76.5"/>
<text text-anchor="middle" x="441" y="-83.5" font-family="Helvetica,sans-Serif" font-size="10.00" fill="#000000">xcs_single_step_exp</text>
</a>
</g>
</g>
<!-- Node8&#45;&gt;Node9 -->
<g id="edge8" class="edge">
<title>Node8&#45;&gt;Node9</title>
<path fill="none" stroke="#191970" d="M361.3823,-86C369.8794,-86 378.5692,-86 386.9381,-86"/>
<polygon fill="#191970" stroke="#191970" points="361.1478,-82.5001 351.1478,-86 361.1477,-89.5001 361.1478,-82.5001"/>
</g>
<!-- Node9&#45;&gt;Node6 -->
<g id="edge9" class="edge">
<title>Node9&#45;&gt;Node6</title>
<path fill="none" stroke="#191970" d="M482.8943,-98.5353C500.1712,-103.7048 519.8707,-109.5991 535.9628,-114.4141"/>
<polygon fill="#191970" stroke="#191970" points="483.6311,-95.1025 473.0475,-95.589 481.6245,-101.8088 483.6311,-95.1025"/>
</g>
<!-- Node11 -->
<g id="node11" class="node">
<title>Node11</title>
<g id="a_node11"><a xlink:href="xcsf_8h.html#a874829f28fee20f9ad15b540f4b4d6ff" target="_top" xlink:title="Executes MAX_TRIALS number of XCSF learning iterations using the training data. ">
<polygon fill="none" stroke="#000000" points="414,-.5 414,-19.5 468,-19.5 468,-.5 414,-.5"/>
<text text-anchor="middle" x="441" y="-7.5" font-family="Helvetica,sans-Serif" font-size="10.00" fill="#000000">xcsf_fit1</text>
</a>
</g>
</g>
<!-- Node10&#45;&gt;Node11 -->
<g id="edge11" class="edge">
<title>Node10&#45;&gt;Node11</title>
<path fill="none" stroke="#191970" d="M346.2271,-35.7241C368.4412,-29.6945 394.4767,-22.6277 413.6326,-17.4283"/>
<polygon fill="#191970" stroke="#191970" points="345.0619,-32.4136 336.3279,-38.411 346.8956,-39.1692 345.0619,-32.4136"/>
</g>
<!-- Node14 -->
<g id="node14" class="node">
<title>Node14</title>
<g id="a_node14"><a xlink:href="xcsf_8h.html#a0b4de57cb9dadc9deca7901aa36e5025" target="_top" xlink:title="Executes MAX_TRIALS number of XCSF learning iterations using the training. data and test iterations u...">
<polygon fill="none" stroke="#000000" points="414,-38.5 414,-57.5 468,-57.5 468,-38.5 414,-38.5"/>
<text text-anchor="middle" x="441" y="-45.5" font-family="Helvetica,sans-Serif" font-size="10.00" fill="#000000">xcsf_fit2</text>
</a>
</g>
</g>
<!-- Node10&#45;&gt;Node14 -->
<g id="edge14" class="edge">
<title>Node10&#45;&gt;Node14</title>
<path fill="none" stroke="#191970" d="M352.8921,-48C373.6074,-48 396.5945,-48 413.8938,-48"/>
<polygon fill="#191970" stroke="#191970" points="352.6256,-44.5001 342.6256,-48 352.6255,-51.5001 352.6256,-44.5001"/>
</g>
<!-- Node12 -->
<g id="node12" class="node">
<title>Node12</title>
<g id="a_node12"><a xlink:href="structXCS.html#ad2ccafe59d2b4ae6d0e1cbc15edee53c" target="_top" xlink:title="XCS::fit">
<polygon fill="none" stroke="#000000" points="542,-.5 542,-19.5 594,-19.5 594,-.5 542,-.5"/>
<text text-anchor="middle" x="568" y="-7.5" font-family="Helvetica,sans-Serif" font-size="10.00" fill="#000000">XCS::fit</text>
</a>
</g>
</g>
<!-- Node11&#45;&gt;Node12 -->
<g id="edge12" class="edge">
<title>Node11&#45;&gt;Node12</title>
<path fill="none" stroke="#191970" d="M478.4227,-10C498.7458,-10 523.3818,-10 541.6699,-10"/>
<polygon fill="#191970" stroke="#191970" points="478.2447,-6.5001 468.2447,-10 478.2447,-13.5001 478.2447,-6.5001"/>
</g>
<!-- Node13 -->
<g id="node13" class="node">
<title>Node13</title>
<g id="a_node13"><a xlink:href="python__wrapper_8cpp.html#afbdcc1358036a0b83a6b239da2b098a2" target="_top" xlink:title="BOOST_PYTHON_MODULE">
<polygon fill="none" stroke="#000000" points="641,-.5 641,-19.5 787,-19.5 787,-.5 641,-.5"/>
<text text-anchor="middle" x="714" y="-7.5" font-family="Helvetica,sans-Serif" font-size="10.00" fill="#000000">BOOST_PYTHON_MODULE</text>
</a>
</g>
</g>
<!-- Node12&#45;&gt;Node13 -->
<g id="edge13" class="edge">
<title>Node12&#45;&gt;Node13</title>
<path fill="none" stroke="#191970" d="M604.2709,-10C615.4242,-10 628.1243,-10 640.8312,-10"/>
<polygon fill="#191970" stroke="#191970" points="604.1019,-6.5001 594.1019,-10 604.1018,-13.5001 604.1019,-6.5001"/>
</g>
<!-- Node15 -->
<g id="node15" class="node">
<title>Node15</title>
<g id="a_node15"><a xlink:href="main_8c.html#a968c78da8ed8ad08662a86280deec99a" target="_top" xlink:title="regression">
<polygon fill="none" stroke="#000000" points="537,-76.5 537,-95.5 599,-95.5 599,-76.5 537,-76.5"/>
<text text-anchor="middle" x="568" y="-83.5" font-family="Helvetica,sans-Serif" font-size="10.00" fill="#000000">regression</text>
</a>
</g>
</g>
<!-- Node14&#45;&gt;Node15 -->
<g id="edge15" class="edge">
<title>Node14&#45;&gt;Node15</title>
<path fill="none" stroke="#191970" d="M477.8981,-59.0404C496.5652,-64.6258 518.9762,-71.3315 536.7773,-76.6578"/>
<polygon fill="#191970" stroke="#191970" points="478.8283,-55.6655 468.2447,-56.152 476.8217,-62.3717 478.8283,-55.6655"/>
</g>
<!-- Node16 -->
<g id="node16" class="node">
<title>Node16</title>
<g id="a_node16"><a xlink:href="structXCS.html#a7d53320740db8e846251bacd0238a9fb" target="_top" xlink:title="XCS::fit">
<polygon fill="none" stroke="#000000" points="542,-38.5 542,-57.5 594,-57.5 594,-38.5 542,-38.5"/>
<text text-anchor="middle" x="568" y="-45.5" font-family="Helvetica,sans-Serif" font-size="10.00" fill="#000000">XCS::fit</text>
</a>
</g>
</g>
<!-- Node14&#45;&gt;Node16 -->
<g id="edge17" class="edge">
<title>Node14&#45;&gt;Node16</title>
<path fill="none" stroke="#191970" d="M478.4227,-48C498.7458,-48 523.3818,-48 541.6699,-48"/>
<polygon fill="#191970" stroke="#191970" points="478.2447,-44.5001 468.2447,-48 478.2447,-51.5001 478.2447,-44.5001"/>
</g>
<!-- Node15&#45;&gt;Node7 -->
<g id="edge16" class="edge">
<title>Node15&#45;&gt;Node7</title>
<path fill="none" stroke="#191970" d="M609.2659,-91.3702C637.3244,-95.0217 673.1493,-99.6838 694.7946,-102.5007"/>
<polygon fill="#191970" stroke="#191970" points="609.6887,-87.8958 599.3207,-90.076 608.7853,-94.8373 609.6887,-87.8958"/>
</g>
</g>
</svg>
