<?xml version="1.0" encoding="UTF-8" standalone="no"?>
<!DOCTYPE svg PUBLIC "-//W3C//DTD SVG 1.1//EN"
 "http://www.w3.org/Graphics/SVG/1.1/DTD/svg11.dtd">
<!-- Generated by graphviz version 2.40.1 (20161225.0304)
 -->
<!-- Title: cond_free Pages: 1 -->
<svg width="1157pt" height="421pt"
 viewBox="0.00 0.00 1157.00 420.73" xmlns="http://www.w3.org/2000/svg" xmlns:xlink="http://www.w3.org/1999/xlink">
<g id="graph0" class="graph" transform="scale(1 1) rotate(0) translate(4 416.7327)">
<title>cond_free</title>
<!-- Node60 -->
<g id="node1" class="node">
<title>Node60</title>
<polygon fill="#bfbfbf" stroke="#000000" points="0,-233.2327 0,-252.2327 59,-252.2327 59,-233.2327 0,-233.2327"/>
<text text-anchor="middle" x="29.5" y="-240.2327" font-family="Helvetica,sans-Serif" font-size="10.00" fill="#000000">cond_free</text>
</g>
<!-- Node61 -->
<g id="node2" class="node">
<title>Node61</title>
<g id="a_node2"><a xlink:href="cl_8h.html#a7bf8d03856a0c04854cfd99fcd45b32a" target="_top" xlink:title="Frees the memory used by the classifier. ">
<polygon fill="none" stroke="#000000" points="95,-233.2327 95,-252.2327 141,-252.2327 141,-233.2327 95,-233.2327"/>
<text text-anchor="middle" x="118" y="-240.2327" font-family="Helvetica,sans-Serif" font-size="10.00" fill="#000000">cl_free</text>
</a>
</g>
</g>
<!-- Node60&#45;&gt;Node61 -->
<g id="edge1" class="edge">
<title>Node60&#45;&gt;Node61</title>
<path fill="none" stroke="#191970" d="M69.7397,-242.7327C78.3199,-242.7327 87.1028,-242.7327 94.7838,-242.7327"/>
<polygon fill="#191970" stroke="#191970" points="69.4621,-239.2328 59.4621,-242.7327 69.462,-246.2328 69.4621,-239.2328"/>
</g>
<!-- Node62 -->
<g id="node3" class="node">
<title>Node62</title>
<g id="a_node3"><a xlink:href="ea_8c.html#a14278fc032b7fb0c473e11764ab1c4d1" target="_top" xlink:title="Adds offspring to the population. ">
<polygon fill="none" stroke="#000000" points="285,-271.2327 285,-290.2327 333,-290.2327 333,-271.2327 285,-271.2327"/>
<text text-anchor="middle" x="309" y="-278.2327" font-family="Helvetica,sans-Serif" font-size="10.00" fill="#000000">ea_add</text>
</a>
</g>
</g>
<!-- Node61&#45;&gt;Node62 -->
<g id="edge2" class="edge">
<title>Node61&#45;&gt;Node62</title>
<path fill="none" stroke="#191970" d="M151.3614,-246.0554C178.0017,-249.0714 216.1736,-254.2072 249,-261.7327 260.9282,-264.4672 273.9036,-268.4457 284.7268,-272.0564"/>
<polygon fill="#191970" stroke="#191970" points="151.7229,-242.5741 141.4016,-244.9657 150.9616,-249.5326 151.7229,-242.5741"/>
</g>
<!-- Node77 -->
<g id="node18" class="node">
<title>Node77</title>
<g id="a_node18"><a xlink:href="ea_8c.html#afe1eb3a920dc0bbcd5f737b9cdda2170" target="_top" xlink:title="Performs evolutionary algorithm subsumption. ">
<polygon fill="none" stroke="#000000" points="177,-271.2327 177,-290.2327 249,-290.2327 249,-271.2327 177,-271.2327"/>
<text text-anchor="middle" x="213" y="-278.2327" font-family="Helvetica,sans-Serif" font-size="10.00" fill="#000000">ea_subsume</text>
</a>
</g>
</g>
<!-- Node61&#45;&gt;Node77 -->
<g id="edge20" class="edge">
<title>Node61&#45;&gt;Node77</title>
<path fill="none" stroke="#191970" d="M151.1284,-255.984C163.6419,-260.9894 177.6246,-266.5825 189.1271,-271.1835"/>
<polygon fill="#191970" stroke="#191970" points="152.0678,-252.5902 141.4832,-252.1259 149.468,-259.0896 152.0678,-252.5902"/>
</g>
<!-- Node78 -->
<g id="node19" class="node">
<title>Node78</title>
<g id="a_node19"><a xlink:href="cl__set_8h.html#a0b2479df1a61213f1f150907c62278bb" target="_top" xlink:title="Frees the set and the classifiers. ">
<polygon fill="none" stroke="#000000" points="459.5,-174.2327 459.5,-193.2327 506.5,-193.2327 506.5,-174.2327 459.5,-174.2327"/>
<text text-anchor="middle" x="483" y="-181.2327" font-family="Helvetica,sans-Serif" font-size="10.00" fill="#000000">set_kill</text>
</a>
</g>
</g>
<!-- Node61&#45;&gt;Node78 -->
<g id="edge22" class="edge">
<title>Node61&#45;&gt;Node78</title>
<path fill="none" stroke="#191970" d="M151.093,-237.3834C223.8265,-225.6265 396.1434,-197.7725 459.2832,-187.5663"/>
<polygon fill="#191970" stroke="#191970" points="150.4226,-233.9462 141.1093,-238.9972 151.5397,-240.8565 150.4226,-233.9462"/>
</g>
<!-- Node63 -->
<g id="node4" class="node">
<title>Node63</title>
<g id="a_node4"><a xlink:href="ea_8h.html#ae3824341a2f5482cb6ac70b3839ded51" target="_top" xlink:title="Executes the evolutionary algorithm (EA). ">
<polygon fill="none" stroke="#000000" points="369,-276.2327 369,-295.2327 398,-295.2327 398,-276.2327 369,-276.2327"/>
<text text-anchor="middle" x="383.5" y="-283.2327" font-family="Helvetica,sans-Serif" font-size="10.00" fill="#000000">ea</text>
</a>
</g>
</g>
<!-- Node62&#45;&gt;Node63 -->
<g id="edge3" class="edge">
<title>Node62&#45;&gt;Node63</title>
<path fill="none" stroke="#191970" d="M343.613,-283.0557C352.5007,-283.6522 361.5897,-284.2622 368.8423,-284.7489"/>
<polygon fill="#191970" stroke="#191970" points="343.606,-279.5474 333.3941,-282.3699 343.1372,-286.5317 343.606,-279.5474"/>
</g>
<!-- Node64 -->
<g id="node5" class="node">
<title>Node64</title>
<g id="a_node5"><a xlink:href="xcs__multi__step_8c.html#a1e1c2a3094be715b468dda79cd59ebf3" target="_top" xlink:title="Executes a multi&#45;step trial using a built&#45;in environment. ">
<polygon fill="none" stroke="#000000" points="583,-241.2327 583,-260.2327 663,-260.2327 663,-241.2327 583,-241.2327"/>
<text text-anchor="middle" x="623" y="-248.2327" font-family="Helvetica,sans-Serif" font-size="10.00" fill="#000000">xcs_multi_trial</text>
</a>
</g>
</g>
<!-- Node63&#45;&gt;Node64 -->
<g id="edge4" class="edge">
<title>Node63&#45;&gt;Node64</title>
<path fill="none" stroke="#191970" d="M407.8088,-279.9834C416.0886,-278.1465 425.4195,-276.209 434,-274.7327 485.0143,-265.9552 544.2891,-258.9403 582.6595,-254.8132"/>
<polygon fill="#191970" stroke="#191970" points="406.9912,-276.5799 398.0187,-282.2142 408.5464,-283.405 406.9912,-276.5799"/>
</g>
<!-- Node67 -->
<g id="node8" class="node">
<title>Node67</title>
<g id="a_node8"><a xlink:href="xcs__single__step_8h.html#aff4aec035e4573993a7906569f2028f5" target="_top" xlink:title="Creates the action set, updates the classifiers and runs the EA. ">
<polygon fill="none" stroke="#000000" points="434,-317.2327 434,-336.2327 532,-336.2327 532,-317.2327 434,-317.2327"/>
<text text-anchor="middle" x="483" y="-324.2327" font-family="Helvetica,sans-Serif" font-size="10.00" fill="#000000">xcs_single_update</text>
</a>
</g>
</g>
<!-- Node63&#45;&gt;Node67 -->
<g id="edge7" class="edge">
<title>Node63&#45;&gt;Node67</title>
<path fill="none" stroke="#191970" d="M407.8025,-295.7467C423.6263,-302.2671 444.1505,-310.7243 459.758,-317.1556"/>
<polygon fill="#191970" stroke="#191970" points="408.7609,-292.3562 398.1816,-291.7824 406.0939,-298.8283 408.7609,-292.3562"/>
</g>
<!-- Node72 -->
<g id="node13" class="node">
<title>Node72</title>
<g id="a_node13"><a xlink:href="xcsf_8c.html#a474f4e13cfc5f00958c689cd8c81135a" target="_top" xlink:title="Executes a single XCSF learning trial. ">
<polygon fill="none" stroke="#000000" points="581.5,-317.2327 581.5,-336.2327 664.5,-336.2327 664.5,-317.2327 581.5,-317.2327"/>
<text text-anchor="middle" x="623" y="-324.2327" font-family="Helvetica,sans-Serif" font-size="10.00" fill="#000000">xcsf_learn_trial</text>
</a>
</g>
</g>
<!-- Node63&#45;&gt;Node72 -->
<g id="edge13" class="edge">
<title>Node63&#45;&gt;Node72</title>
<path fill="none" stroke="#191970" d="M408.5463,-288.986C438.125,-292.9337 488.7724,-300.0247 532,-307.7327 548.2065,-310.6225 565.9449,-314.2257 581.4216,-317.5152"/>
<polygon fill="#191970" stroke="#191970" points="408.6733,-285.4724 398.3009,-287.6322 407.7562,-292.4121 408.6733,-285.4724"/>
</g>
<!-- Node65 -->
<g id="node6" class="node">
<title>Node65</title>
<g id="a_node6"><a xlink:href="xcs__multi__step_8h.html#acc29d4a55dbd56c16ea5f19f15a7c677" target="_top" xlink:title="Executes a multi&#45;step reinforcement learning experiment. ">
<polygon fill="none" stroke="#000000" points="718.5,-241.2327 718.5,-260.2327 822.5,-260.2327 822.5,-241.2327 718.5,-241.2327"/>
<text text-anchor="middle" x="770.5" y="-248.2327" font-family="Helvetica,sans-Serif" font-size="10.00" fill="#000000">xcs_multi_step_exp</text>
</a>
</g>
</g>
<!-- Node64&#45;&gt;Node65 -->
<g id="edge5" class="edge">
<title>Node64&#45;&gt;Node65</title>
<path fill="none" stroke="#191970" d="M673.5575,-250.7327C688.0087,-250.7327 703.7825,-250.7327 718.3284,-250.7327"/>
<polygon fill="#191970" stroke="#191970" points="673.3051,-247.2328 663.305,-250.7327 673.305,-254.2328 673.3051,-247.2328"/>
</g>
<!-- Node66 -->
<g id="node7" class="node">
<title>Node66</title>
<g id="a_node7"><a xlink:href="main_8c.html#a3c04138a5bfe5d72780bb7e82a18e627" target="_top" xlink:title="main">
<polygon fill="none" stroke="#000000" points="896,-241.2327 896,-260.2327 934,-260.2327 934,-241.2327 896,-241.2327"/>
<text text-anchor="middle" x="915" y="-248.2327" font-family="Helvetica,sans-Serif" font-size="10.00" fill="#000000">main</text>
</a>
</g>
</g>
<!-- Node65&#45;&gt;Node66 -->
<g id="edge6" class="edge">
<title>Node65&#45;&gt;Node66</title>
<path fill="none" stroke="#191970" d="M832.6977,-250.7327C855.5615,-250.7327 879.7951,-250.7327 895.9977,-250.7327"/>
<polygon fill="#191970" stroke="#191970" points="832.6679,-247.2328 822.6678,-250.7327 832.6678,-254.2328 832.6679,-247.2328"/>
</g>
<!-- Node68 -->
<g id="node9" class="node">
<title>Node68</title>
<g id="a_node9"><a xlink:href="structXCS.html#aedc01ad6f00a54b260a7605929a1d4c9" target="_top" xlink:title="XCS::single_update">
<polygon fill="none" stroke="#000000" points="863,-393.2327 863,-412.2327 967,-412.2327 967,-393.2327 863,-393.2327"/>
<text text-anchor="middle" x="915" y="-400.2327" font-family="Helvetica,sans-Serif" font-size="10.00" fill="#000000">XCS::single_update</text>
</a>
</g>
</g>
<!-- Node67&#45;&gt;Node68 -->
<g id="edge8" class="edge">
<title>Node67&#45;&gt;Node68</title>
<path fill="none" stroke="#191970" d="M524.8157,-339.0316C570.7901,-352.0871 647.0342,-372.3696 714,-383.7327 764.1083,-392.2353 821.9373,-397.2015 862.6654,-399.9097"/>
<polygon fill="#191970" stroke="#191970" points="525.777,-335.6663 515.2,-336.2808 523.8517,-342.3963 525.777,-335.6663"/>
</g>
<!-- Node70 -->
<g id="node11" class="node">
<title>Node70</title>
<g id="a_node11"><a xlink:href="xcs__single__step_8c.html#a3d1fd2472d35310800aed897219a65af" target="_top" xlink:title="Executes a single&#45;step trial using a built&#45;in environment. ">
<polygon fill="none" stroke="#000000" points="581,-279.2327 581,-298.2327 665,-298.2327 665,-279.2327 581,-279.2327"/>
<text text-anchor="middle" x="623" y="-286.2327" font-family="Helvetica,sans-Serif" font-size="10.00" fill="#000000">xcs_single_trial</text>
</a>
</g>
</g>
<!-- Node67&#45;&gt;Node70 -->
<g id="edge10" class="edge">
<title>Node67&#45;&gt;Node70</title>
<path fill="none" stroke="#191970" d="M528.1176,-314.4865C547.4149,-309.2486 569.6124,-303.2236 587.6834,-298.3186"/>
<polygon fill="#191970" stroke="#191970" points="527.0619,-311.1463 518.3279,-317.1437 528.8956,-317.9019 527.0619,-311.1463"/>
</g>
<!-- Node69 -->
<g id="node10" class="node">
<title>Node69</title>
<g id="a_node10"><a xlink:href="python__wrapper_8cpp.html#afbdcc1358036a0b83a6b239da2b098a2" target="_top" xlink:title="BOOST_PYTHON_MODULE">
<polygon fill="none" stroke="#000000" points="1003,-127.2327 1003,-146.2327 1149,-146.2327 1149,-127.2327 1003,-127.2327"/>
<text text-anchor="middle" x="1076" y="-134.2327" font-family="Helvetica,sans-Serif" font-size="10.00" fill="#000000">BOOST_PYTHON_MODULE</text>
</a>
</g>
</g>
<!-- Node68&#45;&gt;Node69 -->
<g id="edge9" class="edge">
<title>Node68&#45;&gt;Node69</title>
<path fill="none" stroke="#191970" d="M961.5742,-388.0827C963.4964,-386.7543 965.3187,-385.3076 967,-383.7327 1041.9139,-313.556 1068.4239,-182.686 1074.5221,-146.3223"/>
<polygon fill="#191970" stroke="#191970" points="959.5864,-385.1872 952.6347,-393.1825 963.055,-391.2674 959.5864,-385.1872"/>
</g>
<!-- Node71 -->
<g id="node12" class="node">
<title>Node71</title>
<g id="a_node12"><a xlink:href="xcs__single__step_8h.html#a39a031bf59eaa9b33e30e614610dcda8" target="_top" xlink:title="Executes a single&#45;step experiment. ">
<polygon fill="none" stroke="#000000" points="716.5,-279.2327 716.5,-298.2327 824.5,-298.2327 824.5,-279.2327 716.5,-279.2327"/>
<text text-anchor="middle" x="770.5" y="-286.2327" font-family="Helvetica,sans-Serif" font-size="10.00" fill="#000000">xcs_single_step_exp</text>
</a>
</g>
</g>
<!-- Node70&#45;&gt;Node71 -->
<g id="edge11" class="edge">
<title>Node70&#45;&gt;Node71</title>
<path fill="none" stroke="#191970" d="M675.6265,-288.7327C688.8533,-288.7327 703.0701,-288.7327 716.3691,-288.7327"/>
<polygon fill="#191970" stroke="#191970" points="675.2676,-285.2328 665.2676,-288.7327 675.2675,-292.2328 675.2676,-285.2328"/>
</g>
<!-- Node71&#45;&gt;Node66 -->
<g id="edge12" class="edge">
<title>Node71&#45;&gt;Node66</title>
<path fill="none" stroke="#191970" d="M816.9067,-276.5288C843.641,-269.4984 875.8124,-261.038 895.8395,-255.7714"/>
<polygon fill="#191970" stroke="#191970" points="815.7445,-273.2154 806.9635,-279.1437 817.5248,-279.9852 815.7445,-273.2154"/>
</g>
<!-- Node73 -->
<g id="node14" class="node">
<title>Node73</title>
<g id="a_node14"><a xlink:href="xcsf_8h.html#a874829f28fee20f9ad15b540f4b4d6ff" target="_top" xlink:title="Executes MAX_TRIALS number of XCSF learning iterations using the training data. ">
<polygon fill="none" stroke="#000000" points="743.5,-355.2327 743.5,-374.2327 797.5,-374.2327 797.5,-355.2327 743.5,-355.2327"/>
<text text-anchor="middle" x="770.5" y="-362.2327" font-family="Helvetica,sans-Serif" font-size="10.00" fill="#000000">xcsf_fit1</text>
</a>
</g>
</g>
<!-- Node72&#45;&gt;Node73 -->
<g id="edge14" class="edge">
<title>Node72&#45;&gt;Node73</title>
<path fill="none" stroke="#191970" d="M670.223,-338.8986C694.2658,-345.0927 722.6482,-352.4048 743.0697,-357.6659"/>
<polygon fill="#191970" stroke="#191970" points="670.7775,-335.4272 660.2205,-336.3217 669.0311,-342.2059 670.7775,-335.4272"/>
</g>
<!-- Node75 -->
<g id="node16" class="node">
<title>Node75</title>
<g id="a_node16"><a xlink:href="xcsf_8h.html#a0b4de57cb9dadc9deca7901aa36e5025" target="_top" xlink:title="Executes MAX_TRIALS number of XCSF learning iterations using the training. data and test iterations u...">
<polygon fill="none" stroke="#000000" points="743.5,-317.2327 743.5,-336.2327 797.5,-336.2327 797.5,-317.2327 743.5,-317.2327"/>
<text text-anchor="middle" x="770.5" y="-324.2327" font-family="Helvetica,sans-Serif" font-size="10.00" fill="#000000">xcsf_fit2</text>
</a>
</g>
</g>
<!-- Node72&#45;&gt;Node75 -->
<g id="edge17" class="edge">
<title>Node72&#45;&gt;Node75</title>
<path fill="none" stroke="#191970" d="M674.8959,-326.7327C698.0137,-326.7327 724.2809,-326.7327 743.4248,-326.7327"/>
<polygon fill="#191970" stroke="#191970" points="674.8731,-323.2328 664.873,-326.7327 674.873,-330.2328 674.8731,-323.2328"/>
</g>
<!-- Node74 -->
<g id="node15" class="node">
<title>Node74</title>
<g id="a_node15"><a xlink:href="structXCS.html#ad2ccafe59d2b4ae6d0e1cbc15edee53c" target="_top" xlink:title="XCS::fit">
<polygon fill="none" stroke="#000000" points="889,-355.2327 889,-374.2327 941,-374.2327 941,-355.2327 889,-355.2327"/>
<text text-anchor="middle" x="915" y="-362.2327" font-family="Helvetica,sans-Serif" font-size="10.00" fill="#000000">XCS::fit</text>
</a>
</g>
</g>
<!-- Node73&#45;&gt;Node74 -->
<g id="edge15" class="edge">
<title>Node73&#45;&gt;Node74</title>
<path fill="none" stroke="#191970" d="M807.7134,-364.7327C833.1578,-364.7327 866.2514,-364.7327 888.9158,-364.7327"/>
<polygon fill="#191970" stroke="#191970" points="807.6794,-361.2328 797.6793,-364.7327 807.6793,-368.2328 807.6794,-361.2328"/>
</g>
<!-- Node74&#45;&gt;Node69 -->
<g id="edge16" class="edge">
<title>Node74&#45;&gt;Node69</title>
<path fill="none" stroke="#191970" d="M950.4576,-355.8169C956.4165,-353.2339 962.2113,-349.9343 967,-345.7327 1033.1358,-287.7044 1065.0659,-179.73 1073.5971,-146.6328"/>
<polygon fill="#191970" stroke="#191970" points="949.2271,-352.5402 941.0794,-359.3127 951.6721,-359.0994 949.2271,-352.5402"/>
</g>
<!-- Node75&#45;&gt;Node66 -->
<g id="edge18" class="edge">
<title>Node75&#45;&gt;Node66</title>
<path fill="none" stroke="#191970" d="M807.3498,-315.831C814.0082,-313.4439 820.8005,-310.7242 827,-307.7327 855.5252,-293.9679 885.9278,-272.582 902.4777,-260.294"/>
<polygon fill="#191970" stroke="#191970" points="806.1178,-312.553 797.7749,-319.0834 808.3693,-319.1811 806.1178,-312.553"/>
</g>
<!-- Node76 -->
<g id="node17" class="node">
<title>Node76</title>
<g id="a_node17"><a xlink:href="structXCS.html#a7d53320740db8e846251bacd0238a9fb" target="_top" xlink:title="XCS::fit">
<polygon fill="none" stroke="#000000" points="889,-317.2327 889,-336.2327 941,-336.2327 941,-317.2327 889,-317.2327"/>
<text text-anchor="middle" x="915" y="-324.2327" font-family="Helvetica,sans-Serif" font-size="10.00" fill="#000000">XCS::fit</text>
</a>
</g>
</g>
<!-- Node75&#45;&gt;Node76 -->
<g id="edge19" class="edge">
<title>Node75&#45;&gt;Node76</title>
<path fill="none" stroke="#191970" d="M807.7134,-326.7327C833.1578,-326.7327 866.2514,-326.7327 888.9158,-326.7327"/>
<polygon fill="#191970" stroke="#191970" points="807.6794,-323.2328 797.6793,-326.7327 807.6793,-330.2328 807.6794,-323.2328"/>
</g>
<!-- Node77&#45;&gt;Node62 -->
<g id="edge21" class="edge">
<title>Node77&#45;&gt;Node62</title>
<path fill="none" stroke="#191970" d="M259.2541,-280.7327C268.0634,-280.7327 276.9512,-280.7327 284.7286,-280.7327"/>
<polygon fill="#191970" stroke="#191970" points="259.02,-277.2328 249.02,-280.7327 259.02,-284.2328 259.02,-277.2328"/>
</g>
<!-- Node78&#45;&gt;Node64 -->
<g id="edge26" class="edge">
<title>Node78&#45;&gt;Node64</title>
<path fill="none" stroke="#191970" d="M506.4977,-198.5345C523.2361,-208.6939 546.489,-222.0401 568,-231.7327 575.6447,-235.1773 584.1138,-238.3855 592.0691,-241.1485"/>
<polygon fill="#191970" stroke="#191970" points="508.2731,-195.5175 497.9212,-193.2616 504.6069,-201.4806 508.2731,-195.5175"/>
</g>
<!-- Node78&#45;&gt;Node66 -->
<g id="edge23" class="edge">
<title>Node78&#45;&gt;Node66</title>
<path fill="none" stroke="#191970" d="M516.7768,-178.8289C579.5664,-170.9843 717.8013,-159.7238 827,-193.7327 843.0759,-198.7393 881.8735,-226.277 902.1575,-241.1667"/>
<polygon fill="#191970" stroke="#191970" points="516.1215,-175.3846 506.6572,-180.1466 517.0254,-182.326 516.1215,-175.3846"/>
</g>
<!-- Node78&#45;&gt;Node70 -->
<g id="edge27" class="edge">
<title>Node78&#45;&gt;Node70</title>
<path fill="none" stroke="#191970" d="M496.2979,-201.39C511.6448,-220.6523 538.5762,-251.2061 568,-269.7327 573.9842,-273.5006 580.808,-276.6285 587.5649,-279.1847"/>
<polygon fill="#191970" stroke="#191970" points="498.998,-199.1607 490.0944,-193.4182 493.4736,-203.4597 498.998,-199.1607"/>
</g>
<!-- Node78&#45;&gt;Node72 -->
<g id="edge28" class="edge">
<title>Node78&#45;&gt;Node72</title>
<path fill="none" stroke="#191970" d="M491.1461,-202.4983C503.7909,-229.5177 530.6347,-279.2536 568,-307.7327 573.0618,-311.5907 578.9632,-314.7005 584.9844,-317.1967"/>
<polygon fill="#191970" stroke="#191970" points="494.3158,-201.013 487.0028,-193.3468 487.9389,-203.9002 494.3158,-201.013"/>
</g>
<!-- Node79 -->
<g id="node20" class="node">
<title>Node79</title>
<g id="a_node20"><a xlink:href="structXCS.html#ab58a4fb495b05f3450b182bc21dcba1f" target="_top" xlink:title="XCS::single_reset">
<polygon fill="none" stroke="#000000" points="867,-13.2327 867,-32.2327 963,-32.2327 963,-13.2327 867,-13.2327"/>
<text text-anchor="middle" x="915" y="-20.2327" font-family="Helvetica,sans-Serif" font-size="10.00" fill="#000000">XCS::single_reset</text>
</a>
</g>
</g>
<!-- Node78&#45;&gt;Node79 -->
<g id="edge24" class="edge">
<title>Node78&#45;&gt;Node79</title>
<path fill="none" stroke="#191970" d="M488.3179,-163.9144C498.0917,-131.8381 522.2316,-69.3581 568,-41.7327 664.0752,16.2576 803.72,.0107 872.9049,-13.2101"/>
<polygon fill="#191970" stroke="#191970" points="484.8506,-163.3073 485.448,-173.8853 491.5775,-165.2436 484.8506,-163.3073"/>
</g>
<!-- Node80 -->
<g id="node21" class="node">
<title>Node80</title>
<g id="a_node21"><a xlink:href="xcsf_8h.html#a70e6ae30c7d4e471009c4611255ed873" target="_top" xlink:title="Reads the state of XCSF from a binary file. ">
<polygon fill="none" stroke="#000000" points="741,-89.2327 741,-108.2327 800,-108.2327 800,-89.2327 741,-89.2327"/>
<text text-anchor="middle" x="770.5" y="-96.2327" font-family="Helvetica,sans-Serif" font-size="10.00" fill="#000000">xcsf_load</text>
</a>
</g>
</g>
<!-- Node78&#45;&gt;Node80 -->
<g id="edge29" class="edge">
<title>Node78&#45;&gt;Node80</title>
<path fill="none" stroke="#191970" d="M499.1621,-166.5052C515.0384,-150.8166 540.7805,-128.5065 568,-117.7327 625.9491,-94.7957 700.2493,-94.4551 740.8081,-96.4556"/>
<polygon fill="#191970" stroke="#191970" points="496.3059,-164.4189 491.8036,-174.0095 501.304,-169.3199 496.3059,-164.4189"/>
</g>
<!-- Node82 -->
<g id="node23" class="node">
<title>Node82</title>
<g id="a_node23"><a xlink:href="xcsf_8h.html#af0b9db7273578fdff649d46823cd9790" target="_top" xlink:title="Calculates the XCSF predictions for the provided input. ">
<polygon fill="none" stroke="#000000" points="588,-127.2327 588,-146.2327 658,-146.2327 658,-127.2327 588,-127.2327"/>
<text text-anchor="middle" x="623" y="-134.2327" font-family="Helvetica,sans-Serif" font-size="10.00" fill="#000000">xcsf_predict</text>
</a>
</g>
</g>
<!-- Node78&#45;&gt;Node82 -->
<g id="edge33" class="edge">
<title>Node78&#45;&gt;Node82</title>
<path fill="none" stroke="#191970" d="M516.427,-172.5108C540.2461,-164.5143 571.9213,-153.8805 594.5358,-146.2885"/>
<polygon fill="#191970" stroke="#191970" points="515.1152,-169.2591 506.7491,-175.7598 517.3431,-175.8951 515.1152,-169.2591"/>
</g>
<!-- Node84 -->
<g id="node25" class="node">
<title>Node84</title>
<g id="a_node25"><a xlink:href="xcsf_8h.html#ae1f6851f682e015601030a5c725c6618" target="_top" xlink:title="Prints the XCSF match set for the supplied input. ">
<polygon fill="none" stroke="#000000" points="568,-51.2327 568,-70.2327 678,-70.2327 678,-51.2327 568,-51.2327"/>
<text text-anchor="middle" x="623" y="-58.2327" font-family="Helvetica,sans-Serif" font-size="10.00" fill="#000000">xcsf_print_match_set</text>
</a>
</g>
</g>
<!-- Node78&#45;&gt;Node84 -->
<g id="edge36" class="edge">
<title>Node78&#45;&gt;Node84</title>
<path fill="none" stroke="#191970" d="M494.8827,-165.4179C509.7514,-143.7087 537.0529,-107.6013 568,-84.7327 575.9597,-78.8507 585.586,-74.0292 594.5456,-70.2912"/>
<polygon fill="#191970" stroke="#191970" points="491.7791,-163.7626 489.127,-174.0201 497.5969,-167.6552 491.7791,-163.7626"/>
</g>
<!-- Node86 -->
<g id="node27" class="node">
<title>Node86</title>
<g id="a_node27"><a xlink:href="xcsf_8c.html#aa6edd3962ddd04940e2c78a4f99de7cd" target="_top" xlink:title="Executes a single XCSF testing trial. ">
<polygon fill="none" stroke="#000000" points="584,-203.2327 584,-222.2327 662,-222.2327 662,-203.2327 584,-203.2327"/>
<text text-anchor="middle" x="623" y="-210.2327" font-family="Helvetica,sans-Serif" font-size="10.00" fill="#000000">xcsf_test_trial</text>
</a>
</g>
</g>
<!-- Node78&#45;&gt;Node86 -->
<g id="edge39" class="edge">
<title>Node78&#45;&gt;Node86</title>
<path fill="none" stroke="#191970" d="M516.7434,-190.7224C536.9268,-194.9032 562.6652,-200.2348 583.7549,-204.6033"/>
<polygon fill="#191970" stroke="#191970" points="517.2512,-187.2533 506.7491,-188.6521 515.8313,-194.1078 517.2512,-187.2533"/>
</g>
<!-- Node79&#45;&gt;Node69 -->
<g id="edge25" class="edge">
<title>Node79&#45;&gt;Node69</title>
<path fill="none" stroke="#191970" d="M948.1656,-36.4801C954.5735,-39.5671 961.1184,-43.0345 967,-46.7327 1006.6805,-71.6827 1047.8257,-109.5016 1066.1617,-127.0981"/>
<polygon fill="#191970" stroke="#191970" points="949.5158,-33.2486 938.9685,-32.2467 946.5889,-39.6074 949.5158,-33.2486"/>
</g>
<!-- Node80&#45;&gt;Node66 -->
<g id="edge30" class="edge">
<title>Node80&#45;&gt;Node66</title>
<path fill="none" stroke="#191970" d="M787.1044,-115.7032C798.7183,-127.8671 814.3525,-144.8433 827,-160.7327 844.5056,-182.7253 843.3792,-192.6044 863,-212.7327 873.7707,-223.782 888.0399,-233.9611 898.9058,-240.9974"/>
<polygon fill="#191970" stroke="#191970" points="789.5854,-113.2339 780.1248,-108.4645 784.5463,-118.0927 789.5854,-113.2339"/>
</g>
<!-- Node81 -->
<g id="node22" class="node">
<title>Node81</title>
<g id="a_node22"><a xlink:href="structXCS.html#adc9b621f2b7a306fbf381dd0efaf268b" target="_top" xlink:title="XCS::load">
<polygon fill="none" stroke="#000000" points="884,-89.2327 884,-108.2327 946,-108.2327 946,-89.2327 884,-89.2327"/>
<text text-anchor="middle" x="915" y="-96.2327" font-family="Helvetica,sans-Serif" font-size="10.00" fill="#000000">XCS::load</text>
</a>
</g>
</g>
<!-- Node80&#45;&gt;Node81 -->
<g id="edge31" class="edge">
<title>Node80&#45;&gt;Node81</title>
<path fill="none" stroke="#191970" d="M810.3187,-98.7327C833.5461,-98.7327 862.4163,-98.7327 883.9512,-98.7327"/>
<polygon fill="#191970" stroke="#191970" points="810.0905,-95.2328 800.0904,-98.7327 810.0904,-102.2328 810.0905,-95.2328"/>
</g>
<!-- Node81&#45;&gt;Node69 -->
<g id="edge32" class="edge">
<title>Node81&#45;&gt;Node69</title>
<path fill="none" stroke="#191970" d="M956.0714,-108.4265C980.4778,-114.187 1011.3053,-121.4631 1035.5937,-127.1958"/>
<polygon fill="#191970" stroke="#191970" points="956.579,-104.9503 946.0424,-106.0595 954.971,-111.7631 956.579,-104.9503"/>
</g>
<!-- Node83 -->
<g id="node24" class="node">
<title>Node83</title>
<g id="a_node24"><a xlink:href="structXCS.html#a911ed75c86abed7807d33eb1385240ed" target="_top" xlink:title="XCS::predict">
<polygon fill="none" stroke="#000000" points="878.5,-127.2327 878.5,-146.2327 951.5,-146.2327 951.5,-127.2327 878.5,-127.2327"/>
<text text-anchor="middle" x="915" y="-134.2327" font-family="Helvetica,sans-Serif" font-size="10.00" fill="#000000">XCS::predict</text>
</a>
</g>
</g>
<!-- Node82&#45;&gt;Node83 -->
<g id="edge34" class="edge">
<title>Node82&#45;&gt;Node83</title>
<path fill="none" stroke="#191970" d="M668.5236,-136.7327C726.347,-136.7327 825.0009,-136.7327 878.2756,-136.7327"/>
<polygon fill="#191970" stroke="#191970" points="668.2221,-133.2328 658.222,-136.7327 668.222,-140.2328 668.2221,-133.2328"/>
</g>
<!-- Node83&#45;&gt;Node69 -->
<g id="edge35" class="edge">
<title>Node83&#45;&gt;Node69</title>
<path fill="none" stroke="#191970" d="M961.9158,-136.7327C974.7053,-136.7327 988.8729,-136.7327 1002.7507,-136.7327"/>
<polygon fill="#191970" stroke="#191970" points="961.5334,-133.2328 951.5334,-136.7327 961.5334,-140.2328 961.5334,-133.2328"/>
</g>
<!-- Node85 -->
<g id="node26" class="node">
<title>Node85</title>
<g id="a_node26"><a xlink:href="structXCS.html#aa5608b379fae01b724267a99068d55bb" target="_top" xlink:title="XCS::print_match_set">
<polygon fill="none" stroke="#000000" points="714,-51.2327 714,-70.2327 827,-70.2327 827,-51.2327 714,-51.2327"/>
<text text-anchor="middle" x="770.5" y="-58.2327" font-family="Helvetica,sans-Serif" font-size="10.00" fill="#000000">XCS::print_match_set</text>
</a>
</g>
</g>
<!-- Node84&#45;&gt;Node85 -->
<g id="edge37" class="edge">
<title>Node84&#45;&gt;Node85</title>
<path fill="none" stroke="#191970" d="M688.542,-60.7327C696.9872,-60.7327 705.5777,-60.7327 713.8632,-60.7327"/>
<polygon fill="#191970" stroke="#191970" points="688.3432,-57.2328 678.3432,-60.7327 688.3432,-64.2328 688.3432,-57.2328"/>
</g>
<!-- Node85&#45;&gt;Node69 -->
<g id="edge38" class="edge">
<title>Node85&#45;&gt;Node69</title>
<path fill="none" stroke="#191970" d="M837.1615,-60.85C875.7819,-62.4711 924.9318,-67.2197 967,-79.7327 1003.4341,-90.5698 1041.8991,-113.8937 1061.9564,-127.1007"/>
<polygon fill="#191970" stroke="#191970" points="837.1922,-57.3489 827.0728,-60.487 836.9405,-64.3444 837.1922,-57.3489"/>
</g>
<!-- Node86&#45;&gt;Node75 -->
<g id="edge40" class="edge">
<title>Node86&#45;&gt;Node75</title>
<path fill="none" stroke="#191970" d="M671.0016,-226.5117C673.4914,-228.0713 675.8485,-229.8052 678,-231.7327 705.8384,-256.6718 686.0594,-282.9081 714,-307.7327 722.2006,-315.0187 733.2968,-319.5285 743.4848,-322.3119"/>
<polygon fill="#191970" stroke="#191970" points="672.6111,-223.4037 662.1304,-221.853 669.3566,-229.6012 672.6111,-223.4037"/>
</g>
<!-- Node87 -->
<g id="node28" class="node">
<title>Node87</title>
<g id="a_node28"><a xlink:href="xcsf_8h.html#a2cf95733e5f97410d94211b72e835847" target="_top" xlink:title="Calculates the XCSF error for the input data. ">
<polygon fill="none" stroke="#000000" points="738,-203.2327 738,-222.2327 803,-222.2327 803,-203.2327 738,-203.2327"/>
<text text-anchor="middle" x="770.5" y="-210.2327" font-family="Helvetica,sans-Serif" font-size="10.00" fill="#000000">xcsf_score</text>
</a>
</g>
</g>
<!-- Node86&#45;&gt;Node87 -->
<g id="edge41" class="edge">
<title>Node86&#45;&gt;Node87</title>
<path fill="none" stroke="#191970" d="M672.4017,-212.7327C693.8895,-212.7327 718.4834,-212.7327 737.6705,-212.7327"/>
<polygon fill="#191970" stroke="#191970" points="672.1401,-209.2328 662.14,-212.7327 672.14,-216.2328 672.1401,-209.2328"/>
</g>
<!-- Node88 -->
<g id="node29" class="node">
<title>Node88</title>
<g id="a_node29"><a xlink:href="structXCS.html#aa77bc77484d6d14bf512304a23cfec88" target="_top" xlink:title="XCS::score">
<polygon fill="none" stroke="#000000" points="881,-184.2327 881,-203.2327 949,-203.2327 949,-184.2327 881,-184.2327"/>
<text text-anchor="middle" x="915" y="-191.2327" font-family="Helvetica,sans-Serif" font-size="10.00" fill="#000000">XCS::score</text>
</a>
</g>
</g>
<!-- Node87&#45;&gt;Node88 -->
<g id="edge42" class="edge">
<title>Node87&#45;&gt;Node88</title>
<path fill="none" stroke="#191970" d="M813.4751,-207.082C834.993,-204.2526 860.6803,-200.875 880.8327,-198.2252"/>
<polygon fill="#191970" stroke="#191970" points="812.7476,-203.6474 803.2893,-208.4213 813.6603,-210.5877 812.7476,-203.6474"/>
</g>
<!-- Node88&#45;&gt;Node69 -->
<g id="edge43" class="edge">
<title>Node88&#45;&gt;Node69</title>
<path fill="none" stroke="#191970" d="M951.5172,-180.8042C981.141,-170.3163 1022.2315,-155.7687 1048.9643,-146.3043"/>
<polygon fill="#191970" stroke="#191970" points="950.2063,-177.5554 941.9478,-184.1921 952.5426,-184.154 950.2063,-177.5554"/>
</g>
</g>
</svg>
