<?xml version="1.0" encoding="UTF-8" standalone="no"?>
<!DOCTYPE svg PUBLIC "-//W3C//DTD SVG 1.1//EN"
 "http://www.w3.org/Graphics/SVG/1.1/DTD/svg11.dtd">
<!-- Generated by graphviz version 2.40.1 (20161225.0304)
 -->
<!-- Title: cond_ellipsoid_mutate Pages: 1 -->
<svg width="672pt" height="143pt"
 viewBox="0.00 0.00 672.00 142.50" xmlns="http://www.w3.org/2000/svg" xmlns:xlink="http://www.w3.org/1999/xlink">
<g id="graph0" class="graph" transform="scale(1 1) rotate(0) translate(4 138.5)">
<title>cond_ellipsoid_mutate</title>
<!-- Node27 -->
<g id="node1" class="node">
<title>Node27</title>
<polygon fill="#bfbfbf" stroke="#000000" points="0,-88 0,-107 113,-107 113,-88 0,-88"/>
<text text-anchor="middle" x="56.5" y="-95" font-family="Helvetica,sans-Serif" font-size="10.00" fill="#000000">cond_ellipsoid_mutate</text>
</g>
<!-- Node28 -->
<g id="node2" class="node">
<title>Node28</title>
<g id="a_node2"><a xlink:href="utils_8h.html#ae1e666b8d7b3afa5b96698d6a0b8b30f" target="_top" xlink:title="Returns a float clamped within the specified range. ">
<polygon fill="none" stroke="#000000" points="419,-115 419,-134 462,-134 462,-115 419,-115"/>
<text text-anchor="middle" x="440.5" y="-122" font-family="Helvetica,sans-Serif" font-size="10.00" fill="#000000">clamp</text>
</a>
</g>
</g>
<!-- Node27&#45;&gt;Node28 -->
<g id="edge1" class="edge">
<title>Node27&#45;&gt;Node28</title>
<path fill="none" stroke="#191970" d="M95.4125,-107.0712C111.844,-110.7004 131.2483,-114.4493 149,-116.5 242.8662,-127.3436 354.8069,-126.6281 408.5732,-125.4444"/>
<polygon fill="#191970" stroke="#191970" points="408.9198,-128.9371 418.8323,-125.1967 408.7507,-121.9392 408.9198,-128.9371"/>
</g>
<!-- Node29 -->
<g id="node3" class="node">
<title>Node29</title>
<g id="a_node3"><a xlink:href="utils_8c.html#aa57fc0f69e730ce0a348c25ee498643d" target="_top" xlink:title="Returns a normal random float with specified mean and standard deviation. ">
<polygon fill="none" stroke="#000000" points="405.5,-66 405.5,-85 475.5,-85 475.5,-66 405.5,-66"/>
<text text-anchor="middle" x="440.5" y="-73" font-family="Helvetica,sans-Serif" font-size="10.00" fill="#000000">rand_normal</text>
</a>
</g>
</g>
<!-- Node27&#45;&gt;Node29 -->
<g id="edge2" class="edge">
<title>Node27&#45;&gt;Node29</title>
<path fill="none" stroke="#191970" d="M94.4945,-87.9792C111.1118,-84.2621 130.9053,-80.4333 149,-78.5 235.6967,-69.237 337.7193,-71.0826 395.1779,-73.2805"/>
<polygon fill="#191970" stroke="#191970" points="395.2411,-76.7859 405.3743,-73.6924 395.5237,-69.7916 395.2411,-76.7859"/>
</g>
<!-- Node31 -->
<g id="node5" class="node">
<title>Node31</title>
<g id="a_node5"><a xlink:href="sam_8c.html#ab7b9b862cf798bc25fc0654a4ff1e54e" target="_top" xlink:title="Self&#45;adapts mutation rates. ">
<polygon fill="none" stroke="#000000" points="149,-88 149,-107 214,-107 214,-88 149,-88"/>
<text text-anchor="middle" x="181.5" y="-95" font-family="Helvetica,sans-Serif" font-size="10.00" fill="#000000">sam_adapt</text>
</a>
</g>
</g>
<!-- Node27&#45;&gt;Node31 -->
<g id="edge4" class="edge">
<title>Node27&#45;&gt;Node31</title>
<path fill="none" stroke="#191970" d="M113.1483,-97.5C121.7779,-97.5 130.5578,-97.5 138.8218,-97.5"/>
<polygon fill="#191970" stroke="#191970" points="138.9637,-101.0001 148.9637,-97.5 138.9636,-94.0001 138.9637,-101.0001"/>
</g>
<!-- Node30 -->
<g id="node4" class="node">
<title>Node30</title>
<g id="a_node4"><a xlink:href="utils_8c.html#a101d27cdda714b7f17a06224c65cac56" target="_top" xlink:title="Returns a uniform random float (0,1) ">
<polygon fill="none" stroke="#000000" points="623,-47 623,-66 664,-66 664,-47 623,-47"/>
<text text-anchor="middle" x="643.5" y="-54" font-family="Helvetica,sans-Serif" font-size="10.00" fill="#000000">drand</text>
</a>
</g>
</g>
<!-- Node29&#45;&gt;Node30 -->
<g id="edge3" class="edge">
<title>Node29&#45;&gt;Node30</title>
<path fill="none" stroke="#191970" d="M475.8599,-72.1905C514.5276,-68.5713 575.8787,-62.8291 612.6599,-59.3865"/>
<polygon fill="#191970" stroke="#191970" points="613.1582,-62.8553 622.7885,-58.4385 612.5058,-55.8857 613.1582,-62.8553"/>
</g>
<!-- Node32 -->
<g id="node6" class="node">
<title>Node32</title>
<g id="a_node6"><a xlink:href="sam_8c.html#aeed5628172f1fe2bd45b9257ca5f69b4" target="_top" xlink:title="Performs log normal self&#45;adaptation. ">
<polygon fill="none" stroke="#000000" points="250,-88 250,-107 367,-107 367,-88 250,-88"/>
<text text-anchor="middle" x="308.5" y="-95" font-family="Helvetica,sans-Serif" font-size="10.00" fill="#000000">sam_log_normal_adapt</text>
</a>
</g>
</g>
<!-- Node31&#45;&gt;Node32 -->
<g id="edge5" class="edge">
<title>Node31&#45;&gt;Node32</title>
<path fill="none" stroke="#191970" d="M214.2057,-97.5C222.1086,-97.5 230.8512,-97.5 239.7322,-97.5"/>
<polygon fill="#191970" stroke="#191970" points="239.7806,-101.0001 249.7806,-97.5 239.7805,-94.0001 239.7806,-101.0001"/>
</g>
<!-- Node33 -->
<g id="node7" class="node">
<title>Node33</title>
<g id="a_node7"><a xlink:href="sam_8c.html#ac0808d47ef98fae3eb607d2eca8fee0d" target="_top" xlink:title="Performs self&#45;adaptation via a rate selection mechanism. ">
<polygon fill="none" stroke="#000000" points="258,-.5 258,-30.5 359,-30.5 359,-.5 258,-.5"/>
<text text-anchor="start" x="266" y="-18.5" font-family="Helvetica,sans-Serif" font-size="10.00" fill="#000000">sam_rate_selection</text>
<text text-anchor="middle" x="308.5" y="-7.5" font-family="Helvetica,sans-Serif" font-size="10.00" fill="#000000">_adapt</text>
</a>
</g>
</g>
<!-- Node31&#45;&gt;Node33 -->
<g id="edge8" class="edge">
<title>Node31&#45;&gt;Node33</title>
<path fill="none" stroke="#191970" d="M196.5673,-87.7715C216.0807,-75.1723 250.617,-52.8733 276.1829,-36.3662"/>
<polygon fill="#191970" stroke="#191970" points="278.3099,-39.1591 284.8124,-30.7944 274.5128,-33.2783 278.3099,-39.1591"/>
</g>
<!-- Node32&#45;&gt;Node28 -->
<g id="edge7" class="edge">
<title>Node32&#45;&gt;Node28</title>
<path fill="none" stroke="#191970" d="M355.0383,-107.0192C372.8177,-110.6559 392.6664,-114.7158 408.7568,-118.0071"/>
<polygon fill="#191970" stroke="#191970" points="408.2298,-121.4717 418.7283,-120.0467 409.6326,-114.6137 408.2298,-121.4717"/>
</g>
<!-- Node32&#45;&gt;Node29 -->
<g id="edge6" class="edge">
<title>Node32&#45;&gt;Node29</title>
<path fill="none" stroke="#191970" d="M365.6294,-87.9784C375.5562,-86.324 385.7556,-84.6241 395.3074,-83.0321"/>
<polygon fill="#191970" stroke="#191970" points="396.0857,-86.4507 405.3743,-81.3543 394.9349,-79.546 396.0857,-86.4507"/>
</g>
<!-- Node34 -->
<g id="node8" class="node">
<title>Node34</title>
<g id="a_node8"><a xlink:href="utils_8c.html#ae42a9e1d467853befaa7922cfafed3bb" target="_top" xlink:title="Returns a uniform random float [min,max]. ">
<polygon fill="none" stroke="#000000" points="514,-28 514,-47 587,-47 587,-28 514,-28"/>
<text text-anchor="middle" x="550.5" y="-35" font-family="Helvetica,sans-Serif" font-size="10.00" fill="#000000">rand_uniform</text>
</a>
</g>
</g>
<!-- Node33&#45;&gt;Node34 -->
<g id="edge9" class="edge">
<title>Node33&#45;&gt;Node34</title>
<path fill="none" stroke="#191970" d="M359.1772,-13.2561C392.9888,-12.5284 438.348,-13.0334 478,-18.5 488.745,-19.9814 500.1795,-22.5126 510.7153,-25.2528"/>
<polygon fill="#191970" stroke="#191970" points="509.9208,-28.6639 520.4893,-27.9167 511.7616,-21.9103 509.9208,-28.6639"/>
</g>
<!-- Node35 -->
<g id="node9" class="node">
<title>Node35</title>
<g id="a_node9"><a xlink:href="utils_8c.html#a32648ab076544a9ac1c086d0f07b599f" target="_top" xlink:title="Returns a uniform random integer [min,max] not inclusive of max. ">
<polygon fill="none" stroke="#000000" points="403,-28 403,-47 478,-47 478,-28 403,-28"/>
<text text-anchor="middle" x="440.5" y="-35" font-family="Helvetica,sans-Serif" font-size="10.00" fill="#000000">irand_uniform</text>
</a>
</g>
</g>
<!-- Node33&#45;&gt;Node35 -->
<g id="edge11" class="edge">
<title>Node33&#45;&gt;Node35</title>
<path fill="none" stroke="#191970" d="M359.1571,-23.9429C370.1764,-25.7794 381.7997,-27.7166 392.7039,-29.534"/>
<polygon fill="#191970" stroke="#191970" points="392.4555,-33.0408 402.8949,-31.2325 393.6064,-26.136 392.4555,-33.0408"/>
</g>
<!-- Node34&#45;&gt;Node30 -->
<g id="edge10" class="edge">
<title>Node34&#45;&gt;Node30</title>
<path fill="none" stroke="#191970" d="M587.2561,-45.0093C595.7524,-46.7451 604.7031,-48.5738 612.9036,-50.2491"/>
<polygon fill="#191970" stroke="#191970" points="612.3007,-53.6982 622.7989,-52.2707 613.7019,-46.8398 612.3007,-53.6982"/>
</g>
<!-- Node35&#45;&gt;Node34 -->
<g id="edge12" class="edge">
<title>Node35&#45;&gt;Node34</title>
<path fill="none" stroke="#191970" d="M478.0481,-37.5C486.2782,-37.5 495.0899,-37.5 503.6338,-37.5"/>
<polygon fill="#191970" stroke="#191970" points="503.8657,-41.0001 513.8656,-37.5 503.8656,-34.0001 503.8657,-41.0001"/>
</g>
</g>
</svg>
