<?xml version="1.0" encoding="UTF-8" standalone="no"?>
<!DOCTYPE svg PUBLIC "-//W3C//DTD SVG 1.1//EN"
 "http://www.w3.org/Graphics/SVG/1.1/DTD/svg11.dtd">
<!-- Generated by graphviz version 2.40.1 (20161225.0304)
 -->
<!-- Title: cond_general Pages: 1 -->
<svg width="1225pt" height="199pt"
 viewBox="0.00 0.00 1225.00 199.00" xmlns="http://www.w3.org/2000/svg" xmlns:xlink="http://www.w3.org/1999/xlink">
<g id="graph0" class="graph" transform="scale(1 1) rotate(0) translate(4 195)">
<title>cond_general</title>
<!-- Node90 -->
<g id="node1" class="node">
<title>Node90</title>
<polygon fill="#bfbfbf" stroke="#000000" points="0,-95.5 0,-114.5 74,-114.5 74,-95.5 0,-95.5"/>
<text text-anchor="middle" x="37" y="-102.5" font-family="Helvetica,sans-Serif" font-size="10.00" fill="#000000">cond_general</text>
</g>
<!-- Node91 -->
<g id="node2" class="node">
<title>Node91</title>
<g id="a_node2"><a xlink:href="cl_8h.html#a115dd8287f1fdd3480bc158321e8a842" target="_top" xlink:title="Returns whether classifier c1 is more general than c2. ">
<polygon fill="none" stroke="#000000" points="110,-95.5 110,-114.5 171,-114.5 171,-95.5 110,-95.5"/>
<text text-anchor="middle" x="140.5" y="-102.5" font-family="Helvetica,sans-Serif" font-size="10.00" fill="#000000">cl_general</text>
</a>
</g>
</g>
<!-- Node90&#45;&gt;Node91 -->
<g id="edge1" class="edge">
<title>Node90&#45;&gt;Node91</title>
<path fill="none" stroke="#191970" d="M84.1595,-105C92.8707,-105 101.7567,-105 109.8197,-105"/>
<polygon fill="#191970" stroke="#191970" points="84.0736,-101.5001 74.0735,-105 84.0735,-108.5001 84.0736,-101.5001"/>
</g>
<!-- Node92 -->
<g id="node3" class="node">
<title>Node92</title>
<g id="a_node3"><a xlink:href="clset_8c.html#a94421523353ff7ff3f31617d9230f3f1" target="_top" xlink:title="Performs set subsumption. ">
<polygon fill="none" stroke="#000000" points="207,-114.5 207,-133.5 305,-133.5 305,-114.5 207,-114.5"/>
<text text-anchor="middle" x="256" y="-121.5" font-family="Helvetica,sans-Serif" font-size="10.00" fill="#000000">clset_subsumption</text>
</a>
</g>
</g>
<!-- Node91&#45;&gt;Node92 -->
<g id="edge2" class="edge">
<title>Node91&#45;&gt;Node92</title>
<path fill="none" stroke="#191970" d="M181.0222,-111.666C189.3757,-113.0402 198.2585,-114.5014 206.8789,-115.9195"/>
<polygon fill="#191970" stroke="#191970" points="181.5842,-108.2115 171.1486,-110.0418 180.4479,-115.1186 181.5842,-108.2115"/>
</g>
<!-- Node107 -->
<g id="node18" class="node">
<title>Node107</title>
<g id="a_node18"><a xlink:href="ea_8c.html#a8ea16017fe8753d9b079e8e333d98545" target="_top" xlink:title="Performs evolutionary algorithm subsumption. ">
<polygon fill="none" stroke="#000000" points="220,-76.5 220,-95.5 292,-95.5 292,-76.5 220,-76.5"/>
<text text-anchor="middle" x="256" y="-83.5" font-family="Helvetica,sans-Serif" font-size="10.00" fill="#000000">ea_subsume</text>
</a>
</g>
</g>
<!-- Node91&#45;&gt;Node107 -->
<g id="edge20" class="edge">
<title>Node91&#45;&gt;Node107</title>
<path fill="none" stroke="#191970" d="M181.3651,-98.2776C193.9246,-96.2115 207.6523,-93.9533 219.8709,-91.9433"/>
<polygon fill="#191970" stroke="#191970" points="180.4479,-94.8814 171.1486,-99.9582 181.5842,-101.7885 180.4479,-94.8814"/>
</g>
<!-- Node93 -->
<g id="node4" class="node">
<title>Node93</title>
<g id="a_node4"><a xlink:href="clset_8h.html#a75a41281822e032413356a4b7b353559" target="_top" xlink:title="Provides reinforcement to the set and performs set subsumption. ">
<polygon fill="none" stroke="#000000" points="425,-114.5 425,-133.5 497,-133.5 497,-114.5 425,-114.5"/>
<text text-anchor="middle" x="461" y="-121.5" font-family="Helvetica,sans-Serif" font-size="10.00" fill="#000000">clset_update</text>
</a>
</g>
</g>
<!-- Node92&#45;&gt;Node93 -->
<g id="edge3" class="edge">
<title>Node92&#45;&gt;Node93</title>
<path fill="none" stroke="#191970" d="M315.3198,-124C350.7228,-124 394.5359,-124 424.8174,-124"/>
<polygon fill="#191970" stroke="#191970" points="315.1026,-120.5001 305.1026,-124 315.1026,-127.5001 315.1026,-120.5001"/>
</g>
<!-- Node94 -->
<g id="node5" class="node">
<title>Node94</title>
<g id="a_node5"><a xlink:href="xcs__multi__step_8c.html#a1e1c2a3094be715b468dda79cd59ebf3" target="_top" xlink:title="Executes a multi&#45;step trial using a built&#45;in environment. ">
<polygon fill="none" stroke="#000000" points="542,-114.5 542,-133.5 622,-133.5 622,-114.5 542,-114.5"/>
<text text-anchor="middle" x="582" y="-121.5" font-family="Helvetica,sans-Serif" font-size="10.00" fill="#000000">xcs_multi_trial</text>
</a>
</g>
</g>
<!-- Node93&#45;&gt;Node94 -->
<g id="edge4" class="edge">
<title>Node93&#45;&gt;Node94</title>
<path fill="none" stroke="#191970" d="M507.4857,-124C518.8396,-124 530.8903,-124 541.9162,-124"/>
<polygon fill="#191970" stroke="#191970" points="507.304,-120.5001 497.304,-124 507.304,-127.5001 507.304,-120.5001"/>
</g>
<!-- Node97 -->
<g id="node8" class="node">
<title>Node97</title>
<g id="a_node8"><a xlink:href="xcs__single__step_8h.html#afd31e5406eeef1fb9b244f635a0f0408" target="_top" xlink:title="Creates the action set, updates the classifiers and runs the EA. ">
<polygon fill="none" stroke="#000000" points="533,-152.5 533,-171.5 631,-171.5 631,-152.5 533,-152.5"/>
<text text-anchor="middle" x="582" y="-159.5" font-family="Helvetica,sans-Serif" font-size="10.00" fill="#000000">xcs_single_update</text>
</a>
</g>
</g>
<!-- Node93&#45;&gt;Node97 -->
<g id="edge7" class="edge">
<title>Node93&#45;&gt;Node97</title>
<path fill="none" stroke="#191970" d="M501.3771,-136.6804C517.7262,-141.8148 536.2878,-147.6441 551.4764,-152.4141"/>
<polygon fill="#191970" stroke="#191970" points="502.1227,-133.2461 491.5334,-133.589 500.0253,-139.9245 502.1227,-133.2461"/>
</g>
<!-- Node102 -->
<g id="node13" class="node">
<title>Node102</title>
<g id="a_node13"><a xlink:href="xcsf_8c.html#a2a65c7cb7cfe8e680b609ce8c4e36d56" target="_top" xlink:title="Executes a single XCSF learning trial. ">
<polygon fill="none" stroke="#000000" points="540.5,-76.5 540.5,-95.5 623.5,-95.5 623.5,-76.5 540.5,-76.5"/>
<text text-anchor="middle" x="582" y="-83.5" font-family="Helvetica,sans-Serif" font-size="10.00" fill="#000000">xcsf_learn_trial</text>
</a>
</g>
</g>
<!-- Node93&#45;&gt;Node102 -->
<g id="edge13" class="edge">
<title>Node93&#45;&gt;Node102</title>
<path fill="none" stroke="#191970" d="M501.3771,-111.3196C517.7262,-106.1852 536.2878,-100.3559 551.4764,-95.5859"/>
<polygon fill="#191970" stroke="#191970" points="500.0253,-108.0755 491.5334,-114.411 502.1227,-114.7539 500.0253,-108.0755"/>
</g>
<!-- Node95 -->
<g id="node6" class="node">
<title>Node95</title>
<g id="a_node6"><a xlink:href="xcs__multi__step_8h.html#acc29d4a55dbd56c16ea5f19f15a7c677" target="_top" xlink:title="Executes a multi&#45;step reinforcement learning experiment. ">
<polygon fill="none" stroke="#000000" points="789,-114.5 789,-133.5 893,-133.5 893,-114.5 789,-114.5"/>
<text text-anchor="middle" x="841" y="-121.5" font-family="Helvetica,sans-Serif" font-size="10.00" fill="#000000">xcs_multi_step_exp</text>
</a>
</g>
</g>
<!-- Node94&#45;&gt;Node95 -->
<g id="edge5" class="edge">
<title>Node94&#45;&gt;Node95</title>
<path fill="none" stroke="#191970" d="M632.3033,-124C677.2998,-124 743.0047,-124 788.6234,-124"/>
<polygon fill="#191970" stroke="#191970" points="632.1846,-120.5001 622.1846,-124 632.1845,-127.5001 632.1846,-120.5001"/>
</g>
<!-- Node96 -->
<g id="node7" class="node">
<title>Node96</title>
<g id="a_node7"><a xlink:href="main_8c.html#a3c04138a5bfe5d72780bb7e82a18e627" target="_top" xlink:title="main">
<polygon fill="none" stroke="#000000" points="964,-114.5 964,-133.5 1002,-133.5 1002,-114.5 964,-114.5"/>
<text text-anchor="middle" x="983" y="-121.5" font-family="Helvetica,sans-Serif" font-size="10.00" fill="#000000">main</text>
</a>
</g>
</g>
<!-- Node95&#45;&gt;Node96 -->
<g id="edge6" class="edge">
<title>Node95&#45;&gt;Node96</title>
<path fill="none" stroke="#191970" d="M903.3496,-124C925.2345,-124 948.2324,-124 963.8585,-124"/>
<polygon fill="#191970" stroke="#191970" points="903.0693,-120.5001 893.0692,-124 903.0692,-127.5001 903.0693,-120.5001"/>
</g>
<!-- Node98 -->
<g id="node9" class="node">
<title>Node98</title>
<g id="a_node9"><a xlink:href="structXCS.html#aedc01ad6f00a54b260a7605929a1d4c9" target="_top" xlink:title="XCS::single_update">
<polygon fill="none" stroke="#000000" points="931,-171.5 931,-190.5 1035,-190.5 1035,-171.5 931,-171.5"/>
<text text-anchor="middle" x="983" y="-178.5" font-family="Helvetica,sans-Serif" font-size="10.00" fill="#000000">XCS::single_update</text>
</a>
</g>
</g>
<!-- Node97&#45;&gt;Node98 -->
<g id="edge8" class="edge">
<title>Node97&#45;&gt;Node98</title>
<path fill="none" stroke="#191970" d="M626.5202,-173.8843C639.4758,-176.8153 653.7174,-179.5336 667,-181 759.428,-191.2043 867.992,-187.8959 930.805,-184.4951"/>
<polygon fill="#191970" stroke="#191970" points="626.9852,-170.398 616.4487,-171.5079 625.3777,-177.2109 626.9852,-170.398"/>
</g>
<!-- Node100 -->
<g id="node11" class="node">
<title>Node100</title>
<g id="a_node11"><a xlink:href="xcs__single__step_8c.html#a3d1fd2472d35310800aed897219a65af" target="_top" xlink:title="Executes a single&#45;step trial using a built&#45;in environment. ">
<polygon fill="none" stroke="#000000" points="667,-152.5 667,-171.5 751,-171.5 751,-152.5 667,-152.5"/>
<text text-anchor="middle" x="709" y="-159.5" font-family="Helvetica,sans-Serif" font-size="10.00" fill="#000000">xcs_single_trial</text>
</a>
</g>
</g>
<!-- Node97&#45;&gt;Node100 -->
<g id="edge10" class="edge">
<title>Node97&#45;&gt;Node100</title>
<path fill="none" stroke="#191970" d="M641.1216,-162C649.732,-162 658.4503,-162 666.6391,-162"/>
<polygon fill="#191970" stroke="#191970" points="641.1016,-158.5001 631.1015,-162 641.1015,-165.5001 641.1016,-158.5001"/>
</g>
<!-- Node99 -->
<g id="node10" class="node">
<title>Node99</title>
<g id="a_node10"><a xlink:href="python__wrapper_8cpp.html#afbdcc1358036a0b83a6b239da2b098a2" target="_top" xlink:title="BOOST_PYTHON_MODULE">
<polygon fill="none" stroke="#000000" points="1071,-76.5 1071,-95.5 1217,-95.5 1217,-76.5 1071,-76.5"/>
<text text-anchor="middle" x="1144" y="-83.5" font-family="Helvetica,sans-Serif" font-size="10.00" fill="#000000">BOOST_PYTHON_MODULE</text>
</a>
</g>
</g>
<!-- Node98&#45;&gt;Node99 -->
<g id="edge9" class="edge">
<title>Node98&#45;&gt;Node99</title>
<path fill="none" stroke="#191970" d="M1008.0249,-166.2338C1041.3582,-146.565 1099.3966,-112.3188 1127.6332,-95.6574"/>
<polygon fill="#191970" stroke="#191970" points="1006.1573,-163.2718 999.3235,-171.3681 1009.7147,-169.3005 1006.1573,-163.2718"/>
</g>
<!-- Node101 -->
<g id="node12" class="node">
<title>Node101</title>
<g id="a_node12"><a xlink:href="xcs__single__step_8h.html#a39a031bf59eaa9b33e30e614610dcda8" target="_top" xlink:title="Executes a single&#45;step experiment. ">
<polygon fill="none" stroke="#000000" points="787,-152.5 787,-171.5 895,-171.5 895,-152.5 787,-152.5"/>
<text text-anchor="middle" x="841" y="-159.5" font-family="Helvetica,sans-Serif" font-size="10.00" fill="#000000">xcs_single_step_exp</text>
</a>
</g>
</g>
<!-- Node100&#45;&gt;Node101 -->
<g id="edge11" class="edge">
<title>Node100&#45;&gt;Node101</title>
<path fill="none" stroke="#191970" d="M761.1756,-162C769.5711,-162 778.2792,-162 786.7227,-162"/>
<polygon fill="#191970" stroke="#191970" points="761.1286,-158.5001 751.1285,-162 761.1285,-165.5001 761.1286,-158.5001"/>
</g>
<!-- Node101&#45;&gt;Node96 -->
<g id="edge12" class="edge">
<title>Node101&#45;&gt;Node96</title>
<path fill="none" stroke="#191970" d="M886.5443,-149.8121C912.6525,-142.8254 944.0537,-134.4222 963.7754,-129.1446"/>
<polygon fill="#191970" stroke="#191970" points="885.5879,-146.4448 876.8326,-152.411 887.3975,-153.2069 885.5879,-146.4448"/>
</g>
<!-- Node103 -->
<g id="node14" class="node">
<title>Node103</title>
<g id="a_node14"><a xlink:href="xcsf_8h.html#a40f4dfe69c6480f25c55d21c44746eb8" target="_top" xlink:title="Executes MAX_TRIALS number of XCSF learning iterations using the training. data and test iterations u...">
<polygon fill="none" stroke="#000000" points="682,-57.5 682,-76.5 736,-76.5 736,-57.5 682,-57.5"/>
<text text-anchor="middle" x="709" y="-64.5" font-family="Helvetica,sans-Serif" font-size="10.00" fill="#000000">xcsf_fit2</text>
</a>
</g>
</g>
<!-- Node102&#45;&gt;Node103 -->
<g id="edge14" class="edge">
<title>Node102&#45;&gt;Node103</title>
<path fill="none" stroke="#191970" d="M633.6576,-78.2717C650.131,-75.8072 667.7068,-73.1777 681.7358,-71.0789"/>
<polygon fill="#191970" stroke="#191970" points="632.9566,-74.8375 623.5845,-79.7787 633.9924,-81.7605 632.9566,-74.8375"/>
</g>
<!-- Node103&#45;&gt;Node96 -->
<g id="edge15" class="edge">
<title>Node103&#45;&gt;Node96</title>
<path fill="none" stroke="#191970" d="M746.3233,-60.9007C784.5235,-56.057 845.1813,-52.2751 895,-67 926.4211,-76.2871 957.1621,-100.6942 972.6453,-114.3673"/>
<polygon fill="#191970" stroke="#191970" points="745.6096,-57.4654 736.1721,-62.2805 746.5525,-64.4016 745.6096,-57.4654"/>
</g>
<!-- Node104 -->
<g id="node15" class="node">
<title>Node104</title>
<g id="a_node15"><a xlink:href="structXCS.html#a7d53320740db8e846251bacd0238a9fb" target="_top" xlink:title="XCS::fit">
<polygon fill="none" stroke="#000000" points="815,-76.5 815,-95.5 867,-95.5 867,-76.5 815,-76.5"/>
<text text-anchor="middle" x="841" y="-83.5" font-family="Helvetica,sans-Serif" font-size="10.00" fill="#000000">XCS::fit</text>
</a>
</g>
</g>
<!-- Node103&#45;&gt;Node104 -->
<g id="edge16" class="edge">
<title>Node103&#45;&gt;Node104</title>
<path fill="none" stroke="#191970" d="M746.0015,-72.326C767.9406,-75.4839 795.2158,-79.4098 814.905,-82.2439"/>
<polygon fill="#191970" stroke="#191970" points="746.4274,-68.8513 736.0307,-70.8908 745.43,-75.7799 746.4274,-68.8513"/>
</g>
<!-- Node105 -->
<g id="node16" class="node">
<title>Node105</title>
<g id="a_node16"><a xlink:href="xcsf_8h.html#afd4a983899f1980887b8375e40b32a72" target="_top" xlink:title="Executes MAX_TRIALS number of XCSF learning iterations using the training data. ">
<polygon fill="none" stroke="#000000" points="814,-.5 814,-19.5 868,-19.5 868,-.5 814,-.5"/>
<text text-anchor="middle" x="841" y="-7.5" font-family="Helvetica,sans-Serif" font-size="10.00" fill="#000000">xcsf_fit1</text>
</a>
</g>
</g>
<!-- Node103&#45;&gt;Node105 -->
<g id="edge17" class="edge">
<title>Node103&#45;&gt;Node105</title>
<path fill="none" stroke="#191970" d="M740.5367,-53.3819C764.6866,-42.9535 797.393,-28.8303 818.8341,-19.5716"/>
<polygon fill="#191970" stroke="#191970" points="738.8869,-50.2818 731.0938,-57.4595 741.662,-56.7083 738.8869,-50.2818"/>
</g>
<!-- Node106 -->
<g id="node17" class="node">
<title>Node106</title>
<g id="a_node17"><a xlink:href="structXCS.html#ad2ccafe59d2b4ae6d0e1cbc15edee53c" target="_top" xlink:title="XCS::fit">
<polygon fill="none" stroke="#000000" points="957,-38.5 957,-57.5 1009,-57.5 1009,-38.5 957,-38.5"/>
<text text-anchor="middle" x="983" y="-45.5" font-family="Helvetica,sans-Serif" font-size="10.00" fill="#000000">XCS::fit</text>
</a>
</g>
</g>
<!-- Node105&#45;&gt;Node106 -->
<g id="edge18" class="edge">
<title>Node105&#45;&gt;Node106</title>
<path fill="none" stroke="#191970" d="M877.7821,-19.8431C902.4487,-26.444 934.3571,-34.9829 956.538,-40.9186"/>
<polygon fill="#191970" stroke="#191970" points="878.6083,-16.4411 868.0434,-17.237 876.7986,-23.2032 878.6083,-16.4411"/>
</g>
<!-- Node106&#45;&gt;Node99 -->
<g id="edge19" class="edge">
<title>Node106&#45;&gt;Node99</title>
<path fill="none" stroke="#191970" d="M1019.0761,-56.5149C1044.1626,-62.4359 1077.6291,-70.3348 1103.6091,-76.4667"/>
<polygon fill="#191970" stroke="#191970" points="1019.7624,-53.0807 1009.2258,-54.1899 1018.1543,-59.8935 1019.7624,-53.0807"/>
</g>
<!-- Node108 -->
<g id="node19" class="node">
<title>Node108</title>
<g id="a_node19"><a xlink:href="ea_8c.html#a72cd70b4efb82200d9c3004e1658a69c" target="_top" xlink:title="Adds offspring to the population. ">
<polygon fill="none" stroke="#000000" points="341,-76.5 341,-95.5 389,-95.5 389,-76.5 341,-76.5"/>
<text text-anchor="middle" x="365" y="-83.5" font-family="Helvetica,sans-Serif" font-size="10.00" fill="#000000">ea_add</text>
</a>
</g>
</g>
<!-- Node107&#45;&gt;Node108 -->
<g id="edge21" class="edge">
<title>Node107&#45;&gt;Node108</title>
<path fill="none" stroke="#191970" d="M302.6609,-86C315.8277,-86 329.6179,-86 340.8707,-86"/>
<polygon fill="#191970" stroke="#191970" points="302.2955,-82.5001 292.2954,-86 302.2954,-89.5001 302.2955,-82.5001"/>
</g>
<!-- Node109 -->
<g id="node20" class="node">
<title>Node109</title>
<g id="a_node20"><a xlink:href="ea_8h.html#a3e63f4f98f4b3eb0de9a52a1abe1c225" target="_top" xlink:title="Executes the evolutionary algorithm (EA). ">
<polygon fill="none" stroke="#000000" points="446.5,-76.5 446.5,-95.5 475.5,-95.5 475.5,-76.5 446.5,-76.5"/>
<text text-anchor="middle" x="461" y="-83.5" font-family="Helvetica,sans-Serif" font-size="10.00" fill="#000000">ea</text>
</a>
</g>
</g>
<!-- Node108&#45;&gt;Node109 -->
<g id="edge22" class="edge">
<title>Node108&#45;&gt;Node109</title>
<path fill="none" stroke="#191970" d="M399.4184,-86C415.5491,-86 433.9096,-86 446.3544,-86"/>
<polygon fill="#191970" stroke="#191970" points="399.2249,-82.5001 389.2249,-86 399.2248,-89.5001 399.2249,-82.5001"/>
</g>
<!-- Node109&#45;&gt;Node94 -->
<g id="edge23" class="edge">
<title>Node109&#45;&gt;Node94</title>
<path fill="none" stroke="#191970" d="M485.5961,-93.7244C504.7053,-99.7256 531.3023,-108.0784 551.7203,-114.4907"/>
<polygon fill="#191970" stroke="#191970" points="486.4263,-90.3166 475.837,-90.6595 484.3289,-96.995 486.4263,-90.3166"/>
</g>
<!-- Node109&#45;&gt;Node97 -->
<g id="edge24" class="edge">
<title>Node109&#45;&gt;Node97</title>
<path fill="none" stroke="#191970" d="M484.713,-97.0907C488.9563,-99.4679 493.2243,-102.1355 497,-105 515.5342,-119.0612 513.6837,-130.0341 533,-143 538.5302,-146.7121 544.8909,-149.8521 551.1587,-152.4445"/>
<polygon fill="#191970" stroke="#191970" points="486.1512,-93.8937 475.6641,-92.3865 482.9224,-100.1046 486.1512,-93.8937"/>
</g>
<!-- Node109&#45;&gt;Node102 -->
<g id="edge25" class="edge">
<title>Node109&#45;&gt;Node102</title>
<path fill="none" stroke="#191970" d="M486.2491,-86C501.8577,-86 522.2736,-86 540.2422,-86"/>
<polygon fill="#191970" stroke="#191970" points="485.837,-82.5001 475.837,-86 485.8369,-89.5001 485.837,-82.5001"/>
</g>
</g>
</svg>
