<?xml version="1.0" encoding="UTF-8" standalone="no"?>
<!DOCTYPE svg PUBLIC "-//W3C//DTD SVG 1.1//EN"
 "http://www.w3.org/Graphics/SVG/1.1/DTD/svg11.dtd">
<!-- Generated by graphviz version 2.40.1 (20161225.0304)
 -->
<!-- Title: cond_free Pages: 1 -->
<svg width="1193pt" height="470pt"
 viewBox="0.00 0.00 1193.00 470.31" xmlns="http://www.w3.org/2000/svg" xmlns:xlink="http://www.w3.org/1999/xlink">
<g id="graph0" class="graph" transform="scale(1 1) rotate(0) translate(4 466.3146)">
<title>cond_free</title>
<!-- Node60 -->
<g id="node1" class="node">
<title>Node60</title>
<polygon fill="#bfbfbf" stroke="#000000" points="0,-186.5 0,-205.5 59,-205.5 59,-186.5 0,-186.5"/>
<text text-anchor="middle" x="29.5" y="-193.5" font-family="Helvetica,sans-Serif" font-size="10.00" fill="#000000">cond_free</text>
</g>
<!-- Node61 -->
<g id="node2" class="node">
<title>Node61</title>
<g id="a_node2"><a xlink:href="cl_8h.html#a7bf8d03856a0c04854cfd99fcd45b32a" target="_top" xlink:title="Frees the memory used by the classifier. ">
<polygon fill="none" stroke="#000000" points="95,-186.5 95,-205.5 141,-205.5 141,-186.5 95,-186.5"/>
<text text-anchor="middle" x="118" y="-193.5" font-family="Helvetica,sans-Serif" font-size="10.00" fill="#000000">cl_free</text>
</a>
</g>
</g>
<!-- Node60&#45;&gt;Node61 -->
<g id="edge1" class="edge">
<title>Node60&#45;&gt;Node61</title>
<path fill="none" stroke="#191970" d="M69.7397,-196C78.3199,-196 87.1028,-196 94.7838,-196"/>
<polygon fill="#191970" stroke="#191970" points="69.4621,-192.5001 59.4621,-196 69.462,-199.5001 69.4621,-192.5001"/>
</g>
<!-- Node62 -->
<g id="node3" class="node">
<title>Node62</title>
<g id="a_node3"><a xlink:href="clset_8h.html#a39612861046970f20ffd9bd0d310ce12" target="_top" xlink:title="Frees the set and the classifiers. ">
<polygon fill="none" stroke="#000000" points="369,-247.5 369,-266.5 424,-266.5 424,-247.5 369,-247.5"/>
<text text-anchor="middle" x="396.5" y="-254.5" font-family="Helvetica,sans-Serif" font-size="10.00" fill="#000000">clset_kill</text>
</a>
</g>
</g>
<!-- Node61&#45;&gt;Node62 -->
<g id="edge2" class="edge">
<title>Node61&#45;&gt;Node62</title>
<path fill="none" stroke="#191970" d="M150.6664,-207.3064C159.179,-210.0356 168.3825,-212.7968 177,-215 245.2257,-232.4429 327.0431,-246.264 368.8853,-252.831"/>
<polygon fill="#191970" stroke="#191970" points="151.6601,-203.9488 141.0672,-204.1526 149.4751,-210.5991 151.6601,-203.9488"/>
</g>
<!-- Node84 -->
<g id="node25" class="node">
<title>Node84</title>
<g id="a_node25"><a xlink:href="ea_8c.html#a14278fc032b7fb0c473e11764ab1c4d1" target="_top" xlink:title="Adds offspring to the population. ">
<polygon fill="none" stroke="#000000" points="285,-148.5 285,-167.5 333,-167.5 333,-148.5 285,-148.5"/>
<text text-anchor="middle" x="309" y="-155.5" font-family="Helvetica,sans-Serif" font-size="10.00" fill="#000000">ea_add</text>
</a>
</g>
</g>
<!-- Node61&#45;&gt;Node84 -->
<g id="edge34" class="edge">
<title>Node61&#45;&gt;Node84</title>
<path fill="none" stroke="#191970" d="M150.5997,-184.4196C159.1134,-181.6946 168.334,-179.004 177,-177 214.22,-168.393 258.2966,-162.988 284.9293,-160.2329"/>
<polygon fill="#191970" stroke="#191970" points="149.3994,-181.1301 141.0058,-187.5952 151.5991,-187.7755 149.3994,-181.1301"/>
</g>
<!-- Node88 -->
<g id="node29" class="node">
<title>Node88</title>
<g id="a_node29"><a xlink:href="ea_8c.html#afe1eb3a920dc0bbcd5f737b9cdda2170" target="_top" xlink:title="Performs evolutionary algorithm subsumption. ">
<polygon fill="none" stroke="#000000" points="177,-186.5 177,-205.5 249,-205.5 249,-186.5 177,-186.5"/>
<text text-anchor="middle" x="213" y="-193.5" font-family="Helvetica,sans-Serif" font-size="10.00" fill="#000000">ea_subsume</text>
</a>
</g>
</g>
<!-- Node61&#45;&gt;Node88 -->
<g id="edge42" class="edge">
<title>Node61&#45;&gt;Node88</title>
<path fill="none" stroke="#191970" d="M151.7462,-196C159.8798,-196 168.6022,-196 176.8411,-196"/>
<polygon fill="#191970" stroke="#191970" points="151.4832,-192.5001 141.4832,-196 151.4831,-199.5001 151.4832,-192.5001"/>
</g>
<!-- Node63 -->
<g id="node4" class="node">
<title>Node63</title>
<g id="a_node4"><a xlink:href="main_8c.html#a3c04138a5bfe5d72780bb7e82a18e627" target="_top" xlink:title="main">
<polygon fill="none" stroke="#000000" points="927.5,-190.5 927.5,-209.5 965.5,-209.5 965.5,-190.5 927.5,-190.5"/>
<text text-anchor="middle" x="946.5" y="-197.5" font-family="Helvetica,sans-Serif" font-size="10.00" fill="#000000">main</text>
</a>
</g>
</g>
<!-- Node62&#45;&gt;Node63 -->
<g id="edge3" class="edge">
<title>Node62&#45;&gt;Node63</title>
<path fill="none" stroke="#191970" d="M434.2241,-253.0904C541.8051,-241.9411 847.489,-210.2611 927.265,-201.9935"/>
<polygon fill="#191970" stroke="#191970" points="433.7374,-249.622 424.1515,-254.1343 434.4591,-256.5847 433.7374,-249.622"/>
</g>
<!-- Node64 -->
<g id="node5" class="node">
<title>Node64</title>
<g id="a_node5"><a xlink:href="structXCS.html#ab58a4fb495b05f3450b182bc21dcba1f" target="_top" xlink:title="XCS::single_reset">
<polygon fill="none" stroke="#000000" points="898.5,-418.5 898.5,-437.5 994.5,-437.5 994.5,-418.5 898.5,-418.5"/>
<text text-anchor="middle" x="946.5" y="-425.5" font-family="Helvetica,sans-Serif" font-size="10.00" fill="#000000">XCS::single_reset</text>
</a>
</g>
</g>
<!-- Node62&#45;&gt;Node64 -->
<g id="edge4" class="edge">
<title>Node62&#45;&gt;Node64</title>
<path fill="none" stroke="#191970" d="M399.038,-276.814C404.2391,-308.3861 419.2761,-369.4509 460,-398 600.315,-496.3665 823.0531,-457.8853 910.0225,-437.5052"/>
<polygon fill="#191970" stroke="#191970" points="402.4581,-276.0143 397.5375,-266.6314 395.5329,-277.0348 402.4581,-276.0143"/>
</g>
<!-- Node66 -->
<g id="node7" class="node">
<title>Node66</title>
<g id="a_node7"><a xlink:href="xcs__multi__step_8c.html#a1e1c2a3094be715b468dda79cd59ebf3" target="_top" xlink:title="Executes a multi&#45;step trial using a built&#45;in environment. ">
<polygon fill="none" stroke="#000000" points="475,-114.5 475,-133.5 555,-133.5 555,-114.5 475,-114.5"/>
<text text-anchor="middle" x="515" y="-121.5" font-family="Helvetica,sans-Serif" font-size="10.00" fill="#000000">xcs_multi_trial</text>
</a>
</g>
</g>
<!-- Node62&#45;&gt;Node66 -->
<g id="edge6" class="edge">
<title>Node62&#45;&gt;Node66</title>
<path fill="none" stroke="#191970" d="M402.4231,-237.6326C411.0989,-212.3886 429.6158,-168.4679 460,-143 464.6454,-139.1063 470.1345,-135.994 475.8166,-133.5109"/>
<polygon fill="#191970" stroke="#191970" points="399.0761,-236.6072 399.3014,-247.1997 405.7308,-238.7786 399.0761,-236.6072"/>
</g>
<!-- Node68 -->
<g id="node9" class="node">
<title>Node68</title>
<g id="a_node9"><a xlink:href="xcs__single__step_8c.html#a3d1fd2472d35310800aed897219a65af" target="_top" xlink:title="Executes a single&#45;step trial using a built&#45;in environment. ">
<polygon fill="none" stroke="#000000" points="616,-76.5 616,-95.5 700,-95.5 700,-76.5 616,-76.5"/>
<text text-anchor="middle" x="658" y="-83.5" font-family="Helvetica,sans-Serif" font-size="10.00" fill="#000000">xcs_single_trial</text>
</a>
</g>
</g>
<!-- Node62&#45;&gt;Node68 -->
<g id="edge9" class="edge">
<title>Node62&#45;&gt;Node68</title>
<path fill="none" stroke="#191970" d="M422.7111,-242.5782C434.0422,-236.5534 447.537,-229.6549 460,-224 507.801,-202.3109 526.6218,-210.5582 570,-181 572.3804,-179.378 627.3785,-119.4349 649.1973,-95.6157"/>
<polygon fill="#191970" stroke="#191970" points="420.9205,-239.5671 413.7721,-247.3871 424.2368,-245.7317 420.9205,-239.5671"/>
</g>
<!-- Node70 -->
<g id="node11" class="node">
<title>Node70</title>
<g id="a_node11"><a xlink:href="xcsf_8c.html#a474f4e13cfc5f00958c689cd8c81135a" target="_top" xlink:title="Executes a single XCSF learning trial. ">
<polygon fill="none" stroke="#000000" points="473.5,-152.5 473.5,-171.5 556.5,-171.5 556.5,-152.5 473.5,-152.5"/>
<text text-anchor="middle" x="515" y="-159.5" font-family="Helvetica,sans-Serif" font-size="10.00" fill="#000000">xcsf_learn_trial</text>
</a>
</g>
</g>
<!-- Node62&#45;&gt;Node70 -->
<g id="edge12" class="edge">
<title>Node62&#45;&gt;Node70</title>
<path fill="none" stroke="#191970" d="M409.309,-238.7055C421.0322,-223.0423 439.6153,-200.7469 460,-186 468.1033,-180.1378 477.8635,-175.2973 486.8984,-171.5365"/>
<polygon fill="#191970" stroke="#191970" points="406.2884,-236.9082 403.2374,-247.0542 411.9497,-241.0253 406.2884,-236.9082"/>
</g>
<!-- Node75 -->
<g id="node16" class="node">
<title>Node75</title>
<g id="a_node16"><a xlink:href="xcsf_8h.html#a70e6ae30c7d4e471009c4611255ed873" target="_top" xlink:title="Reads the state of XCSF from a binary file. ">
<polygon fill="none" stroke="#000000" points="770.5,-304.5 770.5,-323.5 829.5,-323.5 829.5,-304.5 770.5,-304.5"/>
<text text-anchor="middle" x="800" y="-311.5" font-family="Helvetica,sans-Serif" font-size="10.00" fill="#000000">xcsf_load</text>
</a>
</g>
</g>
<!-- Node62&#45;&gt;Node75 -->
<g id="edge19" class="edge">
<title>Node62&#45;&gt;Node75</title>
<path fill="none" stroke="#191970" d="M417.0476,-272.7921C428.9221,-280.9884 444.5349,-290.2577 460,-295 570.2182,-328.7979 709.7991,-322.1309 770.0602,-317.0347"/>
<polygon fill="#191970" stroke="#191970" points="418.9209,-269.8281 408.7602,-266.8263 414.8312,-275.5092 418.9209,-269.8281"/>
</g>
<!-- Node77 -->
<g id="node18" class="node">
<title>Node77</title>
<g id="a_node18"><a xlink:href="xcsf_8h.html#af0b9db7273578fdff649d46823cd9790" target="_top" xlink:title="Calculates the XCSF predictions for the provided input. ">
<polygon fill="none" stroke="#000000" points="623,-380.5 623,-399.5 693,-399.5 693,-380.5 623,-380.5"/>
<text text-anchor="middle" x="658" y="-387.5" font-family="Helvetica,sans-Serif" font-size="10.00" fill="#000000">xcsf_predict</text>
</a>
</g>
</g>
<!-- Node62&#45;&gt;Node77 -->
<g id="edge23" class="edge">
<title>Node62&#45;&gt;Node77</title>
<path fill="none" stroke="#191970" d="M401.3535,-276.7104C408.9805,-303.0886 426.4867,-349.0851 460,-371 509.278,-403.2237 580.7444,-400.9524 622.9849,-395.8408"/>
<polygon fill="#191970" stroke="#191970" points="404.6477,-275.4826 398.6717,-266.7341 397.8877,-277.2998 404.6477,-275.4826"/>
</g>
<!-- Node79 -->
<g id="node20" class="node">
<title>Node79</title>
<g id="a_node20"><a xlink:href="xcsf_8h.html#ae1f6851f682e015601030a5c725c6618" target="_top" xlink:title="Prints the XCSF match set for the supplied input. ">
<polygon fill="none" stroke="#000000" points="460,-342.5 460,-361.5 570,-361.5 570,-342.5 460,-342.5"/>
<text text-anchor="middle" x="515" y="-349.5" font-family="Helvetica,sans-Serif" font-size="10.00" fill="#000000">xcsf_print_match_set</text>
</a>
</g>
</g>
<!-- Node62&#45;&gt;Node79 -->
<g id="edge26" class="edge">
<title>Node62&#45;&gt;Node79</title>
<path fill="none" stroke="#191970" d="M409.309,-275.2945C421.0322,-290.9577 439.6153,-313.2531 460,-328 468.1033,-333.8622 477.8635,-338.7027 486.8984,-342.4635"/>
<polygon fill="#191970" stroke="#191970" points="411.9497,-272.9747 403.2374,-266.9458 406.2884,-277.0918 411.9497,-272.9747"/>
</g>
<!-- Node81 -->
<g id="node22" class="node">
<title>Node81</title>
<g id="a_node22"><a xlink:href="xcsf_8c.html#aa6edd3962ddd04940e2c78a4f99de7cd" target="_top" xlink:title="Executes a single XCSF testing trial. ">
<polygon fill="none" stroke="#000000" points="476,-266.5 476,-285.5 554,-285.5 554,-266.5 476,-266.5"/>
<text text-anchor="middle" x="515" y="-273.5" font-family="Helvetica,sans-Serif" font-size="10.00" fill="#000000">xcsf_test_trial</text>
</a>
</g>
</g>
<!-- Node62&#45;&gt;Node81 -->
<g id="edge29" class="edge">
<title>Node62&#45;&gt;Node81</title>
<path fill="none" stroke="#191970" d="M434.4479,-263.0845C447.6314,-265.1983 462.438,-267.5723 475.7264,-269.703"/>
<polygon fill="#191970" stroke="#191970" points="434.711,-259.582 424.283,-261.4547 433.6027,-266.4938 434.711,-259.582"/>
</g>
<!-- Node65 -->
<g id="node6" class="node">
<title>Node65</title>
<g id="a_node6"><a xlink:href="python__wrapper_8cpp.html#afbdcc1358036a0b83a6b239da2b098a2" target="_top" xlink:title="BOOST_PYTHON_MODULE">
<polygon fill="none" stroke="#000000" points="1039,-304.5 1039,-323.5 1185,-323.5 1185,-304.5 1039,-304.5"/>
<text text-anchor="middle" x="1112" y="-311.5" font-family="Helvetica,sans-Serif" font-size="10.00" fill="#000000">BOOST_PYTHON_MODULE</text>
</a>
</g>
</g>
<!-- Node64&#45;&gt;Node65 -->
<g id="edge5" class="edge">
<title>Node64&#45;&gt;Node65</title>
<path fill="none" stroke="#191970" d="M991.4756,-414.7083C995.4645,-412.9856 999.3641,-411.0849 1003,-409 1045.2459,-384.7757 1086.0594,-342.7098 1103.3504,-323.755"/>
<polygon fill="#191970" stroke="#191970" points="990.1088,-411.4849 982.0885,-418.4077 992.6754,-417.9975 990.1088,-411.4849"/>
</g>
<!-- Node67 -->
<g id="node8" class="node">
<title>Node67</title>
<g id="a_node8"><a xlink:href="xcs__multi__step_8h.html#acc29d4a55dbd56c16ea5f19f15a7c677" target="_top" xlink:title="Executes a multi&#45;step reinforcement learning experiment. ">
<polygon fill="none" stroke="#000000" points="748,-38.5 748,-57.5 852,-57.5 852,-38.5 748,-38.5"/>
<text text-anchor="middle" x="800" y="-45.5" font-family="Helvetica,sans-Serif" font-size="10.00" fill="#000000">xcs_multi_step_exp</text>
</a>
</g>
</g>
<!-- Node66&#45;&gt;Node67 -->
<g id="edge7" class="edge">
<title>Node66&#45;&gt;Node67</title>
<path fill="none" stroke="#191970" d="M560.0848,-110.4755C563.5385,-108.8274 566.8874,-107.0062 570,-105 589.5547,-92.3965 585.1027,-77.2243 606,-67 650.3816,-45.2857 707.2402,-42.1594 747.9088,-43.4819"/>
<polygon fill="#191970" stroke="#191970" points="558.6126,-107.2983 550.7882,-114.4418 561.3596,-113.7368 558.6126,-107.2983"/>
</g>
<!-- Node67&#45;&gt;Node63 -->
<g id="edge8" class="edge">
<title>Node67&#45;&gt;Node63</title>
<path fill="none" stroke="#191970" d="M848.7674,-62.6427C850.6256,-63.9716 852.3823,-65.4205 854,-67 886.3067,-98.5435 861.9444,-126.6221 890,-162 899.9894,-174.5966 915.3109,-184.5339 927.4798,-191.0824"/>
<polygon fill="#191970" stroke="#191970" points="850.4835,-59.5916 840.087,-57.5509 846.9417,-65.6295 850.4835,-59.5916"/>
</g>
<!-- Node69 -->
<g id="node10" class="node">
<title>Node69</title>
<g id="a_node10"><a xlink:href="xcs__single__step_8h.html#a39a031bf59eaa9b33e30e614610dcda8" target="_top" xlink:title="Executes a single&#45;step experiment. ">
<polygon fill="none" stroke="#000000" points="746,-76.5 746,-95.5 854,-95.5 854,-76.5 746,-76.5"/>
<text text-anchor="middle" x="800" y="-83.5" font-family="Helvetica,sans-Serif" font-size="10.00" fill="#000000">xcs_single_step_exp</text>
</a>
</g>
</g>
<!-- Node68&#45;&gt;Node69 -->
<g id="edge10" class="edge">
<title>Node68&#45;&gt;Node69</title>
<path fill="none" stroke="#191970" d="M710.551,-86C722.0539,-86 734.2511,-86 745.8166,-86"/>
<polygon fill="#191970" stroke="#191970" points="710.2203,-82.5001 700.2202,-86 710.2202,-89.5001 710.2203,-82.5001"/>
</g>
<!-- Node69&#45;&gt;Node63 -->
<g id="edge11" class="edge">
<title>Node69&#45;&gt;Node63</title>
<path fill="none" stroke="#191970" d="M846.7452,-100.077C849.2994,-101.5635 851.7413,-103.1998 854,-105 877.4315,-123.6746 869.1198,-140.5105 890,-162 901.2034,-173.5303 916.449,-183.5343 928.28,-190.3795"/>
<polygon fill="#191970" stroke="#191970" points="848.2412,-96.912 837.7304,-95.5801 845.1165,-103.1759 848.2412,-96.912"/>
</g>
<!-- Node71 -->
<g id="node12" class="node">
<title>Node71</title>
<g id="a_node12"><a xlink:href="xcsf_8h.html#a0b4de57cb9dadc9deca7901aa36e5025" target="_top" xlink:title="Executes MAX_TRIALS number of XCSF learning iterations using the training. data and test iterations u...">
<polygon fill="none" stroke="#000000" points="631,-152.5 631,-171.5 685,-171.5 685,-152.5 631,-152.5"/>
<text text-anchor="middle" x="658" y="-159.5" font-family="Helvetica,sans-Serif" font-size="10.00" fill="#000000">xcsf_fit2</text>
</a>
</g>
</g>
<!-- Node70&#45;&gt;Node71 -->
<g id="edge13" class="edge">
<title>Node70&#45;&gt;Node71</title>
<path fill="none" stroke="#191970" d="M566.8193,-162C588.5104,-162 612.8222,-162 630.8834,-162"/>
<polygon fill="#191970" stroke="#191970" points="566.746,-158.5001 556.7459,-162 566.7459,-165.5001 566.746,-158.5001"/>
</g>
<!-- Node71&#45;&gt;Node63 -->
<g id="edge14" class="edge">
<title>Node71&#45;&gt;Node63</title>
<path fill="none" stroke="#191970" d="M695.0273,-171.0121C710.677,-174.5556 729.1483,-178.3917 746,-181 812.17,-191.2419 891.5381,-196.7929 927.3317,-198.9399"/>
<polygon fill="#191970" stroke="#191970" points="695.7272,-167.5817 685.1961,-168.7416 694.152,-174.4021 695.7272,-167.5817"/>
</g>
<!-- Node72 -->
<g id="node13" class="node">
<title>Node72</title>
<g id="a_node13"><a xlink:href="structXCS.html#a7d53320740db8e846251bacd0238a9fb" target="_top" xlink:title="XCS::fit">
<polygon fill="none" stroke="#000000" points="774,-152.5 774,-171.5 826,-171.5 826,-152.5 774,-152.5"/>
<text text-anchor="middle" x="800" y="-159.5" font-family="Helvetica,sans-Serif" font-size="10.00" fill="#000000">XCS::fit</text>
</a>
</g>
</g>
<!-- Node71&#45;&gt;Node72 -->
<g id="edge15" class="edge">
<title>Node71&#45;&gt;Node72</title>
<path fill="none" stroke="#191970" d="M695.1114,-162C719.7321,-162 751.4557,-162 773.538,-162"/>
<polygon fill="#191970" stroke="#191970" points="695.0434,-158.5001 685.0434,-162 695.0433,-165.5001 695.0434,-158.5001"/>
</g>
<!-- Node73 -->
<g id="node14" class="node">
<title>Node73</title>
<g id="a_node14"><a xlink:href="xcsf_8h.html#a874829f28fee20f9ad15b540f4b4d6ff" target="_top" xlink:title="Executes MAX_TRIALS number of XCSF learning iterations using the training data. ">
<polygon fill="none" stroke="#000000" points="773,-114.5 773,-133.5 827,-133.5 827,-114.5 773,-114.5"/>
<text text-anchor="middle" x="800" y="-121.5" font-family="Helvetica,sans-Serif" font-size="10.00" fill="#000000">xcsf_fit1</text>
</a>
</g>
</g>
<!-- Node71&#45;&gt;Node73 -->
<g id="edge16" class="edge">
<title>Node71&#45;&gt;Node73</title>
<path fill="none" stroke="#191970" d="M694.9779,-152.1045C719.2616,-145.6061 750.4989,-137.2468 772.5737,-131.3394"/>
<polygon fill="#191970" stroke="#191970" points="693.7986,-148.7968 685.0434,-154.763 695.6083,-155.5589 693.7986,-148.7968"/>
</g>
<!-- Node74 -->
<g id="node15" class="node">
<title>Node74</title>
<g id="a_node15"><a xlink:href="structXCS.html#ad2ccafe59d2b4ae6d0e1cbc15edee53c" target="_top" xlink:title="XCS::fit">
<polygon fill="none" stroke="#000000" points="920.5,-133.5 920.5,-152.5 972.5,-152.5 972.5,-133.5 920.5,-133.5"/>
<text text-anchor="middle" x="946.5" y="-140.5" font-family="Helvetica,sans-Serif" font-size="10.00" fill="#000000">XCS::fit</text>
</a>
</g>
</g>
<!-- Node73&#45;&gt;Node74 -->
<g id="edge17" class="edge">
<title>Node73&#45;&gt;Node74</title>
<path fill="none" stroke="#191970" d="M837.4437,-128.8562C863.4137,-132.2243 897.3473,-136.6252 920.4182,-139.6174"/>
<polygon fill="#191970" stroke="#191970" points="837.5793,-125.3445 827.2122,-127.5292 836.679,-132.2864 837.5793,-125.3445"/>
</g>
<!-- Node74&#45;&gt;Node65 -->
<g id="edge18" class="edge">
<title>Node74&#45;&gt;Node65</title>
<path fill="none" stroke="#191970" d="M972.2951,-158.0886C982.3614,-164.5402 993.6943,-172.5343 1003,-181 1047.6081,-221.5811 1089.6846,-280.9286 1105.4508,-304.1601"/>
<polygon fill="#191970" stroke="#191970" points="973.8428,-154.9298 963.501,-152.628 970.1501,-160.8766 973.8428,-154.9298"/>
</g>
<!-- Node75&#45;&gt;Node63 -->
<g id="edge20" class="edge">
<title>Node75&#45;&gt;Node63</title>
<path fill="none" stroke="#191970" d="M839.0746,-302.6968C844.2742,-300.4983 849.3937,-297.9429 854,-295 891.6335,-270.9562 925.3496,-228.7972 939.4735,-209.7867"/>
<polygon fill="#191970" stroke="#191970" points="837.8111,-299.4327 829.7223,-306.2754 840.3127,-305.9705 837.8111,-299.4327"/>
</g>
<!-- Node76 -->
<g id="node17" class="node">
<title>Node76</title>
<g id="a_node17"><a xlink:href="structXCS.html#adc9b621f2b7a306fbf381dd0efaf268b" target="_top" xlink:title="XCS::load">
<polygon fill="none" stroke="#000000" points="915.5,-304.5 915.5,-323.5 977.5,-323.5 977.5,-304.5 915.5,-304.5"/>
<text text-anchor="middle" x="946.5" y="-311.5" font-family="Helvetica,sans-Serif" font-size="10.00" fill="#000000">XCS::load</text>
</a>
</g>
</g>
<!-- Node75&#45;&gt;Node76 -->
<g id="edge21" class="edge">
<title>Node75&#45;&gt;Node76</title>
<path fill="none" stroke="#191970" d="M839.7648,-314C863.5445,-314 893.3236,-314 915.3807,-314"/>
<polygon fill="#191970" stroke="#191970" points="839.6465,-310.5001 829.6465,-314 839.6464,-317.5001 839.6465,-310.5001"/>
</g>
<!-- Node76&#45;&gt;Node65 -->
<g id="edge22" class="edge">
<title>Node76&#45;&gt;Node65</title>
<path fill="none" stroke="#191970" d="M987.8643,-314C1003.3016,-314 1021.3267,-314 1038.7788,-314"/>
<polygon fill="#191970" stroke="#191970" points="987.6293,-310.5001 977.6293,-314 987.6292,-317.5001 987.6293,-310.5001"/>
</g>
<!-- Node78 -->
<g id="node19" class="node">
<title>Node78</title>
<g id="a_node19"><a xlink:href="structXCS.html#a911ed75c86abed7807d33eb1385240ed" target="_top" xlink:title="XCS::predict">
<polygon fill="none" stroke="#000000" points="910,-380.5 910,-399.5 983,-399.5 983,-380.5 910,-380.5"/>
<text text-anchor="middle" x="946.5" y="-387.5" font-family="Helvetica,sans-Serif" font-size="10.00" fill="#000000">XCS::predict</text>
</a>
</g>
</g>
<!-- Node77&#45;&gt;Node78 -->
<g id="edge24" class="edge">
<title>Node77&#45;&gt;Node78</title>
<path fill="none" stroke="#191970" d="M703.2526,-390C760.2847,-390 857.203,-390 909.8412,-390"/>
<polygon fill="#191970" stroke="#191970" points="703.0874,-386.5001 693.0873,-390 703.0873,-393.5001 703.0874,-386.5001"/>
</g>
<!-- Node78&#45;&gt;Node65 -->
<g id="edge25" class="edge">
<title>Node78&#45;&gt;Node65</title>
<path fill="none" stroke="#191970" d="M987.3719,-377.1099C992.6783,-375.1876 998.0024,-373.1313 1003,-371 1036.9826,-356.5074 1074.8138,-335.5717 1095.7727,-323.5196"/>
<polygon fill="#191970" stroke="#191970" points="986.2009,-373.8115 977.9138,-380.4127 988.5087,-380.4201 986.2009,-373.8115"/>
</g>
<!-- Node80 -->
<g id="node21" class="node">
<title>Node80</title>
<g id="a_node21"><a xlink:href="structXCS.html#aa5608b379fae01b724267a99068d55bb" target="_top" xlink:title="XCS::print_match_set">
<polygon fill="none" stroke="#000000" points="890,-342.5 890,-361.5 1003,-361.5 1003,-342.5 890,-342.5"/>
<text text-anchor="middle" x="946.5" y="-349.5" font-family="Helvetica,sans-Serif" font-size="10.00" fill="#000000">XCS::print_match_set</text>
</a>
</g>
</g>
<!-- Node79&#45;&gt;Node80 -->
<g id="edge27" class="edge">
<title>Node79&#45;&gt;Node80</title>
<path fill="none" stroke="#191970" d="M580.3038,-352C664.5622,-352 809.7782,-352 889.6851,-352"/>
<polygon fill="#191970" stroke="#191970" points="580.0881,-348.5001 570.0881,-352 580.088,-355.5001 580.0881,-348.5001"/>
</g>
<!-- Node80&#45;&gt;Node65 -->
<g id="edge28" class="edge">
<title>Node80&#45;&gt;Node65</title>
<path fill="none" stroke="#191970" d="M998.3105,-340.1039C1021.5733,-334.7626 1048.6469,-328.5463 1070.5377,-323.5201"/>
<polygon fill="#191970" stroke="#191970" points="997.2258,-336.7618 988.2626,-342.411 998.7923,-343.5843 997.2258,-336.7618"/>
</g>
<!-- Node81&#45;&gt;Node71 -->
<g id="edge30" class="edge">
<title>Node81&#45;&gt;Node71</title>
<path fill="none" stroke="#191970" d="M535.3305,-259.7925C565.5202,-235.7251 621.2754,-191.2769 645.8388,-171.695"/>
<polygon fill="#191970" stroke="#191970" points="532.8297,-257.31 527.1921,-266.2804 537.1932,-262.7836 532.8297,-257.31"/>
</g>
<!-- Node82 -->
<g id="node23" class="node">
<title>Node82</title>
<g id="a_node23"><a xlink:href="xcsf_8h.html#a2cf95733e5f97410d94211b72e835847" target="_top" xlink:title="Calculates the XCSF error for the input data. ">
<polygon fill="none" stroke="#000000" points="625.5,-266.5 625.5,-285.5 690.5,-285.5 690.5,-266.5 625.5,-266.5"/>
<text text-anchor="middle" x="658" y="-273.5" font-family="Helvetica,sans-Serif" font-size="10.00" fill="#000000">xcsf_score</text>
</a>
</g>
</g>
<!-- Node81&#45;&gt;Node82 -->
<g id="edge31" class="edge">
<title>Node81&#45;&gt;Node82</title>
<path fill="none" stroke="#191970" d="M564.3331,-276C584.477,-276 607.226,-276 625.2602,-276"/>
<polygon fill="#191970" stroke="#191970" points="564.0754,-272.5001 554.0754,-276 564.0753,-279.5001 564.0754,-272.5001"/>
</g>
<!-- Node83 -->
<g id="node24" class="node">
<title>Node83</title>
<g id="a_node24"><a xlink:href="structXCS.html#aa77bc77484d6d14bf512304a23cfec88" target="_top" xlink:title="XCS::score">
<polygon fill="none" stroke="#000000" points="766,-266.5 766,-285.5 834,-285.5 834,-266.5 766,-266.5"/>
<text text-anchor="middle" x="800" y="-273.5" font-family="Helvetica,sans-Serif" font-size="10.00" fill="#000000">XCS::score</text>
</a>
</g>
</g>
<!-- Node82&#45;&gt;Node83 -->
<g id="edge32" class="edge">
<title>Node82&#45;&gt;Node83</title>
<path fill="none" stroke="#191970" d="M700.7215,-276C721.4707,-276 746.0715,-276 765.5932,-276"/>
<polygon fill="#191970" stroke="#191970" points="700.5777,-272.5001 690.5777,-276 700.5776,-279.5001 700.5777,-272.5001"/>
</g>
<!-- Node83&#45;&gt;Node65 -->
<g id="edge33" class="edge">
<title>Node83&#45;&gt;Node65</title>
<path fill="none" stroke="#191970" d="M844.1993,-279.122C885.3986,-282.2724 948.5008,-287.7113 1003,-295 1022.4202,-297.5973 1043.669,-301.1411 1062.2061,-304.4649"/>
<polygon fill="#191970" stroke="#191970" points="844.4499,-275.6311 834.2154,-278.3707 843.9245,-282.6113 844.4499,-275.6311"/>
</g>
<!-- Node85 -->
<g id="node26" class="node">
<title>Node85</title>
<g id="a_node26"><a xlink:href="ea_8h.html#ae3824341a2f5482cb6ac70b3839ded51" target="_top" xlink:title="Executes the evolutionary algorithm (EA). ">
<polygon fill="none" stroke="#000000" points="382,-133.5 382,-152.5 411,-152.5 411,-133.5 382,-133.5"/>
<text text-anchor="middle" x="396.5" y="-140.5" font-family="Helvetica,sans-Serif" font-size="10.00" fill="#000000">ea</text>
</a>
</g>
</g>
<!-- Node84&#45;&gt;Node85 -->
<g id="edge35" class="edge">
<title>Node84&#45;&gt;Node85</title>
<path fill="none" stroke="#191970" d="M343.2841,-152.1227C356.6766,-149.8269 371.3121,-147.3179 381.8391,-145.5133"/>
<polygon fill="#191970" stroke="#191970" points="342.6384,-148.6823 333.3736,-153.8217 343.8213,-155.5816 342.6384,-148.6823"/>
</g>
<!-- Node85&#45;&gt;Node66 -->
<g id="edge36" class="edge">
<title>Node85&#45;&gt;Node66</title>
<path fill="none" stroke="#191970" d="M420.9096,-139.0862C436.46,-136.5929 456.9762,-133.3034 474.8813,-130.4325"/>
<polygon fill="#191970" stroke="#191970" points="420.3502,-135.6311 411.0304,-140.6702 421.4584,-142.5428 420.3502,-135.6311"/>
</g>
<!-- Node85&#45;&gt;Node70 -->
<g id="edge41" class="edge">
<title>Node85&#45;&gt;Node70</title>
<path fill="none" stroke="#191970" d="M421.0956,-146.9436C436.1736,-149.3612 455.8686,-152.519 473.3255,-155.318"/>
<polygon fill="#191970" stroke="#191970" points="421.4584,-143.4571 411.0304,-145.3298 420.3502,-150.3689 421.4584,-143.4571"/>
</g>
<!-- Node86 -->
<g id="node27" class="node">
<title>Node86</title>
<g id="a_node27"><a xlink:href="xcs__single__step_8h.html#aff4aec035e4573993a7906569f2028f5" target="_top" xlink:title="Creates the action set, updates the classifiers and runs the EA. ">
<polygon fill="none" stroke="#000000" points="466,-76.5 466,-95.5 564,-95.5 564,-76.5 466,-76.5"/>
<text text-anchor="middle" x="515" y="-83.5" font-family="Helvetica,sans-Serif" font-size="10.00" fill="#000000">xcs_single_update</text>
</a>
</g>
</g>
<!-- Node85&#45;&gt;Node86 -->
<g id="edge37" class="edge">
<title>Node85&#45;&gt;Node86</title>
<path fill="none" stroke="#191970" d="M419.4087,-127.7213C431.2142,-120.2574 446.0322,-111.5066 460,-105 467.5091,-101.502 475.8507,-98.2955 483.7211,-95.5527"/>
<polygon fill="#191970" stroke="#191970" points="417.167,-125.0023 410.6605,-133.3639 420.9612,-130.8848 417.167,-125.0023"/>
</g>
<!-- Node86&#45;&gt;Node68 -->
<g id="edge40" class="edge">
<title>Node86&#45;&gt;Node68</title>
<path fill="none" stroke="#191970" d="M574.236,-86C588.2013,-86 602.8101,-86 615.8446,-86"/>
<polygon fill="#191970" stroke="#191970" points="574.2125,-82.5001 564.2125,-86 574.2125,-89.5001 574.2125,-82.5001"/>
</g>
<!-- Node87 -->
<g id="node28" class="node">
<title>Node87</title>
<g id="a_node28"><a xlink:href="structXCS.html#aedc01ad6f00a54b260a7605929a1d4c9" target="_top" xlink:title="XCS::single_update">
<polygon fill="none" stroke="#000000" points="606,-.5 606,-19.5 710,-19.5 710,-.5 606,-.5"/>
<text text-anchor="middle" x="658" y="-7.5" font-family="Helvetica,sans-Serif" font-size="10.00" fill="#000000">XCS::single_update</text>
</a>
</g>
</g>
<!-- Node86&#45;&gt;Node87 -->
<g id="edge38" class="edge">
<title>Node86&#45;&gt;Node87</title>
<path fill="none" stroke="#191970" d="M539.6466,-71.1435C557.7747,-60.407 583.1349,-45.7814 606,-34 615.8109,-28.9449 626.8901,-23.7614 636.2932,-19.5113"/>
<polygon fill="#191970" stroke="#191970" points="537.6771,-68.2427 530.8776,-76.3678 541.2599,-74.2564 537.6771,-68.2427"/>
</g>
<!-- Node87&#45;&gt;Node65 -->
<g id="edge39" class="edge">
<title>Node87&#45;&gt;Node65</title>
<path fill="none" stroke="#191970" d="M720.3984,-8.6743C759.7105,-9.6186 810.9815,-14.1633 854,-29 928.2455,-54.6067 948.779,-67.1829 1003,-124 1058.6596,-182.3246 1096.8842,-274.3494 1108.3797,-304.2599"/>
<polygon fill="#191970" stroke="#191970" points="720.2176,-5.1709 710.1603,-8.5027 720.1002,-12.1699 720.2176,-5.1709"/>
</g>
<!-- Node88&#45;&gt;Node84 -->
<g id="edge43" class="edge">
<title>Node88&#45;&gt;Node84</title>
<path fill="none" stroke="#191970" d="M246.8816,-182.5886C259.3892,-177.6376 273.3009,-172.1309 284.7829,-167.5859"/>
<polygon fill="#191970" stroke="#191970" points="245.2347,-179.4761 237.2249,-186.411 247.8111,-185.9848 245.2347,-179.4761"/>
</g>
</g>
</svg>
