<?xml version="1.0" encoding="UTF-8" standalone="no"?>
<!DOCTYPE svg PUBLIC "-//W3C//DTD SVG 1.1//EN"
 "http://www.w3.org/Graphics/SVG/1.1/DTD/svg11.dtd">
<!-- Generated by graphviz version 2.40.1 (20161225.0304)
 -->
<!-- Title: config_defaults Pages: 1 -->
<svg width="402pt" height="66pt"
 viewBox="0.00 0.00 402.00 66.00" xmlns="http://www.w3.org/2000/svg" xmlns:xlink="http://www.w3.org/1999/xlink">
<g id="graph0" class="graph" transform="scale(1 1) rotate(0) translate(4 62)">
<title>config_defaults</title>
<!-- Node9 -->
<g id="node1" class="node">
<title>Node9</title>
<polygon fill="#bfbfbf" stroke="#000000" points="0,-19.5 0,-38.5 83,-38.5 83,-19.5 0,-19.5"/>
<text text-anchor="middle" x="41.5" y="-26.5" font-family="Helvetica,sans-Serif" font-size="10.00" fill="#000000">config_defaults</text>
</g>
<!-- Node10 -->
<g id="node2" class="node">
<title>Node10</title>
<g id="a_node2"><a xlink:href="config_8h.html#a37df9fe8af1e1583876040747eeee030" target="_top" xlink:title="Initialises global constants and reads the specified configuration file. ">
<polygon fill="none" stroke="#000000" points="119,-19.5 119,-38.5 180,-38.5 180,-19.5 119,-19.5"/>
<text text-anchor="middle" x="149.5" y="-26.5" font-family="Helvetica,sans-Serif" font-size="10.00" fill="#000000">config_init</text>
</a>
</g>
</g>
<!-- Node9&#45;&gt;Node10 -->
<g id="edge1" class="edge">
<title>Node9&#45;&gt;Node10</title>
<path fill="none" stroke="#191970" d="M93.4152,-29C102.1449,-29 110.9473,-29 118.908,-29"/>
<polygon fill="#191970" stroke="#191970" points="93.2557,-25.5001 83.2556,-29 93.2556,-32.5001 93.2557,-25.5001"/>
</g>
<!-- Node11 -->
<g id="node3" class="node">
<title>Node11</title>
<g id="a_node3"><a xlink:href="main_8c.html#a3c04138a5bfe5d72780bb7e82a18e627" target="_top" xlink:title="main">
<polygon fill="none" stroke="#000000" points="235.5,-38.5 235.5,-57.5 273.5,-57.5 273.5,-38.5 235.5,-38.5"/>
<text text-anchor="middle" x="254.5" y="-45.5" font-family="Helvetica,sans-Serif" font-size="10.00" fill="#000000">main</text>
</a>
</g>
</g>
<!-- Node10&#45;&gt;Node11 -->
<g id="edge2" class="edge">
<title>Node10&#45;&gt;Node11</title>
<path fill="none" stroke="#191970" d="M190.0796,-36.343C205.6004,-39.1515 222.5888,-42.2256 235.2213,-44.5115"/>
<polygon fill="#191970" stroke="#191970" points="190.616,-32.8833 180.1526,-34.5467 189.3696,-39.7714 190.616,-32.8833"/>
</g>
<!-- Node12 -->
<g id="node4" class="node">
<title>Node12</title>
<g id="a_node4"><a xlink:href="classXCS.html#ad372bae45743be0fbf7d95b67e13b390" target="_top" xlink:title="Initialises python XCS structure. ">
<polygon fill="none" stroke="#000000" points="216,-.5 216,-19.5 293,-19.5 293,-.5 216,-.5"/>
<text text-anchor="middle" x="254.5" y="-7.5" font-family="Helvetica,sans-Serif" font-size="10.00" fill="#000000">XCS::xcs_init</text>
</a>
</g>
</g>
<!-- Node10&#45;&gt;Node12 -->
<g id="edge3" class="edge">
<title>Node10&#45;&gt;Node12</title>
<path fill="none" stroke="#191970" d="M190.149,-21.6445C198.5699,-20.1207 207.42,-18.5192 215.7701,-17.0083"/>
<polygon fill="#191970" stroke="#191970" points="189.3696,-18.2286 180.1526,-23.4533 190.616,-25.1167 189.3696,-18.2286"/>
</g>
<!-- Node13 -->
<g id="node5" class="node">
<title>Node13</title>
<g id="a_node5"><a xlink:href="classXCS.html#a621482fa1ba66543d343e208666aee90" target="_top" xlink:title="Constructor for single&#45;step reinforcement learning. ">
<polygon fill="none" stroke="#000000" points="329,-.5 329,-19.5 394,-19.5 394,-.5 329,-.5"/>
<text text-anchor="middle" x="361.5" y="-7.5" font-family="Helvetica,sans-Serif" font-size="10.00" fill="#000000">XCS::XCS</text>
</a>
</g>
</g>
<!-- Node12&#45;&gt;Node13 -->
<g id="edge4" class="edge">
<title>Node12&#45;&gt;Node13</title>
<path fill="none" stroke="#191970" d="M303.219,-10C311.9281,-10 320.8076,-10 328.9243,-10"/>
<polygon fill="#191970" stroke="#191970" points="303.1295,-6.5001 293.1295,-10 303.1294,-13.5001 303.1295,-6.5001"/>
</g>
</g>
</svg>
