<?xml version="1.0" encoding="UTF-8" standalone="no"?>
<!DOCTYPE svg PUBLIC "-//W3C//DTD SVG 1.1//EN"
 "http://www.w3.org/Graphics/SVG/1.1/DTD/svg11.dtd">
<!-- Generated by graphviz version 2.40.1 (20161225.0304)
 -->
<!-- Title: defaults_subsumption Pages: 1 -->
<svg width="550pt" height="66pt"
 viewBox="0.00 0.00 550.00 66.00" xmlns="http://www.w3.org/2000/svg" xmlns:xlink="http://www.w3.org/1999/xlink">
<g id="graph0" class="graph" transform="scale(1 1) rotate(0) translate(4 62)">
<title>defaults_subsumption</title>
<!-- Node192 -->
<g id="node1" class="node">
<title>Node192</title>
<polygon fill="#bfbfbf" stroke="#000000" points="0,-19.5 0,-38.5 112,-38.5 112,-19.5 0,-19.5"/>
<text text-anchor="middle" x="56" y="-26.5" font-family="Helvetica,sans-Serif" font-size="10.00" fill="#000000">defaults_subsumption</text>
</g>
<!-- Node193 -->
<g id="node2" class="node">
<title>Node193</title>
<g id="a_node2"><a xlink:href="config_8c.html#ac931b458cf465c2119a3631b0f9bc9ed" target="_top" xlink:title="Initialises default XCSF parameters. ">
<polygon fill="none" stroke="#000000" points="148,-19.5 148,-38.5 231,-38.5 231,-19.5 148,-19.5"/>
<text text-anchor="middle" x="189.5" y="-26.5" font-family="Helvetica,sans-Serif" font-size="10.00" fill="#000000">config_defaults</text>
</a>
</g>
</g>
<!-- Node192&#45;&gt;Node193 -->
<g id="edge1" class="edge">
<title>Node192&#45;&gt;Node193</title>
<path fill="none" stroke="#191970" d="M122.4045,-29C131.1057,-29 139.8148,-29 147.9402,-29"/>
<polygon fill="#191970" stroke="#191970" points="122.2291,-25.5001 112.2291,-29 122.2291,-32.5001 122.2291,-25.5001"/>
</g>
<!-- Node194 -->
<g id="node3" class="node">
<title>Node194</title>
<g id="a_node3"><a xlink:href="config_8h.html#a37df9fe8af1e1583876040747eeee030" target="_top" xlink:title="Initialises global constants and reads the specified configuration file. ">
<polygon fill="none" stroke="#000000" points="267,-19.5 267,-38.5 328,-38.5 328,-19.5 267,-19.5"/>
<text text-anchor="middle" x="297.5" y="-26.5" font-family="Helvetica,sans-Serif" font-size="10.00" fill="#000000">config_init</text>
</a>
</g>
</g>
<!-- Node193&#45;&gt;Node194 -->
<g id="edge2" class="edge">
<title>Node193&#45;&gt;Node194</title>
<path fill="none" stroke="#191970" d="M241.4152,-29C250.1449,-29 258.9473,-29 266.908,-29"/>
<polygon fill="#191970" stroke="#191970" points="241.2557,-25.5001 231.2556,-29 241.2556,-32.5001 241.2557,-25.5001"/>
</g>
<!-- Node195 -->
<g id="node4" class="node">
<title>Node195</title>
<g id="a_node4"><a xlink:href="main_8c.html#a3c04138a5bfe5d72780bb7e82a18e627" target="_top" xlink:title="main">
<polygon fill="none" stroke="#000000" points="383.5,-38.5 383.5,-57.5 421.5,-57.5 421.5,-38.5 383.5,-38.5"/>
<text text-anchor="middle" x="402.5" y="-45.5" font-family="Helvetica,sans-Serif" font-size="10.00" fill="#000000">main</text>
</a>
</g>
</g>
<!-- Node194&#45;&gt;Node195 -->
<g id="edge3" class="edge">
<title>Node194&#45;&gt;Node195</title>
<path fill="none" stroke="#191970" d="M338.0796,-36.343C353.6004,-39.1515 370.5888,-42.2256 383.2213,-44.5115"/>
<polygon fill="#191970" stroke="#191970" points="338.616,-32.8833 328.1526,-34.5467 337.3696,-39.7714 338.616,-32.8833"/>
</g>
<!-- Node196 -->
<g id="node5" class="node">
<title>Node196</title>
<g id="a_node5"><a xlink:href="classXCS.html#ad372bae45743be0fbf7d95b67e13b390" target="_top" xlink:title="Initialises python XCS structure. ">
<polygon fill="none" stroke="#000000" points="364,-.5 364,-19.5 441,-19.5 441,-.5 364,-.5"/>
<text text-anchor="middle" x="402.5" y="-7.5" font-family="Helvetica,sans-Serif" font-size="10.00" fill="#000000">XCS::xcs_init</text>
</a>
</g>
</g>
<!-- Node194&#45;&gt;Node196 -->
<g id="edge4" class="edge">
<title>Node194&#45;&gt;Node196</title>
<path fill="none" stroke="#191970" d="M338.149,-21.6445C346.5699,-20.1207 355.42,-18.5192 363.7701,-17.0083"/>
<polygon fill="#191970" stroke="#191970" points="337.3696,-18.2286 328.1526,-23.4533 338.616,-25.1167 337.3696,-18.2286"/>
</g>
<!-- Node197 -->
<g id="node6" class="node">
<title>Node197</title>
<g id="a_node6"><a xlink:href="classXCS.html#a621482fa1ba66543d343e208666aee90" target="_top" xlink:title="Constructor for single&#45;step reinforcement learning. ">
<polygon fill="none" stroke="#000000" points="477,-.5 477,-19.5 542,-19.5 542,-.5 477,-.5"/>
<text text-anchor="middle" x="509.5" y="-7.5" font-family="Helvetica,sans-Serif" font-size="10.00" fill="#000000">XCS::XCS</text>
</a>
</g>
</g>
<!-- Node196&#45;&gt;Node197 -->
<g id="edge5" class="edge">
<title>Node196&#45;&gt;Node197</title>
<path fill="none" stroke="#191970" d="M451.219,-10C459.9281,-10 468.8076,-10 476.9243,-10"/>
<polygon fill="#191970" stroke="#191970" points="451.1295,-6.5001 441.1295,-10 451.1294,-13.5001 451.1295,-6.5001"/>
</g>
</g>
</svg>
