<?xml version="1.0" encoding="UTF-8" standalone="no"?>
<!DOCTYPE svg PUBLIC "-//W3C//DTD SVG 1.1//EN"
 "http://www.w3.org/Graphics/SVG/1.1/DTD/svg11.dtd">
<!-- Generated by graphviz version 2.40.1 (20161225.0304)
 -->
<!-- Title: config_print Pages: 1 -->
<svg width="245pt" height="294pt"
 viewBox="0.00 0.00 245.00 294.00" xmlns="http://www.w3.org/2000/svg" xmlns:xlink="http://www.w3.org/1999/xlink">
<g id="graph0" class="graph" transform="scale(1 1) rotate(0) translate(4 290)">
<title>config_print</title>
<!-- Node90 -->
<g id="node1" class="node">
<title>Node90</title>
<polygon fill="#bfbfbf" stroke="#000000" points="0,-133.5 0,-152.5 67,-152.5 67,-133.5 0,-133.5"/>
<text text-anchor="middle" x="33.5" y="-140.5" font-family="Helvetica,sans-Serif" font-size="10.00" fill="#000000">config_print</text>
</g>
<!-- Node91 -->
<g id="node2" class="node">
<title>Node91</title>
<g id="a_node2"><a xlink:href="config_8c.html#adef047bc0d61457d2be139dadccd7cdf" target="_top" xlink:title="Prints XCSF action parameters. ">
<polygon fill="none" stroke="#000000" points="111.5,-266.5 111.5,-285.5 228.5,-285.5 228.5,-266.5 111.5,-266.5"/>
<text text-anchor="middle" x="170" y="-273.5" font-family="Helvetica,sans-Serif" font-size="10.00" fill="#000000">print_params_cl_action</text>
</a>
</g>
</g>
<!-- Node90&#45;&gt;Node91 -->
<g id="edge1" class="edge">
<title>Node90&#45;&gt;Node91</title>
<path fill="none" stroke="#191970" d="M36.6087,-152.6214C44.2158,-174.6096 65.9044,-228.8103 103,-257 105.4713,-258.878 108.1207,-260.5704 110.8877,-262.0955"/>
<polygon fill="#191970" stroke="#191970" points="109.5133,-265.3171 120.0506,-266.4197 112.5008,-258.9866 109.5133,-265.3171"/>
</g>
<!-- Node92 -->
<g id="node3" class="node">
<title>Node92</title>
<g id="a_node3"><a xlink:href="config_8c.html#afa85c5c819bb669cd5407db8c1889a18" target="_top" xlink:title="Prints XCSF condtion parameters. ">
<polygon fill="none" stroke="#000000" points="105,-228.5 105,-247.5 235,-247.5 235,-228.5 105,-228.5"/>
<text text-anchor="middle" x="170" y="-235.5" font-family="Helvetica,sans-Serif" font-size="10.00" fill="#000000">print_params_cl_condition</text>
</a>
</g>
</g>
<!-- Node90&#45;&gt;Node92 -->
<g id="edge2" class="edge">
<title>Node90&#45;&gt;Node92</title>
<path fill="none" stroke="#191970" d="M39.7252,-152.7588C50.5805,-168.978 74.5517,-201.4333 103,-219 106.4318,-221.1191 110.1069,-223.0086 113.9037,-224.6923"/>
<polygon fill="#191970" stroke="#191970" points="112.9351,-228.072 123.5225,-228.4672 115.4924,-221.5558 112.9351,-228.072"/>
</g>
<!-- Node93 -->
<g id="node4" class="node">
<title>Node93</title>
<g id="a_node4"><a xlink:href="config_8c.html#a2989b358b42631756e1a6c40d267694b" target="_top" xlink:title="Prints XCSF general classifier parameters. ">
<polygon fill="none" stroke="#000000" points="109,-190.5 109,-209.5 231,-209.5 231,-190.5 109,-190.5"/>
<text text-anchor="middle" x="170" y="-197.5" font-family="Helvetica,sans-Serif" font-size="10.00" fill="#000000">print_params_cl_general</text>
</a>
</g>
</g>
<!-- Node90&#45;&gt;Node93 -->
<g id="edge3" class="edge">
<title>Node90&#45;&gt;Node93</title>
<path fill="none" stroke="#191970" d="M48.7416,-152.6353C62.505,-161.0158 83.5265,-173.0331 103,-181 108.8015,-183.3735 115.001,-185.5649 121.1994,-187.5506"/>
<polygon fill="#191970" stroke="#191970" points="120.2957,-190.934 130.8815,-190.4983 122.3345,-184.2374 120.2957,-190.934"/>
</g>
<!-- Node94 -->
<g id="node5" class="node">
<title>Node94</title>
<g id="a_node5"><a xlink:href="config_8c.html#a84744982ef46cab5aab523490b409597" target="_top" xlink:title="Prints XCSF prediction parameters. ">
<polygon fill="none" stroke="#000000" points="103.5,-152.5 103.5,-171.5 236.5,-171.5 236.5,-152.5 103.5,-152.5"/>
<text text-anchor="middle" x="170" y="-159.5" font-family="Helvetica,sans-Serif" font-size="10.00" fill="#000000">print_params_cl_prediction</text>
</a>
</g>
</g>
<!-- Node90&#45;&gt;Node94 -->
<g id="edge4" class="edge">
<title>Node90&#45;&gt;Node94</title>
<path fill="none" stroke="#191970" d="M67.2416,-147.6966C75.3005,-148.8184 84.2305,-150.0614 93.3639,-151.3327"/>
<polygon fill="#191970" stroke="#191970" points="92.9359,-154.8068 103.3229,-152.7189 93.901,-147.8736 92.9359,-154.8068"/>
</g>
<!-- Node95 -->
<g id="node6" class="node">
<title>Node95</title>
<g id="a_node6"><a xlink:href="config_8c.html#af7376970cfb5aa1a27ff4dc9c8db4b6d" target="_top" xlink:title="Prints XCSF evolutionary algorithm parameters. ">
<polygon fill="none" stroke="#000000" points="125.5,-114.5 125.5,-133.5 214.5,-133.5 214.5,-114.5 125.5,-114.5"/>
<text text-anchor="middle" x="170" y="-121.5" font-family="Helvetica,sans-Serif" font-size="10.00" fill="#000000">print_params_ea</text>
</a>
</g>
</g>
<!-- Node90&#45;&gt;Node95 -->
<g id="edge5" class="edge">
<title>Node90&#45;&gt;Node95</title>
<path fill="none" stroke="#191970" d="M67.2416,-138.3034C81.7557,-136.2831 99.0955,-133.8695 115.3603,-131.6055"/>
<polygon fill="#191970" stroke="#191970" points="115.8917,-135.0654 125.3137,-130.2201 114.9266,-128.1322 115.8917,-135.0654"/>
</g>
<!-- Node96 -->
<g id="node7" class="node">
<title>Node96</title>
<g id="a_node7"><a xlink:href="config_8c.html#aab7833431b350194434b06bca304d626" target="_top" xlink:title="Prints XCSF general parameters. ">
<polygon fill="none" stroke="#000000" points="115,-76.5 115,-95.5 225,-95.5 225,-76.5 115,-76.5"/>
<text text-anchor="middle" x="170" y="-83.5" font-family="Helvetica,sans-Serif" font-size="10.00" fill="#000000">print_params_general</text>
</a>
</g>
</g>
<!-- Node90&#45;&gt;Node96 -->
<g id="edge6" class="edge">
<title>Node90&#45;&gt;Node96</title>
<path fill="none" stroke="#191970" d="M48.7416,-133.3647C62.505,-124.9842 83.5265,-112.9669 103,-105 108.8015,-102.6265 115.001,-100.4351 121.1994,-98.4494"/>
<polygon fill="#191970" stroke="#191970" points="122.3345,-101.7626 130.8815,-95.5017 120.2957,-95.066 122.3345,-101.7626"/>
</g>
<!-- Node97 -->
<g id="node8" class="node">
<title>Node97</title>
<g id="a_node8"><a xlink:href="config_8c.html#a63b9e28a177744ddebf326dcec219f07" target="_top" xlink:title="Prints XCSF multistep parameters. ">
<polygon fill="none" stroke="#000000" points="111,-38.5 111,-57.5 229,-57.5 229,-38.5 111,-38.5"/>
<text text-anchor="middle" x="170" y="-45.5" font-family="Helvetica,sans-Serif" font-size="10.00" fill="#000000">print_params_multistep</text>
</a>
</g>
</g>
<!-- Node90&#45;&gt;Node97 -->
<g id="edge7" class="edge">
<title>Node90&#45;&gt;Node97</title>
<path fill="none" stroke="#191970" d="M39.7252,-133.2412C50.5805,-117.022 74.5517,-84.5667 103,-67 106.4318,-64.8809 110.1069,-62.9914 113.9037,-61.3077"/>
<polygon fill="#191970" stroke="#191970" points="115.4924,-64.4442 123.5225,-57.5328 112.9351,-57.928 115.4924,-64.4442"/>
</g>
<!-- Node98 -->
<g id="node9" class="node">
<title>Node98</title>
<g id="a_node9"><a xlink:href="config_8c.html#ae311246da4ad6fcabb3bf6706cd396e7" target="_top" xlink:title="Prints XCSF subsumption parameters. ">
<polygon fill="none" stroke="#000000" points="103,-.5 103,-19.5 237,-19.5 237,-.5 103,-.5"/>
<text text-anchor="middle" x="170" y="-7.5" font-family="Helvetica,sans-Serif" font-size="10.00" fill="#000000">print_params_subsumption</text>
</a>
</g>
</g>
<!-- Node90&#45;&gt;Node98 -->
<g id="edge8" class="edge">
<title>Node90&#45;&gt;Node98</title>
<path fill="none" stroke="#191970" d="M36.6087,-133.3786C44.2158,-111.3904 65.9044,-57.1897 103,-29 105.4713,-27.122 108.1207,-25.4296 110.8877,-23.9045"/>
<polygon fill="#191970" stroke="#191970" points="112.5008,-27.0134 120.0506,-19.5803 109.5133,-20.6829 112.5008,-27.0134"/>
</g>
</g>
</svg>
