<?xml version="1.0" encoding="UTF-8" standalone="no"?>
<!DOCTYPE svg PUBLIC "-//W3C//DTD SVG 1.1//EN"
 "http://www.w3.org/Graphics/SVG/1.1/DTD/svg11.dtd">
<!-- Generated by graphviz version 2.40.1 (20161225.0304)
 -->
<!-- Title: params_ea Pages: 1 -->
<svg width="835pt" height="66pt"
 viewBox="0.00 0.00 835.00 66.00" xmlns="http://www.w3.org/2000/svg" xmlns:xlink="http://www.w3.org/1999/xlink">
<g id="graph0" class="graph" transform="scale(1 1) rotate(0) translate(4 62)">
<title>params_ea</title>
<!-- Node263 -->
<g id="node1" class="node">
<title>Node263</title>
<polygon fill="#bfbfbf" stroke="#000000" points="0,-19.5 0,-38.5 65,-38.5 65,-19.5 0,-19.5"/>
<text text-anchor="middle" x="32.5" y="-26.5" font-family="Helvetica,sans-Serif" font-size="10.00" fill="#000000">params_ea</text>
</g>
<!-- Node264 -->
<g id="node2" class="node">
<title>Node264</title>
<g id="a_node2"><a xlink:href="config_8c.html#afff38fecf537b6cbe65c3d26201a71e9" target="_top" xlink:title="Sets specified parameter. ">
<polygon fill="none" stroke="#000000" points="101,-19.5 101,-38.5 166,-38.5 166,-19.5 101,-19.5"/>
<text text-anchor="middle" x="133.5" y="-26.5" font-family="Helvetica,sans-Serif" font-size="10.00" fill="#000000">param_add</text>
</a>
</g>
</g>
<!-- Node263&#45;&gt;Node264 -->
<g id="edge1" class="edge">
<title>Node263&#45;&gt;Node264</title>
<path fill="none" stroke="#191970" d="M75.2007,-29C83.732,-29 92.5676,-29 100.7017,-29"/>
<polygon fill="#191970" stroke="#191970" points="75.013,-25.5001 65.013,-29 75.013,-32.5001 75.013,-25.5001"/>
</g>
<!-- Node265 -->
<g id="node3" class="node">
<title>Node265</title>
<g id="a_node3"><a xlink:href="config_8c.html#ae0ef249c19382a8125003e1c53221767" target="_top" xlink:title="Adds a parameter to the list. ">
<polygon fill="none" stroke="#000000" points="202,-19.5 202,-38.5 294,-38.5 294,-19.5 202,-19.5"/>
<text text-anchor="middle" x="248" y="-26.5" font-family="Helvetica,sans-Serif" font-size="10.00" fill="#000000">config_newnvpair</text>
</a>
</g>
</g>
<!-- Node264&#45;&gt;Node265 -->
<g id="edge2" class="edge">
<title>Node264&#45;&gt;Node265</title>
<path fill="none" stroke="#191970" d="M176.2466,-29C184.5622,-29 193.3149,-29 201.7379,-29"/>
<polygon fill="#191970" stroke="#191970" points="176.0049,-25.5001 166.0048,-29 176.0048,-32.5001 176.0049,-25.5001"/>
</g>
<!-- Node266 -->
<g id="node4" class="node">
<title>Node266</title>
<g id="a_node4"><a xlink:href="config_8c.html#a7a16c67bd1965c9f62f75fc88e2abe98" target="_top" xlink:title="Parses a line of the config file and adds to the list. ">
<polygon fill="none" stroke="#000000" points="330,-19.5 330,-38.5 413,-38.5 413,-19.5 330,-19.5"/>
<text text-anchor="middle" x="371.5" y="-26.5" font-family="Helvetica,sans-Serif" font-size="10.00" fill="#000000">config_process</text>
</a>
</g>
</g>
<!-- Node265&#45;&gt;Node266 -->
<g id="edge3" class="edge">
<title>Node265&#45;&gt;Node266</title>
<path fill="none" stroke="#191970" d="M304.5805,-29C313.0662,-29 321.6831,-29 329.7841,-29"/>
<polygon fill="#191970" stroke="#191970" points="304.3382,-25.5001 294.3382,-29 304.3382,-32.5001 304.3382,-25.5001"/>
</g>
<!-- Node267 -->
<g id="node5" class="node">
<title>Node267</title>
<g id="a_node5"><a xlink:href="config_8c.html#a9c6e238be77841517a31c44c39c84dc7" target="_top" xlink:title="Reads the specified configuration file. ">
<polygon fill="none" stroke="#000000" points="449,-19.5 449,-38.5 516,-38.5 516,-19.5 449,-19.5"/>
<text text-anchor="middle" x="482.5" y="-26.5" font-family="Helvetica,sans-Serif" font-size="10.00" fill="#000000">config_read</text>
</a>
</g>
</g>
<!-- Node266&#45;&gt;Node267 -->
<g id="edge4" class="edge">
<title>Node266&#45;&gt;Node267</title>
<path fill="none" stroke="#191970" d="M423.2742,-29C431.9925,-29 440.8339,-29 448.9328,-29"/>
<polygon fill="#191970" stroke="#191970" points="423.1481,-25.5001 413.1481,-29 423.1481,-32.5001 423.1481,-25.5001"/>
</g>
<!-- Node268 -->
<g id="node6" class="node">
<title>Node268</title>
<g id="a_node6"><a xlink:href="config_8h.html#a37df9fe8af1e1583876040747eeee030" target="_top" xlink:title="Initialises global constants and reads the specified configuration file. ">
<polygon fill="none" stroke="#000000" points="552,-19.5 552,-38.5 613,-38.5 613,-19.5 552,-19.5"/>
<text text-anchor="middle" x="582.5" y="-26.5" font-family="Helvetica,sans-Serif" font-size="10.00" fill="#000000">config_init</text>
</a>
</g>
</g>
<!-- Node267&#45;&gt;Node268 -->
<g id="edge5" class="edge">
<title>Node267&#45;&gt;Node268</title>
<path fill="none" stroke="#191970" d="M526.0924,-29C534.7817,-29 543.7335,-29 551.8746,-29"/>
<polygon fill="#191970" stroke="#191970" points="526.0768,-25.5001 516.0767,-29 526.0767,-32.5001 526.0768,-25.5001"/>
</g>
<!-- Node269 -->
<g id="node7" class="node">
<title>Node269</title>
<g id="a_node7"><a xlink:href="main_8c.html#a3c04138a5bfe5d72780bb7e82a18e627" target="_top" xlink:title="main">
<polygon fill="none" stroke="#000000" points="668.5,-38.5 668.5,-57.5 706.5,-57.5 706.5,-38.5 668.5,-38.5"/>
<text text-anchor="middle" x="687.5" y="-45.5" font-family="Helvetica,sans-Serif" font-size="10.00" fill="#000000">main</text>
</a>
</g>
</g>
<!-- Node268&#45;&gt;Node269 -->
<g id="edge6" class="edge">
<title>Node268&#45;&gt;Node269</title>
<path fill="none" stroke="#191970" d="M623.0796,-36.343C638.6004,-39.1515 655.5888,-42.2256 668.2213,-44.5115"/>
<polygon fill="#191970" stroke="#191970" points="623.616,-32.8833 613.1526,-34.5467 622.3696,-39.7714 623.616,-32.8833"/>
</g>
<!-- Node270 -->
<g id="node8" class="node">
<title>Node270</title>
<g id="a_node8"><a xlink:href="classXCS.html#ad372bae45743be0fbf7d95b67e13b390" target="_top" xlink:title="Initialises python XCS structure. ">
<polygon fill="none" stroke="#000000" points="649,-.5 649,-19.5 726,-19.5 726,-.5 649,-.5"/>
<text text-anchor="middle" x="687.5" y="-7.5" font-family="Helvetica,sans-Serif" font-size="10.00" fill="#000000">XCS::xcs_init</text>
</a>
</g>
</g>
<!-- Node268&#45;&gt;Node270 -->
<g id="edge7" class="edge">
<title>Node268&#45;&gt;Node270</title>
<path fill="none" stroke="#191970" d="M623.149,-21.6445C631.5699,-20.1207 640.42,-18.5192 648.7701,-17.0083"/>
<polygon fill="#191970" stroke="#191970" points="622.3696,-18.2286 613.1526,-23.4533 623.616,-25.1167 622.3696,-18.2286"/>
</g>
<!-- Node271 -->
<g id="node9" class="node">
<title>Node271</title>
<g id="a_node9"><a xlink:href="classXCS.html#a621482fa1ba66543d343e208666aee90" target="_top" xlink:title="Constructor for single&#45;step reinforcement learning. ">
<polygon fill="none" stroke="#000000" points="762,-.5 762,-19.5 827,-19.5 827,-.5 762,-.5"/>
<text text-anchor="middle" x="794.5" y="-7.5" font-family="Helvetica,sans-Serif" font-size="10.00" fill="#000000">XCS::XCS</text>
</a>
</g>
</g>
<!-- Node270&#45;&gt;Node271 -->
<g id="edge8" class="edge">
<title>Node270&#45;&gt;Node271</title>
<path fill="none" stroke="#191970" d="M736.219,-10C744.9281,-10 753.8076,-10 761.9243,-10"/>
<polygon fill="#191970" stroke="#191970" points="736.1295,-6.5001 726.1295,-10 736.1294,-13.5001 736.1295,-6.5001"/>
</g>
</g>
</svg>
