<?xml version="1.0" encoding="UTF-8" standalone="no"?>
<!DOCTYPE svg PUBLIC "-//W3C//DTD SVG 1.1//EN"
 "http://www.w3.org/Graphics/SVG/1.1/DTD/svg11.dtd">
<!-- Generated by graphviz version 2.40.1 (20161225.0304)
 -->
<!-- Title: config_newnvpair Pages: 1 -->
<svg width="520pt" height="66pt"
 viewBox="0.00 0.00 520.00 66.00" xmlns="http://www.w3.org/2000/svg" xmlns:xlink="http://www.w3.org/1999/xlink">
<g id="graph0" class="graph" transform="scale(1 1) rotate(0) translate(4 62)">
<title>config_newnvpair</title>
<!-- Node49 -->
<g id="node1" class="node">
<title>Node49</title>
<polygon fill="#bfbfbf" stroke="#000000" points="0,-19.5 0,-38.5 92,-38.5 92,-19.5 0,-19.5"/>
<text text-anchor="middle" x="46" y="-26.5" font-family="Helvetica,sans-Serif" font-size="10.00" fill="#000000">config_newnvpair</text>
</g>
<!-- Node50 -->
<g id="node2" class="node">
<title>Node50</title>
<g id="a_node2"><a xlink:href="config_8c.html#a4ed060d9643354e9d5ceccdcffd0f2b8" target="_top" xlink:title="Parses a line of the config file and adds to the list. ">
<polygon fill="none" stroke="#000000" points="128,-19.5 128,-38.5 211,-38.5 211,-19.5 128,-19.5"/>
<text text-anchor="middle" x="169.5" y="-26.5" font-family="Helvetica,sans-Serif" font-size="10.00" fill="#000000">config_process</text>
</a>
</g>
</g>
<!-- Node49&#45;&gt;Node50 -->
<g id="edge1" class="edge">
<title>Node49&#45;&gt;Node50</title>
<path fill="none" stroke="#191970" d="M102.5805,-29C111.0662,-29 119.6831,-29 127.7841,-29"/>
<polygon fill="#191970" stroke="#191970" points="102.3382,-25.5001 92.3382,-29 102.3382,-32.5001 102.3382,-25.5001"/>
</g>
<!-- Node51 -->
<g id="node3" class="node">
<title>Node51</title>
<g id="a_node3"><a xlink:href="config_8c.html#a9948d2908366d72fbb1c6feb609b3d4f" target="_top" xlink:title="Reads the specified configuration file. ">
<polygon fill="none" stroke="#000000" points="247,-19.5 247,-38.5 314,-38.5 314,-19.5 247,-19.5"/>
<text text-anchor="middle" x="280.5" y="-26.5" font-family="Helvetica,sans-Serif" font-size="10.00" fill="#000000">config_read</text>
</a>
</g>
</g>
<!-- Node50&#45;&gt;Node51 -->
<g id="edge2" class="edge">
<title>Node50&#45;&gt;Node51</title>
<path fill="none" stroke="#191970" d="M221.2742,-29C229.9925,-29 238.8339,-29 246.9328,-29"/>
<polygon fill="#191970" stroke="#191970" points="221.1481,-25.5001 211.1481,-29 221.1481,-32.5001 221.1481,-25.5001"/>
</g>
<!-- Node52 -->
<g id="node4" class="node">
<title>Node52</title>
<g id="a_node4"><a xlink:href="config_8h.html#a37df9fe8af1e1583876040747eeee030" target="_top" xlink:title="Initialises global constants and reads the specified configuration file. ">
<polygon fill="none" stroke="#000000" points="350,-19.5 350,-38.5 411,-38.5 411,-19.5 350,-19.5"/>
<text text-anchor="middle" x="380.5" y="-26.5" font-family="Helvetica,sans-Serif" font-size="10.00" fill="#000000">config_init</text>
</a>
</g>
</g>
<!-- Node51&#45;&gt;Node52 -->
<g id="edge3" class="edge">
<title>Node51&#45;&gt;Node52</title>
<path fill="none" stroke="#191970" d="M324.0924,-29C332.7817,-29 341.7335,-29 349.8746,-29"/>
<polygon fill="#191970" stroke="#191970" points="324.0768,-25.5001 314.0767,-29 324.0767,-32.5001 324.0768,-25.5001"/>
</g>
<!-- Node53 -->
<g id="node5" class="node">
<title>Node53</title>
<g id="a_node5"><a xlink:href="main_8c.html#a3c04138a5bfe5d72780bb7e82a18e627" target="_top" xlink:title="main">
<polygon fill="none" stroke="#000000" points="460.5,-38.5 460.5,-57.5 498.5,-57.5 498.5,-38.5 460.5,-38.5"/>
<text text-anchor="middle" x="479.5" y="-45.5" font-family="Helvetica,sans-Serif" font-size="10.00" fill="#000000">main</text>
</a>
</g>
</g>
<!-- Node52&#45;&gt;Node53 -->
<g id="edge4" class="edge">
<title>Node52&#45;&gt;Node53</title>
<path fill="none" stroke="#191970" d="M421.165,-36.8044C434.7708,-39.4156 449.2969,-42.2034 460.4503,-44.344"/>
<polygon fill="#191970" stroke="#191970" points="421.4916,-33.3033 411.0111,-34.8557 420.1721,-40.1778 421.4916,-33.3033"/>
</g>
<!-- Node54 -->
<g id="node6" class="node">
<title>Node54</title>
<g id="a_node6"><a xlink:href="structXCS.html#a0dd359a4dfc0a6439a5c6554768c8b9f" target="_top" xlink:title="Constructor for single&#45;step reinforcement learning. ">
<polygon fill="none" stroke="#000000" points="447,-.5 447,-19.5 512,-19.5 512,-.5 447,-.5"/>
<text text-anchor="middle" x="479.5" y="-7.5" font-family="Helvetica,sans-Serif" font-size="10.00" fill="#000000">XCS::XCS</text>
</a>
</g>
</g>
<!-- Node52&#45;&gt;Node54 -->
<g id="edge5" class="edge">
<title>Node52&#45;&gt;Node54</title>
<path fill="none" stroke="#191970" d="M420.9058,-21.2453C429.5405,-19.5882 438.5574,-17.8577 446.8565,-16.2649"/>
<polygon fill="#191970" stroke="#191970" points="420.1721,-17.8222 411.0111,-23.1443 421.4916,-24.6967 420.1721,-17.8222"/>
</g>
</g>
</svg>
