<?xml version="1.0" encoding="UTF-8" standalone="no"?>
<!DOCTYPE svg PUBLIC "-//W3C//DTD SVG 1.1//EN"
 "http://www.w3.org/Graphics/SVG/1.1/DTD/svg11.dtd">
<!-- Generated by graphviz version 2.40.1 (20161225.0304)
 -->
<!-- Title: config_get_ints Pages: 1 -->
<svg width="998pt" height="66pt"
 viewBox="0.00 0.00 998.00 66.00" xmlns="http://www.w3.org/2000/svg" xmlns:xlink="http://www.w3.org/1999/xlink">
<g id="graph0" class="graph" transform="scale(1 1) rotate(0) translate(4 62)">
<title>config_get_ints</title>
<!-- Node19 -->
<g id="node1" class="node">
<title>Node19</title>
<polygon fill="#bfbfbf" stroke="#000000" points="0,-19.5 0,-38.5 83,-38.5 83,-19.5 0,-19.5"/>
<text text-anchor="middle" x="41.5" y="-26.5" font-family="Helvetica,sans-Serif" font-size="10.00" fill="#000000">config_get_ints</text>
</g>
<!-- Node20 -->
<g id="node2" class="node">
<title>Node20</title>
<g id="a_node2"><a xlink:href="config_8c.html#ab31e8dc9f7f2da0ab2b3a96ff16c13c3" target="_top" xlink:title="Sets classifier condition parameters. ">
<polygon fill="none" stroke="#000000" points="120.5,-38.5 120.5,-57.5 226.5,-57.5 226.5,-38.5 120.5,-38.5"/>
<text text-anchor="middle" x="173.5" y="-45.5" font-family="Helvetica,sans-Serif" font-size="10.00" fill="#000000">params_cl_condition</text>
</a>
</g>
</g>
<!-- Node19&#45;&gt;Node20 -->
<g id="edge1" class="edge">
<title>Node19&#45;&gt;Node20</title>
<path fill="none" stroke="#191970" d="M93.4508,-36.4778C102.2999,-37.7515 111.5023,-39.0761 120.3811,-40.3541"/>
<polygon fill="#191970" stroke="#191970" points="93.6623,-32.9722 83.2656,-35.0117 92.6649,-39.9008 93.6623,-32.9722"/>
</g>
<!-- Node29 -->
<g id="node11" class="node">
<title>Node29</title>
<g id="a_node11"><a xlink:href="config_8c.html#ab49abbc5d1d5571fe940b94baad6f72b" target="_top" xlink:title="Sets classifier prediction parameters. ">
<polygon fill="none" stroke="#000000" points="119,-.5 119,-19.5 228,-19.5 228,-.5 119,-.5"/>
<text text-anchor="middle" x="173.5" y="-7.5" font-family="Helvetica,sans-Serif" font-size="10.00" fill="#000000">params_cl_prediction</text>
</a>
</g>
</g>
<!-- Node19&#45;&gt;Node29 -->
<g id="edge10" class="edge">
<title>Node19&#45;&gt;Node29</title>
<path fill="none" stroke="#191970" d="M93.3288,-21.5398C101.7419,-20.3288 110.4775,-19.0714 118.9531,-17.8514"/>
<polygon fill="#191970" stroke="#191970" points="92.6649,-18.0992 83.2656,-22.9883 93.6623,-25.0278 92.6649,-18.0992"/>
</g>
<!-- Node21 -->
<g id="node3" class="node">
<title>Node21</title>
<g id="a_node3"><a xlink:href="config_8c.html#afff38fecf537b6cbe65c3d26201a71e9" target="_top" xlink:title="Sets specified parameter. ">
<polygon fill="none" stroke="#000000" points="264,-19.5 264,-38.5 329,-38.5 329,-19.5 264,-19.5"/>
<text text-anchor="middle" x="296.5" y="-26.5" font-family="Helvetica,sans-Serif" font-size="10.00" fill="#000000">param_add</text>
</a>
</g>
</g>
<!-- Node20&#45;&gt;Node21 -->
<g id="edge2" class="edge">
<title>Node20&#45;&gt;Node21</title>
<path fill="none" stroke="#191970" d="M236.8305,-38.2172C246.1521,-36.7773 255.4175,-35.3461 263.7692,-34.056"/>
<polygon fill="#191970" stroke="#191970" points="236.0827,-34.7912 226.7342,-39.7768 237.1513,-41.7091 236.0827,-34.7912"/>
</g>
<!-- Node22 -->
<g id="node4" class="node">
<title>Node22</title>
<g id="a_node4"><a xlink:href="config_8c.html#ae0ef249c19382a8125003e1c53221767" target="_top" xlink:title="Adds a parameter to the list. ">
<polygon fill="none" stroke="#000000" points="365,-19.5 365,-38.5 457,-38.5 457,-19.5 365,-19.5"/>
<text text-anchor="middle" x="411" y="-26.5" font-family="Helvetica,sans-Serif" font-size="10.00" fill="#000000">config_newnvpair</text>
</a>
</g>
</g>
<!-- Node21&#45;&gt;Node22 -->
<g id="edge3" class="edge">
<title>Node21&#45;&gt;Node22</title>
<path fill="none" stroke="#191970" d="M339.2466,-29C347.5622,-29 356.3149,-29 364.7379,-29"/>
<polygon fill="#191970" stroke="#191970" points="339.0049,-25.5001 329.0048,-29 339.0048,-32.5001 339.0049,-25.5001"/>
</g>
<!-- Node23 -->
<g id="node5" class="node">
<title>Node23</title>
<g id="a_node5"><a xlink:href="config_8c.html#a7a16c67bd1965c9f62f75fc88e2abe98" target="_top" xlink:title="Parses a line of the config file and adds to the list. ">
<polygon fill="none" stroke="#000000" points="493,-19.5 493,-38.5 576,-38.5 576,-19.5 493,-19.5"/>
<text text-anchor="middle" x="534.5" y="-26.5" font-family="Helvetica,sans-Serif" font-size="10.00" fill="#000000">config_process</text>
</a>
</g>
</g>
<!-- Node22&#45;&gt;Node23 -->
<g id="edge4" class="edge">
<title>Node22&#45;&gt;Node23</title>
<path fill="none" stroke="#191970" d="M467.5805,-29C476.0662,-29 484.6831,-29 492.7841,-29"/>
<polygon fill="#191970" stroke="#191970" points="467.3382,-25.5001 457.3382,-29 467.3382,-32.5001 467.3382,-25.5001"/>
</g>
<!-- Node24 -->
<g id="node6" class="node">
<title>Node24</title>
<g id="a_node6"><a xlink:href="config_8c.html#a9c6e238be77841517a31c44c39c84dc7" target="_top" xlink:title="Reads the specified configuration file. ">
<polygon fill="none" stroke="#000000" points="612,-19.5 612,-38.5 679,-38.5 679,-19.5 612,-19.5"/>
<text text-anchor="middle" x="645.5" y="-26.5" font-family="Helvetica,sans-Serif" font-size="10.00" fill="#000000">config_read</text>
</a>
</g>
</g>
<!-- Node23&#45;&gt;Node24 -->
<g id="edge5" class="edge">
<title>Node23&#45;&gt;Node24</title>
<path fill="none" stroke="#191970" d="M586.2742,-29C594.9925,-29 603.8339,-29 611.9328,-29"/>
<polygon fill="#191970" stroke="#191970" points="586.1481,-25.5001 576.1481,-29 586.1481,-32.5001 586.1481,-25.5001"/>
</g>
<!-- Node25 -->
<g id="node7" class="node">
<title>Node25</title>
<g id="a_node7"><a xlink:href="config_8h.html#a37df9fe8af1e1583876040747eeee030" target="_top" xlink:title="Initialises global constants and reads the specified configuration file. ">
<polygon fill="none" stroke="#000000" points="715,-19.5 715,-38.5 776,-38.5 776,-19.5 715,-19.5"/>
<text text-anchor="middle" x="745.5" y="-26.5" font-family="Helvetica,sans-Serif" font-size="10.00" fill="#000000">config_init</text>
</a>
</g>
</g>
<!-- Node24&#45;&gt;Node25 -->
<g id="edge6" class="edge">
<title>Node24&#45;&gt;Node25</title>
<path fill="none" stroke="#191970" d="M689.0924,-29C697.7817,-29 706.7335,-29 714.8746,-29"/>
<polygon fill="#191970" stroke="#191970" points="689.0768,-25.5001 679.0767,-29 689.0767,-32.5001 689.0768,-25.5001"/>
</g>
<!-- Node26 -->
<g id="node8" class="node">
<title>Node26</title>
<g id="a_node8"><a xlink:href="main_8c.html#a3c04138a5bfe5d72780bb7e82a18e627" target="_top" xlink:title="main">
<polygon fill="none" stroke="#000000" points="831.5,-38.5 831.5,-57.5 869.5,-57.5 869.5,-38.5 831.5,-38.5"/>
<text text-anchor="middle" x="850.5" y="-45.5" font-family="Helvetica,sans-Serif" font-size="10.00" fill="#000000">main</text>
</a>
</g>
</g>
<!-- Node25&#45;&gt;Node26 -->
<g id="edge7" class="edge">
<title>Node25&#45;&gt;Node26</title>
<path fill="none" stroke="#191970" d="M786.0796,-36.343C801.6004,-39.1515 818.5888,-42.2256 831.2213,-44.5115"/>
<polygon fill="#191970" stroke="#191970" points="786.616,-32.8833 776.1526,-34.5467 785.3696,-39.7714 786.616,-32.8833"/>
</g>
<!-- Node27 -->
<g id="node9" class="node">
<title>Node27</title>
<g id="a_node9"><a xlink:href="classXCS.html#ad372bae45743be0fbf7d95b67e13b390" target="_top" xlink:title="Initialises python XCS structure. ">
<polygon fill="none" stroke="#000000" points="812,-.5 812,-19.5 889,-19.5 889,-.5 812,-.5"/>
<text text-anchor="middle" x="850.5" y="-7.5" font-family="Helvetica,sans-Serif" font-size="10.00" fill="#000000">XCS::xcs_init</text>
</a>
</g>
</g>
<!-- Node25&#45;&gt;Node27 -->
<g id="edge8" class="edge">
<title>Node25&#45;&gt;Node27</title>
<path fill="none" stroke="#191970" d="M786.149,-21.6445C794.5699,-20.1207 803.42,-18.5192 811.7701,-17.0083"/>
<polygon fill="#191970" stroke="#191970" points="785.3696,-18.2286 776.1526,-23.4533 786.616,-25.1167 785.3696,-18.2286"/>
</g>
<!-- Node28 -->
<g id="node10" class="node">
<title>Node28</title>
<g id="a_node10"><a xlink:href="classXCS.html#a621482fa1ba66543d343e208666aee90" target="_top" xlink:title="Constructor for single&#45;step reinforcement learning. ">
<polygon fill="none" stroke="#000000" points="925,-.5 925,-19.5 990,-19.5 990,-.5 925,-.5"/>
<text text-anchor="middle" x="957.5" y="-7.5" font-family="Helvetica,sans-Serif" font-size="10.00" fill="#000000">XCS::XCS</text>
</a>
</g>
</g>
<!-- Node27&#45;&gt;Node28 -->
<g id="edge9" class="edge">
<title>Node27&#45;&gt;Node28</title>
<path fill="none" stroke="#191970" d="M899.219,-10C907.9281,-10 916.8076,-10 924.9243,-10"/>
<polygon fill="#191970" stroke="#191970" points="899.1295,-6.5001 889.1295,-10 899.1294,-13.5001 899.1295,-6.5001"/>
</g>
<!-- Node29&#45;&gt;Node21 -->
<g id="edge11" class="edge">
<title>Node29&#45;&gt;Node21</title>
<path fill="none" stroke="#191970" d="M238.2075,-19.9955C247.1029,-21.3696 255.9087,-22.7298 263.8776,-23.9608"/>
<polygon fill="#191970" stroke="#191970" points="238.583,-16.512 228.1659,-18.4443 237.5143,-23.43 238.583,-16.512"/>
</g>
</g>
</svg>
