<?xml version="1.0" encoding="UTF-8" standalone="no"?>
<!DOCTYPE svg PUBLIC "-//W3C//DTD SVG 1.1//EN"
 "http://www.w3.org/Graphics/SVG/1.1/DTD/svg11.dtd">
<!-- Generated by graphviz version 2.40.1 (20161225.0304)
 -->
<!-- Title: defaults_cl_action Pages: 1 -->
<svg width="533pt" height="66pt"
 viewBox="0.00 0.00 533.00 66.00" xmlns="http://www.w3.org/2000/svg" xmlns:xlink="http://www.w3.org/1999/xlink">
<g id="graph0" class="graph" transform="scale(1 1) rotate(0) translate(4 62)">
<title>defaults_cl_action</title>
<!-- Node143 -->
<g id="node1" class="node">
<title>Node143</title>
<polygon fill="#bfbfbf" stroke="#000000" points="0,-19.5 0,-38.5 95,-38.5 95,-19.5 0,-19.5"/>
<text text-anchor="middle" x="47.5" y="-26.5" font-family="Helvetica,sans-Serif" font-size="10.00" fill="#000000">defaults_cl_action</text>
</g>
<!-- Node144 -->
<g id="node2" class="node">
<title>Node144</title>
<g id="a_node2"><a xlink:href="config_8c.html#ac931b458cf465c2119a3631b0f9bc9ed" target="_top" xlink:title="Initialises default XCSF parameters. ">
<polygon fill="none" stroke="#000000" points="131,-19.5 131,-38.5 214,-38.5 214,-19.5 131,-19.5"/>
<text text-anchor="middle" x="172.5" y="-26.5" font-family="Helvetica,sans-Serif" font-size="10.00" fill="#000000">config_defaults</text>
</a>
</g>
</g>
<!-- Node143&#45;&gt;Node144 -->
<g id="edge1" class="edge">
<title>Node143&#45;&gt;Node144</title>
<path fill="none" stroke="#191970" d="M105.1466,-29C113.7755,-29 122.5285,-29 130.7424,-29"/>
<polygon fill="#191970" stroke="#191970" points="105.1138,-25.5001 95.1137,-29 105.1137,-32.5001 105.1138,-25.5001"/>
</g>
<!-- Node145 -->
<g id="node3" class="node">
<title>Node145</title>
<g id="a_node3"><a xlink:href="config_8h.html#a37df9fe8af1e1583876040747eeee030" target="_top" xlink:title="Initialises global constants and reads the specified configuration file. ">
<polygon fill="none" stroke="#000000" points="250,-19.5 250,-38.5 311,-38.5 311,-19.5 250,-19.5"/>
<text text-anchor="middle" x="280.5" y="-26.5" font-family="Helvetica,sans-Serif" font-size="10.00" fill="#000000">config_init</text>
</a>
</g>
</g>
<!-- Node144&#45;&gt;Node145 -->
<g id="edge2" class="edge">
<title>Node144&#45;&gt;Node145</title>
<path fill="none" stroke="#191970" d="M224.4152,-29C233.1449,-29 241.9473,-29 249.908,-29"/>
<polygon fill="#191970" stroke="#191970" points="224.2557,-25.5001 214.2556,-29 224.2556,-32.5001 224.2557,-25.5001"/>
</g>
<!-- Node146 -->
<g id="node4" class="node">
<title>Node146</title>
<g id="a_node4"><a xlink:href="main_8c.html#a3c04138a5bfe5d72780bb7e82a18e627" target="_top" xlink:title="main">
<polygon fill="none" stroke="#000000" points="366.5,-38.5 366.5,-57.5 404.5,-57.5 404.5,-38.5 366.5,-38.5"/>
<text text-anchor="middle" x="385.5" y="-45.5" font-family="Helvetica,sans-Serif" font-size="10.00" fill="#000000">main</text>
</a>
</g>
</g>
<!-- Node145&#45;&gt;Node146 -->
<g id="edge3" class="edge">
<title>Node145&#45;&gt;Node146</title>
<path fill="none" stroke="#191970" d="M321.0796,-36.343C336.6004,-39.1515 353.5888,-42.2256 366.2213,-44.5115"/>
<polygon fill="#191970" stroke="#191970" points="321.616,-32.8833 311.1526,-34.5467 320.3696,-39.7714 321.616,-32.8833"/>
</g>
<!-- Node147 -->
<g id="node5" class="node">
<title>Node147</title>
<g id="a_node5"><a xlink:href="classXCS.html#ad372bae45743be0fbf7d95b67e13b390" target="_top" xlink:title="Initialises python XCS structure. ">
<polygon fill="none" stroke="#000000" points="347,-.5 347,-19.5 424,-19.5 424,-.5 347,-.5"/>
<text text-anchor="middle" x="385.5" y="-7.5" font-family="Helvetica,sans-Serif" font-size="10.00" fill="#000000">XCS::xcs_init</text>
</a>
</g>
</g>
<!-- Node145&#45;&gt;Node147 -->
<g id="edge4" class="edge">
<title>Node145&#45;&gt;Node147</title>
<path fill="none" stroke="#191970" d="M321.149,-21.6445C329.5699,-20.1207 338.42,-18.5192 346.7701,-17.0083"/>
<polygon fill="#191970" stroke="#191970" points="320.3696,-18.2286 311.1526,-23.4533 321.616,-25.1167 320.3696,-18.2286"/>
</g>
<!-- Node148 -->
<g id="node6" class="node">
<title>Node148</title>
<g id="a_node6"><a xlink:href="classXCS.html#a621482fa1ba66543d343e208666aee90" target="_top" xlink:title="Constructor for single&#45;step reinforcement learning. ">
<polygon fill="none" stroke="#000000" points="460,-.5 460,-19.5 525,-19.5 525,-.5 460,-.5"/>
<text text-anchor="middle" x="492.5" y="-7.5" font-family="Helvetica,sans-Serif" font-size="10.00" fill="#000000">XCS::XCS</text>
</a>
</g>
</g>
<!-- Node147&#45;&gt;Node148 -->
<g id="edge5" class="edge">
<title>Node147&#45;&gt;Node148</title>
<path fill="none" stroke="#191970" d="M434.219,-10C442.9281,-10 451.8076,-10 459.9243,-10"/>
<polygon fill="#191970" stroke="#191970" points="434.1295,-6.5001 424.1295,-10 434.1294,-13.5001 434.1295,-6.5001"/>
</g>
</g>
</svg>
