<?xml version="1.0" encoding="UTF-8" standalone="no"?>
<!DOCTYPE svg PUBLIC "-//W3C//DTD SVG 1.1//EN"
 "http://www.w3.org/Graphics/SVG/1.1/DTD/svg11.dtd">
<!-- Generated by graphviz version 2.40.1 (20161225.0304)
 -->
<!-- Title: print_params_cl_general Pages: 1 -->
<svg width="503pt" height="28pt"
 viewBox="0.00 0.00 503.00 28.00" xmlns="http://www.w3.org/2000/svg" xmlns:xlink="http://www.w3.org/1999/xlink">
<g id="graph0" class="graph" transform="scale(1 1) rotate(0) translate(4 24)">
<title>print_params_cl_general</title>
<!-- Node309 -->
<g id="node1" class="node">
<title>Node309</title>
<polygon fill="#bfbfbf" stroke="#000000" points="0,-.5 0,-19.5 122,-19.5 122,-.5 0,-.5"/>
<text text-anchor="middle" x="61" y="-7.5" font-family="Helvetica,sans-Serif" font-size="10.00" fill="#000000">print_params_cl_general</text>
</g>
<!-- Node310 -->
<g id="node2" class="node">
<title>Node310</title>
<g id="a_node2"><a xlink:href="config_8h.html#adc38af39a9c1a2850bc3cb85e76721f7" target="_top" xlink:title="Prints all XCSF parameters. ">
<polygon fill="none" stroke="#000000" points="158,-.5 158,-19.5 225,-19.5 225,-.5 158,-.5"/>
<text text-anchor="middle" x="191.5" y="-7.5" font-family="Helvetica,sans-Serif" font-size="10.00" fill="#000000">config_print</text>
</a>
</g>
</g>
<!-- Node309&#45;&gt;Node310 -->
<g id="edge1" class="edge">
<title>Node309&#45;&gt;Node310</title>
<path fill="none" stroke="#191970" d="M132.1773,-10C141.1256,-10 149.9239,-10 157.8917,-10"/>
<polygon fill="#191970" stroke="#191970" points="132.0471,-6.5001 122.047,-10 132.047,-13.5001 132.0471,-6.5001"/>
</g>
<!-- Node311 -->
<g id="node3" class="node">
<title>Node311</title>
<g id="a_node3"><a xlink:href="classXCS.html#a740e580dbd9bb7d567de5536c5fc1661" target="_top" xlink:title="XCS::print_params">
<polygon fill="none" stroke="#000000" points="261,-.5 261,-19.5 361,-19.5 361,-.5 261,-.5"/>
<text text-anchor="middle" x="311" y="-7.5" font-family="Helvetica,sans-Serif" font-size="10.00" fill="#000000">XCS::print_params</text>
</a>
</g>
</g>
<!-- Node310&#45;&gt;Node311 -->
<g id="edge2" class="edge">
<title>Node310&#45;&gt;Node311</title>
<path fill="none" stroke="#191970" d="M235.2828,-10C243.5446,-10 252.2459,-10 260.6892,-10"/>
<polygon fill="#191970" stroke="#191970" points="235.1055,-6.5001 225.1054,-10 235.1054,-13.5001 235.1055,-6.5001"/>
</g>
<!-- Node312 -->
<g id="node4" class="node">
<title>Node312</title>
<g id="a_node4"><a xlink:href="pybind__wrapper_8cpp.html#a9f26280e01308c4674f2473fb6f78730" target="_top" xlink:title="pybind11_init_xcsf">
<polygon fill="none" stroke="#000000" points="397,-.5 397,-19.5 495,-19.5 495,-.5 397,-.5"/>
<text text-anchor="middle" x="446" y="-7.5" font-family="Helvetica,sans-Serif" font-size="10.00" fill="#000000">pybind11_init_xcsf</text>
</a>
</g>
</g>
<!-- Node311&#45;&gt;Node312 -->
<g id="edge3" class="edge">
<title>Node311&#45;&gt;Node312</title>
<path fill="none" stroke="#191970" d="M371.4254,-10C379.8414,-10 388.4057,-10 396.5872,-10"/>
<polygon fill="#191970" stroke="#191970" points="371.2691,-6.5001 361.269,-10 371.269,-13.5001 371.2691,-6.5001"/>
</g>
</g>
</svg>
