<?xml version="1.0" encoding="UTF-8" standalone="no"?>
<!DOCTYPE svg PUBLIC "-//W3C//DTD SVG 1.1//EN"
 "http://www.w3.org/Graphics/SVG/1.1/DTD/svg11.dtd">
<!-- Generated by graphviz version 2.40.1 (20161225.0304)
 -->
<!-- Title: /home/unknown/work/current/xcsf/xcsf/dgp.h Pages: 1 -->
<svg width="452pt" height="106pt"
 viewBox="0.00 0.00 451.50 106.00" xmlns="http://www.w3.org/2000/svg" xmlns:xlink="http://www.w3.org/1999/xlink">
<g id="graph0" class="graph" transform="scale(1 1) rotate(0) translate(4 102)">
<title>/home/unknown/work/current/xcsf/xcsf/dgp.h</title>
<!-- Node1 -->
<g id="node1" class="node">
<title>Node1</title>
<polygon fill="#bfbfbf" stroke="#000000" points="164,-67.5 164,-97.5 284,-97.5 284,-67.5 164,-67.5"/>
<text text-anchor="start" x="172" y="-85.5" font-family="Helvetica,sans-Serif" font-size="10.00" fill="#000000">/home/unknown/work</text>
<text text-anchor="middle" x="224" y="-74.5" font-family="Helvetica,sans-Serif" font-size="10.00" fill="#000000">/current/xcsf/xcsf/dgp.h</text>
</g>
<!-- Node2 -->
<g id="node2" class="node">
<title>Node2</title>
<g id="a_node2"><a xlink:href="cond__dgp_8c.html" target="_top" xlink:title="Dynamical GP graph condition functions. ">
<polygon fill="none" stroke="#000000" points="0,-.5 0,-30.5 146,-30.5 146,-.5 0,-.5"/>
<text text-anchor="start" x="8" y="-18.5" font-family="Helvetica,sans-Serif" font-size="10.00" fill="#000000">/home/unknown/work</text>
<text text-anchor="middle" x="73" y="-7.5" font-family="Helvetica,sans-Serif" font-size="10.00" fill="#000000">/current/xcsf/xcsf/cond_dgp.c</text>
</a>
</g>
</g>
<!-- Node1&#45;&gt;Node2 -->
<g id="edge1" class="edge">
<title>Node1&#45;&gt;Node2</title>
<path fill="none" stroke="#191970" d="M180.7582,-63.3132C157.3497,-52.9267 128.8461,-40.2794 107.0351,-30.6017"/>
<polygon fill="#191970" stroke="#191970" points="179.5525,-66.6073 190.1127,-67.4639 182.3916,-60.2089 179.5525,-66.6073"/>
</g>
<!-- Node3 -->
<g id="node3" class="node">
<title>Node3</title>
<g id="a_node3"><a xlink:href="dgp_8c.html" target="_top" xlink:title="An implementation of dynamical GP graphs with fuzzy activation functions. ">
<polygon fill="none" stroke="#000000" points="164,-.5 164,-30.5 284,-30.5 284,-.5 164,-.5"/>
<text text-anchor="start" x="172" y="-18.5" font-family="Helvetica,sans-Serif" font-size="10.00" fill="#000000">/home/unknown/work</text>
<text text-anchor="middle" x="224" y="-7.5" font-family="Helvetica,sans-Serif" font-size="10.00" fill="#000000">/current/xcsf/xcsf/dgp.c</text>
</a>
</g>
</g>
<!-- Node1&#45;&gt;Node3 -->
<g id="edge2" class="edge">
<title>Node1&#45;&gt;Node3</title>
<path fill="none" stroke="#191970" d="M224,-57.0249C224,-48.128 224,-38.4287 224,-30.6432"/>
<polygon fill="#191970" stroke="#191970" points="220.5001,-57.2966 224,-67.2967 227.5001,-57.2967 220.5001,-57.2966"/>
</g>
<!-- Node4 -->
<g id="node4" class="node">
<title>Node4</title>
<g id="a_node4"><a xlink:href="rule__dgp_8c.html" target="_top" xlink:title="Dynamical GP graph rule (condition + action) functions. ">
<polygon fill="none" stroke="#000000" points="302.5,-.5 302.5,-30.5 443.5,-30.5 443.5,-.5 302.5,-.5"/>
<text text-anchor="start" x="310.5" y="-18.5" font-family="Helvetica,sans-Serif" font-size="10.00" fill="#000000">/home/unknown/work</text>
<text text-anchor="middle" x="373" y="-7.5" font-family="Helvetica,sans-Serif" font-size="10.00" fill="#000000">/current/xcsf/xcsf/rule_dgp.c</text>
</a>
</g>
</g>
<!-- Node1&#45;&gt;Node4 -->
<g id="edge3" class="edge">
<title>Node1&#45;&gt;Node4</title>
<path fill="none" stroke="#191970" d="M266.6691,-63.3132C289.7675,-52.9267 317.8936,-40.2794 339.4156,-30.6017"/>
<polygon fill="#191970" stroke="#191970" points="265.1235,-60.1706 257.4385,-67.4639 267.9943,-66.5549 265.1235,-60.1706"/>
</g>
</g>
</svg>
