<?xml version="1.0" encoding="UTF-8" standalone="no"?>
<!DOCTYPE svg PUBLIC "-//W3C//DTD SVG 1.1//EN"
 "http://www.w3.org/Graphics/SVG/1.1/DTD/svg11.dtd">
<!-- Generated by graphviz version 2.40.1 (20161225.0304)
 -->
<!-- Title: graph_mutate Pages: 1 -->
<svg width="1235pt" height="203pt"
 viewBox="0.00 0.00 1235.00 203.50" xmlns="http://www.w3.org/2000/svg" xmlns:xlink="http://www.w3.org/1999/xlink">
<g id="graph0" class="graph" transform="scale(1 1) rotate(0) translate(4 199.4978)">
<title>graph_mutate</title>
<!-- Node32 -->
<g id="node1" class="node">
<title>Node32</title>
<polygon fill="#bfbfbf" stroke="#000000" points="0,-82.5 0,-101.5 76,-101.5 76,-82.5 0,-82.5"/>
<text text-anchor="middle" x="38" y="-89.5" font-family="Helvetica,sans-Serif" font-size="10.00" fill="#000000">graph_mutate</text>
</g>
<!-- Node33 -->
<g id="node2" class="node">
<title>Node33</title>
<g id="a_node2"><a xlink:href="utils_8c.html#a32648ab076544a9ac1c086d0f07b599f" target="_top" xlink:title="Returns a uniform random integer [min,max] not inclusive of max. ">
<polygon fill="none" stroke="#000000" points="366,-43.5 366,-62.5 441,-62.5 441,-43.5 366,-43.5"/>
<text text-anchor="middle" x="403.5" y="-50.5" font-family="Helvetica,sans-Serif" font-size="10.00" fill="#000000">irand_uniform</text>
</a>
</g>
</g>
<!-- Node32&#45;&gt;Node33 -->
<g id="edge1" class="edge">
<title>Node32&#45;&gt;Node33</title>
<path fill="none" stroke="#191970" d="M76.14,-85.7826C111.5277,-80.1969 165.7051,-72.11 213,-67 261.3696,-61.7739 316.8634,-57.9399 355.4307,-55.6187"/>
<polygon fill="#191970" stroke="#191970" points="356.0634,-59.0876 365.8398,-55.0043 355.6509,-52.0997 356.0634,-59.0876"/>
</g>
<!-- Node34 -->
<g id="node3" class="node">
<title>Node34</title>
<g id="a_node3"><a xlink:href="utils_8c.html#ae42a9e1d467853befaa7922cfafed3bb" target="_top" xlink:title="Returns a uniform random float [min,max]. ">
<polygon fill="none" stroke="#000000" points="477,-82.5 477,-101.5 550,-101.5 550,-82.5 477,-82.5"/>
<text text-anchor="middle" x="513.5" y="-89.5" font-family="Helvetica,sans-Serif" font-size="10.00" fill="#000000">rand_uniform</text>
</a>
</g>
</g>
<!-- Node32&#45;&gt;Node34 -->
<g id="edge8" class="edge">
<title>Node32&#45;&gt;Node34</title>
<path fill="none" stroke="#191970" d="M76.0674,-99.0289C111.405,-105.1743 165.5496,-113.6278 213,-117 314.196,-124.1918 340.61,-120.6354 441,-106 449.3881,-104.7771 458.2801,-103.2519 466.8559,-101.6622"/>
<polygon fill="#191970" stroke="#191970" points="467.561,-105.0909 476.7289,-99.7805 466.2504,-98.2146 467.561,-105.0909"/>
</g>
<!-- Node40 -->
<g id="node9" class="node">
<title>Node40</title>
<g id="a_node9"><a xlink:href="dgp_8c.html#afdff428427a00c7e6c9ec124bbb4cf5f" target="_top" xlink:title="Returns a random connection. ">
<polygon fill="none" stroke="#000000" points="221,-.5 221,-19.5 322,-19.5 322,-.5 221,-.5"/>
<text text-anchor="middle" x="271.5" y="-7.5" font-family="Helvetica,sans-Serif" font-size="10.00" fill="#000000">random_connection</text>
</a>
</g>
</g>
<!-- Node32&#45;&gt;Node40 -->
<g id="edge9" class="edge">
<title>Node32&#45;&gt;Node40</title>
<path fill="none" stroke="#191970" d="M46.9922,-82.3316C59.9652,-69.0505 85.319,-45.5033 112,-34 142.9579,-20.6527 180.0732,-14.5514 210.7079,-11.8328"/>
<polygon fill="#191970" stroke="#191970" points="211.1364,-15.3099 220.8304,-11.0349 210.5863,-8.3316 211.1364,-15.3099"/>
</g>
<!-- Node41 -->
<g id="node10" class="node">
<title>Node41</title>
<g id="a_node10"><a xlink:href="sam_8c.html#ab7b9b862cf798bc25fc0654a4ff1e54e" target="_top" xlink:title="Self&#45;adapts mutation rates. ">
<polygon fill="none" stroke="#000000" points="112,-164.5 112,-183.5 177,-183.5 177,-164.5 112,-164.5"/>
<text text-anchor="middle" x="144.5" y="-171.5" font-family="Helvetica,sans-Serif" font-size="10.00" fill="#000000">sam_adapt</text>
</a>
</g>
</g>
<!-- Node32&#45;&gt;Node41 -->
<g id="edge12" class="edge">
<title>Node32&#45;&gt;Node41</title>
<path fill="none" stroke="#191970" d="M49.9659,-101.55C64.5301,-113.1338 89.9163,-133.1971 112,-150 115.5167,-152.6757 119.2707,-155.488 122.9324,-158.2075"/>
<polygon fill="#191970" stroke="#191970" points="121.0295,-161.1532 131.1534,-164.277 125.1872,-155.5217 121.0295,-161.1532"/>
</g>
<!-- Node33&#45;&gt;Node34 -->
<g id="edge2" class="edge">
<title>Node33&#45;&gt;Node34</title>
<path fill="none" stroke="#191970" d="M430.409,-62.5405C444.392,-67.4981 461.6863,-73.6297 476.8703,-79.0131"/>
<polygon fill="#191970" stroke="#191970" points="475.8928,-82.3799 486.4875,-82.4229 478.232,-75.7823 475.8928,-82.3799"/>
</g>
<!-- Node35 -->
<g id="node4" class="node">
<title>Node35</title>
<g id="a_node4"><a xlink:href="utils_8c.html#a101d27cdda714b7f17a06224c65cac56" target="_top" xlink:title="Returns a uniform random float (0,1) ">
<polygon fill="none" stroke="#000000" points="586,-101.5 586,-120.5 627,-120.5 627,-101.5 586,-101.5"/>
<text text-anchor="middle" x="606.5" y="-108.5" font-family="Helvetica,sans-Serif" font-size="10.00" fill="#000000">drand</text>
</a>
</g>
</g>
<!-- Node34&#45;&gt;Node35 -->
<g id="edge3" class="edge">
<title>Node34&#45;&gt;Node35</title>
<path fill="none" stroke="#191970" d="M550.2561,-99.5093C558.7524,-101.2451 567.7031,-103.0738 575.9036,-104.7491"/>
<polygon fill="#191970" stroke="#191970" points="575.3007,-108.1982 585.7989,-106.7707 576.7019,-101.3398 575.3007,-108.1982"/>
</g>
<!-- Node36 -->
<g id="node5" class="node">
<title>Node36</title>
<g id="a_node5"><a xlink:href="dSFMT_8h.html#af6dbcef408462da1f40edd1a1ea5dcd3" target="_top" xlink:title="dsfmt_gv_genrand_open_open">
<polygon fill="none" stroke="#000000" points="663,-101.5 663,-120.5 812,-120.5 812,-101.5 663,-101.5"/>
<text text-anchor="middle" x="737.5" y="-108.5" font-family="Helvetica,sans-Serif" font-size="10.00" fill="#000000">dsfmt_gv_genrand_open_open</text>
</a>
</g>
</g>
<!-- Node35&#45;&gt;Node36 -->
<g id="edge4" class="edge">
<title>Node35&#45;&gt;Node36</title>
<path fill="none" stroke="#191970" d="M627.2573,-111C634.5688,-111 643.3051,-111 652.6156,-111"/>
<polygon fill="#191970" stroke="#191970" points="652.9038,-114.5001 662.9037,-111 652.9037,-107.5001 652.9038,-114.5001"/>
</g>
<!-- Node37 -->
<g id="node6" class="node">
<title>Node37</title>
<g id="a_node6"><a xlink:href="dSFMT_8h.html#a147a0a05c969a4cb5d92ce3963b839c2" target="_top" xlink:title="dsfmt_genrand_open_open">
<polygon fill="none" stroke="#000000" points="848,-101.5 848,-120.5 982,-120.5 982,-101.5 848,-101.5"/>
<text text-anchor="middle" x="915" y="-108.5" font-family="Helvetica,sans-Serif" font-size="10.00" fill="#000000">dsfmt_genrand_open_open</text>
</a>
</g>
</g>
<!-- Node36&#45;&gt;Node37 -->
<g id="edge5" class="edge">
<title>Node36&#45;&gt;Node37</title>
<path fill="none" stroke="#191970" d="M812.0045,-111C820.4355,-111 829.0427,-111 837.5109,-111"/>
<polygon fill="#191970" stroke="#191970" points="837.7501,-114.5001 847.75,-111 837.75,-107.5001 837.7501,-114.5001"/>
</g>
<!-- Node38 -->
<g id="node7" class="node">
<title>Node38</title>
<g id="a_node7"><a xlink:href="dSFMT_8h.html#afccb1e4d75cea7ffe3b45cba53d1e5e0" target="_top" xlink:title="dsfmt_gen_rand_all">
<polygon fill="none" stroke="#000000" points="1018,-101.5 1018,-120.5 1119,-120.5 1119,-101.5 1018,-101.5"/>
<text text-anchor="middle" x="1068.5" y="-108.5" font-family="Helvetica,sans-Serif" font-size="10.00" fill="#000000">dsfmt_gen_rand_all</text>
</a>
</g>
</g>
<!-- Node37&#45;&gt;Node38 -->
<g id="edge6" class="edge">
<title>Node37&#45;&gt;Node38</title>
<path fill="none" stroke="#191970" d="M982.3273,-111C990.8031,-111 999.4345,-111 1007.7997,-111"/>
<polygon fill="#191970" stroke="#191970" points="1007.8429,-114.5001 1017.8429,-111 1007.8428,-107.5001 1007.8429,-114.5001"/>
</g>
<!-- Node39 -->
<g id="node8" class="node">
<title>Node39</title>
<g id="a_node8"><a xlink:href="dSFMT-common_8h.html#a43e33e2235015c9c072bad7dfe1a282c" target="_top" xlink:title="do_recursion">
<polygon fill="none" stroke="#000000" points="1155,-101.5 1155,-120.5 1227,-120.5 1227,-101.5 1155,-101.5"/>
<text text-anchor="middle" x="1191" y="-108.5" font-family="Helvetica,sans-Serif" font-size="10.00" fill="#000000">do_recursion</text>
</a>
</g>
</g>
<!-- Node38&#45;&gt;Node39 -->
<g id="edge7" class="edge">
<title>Node38&#45;&gt;Node39</title>
<path fill="none" stroke="#191970" d="M1119.0327,-111C1127.5603,-111 1136.3741,-111 1144.7846,-111"/>
<polygon fill="#191970" stroke="#191970" points="1144.7975,-114.5001 1154.7974,-111 1144.7974,-107.5001 1144.7975,-114.5001"/>
</g>
<!-- Node40&#45;&gt;Node33 -->
<g id="edge10" class="edge">
<title>Node40&#45;&gt;Node33</title>
<path fill="none" stroke="#191970" d="M300.7951,-19.5431C319.5936,-25.6669 344.2173,-33.6882 364.6416,-40.3416"/>
<polygon fill="#191970" stroke="#191970" points="363.6945,-43.714 374.2868,-43.4836 365.8627,-37.0583 363.6945,-43.714"/>
</g>
<!-- Node40&#45;&gt;Node34 -->
<g id="edge11" class="edge">
<title>Node40&#45;&gt;Node34</title>
<path fill="none" stroke="#191970" d="M322.3391,-10.2313C357.0342,-12.0342 403.3473,-17.7378 441,-34 463.0187,-43.5098 483.9344,-61.5593 497.5906,-75.0085"/>
<polygon fill="#191970" stroke="#191970" points="495.2423,-77.6126 504.7457,-82.2962 500.2373,-72.7085 495.2423,-77.6126"/>
</g>
<!-- Node42 -->
<g id="node11" class="node">
<title>Node42</title>
<g id="a_node11"><a xlink:href="sam_8c.html#aeed5628172f1fe2bd45b9257ca5f69b4" target="_top" xlink:title="Performs log normal self&#45;adaptation. ">
<polygon fill="none" stroke="#000000" points="213,-164.5 213,-183.5 330,-183.5 330,-164.5 213,-164.5"/>
<text text-anchor="middle" x="271.5" y="-171.5" font-family="Helvetica,sans-Serif" font-size="10.00" fill="#000000">sam_log_normal_adapt</text>
</a>
</g>
</g>
<!-- Node41&#45;&gt;Node42 -->
<g id="edge13" class="edge">
<title>Node41&#45;&gt;Node42</title>
<path fill="none" stroke="#191970" d="M177.2057,-174C185.1086,-174 193.8512,-174 202.7322,-174"/>
<polygon fill="#191970" stroke="#191970" points="202.7806,-177.5001 212.7806,-174 202.7805,-170.5001 202.7806,-177.5001"/>
</g>
<!-- Node45 -->
<g id="node14" class="node">
<title>Node45</title>
<g id="a_node14"><a xlink:href="sam_8c.html#ac0808d47ef98fae3eb607d2eca8fee0d" target="_top" xlink:title="Performs self&#45;adaptation via a rate selection mechanism. ">
<polygon fill="none" stroke="#000000" points="221,-77 221,-107 322,-107 322,-77 221,-77"/>
<text text-anchor="start" x="229" y="-95" font-family="Helvetica,sans-Serif" font-size="10.00" fill="#000000">sam_rate_selection</text>
<text text-anchor="middle" x="271.5" y="-84" font-family="Helvetica,sans-Serif" font-size="10.00" fill="#000000">_adapt</text>
</a>
</g>
</g>
<!-- Node41&#45;&gt;Node45 -->
<g id="edge17" class="edge">
<title>Node41&#45;&gt;Node45</title>
<path fill="none" stroke="#191970" d="M159.5673,-164.2715C179.0807,-151.6723 213.617,-129.3733 239.1829,-112.8662"/>
<polygon fill="#191970" stroke="#191970" points="241.3099,-115.6591 247.8124,-107.2944 237.5128,-109.7783 241.3099,-115.6591"/>
</g>
<!-- Node43 -->
<g id="node12" class="node">
<title>Node43</title>
<g id="a_node12"><a xlink:href="utils_8c.html#aa57fc0f69e730ce0a348c25ee498643d" target="_top" xlink:title="Returns a normal random float with specified mean and standard deviation. ">
<polygon fill="none" stroke="#000000" points="478.5,-161.5 478.5,-180.5 548.5,-180.5 548.5,-161.5 478.5,-161.5"/>
<text text-anchor="middle" x="513.5" y="-168.5" font-family="Helvetica,sans-Serif" font-size="10.00" fill="#000000">rand_normal</text>
</a>
</g>
</g>
<!-- Node42&#45;&gt;Node43 -->
<g id="edge14" class="edge">
<title>Node42&#45;&gt;Node43</title>
<path fill="none" stroke="#191970" d="M307.9682,-183.5362C342.3602,-191.2416 395.3065,-199.7802 441,-193 453.6045,-191.1297 467.0515,-187.5245 478.8983,-183.7653"/>
<polygon fill="#191970" stroke="#191970" points="480.0308,-187.0772 488.4197,-180.606 477.8263,-180.4334 480.0308,-187.0772"/>
</g>
<!-- Node44 -->
<g id="node13" class="node">
<title>Node44</title>
<g id="a_node13"><a xlink:href="utils_8h.html#ae02d149bec0d867bdb7616bb612439a6" target="_top" xlink:title="Returns a float constrained within the specified range. ">
<polygon fill="none" stroke="#000000" points="375.5,-164.5 375.5,-183.5 431.5,-183.5 431.5,-164.5 375.5,-164.5"/>
<text text-anchor="middle" x="403.5" y="-171.5" font-family="Helvetica,sans-Serif" font-size="10.00" fill="#000000">constrain</text>
</a>
</g>
</g>
<!-- Node42&#45;&gt;Node44 -->
<g id="edge16" class="edge">
<title>Node42&#45;&gt;Node44</title>
<path fill="none" stroke="#191970" d="M330.1658,-174C342.0628,-174 354.2815,-174 365.2501,-174"/>
<polygon fill="#191970" stroke="#191970" points="365.332,-177.5001 375.332,-174 365.3319,-170.5001 365.332,-177.5001"/>
</g>
<!-- Node43&#45;&gt;Node35 -->
<g id="edge15" class="edge">
<title>Node43&#45;&gt;Node35</title>
<path fill="none" stroke="#191970" d="M528.4421,-161.36C543.0852,-151.9128 565.6337,-137.3654 582.7377,-126.3305"/>
<polygon fill="#191970" stroke="#191970" points="585.0895,-128.9785 591.595,-120.6161 581.2946,-123.0964 585.0895,-128.9785"/>
</g>
<!-- Node45&#45;&gt;Node33 -->
<g id="edge19" class="edge">
<title>Node45&#45;&gt;Node33</title>
<path fill="none" stroke="#191970" d="M322.1571,-77.0331C335.1224,-73.2025 348.9239,-69.1248 361.4063,-65.4368"/>
<polygon fill="#191970" stroke="#191970" points="362.4945,-68.7649 371.093,-62.5748 360.511,-62.0518 362.4945,-68.7649"/>
</g>
<!-- Node45&#45;&gt;Node34 -->
<g id="edge18" class="edge">
<title>Node45&#45;&gt;Node34</title>
<path fill="none" stroke="#191970" d="M322.2311,-92C364.7785,-92 425.0651,-92 466.5231,-92"/>
<polygon fill="#191970" stroke="#191970" points="466.6354,-95.5001 476.6354,-92 466.6354,-88.5001 466.6354,-95.5001"/>
</g>
</g>
</svg>
