<?xml version="1.0" encoding="UTF-8" standalone="no"?>
<!DOCTYPE svg PUBLIC "-//W3C//DTD SVG 1.1//EN"
 "http://www.w3.org/Graphics/SVG/1.1/DTD/svg11.dtd">
<!-- Generated by graphviz version 2.40.1 (20161225.0304)
 -->
<!-- Title: synchronous_update Pages: 1 -->
<svg width="511pt" height="66pt"
 viewBox="0.00 0.00 511.00 66.00" xmlns="http://www.w3.org/2000/svg" xmlns:xlink="http://www.w3.org/1999/xlink">
<g id="graph0" class="graph" transform="scale(1 1) rotate(0) translate(4 62)">
<title>synchronous_update</title>
<!-- Node114 -->
<g id="node1" class="node">
<title>Node114</title>
<polygon fill="#bfbfbf" stroke="#000000" points="0,-19.5 0,-38.5 107,-38.5 107,-19.5 0,-19.5"/>
<text text-anchor="middle" x="53.5" y="-26.5" font-family="Helvetica,sans-Serif" font-size="10.00" fill="#000000">synchronous_update</text>
</g>
<!-- Node115 -->
<g id="node2" class="node">
<title>Node115</title>
<g id="a_node2"><a xlink:href="dgp_8h.html#ac7037469abc0b8c6875d95f377d95a37" target="_top" xlink:title="Updates a DGP graph T cycles. ">
<polygon fill="none" stroke="#000000" points="143,-19.5 143,-38.5 218,-38.5 218,-19.5 143,-19.5"/>
<text text-anchor="middle" x="180.5" y="-26.5" font-family="Helvetica,sans-Serif" font-size="10.00" fill="#000000">graph_update</text>
</a>
</g>
</g>
<!-- Node114&#45;&gt;Node115 -->
<g id="edge1" class="edge">
<title>Node114&#45;&gt;Node115</title>
<path fill="none" stroke="#191970" d="M117.4702,-29C126.1111,-29 134.7405,-29 142.7182,-29"/>
<polygon fill="#191970" stroke="#191970" points="117.3595,-25.5001 107.3594,-29 117.3594,-32.5001 117.3595,-25.5001"/>
</g>
<!-- Node116 -->
<g id="node3" class="node">
<title>Node116</title>
<g id="a_node3"><a xlink:href="cond__dgp_8h.html#a48c7c73e5aa6d9537cce1adee006149e" target="_top" xlink:title="cond_dgp_match">
<polygon fill="none" stroke="#000000" points="264.5,-38.5 264.5,-57.5 355.5,-57.5 355.5,-38.5 264.5,-38.5"/>
<text text-anchor="middle" x="310" y="-45.5" font-family="Helvetica,sans-Serif" font-size="10.00" fill="#000000">cond_dgp_match</text>
</a>
</g>
</g>
<!-- Node115&#45;&gt;Node116 -->
<g id="edge2" class="edge">
<title>Node115&#45;&gt;Node116</title>
<path fill="none" stroke="#191970" d="M228.3355,-36.0183C240.0295,-37.7341 252.515,-39.5659 264.1153,-41.2679"/>
<polygon fill="#191970" stroke="#191970" points="228.7071,-32.5355 218.3049,-34.5467 227.6909,-39.4613 228.7071,-32.5355"/>
</g>
<!-- Node118 -->
<g id="node5" class="node">
<title>Node118</title>
<g id="a_node5"><a xlink:href="rule__dgp_8h.html#aec62dcf031f3330a592fb93847819c4e" target="_top" xlink:title="rule_dgp_cond_match">
<polygon fill="none" stroke="#000000" points="254,-.5 254,-19.5 366,-19.5 366,-.5 254,-.5"/>
<text text-anchor="middle" x="310" y="-7.5" font-family="Helvetica,sans-Serif" font-size="10.00" fill="#000000">rule_dgp_cond_match</text>
</a>
</g>
</g>
<!-- Node115&#45;&gt;Node118 -->
<g id="edge4" class="edge">
<title>Node115&#45;&gt;Node118</title>
<path fill="none" stroke="#191970" d="M228.4389,-21.9665C236.6368,-20.7637 245.2209,-19.5043 253.6144,-18.2728"/>
<polygon fill="#191970" stroke="#191970" points="227.6909,-18.5387 218.3049,-23.4533 228.7071,-25.4645 227.6909,-18.5387"/>
</g>
<!-- Node117 -->
<g id="node4" class="node">
<title>Node117</title>
<g id="a_node4"><a xlink:href="cond__dgp_8h.html#a3a7c2f80b0dbb665d8ebc25facbbae43" target="_top" xlink:title="cond_dgp_cover">
<polygon fill="none" stroke="#000000" points="408.5,-38.5 408.5,-57.5 496.5,-57.5 496.5,-38.5 408.5,-38.5"/>
<text text-anchor="middle" x="452.5" y="-45.5" font-family="Helvetica,sans-Serif" font-size="10.00" fill="#000000">cond_dgp_cover</text>
</a>
</g>
</g>
<!-- Node116&#45;&gt;Node117 -->
<g id="edge3" class="edge">
<title>Node116&#45;&gt;Node117</title>
<path fill="none" stroke="#191970" d="M365.9064,-48C379.9343,-48 394.7953,-48 408.1719,-48"/>
<polygon fill="#191970" stroke="#191970" points="365.8723,-44.5001 355.8723,-48 365.8722,-51.5001 365.8723,-44.5001"/>
</g>
<!-- Node119 -->
<g id="node6" class="node">
<title>Node119</title>
<g id="a_node6"><a xlink:href="rule__dgp_8h.html#a78f04dfe1d729861612db2583dd4303d" target="_top" xlink:title="rule_dgp_act_cover">
<polygon fill="none" stroke="#000000" points="402,-.5 402,-19.5 503,-19.5 503,-.5 402,-.5"/>
<text text-anchor="middle" x="452.5" y="-7.5" font-family="Helvetica,sans-Serif" font-size="10.00" fill="#000000">rule_dgp_act_cover</text>
</a>
</g>
</g>
<!-- Node118&#45;&gt;Node119 -->
<g id="edge5" class="edge">
<title>Node118&#45;&gt;Node119</title>
<path fill="none" stroke="#191970" d="M376.5474,-10C384.9945,-10 393.5301,-10 401.6766,-10"/>
<polygon fill="#191970" stroke="#191970" points="376.3198,-6.5001 366.3198,-10 376.3197,-13.5001 376.3198,-6.5001"/>
</g>
</g>
</svg>
