<?xml version="1.0" encoding="UTF-8" standalone="no"?>
<!DOCTYPE svg PUBLIC "-//W3C//DTD SVG 1.1//EN"
 "http://www.w3.org/Graphics/SVG/1.1/DTD/svg11.dtd">
<!-- Generated by graphviz version 2.40.1 (20161225.0304)
 -->
<!-- Title: dgp.c Pages: 1 -->
<svg width="635pt" height="84pt"
 viewBox="0.00 0.00 634.50 84.00" xmlns="http://www.w3.org/2000/svg" xmlns:xlink="http://www.w3.org/1999/xlink">
<g id="graph0" class="graph" transform="scale(1 1) rotate(0) translate(4 80)">
<title>dgp.c</title>
<!-- Node0 -->
<g id="node1" class="node">
<title>Node0</title>
<polygon fill="#bfbfbf" stroke="#000000" points="306.5,-56.5 306.5,-75.5 347.5,-75.5 347.5,-56.5 306.5,-56.5"/>
<text text-anchor="middle" x="327" y="-63.5" font-family="Helvetica,sans-Serif" font-size="10.00" fill="#000000">dgp.c</text>
</g>
<!-- Node1 -->
<g id="node2" class="node">
<title>Node1</title>
<polygon fill="none" stroke="#bfbfbf" points="0,-.5 0,-19.5 46,-19.5 46,-.5 0,-.5"/>
<text text-anchor="middle" x="23" y="-7.5" font-family="Helvetica,sans-Serif" font-size="10.00" fill="#000000">stdio.h</text>
</g>
<!-- Node0&#45;&gt;Node1 -->
<g id="edge1" class="edge">
<title>Node0&#45;&gt;Node1</title>
<path fill="none" stroke="#191970" d="M306.3354,-63.4774C262.1051,-57.8735 154.8925,-43.1982 56.1505,-20.0298"/>
<polygon fill="#191970" stroke="#191970" points="56.8559,-16.6 46.317,-17.6871 55.2336,-23.4095 56.8559,-16.6"/>
</g>
<!-- Node2 -->
<g id="node3" class="node">
<title>Node2</title>
<polygon fill="none" stroke="#bfbfbf" points="64,-.5 64,-19.5 112,-19.5 112,-.5 64,-.5"/>
<text text-anchor="middle" x="88" y="-7.5" font-family="Helvetica,sans-Serif" font-size="10.00" fill="#000000">stdlib.h</text>
</g>
<!-- Node0&#45;&gt;Node2 -->
<g id="edge2" class="edge">
<title>Node0&#45;&gt;Node2</title>
<path fill="none" stroke="#191970" d="M306.4108,-61.9324C270.7942,-54.7837 195.2068,-39.1188 121.942,-20.1074"/>
<polygon fill="#191970" stroke="#191970" points="122.6521,-16.6753 112.0916,-17.5269 120.8782,-23.4468 122.6521,-16.6753"/>
</g>
<!-- Node3 -->
<g id="node4" class="node">
<title>Node3</title>
<polygon fill="none" stroke="#bfbfbf" points="130,-.5 130,-19.5 186,-19.5 186,-.5 130,-.5"/>
<text text-anchor="middle" x="158" y="-7.5" font-family="Helvetica,sans-Serif" font-size="10.00" fill="#000000">stdbool.h</text>
</g>
<!-- Node0&#45;&gt;Node3 -->
<g id="edge3" class="edge">
<title>Node0&#45;&gt;Node3</title>
<path fill="none" stroke="#191970" d="M306.2773,-59.1333C278.8415,-50.0422 229.9604,-33.8449 195.8501,-22.5421"/>
<polygon fill="#191970" stroke="#191970" points="196.8088,-19.1726 186.2154,-19.3495 194.6069,-25.8173 196.8088,-19.1726"/>
</g>
<!-- Node4 -->
<g id="node5" class="node">
<title>Node4</title>
<polygon fill="none" stroke="#bfbfbf" points="204.5,-.5 204.5,-19.5 253.5,-19.5 253.5,-.5 204.5,-.5"/>
<text text-anchor="middle" x="229" y="-7.5" font-family="Helvetica,sans-Serif" font-size="10.00" fill="#000000">string.h</text>
</g>
<!-- Node0&#45;&gt;Node4 -->
<g id="edge4" class="edge">
<title>Node0&#45;&gt;Node4</title>
<path fill="none" stroke="#191970" d="M309.9297,-56.2455C294.753,-47.5731 272.3379,-34.7645 254.9437,-24.825"/>
<polygon fill="#191970" stroke="#191970" points="256.2936,-21.5653 245.8747,-19.6427 252.8206,-27.643 256.2936,-21.5653"/>
</g>
<!-- Node5 -->
<g id="node6" class="node">
<title>Node5</title>
<polygon fill="none" stroke="#bfbfbf" points="271.5,-.5 271.5,-19.5 318.5,-19.5 318.5,-.5 271.5,-.5"/>
<text text-anchor="middle" x="295" y="-7.5" font-family="Helvetica,sans-Serif" font-size="10.00" fill="#000000">math.h</text>
</g>
<!-- Node0&#45;&gt;Node5 -->
<g id="edge5" class="edge">
<title>Node0&#45;&gt;Node5</title>
<path fill="none" stroke="#191970" d="M321.426,-56.2455C317.0669,-48.617 310.8789,-37.7881 305.5867,-28.5267"/>
<polygon fill="#191970" stroke="#191970" points="308.5104,-26.5886 300.5101,-19.6427 302.4327,-30.0616 308.5104,-26.5886"/>
</g>
<!-- Node6 -->
<g id="node7" class="node">
<title>Node6</title>
<polygon fill="none" stroke="#bfbfbf" points="337,-.5 337,-19.5 381,-19.5 381,-.5 337,-.5"/>
<text text-anchor="middle" x="359" y="-7.5" font-family="Helvetica,sans-Serif" font-size="10.00" fill="#000000">float.h</text>
</g>
<!-- Node0&#45;&gt;Node6 -->
<g id="edge6" class="edge">
<title>Node0&#45;&gt;Node6</title>
<path fill="none" stroke="#191970" d="M332.574,-56.2455C336.9331,-48.617 343.1211,-37.7881 348.4133,-28.5267"/>
<polygon fill="#191970" stroke="#191970" points="351.5673,-30.0616 353.4899,-19.6427 345.4896,-26.5886 351.5673,-30.0616"/>
</g>
<!-- Node7 -->
<g id="node8" class="node">
<title>Node7</title>
<g id="a_node8"><a xlink:href="xcsf_8h.html" target="_top" xlink:title="XCSF data structures. ">
<polygon fill="none" stroke="#000000" points="399,-.5 399,-19.5 443,-19.5 443,-.5 399,-.5"/>
<text text-anchor="middle" x="421" y="-7.5" font-family="Helvetica,sans-Serif" font-size="10.00" fill="#000000">xcsf.h</text>
</a>
</g>
</g>
<!-- Node0&#45;&gt;Node7 -->
<g id="edge7" class="edge">
<title>Node0&#45;&gt;Node7</title>
<path fill="none" stroke="#191970" d="M343.3736,-56.2455C357.9308,-47.5731 379.431,-34.7645 396.1152,-24.825"/>
<polygon fill="#191970" stroke="#191970" points="398.0144,-27.7676 404.8141,-19.6427 394.4317,-21.7539 398.0144,-27.7676"/>
</g>
<!-- Node8 -->
<g id="node9" class="node">
<title>Node8</title>
<g id="a_node9"><a xlink:href="utils_8h.html" target="_top" xlink:title="Utility functions for random number handling, etc. ">
<polygon fill="none" stroke="#000000" points="461.5,-.5 461.5,-19.5 504.5,-19.5 504.5,-.5 461.5,-.5"/>
<text text-anchor="middle" x="483" y="-7.5" font-family="Helvetica,sans-Serif" font-size="10.00" fill="#000000">utils.h</text>
</a>
</g>
</g>
<!-- Node0&#45;&gt;Node8 -->
<g id="edge8" class="edge">
<title>Node0&#45;&gt;Node8</title>
<path fill="none" stroke="#191970" d="M347.7156,-58.5636C374.4146,-48.9794 421.0706,-32.2311 452.0017,-21.1276"/>
<polygon fill="#191970" stroke="#191970" points="453.2171,-24.4101 461.4465,-17.7372 450.852,-17.8217 453.2171,-24.4101"/>
</g>
<!-- Node9 -->
<g id="node10" class="node">
<title>Node9</title>
<g id="a_node10"><a xlink:href="sam_8h.html" target="_top" xlink:title="Self&#45;adaptive mutation functions. ">
<polygon fill="none" stroke="#000000" points="523,-.5 523,-19.5 567,-19.5 567,-.5 523,-.5"/>
<text text-anchor="middle" x="545" y="-7.5" font-family="Helvetica,sans-Serif" font-size="10.00" fill="#000000">sam.h</text>
</a>
</g>
</g>
<!-- Node0&#45;&gt;Node9 -->
<g id="edge9" class="edge">
<title>Node0&#45;&gt;Node9</title>
<path fill="none" stroke="#191970" d="M347.6015,-61.435C380.563,-54.0245 447.3651,-38.5687 513.0306,-20.1399"/>
<polygon fill="#191970" stroke="#191970" points="514.0385,-23.4922 522.7065,-17.3999 512.1312,-16.757 514.0385,-23.4922"/>
</g>
<!-- Node10 -->
<g id="node11" class="node">
<title>Node10</title>
<g id="a_node11"><a xlink:href="dgp_8h.html" target="_top" xlink:title="An implementation of dynamical GP graphs with fuzzy activation functions. ">
<polygon fill="none" stroke="#000000" points="585.5,-.5 585.5,-19.5 626.5,-19.5 626.5,-.5 585.5,-.5"/>
<text text-anchor="middle" x="606" y="-7.5" font-family="Helvetica,sans-Serif" font-size="10.00" fill="#000000">dgp.h</text>
</a>
</g>
</g>
<!-- Node0&#45;&gt;Node10 -->
<g id="edge10" class="edge">
<title>Node0&#45;&gt;Node10</title>
<path fill="none" stroke="#191970" d="M347.544,-63.1938C388.904,-57.3361 485.2557,-42.6395 575.6062,-19.7961"/>
<polygon fill="#191970" stroke="#191970" points="576.6406,-23.1441 585.4557,-17.2666 574.8993,-16.3641 576.6406,-23.1441"/>
</g>
</g>
</svg>
