<?xml version="1.0" encoding="UTF-8" standalone="no"?>
<!DOCTYPE svg PUBLIC "-//W3C//DTD SVG 1.1//EN"
 "http://www.w3.org/Graphics/SVG/1.1/DTD/svg11.dtd">
<!-- Generated by graphviz version 2.40.1 (20161225.0304)
 -->
<!-- Title: genrand_close_open Pages: 1 -->
<svg width="865pt" height="39pt"
 viewBox="0.00 0.00 865.00 39.00" xmlns="http://www.w3.org/2000/svg" xmlns:xlink="http://www.w3.org/1999/xlink">
<g id="graph0" class="graph" transform="scale(1 1) rotate(0) translate(4 35)">
<title>genrand_close_open</title>
<!-- Node661 -->
<g id="node1" class="node">
<title>Node661</title>
<polygon fill="#bfbfbf" stroke="#000000" points="0,-6 0,-25 106,-25 106,-6 0,-6"/>
<text text-anchor="middle" x="53" y="-13" font-family="Helvetica,sans-Serif" font-size="10.00" fill="#000000">genrand_close_open</text>
</g>
<!-- Node662 -->
<g id="node2" class="node">
<title>Node662</title>
<g id="a_node2"><a xlink:href="dSFMT_8h.html#ae57b11ef3fdcf04e84fc0298166aab82" target="_top" xlink:title="dsfmt_gv_genrand_close_open">
<polygon fill="none" stroke="#000000" points="142,-6 142,-25 294,-25 294,-6 142,-6"/>
<text text-anchor="middle" x="218" y="-13" font-family="Helvetica,sans-Serif" font-size="10.00" fill="#000000">dsfmt_gv_genrand_close_open</text>
</a>
</g>
</g>
<!-- Node661&#45;&gt;Node662 -->
<g id="edge1" class="edge">
<title>Node661&#45;&gt;Node662</title>
<path fill="none" stroke="#191970" d="M106.1153,-15.5C114.3085,-15.5 122.9464,-15.5 131.6417,-15.5"/>
<polygon fill="#191970" stroke="#191970" points="131.8523,-19.0001 141.8522,-15.5 131.8522,-12.0001 131.8523,-19.0001"/>
</g>
<!-- Node663 -->
<g id="node3" class="node">
<title>Node663</title>
<g id="a_node3"><a xlink:href="dSFMT_8h.html#af298572e9f2449e59ddf486977006621" target="_top" xlink:title="dsfmt_gv_genrand_close1\l_open2">
<polygon fill="none" stroke="#000000" points="330,-.5 330,-30.5 461,-30.5 461,-.5 330,-.5"/>
<text text-anchor="start" x="338" y="-18.5" font-family="Helvetica,sans-Serif" font-size="10.00" fill="#000000">dsfmt_gv_genrand_close1</text>
<text text-anchor="middle" x="395.5" y="-7.5" font-family="Helvetica,sans-Serif" font-size="10.00" fill="#000000">_open2</text>
</a>
</g>
</g>
<!-- Node662&#45;&gt;Node663 -->
<g id="edge2" class="edge">
<title>Node662&#45;&gt;Node663</title>
<path fill="none" stroke="#191970" d="M294.0484,-15.5C302.5441,-15.5 311.1984,-15.5 319.6911,-15.5"/>
<polygon fill="#191970" stroke="#191970" points="319.9488,-19.0001 329.9487,-15.5 319.9487,-12.0001 319.9488,-19.0001"/>
</g>
<!-- Node664 -->
<g id="node4" class="node">
<title>Node664</title>
<g id="a_node4"><a xlink:href="dSFMT_8h.html#ae9bb29b63c46e57725dffa776cf930e7" target="_top" xlink:title="dsfmt_genrand_close1\l_open2">
<polygon fill="none" stroke="#000000" points="497,-.5 497,-30.5 612,-30.5 612,-.5 497,-.5"/>
<text text-anchor="start" x="505" y="-18.5" font-family="Helvetica,sans-Serif" font-size="10.00" fill="#000000">dsfmt_genrand_close1</text>
<text text-anchor="middle" x="554.5" y="-7.5" font-family="Helvetica,sans-Serif" font-size="10.00" fill="#000000">_open2</text>
</a>
</g>
</g>
<!-- Node663&#45;&gt;Node664 -->
<g id="edge3" class="edge">
<title>Node663&#45;&gt;Node664</title>
<path fill="none" stroke="#191970" d="M461.0894,-15.5C469.5428,-15.5 478.2128,-15.5 486.7009,-15.5"/>
<polygon fill="#191970" stroke="#191970" points="486.9376,-19.0001 496.9375,-15.5 486.9375,-12.0001 486.9376,-19.0001"/>
</g>
<!-- Node665 -->
<g id="node5" class="node">
<title>Node665</title>
<g id="a_node5"><a xlink:href="dSFMT_8h.html#afccb1e4d75cea7ffe3b45cba53d1e5e0" target="_top" xlink:title="dsfmt_gen_rand_all">
<polygon fill="none" stroke="#000000" points="648,-6 648,-25 749,-25 749,-6 648,-6"/>
<text text-anchor="middle" x="698.5" y="-13" font-family="Helvetica,sans-Serif" font-size="10.00" fill="#000000">dsfmt_gen_rand_all</text>
</a>
</g>
</g>
<!-- Node664&#45;&gt;Node665 -->
<g id="edge4" class="edge">
<title>Node664&#45;&gt;Node665</title>
<path fill="none" stroke="#191970" d="M612.2406,-15.5C620.5848,-15.5 629.1951,-15.5 637.5988,-15.5"/>
<polygon fill="#191970" stroke="#191970" points="637.7152,-19.0001 647.7152,-15.5 637.7151,-12.0001 637.7152,-19.0001"/>
</g>
<!-- Node666 -->
<g id="node6" class="node">
<title>Node666</title>
<g id="a_node6"><a xlink:href="dSFMT-common_8h.html#a43e33e2235015c9c072bad7dfe1a282c" target="_top" xlink:title="do_recursion">
<polygon fill="none" stroke="#000000" points="785,-6 785,-25 857,-25 857,-6 785,-6"/>
<text text-anchor="middle" x="821" y="-13" font-family="Helvetica,sans-Serif" font-size="10.00" fill="#000000">do_recursion</text>
</a>
</g>
</g>
<!-- Node665&#45;&gt;Node666 -->
<g id="edge5" class="edge">
<title>Node665&#45;&gt;Node666</title>
<path fill="none" stroke="#191970" d="M749.0327,-15.5C757.5603,-15.5 766.3741,-15.5 774.7846,-15.5"/>
<polygon fill="#191970" stroke="#191970" points="774.7975,-19.0001 784.7974,-15.5 774.7974,-12.0001 774.7975,-19.0001"/>
</g>
</g>
</svg>
