<?xml version="1.0" encoding="UTF-8" standalone="no"?>
<!DOCTYPE svg PUBLIC "-//W3C//DTD SVG 1.1//EN"
 "http://www.w3.org/Graphics/SVG/1.1/DTD/svg11.dtd">
<!-- Generated by graphviz version 2.40.1 (20161225.0304)
 -->
<!-- Title: dsfmt_gv_genrand_close1_open2 Pages: 1 -->
<svg width="741pt" height="113pt"
 viewBox="0.00 0.00 741.00 113.00" xmlns="http://www.w3.org/2000/svg" xmlns:xlink="http://www.w3.org/1999/xlink">
<g id="graph0" class="graph" transform="scale(1 1) rotate(0) translate(4 109)">
<title>dsfmt_gv_genrand_close1_open2</title>
<!-- Node371 -->
<g id="node1" class="node">
<title>Node371</title>
<polygon fill="#bfbfbf" stroke="#000000" points="0,-36 0,-66 131,-66 131,-36 0,-36"/>
<text text-anchor="start" x="8" y="-54" font-family="Helvetica,sans-Serif" font-size="10.00" fill="#000000">dsfmt_gv_genrand_close1</text>
<text text-anchor="middle" x="65.5" y="-43" font-family="Helvetica,sans-Serif" font-size="10.00" fill="#000000">_open2</text>
</g>
<!-- Node372 -->
<g id="node2" class="node">
<title>Node372</title>
<g id="a_node2"><a xlink:href="dSFMT_8h.html#ae57b11ef3fdcf04e84fc0298166aab82" target="_top" xlink:title="dsfmt_gv_genrand_close_open">
<polygon fill="none" stroke="#000000" points="167,-85.5 167,-104.5 319,-104.5 319,-85.5 167,-85.5"/>
<text text-anchor="middle" x="243" y="-92.5" font-family="Helvetica,sans-Serif" font-size="10.00" fill="#000000">dsfmt_gv_genrand_close_open</text>
</a>
</g>
</g>
<!-- Node371&#45;&gt;Node372 -->
<g id="edge1" class="edge">
<title>Node371&#45;&gt;Node372</title>
<path fill="none" stroke="#191970" d="M135.9919,-68.4741C159.3988,-74.2763 184.5766,-80.5176 204.626,-85.4876"/>
<polygon fill="#191970" stroke="#191970" points="136.6374,-65.0282 126.089,-66.0192 134.9531,-71.8225 136.6374,-65.0282"/>
</g>
<!-- Node376 -->
<g id="node6" class="node">
<title>Node376</title>
<g id="a_node6"><a xlink:href="dSFMT_8h.html#afcdb7f3f26ca2d4a8f4e3854209fd4dd" target="_top" xlink:title="dsfmt_gv_genrand_open\l_close">
<polygon fill="none" stroke="#000000" points="181.5,-36 181.5,-66 304.5,-66 304.5,-36 181.5,-36"/>
<text text-anchor="start" x="189.5" y="-54" font-family="Helvetica,sans-Serif" font-size="10.00" fill="#000000">dsfmt_gv_genrand_open</text>
<text text-anchor="middle" x="243" y="-43" font-family="Helvetica,sans-Serif" font-size="10.00" fill="#000000">_close</text>
</a>
</g>
</g>
<!-- Node371&#45;&gt;Node376 -->
<g id="edge6" class="edge">
<title>Node371&#45;&gt;Node376</title>
<path fill="none" stroke="#191970" d="M141.1996,-51C154.5494,-51 168.3018,-51 181.213,-51"/>
<polygon fill="#191970" stroke="#191970" points="141.0902,-47.5001 131.0901,-51 141.0901,-54.5001 141.0902,-47.5001"/>
</g>
<!-- Node378 -->
<g id="node8" class="node">
<title>Node378</title>
<g id="a_node8"><a xlink:href="dSFMT_8h.html#a01bce92db767a0f976b56f88f8f89515" target="_top" xlink:title="genrand_close1_open2">
<polygon fill="none" stroke="#000000" points="355,-.5 355,-19.5 471,-19.5 471,-.5 355,-.5"/>
<text text-anchor="middle" x="413" y="-7.5" font-family="Helvetica,sans-Serif" font-size="10.00" fill="#000000">genrand_close1_open2</text>
</a>
</g>
</g>
<!-- Node371&#45;&gt;Node378 -->
<g id="edge9" class="edge">
<title>Node371&#45;&gt;Node378</title>
<path fill="none" stroke="#191970" d="M128.8059,-33.5845C141.3806,-30.6426 154.546,-27.9233 167,-26 230.6572,-16.1691 304.4889,-12.3674 354.5311,-10.9035"/>
<polygon fill="#191970" stroke="#191970" points="127.7732,-30.2331 118.8728,-35.9806 129.4147,-37.0379 127.7732,-30.2331"/>
</g>
<!-- Node373 -->
<g id="node3" class="node">
<title>Node373</title>
<g id="a_node3"><a xlink:href="dSFMT_8h.html#a188b24295a56aa56f823c7dfb0615971" target="_top" xlink:title="genrand_close_open">
<polygon fill="none" stroke="#000000" points="360,-82.5 360,-101.5 466,-101.5 466,-82.5 360,-82.5"/>
<text text-anchor="middle" x="413" y="-89.5" font-family="Helvetica,sans-Serif" font-size="10.00" fill="#000000">genrand_close_open</text>
</a>
</g>
</g>
<!-- Node372&#45;&gt;Node373 -->
<g id="edge2" class="edge">
<title>Node372&#45;&gt;Node373</title>
<path fill="none" stroke="#191970" d="M329.1051,-93.4805C339.6073,-93.2952 350.0871,-93.1102 359.9029,-92.937"/>
<polygon fill="#191970" stroke="#191970" points="328.9866,-89.9819 319.0499,-93.6579 329.1102,-96.9809 328.9866,-89.9819"/>
</g>
<!-- Node374 -->
<g id="node4" class="node">
<title>Node374</title>
<g id="a_node4"><a xlink:href="dSFMT_8h.html#a4f989ee92f5e4c8f71570dbb9d19e838" target="_top" xlink:title="dsfmt_gv_init_by_array">
<polygon fill="none" stroke="#000000" points="507,-41.5 507,-60.5 625,-60.5 625,-41.5 507,-41.5"/>
<text text-anchor="middle" x="566" y="-48.5" font-family="Helvetica,sans-Serif" font-size="10.00" fill="#000000">dsfmt_gv_init_by_array</text>
</a>
</g>
</g>
<!-- Node373&#45;&gt;Node374 -->
<g id="edge3" class="edge">
<title>Node373&#45;&gt;Node374</title>
<path fill="none" stroke="#191970" d="M458.3774,-79.84C481.4073,-73.6686 508.9738,-66.2815 530.4419,-60.5286"/>
<polygon fill="#191970" stroke="#191970" points="457.2391,-76.5215 448.4858,-82.4907 459.051,-83.283 457.2391,-76.5215"/>
</g>
<!-- Node375 -->
<g id="node5" class="node">
<title>Node375</title>
<g id="a_node5"><a xlink:href="dSFMT_8h.html#a5f12cfe61e34b29a9c4f88f097712205" target="_top" xlink:title="init_by_array">
<polygon fill="none" stroke="#000000" points="661,-41.5 661,-60.5 733,-60.5 733,-41.5 661,-41.5"/>
<text text-anchor="middle" x="697" y="-48.5" font-family="Helvetica,sans-Serif" font-size="10.00" fill="#000000">init_by_array</text>
</a>
</g>
</g>
<!-- Node374&#45;&gt;Node375 -->
<g id="edge4" class="edge">
<title>Node374&#45;&gt;Node375</title>
<path fill="none" stroke="#191970" d="M635.5642,-44.2616C644.2443,-44.311 652.8288,-44.5191 660.7049,-44.8857"/>
<polygon fill="#191970" stroke="#191970" points="635.3622,-40.7618 625.3674,-44.2764 635.3725,-47.7617 635.3622,-40.7618"/>
</g>
<!-- Node375&#45;&gt;Node374 -->
<g id="edge5" class="edge">
<title>Node375&#45;&gt;Node374</title>
<path fill="none" stroke="#191970" d="M650.626,-57.4874C642.4509,-57.718 633.8401,-57.7967 625.3674,-57.7236"/>
<polygon fill="#191970" stroke="#191970" points="650.8413,-60.982 660.7049,-57.1143 650.5822,-53.9868 650.8413,-60.982"/>
</g>
<!-- Node377 -->
<g id="node7" class="node">
<title>Node377</title>
<g id="a_node7"><a xlink:href="dSFMT_8h.html#ab24d54ba54b0249c02200a7f3232b342" target="_top" xlink:title="genrand_open_close">
<polygon fill="none" stroke="#000000" points="360,-41.5 360,-60.5 466,-60.5 466,-41.5 360,-41.5"/>
<text text-anchor="middle" x="413" y="-48.5" font-family="Helvetica,sans-Serif" font-size="10.00" fill="#000000">genrand_open_close</text>
</a>
</g>
</g>
<!-- Node376&#45;&gt;Node377 -->
<g id="edge7" class="edge">
<title>Node376&#45;&gt;Node377</title>
<path fill="none" stroke="#191970" d="M315.1361,-51C330.1476,-51 345.7071,-51 359.8829,-51"/>
<polygon fill="#191970" stroke="#191970" points="314.8548,-47.5001 304.8548,-51 314.8548,-54.5001 314.8548,-47.5001"/>
</g>
<!-- Node377&#45;&gt;Node374 -->
<g id="edge8" class="edge">
<title>Node377&#45;&gt;Node374</title>
<path fill="none" stroke="#191970" d="M476.1516,-51C486.3578,-51 496.891,-51 506.9941,-51"/>
<polygon fill="#191970" stroke="#191970" points="476.0826,-47.5001 466.0826,-51 476.0826,-54.5001 476.0826,-47.5001"/>
</g>
<!-- Node378&#45;&gt;Node374 -->
<g id="edge10" class="edge">
<title>Node378&#45;&gt;Node374</title>
<path fill="none" stroke="#191970" d="M458.3774,-22.16C481.4073,-28.3314 508.9738,-35.7185 530.4419,-41.4714"/>
<polygon fill="#191970" stroke="#191970" points="459.051,-18.717 448.4858,-19.5093 457.2391,-25.4785 459.051,-18.717"/>
</g>
</g>
</svg>
