<?xml version="1.0" encoding="UTF-8" standalone="no"?>
<!DOCTYPE svg PUBLIC "-//W3C//DTD SVG 1.1//EN"
 "http://www.w3.org/Graphics/SVG/1.1/DTD/svg11.dtd">
<!-- Generated by graphviz version 2.40.1 (20161225.0304)
 -->
<!-- Title: dsfmt_gv_fill_array_open_close Pages: 1 -->
<svg width="510pt" height="66pt"
 viewBox="0.00 0.00 510.00 66.00" xmlns="http://www.w3.org/2000/svg" xmlns:xlink="http://www.w3.org/1999/xlink">
<g id="graph0" class="graph" transform="scale(1 1) rotate(0) translate(4 62)">
<title>dsfmt_gv_fill_array_open_close</title>
<!-- Node349 -->
<g id="node1" class="node">
<title>Node349</title>
<polygon fill="#bfbfbf" stroke="#000000" points="0,-14 0,-44 99,-44 99,-14 0,-14"/>
<text text-anchor="start" x="8" y="-32" font-family="Helvetica,sans-Serif" font-size="10.00" fill="#000000">dsfmt_gv_fill_array</text>
<text text-anchor="middle" x="49.5" y="-21" font-family="Helvetica,sans-Serif" font-size="10.00" fill="#000000">_open_close</text>
</g>
<!-- Node350 -->
<g id="node2" class="node">
<title>Node350</title>
<g id="a_node2"><a xlink:href="dSFMT_8h.html#a6ad6f12b9a47ea89ceab693b1eec5079" target="_top" xlink:title="dsfmt_fill_array_open\l_close">
<polygon fill="none" stroke="#000000" points="135,-14 135,-44 245,-44 245,-14 135,-14"/>
<text text-anchor="start" x="143" y="-32" font-family="Helvetica,sans-Serif" font-size="10.00" fill="#000000">dsfmt_fill_array_open</text>
<text text-anchor="middle" x="190" y="-21" font-family="Helvetica,sans-Serif" font-size="10.00" fill="#000000">_close</text>
</a>
</g>
</g>
<!-- Node349&#45;&gt;Node350 -->
<g id="edge1" class="edge">
<title>Node349&#45;&gt;Node350</title>
<path fill="none" stroke="#191970" d="M99.035,-29C107.3257,-29 116.039,-29 124.6536,-29"/>
<polygon fill="#191970" stroke="#191970" points="124.6897,-32.5001 134.6897,-29 124.6897,-25.5001 124.6897,-32.5001"/>
</g>
<!-- Node351 -->
<g id="node3" class="node">
<title>Node351</title>
<g id="a_node3"><a xlink:href="dSFMT_8c.html#a0905d57b8333da366b25773f0b3c5326" target="_top" xlink:title="gen_rand_array_o0c1">
<polygon fill="none" stroke="#000000" points="281,-19.5 281,-38.5 391,-38.5 391,-19.5 281,-19.5"/>
<text text-anchor="middle" x="336" y="-26.5" font-family="Helvetica,sans-Serif" font-size="10.00" fill="#000000">gen_rand_array_o0c1</text>
</a>
</g>
</g>
<!-- Node350&#45;&gt;Node351 -->
<g id="edge2" class="edge">
<title>Node350&#45;&gt;Node351</title>
<path fill="none" stroke="#191970" d="M245.1963,-29C253.4633,-29 262.0546,-29 270.5101,-29"/>
<polygon fill="#191970" stroke="#191970" points="270.7256,-32.5001 280.7256,-29 270.7256,-25.5001 270.7256,-32.5001"/>
</g>
<!-- Node352 -->
<g id="node4" class="node">
<title>Node352</title>
<g id="a_node4"><a xlink:href="dSFMT_8c.html#a6c110f420568ad02e2709f790d3178ef" target="_top" xlink:title="convert_o0c1">
<polygon fill="none" stroke="#000000" points="427,-38.5 427,-57.5 502,-57.5 502,-38.5 427,-38.5"/>
<text text-anchor="middle" x="464.5" y="-45.5" font-family="Helvetica,sans-Serif" font-size="10.00" fill="#000000">convert_o0c1</text>
</a>
</g>
</g>
<!-- Node351&#45;&gt;Node352 -->
<g id="edge3" class="edge">
<title>Node351&#45;&gt;Node352</title>
<path fill="none" stroke="#191970" d="M391.2413,-37.168C399.7527,-38.4265 408.4793,-39.7168 416.8076,-40.9482"/>
<polygon fill="#191970" stroke="#191970" points="416.323,-44.4145 426.7274,-42.4149 417.3469,-37.4898 416.323,-44.4145"/>
</g>
<!-- Node353 -->
<g id="node5" class="node">
<title>Node353</title>
<g id="a_node5"><a xlink:href="dSFMT-common_8h.html#a43e33e2235015c9c072bad7dfe1a282c" target="_top" xlink:title="do_recursion">
<polygon fill="none" stroke="#000000" points="428.5,-.5 428.5,-19.5 500.5,-19.5 500.5,-.5 428.5,-.5"/>
<text text-anchor="middle" x="464.5" y="-7.5" font-family="Helvetica,sans-Serif" font-size="10.00" fill="#000000">do_recursion</text>
</a>
</g>
</g>
<!-- Node351&#45;&gt;Node353 -->
<g id="edge4" class="edge">
<title>Node351&#45;&gt;Node353</title>
<path fill="none" stroke="#191970" d="M391.2413,-20.832C400.2374,-19.5019 409.4738,-18.1362 418.2263,-16.842"/>
<polygon fill="#191970" stroke="#191970" points="418.8547,-20.2873 428.2352,-15.3621 417.8307,-13.3625 418.8547,-20.2873"/>
</g>
</g>
</svg>
