<?xml version="1.0" encoding="UTF-8" standalone="no"?>
<!DOCTYPE svg PUBLIC "-//W3C//DTD SVG 1.1//EN"
 "http://www.w3.org/Graphics/SVG/1.1/DTD/svg11.dtd">
<!-- Generated by graphviz version 2.40.1 (20161225.0304)
 -->
<!-- Title: dsfmt_fill_array_open_close Pages: 1 -->
<svg width="375pt" height="66pt"
 viewBox="0.00 0.00 375.00 66.00" xmlns="http://www.w3.org/2000/svg" xmlns:xlink="http://www.w3.org/1999/xlink">
<g id="graph0" class="graph" transform="scale(1 1) rotate(0) translate(4 62)">
<title>dsfmt_fill_array_open_close</title>
<!-- Node100 -->
<g id="node1" class="node">
<title>Node100</title>
<polygon fill="#bfbfbf" stroke="#000000" points="0,-14 0,-44 110,-44 110,-14 0,-14"/>
<text text-anchor="start" x="8" y="-32" font-family="Helvetica,sans-Serif" font-size="10.00" fill="#000000">dsfmt_fill_array_open</text>
<text text-anchor="middle" x="55" y="-21" font-family="Helvetica,sans-Serif" font-size="10.00" fill="#000000">_close</text>
</g>
<!-- Node101 -->
<g id="node2" class="node">
<title>Node101</title>
<g id="a_node2"><a xlink:href="dSFMT_8c.html#a0905d57b8333da366b25773f0b3c5326" target="_top" xlink:title="gen_rand_array_o0c1">
<polygon fill="none" stroke="#000000" points="146,-19.5 146,-38.5 256,-38.5 256,-19.5 146,-19.5"/>
<text text-anchor="middle" x="201" y="-26.5" font-family="Helvetica,sans-Serif" font-size="10.00" fill="#000000">gen_rand_array_o0c1</text>
</a>
</g>
</g>
<!-- Node100&#45;&gt;Node101 -->
<g id="edge1" class="edge">
<title>Node100&#45;&gt;Node101</title>
<path fill="none" stroke="#191970" d="M110.1963,-29C118.4633,-29 127.0546,-29 135.5101,-29"/>
<polygon fill="#191970" stroke="#191970" points="135.7256,-32.5001 145.7256,-29 135.7256,-25.5001 135.7256,-32.5001"/>
</g>
<!-- Node102 -->
<g id="node3" class="node">
<title>Node102</title>
<g id="a_node3"><a xlink:href="dSFMT-common_8h.html#a43e33e2235015c9c072bad7dfe1a282c" target="_top" xlink:title="do_recursion">
<polygon fill="none" stroke="#000000" points="293.5,-38.5 293.5,-57.5 365.5,-57.5 365.5,-38.5 293.5,-38.5"/>
<text text-anchor="middle" x="329.5" y="-45.5" font-family="Helvetica,sans-Serif" font-size="10.00" fill="#000000">do_recursion</text>
</a>
</g>
</g>
<!-- Node101&#45;&gt;Node102 -->
<g id="edge2" class="edge">
<title>Node101&#45;&gt;Node102</title>
<path fill="none" stroke="#191970" d="M256.2413,-37.168C265.2374,-38.4981 274.4738,-39.8638 283.2263,-41.158"/>
<polygon fill="#191970" stroke="#191970" points="282.8307,-44.6375 293.2352,-42.6379 283.8547,-37.7127 282.8307,-44.6375"/>
</g>
<!-- Node103 -->
<g id="node4" class="node">
<title>Node103</title>
<g id="a_node4"><a xlink:href="dSFMT_8c.html#a6c110f420568ad02e2709f790d3178ef" target="_top" xlink:title="convert_o0c1">
<polygon fill="none" stroke="#000000" points="292,-.5 292,-19.5 367,-19.5 367,-.5 292,-.5"/>
<text text-anchor="middle" x="329.5" y="-7.5" font-family="Helvetica,sans-Serif" font-size="10.00" fill="#000000">convert_o0c1</text>
</a>
</g>
</g>
<!-- Node101&#45;&gt;Node103 -->
<g id="edge3" class="edge">
<title>Node101&#45;&gt;Node103</title>
<path fill="none" stroke="#191970" d="M256.2413,-20.832C264.7527,-19.5735 273.4793,-18.2832 281.8076,-17.0518"/>
<polygon fill="#191970" stroke="#191970" points="282.3469,-20.5102 291.7274,-15.5851 281.323,-13.5855 282.3469,-20.5102"/>
</g>
</g>
</svg>
