<?xml version="1.0" encoding="UTF-8" standalone="no"?>
<!DOCTYPE svg PUBLIC "-//W3C//DTD SVG 1.1//EN"
 "http://www.w3.org/Graphics/SVG/1.1/DTD/svg11.dtd">
<!-- Generated by graphviz version 2.40.1 (20161225.0304)
 -->
<!-- Title: genrand_close_open Pages: 1 -->
<svg width="376pt" height="28pt"
 viewBox="0.00 0.00 376.00 28.00" xmlns="http://www.w3.org/2000/svg" xmlns:xlink="http://www.w3.org/1999/xlink">
<g id="graph0" class="graph" transform="scale(1 1) rotate(0) translate(4 24)">
<title>genrand_close_open</title>
<!-- Node667 -->
<g id="node1" class="node">
<title>Node667</title>
<polygon fill="#bfbfbf" stroke="#000000" points="0,-.5 0,-19.5 106,-19.5 106,-.5 0,-.5"/>
<text text-anchor="middle" x="53" y="-7.5" font-family="Helvetica,sans-Serif" font-size="10.00" fill="#000000">genrand_close_open</text>
</g>
<!-- Node668 -->
<g id="node2" class="node">
<title>Node668</title>
<g id="a_node2"><a xlink:href="dSFMT_8h.html#a4f989ee92f5e4c8f71570dbb9d19e838" target="_top" xlink:title="dsfmt_gv_init_by_array">
<polygon fill="none" stroke="#000000" points="142,-.5 142,-19.5 260,-19.5 260,-.5 142,-.5"/>
<text text-anchor="middle" x="201" y="-7.5" font-family="Helvetica,sans-Serif" font-size="10.00" fill="#000000">dsfmt_gv_init_by_array</text>
</a>
</g>
</g>
<!-- Node667&#45;&gt;Node668 -->
<g id="edge1" class="edge">
<title>Node667&#45;&gt;Node668</title>
<path fill="none" stroke="#191970" d="M116.2407,-10C124.7291,-10 133.4105,-10 141.8252,-10"/>
<polygon fill="#191970" stroke="#191970" points="116.0134,-6.5001 106.0134,-10 116.0133,-13.5001 116.0134,-6.5001"/>
</g>
<!-- Node669 -->
<g id="node3" class="node">
<title>Node669</title>
<g id="a_node3"><a xlink:href="dSFMT_8h.html#a5f12cfe61e34b29a9c4f88f097712205" target="_top" xlink:title="init_by_array">
<polygon fill="none" stroke="#000000" points="296,-.5 296,-19.5 368,-19.5 368,-.5 296,-.5"/>
<text text-anchor="middle" x="332" y="-7.5" font-family="Helvetica,sans-Serif" font-size="10.00" fill="#000000">init_by_array</text>
</a>
</g>
</g>
<!-- Node668&#45;&gt;Node669 -->
<g id="edge2" class="edge">
<title>Node668&#45;&gt;Node669</title>
<path fill="none" stroke="#191970" d="M270.5642,-3.2616C279.2443,-3.311 287.8288,-3.5191 295.7049,-3.8857"/>
<polygon fill="#191970" stroke="#191970" points="270.3622,.2382 260.3674,-3.2764 270.3725,-6.7617 270.3622,.2382"/>
</g>
<!-- Node669&#45;&gt;Node668 -->
<g id="edge3" class="edge">
<title>Node669&#45;&gt;Node668</title>
<path fill="none" stroke="#191970" d="M285.626,-16.4874C277.4509,-16.718 268.8401,-16.7967 260.3674,-16.7236"/>
<polygon fill="#191970" stroke="#191970" points="285.8413,-19.982 295.7049,-16.1143 285.5822,-12.9868 285.8413,-19.982"/>
</g>
</g>
</svg>
