<?xml version="1.0" encoding="UTF-8" standalone="no"?>
<!DOCTYPE svg PUBLIC "-//W3C//DTD SVG 1.1//EN"
 "http://www.w3.org/Graphics/SVG/1.1/DTD/svg11.dtd">
<!-- Generated by graphviz version 2.40.1 (20161225.0304)
 -->
<!-- Title: fill_array_close_open Pages: 1 -->
<svg width="682pt" height="66pt"
 viewBox="0.00 0.00 682.00 66.00" xmlns="http://www.w3.org/2000/svg" xmlns:xlink="http://www.w3.org/1999/xlink">
<g id="graph0" class="graph" transform="scale(1 1) rotate(0) translate(4 62)">
<title>fill_array_close_open</title>
<!-- Node614 -->
<g id="node1" class="node">
<title>Node614</title>
<polygon fill="#bfbfbf" stroke="#000000" points="0,-19.5 0,-38.5 108,-38.5 108,-19.5 0,-19.5"/>
<text text-anchor="middle" x="54" y="-26.5" font-family="Helvetica,sans-Serif" font-size="10.00" fill="#000000">fill_array_close_open</text>
</g>
<!-- Node615 -->
<g id="node2" class="node">
<title>Node615</title>
<g id="a_node2"><a xlink:href="dSFMT_8h.html#a27e4b624752149e0450056a317d09214" target="_top" xlink:title="dsfmt_gv_fill_array\l_close_open">
<polygon fill="none" stroke="#000000" points="144,-14 144,-44 243,-44 243,-14 144,-14"/>
<text text-anchor="start" x="152" y="-32" font-family="Helvetica,sans-Serif" font-size="10.00" fill="#000000">dsfmt_gv_fill_array</text>
<text text-anchor="middle" x="193.5" y="-21" font-family="Helvetica,sans-Serif" font-size="10.00" fill="#000000">_close_open</text>
</a>
</g>
</g>
<!-- Node614&#45;&gt;Node615 -->
<g id="edge1" class="edge">
<title>Node614&#45;&gt;Node615</title>
<path fill="none" stroke="#191970" d="M108.3338,-29C116.6008,-29 125.172,-29 133.5507,-29"/>
<polygon fill="#191970" stroke="#191970" points="133.6421,-32.5001 143.642,-29 133.642,-25.5001 133.6421,-32.5001"/>
</g>
<!-- Node616 -->
<g id="node3" class="node">
<title>Node616</title>
<g id="a_node3"><a xlink:href="dSFMT_8h.html#a243fb9ed1b61233f3dba4ab15c541eb0" target="_top" xlink:title="dsfmt_fill_array_close_open">
<polygon fill="none" stroke="#000000" points="279,-19.5 279,-38.5 417,-38.5 417,-19.5 279,-19.5"/>
<text text-anchor="middle" x="348" y="-26.5" font-family="Helvetica,sans-Serif" font-size="10.00" fill="#000000">dsfmt_fill_array_close_open</text>
</a>
</g>
</g>
<!-- Node615&#45;&gt;Node616 -->
<g id="edge2" class="edge">
<title>Node615&#45;&gt;Node616</title>
<path fill="none" stroke="#191970" d="M243.2352,-29C251.4142,-29 260.0666,-29 268.7527,-29"/>
<polygon fill="#191970" stroke="#191970" points="268.9386,-32.5001 278.9386,-29 268.9385,-25.5001 268.9386,-32.5001"/>
</g>
<!-- Node617 -->
<g id="node4" class="node">
<title>Node617</title>
<g id="a_node4"><a xlink:href="dSFMT_8c.html#a0002bc60cd5c3227bd12f478a32463ba" target="_top" xlink:title="gen_rand_array_c0o1">
<polygon fill="none" stroke="#000000" points="453,-19.5 453,-38.5 563,-38.5 563,-19.5 453,-19.5"/>
<text text-anchor="middle" x="508" y="-26.5" font-family="Helvetica,sans-Serif" font-size="10.00" fill="#000000">gen_rand_array_c0o1</text>
</a>
</g>
</g>
<!-- Node616&#45;&gt;Node617 -->
<g id="edge3" class="edge">
<title>Node616&#45;&gt;Node617</title>
<path fill="none" stroke="#191970" d="M417.2478,-29C425.6538,-29 434.2212,-29 442.5696,-29"/>
<polygon fill="#191970" stroke="#191970" points="442.6185,-32.5001 452.6185,-29 442.6184,-25.5001 442.6185,-32.5001"/>
</g>
<!-- Node618 -->
<g id="node5" class="node">
<title>Node618</title>
<g id="a_node5"><a xlink:href="dSFMT_8c.html#a3d69e801f1ee2fbdc3b596fab46e179e" target="_top" xlink:title="convert_c0o1">
<polygon fill="none" stroke="#000000" points="599,-38.5 599,-57.5 674,-57.5 674,-38.5 599,-38.5"/>
<text text-anchor="middle" x="636.5" y="-45.5" font-family="Helvetica,sans-Serif" font-size="10.00" fill="#000000">convert_c0o1</text>
</a>
</g>
</g>
<!-- Node617&#45;&gt;Node618 -->
<g id="edge4" class="edge">
<title>Node617&#45;&gt;Node618</title>
<path fill="none" stroke="#191970" d="M563.2413,-37.168C571.7527,-38.4265 580.4793,-39.7168 588.8076,-40.9482"/>
<polygon fill="#191970" stroke="#191970" points="588.323,-44.4145 598.7274,-42.4149 589.3469,-37.4898 588.323,-44.4145"/>
</g>
<!-- Node619 -->
<g id="node6" class="node">
<title>Node619</title>
<g id="a_node6"><a xlink:href="dSFMT-common_8h.html#a43e33e2235015c9c072bad7dfe1a282c" target="_top" xlink:title="do_recursion">
<polygon fill="none" stroke="#000000" points="600.5,-.5 600.5,-19.5 672.5,-19.5 672.5,-.5 600.5,-.5"/>
<text text-anchor="middle" x="636.5" y="-7.5" font-family="Helvetica,sans-Serif" font-size="10.00" fill="#000000">do_recursion</text>
</a>
</g>
</g>
<!-- Node617&#45;&gt;Node619 -->
<g id="edge5" class="edge">
<title>Node617&#45;&gt;Node619</title>
<path fill="none" stroke="#191970" d="M563.2413,-20.832C572.2374,-19.5019 581.4738,-18.1362 590.2263,-16.842"/>
<polygon fill="#191970" stroke="#191970" points="590.8547,-20.2873 600.2352,-15.3621 589.8307,-13.3625 590.8547,-20.2873"/>
</g>
</g>
</svg>
