<?xml version="1.0" encoding="UTF-8" standalone="no"?>
<!DOCTYPE svg PUBLIC "-//W3C//DTD SVG 1.1//EN"
 "http://www.w3.org/Graphics/SVG/1.1/DTD/svg11.dtd">
<!-- Generated by graphviz version 2.40.1 (20161225.0304)
 -->
<!-- Title: init_by_array Pages: 1 -->
<svg width="234pt" height="28pt"
 viewBox="0.00 0.00 234.00 28.00" xmlns="http://www.w3.org/2000/svg" xmlns:xlink="http://www.w3.org/1999/xlink">
<g id="graph0" class="graph" transform="scale(1 1) rotate(0) translate(4 24)">
<title>init_by_array</title>
<!-- Node733 -->
<g id="node1" class="node">
<title>Node733</title>
<polygon fill="#bfbfbf" stroke="#000000" points="0,-.5 0,-19.5 72,-19.5 72,-.5 0,-.5"/>
<text text-anchor="middle" x="36" y="-7.5" font-family="Helvetica,sans-Serif" font-size="10.00" fill="#000000">init_by_array</text>
</g>
<!-- Node734 -->
<g id="node2" class="node">
<title>Node734</title>
<g id="a_node2"><a xlink:href="dSFMT_8h.html#a4f989ee92f5e4c8f71570dbb9d19e838" target="_top" xlink:title="dsfmt_gv_init_by_array">
<polygon fill="none" stroke="#000000" points="108,-.5 108,-19.5 226,-19.5 226,-.5 108,-.5"/>
<text text-anchor="middle" x="167" y="-7.5" font-family="Helvetica,sans-Serif" font-size="10.00" fill="#000000">dsfmt_gv_init_by_array</text>
</a>
</g>
</g>
<!-- Node733&#45;&gt;Node734 -->
<g id="edge1" class="edge">
<title>Node733&#45;&gt;Node734</title>
<path fill="none" stroke="#191970" d="M82.3183,-3.5141C90.5748,-3.2806 99.2773,-3.2019 107.8342,-3.2781"/>
<polygon fill="#191970" stroke="#191970" points="82.006,-.0232 72.1431,-3.8928 82.2664,-7.0184 82.006,-.0232"/>
</g>
<!-- Node734&#45;&gt;Node733 -->
<g id="edge2" class="edge">
<title>Node734&#45;&gt;Node733</title>
<path fill="none" stroke="#191970" d="M97.8199,-16.7405C88.9532,-16.6948 80.1767,-16.4837 72.1431,-16.1072"/>
<polygon fill="#191970" stroke="#191970" points="97.8408,-20.2406 107.8342,-16.7219 97.8277,-13.2406 97.8408,-20.2406"/>
</g>
</g>
</svg>
