<?xml version="1.0" encoding="UTF-8" standalone="no"?>
<!DOCTYPE svg PUBLIC "-//W3C//DTD SVG 1.1//EN"
 "http://www.w3.org/Graphics/SVG/1.1/DTD/svg11.dtd">
<!-- Generated by graphviz version 2.40.1 (20161225.0304)
 -->
<!-- Title: dsfmt_gv_genrand_close_open Pages: 1 -->
<svg width="723pt" height="39pt"
 viewBox="0.00 0.00 723.00 39.00" xmlns="http://www.w3.org/2000/svg" xmlns:xlink="http://www.w3.org/1999/xlink">
<g id="graph0" class="graph" transform="scale(1 1) rotate(0) translate(4 35)">
<title>dsfmt_gv_genrand_close_open</title>
<!-- Node379 -->
<g id="node1" class="node">
<title>Node379</title>
<polygon fill="#bfbfbf" stroke="#000000" points="0,-6 0,-25 152,-25 152,-6 0,-6"/>
<text text-anchor="middle" x="76" y="-13" font-family="Helvetica,sans-Serif" font-size="10.00" fill="#000000">dsfmt_gv_genrand_close_open</text>
</g>
<!-- Node380 -->
<g id="node2" class="node">
<title>Node380</title>
<g id="a_node2"><a xlink:href="dSFMT_8h.html#af298572e9f2449e59ddf486977006621" target="_top" xlink:title="dsfmt_gv_genrand_close1\l_open2">
<polygon fill="none" stroke="#000000" points="188,-.5 188,-30.5 319,-30.5 319,-.5 188,-.5"/>
<text text-anchor="start" x="196" y="-18.5" font-family="Helvetica,sans-Serif" font-size="10.00" fill="#000000">dsfmt_gv_genrand_close1</text>
<text text-anchor="middle" x="253.5" y="-7.5" font-family="Helvetica,sans-Serif" font-size="10.00" fill="#000000">_open2</text>
</a>
</g>
</g>
<!-- Node379&#45;&gt;Node380 -->
<g id="edge1" class="edge">
<title>Node379&#45;&gt;Node380</title>
<path fill="none" stroke="#191970" d="M152.0484,-15.5C160.5441,-15.5 169.1984,-15.5 177.6911,-15.5"/>
<polygon fill="#191970" stroke="#191970" points="177.9488,-19.0001 187.9487,-15.5 177.9487,-12.0001 177.9488,-19.0001"/>
</g>
<!-- Node381 -->
<g id="node3" class="node">
<title>Node381</title>
<g id="a_node3"><a xlink:href="dSFMT_8h.html#ae9bb29b63c46e57725dffa776cf930e7" target="_top" xlink:title="dsfmt_genrand_close1\l_open2">
<polygon fill="none" stroke="#000000" points="355,-.5 355,-30.5 470,-30.5 470,-.5 355,-.5"/>
<text text-anchor="start" x="363" y="-18.5" font-family="Helvetica,sans-Serif" font-size="10.00" fill="#000000">dsfmt_genrand_close1</text>
<text text-anchor="middle" x="412.5" y="-7.5" font-family="Helvetica,sans-Serif" font-size="10.00" fill="#000000">_open2</text>
</a>
</g>
</g>
<!-- Node380&#45;&gt;Node381 -->
<g id="edge2" class="edge">
<title>Node380&#45;&gt;Node381</title>
<path fill="none" stroke="#191970" d="M319.0894,-15.5C327.5428,-15.5 336.2128,-15.5 344.7009,-15.5"/>
<polygon fill="#191970" stroke="#191970" points="344.9376,-19.0001 354.9375,-15.5 344.9375,-12.0001 344.9376,-19.0001"/>
</g>
<!-- Node382 -->
<g id="node4" class="node">
<title>Node382</title>
<g id="a_node4"><a xlink:href="dSFMT_8h.html#afccb1e4d75cea7ffe3b45cba53d1e5e0" target="_top" xlink:title="dsfmt_gen_rand_all">
<polygon fill="none" stroke="#000000" points="506,-6 506,-25 607,-25 607,-6 506,-6"/>
<text text-anchor="middle" x="556.5" y="-13" font-family="Helvetica,sans-Serif" font-size="10.00" fill="#000000">dsfmt_gen_rand_all</text>
</a>
</g>
</g>
<!-- Node381&#45;&gt;Node382 -->
<g id="edge3" class="edge">
<title>Node381&#45;&gt;Node382</title>
<path fill="none" stroke="#191970" d="M470.2406,-15.5C478.5848,-15.5 487.1951,-15.5 495.5988,-15.5"/>
<polygon fill="#191970" stroke="#191970" points="495.7152,-19.0001 505.7152,-15.5 495.7151,-12.0001 495.7152,-19.0001"/>
</g>
<!-- Node383 -->
<g id="node5" class="node">
<title>Node383</title>
<g id="a_node5"><a xlink:href="dSFMT-common_8h.html#a43e33e2235015c9c072bad7dfe1a282c" target="_top" xlink:title="do_recursion">
<polygon fill="none" stroke="#000000" points="643,-6 643,-25 715,-25 715,-6 643,-6"/>
<text text-anchor="middle" x="679" y="-13" font-family="Helvetica,sans-Serif" font-size="10.00" fill="#000000">do_recursion</text>
</a>
</g>
</g>
<!-- Node382&#45;&gt;Node383 -->
<g id="edge4" class="edge">
<title>Node382&#45;&gt;Node383</title>
<path fill="none" stroke="#191970" d="M607.0327,-15.5C615.5603,-15.5 624.3741,-15.5 632.7846,-15.5"/>
<polygon fill="#191970" stroke="#191970" points="632.7975,-19.0001 642.7974,-15.5 632.7974,-12.0001 632.7975,-19.0001"/>
</g>
</g>
</svg>
