<?xml version="1.0" encoding="UTF-8" standalone="no"?>
<!DOCTYPE svg PUBLIC "-//W3C//DTD SVG 1.1//EN"
 "http://www.w3.org/Graphics/SVG/1.1/DTD/svg11.dtd">
<!-- Generated by graphviz version 2.40.1 (20161225.0304)
 -->
<!-- Title: ea_select_tournament Pages: 1 -->
<svg width="671pt" height="28pt"
 viewBox="0.00 0.00 671.00 28.00" xmlns="http://www.w3.org/2000/svg" xmlns:xlink="http://www.w3.org/1999/xlink">
<g id="graph0" class="graph" transform="scale(1 1) rotate(0) translate(4 24)">
<title>ea_select_tournament</title>
<!-- Node178 -->
<g id="node1" class="node">
<title>Node178</title>
<polygon fill="#bfbfbf" stroke="#000000" points="0,-.5 0,-19.5 113,-19.5 113,-.5 0,-.5"/>
<text text-anchor="middle" x="56.5" y="-7.5" font-family="Helvetica,sans-Serif" font-size="10.00" fill="#000000">ea_select_tournament</text>
</g>
<!-- Node179 -->
<g id="node2" class="node">
<title>Node179</title>
<g id="a_node2"><a xlink:href="utils_8c.html#ae42a9e1d467853befaa7922cfafed3bb" target="_top" xlink:title="Returns a uniform random float [min,max]. ">
<polygon fill="none" stroke="#000000" points="149,-.5 149,-19.5 222,-19.5 222,-.5 149,-.5"/>
<text text-anchor="middle" x="185.5" y="-7.5" font-family="Helvetica,sans-Serif" font-size="10.00" fill="#000000">rand_uniform</text>
</a>
</g>
</g>
<!-- Node178&#45;&gt;Node179 -->
<g id="edge1" class="edge">
<title>Node178&#45;&gt;Node179</title>
<path fill="none" stroke="#191970" d="M113.0813,-10C121.5539,-10 130.2117,-10 138.4577,-10"/>
<polygon fill="#191970" stroke="#191970" points="138.6377,-13.5001 148.6377,-10 138.6376,-6.5001 138.6377,-13.5001"/>
</g>
<!-- Node180 -->
<g id="node3" class="node">
<title>Node180</title>
<g id="a_node3"><a xlink:href="utils_8c.html#a101d27cdda714b7f17a06224c65cac56" target="_top" xlink:title="Returns a uniform random float [0,1]. ">
<polygon fill="none" stroke="#000000" points="258,-.5 258,-19.5 299,-19.5 299,-.5 258,-.5"/>
<text text-anchor="middle" x="278.5" y="-7.5" font-family="Helvetica,sans-Serif" font-size="10.00" fill="#000000">drand</text>
</a>
</g>
</g>
<!-- Node179&#45;&gt;Node180 -->
<g id="edge2" class="edge">
<title>Node179&#45;&gt;Node180</title>
<path fill="none" stroke="#191970" d="M222.2561,-10C230.658,-10 239.5043,-10 247.63,-10"/>
<polygon fill="#191970" stroke="#191970" points="247.799,-13.5001 257.7989,-10 247.7989,-6.5001 247.799,-13.5001"/>
</g>
<!-- Node181 -->
<g id="node4" class="node">
<title>Node181</title>
<g id="a_node4"><a xlink:href="mt19937-64_8c.html#aa0b74daf51eca91df224d00f1730084a" target="_top" xlink:title="genrand64_real1">
<polygon fill="none" stroke="#000000" points="335,-.5 335,-19.5 423,-19.5 423,-.5 335,-.5"/>
<text text-anchor="middle" x="379" y="-7.5" font-family="Helvetica,sans-Serif" font-size="10.00" fill="#000000">genrand64_real1</text>
</a>
</g>
</g>
<!-- Node180&#45;&gt;Node181 -->
<g id="edge3" class="edge">
<title>Node180&#45;&gt;Node181</title>
<path fill="none" stroke="#191970" d="M299.3237,-10C306.8428,-10 315.7193,-10 324.769,-10"/>
<polygon fill="#191970" stroke="#191970" points="324.9969,-13.5001 334.9969,-10 324.9969,-6.5001 324.9969,-13.5001"/>
</g>
<!-- Node182 -->
<g id="node5" class="node">
<title>Node182</title>
<g id="a_node5"><a xlink:href="mt19937-64_8c.html#a265bf48d20d6e0347371fcf4fe340e6d" target="_top" xlink:title="genrand64_int64">
<polygon fill="none" stroke="#000000" points="459,-.5 459,-19.5 547,-19.5 547,-.5 459,-.5"/>
<text text-anchor="middle" x="503" y="-7.5" font-family="Helvetica,sans-Serif" font-size="10.00" fill="#000000">genrand64_int64</text>
</a>
</g>
</g>
<!-- Node181&#45;&gt;Node182 -->
<g id="edge4" class="edge">
<title>Node181&#45;&gt;Node182</title>
<path fill="none" stroke="#191970" d="M423.0669,-10C431.2822,-10 439.957,-10 448.4432,-10"/>
<polygon fill="#191970" stroke="#191970" points="448.6572,-13.5001 458.6572,-10 448.6572,-6.5001 448.6572,-13.5001"/>
</g>
<!-- Node183 -->
<g id="node6" class="node">
<title>Node183</title>
<g id="a_node6"><a xlink:href="mt19937-64_8c.html#adf4127d44c2dc34fcb318d406131ef7c" target="_top" xlink:title="init_genrand64">
<polygon fill="none" stroke="#000000" points="583,-.5 583,-19.5 663,-19.5 663,-.5 583,-.5"/>
<text text-anchor="middle" x="623" y="-7.5" font-family="Helvetica,sans-Serif" font-size="10.00" fill="#000000">init_genrand64</text>
</a>
</g>
</g>
<!-- Node182&#45;&gt;Node183 -->
<g id="edge5" class="edge">
<title>Node182&#45;&gt;Node183</title>
<path fill="none" stroke="#191970" d="M547.0022,-10C555.3719,-10 564.1896,-10 572.7365,-10"/>
<polygon fill="#191970" stroke="#191970" points="572.9792,-13.5001 582.9792,-10 572.9792,-6.5001 572.9792,-13.5001"/>
</g>
</g>
</svg>
