<?xml version="1.0" encoding="UTF-8" standalone="no"?>
<!DOCTYPE svg PUBLIC "-//W3C//DTD SVG 1.1//EN"
 "http://www.w3.org/Graphics/SVG/1.1/DTD/svg11.dtd">
<!-- Generated by graphviz version 2.40.1 (20161225.0304)
 -->
<!-- Title: ea_select_parents Pages: 1 -->
<svg width="769pt" height="218pt"
 viewBox="0.00 0.00 769.00 218.00" xmlns="http://www.w3.org/2000/svg" xmlns:xlink="http://www.w3.org/1999/xlink">
<g id="graph0" class="graph" transform="scale(1 1) rotate(0) translate(4 214)">
<title>ea_select_parents</title>
<!-- Node128 -->
<g id="node1" class="node">
<title>Node128</title>
<polygon fill="#bfbfbf" stroke="#000000" points="0,-133.5 0,-152.5 96,-152.5 96,-133.5 0,-133.5"/>
<text text-anchor="middle" x="48" y="-140.5" font-family="Helvetica,sans-Serif" font-size="10.00" fill="#000000">ea_select_parents</text>
</g>
<!-- Node129 -->
<g id="node2" class="node">
<title>Node129</title>
<g id="a_node2"><a xlink:href="ea_8h.html#ae3824341a2f5482cb6ac70b3839ded51" target="_top" xlink:title="Executes the evolutionary algorithm (EA). ">
<polygon fill="none" stroke="#000000" points="132,-133.5 132,-152.5 161,-152.5 161,-133.5 132,-133.5"/>
<text text-anchor="middle" x="146.5" y="-140.5" font-family="Helvetica,sans-Serif" font-size="10.00" fill="#000000">ea</text>
</a>
</g>
</g>
<!-- Node128&#45;&gt;Node129 -->
<g id="edge1" class="edge">
<title>Node128&#45;&gt;Node129</title>
<path fill="none" stroke="#191970" d="M106.1767,-143C115.7495,-143 124.8567,-143 131.9858,-143"/>
<polygon fill="#191970" stroke="#191970" points="106.0958,-139.5001 96.0958,-143 106.0958,-146.5001 106.0958,-139.5001"/>
</g>
<!-- Node130 -->
<g id="node3" class="node">
<title>Node130</title>
<g id="a_node3"><a xlink:href="xcs__multi__step_8c.html#a1e1c2a3094be715b468dda79cd59ebf3" target="_top" xlink:title="Executes a multi&#45;step trial using a built&#45;in environment. ">
<polygon fill="none" stroke="#000000" points="206,-180.5 206,-199.5 286,-199.5 286,-180.5 206,-180.5"/>
<text text-anchor="middle" x="246" y="-187.5" font-family="Helvetica,sans-Serif" font-size="10.00" fill="#000000">xcs_multi_trial</text>
</a>
</g>
</g>
<!-- Node129&#45;&gt;Node130 -->
<g id="edge2" class="edge">
<title>Node129&#45;&gt;Node130</title>
<path fill="none" stroke="#191970" d="M170.4056,-154.2921C187.3056,-162.275 209.714,-172.8599 225.7373,-180.4287"/>
<polygon fill="#191970" stroke="#191970" points="171.7185,-151.0415 161.1816,-149.935 168.7287,-157.3709 171.7185,-151.0415"/>
</g>
<!-- Node133 -->
<g id="node6" class="node">
<title>Node133</title>
<g id="a_node6"><a xlink:href="xcs__single__step_8h.html#aff4aec035e4573993a7906569f2028f5" target="_top" xlink:title="Creates the action set, updates the classifiers and runs the EA. ">
<polygon fill="none" stroke="#000000" points="197,-133.5 197,-152.5 295,-152.5 295,-133.5 197,-133.5"/>
<text text-anchor="middle" x="246" y="-140.5" font-family="Helvetica,sans-Serif" font-size="10.00" fill="#000000">xcs_single_update</text>
</a>
</g>
</g>
<!-- Node129&#45;&gt;Node133 -->
<g id="edge5" class="edge">
<title>Node129&#45;&gt;Node133</title>
<path fill="none" stroke="#191970" d="M171.2801,-143C179.0174,-143 187.8425,-143 196.6508,-143"/>
<polygon fill="#191970" stroke="#191970" points="171.1816,-139.5001 161.1816,-143 171.1815,-146.5001 171.1816,-139.5001"/>
</g>
<!-- Node138 -->
<g id="node11" class="node">
<title>Node138</title>
<g id="a_node11"><a xlink:href="xcsf_8c.html#a474f4e13cfc5f00958c689cd8c81135a" target="_top" xlink:title="Executes a single XCSF learning trial. ">
<polygon fill="none" stroke="#000000" points="204.5,-57.5 204.5,-76.5 287.5,-76.5 287.5,-57.5 204.5,-57.5"/>
<text text-anchor="middle" x="246" y="-64.5" font-family="Helvetica,sans-Serif" font-size="10.00" fill="#000000">xcsf_learn_trial</text>
</a>
</g>
</g>
<!-- Node129&#45;&gt;Node138 -->
<g id="edge11" class="edge">
<title>Node129&#45;&gt;Node138</title>
<path fill="none" stroke="#191970" d="M167.2797,-127.1281C187.2848,-111.8478 216.8816,-89.2412 233.5006,-76.5473"/>
<polygon fill="#191970" stroke="#191970" points="164.9242,-124.523 159.1017,-133.3745 169.1733,-130.0859 164.9242,-124.523"/>
</g>
<!-- Node131 -->
<g id="node4" class="node">
<title>Node131</title>
<g id="a_node4"><a xlink:href="xcs__multi__step_8h.html#acc29d4a55dbd56c16ea5f19f15a7c677" target="_top" xlink:title="Executes a multi&#45;step reinforcement learning experiment. ">
<polygon fill="none" stroke="#000000" points="473,-190.5 473,-209.5 577,-209.5 577,-190.5 473,-190.5"/>
<text text-anchor="middle" x="525" y="-197.5" font-family="Helvetica,sans-Serif" font-size="10.00" fill="#000000">xcs_multi_step_exp</text>
</a>
</g>
</g>
<!-- Node130&#45;&gt;Node131 -->
<g id="edge3" class="edge">
<title>Node130&#45;&gt;Node131</title>
<path fill="none" stroke="#191970" d="M296.5047,-191.8102C346.4046,-193.5987 422.3872,-196.3221 472.8508,-198.1309"/>
<polygon fill="#191970" stroke="#191970" points="296.39,-188.3039 286.271,-191.4434 296.1392,-195.2994 296.39,-188.3039"/>
</g>
<!-- Node132 -->
<g id="node5" class="node">
<title>Node132</title>
<g id="a_node5"><a xlink:href="main_8c.html#a3c04138a5bfe5d72780bb7e82a18e627" target="_top" xlink:title="main">
<polygon fill="none" stroke="#000000" points="669,-152.5 669,-171.5 707,-171.5 707,-152.5 669,-152.5"/>
<text text-anchor="middle" x="688" y="-159.5" font-family="Helvetica,sans-Serif" font-size="10.00" fill="#000000">main</text>
</a>
</g>
</g>
<!-- Node131&#45;&gt;Node132 -->
<g id="edge4" class="edge">
<title>Node131&#45;&gt;Node132</title>
<path fill="none" stroke="#191970" d="M576.0525,-188.0982C607.4599,-180.7762 645.9128,-171.8117 668.6012,-166.5224"/>
<polygon fill="#191970" stroke="#191970" points="575.076,-184.7319 566.1318,-190.411 576.6653,-191.5491 575.076,-184.7319"/>
</g>
<!-- Node134 -->
<g id="node7" class="node">
<title>Node134</title>
<g id="a_node7"><a xlink:href="structXCS.html#aedc01ad6f00a54b260a7605929a1d4c9" target="_top" xlink:title="XCS::single_update">
<polygon fill="none" stroke="#000000" points="331,-114.5 331,-133.5 435,-133.5 435,-114.5 331,-114.5"/>
<text text-anchor="middle" x="383" y="-121.5" font-family="Helvetica,sans-Serif" font-size="10.00" fill="#000000">XCS::single_update</text>
</a>
</g>
</g>
<!-- Node133&#45;&gt;Node134 -->
<g id="edge6" class="edge">
<title>Node133&#45;&gt;Node134</title>
<path fill="none" stroke="#191970" d="M305.2254,-134.7863C313.6549,-133.6172 322.2753,-132.4217 330.5632,-131.2723"/>
<polygon fill="#191970" stroke="#191970" points="304.4976,-131.3536 295.0732,-136.1942 305.4592,-138.2873 304.4976,-131.3536"/>
</g>
<!-- Node136 -->
<g id="node9" class="node">
<title>Node136</title>
<g id="a_node9"><a xlink:href="xcs__single__step_8c.html#a3d1fd2472d35310800aed897219a65af" target="_top" xlink:title="Executes a single&#45;step trial using a built&#45;in environment. ">
<polygon fill="none" stroke="#000000" points="341,-152.5 341,-171.5 425,-171.5 425,-152.5 341,-152.5"/>
<text text-anchor="middle" x="383" y="-159.5" font-family="Helvetica,sans-Serif" font-size="10.00" fill="#000000">xcs_single_trial</text>
</a>
</g>
</g>
<!-- Node133&#45;&gt;Node136 -->
<g id="edge8" class="edge">
<title>Node133&#45;&gt;Node136</title>
<path fill="none" stroke="#191970" d="M305.0069,-151.1834C316.9825,-152.8443 329.3528,-154.5599 340.6154,-156.1218"/>
<polygon fill="#191970" stroke="#191970" points="305.4592,-147.7128 295.0732,-149.8058 304.4976,-154.6464 305.4592,-147.7128"/>
</g>
<!-- Node135 -->
<g id="node8" class="node">
<title>Node135</title>
<g id="a_node8"><a xlink:href="python__wrapper_8cpp.html#afbdcc1358036a0b83a6b239da2b098a2" target="_top" xlink:title="BOOST_PYTHON_MODULE">
<polygon fill="none" stroke="#000000" points="615,-57.5 615,-76.5 761,-76.5 761,-57.5 615,-57.5"/>
<text text-anchor="middle" x="688" y="-64.5" font-family="Helvetica,sans-Serif" font-size="10.00" fill="#000000">BOOST_PYTHON_MODULE</text>
</a>
</g>
</g>
<!-- Node134&#45;&gt;Node135 -->
<g id="edge7" class="edge">
<title>Node134&#45;&gt;Node135</title>
<path fill="none" stroke="#191970" d="M443.945,-112.6103C500.5512,-102.0314 583.8787,-86.4587 637.0378,-76.5241"/>
<polygon fill="#191970" stroke="#191970" points="443.237,-109.1819 434.0501,-114.4595 444.523,-116.0628 443.237,-109.1819"/>
</g>
<!-- Node137 -->
<g id="node10" class="node">
<title>Node137</title>
<g id="a_node10"><a xlink:href="xcs__single__step_8h.html#a39a031bf59eaa9b33e30e614610dcda8" target="_top" xlink:title="Executes a single&#45;step experiment. ">
<polygon fill="none" stroke="#000000" points="471,-152.5 471,-171.5 579,-171.5 579,-152.5 471,-152.5"/>
<text text-anchor="middle" x="525" y="-159.5" font-family="Helvetica,sans-Serif" font-size="10.00" fill="#000000">xcs_single_step_exp</text>
</a>
</g>
</g>
<!-- Node136&#45;&gt;Node137 -->
<g id="edge9" class="edge">
<title>Node136&#45;&gt;Node137</title>
<path fill="none" stroke="#191970" d="M435.551,-162C447.0539,-162 459.2511,-162 470.8166,-162"/>
<polygon fill="#191970" stroke="#191970" points="435.2203,-158.5001 425.2202,-162 435.2202,-165.5001 435.2203,-158.5001"/>
</g>
<!-- Node137&#45;&gt;Node132 -->
<g id="edge10" class="edge">
<title>Node137&#45;&gt;Node132</title>
<path fill="none" stroke="#191970" d="M589.611,-162C618.0891,-162 649.4445,-162 668.9303,-162"/>
<polygon fill="#191970" stroke="#191970" points="589.2767,-158.5001 579.2766,-162 589.2766,-165.5001 589.2767,-158.5001"/>
</g>
<!-- Node139 -->
<g id="node12" class="node">
<title>Node139</title>
<g id="a_node12"><a xlink:href="xcsf_8h.html#a874829f28fee20f9ad15b540f4b4d6ff" target="_top" xlink:title="Executes MAX_TRIALS number of XCSF learning iterations using the training data. ">
<polygon fill="none" stroke="#000000" points="356,-10.5 356,-29.5 410,-29.5 410,-10.5 356,-10.5"/>
<text text-anchor="middle" x="383" y="-17.5" font-family="Helvetica,sans-Serif" font-size="10.00" fill="#000000">xcsf_fit1</text>
</a>
</g>
</g>
<!-- Node138&#45;&gt;Node139 -->
<g id="edge12" class="edge">
<title>Node138&#45;&gt;Node139</title>
<path fill="none" stroke="#191970" d="M283.4515,-54.1517C306.3317,-46.3022 335.0738,-36.4418 355.7848,-29.3366"/>
<polygon fill="#191970" stroke="#191970" points="282.0471,-50.9332 273.724,-57.4888 284.3186,-57.5544 282.0471,-50.9332"/>
</g>
<!-- Node141 -->
<g id="node14" class="node">
<title>Node141</title>
<g id="a_node14"><a xlink:href="xcsf_8h.html#a0b4de57cb9dadc9deca7901aa36e5025" target="_top" xlink:title="Executes MAX_TRIALS number of XCSF learning iterations using the training. data and test iterations u...">
<polygon fill="none" stroke="#000000" points="356,-57.5 356,-76.5 410,-76.5 410,-57.5 356,-57.5"/>
<text text-anchor="middle" x="383" y="-64.5" font-family="Helvetica,sans-Serif" font-size="10.00" fill="#000000">xcsf_fit2</text>
</a>
</g>
</g>
<!-- Node138&#45;&gt;Node141 -->
<g id="edge15" class="edge">
<title>Node138&#45;&gt;Node141</title>
<path fill="none" stroke="#191970" d="M297.9115,-67C317.5628,-67 339.1522,-67 355.6669,-67"/>
<polygon fill="#191970" stroke="#191970" points="297.849,-63.5001 287.8489,-67 297.8489,-70.5001 297.849,-63.5001"/>
</g>
<!-- Node140 -->
<g id="node13" class="node">
<title>Node140</title>
<g id="a_node13"><a xlink:href="structXCS.html#ad2ccafe59d2b4ae6d0e1cbc15edee53c" target="_top" xlink:title="XCS::fit">
<polygon fill="none" stroke="#000000" points="499,-.5 499,-19.5 551,-19.5 551,-.5 499,-.5"/>
<text text-anchor="middle" x="525" y="-7.5" font-family="Helvetica,sans-Serif" font-size="10.00" fill="#000000">XCS::fit</text>
</a>
</g>
</g>
<!-- Node139&#45;&gt;Node140 -->
<g id="edge13" class="edge">
<title>Node139&#45;&gt;Node140</title>
<path fill="none" stroke="#191970" d="M420.1114,-17.3865C444.7321,-15.6527 476.4557,-13.4186 498.538,-11.8635"/>
<polygon fill="#191970" stroke="#191970" points="419.7727,-13.9016 410.0434,-18.0955 420.2646,-20.8843 419.7727,-13.9016"/>
</g>
<!-- Node140&#45;&gt;Node135 -->
<g id="edge14" class="edge">
<title>Node140&#45;&gt;Node135</title>
<path fill="none" stroke="#191970" d="M560.8957,-22.5525C591.0205,-33.0869 633.4042,-47.9082 660.7892,-57.4846"/>
<polygon fill="#191970" stroke="#191970" points="561.7836,-19.1552 551.1888,-19.158 559.4729,-25.7628 561.7836,-19.1552"/>
</g>
<!-- Node141&#45;&gt;Node132 -->
<g id="edge16" class="edge">
<title>Node141&#45;&gt;Node132</title>
<path fill="none" stroke="#191970" d="M419.9399,-78.5059C485.2604,-98.8516 618.9534,-140.4937 668.7475,-156.0033"/>
<polygon fill="#191970" stroke="#191970" points="420.6552,-75.0629 410.0667,-75.4306 418.5734,-81.7462 420.6552,-75.0629"/>
</g>
<!-- Node142 -->
<g id="node15" class="node">
<title>Node142</title>
<g id="a_node15"><a xlink:href="structXCS.html#a7d53320740db8e846251bacd0238a9fb" target="_top" xlink:title="XCS::fit">
<polygon fill="none" stroke="#000000" points="499,-38.5 499,-57.5 551,-57.5 551,-38.5 499,-38.5"/>
<text text-anchor="middle" x="525" y="-45.5" font-family="Helvetica,sans-Serif" font-size="10.00" fill="#000000">XCS::fit</text>
</a>
</g>
</g>
<!-- Node141&#45;&gt;Node142 -->
<g id="edge17" class="edge">
<title>Node141&#45;&gt;Node142</title>
<path fill="none" stroke="#191970" d="M420.1114,-62.0344C444.7321,-58.7401 476.4557,-54.4954 498.538,-51.5407"/>
<polygon fill="#191970" stroke="#191970" points="419.4908,-58.5861 410.0434,-63.3815 420.4192,-65.5243 419.4908,-58.5861"/>
</g>
</g>
</svg>
