<?xml version="1.0" encoding="UTF-8" standalone="no"?>
<!DOCTYPE svg PUBLIC "-//W3C//DTD SVG 1.1//EN"
 "http://www.w3.org/Graphics/SVG/1.1/DTD/svg11.dtd">
<!-- Generated by graphviz version 2.40.1 (20161225.0304)
 -->
<!-- Title: ea_add Pages: 1 -->
<svg width="826pt" height="256pt"
 viewBox="0.00 0.00 826.00 256.00" xmlns="http://www.w3.org/2000/svg" xmlns:xlink="http://www.w3.org/1999/xlink">
<g id="graph0" class="graph" transform="scale(1 1) rotate(0) translate(4 252)">
<title>ea_add</title>
<!-- Node70 -->
<g id="node1" class="node">
<title>Node70</title>
<polygon fill="#bfbfbf" stroke="#000000" points="0,-76.5 0,-95.5 48,-95.5 48,-76.5 0,-76.5"/>
<text text-anchor="middle" x="24" y="-83.5" font-family="Helvetica,sans-Serif" font-size="10.00" fill="#000000">ea_add</text>
</g>
<!-- Node71 -->
<g id="node2" class="node">
<title>Node71</title>
<g id="a_node2"><a xlink:href="cl_8c.html#a7bf8d03856a0c04854cfd99fcd45b32a" target="_top" xlink:title="Frees the memory used by the classifier. ">
<polygon fill="none" stroke="#000000" points="206.5,-152.5 206.5,-171.5 252.5,-171.5 252.5,-152.5 206.5,-152.5"/>
<text text-anchor="middle" x="229.5" y="-159.5" font-family="Helvetica,sans-Serif" font-size="10.00" fill="#000000">cl_free</text>
</a>
</g>
</g>
<!-- Node70&#45;&gt;Node71 -->
<g id="edge1" class="edge">
<title>Node70&#45;&gt;Node71</title>
<path fill="none" stroke="#191970" d="M48.3805,-95.0166C85.3111,-108.6747 155.4965,-134.6313 196.8159,-149.9125"/>
<polygon fill="#191970" stroke="#191970" points="195.8198,-153.2757 206.413,-153.4618 198.2479,-146.7103 195.8198,-153.2757"/>
</g>
<!-- Node76 -->
<g id="node7" class="node">
<title>Node76</title>
<g id="a_node7"><a xlink:href="ea_8c.html#a2500eac78a82990046fd272eda718c46" target="_top" xlink:title="Performs evolutionary algorithm subsumption. ">
<polygon fill="none" stroke="#000000" points="84,-76.5 84,-95.5 156,-95.5 156,-76.5 84,-76.5"/>
<text text-anchor="middle" x="120" y="-83.5" font-family="Helvetica,sans-Serif" font-size="10.00" fill="#000000">ea_subsume</text>
</a>
</g>
</g>
<!-- Node70&#45;&gt;Node76 -->
<g id="edge6" class="edge">
<title>Node70&#45;&gt;Node76</title>
<path fill="none" stroke="#191970" d="M48.2249,-86C55.97,-86 64.8199,-86 73.5985,-86"/>
<polygon fill="#191970" stroke="#191970" points="73.8006,-89.5001 83.8006,-86 73.8005,-82.5001 73.8006,-89.5001"/>
</g>
<!-- Node87 -->
<g id="node18" class="node">
<title>Node87</title>
<g id="a_node18"><a xlink:href="cl__set_8c.html#a274578f0b79dea927e8148a7c41bf75f" target="_top" xlink:title="Adds a classifier to the set. ">
<polygon fill="none" stroke="#000000" points="204,-.5 204,-19.5 255,-19.5 255,-.5 204,-.5"/>
<text text-anchor="middle" x="229.5" y="-7.5" font-family="Helvetica,sans-Serif" font-size="10.00" fill="#000000">set_add</text>
</a>
</g>
</g>
<!-- Node70&#45;&gt;Node87 -->
<g id="edge19" class="edge">
<title>Node70&#45;&gt;Node87</title>
<path fill="none" stroke="#191970" d="M48.3805,-76.9834C84.6017,-63.5877 152.8126,-38.3613 194.4035,-22.9797"/>
<polygon fill="#191970" stroke="#191970" points="195.6978,-26.2328 203.8629,-19.4814 193.2697,-19.6674 195.6978,-26.2328"/>
</g>
<!-- Node72 -->
<g id="node3" class="node">
<title>Node72</title>
<g id="a_node3"><a xlink:href="action_8h.html#a3c0b8f4ef29f45d210b6e76340a25e15" target="_top" xlink:title="act_free">
<polygon fill="none" stroke="#000000" points="314,-228.5 314,-247.5 366,-247.5 366,-228.5 314,-228.5"/>
<text text-anchor="middle" x="340" y="-235.5" font-family="Helvetica,sans-Serif" font-size="10.00" fill="#000000">act_free</text>
</a>
</g>
</g>
<!-- Node71&#45;&gt;Node72 -->
<g id="edge2" class="edge">
<title>Node71&#45;&gt;Node72</title>
<path fill="none" stroke="#191970" d="M240.48,-171.565C254.4463,-183.4793 279.572,-204.0819 303,-219 305.4554,-220.5635 308.0551,-222.1058 310.6925,-223.5947"/>
<polygon fill="#191970" stroke="#191970" points="309.1851,-226.7579 319.6512,-228.4047 312.4965,-220.5906 309.1851,-226.7579"/>
</g>
<!-- Node73 -->
<g id="node4" class="node">
<title>Node73</title>
<g id="a_node4"><a xlink:href="condition_8h.html#a3f9b67abe92145cf80a263853912a0d5" target="_top" xlink:title="cond_free">
<polygon fill="none" stroke="#000000" points="310.5,-190.5 310.5,-209.5 369.5,-209.5 369.5,-190.5 310.5,-190.5"/>
<text text-anchor="middle" x="340" y="-197.5" font-family="Helvetica,sans-Serif" font-size="10.00" fill="#000000">cond_free</text>
</a>
</g>
</g>
<!-- Node71&#45;&gt;Node73 -->
<g id="edge3" class="edge">
<title>Node71&#45;&gt;Node73</title>
<path fill="none" stroke="#191970" d="M252.6644,-169.966C267.0243,-174.9043 285.8094,-181.3643 302.2771,-187.0274"/>
<polygon fill="#191970" stroke="#191970" points="301.5761,-190.4875 312.1708,-190.4298 303.8526,-183.868 301.5761,-190.4875"/>
</g>
<!-- Node74 -->
<g id="node5" class="node">
<title>Node74</title>
<g id="a_node5"><a xlink:href="prediction_8h.html#a5c8b28f792149c6267cc8387554e1da7" target="_top" xlink:title="pred_free">
<polygon fill="none" stroke="#000000" points="311.5,-152.5 311.5,-171.5 368.5,-171.5 368.5,-152.5 311.5,-152.5"/>
<text text-anchor="middle" x="340" y="-159.5" font-family="Helvetica,sans-Serif" font-size="10.00" fill="#000000">pred_free</text>
</a>
</g>
</g>
<!-- Node71&#45;&gt;Node74 -->
<g id="edge4" class="edge">
<title>Node71&#45;&gt;Node74</title>
<path fill="none" stroke="#191970" d="M252.6644,-162C266.6812,-162 284.9142,-162 301.0927,-162"/>
<polygon fill="#191970" stroke="#191970" points="301.3628,-165.5001 311.3627,-162 301.3627,-158.5001 301.3628,-165.5001"/>
</g>
<!-- Node75 -->
<g id="node6" class="node">
<title>Node75</title>
<g id="a_node6"><a xlink:href="sam_8c.html#ab788a3ced38cf0fd20f8e6a2bab9f86a" target="_top" xlink:title="Frees the self&#45;adaptive mutation rates. ">
<polygon fill="none" stroke="#000000" points="311.5,-114.5 311.5,-133.5 368.5,-133.5 368.5,-114.5 311.5,-114.5"/>
<text text-anchor="middle" x="340" y="-121.5" font-family="Helvetica,sans-Serif" font-size="10.00" fill="#000000">sam_free</text>
</a>
</g>
</g>
<!-- Node71&#45;&gt;Node75 -->
<g id="edge5" class="edge">
<title>Node71&#45;&gt;Node75</title>
<path fill="none" stroke="#191970" d="M252.6644,-154.034C267.0243,-149.0957 285.8094,-142.6357 302.2771,-136.9726"/>
<polygon fill="#191970" stroke="#191970" points="303.8526,-140.132 312.1708,-133.5702 301.5761,-133.5125 303.8526,-140.132"/>
</g>
<!-- Node76&#45;&gt;Node71 -->
<g id="edge11" class="edge">
<title>Node76&#45;&gt;Node71</title>
<path fill="none" stroke="#191970" d="M130.7084,-95.6091C144.3408,-107.5688 168.9032,-128.2184 192,-143 194.4781,-144.586 197.1057,-146.1436 199.7741,-147.6424"/>
<polygon fill="#191970" stroke="#191970" points="198.3742,-150.8621 208.8466,-152.468 201.6614,-144.6819 198.3742,-150.8621"/>
</g>
<!-- Node77 -->
<g id="node8" class="node">
<title>Node77</title>
<g id="a_node8"><a xlink:href="cl_8c.html#a6eed5a1ff30cfa2cbee3e1a17f630458" target="_top" xlink:title="Returns whether the classifier is a potential subsumer. ">
<polygon fill="none" stroke="#000000" points="193.5,-114.5 193.5,-133.5 265.5,-133.5 265.5,-114.5 193.5,-114.5"/>
<text text-anchor="middle" x="229.5" y="-121.5" font-family="Helvetica,sans-Serif" font-size="10.00" fill="#000000">cl_subsumer</text>
</a>
</g>
</g>
<!-- Node76&#45;&gt;Node77 -->
<g id="edge7" class="edge">
<title>Node76&#45;&gt;Node77</title>
<path fill="none" stroke="#191970" d="M147.6315,-95.589C161.1185,-100.2694 177.5427,-105.9692 192.1303,-111.0315"/>
<polygon fill="#191970" stroke="#191970" points="191.2826,-114.442 201.8774,-114.4141 193.5776,-107.8289 191.2826,-114.442"/>
</g>
<!-- Node78 -->
<g id="node9" class="node">
<title>Node78</title>
<g id="a_node9"><a xlink:href="cl_8c.html#a7a270c006c5de596626813b0625c9c42" target="_top" xlink:title="Returns whether classifier c1 is more general than c2. ">
<polygon fill="none" stroke="#000000" points="199,-76.5 199,-95.5 260,-95.5 260,-76.5 199,-76.5"/>
<text text-anchor="middle" x="229.5" y="-83.5" font-family="Helvetica,sans-Serif" font-size="10.00" fill="#000000">cl_general</text>
</a>
</g>
</g>
<!-- Node76&#45;&gt;Node78 -->
<g id="edge8" class="edge">
<title>Node76&#45;&gt;Node78</title>
<path fill="none" stroke="#191970" d="M156.1579,-86C166.5299,-86 177.9122,-86 188.5507,-86"/>
<polygon fill="#191970" stroke="#191970" points="188.8765,-89.5001 198.8764,-86 188.8764,-82.5001 188.8765,-89.5001"/>
</g>
<!-- Node81 -->
<g id="node12" class="node">
<title>Node81</title>
<g id="a_node12"><a xlink:href="utils_8c.html#a32648ab076544a9ac1c086d0f07b599f" target="_top" xlink:title="Returns a uniform random integer [min,max] not inclusive of max. ">
<polygon fill="none" stroke="#000000" points="192,-38.5 192,-57.5 267,-57.5 267,-38.5 192,-38.5"/>
<text text-anchor="middle" x="229.5" y="-45.5" font-family="Helvetica,sans-Serif" font-size="10.00" fill="#000000">irand_uniform</text>
</a>
</g>
</g>
<!-- Node76&#45;&gt;Node81 -->
<g id="edge12" class="edge">
<title>Node76&#45;&gt;Node81</title>
<path fill="none" stroke="#191970" d="M147.6315,-76.411C161.1185,-71.7306 177.5427,-66.0308 192.1303,-60.9685"/>
<polygon fill="#191970" stroke="#191970" points="193.5776,-64.1711 201.8774,-57.5859 191.2826,-57.558 193.5776,-64.1711"/>
</g>
<!-- Node76&#45;&gt;Node87 -->
<g id="edge18" class="edge">
<title>Node76&#45;&gt;Node87</title>
<path fill="none" stroke="#191970" d="M130.7084,-76.3909C144.3408,-64.4312 168.9032,-43.7816 192,-29 194.4781,-27.414 197.1057,-25.8564 199.7741,-24.3576"/>
<polygon fill="#191970" stroke="#191970" points="201.6614,-27.3181 208.8466,-19.532 198.3742,-21.1379 201.6614,-27.3181"/>
</g>
<!-- Node79 -->
<g id="node10" class="node">
<title>Node79</title>
<g id="a_node10"><a xlink:href="action_8h.html#a5e7db6967718fd96162050e97ac7a9e8" target="_top" xlink:title="act_general">
<polygon fill="none" stroke="#000000" points="306.5,-76.5 306.5,-95.5 373.5,-95.5 373.5,-76.5 306.5,-76.5"/>
<text text-anchor="middle" x="340" y="-83.5" font-family="Helvetica,sans-Serif" font-size="10.00" fill="#000000">act_general</text>
</a>
</g>
</g>
<!-- Node78&#45;&gt;Node79 -->
<g id="edge9" class="edge">
<title>Node78&#45;&gt;Node79</title>
<path fill="none" stroke="#191970" d="M260.2804,-86C271.3441,-86 284.0482,-86 296.0159,-86"/>
<polygon fill="#191970" stroke="#191970" points="296.2836,-89.5001 306.2835,-86 296.2835,-82.5001 296.2836,-89.5001"/>
</g>
<!-- Node80 -->
<g id="node11" class="node">
<title>Node80</title>
<g id="a_node11"><a xlink:href="condition_8h.html#acb015e6580d144289c6f9d254c39553c" target="_top" xlink:title="cond_general">
<polygon fill="none" stroke="#000000" points="303,-38.5 303,-57.5 377,-57.5 377,-38.5 303,-38.5"/>
<text text-anchor="middle" x="340" y="-45.5" font-family="Helvetica,sans-Serif" font-size="10.00" fill="#000000">cond_general</text>
</a>
</g>
</g>
<!-- Node78&#45;&gt;Node80 -->
<g id="edge10" class="edge">
<title>Node78&#45;&gt;Node80</title>
<path fill="none" stroke="#191970" d="M257.3838,-76.411C270.994,-71.7306 287.5682,-66.0308 302.2891,-60.9685"/>
<polygon fill="#191970" stroke="#191970" points="303.8069,-64.1478 312.1251,-57.5859 301.5304,-57.5282 303.8069,-64.1478"/>
</g>
<!-- Node82 -->
<g id="node13" class="node">
<title>Node82</title>
<g id="a_node13"><a xlink:href="utils_8c.html#ae42a9e1d467853befaa7922cfafed3bb" target="_top" xlink:title="Returns a uniform random float [min,max]. ">
<polygon fill="none" stroke="#000000" points="303.5,-.5 303.5,-19.5 376.5,-19.5 376.5,-.5 303.5,-.5"/>
<text text-anchor="middle" x="340" y="-7.5" font-family="Helvetica,sans-Serif" font-size="10.00" fill="#000000">rand_uniform</text>
</a>
</g>
</g>
<!-- Node81&#45;&gt;Node82 -->
<g id="edge13" class="edge">
<title>Node81&#45;&gt;Node82</title>
<path fill="none" stroke="#191970" d="M257.3838,-38.411C270.994,-33.7306 287.5682,-28.0308 302.2891,-22.9685"/>
<polygon fill="#191970" stroke="#191970" points="303.8069,-26.1478 312.1251,-19.5859 301.5304,-19.5282 303.8069,-26.1478"/>
</g>
<!-- Node83 -->
<g id="node14" class="node">
<title>Node83</title>
<g id="a_node14"><a xlink:href="utils_8c.html#a0c0a81e7797a05c535bad34449d8642c" target="_top" xlink:title="Returns a uniform random float [0,1]. ">
<polygon fill="none" stroke="#000000" points="413,-.5 413,-19.5 454,-19.5 454,-.5 413,-.5"/>
<text text-anchor="middle" x="433.5" y="-7.5" font-family="Helvetica,sans-Serif" font-size="10.00" fill="#000000">drand</text>
</a>
</g>
</g>
<!-- Node82&#45;&gt;Node83 -->
<g id="edge14" class="edge">
<title>Node82&#45;&gt;Node83</title>
<path fill="none" stroke="#191970" d="M376.6853,-10C385.3188,-10 394.433,-10 402.7732,-10"/>
<polygon fill="#191970" stroke="#191970" points="402.8291,-13.5001 412.8291,-10 402.829,-6.5001 402.8291,-13.5001"/>
</g>
<!-- Node84 -->
<g id="node15" class="node">
<title>Node84</title>
<g id="a_node15"><a xlink:href="mt19937-64_8c.html#aa0b74daf51eca91df224d00f1730084a" target="_top" xlink:title="genrand64_real1">
<polygon fill="none" stroke="#000000" points="490,-.5 490,-19.5 578,-19.5 578,-.5 490,-.5"/>
<text text-anchor="middle" x="534" y="-7.5" font-family="Helvetica,sans-Serif" font-size="10.00" fill="#000000">genrand64_real1</text>
</a>
</g>
</g>
<!-- Node83&#45;&gt;Node84 -->
<g id="edge15" class="edge">
<title>Node83&#45;&gt;Node84</title>
<path fill="none" stroke="#191970" d="M454.3237,-10C461.8428,-10 470.7193,-10 479.769,-10"/>
<polygon fill="#191970" stroke="#191970" points="479.9969,-13.5001 489.9969,-10 479.9969,-6.5001 479.9969,-13.5001"/>
</g>
<!-- Node85 -->
<g id="node16" class="node">
<title>Node85</title>
<g id="a_node16"><a xlink:href="mt19937-64_8c.html#a265bf48d20d6e0347371fcf4fe340e6d" target="_top" xlink:title="genrand64_int64">
<polygon fill="none" stroke="#000000" points="614,-.5 614,-19.5 702,-19.5 702,-.5 614,-.5"/>
<text text-anchor="middle" x="658" y="-7.5" font-family="Helvetica,sans-Serif" font-size="10.00" fill="#000000">genrand64_int64</text>
</a>
</g>
</g>
<!-- Node84&#45;&gt;Node85 -->
<g id="edge16" class="edge">
<title>Node84&#45;&gt;Node85</title>
<path fill="none" stroke="#191970" d="M578.0669,-10C586.2822,-10 594.957,-10 603.4432,-10"/>
<polygon fill="#191970" stroke="#191970" points="603.6572,-13.5001 613.6572,-10 603.6572,-6.5001 603.6572,-13.5001"/>
</g>
<!-- Node86 -->
<g id="node17" class="node">
<title>Node86</title>
<g id="a_node17"><a xlink:href="mt19937-64_8c.html#adf4127d44c2dc34fcb318d406131ef7c" target="_top" xlink:title="init_genrand64">
<polygon fill="none" stroke="#000000" points="738,-.5 738,-19.5 818,-19.5 818,-.5 738,-.5"/>
<text text-anchor="middle" x="778" y="-7.5" font-family="Helvetica,sans-Serif" font-size="10.00" fill="#000000">init_genrand64</text>
</a>
</g>
</g>
<!-- Node85&#45;&gt;Node86 -->
<g id="edge17" class="edge">
<title>Node85&#45;&gt;Node86</title>
<path fill="none" stroke="#191970" d="M702.0022,-10C710.3719,-10 719.1896,-10 727.7365,-10"/>
<polygon fill="#191970" stroke="#191970" points="727.9792,-13.5001 737.9792,-10 727.9792,-6.5001 727.9792,-13.5001"/>
</g>
</g>
</svg>
