<?xml version="1.0" encoding="UTF-8" standalone="no"?>
<!DOCTYPE svg PUBLIC "-//W3C//DTD SVG 1.1//EN"
 "http://www.w3.org/Graphics/SVG/1.1/DTD/svg11.dtd">
<!-- Generated by graphviz version 2.40.1 (20161225.0304)
 -->
<!-- Title: ea_select_tournament Pages: 1 -->
<svg width="890pt" height="142pt"
 viewBox="0.00 0.00 890.00 142.00" xmlns="http://www.w3.org/2000/svg" xmlns:xlink="http://www.w3.org/1999/xlink">
<g id="graph0" class="graph" transform="scale(1 1) rotate(0) translate(4 138)">
<title>ea_select_tournament</title>
<!-- Node171 -->
<g id="node1" class="node">
<title>Node171</title>
<polygon fill="#bfbfbf" stroke="#000000" points="0,-76.5 0,-95.5 113,-95.5 113,-76.5 0,-76.5"/>
<text text-anchor="middle" x="56.5" y="-83.5" font-family="Helvetica,sans-Serif" font-size="10.00" fill="#000000">ea_select_tournament</text>
</g>
<!-- Node172 -->
<g id="node2" class="node">
<title>Node172</title>
<g id="a_node2"><a xlink:href="ea_8c.html#a02828c52edd2cab594cc6db388b278e0" target="_top" xlink:title="Selects two parents. ">
<polygon fill="none" stroke="#000000" points="149,-76.5 149,-95.5 245,-95.5 245,-76.5 149,-76.5"/>
<text text-anchor="middle" x="197" y="-83.5" font-family="Helvetica,sans-Serif" font-size="10.00" fill="#000000">ea_select_parents</text>
</a>
</g>
</g>
<!-- Node171&#45;&gt;Node172 -->
<g id="edge1" class="edge">
<title>Node171&#45;&gt;Node172</title>
<path fill="none" stroke="#191970" d="M123.5103,-86C131.9815,-86 140.5157,-86 148.6187,-86"/>
<polygon fill="#191970" stroke="#191970" points="123.2418,-82.5001 113.2417,-86 123.2417,-89.5001 123.2418,-82.5001"/>
</g>
<!-- Node173 -->
<g id="node3" class="node">
<title>Node173</title>
<g id="a_node3"><a xlink:href="ea_8h.html#ae3824341a2f5482cb6ac70b3839ded51" target="_top" xlink:title="Executes the evolutionary algorithm (EA). ">
<polygon fill="none" stroke="#000000" points="281,-76.5 281,-95.5 310,-95.5 310,-76.5 281,-76.5"/>
<text text-anchor="middle" x="295.5" y="-83.5" font-family="Helvetica,sans-Serif" font-size="10.00" fill="#000000">ea</text>
</a>
</g>
</g>
<!-- Node172&#45;&gt;Node173 -->
<g id="edge2" class="edge">
<title>Node172&#45;&gt;Node173</title>
<path fill="none" stroke="#191970" d="M255.1767,-86C264.7495,-86 273.8567,-86 280.9858,-86"/>
<polygon fill="#191970" stroke="#191970" points="255.0958,-82.5001 245.0958,-86 255.0958,-89.5001 255.0958,-82.5001"/>
</g>
<!-- Node174 -->
<g id="node4" class="node">
<title>Node174</title>
<g id="a_node4"><a xlink:href="xcs__multi__step_8c.html#a9f6d53384f68b9354b5757dd2c7771fd" target="_top" xlink:title="Executes a multi&#45;step explore trial. ">
<polygon fill="none" stroke="#000000" points="348.5,-114.5 348.5,-133.5 443.5,-133.5 443.5,-114.5 348.5,-114.5"/>
<text text-anchor="middle" x="396" y="-121.5" font-family="Helvetica,sans-Serif" font-size="10.00" fill="#000000">xcs_multi_explore</text>
</a>
</g>
</g>
<!-- Node173&#45;&gt;Node174 -->
<g id="edge3" class="edge">
<title>Node173&#45;&gt;Node174</title>
<path fill="none" stroke="#191970" d="M319.6974,-95.1493C335.08,-100.9656 354.9652,-108.4843 370.5787,-114.388"/>
<polygon fill="#191970" stroke="#191970" points="320.9207,-91.87 310.3291,-91.607 318.4449,-98.4176 320.9207,-91.87"/>
</g>
<!-- Node178 -->
<g id="node8" class="node">
<title>Node178</title>
<g id="a_node8"><a xlink:href="xcs__single__step_8c.html#aef07baf4de9b02d9c6fd33a1c485e7ea" target="_top" xlink:title="Executes a single&#45;step explore trial. ">
<polygon fill="none" stroke="#000000" points="346,-76.5 346,-95.5 446,-95.5 446,-76.5 346,-76.5"/>
<text text-anchor="middle" x="396" y="-83.5" font-family="Helvetica,sans-Serif" font-size="10.00" fill="#000000">xcs_single_explore</text>
</a>
</g>
</g>
<!-- Node173&#45;&gt;Node178 -->
<g id="edge7" class="edge">
<title>Node173&#45;&gt;Node178</title>
<path fill="none" stroke="#191970" d="M320.4037,-86C328.1182,-86 336.9126,-86 345.7086,-86"/>
<polygon fill="#191970" stroke="#191970" points="320.3292,-82.5001 310.3291,-86 320.3291,-89.5001 320.3292,-82.5001"/>
</g>
<!-- Node180 -->
<g id="node10" class="node">
<title>Node180</title>
<g id="a_node10"><a xlink:href="xcsf_8c.html#a6dfb03d255a2684e9e06e88f9a4e3a3d" target="_top" xlink:title="Executes a single XCSF learning trial. ">
<polygon fill="none" stroke="#000000" points="354.5,-38.5 354.5,-57.5 437.5,-57.5 437.5,-38.5 354.5,-38.5"/>
<text text-anchor="middle" x="396" y="-45.5" font-family="Helvetica,sans-Serif" font-size="10.00" fill="#000000">xcsf_learn_trial</text>
</a>
</g>
</g>
<!-- Node173&#45;&gt;Node180 -->
<g id="edge10" class="edge">
<title>Node173&#45;&gt;Node180</title>
<path fill="none" stroke="#191970" d="M319.6974,-76.8507C335.08,-71.0344 354.9652,-63.5157 370.5787,-57.612"/>
<polygon fill="#191970" stroke="#191970" points="318.4449,-73.5824 310.3291,-80.393 320.9207,-80.13 318.4449,-73.5824"/>
</g>
<!-- Node175 -->
<g id="node5" class="node">
<title>Node175</title>
<g id="a_node5"><a xlink:href="xcs__multi__step_8h.html#acc29d4a55dbd56c16ea5f19f15a7c677" target="_top" xlink:title="Executes a multi&#45;step reinforcement learning experiment. ">
<polygon fill="none" stroke="#000000" points="484,-114.5 484,-133.5 588,-133.5 588,-114.5 484,-114.5"/>
<text text-anchor="middle" x="536" y="-121.5" font-family="Helvetica,sans-Serif" font-size="10.00" fill="#000000">xcs_multi_step_exp</text>
</a>
</g>
</g>
<!-- Node174&#45;&gt;Node175 -->
<g id="edge4" class="edge">
<title>Node174&#45;&gt;Node175</title>
<path fill="none" stroke="#191970" d="M453.9011,-124C463.7523,-124 473.9332,-124 483.6312,-124"/>
<polygon fill="#191970" stroke="#191970" points="453.7885,-120.5001 443.7885,-124 453.7885,-127.5001 453.7885,-120.5001"/>
</g>
<!-- Node176 -->
<g id="node6" class="node">
<title>Node176</title>
<g id="a_node6"><a xlink:href="main_8c.html#ab572a67aa431827116ebd6931d667d21" target="_top" xlink:title="classification">
<polygon fill="none" stroke="#000000" points="626,-114.5 626,-133.5 700,-133.5 700,-114.5 626,-114.5"/>
<text text-anchor="middle" x="663" y="-121.5" font-family="Helvetica,sans-Serif" font-size="10.00" fill="#000000">classification</text>
</a>
</g>
</g>
<!-- Node175&#45;&gt;Node176 -->
<g id="edge5" class="edge">
<title>Node175&#45;&gt;Node176</title>
<path fill="none" stroke="#191970" d="M598.1594,-124C607.5516,-124 616.9829,-124 625.6309,-124"/>
<polygon fill="#191970" stroke="#191970" points="598.0222,-120.5001 588.0222,-124 598.0222,-127.5001 598.0222,-120.5001"/>
</g>
<!-- Node177 -->
<g id="node7" class="node">
<title>Node177</title>
<g id="a_node7"><a xlink:href="main_8c.html#a3c04138a5bfe5d72780bb7e82a18e627" target="_top" xlink:title="main">
<polygon fill="none" stroke="#000000" points="790,-95.5 790,-114.5 828,-114.5 828,-95.5 790,-95.5"/>
<text text-anchor="middle" x="809" y="-102.5" font-family="Helvetica,sans-Serif" font-size="10.00" fill="#000000">main</text>
</a>
</g>
</g>
<!-- Node176&#45;&gt;Node177 -->
<g id="edge6" class="edge">
<title>Node176&#45;&gt;Node177</title>
<path fill="none" stroke="#191970" d="M710.2611,-117.8496C737.2443,-114.3381 769.6082,-110.1263 789.7429,-107.5061"/>
<polygon fill="#191970" stroke="#191970" points="709.6844,-114.395 700.2197,-119.1563 710.5878,-121.3365 709.6844,-114.395"/>
</g>
<!-- Node179 -->
<g id="node9" class="node">
<title>Node179</title>
<g id="a_node9"><a xlink:href="xcs__single__step_8h.html#a39a031bf59eaa9b33e30e614610dcda8" target="_top" xlink:title="Executes a single&#45;step experiment. ">
<polygon fill="none" stroke="#000000" points="482,-76.5 482,-95.5 590,-95.5 590,-76.5 482,-76.5"/>
<text text-anchor="middle" x="536" y="-83.5" font-family="Helvetica,sans-Serif" font-size="10.00" fill="#000000">xcs_single_step_exp</text>
</a>
</g>
</g>
<!-- Node178&#45;&gt;Node179 -->
<g id="edge8" class="edge">
<title>Node178&#45;&gt;Node179</title>
<path fill="none" stroke="#191970" d="M456.3823,-86C464.8794,-86 473.5692,-86 481.9381,-86"/>
<polygon fill="#191970" stroke="#191970" points="456.1478,-82.5001 446.1478,-86 456.1477,-89.5001 456.1478,-82.5001"/>
</g>
<!-- Node179&#45;&gt;Node176 -->
<g id="edge9" class="edge">
<title>Node179&#45;&gt;Node176</title>
<path fill="none" stroke="#191970" d="M577.8943,-98.5353C595.1712,-103.7048 614.8707,-109.5991 630.9628,-114.4141"/>
<polygon fill="#191970" stroke="#191970" points="578.6311,-95.1025 568.0475,-95.589 576.6245,-101.8088 578.6311,-95.1025"/>
</g>
<!-- Node181 -->
<g id="node11" class="node">
<title>Node181</title>
<g id="a_node11"><a xlink:href="xcsf_8h.html#a874829f28fee20f9ad15b540f4b4d6ff" target="_top" xlink:title="Executes MAX_TRIALS number of XCSF learning iterations using the training data. ">
<polygon fill="none" stroke="#000000" points="509,-.5 509,-19.5 563,-19.5 563,-.5 509,-.5"/>
<text text-anchor="middle" x="536" y="-7.5" font-family="Helvetica,sans-Serif" font-size="10.00" fill="#000000">xcsf_fit1</text>
</a>
</g>
</g>
<!-- Node180&#45;&gt;Node181 -->
<g id="edge11" class="edge">
<title>Node180&#45;&gt;Node181</title>
<path fill="none" stroke="#191970" d="M441.2271,-35.7241C463.4412,-29.6945 489.4767,-22.6277 508.6326,-17.4283"/>
<polygon fill="#191970" stroke="#191970" points="440.0619,-32.4136 431.3279,-38.411 441.8956,-39.1692 440.0619,-32.4136"/>
</g>
<!-- Node184 -->
<g id="node14" class="node">
<title>Node184</title>
<g id="a_node14"><a xlink:href="xcsf_8h.html#a0b4de57cb9dadc9deca7901aa36e5025" target="_top" xlink:title="Executes MAX_TRIALS number of XCSF learning iterations using the training. data and test iterations u...">
<polygon fill="none" stroke="#000000" points="509,-38.5 509,-57.5 563,-57.5 563,-38.5 509,-38.5"/>
<text text-anchor="middle" x="536" y="-45.5" font-family="Helvetica,sans-Serif" font-size="10.00" fill="#000000">xcsf_fit2</text>
</a>
</g>
</g>
<!-- Node180&#45;&gt;Node184 -->
<g id="edge14" class="edge">
<title>Node180&#45;&gt;Node184</title>
<path fill="none" stroke="#191970" d="M447.8921,-48C468.6074,-48 491.5945,-48 508.8938,-48"/>
<polygon fill="#191970" stroke="#191970" points="447.6256,-44.5001 437.6256,-48 447.6255,-51.5001 447.6256,-44.5001"/>
</g>
<!-- Node182 -->
<g id="node12" class="node">
<title>Node182</title>
<g id="a_node12"><a xlink:href="structXCS.html#ad2ccafe59d2b4ae6d0e1cbc15edee53c" target="_top" xlink:title="XCS::fit">
<polygon fill="none" stroke="#000000" points="637,-.5 637,-19.5 689,-19.5 689,-.5 637,-.5"/>
<text text-anchor="middle" x="663" y="-7.5" font-family="Helvetica,sans-Serif" font-size="10.00" fill="#000000">XCS::fit</text>
</a>
</g>
</g>
<!-- Node181&#45;&gt;Node182 -->
<g id="edge12" class="edge">
<title>Node181&#45;&gt;Node182</title>
<path fill="none" stroke="#191970" d="M573.4227,-10C593.7458,-10 618.3818,-10 636.6699,-10"/>
<polygon fill="#191970" stroke="#191970" points="573.2447,-6.5001 563.2447,-10 573.2447,-13.5001 573.2447,-6.5001"/>
</g>
<!-- Node183 -->
<g id="node13" class="node">
<title>Node183</title>
<g id="a_node13"><a xlink:href="python__wrapper_8cpp.html#afbdcc1358036a0b83a6b239da2b098a2" target="_top" xlink:title="BOOST_PYTHON_MODULE">
<polygon fill="none" stroke="#000000" points="736,-.5 736,-19.5 882,-19.5 882,-.5 736,-.5"/>
<text text-anchor="middle" x="809" y="-7.5" font-family="Helvetica,sans-Serif" font-size="10.00" fill="#000000">BOOST_PYTHON_MODULE</text>
</a>
</g>
</g>
<!-- Node182&#45;&gt;Node183 -->
<g id="edge13" class="edge">
<title>Node182&#45;&gt;Node183</title>
<path fill="none" stroke="#191970" d="M699.2709,-10C710.4242,-10 723.1243,-10 735.8312,-10"/>
<polygon fill="#191970" stroke="#191970" points="699.1019,-6.5001 689.1019,-10 699.1018,-13.5001 699.1019,-6.5001"/>
</g>
<!-- Node185 -->
<g id="node15" class="node">
<title>Node185</title>
<g id="a_node15"><a xlink:href="main_8c.html#a968c78da8ed8ad08662a86280deec99a" target="_top" xlink:title="regression">
<polygon fill="none" stroke="#000000" points="632,-76.5 632,-95.5 694,-95.5 694,-76.5 632,-76.5"/>
<text text-anchor="middle" x="663" y="-83.5" font-family="Helvetica,sans-Serif" font-size="10.00" fill="#000000">regression</text>
</a>
</g>
</g>
<!-- Node184&#45;&gt;Node185 -->
<g id="edge15" class="edge">
<title>Node184&#45;&gt;Node185</title>
<path fill="none" stroke="#191970" d="M572.8981,-59.0404C591.5652,-64.6258 613.9762,-71.3315 631.7773,-76.6578"/>
<polygon fill="#191970" stroke="#191970" points="573.8283,-55.6655 563.2447,-56.152 571.8217,-62.3717 573.8283,-55.6655"/>
</g>
<!-- Node186 -->
<g id="node16" class="node">
<title>Node186</title>
<g id="a_node16"><a xlink:href="structXCS.html#a7d53320740db8e846251bacd0238a9fb" target="_top" xlink:title="XCS::fit">
<polygon fill="none" stroke="#000000" points="637,-38.5 637,-57.5 689,-57.5 689,-38.5 637,-38.5"/>
<text text-anchor="middle" x="663" y="-45.5" font-family="Helvetica,sans-Serif" font-size="10.00" fill="#000000">XCS::fit</text>
</a>
</g>
</g>
<!-- Node184&#45;&gt;Node186 -->
<g id="edge17" class="edge">
<title>Node184&#45;&gt;Node186</title>
<path fill="none" stroke="#191970" d="M573.4227,-48C593.7458,-48 618.3818,-48 636.6699,-48"/>
<polygon fill="#191970" stroke="#191970" points="573.2447,-44.5001 563.2447,-48 573.2447,-51.5001 573.2447,-44.5001"/>
</g>
<!-- Node185&#45;&gt;Node177 -->
<g id="edge16" class="edge">
<title>Node185&#45;&gt;Node177</title>
<path fill="none" stroke="#191970" d="M704.2659,-91.3702C732.3244,-95.0217 768.1493,-99.6838 789.7946,-102.5007"/>
<polygon fill="#191970" stroke="#191970" points="704.6887,-87.8958 694.3207,-90.076 703.7853,-94.8373 704.6887,-87.8958"/>
</g>
</g>
</svg>
