<?xml version="1.0" encoding="UTF-8" standalone="no"?>
<!DOCTYPE svg PUBLIC "-//W3C//DTD SVG 1.1//EN"
 "http://www.w3.org/Graphics/SVG/1.1/DTD/svg11.dtd">
<!-- Generated by graphviz version 2.40.1 (20161225.0304)
 -->
<!-- Title: ea_select_tournament Pages: 1 -->
<svg width="918pt" height="256pt"
 viewBox="0.00 0.00 918.00 256.00" xmlns="http://www.w3.org/2000/svg" xmlns:xlink="http://www.w3.org/1999/xlink">
<g id="graph0" class="graph" transform="scale(1 1) rotate(0) translate(4 252)">
<title>ea_select_tournament</title>
<!-- Node173 -->
<g id="node1" class="node">
<title>Node173</title>
<polygon fill="#bfbfbf" stroke="#000000" points="0,-171.5 0,-190.5 113,-190.5 113,-171.5 0,-171.5"/>
<text text-anchor="middle" x="56.5" y="-178.5" font-family="Helvetica,sans-Serif" font-size="10.00" fill="#000000">ea_select_tournament</text>
</g>
<!-- Node174 -->
<g id="node2" class="node">
<title>Node174</title>
<g id="a_node2"><a xlink:href="ea_8c.html#a5cd7c69a55f785aa0bfedcc146a322dd" target="_top" xlink:title="Selects two parents. ">
<polygon fill="none" stroke="#000000" points="149,-171.5 149,-190.5 245,-190.5 245,-171.5 149,-171.5"/>
<text text-anchor="middle" x="197" y="-178.5" font-family="Helvetica,sans-Serif" font-size="10.00" fill="#000000">ea_select_parents</text>
</a>
</g>
</g>
<!-- Node173&#45;&gt;Node174 -->
<g id="edge1" class="edge">
<title>Node173&#45;&gt;Node174</title>
<path fill="none" stroke="#191970" d="M123.5103,-181C131.9815,-181 140.5157,-181 148.6187,-181"/>
<polygon fill="#191970" stroke="#191970" points="123.2418,-177.5001 113.2417,-181 123.2417,-184.5001 123.2418,-177.5001"/>
</g>
<!-- Node175 -->
<g id="node3" class="node">
<title>Node175</title>
<g id="a_node3"><a xlink:href="ea_8h.html#ae90a9b4131bb94462265b9c928499eb8" target="_top" xlink:title="Executes the evolutionary algorithm (EA). ">
<polygon fill="none" stroke="#000000" points="281,-171.5 281,-190.5 310,-190.5 310,-171.5 281,-171.5"/>
<text text-anchor="middle" x="295.5" y="-178.5" font-family="Helvetica,sans-Serif" font-size="10.00" fill="#000000">ea</text>
</a>
</g>
</g>
<!-- Node174&#45;&gt;Node175 -->
<g id="edge2" class="edge">
<title>Node174&#45;&gt;Node175</title>
<path fill="none" stroke="#191970" d="M255.1767,-181C264.7495,-181 273.8567,-181 280.9858,-181"/>
<polygon fill="#191970" stroke="#191970" points="255.0958,-177.5001 245.0958,-181 255.0958,-184.5001 255.0958,-177.5001"/>
</g>
<!-- Node176 -->
<g id="node4" class="node">
<title>Node176</title>
<g id="a_node4"><a xlink:href="xcs__multi__step_8c.html#ad50c415970b4bfc42f469fb38c5e68fa" target="_top" xlink:title="Executes a multi&#45;step trial using a built&#45;in environment. ">
<polygon fill="none" stroke="#000000" points="355,-218.5 355,-237.5 435,-237.5 435,-218.5 355,-218.5"/>
<text text-anchor="middle" x="395" y="-225.5" font-family="Helvetica,sans-Serif" font-size="10.00" fill="#000000">xcs_multi_trial</text>
</a>
</g>
</g>
<!-- Node175&#45;&gt;Node176 -->
<g id="edge3" class="edge">
<title>Node175&#45;&gt;Node176</title>
<path fill="none" stroke="#191970" d="M319.4056,-192.2921C336.3056,-200.275 358.714,-210.8599 374.7373,-218.4287"/>
<polygon fill="#191970" stroke="#191970" points="320.7185,-189.0415 310.1816,-187.935 317.7287,-195.3709 320.7185,-189.0415"/>
</g>
<!-- Node179 -->
<g id="node7" class="node">
<title>Node179</title>
<g id="a_node7"><a xlink:href="xcs__single__step_8h.html#a0ff6b521f66224d56ef0e6f50f5781b9" target="_top" xlink:title="Creates the action set, updates the classifiers and runs the EA. ">
<polygon fill="none" stroke="#000000" points="346,-171.5 346,-190.5 444,-190.5 444,-171.5 346,-171.5"/>
<text text-anchor="middle" x="395" y="-178.5" font-family="Helvetica,sans-Serif" font-size="10.00" fill="#000000">xcs_single_update</text>
</a>
</g>
</g>
<!-- Node175&#45;&gt;Node179 -->
<g id="edge6" class="edge">
<title>Node175&#45;&gt;Node179</title>
<path fill="none" stroke="#191970" d="M320.2801,-181C328.0174,-181 336.8425,-181 345.6508,-181"/>
<polygon fill="#191970" stroke="#191970" points="320.1816,-177.5001 310.1816,-181 320.1815,-184.5001 320.1816,-177.5001"/>
</g>
<!-- Node184 -->
<g id="node12" class="node">
<title>Node184</title>
<g id="a_node12"><a xlink:href="xcsf_8c.html#af5fb604e81235fdcb2ed8925d9291f59" target="_top" xlink:title="Executes a single XCSF trial. ">
<polygon fill="none" stroke="#000000" points="367,-57.5 367,-76.5 423,-76.5 423,-57.5 367,-57.5"/>
<text text-anchor="middle" x="395" y="-64.5" font-family="Helvetica,sans-Serif" font-size="10.00" fill="#000000">xcsf_trial</text>
</a>
</g>
</g>
<!-- Node175&#45;&gt;Node184 -->
<g id="edge12" class="edge">
<title>Node175&#45;&gt;Node184</title>
<path fill="none" stroke="#191970" d="M310.7434,-163.5352C331.9778,-139.2063 369.7403,-95.9408 386.5382,-76.695"/>
<polygon fill="#191970" stroke="#191970" points="307.9221,-161.445 303.9833,-171.2804 313.1959,-166.048 307.9221,-161.445"/>
</g>
<!-- Node177 -->
<g id="node5" class="node">
<title>Node177</title>
<g id="a_node5"><a xlink:href="xcs__multi__step_8h.html#acc29d4a55dbd56c16ea5f19f15a7c677" target="_top" xlink:title="Executes a multi&#45;step reinforcement learning experiment. ">
<polygon fill="none" stroke="#000000" points="622,-228.5 622,-247.5 726,-247.5 726,-228.5 622,-228.5"/>
<text text-anchor="middle" x="674" y="-235.5" font-family="Helvetica,sans-Serif" font-size="10.00" fill="#000000">xcs_multi_step_exp</text>
</a>
</g>
</g>
<!-- Node176&#45;&gt;Node177 -->
<g id="edge4" class="edge">
<title>Node176&#45;&gt;Node177</title>
<path fill="none" stroke="#191970" d="M445.5047,-229.8102C495.4046,-231.5987 571.3872,-234.3221 621.8508,-236.1309"/>
<polygon fill="#191970" stroke="#191970" points="445.39,-226.3039 435.271,-229.4434 445.1392,-233.2994 445.39,-226.3039"/>
</g>
<!-- Node178 -->
<g id="node6" class="node">
<title>Node178</title>
<g id="a_node6"><a xlink:href="main_8c.html#a3c04138a5bfe5d72780bb7e82a18e627" target="_top" xlink:title="main">
<polygon fill="none" stroke="#000000" points="818,-190.5 818,-209.5 856,-209.5 856,-190.5 818,-190.5"/>
<text text-anchor="middle" x="837" y="-197.5" font-family="Helvetica,sans-Serif" font-size="10.00" fill="#000000">main</text>
</a>
</g>
</g>
<!-- Node177&#45;&gt;Node178 -->
<g id="edge5" class="edge">
<title>Node177&#45;&gt;Node178</title>
<path fill="none" stroke="#191970" d="M725.0525,-226.0982C756.4599,-218.7762 794.9128,-209.8117 817.6012,-204.5224"/>
<polygon fill="#191970" stroke="#191970" points="724.076,-222.7319 715.1318,-228.411 725.6653,-229.5491 724.076,-222.7319"/>
</g>
<!-- Node180 -->
<g id="node8" class="node">
<title>Node180</title>
<g id="a_node8"><a xlink:href="structXCS.html#aedc01ad6f00a54b260a7605929a1d4c9" target="_top" xlink:title="XCS::single_update">
<polygon fill="none" stroke="#000000" points="480,-152.5 480,-171.5 584,-171.5 584,-152.5 480,-152.5"/>
<text text-anchor="middle" x="532" y="-159.5" font-family="Helvetica,sans-Serif" font-size="10.00" fill="#000000">XCS::single_update</text>
</a>
</g>
</g>
<!-- Node179&#45;&gt;Node180 -->
<g id="edge7" class="edge">
<title>Node179&#45;&gt;Node180</title>
<path fill="none" stroke="#191970" d="M454.2254,-172.7863C462.6549,-171.6172 471.2753,-170.4217 479.5632,-169.2723"/>
<polygon fill="#191970" stroke="#191970" points="453.4976,-169.3536 444.0732,-174.1942 454.4592,-176.2873 453.4976,-169.3536"/>
</g>
<!-- Node182 -->
<g id="node10" class="node">
<title>Node182</title>
<g id="a_node10"><a xlink:href="xcs__single__step_8c.html#a536ab4256e871e31959ea6e907455340" target="_top" xlink:title="Executes a single&#45;step trial using a built&#45;in environment. ">
<polygon fill="none" stroke="#000000" points="490,-190.5 490,-209.5 574,-209.5 574,-190.5 490,-190.5"/>
<text text-anchor="middle" x="532" y="-197.5" font-family="Helvetica,sans-Serif" font-size="10.00" fill="#000000">xcs_single_trial</text>
</a>
</g>
</g>
<!-- Node179&#45;&gt;Node182 -->
<g id="edge9" class="edge">
<title>Node179&#45;&gt;Node182</title>
<path fill="none" stroke="#191970" d="M454.0069,-189.1834C465.9825,-190.8443 478.3528,-192.5599 489.6154,-194.1218"/>
<polygon fill="#191970" stroke="#191970" points="454.4592,-185.7128 444.0732,-187.8058 453.4976,-192.6464 454.4592,-185.7128"/>
</g>
<!-- Node181 -->
<g id="node9" class="node">
<title>Node181</title>
<g id="a_node9"><a xlink:href="python__wrapper_8cpp.html#afbdcc1358036a0b83a6b239da2b098a2" target="_top" xlink:title="BOOST_PYTHON_MODULE">
<polygon fill="none" stroke="#000000" points="764,-57.5 764,-76.5 910,-76.5 910,-57.5 764,-57.5"/>
<text text-anchor="middle" x="837" y="-64.5" font-family="Helvetica,sans-Serif" font-size="10.00" fill="#000000">BOOST_PYTHON_MODULE</text>
</a>
</g>
</g>
<!-- Node180&#45;&gt;Node181 -->
<g id="edge8" class="edge">
<title>Node180&#45;&gt;Node181</title>
<path fill="none" stroke="#191970" d="M576.5475,-149.7635C616.4055,-138.6446 676.3418,-121.5037 728,-105 756.4442,-95.9127 788.7024,-84.5307 810.6992,-76.6036"/>
<polygon fill="#191970" stroke="#191970" points="575.5605,-146.405 566.8639,-152.4565 577.4361,-153.1491 575.5605,-146.405"/>
</g>
<!-- Node183 -->
<g id="node11" class="node">
<title>Node183</title>
<g id="a_node11"><a xlink:href="xcs__single__step_8h.html#a39a031bf59eaa9b33e30e614610dcda8" target="_top" xlink:title="Executes a single&#45;step reinforcement learning experiment. ">
<polygon fill="none" stroke="#000000" points="620,-190.5 620,-209.5 728,-209.5 728,-190.5 620,-190.5"/>
<text text-anchor="middle" x="674" y="-197.5" font-family="Helvetica,sans-Serif" font-size="10.00" fill="#000000">xcs_single_step_exp</text>
</a>
</g>
</g>
<!-- Node182&#45;&gt;Node183 -->
<g id="edge10" class="edge">
<title>Node182&#45;&gt;Node183</title>
<path fill="none" stroke="#191970" d="M584.551,-200C596.0539,-200 608.2511,-200 619.8166,-200"/>
<polygon fill="#191970" stroke="#191970" points="584.2203,-196.5001 574.2202,-200 584.2202,-203.5001 584.2203,-196.5001"/>
</g>
<!-- Node183&#45;&gt;Node178 -->
<g id="edge11" class="edge">
<title>Node183&#45;&gt;Node178</title>
<path fill="none" stroke="#191970" d="M738.611,-200C767.0891,-200 798.4445,-200 817.9303,-200"/>
<polygon fill="#191970" stroke="#191970" points="738.2767,-196.5001 728.2766,-200 738.2766,-203.5001 738.2767,-196.5001"/>
</g>
<!-- Node185 -->
<g id="node13" class="node">
<title>Node185</title>
<g id="a_node13"><a xlink:href="xcsf_8h.html#aee465caea59599a71fc69528598156cb" target="_top" xlink:title="Executes MAX_TRIALS number of XCSF learning iterations using the training. data and test iterations u...">
<polygon fill="none" stroke="#000000" points="507.5,-76.5 507.5,-95.5 556.5,-95.5 556.5,-76.5 507.5,-76.5"/>
<text text-anchor="middle" x="532" y="-83.5" font-family="Helvetica,sans-Serif" font-size="10.00" fill="#000000">xcsf_fit</text>
</a>
</g>
</g>
<!-- Node184&#45;&gt;Node185 -->
<g id="edge13" class="edge">
<title>Node184&#45;&gt;Node185</title>
<path fill="none" stroke="#191970" d="M433.1185,-72.2865C456.7972,-75.5704 486.5501,-79.6967 507.2027,-82.561"/>
<polygon fill="#191970" stroke="#191970" points="433.4406,-68.7978 423.0546,-70.8908 432.479,-75.7314 433.4406,-68.7978"/>
</g>
<!-- Node187 -->
<g id="node15" class="node">
<title>Node187</title>
<g id="a_node15"><a xlink:href="xcsf_8h.html#af128a7da769acabe2e841e8d06749b0b" target="_top" xlink:title="Calculates the XCSF predictions for the provided input. ">
<polygon fill="none" stroke="#000000" points="497,-38.5 497,-57.5 567,-57.5 567,-38.5 497,-38.5"/>
<text text-anchor="middle" x="532" y="-45.5" font-family="Helvetica,sans-Serif" font-size="10.00" fill="#000000">xcsf_predict</text>
</a>
</g>
</g>
<!-- Node184&#45;&gt;Node187 -->
<g id="edge17" class="edge">
<title>Node184&#45;&gt;Node187</title>
<path fill="none" stroke="#191970" d="M433.064,-61.721C453.0542,-58.9487 477.385,-55.5743 496.9157,-52.8657"/>
<polygon fill="#191970" stroke="#191970" points="432.479,-58.2686 423.0546,-63.1092 433.4406,-65.2022 432.479,-58.2686"/>
</g>
<!-- Node189 -->
<g id="node17" class="node">
<title>Node189</title>
<g id="a_node17"><a xlink:href="xcsf_8h.html#a348b8cd321211c377fb1deedc62c7c67" target="_top" xlink:title="Calculates the XCSF error for the input data. ">
<polygon fill="none" stroke="#000000" points="499.5,-.5 499.5,-19.5 564.5,-19.5 564.5,-.5 499.5,-.5"/>
<text text-anchor="middle" x="532" y="-7.5" font-family="Helvetica,sans-Serif" font-size="10.00" fill="#000000">xcsf_score</text>
</a>
</g>
</g>
<!-- Node184&#45;&gt;Node189 -->
<g id="edge20" class="edge">
<title>Node184&#45;&gt;Node189</title>
<path fill="none" stroke="#191970" d="M424.9163,-53.0094C441.1046,-45.5955 461.5173,-36.4974 480,-29 488.016,-25.7484 496.8227,-22.4347 504.8735,-19.5046"/>
<polygon fill="#191970" stroke="#191970" points="423.0541,-50.0138 415.4377,-57.3787 425.9845,-56.3709 423.0541,-50.0138"/>
</g>
<!-- Node185&#45;&gt;Node178 -->
<g id="edge14" class="edge">
<title>Node185&#45;&gt;Node178</title>
<path fill="none" stroke="#191970" d="M566.3792,-98.8499C630.6984,-122.8906 767.2779,-173.94 817.7389,-192.8008"/>
<polygon fill="#191970" stroke="#191970" points="567.2936,-95.4553 556.7011,-95.2325 564.8427,-102.0122 567.2936,-95.4553"/>
</g>
<!-- Node186 -->
<g id="node14" class="node">
<title>Node186</title>
<g id="a_node14"><a xlink:href="structXCS.html#ad2ccafe59d2b4ae6d0e1cbc15edee53c" target="_top" xlink:title="XCS::fit">
<polygon fill="none" stroke="#000000" points="648,-76.5 648,-95.5 700,-95.5 700,-76.5 648,-76.5"/>
<text text-anchor="middle" x="674" y="-83.5" font-family="Helvetica,sans-Serif" font-size="10.00" fill="#000000">XCS::fit</text>
</a>
</g>
</g>
<!-- Node185&#45;&gt;Node186 -->
<g id="edge15" class="edge">
<title>Node185&#45;&gt;Node186</title>
<path fill="none" stroke="#191970" d="M566.8735,-86C591.8145,-86 624.8634,-86 647.6237,-86"/>
<polygon fill="#191970" stroke="#191970" points="566.7345,-82.5001 556.7345,-86 566.7345,-89.5001 566.7345,-82.5001"/>
</g>
<!-- Node186&#45;&gt;Node181 -->
<g id="edge16" class="edge">
<title>Node186&#45;&gt;Node181</title>
<path fill="none" stroke="#191970" d="M710.5233,-81.7427C726.2717,-79.907 745.2822,-77.691 763.7251,-75.5412"/>
<polygon fill="#191970" stroke="#191970" points="709.7163,-78.313 700.1888,-82.9473 710.5268,-85.2659 709.7163,-78.313"/>
</g>
<!-- Node188 -->
<g id="node16" class="node">
<title>Node188</title>
<g id="a_node16"><a xlink:href="structXCS.html#a911ed75c86abed7807d33eb1385240ed" target="_top" xlink:title="XCS::predict">
<polygon fill="none" stroke="#000000" points="637.5,-38.5 637.5,-57.5 710.5,-57.5 710.5,-38.5 637.5,-38.5"/>
<text text-anchor="middle" x="674" y="-45.5" font-family="Helvetica,sans-Serif" font-size="10.00" fill="#000000">XCS::predict</text>
</a>
</g>
</g>
<!-- Node187&#45;&gt;Node188 -->
<g id="edge18" class="edge">
<title>Node187&#45;&gt;Node188</title>
<path fill="none" stroke="#191970" d="M577.2292,-48C596.6223,-48 618.9834,-48 637.3219,-48"/>
<polygon fill="#191970" stroke="#191970" points="577.1012,-44.5001 567.1011,-48 577.1011,-51.5001 577.1012,-44.5001"/>
</g>
<!-- Node188&#45;&gt;Node181 -->
<g id="edge19" class="edge">
<title>Node188&#45;&gt;Node181</title>
<path fill="none" stroke="#191970" d="M720.5613,-53.4274C734.0572,-55.0005 749.1298,-56.7575 763.8365,-58.4717"/>
<polygon fill="#191970" stroke="#191970" points="720.9184,-49.9454 710.5804,-52.264 720.1079,-56.8983 720.9184,-49.9454"/>
</g>
<!-- Node190 -->
<g id="node18" class="node">
<title>Node190</title>
<g id="a_node18"><a xlink:href="structXCS.html#aa77bc77484d6d14bf512304a23cfec88" target="_top" xlink:title="XCS::score">
<polygon fill="none" stroke="#000000" points="640,-.5 640,-19.5 708,-19.5 708,-.5 640,-.5"/>
<text text-anchor="middle" x="674" y="-7.5" font-family="Helvetica,sans-Serif" font-size="10.00" fill="#000000">XCS::score</text>
</a>
</g>
</g>
<!-- Node189&#45;&gt;Node190 -->
<g id="edge21" class="edge">
<title>Node189&#45;&gt;Node190</title>
<path fill="none" stroke="#191970" d="M574.7215,-10C595.4707,-10 620.0715,-10 639.5932,-10"/>
<polygon fill="#191970" stroke="#191970" points="574.5777,-6.5001 564.5777,-10 574.5776,-13.5001 574.5777,-6.5001"/>
</g>
<!-- Node190&#45;&gt;Node181 -->
<g id="edge22" class="edge">
<title>Node190&#45;&gt;Node181</title>
<path fill="none" stroke="#191970" d="M710.9708,-22.9285C740.9626,-33.4164 782.5636,-47.9639 809.6285,-57.4284"/>
<polygon fill="#191970" stroke="#191970" points="711.8774,-19.5377 701.2825,-19.5405 709.5667,-26.1453 711.8774,-19.5377"/>
</g>
</g>
</svg>
