<?xml version="1.0" encoding="UTF-8" standalone="no"?>
<!DOCTYPE svg PUBLIC "-//W3C//DTD SVG 1.1//EN"
 "http://www.w3.org/Graphics/SVG/1.1/DTD/svg11.dtd">
<!-- Generated by graphviz version 2.40.1 (20161225.0304)
 -->
<!-- Title: ea_select_parents Pages: 1 -->
<svg width="803pt" height="104pt"
 viewBox="0.00 0.00 803.00 104.00" xmlns="http://www.w3.org/2000/svg" xmlns:xlink="http://www.w3.org/1999/xlink">
<g id="graph0" class="graph" transform="scale(1 1) rotate(0) translate(4 100)">
<title>ea_select_parents</title>
<!-- Node119 -->
<g id="node1" class="node">
<title>Node119</title>
<polygon fill="#bfbfbf" stroke="#000000" points="0,-38.5 0,-57.5 96,-57.5 96,-38.5 0,-38.5"/>
<text text-anchor="middle" x="48" y="-45.5" font-family="Helvetica,sans-Serif" font-size="10.00" fill="#000000">ea_select_parents</text>
</g>
<!-- Node120 -->
<g id="node2" class="node">
<title>Node120</title>
<g id="a_node2"><a xlink:href="ea_8c.html#a80adad74483f6fdb11216422687e4494" target="_top" xlink:title="Selects a classifier from the set via roulete wheel. ">
<polygon fill="none" stroke="#000000" points="151.5,-76.5 151.5,-95.5 225.5,-95.5 225.5,-76.5 151.5,-76.5"/>
<text text-anchor="middle" x="188.5" y="-83.5" font-family="Helvetica,sans-Serif" font-size="10.00" fill="#000000">ea_select_rw</text>
</a>
</g>
</g>
<!-- Node119&#45;&gt;Node120 -->
<g id="edge1" class="edge">
<title>Node119&#45;&gt;Node120</title>
<path fill="none" stroke="#191970" d="M83.4541,-57.589C101.5913,-62.4944 123.8684,-68.5196 143.2334,-73.7571"/>
<polygon fill="#191970" stroke="#191970" points="142.4903,-77.1818 153.0573,-76.4141 144.3179,-70.4246 142.4903,-77.1818"/>
</g>
<!-- Node126 -->
<g id="node8" class="node">
<title>Node126</title>
<g id="a_node8"><a xlink:href="ea_8c.html#a8088b3c672efcf48c4760b18ed75136e" target="_top" xlink:title="Selects a classifier from the set via tournament. ">
<polygon fill="none" stroke="#000000" points="132,-38.5 132,-57.5 245,-57.5 245,-38.5 132,-38.5"/>
<text text-anchor="middle" x="188.5" y="-45.5" font-family="Helvetica,sans-Serif" font-size="10.00" fill="#000000">ea_select_tournament</text>
</a>
</g>
</g>
<!-- Node119&#45;&gt;Node126 -->
<g id="edge7" class="edge">
<title>Node119&#45;&gt;Node126</title>
<path fill="none" stroke="#191970" d="M96.3521,-48C104.5678,-48 113.2274,-48 121.8158,-48"/>
<polygon fill="#191970" stroke="#191970" points="121.8342,-51.5001 131.8341,-48 121.8341,-44.5001 121.8342,-51.5001"/>
</g>
<!-- Node127 -->
<g id="node9" class="node">
<title>Node127</title>
<g id="a_node9"><a xlink:href="cl__set_8c.html#ac2ecc83b8ceaada1cc75c14e76021d83" target="_top" xlink:title="Calculates the total fitness of classifiers in the set. ">
<polygon fill="none" stroke="#000000" points="154.5,-.5 154.5,-19.5 222.5,-19.5 222.5,-.5 154.5,-.5"/>
<text text-anchor="middle" x="188.5" y="-7.5" font-family="Helvetica,sans-Serif" font-size="10.00" fill="#000000">set_total_fit</text>
</a>
</g>
</g>
<!-- Node119&#45;&gt;Node127 -->
<g id="edge9" class="edge">
<title>Node119&#45;&gt;Node127</title>
<path fill="none" stroke="#191970" d="M83.4541,-38.411C101.8682,-33.4307 124.5496,-27.2962 144.1183,-22.0036"/>
<polygon fill="#191970" stroke="#191970" points="145.2893,-25.3127 154.0286,-19.3232 143.4617,-18.5555 145.2893,-25.3127"/>
</g>
<!-- Node121 -->
<g id="node3" class="node">
<title>Node121</title>
<g id="a_node3"><a xlink:href="utils_8c.html#ae42a9e1d467853befaa7922cfafed3bb" target="_top" xlink:title="Returns a uniform random float [min,max]. ">
<polygon fill="none" stroke="#000000" points="281,-57.5 281,-76.5 354,-76.5 354,-57.5 281,-57.5"/>
<text text-anchor="middle" x="317.5" y="-64.5" font-family="Helvetica,sans-Serif" font-size="10.00" fill="#000000">rand_uniform</text>
</a>
</g>
</g>
<!-- Node120&#45;&gt;Node121 -->
<g id="edge2" class="edge">
<title>Node120&#45;&gt;Node121</title>
<path fill="none" stroke="#191970" d="M225.8121,-80.5044C239.8387,-78.4385 255.9649,-76.0633 270.7435,-73.8866"/>
<polygon fill="#191970" stroke="#191970" points="271.334,-77.3375 280.7172,-72.4176 270.3139,-70.4122 271.334,-77.3375"/>
</g>
<!-- Node122 -->
<g id="node4" class="node">
<title>Node122</title>
<g id="a_node4"><a xlink:href="utils_8c.html#a0c0a81e7797a05c535bad34449d8642c" target="_top" xlink:title="Returns a uniform random float [0,1]. ">
<polygon fill="none" stroke="#000000" points="390,-57.5 390,-76.5 431,-76.5 431,-57.5 390,-57.5"/>
<text text-anchor="middle" x="410.5" y="-64.5" font-family="Helvetica,sans-Serif" font-size="10.00" fill="#000000">drand</text>
</a>
</g>
</g>
<!-- Node121&#45;&gt;Node122 -->
<g id="edge3" class="edge">
<title>Node121&#45;&gt;Node122</title>
<path fill="none" stroke="#191970" d="M354.2561,-67C362.658,-67 371.5043,-67 379.63,-67"/>
<polygon fill="#191970" stroke="#191970" points="379.799,-70.5001 389.7989,-67 379.7989,-63.5001 379.799,-70.5001"/>
</g>
<!-- Node123 -->
<g id="node5" class="node">
<title>Node123</title>
<g id="a_node5"><a xlink:href="mt19937-64_8c.html#aa0b74daf51eca91df224d00f1730084a" target="_top" xlink:title="genrand64_real1">
<polygon fill="none" stroke="#000000" points="467,-57.5 467,-76.5 555,-76.5 555,-57.5 467,-57.5"/>
<text text-anchor="middle" x="511" y="-64.5" font-family="Helvetica,sans-Serif" font-size="10.00" fill="#000000">genrand64_real1</text>
</a>
</g>
</g>
<!-- Node122&#45;&gt;Node123 -->
<g id="edge4" class="edge">
<title>Node122&#45;&gt;Node123</title>
<path fill="none" stroke="#191970" d="M431.3237,-67C438.8428,-67 447.7193,-67 456.769,-67"/>
<polygon fill="#191970" stroke="#191970" points="456.9969,-70.5001 466.9969,-67 456.9969,-63.5001 456.9969,-70.5001"/>
</g>
<!-- Node124 -->
<g id="node6" class="node">
<title>Node124</title>
<g id="a_node6"><a xlink:href="mt19937-64_8c.html#a265bf48d20d6e0347371fcf4fe340e6d" target="_top" xlink:title="genrand64_int64">
<polygon fill="none" stroke="#000000" points="591,-57.5 591,-76.5 679,-76.5 679,-57.5 591,-57.5"/>
<text text-anchor="middle" x="635" y="-64.5" font-family="Helvetica,sans-Serif" font-size="10.00" fill="#000000">genrand64_int64</text>
</a>
</g>
</g>
<!-- Node123&#45;&gt;Node124 -->
<g id="edge5" class="edge">
<title>Node123&#45;&gt;Node124</title>
<path fill="none" stroke="#191970" d="M555.0669,-67C563.2822,-67 571.957,-67 580.4432,-67"/>
<polygon fill="#191970" stroke="#191970" points="580.6572,-70.5001 590.6572,-67 580.6572,-63.5001 580.6572,-70.5001"/>
</g>
<!-- Node125 -->
<g id="node7" class="node">
<title>Node125</title>
<g id="a_node7"><a xlink:href="mt19937-64_8c.html#adf4127d44c2dc34fcb318d406131ef7c" target="_top" xlink:title="init_genrand64">
<polygon fill="none" stroke="#000000" points="715,-57.5 715,-76.5 795,-76.5 795,-57.5 715,-57.5"/>
<text text-anchor="middle" x="755" y="-64.5" font-family="Helvetica,sans-Serif" font-size="10.00" fill="#000000">init_genrand64</text>
</a>
</g>
</g>
<!-- Node124&#45;&gt;Node125 -->
<g id="edge6" class="edge">
<title>Node124&#45;&gt;Node125</title>
<path fill="none" stroke="#191970" d="M679.0022,-67C687.3719,-67 696.1896,-67 704.7365,-67"/>
<polygon fill="#191970" stroke="#191970" points="704.9792,-70.5001 714.9792,-67 704.9792,-63.5001 704.9792,-70.5001"/>
</g>
<!-- Node126&#45;&gt;Node121 -->
<g id="edge8" class="edge">
<title>Node126&#45;&gt;Node121</title>
<path fill="none" stroke="#191970" d="M245.0813,-56.3337C253.6481,-57.5955 262.4041,-58.8851 270.7325,-60.1118"/>
<polygon fill="#191970" stroke="#191970" points="270.2344,-63.5761 280.6377,-61.5707 271.2544,-56.6508 270.2344,-63.5761"/>
</g>
</g>
</svg>
