<?xml version="1.0" encoding="UTF-8" standalone="no"?>
<!DOCTYPE svg PUBLIC "-//W3C//DTD SVG 1.1//EN"
 "http://www.w3.org/Graphics/SVG/1.1/DTD/svg11.dtd">
<!-- Generated by graphviz version 2.40.1 (20161225.0304)
 -->
<!-- Title: ea Pages: 1 -->
<svg width="1052pt" height="750pt"
 viewBox="0.00 0.00 1052.00 750.00" xmlns="http://www.w3.org/2000/svg" xmlns:xlink="http://www.w3.org/1999/xlink">
<g id="graph0" class="graph" transform="scale(1 1) rotate(0) translate(4 746)">
<title>ea</title>
<!-- Node0 -->
<g id="node1" class="node">
<title>Node0</title>
<polygon fill="#bfbfbf" stroke="#000000" points="0,-323.5 0,-342.5 29,-342.5 29,-323.5 0,-323.5"/>
<text text-anchor="middle" x="14.5" y="-330.5" font-family="Helvetica,sans-Serif" font-size="10.00" fill="#000000">ea</text>
</g>
<!-- Node1 -->
<g id="node2" class="node">
<title>Node1</title>
<g id="a_node2"><a xlink:href="cl_8c.html#ac1f35cbc1b6fbdffb9c340c7a1404aa1" target="_top" xlink:title="Copies the condition, action, and prediction from one classifier to another. ">
<polygon fill="none" stroke="#000000" points="99.5,-646.5 99.5,-665.5 149.5,-665.5 149.5,-646.5 99.5,-646.5"/>
<text text-anchor="middle" x="124.5" y="-653.5" font-family="Helvetica,sans-Serif" font-size="10.00" fill="#000000">cl_copy</text>
</a>
</g>
</g>
<!-- Node0&#45;&gt;Node1 -->
<g id="edge1" class="edge">
<title>Node0&#45;&gt;Node1</title>
<path fill="none" stroke="#191970" d="M15.9982,-342.8338C20.8084,-373.2011 37.1916,-467.9095 65,-542 78.2574,-577.3219 99.9398,-615.6873 113.1469,-637.686"/>
<polygon fill="#191970" stroke="#191970" points="110.2095,-639.5918 118.3986,-646.3141 116.1889,-635.9522 110.2095,-639.5918"/>
</g>
<!-- Node6 -->
<g id="node7" class="node">
<title>Node6</title>
<g id="a_node7"><a xlink:href="cl_8c.html#aca8d32cc95a6a4193e11d0833143e3ac" target="_top" xlink:title="Performs classifier crossover. ">
<polygon fill="none" stroke="#000000" points="88.5,-513.5 88.5,-532.5 160.5,-532.5 160.5,-513.5 88.5,-513.5"/>
<text text-anchor="middle" x="124.5" y="-520.5" font-family="Helvetica,sans-Serif" font-size="10.00" fill="#000000">cl_crossover</text>
</a>
</g>
</g>
<!-- Node0&#45;&gt;Node6 -->
<g id="edge6" class="edge">
<title>Node0&#45;&gt;Node6</title>
<path fill="none" stroke="#191970" d="M17.8134,-342.5484C24.9787,-362.6386 43.0528,-410.4374 65,-447 77.8326,-468.3782 95.8489,-490.5804 108.6877,-505.4264"/>
<polygon fill="#191970" stroke="#191970" points="106.3392,-508.056 115.5704,-513.2556 111.5965,-503.4342 106.3392,-508.056"/>
</g>
<!-- Node10 -->
<g id="node11" class="node">
<title>Node10</title>
<g id="a_node11"><a xlink:href="cl_8c.html#ab45c6f772a335d0a4fdb753a61958744" target="_top" xlink:title="Initialises a new classifier. ">
<polygon fill="none" stroke="#000000" points="103.5,-418.5 103.5,-437.5 145.5,-437.5 145.5,-418.5 103.5,-418.5"/>
<text text-anchor="middle" x="124.5" y="-425.5" font-family="Helvetica,sans-Serif" font-size="10.00" fill="#000000">cl_init</text>
</a>
</g>
</g>
<!-- Node0&#45;&gt;Node10 -->
<g id="edge10" class="edge">
<title>Node0&#45;&gt;Node10</title>
<path fill="none" stroke="#191970" d="M18.3758,-342.697C25.3094,-358.8252 41.3578,-391.1498 65,-409 73.2856,-415.2558 83.6961,-419.4899 93.483,-422.3395"/>
<polygon fill="#191970" stroke="#191970" points="92.7881,-425.7739 103.3412,-424.8346 94.5057,-418.9879 92.7881,-425.7739"/>
</g>
<!-- Node11 -->
<g id="node12" class="node">
<title>Node11</title>
<g id="a_node12"><a xlink:href="cl_8c.html#a9c652f3dd22936f8d99809daf219efe8" target="_top" xlink:title="Performs classifier mutation. ">
<polygon fill="none" stroke="#000000" points="95,-380.5 95,-399.5 154,-399.5 154,-380.5 95,-380.5"/>
<text text-anchor="middle" x="124.5" y="-387.5" font-family="Helvetica,sans-Serif" font-size="10.00" fill="#000000">cl_mutate</text>
</a>
</g>
</g>
<!-- Node0&#45;&gt;Node11 -->
<g id="edge11" class="edge">
<title>Node0&#45;&gt;Node11</title>
<path fill="none" stroke="#191970" d="M25.0136,-342.5952C34.7638,-351.0656 49.9896,-363.2409 65,-371 71.2779,-374.2452 78.2156,-377.0694 85.0702,-379.4768"/>
<polygon fill="#191970" stroke="#191970" points="84.3747,-382.9314 94.9671,-382.7059 86.5461,-376.2766 84.3747,-382.9314"/>
</g>
<!-- Node15 -->
<g id="node16" class="node">
<title>Node15</title>
<g id="a_node16"><a xlink:href="clset_8c.html#a736bb7f57fe81a34903bcd994947a762" target="_top" xlink:title="Calculates the mean time stamp of classifiers in the set. ">
<polygon fill="none" stroke="#000000" points="79,-342.5 79,-361.5 170,-361.5 170,-342.5 79,-342.5"/>
<text text-anchor="middle" x="124.5" y="-349.5" font-family="Helvetica,sans-Serif" font-size="10.00" fill="#000000">clset_mean_time</text>
</a>
</g>
</g>
<!-- Node0&#45;&gt;Node15 -->
<g id="edge15" class="edge">
<title>Node0&#45;&gt;Node15</title>
<path fill="none" stroke="#191970" d="M29.3351,-335.5624C39.627,-337.3401 54.0445,-339.8304 68.5502,-342.336"/>
<polygon fill="#191970" stroke="#191970" points="68.1073,-345.8112 78.5571,-344.0644 69.2988,-338.9133 68.1073,-345.8112"/>
</g>
<!-- Node17 -->
<g id="node18" class="node">
<title>Node17</title>
<g id="a_node18"><a xlink:href="clset_8c.html#aa9a3c8630ce227b87a65c6e624430c99" target="_top" xlink:title="Enforces the maximum population size limit. ">
<polygon fill="none" stroke="#000000" points="65,-304.5 65,-323.5 184,-323.5 184,-304.5 65,-304.5"/>
<text text-anchor="middle" x="124.5" y="-311.5" font-family="Helvetica,sans-Serif" font-size="10.00" fill="#000000">clset_pop_enforce_limit</text>
</a>
</g>
</g>
<!-- Node0&#45;&gt;Node17 -->
<g id="edge17" class="edge">
<title>Node0&#45;&gt;Node17</title>
<path fill="none" stroke="#191970" d="M29.3351,-330.4376C37.4086,-329.0431 48.021,-327.21 59.2231,-325.2751"/>
<polygon fill="#191970" stroke="#191970" points="59.9119,-328.708 69.1702,-323.557 58.7203,-321.8102 59.9119,-328.708"/>
</g>
<!-- Node33 -->
<g id="node34" class="node">
<title>Node33</title>
<g id="a_node34"><a xlink:href="clset_8c.html#a19b5e85105f5f5cb203fca3a89de6942" target="_top" xlink:title="Sets the time stamps for classifiers in the set. ">
<polygon fill="none" stroke="#000000" points="81.5,-190.5 81.5,-209.5 167.5,-209.5 167.5,-190.5 81.5,-190.5"/>
<text text-anchor="middle" x="124.5" y="-197.5" font-family="Helvetica,sans-Serif" font-size="10.00" fill="#000000">clset_set_times</text>
</a>
</g>
</g>
<!-- Node0&#45;&gt;Node33 -->
<g id="edge33" class="edge">
<title>Node0&#45;&gt;Node33</title>
<path fill="none" stroke="#191970" d="M16.4224,-323.4483C21.0905,-302.5996 34.9217,-252.5976 65,-224 69.0866,-220.1146 73.8838,-216.8273 78.9507,-214.0535"/>
<polygon fill="#191970" stroke="#191970" points="80.7563,-217.0697 88.2671,-209.5971 77.7357,-210.7549 80.7563,-217.0697"/>
</g>
<!-- Node34 -->
<g id="node35" class="node">
<title>Node34</title>
<g id="a_node35"><a xlink:href="ea_8c.html#a72cd70b4efb82200d9c3004e1658a69c" target="_top" xlink:title="Adds offspring to the population. ">
<polygon fill="none" stroke="#000000" points="100.5,-266.5 100.5,-285.5 148.5,-285.5 148.5,-266.5 100.5,-266.5"/>
<text text-anchor="middle" x="124.5" y="-273.5" font-family="Helvetica,sans-Serif" font-size="10.00" fill="#000000">ea_add</text>
</a>
</g>
</g>
<!-- Node0&#45;&gt;Node34 -->
<g id="edge34" class="edge">
<title>Node0&#45;&gt;Node34</title>
<path fill="none" stroke="#191970" d="M25.0136,-323.4048C34.7638,-314.9344 49.9896,-302.7591 65,-295 72.9622,-290.8842 81.9856,-287.4455 90.5549,-284.6757"/>
<polygon fill="#191970" stroke="#191970" points="91.7523,-287.9703 100.3151,-281.7309 89.7303,-281.2687 91.7523,-287.9703"/>
</g>
<!-- Node45 -->
<g id="node46" class="node">
<title>Node45</title>
<g id="a_node46"><a xlink:href="ea_8c.html#ac54076d982b898168a52da1998f3ab30" target="_top" xlink:title="Initialises offspring error and fitness. ">
<polygon fill="none" stroke="#000000" points="80.5,-152.5 80.5,-171.5 168.5,-171.5 168.5,-152.5 80.5,-152.5"/>
<text text-anchor="middle" x="124.5" y="-159.5" font-family="Helvetica,sans-Serif" font-size="10.00" fill="#000000">ea_init_offspring</text>
</a>
</g>
</g>
<!-- Node0&#45;&gt;Node45 -->
<g id="edge49" class="edge">
<title>Node0&#45;&gt;Node45</title>
<path fill="none" stroke="#191970" d="M16.513,-323.3374C22.9644,-293.2196 43.9374,-201.8182 65,-181 66.8895,-179.1324 68.9623,-177.4483 71.1661,-175.9296"/>
<polygon fill="#191970" stroke="#191970" points="73.1987,-178.8023 80.204,-170.8539 69.771,-172.6989 73.1987,-178.8023"/>
</g>
<!-- Node46 -->
<g id="node47" class="node">
<title>Node46</title>
<g id="a_node47"><a xlink:href="ea_8c.html#a5cd7c69a55f785aa0bfedcc146a322dd" target="_top" xlink:title="Selects two parents. ">
<polygon fill="none" stroke="#000000" points="220,-148.5 220,-167.5 316,-167.5 316,-148.5 220,-148.5"/>
<text text-anchor="middle" x="268" y="-155.5" font-family="Helvetica,sans-Serif" font-size="10.00" fill="#000000">ea_select_parents</text>
</a>
</g>
</g>
<!-- Node0&#45;&gt;Node46 -->
<g id="edge50" class="edge">
<title>Node0&#45;&gt;Node46</title>
<path fill="none" stroke="#191970" d="M18.3758,-323.303C25.3094,-307.1748 41.3578,-274.8502 65,-257 109.3091,-223.546 134.4647,-244.0744 184,-219 208.3741,-206.662 233.3334,-187.549 249.6397,-174.0096"/>
<polygon fill="#191970" stroke="#191970" points="251.9564,-176.6342 257.3292,-167.5027 247.4346,-171.2906 251.9564,-176.6342"/>
</g>
<!-- Node2 -->
<g id="node3" class="node">
<title>Node2</title>
<g id="a_node3"><a xlink:href="action_8h.html#ad7a1c1435f9b1055ce5c2f341dee4ce8" target="_top" xlink:title="Copies the action from one classifier to another. ">
<polygon fill="none" stroke="#000000" points="240,-722.5 240,-741.5 296,-741.5 296,-722.5 240,-722.5"/>
<text text-anchor="middle" x="268" y="-729.5" font-family="Helvetica,sans-Serif" font-size="10.00" fill="#000000">act_copy</text>
</a>
</g>
</g>
<!-- Node1&#45;&gt;Node2 -->
<g id="edge2" class="edge">
<title>Node1&#45;&gt;Node2</title>
<path fill="none" stroke="#191970" d="M138.9749,-665.6453C157.3367,-677.6424 190.2048,-698.3304 220,-713 223.8897,-714.9151 228.0233,-716.7848 232.1698,-718.558"/>
<polygon fill="#191970" stroke="#191970" points="231.1796,-721.935 241.7596,-722.4961 233.8387,-715.4597 231.1796,-721.935"/>
</g>
<!-- Node3 -->
<g id="node4" class="node">
<title>Node3</title>
<g id="a_node4"><a xlink:href="condition_8h.html#a8a24813cf7cc07f575374c129ff0c94a" target="_top" xlink:title="Copies the condition from one classifier to another. ">
<polygon fill="none" stroke="#000000" points="236,-684.5 236,-703.5 300,-703.5 300,-684.5 236,-684.5"/>
<text text-anchor="middle" x="268" y="-691.5" font-family="Helvetica,sans-Serif" font-size="10.00" fill="#000000">cond_copy</text>
</a>
</g>
</g>
<!-- Node1&#45;&gt;Node3 -->
<g id="edge3" class="edge">
<title>Node1&#45;&gt;Node3</title>
<path fill="none" stroke="#191970" d="M149.8246,-662.7062C170.8984,-668.2867 201.3363,-676.3469 226.043,-682.8894"/>
<polygon fill="#191970" stroke="#191970" points="225.3265,-686.3203 235.8893,-685.4968 227.1185,-679.5535 225.3265,-686.3203"/>
</g>
<!-- Node4 -->
<g id="node5" class="node">
<title>Node4</title>
<g id="a_node5"><a xlink:href="prediction_8h.html#a44211a52b290a152c4802ca6262f83de" target="_top" xlink:title="Copies the prediction from one classifier to another. ">
<polygon fill="none" stroke="#000000" points="237,-646.5 237,-665.5 299,-665.5 299,-646.5 237,-646.5"/>
<text text-anchor="middle" x="268" y="-653.5" font-family="Helvetica,sans-Serif" font-size="10.00" fill="#000000">pred_copy</text>
</a>
</g>
</g>
<!-- Node1&#45;&gt;Node4 -->
<g id="edge4" class="edge">
<title>Node1&#45;&gt;Node4</title>
<path fill="none" stroke="#191970" d="M149.8246,-656C171.0864,-656 201.8799,-656 226.7027,-656"/>
<polygon fill="#191970" stroke="#191970" points="226.9303,-659.5001 236.9303,-656 226.9303,-652.5001 226.9303,-659.5001"/>
</g>
<!-- Node5 -->
<g id="node6" class="node">
<title>Node5</title>
<g id="a_node6"><a xlink:href="prediction_8h.html#a32efd0b8ad0f4cbc72683c35c5e49afd" target="_top" xlink:title="Initialises a classifier&#39;s prediction. ">
<polygon fill="none" stroke="#000000" points="241.5,-608.5 241.5,-627.5 294.5,-627.5 294.5,-608.5 241.5,-608.5"/>
<text text-anchor="middle" x="268" y="-615.5" font-family="Helvetica,sans-Serif" font-size="10.00" fill="#000000">pred_init</text>
</a>
</g>
</g>
<!-- Node1&#45;&gt;Node5 -->
<g id="edge5" class="edge">
<title>Node1&#45;&gt;Node5</title>
<path fill="none" stroke="#191970" d="M149.8246,-649.2938C172.5548,-643.2747 206.1788,-634.3708 231.7552,-627.5979"/>
<polygon fill="#191970" stroke="#191970" points="232.7,-630.9685 241.4708,-625.0252 230.908,-624.2017 232.7,-630.9685"/>
</g>
<!-- Node7 -->
<g id="node8" class="node">
<title>Node7</title>
<g id="a_node8"><a xlink:href="action_8h.html#ae381665a65716c4d1475dcddf9bc19a2" target="_top" xlink:title="Performs classifier action crossover. ">
<polygon fill="none" stroke="#000000" points="229,-570.5 229,-589.5 307,-589.5 307,-570.5 229,-570.5"/>
<text text-anchor="middle" x="268" y="-577.5" font-family="Helvetica,sans-Serif" font-size="10.00" fill="#000000">act_crossover</text>
</a>
</g>
</g>
<!-- Node6&#45;&gt;Node7 -->
<g id="edge7" class="edge">
<title>Node6&#45;&gt;Node7</title>
<path fill="none" stroke="#191970" d="M148.4361,-532.5381C167.7491,-540.2306 195.6189,-551.3239 220,-561 224.5505,-562.8059 229.3445,-564.7063 234.0709,-566.5785"/>
<polygon fill="#191970" stroke="#191970" points="232.9916,-569.9155 243.5778,-570.3427 235.5686,-563.407 232.9916,-569.9155"/>
</g>
<!-- Node8 -->
<g id="node9" class="node">
<title>Node8</title>
<g id="a_node9"><a xlink:href="condition_8h.html#a13c88ef7075583127afa67c218a9fb1b" target="_top" xlink:title="Performs classifier condition crossover. ">
<polygon fill="none" stroke="#000000" points="225,-532.5 225,-551.5 311,-551.5 311,-532.5 225,-532.5"/>
<text text-anchor="middle" x="268" y="-539.5" font-family="Helvetica,sans-Serif" font-size="10.00" fill="#000000">cond_crossover</text>
</a>
</g>
</g>
<!-- Node6&#45;&gt;Node8 -->
<g id="edge8" class="edge">
<title>Node6&#45;&gt;Node8</title>
<path fill="none" stroke="#191970" d="M160.7111,-527.7945C177.0979,-529.9642 196.7935,-532.572 214.812,-534.9577"/>
<polygon fill="#191970" stroke="#191970" points="214.5298,-538.4508 224.9027,-536.2937 215.4487,-531.5113 214.5298,-538.4508"/>
</g>
<!-- Node9 -->
<g id="node10" class="node">
<title>Node9</title>
<g id="a_node10"><a xlink:href="prediction_8h.html#a1e1b06df51b7f194d406b2b3dafbaae4" target="_top" xlink:title="Performs classifier prediction crossover. ">
<polygon fill="none" stroke="#000000" points="226.5,-494.5 226.5,-513.5 309.5,-513.5 309.5,-494.5 226.5,-494.5"/>
<text text-anchor="middle" x="268" y="-501.5" font-family="Helvetica,sans-Serif" font-size="10.00" fill="#000000">pred_crossover</text>
</a>
</g>
</g>
<!-- Node6&#45;&gt;Node9 -->
<g id="edge9" class="edge">
<title>Node6&#45;&gt;Node9</title>
<path fill="none" stroke="#191970" d="M160.7111,-518.2055C177.5945,-515.9701 197.9902,-513.2696 216.4452,-510.8261"/>
<polygon fill="#191970" stroke="#191970" points="217.0097,-514.282 226.4638,-509.4996 216.0908,-507.3425 217.0097,-514.282"/>
</g>
<!-- Node12 -->
<g id="node13" class="node">
<title>Node12</title>
<g id="a_node13"><a xlink:href="action_8h.html#aa84fd143a0383b4a653c63a2f7b49d42" target="_top" xlink:title="Performs classifier action mutation. ">
<polygon fill="none" stroke="#000000" points="235.5,-456.5 235.5,-475.5 300.5,-475.5 300.5,-456.5 235.5,-456.5"/>
<text text-anchor="middle" x="268" y="-463.5" font-family="Helvetica,sans-Serif" font-size="10.00" fill="#000000">act_mutate</text>
</a>
</g>
</g>
<!-- Node11&#45;&gt;Node12 -->
<g id="edge12" class="edge">
<title>Node11&#45;&gt;Node12</title>
<path fill="none" stroke="#191970" d="M154.2333,-396.3202C164.1719,-399.2394 175.0006,-403.3483 184,-409 203.7016,-421.3726 200.7292,-433.9665 220,-447 222.7468,-448.8578 225.7024,-450.5754 228.7489,-452.1547"/>
<polygon fill="#191970" stroke="#191970" points="227.5004,-455.434 238.0436,-456.4788 230.4531,-449.0873 227.5004,-455.434"/>
</g>
<!-- Node13 -->
<g id="node14" class="node">
<title>Node13</title>
<g id="a_node14"><a xlink:href="condition_8h.html#a4ef93540f4346bdc4646d836238d29cf" target="_top" xlink:title="Performs classifier condition mutation. ">
<polygon fill="none" stroke="#000000" points="231.5,-418.5 231.5,-437.5 304.5,-437.5 304.5,-418.5 231.5,-418.5"/>
<text text-anchor="middle" x="268" y="-425.5" font-family="Helvetica,sans-Serif" font-size="10.00" fill="#000000">cond_mutate</text>
</a>
</g>
</g>
<!-- Node11&#45;&gt;Node13 -->
<g id="edge13" class="edge">
<title>Node11&#45;&gt;Node13</title>
<path fill="none" stroke="#191970" d="M154.2333,-397.8736C173.8107,-403.0579 199.8321,-409.9486 222.0472,-415.8313"/>
<polygon fill="#191970" stroke="#191970" points="221.3867,-419.277 231.9495,-418.4535 223.1787,-412.5102 221.3867,-419.277"/>
</g>
<!-- Node14 -->
<g id="node15" class="node">
<title>Node14</title>
<g id="a_node15"><a xlink:href="prediction_8h.html#a47a713568a6631efffbffcdbbe832962" target="_top" xlink:title="Performs classifier prediction mutation. ">
<polygon fill="none" stroke="#000000" points="232.5,-380.5 232.5,-399.5 303.5,-399.5 303.5,-380.5 232.5,-380.5"/>
<text text-anchor="middle" x="268" y="-387.5" font-family="Helvetica,sans-Serif" font-size="10.00" fill="#000000">pred_mutate</text>
</a>
</g>
</g>
<!-- Node11&#45;&gt;Node14 -->
<g id="edge14" class="edge">
<title>Node11&#45;&gt;Node14</title>
<path fill="none" stroke="#191970" d="M154.2333,-390C173.8643,-390 199.9745,-390 222.2294,-390"/>
<polygon fill="#191970" stroke="#191970" points="222.472,-393.5001 232.4719,-390 222.4719,-386.5001 222.472,-393.5001"/>
</g>
<!-- Node16 -->
<g id="node17" class="node">
<title>Node16</title>
<g id="a_node17"><a xlink:href="clset_8c.html#a8bef7138e69134e2a85d7f0676aa58f5" target="_top" xlink:title="Calculates the total time stamps of classifiers in the set. ">
<polygon fill="none" stroke="#000000" points="225,-342.5 225,-361.5 311,-361.5 311,-342.5 225,-342.5"/>
<text text-anchor="middle" x="268" y="-349.5" font-family="Helvetica,sans-Serif" font-size="10.00" fill="#000000">clset_total_time</text>
</a>
</g>
</g>
<!-- Node15&#45;&gt;Node16 -->
<g id="edge16" class="edge">
<title>Node15&#45;&gt;Node16</title>
<path fill="none" stroke="#191970" d="M170.2988,-352C184.2916,-352 199.8063,-352 214.2752,-352"/>
<polygon fill="#191970" stroke="#191970" points="214.5894,-355.5001 224.5893,-352 214.5893,-348.5001 214.5894,-355.5001"/>
</g>
<!-- Node18 -->
<g id="node19" class="node">
<title>Node18</title>
<g id="a_node19"><a xlink:href="clset_8c.html#ab1434372d7fab6e40f3c8d898d20e025" target="_top" xlink:title="Deletes a single classifier from the population set. ">
<polygon fill="none" stroke="#000000" points="229.5,-304.5 229.5,-323.5 306.5,-323.5 306.5,-304.5 229.5,-304.5"/>
<text text-anchor="middle" x="268" y="-311.5" font-family="Helvetica,sans-Serif" font-size="10.00" fill="#000000">clset_pop_del</text>
</a>
</g>
</g>
<!-- Node17&#45;&gt;Node18 -->
<g id="edge18" class="edge">
<title>Node17&#45;&gt;Node18</title>
<path fill="none" stroke="#191970" d="M184.1103,-314C195.7837,-314 207.8987,-314 219.1704,-314"/>
<polygon fill="#191970" stroke="#191970" points="219.2481,-317.5001 229.2481,-314 219.2481,-310.5001 219.2481,-317.5001"/>
</g>
<!-- Node19 -->
<g id="node20" class="node">
<title>Node19</title>
<g id="a_node20"><a xlink:href="clset_8c.html#ae702f77855a5f1c42a8177f197706aee" target="_top" xlink:title="Adds a classifier to the set. ">
<polygon fill="none" stroke="#000000" points="382.5,-304.5 382.5,-323.5 441.5,-323.5 441.5,-304.5 382.5,-304.5"/>
<text text-anchor="middle" x="412" y="-311.5" font-family="Helvetica,sans-Serif" font-size="10.00" fill="#000000">clset_add</text>
</a>
</g>
</g>
<!-- Node18&#45;&gt;Node19 -->
<g id="edge19" class="edge">
<title>Node18&#45;&gt;Node19</title>
<path fill="none" stroke="#191970" d="M306.5894,-314C326.8792,-314 351.7173,-314 372.1858,-314"/>
<polygon fill="#191970" stroke="#191970" points="372.444,-317.5001 382.4439,-314 372.4439,-310.5001 372.444,-317.5001"/>
</g>
<!-- Node20 -->
<g id="node21" class="node">
<title>Node20</title>
<g id="a_node21"><a xlink:href="clset_8c.html#af899fada328f41ed56991a51fe80db17" target="_top" xlink:title="Finds a rule in the population that never matches an input. ">
<polygon fill="none" stroke="#000000" points="352,-342.5 352,-361.5 472,-361.5 472,-342.5 352,-342.5"/>
<text text-anchor="middle" x="412" y="-349.5" font-family="Helvetica,sans-Serif" font-size="10.00" fill="#000000">clset_pop_never_match</text>
</a>
</g>
</g>
<!-- Node18&#45;&gt;Node20 -->
<g id="edge20" class="edge">
<title>Node18&#45;&gt;Node20</title>
<path fill="none" stroke="#191970" d="M304.3373,-323.589C323.0829,-328.5358 346.1432,-334.6211 366.1066,-339.8892"/>
<polygon fill="#191970" stroke="#191970" points="365.3619,-343.3125 375.924,-342.4799 367.1481,-336.5442 365.3619,-343.3125"/>
</g>
<!-- Node21 -->
<g id="node22" class="node">
<title>Node21</title>
<g id="a_node22"><a xlink:href="clset_8c.html#a008502b88c280aa55bb9a3645216209c" target="_top" xlink:title="clset_pop_roulette">
<polygon fill="none" stroke="#000000" points="364,-380.5 364,-399.5 460,-399.5 460,-380.5 364,-380.5"/>
<text text-anchor="middle" x="412" y="-387.5" font-family="Helvetica,sans-Serif" font-size="10.00" fill="#000000">clset_pop_roulette</text>
</a>
</g>
</g>
<!-- Node18&#45;&gt;Node21 -->
<g id="edge21" class="edge">
<title>Node18&#45;&gt;Node21</title>
<path fill="none" stroke="#191970" d="M297.9564,-323.5212C304.1779,-326.1293 310.5063,-329.2844 316,-333 335.2708,-346.0335 332.2835,-358.6512 352,-371 355.3423,-373.0934 358.9349,-374.9741 362.6407,-376.6606"/>
<polygon fill="#191970" stroke="#191970" points="361.4254,-379.9446 372.0075,-380.4631 364.0584,-373.4587 361.4254,-379.9446"/>
</g>
<!-- Node22 -->
<g id="node23" class="node">
<title>Node22</title>
<g id="a_node23"><a xlink:href="cl_8c.html#a49f5a7f4f2f47ce1cf7f33b3769de7cc" target="_top" xlink:title="Returns the size of the classifier condition. ">
<polygon fill="none" stroke="#000000" points="508.5,-418.5 508.5,-437.5 582.5,-437.5 582.5,-418.5 508.5,-418.5"/>
<text text-anchor="middle" x="545.5" y="-425.5" font-family="Helvetica,sans-Serif" font-size="10.00" fill="#000000">cl_cond_size</text>
</a>
</g>
</g>
<!-- Node21&#45;&gt;Node22 -->
<g id="edge22" class="edge">
<title>Node21&#45;&gt;Node22</title>
<path fill="none" stroke="#191970" d="M445.6877,-399.589C462.7632,-404.4494 483.7004,-410.4091 501.9816,-415.6127"/>
<polygon fill="#191970" stroke="#191970" points="501.2469,-419.0426 511.8231,-418.4141 503.1634,-412.31 501.2469,-419.0426"/>
</g>
<!-- Node24 -->
<g id="node25" class="node">
<title>Node24</title>
<g id="a_node25"><a xlink:href="cl_8c.html#aa0059f455cba46b3a1acb6b8a271b95f" target="_top" xlink:title="Returns the deletion vote of the classifier. ">
<polygon fill="none" stroke="#000000" points="512.5,-380.5 512.5,-399.5 578.5,-399.5 578.5,-380.5 512.5,-380.5"/>
<text text-anchor="middle" x="545.5" y="-387.5" font-family="Helvetica,sans-Serif" font-size="10.00" fill="#000000">cl_del_vote</text>
</a>
</g>
</g>
<!-- Node21&#45;&gt;Node24 -->
<g id="edge24" class="edge">
<title>Node21&#45;&gt;Node24</title>
<path fill="none" stroke="#191970" d="M460.1966,-390C473.8689,-390 488.6692,-390 502.0432,-390"/>
<polygon fill="#191970" stroke="#191970" points="502.4143,-393.5001 512.4143,-390 502.4142,-386.5001 502.4143,-393.5001"/>
</g>
<!-- Node25 -->
<g id="node26" class="node">
<title>Node25</title>
<g id="a_node26"><a xlink:href="cl_8c.html#a72d3cf213699a8d68d348ff75c2b2d49" target="_top" xlink:title="Returns the size of the classifier prediction. ">
<polygon fill="none" stroke="#000000" points="510,-342.5 510,-361.5 581,-361.5 581,-342.5 510,-342.5"/>
<text text-anchor="middle" x="545.5" y="-349.5" font-family="Helvetica,sans-Serif" font-size="10.00" fill="#000000">cl_pred_size</text>
</a>
</g>
</g>
<!-- Node21&#45;&gt;Node25 -->
<g id="edge25" class="edge">
<title>Node21&#45;&gt;Node25</title>
<path fill="none" stroke="#191970" d="M445.6877,-380.411C462.7632,-375.5506 483.7004,-369.5909 501.9816,-364.3873"/>
<polygon fill="#191970" stroke="#191970" points="503.1634,-367.69 511.8231,-361.5859 501.2469,-360.9574 503.1634,-367.69"/>
</g>
<!-- Node27 -->
<g id="node28" class="node">
<title>Node27</title>
<g id="a_node28"><a xlink:href="clset_8c.html#aff1b530c481a2283ff4293449d1f8305" target="_top" xlink:title="Calculates the total fitness of classifiers in the set. ">
<polygon fill="none" stroke="#000000" points="508,-285.5 508,-304.5 583,-304.5 583,-285.5 508,-285.5"/>
<text text-anchor="middle" x="545.5" y="-292.5" font-family="Helvetica,sans-Serif" font-size="10.00" fill="#000000">clset_total_fit</text>
</a>
</g>
</g>
<!-- Node21&#45;&gt;Node27 -->
<g id="edge27" class="edge">
<title>Node21&#45;&gt;Node27</title>
<path fill="none" stroke="#191970" d="M451.9925,-380.4631C458.9399,-377.9449 465.8883,-374.8279 472,-371 491.7165,-358.6512 491.8286,-349.7248 508,-333 514.7609,-326.0077 522.2801,-318.3628 528.7999,-311.7752"/>
<polygon fill="#191970" stroke="#191970" points="531.3305,-314.194 535.8892,-304.6301 526.3613,-309.2637 531.3305,-314.194"/>
</g>
<!-- Node28 -->
<g id="node29" class="node">
<title>Node28</title>
<g id="a_node29"><a xlink:href="utils_8c.html#ae42a9e1d467853befaa7922cfafed3bb" target="_top" xlink:title="Returns a uniform random float [min,max]. ">
<polygon fill="none" stroke="#000000" points="509,-124.5 509,-143.5 582,-143.5 582,-124.5 509,-124.5"/>
<text text-anchor="middle" x="545.5" y="-131.5" font-family="Helvetica,sans-Serif" font-size="10.00" fill="#000000">rand_uniform</text>
</a>
</g>
</g>
<!-- Node21&#45;&gt;Node28 -->
<g id="edge28" class="edge">
<title>Node21&#45;&gt;Node28</title>
<path fill="none" stroke="#191970" d="M459.8925,-380.3957C464.4388,-377.9359 468.6078,-374.8556 472,-371 531.3698,-303.5193 466.5852,-251.7699 508,-172 512.144,-164.0181 518.534,-156.6278 524.872,-150.5272"/>
<polygon fill="#191970" stroke="#191970" points="527.5686,-152.8119 532.6994,-143.5423 522.9078,-147.589 527.5686,-152.8119"/>
</g>
<!-- Node23 -->
<g id="node24" class="node">
<title>Node23</title>
<g id="a_node24"><a xlink:href="condition_8h.html#afc882c8ebd96835127f8e611b815d447" target="_top" xlink:title="Returns the size of the classifier condition. ">
<polygon fill="none" stroke="#000000" points="619,-418.5 619,-437.5 680,-437.5 680,-418.5 619,-418.5"/>
<text text-anchor="middle" x="649.5" y="-425.5" font-family="Helvetica,sans-Serif" font-size="10.00" fill="#000000">cond_size</text>
</a>
</g>
</g>
<!-- Node22&#45;&gt;Node23 -->
<g id="edge23" class="edge">
<title>Node22&#45;&gt;Node23</title>
<path fill="none" stroke="#191970" d="M582.7526,-428C591.1228,-428 600.0488,-428 608.5602,-428"/>
<polygon fill="#191970" stroke="#191970" points="608.6715,-431.5001 618.6715,-428 608.6715,-424.5001 608.6715,-431.5001"/>
</g>
<!-- Node26 -->
<g id="node27" class="node">
<title>Node26</title>
<g id="a_node27"><a xlink:href="prediction_8h.html#a60ead673b526125328224ec152916290" target="_top" xlink:title="Returns the size of the classifier prediction. ">
<polygon fill="none" stroke="#000000" points="620,-342.5 620,-361.5 679,-361.5 679,-342.5 620,-342.5"/>
<text text-anchor="middle" x="649.5" y="-349.5" font-family="Helvetica,sans-Serif" font-size="10.00" fill="#000000">pred_size</text>
</a>
</g>
</g>
<!-- Node25&#45;&gt;Node26 -->
<g id="edge26" class="edge">
<title>Node25&#45;&gt;Node26</title>
<path fill="none" stroke="#191970" d="M581,-352C590.1493,-352 600.0589,-352 609.4232,-352"/>
<polygon fill="#191970" stroke="#191970" points="609.6945,-355.5001 619.6945,-352 609.6945,-348.5001 609.6945,-355.5001"/>
</g>
<!-- Node29 -->
<g id="node30" class="node">
<title>Node29</title>
<g id="a_node30"><a xlink:href="utils_8c.html#a101d27cdda714b7f17a06224c65cac56" target="_top" xlink:title="Returns a uniform random float [0,1]. ">
<polygon fill="none" stroke="#000000" points="629,-124.5 629,-143.5 670,-143.5 670,-124.5 629,-124.5"/>
<text text-anchor="middle" x="649.5" y="-131.5" font-family="Helvetica,sans-Serif" font-size="10.00" fill="#000000">drand</text>
</a>
</g>
</g>
<!-- Node28&#45;&gt;Node29 -->
<g id="edge29" class="edge">
<title>Node28&#45;&gt;Node29</title>
<path fill="none" stroke="#191970" d="M582.1665,-134C594.1661,-134 607.362,-134 618.8681,-134"/>
<polygon fill="#191970" stroke="#191970" points="618.8772,-137.5001 628.8772,-134 618.8772,-130.5001 618.8772,-137.5001"/>
</g>
<!-- Node30 -->
<g id="node31" class="node">
<title>Node30</title>
<g id="a_node31"><a xlink:href="mt19937-64_8c.html#aa0b74daf51eca91df224d00f1730084a" target="_top" xlink:title="genrand64_real1">
<polygon fill="none" stroke="#000000" points="716,-124.5 716,-143.5 804,-143.5 804,-124.5 716,-124.5"/>
<text text-anchor="middle" x="760" y="-131.5" font-family="Helvetica,sans-Serif" font-size="10.00" fill="#000000">genrand64_real1</text>
</a>
</g>
</g>
<!-- Node29&#45;&gt;Node30 -->
<g id="edge30" class="edge">
<title>Node29&#45;&gt;Node30</title>
<path fill="none" stroke="#191970" d="M670.0252,-134C680.1704,-134 692.9424,-134 705.6509,-134"/>
<polygon fill="#191970" stroke="#191970" points="705.7779,-137.5001 715.7778,-134 705.7778,-130.5001 705.7779,-137.5001"/>
</g>
<!-- Node31 -->
<g id="node32" class="node">
<title>Node31</title>
<g id="a_node32"><a xlink:href="mt19937-64_8c.html#a265bf48d20d6e0347371fcf4fe340e6d" target="_top" xlink:title="genrand64_int64">
<polygon fill="none" stroke="#000000" points="840,-124.5 840,-143.5 928,-143.5 928,-124.5 840,-124.5"/>
<text text-anchor="middle" x="884" y="-131.5" font-family="Helvetica,sans-Serif" font-size="10.00" fill="#000000">genrand64_int64</text>
</a>
</g>
</g>
<!-- Node30&#45;&gt;Node31 -->
<g id="edge31" class="edge">
<title>Node30&#45;&gt;Node31</title>
<path fill="none" stroke="#191970" d="M804.0669,-134C812.2822,-134 820.957,-134 829.4432,-134"/>
<polygon fill="#191970" stroke="#191970" points="829.6572,-137.5001 839.6572,-134 829.6572,-130.5001 829.6572,-137.5001"/>
</g>
<!-- Node32 -->
<g id="node33" class="node">
<title>Node32</title>
<g id="a_node33"><a xlink:href="mt19937-64_8c.html#adf4127d44c2dc34fcb318d406131ef7c" target="_top" xlink:title="init_genrand64">
<polygon fill="none" stroke="#000000" points="964,-124.5 964,-143.5 1044,-143.5 1044,-124.5 964,-124.5"/>
<text text-anchor="middle" x="1004" y="-131.5" font-family="Helvetica,sans-Serif" font-size="10.00" fill="#000000">init_genrand64</text>
</a>
</g>
</g>
<!-- Node31&#45;&gt;Node32 -->
<g id="edge32" class="edge">
<title>Node31&#45;&gt;Node32</title>
<path fill="none" stroke="#191970" d="M928.0022,-134C936.3719,-134 945.1896,-134 953.7365,-134"/>
<polygon fill="#191970" stroke="#191970" points="953.9792,-137.5001 963.9792,-134 953.9792,-130.5001 953.9792,-137.5001"/>
</g>
<!-- Node34&#45;&gt;Node19 -->
<g id="edge48" class="edge">
<title>Node34&#45;&gt;Node19</title>
<path fill="none" stroke="#191970" d="M148.7762,-277.6539C185.2207,-280.3072 256.1818,-286.1341 316,-295 334.5106,-297.7435 354.8633,-301.6433 372.0466,-305.1965"/>
<polygon fill="#191970" stroke="#191970" points="371.7851,-308.718 382.2913,-307.3507 373.2255,-301.8678 371.7851,-308.718"/>
</g>
<!-- Node35 -->
<g id="node36" class="node">
<title>Node35</title>
<g id="a_node36"><a xlink:href="cl_8c.html#a2bba8869890a67c2412a358c8f3ec0b4" target="_top" xlink:title="Frees the memory used by the classifier. ">
<polygon fill="none" stroke="#000000" points="389,-38.5 389,-57.5 435,-57.5 435,-38.5 389,-38.5"/>
<text text-anchor="middle" x="412" y="-45.5" font-family="Helvetica,sans-Serif" font-size="10.00" fill="#000000">cl_free</text>
</a>
</g>
</g>
<!-- Node34&#45;&gt;Node35 -->
<g id="edge35" class="edge">
<title>Node34&#45;&gt;Node35</title>
<path fill="none" stroke="#191970" d="M137.2683,-266.2452C150.3562,-255.7274 170.6323,-237.93 184,-219 206.4908,-187.151 193.5045,-167.6039 220,-139 263.6523,-91.874 336.7601,-66.7539 379.0507,-55.5075"/>
<polygon fill="#191970" stroke="#191970" points="380.0269,-58.8706 388.8492,-53.004 378.294,-52.0885 380.0269,-58.8706"/>
</g>
<!-- Node39 -->
<g id="node40" class="node">
<title>Node39</title>
<g id="a_node40"><a xlink:href="ea_8c.html#a8ea16017fe8753d9b079e8e333d98545" target="_top" xlink:title="Performs evolutionary algorithm subsumption. ">
<polygon fill="none" stroke="#000000" points="232,-214.5 232,-233.5 304,-233.5 304,-214.5 232,-214.5"/>
<text text-anchor="middle" x="268" y="-221.5" font-family="Helvetica,sans-Serif" font-size="10.00" fill="#000000">ea_subsume</text>
</a>
</g>
</g>
<!-- Node34&#45;&gt;Node39 -->
<g id="edge39" class="edge">
<title>Node34&#45;&gt;Node39</title>
<path fill="none" stroke="#191970" d="M148.5187,-267.2964C171.2997,-259.0412 205.8297,-246.5286 231.9202,-237.0742"/>
<polygon fill="#191970" stroke="#191970" points="233.2549,-240.3133 241.4642,-233.6157 230.87,-233.7321 233.2549,-240.3133"/>
</g>
<!-- Node36 -->
<g id="node37" class="node">
<title>Node36</title>
<g id="a_node37"><a xlink:href="action_8h.html#a2e77a50c24d06a37f2fc5aab8e3ecbac" target="_top" xlink:title="Frees the memory used by the classifier action. ">
<polygon fill="none" stroke="#000000" points="519.5,-76.5 519.5,-95.5 571.5,-95.5 571.5,-76.5 519.5,-76.5"/>
<text text-anchor="middle" x="545.5" y="-83.5" font-family="Helvetica,sans-Serif" font-size="10.00" fill="#000000">act_free</text>
</a>
</g>
</g>
<!-- Node35&#45;&gt;Node36 -->
<g id="edge36" class="edge">
<title>Node35&#45;&gt;Node36</title>
<path fill="none" stroke="#191970" d="M435.2539,-54.6191C455.779,-60.4614 486.0224,-69.07 509.6435,-75.7937"/>
<polygon fill="#191970" stroke="#191970" points="508.7376,-79.1748 519.3138,-78.5463 510.6541,-72.4422 508.7376,-79.1748"/>
</g>
<!-- Node37 -->
<g id="node38" class="node">
<title>Node37</title>
<g id="a_node38"><a xlink:href="condition_8h.html#a3359b327b7de91f97ce0fb0cee911d04" target="_top" xlink:title="Frees the memory used by the classifier condition. ">
<polygon fill="none" stroke="#000000" points="516,-38.5 516,-57.5 575,-57.5 575,-38.5 516,-38.5"/>
<text text-anchor="middle" x="545.5" y="-45.5" font-family="Helvetica,sans-Serif" font-size="10.00" fill="#000000">cond_free</text>
</a>
</g>
</g>
<!-- Node35&#45;&gt;Node37 -->
<g id="edge37" class="edge">
<title>Node35&#45;&gt;Node37</title>
<path fill="none" stroke="#191970" d="M435.2539,-48C454.6887,-48 482.8369,-48 505.8259,-48"/>
<polygon fill="#191970" stroke="#191970" points="505.9756,-51.5001 515.9755,-48 505.9755,-44.5001 505.9756,-51.5001"/>
</g>
<!-- Node38 -->
<g id="node39" class="node">
<title>Node38</title>
<g id="a_node39"><a xlink:href="prediction_8h.html#a43bac629eb9434b643605a214f5d5876" target="_top" xlink:title="Frees the memory used by the classifier prediction. ">
<polygon fill="none" stroke="#000000" points="517,-.5 517,-19.5 574,-19.5 574,-.5 517,-.5"/>
<text text-anchor="middle" x="545.5" y="-7.5" font-family="Helvetica,sans-Serif" font-size="10.00" fill="#000000">pred_free</text>
</a>
</g>
</g>
<!-- Node35&#45;&gt;Node38 -->
<g id="edge38" class="edge">
<title>Node35&#45;&gt;Node38</title>
<path fill="none" stroke="#191970" d="M435.2539,-41.3809C455.0366,-35.7499 483.8473,-27.5491 507.0552,-20.9431"/>
<polygon fill="#191970" stroke="#191970" points="508.2831,-24.2327 516.9428,-18.1286 506.3666,-17.5001 508.2831,-24.2327"/>
</g>
<!-- Node39&#45;&gt;Node19 -->
<g id="edge47" class="edge">
<title>Node39&#45;&gt;Node19</title>
<path fill="none" stroke="#191970" d="M280.8345,-233.7555C290.6198,-241.29 304.3512,-252.0725 316,-262 332.5197,-276.0787 333.2106,-284.1341 352,-295 358.3728,-298.6854 365.5471,-301.747 372.6596,-304.2578"/>
<polygon fill="#191970" stroke="#191970" points="371.6475,-307.6089 382.2391,-307.3472 373.7961,-300.9467 371.6475,-307.6089"/>
</g>
<!-- Node39&#45;&gt;Node35 -->
<g id="edge44" class="edge">
<title>Node39&#45;&gt;Node35</title>
<path fill="none" stroke="#191970" d="M280.6957,-214.4867C291.4746,-205.8027 306.6418,-192.0565 316,-177 343.1545,-133.3107 315.4517,-103.1987 352,-67 359.2598,-59.8096 369.2221,-55.3371 378.9438,-52.5563"/>
<polygon fill="#191970" stroke="#191970" points="379.9286,-55.9203 388.8642,-50.2277 378.329,-49.1055 379.9286,-55.9203"/>
</g>
<!-- Node40 -->
<g id="node41" class="node">
<title>Node40</title>
<g id="a_node41"><a xlink:href="cl_8c.html#aad679eb45e1e1d79608ebb80e3d7810f" target="_top" xlink:title="Returns whether the classifier is a potential subsumer. ">
<polygon fill="none" stroke="#000000" points="376,-266.5 376,-285.5 448,-285.5 448,-266.5 376,-266.5"/>
<text text-anchor="middle" x="412" y="-273.5" font-family="Helvetica,sans-Serif" font-size="10.00" fill="#000000">cl_subsumer</text>
</a>
</g>
</g>
<!-- Node39&#45;&gt;Node40 -->
<g id="edge40" class="edge">
<title>Node39&#45;&gt;Node40</title>
<path fill="none" stroke="#191970" d="M294.4118,-233.5376C317.2059,-241.7688 350.3556,-253.7395 375.652,-262.8743"/>
<polygon fill="#191970" stroke="#191970" points="374.6736,-266.2422 385.268,-266.3468 377.0512,-259.6583 374.6736,-266.2422"/>
</g>
<!-- Node41 -->
<g id="node42" class="node">
<title>Node41</title>
<g id="a_node42"><a xlink:href="cl_8c.html#a115dd8287f1fdd3480bc158321e8a842" target="_top" xlink:title="Returns whether classifier c1 is more general than c2. ">
<polygon fill="none" stroke="#000000" points="381.5,-190.5 381.5,-209.5 442.5,-209.5 442.5,-190.5 381.5,-190.5"/>
<text text-anchor="middle" x="412" y="-197.5" font-family="Helvetica,sans-Serif" font-size="10.00" fill="#000000">cl_general</text>
</a>
</g>
</g>
<!-- Node39&#45;&gt;Node41 -->
<g id="edge41" class="edge">
<title>Node39&#45;&gt;Node41</title>
<path fill="none" stroke="#191970" d="M304.3373,-217.9438C324.6721,-214.5547 350.0843,-210.3193 371.1127,-206.8146"/>
<polygon fill="#191970" stroke="#191970" points="371.7536,-210.2561 381.0421,-205.1597 370.6027,-203.3513 371.7536,-210.2561"/>
</g>
<!-- Node44 -->
<g id="node45" class="node">
<title>Node44</title>
<g id="a_node45"><a xlink:href="utils_8c.html#a32648ab076544a9ac1c086d0f07b599f" target="_top" xlink:title="Returns a uniform random integer [min,max] not inclusive of max. ">
<polygon fill="none" stroke="#000000" points="374.5,-152.5 374.5,-171.5 449.5,-171.5 449.5,-152.5 374.5,-152.5"/>
<text text-anchor="middle" x="412" y="-159.5" font-family="Helvetica,sans-Serif" font-size="10.00" fill="#000000">irand_uniform</text>
</a>
</g>
</g>
<!-- Node39&#45;&gt;Node44 -->
<g id="edge45" class="edge">
<title>Node39&#45;&gt;Node44</title>
<path fill="none" stroke="#191970" d="M284.663,-214.4224C301.3377,-205.0908 327.906,-190.9012 352,-181 357.3738,-178.7917 363.1037,-176.6811 368.8099,-174.7228"/>
<polygon fill="#191970" stroke="#191970" points="369.9259,-178.0403 378.3238,-171.5807 367.7306,-171.3934 369.9259,-178.0403"/>
</g>
<!-- Node42 -->
<g id="node43" class="node">
<title>Node42</title>
<g id="a_node43"><a xlink:href="action_8h.html#aad1e1ac50032c52933294c49302a87f2" target="_top" xlink:title="Returns whether the action of classifier c1 is more general than c2. ">
<polygon fill="none" stroke="#000000" points="512,-219.5 512,-238.5 579,-238.5 579,-219.5 512,-219.5"/>
<text text-anchor="middle" x="545.5" y="-226.5" font-family="Helvetica,sans-Serif" font-size="10.00" fill="#000000">act_general</text>
</a>
</g>
</g>
<!-- Node41&#45;&gt;Node42 -->
<g id="edge42" class="edge">
<title>Node41&#45;&gt;Node42</title>
<path fill="none" stroke="#191970" d="M442.6276,-206.6532C460.1959,-210.4695 482.5415,-215.3236 501.915,-219.5321"/>
<polygon fill="#191970" stroke="#191970" points="501.219,-222.9625 511.7341,-221.6651 502.705,-216.122 501.219,-222.9625"/>
</g>
<!-- Node43 -->
<g id="node44" class="node">
<title>Node43</title>
<g id="a_node44"><a xlink:href="condition_8h.html#a751e1163d6d37a93c12ee96c6dfce53b" target="_top" xlink:title="Returns whether the condition of classifier c1 is more general than c2. ">
<polygon fill="none" stroke="#000000" points="508.5,-181.5 508.5,-200.5 582.5,-200.5 582.5,-181.5 508.5,-181.5"/>
<text text-anchor="middle" x="545.5" y="-188.5" font-family="Helvetica,sans-Serif" font-size="10.00" fill="#000000">cond_general</text>
</a>
</g>
</g>
<!-- Node41&#45;&gt;Node43 -->
<g id="edge43" class="edge">
<title>Node41&#45;&gt;Node43</title>
<path fill="none" stroke="#191970" d="M442.6276,-197.9352C459.1254,-196.823 479.836,-195.4268 498.3421,-194.1792"/>
<polygon fill="#191970" stroke="#191970" points="498.6139,-197.6689 508.3558,-193.5041 498.143,-190.6848 498.6139,-197.6689"/>
</g>
<!-- Node44&#45;&gt;Node28 -->
<g id="edge46" class="edge">
<title>Node44&#45;&gt;Node28</title>
<path fill="none" stroke="#191970" d="M449.5425,-154.1259C464.8703,-150.9111 482.7576,-147.1595 498.9076,-143.7722"/>
<polygon fill="#191970" stroke="#191970" points="499.6317,-147.1965 508.7003,-141.7183 498.1948,-140.3456 499.6317,-147.1965"/>
</g>
<!-- Node46&#45;&gt;Node27 -->
<g id="edge51" class="edge">
<title>Node46&#45;&gt;Node27</title>
<path fill="none" stroke="#191970" d="M278.6659,-167.5124C293.9368,-180.701 323.3598,-204.5459 352,-219 401.9436,-244.2054 420.2982,-235.6317 472,-257 488.3956,-263.7763 506.0777,-272.8583 519.9893,-280.4443"/>
<polygon fill="#191970" stroke="#191970" points="518.5122,-283.6271 528.9559,-285.4104 521.9037,-277.5036 518.5122,-283.6271"/>
</g>
<!-- Node47 -->
<g id="node48" class="node">
<title>Node47</title>
<g id="a_node48"><a xlink:href="ea_8c.html#a715c3a5736659610b1ac1bd34bd77008" target="_top" xlink:title="Selects a classifier from the set via roulete wheel. ">
<polygon fill="none" stroke="#000000" points="375,-76.5 375,-95.5 449,-95.5 449,-76.5 375,-76.5"/>
<text text-anchor="middle" x="412" y="-83.5" font-family="Helvetica,sans-Serif" font-size="10.00" fill="#000000">ea_select_rw</text>
</a>
</g>
</g>
<!-- Node46&#45;&gt;Node47 -->
<g id="edge52" class="edge">
<title>Node46&#45;&gt;Node47</title>
<path fill="none" stroke="#191970" d="M280.7872,-148.4588C296.7615,-136.8952 325.2568,-117.4198 352,-105 356.7103,-102.8125 361.7399,-100.7823 366.8078,-98.9264"/>
<polygon fill="#191970" stroke="#191970" points="368.2132,-102.1442 376.527,-95.5768 365.9323,-95.5262 368.2132,-102.1442"/>
</g>
<!-- Node48 -->
<g id="node49" class="node">
<title>Node48</title>
<g id="a_node49"><a xlink:href="ea_8c.html#a820eac4258fe096a1ac0c1a67969f71e" target="_top" xlink:title="Selects a classifier from the set via tournament. ">
<polygon fill="none" stroke="#000000" points="355.5,-114.5 355.5,-133.5 468.5,-133.5 468.5,-114.5 355.5,-114.5"/>
<text text-anchor="middle" x="412" y="-121.5" font-family="Helvetica,sans-Serif" font-size="10.00" fill="#000000">ea_select_tournament</text>
</a>
</g>
</g>
<!-- Node46&#45;&gt;Node48 -->
<g id="edge54" class="edge">
<title>Node46&#45;&gt;Node48</title>
<path fill="none" stroke="#191970" d="M308.4952,-148.4386C324.9064,-144.5638 344.0378,-140.0466 361.3565,-135.9575"/>
<polygon fill="#191970" stroke="#191970" points="362.3817,-139.3118 371.3098,-133.6074 360.7731,-132.4991 362.3817,-139.3118"/>
</g>
<!-- Node47&#45;&gt;Node28 -->
<g id="edge53" class="edge">
<title>Node47&#45;&gt;Node28</title>
<path fill="none" stroke="#191970" d="M443.5876,-95.5527C452.7922,-98.4576 462.8362,-101.7456 472,-105 485.5974,-109.8289 500.4297,-115.5856 513.1865,-120.6923"/>
<polygon fill="#191970" stroke="#191970" points="511.8991,-123.947 522.4823,-124.4447 514.5194,-117.4559 511.8991,-123.947"/>
</g>
<!-- Node48&#45;&gt;Node28 -->
<g id="edge55" class="edge">
<title>Node48&#45;&gt;Node28</title>
<path fill="none" stroke="#191970" d="M468.616,-128.2409C478.6362,-128.9915 488.9684,-129.7654 498.6807,-130.4929"/>
<polygon fill="#191970" stroke="#191970" points="498.6987,-134.004 508.9323,-131.2608 499.2217,-127.0236 498.6987,-134.004"/>
</g>
</g>
</svg>
