<?xml version="1.0" encoding="UTF-8" standalone="no"?>
<!DOCTYPE svg PUBLIC "-//W3C//DTD SVG 1.1//EN"
 "http://www.w3.org/Graphics/SVG/1.1/DTD/svg11.dtd">
<!-- Generated by graphviz version 2.40.1 (20161225.0304)
 -->
<!-- Title: ea_select_parents Pages: 1 -->
<svg width="439pt" height="104pt"
 viewBox="0.00 0.00 439.00 104.00" xmlns="http://www.w3.org/2000/svg" xmlns:xlink="http://www.w3.org/1999/xlink">
<g id="graph0" class="graph" transform="scale(1 1) rotate(0) translate(4 100)">
<title>ea_select_parents</title>
<!-- Node111 -->
<g id="node1" class="node">
<title>Node111</title>
<polygon fill="#bfbfbf" stroke="#000000" points="0,-38.5 0,-57.5 96,-57.5 96,-38.5 0,-38.5"/>
<text text-anchor="middle" x="48" y="-45.5" font-family="Helvetica,sans-Serif" font-size="10.00" fill="#000000">ea_select_parents</text>
</g>
<!-- Node112 -->
<g id="node2" class="node">
<title>Node112</title>
<g id="a_node2"><a xlink:href="clset_8c.html#aff1b530c481a2283ff4293449d1f8305" target="_top" xlink:title="Calculates the total fitness of classifiers in the set. ">
<polygon fill="none" stroke="#000000" points="151,-76.5 151,-95.5 226,-95.5 226,-76.5 151,-76.5"/>
<text text-anchor="middle" x="188.5" y="-83.5" font-family="Helvetica,sans-Serif" font-size="10.00" fill="#000000">clset_total_fit</text>
</a>
</g>
</g>
<!-- Node111&#45;&gt;Node112 -->
<g id="edge1" class="edge">
<title>Node111&#45;&gt;Node112</title>
<path fill="none" stroke="#191970" d="M83.4541,-57.589C101.5913,-62.4944 123.8684,-68.5196 143.2334,-73.7571"/>
<polygon fill="#191970" stroke="#191970" points="142.4903,-77.1818 153.0573,-76.4141 144.3179,-70.4246 142.4903,-77.1818"/>
</g>
<!-- Node113 -->
<g id="node3" class="node">
<title>Node113</title>
<g id="a_node3"><a xlink:href="ea_8c.html#a715c3a5736659610b1ac1bd34bd77008" target="_top" xlink:title="Selects a classifier from the set via roulete wheel. ">
<polygon fill="none" stroke="#000000" points="151.5,-38.5 151.5,-57.5 225.5,-57.5 225.5,-38.5 151.5,-38.5"/>
<text text-anchor="middle" x="188.5" y="-45.5" font-family="Helvetica,sans-Serif" font-size="10.00" fill="#000000">ea_select_rw</text>
</a>
</g>
</g>
<!-- Node111&#45;&gt;Node113 -->
<g id="edge2" class="edge">
<title>Node111&#45;&gt;Node113</title>
<path fill="none" stroke="#191970" d="M96.3521,-48C110.7878,-48 126.5942,-48 140.9763,-48"/>
<polygon fill="#191970" stroke="#191970" points="141.157,-51.5001 151.157,-48 141.157,-44.5001 141.157,-51.5001"/>
</g>
<!-- Node116 -->
<g id="node6" class="node">
<title>Node116</title>
<g id="a_node6"><a xlink:href="ea_8c.html#a820eac4258fe096a1ac0c1a67969f71e" target="_top" xlink:title="Selects a classifier from the set via tournament. ">
<polygon fill="none" stroke="#000000" points="132,-.5 132,-19.5 245,-19.5 245,-.5 132,-.5"/>
<text text-anchor="middle" x="188.5" y="-7.5" font-family="Helvetica,sans-Serif" font-size="10.00" fill="#000000">ea_select_tournament</text>
</a>
</g>
</g>
<!-- Node111&#45;&gt;Node116 -->
<g id="edge5" class="edge">
<title>Node111&#45;&gt;Node116</title>
<path fill="none" stroke="#191970" d="M83.4541,-38.411C101.5913,-33.5056 123.8684,-27.4804 143.2334,-22.2429"/>
<polygon fill="#191970" stroke="#191970" points="144.3179,-25.5754 153.0573,-19.5859 142.4903,-18.8182 144.3179,-25.5754"/>
</g>
<!-- Node114 -->
<g id="node4" class="node">
<title>Node114</title>
<g id="a_node4"><a xlink:href="utils_8c.html#ae42a9e1d467853befaa7922cfafed3bb" target="_top" xlink:title="Returns a uniform random float [min,max]. ">
<polygon fill="none" stroke="#000000" points="281,-19.5 281,-38.5 354,-38.5 354,-19.5 281,-19.5"/>
<text text-anchor="middle" x="317.5" y="-26.5" font-family="Helvetica,sans-Serif" font-size="10.00" fill="#000000">rand_uniform</text>
</a>
</g>
</g>
<!-- Node113&#45;&gt;Node114 -->
<g id="edge3" class="edge">
<title>Node113&#45;&gt;Node114</title>
<path fill="none" stroke="#191970" d="M225.8121,-42.5044C239.8387,-40.4385 255.9649,-38.0633 270.7435,-35.8866"/>
<polygon fill="#191970" stroke="#191970" points="271.334,-39.3375 280.7172,-34.4176 270.3139,-32.4122 271.334,-39.3375"/>
</g>
<!-- Node115 -->
<g id="node5" class="node">
<title>Node115</title>
<g id="a_node5"><a xlink:href="utils_8c.html#a101d27cdda714b7f17a06224c65cac56" target="_top" xlink:title="Returns a uniform random float (0,1) ">
<polygon fill="none" stroke="#000000" points="390,-19.5 390,-38.5 431,-38.5 431,-19.5 390,-19.5"/>
<text text-anchor="middle" x="410.5" y="-26.5" font-family="Helvetica,sans-Serif" font-size="10.00" fill="#000000">drand</text>
</a>
</g>
</g>
<!-- Node114&#45;&gt;Node115 -->
<g id="edge4" class="edge">
<title>Node114&#45;&gt;Node115</title>
<path fill="none" stroke="#191970" d="M354.2561,-29C362.658,-29 371.5043,-29 379.63,-29"/>
<polygon fill="#191970" stroke="#191970" points="379.799,-32.5001 389.7989,-29 379.7989,-25.5001 379.799,-32.5001"/>
</g>
<!-- Node116&#45;&gt;Node114 -->
<g id="edge6" class="edge">
<title>Node116&#45;&gt;Node114</title>
<path fill="none" stroke="#191970" d="M245.0813,-18.3337C253.6481,-19.5955 262.4041,-20.8851 270.7325,-22.1118"/>
<polygon fill="#191970" stroke="#191970" points="270.2344,-25.5761 280.6377,-23.5707 271.2544,-18.6508 270.2344,-25.5761"/>
</g>
</g>
</svg>
