<?xml version="1.0" encoding="UTF-8" standalone="no"?>
<!DOCTYPE svg PUBLIC "-//W3C//DTD SVG 1.1//EN"
 "http://www.w3.org/Graphics/SVG/1.1/DTD/svg11.dtd">
<!-- Generated by graphviz version 2.40.1 (20161225.0304)
 -->
<!-- Title: ea_select_parents Pages: 1 -->
<svg width="721pt" height="256pt"
 viewBox="0.00 0.00 721.00 256.00" xmlns="http://www.w3.org/2000/svg" xmlns:xlink="http://www.w3.org/1999/xlink">
<g id="graph0" class="graph" transform="scale(1 1) rotate(0) translate(4 252)">
<title>ea_select_parents</title>
<!-- Node129 -->
<g id="node1" class="node">
<title>Node129</title>
<polygon fill="#bfbfbf" stroke="#000000" points="0,-171.5 0,-190.5 96,-190.5 96,-171.5 0,-171.5"/>
<text text-anchor="middle" x="48" y="-178.5" font-family="Helvetica,sans-Serif" font-size="10.00" fill="#000000">ea_select_parents</text>
</g>
<!-- Node130 -->
<g id="node2" class="node">
<title>Node130</title>
<g id="a_node2"><a xlink:href="ea_8h.html#ae90a9b4131bb94462265b9c928499eb8" target="_top" xlink:title="Executes the evolutionary algorithm (EA). ">
<polygon fill="none" stroke="#000000" points="132,-171.5 132,-190.5 161,-190.5 161,-171.5 132,-171.5"/>
<text text-anchor="middle" x="146.5" y="-178.5" font-family="Helvetica,sans-Serif" font-size="10.00" fill="#000000">ea</text>
</a>
</g>
</g>
<!-- Node129&#45;&gt;Node130 -->
<g id="edge1" class="edge">
<title>Node129&#45;&gt;Node130</title>
<path fill="none" stroke="#191970" d="M106.1767,-181C115.7495,-181 124.8567,-181 131.9858,-181"/>
<polygon fill="#191970" stroke="#191970" points="106.0958,-177.5001 96.0958,-181 106.0958,-184.5001 106.0958,-177.5001"/>
</g>
<!-- Node131 -->
<g id="node3" class="node">
<title>Node131</title>
<g id="a_node3"><a xlink:href="xcs__multi__step_8c.html#ad50c415970b4bfc42f469fb38c5e68fa" target="_top" xlink:title="Executes a multi&#45;step trial using a built&#45;in environment. ">
<polygon fill="none" stroke="#000000" points="206,-218.5 206,-237.5 286,-237.5 286,-218.5 206,-218.5"/>
<text text-anchor="middle" x="246" y="-225.5" font-family="Helvetica,sans-Serif" font-size="10.00" fill="#000000">xcs_multi_trial</text>
</a>
</g>
</g>
<!-- Node130&#45;&gt;Node131 -->
<g id="edge2" class="edge">
<title>Node130&#45;&gt;Node131</title>
<path fill="none" stroke="#191970" d="M170.4056,-192.2921C187.3056,-200.275 209.714,-210.8599 225.7373,-218.4287"/>
<polygon fill="#191970" stroke="#191970" points="171.7185,-189.0415 161.1816,-187.935 168.7287,-195.3709 171.7185,-189.0415"/>
</g>
<!-- Node134 -->
<g id="node6" class="node">
<title>Node134</title>
<g id="a_node6"><a xlink:href="xcs__single__step_8h.html#a0ff6b521f66224d56ef0e6f50f5781b9" target="_top" xlink:title="Creates the action set, updates the classifiers and runs the EA. ">
<polygon fill="none" stroke="#000000" points="197,-171.5 197,-190.5 295,-190.5 295,-171.5 197,-171.5"/>
<text text-anchor="middle" x="246" y="-178.5" font-family="Helvetica,sans-Serif" font-size="10.00" fill="#000000">xcs_single_update</text>
</a>
</g>
</g>
<!-- Node130&#45;&gt;Node134 -->
<g id="edge5" class="edge">
<title>Node130&#45;&gt;Node134</title>
<path fill="none" stroke="#191970" d="M171.2801,-181C179.0174,-181 187.8425,-181 196.6508,-181"/>
<polygon fill="#191970" stroke="#191970" points="171.1816,-177.5001 161.1816,-181 171.1815,-184.5001 171.1816,-177.5001"/>
</g>
<!-- Node139 -->
<g id="node11" class="node">
<title>Node139</title>
<g id="a_node11"><a xlink:href="xcsf_8c.html#af5fb604e81235fdcb2ed8925d9291f59" target="_top" xlink:title="Executes a single XCSF trial. ">
<polygon fill="none" stroke="#000000" points="218,-57.5 218,-76.5 274,-76.5 274,-57.5 218,-57.5"/>
<text text-anchor="middle" x="246" y="-64.5" font-family="Helvetica,sans-Serif" font-size="10.00" fill="#000000">xcsf_trial</text>
</a>
</g>
</g>
<!-- Node130&#45;&gt;Node139 -->
<g id="edge11" class="edge">
<title>Node130&#45;&gt;Node139</title>
<path fill="none" stroke="#191970" d="M161.7434,-163.5352C182.9778,-139.2063 220.7403,-95.9408 237.5382,-76.695"/>
<polygon fill="#191970" stroke="#191970" points="158.9221,-161.445 154.9833,-171.2804 164.1959,-166.048 158.9221,-161.445"/>
</g>
<!-- Node132 -->
<g id="node4" class="node">
<title>Node132</title>
<g id="a_node4"><a xlink:href="xcs__multi__step_8h.html#acc29d4a55dbd56c16ea5f19f15a7c677" target="_top" xlink:title="Executes a multi&#45;step reinforcement learning experiment. ">
<polygon fill="none" stroke="#000000" points="473,-228.5 473,-247.5 577,-247.5 577,-228.5 473,-228.5"/>
<text text-anchor="middle" x="525" y="-235.5" font-family="Helvetica,sans-Serif" font-size="10.00" fill="#000000">xcs_multi_step_exp</text>
</a>
</g>
</g>
<!-- Node131&#45;&gt;Node132 -->
<g id="edge3" class="edge">
<title>Node131&#45;&gt;Node132</title>
<path fill="none" stroke="#191970" d="M296.5047,-229.8102C346.4046,-231.5987 422.3872,-234.3221 472.8508,-236.1309"/>
<polygon fill="#191970" stroke="#191970" points="296.39,-226.3039 286.271,-229.4434 296.1392,-233.2994 296.39,-226.3039"/>
</g>
<!-- Node133 -->
<g id="node5" class="node">
<title>Node133</title>
<g id="a_node5"><a xlink:href="main_8c.html#a3c04138a5bfe5d72780bb7e82a18e627" target="_top" xlink:title="main">
<polygon fill="none" stroke="#000000" points="645,-190.5 645,-209.5 683,-209.5 683,-190.5 645,-190.5"/>
<text text-anchor="middle" x="664" y="-197.5" font-family="Helvetica,sans-Serif" font-size="10.00" fill="#000000">main</text>
</a>
</g>
</g>
<!-- Node132&#45;&gt;Node133 -->
<g id="edge4" class="edge">
<title>Node132&#45;&gt;Node133</title>
<path fill="none" stroke="#191970" d="M569.8597,-225.7362C595.1892,-218.8116 625.5345,-210.5157 644.7913,-205.2513"/>
<polygon fill="#191970" stroke="#191970" points="568.7986,-222.3978 560.0756,-228.411 570.6446,-229.15 568.7986,-222.3978"/>
</g>
<!-- Node135 -->
<g id="node7" class="node">
<title>Node135</title>
<g id="a_node7"><a xlink:href="classXCS.html#aedc01ad6f00a54b260a7605929a1d4c9" target="_top" xlink:title="XCS::single_update">
<polygon fill="none" stroke="#000000" points="331,-152.5 331,-171.5 435,-171.5 435,-152.5 331,-152.5"/>
<text text-anchor="middle" x="383" y="-159.5" font-family="Helvetica,sans-Serif" font-size="10.00" fill="#000000">XCS::single_update</text>
</a>
</g>
</g>
<!-- Node134&#45;&gt;Node135 -->
<g id="edge6" class="edge">
<title>Node134&#45;&gt;Node135</title>
<path fill="none" stroke="#191970" d="M305.2254,-172.7863C313.6549,-171.6172 322.2753,-170.4217 330.5632,-169.2723"/>
<polygon fill="#191970" stroke="#191970" points="304.4976,-169.3536 295.0732,-174.1942 305.4592,-176.2873 304.4976,-169.3536"/>
</g>
<!-- Node137 -->
<g id="node9" class="node">
<title>Node137</title>
<g id="a_node9"><a xlink:href="xcs__single__step_8c.html#a536ab4256e871e31959ea6e907455340" target="_top" xlink:title="Executes a single&#45;step trial using a built&#45;in environment. ">
<polygon fill="none" stroke="#000000" points="341,-190.5 341,-209.5 425,-209.5 425,-190.5 341,-190.5"/>
<text text-anchor="middle" x="383" y="-197.5" font-family="Helvetica,sans-Serif" font-size="10.00" fill="#000000">xcs_single_trial</text>
</a>
</g>
</g>
<!-- Node134&#45;&gt;Node137 -->
<g id="edge8" class="edge">
<title>Node134&#45;&gt;Node137</title>
<path fill="none" stroke="#191970" d="M305.0069,-189.1834C316.9825,-190.8443 329.3528,-192.5599 340.6154,-194.1218"/>
<polygon fill="#191970" stroke="#191970" points="305.4592,-185.7128 295.0732,-187.8058 304.4976,-192.6464 305.4592,-185.7128"/>
</g>
<!-- Node136 -->
<g id="node8" class="node">
<title>Node136</title>
<g id="a_node8"><a xlink:href="pybind__wrapper_8cpp.html#a9f26280e01308c4674f2473fb6f78730" target="_top" xlink:title="pybind11_init_xcsf">
<polygon fill="none" stroke="#000000" points="615,-57.5 615,-76.5 713,-76.5 713,-57.5 615,-57.5"/>
<text text-anchor="middle" x="664" y="-64.5" font-family="Helvetica,sans-Serif" font-size="10.00" fill="#000000">pybind11_init_xcsf</text>
</a>
</g>
</g>
<!-- Node135&#45;&gt;Node136 -->
<g id="edge7" class="edge">
<title>Node135&#45;&gt;Node136</title>
<path fill="none" stroke="#191970" d="M431.2146,-149.9595C471.2575,-139.4896 529.4693,-123.176 579,-105 602.066,-96.5356 627.7069,-84.7262 644.7334,-76.528"/>
<polygon fill="#191970" stroke="#191970" points="430.2436,-146.5954 421.442,-152.493 432.0003,-153.3714 430.2436,-146.5954"/>
</g>
<!-- Node138 -->
<g id="node10" class="node">
<title>Node138</title>
<g id="a_node10"><a xlink:href="xcs__single__step_8h.html#a39a031bf59eaa9b33e30e614610dcda8" target="_top" xlink:title="Executes a single&#45;step reinforcement learning experiment. ">
<polygon fill="none" stroke="#000000" points="471,-190.5 471,-209.5 579,-209.5 579,-190.5 471,-190.5"/>
<text text-anchor="middle" x="525" y="-197.5" font-family="Helvetica,sans-Serif" font-size="10.00" fill="#000000">xcs_single_step_exp</text>
</a>
</g>
</g>
<!-- Node137&#45;&gt;Node138 -->
<g id="edge9" class="edge">
<title>Node137&#45;&gt;Node138</title>
<path fill="none" stroke="#191970" d="M435.551,-200C447.0539,-200 459.2511,-200 470.8166,-200"/>
<polygon fill="#191970" stroke="#191970" points="435.2203,-196.5001 425.2202,-200 435.2202,-203.5001 435.2203,-196.5001"/>
</g>
<!-- Node138&#45;&gt;Node133 -->
<g id="edge10" class="edge">
<title>Node138&#45;&gt;Node133</title>
<path fill="none" stroke="#191970" d="M589.3039,-200C609.5242,-200 630.3344,-200 644.8368,-200"/>
<polygon fill="#191970" stroke="#191970" points="589.1391,-196.5001 579.139,-200 589.139,-203.5001 589.1391,-196.5001"/>
</g>
<!-- Node140 -->
<g id="node12" class="node">
<title>Node140</title>
<g id="a_node12"><a xlink:href="xcsf_8h.html#aee465caea59599a71fc69528598156cb" target="_top" xlink:title="Executes MAX_TRIALS number of XCSF learning iterations using the training. data and test iterations u...">
<polygon fill="none" stroke="#000000" points="358.5,-76.5 358.5,-95.5 407.5,-95.5 407.5,-76.5 358.5,-76.5"/>
<text text-anchor="middle" x="383" y="-83.5" font-family="Helvetica,sans-Serif" font-size="10.00" fill="#000000">xcsf_fit</text>
</a>
</g>
</g>
<!-- Node139&#45;&gt;Node140 -->
<g id="edge12" class="edge">
<title>Node139&#45;&gt;Node140</title>
<path fill="none" stroke="#191970" d="M284.1185,-72.2865C307.7972,-75.5704 337.5501,-79.6967 358.2027,-82.561"/>
<polygon fill="#191970" stroke="#191970" points="284.4406,-68.7978 274.0546,-70.8908 283.479,-75.7314 284.4406,-68.7978"/>
</g>
<!-- Node142 -->
<g id="node14" class="node">
<title>Node142</title>
<g id="a_node14"><a xlink:href="xcsf_8h.html#af128a7da769acabe2e841e8d06749b0b" target="_top" xlink:title="Calculates the XCSF predictions for the provided input. ">
<polygon fill="none" stroke="#000000" points="348,-38.5 348,-57.5 418,-57.5 418,-38.5 348,-38.5"/>
<text text-anchor="middle" x="383" y="-45.5" font-family="Helvetica,sans-Serif" font-size="10.00" fill="#000000">xcsf_predict</text>
</a>
</g>
</g>
<!-- Node139&#45;&gt;Node142 -->
<g id="edge16" class="edge">
<title>Node139&#45;&gt;Node142</title>
<path fill="none" stroke="#191970" d="M284.064,-61.721C304.0542,-58.9487 328.385,-55.5743 347.9157,-52.8657"/>
<polygon fill="#191970" stroke="#191970" points="283.479,-58.2686 274.0546,-63.1092 284.4406,-65.2022 283.479,-58.2686"/>
</g>
<!-- Node144 -->
<g id="node16" class="node">
<title>Node144</title>
<g id="a_node16"><a xlink:href="xcsf_8h.html#a348b8cd321211c377fb1deedc62c7c67" target="_top" xlink:title="Calculates the XCSF error for the input data. ">
<polygon fill="none" stroke="#000000" points="350.5,-.5 350.5,-19.5 415.5,-19.5 415.5,-.5 350.5,-.5"/>
<text text-anchor="middle" x="383" y="-7.5" font-family="Helvetica,sans-Serif" font-size="10.00" fill="#000000">xcsf_score</text>
</a>
</g>
</g>
<!-- Node139&#45;&gt;Node144 -->
<g id="edge19" class="edge">
<title>Node139&#45;&gt;Node144</title>
<path fill="none" stroke="#191970" d="M275.9163,-53.0094C292.1046,-45.5955 312.5173,-36.4974 331,-29 339.016,-25.7484 347.8227,-22.4347 355.8735,-19.5046"/>
<polygon fill="#191970" stroke="#191970" points="274.0541,-50.0138 266.4377,-57.3787 276.9845,-56.3709 274.0541,-50.0138"/>
</g>
<!-- Node140&#45;&gt;Node133 -->
<g id="edge13" class="edge">
<title>Node140&#45;&gt;Node133</title>
<path fill="none" stroke="#191970" d="M416.1003,-99.4286C475.3724,-123.4749 597.8314,-173.1558 644.9488,-192.271"/>
<polygon fill="#191970" stroke="#191970" points="417.0568,-96.0396 406.4746,-95.5235 414.4253,-102.5262 417.0568,-96.0396"/>
</g>
<!-- Node141 -->
<g id="node13" class="node">
<title>Node141</title>
<g id="a_node13"><a xlink:href="classXCS.html#ac9a4a7cb0ec6238ef1d4d77996f8975b" target="_top" xlink:title="XCS::fit">
<polygon fill="none" stroke="#000000" points="499,-76.5 499,-95.5 551,-95.5 551,-76.5 499,-76.5"/>
<text text-anchor="middle" x="525" y="-83.5" font-family="Helvetica,sans-Serif" font-size="10.00" fill="#000000">XCS::fit</text>
</a>
</g>
</g>
<!-- Node140&#45;&gt;Node141 -->
<g id="edge14" class="edge">
<title>Node140&#45;&gt;Node141</title>
<path fill="none" stroke="#191970" d="M417.8735,-86C442.8145,-86 475.8634,-86 498.6237,-86"/>
<polygon fill="#191970" stroke="#191970" points="417.7345,-82.5001 407.7345,-86 417.7345,-89.5001 417.7345,-82.5001"/>
</g>
<!-- Node141&#45;&gt;Node136 -->
<g id="edge15" class="edge">
<title>Node141&#45;&gt;Node136</title>
<path fill="none" stroke="#191970" d="M561.3776,-81.0275C577.7306,-78.7922 597.2768,-76.1204 614.9021,-73.7112"/>
<polygon fill="#191970" stroke="#191970" points="560.5787,-77.6041 551.1448,-82.4262 561.5267,-84.5396 560.5787,-77.6041"/>
</g>
<!-- Node143 -->
<g id="node15" class="node">
<title>Node143</title>
<g id="a_node15"><a xlink:href="classXCS.html#a8e8db281054f9e5937610eed434cd4a5" target="_top" xlink:title="XCS::predict">
<polygon fill="none" stroke="#000000" points="488.5,-38.5 488.5,-57.5 561.5,-57.5 561.5,-38.5 488.5,-38.5"/>
<text text-anchor="middle" x="525" y="-45.5" font-family="Helvetica,sans-Serif" font-size="10.00" fill="#000000">XCS::predict</text>
</a>
</g>
</g>
<!-- Node142&#45;&gt;Node143 -->
<g id="edge17" class="edge">
<title>Node142&#45;&gt;Node143</title>
<path fill="none" stroke="#191970" d="M428.2292,-48C447.6223,-48 469.9834,-48 488.3219,-48"/>
<polygon fill="#191970" stroke="#191970" points="428.1012,-44.5001 418.1011,-48 428.1011,-51.5001 428.1012,-44.5001"/>
</g>
<!-- Node143&#45;&gt;Node136 -->
<g id="edge18" class="edge">
<title>Node143&#45;&gt;Node136</title>
<path fill="none" stroke="#191970" d="M571.8196,-54.3998C585.6882,-56.2955 600.9099,-58.3762 614.9174,-60.2909"/>
<polygon fill="#191970" stroke="#191970" points="571.9025,-50.8787 561.5206,-52.992 570.9544,-57.8142 571.9025,-50.8787"/>
</g>
<!-- Node145 -->
<g id="node17" class="node">
<title>Node145</title>
<g id="a_node17"><a xlink:href="classXCS.html#ad32ffc841106ec036029e4c90a33b761" target="_top" xlink:title="XCS::score">
<polygon fill="none" stroke="#000000" points="491,-.5 491,-19.5 559,-19.5 559,-.5 491,-.5"/>
<text text-anchor="middle" x="525" y="-7.5" font-family="Helvetica,sans-Serif" font-size="10.00" fill="#000000">XCS::score</text>
</a>
</g>
</g>
<!-- Node144&#45;&gt;Node145 -->
<g id="edge20" class="edge">
<title>Node144&#45;&gt;Node145</title>
<path fill="none" stroke="#191970" d="M425.7215,-10C446.4707,-10 471.0715,-10 490.5932,-10"/>
<polygon fill="#191970" stroke="#191970" points="425.5777,-6.5001 415.5777,-10 425.5776,-13.5001 425.5777,-6.5001"/>
</g>
<!-- Node145&#45;&gt;Node136 -->
<g id="edge21" class="edge">
<title>Node145&#45;&gt;Node136</title>
<path fill="none" stroke="#191970" d="M563.0214,-22.936C568.4118,-24.8981 573.8648,-26.9527 579,-29 601.5228,-37.9793 626.8341,-49.4822 643.9336,-57.4686"/>
<polygon fill="#191970" stroke="#191970" points="564.0633,-19.5916 553.4686,-19.5256 561.7097,-26.1841 564.0633,-19.5916"/>
</g>
</g>
</svg>
