<?xml version="1.0" encoding="UTF-8" standalone="no"?>
<!DOCTYPE svg PUBLIC "-//W3C//DTD SVG 1.1//EN"
 "http://www.w3.org/Graphics/SVG/1.1/DTD/svg11.dtd">
<!-- Generated by graphviz version 2.40.1 (20161225.0304)
 -->
<!-- Title: env_execute Pages: 1 -->
<svg width="539pt" height="104pt"
 viewBox="0.00 0.00 539.00 104.00" xmlns="http://www.w3.org/2000/svg" xmlns:xlink="http://www.w3.org/1999/xlink">
<g id="graph0" class="graph" transform="scale(1 1) rotate(0) translate(4 100)">
<title>env_execute</title>
<!-- Node1 -->
<g id="node1" class="node">
<title>Node1</title>
<polygon fill="#bfbfbf" stroke="#000000" points="0,-38.5 0,-57.5 72,-57.5 72,-38.5 0,-38.5"/>
<text text-anchor="middle" x="36" y="-45.5" font-family="Helvetica,sans-Serif" font-size="10.00" fill="#000000">env_execute</text>
</g>
<!-- Node2 -->
<g id="node2" class="node">
<title>Node2</title>
<g id="a_node2"><a xlink:href="xcs__multi__step_8c.html#a7c317faec2f018cc620fe5e465ebf378" target="_top" xlink:title="Executes a multi&#45;step exploit trial. ">
<polygon fill="none" stroke="#000000" points="109.5,-76.5 109.5,-95.5 201.5,-95.5 201.5,-76.5 109.5,-76.5"/>
<text text-anchor="middle" x="155.5" y="-83.5" font-family="Helvetica,sans-Serif" font-size="10.00" fill="#000000">xcs_multi_exploit</text>
</a>
</g>
</g>
<!-- Node1&#45;&gt;Node2 -->
<g id="edge1" class="edge">
<title>Node1&#45;&gt;Node2</title>
<path fill="none" stroke="#191970" d="M75.8766,-60.6804C92.023,-65.8148 110.3544,-71.6441 125.3548,-76.4141"/>
<polygon fill="#191970" stroke="#191970" points="76.7453,-57.284 66.1549,-57.589 74.624,-63.9549 76.7453,-57.284"/>
</g>
<!-- Node6 -->
<g id="node6" class="node">
<title>Node6</title>
<g id="a_node6"><a xlink:href="xcs__multi__step_8c.html#a617d9e432dc180dccf0c5ef11a94f79f" target="_top" xlink:title="Executes a multi&#45;step explore trial. ">
<polygon fill="none" stroke="#000000" points="108,-38.5 108,-57.5 203,-57.5 203,-38.5 108,-38.5"/>
<text text-anchor="middle" x="155.5" y="-45.5" font-family="Helvetica,sans-Serif" font-size="10.00" fill="#000000">xcs_multi_explore</text>
</a>
</g>
</g>
<!-- Node1&#45;&gt;Node6 -->
<g id="edge5" class="edge">
<title>Node1&#45;&gt;Node6</title>
<path fill="none" stroke="#191970" d="M82.2332,-48C90.6706,-48 99.4875,-48 107.962,-48"/>
<polygon fill="#191970" stroke="#191970" points="82.1783,-44.5001 72.1782,-48 82.1782,-51.5001 82.1783,-44.5001"/>
</g>
<!-- Node7 -->
<g id="node7" class="node">
<title>Node7</title>
<g id="a_node7"><a xlink:href="xcs__single__step_8c.html#a3d1fd2472d35310800aed897219a65af" target="_top" xlink:title="Executes a single&#45;step trial using a built&#45;in environment. ">
<polygon fill="none" stroke="#000000" points="113.5,-.5 113.5,-19.5 197.5,-19.5 197.5,-.5 113.5,-.5"/>
<text text-anchor="middle" x="155.5" y="-7.5" font-family="Helvetica,sans-Serif" font-size="10.00" fill="#000000">xcs_single_trial</text>
</a>
</g>
</g>
<!-- Node1&#45;&gt;Node7 -->
<g id="edge7" class="edge">
<title>Node1&#45;&gt;Node7</title>
<path fill="none" stroke="#191970" d="M75.8766,-35.3196C92.023,-30.1852 110.3544,-24.3559 125.3548,-19.5859"/>
<polygon fill="#191970" stroke="#191970" points="74.624,-32.0451 66.1549,-38.411 76.7453,-38.716 74.624,-32.0451"/>
</g>
<!-- Node3 -->
<g id="node3" class="node">
<title>Node3</title>
<g id="a_node3"><a xlink:href="xcs__multi__step_8h.html#acc29d4a55dbd56c16ea5f19f15a7c677" target="_top" xlink:title="Executes a multi&#45;step reinforcement learning experiment. ">
<polygon fill="none" stroke="#000000" points="241,-38.5 241,-57.5 345,-57.5 345,-38.5 241,-38.5"/>
<text text-anchor="middle" x="293" y="-45.5" font-family="Helvetica,sans-Serif" font-size="10.00" fill="#000000">xcs_multi_step_exp</text>
</a>
</g>
</g>
<!-- Node2&#45;&gt;Node3 -->
<g id="edge2" class="edge">
<title>Node2&#45;&gt;Node3</title>
<path fill="none" stroke="#191970" d="M200.0729,-73.6817C218.9645,-68.4607 240.6472,-62.4684 258.314,-57.5859"/>
<polygon fill="#191970" stroke="#191970" points="198.9034,-70.3736 190.1971,-76.411 200.7681,-77.1207 198.9034,-70.3736"/>
</g>
<!-- Node4 -->
<g id="node4" class="node">
<title>Node4</title>
<g id="a_node4"><a xlink:href="main_8c.html#ab572a67aa431827116ebd6931d667d21" target="_top" xlink:title="classification">
<polygon fill="none" stroke="#000000" points="383,-19.5 383,-38.5 457,-38.5 457,-19.5 383,-19.5"/>
<text text-anchor="middle" x="420" y="-26.5" font-family="Helvetica,sans-Serif" font-size="10.00" fill="#000000">classification</text>
</a>
</g>
</g>
<!-- Node3&#45;&gt;Node4 -->
<g id="edge3" class="edge">
<title>Node3&#45;&gt;Node4</title>
<path fill="none" stroke="#191970" d="M355.1594,-38.7006C364.5516,-37.2954 373.9829,-35.8845 382.6309,-34.5907"/>
<polygon fill="#191970" stroke="#191970" points="354.3942,-35.276 345.0222,-40.2172 355.43,-42.1989 354.3942,-35.276"/>
</g>
<!-- Node5 -->
<g id="node5" class="node">
<title>Node5</title>
<g id="a_node5"><a xlink:href="main_8c.html#a3c04138a5bfe5d72780bb7e82a18e627" target="_top" xlink:title="main">
<polygon fill="none" stroke="#000000" points="493,-19.5 493,-38.5 531,-38.5 531,-19.5 493,-19.5"/>
<text text-anchor="middle" x="512" y="-26.5" font-family="Helvetica,sans-Serif" font-size="10.00" fill="#000000">main</text>
</a>
</g>
</g>
<!-- Node4&#45;&gt;Node5 -->
<g id="edge4" class="edge">
<title>Node4&#45;&gt;Node5</title>
<path fill="none" stroke="#191970" d="M467.3389,-29C476.3996,-29 485.391,-29 492.9053,-29"/>
<polygon fill="#191970" stroke="#191970" points="467.1548,-25.5001 457.1547,-29 467.1547,-32.5001 467.1548,-25.5001"/>
</g>
<!-- Node6&#45;&gt;Node3 -->
<g id="edge6" class="edge">
<title>Node6&#45;&gt;Node3</title>
<path fill="none" stroke="#191970" d="M213.3118,-48C222.3929,-48 231.7353,-48 240.6832,-48"/>
<polygon fill="#191970" stroke="#191970" points="213.205,-44.5001 203.2049,-48 213.2049,-51.5001 213.205,-44.5001"/>
</g>
<!-- Node8 -->
<g id="node8" class="node">
<title>Node8</title>
<g id="a_node8"><a xlink:href="xcs__single__step_8h.html#a39a031bf59eaa9b33e30e614610dcda8" target="_top" xlink:title="Executes a single&#45;step experiment. ">
<polygon fill="none" stroke="#000000" points="239,-.5 239,-19.5 347,-19.5 347,-.5 239,-.5"/>
<text text-anchor="middle" x="293" y="-7.5" font-family="Helvetica,sans-Serif" font-size="10.00" fill="#000000">xcs_single_step_exp</text>
</a>
</g>
</g>
<!-- Node7&#45;&gt;Node8 -->
<g id="edge8" class="edge">
<title>Node7&#45;&gt;Node8</title>
<path fill="none" stroke="#191970" d="M207.7794,-10C217.8537,-10 228.4293,-10 238.57,-10"/>
<polygon fill="#191970" stroke="#191970" points="207.5017,-6.5001 197.5017,-10 207.5016,-13.5001 207.5017,-6.5001"/>
</g>
<!-- Node8&#45;&gt;Node4 -->
<g id="edge9" class="edge">
<title>Node8&#45;&gt;Node4</title>
<path fill="none" stroke="#191970" d="M357.1372,-19.5953C365.9398,-20.9123 374.7261,-22.2267 382.8194,-23.4376"/>
<polygon fill="#191970" stroke="#191970" points="357.6356,-16.131 347.2278,-18.1128 356.5999,-23.054 357.6356,-16.131"/>
</g>
</g>
</svg>
