<?xml version="1.0" encoding="UTF-8" standalone="no"?>
<!DOCTYPE svg PUBLIC "-//W3C//DTD SVG 1.1//EN"
 "http://www.w3.org/Graphics/SVG/1.1/DTD/svg11.dtd">
<!-- Generated by graphviz version 2.40.1 (20161225.0304)
 -->
<!-- Title: env.c Pages: 1 -->
<svg width="839pt" height="84pt"
 viewBox="0.00 0.00 839.00 84.00" xmlns="http://www.w3.org/2000/svg" xmlns:xlink="http://www.w3.org/1999/xlink">
<g id="graph0" class="graph" transform="scale(1 1) rotate(0) translate(4 80)">
<title>env.c</title>
<!-- Node0 -->
<g id="node1" class="node">
<title>Node0</title>
<polygon fill="#bfbfbf" stroke="#000000" points="384.5,-56.5 384.5,-75.5 425.5,-75.5 425.5,-56.5 384.5,-56.5"/>
<text text-anchor="middle" x="405" y="-63.5" font-family="Helvetica,sans-Serif" font-size="10.00" fill="#000000">env.c</text>
</g>
<!-- Node1 -->
<g id="node2" class="node">
<title>Node1</title>
<polygon fill="none" stroke="#bfbfbf" points="0,-.5 0,-19.5 46,-19.5 46,-.5 0,-.5"/>
<text text-anchor="middle" x="23" y="-7.5" font-family="Helvetica,sans-Serif" font-size="10.00" fill="#000000">stdio.h</text>
</g>
<!-- Node0&#45;&gt;Node1 -->
<g id="edge1" class="edge">
<title>Node0&#45;&gt;Node1</title>
<path fill="none" stroke="#191970" d="M384.2711,-64.5288C331.178,-60.4984 185.9259,-47.8213 56.3843,-19.9944"/>
<polygon fill="#191970" stroke="#191970" points="56.8105,-16.505 46.2937,-17.7886 55.3155,-23.3435 56.8105,-16.505"/>
</g>
<!-- Node2 -->
<g id="node3" class="node">
<title>Node2</title>
<polygon fill="none" stroke="#bfbfbf" points="64,-.5 64,-19.5 112,-19.5 112,-.5 64,-.5"/>
<text text-anchor="middle" x="88" y="-7.5" font-family="Helvetica,sans-Serif" font-size="10.00" fill="#000000">stdlib.h</text>
</g>
<!-- Node0&#45;&gt;Node2 -->
<g id="edge2" class="edge">
<title>Node0&#45;&gt;Node2</title>
<path fill="none" stroke="#191970" d="M384.1474,-63.5926C338.3951,-58.1064 225.6669,-43.4752 122.0471,-19.9937"/>
<polygon fill="#191970" stroke="#191970" points="122.5805,-16.5251 112.0504,-17.6937 121.011,-23.3469 122.5805,-16.5251"/>
</g>
<!-- Node3 -->
<g id="node4" class="node">
<title>Node3</title>
<polygon fill="none" stroke="#bfbfbf" points="130.5,-.5 130.5,-19.5 179.5,-19.5 179.5,-.5 130.5,-.5"/>
<text text-anchor="middle" x="155" y="-7.5" font-family="Helvetica,sans-Serif" font-size="10.00" fill="#000000">string.h</text>
</g>
<!-- Node0&#45;&gt;Node3 -->
<g id="edge3" class="edge">
<title>Node0&#45;&gt;Node3</title>
<path fill="none" stroke="#191970" d="M384.3293,-62.1426C347.3178,-55.1204 267.117,-39.3808 189.7324,-20.0391"/>
<polygon fill="#191970" stroke="#191970" points="190.3748,-16.5916 179.8223,-17.538 188.6618,-23.3787 190.3748,-16.5916"/>
</g>
<!-- Node4 -->
<g id="node5" class="node">
<title>Node4</title>
<polygon fill="none" stroke="#bfbfbf" points="198,-.5 198,-19.5 254,-19.5 254,-.5 198,-.5"/>
<text text-anchor="middle" x="226" y="-7.5" font-family="Helvetica,sans-Serif" font-size="10.00" fill="#000000">stdbool.h</text>
</g>
<!-- Node0&#45;&gt;Node4 -->
<g id="edge4" class="edge">
<title>Node0&#45;&gt;Node4</title>
<path fill="none" stroke="#191970" d="M384.4664,-59.5761C355.1716,-50.4112 300.8641,-33.4212 264.0852,-21.9149"/>
<polygon fill="#191970" stroke="#191970" points="264.8008,-18.4716 254.2119,-18.8261 262.7107,-25.1523 264.8008,-18.4716"/>
</g>
<!-- Node5 -->
<g id="node6" class="node">
<title>Node5</title>
<polygon fill="none" stroke="#bfbfbf" points="272.5,-.5 272.5,-19.5 331.5,-19.5 331.5,-.5 272.5,-.5"/>
<text text-anchor="middle" x="302" y="-7.5" font-family="Helvetica,sans-Serif" font-size="10.00" fill="#000000">inttypes.h</text>
</g>
<!-- Node0&#45;&gt;Node5 -->
<g id="edge5" class="edge">
<title>Node0&#45;&gt;Node5</title>
<path fill="none" stroke="#191970" d="M387.0588,-56.2455C370.96,-47.4928 347.1121,-34.527 328.7609,-24.5496"/>
<polygon fill="#191970" stroke="#191970" points="330.1929,-21.3444 319.7356,-19.6427 326.8493,-27.4942 330.1929,-21.3444"/>
</g>
<!-- Node6 -->
<g id="node7" class="node">
<title>Node6</title>
<polygon fill="none" stroke="#bfbfbf" points="349.5,-.5 349.5,-19.5 396.5,-19.5 396.5,-.5 349.5,-.5"/>
<text text-anchor="middle" x="373" y="-7.5" font-family="Helvetica,sans-Serif" font-size="10.00" fill="#000000">math.h</text>
</g>
<!-- Node0&#45;&gt;Node6 -->
<g id="edge6" class="edge">
<title>Node0&#45;&gt;Node6</title>
<path fill="none" stroke="#191970" d="M399.426,-56.2455C395.0669,-48.617 388.8789,-37.7881 383.5867,-28.5267"/>
<polygon fill="#191970" stroke="#191970" points="386.5104,-26.5886 378.5101,-19.6427 380.4327,-30.0616 386.5104,-26.5886"/>
</g>
<!-- Node7 -->
<g id="node8" class="node">
<title>Node7</title>
<g id="a_node8"><a xlink:href="xcsf_8h.html" target="_top" xlink:title="XCSF data structures. ">
<polygon fill="none" stroke="#000000" points="415,-.5 415,-19.5 459,-19.5 459,-.5 415,-.5"/>
<text text-anchor="middle" x="437" y="-7.5" font-family="Helvetica,sans-Serif" font-size="10.00" fill="#000000">xcsf.h</text>
</a>
</g>
</g>
<!-- Node0&#45;&gt;Node7 -->
<g id="edge7" class="edge">
<title>Node0&#45;&gt;Node7</title>
<path fill="none" stroke="#191970" d="M410.574,-56.2455C414.9331,-48.617 421.1211,-37.7881 426.4133,-28.5267"/>
<polygon fill="#191970" stroke="#191970" points="429.5673,-30.0616 431.4899,-19.6427 423.4896,-26.5886 429.5673,-30.0616"/>
</g>
<!-- Node8 -->
<g id="node9" class="node">
<title>Node8</title>
<g id="a_node9"><a xlink:href="utils_8h.html" target="_top" xlink:title="Utility functions for random number handling, etc. ">
<polygon fill="none" stroke="#000000" points="477.5,-.5 477.5,-19.5 520.5,-19.5 520.5,-.5 477.5,-.5"/>
<text text-anchor="middle" x="499" y="-7.5" font-family="Helvetica,sans-Serif" font-size="10.00" fill="#000000">utils.h</text>
</a>
</g>
</g>
<!-- Node0&#45;&gt;Node8 -->
<g id="edge8" class="edge">
<title>Node0&#45;&gt;Node8</title>
<path fill="none" stroke="#191970" d="M421.3736,-56.2455C435.9308,-47.5731 457.431,-34.7645 474.1152,-24.825"/>
<polygon fill="#191970" stroke="#191970" points="476.0144,-27.7676 482.8141,-19.6427 472.4317,-21.7539 476.0144,-27.7676"/>
</g>
<!-- Node9 -->
<g id="node10" class="node">
<title>Node9</title>
<g id="a_node10"><a xlink:href="env_8h.html" target="_top" xlink:title="Built&#45;in problem environment interface. ">
<polygon fill="none" stroke="#000000" points="538.5,-.5 538.5,-19.5 579.5,-19.5 579.5,-.5 538.5,-.5"/>
<text text-anchor="middle" x="559" y="-7.5" font-family="Helvetica,sans-Serif" font-size="10.00" fill="#000000">env.h</text>
</a>
</g>
</g>
<!-- Node0&#45;&gt;Node9 -->
<g id="edge9" class="edge">
<title>Node0&#45;&gt;Node9</title>
<path fill="none" stroke="#191970" d="M425.7691,-58.4476C452.176,-48.8451 497.9833,-32.1879 528.395,-21.1291"/>
<polygon fill="#191970" stroke="#191970" points="529.8663,-24.3184 538.0681,-17.6116 527.474,-17.7398 529.8663,-24.3184"/>
</g>
<!-- Node10 -->
<g id="node11" class="node">
<title>Node10</title>
<g id="a_node11"><a xlink:href="env__mux_8h.html" target="_top" xlink:title="The real multiplexer problem environment. ">
<polygon fill="none" stroke="#000000" points="597.5,-.5 597.5,-19.5 662.5,-19.5 662.5,-.5 597.5,-.5"/>
<text text-anchor="middle" x="630" y="-7.5" font-family="Helvetica,sans-Serif" font-size="10.00" fill="#000000">env_mux.h</text>
</a>
</g>
</g>
<!-- Node0&#45;&gt;Node10 -->
<g id="edge10" class="edge">
<title>Node0&#45;&gt;Node10</title>
<path fill="none" stroke="#191970" d="M425.7642,-60.832C462.4295,-51.7064 539.3202,-32.5692 587.5918,-20.5549"/>
<polygon fill="#191970" stroke="#191970" points="588.5747,-23.9171 597.4333,-18.1055 586.884,-17.1244 588.5747,-23.9171"/>
</g>
<!-- Node11 -->
<g id="node12" class="node">
<title>Node11</title>
<g id="a_node12"><a xlink:href="env__maze_8h.html" target="_top" xlink:title="The discrete maze problem environment module. ">
<polygon fill="none" stroke="#000000" points="681,-.5 681,-19.5 751,-19.5 751,-.5 681,-.5"/>
<text text-anchor="middle" x="716" y="-7.5" font-family="Helvetica,sans-Serif" font-size="10.00" fill="#000000">env_maze.h</text>
</a>
</g>
</g>
<!-- Node0&#45;&gt;Node11 -->
<g id="edge11" class="edge">
<title>Node0&#45;&gt;Node11</title>
<path fill="none" stroke="#191970" d="M425.5013,-62.8469C468.8513,-56.0995 573.1989,-39.4351 670.9283,-20.1342"/>
<polygon fill="#191970" stroke="#191970" points="671.8462,-23.5203 680.9713,-18.1366 670.4806,-16.6548 671.8462,-23.5203"/>
</g>
<!-- Node12 -->
<g id="node13" class="node">
<title>Node12</title>
<g id="a_node13"><a xlink:href="env__csv_8h.html" target="_top" xlink:title="CSV input file handling functions. ">
<polygon fill="none" stroke="#000000" points="769,-.5 769,-19.5 831,-19.5 831,-.5 769,-.5"/>
<text text-anchor="middle" x="800" y="-7.5" font-family="Helvetica,sans-Serif" font-size="10.00" fill="#000000">env_csv.h</text>
</a>
</g>
</g>
<!-- Node0&#45;&gt;Node12 -->
<g id="edge12" class="edge">
<title>Node0&#45;&gt;Node12</title>
<path fill="none" stroke="#191970" d="M425.5416,-64.1805C478.9122,-59.2762 626.4578,-44.5898 758.733,-20.067"/>
<polygon fill="#191970" stroke="#191970" points="759.4512,-23.4934 768.6332,-18.2075 758.1589,-16.6137 759.4512,-23.4934"/>
</g>
</g>
</svg>
