<?xml version="1.0" encoding="UTF-8" standalone="no"?>
<!DOCTYPE svg PUBLIC "-//W3C//DTD SVG 1.1//EN"
 "http://www.w3.org/Graphics/SVG/1.1/DTD/svg11.dtd">
<!-- Generated by graphviz version 2.40.1 (20161225.0304)
 -->
<!-- Title: env_csv_read Pages: 1 -->
<svg width="492pt" height="28pt"
 viewBox="0.00 0.00 492.00 28.00" xmlns="http://www.w3.org/2000/svg" xmlns:xlink="http://www.w3.org/1999/xlink">
<g id="graph0" class="graph" transform="scale(1 1) rotate(0) translate(4 24)">
<title>env_csv_read</title>
<!-- Node25 -->
<g id="node1" class="node">
<title>Node25</title>
<polygon fill="#bfbfbf" stroke="#000000" points="0,-.5 0,-19.5 77,-19.5 77,-.5 0,-.5"/>
<text text-anchor="middle" x="38.5" y="-7.5" font-family="Helvetica,sans-Serif" font-size="10.00" fill="#000000">env_csv_read</text>
</g>
<!-- Node26 -->
<g id="node2" class="node">
<title>Node26</title>
<g id="a_node2"><a xlink:href="env__csv_8c.html#a78dfcdc69acd0dcbc74e2ca2db795ebe" target="_top" xlink:title="Parses specified csv files into training and testing data sets. ">
<polygon fill="none" stroke="#000000" points="113,-.5 113,-19.5 217,-19.5 217,-.5 113,-.5"/>
<text text-anchor="middle" x="165" y="-7.5" font-family="Helvetica,sans-Serif" font-size="10.00" fill="#000000">env_csv_input_read</text>
</a>
</g>
</g>
<!-- Node25&#45;&gt;Node26 -->
<g id="edge1" class="edge">
<title>Node25&#45;&gt;Node26</title>
<path fill="none" stroke="#191970" d="M87.3834,-10C95.6511,-10 104.2645,-10 112.6173,-10"/>
<polygon fill="#191970" stroke="#191970" points="87.1416,-6.5001 77.1415,-10 87.1415,-13.5001 87.1416,-6.5001"/>
</g>
<!-- Node27 -->
<g id="node3" class="node">
<title>Node27</title>
<g id="a_node3"><a xlink:href="env__csv_8h.html#a90fc27a987dbde3ac073d4ddceab382b" target="_top" xlink:title="Initialises a CSV input environment from a specified filename. ">
<polygon fill="none" stroke="#000000" points="253,-.5 253,-19.5 324,-19.5 324,-.5 253,-.5"/>
<text text-anchor="middle" x="288.5" y="-7.5" font-family="Helvetica,sans-Serif" font-size="10.00" fill="#000000">env_csv_init</text>
</a>
</g>
</g>
<!-- Node26&#45;&gt;Node27 -->
<g id="edge2" class="edge">
<title>Node26&#45;&gt;Node27</title>
<path fill="none" stroke="#191970" d="M227.2179,-10C235.938,-10 244.6456,-10 252.6452,-10"/>
<polygon fill="#191970" stroke="#191970" points="227.0172,-6.5001 217.0172,-10 227.0171,-13.5001 227.0172,-6.5001"/>
</g>
<!-- Node28 -->
<g id="node4" class="node">
<title>Node28</title>
<g id="a_node4"><a xlink:href="env_8h.html#a625040bfc20e836245df6bfd5df2e97b" target="_top" xlink:title="Initialises a built&#45;in problem environment. ">
<polygon fill="none" stroke="#000000" points="360,-.5 360,-19.5 410,-19.5 410,-.5 360,-.5"/>
<text text-anchor="middle" x="385" y="-7.5" font-family="Helvetica,sans-Serif" font-size="10.00" fill="#000000">env_init</text>
</a>
</g>
</g>
<!-- Node27&#45;&gt;Node28 -->
<g id="edge3" class="edge">
<title>Node27&#45;&gt;Node28</title>
<path fill="none" stroke="#191970" d="M334.3127,-10C343.0632,-10 351.9208,-10 359.7305,-10"/>
<polygon fill="#191970" stroke="#191970" points="334.1589,-6.5001 324.1589,-10 334.1588,-13.5001 334.1589,-6.5001"/>
</g>
<!-- Node29 -->
<g id="node5" class="node">
<title>Node29</title>
<g id="a_node5"><a xlink:href="main_8c.html#a3c04138a5bfe5d72780bb7e82a18e627" target="_top" xlink:title="main">
<polygon fill="none" stroke="#000000" points="446,-.5 446,-19.5 484,-19.5 484,-.5 446,-.5"/>
<text text-anchor="middle" x="465" y="-7.5" font-family="Helvetica,sans-Serif" font-size="10.00" fill="#000000">main</text>
</a>
</g>
</g>
<!-- Node28&#45;&gt;Node29 -->
<g id="edge4" class="edge">
<title>Node28&#45;&gt;Node29</title>
<path fill="none" stroke="#191970" d="M420.3912,-10C429.1828,-10 438.2754,-10 445.9396,-10"/>
<polygon fill="#191970" stroke="#191970" points="420.3125,-6.5001 410.3125,-10 420.3125,-13.5001 420.3125,-6.5001"/>
</g>
</g>
</svg>
