<?xml version="1.0" encoding="UTF-8" standalone="no"?>
<!DOCTYPE svg PUBLIC "-//W3C//DTD SVG 1.1//EN"
 "http://www.w3.org/Graphics/SVG/1.1/DTD/svg11.dtd">
<!-- Generated by graphviz version 2.40.1 (20161225.0304)
 -->
<!-- Title: env_get_state Pages: 1 -->
<svg width="545pt" height="104pt"
 viewBox="0.00 0.00 545.00 104.00" xmlns="http://www.w3.org/2000/svg" xmlns:xlink="http://www.w3.org/1999/xlink">
<g id="graph0" class="graph" transform="scale(1 1) rotate(0) translate(4 100)">
<title>env_get_state</title>
<!-- Node14 -->
<g id="node1" class="node">
<title>Node14</title>
<polygon fill="#bfbfbf" stroke="#000000" points="0,-38.5 0,-57.5 78,-57.5 78,-38.5 0,-38.5"/>
<text text-anchor="middle" x="39" y="-45.5" font-family="Helvetica,sans-Serif" font-size="10.00" fill="#000000">env_get_state</text>
</g>
<!-- Node15 -->
<g id="node2" class="node">
<title>Node15</title>
<g id="a_node2"><a xlink:href="xcs__multi__step_8c.html#a7c317faec2f018cc620fe5e465ebf378" target="_top" xlink:title="Executes a multi&#45;step exploit trial. ">
<polygon fill="none" stroke="#000000" points="115.5,-76.5 115.5,-95.5 207.5,-95.5 207.5,-76.5 115.5,-76.5"/>
<text text-anchor="middle" x="161.5" y="-83.5" font-family="Helvetica,sans-Serif" font-size="10.00" fill="#000000">xcs_multi_exploit</text>
</a>
</g>
</g>
<!-- Node14&#45;&gt;Node15 -->
<g id="edge1" class="edge">
<title>Node14&#45;&gt;Node15</title>
<path fill="none" stroke="#191970" d="M79.8777,-60.6804C96.4294,-65.8148 115.2211,-71.6441 130.598,-76.4141"/>
<polygon fill="#191970" stroke="#191970" points="80.4999,-57.209 69.9119,-57.589 78.426,-63.8947 80.4999,-57.209"/>
</g>
<!-- Node19 -->
<g id="node6" class="node">
<title>Node19</title>
<g id="a_node6"><a xlink:href="xcs__multi__step_8c.html#a617d9e432dc180dccf0c5ef11a94f79f" target="_top" xlink:title="Executes a multi&#45;step explore trial. ">
<polygon fill="none" stroke="#000000" points="114,-38.5 114,-57.5 209,-57.5 209,-38.5 114,-38.5"/>
<text text-anchor="middle" x="161.5" y="-45.5" font-family="Helvetica,sans-Serif" font-size="10.00" fill="#000000">xcs_multi_explore</text>
</a>
</g>
</g>
<!-- Node14&#45;&gt;Node19 -->
<g id="edge5" class="edge">
<title>Node14&#45;&gt;Node19</title>
<path fill="none" stroke="#191970" d="M88.1817,-48C96.6161,-48 105.3684,-48 113.7642,-48"/>
<polygon fill="#191970" stroke="#191970" points="88.0966,-44.5001 78.0966,-48 88.0965,-51.5001 88.0966,-44.5001"/>
</g>
<!-- Node20 -->
<g id="node7" class="node">
<title>Node20</title>
<g id="a_node7"><a xlink:href="xcs__single__step_8c.html#a3d1fd2472d35310800aed897219a65af" target="_top" xlink:title="Executes a single&#45;step trial using a built&#45;in environment. ">
<polygon fill="none" stroke="#000000" points="119.5,-.5 119.5,-19.5 203.5,-19.5 203.5,-.5 119.5,-.5"/>
<text text-anchor="middle" x="161.5" y="-7.5" font-family="Helvetica,sans-Serif" font-size="10.00" fill="#000000">xcs_single_trial</text>
</a>
</g>
</g>
<!-- Node14&#45;&gt;Node20 -->
<g id="edge7" class="edge">
<title>Node14&#45;&gt;Node20</title>
<path fill="none" stroke="#191970" d="M79.8777,-35.3196C96.4294,-30.1852 115.2211,-24.3559 130.598,-19.5859"/>
<polygon fill="#191970" stroke="#191970" points="78.426,-32.1053 69.9119,-38.411 80.4999,-38.791 78.426,-32.1053"/>
</g>
<!-- Node16 -->
<g id="node3" class="node">
<title>Node16</title>
<g id="a_node3"><a xlink:href="xcs__multi__step_8h.html#acc29d4a55dbd56c16ea5f19f15a7c677" target="_top" xlink:title="Executes a multi&#45;step reinforcement learning experiment. ">
<polygon fill="none" stroke="#000000" points="247,-38.5 247,-57.5 351,-57.5 351,-38.5 247,-38.5"/>
<text text-anchor="middle" x="299" y="-45.5" font-family="Helvetica,sans-Serif" font-size="10.00" fill="#000000">xcs_multi_step_exp</text>
</a>
</g>
</g>
<!-- Node15&#45;&gt;Node16 -->
<g id="edge2" class="edge">
<title>Node15&#45;&gt;Node16</title>
<path fill="none" stroke="#191970" d="M206.0729,-73.6817C224.9645,-68.4607 246.6472,-62.4684 264.314,-57.5859"/>
<polygon fill="#191970" stroke="#191970" points="204.9034,-70.3736 196.1971,-76.411 206.7681,-77.1207 204.9034,-70.3736"/>
</g>
<!-- Node17 -->
<g id="node4" class="node">
<title>Node17</title>
<g id="a_node4"><a xlink:href="main_8c.html#ab572a67aa431827116ebd6931d667d21" target="_top" xlink:title="classification">
<polygon fill="none" stroke="#000000" points="389,-19.5 389,-38.5 463,-38.5 463,-19.5 389,-19.5"/>
<text text-anchor="middle" x="426" y="-26.5" font-family="Helvetica,sans-Serif" font-size="10.00" fill="#000000">classification</text>
</a>
</g>
</g>
<!-- Node16&#45;&gt;Node17 -->
<g id="edge3" class="edge">
<title>Node16&#45;&gt;Node17</title>
<path fill="none" stroke="#191970" d="M361.1594,-38.7006C370.5516,-37.2954 379.9829,-35.8845 388.6309,-34.5907"/>
<polygon fill="#191970" stroke="#191970" points="360.3942,-35.276 351.0222,-40.2172 361.43,-42.1989 360.3942,-35.276"/>
</g>
<!-- Node18 -->
<g id="node5" class="node">
<title>Node18</title>
<g id="a_node5"><a xlink:href="main_8c.html#a3c04138a5bfe5d72780bb7e82a18e627" target="_top" xlink:title="main">
<polygon fill="none" stroke="#000000" points="499,-19.5 499,-38.5 537,-38.5 537,-19.5 499,-19.5"/>
<text text-anchor="middle" x="518" y="-26.5" font-family="Helvetica,sans-Serif" font-size="10.00" fill="#000000">main</text>
</a>
</g>
</g>
<!-- Node17&#45;&gt;Node18 -->
<g id="edge4" class="edge">
<title>Node17&#45;&gt;Node18</title>
<path fill="none" stroke="#191970" d="M473.3389,-29C482.3996,-29 491.391,-29 498.9053,-29"/>
<polygon fill="#191970" stroke="#191970" points="473.1548,-25.5001 463.1547,-29 473.1547,-32.5001 473.1548,-25.5001"/>
</g>
<!-- Node19&#45;&gt;Node16 -->
<g id="edge6" class="edge">
<title>Node19&#45;&gt;Node16</title>
<path fill="none" stroke="#191970" d="M219.3118,-48C228.3929,-48 237.7353,-48 246.6832,-48"/>
<polygon fill="#191970" stroke="#191970" points="219.205,-44.5001 209.2049,-48 219.2049,-51.5001 219.205,-44.5001"/>
</g>
<!-- Node21 -->
<g id="node8" class="node">
<title>Node21</title>
<g id="a_node8"><a xlink:href="xcs__single__step_8h.html#a39a031bf59eaa9b33e30e614610dcda8" target="_top" xlink:title="Executes a single&#45;step experiment. ">
<polygon fill="none" stroke="#000000" points="245,-.5 245,-19.5 353,-19.5 353,-.5 245,-.5"/>
<text text-anchor="middle" x="299" y="-7.5" font-family="Helvetica,sans-Serif" font-size="10.00" fill="#000000">xcs_single_step_exp</text>
</a>
</g>
</g>
<!-- Node20&#45;&gt;Node21 -->
<g id="edge8" class="edge">
<title>Node20&#45;&gt;Node21</title>
<path fill="none" stroke="#191970" d="M213.7794,-10C223.8537,-10 234.4293,-10 244.57,-10"/>
<polygon fill="#191970" stroke="#191970" points="213.5017,-6.5001 203.5017,-10 213.5016,-13.5001 213.5017,-6.5001"/>
</g>
<!-- Node21&#45;&gt;Node17 -->
<g id="edge9" class="edge">
<title>Node21&#45;&gt;Node17</title>
<path fill="none" stroke="#191970" d="M363.1372,-19.5953C371.9398,-20.9123 380.7261,-22.2267 388.8194,-23.4376"/>
<polygon fill="#191970" stroke="#191970" points="363.6356,-16.131 353.2278,-18.1128 362.5999,-23.054 363.6356,-16.131"/>
</g>
</g>
</svg>
