<?xml version="1.0" encoding="UTF-8" standalone="no"?>
<!DOCTYPE svg PUBLIC "-//W3C//DTD SVG 1.1//EN"
 "http://www.w3.org/Graphics/SVG/1.1/DTD/svg11.dtd">
<!-- Generated by graphviz version 2.40.1 (20161225.0304)
 -->
<!-- Title: env_execute Pages: 1 -->
<svg width="544pt" height="142pt"
 viewBox="0.00 0.00 544.00 142.00" xmlns="http://www.w3.org/2000/svg" xmlns:xlink="http://www.w3.org/1999/xlink">
<g id="graph0" class="graph" transform="scale(1 1) rotate(0) translate(4 138)">
<title>env_execute</title>
<!-- Node1 -->
<g id="node1" class="node">
<title>Node1</title>
<polygon fill="#bfbfbf" stroke="#000000" points="0,-57.5 0,-76.5 72,-76.5 72,-57.5 0,-57.5"/>
<text text-anchor="middle" x="36" y="-64.5" font-family="Helvetica,sans-Serif" font-size="10.00" fill="#000000">env_execute</text>
</g>
<!-- Node2 -->
<g id="node2" class="node">
<title>Node2</title>
<g id="a_node2"><a xlink:href="xcs__multi__step_8c.html#a7c317faec2f018cc620fe5e465ebf378" target="_top" xlink:title="Executes a multi&#45;step exploit trial. ">
<polygon fill="none" stroke="#000000" points="112,-114.5 112,-133.5 204,-133.5 204,-114.5 112,-114.5"/>
<text text-anchor="middle" x="158" y="-121.5" font-family="Helvetica,sans-Serif" font-size="10.00" fill="#000000">xcs_multi_exploit</text>
</a>
</g>
</g>
<!-- Node1&#45;&gt;Node2 -->
<g id="edge1" class="edge">
<title>Node1&#45;&gt;Node2</title>
<path fill="none" stroke="#191970" d="M61.6549,-81.5217C75.2324,-88.9551 92.3021,-97.907 108,-105 115.3623,-108.3266 123.4952,-111.5865 131.0247,-114.4409"/>
<polygon fill="#191970" stroke="#191970" points="63.3168,-78.4412 52.8728,-76.6597 59.9263,-84.5653 63.3168,-78.4412"/>
</g>
<!-- Node6 -->
<g id="node6" class="node">
<title>Node6</title>
<g id="a_node6"><a xlink:href="xcs__multi__step_8c.html#a617d9e432dc180dccf0c5ef11a94f79f" target="_top" xlink:title="Executes a multi&#45;step explore trial. ">
<polygon fill="none" stroke="#000000" points="110.5,-76.5 110.5,-95.5 205.5,-95.5 205.5,-76.5 110.5,-76.5"/>
<text text-anchor="middle" x="158" y="-83.5" font-family="Helvetica,sans-Serif" font-size="10.00" fill="#000000">xcs_multi_explore</text>
</a>
</g>
</g>
<!-- Node1&#45;&gt;Node6 -->
<g id="edge5" class="edge">
<title>Node1&#45;&gt;Node6</title>
<path fill="none" stroke="#191970" d="M82.3625,-74.2204C91.5162,-75.646 101.1374,-77.1443 110.3334,-78.5765"/>
<polygon fill="#191970" stroke="#191970" points="82.6932,-70.7298 72.2737,-72.6492 81.616,-77.6464 82.6932,-70.7298"/>
</g>
<!-- Node7 -->
<g id="node7" class="node">
<title>Node7</title>
<g id="a_node7"><a xlink:href="xcs__single__step_8c.html#aab16ce2421e484a5dc7cb2a60a74517a" target="_top" xlink:title="Executes a single&#45;step exploit trial. ">
<polygon fill="none" stroke="#000000" points="109.5,-38.5 109.5,-57.5 206.5,-57.5 206.5,-38.5 109.5,-38.5"/>
<text text-anchor="middle" x="158" y="-45.5" font-family="Helvetica,sans-Serif" font-size="10.00" fill="#000000">xcs_single_exploit</text>
</a>
</g>
</g>
<!-- Node1&#45;&gt;Node7 -->
<g id="edge7" class="edge">
<title>Node1&#45;&gt;Node7</title>
<path fill="none" stroke="#191970" d="M82.4076,-59.7726C91.2514,-58.3953 100.5299,-56.9503 109.4387,-55.5628"/>
<polygon fill="#191970" stroke="#191970" points="81.616,-56.3536 72.2737,-61.3508 82.6932,-63.2702 81.616,-56.3536"/>
</g>
<!-- Node9 -->
<g id="node9" class="node">
<title>Node9</title>
<g id="a_node9"><a xlink:href="xcs__single__step_8c.html#a7aa49a74bb28adda31400d94a29c2b0b" target="_top" xlink:title="Executes a single&#45;step explore trial. ">
<polygon fill="none" stroke="#000000" points="108,-.5 108,-19.5 208,-19.5 208,-.5 108,-.5"/>
<text text-anchor="middle" x="158" y="-7.5" font-family="Helvetica,sans-Serif" font-size="10.00" fill="#000000">xcs_single_explore</text>
</a>
</g>
</g>
<!-- Node1&#45;&gt;Node9 -->
<g id="edge10" class="edge">
<title>Node1&#45;&gt;Node9</title>
<path fill="none" stroke="#191970" d="M61.6549,-52.4783C75.2324,-45.0449 92.3021,-36.093 108,-29 115.3623,-25.6734 123.4952,-22.4135 131.0247,-19.5591"/>
<polygon fill="#191970" stroke="#191970" points="59.9263,-49.4347 52.8728,-57.3403 63.3168,-55.5588 59.9263,-49.4347"/>
</g>
<!-- Node3 -->
<g id="node3" class="node">
<title>Node3</title>
<g id="a_node3"><a xlink:href="xcs__multi__step_8h.html#acc29d4a55dbd56c16ea5f19f15a7c677" target="_top" xlink:title="Executes a multi&#45;step reinforcement learning experiment. ">
<polygon fill="none" stroke="#000000" points="246,-76.5 246,-95.5 350,-95.5 350,-76.5 246,-76.5"/>
<text text-anchor="middle" x="298" y="-83.5" font-family="Helvetica,sans-Serif" font-size="10.00" fill="#000000">xcs_multi_step_exp</text>
</a>
</g>
</g>
<!-- Node2&#45;&gt;Node3 -->
<g id="edge2" class="edge">
<title>Node2&#45;&gt;Node3</title>
<path fill="none" stroke="#191970" d="M203.1176,-111.7538C222.4149,-106.516 244.6124,-100.4909 262.6834,-95.5859"/>
<polygon fill="#191970" stroke="#191970" points="202.0619,-108.4136 193.3279,-114.411 203.8956,-115.1692 202.0619,-108.4136"/>
</g>
<!-- Node4 -->
<g id="node4" class="node">
<title>Node4</title>
<g id="a_node4"><a xlink:href="main_8c.html#ab572a67aa431827116ebd6931d667d21" target="_top" xlink:title="classification">
<polygon fill="none" stroke="#000000" points="388,-57.5 388,-76.5 462,-76.5 462,-57.5 388,-57.5"/>
<text text-anchor="middle" x="425" y="-64.5" font-family="Helvetica,sans-Serif" font-size="10.00" fill="#000000">classification</text>
</a>
</g>
</g>
<!-- Node3&#45;&gt;Node4 -->
<g id="edge3" class="edge">
<title>Node3&#45;&gt;Node4</title>
<path fill="none" stroke="#191970" d="M360.1594,-76.7006C369.5516,-75.2954 378.9829,-73.8845 387.6309,-72.5907"/>
<polygon fill="#191970" stroke="#191970" points="359.3942,-73.276 350.0222,-78.2172 360.43,-80.1989 359.3942,-73.276"/>
</g>
<!-- Node5 -->
<g id="node5" class="node">
<title>Node5</title>
<g id="a_node5"><a xlink:href="main_8c.html#a3c04138a5bfe5d72780bb7e82a18e627" target="_top" xlink:title="main">
<polygon fill="none" stroke="#000000" points="498,-57.5 498,-76.5 536,-76.5 536,-57.5 498,-57.5"/>
<text text-anchor="middle" x="517" y="-64.5" font-family="Helvetica,sans-Serif" font-size="10.00" fill="#000000">main</text>
</a>
</g>
</g>
<!-- Node4&#45;&gt;Node5 -->
<g id="edge4" class="edge">
<title>Node4&#45;&gt;Node5</title>
<path fill="none" stroke="#191970" d="M472.3389,-67C481.3996,-67 490.391,-67 497.9053,-67"/>
<polygon fill="#191970" stroke="#191970" points="472.1548,-63.5001 462.1547,-67 472.1547,-70.5001 472.1548,-63.5001"/>
</g>
<!-- Node6&#45;&gt;Node3 -->
<g id="edge6" class="edge">
<title>Node6&#45;&gt;Node3</title>
<path fill="none" stroke="#191970" d="M215.9011,-86C225.7523,-86 235.9332,-86 245.6312,-86"/>
<polygon fill="#191970" stroke="#191970" points="215.7885,-82.5001 205.7885,-86 215.7885,-89.5001 215.7885,-82.5001"/>
</g>
<!-- Node8 -->
<g id="node8" class="node">
<title>Node8</title>
<g id="a_node8"><a xlink:href="xcs__single__step_8h.html#a39a031bf59eaa9b33e30e614610dcda8" target="_top" xlink:title="Executes a single&#45;step experiment. ">
<polygon fill="none" stroke="#000000" points="244,-38.5 244,-57.5 352,-57.5 352,-38.5 244,-38.5"/>
<text text-anchor="middle" x="298" y="-45.5" font-family="Helvetica,sans-Serif" font-size="10.00" fill="#000000">xcs_single_step_exp</text>
</a>
</g>
</g>
<!-- Node7&#45;&gt;Node8 -->
<g id="edge8" class="edge">
<title>Node7&#45;&gt;Node8</title>
<path fill="none" stroke="#191970" d="M216.5953,-48C225.5994,-48 234.8621,-48 243.7659,-48"/>
<polygon fill="#191970" stroke="#191970" points="216.5723,-44.5001 206.5723,-48 216.5723,-51.5001 216.5723,-44.5001"/>
</g>
<!-- Node8&#45;&gt;Node4 -->
<g id="edge9" class="edge">
<title>Node8&#45;&gt;Node4</title>
<path fill="none" stroke="#191970" d="M362.1372,-57.5953C370.9398,-58.9123 379.7261,-60.2267 387.8194,-61.4376"/>
<polygon fill="#191970" stroke="#191970" points="362.6356,-54.131 352.2278,-56.1128 361.5999,-61.054 362.6356,-54.131"/>
</g>
<!-- Node9&#45;&gt;Node8 -->
<g id="edge11" class="edge">
<title>Node9&#45;&gt;Node8</title>
<path fill="none" stroke="#191970" d="M203.1176,-22.2462C222.4149,-27.484 244.6124,-33.5091 262.6834,-38.4141"/>
<polygon fill="#191970" stroke="#191970" points="203.8956,-18.8308 193.3279,-19.589 202.0619,-25.5864 203.8956,-18.8308"/>
</g>
</g>
</svg>
