<?xml version="1.0" encoding="UTF-8" standalone="no"?>
<!DOCTYPE svg PUBLIC "-//W3C//DTD SVG 1.1//EN"
 "http://www.w3.org/Graphics/SVG/1.1/DTD/svg11.dtd">
<!-- Generated by graphviz version 2.40.1 (20161225.0304)
 -->
<!-- Title: env.h Pages: 1 -->
<svg width="588pt" height="84pt"
 viewBox="0.00 0.00 588.00 84.00" xmlns="http://www.w3.org/2000/svg" xmlns:xlink="http://www.w3.org/1999/xlink">
<g id="graph0" class="graph" transform="scale(1 1) rotate(0) translate(4 80)">
<title>env.h</title>
<!-- Node1 -->
<g id="node1" class="node">
<title>Node1</title>
<polygon fill="#bfbfbf" stroke="#000000" points="240,-56.5 240,-75.5 281,-75.5 281,-56.5 240,-56.5"/>
<text text-anchor="middle" x="260.5" y="-63.5" font-family="Helvetica,sans-Serif" font-size="10.00" fill="#000000">env.h</text>
</g>
<!-- Node2 -->
<g id="node2" class="node">
<title>Node2</title>
<g id="a_node2"><a xlink:href="$env_8c.html" xlink:title="Built&#45;in problem environment interface. ">
<polygon fill="none" stroke="#000000" points="0,-.5 0,-19.5 41,-19.5 41,-.5 0,-.5"/>
<text text-anchor="middle" x="20.5" y="-7.5" font-family="Helvetica,sans-Serif" font-size="10.00" fill="#000000">env.c</text>
</a>
</g>
</g>
<!-- Node1&#45;&gt;Node2 -->
<g id="edge1" class="edge">
<title>Node1&#45;&gt;Node2</title>
<path fill="none" stroke="#191970" d="M229.8184,-60.3392C188.6922,-52.5108 113.5594,-37.3637 50.5,-20 47.43,-19.1547 44.2112,-18.1791 41.0686,-17.1756"/>
<polygon fill="#191970" stroke="#191970" points="229.2794,-63.7992 239.7549,-62.2139 230.5771,-56.9206 229.2794,-63.7992"/>
</g>
<!-- Node3 -->
<g id="node3" class="node">
<title>Node3</title>
<g id="a_node3"><a xlink:href="$env__csv_8c.html" xlink:title="CSV input file handling functions. ">
<polygon fill="none" stroke="#000000" points="59.5,-.5 59.5,-19.5 121.5,-19.5 121.5,-.5 59.5,-.5"/>
<text text-anchor="middle" x="90.5" y="-7.5" font-family="Helvetica,sans-Serif" font-size="10.00" fill="#000000">env_csv.c</text>
</a>
</g>
</g>
<!-- Node1&#45;&gt;Node3 -->
<g id="edge2" class="edge">
<title>Node1&#45;&gt;Node3</title>
<path fill="none" stroke="#191970" d="M230.0898,-55.9825C198.8037,-45.6765 150.4149,-29.7367 119.6123,-19.5899"/>
<polygon fill="#191970" stroke="#191970" points="229.401,-59.4406 239.994,-59.2451 231.5912,-52.792 229.401,-59.4406"/>
</g>
<!-- Node4 -->
<g id="node4" class="node">
<title>Node4</title>
<g id="a_node4"><a xlink:href="$env__maze_8c.html" xlink:title="The discrete maze problem environment module. ">
<polygon fill="none" stroke="#000000" points="139.5,-.5 139.5,-19.5 209.5,-19.5 209.5,-.5 139.5,-.5"/>
<text text-anchor="middle" x="174.5" y="-7.5" font-family="Helvetica,sans-Serif" font-size="10.00" fill="#000000">env_maze.c</text>
</a>
</g>
</g>
<!-- Node1&#45;&gt;Node4 -->
<g id="edge3" class="edge">
<title>Node1&#45;&gt;Node4</title>
<path fill="none" stroke="#191970" d="M237.1095,-50.769C221.8701,-40.8456 202.4491,-28.1994 189.3084,-19.6427"/>
<polygon fill="#191970" stroke="#191970" points="235.2301,-53.7218 245.5199,-56.2455 239.0498,-47.8558 235.2301,-53.7218"/>
</g>
<!-- Node5 -->
<g id="node5" class="node">
<title>Node5</title>
<g id="a_node5"><a xlink:href="$env__mux_8c.html" xlink:title="The real multiplexer problem environment. ">
<polygon fill="none" stroke="#000000" points="228,-.5 228,-19.5 293,-19.5 293,-.5 228,-.5"/>
<text text-anchor="middle" x="260.5" y="-7.5" font-family="Helvetica,sans-Serif" font-size="10.00" fill="#000000">env_mux.c</text>
</a>
</g>
</g>
<!-- Node1&#45;&gt;Node5 -->
<g id="edge4" class="edge">
<title>Node1&#45;&gt;Node5</title>
<path fill="none" stroke="#191970" d="M260.5,-46.1575C260.5,-37.155 260.5,-26.9199 260.5,-19.6427"/>
<polygon fill="#191970" stroke="#191970" points="257.0001,-46.2455 260.5,-56.2455 264.0001,-46.2456 257.0001,-46.2455"/>
</g>
<!-- Node6 -->
<g id="node6" class="node">
<title>Node6</title>
<g id="a_node6"><a xlink:href="$main_8c.html" xlink:title="Main function for stand&#45;alone binary execution. ">
<polygon fill="none" stroke="#000000" points="311.5,-.5 311.5,-19.5 357.5,-19.5 357.5,-.5 311.5,-.5"/>
<text text-anchor="middle" x="334.5" y="-7.5" font-family="Helvetica,sans-Serif" font-size="10.00" fill="#000000">main.c</text>
</a>
</g>
</g>
<!-- Node1&#45;&gt;Node6 -->
<g id="edge5" class="edge">
<title>Node1&#45;&gt;Node6</title>
<path fill="none" stroke="#191970" d="M281.3657,-50.2097C294.3625,-40.3743 310.6622,-28.0394 321.7579,-19.6427"/>
<polygon fill="#191970" stroke="#191970" points="279.2518,-47.4201 273.3898,-56.2455 283.476,-53.002 279.2518,-47.4201"/>
</g>
<!-- Node7 -->
<g id="node7" class="node">
<title>Node7</title>
<g id="a_node7"><a xlink:href="$xcs__multi__step_8c.html" xlink:title="Multi&#45;step reinforcement learning functions. ">
<polygon fill="none" stroke="#000000" points="376,-.5 376,-19.5 467,-19.5 467,-.5 376,-.5"/>
<text text-anchor="middle" x="421.5" y="-7.5" font-family="Helvetica,sans-Serif" font-size="10.00" fill="#000000">xcs_multi_step.c</text>
</a>
</g>
</g>
<!-- Node1&#45;&gt;Node7 -->
<g id="edge6" class="edge">
<title>Node1&#45;&gt;Node7</title>
<path fill="none" stroke="#191970" d="M290.6682,-55.5067C320.3965,-45.1664 365.4189,-29.5065 394.1365,-19.5177"/>
<polygon fill="#191970" stroke="#191970" points="289.5135,-52.2026 281.2183,-58.7936 291.8132,-58.8141 289.5135,-52.2026"/>
</g>
<!-- Node8 -->
<g id="node8" class="node">
<title>Node8</title>
<g id="a_node8"><a xlink:href="$xcs__single__step_8c.html" xlink:title="Single&#45;step reinforcement learning functions. ">
<polygon fill="none" stroke="#000000" points="485,-.5 485,-19.5 580,-19.5 580,-.5 485,-.5"/>
<text text-anchor="middle" x="532.5" y="-7.5" font-family="Helvetica,sans-Serif" font-size="10.00" fill="#000000">xcs_single_step.c</text>
</a>
</g>
</g>
<!-- Node1&#45;&gt;Node8 -->
<g id="edge7" class="edge">
<title>Node1&#45;&gt;Node8</title>
<path fill="none" stroke="#191970" d="M291.4142,-59.6353C339.0718,-49.8234 430.7778,-30.9428 486.3234,-19.5069"/>
<polygon fill="#191970" stroke="#191970" points="290.4805,-56.2541 281.3917,-61.6988 291.8921,-63.1103 290.4805,-56.2541"/>
</g>
</g>
</svg>
