<?xml version="1.0" encoding="UTF-8" standalone="no"?>
<!DOCTYPE svg PUBLIC "-//W3C//DTD SVG 1.1//EN"
 "http://www.w3.org/Graphics/SVG/1.1/DTD/svg11.dtd">
<!-- Generated by graphviz version 2.40.1 (20161225.0304)
 -->
<!-- Title: tree_init_cons Pages: 1 -->
<svg width="396pt" height="66pt"
 viewBox="0.00 0.00 396.00 66.00" xmlns="http://www.w3.org/2000/svg" xmlns:xlink="http://www.w3.org/1999/xlink">
<g id="graph0" class="graph" transform="scale(1 1) rotate(0) translate(4 62)">
<title>tree_init_cons</title>
<!-- Node36 -->
<g id="node1" class="node">
<title>Node36</title>
<polygon fill="#bfbfbf" stroke="#000000" points="0,-19.5 0,-38.5 77,-38.5 77,-19.5 0,-19.5"/>
<text text-anchor="middle" x="38.5" y="-26.5" font-family="Helvetica,sans-Serif" font-size="10.00" fill="#000000">tree_init_cons</text>
</g>
<!-- Node37 -->
<g id="node2" class="node">
<title>Node37</title>
<g id="a_node2"><a xlink:href="config_8h.html#a37df9fe8af1e1583876040747eeee030" target="_top" xlink:title="Initialises global constants and reads the specified configuration file. ">
<polygon fill="none" stroke="#000000" points="113,-19.5 113,-38.5 174,-38.5 174,-19.5 113,-19.5"/>
<text text-anchor="middle" x="143.5" y="-26.5" font-family="Helvetica,sans-Serif" font-size="10.00" fill="#000000">config_init</text>
</a>
</g>
</g>
<!-- Node36&#45;&gt;Node37 -->
<g id="edge1" class="edge">
<title>Node36&#45;&gt;Node37</title>
<path fill="none" stroke="#191970" d="M87.1611,-29C95.9214,-29 104.825,-29 112.8893,-29"/>
<polygon fill="#191970" stroke="#191970" points="87.0019,-25.5001 77.0019,-29 87.0019,-32.5001 87.0019,-25.5001"/>
</g>
<!-- Node38 -->
<g id="node3" class="node">
<title>Node38</title>
<g id="a_node3"><a xlink:href="main_8c.html#a3c04138a5bfe5d72780bb7e82a18e627" target="_top" xlink:title="main">
<polygon fill="none" stroke="#000000" points="229.5,-38.5 229.5,-57.5 267.5,-57.5 267.5,-38.5 229.5,-38.5"/>
<text text-anchor="middle" x="248.5" y="-45.5" font-family="Helvetica,sans-Serif" font-size="10.00" fill="#000000">main</text>
</a>
</g>
</g>
<!-- Node37&#45;&gt;Node38 -->
<g id="edge2" class="edge">
<title>Node37&#45;&gt;Node38</title>
<path fill="none" stroke="#191970" d="M184.0796,-36.343C199.6004,-39.1515 216.5888,-42.2256 229.2213,-44.5115"/>
<polygon fill="#191970" stroke="#191970" points="184.616,-32.8833 174.1526,-34.5467 183.3696,-39.7714 184.616,-32.8833"/>
</g>
<!-- Node39 -->
<g id="node4" class="node">
<title>Node39</title>
<g id="a_node4"><a xlink:href="structXCS.html#ad372bae45743be0fbf7d95b67e13b390" target="_top" xlink:title="Initialises python XCS structure. ">
<polygon fill="none" stroke="#000000" points="210,-.5 210,-19.5 287,-19.5 287,-.5 210,-.5"/>
<text text-anchor="middle" x="248.5" y="-7.5" font-family="Helvetica,sans-Serif" font-size="10.00" fill="#000000">XCS::xcs_init</text>
</a>
</g>
</g>
<!-- Node37&#45;&gt;Node39 -->
<g id="edge3" class="edge">
<title>Node37&#45;&gt;Node39</title>
<path fill="none" stroke="#191970" d="M184.149,-21.6445C192.5699,-20.1207 201.42,-18.5192 209.7701,-17.0083"/>
<polygon fill="#191970" stroke="#191970" points="183.3696,-18.2286 174.1526,-23.4533 184.616,-25.1167 183.3696,-18.2286"/>
</g>
<!-- Node40 -->
<g id="node5" class="node">
<title>Node40</title>
<g id="a_node5"><a xlink:href="structXCS.html#a621482fa1ba66543d343e208666aee90" target="_top" xlink:title="Constructor for single&#45;step reinforcement learning. ">
<polygon fill="none" stroke="#000000" points="323,-.5 323,-19.5 388,-19.5 388,-.5 323,-.5"/>
<text text-anchor="middle" x="355.5" y="-7.5" font-family="Helvetica,sans-Serif" font-size="10.00" fill="#000000">XCS::XCS</text>
</a>
</g>
</g>
<!-- Node39&#45;&gt;Node40 -->
<g id="edge4" class="edge">
<title>Node39&#45;&gt;Node40</title>
<path fill="none" stroke="#191970" d="M297.219,-10C305.9281,-10 314.8076,-10 322.9243,-10"/>
<polygon fill="#191970" stroke="#191970" points="297.1295,-6.5001 287.1295,-10 297.1294,-13.5001 297.1295,-6.5001"/>
</g>
</g>
</svg>
