<?xml version="1.0" encoding="UTF-8" standalone="no"?>
<!DOCTYPE svg PUBLIC "-//W3C//DTD SVG 1.1//EN"
 "http://www.w3.org/Graphics/SVG/1.1/DTD/svg11.dtd">
<!-- Generated by graphviz version 2.40.1 (20161225.0304)
 -->
<!-- Title: tree_grow Pages: 1 -->
<svg width="392pt" height="66pt"
 viewBox="0.00 0.00 392.00 66.00" xmlns="http://www.w3.org/2000/svg" xmlns:xlink="http://www.w3.org/1999/xlink">
<g id="graph0" class="graph" transform="scale(1 1) rotate(0) translate(4 62)">
<title>tree_grow</title>
<!-- Node37 -->
<g id="node1" class="node">
<title>Node37</title>
<polygon fill="#bfbfbf" stroke="#000000" points="0,-19.5 0,-38.5 59,-38.5 59,-19.5 0,-19.5"/>
<text text-anchor="middle" x="29.5" y="-26.5" font-family="Helvetica,sans-Serif" font-size="10.00" fill="#000000">tree_grow</text>
</g>
<!-- Node38 -->
<g id="node2" class="node">
<title>Node38</title>
<g id="a_node2"><a xlink:href="$gp_8h.html#a33414d31c158a9e6c89f63bb9373b89e" xlink:title="Creates a random GP tree. ">
<polygon fill="none" stroke="#000000" points="95,-19.5 95,-38.5 152,-38.5 152,-19.5 95,-19.5"/>
<text text-anchor="middle" x="123.5" y="-26.5" font-family="Helvetica,sans-Serif" font-size="10.00" fill="#000000">tree_rand</text>
</a>
</g>
</g>
<!-- Node37&#45;&gt;Node38 -->
<g id="edge1" class="edge">
<title>Node37&#45;&gt;Node38</title>
<path fill="none" stroke="#191970" d="M69.4465,-29C78.0065,-29 86.886,-29 94.914,-29"/>
<polygon fill="#191970" stroke="#191970" points="69.2422,-25.5001 59.2422,-29 69.2422,-32.5001 69.2422,-25.5001"/>
</g>
<!-- Node39 -->
<g id="node3" class="node">
<title>Node39</title>
<g id="a_node3"><a xlink:href="$cond__gp_8h.html#aefa6c8a6839ec798ffc9305528932660" xlink:title="cond_gp_init">
<polygon fill="none" stroke="#000000" points="191,-38.5 191,-57.5 262,-57.5 262,-38.5 191,-38.5"/>
<text text-anchor="middle" x="226.5" y="-45.5" font-family="Helvetica,sans-Serif" font-size="10.00" fill="#000000">cond_gp_init</text>
</a>
</g>
</g>
<!-- Node38&#45;&gt;Node39 -->
<g id="edge2" class="edge">
<title>Node38&#45;&gt;Node39</title>
<path fill="none" stroke="#191970" d="M162.1471,-36.1291C171.6063,-37.874 181.6836,-39.7329 190.9879,-41.4492"/>
<polygon fill="#191970" stroke="#191970" points="162.6603,-32.6648 152.1912,-34.2926 161.3904,-39.5486 162.6603,-32.6648"/>
</g>
<!-- Node40 -->
<g id="node4" class="node">
<title>Node40</title>
<g id="a_node4"><a xlink:href="$cond__gp_8c.html#aab19a67440c4eb13440c00bc804c29e8" xlink:title="cond_gp_rand">
<polygon fill="none" stroke="#000000" points="188,-.5 188,-19.5 265,-19.5 265,-.5 188,-.5"/>
<text text-anchor="middle" x="226.5" y="-7.5" font-family="Helvetica,sans-Serif" font-size="10.00" fill="#000000">cond_gp_rand</text>
</a>
</g>
</g>
<!-- Node38&#45;&gt;Node40 -->
<g id="edge3" class="edge">
<title>Node38&#45;&gt;Node40</title>
<path fill="none" stroke="#191970" d="M162.168,-21.8671C170.6009,-20.3115 179.5239,-18.6655 187.952,-17.1108"/>
<polygon fill="#191970" stroke="#191970" points="161.3904,-18.4514 152.1912,-23.7074 162.6603,-25.3352 161.3904,-18.4514"/>
</g>
<!-- Node41 -->
<g id="node5" class="node">
<title>Node41</title>
<g id="a_node5"><a xlink:href="$cond__gp_8h.html#a010013c25fde53b4f86f213acafb56c0" xlink:title="cond_gp_cover">
<polygon fill="none" stroke="#000000" points="301,-.5 301,-19.5 384,-19.5 384,-.5 301,-.5"/>
<text text-anchor="middle" x="342.5" y="-7.5" font-family="Helvetica,sans-Serif" font-size="10.00" fill="#000000">cond_gp_cover</text>
</a>
</g>
</g>
<!-- Node40&#45;&gt;Node41 -->
<g id="edge4" class="edge">
<title>Node40&#45;&gt;Node41</title>
<path fill="none" stroke="#191970" d="M275.3065,-10C283.8039,-10 292.5714,-10 300.8543,-10"/>
<polygon fill="#191970" stroke="#191970" points="275.1264,-6.5001 265.1263,-10 275.1263,-13.5001 275.1264,-6.5001"/>
</g>
</g>
</svg>
