<?xml version="1.0" encoding="UTF-8" standalone="no"?>
<!DOCTYPE svg PUBLIC "-//W3C//DTD SVG 1.1//EN"
 "http://www.w3.org/Graphics/SVG/1.1/DTD/svg11.dtd">
<!-- Generated by graphviz version 2.40.1 (20161225.0304)
 -->
<!-- Title: loss_rmse Pages: 1 -->
<svg width="738pt" height="142pt"
 viewBox="0.00 0.00 738.00 142.00" xmlns="http://www.w3.org/2000/svg" xmlns:xlink="http://www.w3.org/1999/xlink">
<g id="graph0" class="graph" transform="scale(1 1) rotate(0) translate(4 138)">
<title>loss_rmse</title>
<!-- Node63 -->
<g id="node1" class="node">
<title>Node63</title>
<polygon fill="#bfbfbf" stroke="#000000" points="0,-57.5 0,-76.5 62,-76.5 62,-57.5 0,-57.5"/>
<text text-anchor="middle" x="31" y="-64.5" font-family="Helvetica,sans-Serif" font-size="10.00" fill="#000000">loss_rmse</text>
</g>
<!-- Node64 -->
<g id="node2" class="node">
<title>Node64</title>
<g id="a_node2"><a xlink:href="loss_8h.html#a1accbbfc21d6eefe2d2cb676497953f6" target="_top" xlink:title="Sets the XCSF error function to the implemented function. ">
<polygon fill="none" stroke="#000000" points="98,-57.5 98,-76.5 175,-76.5 175,-57.5 98,-57.5"/>
<text text-anchor="middle" x="136.5" y="-64.5" font-family="Helvetica,sans-Serif" font-size="10.00" fill="#000000">loss_set_func</text>
</a>
</g>
</g>
<!-- Node63&#45;&gt;Node64 -->
<g id="edge1" class="edge">
<title>Node63&#45;&gt;Node64</title>
<path fill="none" stroke="#191970" d="M72.1133,-67C80.5577,-67 89.4207,-67 97.7774,-67"/>
<polygon fill="#191970" stroke="#191970" points="72.0829,-63.5001 62.0829,-67 72.0828,-70.5001 72.0829,-63.5001"/>
</g>
<!-- Node65 -->
<g id="node3" class="node">
<title>Node65</title>
<g id="a_node3"><a xlink:href="config_8h.html#a37df9fe8af1e1583876040747eeee030" target="_top" xlink:title="Initialises global constants and reads the specified configuration file. ">
<polygon fill="none" stroke="#000000" points="228.5,-57.5 228.5,-76.5 289.5,-76.5 289.5,-57.5 228.5,-57.5"/>
<text text-anchor="middle" x="259" y="-64.5" font-family="Helvetica,sans-Serif" font-size="10.00" fill="#000000">config_init</text>
</a>
</g>
</g>
<!-- Node64&#45;&gt;Node65 -->
<g id="edge2" class="edge">
<title>Node64&#45;&gt;Node65</title>
<path fill="none" stroke="#191970" d="M185.5439,-67C199.9619,-67 215.3204,-67 228.2462,-67"/>
<polygon fill="#191970" stroke="#191970" points="185.2598,-63.5001 175.2598,-67 185.2597,-70.5001 185.2598,-63.5001"/>
</g>
<!-- Node69 -->
<g id="node7" class="node">
<title>Node69</title>
<g id="a_node7"><a xlink:href="structXCS.html#af56f8d608830e61565b7472d45758463" target="_top" xlink:title="XCS::set_loss_func">
<polygon fill="none" stroke="#000000" points="343,-114.5 343,-133.5 447,-133.5 447,-114.5 343,-114.5"/>
<text text-anchor="middle" x="395" y="-121.5" font-family="Helvetica,sans-Serif" font-size="10.00" fill="#000000">XCS::set_loss_func</text>
</a>
</g>
</g>
<!-- Node64&#45;&gt;Node69 -->
<g id="edge6" class="edge">
<title>Node64&#45;&gt;Node69</title>
<path fill="none" stroke="#191970" d="M182.1253,-78.9899C191.6473,-81.3927 201.6363,-83.8403 211,-86 256.4512,-96.4833 308.5379,-107.1118 345.6649,-114.4522"/>
<polygon fill="#191970" stroke="#191970" points="182.9717,-75.5938 172.4171,-76.5161 181.2432,-82.377 182.9717,-75.5938"/>
</g>
<!-- Node71 -->
<g id="node9" class="node">
<title>Node71</title>
<g id="a_node9"><a xlink:href="xcsf_8c.html#a842f021b7221803c5fabca534a4b02c0" target="_top" xlink:title="Reads the XCSF data structure from a binary file. ">
<polygon fill="none" stroke="#000000" points="211,-19.5 211,-38.5 307,-38.5 307,-19.5 211,-19.5"/>
<text text-anchor="middle" x="259" y="-26.5" font-family="Helvetica,sans-Serif" font-size="10.00" fill="#000000">xcsf_load_params</text>
</a>
</g>
</g>
<!-- Node64&#45;&gt;Node71 -->
<g id="edge8" class="edge">
<title>Node64&#45;&gt;Node71</title>
<path fill="none" stroke="#191970" d="M177.3777,-54.3196C193.9294,-49.1852 212.7211,-43.3559 228.098,-38.5859"/>
<polygon fill="#191970" stroke="#191970" points="175.926,-51.1053 167.4119,-57.411 177.9999,-57.791 175.926,-51.1053"/>
</g>
<!-- Node66 -->
<g id="node4" class="node">
<title>Node66</title>
<g id="a_node4"><a xlink:href="main_8c.html#a3c04138a5bfe5d72780bb7e82a18e627" target="_top" xlink:title="main">
<polygon fill="none" stroke="#000000" points="496.5,-38.5 496.5,-57.5 534.5,-57.5 534.5,-38.5 496.5,-38.5"/>
<text text-anchor="middle" x="515.5" y="-45.5" font-family="Helvetica,sans-Serif" font-size="10.00" fill="#000000">main</text>
</a>
</g>
</g>
<!-- Node65&#45;&gt;Node66 -->
<g id="edge3" class="edge">
<title>Node65&#45;&gt;Node66</title>
<path fill="none" stroke="#191970" d="M300.0031,-63.9627C356.2505,-59.7963 455.0702,-52.4763 496.4406,-49.4118"/>
<polygon fill="#191970" stroke="#191970" points="299.3992,-60.4978 289.6851,-64.727 299.9164,-67.4787 299.3992,-60.4978"/>
</g>
<!-- Node67 -->
<g id="node5" class="node">
<title>Node67</title>
<g id="a_node5"><a xlink:href="structXCS.html#ad372bae45743be0fbf7d95b67e13b390" target="_top" xlink:title="Initialises python XCS structure. ">
<polygon fill="none" stroke="#000000" points="356.5,-76.5 356.5,-95.5 433.5,-95.5 433.5,-76.5 356.5,-76.5"/>
<text text-anchor="middle" x="395" y="-83.5" font-family="Helvetica,sans-Serif" font-size="10.00" fill="#000000">XCS::xcs_init</text>
</a>
</g>
</g>
<!-- Node65&#45;&gt;Node67 -->
<g id="edge4" class="edge">
<title>Node65&#45;&gt;Node67</title>
<path fill="none" stroke="#191970" d="M299.4302,-72.6483C317.4197,-75.1616 338.5083,-78.1078 356.2923,-80.5923"/>
<polygon fill="#191970" stroke="#191970" points="299.9092,-69.1813 289.5211,-71.264 298.9406,-76.114 299.9092,-69.1813"/>
</g>
<!-- Node68 -->
<g id="node6" class="node">
<title>Node68</title>
<g id="a_node6"><a xlink:href="structXCS.html#a0dd359a4dfc0a6439a5c6554768c8b9f" target="_top" xlink:title="Constructor for single&#45;step reinforcement learning. ">
<polygon fill="none" stroke="#000000" points="483,-76.5 483,-95.5 548,-95.5 548,-76.5 483,-76.5"/>
<text text-anchor="middle" x="515.5" y="-83.5" font-family="Helvetica,sans-Serif" font-size="10.00" fill="#000000">XCS::XCS</text>
</a>
</g>
</g>
<!-- Node67&#45;&gt;Node68 -->
<g id="edge5" class="edge">
<title>Node67&#45;&gt;Node68</title>
<path fill="none" stroke="#191970" d="M444.0581,-86C457.1168,-86 470.9026,-86 482.8438,-86"/>
<polygon fill="#191970" stroke="#191970" points="443.7903,-82.5001 433.7902,-86 443.7902,-89.5001 443.7903,-82.5001"/>
</g>
<!-- Node70 -->
<g id="node8" class="node">
<title>Node70</title>
<g id="a_node8"><a xlink:href="python__wrapper_8cpp.html#afbdcc1358036a0b83a6b239da2b098a2" target="_top" xlink:title="BOOST_PYTHON_MODULE">
<polygon fill="none" stroke="#000000" points="584,-57.5 584,-76.5 730,-76.5 730,-57.5 584,-57.5"/>
<text text-anchor="middle" x="657" y="-64.5" font-family="Helvetica,sans-Serif" font-size="10.00" fill="#000000">BOOST_PYTHON_MODULE</text>
</a>
</g>
</g>
<!-- Node69&#45;&gt;Node70 -->
<g id="edge7" class="edge">
<title>Node69&#45;&gt;Node70</title>
<path fill="none" stroke="#191970" d="M457.234,-119.287C485.2205,-116.3977 518.5184,-111.8874 548,-105 578.4437,-97.8879 612.2599,-85.3328 634.0336,-76.6094"/>
<polygon fill="#191970" stroke="#191970" points="456.7881,-115.8139 447.1804,-120.2795 457.4759,-122.7801 456.7881,-115.8139"/>
</g>
<!-- Node72 -->
<g id="node10" class="node">
<title>Node72</title>
<g id="a_node10"><a xlink:href="xcsf_8h.html#af419720749752a7b5596f9def871a71c" target="_top" xlink:title="Reads the state of XCSF from a binary file. ">
<polygon fill="none" stroke="#000000" points="365.5,-.5 365.5,-19.5 424.5,-19.5 424.5,-.5 365.5,-.5"/>
<text text-anchor="middle" x="395" y="-7.5" font-family="Helvetica,sans-Serif" font-size="10.00" fill="#000000">xcsf_load</text>
</a>
</g>
</g>
<!-- Node71&#45;&gt;Node72 -->
<g id="edge9" class="edge">
<title>Node71&#45;&gt;Node72</title>
<path fill="none" stroke="#191970" d="M317.5016,-20.827C334.0523,-18.5148 351.3687,-16.0956 365.4245,-14.1319"/>
<polygon fill="#191970" stroke="#191970" points="316.751,-17.3978 307.3314,-22.2478 317.7196,-24.3304 316.751,-17.3978"/>
</g>
<!-- Node72&#45;&gt;Node66 -->
<g id="edge10" class="edge">
<title>Node72&#45;&gt;Node66</title>
<path fill="none" stroke="#191970" d="M434.5931,-22.4858C455.277,-29.0085 479.6563,-36.6966 496.2064,-41.9157"/>
<polygon fill="#191970" stroke="#191970" points="435.3762,-19.0629 424.7865,-19.3933 433.2709,-25.7388 435.3762,-19.0629"/>
</g>
<!-- Node73 -->
<g id="node11" class="node">
<title>Node73</title>
<g id="a_node11"><a xlink:href="structXCS.html#adc9b621f2b7a306fbf381dd0efaf268b" target="_top" xlink:title="XCS::load">
<polygon fill="none" stroke="#000000" points="484.5,-.5 484.5,-19.5 546.5,-19.5 546.5,-.5 484.5,-.5"/>
<text text-anchor="middle" x="515.5" y="-7.5" font-family="Helvetica,sans-Serif" font-size="10.00" fill="#000000">XCS::load</text>
</a>
</g>
</g>
<!-- Node72&#45;&gt;Node73 -->
<g id="edge11" class="edge">
<title>Node72&#45;&gt;Node73</title>
<path fill="none" stroke="#191970" d="M434.9814,-10C451.0586,-10 469.3154,-10 484.3752,-10"/>
<polygon fill="#191970" stroke="#191970" points="434.7866,-6.5001 424.7865,-10 434.7865,-13.5001 434.7866,-6.5001"/>
</g>
<!-- Node73&#45;&gt;Node70 -->
<g id="edge12" class="edge">
<title>Node73&#45;&gt;Node70</title>
<path fill="none" stroke="#191970" d="M548.6182,-23.3409C574.5701,-33.795 610.0503,-48.0874 633.2388,-57.4284"/>
<polygon fill="#191970" stroke="#191970" points="549.7674,-20.0306 539.1839,-19.5405 547.1518,-26.5236 549.7674,-20.0306"/>
</g>
</g>
</svg>
