<?xml version="1.0" encoding="UTF-8" standalone="no"?>
<!DOCTYPE svg PUBLIC "-//W3C//DTD SVG 1.1//EN"
 "http://www.w3.org/Graphics/SVG/1.1/DTD/svg11.dtd">
<!-- Generated by graphviz version 2.40.1 (20161225.0304)
 -->
<!-- Title: loss_set_func Pages: 1 -->
<svg width="306pt" height="218pt"
 viewBox="0.00 0.00 306.00 218.00" xmlns="http://www.w3.org/2000/svg" xmlns:xlink="http://www.w3.org/1999/xlink">
<g id="graph0" class="graph" transform="scale(1 1) rotate(0) translate(4 214)">
<title>loss_set_func</title>
<!-- Node80 -->
<g id="node1" class="node">
<title>Node80</title>
<polygon fill="#bfbfbf" stroke="#000000" points="0,-95.5 0,-114.5 77,-114.5 77,-95.5 0,-95.5"/>
<text text-anchor="middle" x="38.5" y="-102.5" font-family="Helvetica,sans-Serif" font-size="10.00" fill="#000000">loss_set_func</text>
</g>
<!-- Node81 -->
<g id="node2" class="node">
<title>Node81</title>
<g id="a_node2"><a xlink:href="loss_8c.html#a20654b93b3fdb68e65f74f9680f4c3dc" target="_top" xlink:title="Binary logistic log loss for binary&#45;class classification. ">
<polygon fill="none" stroke="#000000" points="116,-190.5 116,-209.5 200,-209.5 200,-190.5 116,-190.5"/>
<text text-anchor="middle" x="158" y="-197.5" font-family="Helvetica,sans-Serif" font-size="10.00" fill="#000000">loss_binary_log</text>
</a>
</g>
</g>
<!-- Node80&#45;&gt;Node81 -->
<g id="edge1" class="edge">
<title>Node80&#45;&gt;Node81</title>
<path fill="none" stroke="#191970" d="M45.7912,-114.6033C58.1334,-130.3079 84.5866,-161.668 113,-181 115.5811,-182.7561 118.3503,-184.4001 121.2003,-185.9278"/>
<polygon fill="#191970" stroke="#191970" points="119.921,-189.197 130.4465,-190.4066 122.9726,-182.8972 119.921,-189.197"/>
</g>
<!-- Node82 -->
<g id="node3" class="node">
<title>Node82</title>
<g id="a_node3"><a xlink:href="loss_8c.html#a095f9393e8242655b20381c590042d67" target="_top" xlink:title="Logistic log loss for multi&#45;class classification. ">
<polygon fill="none" stroke="#000000" points="131.5,-152.5 131.5,-171.5 184.5,-171.5 184.5,-152.5 131.5,-152.5"/>
<text text-anchor="middle" x="158" y="-159.5" font-family="Helvetica,sans-Serif" font-size="10.00" fill="#000000">loss_log</text>
</a>
</g>
</g>
<!-- Node80&#45;&gt;Node82 -->
<g id="edge2" class="edge">
<title>Node80&#45;&gt;Node82</title>
<path fill="none" stroke="#191970" d="M56.3858,-114.5821C71.3665,-122.4964 93.3863,-133.8716 113,-143 116.8923,-144.8115 121.0049,-146.6495 125.0986,-148.4328"/>
<polygon fill="#191970" stroke="#191970" points="123.9326,-151.7408 134.5033,-152.4561 126.6859,-145.305 123.9326,-151.7408"/>
</g>
<!-- Node83 -->
<g id="node4" class="node">
<title>Node83</title>
<g id="a_node4"><a xlink:href="loss_8c.html#a98b101157a9dfda85e6ed3cb1defd92d" target="_top" xlink:title="Mean absolute error loss function. ">
<polygon fill="none" stroke="#000000" points="128.5,-114.5 128.5,-133.5 187.5,-133.5 187.5,-114.5 128.5,-114.5"/>
<text text-anchor="middle" x="158" y="-121.5" font-family="Helvetica,sans-Serif" font-size="10.00" fill="#000000">loss_mae</text>
</a>
</g>
</g>
<!-- Node80&#45;&gt;Node83 -->
<g id="edge3" class="edge">
<title>Node80&#45;&gt;Node83</title>
<path fill="none" stroke="#191970" d="M77.2982,-111.1688C90.4194,-113.255 105.084,-115.5866 118.2759,-117.684"/>
<polygon fill="#191970" stroke="#191970" points="118.0567,-121.1931 128.4822,-119.3068 119.1559,-114.2799 118.0567,-121.1931"/>
</g>
<!-- Node84 -->
<g id="node5" class="node">
<title>Node84</title>
<g id="a_node5"><a xlink:href="loss_8c.html#a8a4e596b7a4a64fe12730aa097a059b2" target="_top" xlink:title="Mean squared error loss function. ">
<polygon fill="none" stroke="#000000" points="239,-38.5 239,-57.5 298,-57.5 298,-38.5 239,-38.5"/>
<text text-anchor="middle" x="268.5" y="-45.5" font-family="Helvetica,sans-Serif" font-size="10.00" fill="#000000">loss_mse</text>
</a>
</g>
</g>
<!-- Node80&#45;&gt;Node84 -->
<g id="edge4" class="edge">
<title>Node80&#45;&gt;Node84</title>
<path fill="none" stroke="#191970" d="M77.2029,-96.6934C110.6321,-89.3676 160.1678,-78.1504 203,-67 211.4828,-64.7917 220.537,-62.2717 229.1228,-59.8049"/>
<polygon fill="#191970" stroke="#191970" points="230.2988,-63.108 238.9242,-56.9555 228.3447,-56.3863 230.2988,-63.108"/>
</g>
<!-- Node85 -->
<g id="node6" class="node">
<title>Node85</title>
<g id="a_node6"><a xlink:href="loss_8c.html#af85cb54e8270da89fefacf34cb1f7b09" target="_top" xlink:title="One&#45;hot classification error. ">
<polygon fill="none" stroke="#000000" points="113,-38.5 113,-57.5 203,-57.5 203,-38.5 113,-38.5"/>
<text text-anchor="middle" x="158" y="-45.5" font-family="Helvetica,sans-Serif" font-size="10.00" fill="#000000">loss_onehot_acc</text>
</a>
</g>
</g>
<!-- Node80&#45;&gt;Node85 -->
<g id="edge5" class="edge">
<title>Node80&#45;&gt;Node85</title>
<path fill="none" stroke="#191970" d="M58.5016,-95.4595C77.7171,-86.2939 106.9703,-72.3405 128.7909,-61.9324"/>
<polygon fill="#191970" stroke="#191970" points="130.4142,-65.0359 137.9331,-57.5716 127.4005,-58.7179 130.4142,-65.0359"/>
</g>
<!-- Node86 -->
<g id="node7" class="node">
<title>Node86</title>
<g id="a_node7"><a xlink:href="loss_8c.html#a36be2910ed151be6ec0bd53147ec2b39" target="_top" xlink:title="Root mean squared error loss function. ">
<polygon fill="none" stroke="#000000" points="127,-.5 127,-19.5 189,-19.5 189,-.5 127,-.5"/>
<text text-anchor="middle" x="158" y="-7.5" font-family="Helvetica,sans-Serif" font-size="10.00" fill="#000000">loss_rmse</text>
</a>
</g>
</g>
<!-- Node80&#45;&gt;Node86 -->
<g id="edge6" class="edge">
<title>Node80&#45;&gt;Node86</title>
<path fill="none" stroke="#191970" d="M45.7912,-95.3967C58.1334,-79.6921 84.5866,-48.332 113,-29 115.5811,-27.2439 118.3503,-25.5999 121.2003,-24.0722"/>
<polygon fill="#191970" stroke="#191970" points="122.9726,-27.1028 130.4465,-19.5934 119.921,-20.803 122.9726,-27.1028"/>
</g>
<!-- Node86&#45;&gt;Node84 -->
<g id="edge7" class="edge">
<title>Node86&#45;&gt;Node84</title>
<path fill="none" stroke="#191970" d="M185.8838,-19.589C199.494,-24.2694 216.0682,-29.9692 230.7891,-35.0315"/>
<polygon fill="#191970" stroke="#191970" points="230.0304,-38.4718 240.6251,-38.4141 232.3069,-31.8522 230.0304,-38.4718"/>
</g>
</g>
</svg>
