<?xml version="1.0" encoding="UTF-8" standalone="no"?>
<!DOCTYPE svg PUBLIC "-//W3C//DTD SVG 1.1//EN"
 "http://www.w3.org/Graphics/SVG/1.1/DTD/svg11.dtd">
<!-- Generated by graphviz version 2.40.1 (20161225.0304)
 -->
<!-- Title: loss_set_func Pages: 1 -->
<svg width="649pt" height="149pt"
 viewBox="0.00 0.00 649.00 149.18" xmlns="http://www.w3.org/2000/svg" xmlns:xlink="http://www.w3.org/1999/xlink">
<g id="graph0" class="graph" transform="scale(1 1) rotate(0) translate(4 145.1801)">
<title>loss_set_func</title>
<!-- Node87 -->
<g id="node1" class="node">
<title>Node87</title>
<polygon fill="#bfbfbf" stroke="#000000" points="0,-67.5 0,-86.5 77,-86.5 77,-67.5 0,-67.5"/>
<text text-anchor="middle" x="38.5" y="-74.5" font-family="Helvetica,sans-Serif" font-size="10.00" fill="#000000">loss_set_func</text>
</g>
<!-- Node88 -->
<g id="node2" class="node">
<title>Node88</title>
<g id="a_node2"><a xlink:href="$config_8h.html#acc9074ddd76624bcc0368318bc8f8691" xlink:title="Initialises global constants and reads the specified configuration file. ">
<polygon fill="none" stroke="#000000" points="122.5,-105.5 122.5,-124.5 199.5,-124.5 199.5,-105.5 122.5,-105.5"/>
<text text-anchor="middle" x="161" y="-112.5" font-family="Helvetica,sans-Serif" font-size="10.00" fill="#000000">constants_init</text>
</a>
</g>
</g>
<!-- Node87&#45;&gt;Node88 -->
<g id="edge1" class="edge">
<title>Node87&#45;&gt;Node88</title>
<path fill="none" stroke="#191970" d="M79.3777,-89.6804C95.9294,-94.8148 114.7211,-100.6441 130.098,-105.4141"/>
<polygon fill="#191970" stroke="#191970" points="79.9999,-86.209 69.4119,-86.589 77.926,-92.8947 79.9999,-86.209"/>
</g>
<!-- Node91 -->
<g id="node5" class="node">
<title>Node91</title>
<g id="a_node5"><a xlink:href="$structXCS.html#af56f8d608830e61565b7472d45758463" xlink:title="XCS::set_loss_func">
<polygon fill="none" stroke="#000000" points="245,-.5 245,-19.5 349,-19.5 349,-.5 245,-.5"/>
<text text-anchor="middle" x="297" y="-7.5" font-family="Helvetica,sans-Serif" font-size="10.00" fill="#000000">XCS::set_loss_func</text>
</a>
</g>
</g>
<!-- Node87&#45;&gt;Node91 -->
<g id="edge4" class="edge">
<title>Node87&#45;&gt;Node91</title>
<path fill="none" stroke="#191970" d="M85.1948,-64.8973C135.311,-51.9078 213.9055,-31.5371 259.9461,-19.6039"/>
<polygon fill="#191970" stroke="#191970" points="84.0642,-61.5746 75.2622,-67.4717 85.8205,-68.3507 84.0642,-61.5746"/>
</g>
<!-- Node93 -->
<g id="node7" class="node">
<title>Node93</title>
<g id="a_node7"><a xlink:href="$xcsf_8c.html#a25eb95d74507a7e17c2ed9067a030792" xlink:title="Reads the XCSF data structure from a binary file. ">
<polygon fill="none" stroke="#000000" points="113,-67.5 113,-86.5 209,-86.5 209,-67.5 113,-67.5"/>
<text text-anchor="middle" x="161" y="-74.5" font-family="Helvetica,sans-Serif" font-size="10.00" fill="#000000">xcsf_load_params</text>
</a>
</g>
</g>
<!-- Node87&#45;&gt;Node93 -->
<g id="edge6" class="edge">
<title>Node87&#45;&gt;Node93</title>
<path fill="none" stroke="#191970" d="M87.5094,-77C95.7697,-77 104.3397,-77 112.5848,-77"/>
<polygon fill="#191970" stroke="#191970" points="87.2598,-73.5001 77.2598,-77 87.2597,-80.5001 87.2598,-73.5001"/>
</g>
<!-- Node89 -->
<g id="node3" class="node">
<title>Node89</title>
<g id="a_node3"><a xlink:href="$main_8c.html#a3c04138a5bfe5d72780bb7e82a18e627" xlink:title="main">
<polygon fill="none" stroke="#000000" points="549,-105.5 549,-124.5 587,-124.5 587,-105.5 549,-105.5"/>
<text text-anchor="middle" x="568" y="-112.5" font-family="Helvetica,sans-Serif" font-size="10.00" fill="#000000">main</text>
</a>
</g>
</g>
<!-- Node88&#45;&gt;Node89 -->
<g id="edge2" class="edge">
<title>Node88&#45;&gt;Node89</title>
<path fill="none" stroke="#191970" d="M204.9892,-126.884C217.7922,-129.815 231.868,-132.5334 245,-134 339.5234,-144.5568 364.2428,-142.1969 459,-134 490.7682,-131.2519 527.1684,-124.0788 548.8358,-119.3749"/>
<polygon fill="#191970" stroke="#191970" points="205.5761,-123.4258 195.0366,-124.5077 203.9503,-130.2344 205.5761,-123.4258"/>
</g>
<!-- Node90 -->
<g id="node4" class="node">
<title>Node90</title>
<g id="a_node4"><a xlink:href="$structXCS.html#a6cfaf100bf40e491fb8b32a93439b969" xlink:title="XCS::XCS">
<polygon fill="none" stroke="#000000" points="264.5,-105.5 264.5,-124.5 329.5,-124.5 329.5,-105.5 264.5,-105.5"/>
<text text-anchor="middle" x="297" y="-112.5" font-family="Helvetica,sans-Serif" font-size="10.00" fill="#000000">XCS::XCS</text>
</a>
</g>
</g>
<!-- Node88&#45;&gt;Node90 -->
<g id="edge3" class="edge">
<title>Node88&#45;&gt;Node90</title>
<path fill="none" stroke="#191970" d="M209.7155,-115C227.8318,-115 247.9389,-115 264.284,-115"/>
<polygon fill="#191970" stroke="#191970" points="209.6084,-111.5001 199.6084,-115 209.6083,-118.5001 209.6084,-111.5001"/>
</g>
<!-- Node92 -->
<g id="node6" class="node">
<title>Node92</title>
<g id="a_node6"><a xlink:href="$python__wrapper_8cpp.html#afbdcc1358036a0b83a6b239da2b098a2" xlink:title="BOOST_PYTHON_MODULE">
<polygon fill="none" stroke="#000000" points="495,-10.5 495,-29.5 641,-29.5 641,-10.5 495,-10.5"/>
<text text-anchor="middle" x="568" y="-17.5" font-family="Helvetica,sans-Serif" font-size="10.00" fill="#000000">BOOST_PYTHON_MODULE</text>
</a>
</g>
</g>
<!-- Node91&#45;&gt;Node92 -->
<g id="edge5" class="edge">
<title>Node91&#45;&gt;Node92</title>
<path fill="none" stroke="#191970" d="M359.5013,-12.3063C399.8811,-13.7964 452.5908,-15.7414 494.909,-17.3029"/>
<polygon fill="#191970" stroke="#191970" points="359.3738,-8.7993 349.2515,-11.9281 359.1156,-15.7946 359.3738,-8.7993"/>
</g>
<!-- Node94 -->
<g id="node8" class="node">
<title>Node94</title>
<g id="a_node8"><a xlink:href="$xcsf_8h.html#a70e6ae30c7d4e471009c4611255ed873" xlink:title="Reads the state of XCSF from a binary file. ">
<polygon fill="none" stroke="#000000" points="267.5,-67.5 267.5,-86.5 326.5,-86.5 326.5,-67.5 267.5,-67.5"/>
<text text-anchor="middle" x="297" y="-74.5" font-family="Helvetica,sans-Serif" font-size="10.00" fill="#000000">xcsf_load</text>
</a>
</g>
</g>
<!-- Node93&#45;&gt;Node94 -->
<g id="edge7" class="edge">
<title>Node93&#45;&gt;Node94</title>
<path fill="none" stroke="#191970" d="M219.5016,-77C236.0523,-77 253.3687,-77 267.4245,-77"/>
<polygon fill="#191970" stroke="#191970" points="219.3315,-73.5001 209.3314,-77 219.3314,-80.5001 219.3315,-73.5001"/>
</g>
<!-- Node95 -->
<g id="node9" class="node">
<title>Node95</title>
<g id="a_node9"><a xlink:href="$main_8c.html#a968c78da8ed8ad08662a86280deec99a" xlink:title="regression">
<polygon fill="none" stroke="#000000" points="391,-105.5 391,-124.5 453,-124.5 453,-105.5 391,-105.5"/>
<text text-anchor="middle" x="422" y="-112.5" font-family="Helvetica,sans-Serif" font-size="10.00" fill="#000000">regression</text>
</a>
</g>
</g>
<!-- Node94&#45;&gt;Node95 -->
<g id="edge8" class="edge">
<title>Node94&#45;&gt;Node95</title>
<path fill="none" stroke="#191970" d="M336.5703,-89.0294C354.0986,-94.358 374.4203,-100.5358 390.845,-105.5289"/>
<polygon fill="#191970" stroke="#191970" points="337.2089,-85.5654 326.6233,-86.0055 335.1729,-92.2628 337.2089,-85.5654"/>
</g>
<!-- Node96 -->
<g id="node10" class="node">
<title>Node96</title>
<g id="a_node10"><a xlink:href="$main_8c.html#ab572a67aa431827116ebd6931d667d21" xlink:title="classification">
<polygon fill="none" stroke="#000000" points="385,-67.5 385,-86.5 459,-86.5 459,-67.5 385,-67.5"/>
<text text-anchor="middle" x="422" y="-74.5" font-family="Helvetica,sans-Serif" font-size="10.00" fill="#000000">classification</text>
</a>
</g>
</g>
<!-- Node94&#45;&gt;Node96 -->
<g id="edge10" class="edge">
<title>Node94&#45;&gt;Node96</title>
<path fill="none" stroke="#191970" d="M336.9007,-77C352.3152,-77 369.8492,-77 384.9795,-77"/>
<polygon fill="#191970" stroke="#191970" points="336.6233,-73.5001 326.6233,-77 336.6232,-80.5001 336.6233,-73.5001"/>
</g>
<!-- Node97 -->
<g id="node11" class="node">
<title>Node97</title>
<g id="a_node11"><a xlink:href="$structXCS.html#adc9b621f2b7a306fbf381dd0efaf268b" xlink:title="XCS::load">
<polygon fill="none" stroke="#000000" points="391,-29.5 391,-48.5 453,-48.5 453,-29.5 391,-29.5"/>
<text text-anchor="middle" x="422" y="-36.5" font-family="Helvetica,sans-Serif" font-size="10.00" fill="#000000">XCS::load</text>
</a>
</g>
</g>
<!-- Node94&#45;&gt;Node97 -->
<g id="edge12" class="edge">
<title>Node94&#45;&gt;Node97</title>
<path fill="none" stroke="#191970" d="M336.5703,-64.9706C354.0986,-59.642 374.4203,-53.4642 390.845,-48.4711"/>
<polygon fill="#191970" stroke="#191970" points="335.1729,-61.7372 326.6233,-67.9945 337.2089,-68.4346 335.1729,-61.7372"/>
</g>
<!-- Node95&#45;&gt;Node89 -->
<g id="edge9" class="edge">
<title>Node95&#45;&gt;Node89</title>
<path fill="none" stroke="#191970" d="M463.6356,-115C491.6384,-115 527.2443,-115 548.7946,-115"/>
<polygon fill="#191970" stroke="#191970" points="463.3207,-111.5001 453.3207,-115 463.3206,-118.5001 463.3207,-111.5001"/>
</g>
<!-- Node96&#45;&gt;Node89 -->
<g id="edge11" class="edge">
<title>Node96&#45;&gt;Node89</title>
<path fill="none" stroke="#191970" d="M468.5318,-89.111C495.6136,-96.1597 528.3165,-104.6714 548.6406,-109.9613"/>
<polygon fill="#191970" stroke="#191970" points="469.4012,-85.7207 458.842,-86.589 467.6379,-92.4951 469.4012,-85.7207"/>
</g>
<!-- Node97&#45;&gt;Node92 -->
<g id="edge13" class="edge">
<title>Node97&#45;&gt;Node92</title>
<path fill="none" stroke="#191970" d="M463.5222,-33.5964C473.3012,-32.3238 484.0122,-30.9299 494.731,-29.535"/>
<polygon fill="#191970" stroke="#191970" points="462.7853,-30.1627 453.3207,-34.924 463.6887,-37.1042 462.7853,-30.1627"/>
</g>
</g>
</svg>
