<?xml version="1.0" encoding="UTF-8" standalone="no"?>
<!DOCTYPE svg PUBLIC "-//W3C//DTD SVG 1.1//EN"
 "http://www.w3.org/Graphics/SVG/1.1/DTD/svg11.dtd">
<!-- Generated by graphviz version 2.40.1 (20161225.0304)
 -->
<!-- Title: loss_mse Pages: 1 -->
<svg width="833pt" height="142pt"
 viewBox="0.00 0.00 833.00 142.00" xmlns="http://www.w3.org/2000/svg" xmlns:xlink="http://www.w3.org/1999/xlink">
<g id="graph0" class="graph" transform="scale(1 1) rotate(0) translate(4 138)">
<title>loss_mse</title>
<!-- Node37 -->
<g id="node1" class="node">
<title>Node37</title>
<polygon fill="#bfbfbf" stroke="#000000" points="0,-57.5 0,-76.5 59,-76.5 59,-57.5 0,-57.5"/>
<text text-anchor="middle" x="29.5" y="-64.5" font-family="Helvetica,sans-Serif" font-size="10.00" fill="#000000">loss_mse</text>
</g>
<!-- Node38 -->
<g id="node2" class="node">
<title>Node38</title>
<g id="a_node2"><a xlink:href="loss_8h.html#a8b9f770f00ca3c534690d727bc9d61ea" target="_top" xlink:title="Root mean squared error loss function. ">
<polygon fill="none" stroke="#000000" points="95,-76.5 95,-95.5 157,-95.5 157,-76.5 95,-76.5"/>
<text text-anchor="middle" x="126" y="-83.5" font-family="Helvetica,sans-Serif" font-size="10.00" fill="#000000">loss_rmse</text>
</a>
</g>
</g>
<!-- Node37&#45;&gt;Node38 -->
<g id="edge1" class="edge">
<title>Node37&#45;&gt;Node38</title>
<path fill="none" stroke="#191970" d="M69.0832,-74.7936C77.674,-76.485 86.6438,-78.2511 94.8545,-79.8677"/>
<polygon fill="#191970" stroke="#191970" points="69.7284,-71.3535 59.2406,-72.8557 68.3761,-78.2216 69.7284,-71.3535"/>
</g>
<!-- Node39 -->
<g id="node3" class="node">
<title>Node39</title>
<g id="a_node3"><a xlink:href="loss_8h.html#a1accbbfc21d6eefe2d2cb676497953f6" target="_top" xlink:title="Sets the XCSF error function to the implemented function. ">
<polygon fill="none" stroke="#000000" points="193,-57.5 193,-76.5 270,-76.5 270,-57.5 193,-57.5"/>
<text text-anchor="middle" x="231.5" y="-64.5" font-family="Helvetica,sans-Serif" font-size="10.00" fill="#000000">loss_set_func</text>
</a>
</g>
</g>
<!-- Node37&#45;&gt;Node39 -->
<g id="edge14" class="edge">
<title>Node37&#45;&gt;Node39</title>
<path fill="none" stroke="#191970" d="M69.4045,-67C105.2365,-67 157.503,-67 192.9219,-67"/>
<polygon fill="#191970" stroke="#191970" points="69.3058,-63.5001 59.3058,-67 69.3058,-70.5001 69.3058,-63.5001"/>
</g>
<!-- Node38&#45;&gt;Node39 -->
<g id="edge2" class="edge">
<title>Node38&#45;&gt;Node39</title>
<path fill="none" stroke="#191970" d="M167.1133,-78.5957C175.5577,-77.0749 184.4207,-75.4787 192.7774,-73.9737"/>
<polygon fill="#191970" stroke="#191970" points="166.3042,-75.185 157.0829,-80.4021 167.5449,-82.0742 166.3042,-75.185"/>
</g>
<!-- Node40 -->
<g id="node4" class="node">
<title>Node40</title>
<g id="a_node4"><a xlink:href="config_8h.html#a37df9fe8af1e1583876040747eeee030" target="_top" xlink:title="Initialises global constants and reads the specified configuration file. ">
<polygon fill="none" stroke="#000000" points="323.5,-57.5 323.5,-76.5 384.5,-76.5 384.5,-57.5 323.5,-57.5"/>
<text text-anchor="middle" x="354" y="-64.5" font-family="Helvetica,sans-Serif" font-size="10.00" fill="#000000">config_init</text>
</a>
</g>
</g>
<!-- Node39&#45;&gt;Node40 -->
<g id="edge3" class="edge">
<title>Node39&#45;&gt;Node40</title>
<path fill="none" stroke="#191970" d="M280.5439,-67C294.9619,-67 310.3204,-67 323.2462,-67"/>
<polygon fill="#191970" stroke="#191970" points="280.2598,-63.5001 270.2598,-67 280.2597,-70.5001 280.2598,-63.5001"/>
</g>
<!-- Node44 -->
<g id="node8" class="node">
<title>Node44</title>
<g id="a_node8"><a xlink:href="structXCS.html#af56f8d608830e61565b7472d45758463" target="_top" xlink:title="XCS::set_loss_func">
<polygon fill="none" stroke="#000000" points="438,-114.5 438,-133.5 542,-133.5 542,-114.5 438,-114.5"/>
<text text-anchor="middle" x="490" y="-121.5" font-family="Helvetica,sans-Serif" font-size="10.00" fill="#000000">XCS::set_loss_func</text>
</a>
</g>
</g>
<!-- Node39&#45;&gt;Node44 -->
<g id="edge7" class="edge">
<title>Node39&#45;&gt;Node44</title>
<path fill="none" stroke="#191970" d="M277.1253,-78.9899C286.6473,-81.3927 296.6363,-83.8403 306,-86 351.4512,-96.4833 403.5379,-107.1118 440.6649,-114.4522"/>
<polygon fill="#191970" stroke="#191970" points="277.9717,-75.5938 267.4171,-76.5161 276.2432,-82.377 277.9717,-75.5938"/>
</g>
<!-- Node46 -->
<g id="node10" class="node">
<title>Node46</title>
<g id="a_node10"><a xlink:href="xcsf_8c.html#a842f021b7221803c5fabca534a4b02c0" target="_top" xlink:title="Reads the XCSF data structure from a binary file. ">
<polygon fill="none" stroke="#000000" points="306,-.5 306,-19.5 402,-19.5 402,-.5 306,-.5"/>
<text text-anchor="middle" x="354" y="-7.5" font-family="Helvetica,sans-Serif" font-size="10.00" fill="#000000">xcsf_load_params</text>
</a>
</g>
</g>
<!-- Node39&#45;&gt;Node46 -->
<g id="edge9" class="edge">
<title>Node39&#45;&gt;Node46</title>
<path fill="none" stroke="#191970" d="M261.3665,-53.1029C283.7176,-42.7028 313.7082,-28.748 333.4294,-19.5716"/>
<polygon fill="#191970" stroke="#191970" points="259.5937,-50.0674 252.0037,-57.4595 262.5469,-56.414 259.5937,-50.0674"/>
</g>
<!-- Node41 -->
<g id="node5" class="node">
<title>Node41</title>
<g id="a_node5"><a xlink:href="main_8c.html#a3c04138a5bfe5d72780bb7e82a18e627" target="_top" xlink:title="main">
<polygon fill="none" stroke="#000000" points="591.5,-38.5 591.5,-57.5 629.5,-57.5 629.5,-38.5 591.5,-38.5"/>
<text text-anchor="middle" x="610.5" y="-45.5" font-family="Helvetica,sans-Serif" font-size="10.00" fill="#000000">main</text>
</a>
</g>
</g>
<!-- Node40&#45;&gt;Node41 -->
<g id="edge4" class="edge">
<title>Node40&#45;&gt;Node41</title>
<path fill="none" stroke="#191970" d="M395.0031,-63.9627C451.2505,-59.7963 550.0702,-52.4763 591.4406,-49.4118"/>
<polygon fill="#191970" stroke="#191970" points="394.3992,-60.4978 384.6851,-64.727 394.9164,-67.4787 394.3992,-60.4978"/>
</g>
<!-- Node42 -->
<g id="node6" class="node">
<title>Node42</title>
<g id="a_node6"><a xlink:href="structXCS.html#ad372bae45743be0fbf7d95b67e13b390" target="_top" xlink:title="Initialises python XCS structure. ">
<polygon fill="none" stroke="#000000" points="451.5,-76.5 451.5,-95.5 528.5,-95.5 528.5,-76.5 451.5,-76.5"/>
<text text-anchor="middle" x="490" y="-83.5" font-family="Helvetica,sans-Serif" font-size="10.00" fill="#000000">XCS::xcs_init</text>
</a>
</g>
</g>
<!-- Node40&#45;&gt;Node42 -->
<g id="edge5" class="edge">
<title>Node40&#45;&gt;Node42</title>
<path fill="none" stroke="#191970" d="M394.4302,-72.6483C412.4197,-75.1616 433.5083,-78.1078 451.2923,-80.5923"/>
<polygon fill="#191970" stroke="#191970" points="394.9092,-69.1813 384.5211,-71.264 393.9406,-76.114 394.9092,-69.1813"/>
</g>
<!-- Node43 -->
<g id="node7" class="node">
<title>Node43</title>
<g id="a_node7"><a xlink:href="structXCS.html#a0dd359a4dfc0a6439a5c6554768c8b9f" target="_top" xlink:title="Constructor for single&#45;step reinforcement learning. ">
<polygon fill="none" stroke="#000000" points="578,-76.5 578,-95.5 643,-95.5 643,-76.5 578,-76.5"/>
<text text-anchor="middle" x="610.5" y="-83.5" font-family="Helvetica,sans-Serif" font-size="10.00" fill="#000000">XCS::XCS</text>
</a>
</g>
</g>
<!-- Node42&#45;&gt;Node43 -->
<g id="edge6" class="edge">
<title>Node42&#45;&gt;Node43</title>
<path fill="none" stroke="#191970" d="M539.0581,-86C552.1168,-86 565.9026,-86 577.8438,-86"/>
<polygon fill="#191970" stroke="#191970" points="538.7903,-82.5001 528.7902,-86 538.7902,-89.5001 538.7903,-82.5001"/>
</g>
<!-- Node45 -->
<g id="node9" class="node">
<title>Node45</title>
<g id="a_node9"><a xlink:href="python__wrapper_8cpp.html#afbdcc1358036a0b83a6b239da2b098a2" target="_top" xlink:title="BOOST_PYTHON_MODULE">
<polygon fill="none" stroke="#000000" points="679,-57.5 679,-76.5 825,-76.5 825,-57.5 679,-57.5"/>
<text text-anchor="middle" x="752" y="-64.5" font-family="Helvetica,sans-Serif" font-size="10.00" fill="#000000">BOOST_PYTHON_MODULE</text>
</a>
</g>
</g>
<!-- Node44&#45;&gt;Node45 -->
<g id="edge8" class="edge">
<title>Node44&#45;&gt;Node45</title>
<path fill="none" stroke="#191970" d="M552.234,-119.287C580.2205,-116.3977 613.5184,-111.8874 643,-105 673.4437,-97.8879 707.2599,-85.3328 729.0336,-76.6094"/>
<polygon fill="#191970" stroke="#191970" points="551.7881,-115.8139 542.1804,-120.2795 552.4759,-122.7801 551.7881,-115.8139"/>
</g>
<!-- Node47 -->
<g id="node11" class="node">
<title>Node47</title>
<g id="a_node11"><a xlink:href="xcsf_8h.html#af419720749752a7b5596f9def871a71c" target="_top" xlink:title="Reads the state of XCSF from a binary file. ">
<polygon fill="none" stroke="#000000" points="460.5,-.5 460.5,-19.5 519.5,-19.5 519.5,-.5 460.5,-.5"/>
<text text-anchor="middle" x="490" y="-7.5" font-family="Helvetica,sans-Serif" font-size="10.00" fill="#000000">xcsf_load</text>
</a>
</g>
</g>
<!-- Node46&#45;&gt;Node47 -->
<g id="edge10" class="edge">
<title>Node46&#45;&gt;Node47</title>
<path fill="none" stroke="#191970" d="M412.5016,-10C429.0523,-10 446.3687,-10 460.4245,-10"/>
<polygon fill="#191970" stroke="#191970" points="412.3315,-6.5001 402.3314,-10 412.3314,-13.5001 412.3315,-6.5001"/>
</g>
<!-- Node47&#45;&gt;Node41 -->
<g id="edge11" class="edge">
<title>Node47&#45;&gt;Node41</title>
<path fill="none" stroke="#191970" d="M529.5931,-22.4858C550.277,-29.0085 574.6563,-36.6966 591.2064,-41.9157"/>
<polygon fill="#191970" stroke="#191970" points="530.3762,-19.0629 519.7865,-19.3933 528.2709,-25.7388 530.3762,-19.0629"/>
</g>
<!-- Node48 -->
<g id="node12" class="node">
<title>Node48</title>
<g id="a_node12"><a xlink:href="structXCS.html#adc9b621f2b7a306fbf381dd0efaf268b" target="_top" xlink:title="XCS::load">
<polygon fill="none" stroke="#000000" points="579.5,-.5 579.5,-19.5 641.5,-19.5 641.5,-.5 579.5,-.5"/>
<text text-anchor="middle" x="610.5" y="-7.5" font-family="Helvetica,sans-Serif" font-size="10.00" fill="#000000">XCS::load</text>
</a>
</g>
</g>
<!-- Node47&#45;&gt;Node48 -->
<g id="edge12" class="edge">
<title>Node47&#45;&gt;Node48</title>
<path fill="none" stroke="#191970" d="M529.9814,-10C546.0586,-10 564.3154,-10 579.3752,-10"/>
<polygon fill="#191970" stroke="#191970" points="529.7866,-6.5001 519.7865,-10 529.7865,-13.5001 529.7866,-6.5001"/>
</g>
<!-- Node48&#45;&gt;Node45 -->
<g id="edge13" class="edge">
<title>Node48&#45;&gt;Node45</title>
<path fill="none" stroke="#191970" d="M643.6182,-23.3409C669.5701,-33.795 705.0503,-48.0874 728.2388,-57.4284"/>
<polygon fill="#191970" stroke="#191970" points="644.7674,-20.0306 634.1839,-19.5405 642.1518,-26.5236 644.7674,-20.0306"/>
</g>
</g>
</svg>
