<?xml version="1.0" encoding="UTF-8" standalone="no"?>
<!DOCTYPE svg PUBLIC "-//W3C//DTD SVG 1.1//EN"
 "http://www.w3.org/Graphics/SVG/1.1/DTD/svg11.dtd">
<!-- Generated by graphviz version 2.40.1 (20161225.0304)
 -->
<!-- Title: loss_log Pages: 1 -->
<svg width="726pt" height="123pt"
 viewBox="0.00 0.00 726.00 123.00" xmlns="http://www.w3.org/2000/svg" xmlns:xlink="http://www.w3.org/1999/xlink">
<g id="graph0" class="graph" transform="scale(1 1) rotate(0) translate(4 119)">
<title>loss_log</title>
<!-- Node12 -->
<g id="node1" class="node">
<title>Node12</title>
<polygon fill="#bfbfbf" stroke="#000000" points="0,-38.5 0,-57.5 53,-57.5 53,-38.5 0,-38.5"/>
<text text-anchor="middle" x="26.5" y="-45.5" font-family="Helvetica,sans-Serif" font-size="10.00" fill="#000000">loss_log</text>
</g>
<!-- Node13 -->
<g id="node2" class="node">
<title>Node13</title>
<g id="a_node2"><a xlink:href="loss_8h.html#a1accbbfc21d6eefe2d2cb676497953f6" target="_top" xlink:title="Sets the XCSF error function to the implemented function. ">
<polygon fill="none" stroke="#000000" points="89,-38.5 89,-57.5 166,-57.5 166,-38.5 89,-38.5"/>
<text text-anchor="middle" x="127.5" y="-45.5" font-family="Helvetica,sans-Serif" font-size="10.00" fill="#000000">loss_set_func</text>
</a>
</g>
</g>
<!-- Node12&#45;&gt;Node13 -->
<g id="edge1" class="edge">
<title>Node12&#45;&gt;Node13</title>
<path fill="none" stroke="#191970" d="M63.267,-48C71.6341,-48 80.5454,-48 88.9831,-48"/>
<polygon fill="#191970" stroke="#191970" points="63.0366,-44.5001 53.0366,-48 63.0365,-51.5001 63.0366,-44.5001"/>
</g>
<!-- Node14 -->
<g id="node3" class="node">
<title>Node14</title>
<g id="a_node3"><a xlink:href="config_8h.html#a37df9fe8af1e1583876040747eeee030" target="_top" xlink:title="Initialises global constants and reads the specified configuration file. ">
<polygon fill="none" stroke="#000000" points="219.5,-76.5 219.5,-95.5 280.5,-95.5 280.5,-76.5 219.5,-76.5"/>
<text text-anchor="middle" x="250" y="-83.5" font-family="Helvetica,sans-Serif" font-size="10.00" fill="#000000">config_init</text>
</a>
</g>
</g>
<!-- Node13&#45;&gt;Node14 -->
<g id="edge2" class="edge">
<title>Node13&#45;&gt;Node14</title>
<path fill="none" stroke="#191970" d="M168.3777,-60.6804C184.9294,-65.8148 203.7211,-71.6441 219.098,-76.4141"/>
<polygon fill="#191970" stroke="#191970" points="168.9999,-57.209 158.4119,-57.589 166.926,-63.8947 168.9999,-57.209"/>
</g>
<!-- Node17 -->
<g id="node6" class="node">
<title>Node17</title>
<g id="a_node6"><a xlink:href="structXCS.html#af56f8d608830e61565b7472d45758463" target="_top" xlink:title="XCS::set_loss_func">
<polygon fill="none" stroke="#000000" points="334,-.5 334,-19.5 438,-19.5 438,-.5 334,-.5"/>
<text text-anchor="middle" x="386" y="-7.5" font-family="Helvetica,sans-Serif" font-size="10.00" fill="#000000">XCS::set_loss_func</text>
</a>
</g>
</g>
<!-- Node13&#45;&gt;Node17 -->
<g id="edge5" class="edge">
<title>Node13&#45;&gt;Node17</title>
<path fill="none" stroke="#191970" d="M170.5996,-35.8652C180.8298,-33.3032 191.7499,-30.8261 202,-29 246.105,-21.1426 296.7794,-16.2066 333.767,-13.3414"/>
<polygon fill="#191970" stroke="#191970" points="169.4569,-32.5454 160.6496,-38.4345 171.2071,-39.3231 169.4569,-32.5454"/>
</g>
<!-- Node19 -->
<g id="node8" class="node">
<title>Node19</title>
<g id="a_node8"><a xlink:href="xcsf_8c.html#a842f021b7221803c5fabca534a4b02c0" target="_top" xlink:title="Reads the XCSF data structure from a binary file. ">
<polygon fill="none" stroke="#000000" points="202,-38.5 202,-57.5 298,-57.5 298,-38.5 202,-38.5"/>
<text text-anchor="middle" x="250" y="-45.5" font-family="Helvetica,sans-Serif" font-size="10.00" fill="#000000">xcsf_load_params</text>
</a>
</g>
</g>
<!-- Node13&#45;&gt;Node19 -->
<g id="edge7" class="edge">
<title>Node13&#45;&gt;Node19</title>
<path fill="none" stroke="#191970" d="M176.5094,-48C184.7697,-48 193.3397,-48 201.5848,-48"/>
<polygon fill="#191970" stroke="#191970" points="176.2598,-44.5001 166.2598,-48 176.2597,-51.5001 176.2598,-44.5001"/>
</g>
<!-- Node15 -->
<g id="node4" class="node">
<title>Node15</title>
<g id="a_node4"><a xlink:href="main_8c.html#a3c04138a5bfe5d72780bb7e82a18e627" target="_top" xlink:title="main">
<polygon fill="none" stroke="#000000" points="486,-95.5 486,-114.5 524,-114.5 524,-95.5 486,-95.5"/>
<text text-anchor="middle" x="505" y="-102.5" font-family="Helvetica,sans-Serif" font-size="10.00" fill="#000000">main</text>
</a>
</g>
</g>
<!-- Node14&#45;&gt;Node15 -->
<g id="edge3" class="edge">
<title>Node14&#45;&gt;Node15</title>
<path fill="none" stroke="#191970" d="M290.8652,-97.1589C304.4764,-100.3606 319.7907,-103.413 334,-105 388.8776,-111.129 454.2809,-108.3518 485.9452,-106.3748"/>
<polygon fill="#191970" stroke="#191970" points="291.3805,-93.6818 280.835,-94.7033 289.7158,-100.481 291.3805,-93.6818"/>
</g>
<!-- Node16 -->
<g id="node5" class="node">
<title>Node16</title>
<g id="a_node5"><a xlink:href="structXCS.html#a0dd359a4dfc0a6439a5c6554768c8b9f" target="_top" xlink:title="Constructor for single&#45;step reinforcement learning. ">
<polygon fill="none" stroke="#000000" points="353.5,-76.5 353.5,-95.5 418.5,-95.5 418.5,-76.5 353.5,-76.5"/>
<text text-anchor="middle" x="386" y="-83.5" font-family="Helvetica,sans-Serif" font-size="10.00" fill="#000000">XCS::XCS</text>
</a>
</g>
</g>
<!-- Node14&#45;&gt;Node16 -->
<g id="edge4" class="edge">
<title>Node14&#45;&gt;Node16</title>
<path fill="none" stroke="#191970" d="M290.5857,-86C310.5832,-86 334.3798,-86 353.2055,-86"/>
<polygon fill="#191970" stroke="#191970" points="290.5211,-82.5001 280.5211,-86 290.521,-89.5001 290.5211,-82.5001"/>
</g>
<!-- Node18 -->
<g id="node7" class="node">
<title>Node18</title>
<g id="a_node7"><a xlink:href="python__wrapper_8cpp.html#afbdcc1358036a0b83a6b239da2b098a2" target="_top" xlink:title="BOOST_PYTHON_MODULE">
<polygon fill="none" stroke="#000000" points="572,-19.5 572,-38.5 718,-38.5 718,-19.5 572,-19.5"/>
<text text-anchor="middle" x="645" y="-26.5" font-family="Helvetica,sans-Serif" font-size="10.00" fill="#000000">BOOST_PYTHON_MODULE</text>
</a>
</g>
</g>
<!-- Node17&#45;&gt;Node18 -->
<g id="edge6" class="edge">
<title>Node17&#45;&gt;Node18</title>
<path fill="none" stroke="#191970" d="M448.3051,-14.5706C485.5002,-17.2992 532.9247,-20.7783 571.887,-23.6365"/>
<polygon fill="#191970" stroke="#191970" points="448.3303,-11.0632 438.101,-13.8221 447.8181,-18.0444 448.3303,-11.0632"/>
</g>
<!-- Node20 -->
<g id="node9" class="node">
<title>Node20</title>
<g id="a_node9"><a xlink:href="xcsf_8h.html#a70e6ae30c7d4e471009c4611255ed873" target="_top" xlink:title="Reads the state of XCSF from a binary file. ">
<polygon fill="none" stroke="#000000" points="356.5,-38.5 356.5,-57.5 415.5,-57.5 415.5,-38.5 356.5,-38.5"/>
<text text-anchor="middle" x="386" y="-45.5" font-family="Helvetica,sans-Serif" font-size="10.00" fill="#000000">xcsf_load</text>
</a>
</g>
</g>
<!-- Node19&#45;&gt;Node20 -->
<g id="edge8" class="edge">
<title>Node19&#45;&gt;Node20</title>
<path fill="none" stroke="#191970" d="M308.5016,-48C325.0523,-48 342.3687,-48 356.4245,-48"/>
<polygon fill="#191970" stroke="#191970" points="308.3315,-44.5001 298.3314,-48 308.3314,-51.5001 308.3315,-44.5001"/>
</g>
<!-- Node20&#45;&gt;Node15 -->
<g id="edge9" class="edge">
<title>Node20&#45;&gt;Node15</title>
<path fill="none" stroke="#191970" d="M424.2198,-61.1389C428.9092,-62.9925 433.5971,-64.9641 438,-67 456.328,-75.4749 476.345,-87.1729 489.682,-95.3431"/>
<polygon fill="#191970" stroke="#191970" points="425.274,-57.7954 414.6828,-57.5173 422.7889,-64.3395 425.274,-57.7954"/>
</g>
<!-- Node21 -->
<g id="node10" class="node">
<title>Node21</title>
<g id="a_node10"><a xlink:href="structXCS.html#adc9b621f2b7a306fbf381dd0efaf268b" target="_top" xlink:title="XCS::load">
<polygon fill="none" stroke="#000000" points="474,-38.5 474,-57.5 536,-57.5 536,-38.5 474,-38.5"/>
<text text-anchor="middle" x="505" y="-45.5" font-family="Helvetica,sans-Serif" font-size="10.00" fill="#000000">XCS::load</text>
</a>
</g>
</g>
<!-- Node20&#45;&gt;Node21 -->
<g id="edge10" class="edge">
<title>Node20&#45;&gt;Node21</title>
<path fill="none" stroke="#191970" d="M426.1541,-48C441.7722,-48 459.3858,-48 473.9975,-48"/>
<polygon fill="#191970" stroke="#191970" points="425.7218,-44.5001 415.7218,-48 425.7217,-51.5001 425.7218,-44.5001"/>
</g>
<!-- Node21&#45;&gt;Node18 -->
<g id="edge11" class="edge">
<title>Node21&#45;&gt;Node18</title>
<path fill="none" stroke="#191970" d="M546.234,-42.404C555.231,-41.1829 564.9955,-39.8578 574.7661,-38.5317"/>
<polygon fill="#191970" stroke="#191970" points="545.509,-38.9702 536.0705,-43.7833 546.4504,-45.9066 545.509,-38.9702"/>
</g>
</g>
</svg>
