<?xml version="1.0" encoding="UTF-8" standalone="no"?>
<!DOCTYPE svg PUBLIC "-//W3C//DTD SVG 1.1//EN"
 "http://www.w3.org/Graphics/SVG/1.1/DTD/svg11.dtd">
<!-- Generated by graphviz version 2.40.1 (20161225.0304)
 -->
<!-- Title: neural_activations.c Pages: 1 -->
<svg width="304pt" height="140pt"
 viewBox="0.00 0.00 304.00 140.00" xmlns="http://www.w3.org/2000/svg" xmlns:xlink="http://www.w3.org/1999/xlink">
<g id="graph0" class="graph" transform="scale(1 1) rotate(0) translate(4 136)">
<title>neural_activations.c</title>
<!-- Node0 -->
<g id="node1" class="node">
<title>Node0</title>
<polygon fill="#bfbfbf" stroke="#000000" points="68,-112.5 68,-131.5 172,-131.5 172,-112.5 68,-112.5"/>
<text text-anchor="middle" x="120" y="-119.5" font-family="Helvetica,sans-Serif" font-size="10.00" fill="#000000">neural_activations.c</text>
</g>
<!-- Node1 -->
<g id="node2" class="node">
<title>Node1</title>
<polygon fill="none" stroke="#bfbfbf" points="0,-56.5 0,-75.5 48,-75.5 48,-56.5 0,-56.5"/>
<text text-anchor="middle" x="24" y="-63.5" font-family="Helvetica,sans-Serif" font-size="10.00" fill="#000000">stdlib.h</text>
</g>
<!-- Node0&#45;&gt;Node1 -->
<g id="edge1" class="edge">
<title>Node0&#45;&gt;Node1</title>
<path fill="none" stroke="#191970" d="M103.2781,-112.2455C88.4111,-103.5731 66.4534,-90.7645 49.4142,-80.825"/>
<polygon fill="#191970" stroke="#191970" points="50.9317,-77.6582 40.5303,-75.6427 47.4045,-83.7047 50.9317,-77.6582"/>
</g>
<!-- Node2 -->
<g id="node3" class="node">
<title>Node2</title>
<polygon fill="none" stroke="#bfbfbf" points="66,-56.5 66,-75.5 112,-75.5 112,-56.5 66,-56.5"/>
<text text-anchor="middle" x="89" y="-63.5" font-family="Helvetica,sans-Serif" font-size="10.00" fill="#000000">stdio.h</text>
</g>
<!-- Node0&#45;&gt;Node2 -->
<g id="edge2" class="edge">
<title>Node0&#45;&gt;Node2</title>
<path fill="none" stroke="#191970" d="M114.6002,-112.2455C110.3773,-104.617 104.3827,-93.7881 99.2559,-84.5267"/>
<polygon fill="#191970" stroke="#191970" points="102.2432,-82.6965 94.3379,-75.6427 96.119,-86.0867 102.2432,-82.6965"/>
</g>
<!-- Node3 -->
<g id="node4" class="node">
<title>Node3</title>
<g id="a_node4"><a xlink:href="utils_8h.html" target="_top" xlink:title="Utility functions for random number handling, etc. ">
<polygon fill="none" stroke="#000000" points="130.5,-56.5 130.5,-75.5 173.5,-75.5 173.5,-56.5 130.5,-56.5"/>
<text text-anchor="middle" x="152" y="-63.5" font-family="Helvetica,sans-Serif" font-size="10.00" fill="#000000">utils.h</text>
</a>
</g>
</g>
<!-- Node0&#45;&gt;Node3 -->
<g id="edge3" class="edge">
<title>Node0&#45;&gt;Node3</title>
<path fill="none" stroke="#191970" d="M125.574,-112.2455C129.9331,-104.617 136.1211,-93.7881 141.4133,-84.5267"/>
<polygon fill="#191970" stroke="#191970" points="144.5673,-86.0616 146.4899,-75.6427 138.4896,-82.5886 144.5673,-86.0616"/>
</g>
<!-- Node4 -->
<g id="node5" class="node">
<title>Node4</title>
<g id="a_node5"><a xlink:href="neural__activations_8h.html" target="_top" xlink:title="Neural network activation functions. ">
<polygon fill="none" stroke="#000000" points="192,-56.5 192,-75.5 296,-75.5 296,-56.5 192,-56.5"/>
<text text-anchor="middle" x="244" y="-63.5" font-family="Helvetica,sans-Serif" font-size="10.00" fill="#000000">neural_activations.h</text>
</a>
</g>
</g>
<!-- Node0&#45;&gt;Node4 -->
<g id="edge4" class="edge">
<title>Node0&#45;&gt;Node4</title>
<path fill="none" stroke="#191970" d="M141.3164,-112.3733C161.2216,-103.3838 191.1436,-89.8706 213.56,-79.7471"/>
<polygon fill="#191970" stroke="#191970" points="215.2887,-82.8068 222.9618,-75.5011 212.4075,-76.4272 215.2887,-82.8068"/>
</g>
<!-- Node5 -->
<g id="node6" class="node">
<title>Node5</title>
<polygon fill="none" stroke="#bfbfbf" points="220.5,-.5 220.5,-19.5 267.5,-19.5 267.5,-.5 220.5,-.5"/>
<text text-anchor="middle" x="244" y="-7.5" font-family="Helvetica,sans-Serif" font-size="10.00" fill="#000000">math.h</text>
</g>
<!-- Node4&#45;&gt;Node5 -->
<g id="edge5" class="edge">
<title>Node4&#45;&gt;Node5</title>
<path fill="none" stroke="#191970" d="M244,-56.2455C244,-48.9382 244,-38.6944 244,-29.7046"/>
<polygon fill="#191970" stroke="#191970" points="247.5001,-29.6426 244,-19.6427 240.5001,-29.6427 247.5001,-29.6426"/>
</g>
</g>
</svg>
