<?xml version="1.0" encoding="UTF-8" standalone="no"?>
<!DOCTYPE svg PUBLIC "-//W3C//DTD SVG 1.1//EN"
 "http://www.w3.org/Graphics/SVG/1.1/DTD/svg11.dtd">
<!-- Generated by graphviz version 2.40.1 (20161225.0304)
 -->
<!-- Title: /home/unknown/work/current/xcsf/xcsf/neural.c Pages: 1 -->
<svg width="1313pt" height="151pt"
 viewBox="0.00 0.00 1313.00 151.00" xmlns="http://www.w3.org/2000/svg" xmlns:xlink="http://www.w3.org/1999/xlink">
<g id="graph0" class="graph" transform="scale(1 1) rotate(0) translate(4 147)">
<title>/home/unknown/work/current/xcsf/xcsf/neural.c</title>
<!-- Node0 -->
<g id="node1" class="node">
<title>Node0</title>
<polygon fill="#bfbfbf" stroke="#000000" points="390.5,-112.5 390.5,-142.5 521.5,-142.5 521.5,-112.5 390.5,-112.5"/>
<text text-anchor="start" x="398.5" y="-130.5" font-family="Helvetica,sans-Serif" font-size="10.00" fill="#000000">/home/unknown/work</text>
<text text-anchor="middle" x="456" y="-119.5" font-family="Helvetica,sans-Serif" font-size="10.00" fill="#000000">/current/xcsf/xcsf/neural.c</text>
</g>
<!-- Node1 -->
<g id="node2" class="node">
<title>Node1</title>
<polygon fill="none" stroke="#bfbfbf" points="0,-56.5 0,-75.5 48,-75.5 48,-56.5 0,-56.5"/>
<text text-anchor="middle" x="24" y="-63.5" font-family="Helvetica,sans-Serif" font-size="10.00" fill="#000000">stdlib.h</text>
</g>
<!-- Node0&#45;&gt;Node1 -->
<g id="edge1" class="edge">
<title>Node0&#45;&gt;Node1</title>
<path fill="none" stroke="#191970" d="M390.4733,-122.4001C313.0497,-115.6254 180.3257,-101.6642 57.9483,-75.904"/>
<polygon fill="#191970" stroke="#191970" points="58.5406,-72.4516 48.03,-73.7851 57.0781,-79.2972 58.5406,-72.4516"/>
</g>
<!-- Node2 -->
<g id="node3" class="node">
<title>Node2</title>
<polygon fill="none" stroke="#bfbfbf" points="66,-56.5 66,-75.5 112,-75.5 112,-56.5 66,-56.5"/>
<text text-anchor="middle" x="89" y="-63.5" font-family="Helvetica,sans-Serif" font-size="10.00" fill="#000000">stdio.h</text>
</g>
<!-- Node0&#45;&gt;Node2 -->
<g id="edge2" class="edge">
<title>Node0&#45;&gt;Node2</title>
<path fill="none" stroke="#191970" d="M390.2852,-120.3605C324.5253,-112.5487 220.4114,-98.3712 122.1069,-75.9914"/>
<polygon fill="#191970" stroke="#191970" points="122.8384,-72.5683 112.3073,-73.7284 121.2633,-79.3888 122.8384,-72.5683"/>
</g>
<!-- Node3 -->
<g id="node4" class="node">
<title>Node3</title>
<polygon fill="none" stroke="#bfbfbf" points="130.5,-56.5 130.5,-75.5 179.5,-75.5 179.5,-56.5 130.5,-56.5"/>
<text text-anchor="middle" x="155" y="-63.5" font-family="Helvetica,sans-Serif" font-size="10.00" fill="#000000">string.h</text>
</g>
<!-- Node0&#45;&gt;Node3 -->
<g id="edge3" class="edge">
<title>Node0&#45;&gt;Node3</title>
<path fill="none" stroke="#191970" d="M390.3347,-116.6372C338.3885,-107.6315 263.8614,-93.7999 189.7817,-76.0135"/>
<polygon fill="#191970" stroke="#191970" points="190.3517,-72.5503 179.8084,-73.594 188.7013,-79.353 190.3517,-72.5503"/>
</g>
<!-- Node4 -->
<g id="node5" class="node">
<title>Node4</title>
<polygon fill="none" stroke="#bfbfbf" points="198,-56.5 198,-75.5 254,-75.5 254,-56.5 198,-56.5"/>
<text text-anchor="middle" x="226" y="-63.5" font-family="Helvetica,sans-Serif" font-size="10.00" fill="#000000">stdbool.h</text>
</g>
<!-- Node0&#45;&gt;Node4 -->
<g id="edge4" class="edge">
<title>Node0&#45;&gt;Node4</title>
<path fill="none" stroke="#191970" d="M399.7357,-112.4554C357.5538,-101.1763 300.96,-86.0437 263.9986,-76.1605"/>
<polygon fill="#191970" stroke="#191970" points="264.6872,-72.7217 254.1225,-73.5197 262.879,-79.4842 264.6872,-72.7217"/>
</g>
<!-- Node5 -->
<g id="node6" class="node">
<title>Node5</title>
<polygon fill="none" stroke="#bfbfbf" points="391.5,-.5 391.5,-19.5 438.5,-19.5 438.5,-.5 391.5,-.5"/>
<text text-anchor="middle" x="415" y="-7.5" font-family="Helvetica,sans-Serif" font-size="10.00" fill="#000000">math.h</text>
</g>
<!-- Node0&#45;&gt;Node5 -->
<g id="edge5" class="edge">
<title>Node0&#45;&gt;Node5</title>
<path fill="none" stroke="#191970" d="M390.2596,-113.7441C353.1278,-104.4953 311.9917,-91.2347 301,-76 277.5009,-43.43 339.8914,-24.4866 381.389,-15.8015"/>
<polygon fill="#191970" stroke="#191970" points="382.2954,-19.19 391.4241,-13.8124 380.9344,-12.3236 382.2954,-19.19"/>
</g>
<!-- Node6 -->
<g id="node7" class="node">
<title>Node6</title>
<polygon fill="none" stroke="#bfbfbf" points="310,-56.5 310,-75.5 354,-75.5 354,-56.5 310,-56.5"/>
<text text-anchor="middle" x="332" y="-63.5" font-family="Helvetica,sans-Serif" font-size="10.00" fill="#000000">float.h</text>
</g>
<!-- Node0&#45;&gt;Node6 -->
<g id="edge6" class="edge">
<title>Node0&#45;&gt;Node6</title>
<path fill="none" stroke="#191970" d="M425.6662,-112.4554C405.7024,-102.554 379.751,-89.683 360.2285,-80.0004"/>
<polygon fill="#191970" stroke="#191970" points="361.7294,-76.838 351.2156,-75.5303 358.6191,-83.1091 361.7294,-76.838"/>
</g>
<!-- Node7 -->
<g id="node8" class="node">
<title>Node7</title>
<g id="a_node8"><a xlink:href="xcsf_8h.html" target="_top" xlink:title="XCSF data structures. ">
<polygon fill="none" stroke="#000000" points="372,-56.5 372,-75.5 416,-75.5 416,-56.5 372,-56.5"/>
<text text-anchor="middle" x="394" y="-63.5" font-family="Helvetica,sans-Serif" font-size="10.00" fill="#000000">xcsf.h</text>
</a>
</g>
</g>
<!-- Node0&#45;&gt;Node7 -->
<g id="edge7" class="edge">
<title>Node0&#45;&gt;Node7</title>
<path fill="none" stroke="#191970" d="M440.6742,-112.2977C431.7093,-103.4052 420.3712,-92.1586 411.1149,-82.9769"/>
<polygon fill="#191970" stroke="#191970" points="413.4915,-80.4045 403.927,-75.8469 408.5618,-85.3742 413.4915,-80.4045"/>
</g>
<!-- Node8 -->
<g id="node9" class="node">
<title>Node8</title>
<g id="a_node9"><a xlink:href="utils_8h.html" target="_top" xlink:title="Utility functions for random number handling, etc. ">
<polygon fill="none" stroke="#000000" points="434.5,-56.5 434.5,-75.5 477.5,-75.5 477.5,-56.5 434.5,-56.5"/>
<text text-anchor="middle" x="456" y="-63.5" font-family="Helvetica,sans-Serif" font-size="10.00" fill="#000000">utils.h</text>
</a>
</g>
</g>
<!-- Node0&#45;&gt;Node8 -->
<g id="edge8" class="edge">
<title>Node0&#45;&gt;Node8</title>
<path fill="none" stroke="#191970" d="M456,-112.2977C456,-104.3834 456,-94.6043 456,-86.0759"/>
<polygon fill="#191970" stroke="#191970" points="459.5001,-85.8469 456,-75.8469 452.5001,-85.847 459.5001,-85.8469"/>
</g>
<!-- Node9 -->
<g id="node10" class="node">
<title>Node9</title>
<g id="a_node10"><a xlink:href="neural__activations_8h.html" target="_top" xlink:title="Neural network activation functions. ">
<polygon fill="none" stroke="#000000" points="496,-56.5 496,-75.5 600,-75.5 600,-56.5 496,-56.5"/>
<text text-anchor="middle" x="548" y="-63.5" font-family="Helvetica,sans-Serif" font-size="10.00" fill="#000000">neural_activations.h</text>
</a>
</g>
</g>
<!-- Node0&#45;&gt;Node9 -->
<g id="edge9" class="edge">
<title>Node0&#45;&gt;Node9</title>
<path fill="none" stroke="#191970" d="M478.7416,-112.2977C492.7967,-102.9022 510.783,-90.8787 524.9036,-81.4395"/>
<polygon fill="#191970" stroke="#191970" points="527.1759,-84.1305 533.5444,-75.6633 523.2857,-78.311 527.1759,-84.1305"/>
</g>
<!-- Node10 -->
<g id="node11" class="node">
<title>Node10</title>
<g id="a_node11"><a xlink:href="neural_8h.html" target="_top" xlink:title="An implementation of a multi&#45;layer perceptron neural network. ">
<polygon fill="none" stroke="#000000" points="618.5,-56.5 618.5,-75.5 669.5,-75.5 669.5,-56.5 618.5,-56.5"/>
<text text-anchor="middle" x="644" y="-63.5" font-family="Helvetica,sans-Serif" font-size="10.00" fill="#000000">neural.h</text>
</a>
</g>
</g>
<!-- Node0&#45;&gt;Node10 -->
<g id="edge11" class="edge">
<title>Node0&#45;&gt;Node10</title>
<path fill="none" stroke="#191970" d="M501.99,-112.4554C534.9031,-101.6886 578.5505,-87.4104 608.7269,-77.5388"/>
<polygon fill="#191970" stroke="#191970" points="609.9931,-80.8072 618.4092,-74.3714 607.8166,-74.1541 609.9931,-80.8072"/>
</g>
<!-- Node11 -->
<g id="node12" class="node">
<title>Node11</title>
<g id="a_node12"><a xlink:href="neural__layer_8h.html" target="_top" xlink:title="Interface for neural network layers. ">
<polygon fill="none" stroke="#000000" points="687.5,-56.5 687.5,-75.5 764.5,-75.5 764.5,-56.5 687.5,-56.5"/>
<text text-anchor="middle" x="726" y="-63.5" font-family="Helvetica,sans-Serif" font-size="10.00" fill="#000000">neural_layer.h</text>
</a>
</g>
</g>
<!-- Node0&#45;&gt;Node11 -->
<g id="edge12" class="edge">
<title>Node0&#45;&gt;Node11</title>
<path fill="none" stroke="#191970" d="M521.7042,-112.534C569.7827,-101.5828 633.9491,-86.9672 677.4477,-77.0591"/>
<polygon fill="#191970" stroke="#191970" points="678.2461,-80.467 687.2191,-74.8334 676.6915,-73.6418 678.2461,-80.467"/>
</g>
<!-- Node13 -->
<g id="node14" class="node">
<title>Node13</title>
<g id="a_node14"><a xlink:href="neural__layer__connected_8h.html" target="_top" xlink:title="An implementation of a fully&#45;connected layer of perceptrons. ">
<polygon fill="none" stroke="#000000" points="783,-56.5 783,-75.5 911,-75.5 911,-56.5 783,-56.5"/>
<text text-anchor="middle" x="847" y="-63.5" font-family="Helvetica,sans-Serif" font-size="10.00" fill="#000000">neural_layer_connected.h</text>
</a>
</g>
</g>
<!-- Node0&#45;&gt;Node13 -->
<g id="edge14" class="edge">
<title>Node0&#45;&gt;Node13</title>
<path fill="none" stroke="#191970" d="M521.8857,-117.1369C592.4554,-106.0371 704.0345,-88.4869 776.3773,-77.1082"/>
<polygon fill="#191970" stroke="#191970" points="776.9817,-80.5562 786.3164,-75.5449 775.894,-73.6412 776.9817,-80.5562"/>
</g>
<!-- Node14 -->
<g id="node15" class="node">
<title>Node14</title>
<g id="a_node15"><a xlink:href="neural__layer__dropout_8h.html" target="_top" xlink:title="An implementation of a dropout layer. ">
<polygon fill="none" stroke="#000000" points="929.5,-56.5 929.5,-75.5 1044.5,-75.5 1044.5,-56.5 929.5,-56.5"/>
<text text-anchor="middle" x="987" y="-63.5" font-family="Helvetica,sans-Serif" font-size="10.00" fill="#000000">neural_layer_dropout.h</text>
</a>
</g>
</g>
<!-- Node0&#45;&gt;Node14 -->
<g id="edge15" class="edge">
<title>Node0&#45;&gt;Node14</title>
<path fill="none" stroke="#191970" d="M521.7913,-120.9848C609.7829,-112.0956 770.8998,-95.2066 919.0829,-76.0784"/>
<polygon fill="#191970" stroke="#191970" points="919.809,-79.5136 929.2758,-74.7564 918.9086,-72.5717 919.809,-79.5136"/>
</g>
<!-- Node15 -->
<g id="node16" class="node">
<title>Node15</title>
<g id="a_node16"><a xlink:href="neural__layer__noise_8h.html" target="_top" xlink:title="An implementation of a Gaussian noise adding layer. ">
<polygon fill="none" stroke="#000000" points="1063,-56.5 1063,-75.5 1169,-75.5 1169,-56.5 1063,-56.5"/>
<text text-anchor="middle" x="1116" y="-63.5" font-family="Helvetica,sans-Serif" font-size="10.00" fill="#000000">neural_layer_noise.h</text>
</a>
</g>
</g>
<!-- Node0&#45;&gt;Node15 -->
<g id="edge16" class="edge">
<title>Node0&#45;&gt;Node15</title>
<path fill="none" stroke="#191970" d="M521.6467,-123.442C630.0657,-116.3889 853.5478,-100.3698 1052.8639,-76.0615"/>
<polygon fill="#191970" stroke="#191970" points="1053.4387,-79.5173 1062.937,-74.8234 1052.5847,-72.5696 1053.4387,-79.5173"/>
</g>
<!-- Node16 -->
<g id="node17" class="node">
<title>Node16</title>
<g id="a_node17"><a xlink:href="neural__layer__softmax_8h.html" target="_top" xlink:title="An implementation of a softmax layer. ">
<polygon fill="none" stroke="#000000" points="1187,-56.5 1187,-75.5 1305,-75.5 1305,-56.5 1187,-56.5"/>
<text text-anchor="middle" x="1246" y="-63.5" font-family="Helvetica,sans-Serif" font-size="10.00" fill="#000000">neural_layer_softmax.h</text>
</a>
</g>
</g>
<!-- Node0&#45;&gt;Node16 -->
<g id="edge17" class="edge">
<title>Node0&#45;&gt;Node16</title>
<path fill="none" stroke="#191970" d="M521.8506,-124.4548C647.2264,-118.2963 929.0513,-102.7236 1176.4288,-76.1014"/>
<polygon fill="#191970" stroke="#191970" points="1177.1311,-79.5458 1186.6954,-74.988 1176.3763,-72.5866 1177.1311,-79.5458"/>
</g>
<!-- Node9&#45;&gt;Node5 -->
<g id="edge10" class="edge">
<title>Node9&#45;&gt;Node5</title>
<path fill="none" stroke="#191970" d="M525.1365,-56.3733C503.595,-47.3032 471.1162,-33.6279 447.0044,-23.4755"/>
<polygon fill="#191970" stroke="#191970" points="448.1397,-20.156 437.5652,-19.5011 445.4233,-26.6075 448.1397,-20.156"/>
</g>
<!-- Node12 -->
<g id="node13" class="node">
<title>Node12</title>
<polygon fill="none" stroke="#bfbfbf" points="701.5,-.5 701.5,-19.5 750.5,-19.5 750.5,-.5 701.5,-.5"/>
<text text-anchor="middle" x="726" y="-7.5" font-family="Helvetica,sans-Serif" font-size="10.00" fill="#000000">stdint.h</text>
</g>
<!-- Node11&#45;&gt;Node12 -->
<g id="edge13" class="edge">
<title>Node11&#45;&gt;Node12</title>
<path fill="none" stroke="#191970" d="M726,-56.2455C726,-48.9382 726,-38.6944 726,-29.7046"/>
<polygon fill="#191970" stroke="#191970" points="729.5001,-29.6426 726,-19.6427 722.5001,-29.6427 729.5001,-29.6426"/>
</g>
</g>
</svg>
