<?xml version="1.0" encoding="UTF-8" standalone="no"?>
<!DOCTYPE svg PUBLIC "-//W3C//DTD SVG 1.1//EN"
 "http://www.w3.org/Graphics/SVG/1.1/DTD/svg11.dtd">
<!-- Generated by graphviz version 2.40.1 (20161225.0304)
 -->
<!-- Title: neural_init Pages: 1 -->
<svg width="1005pt" height="86pt"
 viewBox="0.00 0.00 1005.00 85.78" xmlns="http://www.w3.org/2000/svg" xmlns:xlink="http://www.w3.org/1999/xlink">
<g id="graph0" class="graph" transform="scale(1 1) rotate(0) translate(4 81.7781)">
<title>neural_init</title>
<!-- Node35 -->
<g id="node1" class="node">
<title>Node35</title>
<polygon fill="#bfbfbf" stroke="#000000" points="0,-57.5 0,-76.5 61,-76.5 61,-57.5 0,-57.5"/>
<text text-anchor="middle" x="30.5" y="-64.5" font-family="Helvetica,sans-Serif" font-size="10.00" fill="#000000">neural_init</text>
</g>
<!-- Node36 -->
<g id="node2" class="node">
<title>Node36</title>
<g id="a_node2"><a xlink:href="utils_8c.html#ae42a9e1d467853befaa7922cfafed3bb" target="_top" xlink:title="Returns a uniform random float [min,max]. ">
<polygon fill="none" stroke="#000000" points="483,-38.5 483,-57.5 556,-57.5 556,-38.5 483,-38.5"/>
<text text-anchor="middle" x="519.5" y="-45.5" font-family="Helvetica,sans-Serif" font-size="10.00" fill="#000000">rand_uniform</text>
</a>
</g>
</g>
<!-- Node35&#45;&gt;Node36 -->
<g id="edge1" class="edge">
<title>Node35&#45;&gt;Node36</title>
<path fill="none" stroke="#191970" d="M61.2402,-69.6736C130.4708,-75.112 303.7471,-85.4594 447,-67 457.9533,-65.5886 469.6128,-63.0246 480.3063,-60.2274"/>
<polygon fill="#191970" stroke="#191970" points="481.4945,-63.5306 490.2083,-57.5041 479.6382,-56.7812 481.4945,-63.5306"/>
</g>
<!-- Node41 -->
<g id="node7" class="node">
<title>Node41</title>
<g id="a_node7"><a xlink:href="sam_8c.html#a3164f33509a5dc751b57a544fe2153a7" target="_top" xlink:title="Initialises self&#45;adaptive mutation rates. ">
<polygon fill="none" stroke="#000000" points="97,-38.5 97,-57.5 150,-57.5 150,-38.5 97,-38.5"/>
<text text-anchor="middle" x="123.5" y="-45.5" font-family="Helvetica,sans-Serif" font-size="10.00" fill="#000000">sam_init</text>
</a>
</g>
</g>
<!-- Node35&#45;&gt;Node41 -->
<g id="edge6" class="edge">
<title>Node35&#45;&gt;Node41</title>
<path fill="none" stroke="#191970" d="M61.2094,-60.726C69.4093,-59.0508 78.3526,-57.2237 86.8379,-55.4901"/>
<polygon fill="#191970" stroke="#191970" points="87.7831,-58.8694 96.8801,-53.4385 86.3819,-52.0111 87.7831,-58.8694"/>
</g>
<!-- Node37 -->
<g id="node3" class="node">
<title>Node37</title>
<g id="a_node3"><a xlink:href="utils_8c.html#a101d27cdda714b7f17a06224c65cac56" target="_top" xlink:title="Returns a uniform random float [0,1]. ">
<polygon fill="none" stroke="#000000" points="592,-38.5 592,-57.5 633,-57.5 633,-38.5 592,-38.5"/>
<text text-anchor="middle" x="612.5" y="-45.5" font-family="Helvetica,sans-Serif" font-size="10.00" fill="#000000">drand</text>
</a>
</g>
</g>
<!-- Node36&#45;&gt;Node37 -->
<g id="edge2" class="edge">
<title>Node36&#45;&gt;Node37</title>
<path fill="none" stroke="#191970" d="M556.2561,-48C564.658,-48 573.5043,-48 581.63,-48"/>
<polygon fill="#191970" stroke="#191970" points="581.799,-51.5001 591.7989,-48 581.7989,-44.5001 581.799,-51.5001"/>
</g>
<!-- Node38 -->
<g id="node4" class="node">
<title>Node38</title>
<g id="a_node4"><a xlink:href="mt19937-64_8c.html#aa0b74daf51eca91df224d00f1730084a" target="_top" xlink:title="genrand64_real1">
<polygon fill="none" stroke="#000000" points="669,-38.5 669,-57.5 757,-57.5 757,-38.5 669,-38.5"/>
<text text-anchor="middle" x="713" y="-45.5" font-family="Helvetica,sans-Serif" font-size="10.00" fill="#000000">genrand64_real1</text>
</a>
</g>
</g>
<!-- Node37&#45;&gt;Node38 -->
<g id="edge3" class="edge">
<title>Node37&#45;&gt;Node38</title>
<path fill="none" stroke="#191970" d="M633.3237,-48C640.8428,-48 649.7193,-48 658.769,-48"/>
<polygon fill="#191970" stroke="#191970" points="658.9969,-51.5001 668.9969,-48 658.9969,-44.5001 658.9969,-51.5001"/>
</g>
<!-- Node39 -->
<g id="node5" class="node">
<title>Node39</title>
<g id="a_node5"><a xlink:href="mt19937-64_8c.html#a265bf48d20d6e0347371fcf4fe340e6d" target="_top" xlink:title="genrand64_int64">
<polygon fill="none" stroke="#000000" points="793,-38.5 793,-57.5 881,-57.5 881,-38.5 793,-38.5"/>
<text text-anchor="middle" x="837" y="-45.5" font-family="Helvetica,sans-Serif" font-size="10.00" fill="#000000">genrand64_int64</text>
</a>
</g>
</g>
<!-- Node38&#45;&gt;Node39 -->
<g id="edge4" class="edge">
<title>Node38&#45;&gt;Node39</title>
<path fill="none" stroke="#191970" d="M757.0669,-48C765.2822,-48 773.957,-48 782.4432,-48"/>
<polygon fill="#191970" stroke="#191970" points="782.6572,-51.5001 792.6572,-48 782.6572,-44.5001 782.6572,-51.5001"/>
</g>
<!-- Node40 -->
<g id="node6" class="node">
<title>Node40</title>
<g id="a_node6"><a xlink:href="mt19937-64_8c.html#adf4127d44c2dc34fcb318d406131ef7c" target="_top" xlink:title="init_genrand64">
<polygon fill="none" stroke="#000000" points="917,-38.5 917,-57.5 997,-57.5 997,-38.5 917,-38.5"/>
<text text-anchor="middle" x="957" y="-45.5" font-family="Helvetica,sans-Serif" font-size="10.00" fill="#000000">init_genrand64</text>
</a>
</g>
</g>
<!-- Node39&#45;&gt;Node40 -->
<g id="edge5" class="edge">
<title>Node39&#45;&gt;Node40</title>
<path fill="none" stroke="#191970" d="M881.0022,-48C889.3719,-48 898.1896,-48 906.7365,-48"/>
<polygon fill="#191970" stroke="#191970" points="906.9792,-51.5001 916.9792,-48 906.9792,-44.5001 906.9792,-51.5001"/>
</g>
<!-- Node42 -->
<g id="node8" class="node">
<title>Node42</title>
<g id="a_node8"><a xlink:href="sam_8c.html#a3376574f2624a397ac253242b1958491" target="_top" xlink:title="Initialises log normal self&#45;adaptive mutation rates. ">
<polygon fill="none" stroke="#000000" points="341,-38.5 341,-57.5 447,-57.5 447,-38.5 341,-38.5"/>
<text text-anchor="middle" x="394" y="-45.5" font-family="Helvetica,sans-Serif" font-size="10.00" fill="#000000">sam_log_normal_init</text>
</a>
</g>
</g>
<!-- Node41&#45;&gt;Node42 -->
<g id="edge7" class="edge">
<title>Node41&#45;&gt;Node42</title>
<path fill="none" stroke="#191970" d="M150.4255,-48C192.1525,-48 273.5782,-48 330.7609,-48"/>
<polygon fill="#191970" stroke="#191970" points="330.7849,-51.5001 340.7849,-48 330.7849,-44.5001 330.7849,-51.5001"/>
</g>
<!-- Node43 -->
<g id="node9" class="node">
<title>Node43</title>
<g id="a_node9"><a xlink:href="sam_8c.html#a5c510f09cd5f6069b67e1b9a59df7acc" target="_top" xlink:title="Initialises rate selection self&#45;adaptive mutation. ">
<polygon fill="none" stroke="#000000" points="186,-.5 186,-19.5 305,-19.5 305,-.5 186,-.5"/>
<text text-anchor="middle" x="245.5" y="-7.5" font-family="Helvetica,sans-Serif" font-size="10.00" fill="#000000">sam_rate_selection_init</text>
</a>
</g>
</g>
<!-- Node41&#45;&gt;Node43 -->
<g id="edge9" class="edge">
<title>Node41&#45;&gt;Node43</title>
<path fill="none" stroke="#191970" d="M150.2734,-39.6607C166.371,-34.6467 187.1704,-28.1682 205.2221,-22.5456"/>
<polygon fill="#191970" stroke="#191970" points="206.4142,-25.8402 214.9209,-19.5246 204.3324,-19.1569 206.4142,-25.8402"/>
</g>
<!-- Node42&#45;&gt;Node36 -->
<g id="edge8" class="edge">
<title>Node42&#45;&gt;Node36</title>
<path fill="none" stroke="#191970" d="M447.2233,-48C455.6785,-48 464.37,-48 472.6643,-48"/>
<polygon fill="#191970" stroke="#191970" points="472.9104,-51.5001 482.9103,-48 472.9103,-44.5001 472.9104,-51.5001"/>
</g>
<!-- Node44 -->
<g id="node10" class="node">
<title>Node44</title>
<g id="a_node10"><a xlink:href="utils_8c.html#a32648ab076544a9ac1c086d0f07b599f" target="_top" xlink:title="Returns a uniform random integer [min,max] not inclusive of max. ">
<polygon fill="none" stroke="#000000" points="356.5,-.5 356.5,-19.5 431.5,-19.5 431.5,-.5 356.5,-.5"/>
<text text-anchor="middle" x="394" y="-7.5" font-family="Helvetica,sans-Serif" font-size="10.00" fill="#000000">irand_uniform</text>
</a>
</g>
</g>
<!-- Node43&#45;&gt;Node44 -->
<g id="edge10" class="edge">
<title>Node43&#45;&gt;Node44</title>
<path fill="none" stroke="#191970" d="M305.045,-10C318.6704,-10 332.9841,-10 346.05,-10"/>
<polygon fill="#191970" stroke="#191970" points="346.2241,-13.5001 356.2241,-10 346.2241,-6.5001 346.2241,-13.5001"/>
</g>
<!-- Node44&#45;&gt;Node36 -->
<g id="edge11" class="edge">
<title>Node44&#45;&gt;Node36</title>
<path fill="none" stroke="#191970" d="M425.6689,-19.589C441.5725,-24.4044 461.0396,-30.2988 478.1114,-35.468"/>
<polygon fill="#191970" stroke="#191970" points="477.256,-38.8658 487.8412,-38.4141 479.2846,-32.1662 477.256,-38.8658"/>
</g>
</g>
</svg>
