<?xml version="1.0" encoding="UTF-8" standalone="no"?>
<!DOCTYPE svg PUBLIC "-//W3C//DTD SVG 1.1//EN"
 "http://www.w3.org/Graphics/SVG/1.1/DTD/svg11.dtd">
<!-- Generated by graphviz version 2.40.1 (20161225.0304)
 -->
<!-- Title: neural_layer_noise.h Pages: 1 -->
<svg width="372pt" height="84pt"
 viewBox="0.00 0.00 372.00 84.00" xmlns="http://www.w3.org/2000/svg" xmlns:xlink="http://www.w3.org/1999/xlink">
<g id="graph0" class="graph" transform="scale(1 1) rotate(0) translate(4 80)">
<title>neural_layer_noise.h</title>
<!-- Node1 -->
<g id="node1" class="node">
<title>Node1</title>
<polygon fill="#bfbfbf" stroke="#000000" points="109.5,-56.5 109.5,-75.5 215.5,-75.5 215.5,-56.5 109.5,-56.5"/>
<text text-anchor="middle" x="162.5" y="-63.5" font-family="Helvetica,sans-Serif" font-size="10.00" fill="#000000">neural_layer_noise.h</text>
</g>
<!-- Node2 -->
<g id="node2" class="node">
<title>Node2</title>
<g id="a_node2"><a xlink:href="neural_8c.html" target="_top" xlink:title="An implementation of a multi&#45;layer perceptron neural network. ">
<polygon fill="none" stroke="#000000" points="0,-.5 0,-19.5 51,-19.5 51,-.5 0,-.5"/>
<text text-anchor="middle" x="25.5" y="-7.5" font-family="Helvetica,sans-Serif" font-size="10.00" fill="#000000">neural.c</text>
</a>
</g>
</g>
<!-- Node1&#45;&gt;Node2 -->
<g id="edge1" class="edge">
<title>Node1&#45;&gt;Node2</title>
<path fill="none" stroke="#191970" d="M129.5194,-52.5189C104.5689,-42.3201 70.9266,-28.5685 48.7438,-19.5011"/>
<polygon fill="#191970" stroke="#191970" points="128.368,-55.8293 138.9489,-56.3733 131.0166,-49.3497 128.368,-55.8293"/>
</g>
<!-- Node3 -->
<g id="node3" class="node">
<title>Node3</title>
<g id="a_node3"><a xlink:href="neural__layer_8c.html" target="_top" xlink:title="Interface for neural network layers. ">
<polygon fill="none" stroke="#000000" points="69,-.5 69,-19.5 146,-19.5 146,-.5 69,-.5"/>
<text text-anchor="middle" x="107.5" y="-7.5" font-family="Helvetica,sans-Serif" font-size="10.00" fill="#000000">neural_layer.c</text>
</a>
</g>
</g>
<!-- Node1&#45;&gt;Node3 -->
<g id="edge2" class="edge">
<title>Node1&#45;&gt;Node3</title>
<path fill="none" stroke="#191970" d="M145.8774,-49.0751C136.4145,-39.4402 124.9031,-27.7196 116.9705,-19.6427"/>
<polygon fill="#191970" stroke="#191970" points="143.4155,-51.5635 152.9197,-56.2455 148.4097,-46.6585 143.4155,-51.5635"/>
</g>
<!-- Node4 -->
<g id="node4" class="node">
<title>Node4</title>
<g id="a_node4"><a xlink:href="neural__layer__noise_8c.html" target="_top" xlink:title="An implementation of a Gaussian noise adding layer. ">
<polygon fill="none" stroke="#000000" points="164.5,-.5 164.5,-19.5 270.5,-19.5 270.5,-.5 164.5,-.5"/>
<text text-anchor="middle" x="217.5" y="-7.5" font-family="Helvetica,sans-Serif" font-size="10.00" fill="#000000">neural_layer_noise.c</text>
</a>
</g>
</g>
<!-- Node1&#45;&gt;Node4 -->
<g id="edge3" class="edge">
<title>Node1&#45;&gt;Node4</title>
<path fill="none" stroke="#191970" d="M179.1226,-49.0751C188.5855,-39.4402 200.0969,-27.7196 208.0295,-19.6427"/>
<polygon fill="#191970" stroke="#191970" points="176.5903,-46.6585 172.0803,-56.2455 181.5845,-51.5635 176.5903,-46.6585"/>
</g>
<!-- Node5 -->
<g id="node5" class="node">
<title>Node5</title>
<g id="a_node5"><a xlink:href="pred__neural_8c.html" target="_top" xlink:title="Multi&#45;layer perceptron neural network prediction functions. ">
<polygon fill="none" stroke="#000000" points="289,-.5 289,-19.5 364,-19.5 364,-.5 289,-.5"/>
<text text-anchor="middle" x="326.5" y="-7.5" font-family="Helvetica,sans-Serif" font-size="10.00" fill="#000000">pred_neural.c</text>
</a>
</g>
</g>
<!-- Node1&#45;&gt;Node5 -->
<g id="edge4" class="edge">
<title>Node1&#45;&gt;Node5</title>
<path fill="none" stroke="#191970" d="M200.4044,-53.057C230.4184,-42.8084 271.6507,-28.729 298.6753,-19.5011"/>
<polygon fill="#191970" stroke="#191970" points="199.0251,-49.8295 190.6926,-56.3733 201.2871,-56.454 199.0251,-49.8295"/>
</g>
</g>
</svg>
