<?xml version="1.0" encoding="UTF-8" standalone="no"?>
<!DOCTYPE svg PUBLIC "-//W3C//DTD SVG 1.1//EN"
 "http://www.w3.org/Graphics/SVG/1.1/DTD/svg11.dtd">
<!-- Generated by graphviz version 2.40.1 (20161225.0304)
 -->
<!-- Title: neural_print Pages: 1 -->
<svg width="319pt" height="28pt"
 viewBox="0.00 0.00 319.00 28.00" xmlns="http://www.w3.org/2000/svg" xmlns:xlink="http://www.w3.org/1999/xlink">
<g id="graph0" class="graph" transform="scale(1 1) rotate(0) translate(4 24)">
<title>neural_print</title>
<!-- Node74 -->
<g id="node1" class="node">
<title>Node74</title>
<polygon fill="#bfbfbf" stroke="#000000" points="0,-.5 0,-19.5 67,-19.5 67,-.5 0,-.5"/>
<text text-anchor="middle" x="33.5" y="-7.5" font-family="Helvetica,sans-Serif" font-size="10.00" fill="#000000">neural_print</text>
</g>
<!-- Node75 -->
<g id="node2" class="node">
<title>Node75</title>
<g id="a_node2"><a xlink:href="neural__layer_8h.html#ad8c32d689e736ad4a806e19d51642365" target="_top" xlink:title="layer_print">
<polygon fill="none" stroke="#000000" points="103,-.5 103,-19.5 165,-19.5 165,-.5 103,-.5"/>
<text text-anchor="middle" x="134" y="-7.5" font-family="Helvetica,sans-Serif" font-size="10.00" fill="#000000">layer_print</text>
</a>
</g>
</g>
<!-- Node74&#45;&gt;Node75 -->
<g id="edge1" class="edge">
<title>Node74&#45;&gt;Node75</title>
<path fill="none" stroke="#191970" d="M67.2446,-10C75.4338,-10 84.2809,-10 92.7726,-10"/>
<polygon fill="#191970" stroke="#191970" points="92.8862,-13.5001 102.8862,-10 92.8862,-6.5001 92.8862,-13.5001"/>
</g>
<!-- Node76 -->
<g id="node3" class="node">
<title>Node76</title>
<g id="a_node3"><a xlink:href="neural__layer_8h.html#ab50f23022664bce6dbd72a5b7bcbffe9" target="_top" xlink:title="Sets a neural network layer&#39;s functions to the implementations. ">
<polygon fill="none" stroke="#000000" points="201,-.5 201,-19.5 311,-19.5 311,-.5 201,-.5"/>
<text text-anchor="middle" x="256" y="-7.5" font-family="Helvetica,sans-Serif" font-size="10.00" fill="#000000">neural_layer_set_vptr</text>
</a>
</g>
</g>
<!-- Node75&#45;&gt;Node76 -->
<g id="edge2" class="edge">
<title>Node75&#45;&gt;Node76</title>
<path fill="none" stroke="#191970" d="M165.1014,-10C173.0005,-10 181.7883,-10 190.6991,-10"/>
<polygon fill="#191970" stroke="#191970" points="190.7711,-13.5001 200.7711,-10 190.7711,-6.5001 190.7711,-13.5001"/>
</g>
</g>
</svg>
