<?xml version="1.0" encoding="UTF-8" standalone="no"?>
<!DOCTYPE svg PUBLIC "-//W3C//DTD SVG 1.1//EN"
 "http://www.w3.org/Graphics/SVG/1.1/DTD/svg11.dtd">
<!-- Generated by graphviz version 2.40.1 (20161225.0304)
 -->
<!-- Title: neural_layer_connected_backward Pages: 1 -->
<svg width="473pt" height="541pt"
 viewBox="0.00 0.00 473.00 541.00" xmlns="http://www.w3.org/2000/svg" xmlns:xlink="http://www.w3.org/1999/xlink">
<g id="graph0" class="graph" transform="scale(1 1) rotate(0) translate(4 537)">
<title>neural_layer_connected_backward</title>
<!-- Node38 -->
<g id="node1" class="node">
<title>Node38</title>
<polygon fill="#bfbfbf" stroke="#000000" points="0,-432 0,-462 119,-462 119,-432 0,-432"/>
<text text-anchor="start" x="8" y="-450" font-family="Helvetica,sans-Serif" font-size="10.00" fill="#000000">neural_layer_connected</text>
<text text-anchor="middle" x="59.5" y="-439" font-family="Helvetica,sans-Serif" font-size="10.00" fill="#000000">_backward</text>
</g>
<!-- Node39 -->
<g id="node2" class="node">
<title>Node39</title>
<g id="a_node2"><a xlink:href="blas_8c.html#ad58784c49cb497c041e461a3fb6d3a56" target="_top" xlink:title="blas_axpy">
<polygon fill="none" stroke="#000000" points="166,-484.5 166,-503.5 227,-503.5 227,-484.5 166,-484.5"/>
<text text-anchor="middle" x="196.5" y="-491.5" font-family="Helvetica,sans-Serif" font-size="10.00" fill="#000000">blas_axpy</text>
</a>
</g>
</g>
<!-- Node38&#45;&gt;Node39 -->
<g id="edge1" class="edge">
<title>Node38&#45;&gt;Node39</title>
<path fill="none" stroke="#191970" d="M103.2243,-462.0003C121.1607,-468.1537 141.7162,-475.2056 158.958,-481.1206"/>
<polygon fill="#191970" stroke="#191970" points="158.0872,-484.5221 168.6819,-484.4566 160.3588,-477.9009 158.0872,-484.5221"/>
</g>
<!-- Node41 -->
<g id="node4" class="node">
<title>Node41</title>
<g id="a_node4"><a xlink:href="blas_8c.html#a1a64812460975600e087a38bbfd292aa" target="_top" xlink:title="blas_gemm">
<polygon fill="none" stroke="#000000" points="163,-437.5 163,-456.5 230,-456.5 230,-437.5 163,-437.5"/>
<text text-anchor="middle" x="196.5" y="-444.5" font-family="Helvetica,sans-Serif" font-size="10.00" fill="#000000">blas_gemm</text>
</a>
</g>
</g>
<!-- Node38&#45;&gt;Node41 -->
<g id="edge3" class="edge">
<title>Node38&#45;&gt;Node41</title>
<path fill="none" stroke="#191970" d="M119.1917,-447C130.4403,-447 142.0112,-447 152.6637,-447"/>
<polygon fill="#191970" stroke="#191970" points="152.9641,-450.5001 162.9641,-447 152.9641,-443.5001 152.9641,-450.5001"/>
</g>
<!-- Node48 -->
<g id="node11" class="node">
<title>Node48</title>
<g id="a_node11"><a xlink:href="neural__activations_8c.html#acae9e3465fe2037bb5300ae3e84aa37d" target="_top" xlink:title="Returns the derivative from applying a specified activation function. ">
<polygon fill="none" stroke="#000000" points="155,-209.5 155,-228.5 238,-228.5 238,-209.5 155,-209.5"/>
<text text-anchor="middle" x="196.5" y="-216.5" font-family="Helvetica,sans-Serif" font-size="10.00" fill="#000000">neural_gradient</text>
</a>
</g>
</g>
<!-- Node38&#45;&gt;Node48 -->
<g id="edge10" class="edge">
<title>Node38&#45;&gt;Node48</title>
<path fill="none" stroke="#191970" d="M68.7017,-431.6862C93.02,-391.2149 158.9333,-281.5198 185.3392,-237.5742"/>
<polygon fill="#191970" stroke="#191970" points="188.4669,-239.1643 190.6174,-228.79 182.4668,-235.559 188.4669,-239.1643"/>
</g>
<!-- Node40 -->
<g id="node3" class="node">
<title>Node40</title>
<g id="a_node3"><a xlink:href="blas_8c.html#a7fbad07058c92b52f0bba27d7af1def9" target="_top" xlink:title="axpy_cpu">
<polygon fill="none" stroke="#000000" points="292.5,-494.5 292.5,-513.5 351.5,-513.5 351.5,-494.5 292.5,-494.5"/>
<text text-anchor="middle" x="322" y="-501.5" font-family="Helvetica,sans-Serif" font-size="10.00" fill="#000000">axpy_cpu</text>
</a>
</g>
</g>
<!-- Node39&#45;&gt;Node40 -->
<g id="edge2" class="edge">
<title>Node39&#45;&gt;Node40</title>
<path fill="none" stroke="#191970" d="M227.2008,-496.4463C243.8219,-497.7707 264.5439,-499.4218 282.3713,-500.8423"/>
<polygon fill="#191970" stroke="#191970" points="282.234,-504.3424 292.4804,-501.6478 282.79,-497.3645 282.234,-504.3424"/>
</g>
<!-- Node42 -->
<g id="node5" class="node">
<title>Node42</title>
<g id="a_node5"><a xlink:href="blas_8c.html#acc5e5ab67771cd6b3ada2fd6533899c3" target="_top" xlink:title="gemm_cpu">
<polygon fill="none" stroke="#000000" points="289.5,-456.5 289.5,-475.5 354.5,-475.5 354.5,-456.5 289.5,-456.5"/>
<text text-anchor="middle" x="322" y="-463.5" font-family="Helvetica,sans-Serif" font-size="10.00" fill="#000000">gemm_cpu</text>
</a>
</g>
</g>
<!-- Node41&#45;&gt;Node42 -->
<g id="edge4" class="edge">
<title>Node41&#45;&gt;Node42</title>
<path fill="none" stroke="#191970" d="M230.1317,-452.0917C245.1409,-454.364 263.0058,-457.0686 278.9739,-459.4861"/>
<polygon fill="#191970" stroke="#191970" points="278.7329,-462.9894 289.1442,-461.0258 279.7808,-456.0683 278.7329,-462.9894"/>
</g>
<!-- Node47 -->
<g id="node10" class="node">
<title>Node47</title>
<g id="a_node10"><a xlink:href="blas__kernels_8h.html#a7c242c058a1b94bb7374cabcaa640da7" target="_top" xlink:title="gemm_gpu">
<polygon fill="none" stroke="#000000" points="289.5,-418.5 289.5,-437.5 354.5,-437.5 354.5,-418.5 289.5,-418.5"/>
<text text-anchor="middle" x="322" y="-425.5" font-family="Helvetica,sans-Serif" font-size="10.00" fill="#000000">gemm_gpu</text>
</a>
</g>
</g>
<!-- Node41&#45;&gt;Node47 -->
<g id="edge9" class="edge">
<title>Node41&#45;&gt;Node47</title>
<path fill="none" stroke="#191970" d="M230.1317,-441.9083C245.1409,-439.636 263.0058,-436.9314 278.9739,-434.5139"/>
<polygon fill="#191970" stroke="#191970" points="279.7808,-437.9317 289.1442,-432.9742 278.7329,-431.0106 279.7808,-437.9317"/>
</g>
<!-- Node43 -->
<g id="node6" class="node">
<title>Node43</title>
<g id="a_node6"><a xlink:href="blas_8c.html#a19039ca820abf5f9fe5963ce118f836d" target="_top" xlink:title="gemm_nn">
<polygon fill="none" stroke="#000000" points="406,-513.5 406,-532.5 465,-532.5 465,-513.5 406,-513.5"/>
<text text-anchor="middle" x="435.5" y="-520.5" font-family="Helvetica,sans-Serif" font-size="10.00" fill="#000000">gemm_nn</text>
</a>
</g>
</g>
<!-- Node42&#45;&gt;Node43 -->
<g id="edge5" class="edge">
<title>Node42&#45;&gt;Node43</title>
<path fill="none" stroke="#191970" d="M348.2127,-475.5608C355.3711,-478.3911 363.064,-481.6384 370,-485 384.2353,-491.8993 399.5594,-500.7082 411.8038,-508.1072"/>
<polygon fill="#191970" stroke="#191970" points="410.1427,-511.1942 420.4978,-513.4355 413.8006,-505.2259 410.1427,-511.1942"/>
</g>
<!-- Node44 -->
<g id="node7" class="node">
<title>Node44</title>
<g id="a_node7"><a xlink:href="blas_8c.html#aca9b706fd3bbf0bd260e60636311846d" target="_top" xlink:title="gemm_nt">
<polygon fill="none" stroke="#000000" points="407,-475.5 407,-494.5 464,-494.5 464,-475.5 407,-475.5"/>
<text text-anchor="middle" x="435.5" y="-482.5" font-family="Helvetica,sans-Serif" font-size="10.00" fill="#000000">gemm_nt</text>
</a>
</g>
</g>
<!-- Node42&#45;&gt;Node44 -->
<g id="edge6" class="edge">
<title>Node42&#45;&gt;Node44</title>
<path fill="none" stroke="#191970" d="M354.5245,-471.4446C367.679,-473.6467 382.9712,-476.2066 396.7008,-478.505"/>
<polygon fill="#191970" stroke="#191970" points="396.3933,-482.0021 406.834,-480.2013 397.5491,-475.0982 396.3933,-482.0021"/>
</g>
<!-- Node45 -->
<g id="node8" class="node">
<title>Node45</title>
<g id="a_node8"><a xlink:href="blas_8c.html#a1903d50ec698fb744676468e78834763" target="_top" xlink:title="gemm_tn">
<polygon fill="none" stroke="#000000" points="407,-437.5 407,-456.5 464,-456.5 464,-437.5 407,-437.5"/>
<text text-anchor="middle" x="435.5" y="-444.5" font-family="Helvetica,sans-Serif" font-size="10.00" fill="#000000">gemm_tn</text>
</a>
</g>
</g>
<!-- Node42&#45;&gt;Node45 -->
<g id="edge7" class="edge">
<title>Node42&#45;&gt;Node45</title>
<path fill="none" stroke="#191970" d="M354.5245,-460.5554C367.679,-458.3533 382.9712,-455.7934 396.7008,-453.495"/>
<polygon fill="#191970" stroke="#191970" points="397.5491,-456.9018 406.834,-451.7987 396.3933,-449.9979 397.5491,-456.9018"/>
</g>
<!-- Node46 -->
<g id="node9" class="node">
<title>Node46</title>
<g id="a_node9"><a xlink:href="blas_8c.html#a4f55eb00f6ea7089b7f77697e9511ec0" target="_top" xlink:title="gemm_tt">
<polygon fill="none" stroke="#000000" points="408,-399.5 408,-418.5 463,-418.5 463,-399.5 408,-399.5"/>
<text text-anchor="middle" x="435.5" y="-406.5" font-family="Helvetica,sans-Serif" font-size="10.00" fill="#000000">gemm_tt</text>
</a>
</g>
</g>
<!-- Node42&#45;&gt;Node46 -->
<g id="edge8" class="edge">
<title>Node42&#45;&gt;Node46</title>
<path fill="none" stroke="#191970" d="M348.2127,-456.4392C355.3711,-453.6089 363.064,-450.3616 370,-447 384.2353,-440.1007 399.5594,-431.2918 411.8038,-423.8928"/>
<polygon fill="#191970" stroke="#191970" points="413.8006,-426.7741 420.4978,-418.5645 410.1427,-420.8058 413.8006,-426.7741"/>
</g>
<!-- Node49 -->
<g id="node12" class="node">
<title>Node49</title>
<g id="a_node12"><a xlink:href="neural__activations_8h.html#aeb419ce905e0dc5552b80a2cbee8d7b4" target="_top" xlink:title="cos_gradient">
<polygon fill="none" stroke="#000000" points="286,-380.5 286,-399.5 358,-399.5 358,-380.5 286,-380.5"/>
<text text-anchor="middle" x="322" y="-387.5" font-family="Helvetica,sans-Serif" font-size="10.00" fill="#000000">cos_gradient</text>
</a>
</g>
</g>
<!-- Node48&#45;&gt;Node49 -->
<g id="edge11" class="edge">
<title>Node48&#45;&gt;Node49</title>
<path fill="none" stroke="#191970" d="M198.8451,-228.6549C205.7464,-255.1097 228.4227,-329.5426 274,-371 275.7238,-372.568 277.5926,-374.0134 279.5591,-375.3451"/>
<polygon fill="#191970" stroke="#191970" points="278.2313,-378.6147 288.6604,-380.4819 281.672,-372.5186 278.2313,-378.6147"/>
</g>
<!-- Node50 -->
<g id="node13" class="node">
<title>Node50</title>
<g id="a_node13"><a xlink:href="neural__activations_8h.html#a1e70d48042f40da0117b80f8311091cd" target="_top" xlink:title="gaussian_gradient">
<polygon fill="none" stroke="#000000" points="274.5,-342.5 274.5,-361.5 369.5,-361.5 369.5,-342.5 274.5,-342.5"/>
<text text-anchor="middle" x="322" y="-349.5" font-family="Helvetica,sans-Serif" font-size="10.00" fill="#000000">gaussian_gradient</text>
</a>
</g>
</g>
<!-- Node48&#45;&gt;Node50 -->
<g id="edge12" class="edge">
<title>Node48&#45;&gt;Node50</title>
<path fill="none" stroke="#191970" d="M200.6401,-228.6832C210.3536,-250.3289 236.6419,-303.0777 274,-333 276.1554,-334.7264 278.4873,-336.3124 280.922,-337.7669"/>
<polygon fill="#191970" stroke="#191970" points="279.5645,-341.0047 290.057,-342.4737 282.7707,-334.7821 279.5645,-341.0047"/>
</g>
<!-- Node51 -->
<g id="node14" class="node">
<title>Node51</title>
<g id="a_node14"><a xlink:href="neural__activations_8h.html#a6c81fc6e0fd95e773769d8da1aba0ae7" target="_top" xlink:title="leaky_gradient">
<polygon fill="none" stroke="#000000" points="282,-304.5 282,-323.5 362,-323.5 362,-304.5 282,-304.5"/>
<text text-anchor="middle" x="322" y="-311.5" font-family="Helvetica,sans-Serif" font-size="10.00" fill="#000000">leaky_gradient</text>
</a>
</g>
</g>
<!-- Node48&#45;&gt;Node51 -->
<g id="edge13" class="edge">
<title>Node48&#45;&gt;Node51</title>
<path fill="none" stroke="#191970" d="M204.1223,-228.6555C217.0153,-244.4351 244.6094,-275.9006 274,-295 276.9062,-296.8886 280.0297,-298.6402 283.2386,-300.253"/>
<polygon fill="#191970" stroke="#191970" points="281.8474,-303.4653 292.3982,-304.4297 284.7516,-297.0962 281.8474,-303.4653"/>
</g>
<!-- Node52 -->
<g id="node15" class="node">
<title>Node52</title>
<g id="a_node15"><a xlink:href="neural__activations_8h.html#ac1addc462b61b54a55c80efcfb03a98b" target="_top" xlink:title="linear_gradient">
<polygon fill="none" stroke="#000000" points="282,-266.5 282,-285.5 362,-285.5 362,-266.5 282,-266.5"/>
<text text-anchor="middle" x="322" y="-273.5" font-family="Helvetica,sans-Serif" font-size="10.00" fill="#000000">linear_gradient</text>
</a>
</g>
</g>
<!-- Node48&#45;&gt;Node52 -->
<g id="edge14" class="edge">
<title>Node48&#45;&gt;Node52</title>
<path fill="none" stroke="#191970" d="M215.0974,-228.6332C230.6761,-236.5779 253.5799,-247.9691 274,-257 278.17,-258.8442 282.5783,-260.7058 286.9655,-262.505"/>
<polygon fill="#191970" stroke="#191970" points="285.8516,-265.8294 296.4354,-266.3133 288.4634,-259.3349 285.8516,-265.8294"/>
</g>
<!-- Node53 -->
<g id="node16" class="node">
<title>Node53</title>
<g id="a_node16"><a xlink:href="neural__activations_8h.html#a62402386587022e3acb22609c539c916" target="_top" xlink:title="loggy_gradient">
<polygon fill="none" stroke="#000000" points="282,-228.5 282,-247.5 362,-247.5 362,-228.5 282,-228.5"/>
<text text-anchor="middle" x="322" y="-235.5" font-family="Helvetica,sans-Serif" font-size="10.00" fill="#000000">loggy_gradient</text>
</a>
</g>
</g>
<!-- Node48&#45;&gt;Node53 -->
<g id="edge15" class="edge">
<title>Node48&#45;&gt;Node53</title>
<path fill="none" stroke="#191970" d="M238.2897,-225.3267C248.9898,-226.9467 260.6087,-228.7057 271.6885,-230.3831"/>
<polygon fill="#191970" stroke="#191970" points="271.2592,-233.8579 281.6705,-231.8943 272.3071,-226.9368 271.2592,-233.8579"/>
</g>
<!-- Node54 -->
<g id="node17" class="node">
<title>Node54</title>
<g id="a_node17"><a xlink:href="neural__activations_8h.html#a76d382cd4a11b7a3494c21322e5ac896" target="_top" xlink:title="logistic_gradient">
<polygon fill="none" stroke="#000000" points="278.5,-190.5 278.5,-209.5 365.5,-209.5 365.5,-190.5 278.5,-190.5"/>
<text text-anchor="middle" x="322" y="-197.5" font-family="Helvetica,sans-Serif" font-size="10.00" fill="#000000">logistic_gradient</text>
</a>
</g>
</g>
<!-- Node48&#45;&gt;Node54 -->
<g id="edge16" class="edge">
<title>Node48&#45;&gt;Node54</title>
<path fill="none" stroke="#191970" d="M238.2897,-212.6733C247.9158,-211.2159 258.2855,-209.646 268.3373,-208.1242"/>
<polygon fill="#191970" stroke="#191970" points="268.8805,-211.582 278.2438,-206.6244 267.8326,-204.6608 268.8805,-211.582"/>
</g>
<!-- Node55 -->
<g id="node18" class="node">
<title>Node55</title>
<g id="a_node18"><a xlink:href="neural__activations_8h.html#a6e49e33b48cd376b129aeeafb65c8807" target="_top" xlink:title="relu_gradient">
<polygon fill="none" stroke="#000000" points="286,-152.5 286,-171.5 358,-171.5 358,-152.5 286,-152.5"/>
<text text-anchor="middle" x="322" y="-159.5" font-family="Helvetica,sans-Serif" font-size="10.00" fill="#000000">relu_gradient</text>
</a>
</g>
</g>
<!-- Node48&#45;&gt;Node55 -->
<g id="edge17" class="edge">
<title>Node48&#45;&gt;Node55</title>
<path fill="none" stroke="#191970" d="M215.0974,-209.3668C230.6761,-201.4221 253.5799,-190.0309 274,-181 278.17,-179.1558 282.5783,-177.2942 286.9655,-175.495"/>
<polygon fill="#191970" stroke="#191970" points="288.4634,-178.6651 296.4354,-171.6867 285.8516,-172.1706 288.4634,-178.6651"/>
</g>
<!-- Node56 -->
<g id="node19" class="node">
<title>Node56</title>
<g id="a_node19"><a xlink:href="neural__activations_8h.html#a29868e973d463d10ef85a817f8e91add" target="_top" xlink:title="selu_gradient">
<polygon fill="none" stroke="#000000" points="285,-114.5 285,-133.5 359,-133.5 359,-114.5 285,-114.5"/>
<text text-anchor="middle" x="322" y="-121.5" font-family="Helvetica,sans-Serif" font-size="10.00" fill="#000000">selu_gradient</text>
</a>
</g>
</g>
<!-- Node48&#45;&gt;Node56 -->
<g id="edge18" class="edge">
<title>Node48&#45;&gt;Node56</title>
<path fill="none" stroke="#191970" d="M204.1223,-209.3445C217.0153,-193.5649 244.6094,-162.0994 274,-143 276.9062,-141.1114 280.0297,-139.3598 283.2386,-137.747"/>
<polygon fill="#191970" stroke="#191970" points="284.7516,-140.9038 292.3982,-133.5703 281.8474,-134.5347 284.7516,-140.9038"/>
</g>
<!-- Node57 -->
<g id="node20" class="node">
<title>Node57</title>
<g id="a_node20"><a xlink:href="neural__activations_8h.html#ae81fb7fd858fb67cf5bb3514dbf399ce" target="_top" xlink:title="sin_gradient">
<polygon fill="none" stroke="#000000" points="287.5,-76.5 287.5,-95.5 356.5,-95.5 356.5,-76.5 287.5,-76.5"/>
<text text-anchor="middle" x="322" y="-83.5" font-family="Helvetica,sans-Serif" font-size="10.00" fill="#000000">sin_gradient</text>
</a>
</g>
</g>
<!-- Node48&#45;&gt;Node57 -->
<g id="edge19" class="edge">
<title>Node48&#45;&gt;Node57</title>
<path fill="none" stroke="#191970" d="M200.6401,-209.3168C210.3536,-187.6711 236.6419,-134.9223 274,-105 276.1554,-103.2736 278.4873,-101.6876 280.922,-100.2331"/>
<polygon fill="#191970" stroke="#191970" points="282.7707,-103.2179 290.057,-95.5263 279.5645,-96.9953 282.7707,-103.2179"/>
</g>
<!-- Node58 -->
<g id="node21" class="node">
<title>Node58</title>
<g id="a_node21"><a xlink:href="neural__activations_8h.html#ad35d1ffc99173b6570b4b6076e97c1d0" target="_top" xlink:title="soft_plus_gradient">
<polygon fill="none" stroke="#000000" points="274,-38.5 274,-57.5 370,-57.5 370,-38.5 274,-38.5"/>
<text text-anchor="middle" x="322" y="-45.5" font-family="Helvetica,sans-Serif" font-size="10.00" fill="#000000">soft_plus_gradient</text>
</a>
</g>
</g>
<!-- Node48&#45;&gt;Node58 -->
<g id="edge20" class="edge">
<title>Node48&#45;&gt;Node58</title>
<path fill="none" stroke="#191970" d="M198.8451,-209.3451C205.7464,-182.8903 228.4227,-108.4574 274,-67 275.7238,-65.432 277.5926,-63.9866 279.5591,-62.6549"/>
<polygon fill="#191970" stroke="#191970" points="281.672,-65.4814 288.6604,-57.5181 278.2313,-59.3853 281.672,-65.4814"/>
</g>
<!-- Node59 -->
<g id="node22" class="node">
<title>Node59</title>
<g id="a_node22"><a xlink:href="neural__activations_8h.html#a9ff181117fd714ae3d53c60f48eef8b0" target="_top" xlink:title="tanh_gradient">
<polygon fill="none" stroke="#000000" points="284.5,-.5 284.5,-19.5 359.5,-19.5 359.5,-.5 284.5,-.5"/>
<text text-anchor="middle" x="322" y="-7.5" font-family="Helvetica,sans-Serif" font-size="10.00" fill="#000000">tanh_gradient</text>
</a>
</g>
</g>
<!-- Node48&#45;&gt;Node59 -->
<g id="edge21" class="edge">
<title>Node48&#45;&gt;Node59</title>
<path fill="none" stroke="#191970" d="M197.7601,-209.2369C202.2303,-178.4636 220.0665,-82.3763 274,-29 275.4333,-27.5815 276.9854,-26.2656 278.6245,-25.0452"/>
<polygon fill="#191970" stroke="#191970" points="280.6734,-27.8954 287.3956,-19.7062 277.0338,-21.916 280.6734,-27.8954"/>
</g>
</g>
</svg>
