<?xml version="1.0" encoding="UTF-8" standalone="no"?>
<!DOCTYPE svg PUBLIC "-//W3C//DTD SVG 1.1//EN"
 "http://www.w3.org/Graphics/SVG/1.1/DTD/svg11.dtd">
<!-- Generated by graphviz version 2.40.1 (20161225.0304)
 -->
<!-- Title: leaky_activate Pages: 1 -->
<svg width="362pt" height="39pt"
 viewBox="0.00 0.00 362.00 39.00" xmlns="http://www.w3.org/2000/svg" xmlns:xlink="http://www.w3.org/1999/xlink">
<g id="graph0" class="graph" transform="scale(1 1) rotate(0) translate(4 35)">
<title>leaky_activate</title>
<!-- Node28 -->
<g id="node1" class="node">
<title>Node28</title>
<polygon fill="#bfbfbf" stroke="#000000" points="0,-6 0,-25 80,-25 80,-6 0,-6"/>
<text text-anchor="middle" x="40" y="-13" font-family="Helvetica,sans-Serif" font-size="10.00" fill="#000000">leaky_activate</text>
</g>
<!-- Node29 -->
<g id="node2" class="node">
<title>Node29</title>
<g id="a_node2"><a xlink:href="neural__activations_8h.html#a5e93ebac9138658214c3b9ea62186087" target="_top" xlink:title="Returns the result from applying a specified activation function. ">
<polygon fill="none" stroke="#000000" points="116,-6 116,-25 199,-25 199,-6 116,-6"/>
<text text-anchor="middle" x="157.5" y="-13" font-family="Helvetica,sans-Serif" font-size="10.00" fill="#000000">neural_activate</text>
</a>
</g>
</g>
<!-- Node28&#45;&gt;Node29 -->
<g id="edge1" class="edge">
<title>Node28&#45;&gt;Node29</title>
<path fill="none" stroke="#191970" d="M90.3595,-15.5C98.9028,-15.5 107.6879,-15.5 115.9719,-15.5"/>
<polygon fill="#191970" stroke="#191970" points="90.1082,-12.0001 80.1082,-15.5 90.1082,-19.0001 90.1082,-12.0001"/>
</g>
<!-- Node30 -->
<g id="node3" class="node">
<title>Node30</title>
<g id="a_node3"><a xlink:href="neural__layer__connected_8h.html#a328a93f8dc067e67c2eadb1e044c2684" target="_top" xlink:title="neural_layer_connected\l_forward">
<polygon fill="none" stroke="#000000" points="235,-.5 235,-30.5 354,-30.5 354,-.5 235,-.5"/>
<text text-anchor="start" x="243" y="-18.5" font-family="Helvetica,sans-Serif" font-size="10.00" fill="#000000">neural_layer_connected</text>
<text text-anchor="middle" x="294.5" y="-7.5" font-family="Helvetica,sans-Serif" font-size="10.00" fill="#000000">_forward</text>
</a>
</g>
</g>
<!-- Node29&#45;&gt;Node30 -->
<g id="edge2" class="edge">
<title>Node29&#45;&gt;Node30</title>
<path fill="none" stroke="#191970" d="M209.5584,-15.5C217.7912,-15.5 226.3608,-15.5 234.7523,-15.5"/>
<polygon fill="#191970" stroke="#191970" points="209.349,-12.0001 199.3489,-15.5 209.3489,-19.0001 209.349,-12.0001"/>
</g>
</g>
</svg>
