<?xml version="1.0" encoding="UTF-8" standalone="no"?>
<!DOCTYPE svg PUBLIC "-//W3C//DTD SVG 1.1//EN"
 "http://www.w3.org/Graphics/SVG/1.1/DTD/svg11.dtd">
<!-- Generated by graphviz version 2.40.1 (20161225.0304)
 -->
<!-- Title: neural_output Pages: 1 -->
<svg width="189pt" height="66pt"
 viewBox="0.00 0.00 189.00 66.00" xmlns="http://www.w3.org/2000/svg" xmlns:xlink="http://www.w3.org/1999/xlink">
<g id="graph0" class="graph" transform="scale(1 1) rotate(0) translate(4 62)">
<title>neural_output</title>
<!-- Node64 -->
<g id="node1" class="node">
<title>Node64</title>
<polygon fill="#bfbfbf" stroke="#000000" points="0,-19.5 0,-38.5 75,-38.5 75,-19.5 0,-19.5"/>
<text text-anchor="middle" x="37.5" y="-26.5" font-family="Helvetica,sans-Serif" font-size="10.00" fill="#000000">neural_output</text>
</g>
<!-- Node65 -->
<g id="node2" class="node">
<title>Node65</title>
<g id="a_node2"><a xlink:href="utils_8c.html#a4d9693be6ce890dc7a2ee825d11ca3ee" target="_top" xlink:title="Returns a float constrained within the specified range. ">
<polygon fill="none" stroke="#000000" points="118,-38.5 118,-57.5 174,-57.5 174,-38.5 118,-38.5"/>
<text text-anchor="middle" x="146" y="-45.5" font-family="Helvetica,sans-Serif" font-size="10.00" fill="#000000">constrain</text>
</a>
</g>
</g>
<!-- Node64&#45;&gt;Node65 -->
<g id="edge1" class="edge">
<title>Node64&#45;&gt;Node65</title>
<path fill="none" stroke="#191970" d="M75.1435,-35.592C85.6097,-37.4247 96.9886,-39.4174 107.503,-41.2586"/>
<polygon fill="#191970" stroke="#191970" points="107.2095,-44.7604 117.6634,-43.0378 108.417,-37.8653 107.2095,-44.7604"/>
</g>
<!-- Node66 -->
<g id="node3" class="node">
<title>Node66</title>
<g id="a_node3"><a xlink:href="neural__layer_8h.html#aef2814bbb155d93ad1284e76bc154ae1" target="_top" xlink:title="layer_output">
<polygon fill="none" stroke="#000000" points="111,-.5 111,-19.5 181,-19.5 181,-.5 111,-.5"/>
<text text-anchor="middle" x="146" y="-7.5" font-family="Helvetica,sans-Serif" font-size="10.00" fill="#000000">layer_output</text>
</a>
</g>
</g>
<!-- Node64&#45;&gt;Node66 -->
<g id="edge2" class="edge">
<title>Node64&#45;&gt;Node66</title>
<path fill="none" stroke="#191970" d="M75.1435,-22.408C83.502,-20.9444 92.4424,-19.3787 101.0598,-17.8697"/>
<polygon fill="#191970" stroke="#191970" points="101.7269,-21.3062 110.9733,-16.1337 100.5194,-14.4112 101.7269,-21.3062"/>
</g>
</g>
</svg>
