<?xml version="1.0" encoding="UTF-8" standalone="no"?>
<!DOCTYPE svg PUBLIC "-//W3C//DTD SVG 1.1//EN"
 "http://www.w3.org/Graphics/SVG/1.1/DTD/svg11.dtd">
<!-- Generated by graphviz version 2.40.1 (20161225.0304)
 -->
<!-- Title: neural_layer_connected_mutate Pages: 1 -->
<svg width="699pt" height="344pt"
 viewBox="0.00 0.00 699.00 344.00" xmlns="http://www.w3.org/2000/svg" xmlns:xlink="http://www.w3.org/1999/xlink">
<g id="graph0" class="graph" transform="scale(1 1) rotate(0) translate(4 340)">
<title>neural_layer_connected_mutate</title>
<!-- Node61 -->
<g id="node1" class="node">
<title>Node61</title>
<polygon fill="#bfbfbf" stroke="#000000" points="0,-112 0,-142 119,-142 119,-112 0,-112"/>
<text text-anchor="start" x="8" y="-130" font-family="Helvetica,sans-Serif" font-size="10.00" fill="#000000">neural_layer_connected</text>
<text text-anchor="middle" x="59.5" y="-119" font-family="Helvetica,sans-Serif" font-size="10.00" fill="#000000">_mutate</text>
</g>
<!-- Node62 -->
<g id="node2" class="node">
<title>Node62</title>
<g id="a_node2"><a xlink:href="neural__layer__connected_8c.html#ad8720d1544cedb7dbd02928345c850a4" target="_top" xlink:title="mutate_eta">
<polygon fill="none" stroke="#000000" points="303,-38.5 303,-57.5 368,-57.5 368,-38.5 303,-38.5"/>
<text text-anchor="middle" x="335.5" y="-45.5" font-family="Helvetica,sans-Serif" font-size="10.00" fill="#000000">mutate_eta</text>
</a>
</g>
</g>
<!-- Node61&#45;&gt;Node62 -->
<g id="edge1" class="edge">
<title>Node61&#45;&gt;Node62</title>
<path fill="none" stroke="#191970" d="M112.0631,-111.9548C164.4835,-96.9504 244.0199,-74.1845 292.7087,-60.2482"/>
<polygon fill="#191970" stroke="#191970" points="293.9585,-63.5311 302.6092,-57.4144 292.0321,-56.8014 293.9585,-63.5311"/>
</g>
<!-- Node66 -->
<g id="node6" class="node">
<title>Node66</title>
<g id="a_node6"><a xlink:href="neural__layer__connected_8c.html#acc6370bd01955e94c2da4ddb7be8a10b" target="_top" xlink:title="mutate_functions">
<polygon fill="none" stroke="#000000" points="289.5,-316.5 289.5,-335.5 381.5,-335.5 381.5,-316.5 289.5,-316.5"/>
<text text-anchor="middle" x="335.5" y="-323.5" font-family="Helvetica,sans-Serif" font-size="10.00" fill="#000000">mutate_functions</text>
</a>
</g>
</g>
<!-- Node61&#45;&gt;Node66 -->
<g id="edge5" class="edge">
<title>Node61&#45;&gt;Node66</title>
<path fill="none" stroke="#191970" d="M70.9434,-142.1012C87.7437,-163.6073 120.8128,-203.4943 155,-231 203.8796,-270.3267 220.7348,-274.2505 277,-302 284.5595,-305.7283 292.8468,-309.3791 300.7453,-312.6635"/>
<polygon fill="#191970" stroke="#191970" points="299.5299,-315.9475 310.112,-316.4686 302.1646,-309.4622 299.5299,-315.9475"/>
</g>
<!-- Node69 -->
<g id="node9" class="node">
<title>Node69</title>
<g id="a_node9"><a xlink:href="neural__layer__connected_8c.html#a121543e4af0fc8a0ee8c3c6f96d1e25d" target="_top" xlink:title="mutate_neurons">
<polygon fill="none" stroke="#000000" points="155,-202.5 155,-221.5 241,-221.5 241,-202.5 155,-202.5"/>
<text text-anchor="middle" x="198" y="-209.5" font-family="Helvetica,sans-Serif" font-size="10.00" fill="#000000">mutate_neurons</text>
</a>
</g>
</g>
<!-- Node61&#45;&gt;Node69 -->
<g id="edge10" class="edge">
<title>Node61&#45;&gt;Node69</title>
<path fill="none" stroke="#191970" d="M83.9422,-142.0006C109.2561,-157.5362 148.5688,-181.6632 173.7949,-197.1449"/>
<polygon fill="#191970" stroke="#191970" points="172.0456,-200.1779 182.3993,-202.4256 175.7071,-194.2118 172.0456,-200.1779"/>
</g>
<!-- Node72 -->
<g id="node12" class="node">
<title>Node72</title>
<g id="a_node12"><a xlink:href="neural__layer__connected_8c.html#ad1f6499609edfd952bba8814d2103d08" target="_top" xlink:title="mutate_weights">
<polygon fill="none" stroke="#000000" points="292.5,-.5 292.5,-19.5 378.5,-19.5 378.5,-.5 292.5,-.5"/>
<text text-anchor="middle" x="335.5" y="-7.5" font-family="Helvetica,sans-Serif" font-size="10.00" fill="#000000">mutate_weights</text>
</a>
</g>
</g>
<!-- Node61&#45;&gt;Node72 -->
<g id="edge16" class="edge">
<title>Node61&#45;&gt;Node72</title>
<path fill="none" stroke="#191970" d="M82.7967,-111.9644C101.7478,-100.1343 129.4431,-83.7424 155,-72 207.2413,-47.9972 222.5447,-47.4366 277,-29 283.1066,-26.9325 289.5867,-24.7834 295.9244,-22.7062"/>
<polygon fill="#191970" stroke="#191970" points="297.2688,-25.9494 305.6923,-19.5233 295.0999,-19.2938 297.2688,-25.9494"/>
</g>
<!-- Node73 -->
<g id="node13" class="node">
<title>Node73</title>
<g id="a_node13"><a xlink:href="sam_8c.html#ab7b9b862cf798bc25fc0654a4ff1e54e" target="_top" xlink:title="Self&#45;adapts mutation rates. ">
<polygon fill="none" stroke="#000000" points="165.5,-117.5 165.5,-136.5 230.5,-136.5 230.5,-117.5 165.5,-117.5"/>
<text text-anchor="middle" x="198" y="-124.5" font-family="Helvetica,sans-Serif" font-size="10.00" fill="#000000">sam_adapt</text>
</a>
</g>
</g>
<!-- Node61&#45;&gt;Node73 -->
<g id="edge19" class="edge">
<title>Node61&#45;&gt;Node73</title>
<path fill="none" stroke="#191970" d="M119.0402,-127C131.165,-127 143.6949,-127 155.1033,-127"/>
<polygon fill="#191970" stroke="#191970" points="155.2213,-130.5001 165.2213,-127 155.2213,-123.5001 155.2213,-130.5001"/>
</g>
<!-- Node63 -->
<g id="node3" class="node">
<title>Node63</title>
<g id="a_node3"><a xlink:href="utils_8h.html#ae1e666b8d7b3afa5b96698d6a0b8b30f" target="_top" xlink:title="Returns a float clamped within the specified range. ">
<polygon fill="none" stroke="#000000" points="446,-38.5 446,-57.5 489,-57.5 489,-38.5 446,-38.5"/>
<text text-anchor="middle" x="467.5" y="-45.5" font-family="Helvetica,sans-Serif" font-size="10.00" fill="#000000">clamp</text>
</a>
</g>
</g>
<!-- Node62&#45;&gt;Node63 -->
<g id="edge2" class="edge">
<title>Node62&#45;&gt;Node63</title>
<path fill="none" stroke="#191970" d="M368.1292,-48C388.8034,-48 415.4059,-48 435.8825,-48"/>
<polygon fill="#191970" stroke="#191970" points="435.9683,-51.5001 445.9682,-48 435.9682,-44.5001 435.9683,-51.5001"/>
</g>
<!-- Node64 -->
<g id="node4" class="node">
<title>Node64</title>
<g id="a_node4"><a xlink:href="utils_8c.html#aa57fc0f69e730ce0a348c25ee498643d" target="_top" xlink:title="Returns a normal random float with specified mean and standard deviation. ">
<polygon fill="none" stroke="#000000" points="432.5,-76.5 432.5,-95.5 502.5,-95.5 502.5,-76.5 432.5,-76.5"/>
<text text-anchor="middle" x="467.5" y="-83.5" font-family="Helvetica,sans-Serif" font-size="10.00" fill="#000000">rand_normal</text>
</a>
</g>
</g>
<!-- Node62&#45;&gt;Node64 -->
<g id="edge3" class="edge">
<title>Node62&#45;&gt;Node64</title>
<path fill="none" stroke="#191970" d="M368.1292,-57.3933C385.1352,-62.2889 406.1525,-68.3394 424.472,-73.6131"/>
<polygon fill="#191970" stroke="#191970" points="423.7513,-77.0478 434.3293,-76.4509 425.6878,-70.3209 423.7513,-77.0478"/>
</g>
<!-- Node65 -->
<g id="node5" class="node">
<title>Node65</title>
<g id="a_node5"><a xlink:href="utils_8c.html#a101d27cdda714b7f17a06224c65cac56" target="_top" xlink:title="Returns a uniform random float (0,1) ">
<polygon fill="none" stroke="#000000" points="650,-139.5 650,-158.5 691,-158.5 691,-139.5 650,-139.5"/>
<text text-anchor="middle" x="670.5" y="-146.5" font-family="Helvetica,sans-Serif" font-size="10.00" fill="#000000">drand</text>
</a>
</g>
</g>
<!-- Node64&#45;&gt;Node65 -->
<g id="edge4" class="edge">
<title>Node64&#45;&gt;Node65</title>
<path fill="none" stroke="#191970" d="M498.3313,-95.5683C536.6543,-107.4617 601.6599,-127.6358 639.8831,-139.4982"/>
<polygon fill="#191970" stroke="#191970" points="639.3212,-142.9885 649.9093,-142.6098 641.3961,-136.303 639.3212,-142.9885"/>
</g>
<!-- Node67 -->
<g id="node7" class="node">
<title>Node67</title>
<g id="a_node7"><a xlink:href="utils_8c.html#a32648ab076544a9ac1c086d0f07b599f" target="_top" xlink:title="Returns a uniform random integer [min,max] not inclusive of max. ">
<polygon fill="none" stroke="#000000" points="430,-202.5 430,-221.5 505,-221.5 505,-202.5 430,-202.5"/>
<text text-anchor="middle" x="467.5" y="-209.5" font-family="Helvetica,sans-Serif" font-size="10.00" fill="#000000">irand_uniform</text>
</a>
</g>
</g>
<!-- Node66&#45;&gt;Node67 -->
<g id="edge6" class="edge">
<title>Node66&#45;&gt;Node67</title>
<path fill="none" stroke="#191970" d="M346.7542,-316.2804C369.3548,-296.7618 420.4794,-252.6087 448.4085,-228.4881"/>
<polygon fill="#191970" stroke="#191970" points="450.9937,-230.8801 456.2742,-221.695 446.4183,-225.5823 450.9937,-230.8801"/>
</g>
<!-- Node68 -->
<g id="node8" class="node">
<title>Node68</title>
<g id="a_node8"><a xlink:href="utils_8c.html#ae42a9e1d467853befaa7922cfafed3bb" target="_top" xlink:title="Returns a uniform random float [min,max]. ">
<polygon fill="none" stroke="#000000" points="541,-202.5 541,-221.5 614,-221.5 614,-202.5 541,-202.5"/>
<text text-anchor="middle" x="577.5" y="-209.5" font-family="Helvetica,sans-Serif" font-size="10.00" fill="#000000">rand_uniform</text>
</a>
</g>
</g>
<!-- Node66&#45;&gt;Node68 -->
<g id="edge9" class="edge">
<title>Node66&#45;&gt;Node68</title>
<path fill="none" stroke="#191970" d="M381.5935,-328.3873C417.4464,-328.2269 467.2719,-323.4351 505,-302 534.3671,-285.3152 556.4615,-251.6568 568.1494,-230.5623"/>
<polygon fill="#191970" stroke="#191970" points="571.3082,-232.0763 572.9069,-221.6027 565.1258,-228.7933 571.3082,-232.0763"/>
</g>
<!-- Node67&#45;&gt;Node68 -->
<g id="edge7" class="edge">
<title>Node67&#45;&gt;Node68</title>
<path fill="none" stroke="#191970" d="M505.0481,-212C513.2782,-212 522.0899,-212 530.6338,-212"/>
<polygon fill="#191970" stroke="#191970" points="530.8657,-215.5001 540.8656,-212 530.8656,-208.5001 530.8657,-215.5001"/>
</g>
<!-- Node68&#45;&gt;Node65 -->
<g id="edge8" class="edge">
<title>Node68&#45;&gt;Node65</title>
<path fill="none" stroke="#191970" d="M591.6247,-202.4317C606.5098,-192.3482 630.1818,-176.3123 647.7133,-164.4361"/>
<polygon fill="#191970" stroke="#191970" points="649.9262,-167.1646 656.2424,-158.6584 646.0002,-161.3692 649.9262,-167.1646"/>
</g>
<!-- Node69&#45;&gt;Node67 -->
<g id="edge11" class="edge">
<title>Node69&#45;&gt;Node67</title>
<path fill="none" stroke="#191970" d="M241.0011,-212C289.8004,-212 369.1728,-212 419.8281,-212"/>
<polygon fill="#191970" stroke="#191970" points="419.8694,-215.5001 429.8693,-212 419.8693,-208.5001 419.8694,-215.5001"/>
</g>
<!-- Node69&#45;&gt;Node68 -->
<g id="edge15" class="edge">
<title>Node69&#45;&gt;Node68</title>
<path fill="none" stroke="#191970" d="M231.2696,-221.5821C234.6832,-223.1519 237.996,-224.9497 241,-227 261.3064,-240.8597 254.6638,-258.7268 277,-269 372.1459,-312.7609 499.0449,-255.2631 552.2995,-226.5543"/>
<polygon fill="#191970" stroke="#191970" points="554.2934,-229.4518 561.362,-221.5597 550.9146,-223.3212 554.2934,-229.4518"/>
</g>
<!-- Node70 -->
<g id="node10" class="node">
<title>Node70</title>
<g id="a_node10"><a xlink:href="neural__layer__connected_8c.html#a6e87a1a97403c4bf705953327c870af8" target="_top" xlink:title="neuron_add">
<polygon fill="none" stroke="#000000" points="302,-114.5 302,-133.5 369,-133.5 369,-114.5 302,-114.5"/>
<text text-anchor="middle" x="335.5" y="-121.5" font-family="Helvetica,sans-Serif" font-size="10.00" fill="#000000">neuron_add</text>
</a>
</g>
</g>
<!-- Node69&#45;&gt;Node70 -->
<g id="edge12" class="edge">
<title>Node69&#45;&gt;Node70</title>
<path fill="none" stroke="#191970" d="M206.7606,-202.1359C220.4049,-187.3285 248.1725,-159.3522 277,-143 281.7602,-140.2998 286.9591,-137.9192 292.2301,-135.8386"/>
<polygon fill="#191970" stroke="#191970" points="293.5,-139.1013 301.7169,-132.413 291.1226,-132.5174 293.5,-139.1013"/>
</g>
<!-- Node71 -->
<g id="node11" class="node">
<title>Node71</title>
<g id="a_node11"><a xlink:href="neural__layer__connected_8c.html#afef6f1db503b9db764876a88a4015c3f" target="_top" xlink:title="neuron_remove">
<polygon fill="none" stroke="#000000" points="294,-240.5 294,-259.5 377,-259.5 377,-240.5 294,-240.5"/>
<text text-anchor="middle" x="335.5" y="-247.5" font-family="Helvetica,sans-Serif" font-size="10.00" fill="#000000">neuron_remove</text>
</a>
</g>
</g>
<!-- Node69&#45;&gt;Node71 -->
<g id="edge14" class="edge">
<title>Node69&#45;&gt;Node71</title>
<path fill="none" stroke="#191970" d="M232.6971,-221.589C250.3656,-226.4719 272.0485,-232.4643 290.939,-237.685"/>
<polygon fill="#191970" stroke="#191970" points="290.243,-241.1238 300.814,-240.4141 292.1077,-234.3767 290.243,-241.1238"/>
</g>
<!-- Node70&#45;&gt;Node64 -->
<g id="edge13" class="edge">
<title>Node70&#45;&gt;Node64</title>
<path fill="none" stroke="#191970" d="M368.8092,-114.411C385.6928,-109.5506 406.3948,-103.5909 424.4705,-98.3873"/>
<polygon fill="#191970" stroke="#191970" points="425.56,-101.7158 434.2015,-95.5859 423.6235,-94.989 425.56,-101.7158"/>
</g>
<!-- Node72&#45;&gt;Node63 -->
<g id="edge17" class="edge">
<title>Node72&#45;&gt;Node63</title>
<path fill="none" stroke="#191970" d="M368.8092,-19.589C389.4554,-25.5326 415.8117,-33.12 436.0929,-38.9586"/>
<polygon fill="#191970" stroke="#191970" points="435.2173,-42.3486 445.7953,-41.7517 437.1539,-35.6218 435.2173,-42.3486"/>
</g>
<!-- Node72&#45;&gt;Node64 -->
<g id="edge18" class="edge">
<title>Node72&#45;&gt;Node64</title>
<path fill="none" stroke="#191970" d="M374.1843,-19.5306C381.0605,-22.0581 387.9505,-25.18 394,-29 413.6709,-41.4213 411.3493,-53.0937 430,-67 432.0478,-68.5269 434.2367,-69.9915 436.4897,-71.3822"/>
<polygon fill="#191970" stroke="#191970" points="434.9027,-74.5051 445.3347,-76.3556 438.3336,-68.4035 434.9027,-74.5051"/>
</g>
<!-- Node74 -->
<g id="node14" class="node">
<title>Node74</title>
<g id="a_node14"><a xlink:href="sam_8c.html#aeed5628172f1fe2bd45b9257ca5f69b4" target="_top" xlink:title="Performs log normal self&#45;adaptation. ">
<polygon fill="none" stroke="#000000" points="277,-76.5 277,-95.5 394,-95.5 394,-76.5 277,-76.5"/>
<text text-anchor="middle" x="335.5" y="-83.5" font-family="Helvetica,sans-Serif" font-size="10.00" fill="#000000">sam_log_normal_adapt</text>
</a>
</g>
</g>
<!-- Node73&#45;&gt;Node74 -->
<g id="edge20" class="edge">
<title>Node73&#45;&gt;Node74</title>
<path fill="none" stroke="#191970" d="M229.8909,-117.4907C248.8442,-111.8392 273.1039,-104.6054 293.5912,-98.4964"/>
<polygon fill="#191970" stroke="#191970" points="294.7229,-101.8114 303.3058,-95.5997 292.7226,-95.1032 294.7229,-101.8114"/>
</g>
<!-- Node75 -->
<g id="node15" class="node">
<title>Node75</title>
<g id="a_node15"><a xlink:href="sam_8c.html#ac0808d47ef98fae3eb607d2eca8fee0d" target="_top" xlink:title="Performs self&#45;adaptation via a rate selection mechanism. ">
<polygon fill="none" stroke="#000000" points="285,-153 285,-183 386,-183 386,-153 285,-153"/>
<text text-anchor="start" x="293" y="-171" font-family="Helvetica,sans-Serif" font-size="10.00" fill="#000000">sam_rate_selection</text>
<text text-anchor="middle" x="335.5" y="-160" font-family="Helvetica,sans-Serif" font-size="10.00" fill="#000000">_adapt</text>
</a>
</g>
</g>
<!-- Node73&#45;&gt;Node75 -->
<g id="edge23" class="edge">
<title>Node73&#45;&gt;Node75</title>
<path fill="none" stroke="#191970" d="M229.8909,-136.5093C243.4247,-140.5448 259.6642,-145.3871 275.3038,-150.0506"/>
<polygon fill="#191970" stroke="#191970" points="274.3514,-153.4188 284.9346,-152.9223 276.3517,-146.7107 274.3514,-153.4188"/>
</g>
<!-- Node74&#45;&gt;Node63 -->
<g id="edge22" class="edge">
<title>Node74&#45;&gt;Node63</title>
<path fill="none" stroke="#191970" d="M368.8092,-76.411C389.4554,-70.4674 415.8117,-62.88 436.0929,-57.0414"/>
<polygon fill="#191970" stroke="#191970" points="437.1539,-60.3782 445.7953,-54.2483 435.2173,-53.6514 437.1539,-60.3782"/>
</g>
<!-- Node74&#45;&gt;Node64 -->
<g id="edge21" class="edge">
<title>Node74&#45;&gt;Node64</title>
<path fill="none" stroke="#191970" d="M394.1658,-86C403.5689,-86 413.173,-86 422.202,-86"/>
<polygon fill="#191970" stroke="#191970" points="422.4906,-89.5001 432.4906,-86 422.4905,-82.5001 422.4906,-89.5001"/>
</g>
<!-- Node75&#45;&gt;Node67 -->
<g id="edge25" class="edge">
<title>Node75&#45;&gt;Node67</title>
<path fill="none" stroke="#191970" d="M380.5577,-183.0192C396.3644,-188.2881 413.9589,-194.153 429.1624,-199.2208"/>
<polygon fill="#191970" stroke="#191970" points="428.1715,-202.5798 438.7651,-202.4217 430.3851,-195.939 428.1715,-202.5798"/>
</g>
<!-- Node75&#45;&gt;Node68 -->
<g id="edge24" class="edge">
<title>Node75&#45;&gt;Node68</title>
<path fill="none" stroke="#191970" d="M386.1875,-173.996C420.0035,-178.3588 465.3636,-184.9087 505,-193 514.5567,-194.9509 524.733,-197.3884 534.3465,-199.8602"/>
<polygon fill="#191970" stroke="#191970" points="533.5501,-203.2697 544.1116,-202.4296 535.3314,-196.5001 533.5501,-203.2697"/>
</g>
</g>
</svg>
