<?xml version="1.0" encoding="UTF-8" standalone="no"?>
<!DOCTYPE svg PUBLIC "-//W3C//DTD SVG 1.1//EN"
 "http://www.w3.org/Graphics/SVG/1.1/DTD/svg11.dtd">
<!-- Generated by graphviz version 2.40.1 (20161225.0304)
 -->
<!-- Title: mutate_weights Pages: 1 -->
<svg width="877pt" height="66pt"
 viewBox="0.00 0.00 877.00 66.00" xmlns="http://www.w3.org/2000/svg" xmlns:xlink="http://www.w3.org/1999/xlink">
<g id="graph0" class="graph" transform="scale(1 1) rotate(0) translate(4 62)">
<title>mutate_weights</title>
<!-- Node33 -->
<g id="node1" class="node">
<title>Node33</title>
<polygon fill="#bfbfbf" stroke="#000000" points="0,-19.5 0,-38.5 86,-38.5 86,-19.5 0,-19.5"/>
<text text-anchor="middle" x="43" y="-26.5" font-family="Helvetica,sans-Serif" font-size="10.00" fill="#000000">mutate_weights</text>
</g>
<!-- Node34 -->
<g id="node2" class="node">
<title>Node34</title>
<g id="a_node2"><a xlink:href="utils_8h.html#ae1e666b8d7b3afa5b96698d6a0b8b30f" target="_top" xlink:title="Returns a float clamped within the specified range. ">
<polygon fill="none" stroke="#000000" points="135.5,-38.5 135.5,-57.5 178.5,-57.5 178.5,-38.5 135.5,-38.5"/>
<text text-anchor="middle" x="157" y="-45.5" font-family="Helvetica,sans-Serif" font-size="10.00" fill="#000000">clamp</text>
</a>
</g>
</g>
<!-- Node33&#45;&gt;Node34 -->
<g id="edge1" class="edge">
<title>Node33&#45;&gt;Node34</title>
<path fill="none" stroke="#191970" d="M86.0985,-36.1831C99.0705,-38.3451 113.0656,-40.6776 125.167,-42.6945"/>
<polygon fill="#191970" stroke="#191970" points="124.8014,-46.1818 135.2408,-44.3735 125.9523,-39.277 124.8014,-46.1818"/>
</g>
<!-- Node35 -->
<g id="node3" class="node">
<title>Node35</title>
<g id="a_node3"><a xlink:href="utils_8c.html#aa57fc0f69e730ce0a348c25ee498643d" target="_top" xlink:title="Returns a normal random float with specified mean and standard deviation. ">
<polygon fill="none" stroke="#000000" points="122,-.5 122,-19.5 192,-19.5 192,-.5 122,-.5"/>
<text text-anchor="middle" x="157" y="-7.5" font-family="Helvetica,sans-Serif" font-size="10.00" fill="#000000">rand_normal</text>
</a>
</g>
</g>
<!-- Node33&#45;&gt;Node35 -->
<g id="edge2" class="edge">
<title>Node33&#45;&gt;Node35</title>
<path fill="none" stroke="#191970" d="M86.0985,-21.8169C94.5259,-20.4124 103.385,-18.9358 111.8761,-17.5206"/>
<polygon fill="#191970" stroke="#191970" points="112.7087,-20.9302 121.9972,-15.8338 111.5579,-14.0255 112.7087,-20.9302"/>
</g>
<!-- Node36 -->
<g id="node4" class="node">
<title>Node36</title>
<g id="a_node4"><a xlink:href="utils_8c.html#a101d27cdda714b7f17a06224c65cac56" target="_top" xlink:title="Returns a uniform random float (0,1) ">
<polygon fill="none" stroke="#000000" points="228,-.5 228,-19.5 269,-19.5 269,-.5 228,-.5"/>
<text text-anchor="middle" x="248.5" y="-7.5" font-family="Helvetica,sans-Serif" font-size="10.00" fill="#000000">drand</text>
</a>
</g>
</g>
<!-- Node35&#45;&gt;Node36 -->
<g id="edge3" class="edge">
<title>Node35&#45;&gt;Node36</title>
<path fill="none" stroke="#191970" d="M192.1146,-10C200.5247,-10 209.4424,-10 217.6434,-10"/>
<polygon fill="#191970" stroke="#191970" points="217.9086,-13.5001 227.9086,-10 217.9086,-6.5001 217.9086,-13.5001"/>
</g>
<!-- Node37 -->
<g id="node5" class="node">
<title>Node37</title>
<g id="a_node5"><a xlink:href="dSFMT_8h.html#af6dbcef408462da1f40edd1a1ea5dcd3" target="_top" xlink:title="dsfmt_gv_genrand_open_open">
<polygon fill="none" stroke="#000000" points="305,-.5 305,-19.5 454,-19.5 454,-.5 305,-.5"/>
<text text-anchor="middle" x="379.5" y="-7.5" font-family="Helvetica,sans-Serif" font-size="10.00" fill="#000000">dsfmt_gv_genrand_open_open</text>
</a>
</g>
</g>
<!-- Node36&#45;&gt;Node37 -->
<g id="edge4" class="edge">
<title>Node36&#45;&gt;Node37</title>
<path fill="none" stroke="#191970" d="M269.2573,-10C276.5688,-10 285.3051,-10 294.6156,-10"/>
<polygon fill="#191970" stroke="#191970" points="294.9038,-13.5001 304.9037,-10 294.9037,-6.5001 294.9038,-13.5001"/>
</g>
<!-- Node38 -->
<g id="node6" class="node">
<title>Node38</title>
<g id="a_node6"><a xlink:href="dSFMT_8h.html#a147a0a05c969a4cb5d92ce3963b839c2" target="_top" xlink:title="dsfmt_genrand_open_open">
<polygon fill="none" stroke="#000000" points="490,-.5 490,-19.5 624,-19.5 624,-.5 490,-.5"/>
<text text-anchor="middle" x="557" y="-7.5" font-family="Helvetica,sans-Serif" font-size="10.00" fill="#000000">dsfmt_genrand_open_open</text>
</a>
</g>
</g>
<!-- Node37&#45;&gt;Node38 -->
<g id="edge5" class="edge">
<title>Node37&#45;&gt;Node38</title>
<path fill="none" stroke="#191970" d="M454.0045,-10C462.4355,-10 471.0427,-10 479.5109,-10"/>
<polygon fill="#191970" stroke="#191970" points="479.7501,-13.5001 489.75,-10 479.75,-6.5001 479.7501,-13.5001"/>
</g>
<!-- Node39 -->
<g id="node7" class="node">
<title>Node39</title>
<g id="a_node7"><a xlink:href="dSFMT_8h.html#afccb1e4d75cea7ffe3b45cba53d1e5e0" target="_top" xlink:title="dsfmt_gen_rand_all">
<polygon fill="none" stroke="#000000" points="660,-.5 660,-19.5 761,-19.5 761,-.5 660,-.5"/>
<text text-anchor="middle" x="710.5" y="-7.5" font-family="Helvetica,sans-Serif" font-size="10.00" fill="#000000">dsfmt_gen_rand_all</text>
</a>
</g>
</g>
<!-- Node38&#45;&gt;Node39 -->
<g id="edge6" class="edge">
<title>Node38&#45;&gt;Node39</title>
<path fill="none" stroke="#191970" d="M624.3273,-10C632.8031,-10 641.4345,-10 649.7997,-10"/>
<polygon fill="#191970" stroke="#191970" points="649.8429,-13.5001 659.8429,-10 649.8428,-6.5001 649.8429,-13.5001"/>
</g>
<!-- Node40 -->
<g id="node8" class="node">
<title>Node40</title>
<g id="a_node8"><a xlink:href="dSFMT-common_8h.html#a43e33e2235015c9c072bad7dfe1a282c" target="_top" xlink:title="do_recursion">
<polygon fill="none" stroke="#000000" points="797,-.5 797,-19.5 869,-19.5 869,-.5 797,-.5"/>
<text text-anchor="middle" x="833" y="-7.5" font-family="Helvetica,sans-Serif" font-size="10.00" fill="#000000">do_recursion</text>
</a>
</g>
</g>
<!-- Node39&#45;&gt;Node40 -->
<g id="edge7" class="edge">
<title>Node39&#45;&gt;Node40</title>
<path fill="none" stroke="#191970" d="M761.0327,-10C769.5603,-10 778.3741,-10 786.7846,-10"/>
<polygon fill="#191970" stroke="#191970" points="786.7975,-13.5001 796.7974,-10 786.7974,-6.5001 786.7975,-13.5001"/>
</g>
</g>
</svg>
