<?xml version="1.0" encoding="UTF-8" standalone="no"?>
<!DOCTYPE svg PUBLIC "-//W3C//DTD SVG 1.1//EN"
 "http://www.w3.org/Graphics/SVG/1.1/DTD/svg11.dtd">
<!-- Generated by graphviz version 2.40.1 (20161225.0304)
 -->
<!-- Title: neural_layer_noise.c Pages: 1 -->
<svg width="729pt" height="140pt"
 viewBox="0.00 0.00 729.00 140.00" xmlns="http://www.w3.org/2000/svg" xmlns:xlink="http://www.w3.org/1999/xlink">
<g id="graph0" class="graph" transform="scale(1 1) rotate(0) translate(4 136)">
<title>neural_layer_noise.c</title>
<!-- Node0 -->
<g id="node1" class="node">
<title>Node0</title>
<polygon fill="#bfbfbf" stroke="#000000" points="235,-112.5 235,-131.5 341,-131.5 341,-112.5 235,-112.5"/>
<text text-anchor="middle" x="288" y="-119.5" font-family="Helvetica,sans-Serif" font-size="10.00" fill="#000000">neural_layer_noise.c</text>
</g>
<!-- Node1 -->
<g id="node2" class="node">
<title>Node1</title>
<polygon fill="none" stroke="#bfbfbf" points="0,-56.5 0,-75.5 48,-75.5 48,-56.5 0,-56.5"/>
<text text-anchor="middle" x="24" y="-63.5" font-family="Helvetica,sans-Serif" font-size="10.00" fill="#000000">stdlib.h</text>
</g>
<!-- Node0&#45;&gt;Node1 -->
<g id="edge1" class="edge">
<title>Node0&#45;&gt;Node1</title>
<path fill="none" stroke="#191970" d="M234.9192,-112.9519C190.0908,-104.9665 124.0396,-92.3973 57.8405,-76.0337"/>
<polygon fill="#191970" stroke="#191970" points="58.6252,-72.6223 48.0749,-73.592 56.9272,-79.4132 58.6252,-72.6223"/>
</g>
<!-- Node2 -->
<g id="node3" class="node">
<title>Node2</title>
<polygon fill="none" stroke="#bfbfbf" points="66,-56.5 66,-75.5 112,-75.5 112,-56.5 66,-56.5"/>
<text text-anchor="middle" x="89" y="-63.5" font-family="Helvetica,sans-Serif" font-size="10.00" fill="#000000">stdio.h</text>
</g>
<!-- Node0&#45;&gt;Node2 -->
<g id="edge2" class="edge">
<title>Node0&#45;&gt;Node2</title>
<path fill="none" stroke="#191970" d="M252.0654,-112.4816C220.2294,-103.9646 172.2603,-90.927 121.8226,-76.1766"/>
<polygon fill="#191970" stroke="#191970" points="122.6246,-72.7644 112.0435,-73.3041 120.6517,-79.4806 122.6246,-72.7644"/>
</g>
<!-- Node3 -->
<g id="node4" class="node">
<title>Node3</title>
<polygon fill="none" stroke="#bfbfbf" points="130,-56.5 130,-75.5 186,-75.5 186,-56.5 130,-56.5"/>
<text text-anchor="middle" x="158" y="-63.5" font-family="Helvetica,sans-Serif" font-size="10.00" fill="#000000">stdbool.h</text>
</g>
<!-- Node0&#45;&gt;Node3 -->
<g id="edge3" class="edge">
<title>Node0&#45;&gt;Node3</title>
<path fill="none" stroke="#191970" d="M265.6522,-112.3733C244.5967,-103.3032 212.8505,-89.6279 189.2825,-79.4755"/>
<polygon fill="#191970" stroke="#191970" points="190.625,-76.243 180.0562,-75.5011 187.8556,-82.6719 190.625,-76.243"/>
</g>
<!-- Node4 -->
<g id="node5" class="node">
<title>Node4</title>
<g id="a_node5"><a xlink:href="xcsf_8h.html" target="_top" xlink:title="XCSF data structures. ">
<polygon fill="none" stroke="#000000" points="204,-56.5 204,-75.5 248,-75.5 248,-56.5 204,-56.5"/>
<text text-anchor="middle" x="226" y="-63.5" font-family="Helvetica,sans-Serif" font-size="10.00" fill="#000000">xcsf.h</text>
</a>
</g>
</g>
<!-- Node0&#45;&gt;Node4 -->
<g id="edge4" class="edge">
<title>Node0&#45;&gt;Node4</title>
<path fill="none" stroke="#191970" d="M277.2004,-112.2455C268.1322,-104.0549 254.9794,-92.1749 244.2755,-82.5069"/>
<polygon fill="#191970" stroke="#191970" points="246.4429,-79.7482 236.6758,-75.6427 241.7509,-84.9429 246.4429,-79.7482"/>
</g>
<!-- Node5 -->
<g id="node6" class="node">
<title>Node5</title>
<g id="a_node6"><a xlink:href="utils_8h.html" target="_top" xlink:title="Utility functions for random number handling, etc. ">
<polygon fill="none" stroke="#000000" points="266.5,-56.5 266.5,-75.5 309.5,-75.5 309.5,-56.5 266.5,-56.5"/>
<text text-anchor="middle" x="288" y="-63.5" font-family="Helvetica,sans-Serif" font-size="10.00" fill="#000000">utils.h</text>
</a>
</g>
</g>
<!-- Node0&#45;&gt;Node5 -->
<g id="edge5" class="edge">
<title>Node0&#45;&gt;Node5</title>
<path fill="none" stroke="#191970" d="M288,-112.2455C288,-104.9382 288,-94.6944 288,-85.7046"/>
<polygon fill="#191970" stroke="#191970" points="291.5001,-85.6426 288,-75.6427 284.5001,-85.6427 291.5001,-85.6426"/>
</g>
<!-- Node6 -->
<g id="node7" class="node">
<title>Node6</title>
<g id="a_node7"><a xlink:href="neural__activations_8h.html" target="_top" xlink:title="Neural network activation functions. ">
<polygon fill="none" stroke="#000000" points="328,-56.5 328,-75.5 432,-75.5 432,-56.5 328,-56.5"/>
<text text-anchor="middle" x="380" y="-63.5" font-family="Helvetica,sans-Serif" font-size="10.00" fill="#000000">neural_activations.h</text>
</a>
</g>
</g>
<!-- Node0&#45;&gt;Node6 -->
<g id="edge6" class="edge">
<title>Node0&#45;&gt;Node6</title>
<path fill="none" stroke="#191970" d="M304.0252,-112.2455C318.1408,-103.6534 338.9263,-91.0014 355.1899,-81.1018"/>
<polygon fill="#191970" stroke="#191970" points="357.4363,-83.8319 364.1585,-75.6427 353.7966,-77.8525 357.4363,-83.8319"/>
</g>
<!-- Node8 -->
<g id="node9" class="node">
<title>Node8</title>
<g id="a_node9"><a xlink:href="neural_8h.html" target="_top" xlink:title="An implementation of a multi&#45;layer perceptron neural network. ">
<polygon fill="none" stroke="#000000" points="450.5,-56.5 450.5,-75.5 501.5,-75.5 501.5,-56.5 450.5,-56.5"/>
<text text-anchor="middle" x="476" y="-63.5" font-family="Helvetica,sans-Serif" font-size="10.00" fill="#000000">neural.h</text>
</a>
</g>
</g>
<!-- Node0&#45;&gt;Node8 -->
<g id="edge8" class="edge">
<title>Node0&#45;&gt;Node8</title>
<path fill="none" stroke="#191970" d="M320.3184,-112.3733C353.8572,-102.383 406.1525,-86.8056 440.7406,-76.5028"/>
<polygon fill="#191970" stroke="#191970" points="441.846,-79.8256 450.4307,-73.6164 439.8476,-73.1169 441.846,-79.8256"/>
</g>
<!-- Node9 -->
<g id="node10" class="node">
<title>Node9</title>
<g id="a_node10"><a xlink:href="neural__layer_8h.html" target="_top" xlink:title="Interface for neural network layers. ">
<polygon fill="none" stroke="#000000" points="519.5,-56.5 519.5,-75.5 596.5,-75.5 596.5,-56.5 519.5,-56.5"/>
<text text-anchor="middle" x="558" y="-63.5" font-family="Helvetica,sans-Serif" font-size="10.00" fill="#000000">neural_layer.h</text>
</a>
</g>
</g>
<!-- Node0&#45;&gt;Node9 -->
<g id="edge9" class="edge">
<title>Node0&#45;&gt;Node9</title>
<path fill="none" stroke="#191970" d="M333.9221,-112.4997C376.713,-103.6437 442.5768,-90.0041 509.5947,-76.0826"/>
<polygon fill="#191970" stroke="#191970" points="510.4094,-79.4881 519.4884,-74.0271 508.9855,-72.6345 510.4094,-79.4881"/>
</g>
<!-- Node11 -->
<g id="node12" class="node">
<title>Node11</title>
<g id="a_node12"><a xlink:href="neural__layer__noise_8h.html" target="_top" xlink:title="An implementation of a Gaussian noise adding layer. ">
<polygon fill="none" stroke="#000000" points="615,-56.5 615,-75.5 721,-75.5 721,-56.5 615,-56.5"/>
<text text-anchor="middle" x="668" y="-63.5" font-family="Helvetica,sans-Serif" font-size="10.00" fill="#000000">neural_layer_noise.h</text>
</a>
</g>
</g>
<!-- Node0&#45;&gt;Node11 -->
<g id="edge11" class="edge">
<title>Node0&#45;&gt;Node11</title>
<path fill="none" stroke="#191970" d="M341.2103,-114.5723C402.2977,-105.9848 505.79,-91.2525 604.7329,-76.1756"/>
<polygon fill="#191970" stroke="#191970" points="605.5522,-79.5911 614.9091,-74.6212 604.4952,-72.6714 605.5522,-79.5911"/>
</g>
<!-- Node7 -->
<g id="node8" class="node">
<title>Node7</title>
<polygon fill="none" stroke="#bfbfbf" points="356.5,-.5 356.5,-19.5 403.5,-19.5 403.5,-.5 356.5,-.5"/>
<text text-anchor="middle" x="380" y="-7.5" font-family="Helvetica,sans-Serif" font-size="10.00" fill="#000000">math.h</text>
</g>
<!-- Node6&#45;&gt;Node7 -->
<g id="edge7" class="edge">
<title>Node6&#45;&gt;Node7</title>
<path fill="none" stroke="#191970" d="M380,-56.2455C380,-48.9382 380,-38.6944 380,-29.7046"/>
<polygon fill="#191970" stroke="#191970" points="383.5001,-29.6426 380,-19.6427 376.5001,-29.6427 383.5001,-29.6426"/>
</g>
<!-- Node10 -->
<g id="node11" class="node">
<title>Node10</title>
<polygon fill="none" stroke="#bfbfbf" points="533.5,-.5 533.5,-19.5 582.5,-19.5 582.5,-.5 533.5,-.5"/>
<text text-anchor="middle" x="558" y="-7.5" font-family="Helvetica,sans-Serif" font-size="10.00" fill="#000000">stdint.h</text>
</g>
<!-- Node9&#45;&gt;Node10 -->
<g id="edge10" class="edge">
<title>Node9&#45;&gt;Node10</title>
<path fill="none" stroke="#191970" d="M558,-56.2455C558,-48.9382 558,-38.6944 558,-29.7046"/>
<polygon fill="#191970" stroke="#191970" points="561.5001,-29.6426 558,-19.6427 554.5001,-29.6427 561.5001,-29.6426"/>
</g>
</g>
</svg>
