<?xml version="1.0" encoding="UTF-8" standalone="no"?>
<!DOCTYPE svg PUBLIC "-//W3C//DTD SVG 1.1//EN"
 "http://www.w3.org/Graphics/SVG/1.1/DTD/svg11.dtd">
<!-- Generated by graphviz version 2.40.1 (20161225.0304)
 -->
<!-- Title: sin_gradient Pages: 1 -->
<svg width="497pt" height="39pt"
 viewBox="0.00 0.00 497.00 39.00" xmlns="http://www.w3.org/2000/svg" xmlns:xlink="http://www.w3.org/1999/xlink">
<g id="graph0" class="graph" transform="scale(1 1) rotate(0) translate(4 35)">
<title>sin_gradient</title>
<!-- Node150 -->
<g id="node1" class="node">
<title>Node150</title>
<polygon fill="#bfbfbf" stroke="#000000" points="0,-6 0,-25 69,-25 69,-6 0,-6"/>
<text text-anchor="middle" x="34.5" y="-13" font-family="Helvetica,sans-Serif" font-size="10.00" fill="#000000">sin_gradient</text>
</g>
<!-- Node151 -->
<g id="node2" class="node">
<title>Node151</title>
<g id="a_node2"><a xlink:href="neural__activations_8h.html#ae0e362ecef519d009b3cc0ac0bdde091" target="_top" xlink:title="Returns the derivative from applying a specified activation function. ">
<polygon fill="none" stroke="#000000" points="105,-6 105,-25 188,-25 188,-6 105,-6"/>
<text text-anchor="middle" x="146.5" y="-13" font-family="Helvetica,sans-Serif" font-size="10.00" fill="#000000">neural_gradient</text>
</a>
</g>
</g>
<!-- Node150&#45;&gt;Node151 -->
<g id="edge1" class="edge">
<title>Node150&#45;&gt;Node151</title>
<path fill="none" stroke="#191970" d="M79.1178,-15.5C87.5909,-15.5 96.427,-15.5 104.8053,-15.5"/>
<polygon fill="#191970" stroke="#191970" points="79.0176,-12.0001 69.0176,-15.5 79.0175,-19.0001 79.0176,-12.0001"/>
</g>
<!-- Node152 -->
<g id="node3" class="node">
<title>Node152</title>
<g id="a_node3"><a xlink:href="neural__activations_8h.html#a66ea0a68290a437efcbdf96ffcf44ee6" target="_top" xlink:title="Applies a specified gradient function to an array. ">
<polygon fill="none" stroke="#000000" points="224,-6 224,-25 334,-25 334,-6 224,-6"/>
<text text-anchor="middle" x="279" y="-13" font-family="Helvetica,sans-Serif" font-size="10.00" fill="#000000">neural_gradient_array</text>
</a>
</g>
</g>
<!-- Node151&#45;&gt;Node152 -->
<g id="edge2" class="edge">
<title>Node151&#45;&gt;Node152</title>
<path fill="none" stroke="#191970" d="M198.1773,-15.5C206.6397,-15.5 215.4358,-15.5 223.9756,-15.5"/>
<polygon fill="#191970" stroke="#191970" points="198.0603,-12.0001 188.0603,-15.5 198.0603,-19.0001 198.0603,-12.0001"/>
</g>
<!-- Node153 -->
<g id="node4" class="node">
<title>Node153</title>
<g id="a_node4"><a xlink:href="neural__layer__connected_8h.html#a8e8fd2c51210cf48be30744562800817" target="_top" xlink:title="neural_layer_connected\l_backward">
<polygon fill="none" stroke="#000000" points="370,-.5 370,-30.5 489,-30.5 489,-.5 370,-.5"/>
<text text-anchor="start" x="378" y="-18.5" font-family="Helvetica,sans-Serif" font-size="10.00" fill="#000000">neural_layer_connected</text>
<text text-anchor="middle" x="429.5" y="-7.5" font-family="Helvetica,sans-Serif" font-size="10.00" fill="#000000">_backward</text>
</a>
</g>
</g>
<!-- Node152&#45;&gt;Node153 -->
<g id="edge3" class="edge">
<title>Node152&#45;&gt;Node153</title>
<path fill="none" stroke="#191970" d="M344.3677,-15.5C352.8073,-15.5 361.4158,-15.5 369.7583,-15.5"/>
<polygon fill="#191970" stroke="#191970" points="344.1861,-12.0001 334.1861,-15.5 344.186,-19.0001 344.1861,-12.0001"/>
</g>
</g>
</svg>
