<?xml version="1.0" encoding="UTF-8" standalone="no"?>
<!DOCTYPE svg PUBLIC "-//W3C//DTD SVG 1.1//EN"
 "http://www.w3.org/Graphics/SVG/1.1/DTD/svg11.dtd">
<!-- Generated by graphviz version 2.40.1 (20161225.0304)
 -->
<!-- Title: neural.c Pages: 1 -->
<svg width="1213pt" height="140pt"
 viewBox="0.00 0.00 1213.00 140.00" xmlns="http://www.w3.org/2000/svg" xmlns:xlink="http://www.w3.org/1999/xlink">
<g id="graph0" class="graph" transform="scale(1 1) rotate(0) translate(4 136)">
<title>neural.c</title>
<!-- Node0 -->
<g id="node1" class="node">
<title>Node0</title>
<polygon fill="#bfbfbf" stroke="#000000" points="422.5,-112.5 422.5,-131.5 473.5,-131.5 473.5,-112.5 422.5,-112.5"/>
<text text-anchor="middle" x="448" y="-119.5" font-family="Helvetica,sans-Serif" font-size="10.00" fill="#000000">neural.c</text>
</g>
<!-- Node1 -->
<g id="node2" class="node">
<title>Node1</title>
<polygon fill="none" stroke="#bfbfbf" points="0,-56.5 0,-75.5 48,-75.5 48,-56.5 0,-56.5"/>
<text text-anchor="middle" x="24" y="-63.5" font-family="Helvetica,sans-Serif" font-size="10.00" fill="#000000">stdlib.h</text>
</g>
<!-- Node0&#45;&gt;Node1 -->
<g id="edge1" class="edge">
<title>Node0&#45;&gt;Node1</title>
<path fill="none" stroke="#191970" d="M422.1276,-120.5451C360.5784,-116.7489 200.5638,-104.9093 58.2385,-75.9332"/>
<polygon fill="#191970" stroke="#191970" points="58.5253,-72.4183 48.0232,-73.8171 57.1054,-79.2728 58.5253,-72.4183"/>
</g>
<!-- Node2 -->
<g id="node3" class="node">
<title>Node2</title>
<polygon fill="none" stroke="#bfbfbf" points="66,-56.5 66,-75.5 112,-75.5 112,-56.5 66,-56.5"/>
<text text-anchor="middle" x="89" y="-63.5" font-family="Helvetica,sans-Serif" font-size="10.00" fill="#000000">stdio.h</text>
</g>
<!-- Node0&#45;&gt;Node2 -->
<g id="edge2" class="edge">
<title>Node0&#45;&gt;Node2</title>
<path fill="none" stroke="#191970" d="M422.3042,-119.8235C368.3121,-114.9456 239.0703,-101.6711 122.1305,-75.9614"/>
<polygon fill="#191970" stroke="#191970" points="122.822,-72.5297 112.2993,-73.7636 121.2947,-79.3611 122.822,-72.5297"/>
</g>
<!-- Node3 -->
<g id="node4" class="node">
<title>Node3</title>
<polygon fill="none" stroke="#bfbfbf" points="130.5,-56.5 130.5,-75.5 179.5,-75.5 179.5,-56.5 130.5,-56.5"/>
<text text-anchor="middle" x="155" y="-63.5" font-family="Helvetica,sans-Serif" font-size="10.00" fill="#000000">string.h</text>
</g>
<!-- Node0&#45;&gt;Node3 -->
<g id="edge3" class="edge">
<title>Node0&#45;&gt;Node3</title>
<path fill="none" stroke="#191970" d="M422.4432,-118.4173C377.3989,-111.8987 280.7984,-97.0075 189.7284,-75.9618"/>
<polygon fill="#191970" stroke="#191970" points="190.3328,-72.5087 179.7982,-73.6369 188.737,-79.3244 190.3328,-72.5087"/>
</g>
<!-- Node4 -->
<g id="node5" class="node">
<title>Node4</title>
<polygon fill="none" stroke="#bfbfbf" points="198,-56.5 198,-75.5 254,-75.5 254,-56.5 198,-56.5"/>
<text text-anchor="middle" x="226" y="-63.5" font-family="Helvetica,sans-Serif" font-size="10.00" fill="#000000">stdbool.h</text>
</g>
<!-- Node0&#45;&gt;Node4 -->
<g id="edge4" class="edge">
<title>Node0&#45;&gt;Node4</title>
<path fill="none" stroke="#191970" d="M422.2201,-115.7645C388.2514,-107.5107 326.4005,-92.3521 264.2408,-76.2878"/>
<polygon fill="#191970" stroke="#191970" points="264.8244,-72.8235 254.2661,-73.7027 263.0682,-79.5996 264.8244,-72.8235"/>
</g>
<!-- Node5 -->
<g id="node6" class="node">
<title>Node5</title>
<g id="a_node6"><a xlink:href="xcsf_8h.html" target="_top" xlink:title="XCSF data structures. ">
<polygon fill="none" stroke="#000000" points="272,-56.5 272,-75.5 316,-75.5 316,-56.5 272,-56.5"/>
<text text-anchor="middle" x="294" y="-63.5" font-family="Helvetica,sans-Serif" font-size="10.00" fill="#000000">xcsf.h</text>
</a>
</g>
</g>
<!-- Node0&#45;&gt;Node5 -->
<g id="edge5" class="edge">
<title>Node0&#45;&gt;Node5</title>
<path fill="none" stroke="#191970" d="M422.2239,-112.6269C395.7222,-102.9899 354.4047,-87.9654 325.8684,-77.5885"/>
<polygon fill="#191970" stroke="#191970" points="326.9471,-74.2566 316.353,-74.1284 324.5549,-80.8352 326.9471,-74.2566"/>
</g>
<!-- Node6 -->
<g id="node7" class="node">
<title>Node6</title>
<g id="a_node7"><a xlink:href="utils_8h.html" target="_top" xlink:title="Utility functions for random number handling, etc. ">
<polygon fill="none" stroke="#000000" points="334.5,-56.5 334.5,-75.5 377.5,-75.5 377.5,-56.5 334.5,-56.5"/>
<text text-anchor="middle" x="356" y="-63.5" font-family="Helvetica,sans-Serif" font-size="10.00" fill="#000000">utils.h</text>
</a>
</g>
</g>
<!-- Node0&#45;&gt;Node6 -->
<g id="edge6" class="edge">
<title>Node0&#45;&gt;Node6</title>
<path fill="none" stroke="#191970" d="M431.9748,-112.2455C417.8592,-103.6534 397.0737,-91.0014 380.8101,-81.1018"/>
<polygon fill="#191970" stroke="#191970" points="382.2034,-77.8525 371.8415,-75.6427 378.5637,-83.8319 382.2034,-77.8525"/>
</g>
<!-- Node7 -->
<g id="node8" class="node">
<title>Node7</title>
<g id="a_node8"><a xlink:href="neural__activations_8h.html" target="_top" xlink:title="Neural network activation functions. ">
<polygon fill="none" stroke="#000000" points="396,-56.5 396,-75.5 500,-75.5 500,-56.5 396,-56.5"/>
<text text-anchor="middle" x="448" y="-63.5" font-family="Helvetica,sans-Serif" font-size="10.00" fill="#000000">neural_activations.h</text>
</a>
</g>
</g>
<!-- Node0&#45;&gt;Node7 -->
<g id="edge7" class="edge">
<title>Node0&#45;&gt;Node7</title>
<path fill="none" stroke="#191970" d="M448,-112.2455C448,-104.9382 448,-94.6944 448,-85.7046"/>
<polygon fill="#191970" stroke="#191970" points="451.5001,-85.6426 448,-75.6427 444.5001,-85.6427 451.5001,-85.6426"/>
</g>
<!-- Node9 -->
<g id="node10" class="node">
<title>Node9</title>
<g id="a_node10"><a xlink:href="neural_8h.html" target="_top" xlink:title="An implementation of a multi&#45;layer perceptron neural network. ">
<polygon fill="none" stroke="#000000" points="518.5,-56.5 518.5,-75.5 569.5,-75.5 569.5,-56.5 518.5,-56.5"/>
<text text-anchor="middle" x="544" y="-63.5" font-family="Helvetica,sans-Serif" font-size="10.00" fill="#000000">neural.h</text>
</a>
</g>
</g>
<!-- Node0&#45;&gt;Node9 -->
<g id="edge9" class="edge">
<title>Node0&#45;&gt;Node9</title>
<path fill="none" stroke="#191970" d="M464.7219,-112.2455C479.5889,-103.5731 501.5466,-90.7645 518.5858,-80.825"/>
<polygon fill="#191970" stroke="#191970" points="520.5955,-83.7047 527.4697,-75.6427 517.0683,-77.6582 520.5955,-83.7047"/>
</g>
<!-- Node10 -->
<g id="node11" class="node">
<title>Node10</title>
<g id="a_node11"><a xlink:href="neural__layer_8h.html" target="_top" xlink:title="Interface for neural network layers. ">
<polygon fill="none" stroke="#000000" points="587.5,-56.5 587.5,-75.5 664.5,-75.5 664.5,-56.5 587.5,-56.5"/>
<text text-anchor="middle" x="626" y="-63.5" font-family="Helvetica,sans-Serif" font-size="10.00" fill="#000000">neural_layer.h</text>
</a>
</g>
</g>
<!-- Node0&#45;&gt;Node10 -->
<g id="edge10" class="edge">
<title>Node0&#45;&gt;Node10</title>
<path fill="none" stroke="#191970" d="M473.5031,-113.9766C502.9008,-104.7278 551.5847,-89.4115 586.0281,-78.5754"/>
<polygon fill="#191970" stroke="#191970" points="587.2909,-81.8474 595.7795,-75.5076 585.1901,-75.17 587.2909,-81.8474"/>
</g>
<!-- Node12 -->
<g id="node13" class="node">
<title>Node12</title>
<g id="a_node13"><a xlink:href="neural__layer__connected_8h.html" target="_top" xlink:title="An implementation of a fully&#45;connected layer of perceptrons. ">
<polygon fill="none" stroke="#000000" points="683,-56.5 683,-75.5 811,-75.5 811,-56.5 683,-56.5"/>
<text text-anchor="middle" x="747" y="-63.5" font-family="Helvetica,sans-Serif" font-size="10.00" fill="#000000">neural_layer_connected.h</text>
</a>
</g>
</g>
<!-- Node0&#45;&gt;Node12 -->
<g id="edge12" class="edge">
<title>Node0&#45;&gt;Node12</title>
<path fill="none" stroke="#191970" d="M473.7514,-117.177C520.5435,-108.4133 620.6966,-89.6555 685.8796,-77.4473"/>
<polygon fill="#191970" stroke="#191970" points="686.8425,-80.8279 696.0273,-75.5467 685.5538,-73.9475 686.8425,-80.8279"/>
</g>
<!-- Node13 -->
<g id="node14" class="node">
<title>Node13</title>
<g id="a_node14"><a xlink:href="neural__layer__dropout_8h.html" target="_top" xlink:title="An implementation of a dropout layer. ">
<polygon fill="none" stroke="#000000" points="829.5,-56.5 829.5,-75.5 944.5,-75.5 944.5,-56.5 829.5,-56.5"/>
<text text-anchor="middle" x="887" y="-63.5" font-family="Helvetica,sans-Serif" font-size="10.00" fill="#000000">neural_layer_dropout.h</text>
</a>
</g>
</g>
<!-- Node0&#45;&gt;Node13 -->
<g id="edge13" class="edge">
<title>Node0&#45;&gt;Node13</title>
<path fill="none" stroke="#191970" d="M473.7359,-119.0433C532.7355,-112.217 682.5233,-94.6136 819.0467,-76.1019"/>
<polygon fill="#191970" stroke="#191970" points="819.833,-79.5272 829.2696,-74.7105 818.889,-72.5911 819.833,-79.5272"/>
</g>
<!-- Node14 -->
<g id="node15" class="node">
<title>Node14</title>
<g id="a_node15"><a xlink:href="neural__layer__noise_8h.html" target="_top" xlink:title="An implementation of a Gaussian noise adding layer. ">
<polygon fill="none" stroke="#000000" points="963,-56.5 963,-75.5 1069,-75.5 1069,-56.5 963,-56.5"/>
<text text-anchor="middle" x="1016" y="-63.5" font-family="Helvetica,sans-Serif" font-size="10.00" fill="#000000">neural_layer_noise.h</text>
</a>
</g>
</g>
<!-- Node0&#45;&gt;Node14 -->
<g id="edge14" class="edge">
<title>Node0&#45;&gt;Node14</title>
<path fill="none" stroke="#191970" d="M473.6044,-120.3021C546.6802,-115.3233 762.6563,-99.6829 952.7566,-76.0812"/>
<polygon fill="#191970" stroke="#191970" points="953.4473,-79.5221 962.9349,-74.8067 952.5775,-72.5764 953.4473,-79.5221"/>
</g>
<!-- Node15 -->
<g id="node16" class="node">
<title>Node15</title>
<g id="a_node16"><a xlink:href="neural__layer__softmax_8h.html" target="_top" xlink:title="An implementation of a softmax layer. ">
<polygon fill="none" stroke="#000000" points="1087,-56.5 1087,-75.5 1205,-75.5 1205,-56.5 1087,-56.5"/>
<text text-anchor="middle" x="1146" y="-63.5" font-family="Helvetica,sans-Serif" font-size="10.00" fill="#000000">neural_layer_softmax.h</text>
</a>
</g>
</g>
<!-- Node0&#45;&gt;Node15 -->
<g id="edge15" class="edge">
<title>Node0&#45;&gt;Node15</title>
<path fill="none" stroke="#191970" d="M473.5659,-120.8056C558.057,-116.717 836.1543,-102.1312 1076.7135,-76.0723"/>
<polygon fill="#191970" stroke="#191970" points="1077.1339,-79.5473 1086.6947,-74.9821 1076.3738,-72.5887 1077.1339,-79.5473"/>
</g>
<!-- Node8 -->
<g id="node9" class="node">
<title>Node8</title>
<polygon fill="none" stroke="#bfbfbf" points="424.5,-.5 424.5,-19.5 471.5,-19.5 471.5,-.5 424.5,-.5"/>
<text text-anchor="middle" x="448" y="-7.5" font-family="Helvetica,sans-Serif" font-size="10.00" fill="#000000">math.h</text>
</g>
<!-- Node7&#45;&gt;Node8 -->
<g id="edge8" class="edge">
<title>Node7&#45;&gt;Node8</title>
<path fill="none" stroke="#191970" d="M448,-56.2455C448,-48.9382 448,-38.6944 448,-29.7046"/>
<polygon fill="#191970" stroke="#191970" points="451.5001,-29.6426 448,-19.6427 444.5001,-29.6427 451.5001,-29.6426"/>
</g>
<!-- Node11 -->
<g id="node12" class="node">
<title>Node11</title>
<polygon fill="none" stroke="#bfbfbf" points="601.5,-.5 601.5,-19.5 650.5,-19.5 650.5,-.5 601.5,-.5"/>
<text text-anchor="middle" x="626" y="-7.5" font-family="Helvetica,sans-Serif" font-size="10.00" fill="#000000">stdint.h</text>
</g>
<!-- Node10&#45;&gt;Node11 -->
<g id="edge11" class="edge">
<title>Node10&#45;&gt;Node11</title>
<path fill="none" stroke="#191970" d="M626,-56.2455C626,-48.9382 626,-38.6944 626,-29.7046"/>
<polygon fill="#191970" stroke="#191970" points="629.5001,-29.6426 626,-19.6427 622.5001,-29.6427 629.5001,-29.6426"/>
</g>
</g>
</svg>
