<?xml version="1.0" encoding="UTF-8" standalone="no"?>
<!DOCTYPE svg PUBLIC "-//W3C//DTD SVG 1.1//EN"
 "http://www.w3.org/Graphics/SVG/1.1/DTD/svg11.dtd">
<!-- Generated by graphviz version 2.40.1 (20161225.0304)
 -->
<!-- Title: layer_update Pages: 1 -->
<svg width="322pt" height="28pt"
 viewBox="0.00 0.00 322.00 28.00" xmlns="http://www.w3.org/2000/svg" xmlns:xlink="http://www.w3.org/1999/xlink">
<g id="graph0" class="graph" transform="scale(1 1) rotate(0) translate(4 24)">
<title>layer_update</title>
<!-- Node68 -->
<g id="node1" class="node">
<title>Node68</title>
<polygon fill="#bfbfbf" stroke="#000000" points="0,-.5 0,-19.5 72,-19.5 72,-.5 0,-.5"/>
<text text-anchor="middle" x="36" y="-7.5" font-family="Helvetica,sans-Serif" font-size="10.00" fill="#000000">layer_update</text>
</g>
<!-- Node69 -->
<g id="node2" class="node">
<title>Node69</title>
<g id="a_node2"><a xlink:href="$neural_8h.html#af85be2258628208e4ae9f9fe1bee0de6" xlink:title="Performs a gradient descent update on a neural network. ">
<polygon fill="none" stroke="#000000" points="108,-.5 108,-19.5 177,-19.5 177,-.5 108,-.5"/>
<text text-anchor="middle" x="142.5" y="-7.5" font-family="Helvetica,sans-Serif" font-size="10.00" fill="#000000">neural_learn</text>
</a>
</g>
</g>
<!-- Node68&#45;&gt;Node69 -->
<g id="edge1" class="edge">
<title>Node68&#45;&gt;Node69</title>
<path fill="none" stroke="#191970" d="M82.064,-10C90.7389,-10 99.673,-10 107.9225,-10"/>
<polygon fill="#191970" stroke="#191970" points="82.0561,-6.5001 72.056,-10 82.056,-13.5001 82.0561,-6.5001"/>
</g>
<!-- Node70 -->
<g id="node3" class="node">
<title>Node70</title>
<g id="a_node3"><a xlink:href="$pred__neural_8h.html#a11e2b74a70025e2df91baa09544a5dda" xlink:title="pred_neural_update">
<polygon fill="none" stroke="#000000" points="213,-.5 213,-19.5 314,-19.5 314,-.5 213,-.5"/>
<text text-anchor="middle" x="263.5" y="-7.5" font-family="Helvetica,sans-Serif" font-size="10.00" fill="#000000">pred_neural_update</text>
</a>
</g>
</g>
<!-- Node69&#45;&gt;Node70 -->
<g id="edge2" class="edge">
<title>Node69&#45;&gt;Node70</title>
<path fill="none" stroke="#191970" d="M187.3235,-10C195.5517,-10 204.1953,-10 212.5865,-10"/>
<polygon fill="#191970" stroke="#191970" points="187.1738,-6.5001 177.1737,-10 187.1737,-13.5001 187.1738,-6.5001"/>
</g>
</g>
</svg>
