<?xml version="1.0" encoding="UTF-8" standalone="no"?>
<!DOCTYPE svg PUBLIC "-//W3C//DTD SVG 1.1//EN"
 "http://www.w3.org/Graphics/SVG/1.1/DTD/svg11.dtd">
<!-- Generated by graphviz version 2.40.1 (20161225.0304)
 -->
<!-- Title: neural_layer_noise_forward Pages: 1 -->
<svg width="656pt" height="66pt"
 viewBox="0.00 0.00 656.00 66.00" xmlns="http://www.w3.org/2000/svg" xmlns:xlink="http://www.w3.org/1999/xlink">
<g id="graph0" class="graph" transform="scale(1 1) rotate(0) translate(4 62)">
<title>neural_layer_noise_forward</title>
<!-- Node4 -->
<g id="node1" class="node">
<title>Node4</title>
<polygon fill="#bfbfbf" stroke="#000000" points="0,-14 0,-44 98,-44 98,-14 0,-14"/>
<text text-anchor="start" x="8" y="-32" font-family="Helvetica,sans-Serif" font-size="10.00" fill="#000000">neural_layer_noise</text>
<text text-anchor="middle" x="49" y="-21" font-family="Helvetica,sans-Serif" font-size="10.00" fill="#000000">_forward</text>
</g>
<!-- Node5 -->
<g id="node2" class="node">
<title>Node5</title>
<g id="a_node2"><a xlink:href="$utils_8c.html#aa57fc0f69e730ce0a348c25ee498643d" xlink:title="Returns a normal random float with specified mean and standard deviation. ">
<polygon fill="none" stroke="#000000" points="135.5,-38.5 135.5,-57.5 205.5,-57.5 205.5,-38.5 135.5,-38.5"/>
<text text-anchor="middle" x="170.5" y="-45.5" font-family="Helvetica,sans-Serif" font-size="10.00" fill="#000000">rand_normal</text>
</a>
</g>
</g>
<!-- Node4&#45;&gt;Node5 -->
<g id="edge1" class="edge">
<title>Node4&#45;&gt;Node5</title>
<path fill="none" stroke="#191970" d="M98.0685,-36.6733C107.0626,-38.0797 116.4117,-39.5417 125.2866,-40.9296"/>
<polygon fill="#191970" stroke="#191970" points="125.0167,-44.4298 135.4374,-42.517 126.0983,-37.5139 125.0167,-44.4298"/>
</g>
<!-- Node10 -->
<g id="node7" class="node">
<title>Node10</title>
<g id="a_node7"><a xlink:href="$utils_8c.html#ae42a9e1d467853befaa7922cfafed3bb" xlink:title="Returns a uniform random float [min,max]. ">
<polygon fill="none" stroke="#000000" points="134,-.5 134,-19.5 207,-19.5 207,-.5 134,-.5"/>
<text text-anchor="middle" x="170.5" y="-7.5" font-family="Helvetica,sans-Serif" font-size="10.00" fill="#000000">rand_uniform</text>
</a>
</g>
</g>
<!-- Node4&#45;&gt;Node10 -->
<g id="edge6" class="edge">
<title>Node4&#45;&gt;Node10</title>
<path fill="none" stroke="#191970" d="M98.0685,-21.3267C106.5903,-19.9941 115.4307,-18.6117 123.8845,-17.2897"/>
<polygon fill="#191970" stroke="#191970" points="124.6181,-20.7176 133.9572,-15.7145 123.5365,-13.8016 124.6181,-20.7176"/>
</g>
<!-- Node6 -->
<g id="node3" class="node">
<title>Node6</title>
<g id="a_node3"><a xlink:href="$utils_8c.html#a0c0a81e7797a05c535bad34449d8642c" xlink:title="Returns a uniform random float [0,1]. ">
<polygon fill="none" stroke="#000000" points="243,-19.5 243,-38.5 284,-38.5 284,-19.5 243,-19.5"/>
<text text-anchor="middle" x="263.5" y="-26.5" font-family="Helvetica,sans-Serif" font-size="10.00" fill="#000000">drand</text>
</a>
</g>
</g>
<!-- Node5&#45;&gt;Node6 -->
<g id="edge2" class="edge">
<title>Node5&#45;&gt;Node6</title>
<path fill="none" stroke="#191970" d="M205.6593,-40.8169C214.5821,-38.994 224.0982,-37.0498 232.7814,-35.2759"/>
<polygon fill="#191970" stroke="#191970" points="233.7669,-38.6469 242.8639,-33.216 232.3657,-31.7886 233.7669,-38.6469"/>
</g>
<!-- Node7 -->
<g id="node4" class="node">
<title>Node7</title>
<g id="a_node4"><a xlink:href="$mt19937-64_8c.html#aa0b74daf51eca91df224d00f1730084a" xlink:title="genrand64_real1">
<polygon fill="none" stroke="#000000" points="320,-19.5 320,-38.5 408,-38.5 408,-19.5 320,-19.5"/>
<text text-anchor="middle" x="364" y="-26.5" font-family="Helvetica,sans-Serif" font-size="10.00" fill="#000000">genrand64_real1</text>
</a>
</g>
</g>
<!-- Node6&#45;&gt;Node7 -->
<g id="edge3" class="edge">
<title>Node6&#45;&gt;Node7</title>
<path fill="none" stroke="#191970" d="M284.3237,-29C291.8428,-29 300.7193,-29 309.769,-29"/>
<polygon fill="#191970" stroke="#191970" points="309.9969,-32.5001 319.9969,-29 309.9969,-25.5001 309.9969,-32.5001"/>
</g>
<!-- Node8 -->
<g id="node5" class="node">
<title>Node8</title>
<g id="a_node5"><a xlink:href="$mt19937-64_8c.html#a265bf48d20d6e0347371fcf4fe340e6d" xlink:title="genrand64_int64">
<polygon fill="none" stroke="#000000" points="444,-19.5 444,-38.5 532,-38.5 532,-19.5 444,-19.5"/>
<text text-anchor="middle" x="488" y="-26.5" font-family="Helvetica,sans-Serif" font-size="10.00" fill="#000000">genrand64_int64</text>
</a>
</g>
</g>
<!-- Node7&#45;&gt;Node8 -->
<g id="edge4" class="edge">
<title>Node7&#45;&gt;Node8</title>
<path fill="none" stroke="#191970" d="M408.0669,-29C416.2822,-29 424.957,-29 433.4432,-29"/>
<polygon fill="#191970" stroke="#191970" points="433.6572,-32.5001 443.6572,-29 433.6572,-25.5001 433.6572,-32.5001"/>
</g>
<!-- Node9 -->
<g id="node6" class="node">
<title>Node9</title>
<g id="a_node6"><a xlink:href="$mt19937-64_8c.html#adf4127d44c2dc34fcb318d406131ef7c" xlink:title="init_genrand64">
<polygon fill="none" stroke="#000000" points="568,-19.5 568,-38.5 648,-38.5 648,-19.5 568,-19.5"/>
<text text-anchor="middle" x="608" y="-26.5" font-family="Helvetica,sans-Serif" font-size="10.00" fill="#000000">init_genrand64</text>
</a>
</g>
</g>
<!-- Node8&#45;&gt;Node9 -->
<g id="edge5" class="edge">
<title>Node8&#45;&gt;Node9</title>
<path fill="none" stroke="#191970" d="M532.0022,-29C540.3719,-29 549.1896,-29 557.7365,-29"/>
<polygon fill="#191970" stroke="#191970" points="557.9792,-32.5001 567.9792,-29 557.9792,-25.5001 557.9792,-32.5001"/>
</g>
<!-- Node10&#45;&gt;Node6 -->
<g id="edge7" class="edge">
<title>Node10&#45;&gt;Node6</title>
<path fill="none" stroke="#191970" d="M207.2561,-17.5093C215.7524,-19.2451 224.7031,-21.0738 232.9036,-22.7491"/>
<polygon fill="#191970" stroke="#191970" points="232.3007,-26.1982 242.7989,-24.7707 233.7019,-19.3398 232.3007,-26.1982"/>
</g>
</g>
</svg>
