<?xml version="1.0" encoding="UTF-8" standalone="no"?>
<!DOCTYPE svg PUBLIC "-//W3C//DTD SVG 1.1//EN"
 "http://www.w3.org/Graphics/SVG/1.1/DTD/svg11.dtd">
<!-- Generated by graphviz version 2.40.1 (20161225.0304)
 -->
<!-- Title: neural.h Pages: 1 -->
<svg width="1043pt" height="84pt"
 viewBox="0.00 0.00 1042.50 84.00" xmlns="http://www.w3.org/2000/svg" xmlns:xlink="http://www.w3.org/1999/xlink">
<g id="graph0" class="graph" transform="scale(1 1) rotate(0) translate(4 80)">
<title>neural.h</title>
<!-- Node1 -->
<g id="node1" class="node">
<title>Node1</title>
<polygon fill="#bfbfbf" stroke="#000000" points="437,-56.5 437,-75.5 488,-75.5 488,-56.5 437,-56.5"/>
<text text-anchor="middle" x="462.5" y="-63.5" font-family="Helvetica,sans-Serif" font-size="10.00" fill="#000000">neural.h</text>
</g>
<!-- Node2 -->
<g id="node2" class="node">
<title>Node2</title>
<g id="a_node2"><a xlink:href="cl__set_8c.html" target="_top" xlink:title="Functions operating on sets of classifiers. ">
<polygon fill="none" stroke="#000000" points="0,-.5 0,-19.5 51,-19.5 51,-.5 0,-.5"/>
<text text-anchor="middle" x="25.5" y="-7.5" font-family="Helvetica,sans-Serif" font-size="10.00" fill="#000000">cl_set.c</text>
</a>
</g>
</g>
<!-- Node1&#45;&gt;Node2 -->
<g id="edge1" class="edge">
<title>Node1&#45;&gt;Node2</title>
<path fill="none" stroke="#191970" d="M426.6394,-63.9876C355.8555,-59.5587 193.4218,-47.1266 59.5,-20 56.726,-19.4381 53.8512,-18.7553 51.0013,-18.0131"/>
<polygon fill="#191970" stroke="#191970" points="426.6051,-67.4919 436.7996,-64.6073 427.0313,-60.5049 426.6051,-67.4919"/>
</g>
<!-- Node3 -->
<g id="node3" class="node">
<title>Node3</title>
<g id="a_node3"><a xlink:href="cond__neural_8c.html" target="_top" xlink:title="Multi&#45;layer perceptron neural network condition functions. ">
<polygon fill="none" stroke="#000000" points="69,-.5 69,-19.5 146,-19.5 146,-.5 69,-.5"/>
<text text-anchor="middle" x="107.5" y="-7.5" font-family="Helvetica,sans-Serif" font-size="10.00" fill="#000000">cond_neural.c</text>
</a>
</g>
</g>
<!-- Node1&#45;&gt;Node3 -->
<g id="edge2" class="edge">
<title>Node1&#45;&gt;Node3</title>
<path fill="none" stroke="#191970" d="M426.8281,-61.3964C369.3292,-53.8135 252.6659,-37.7565 154.5,-20 151.791,-19.51 148.9994,-18.9801 146.1915,-18.4289"/>
<polygon fill="#191970" stroke="#191970" points="426.4877,-64.8817 436.858,-62.7122 427.3983,-57.9412 426.4877,-64.8817"/>
</g>
<!-- Node4 -->
<g id="node4" class="node">
<title>Node4</title>
<g id="a_node4"><a xlink:href="neural_8c.html" target="_top" xlink:title="An implementation of a multi&#45;layer perceptron neural network. ">
<polygon fill="none" stroke="#000000" points="164,-.5 164,-19.5 215,-19.5 215,-.5 164,-.5"/>
<text text-anchor="middle" x="189.5" y="-7.5" font-family="Helvetica,sans-Serif" font-size="10.00" fill="#000000">neural.c</text>
</a>
</g>
</g>
<!-- Node1&#45;&gt;Node4 -->
<g id="edge3" class="edge">
<title>Node1&#45;&gt;Node4</title>
<path fill="none" stroke="#191970" d="M426.8925,-60.2449C379.9922,-52.4144 295.0787,-37.3722 223.5,-20 220.7496,-19.3325 217.8898,-18.582 215.0488,-17.7998"/>
<polygon fill="#191970" stroke="#191970" points="426.4217,-63.7145 436.8592,-61.8957 427.5656,-56.8086 426.4217,-63.7145"/>
</g>
<!-- Node5 -->
<g id="node5" class="node">
<title>Node5</title>
<g id="a_node5"><a xlink:href="neural__layer_8c.html" target="_top" xlink:title="Interface for neural network layers. ">
<polygon fill="none" stroke="#000000" points="233,-.5 233,-19.5 310,-19.5 310,-.5 233,-.5"/>
<text text-anchor="middle" x="271.5" y="-7.5" font-family="Helvetica,sans-Serif" font-size="10.00" fill="#000000">neural_layer.c</text>
</a>
</g>
</g>
<!-- Node1&#45;&gt;Node5 -->
<g id="edge4" class="edge">
<title>Node1&#45;&gt;Node5</title>
<path fill="none" stroke="#191970" d="M426.8882,-55.5588C391.7006,-45.2421 338.326,-29.593 304.1899,-19.5845"/>
<polygon fill="#191970" stroke="#191970" points="426.1601,-58.9926 436.7409,-58.4476 428.1296,-52.2754 426.1601,-58.9926"/>
</g>
<!-- Node6 -->
<g id="node6" class="node">
<title>Node6</title>
<g id="a_node6"><a xlink:href="neural__layer__connected_8c.html" target="_top" xlink:title="An implementation of a fully&#45;connected layer of perceptrons. ">
<polygon fill="none" stroke="#000000" points="328.5,-.5 328.5,-19.5 456.5,-19.5 456.5,-.5 328.5,-.5"/>
<text text-anchor="middle" x="392.5" y="-7.5" font-family="Helvetica,sans-Serif" font-size="10.00" fill="#000000">neural_layer_connected.c</text>
</a>
</g>
</g>
<!-- Node1&#45;&gt;Node6 -->
<g id="edge5" class="edge">
<title>Node1&#45;&gt;Node6</title>
<path fill="none" stroke="#191970" d="M442.41,-49.928C430.1747,-40.1397 414.9493,-27.9595 404.5533,-19.6427"/>
<polygon fill="#191970" stroke="#191970" points="440.3118,-52.7316 450.3069,-56.2455 444.6847,-47.2655 440.3118,-52.7316"/>
</g>
<!-- Node7 -->
<g id="node7" class="node">
<title>Node7</title>
<g id="a_node7"><a xlink:href="neural__layer__dropout_8c.html" target="_top" xlink:title="An implementation of a dropout layer. ">
<polygon fill="none" stroke="#000000" points="475,-.5 475,-19.5 590,-19.5 590,-.5 475,-.5"/>
<text text-anchor="middle" x="532.5" y="-7.5" font-family="Helvetica,sans-Serif" font-size="10.00" fill="#000000">neural_layer_dropout.c</text>
</a>
</g>
</g>
<!-- Node1&#45;&gt;Node7 -->
<g id="edge6" class="edge">
<title>Node1&#45;&gt;Node7</title>
<path fill="none" stroke="#191970" d="M482.59,-49.928C494.8253,-40.1397 510.0507,-27.9595 520.4467,-19.6427"/>
<polygon fill="#191970" stroke="#191970" points="480.3153,-47.2655 474.6931,-56.2455 484.6882,-52.7316 480.3153,-47.2655"/>
</g>
<!-- Node8 -->
<g id="node8" class="node">
<title>Node8</title>
<g id="a_node8"><a xlink:href="neural__layer__noise_8c.html" target="_top" xlink:title="An implementation of a Gaussian noise adding layer. ">
<polygon fill="none" stroke="#000000" points="608.5,-.5 608.5,-19.5 714.5,-19.5 714.5,-.5 608.5,-.5"/>
<text text-anchor="middle" x="661.5" y="-7.5" font-family="Helvetica,sans-Serif" font-size="10.00" fill="#000000">neural_layer_noise.c</text>
</a>
</g>
</g>
<!-- Node1&#45;&gt;Node8 -->
<g id="edge7" class="edge">
<title>Node1&#45;&gt;Node8</title>
<path fill="none" stroke="#191970" d="M497.8888,-56.0413C534.5919,-45.7128 591.5651,-29.6802 627.6781,-19.5177"/>
<polygon fill="#191970" stroke="#191970" points="496.7864,-52.7156 488.1084,-58.7936 498.6826,-59.4538 496.7864,-52.7156"/>
</g>
<!-- Node9 -->
<g id="node9" class="node">
<title>Node9</title>
<g id="a_node9"><a xlink:href="neural__layer__softmax_8c.html" target="_top" xlink:title="An implementation of a softmax layer. ">
<polygon fill="none" stroke="#000000" points="732.5,-.5 732.5,-19.5 850.5,-19.5 850.5,-.5 732.5,-.5"/>
<text text-anchor="middle" x="791.5" y="-7.5" font-family="Helvetica,sans-Serif" font-size="10.00" fill="#000000">neural_layer_softmax.c</text>
</a>
</g>
</g>
<!-- Node1&#45;&gt;Node9 -->
<g id="edge8" class="edge">
<title>Node1&#45;&gt;Node9</title>
<path fill="none" stroke="#191970" d="M498.0233,-59.9535C555.0557,-50.2458 667.5158,-31.1037 735.4552,-19.5395"/>
<polygon fill="#191970" stroke="#191970" points="497.3132,-56.5239 488.0423,-61.6524 498.4879,-63.4247 497.3132,-56.5239"/>
</g>
<!-- Node10 -->
<g id="node10" class="node">
<title>Node10</title>
<g id="a_node10"><a xlink:href="pred__neural_8c.html" target="_top" xlink:title="Multi&#45;layer perceptron neural network prediction functions. ">
<polygon fill="none" stroke="#000000" points="869,-.5 869,-19.5 944,-19.5 944,-.5 869,-.5"/>
<text text-anchor="middle" x="906.5" y="-7.5" font-family="Helvetica,sans-Serif" font-size="10.00" fill="#000000">pred_neural.c</text>
</a>
</g>
</g>
<!-- Node1&#45;&gt;Node10 -->
<g id="edge9" class="edge">
<title>Node1&#45;&gt;Node10</title>
<path fill="none" stroke="#191970" d="M498.1751,-63.0033C567.8875,-56.8967 726.9658,-41.728 859.5,-20 862.546,-19.5006 865.6933,-18.9367 868.8491,-18.3373"/>
<polygon fill="#191970" stroke="#191970" points="497.8215,-59.5208 488.1613,-63.8718 498.4263,-66.4946 497.8215,-59.5208"/>
</g>
<!-- Node11 -->
<g id="node11" class="node">
<title>Node11</title>
<g id="a_node11"><a xlink:href="rule__neural_8c.html" target="_top" xlink:title="Neural network rule (condition + action) functions. ">
<polygon fill="none" stroke="#000000" points="962.5,-.5 962.5,-19.5 1034.5,-19.5 1034.5,-.5 962.5,-.5"/>
<text text-anchor="middle" x="998.5" y="-7.5" font-family="Helvetica,sans-Serif" font-size="10.00" fill="#000000">rule_neural.c</text>
</a>
</g>
</g>
<!-- Node1&#45;&gt;Node11 -->
<g id="edge10" class="edge">
<title>Node1&#45;&gt;Node11</title>
<path fill="none" stroke="#191970" d="M498.3998,-64.1809C579.7733,-59.7211 784.3313,-46.6137 953.5,-20 956.3461,-19.5523 959.2816,-19.0327 962.2252,-18.4703"/>
<polygon fill="#191970" stroke="#191970" points="497.9961,-60.6975 488.1986,-64.7298 498.3722,-67.6874 497.9961,-60.6975"/>
</g>
</g>
</svg>
