<?xml version="1.0" encoding="UTF-8" standalone="no"?>
<!DOCTYPE svg PUBLIC "-//W3C//DTD SVG 1.1//EN"
 "http://www.w3.org/Graphics/SVG/1.1/DTD/svg11.dtd">
<!-- Generated by graphviz version 2.40.1 (20161225.0304)
 -->
<!-- Title: neural_layer_connected_backward Pages: 1 -->
<svg width="524pt" height="408pt"
 viewBox="0.00 0.00 524.00 408.00" xmlns="http://www.w3.org/2000/svg" xmlns:xlink="http://www.w3.org/1999/xlink">
<g id="graph0" class="graph" transform="scale(1 1) rotate(0) translate(4 404)">
<title>neural_layer_connected_backward</title>
<!-- Node0 -->
<g id="node1" class="node">
<title>Node0</title>
<polygon fill="#bfbfbf" stroke="#000000" points="0,-261 0,-291 119,-291 119,-261 0,-261"/>
<text text-anchor="start" x="8" y="-279" font-family="Helvetica,sans-Serif" font-size="10.00" fill="#000000">neural_layer_connected</text>
<text text-anchor="middle" x="59.5" y="-268" font-family="Helvetica,sans-Serif" font-size="10.00" fill="#000000">_backward</text>
</g>
<!-- Node1 -->
<g id="node2" class="node">
<title>Node1</title>
<g id="a_node2"><a xlink:href="blas_8c.html#ad58784c49cb497c041e461a3fb6d3a56" target="_top" xlink:title="Multiplies the vector X by the scalar ALPHA and adds it to the vector Y. ">
<polygon fill="none" stroke="#000000" points="179.5,-304.5 179.5,-323.5 240.5,-323.5 240.5,-304.5 179.5,-304.5"/>
<text text-anchor="middle" x="210" y="-311.5" font-family="Helvetica,sans-Serif" font-size="10.00" fill="#000000">blas_axpy</text>
</a>
</g>
</g>
<!-- Node0&#45;&gt;Node1 -->
<g id="edge1" class="edge">
<title>Node0&#45;&gt;Node1</title>
<path fill="none" stroke="#191970" d="M118.9816,-291.0186C135.9662,-295.3071 154.0729,-299.8789 169.6269,-303.8061"/>
<polygon fill="#191970" stroke="#191970" points="168.8895,-307.2297 179.4421,-306.2844 170.6032,-300.4427 168.8895,-307.2297"/>
</g>
<!-- Node2 -->
<g id="node3" class="node">
<title>Node2</title>
<g id="a_node3"><a xlink:href="blas_8c.html#a1a64812460975600e087a38bbfd292aa" target="_top" xlink:title="Performs the matrix&#45;matrix multiplication: . ">
<polygon fill="none" stroke="#000000" points="176.5,-266.5 176.5,-285.5 243.5,-285.5 243.5,-266.5 176.5,-266.5"/>
<text text-anchor="middle" x="210" y="-273.5" font-family="Helvetica,sans-Serif" font-size="10.00" fill="#000000">blas_gemm</text>
</a>
</g>
</g>
<!-- Node0&#45;&gt;Node2 -->
<g id="edge2" class="edge">
<title>Node0&#45;&gt;Node2</title>
<path fill="none" stroke="#191970" d="M119.414,-276C134.981,-276 151.4624,-276 166.0383,-276"/>
<polygon fill="#191970" stroke="#191970" points="166.2747,-279.5001 176.2747,-276 166.2746,-272.5001 166.2747,-279.5001"/>
</g>
<!-- Node7 -->
<g id="node8" class="node">
<title>Node7</title>
<g id="a_node8"><a xlink:href="neural__activations_8c.html#a66ea0a68290a437efcbdf96ffcf44ee6" target="_top" xlink:title="Applies a specified gradient function to an array. ">
<polygon fill="none" stroke="#000000" points="155,-209.5 155,-228.5 265,-228.5 265,-209.5 155,-209.5"/>
<text text-anchor="middle" x="210" y="-216.5" font-family="Helvetica,sans-Serif" font-size="10.00" fill="#000000">neural_gradient_array</text>
</a>
</g>
</g>
<!-- Node0&#45;&gt;Node7 -->
<g id="edge7" class="edge">
<title>Node0&#45;&gt;Node7</title>
<path fill="none" stroke="#191970" d="M99.4361,-260.8747C122.9519,-251.9684 152.418,-240.8085 175.0164,-232.2496"/>
<polygon fill="#191970" stroke="#191970" points="176.4441,-235.4516 184.5562,-228.6365 173.9648,-228.9053 176.4441,-235.4516"/>
</g>
<!-- Node3 -->
<g id="node4" class="node">
<title>Node3</title>
<g id="a_node4"><a xlink:href="blas_8c.html#a19039ca820abf5f9fe5963ce118f836d" target="_top" xlink:title="gemm_nn">
<polygon fill="none" stroke="#000000" points="313,-342.5 313,-361.5 372,-361.5 372,-342.5 313,-342.5"/>
<text text-anchor="middle" x="342.5" y="-349.5" font-family="Helvetica,sans-Serif" font-size="10.00" fill="#000000">gemm_nn</text>
</a>
</g>
</g>
<!-- Node2&#45;&gt;Node3 -->
<g id="edge3" class="edge">
<title>Node2&#45;&gt;Node3</title>
<path fill="none" stroke="#191970" d="M243.7644,-284.8015C251.0774,-287.4762 258.5465,-290.8406 265,-295 284.5547,-307.6035 282.0775,-319.4658 301,-333 303.3565,-334.6855 305.8864,-336.2771 308.4921,-337.7672"/>
<polygon fill="#191970" stroke="#191970" points="307.012,-340.9421 317.5016,-342.4318 310.2305,-334.7259 307.012,-340.9421"/>
</g>
<!-- Node4 -->
<g id="node5" class="node">
<title>Node4</title>
<g id="a_node5"><a xlink:href="blas_8c.html#aca9b706fd3bbf0bd260e60636311846d" target="_top" xlink:title="gemm_nt">
<polygon fill="none" stroke="#000000" points="314,-304.5 314,-323.5 371,-323.5 371,-304.5 314,-304.5"/>
<text text-anchor="middle" x="342.5" y="-311.5" font-family="Helvetica,sans-Serif" font-size="10.00" fill="#000000">gemm_nt</text>
</a>
</g>
</g>
<!-- Node2&#45;&gt;Node4 -->
<g id="edge4" class="edge">
<title>Node2&#45;&gt;Node4</title>
<path fill="none" stroke="#191970" d="M243.4353,-285.589C261.8455,-290.8689 284.7787,-297.446 303.9421,-302.9419"/>
<polygon fill="#191970" stroke="#191970" points="302.9984,-306.3123 313.5758,-305.7048 304.9282,-299.5835 302.9984,-306.3123"/>
</g>
<!-- Node5 -->
<g id="node6" class="node">
<title>Node5</title>
<g id="a_node6"><a xlink:href="blas_8c.html#a1903d50ec698fb744676468e78834763" target="_top" xlink:title="gemm_tn">
<polygon fill="none" stroke="#000000" points="314,-266.5 314,-285.5 371,-285.5 371,-266.5 314,-266.5"/>
<text text-anchor="middle" x="342.5" y="-273.5" font-family="Helvetica,sans-Serif" font-size="10.00" fill="#000000">gemm_tn</text>
</a>
</g>
</g>
<!-- Node2&#45;&gt;Node5 -->
<g id="edge5" class="edge">
<title>Node2&#45;&gt;Node5</title>
<path fill="none" stroke="#191970" d="M243.7782,-276C262.0215,-276 284.6293,-276 303.605,-276"/>
<polygon fill="#191970" stroke="#191970" points="303.7227,-279.5001 313.7227,-276 303.7226,-272.5001 303.7227,-279.5001"/>
</g>
<!-- Node6 -->
<g id="node7" class="node">
<title>Node6</title>
<g id="a_node7"><a xlink:href="blas_8c.html#a4f55eb00f6ea7089b7f77697e9511ec0" target="_top" xlink:title="gemm_tt">
<polygon fill="none" stroke="#000000" points="315,-228.5 315,-247.5 370,-247.5 370,-228.5 315,-228.5"/>
<text text-anchor="middle" x="342.5" y="-235.5" font-family="Helvetica,sans-Serif" font-size="10.00" fill="#000000">gemm_tt</text>
</a>
</g>
</g>
<!-- Node2&#45;&gt;Node6 -->
<g id="edge6" class="edge">
<title>Node2&#45;&gt;Node6</title>
<path fill="none" stroke="#191970" d="M243.4353,-266.411C262.2372,-261.0188 285.7566,-254.2736 305.1601,-248.7088"/>
<polygon fill="#191970" stroke="#191970" points="306.2373,-252.041 314.8849,-245.9198 304.3075,-245.3123 306.2373,-252.041"/>
</g>
<!-- Node8 -->
<g id="node9" class="node">
<title>Node8</title>
<g id="a_node9"><a xlink:href="neural__activations_8c.html#ae0e362ecef519d009b3cc0ac0bdde091" target="_top" xlink:title="Returns the derivative from applying a specified activation function. ">
<polygon fill="none" stroke="#000000" points="301,-190.5 301,-209.5 384,-209.5 384,-190.5 301,-190.5"/>
<text text-anchor="middle" x="342.5" y="-197.5" font-family="Helvetica,sans-Serif" font-size="10.00" fill="#000000">neural_gradient</text>
</a>
</g>
</g>
<!-- Node7&#45;&gt;Node8 -->
<g id="edge8" class="edge">
<title>Node7&#45;&gt;Node8</title>
<path fill="none" stroke="#191970" d="M265.0408,-211.1074C273.5331,-209.8896 282.2784,-208.6356 290.6966,-207.4284"/>
<polygon fill="#191970" stroke="#191970" points="291.3618,-210.8689 300.7637,-205.9848 290.3681,-203.9398 291.3618,-210.8689"/>
</g>
<!-- Node9 -->
<g id="node10" class="node">
<title>Node9</title>
<g id="a_node10"><a xlink:href="neural__activations_8h.html#aeb419ce905e0dc5552b80a2cbee8d7b4" target="_top" xlink:title="cos_gradient">
<polygon fill="none" stroke="#000000" points="432,-380.5 432,-399.5 504,-399.5 504,-380.5 432,-380.5"/>
<text text-anchor="middle" x="468" y="-387.5" font-family="Helvetica,sans-Serif" font-size="10.00" fill="#000000">cos_gradient</text>
</a>
</g>
</g>
<!-- Node8&#45;&gt;Node9 -->
<g id="edge9" class="edge">
<title>Node8&#45;&gt;Node9</title>
<path fill="none" stroke="#191970" d="M372.5084,-209.6524C376.8433,-212.1286 380.8841,-215.2016 384,-219 428.0306,-272.6755 374.5774,-318.4972 420,-371 421.0262,-372.1861 422.1364,-373.2989 423.3143,-374.3428"/>
<polygon fill="#191970" stroke="#191970" points="421.683,-377.4701 431.8985,-380.2798 425.6648,-371.7129 421.683,-377.4701"/>
</g>
<!-- Node10 -->
<g id="node11" class="node">
<title>Node10</title>
<g id="a_node11"><a xlink:href="neural__activations_8h.html#a1e70d48042f40da0117b80f8311091cd" target="_top" xlink:title="gaussian_gradient">
<polygon fill="none" stroke="#000000" points="420.5,-342.5 420.5,-361.5 515.5,-361.5 515.5,-342.5 420.5,-342.5"/>
<text text-anchor="middle" x="468" y="-349.5" font-family="Helvetica,sans-Serif" font-size="10.00" fill="#000000">gaussian_gradient</text>
</a>
</g>
</g>
<!-- Node8&#45;&gt;Node10 -->
<g id="edge10" class="edge">
<title>Node8&#45;&gt;Node10</title>
<path fill="none" stroke="#191970" d="M371.8491,-209.618C376.3693,-212.1119 380.642,-215.1996 384,-219 419.1812,-258.817 383.7871,-294.119 420,-333 421.2179,-334.3076 422.5372,-335.5267 423.9347,-336.6633"/>
<polygon fill="#191970" stroke="#191970" points="422.3399,-339.8008 432.6332,-342.3104 426.1516,-333.9296 422.3399,-339.8008"/>
</g>
<!-- Node11 -->
<g id="node12" class="node">
<title>Node11</title>
<g id="a_node12"><a xlink:href="neural__activations_8h.html#a6c81fc6e0fd95e773769d8da1aba0ae7" target="_top" xlink:title="leaky_gradient">
<polygon fill="none" stroke="#000000" points="428,-304.5 428,-323.5 508,-323.5 508,-304.5 428,-304.5"/>
<text text-anchor="middle" x="468" y="-311.5" font-family="Helvetica,sans-Serif" font-size="10.00" fill="#000000">leaky_gradient</text>
</a>
</g>
</g>
<!-- Node8&#45;&gt;Node11 -->
<g id="edge11" class="edge">
<title>Node8&#45;&gt;Node11</title>
<path fill="none" stroke="#191970" d="M370.5667,-209.5662C375.4394,-212.0998 380.1651,-215.2147 384,-219 410.6001,-245.2559 392.7207,-269.4505 420,-295 421.6476,-296.5431 423.4357,-297.9665 425.3206,-299.2789"/>
<polygon fill="#191970" stroke="#191970" points="423.6625,-302.3632 434.0698,-304.3477 427.1716,-296.3062 423.6625,-302.3632"/>
</g>
<!-- Node12 -->
<g id="node13" class="node">
<title>Node12</title>
<g id="a_node13"><a xlink:href="neural__activations_8h.html#ac1addc462b61b54a55c80efcfb03a98b" target="_top" xlink:title="linear_gradient">
<polygon fill="none" stroke="#000000" points="428,-266.5 428,-285.5 508,-285.5 508,-266.5 428,-266.5"/>
<text text-anchor="middle" x="468" y="-273.5" font-family="Helvetica,sans-Serif" font-size="10.00" fill="#000000">linear_gradient</text>
</a>
</g>
</g>
<!-- Node8&#45;&gt;Node12 -->
<g id="edge12" class="edge">
<title>Node8&#45;&gt;Node12</title>
<path fill="none" stroke="#191970" d="M367.4984,-209.5682C373.1564,-212.2359 378.9728,-215.4043 384,-219 402.9225,-232.5342 400.7292,-243.9665 420,-257 422.7468,-258.8578 425.7024,-260.5754 428.7489,-262.1547"/>
<polygon fill="#191970" stroke="#191970" points="427.5004,-265.434 438.0436,-266.4788 430.4531,-259.0873 427.5004,-265.434"/>
</g>
<!-- Node13 -->
<g id="node14" class="node">
<title>Node13</title>
<g id="a_node14"><a xlink:href="neural__activations_8h.html#a62402386587022e3acb22609c539c916" target="_top" xlink:title="loggy_gradient">
<polygon fill="none" stroke="#000000" points="428,-228.5 428,-247.5 508,-247.5 508,-228.5 428,-228.5"/>
<text text-anchor="middle" x="468" y="-235.5" font-family="Helvetica,sans-Serif" font-size="10.00" fill="#000000">loggy_gradient</text>
</a>
</g>
</g>
<!-- Node8&#45;&gt;Node13 -->
<g id="edge13" class="edge">
<title>Node8&#45;&gt;Node13</title>
<path fill="none" stroke="#191970" d="M374.1689,-209.589C390.0725,-214.4044 409.5396,-220.2988 426.6114,-225.468"/>
<polygon fill="#191970" stroke="#191970" points="425.756,-228.8658 436.3412,-228.4141 427.7846,-222.1662 425.756,-228.8658"/>
</g>
<!-- Node14 -->
<g id="node15" class="node">
<title>Node14</title>
<g id="a_node15"><a xlink:href="neural__activations_8h.html#a76d382cd4a11b7a3494c21322e5ac896" target="_top" xlink:title="logistic_gradient">
<polygon fill="none" stroke="#000000" points="424.5,-190.5 424.5,-209.5 511.5,-209.5 511.5,-190.5 424.5,-190.5"/>
<text text-anchor="middle" x="468" y="-197.5" font-family="Helvetica,sans-Serif" font-size="10.00" fill="#000000">logistic_gradient</text>
</a>
</g>
</g>
<!-- Node8&#45;&gt;Node14 -->
<g id="edge14" class="edge">
<title>Node8&#45;&gt;Node14</title>
<path fill="none" stroke="#191970" d="M384.2897,-200C393.8155,-200 404.0695,-200 414.0231,-200"/>
<polygon fill="#191970" stroke="#191970" points="414.2439,-203.5001 424.2438,-200 414.2438,-196.5001 414.2439,-203.5001"/>
</g>
<!-- Node15 -->
<g id="node16" class="node">
<title>Node15</title>
<g id="a_node16"><a xlink:href="neural__activations_8h.html#a6e49e33b48cd376b129aeeafb65c8807" target="_top" xlink:title="relu_gradient">
<polygon fill="none" stroke="#000000" points="432,-152.5 432,-171.5 504,-171.5 504,-152.5 432,-152.5"/>
<text text-anchor="middle" x="468" y="-159.5" font-family="Helvetica,sans-Serif" font-size="10.00" fill="#000000">relu_gradient</text>
</a>
</g>
</g>
<!-- Node8&#45;&gt;Node15 -->
<g id="edge15" class="edge">
<title>Node8&#45;&gt;Node15</title>
<path fill="none" stroke="#191970" d="M374.1689,-190.411C390.0725,-185.5956 409.5396,-179.7012 426.6114,-174.532"/>
<polygon fill="#191970" stroke="#191970" points="427.7846,-177.8338 436.3412,-171.5859 425.756,-171.1342 427.7846,-177.8338"/>
</g>
<!-- Node16 -->
<g id="node17" class="node">
<title>Node16</title>
<g id="a_node17"><a xlink:href="neural__activations_8h.html#a29868e973d463d10ef85a817f8e91add" target="_top" xlink:title="selu_gradient">
<polygon fill="none" stroke="#000000" points="431,-114.5 431,-133.5 505,-133.5 505,-114.5 431,-114.5"/>
<text text-anchor="middle" x="468" y="-121.5" font-family="Helvetica,sans-Serif" font-size="10.00" fill="#000000">selu_gradient</text>
</a>
</g>
</g>
<!-- Node8&#45;&gt;Node16 -->
<g id="edge16" class="edge">
<title>Node8&#45;&gt;Node16</title>
<path fill="none" stroke="#191970" d="M353.685,-190.3228C368.2145,-178.1042 394.7195,-156.9928 420,-143 423.4735,-141.0774 427.1821,-139.2513 430.9404,-137.5458"/>
<polygon fill="#191970" stroke="#191970" points="432.4504,-140.707 440.2796,-133.5688 429.7077,-134.2667 432.4504,-140.707"/>
</g>
<!-- Node17 -->
<g id="node18" class="node">
<title>Node17</title>
<g id="a_node18"><a xlink:href="neural__activations_8h.html#ae81fb7fd858fb67cf5bb3514dbf399ce" target="_top" xlink:title="sin_gradient">
<polygon fill="none" stroke="#000000" points="433.5,-76.5 433.5,-95.5 502.5,-95.5 502.5,-76.5 433.5,-76.5"/>
<text text-anchor="middle" x="468" y="-83.5" font-family="Helvetica,sans-Serif" font-size="10.00" fill="#000000">sin_gradient</text>
</a>
</g>
</g>
<!-- Node8&#45;&gt;Node17 -->
<g id="edge17" class="edge">
<title>Node8&#45;&gt;Node17</title>
<path fill="none" stroke="#191970" d="M348.0715,-190.2732C359.3518,-171.3678 386.6756,-129.3844 420,-105 422.4874,-103.1799 425.1728,-101.5059 427.958,-99.9716"/>
<polygon fill="#191970" stroke="#191970" points="429.6112,-103.0596 437.074,-95.5391 426.5502,-96.7644 429.6112,-103.0596"/>
</g>
<!-- Node18 -->
<g id="node19" class="node">
<title>Node18</title>
<g id="a_node19"><a xlink:href="neural__activations_8h.html#ad35d1ffc99173b6570b4b6076e97c1d0" target="_top" xlink:title="soft_plus_gradient">
<polygon fill="none" stroke="#000000" points="420,-38.5 420,-57.5 516,-57.5 516,-38.5 420,-38.5"/>
<text text-anchor="middle" x="468" y="-45.5" font-family="Helvetica,sans-Serif" font-size="10.00" fill="#000000">soft_plus_gradient</text>
</a>
</g>
</g>
<!-- Node8&#45;&gt;Node18 -->
<g id="edge18" class="edge">
<title>Node8&#45;&gt;Node18</title>
<path fill="none" stroke="#191970" d="M345.6765,-190.1656C353.9914,-165.8938 378.6575,-102.5386 420,-67 421.7671,-65.481 423.6703,-64.0745 425.6639,-62.7735"/>
<polygon fill="#191970" stroke="#191970" points="427.7681,-65.6105 434.8402,-57.7215 424.392,-59.4783 427.7681,-65.6105"/>
</g>
<!-- Node19 -->
<g id="node20" class="node">
<title>Node19</title>
<g id="a_node20"><a xlink:href="neural__activations_8h.html#a9ff181117fd714ae3d53c60f48eef8b0" target="_top" xlink:title="tanh_gradient">
<polygon fill="none" stroke="#000000" points="430.5,-.5 430.5,-19.5 505.5,-19.5 505.5,-.5 430.5,-.5"/>
<text text-anchor="middle" x="468" y="-7.5" font-family="Helvetica,sans-Serif" font-size="10.00" fill="#000000">tanh_gradient</text>
</a>
</g>
</g>
<!-- Node8&#45;&gt;Node19 -->
<g id="edge19" class="edge">
<title>Node8&#45;&gt;Node19</title>
<path fill="none" stroke="#191970" d="M344.226,-190.4033C349.8443,-161.8426 370.202,-76.434 420,-29 421.6346,-27.443 423.4121,-26.0085 425.2887,-24.6874"/>
<polygon fill="#191970" stroke="#191970" points="427.1428,-27.6579 434.0145,-19.5937 423.6137,-21.6125 427.1428,-27.6579"/>
</g>
</g>
</svg>
