<?xml version="1.0" encoding="UTF-8" standalone="no"?>
<!DOCTYPE svg PUBLIC "-//W3C//DTD SVG 1.1//EN"
 "http://www.w3.org/Graphics/SVG/1.1/DTD/svg11.dtd">
<!-- Generated by graphviz version 2.40.1 (20161225.0304)
 -->
<!-- Title: neural_rand Pages: 1 -->
<svg width="373pt" height="66pt"
 viewBox="0.00 0.00 373.00 66.00" xmlns="http://www.w3.org/2000/svg" xmlns:xlink="http://www.w3.org/1999/xlink">
<g id="graph0" class="graph" transform="scale(1 1) rotate(0) translate(4 62)">
<title>neural_rand</title>
<!-- Node91 -->
<g id="node1" class="node">
<title>Node91</title>
<polygon fill="#bfbfbf" stroke="#000000" points="0,-19.5 0,-38.5 67,-38.5 67,-19.5 0,-19.5"/>
<text text-anchor="middle" x="33.5" y="-26.5" font-family="Helvetica,sans-Serif" font-size="10.00" fill="#000000">neural_rand</text>
</g>
<!-- Node92 -->
<g id="node2" class="node">
<title>Node92</title>
<g id="a_node2"><a xlink:href="$cond__neural_8c.html#ab493e465cc7532be5695442c1599ddc2" xlink:title="cond_neural_rand">
<polygon fill="none" stroke="#000000" points="113.5,-38.5 113.5,-57.5 206.5,-57.5 206.5,-38.5 113.5,-38.5"/>
<text text-anchor="middle" x="160" y="-45.5" font-family="Helvetica,sans-Serif" font-size="10.00" fill="#000000">cond_neural_rand</text>
</a>
</g>
</g>
<!-- Node91&#45;&gt;Node92 -->
<g id="edge1" class="edge">
<title>Node91&#45;&gt;Node92</title>
<path fill="none" stroke="#191970" d="M77.0702,-35.5441C88.799,-37.3058 101.5307,-39.218 113.4168,-41.0033"/>
<polygon fill="#191970" stroke="#191970" points="77.4765,-32.066 67.0676,-34.0418 76.4368,-38.9883 77.4765,-32.066"/>
</g>
<!-- Node94 -->
<g id="node4" class="node">
<title>Node94</title>
<g id="a_node4"><a xlink:href="$rule__neural_8c.html#a0b0a54bbc3577f23bf2bbaafa57c9728" xlink:title="rule_neural_cond_rand">
<polygon fill="none" stroke="#000000" points="103,-.5 103,-19.5 217,-19.5 217,-.5 103,-.5"/>
<text text-anchor="middle" x="160" y="-7.5" font-family="Helvetica,sans-Serif" font-size="10.00" fill="#000000">rule_neural_cond_rand</text>
</a>
</g>
</g>
<!-- Node91&#45;&gt;Node94 -->
<g id="edge3" class="edge">
<title>Node91&#45;&gt;Node94</title>
<path fill="none" stroke="#191970" d="M77.2058,-22.4355C85.4555,-21.1964 94.1971,-19.8834 102.7888,-18.593"/>
<polygon fill="#191970" stroke="#191970" points="76.4368,-19.0117 67.0676,-23.9582 77.4765,-25.934 76.4368,-19.0117"/>
</g>
<!-- Node93 -->
<g id="node3" class="node">
<title>Node93</title>
<g id="a_node3"><a xlink:href="$cond__neural_8h.html#a77edd04a62eef7207189fde1ac846358" xlink:title="cond_neural_cover">
<polygon fill="none" stroke="#000000" points="260,-38.5 260,-57.5 358,-57.5 358,-38.5 260,-38.5"/>
<text text-anchor="middle" x="309" y="-45.5" font-family="Helvetica,sans-Serif" font-size="10.00" fill="#000000">cond_neural_cover</text>
</a>
</g>
</g>
<!-- Node92&#45;&gt;Node93 -->
<g id="edge2" class="edge">
<title>Node92&#45;&gt;Node93</title>
<path fill="none" stroke="#191970" d="M216.86,-48C231.0266,-48 246.096,-48 259.8554,-48"/>
<polygon fill="#191970" stroke="#191970" points="216.7358,-44.5001 206.7357,-48 216.7357,-51.5001 216.7358,-44.5001"/>
</g>
<!-- Node95 -->
<g id="node5" class="node">
<title>Node95</title>
<g id="a_node5"><a xlink:href="$rule__neural_8h.html#a72b4ea53a4ca876b4216a7f81b438bba" xlink:title="rule_neural_act_cover">
<polygon fill="none" stroke="#000000" points="253,-.5 253,-19.5 365,-19.5 365,-.5 253,-.5"/>
<text text-anchor="middle" x="309" y="-7.5" font-family="Helvetica,sans-Serif" font-size="10.00" fill="#000000">rule_neural_act_cover</text>
</a>
</g>
</g>
<!-- Node94&#45;&gt;Node95 -->
<g id="edge4" class="edge">
<title>Node94&#45;&gt;Node95</title>
<path fill="none" stroke="#191970" d="M227.4074,-10C235.8655,-10 244.4466,-10 252.7093,-10"/>
<polygon fill="#191970" stroke="#191970" points="227.1812,-6.5001 217.1812,-10 227.1811,-13.5001 227.1812,-6.5001"/>
</g>
</g>
</svg>
