<?xml version="1.0" encoding="UTF-8" standalone="no"?>
<!DOCTYPE svg PUBLIC "-//W3C//DTD SVG 1.1//EN"
 "http://www.w3.org/Graphics/SVG/1.1/DTD/svg11.dtd">
<!-- Generated by graphviz version 2.40.1 (20161225.0304)
 -->
<!-- Title: neural_layer_connected_mutate Pages: 1 -->
<svg width="916pt" height="156pt"
 viewBox="0.00 0.00 916.00 155.74" xmlns="http://www.w3.org/2000/svg" xmlns:xlink="http://www.w3.org/1999/xlink">
<g id="graph0" class="graph" transform="scale(1 1) rotate(0) translate(4 151.7382)">
<title>neural_layer_connected_mutate</title>
<!-- Node79 -->
<g id="node1" class="node">
<title>Node79</title>
<polygon fill="#bfbfbf" stroke="#000000" points="0,-65.7382 0,-95.7382 119,-95.7382 119,-65.7382 0,-65.7382"/>
<text text-anchor="start" x="8" y="-83.7382" font-family="Helvetica,sans-Serif" font-size="10.00" fill="#000000">neural_layer_connected</text>
<text text-anchor="middle" x="59.5" y="-72.7382" font-family="Helvetica,sans-Serif" font-size="10.00" fill="#000000">_mutate</text>
</g>
<!-- Node80 -->
<g id="node2" class="node">
<title>Node80</title>
<g id="a_node2"><a xlink:href="$neural__layer__connected_8c.html#a89e19cb309ae3cc7722d8dac64ea0a8c" xlink:title="mutate_eta">
<polygon fill="none" stroke="#000000" points="168.5,-128.2382 168.5,-147.2382 233.5,-147.2382 233.5,-128.2382 168.5,-128.2382"/>
<text text-anchor="middle" x="201" y="-135.2382" font-family="Helvetica,sans-Serif" font-size="10.00" fill="#000000">mutate_eta</text>
</a>
</g>
</g>
<!-- Node79&#45;&gt;Node80 -->
<g id="edge1" class="edge">
<title>Node79&#45;&gt;Node80</title>
<path fill="none" stroke="#191970" d="M97.0479,-95.8635C118.9591,-104.6899 146.365,-115.7298 167.5353,-124.2577"/>
<polygon fill="#191970" stroke="#191970" points="166.4943,-127.6116 177.0778,-128.1017 169.1098,-121.1186 166.4943,-127.6116"/>
</g>
<!-- Node87 -->
<g id="node9" class="node">
<title>Node87</title>
<g id="a_node9"><a xlink:href="$neural__layer__connected_8c.html#ac1c67136ea139779a7c2f91b59a62edd" xlink:title="mutate_functions">
<polygon fill="none" stroke="#000000" points="155,-14.2382 155,-33.2382 247,-33.2382 247,-14.2382 155,-14.2382"/>
<text text-anchor="middle" x="201" y="-21.2382" font-family="Helvetica,sans-Serif" font-size="10.00" fill="#000000">mutate_functions</text>
</a>
</g>
</g>
<!-- Node79&#45;&gt;Node87 -->
<g id="edge8" class="edge">
<title>Node79&#45;&gt;Node87</title>
<path fill="none" stroke="#191970" d="M97.0479,-65.6129C118.9591,-56.7865 146.365,-45.7467 167.5353,-37.2187"/>
<polygon fill="#191970" stroke="#191970" points="169.1098,-40.3578 177.0778,-33.3747 166.4943,-33.8648 169.1098,-40.3578"/>
</g>
<!-- Node90 -->
<g id="node12" class="node">
<title>Node90</title>
<g id="a_node12"><a xlink:href="$neural__layer__connected_8c.html#ad933cd5004ffd10751af44495d2ce68d" xlink:title="mutate_neurons">
<polygon fill="none" stroke="#000000" points="158,-52.2382 158,-71.2382 244,-71.2382 244,-52.2382 158,-52.2382"/>
<text text-anchor="middle" x="201" y="-59.2382" font-family="Helvetica,sans-Serif" font-size="10.00" fill="#000000">mutate_neurons</text>
</a>
</g>
</g>
<!-- Node79&#45;&gt;Node90 -->
<g id="edge13" class="edge">
<title>Node79&#45;&gt;Node90</title>
<path fill="none" stroke="#191970" d="M119.0986,-72.7356C128.6389,-71.4546 138.4567,-70.1363 147.8344,-68.8771"/>
<polygon fill="#191970" stroke="#191970" points="148.3583,-72.3382 157.8036,-67.5385 147.4267,-65.4005 148.3583,-72.3382"/>
</g>
<!-- Node91 -->
<g id="node13" class="node">
<title>Node91</title>
<g id="a_node13"><a xlink:href="$neural__layer__connected_8c.html#a587edba8a58f8356b4cadf6d1bb75c03" xlink:title="mutate_weights">
<polygon fill="none" stroke="#000000" points="158,-90.2382 158,-109.2382 244,-109.2382 244,-90.2382 158,-90.2382"/>
<text text-anchor="middle" x="201" y="-97.2382" font-family="Helvetica,sans-Serif" font-size="10.00" fill="#000000">mutate_weights</text>
</a>
</g>
</g>
<!-- Node79&#45;&gt;Node91 -->
<g id="edge16" class="edge">
<title>Node79&#45;&gt;Node91</title>
<path fill="none" stroke="#191970" d="M119.0986,-88.7409C128.6389,-90.0219 138.4567,-91.3402 147.8344,-92.5994"/>
<polygon fill="#191970" stroke="#191970" points="147.4267,-96.076 157.8036,-93.938 148.3583,-89.1382 147.4267,-96.076"/>
</g>
<!-- Node81 -->
<g id="node3" class="node">
<title>Node81</title>
<g id="a_node3"><a xlink:href="$utils_8c.html#a4d9693be6ce890dc7a2ee825d11ca3ee" xlink:title="Returns a float constrained within the specified range. ">
<polygon fill="none" stroke="#000000" points="292.5,-128.2382 292.5,-147.2382 348.5,-147.2382 348.5,-128.2382 292.5,-128.2382"/>
<text text-anchor="middle" x="320.5" y="-135.2382" font-family="Helvetica,sans-Serif" font-size="10.00" fill="#000000">constrain</text>
</a>
</g>
</g>
<!-- Node80&#45;&gt;Node81 -->
<g id="edge2" class="edge">
<title>Node80&#45;&gt;Node81</title>
<path fill="none" stroke="#191970" d="M233.6539,-137.7382C248.5892,-137.7382 266.3902,-137.7382 281.9763,-137.7382"/>
<polygon fill="#191970" stroke="#191970" points="282.3504,-141.2383 292.3504,-137.7382 282.3504,-134.2383 282.3504,-141.2383"/>
</g>
<!-- Node82 -->
<g id="node4" class="node">
<title>Node82</title>
<g id="a_node4"><a xlink:href="$utils_8c.html#aa57fc0f69e730ce0a348c25ee498643d" xlink:title="Returns a normal random float with specified mean and standard deviation. ">
<polygon fill="none" stroke="#000000" points="285.5,-90.2382 285.5,-109.2382 355.5,-109.2382 355.5,-90.2382 285.5,-90.2382"/>
<text text-anchor="middle" x="320.5" y="-97.2382" font-family="Helvetica,sans-Serif" font-size="10.00" fill="#000000">rand_normal</text>
</a>
</g>
</g>
<!-- Node80&#45;&gt;Node82 -->
<g id="edge3" class="edge">
<title>Node80&#45;&gt;Node82</title>
<path fill="none" stroke="#191970" d="M231.1549,-128.1492C246.1566,-123.3788 264.4883,-117.5495 280.6338,-112.4153"/>
<polygon fill="#191970" stroke="#191970" points="281.8856,-115.69 290.3548,-109.3242 279.7643,-109.0192 281.8856,-115.69"/>
</g>
<!-- Node83 -->
<g id="node5" class="node">
<title>Node83</title>
<g id="a_node5"><a xlink:href="$utils_8c.html#a0c0a81e7797a05c535bad34449d8642c" xlink:title="Returns a uniform random float [0,1]. ">
<polygon fill="none" stroke="#000000" points="503,-52.2382 503,-71.2382 544,-71.2382 544,-52.2382 503,-52.2382"/>
<text text-anchor="middle" x="523.5" y="-59.2382" font-family="Helvetica,sans-Serif" font-size="10.00" fill="#000000">drand</text>
</a>
</g>
</g>
<!-- Node82&#45;&gt;Node83 -->
<g id="edge4" class="edge">
<title>Node82&#45;&gt;Node83</title>
<path fill="none" stroke="#191970" d="M355.8599,-93.1191C394.5276,-85.8808 455.8787,-74.3964 492.6599,-67.5113"/>
<polygon fill="#191970" stroke="#191970" points="493.6032,-70.8955 502.7885,-65.6153 492.3152,-64.0151 493.6032,-70.8955"/>
</g>
<!-- Node84 -->
<g id="node6" class="node">
<title>Node84</title>
<g id="a_node6"><a xlink:href="$mt19937-64_8c.html#aa0b74daf51eca91df224d00f1730084a" xlink:title="genrand64_real1">
<polygon fill="none" stroke="#000000" points="580,-52.2382 580,-71.2382 668,-71.2382 668,-52.2382 580,-52.2382"/>
<text text-anchor="middle" x="624" y="-59.2382" font-family="Helvetica,sans-Serif" font-size="10.00" fill="#000000">genrand64_real1</text>
</a>
</g>
</g>
<!-- Node83&#45;&gt;Node84 -->
<g id="edge5" class="edge">
<title>Node83&#45;&gt;Node84</title>
<path fill="none" stroke="#191970" d="M544.3237,-61.7382C551.8428,-61.7382 560.7193,-61.7382 569.769,-61.7382"/>
<polygon fill="#191970" stroke="#191970" points="569.9969,-65.2383 579.9969,-61.7382 569.9969,-58.2383 569.9969,-65.2383"/>
</g>
<!-- Node85 -->
<g id="node7" class="node">
<title>Node85</title>
<g id="a_node7"><a xlink:href="$mt19937-64_8c.html#a265bf48d20d6e0347371fcf4fe340e6d" xlink:title="genrand64_int64">
<polygon fill="none" stroke="#000000" points="704,-52.2382 704,-71.2382 792,-71.2382 792,-52.2382 704,-52.2382"/>
<text text-anchor="middle" x="748" y="-59.2382" font-family="Helvetica,sans-Serif" font-size="10.00" fill="#000000">genrand64_int64</text>
</a>
</g>
</g>
<!-- Node84&#45;&gt;Node85 -->
<g id="edge6" class="edge">
<title>Node84&#45;&gt;Node85</title>
<path fill="none" stroke="#191970" d="M668.0669,-61.7382C676.2822,-61.7382 684.957,-61.7382 693.4432,-61.7382"/>
<polygon fill="#191970" stroke="#191970" points="693.6572,-65.2383 703.6572,-61.7382 693.6572,-58.2383 693.6572,-65.2383"/>
</g>
<!-- Node86 -->
<g id="node8" class="node">
<title>Node86</title>
<g id="a_node8"><a xlink:href="$mt19937-64_8c.html#adf4127d44c2dc34fcb318d406131ef7c" xlink:title="init_genrand64">
<polygon fill="none" stroke="#000000" points="828,-52.2382 828,-71.2382 908,-71.2382 908,-52.2382 828,-52.2382"/>
<text text-anchor="middle" x="868" y="-59.2382" font-family="Helvetica,sans-Serif" font-size="10.00" fill="#000000">init_genrand64</text>
</a>
</g>
</g>
<!-- Node85&#45;&gt;Node86 -->
<g id="edge7" class="edge">
<title>Node85&#45;&gt;Node86</title>
<path fill="none" stroke="#191970" d="M792.0022,-61.7382C800.3719,-61.7382 809.1896,-61.7382 817.7365,-61.7382"/>
<polygon fill="#191970" stroke="#191970" points="817.9792,-65.2383 827.9792,-61.7382 817.9792,-58.2383 817.9792,-65.2383"/>
</g>
<!-- Node88 -->
<g id="node10" class="node">
<title>Node88</title>
<g id="a_node10"><a xlink:href="$utils_8c.html#a32648ab076544a9ac1c086d0f07b599f" xlink:title="Returns a uniform random integer [min,max] not inclusive of max. ">
<polygon fill="none" stroke="#000000" points="283,-14.2382 283,-33.2382 358,-33.2382 358,-14.2382 283,-14.2382"/>
<text text-anchor="middle" x="320.5" y="-21.2382" font-family="Helvetica,sans-Serif" font-size="10.00" fill="#000000">irand_uniform</text>
</a>
</g>
</g>
<!-- Node87&#45;&gt;Node88 -->
<g id="edge9" class="edge">
<title>Node87&#45;&gt;Node88</title>
<path fill="none" stroke="#191970" d="M247.2018,-23.7382C255.6066,-23.7382 264.3889,-23.7382 272.835,-23.7382"/>
<polygon fill="#191970" stroke="#191970" points="272.9227,-27.2383 282.9226,-23.7382 272.9226,-20.2383 272.9227,-27.2383"/>
</g>
<!-- Node89 -->
<g id="node11" class="node">
<title>Node89</title>
<g id="a_node11"><a xlink:href="$utils_8c.html#ae42a9e1d467853befaa7922cfafed3bb" xlink:title="Returns a uniform random float [min,max]. ">
<polygon fill="none" stroke="#000000" points="394,-33.2382 394,-52.2382 467,-52.2382 467,-33.2382 394,-33.2382"/>
<text text-anchor="middle" x="430.5" y="-40.2382" font-family="Helvetica,sans-Serif" font-size="10.00" fill="#000000">rand_uniform</text>
</a>
</g>
</g>
<!-- Node87&#45;&gt;Node89 -->
<g id="edge12" class="edge">
<title>Node87&#45;&gt;Node89</title>
<path fill="none" stroke="#191970" d="M229.4477,-14.2211C261.1875,-4.9992 313.878,6.124 358,-4.7382 376.0507,-9.1821 394.5844,-19.0065 408.3942,-27.5524"/>
<polygon fill="#191970" stroke="#191970" points="406.8338,-30.7105 417.1362,-33.1826 410.6241,-24.8254 406.8338,-30.7105"/>
</g>
<!-- Node88&#45;&gt;Node89 -->
<g id="edge10" class="edge">
<title>Node88&#45;&gt;Node89</title>
<path fill="none" stroke="#191970" d="M358.0481,-30.2238C366.3686,-31.661 375.2836,-33.2009 383.9154,-34.6918"/>
<polygon fill="#191970" stroke="#191970" points="383.4158,-38.1572 393.8656,-36.4105 384.6073,-31.2594 383.4158,-38.1572"/>
</g>
<!-- Node89&#45;&gt;Node83 -->
<g id="edge11" class="edge">
<title>Node89&#45;&gt;Node83</title>
<path fill="none" stroke="#191970" d="M467.2561,-50.2475C475.7524,-51.9833 484.7031,-53.812 492.9036,-55.4873"/>
<polygon fill="#191970" stroke="#191970" points="492.3007,-58.9364 502.7989,-57.509 493.7019,-52.0781 492.3007,-58.9364"/>
</g>
<!-- Node90&#45;&gt;Node82 -->
<g id="edge14" class="edge">
<title>Node90&#45;&gt;Node82</title>
<path fill="none" stroke="#191970" d="M231.1549,-71.3272C246.1566,-76.0977 264.4883,-81.927 280.6338,-87.0611"/>
<polygon fill="#191970" stroke="#191970" points="279.7643,-90.4573 290.3548,-90.1523 281.8856,-83.7864 279.7643,-90.4573"/>
</g>
<!-- Node90&#45;&gt;Node89 -->
<g id="edge15" class="edge">
<title>Node90&#45;&gt;Node89</title>
<path fill="none" stroke="#191970" d="M244.1672,-58.1645C284.0275,-54.8645 343.0747,-49.976 383.9711,-46.5903"/>
<polygon fill="#191970" stroke="#191970" points="384.2776,-50.077 393.9547,-45.7638 383.7,-43.1009 384.2776,-50.077"/>
</g>
<!-- Node91&#45;&gt;Node82 -->
<g id="edge17" class="edge">
<title>Node91&#45;&gt;Node82</title>
<path fill="none" stroke="#191970" d="M244.1422,-99.7382C254.1651,-99.7382 264.8653,-99.7382 274.9868,-99.7382"/>
<polygon fill="#191970" stroke="#191970" points="275.2723,-103.2383 285.2722,-99.7382 275.2722,-96.2383 275.2723,-103.2383"/>
</g>
</g>
</svg>
