<?xml version="1.0" encoding="UTF-8" standalone="no"?>
<!DOCTYPE svg PUBLIC "-//W3C//DTD SVG 1.1//EN"
 "http://www.w3.org/Graphics/SVG/1.1/DTD/svg11.dtd">
<!-- Generated by graphviz version 2.40.1 (20161225.0304)
 -->
<!-- Title: neural_mutate Pages: 1 -->
<svg width="247pt" height="104pt"
 viewBox="0.00 0.00 247.00 104.00" xmlns="http://www.w3.org/2000/svg" xmlns:xlink="http://www.w3.org/1999/xlink">
<g id="graph0" class="graph" transform="scale(1 1) rotate(0) translate(4 100)">
<title>neural_mutate</title>
<!-- Node99 -->
<g id="node1" class="node">
<title>Node99</title>
<polygon fill="#bfbfbf" stroke="#000000" points="0,-38.5 0,-57.5 78,-57.5 78,-38.5 0,-38.5"/>
<text text-anchor="middle" x="39" y="-45.5" font-family="Helvetica,sans-Serif" font-size="10.00" fill="#000000">neural_mutate</text>
</g>
<!-- Node100 -->
<g id="node2" class="node">
<title>Node100</title>
<g id="a_node2"><a xlink:href="cond__neural_8h.html#a4ee8091e170f4cb117cfa43b3577d9ee" target="_top" xlink:title="cond_neural_mutate">
<polygon fill="none" stroke="#000000" points="124.5,-76.5 124.5,-95.5 228.5,-95.5 228.5,-76.5 124.5,-76.5"/>
<text text-anchor="middle" x="176.5" y="-83.5" font-family="Helvetica,sans-Serif" font-size="10.00" fill="#000000">cond_neural_mutate</text>
</a>
</g>
</g>
<!-- Node99&#45;&gt;Node100 -->
<g id="edge1" class="edge">
<title>Node99&#45;&gt;Node100</title>
<path fill="none" stroke="#191970" d="M83.5729,-60.3183C102.4645,-65.5393 124.1472,-71.5316 141.814,-76.4141"/>
<polygon fill="#191970" stroke="#191970" points="84.2681,-56.8793 73.6971,-57.589 82.4034,-63.6264 84.2681,-56.8793"/>
</g>
<!-- Node101 -->
<g id="node3" class="node">
<title>Node101</title>
<g id="a_node3"><a xlink:href="pred__neural_8h.html#a42013e8c1523bd025a9cc4a157c224fb" target="_top" xlink:title="pred_neural_mutate">
<polygon fill="none" stroke="#000000" points="125.5,-38.5 125.5,-57.5 227.5,-57.5 227.5,-38.5 125.5,-38.5"/>
<text text-anchor="middle" x="176.5" y="-45.5" font-family="Helvetica,sans-Serif" font-size="10.00" fill="#000000">pred_neural_mutate</text>
</a>
</g>
</g>
<!-- Node99&#45;&gt;Node101 -->
<g id="edge2" class="edge">
<title>Node99&#45;&gt;Node101</title>
<path fill="none" stroke="#191970" d="M88.3216,-48C100.3271,-48 113.1936,-48 125.2848,-48"/>
<polygon fill="#191970" stroke="#191970" points="88.0342,-44.5001 78.0342,-48 88.0342,-51.5001 88.0342,-44.5001"/>
</g>
<!-- Node102 -->
<g id="node4" class="node">
<title>Node102</title>
<g id="a_node4"><a xlink:href="rule__neural_8h.html#a19c98cf767abdffbc6f918f1f1fa0b18" target="_top" xlink:title="rule_neural_cond_mutate">
<polygon fill="none" stroke="#000000" points="114,-.5 114,-19.5 239,-19.5 239,-.5 114,-.5"/>
<text text-anchor="middle" x="176.5" y="-7.5" font-family="Helvetica,sans-Serif" font-size="10.00" fill="#000000">rule_neural_cond_mutate</text>
</a>
</g>
</g>
<!-- Node99&#45;&gt;Node102 -->
<g id="edge3" class="edge">
<title>Node99&#45;&gt;Node102</title>
<path fill="none" stroke="#191970" d="M83.5729,-35.6817C102.4645,-30.4607 124.1472,-24.4684 141.814,-19.5859"/>
<polygon fill="#191970" stroke="#191970" points="82.4034,-32.3736 73.6971,-38.411 84.2681,-39.1207 82.4034,-32.3736"/>
</g>
</g>
</svg>
