<?xml version="1.0" encoding="UTF-8" standalone="no"?>
<!DOCTYPE svg PUBLIC "-//W3C//DTD SVG 1.1//EN"
 "http://www.w3.org/Graphics/SVG/1.1/DTD/svg11.dtd">
<!-- Generated by graphviz version 2.40.1 (20161225.0304)
 -->
<!-- Title: neural_layer_dropout.c Pages: 1 -->
<svg width="906pt" height="140pt"
 viewBox="0.00 0.00 905.50 140.00" xmlns="http://www.w3.org/2000/svg" xmlns:xlink="http://www.w3.org/1999/xlink">
<g id="graph0" class="graph" transform="scale(1 1) rotate(0) translate(4 136)">
<title>neural_layer_dropout.c</title>
<!-- Node0 -->
<g id="node1" class="node">
<title>Node0</title>
<polygon fill="#bfbfbf" stroke="#000000" points="305.5,-112.5 305.5,-131.5 420.5,-131.5 420.5,-112.5 305.5,-112.5"/>
<text text-anchor="middle" x="363" y="-119.5" font-family="Helvetica,sans-Serif" font-size="10.00" fill="#000000">neural_layer_dropout.c</text>
</g>
<!-- Node1 -->
<g id="node2" class="node">
<title>Node1</title>
<polygon fill="none" stroke="#bfbfbf" points="0,-56.5 0,-75.5 48,-75.5 48,-56.5 0,-56.5"/>
<text text-anchor="middle" x="24" y="-63.5" font-family="Helvetica,sans-Serif" font-size="10.00" fill="#000000">stdlib.h</text>
</g>
<!-- Node0&#45;&gt;Node1 -->
<g id="edge1" class="edge">
<title>Node0&#45;&gt;Node1</title>
<path fill="none" stroke="#191970" d="M305.2951,-115.8556C245.6048,-108.9334 149.5987,-96.2205 58.0326,-75.9697"/>
<polygon fill="#191970" stroke="#191970" points="58.567,-72.5026 48.043,-73.7259 57.0329,-79.3324 58.567,-72.5026"/>
</g>
<!-- Node2 -->
<g id="node3" class="node">
<title>Node2</title>
<polygon fill="none" stroke="#bfbfbf" points="66,-56.5 66,-75.5 112,-75.5 112,-56.5 66,-56.5"/>
<text text-anchor="middle" x="89" y="-63.5" font-family="Helvetica,sans-Serif" font-size="10.00" fill="#000000">stdio.h</text>
</g>
<!-- Node0&#45;&gt;Node2 -->
<g id="edge2" class="edge">
<title>Node0&#45;&gt;Node2</title>
<path fill="none" stroke="#191970" d="M305.3867,-112.9677C258.4097,-105.168 190.1962,-92.8563 122.3375,-76.131"/>
<polygon fill="#191970" stroke="#191970" points="122.8808,-72.6593 112.3307,-73.6314 121.1843,-79.4506 122.8808,-72.6593"/>
</g>
<!-- Node3 -->
<g id="node4" class="node">
<title>Node3</title>
<polygon fill="none" stroke="#bfbfbf" points="130.5,-56.5 130.5,-75.5 179.5,-75.5 179.5,-56.5 130.5,-56.5"/>
<text text-anchor="middle" x="155" y="-63.5" font-family="Helvetica,sans-Serif" font-size="10.00" fill="#000000">string.h</text>
</g>
<!-- Node0&#45;&gt;Node3 -->
<g id="edge3" class="edge">
<title>Node0&#45;&gt;Node3</title>
<path fill="none" stroke="#191970" d="M325.5829,-112.4266C292.3593,-103.8552 242.2515,-90.7556 189.6976,-76.143"/>
<polygon fill="#191970" stroke="#191970" points="190.4324,-72.7144 179.8597,-73.3976 188.5509,-79.4568 190.4324,-72.7144"/>
</g>
<!-- Node4 -->
<g id="node5" class="node">
<title>Node4</title>
<polygon fill="none" stroke="#bfbfbf" points="198,-56.5 198,-75.5 254,-75.5 254,-56.5 198,-56.5"/>
<text text-anchor="middle" x="226" y="-63.5" font-family="Helvetica,sans-Serif" font-size="10.00" fill="#000000">stdbool.h</text>
</g>
<!-- Node0&#45;&gt;Node4 -->
<g id="edge4" class="edge">
<title>Node0&#45;&gt;Node4</title>
<path fill="none" stroke="#191970" d="M339.4489,-112.3733C317.1609,-103.2629 283.5063,-89.5062 258.6363,-79.3404"/>
<polygon fill="#191970" stroke="#191970" points="259.8247,-76.0451 249.2438,-75.5011 257.1761,-82.5247 259.8247,-76.0451"/>
</g>
<!-- Node5 -->
<g id="node6" class="node">
<title>Node5</title>
<polygon fill="none" stroke="#bfbfbf" points="391.5,-.5 391.5,-19.5 438.5,-19.5 438.5,-.5 391.5,-.5"/>
<text text-anchor="middle" x="415" y="-7.5" font-family="Helvetica,sans-Serif" font-size="10.00" fill="#000000">math.h</text>
</g>
<!-- Node0&#45;&gt;Node5 -->
<g id="edge5" class="edge">
<title>Node0&#45;&gt;Node5</title>
<path fill="none" stroke="#191970" d="M342.0599,-112.3734C318.6772,-100.2459 285.9622,-78.2838 301,-56 318.8114,-29.6062 354.582,-18.3528 381.3292,-13.557"/>
<polygon fill="#191970" stroke="#191970" points="382.1051,-16.9781 391.4406,-11.9682 381.0185,-10.063 382.1051,-16.9781"/>
</g>
<!-- Node6 -->
<g id="node7" class="node">
<title>Node6</title>
<polygon fill="none" stroke="#bfbfbf" points="310,-56.5 310,-75.5 354,-75.5 354,-56.5 310,-56.5"/>
<text text-anchor="middle" x="332" y="-63.5" font-family="Helvetica,sans-Serif" font-size="10.00" fill="#000000">float.h</text>
</g>
<!-- Node0&#45;&gt;Node6 -->
<g id="edge6" class="edge">
<title>Node0&#45;&gt;Node6</title>
<path fill="none" stroke="#191970" d="M357.6002,-112.2455C353.3773,-104.617 347.3827,-93.7881 342.2559,-84.5267"/>
<polygon fill="#191970" stroke="#191970" points="345.2432,-82.6965 337.3379,-75.6427 339.119,-86.0867 345.2432,-82.6965"/>
</g>
<!-- Node7 -->
<g id="node8" class="node">
<title>Node7</title>
<g id="a_node8"><a xlink:href="$xcsf_8h.html" xlink:title="XCSF data structures. ">
<polygon fill="none" stroke="#000000" points="372,-56.5 372,-75.5 416,-75.5 416,-56.5 372,-56.5"/>
<text text-anchor="middle" x="394" y="-63.5" font-family="Helvetica,sans-Serif" font-size="10.00" fill="#000000">xcsf.h</text>
</a>
</g>
</g>
<!-- Node0&#45;&gt;Node7 -->
<g id="edge7" class="edge">
<title>Node0&#45;&gt;Node7</title>
<path fill="none" stroke="#191970" d="M368.3998,-112.2455C372.6227,-104.617 378.6173,-93.7881 383.7441,-84.5267"/>
<polygon fill="#191970" stroke="#191970" points="386.881,-86.0867 388.6621,-75.6427 380.7568,-82.6965 386.881,-86.0867"/>
</g>
<!-- Node8 -->
<g id="node9" class="node">
<title>Node8</title>
<g id="a_node9"><a xlink:href="$utils_8h.html" xlink:title="Utility functions for random number handling, etc. ">
<polygon fill="none" stroke="#000000" points="434.5,-56.5 434.5,-75.5 477.5,-75.5 477.5,-56.5 434.5,-56.5"/>
<text text-anchor="middle" x="456" y="-63.5" font-family="Helvetica,sans-Serif" font-size="10.00" fill="#000000">utils.h</text>
</a>
</g>
</g>
<!-- Node0&#45;&gt;Node8 -->
<g id="edge8" class="edge">
<title>Node0&#45;&gt;Node8</title>
<path fill="none" stroke="#191970" d="M379.1994,-112.2455C393.6018,-103.5731 414.8732,-90.7645 431.3799,-80.825"/>
<polygon fill="#191970" stroke="#191970" points="433.225,-83.7996 439.9863,-75.6427 429.614,-77.8028 433.225,-83.7996"/>
</g>
<!-- Node9 -->
<g id="node10" class="node">
<title>Node9</title>
<g id="a_node10"><a xlink:href="$neural__activations_8h.html" xlink:title="Neural network activation functions. ">
<polygon fill="none" stroke="#000000" points="496,-56.5 496,-75.5 600,-75.5 600,-56.5 496,-56.5"/>
<text text-anchor="middle" x="548" y="-63.5" font-family="Helvetica,sans-Serif" font-size="10.00" fill="#000000">neural_activations.h</text>
</a>
</g>
</g>
<!-- Node0&#45;&gt;Node9 -->
<g id="edge9" class="edge">
<title>Node0&#45;&gt;Node9</title>
<path fill="none" stroke="#191970" d="M394.8026,-112.3733C425.8317,-102.9807 473.1754,-88.6496 507.0147,-78.4064"/>
<polygon fill="#191970" stroke="#191970" points="508.0553,-81.7483 516.6124,-75.5011 506.0272,-75.0485 508.0553,-81.7483"/>
</g>
<!-- Node10 -->
<g id="node11" class="node">
<title>Node10</title>
<g id="a_node11"><a xlink:href="$neural_8h.html" xlink:title="An implementation of a multi&#45;layer perceptron neural network. ">
<polygon fill="none" stroke="#000000" points="618.5,-56.5 618.5,-75.5 669.5,-75.5 669.5,-56.5 618.5,-56.5"/>
<text text-anchor="middle" x="644" y="-63.5" font-family="Helvetica,sans-Serif" font-size="10.00" fill="#000000">neural.h</text>
</a>
</g>
</g>
<!-- Node0&#45;&gt;Node10 -->
<g id="edge11" class="edge">
<title>Node0&#45;&gt;Node10</title>
<path fill="none" stroke="#191970" d="M420.9773,-112.7319C468.7824,-104.7325 538.5339,-92.2427 608.5753,-75.9238"/>
<polygon fill="#191970" stroke="#191970" points="609.527,-79.2955 618.4581,-73.5958 607.922,-72.482 609.527,-79.2955"/>
</g>
<!-- Node11 -->
<g id="node12" class="node">
<title>Node11</title>
<g id="a_node12"><a xlink:href="$neural__layer_8h.html" xlink:title="Interface for neural network layers. ">
<polygon fill="none" stroke="#000000" points="687.5,-56.5 687.5,-75.5 764.5,-75.5 764.5,-56.5 687.5,-56.5"/>
<text text-anchor="middle" x="726" y="-63.5" font-family="Helvetica,sans-Serif" font-size="10.00" fill="#000000">neural_layer.h</text>
</a>
</g>
</g>
<!-- Node0&#45;&gt;Node11 -->
<g id="edge12" class="edge">
<title>Node0&#45;&gt;Node11</title>
<path fill="none" stroke="#191970" d="M420.6479,-114.6446C481.8377,-106.5982 581.5802,-92.8015 677.4085,-76.0185"/>
<polygon fill="#191970" stroke="#191970" points="678.0266,-79.4636 687.2662,-74.2789 676.8101,-72.5701 678.0266,-79.4636"/>
</g>
<!-- Node13 -->
<g id="node14" class="node">
<title>Node13</title>
<g id="a_node14"><a xlink:href="$neural__layer__dropout_8h.html" xlink:title="An implementation of a dropout layer. ">
<polygon fill="none" stroke="#000000" points="782.5,-56.5 782.5,-75.5 897.5,-75.5 897.5,-56.5 782.5,-56.5"/>
<text text-anchor="middle" x="840" y="-63.5" font-family="Helvetica,sans-Serif" font-size="10.00" fill="#000000">neural_layer_dropout.h</text>
</a>
</g>
</g>
<!-- Node0&#45;&gt;Node13 -->
<g id="edge14" class="edge">
<title>Node0&#45;&gt;Node13</title>
<path fill="none" stroke="#191970" d="M420.6031,-116.2672C498.1584,-108.3901 640.7084,-93.3547 772.1748,-76.203"/>
<polygon fill="#191970" stroke="#191970" points="772.966,-79.6292 782.4258,-74.8582 772.0555,-72.6887 772.966,-79.6292"/>
</g>
<!-- Node9&#45;&gt;Node5 -->
<g id="edge10" class="edge">
<title>Node9&#45;&gt;Node5</title>
<path fill="none" stroke="#191970" d="M525.1365,-56.3733C503.595,-47.3032 471.1162,-33.6279 447.0044,-23.4755"/>
<polygon fill="#191970" stroke="#191970" points="448.1397,-20.156 437.5652,-19.5011 445.4233,-26.6075 448.1397,-20.156"/>
</g>
<!-- Node12 -->
<g id="node13" class="node">
<title>Node12</title>
<polygon fill="none" stroke="#bfbfbf" points="701.5,-.5 701.5,-19.5 750.5,-19.5 750.5,-.5 701.5,-.5"/>
<text text-anchor="middle" x="726" y="-7.5" font-family="Helvetica,sans-Serif" font-size="10.00" fill="#000000">stdint.h</text>
</g>
<!-- Node11&#45;&gt;Node12 -->
<g id="edge13" class="edge">
<title>Node11&#45;&gt;Node12</title>
<path fill="none" stroke="#191970" d="M726,-56.2455C726,-48.9382 726,-38.6944 726,-29.7046"/>
<polygon fill="#191970" stroke="#191970" points="729.5001,-29.6426 726,-19.6427 722.5001,-29.6427 729.5001,-29.6426"/>
</g>
</g>
</svg>
