<?xml version="1.0" encoding="UTF-8" standalone="no"?>
<!DOCTYPE svg PUBLIC "-//W3C//DTD SVG 1.1//EN"
 "http://www.w3.org/Graphics/SVG/1.1/DTD/svg11.dtd">
<!-- Generated by graphviz version 2.40.1 (20161225.0304)
 -->
<!-- Title: /home/unknown/work/current/xcsf/xcsf/pa.c Pages: 1 -->
<svg width="559pt" height="95pt"
 viewBox="0.00 0.00 558.50 95.00" xmlns="http://www.w3.org/2000/svg" xmlns:xlink="http://www.w3.org/1999/xlink">
<g id="graph0" class="graph" transform="scale(1 1) rotate(0) translate(4 91)">
<title>/home/unknown/work/current/xcsf/xcsf/pa.c</title>
<!-- Node0 -->
<g id="node1" class="node">
<title>Node0</title>
<polygon fill="#bfbfbf" stroke="#000000" points="236.5,-56.5 236.5,-86.5 351.5,-86.5 351.5,-56.5 236.5,-56.5"/>
<text text-anchor="start" x="244.5" y="-74.5" font-family="Helvetica,sans-Serif" font-size="10.00" fill="#000000">/home/unknown/work</text>
<text text-anchor="middle" x="294" y="-63.5" font-family="Helvetica,sans-Serif" font-size="10.00" fill="#000000">/current/xcsf/xcsf/pa.c</text>
</g>
<!-- Node1 -->
<g id="node2" class="node">
<title>Node1</title>
<polygon fill="none" stroke="#bfbfbf" points="0,-.5 0,-19.5 46,-19.5 46,-.5 0,-.5"/>
<text text-anchor="middle" x="23" y="-7.5" font-family="Helvetica,sans-Serif" font-size="10.00" fill="#000000">stdio.h</text>
</g>
<!-- Node0&#45;&gt;Node1 -->
<g id="edge1" class="edge">
<title>Node0&#45;&gt;Node1</title>
<path fill="none" stroke="#191970" d="M236.1852,-60.5691C189.8429,-51.4601 122.9883,-37.544 56.1991,-20.1552"/>
<polygon fill="#191970" stroke="#191970" points="56.9092,-16.723 46.3479,-17.5646 55.1289,-23.4928 56.9092,-16.723"/>
</g>
<!-- Node2 -->
<g id="node3" class="node">
<title>Node2</title>
<polygon fill="none" stroke="#bfbfbf" points="64,-.5 64,-19.5 112,-19.5 112,-.5 64,-.5"/>
<text text-anchor="middle" x="88" y="-7.5" font-family="Helvetica,sans-Serif" font-size="10.00" fill="#000000">stdlib.h</text>
</g>
<!-- Node0&#45;&gt;Node2 -->
<g id="edge2" class="edge">
<title>Node0&#45;&gt;Node2</title>
<path fill="none" stroke="#191970" d="M243.2619,-56.467C210.9952,-46.8905 168.081,-34.1241 121.7651,-20.221"/>
<polygon fill="#191970" stroke="#191970" points="122.7306,-16.8566 112.1464,-17.332 120.7169,-23.5607 122.7306,-16.8566"/>
</g>
<!-- Node3 -->
<g id="node4" class="node">
<title>Node3</title>
<polygon fill="none" stroke="#bfbfbf" points="130.5,-.5 130.5,-19.5 179.5,-19.5 179.5,-.5 130.5,-.5"/>
<text text-anchor="middle" x="155" y="-7.5" font-family="Helvetica,sans-Serif" font-size="10.00" fill="#000000">string.h</text>
</g>
<!-- Node0&#45;&gt;Node3 -->
<g id="edge3" class="edge">
<title>Node0&#45;&gt;Node3</title>
<path fill="none" stroke="#191970" d="M259.9968,-56.4554C237.3129,-46.419 207.7327,-33.3314 185.7521,-23.6061"/>
<polygon fill="#191970" stroke="#191970" points="187.1011,-20.3758 176.5401,-19.5303 184.2688,-26.7772 187.1011,-20.3758"/>
</g>
<!-- Node4 -->
<g id="node5" class="node">
<title>Node4</title>
<polygon fill="none" stroke="#bfbfbf" points="198,-.5 198,-19.5 254,-19.5 254,-.5 198,-.5"/>
<text text-anchor="middle" x="226" y="-7.5" font-family="Helvetica,sans-Serif" font-size="10.00" fill="#000000">stdbool.h</text>
</g>
<!-- Node0&#45;&gt;Node4 -->
<g id="edge4" class="edge">
<title>Node0&#45;&gt;Node4</title>
<path fill="none" stroke="#191970" d="M277.191,-56.2977C267.2603,-47.3163 254.6743,-35.9334 244.4673,-26.702"/>
<polygon fill="#191970" stroke="#191970" points="246.652,-23.9588 236.8877,-19.8469 241.9566,-29.1505 246.652,-23.9588"/>
</g>
<!-- Node5 -->
<g id="node6" class="node">
<title>Node5</title>
<g id="a_node6"><a xlink:href="xcsf_8h.html" target="_top" xlink:title="XCSF data structures. ">
<polygon fill="none" stroke="#000000" points="272,-.5 272,-19.5 316,-19.5 316,-.5 272,-.5"/>
<text text-anchor="middle" x="294" y="-7.5" font-family="Helvetica,sans-Serif" font-size="10.00" fill="#000000">xcsf.h</text>
</a>
</g>
</g>
<!-- Node0&#45;&gt;Node5 -->
<g id="edge5" class="edge">
<title>Node0&#45;&gt;Node5</title>
<path fill="none" stroke="#191970" d="M294,-56.2977C294,-48.3834 294,-38.6043 294,-30.0759"/>
<polygon fill="#191970" stroke="#191970" points="297.5001,-29.8469 294,-19.8469 290.5001,-29.847 297.5001,-29.8469"/>
</g>
<!-- Node6 -->
<g id="node7" class="node">
<title>Node6</title>
<g id="a_node7"><a xlink:href="utils_8h.html" target="_top" xlink:title="Utility functions for random number handling, etc. ">
<polygon fill="none" stroke="#000000" points="334.5,-.5 334.5,-19.5 377.5,-19.5 377.5,-.5 334.5,-.5"/>
<text text-anchor="middle" x="356" y="-7.5" font-family="Helvetica,sans-Serif" font-size="10.00" fill="#000000">utils.h</text>
</a>
</g>
</g>
<!-- Node0&#45;&gt;Node6 -->
<g id="edge6" class="edge">
<title>Node0&#45;&gt;Node6</title>
<path fill="none" stroke="#191970" d="M309.3258,-56.2977C318.2907,-47.4052 329.6288,-36.1586 338.8851,-26.9769"/>
<polygon fill="#191970" stroke="#191970" points="341.4382,-29.3742 346.073,-19.8469 336.5085,-24.4045 341.4382,-29.3742"/>
</g>
<!-- Node7 -->
<g id="node8" class="node">
<title>Node7</title>
<g id="a_node8"><a xlink:href="cl_8h.html" target="_top" xlink:title="Functions operating on classifiers. ">
<polygon fill="none" stroke="#000000" points="396,-.5 396,-19.5 428,-19.5 428,-.5 396,-.5"/>
<text text-anchor="middle" x="412" y="-7.5" font-family="Helvetica,sans-Serif" font-size="10.00" fill="#000000">cl.h</text>
</a>
</g>
</g>
<!-- Node0&#45;&gt;Node7 -->
<g id="edge7" class="edge">
<title>Node0&#45;&gt;Node7</title>
<path fill="none" stroke="#191970" d="M322.866,-56.4554C342.3883,-46.2807 367.9276,-32.97 386.6619,-23.2059"/>
<polygon fill="#191970" stroke="#191970" points="388.5204,-26.1842 395.7706,-18.4586 385.2851,-19.9767 388.5204,-26.1842"/>
</g>
<!-- Node8 -->
<g id="node9" class="node">
<title>Node8</title>
<g id="a_node9"><a xlink:href="cl__set_8h.html" target="_top" xlink:title="Functions operating on sets of classifiers. ">
<polygon fill="none" stroke="#000000" points="446.5,-.5 446.5,-19.5 497.5,-19.5 497.5,-.5 446.5,-.5"/>
<text text-anchor="middle" x="472" y="-7.5" font-family="Helvetica,sans-Serif" font-size="10.00" fill="#000000">cl_set.h</text>
</a>
</g>
</g>
<!-- Node0&#45;&gt;Node8 -->
<g id="edge8" class="edge">
<title>Node0&#45;&gt;Node8</title>
<path fill="none" stroke="#191970" d="M337.5437,-56.4554C368.1103,-45.8945 408.4552,-31.9551 436.9504,-22.1098"/>
<polygon fill="#191970" stroke="#191970" points="438.1911,-25.3842 446.4999,-18.8104 435.9051,-18.768 438.1911,-25.3842"/>
</g>
<!-- Node9 -->
<g id="node10" class="node">
<title>Node9</title>
<g id="a_node10"><a xlink:href="pa_8h.html" target="_top" xlink:title="Prediction array functions. ">
<polygon fill="none" stroke="#000000" points="515.5,-.5 515.5,-19.5 550.5,-19.5 550.5,-.5 515.5,-.5"/>
<text text-anchor="middle" x="533" y="-7.5" font-family="Helvetica,sans-Serif" font-size="10.00" fill="#000000">pa.h</text>
</a>
</g>
</g>
<!-- Node0&#45;&gt;Node9 -->
<g id="edge9" class="edge">
<title>Node0&#45;&gt;Node9</title>
<path fill="none" stroke="#191970" d="M351.506,-59.7201C392.4092,-50.8572 448.7416,-37.6732 505.9303,-20.0716"/>
<polygon fill="#191970" stroke="#191970" points="506.9826,-23.4097 515.4868,-17.0908 504.8982,-16.7272 506.9826,-23.4097"/>
</g>
</g>
</svg>
