<?xml version="1.0" encoding="UTF-8" standalone="no"?>
<!DOCTYPE svg PUBLIC "-//W3C//DTD SVG 1.1//EN"
 "http://www.w3.org/Graphics/SVG/1.1/DTD/svg11.dtd">
<!-- Generated by graphviz version 2.40.1 (20161225.0304)
 -->
<!-- Title: pa_rand_action Pages: 1 -->
<svg width="743pt" height="104pt"
 viewBox="0.00 0.00 743.00 104.00" xmlns="http://www.w3.org/2000/svg" xmlns:xlink="http://www.w3.org/1999/xlink">
<g id="graph0" class="graph" transform="scale(1 1) rotate(0) translate(4 100)">
<title>pa_rand_action</title>
<!-- Node55 -->
<g id="node1" class="node">
<title>Node55</title>
<polygon fill="#bfbfbf" stroke="#000000" points="0,-57.5 0,-76.5 83,-76.5 83,-57.5 0,-57.5"/>
<text text-anchor="middle" x="41.5" y="-64.5" font-family="Helvetica,sans-Serif" font-size="10.00" fill="#000000">pa_rand_action</text>
</g>
<!-- Node56 -->
<g id="node2" class="node">
<title>Node56</title>
<g id="a_node2"><a xlink:href="xcs__multi__step_8c.html#a1e1c2a3094be715b468dda79cd59ebf3" target="_top" xlink:title="Executes a multi&#45;step trial using a built&#45;in environment. ">
<polygon fill="none" stroke="#000000" points="131,-76.5 131,-95.5 211,-95.5 211,-76.5 131,-76.5"/>
<text text-anchor="middle" x="171" y="-83.5" font-family="Helvetica,sans-Serif" font-size="10.00" fill="#000000">xcs_multi_trial</text>
</a>
</g>
</g>
<!-- Node55&#45;&gt;Node56 -->
<g id="edge1" class="edge">
<title>Node55&#45;&gt;Node56</title>
<path fill="none" stroke="#191970" d="M93.422,-74.6179C105.8399,-76.4398 118.9136,-78.358 130.7159,-80.0896"/>
<polygon fill="#191970" stroke="#191970" points="93.5896,-71.1051 83.1874,-73.1163 92.5734,-78.031 93.5896,-71.1051"/>
</g>
<!-- Node60 -->
<g id="node6" class="node">
<title>Node60</title>
<g id="a_node6"><a xlink:href="xcs__single__step_8h.html#a6cd0f3c0c1c71e13dba1ce493ef873a5" target="_top" xlink:title="Constructs the match set and selects an action to perform. ">
<polygon fill="none" stroke="#000000" points="119,-38.5 119,-57.5 223,-57.5 223,-38.5 119,-38.5"/>
<text text-anchor="middle" x="171" y="-45.5" font-family="Helvetica,sans-Serif" font-size="10.00" fill="#000000">xcs_single_decision</text>
</a>
</g>
</g>
<!-- Node55&#45;&gt;Node60 -->
<g id="edge5" class="edge">
<title>Node55&#45;&gt;Node60</title>
<path fill="none" stroke="#191970" d="M93.2954,-59.4007C101.7402,-58.1617 110.4915,-56.8777 118.9425,-55.6378"/>
<polygon fill="#191970" stroke="#191970" points="92.5734,-55.969 83.1874,-60.8837 93.5896,-62.8949 92.5734,-55.969"/>
</g>
<!-- Node57 -->
<g id="node3" class="node">
<title>Node57</title>
<g id="a_node3"><a xlink:href="xcs__multi__step_8h.html#acc29d4a55dbd56c16ea5f19f15a7c677" target="_top" xlink:title="Executes a multi&#45;step reinforcement learning experiment. ">
<polygon fill="none" stroke="#000000" points="426,-76.5 426,-95.5 530,-95.5 530,-76.5 426,-76.5"/>
<text text-anchor="middle" x="478" y="-83.5" font-family="Helvetica,sans-Serif" font-size="10.00" fill="#000000">xcs_multi_step_exp</text>
</a>
</g>
</g>
<!-- Node56&#45;&gt;Node57 -->
<g id="edge2" class="edge">
<title>Node56&#45;&gt;Node57</title>
<path fill="none" stroke="#191970" d="M221.2414,-86C277.6123,-86 368.6254,-86 425.7885,-86"/>
<polygon fill="#191970" stroke="#191970" points="221.1349,-82.5001 211.1349,-86 221.1349,-89.5001 221.1349,-82.5001"/>
</g>
<!-- Node58 -->
<g id="node4" class="node">
<title>Node58</title>
<g id="a_node4"><a xlink:href="main_8c.html#ab572a67aa431827116ebd6931d667d21" target="_top" xlink:title="classification">
<polygon fill="none" stroke="#000000" points="587,-38.5 587,-57.5 661,-57.5 661,-38.5 587,-38.5"/>
<text text-anchor="middle" x="624" y="-45.5" font-family="Helvetica,sans-Serif" font-size="10.00" fill="#000000">classification</text>
</a>
</g>
</g>
<!-- Node57&#45;&gt;Node58 -->
<g id="edge3" class="edge">
<title>Node57&#45;&gt;Node58</title>
<path fill="none" stroke="#191970" d="M524.536,-73.8879C544.8696,-68.5956 568.3713,-62.4787 587.423,-57.5201"/>
<polygon fill="#191970" stroke="#191970" points="523.6379,-70.5049 514.842,-76.411 525.4012,-77.2793 523.6379,-70.5049"/>
</g>
<!-- Node59 -->
<g id="node5" class="node">
<title>Node59</title>
<g id="a_node5"><a xlink:href="main_8c.html#a3c04138a5bfe5d72780bb7e82a18e627" target="_top" xlink:title="main">
<polygon fill="none" stroke="#000000" points="697,-38.5 697,-57.5 735,-57.5 735,-38.5 697,-38.5"/>
<text text-anchor="middle" x="716" y="-45.5" font-family="Helvetica,sans-Serif" font-size="10.00" fill="#000000">main</text>
</a>
</g>
</g>
<!-- Node58&#45;&gt;Node59 -->
<g id="edge4" class="edge">
<title>Node58&#45;&gt;Node59</title>
<path fill="none" stroke="#191970" d="M671.3389,-48C680.3996,-48 689.391,-48 696.9053,-48"/>
<polygon fill="#191970" stroke="#191970" points="671.1548,-44.5001 661.1547,-48 671.1547,-51.5001 671.1548,-44.5001"/>
</g>
<!-- Node61 -->
<g id="node7" class="node">
<title>Node61</title>
<g id="a_node7"><a xlink:href="structXCS.html#a94d556a5e545ec415d7165d5e91b21d4" target="_top" xlink:title="XCS::single_decision">
<polygon fill="none" stroke="#000000" points="259,-38.5 259,-57.5 369,-57.5 369,-38.5 259,-38.5"/>
<text text-anchor="middle" x="314" y="-45.5" font-family="Helvetica,sans-Serif" font-size="10.00" fill="#000000">XCS::single_decision</text>
</a>
</g>
</g>
<!-- Node60&#45;&gt;Node61 -->
<g id="edge6" class="edge">
<title>Node60&#45;&gt;Node61</title>
<path fill="none" stroke="#191970" d="M233.2958,-48C241.8104,-48 250.5022,-48 258.8771,-48"/>
<polygon fill="#191970" stroke="#191970" points="233.0308,-44.5001 223.0308,-48 233.0308,-51.5001 233.0308,-44.5001"/>
</g>
<!-- Node63 -->
<g id="node9" class="node">
<title>Node63</title>
<g id="a_node9"><a xlink:href="xcs__single__step_8c.html#a3d1fd2472d35310800aed897219a65af" target="_top" xlink:title="Executes a single&#45;step trial using a built&#45;in environment. ">
<polygon fill="none" stroke="#000000" points="272,-.5 272,-19.5 356,-19.5 356,-.5 272,-.5"/>
<text text-anchor="middle" x="314" y="-7.5" font-family="Helvetica,sans-Serif" font-size="10.00" fill="#000000">xcs_single_trial</text>
</a>
</g>
</g>
<!-- Node60&#45;&gt;Node63 -->
<g id="edge8" class="edge">
<title>Node60&#45;&gt;Node63</title>
<path fill="none" stroke="#191970" d="M216.8133,-35.8258C236.5871,-30.5713 259.3838,-24.5134 277.9266,-19.5859"/>
<polygon fill="#191970" stroke="#191970" points="215.8506,-32.4601 207.0849,-38.411 217.6484,-39.2253 215.8506,-32.4601"/>
</g>
<!-- Node62 -->
<g id="node8" class="node">
<title>Node62</title>
<g id="a_node8"><a xlink:href="python__wrapper_8cpp.html#afbdcc1358036a0b83a6b239da2b098a2" target="_top" xlink:title="BOOST_PYTHON_MODULE">
<polygon fill="none" stroke="#000000" points="405,-38.5 405,-57.5 551,-57.5 551,-38.5 405,-38.5"/>
<text text-anchor="middle" x="478" y="-45.5" font-family="Helvetica,sans-Serif" font-size="10.00" fill="#000000">BOOST_PYTHON_MODULE</text>
</a>
</g>
</g>
<!-- Node61&#45;&gt;Node62 -->
<g id="edge7" class="edge">
<title>Node61&#45;&gt;Node62</title>
<path fill="none" stroke="#191970" d="M379.1637,-48C387.5629,-48 396.2083,-48 404.7266,-48"/>
<polygon fill="#191970" stroke="#191970" points="379.0659,-44.5001 369.0659,-48 379.0658,-51.5001 379.0659,-44.5001"/>
</g>
<!-- Node64 -->
<g id="node10" class="node">
<title>Node64</title>
<g id="a_node10"><a xlink:href="xcs__single__step_8h.html#a39a031bf59eaa9b33e30e614610dcda8" target="_top" xlink:title="Executes a single&#45;step experiment. ">
<polygon fill="none" stroke="#000000" points="424,-.5 424,-19.5 532,-19.5 532,-.5 424,-.5"/>
<text text-anchor="middle" x="478" y="-7.5" font-family="Helvetica,sans-Serif" font-size="10.00" fill="#000000">xcs_single_step_exp</text>
</a>
</g>
</g>
<!-- Node63&#45;&gt;Node64 -->
<g id="edge9" class="edge">
<title>Node63&#45;&gt;Node64</title>
<path fill="none" stroke="#191970" d="M366.4384,-10C384.7622,-10 405.3599,-10 423.8226,-10"/>
<polygon fill="#191970" stroke="#191970" points="366.2341,-6.5001 356.2341,-10 366.234,-13.5001 366.2341,-6.5001"/>
</g>
<!-- Node64&#45;&gt;Node58 -->
<g id="edge10" class="edge">
<title>Node64&#45;&gt;Node58</title>
<path fill="none" stroke="#191970" d="M524.536,-22.1121C544.8696,-27.4044 568.3713,-33.5213 587.423,-38.4799"/>
<polygon fill="#191970" stroke="#191970" points="525.4012,-18.7207 514.842,-19.589 523.6379,-25.4951 525.4012,-18.7207"/>
</g>
</g>
</svg>
