<?xml version="1.0" encoding="UTF-8" standalone="no"?>
<!DOCTYPE svg PUBLIC "-//W3C//DTD SVG 1.1//EN"
 "http://www.w3.org/Graphics/SVG/1.1/DTD/svg11.dtd">
<!-- Generated by graphviz version 2.40.1 (20161225.0304)
 -->
<!-- Title: disp_perf2 Pages: 1 -->
<svg width="574pt" height="142pt"
 viewBox="0.00 0.00 574.00 142.00" xmlns="http://www.w3.org/2000/svg" xmlns:xlink="http://www.w3.org/1999/xlink">
<g id="graph0" class="graph" transform="scale(1 1) rotate(0) translate(4 138)">
<title>disp_perf2</title>
<!-- Node13 -->
<g id="node1" class="node">
<title>Node13</title>
<polygon fill="#bfbfbf" stroke="#000000" points="0,-76.5 0,-95.5 62,-95.5 62,-76.5 0,-76.5"/>
<text text-anchor="middle" x="31" y="-83.5" font-family="Helvetica,sans-Serif" font-size="10.00" fill="#000000">disp_perf2</text>
</g>
<!-- Node14 -->
<g id="node2" class="node">
<title>Node14</title>
<g id="a_node2"><a xlink:href="xcs__multi__step_8h.html#acc29d4a55dbd56c16ea5f19f15a7c677" target="_top" xlink:title="Executes a multi&#45;step reinforcement learning experiment. ">
<polygon fill="none" stroke="#000000" points="100,-114.5 100,-133.5 204,-133.5 204,-114.5 100,-114.5"/>
<text text-anchor="middle" x="152" y="-121.5" font-family="Helvetica,sans-Serif" font-size="10.00" fill="#000000">xcs_multi_step_exp</text>
</a>
</g>
</g>
<!-- Node13&#45;&gt;Node14 -->
<g id="edge1" class="edge">
<title>Node13&#45;&gt;Node14</title>
<path fill="none" stroke="#191970" d="M71.3771,-98.6804C87.7262,-103.8148 106.2878,-109.6441 121.4764,-114.4141"/>
<polygon fill="#191970" stroke="#191970" points="72.1227,-95.2461 61.5334,-95.589 70.0253,-101.9245 72.1227,-95.2461"/>
</g>
<!-- Node16 -->
<g id="node4" class="node">
<title>Node16</title>
<g id="a_node4"><a xlink:href="xcs__single__step_8h.html#a39a031bf59eaa9b33e30e614610dcda8" target="_top" xlink:title="Executes a single&#45;step reinforcement learning experiment. ">
<polygon fill="none" stroke="#000000" points="98,-76.5 98,-95.5 206,-95.5 206,-76.5 98,-76.5"/>
<text text-anchor="middle" x="152" y="-83.5" font-family="Helvetica,sans-Serif" font-size="10.00" fill="#000000">xcs_single_step_exp</text>
</a>
</g>
</g>
<!-- Node13&#45;&gt;Node16 -->
<g id="edge3" class="edge">
<title>Node13&#45;&gt;Node16</title>
<path fill="none" stroke="#191970" d="M72.281,-86C80.5381,-86 89.3281,-86 97.942,-86"/>
<polygon fill="#191970" stroke="#191970" points="72.1605,-82.5001 62.1605,-86 72.1605,-89.5001 72.1605,-82.5001"/>
</g>
<!-- Node17 -->
<g id="node5" class="node">
<title>Node17</title>
<g id="a_node5"><a xlink:href="xcsf_8h.html#a40f4dfe69c6480f25c55d21c44746eb8" target="_top" xlink:title="Executes MAX_TRIALS number of XCSF learning iterations using the training. data and test iterations u...">
<polygon fill="none" stroke="#000000" points="125,-38.5 125,-57.5 179,-57.5 179,-38.5 125,-38.5"/>
<text text-anchor="middle" x="152" y="-45.5" font-family="Helvetica,sans-Serif" font-size="10.00" fill="#000000">xcsf_fit2</text>
</a>
</g>
</g>
<!-- Node13&#45;&gt;Node17 -->
<g id="edge5" class="edge">
<title>Node13&#45;&gt;Node17</title>
<path fill="none" stroke="#191970" d="M71.5079,-73.2785C89.0316,-67.7752 109.0764,-61.4801 124.7793,-56.5487"/>
<polygon fill="#191970" stroke="#191970" points="70.0253,-70.0755 61.5334,-76.411 72.1227,-76.7539 70.0253,-70.0755"/>
</g>
<!-- Node15 -->
<g id="node3" class="node">
<title>Node15</title>
<g id="a_node3"><a xlink:href="main_8c.html#a3c04138a5bfe5d72780bb7e82a18e627" target="_top" xlink:title="main">
<polygon fill="none" stroke="#000000" points="250,-76.5 250,-95.5 288,-95.5 288,-76.5 250,-76.5"/>
<text text-anchor="middle" x="269" y="-83.5" font-family="Helvetica,sans-Serif" font-size="10.00" fill="#000000">main</text>
</a>
</g>
</g>
<!-- Node14&#45;&gt;Node15 -->
<g id="edge2" class="edge">
<title>Node14&#45;&gt;Node15</title>
<path fill="none" stroke="#191970" d="M191.1825,-111.2741C210.8945,-104.8719 233.9029,-97.399 249.7618,-92.2483"/>
<polygon fill="#191970" stroke="#191970" points="189.9538,-107.9931 181.524,-114.411 192.1162,-114.6507 189.9538,-107.9931"/>
</g>
<!-- Node16&#45;&gt;Node15 -->
<g id="edge4" class="edge">
<title>Node16&#45;&gt;Node15</title>
<path fill="none" stroke="#191970" d="M216.3566,-86C228.5891,-86 240.4766,-86 249.8507,-86"/>
<polygon fill="#191970" stroke="#191970" points="216.0478,-82.5001 206.0478,-86 216.0477,-89.5001 216.0478,-82.5001"/>
</g>
<!-- Node17&#45;&gt;Node15 -->
<g id="edge6" class="edge">
<title>Node17&#45;&gt;Node15</title>
<path fill="none" stroke="#191970" d="M188.6785,-59.9127C208.885,-66.4755 233.1462,-74.3552 249.6798,-79.7251"/>
<polygon fill="#191970" stroke="#191970" points="189.7284,-56.5737 179.1362,-56.8135 187.566,-63.2314 189.7284,-56.5737"/>
</g>
<!-- Node18 -->
<g id="node6" class="node">
<title>Node18</title>
<g id="a_node6"><a xlink:href="structXCS.html#a7d53320740db8e846251bacd0238a9fb" target="_top" xlink:title="XCS::fit">
<polygon fill="none" stroke="#000000" points="243,-38.5 243,-57.5 295,-57.5 295,-38.5 243,-38.5"/>
<text text-anchor="middle" x="269" y="-45.5" font-family="Helvetica,sans-Serif" font-size="10.00" fill="#000000">XCS::fit</text>
</a>
</g>
</g>
<!-- Node17&#45;&gt;Node18 -->
<g id="edge7" class="edge">
<title>Node17&#45;&gt;Node18</title>
<path fill="none" stroke="#191970" d="M189.5212,-48C206.8966,-48 227.1181,-48 242.8158,-48"/>
<polygon fill="#191970" stroke="#191970" points="189.1363,-44.5001 179.1362,-48 189.1362,-51.5001 189.1363,-44.5001"/>
</g>
<!-- Node19 -->
<g id="node7" class="node">
<title>Node19</title>
<g id="a_node7"><a xlink:href="xcsf_8h.html#afd4a983899f1980887b8375e40b32a72" target="_top" xlink:title="Executes MAX_TRIALS number of XCSF learning iterations using the training data. ">
<polygon fill="none" stroke="#000000" points="242,-.5 242,-19.5 296,-19.5 296,-.5 242,-.5"/>
<text text-anchor="middle" x="269" y="-7.5" font-family="Helvetica,sans-Serif" font-size="10.00" fill="#000000">xcsf_fit1</text>
</a>
</g>
</g>
<!-- Node17&#45;&gt;Node19 -->
<g id="edge8" class="edge">
<title>Node17&#45;&gt;Node19</title>
<path fill="none" stroke="#191970" d="M188.8129,-36.0437C205.9037,-30.4928 225.8713,-24.0076 241.6056,-18.8973"/>
<polygon fill="#191970" stroke="#191970" points="187.566,-32.7686 179.1362,-39.1865 189.7284,-39.4263 187.566,-32.7686"/>
</g>
<!-- Node20 -->
<g id="node8" class="node">
<title>Node20</title>
<g id="a_node8"><a xlink:href="structXCS.html#ad2ccafe59d2b4ae6d0e1cbc15edee53c" target="_top" xlink:title="XCS::fit">
<polygon fill="none" stroke="#000000" points="332,-.5 332,-19.5 384,-19.5 384,-.5 332,-.5"/>
<text text-anchor="middle" x="358" y="-7.5" font-family="Helvetica,sans-Serif" font-size="10.00" fill="#000000">XCS::fit</text>
</a>
</g>
</g>
<!-- Node19&#45;&gt;Node20 -->
<g id="edge9" class="edge">
<title>Node19&#45;&gt;Node20</title>
<path fill="none" stroke="#191970" d="M306.3852,-10C314.9664,-10 323.91,-10 331.8947,-10"/>
<polygon fill="#191970" stroke="#191970" points="306.1866,-6.5001 296.1865,-10 306.1865,-13.5001 306.1866,-6.5001"/>
</g>
<!-- Node21 -->
<g id="node9" class="node">
<title>Node21</title>
<g id="a_node9"><a xlink:href="python__wrapper_8cpp.html#afbdcc1358036a0b83a6b239da2b098a2" target="_top" xlink:title="BOOST_PYTHON_MODULE">
<polygon fill="none" stroke="#000000" points="420,-.5 420,-19.5 566,-19.5 566,-.5 420,-.5"/>
<text text-anchor="middle" x="493" y="-7.5" font-family="Helvetica,sans-Serif" font-size="10.00" fill="#000000">BOOST_PYTHON_MODULE</text>
</a>
</g>
</g>
<!-- Node20&#45;&gt;Node21 -->
<g id="edge10" class="edge">
<title>Node20&#45;&gt;Node21</title>
<path fill="none" stroke="#191970" d="M394.1006,-10C402.1369,-10 410.9371,-10 419.8698,-10"/>
<polygon fill="#191970" stroke="#191970" points="394.0294,-6.5001 384.0294,-10 394.0293,-13.5001 394.0294,-6.5001"/>
</g>
</g>
</svg>
