<?xml version="1.0" encoding="UTF-8" standalone="no"?>
<!DOCTYPE svg PUBLIC "-//W3C//DTD SVG 1.1//EN"
 "http://www.w3.org/Graphics/SVG/1.1/DTD/svg11.dtd">
<!-- Generated by graphviz version 2.40.1 (20161225.0304)
 -->
<!-- Title: gplot_init Pages: 1 -->
<svg width="663pt" height="158pt"
 viewBox="0.00 0.00 663.00 157.61" xmlns="http://www.w3.org/2000/svg" xmlns:xlink="http://www.w3.org/1999/xlink">
<g id="graph0" class="graph" transform="scale(1 1) rotate(0) translate(4 153.6143)">
<title>gplot_init</title>
<!-- Node37 -->
<g id="node1" class="node">
<title>Node37</title>
<polygon fill="#bfbfbf" stroke="#000000" points="0,-76.5 0,-95.5 56,-95.5 56,-76.5 0,-76.5"/>
<text text-anchor="middle" x="28" y="-83.5" font-family="Helvetica,sans-Serif" font-size="10.00" fill="#000000">gplot_init</text>
</g>
<!-- Node38 -->
<g id="node2" class="node">
<title>Node38</title>
<g id="a_node2"><a xlink:href="perf_8h.html#a2ae4c34e0bda704febb9e47ef49a9e4a" target="_top" xlink:title="Dummy free function if Gnuplot not defined. ">
<polygon fill="none" stroke="#000000" points="92,-95.5 92,-114.5 151,-114.5 151,-95.5 92,-95.5"/>
<text text-anchor="middle" x="121.5" y="-102.5" font-family="Helvetica,sans-Serif" font-size="10.00" fill="#000000">gplot_free</text>
</a>
</g>
</g>
<!-- Node37&#45;&gt;Node38 -->
<g id="edge1" class="edge">
<title>Node37&#45;&gt;Node38</title>
<path fill="none" stroke="#191970" d="M65.9239,-93.7065C74.5585,-95.4611 83.6101,-97.3004 91.8418,-98.9732"/>
<polygon fill="#191970" stroke="#191970" points="66.5498,-90.2622 56.0531,-91.7006 65.1558,-97.122 66.5498,-90.2622"/>
</g>
<!-- Node39 -->
<g id="node3" class="node">
<title>Node39</title>
<g id="a_node3"><a xlink:href="xcs__multi__step_8h.html#acc29d4a55dbd56c16ea5f19f15a7c677" target="_top" xlink:title="Executes a multi&#45;step reinforcement learning experiment. ">
<polygon fill="none" stroke="#000000" points="189,-76.5 189,-95.5 293,-95.5 293,-76.5 189,-76.5"/>
<text text-anchor="middle" x="241" y="-83.5" font-family="Helvetica,sans-Serif" font-size="10.00" fill="#000000">xcs_multi_step_exp</text>
</a>
</g>
</g>
<!-- Node37&#45;&gt;Node39 -->
<g id="edge13" class="edge">
<title>Node37&#45;&gt;Node39</title>
<path fill="none" stroke="#191970" d="M66.3524,-86C100.569,-86 150.9673,-86 188.8411,-86"/>
<polygon fill="#191970" stroke="#191970" points="66.2848,-82.5001 56.2848,-86 66.2847,-89.5001 66.2848,-82.5001"/>
</g>
<!-- Node41 -->
<g id="node5" class="node">
<title>Node41</title>
<g id="a_node5"><a xlink:href="xcs__single__step_8h.html#a39a031bf59eaa9b33e30e614610dcda8" target="_top" xlink:title="Executes a single&#45;step reinforcement learning experiment. ">
<polygon fill="none" stroke="#000000" points="187,-114.5 187,-133.5 295,-133.5 295,-114.5 187,-114.5"/>
<text text-anchor="middle" x="241" y="-121.5" font-family="Helvetica,sans-Serif" font-size="10.00" fill="#000000">xcs_single_step_exp</text>
</a>
</g>
</g>
<!-- Node37&#45;&gt;Node41 -->
<g id="edge14" class="edge">
<title>Node37&#45;&gt;Node41</title>
<path fill="none" stroke="#191970" d="M41.7808,-103.5489C53.4968,-116.9389 71.6274,-134.3453 92,-142 134.0748,-157.809 187.0999,-144.1401 217.2142,-133.5414"/>
<polygon fill="#191970" stroke="#191970" points="44.4496,-101.2843 35.3523,-95.8539 39.0775,-105.7722 44.4496,-101.2843"/>
</g>
<!-- Node42 -->
<g id="node6" class="node">
<title>Node42</title>
<g id="a_node6"><a xlink:href="xcsf_8h.html#a40f4dfe69c6480f25c55d21c44746eb8" target="_top" xlink:title="Executes MAX_TRIALS number of XCSF learning iterations using the training. data and test iterations u...">
<polygon fill="none" stroke="#000000" points="214,-38.5 214,-57.5 268,-57.5 268,-38.5 214,-38.5"/>
<text text-anchor="middle" x="241" y="-45.5" font-family="Helvetica,sans-Serif" font-size="10.00" fill="#000000">xcsf_fit2</text>
</a>
</g>
</g>
<!-- Node37&#45;&gt;Node42 -->
<g id="edge15" class="edge">
<title>Node37&#45;&gt;Node42</title>
<path fill="none" stroke="#191970" d="M66.2723,-79.1721C108.8462,-71.5767 176.5437,-59.4992 213.9457,-52.8266"/>
<polygon fill="#191970" stroke="#191970" points="65.5146,-75.7519 56.2848,-80.9539 66.7441,-82.6431 65.5146,-75.7519"/>
</g>
<!-- Node38&#45;&gt;Node38 -->
<g id="edge2" class="edge">
<title>Node38&#45;&gt;Node38</title>
<path fill="none" stroke="#191970" d="M104.4638,-124.4C105.6015,-129.3146 111.2803,-133 121.5,-133 137.8516,-133 142.5782,-123.5653 135.6799,-114.7571"/>
<polygon fill="#191970" stroke="#191970" points="107.8358,-125.3393 107.3201,-114.7571 101.1241,-123.3512 107.8358,-125.3393"/>
</g>
<!-- Node38&#45;&gt;Node39 -->
<g id="edge3" class="edge">
<title>Node38&#45;&gt;Node39</title>
<path fill="none" stroke="#191970" d="M161.1426,-98.697C170.0614,-97.2789 179.6569,-95.7533 188.9956,-94.2685"/>
<polygon fill="#191970" stroke="#191970" points="160.3657,-95.2765 151.0393,-100.3034 161.4649,-102.1896 160.3657,-95.2765"/>
</g>
<!-- Node38&#45;&gt;Node41 -->
<g id="edge5" class="edge">
<title>Node38&#45;&gt;Node41</title>
<path fill="none" stroke="#191970" d="M161.0585,-111.2896C169.2539,-112.5927 178.0237,-113.987 186.6426,-115.3574"/>
<polygon fill="#191970" stroke="#191970" points="161.4649,-107.8104 151.0393,-109.6966 160.3657,-114.7235 161.4649,-107.8104"/>
</g>
<!-- Node38&#45;&gt;Node42 -->
<g id="edge7" class="edge">
<title>Node38&#45;&gt;Node42</title>
<path fill="none" stroke="#191970" d="M144.844,-90.0228C157.0992,-82.5323 172.5391,-73.6673 187,-67 195.574,-63.0469 205.2209,-59.4112 213.9636,-56.4018"/>
<polygon fill="#191970" stroke="#191970" points="142.8044,-87.1695 136.1621,-95.4237 146.502,-93.1133 142.8044,-87.1695"/>
</g>
<!-- Node40 -->
<g id="node4" class="node">
<title>Node40</title>
<g id="a_node4"><a xlink:href="main_8c.html#a3c04138a5bfe5d72780bb7e82a18e627" target="_top" xlink:title="main">
<polygon fill="none" stroke="#000000" points="339,-76.5 339,-95.5 377,-95.5 377,-76.5 339,-76.5"/>
<text text-anchor="middle" x="358" y="-83.5" font-family="Helvetica,sans-Serif" font-size="10.00" fill="#000000">main</text>
</a>
</g>
</g>
<!-- Node39&#45;&gt;Node40 -->
<g id="edge4" class="edge">
<title>Node39&#45;&gt;Node40</title>
<path fill="none" stroke="#191970" d="M303.6196,-86C316.4252,-86 328.9662,-86 338.772,-86"/>
<polygon fill="#191970" stroke="#191970" points="303.3403,-82.5001 293.3402,-86 303.3402,-89.5001 303.3403,-82.5001"/>
</g>
<!-- Node41&#45;&gt;Node40 -->
<g id="edge6" class="edge">
<title>Node41&#45;&gt;Node40</title>
<path fill="none" stroke="#191970" d="M280.1825,-111.2741C299.8945,-104.8719 322.9029,-97.399 338.7618,-92.2483"/>
<polygon fill="#191970" stroke="#191970" points="278.9538,-107.9931 270.524,-114.411 281.1162,-114.6507 278.9538,-107.9931"/>
</g>
<!-- Node42&#45;&gt;Node40 -->
<g id="edge8" class="edge">
<title>Node42&#45;&gt;Node40</title>
<path fill="none" stroke="#191970" d="M277.6785,-59.9127C297.885,-66.4755 322.1462,-74.3552 338.6798,-79.7251"/>
<polygon fill="#191970" stroke="#191970" points="278.7284,-56.5737 268.1362,-56.8135 276.566,-63.2314 278.7284,-56.5737"/>
</g>
<!-- Node43 -->
<g id="node7" class="node">
<title>Node43</title>
<g id="a_node7"><a xlink:href="structXCS.html#a7d53320740db8e846251bacd0238a9fb" target="_top" xlink:title="XCS::fit">
<polygon fill="none" stroke="#000000" points="332,-.5 332,-19.5 384,-19.5 384,-.5 332,-.5"/>
<text text-anchor="middle" x="358" y="-7.5" font-family="Helvetica,sans-Serif" font-size="10.00" fill="#000000">XCS::fit</text>
</a>
</g>
</g>
<!-- Node42&#45;&gt;Node43 -->
<g id="edge9" class="edge">
<title>Node42&#45;&gt;Node43</title>
<path fill="none" stroke="#191970" d="M278.0302,-35.9731C295.5147,-30.2944 315.97,-23.6508 331.8158,-18.5043"/>
<polygon fill="#191970" stroke="#191970" points="276.566,-32.7686 268.1362,-39.1865 278.7284,-39.4263 276.566,-32.7686"/>
</g>
<!-- Node44 -->
<g id="node8" class="node">
<title>Node44</title>
<g id="a_node8"><a xlink:href="xcsf_8h.html#afd4a983899f1980887b8375e40b32a72" target="_top" xlink:title="Executes MAX_TRIALS number of XCSF learning iterations using the training data. ">
<polygon fill="none" stroke="#000000" points="331,-38.5 331,-57.5 385,-57.5 385,-38.5 331,-38.5"/>
<text text-anchor="middle" x="358" y="-45.5" font-family="Helvetica,sans-Serif" font-size="10.00" fill="#000000">xcsf_fit1</text>
</a>
</g>
</g>
<!-- Node42&#45;&gt;Node44 -->
<g id="edge10" class="edge">
<title>Node42&#45;&gt;Node44</title>
<path fill="none" stroke="#191970" d="M278.2928,-48C295.2765,-48 315.0184,-48 330.6056,-48"/>
<polygon fill="#191970" stroke="#191970" points="278.1363,-44.5001 268.1362,-48 278.1362,-51.5001 278.1363,-44.5001"/>
</g>
<!-- Node45 -->
<g id="node9" class="node">
<title>Node45</title>
<g id="a_node9"><a xlink:href="structXCS.html#ad2ccafe59d2b4ae6d0e1cbc15edee53c" target="_top" xlink:title="XCS::fit">
<polygon fill="none" stroke="#000000" points="421,-38.5 421,-57.5 473,-57.5 473,-38.5 421,-38.5"/>
<text text-anchor="middle" x="447" y="-45.5" font-family="Helvetica,sans-Serif" font-size="10.00" fill="#000000">XCS::fit</text>
</a>
</g>
</g>
<!-- Node44&#45;&gt;Node45 -->
<g id="edge11" class="edge">
<title>Node44&#45;&gt;Node45</title>
<path fill="none" stroke="#191970" d="M395.3852,-48C403.9664,-48 412.91,-48 420.8947,-48"/>
<polygon fill="#191970" stroke="#191970" points="395.1866,-44.5001 385.1865,-48 395.1865,-51.5001 395.1866,-44.5001"/>
</g>
<!-- Node46 -->
<g id="node10" class="node">
<title>Node46</title>
<g id="a_node10"><a xlink:href="python__wrapper_8cpp.html#afbdcc1358036a0b83a6b239da2b098a2" target="_top" xlink:title="BOOST_PYTHON_MODULE">
<polygon fill="none" stroke="#000000" points="509,-38.5 509,-57.5 655,-57.5 655,-38.5 509,-38.5"/>
<text text-anchor="middle" x="582" y="-45.5" font-family="Helvetica,sans-Serif" font-size="10.00" fill="#000000">BOOST_PYTHON_MODULE</text>
</a>
</g>
</g>
<!-- Node45&#45;&gt;Node46 -->
<g id="edge12" class="edge">
<title>Node45&#45;&gt;Node46</title>
<path fill="none" stroke="#191970" d="M483.1006,-48C491.1369,-48 499.9371,-48 508.8698,-48"/>
<polygon fill="#191970" stroke="#191970" points="483.0294,-44.5001 473.0294,-48 483.0293,-51.5001 483.0294,-44.5001"/>
</g>
</g>
</svg>
