<?xml version="1.0" encoding="UTF-8" standalone="no"?>
<!DOCTYPE svg PUBLIC "-//W3C//DTD SVG 1.1//EN"
 "http://www.w3.org/Graphics/SVG/1.1/DTD/svg11.dtd">
<!-- Generated by graphviz version 2.40.1 (20161225.0304)
 -->
<!-- Title: disp_perf Pages: 1 -->
<svg width="314pt" height="28pt"
 viewBox="0.00 0.00 314.00 28.00" xmlns="http://www.w3.org/2000/svg" xmlns:xlink="http://www.w3.org/1999/xlink">
<g id="graph0" class="graph" transform="scale(1 1) rotate(0) translate(4 24)">
<title>disp_perf</title>
<!-- Node0 -->
<g id="node1" class="node">
<title>Node0</title>
<polygon fill="#bfbfbf" stroke="#000000" points="0,-.5 0,-19.5 56,-19.5 56,-.5 0,-.5"/>
<text text-anchor="middle" x="28" y="-7.5" font-family="Helvetica,sans-Serif" font-size="10.00" fill="#000000">disp_perf</text>
</g>
<!-- Node1 -->
<g id="node2" class="node">
<title>Node1</title>
<g id="a_node2"><a xlink:href="clset_8c.html#a52ca2f1a652586a791c82f27169d1b45" target="_top" xlink:title="Calculates the mean mutation rate of classifiers in the set. ">
<polygon fill="none" stroke="#000000" points="92,-.5 92,-19.5 181,-19.5 181,-.5 92,-.5"/>
<text text-anchor="middle" x="136.5" y="-7.5" font-family="Helvetica,sans-Serif" font-size="10.00" fill="#000000">clset_mean_mut</text>
</a>
</g>
</g>
<!-- Node0&#45;&gt;Node1 -->
<g id="edge1" class="edge">
<title>Node0&#45;&gt;Node1</title>
<path fill="none" stroke="#191970" d="M56.2239,-10C63.9862,-10 72.6801,-10 81.4033,-10"/>
<polygon fill="#191970" stroke="#191970" points="81.6029,-13.5001 91.6028,-10 81.6028,-6.5001 81.6029,-13.5001"/>
</g>
<!-- Node2 -->
<g id="node3" class="node">
<title>Node2</title>
<g id="a_node3"><a xlink:href="cl_8c.html#aa168e302dc5b5f67c3e8e350282ad05e" target="_top" xlink:title="Returns the classifier self&#45;adaptive mutation rate. ">
<polygon fill="none" stroke="#000000" points="217,-.5 217,-19.5 306,-19.5 306,-.5 217,-.5"/>
<text text-anchor="middle" x="261.5" y="-7.5" font-family="Helvetica,sans-Serif" font-size="10.00" fill="#000000">cl_mutation_rate</text>
</a>
</g>
</g>
<!-- Node1&#45;&gt;Node2 -->
<g id="edge2" class="edge">
<title>Node1&#45;&gt;Node2</title>
<path fill="none" stroke="#191970" d="M181.2748,-10C189.4426,-10 198.0507,-10 206.475,-10"/>
<polygon fill="#191970" stroke="#191970" points="206.6177,-13.5001 216.6177,-10 206.6176,-6.5001 206.6177,-13.5001"/>
</g>
</g>
</svg>
