<?xml version="1.0" encoding="UTF-8" standalone="no"?>
<!DOCTYPE svg PUBLIC "-//W3C//DTD SVG 1.1//EN"
 "http://www.w3.org/Graphics/SVG/1.1/DTD/svg11.dtd">
<!-- Generated by graphviz version 2.40.1 (20161225.0304)
 -->
<!-- Title: gplot_free Pages: 1 -->
<svg width="317pt" height="66pt"
 viewBox="0.00 0.00 317.00 66.00" xmlns="http://www.w3.org/2000/svg" xmlns:xlink="http://www.w3.org/1999/xlink">
<g id="graph0" class="graph" transform="scale(1 1) rotate(0) translate(4 62)">
<title>gplot_free</title>
<!-- Node22 -->
<g id="node1" class="node">
<title>Node22</title>
<polygon fill="#bfbfbf" stroke="#000000" points="0,-19.5 0,-38.5 59,-38.5 59,-19.5 0,-19.5"/>
<text text-anchor="middle" x="29.5" y="-26.5" font-family="Helvetica,sans-Serif" font-size="10.00" fill="#000000">gplot_free</text>
</g>
<!-- Node22&#45;&gt;Node22 -->
<g id="edge3" class="edge">
<title>Node22&#45;&gt;Node22</title>
<path fill="none" stroke="#191970" d="M12.5458,-38.7571C4.2978,-47.5653 9.9492,-57 29.5,-57 41.7192,-57 48.509,-53.3146 49.8694,-48.4"/>
<polygon fill="#191970" stroke="#191970" points="53.0919,-47.0149 46.4542,-38.7571 46.4935,-49.3518 53.0919,-47.0149"/>
</g>
<!-- Node23 -->
<g id="node2" class="node">
<title>Node23</title>
<g id="a_node2"><a xlink:href="clset_8c.html#a9bc405ba55a0f3f8975433ef7e681c53" target="_top" xlink:title="Calculates the mean mutation rate of classifiers in the set. ">
<polygon fill="none" stroke="#000000" points="95,-38.5 95,-57.5 184,-57.5 184,-38.5 95,-38.5"/>
<text text-anchor="middle" x="139.5" y="-45.5" font-family="Helvetica,sans-Serif" font-size="10.00" fill="#000000">clset_mean_mut</text>
</a>
</g>
</g>
<!-- Node22&#45;&gt;Node23 -->
<g id="edge1" class="edge">
<title>Node22&#45;&gt;Node23</title>
<path fill="none" stroke="#191970" d="M59.2676,-34.1417C67.219,-35.5151 76.0686,-37.0437 84.9044,-38.5698"/>
<polygon fill="#191970" stroke="#191970" points="84.3759,-42.0303 94.8257,-40.2835 85.5674,-35.1324 84.3759,-42.0303"/>
</g>
<!-- Node25 -->
<g id="node4" class="node">
<title>Node25</title>
<g id="a_node4"><a xlink:href="perf_8c.html#a8a4ffedb577efb2072cf1659b8289b3e" target="_top" xlink:title="Dummy init function if Gnuplot not defined. ">
<polygon fill="none" stroke="#000000" points="111.5,-.5 111.5,-19.5 167.5,-19.5 167.5,-.5 111.5,-.5"/>
<text text-anchor="middle" x="139.5" y="-7.5" font-family="Helvetica,sans-Serif" font-size="10.00" fill="#000000">gplot_init</text>
</a>
</g>
</g>
<!-- Node22&#45;&gt;Node25 -->
<g id="edge4" class="edge">
<title>Node22&#45;&gt;Node25</title>
<path fill="none" stroke="#191970" d="M59.2676,-23.8583C72.1461,-21.6339 87.381,-19.0024 101.0967,-16.6333"/>
<polygon fill="#191970" stroke="#191970" points="101.9664,-20.035 111.2247,-14.8839 100.7749,-13.1371 101.9664,-20.035"/>
</g>
<!-- Node24 -->
<g id="node3" class="node">
<title>Node24</title>
<g id="a_node3"><a xlink:href="cl_8c.html#a870f432a4c01e44bbf1dff60b38845ef" target="_top" xlink:title="Returns the classifier self&#45;adaptive mutation rate. ">
<polygon fill="none" stroke="#000000" points="220,-38.5 220,-57.5 309,-57.5 309,-38.5 220,-38.5"/>
<text text-anchor="middle" x="264.5" y="-45.5" font-family="Helvetica,sans-Serif" font-size="10.00" fill="#000000">cl_mutation_rate</text>
</a>
</g>
</g>
<!-- Node23&#45;&gt;Node24 -->
<g id="edge2" class="edge">
<title>Node23&#45;&gt;Node24</title>
<path fill="none" stroke="#191970" d="M184.2748,-48C192.4426,-48 201.0507,-48 209.475,-48"/>
<polygon fill="#191970" stroke="#191970" points="209.6177,-51.5001 219.6177,-48 209.6176,-44.5001 209.6177,-51.5001"/>
</g>
</g>
</svg>
