<?xml version="1.0" encoding="UTF-8" standalone="no"?>
<!DOCTYPE svg PUBLIC "-//W3C//DTD SVG 1.1//EN"
 "http://www.w3.org/Graphics/SVG/1.1/DTD/svg11.dtd">
<!-- Generated by graphviz version 2.40.1 (20161225.0304)
 -->
<!-- Title: gplot_free Pages: 1 -->
<svg width="396pt" height="87pt"
 viewBox="0.00 0.00 396.00 87.14" xmlns="http://www.w3.org/2000/svg" xmlns:xlink="http://www.w3.org/1999/xlink">
<g id="graph0" class="graph" transform="scale(1 1) rotate(0) translate(4 83.1367)">
<title>gplot_free</title>
<!-- Node22 -->
<g id="node1" class="node">
<title>Node22</title>
<polygon fill="#bfbfbf" stroke="#000000" points="0,-28.5 0,-47.5 59,-47.5 59,-28.5 0,-28.5"/>
<text text-anchor="middle" x="29.5" y="-35.5" font-family="Helvetica,sans-Serif" font-size="10.00" fill="#000000">gplot_free</text>
</g>
<!-- Node23 -->
<g id="node2" class="node">
<title>Node23</title>
<g id="a_node2"><a xlink:href="$perf_8c.html#ab8a54728a7f58890e6c7001969254d16" xlink:title="Dummy free function if Gnuplot not defined. ">
<polygon fill="none" stroke="#000000" points="95,-28.5 95,-47.5 154,-47.5 154,-28.5 95,-28.5"/>
<text text-anchor="middle" x="124.5" y="-35.5" font-family="Helvetica,sans-Serif" font-size="10.00" fill="#000000">gplot_free</text>
</a>
</g>
</g>
<!-- Node22&#45;&gt;Node23 -->
<g id="edge1" class="edge">
<title>Node22&#45;&gt;Node23</title>
<path fill="none" stroke="#191970" d="M59.0378,-38C67.1697,-38 76.1252,-38 84.7327,-38"/>
<polygon fill="#191970" stroke="#191970" points="84.9805,-41.5001 94.9804,-38 84.9804,-34.5001 84.9805,-41.5001"/>
</g>
<!-- Node24 -->
<g id="node3" class="node">
<title>Node24</title>
<g id="a_node3"><a xlink:href="$perf_8c.html#a8a4ffedb577efb2072cf1659b8289b3e" xlink:title="Dummy init function if Gnuplot not defined. ">
<polygon fill="none" stroke="#000000" points="198.5,-47.5 198.5,-66.5 254.5,-66.5 254.5,-47.5 198.5,-47.5"/>
<text text-anchor="middle" x="226.5" y="-54.5" font-family="Helvetica,sans-Serif" font-size="10.00" fill="#000000">gplot_init</text>
</a>
</g>
</g>
<!-- Node22&#45;&gt;Node24 -->
<g id="edge6" class="edge">
<title>Node22&#45;&gt;Node24</title>
<path fill="none" stroke="#191970" d="M42.1732,-47.8084C54.77,-56.8886 75.0428,-69.7529 95,-75 126.6174,-83.3128 163.5786,-76.8832 190.2497,-69.4986"/>
<polygon fill="#191970" stroke="#191970" points="191.3289,-72.8295 199.9352,-66.6503 189.354,-66.1138 191.3289,-72.8295"/>
</g>
<!-- Node25 -->
<g id="node4" class="node">
<title>Node25</title>
<g id="a_node4"><a xlink:href="$cl__set_8c.html#a81227ac29f572c4dce57d5fed7ac2517" xlink:title="Calculates the mean mutation rate of classifiers in the set. ">
<polygon fill="none" stroke="#000000" points="190,-.5 190,-19.5 263,-19.5 263,-.5 190,-.5"/>
<text text-anchor="middle" x="226.5" y="-7.5" font-family="Helvetica,sans-Serif" font-size="10.00" fill="#000000">set_avg_mut</text>
</a>
</g>
</g>
<!-- Node22&#45;&gt;Node25 -->
<g id="edge7" class="edge">
<title>Node22&#45;&gt;Node25</title>
<path fill="none" stroke="#191970" d="M57.5593,-28.429C69.0358,-24.8918 82.5251,-21.2099 95,-19 122.9235,-14.0533 154.6278,-11.7869 179.9089,-10.7649"/>
<polygon fill="#191970" stroke="#191970" points="180.0958,-14.2605 189.9659,-10.4095 179.8486,-7.2649 180.0958,-14.2605"/>
</g>
<!-- Node23&#45;&gt;Node23 -->
<g id="edge2" class="edge">
<title>Node23&#45;&gt;Node23</title>
<path fill="none" stroke="#191970" d="M110.0119,-47.7571C102.9636,-56.5653 107.793,-66 124.5,-66 134.9419,-66 140.7441,-62.3146 141.9066,-57.4"/>
<polygon fill="#191970" stroke="#191970" points="145.2349,-56.3144 138.9881,-47.7571 138.535,-58.3422 145.2349,-56.3144"/>
</g>
<!-- Node23&#45;&gt;Node24 -->
<g id="edge3" class="edge">
<title>Node23&#45;&gt;Node24</title>
<path fill="none" stroke="#191970" d="M154.0026,-43.4956C164.7238,-45.4927 176.9964,-47.7787 188.3581,-49.8951"/>
<polygon fill="#191970" stroke="#191970" points="187.9938,-53.3874 198.4657,-51.7779 189.2758,-46.5058 187.9938,-53.3874"/>
</g>
<!-- Node23&#45;&gt;Node25 -->
<g id="edge4" class="edge">
<title>Node23&#45;&gt;Node25</title>
<path fill="none" stroke="#191970" d="M154.0026,-29.9012C162.7362,-27.5038 172.4993,-24.8237 181.9609,-22.2264"/>
<polygon fill="#191970" stroke="#191970" points="182.9392,-25.5874 191.6559,-19.565 181.0861,-18.8371 182.9392,-25.5874"/>
</g>
<!-- Node26 -->
<g id="node5" class="node">
<title>Node26</title>
<g id="a_node5"><a xlink:href="$cl_8c.html#a870f432a4c01e44bbf1dff60b38845ef" xlink:title="Returns the classifier self&#45;adaptive mutation rate. ">
<polygon fill="none" stroke="#000000" points="299,-.5 299,-19.5 388,-19.5 388,-.5 299,-.5"/>
<text text-anchor="middle" x="343.5" y="-7.5" font-family="Helvetica,sans-Serif" font-size="10.00" fill="#000000">cl_mutation_rate</text>
</a>
</g>
</g>
<!-- Node25&#45;&gt;Node26 -->
<g id="edge5" class="edge">
<title>Node25&#45;&gt;Node26</title>
<path fill="none" stroke="#191970" d="M263.1985,-10C271.2907,-10 280.0324,-10 288.6671,-10"/>
<polygon fill="#191970" stroke="#191970" points="288.7091,-13.5001 298.7091,-10 288.709,-6.5001 288.7091,-13.5001"/>
</g>
</g>
</svg>
