<?xml version="1.0" encoding="UTF-8" standalone="no"?>
<!DOCTYPE svg PUBLIC "-//W3C//DTD SVG 1.1//EN"
 "http://www.w3.org/Graphics/SVG/1.1/DTD/svg11.dtd">
<!-- Generated by graphviz version 2.40.1 (20161225.0304)
 -->
<!-- Title: pred_crossover Pages: 1 -->
<svg width="864pt" height="256pt"
 viewBox="0.00 0.00 864.00 256.00" xmlns="http://www.w3.org/2000/svg" xmlns:xlink="http://www.w3.org/1999/xlink">
<g id="graph0" class="graph" transform="scale(1 1) rotate(0) translate(4 252)">
<title>pred_crossover</title>
<!-- Node45 -->
<g id="node1" class="node">
<title>Node45</title>
<polygon fill="#bfbfbf" stroke="#000000" points="0,-171.5 0,-190.5 83,-190.5 83,-171.5 0,-171.5"/>
<text text-anchor="middle" x="41.5" y="-178.5" font-family="Helvetica,sans-Serif" font-size="10.00" fill="#000000">pred_crossover</text>
</g>
<!-- Node46 -->
<g id="node2" class="node">
<title>Node46</title>
<g id="a_node2"><a xlink:href="cl_8h.html#aca8d32cc95a6a4193e11d0833143e3ac" target="_top" xlink:title="Performs classifier crossover. ">
<polygon fill="none" stroke="#000000" points="119,-171.5 119,-190.5 191,-190.5 191,-171.5 119,-171.5"/>
<text text-anchor="middle" x="155" y="-178.5" font-family="Helvetica,sans-Serif" font-size="10.00" fill="#000000">cl_crossover</text>
</a>
</g>
</g>
<!-- Node45&#45;&gt;Node46 -->
<g id="edge1" class="edge">
<title>Node45&#45;&gt;Node46</title>
<path fill="none" stroke="#191970" d="M93.2203,-181C101.9299,-181 110.7988,-181 118.9978,-181"/>
<polygon fill="#191970" stroke="#191970" points="93.1188,-177.5001 83.1187,-181 93.1187,-184.5001 93.1188,-177.5001"/>
</g>
<!-- Node47 -->
<g id="node3" class="node">
<title>Node47</title>
<g id="a_node3"><a xlink:href="ea_8h.html#ae90a9b4131bb94462265b9c928499eb8" target="_top" xlink:title="Executes the evolutionary algorithm (EA). ">
<polygon fill="none" stroke="#000000" points="227,-171.5 227,-190.5 256,-190.5 256,-171.5 227,-171.5"/>
<text text-anchor="middle" x="241.5" y="-178.5" font-family="Helvetica,sans-Serif" font-size="10.00" fill="#000000">ea</text>
</a>
</g>
</g>
<!-- Node46&#45;&gt;Node47 -->
<g id="edge2" class="edge">
<title>Node46&#45;&gt;Node47</title>
<path fill="none" stroke="#191970" d="M201.308,-181C210.6467,-181 219.7942,-181 226.9975,-181"/>
<polygon fill="#191970" stroke="#191970" points="201.1826,-177.5001 191.1826,-181 201.1826,-184.5001 201.1826,-177.5001"/>
</g>
<!-- Node48 -->
<g id="node4" class="node">
<title>Node48</title>
<g id="a_node4"><a xlink:href="xcs__multi__step_8c.html#ad50c415970b4bfc42f469fb38c5e68fa" target="_top" xlink:title="Executes a multi&#45;step trial using a built&#45;in environment. ">
<polygon fill="none" stroke="#000000" points="301,-218.5 301,-237.5 381,-237.5 381,-218.5 301,-218.5"/>
<text text-anchor="middle" x="341" y="-225.5" font-family="Helvetica,sans-Serif" font-size="10.00" fill="#000000">xcs_multi_trial</text>
</a>
</g>
</g>
<!-- Node47&#45;&gt;Node48 -->
<g id="edge3" class="edge">
<title>Node47&#45;&gt;Node48</title>
<path fill="none" stroke="#191970" d="M265.4056,-192.2921C282.3056,-200.275 304.714,-210.8599 320.7373,-218.4287"/>
<polygon fill="#191970" stroke="#191970" points="266.7185,-189.0415 256.1816,-187.935 263.7287,-195.3709 266.7185,-189.0415"/>
</g>
<!-- Node51 -->
<g id="node7" class="node">
<title>Node51</title>
<g id="a_node7"><a xlink:href="xcs__single__step_8h.html#a0ff6b521f66224d56ef0e6f50f5781b9" target="_top" xlink:title="Creates the action set, updates the classifiers and runs the EA. ">
<polygon fill="none" stroke="#000000" points="292,-171.5 292,-190.5 390,-190.5 390,-171.5 292,-171.5"/>
<text text-anchor="middle" x="341" y="-178.5" font-family="Helvetica,sans-Serif" font-size="10.00" fill="#000000">xcs_single_update</text>
</a>
</g>
</g>
<!-- Node47&#45;&gt;Node51 -->
<g id="edge6" class="edge">
<title>Node47&#45;&gt;Node51</title>
<path fill="none" stroke="#191970" d="M266.2801,-181C274.0174,-181 282.8425,-181 291.6508,-181"/>
<polygon fill="#191970" stroke="#191970" points="266.1816,-177.5001 256.1816,-181 266.1815,-184.5001 266.1816,-177.5001"/>
</g>
<!-- Node56 -->
<g id="node12" class="node">
<title>Node56</title>
<g id="a_node12"><a xlink:href="xcsf_8c.html#af5fb604e81235fdcb2ed8925d9291f59" target="_top" xlink:title="Executes a single XCSF trial. ">
<polygon fill="none" stroke="#000000" points="313,-57.5 313,-76.5 369,-76.5 369,-57.5 313,-57.5"/>
<text text-anchor="middle" x="341" y="-64.5" font-family="Helvetica,sans-Serif" font-size="10.00" fill="#000000">xcsf_trial</text>
</a>
</g>
</g>
<!-- Node47&#45;&gt;Node56 -->
<g id="edge12" class="edge">
<title>Node47&#45;&gt;Node56</title>
<path fill="none" stroke="#191970" d="M256.7434,-163.5352C277.9778,-139.2063 315.7403,-95.9408 332.5382,-76.695"/>
<polygon fill="#191970" stroke="#191970" points="253.9221,-161.445 249.9833,-171.2804 259.1959,-166.048 253.9221,-161.445"/>
</g>
<!-- Node49 -->
<g id="node5" class="node">
<title>Node49</title>
<g id="a_node5"><a xlink:href="xcs__multi__step_8h.html#acc29d4a55dbd56c16ea5f19f15a7c677" target="_top" xlink:title="Executes a multi&#45;step reinforcement learning experiment. ">
<polygon fill="none" stroke="#000000" points="568,-228.5 568,-247.5 672,-247.5 672,-228.5 568,-228.5"/>
<text text-anchor="middle" x="620" y="-235.5" font-family="Helvetica,sans-Serif" font-size="10.00" fill="#000000">xcs_multi_step_exp</text>
</a>
</g>
</g>
<!-- Node48&#45;&gt;Node49 -->
<g id="edge4" class="edge">
<title>Node48&#45;&gt;Node49</title>
<path fill="none" stroke="#191970" d="M391.5047,-229.8102C441.4046,-231.5987 517.3872,-234.3221 567.8508,-236.1309"/>
<polygon fill="#191970" stroke="#191970" points="391.39,-226.3039 381.271,-229.4434 391.1392,-233.2994 391.39,-226.3039"/>
</g>
<!-- Node50 -->
<g id="node6" class="node">
<title>Node50</title>
<g id="a_node6"><a xlink:href="main_8c.html#a3c04138a5bfe5d72780bb7e82a18e627" target="_top" xlink:title="main">
<polygon fill="none" stroke="#000000" points="764,-190.5 764,-209.5 802,-209.5 802,-190.5 764,-190.5"/>
<text text-anchor="middle" x="783" y="-197.5" font-family="Helvetica,sans-Serif" font-size="10.00" fill="#000000">main</text>
</a>
</g>
</g>
<!-- Node49&#45;&gt;Node50 -->
<g id="edge5" class="edge">
<title>Node49&#45;&gt;Node50</title>
<path fill="none" stroke="#191970" d="M671.0525,-226.0982C702.4599,-218.7762 740.9128,-209.8117 763.6012,-204.5224"/>
<polygon fill="#191970" stroke="#191970" points="670.076,-222.7319 661.1318,-228.411 671.6653,-229.5491 670.076,-222.7319"/>
</g>
<!-- Node52 -->
<g id="node8" class="node">
<title>Node52</title>
<g id="a_node8"><a xlink:href="structXCS.html#aedc01ad6f00a54b260a7605929a1d4c9" target="_top" xlink:title="XCS::single_update">
<polygon fill="none" stroke="#000000" points="426,-152.5 426,-171.5 530,-171.5 530,-152.5 426,-152.5"/>
<text text-anchor="middle" x="478" y="-159.5" font-family="Helvetica,sans-Serif" font-size="10.00" fill="#000000">XCS::single_update</text>
</a>
</g>
</g>
<!-- Node51&#45;&gt;Node52 -->
<g id="edge7" class="edge">
<title>Node51&#45;&gt;Node52</title>
<path fill="none" stroke="#191970" d="M400.2254,-172.7863C408.6549,-171.6172 417.2753,-170.4217 425.5632,-169.2723"/>
<polygon fill="#191970" stroke="#191970" points="399.4976,-169.3536 390.0732,-174.1942 400.4592,-176.2873 399.4976,-169.3536"/>
</g>
<!-- Node54 -->
<g id="node10" class="node">
<title>Node54</title>
<g id="a_node10"><a xlink:href="xcs__single__step_8c.html#a536ab4256e871e31959ea6e907455340" target="_top" xlink:title="Executes a single&#45;step trial using a built&#45;in environment. ">
<polygon fill="none" stroke="#000000" points="436,-190.5 436,-209.5 520,-209.5 520,-190.5 436,-190.5"/>
<text text-anchor="middle" x="478" y="-197.5" font-family="Helvetica,sans-Serif" font-size="10.00" fill="#000000">xcs_single_trial</text>
</a>
</g>
</g>
<!-- Node51&#45;&gt;Node54 -->
<g id="edge9" class="edge">
<title>Node51&#45;&gt;Node54</title>
<path fill="none" stroke="#191970" d="M400.0069,-189.1834C411.9825,-190.8443 424.3528,-192.5599 435.6154,-194.1218"/>
<polygon fill="#191970" stroke="#191970" points="400.4592,-185.7128 390.0732,-187.8058 399.4976,-192.6464 400.4592,-185.7128"/>
</g>
<!-- Node53 -->
<g id="node9" class="node">
<title>Node53</title>
<g id="a_node9"><a xlink:href="python__wrapper_8cpp.html#afbdcc1358036a0b83a6b239da2b098a2" target="_top" xlink:title="BOOST_PYTHON_MODULE">
<polygon fill="none" stroke="#000000" points="710,-57.5 710,-76.5 856,-76.5 856,-57.5 710,-57.5"/>
<text text-anchor="middle" x="783" y="-64.5" font-family="Helvetica,sans-Serif" font-size="10.00" fill="#000000">BOOST_PYTHON_MODULE</text>
</a>
</g>
</g>
<!-- Node52&#45;&gt;Node53 -->
<g id="edge8" class="edge">
<title>Node52&#45;&gt;Node53</title>
<path fill="none" stroke="#191970" d="M522.5475,-149.7635C562.4055,-138.6446 622.3418,-121.5037 674,-105 702.4442,-95.9127 734.7024,-84.5307 756.6992,-76.6036"/>
<polygon fill="#191970" stroke="#191970" points="521.5605,-146.405 512.8639,-152.4565 523.4361,-153.1491 521.5605,-146.405"/>
</g>
<!-- Node55 -->
<g id="node11" class="node">
<title>Node55</title>
<g id="a_node11"><a xlink:href="xcs__single__step_8h.html#a39a031bf59eaa9b33e30e614610dcda8" target="_top" xlink:title="Executes a single&#45;step reinforcement learning experiment. ">
<polygon fill="none" stroke="#000000" points="566,-190.5 566,-209.5 674,-209.5 674,-190.5 566,-190.5"/>
<text text-anchor="middle" x="620" y="-197.5" font-family="Helvetica,sans-Serif" font-size="10.00" fill="#000000">xcs_single_step_exp</text>
</a>
</g>
</g>
<!-- Node54&#45;&gt;Node55 -->
<g id="edge10" class="edge">
<title>Node54&#45;&gt;Node55</title>
<path fill="none" stroke="#191970" d="M530.551,-200C542.0539,-200 554.2511,-200 565.8166,-200"/>
<polygon fill="#191970" stroke="#191970" points="530.2203,-196.5001 520.2202,-200 530.2202,-203.5001 530.2203,-196.5001"/>
</g>
<!-- Node55&#45;&gt;Node50 -->
<g id="edge11" class="edge">
<title>Node55&#45;&gt;Node50</title>
<path fill="none" stroke="#191970" d="M684.611,-200C713.0891,-200 744.4445,-200 763.9303,-200"/>
<polygon fill="#191970" stroke="#191970" points="684.2767,-196.5001 674.2766,-200 684.2766,-203.5001 684.2767,-196.5001"/>
</g>
<!-- Node57 -->
<g id="node13" class="node">
<title>Node57</title>
<g id="a_node13"><a xlink:href="xcsf_8h.html#aee465caea59599a71fc69528598156cb" target="_top" xlink:title="Executes MAX_TRIALS number of XCSF learning iterations using the training. data and test iterations u...">
<polygon fill="none" stroke="#000000" points="453.5,-76.5 453.5,-95.5 502.5,-95.5 502.5,-76.5 453.5,-76.5"/>
<text text-anchor="middle" x="478" y="-83.5" font-family="Helvetica,sans-Serif" font-size="10.00" fill="#000000">xcsf_fit</text>
</a>
</g>
</g>
<!-- Node56&#45;&gt;Node57 -->
<g id="edge13" class="edge">
<title>Node56&#45;&gt;Node57</title>
<path fill="none" stroke="#191970" d="M379.1185,-72.2865C402.7972,-75.5704 432.5501,-79.6967 453.2027,-82.561"/>
<polygon fill="#191970" stroke="#191970" points="379.4406,-68.7978 369.0546,-70.8908 378.479,-75.7314 379.4406,-68.7978"/>
</g>
<!-- Node59 -->
<g id="node15" class="node">
<title>Node59</title>
<g id="a_node15"><a xlink:href="xcsf_8h.html#af128a7da769acabe2e841e8d06749b0b" target="_top" xlink:title="Calculates the XCSF predictions for the provided input. ">
<polygon fill="none" stroke="#000000" points="443,-38.5 443,-57.5 513,-57.5 513,-38.5 443,-38.5"/>
<text text-anchor="middle" x="478" y="-45.5" font-family="Helvetica,sans-Serif" font-size="10.00" fill="#000000">xcsf_predict</text>
</a>
</g>
</g>
<!-- Node56&#45;&gt;Node59 -->
<g id="edge17" class="edge">
<title>Node56&#45;&gt;Node59</title>
<path fill="none" stroke="#191970" d="M379.064,-61.721C399.0542,-58.9487 423.385,-55.5743 442.9157,-52.8657"/>
<polygon fill="#191970" stroke="#191970" points="378.479,-58.2686 369.0546,-63.1092 379.4406,-65.2022 378.479,-58.2686"/>
</g>
<!-- Node61 -->
<g id="node17" class="node">
<title>Node61</title>
<g id="a_node17"><a xlink:href="xcsf_8h.html#a348b8cd321211c377fb1deedc62c7c67" target="_top" xlink:title="Calculates the XCSF error for the input data. ">
<polygon fill="none" stroke="#000000" points="445.5,-.5 445.5,-19.5 510.5,-19.5 510.5,-.5 445.5,-.5"/>
<text text-anchor="middle" x="478" y="-7.5" font-family="Helvetica,sans-Serif" font-size="10.00" fill="#000000">xcsf_score</text>
</a>
</g>
</g>
<!-- Node56&#45;&gt;Node61 -->
<g id="edge20" class="edge">
<title>Node56&#45;&gt;Node61</title>
<path fill="none" stroke="#191970" d="M370.9163,-53.0094C387.1046,-45.5955 407.5173,-36.4974 426,-29 434.016,-25.7484 442.8227,-22.4347 450.8735,-19.5046"/>
<polygon fill="#191970" stroke="#191970" points="369.0541,-50.0138 361.4377,-57.3787 371.9845,-56.3709 369.0541,-50.0138"/>
</g>
<!-- Node57&#45;&gt;Node50 -->
<g id="edge14" class="edge">
<title>Node57&#45;&gt;Node50</title>
<path fill="none" stroke="#191970" d="M512.3792,-98.8499C576.6984,-122.8906 713.2779,-173.94 763.7389,-192.8008"/>
<polygon fill="#191970" stroke="#191970" points="513.2936,-95.4553 502.7011,-95.2325 510.8427,-102.0122 513.2936,-95.4553"/>
</g>
<!-- Node58 -->
<g id="node14" class="node">
<title>Node58</title>
<g id="a_node14"><a xlink:href="structXCS.html#ad2ccafe59d2b4ae6d0e1cbc15edee53c" target="_top" xlink:title="XCS::fit">
<polygon fill="none" stroke="#000000" points="594,-76.5 594,-95.5 646,-95.5 646,-76.5 594,-76.5"/>
<text text-anchor="middle" x="620" y="-83.5" font-family="Helvetica,sans-Serif" font-size="10.00" fill="#000000">XCS::fit</text>
</a>
</g>
</g>
<!-- Node57&#45;&gt;Node58 -->
<g id="edge15" class="edge">
<title>Node57&#45;&gt;Node58</title>
<path fill="none" stroke="#191970" d="M512.8735,-86C537.8145,-86 570.8634,-86 593.6237,-86"/>
<polygon fill="#191970" stroke="#191970" points="512.7345,-82.5001 502.7345,-86 512.7345,-89.5001 512.7345,-82.5001"/>
</g>
<!-- Node58&#45;&gt;Node53 -->
<g id="edge16" class="edge">
<title>Node58&#45;&gt;Node53</title>
<path fill="none" stroke="#191970" d="M656.5233,-81.7427C672.2717,-79.907 691.2822,-77.691 709.7251,-75.5412"/>
<polygon fill="#191970" stroke="#191970" points="655.7163,-78.313 646.1888,-82.9473 656.5268,-85.2659 655.7163,-78.313"/>
</g>
<!-- Node60 -->
<g id="node16" class="node">
<title>Node60</title>
<g id="a_node16"><a xlink:href="structXCS.html#a911ed75c86abed7807d33eb1385240ed" target="_top" xlink:title="XCS::predict">
<polygon fill="none" stroke="#000000" points="583.5,-38.5 583.5,-57.5 656.5,-57.5 656.5,-38.5 583.5,-38.5"/>
<text text-anchor="middle" x="620" y="-45.5" font-family="Helvetica,sans-Serif" font-size="10.00" fill="#000000">XCS::predict</text>
</a>
</g>
</g>
<!-- Node59&#45;&gt;Node60 -->
<g id="edge18" class="edge">
<title>Node59&#45;&gt;Node60</title>
<path fill="none" stroke="#191970" d="M523.2292,-48C542.6223,-48 564.9834,-48 583.3219,-48"/>
<polygon fill="#191970" stroke="#191970" points="523.1012,-44.5001 513.1011,-48 523.1011,-51.5001 523.1012,-44.5001"/>
</g>
<!-- Node60&#45;&gt;Node53 -->
<g id="edge19" class="edge">
<title>Node60&#45;&gt;Node53</title>
<path fill="none" stroke="#191970" d="M666.5613,-53.4274C680.0572,-55.0005 695.1298,-56.7575 709.8365,-58.4717"/>
<polygon fill="#191970" stroke="#191970" points="666.9184,-49.9454 656.5804,-52.264 666.1079,-56.8983 666.9184,-49.9454"/>
</g>
<!-- Node62 -->
<g id="node18" class="node">
<title>Node62</title>
<g id="a_node18"><a xlink:href="structXCS.html#aa77bc77484d6d14bf512304a23cfec88" target="_top" xlink:title="XCS::score">
<polygon fill="none" stroke="#000000" points="586,-.5 586,-19.5 654,-19.5 654,-.5 586,-.5"/>
<text text-anchor="middle" x="620" y="-7.5" font-family="Helvetica,sans-Serif" font-size="10.00" fill="#000000">XCS::score</text>
</a>
</g>
</g>
<!-- Node61&#45;&gt;Node62 -->
<g id="edge21" class="edge">
<title>Node61&#45;&gt;Node62</title>
<path fill="none" stroke="#191970" d="M520.7215,-10C541.4707,-10 566.0715,-10 585.5932,-10"/>
<polygon fill="#191970" stroke="#191970" points="520.5777,-6.5001 510.5777,-10 520.5776,-13.5001 520.5777,-6.5001"/>
</g>
<!-- Node62&#45;&gt;Node53 -->
<g id="edge22" class="edge">
<title>Node62&#45;&gt;Node53</title>
<path fill="none" stroke="#191970" d="M656.9708,-22.9285C686.9626,-33.4164 728.5636,-47.9639 755.6285,-57.4284"/>
<polygon fill="#191970" stroke="#191970" points="657.8774,-19.5377 647.2825,-19.5405 655.5667,-26.1453 657.8774,-19.5377"/>
</g>
</g>
</svg>
