<?xml version="1.0" encoding="UTF-8" standalone="no"?>
<!DOCTYPE svg PUBLIC "-//W3C//DTD SVG 1.1//EN"
 "http://www.w3.org/Graphics/SVG/1.1/DTD/svg11.dtd">
<!-- Generated by graphviz version 2.40.1 (20161225.0304)
 -->
<!-- Title: pred_size Pages: 1 -->
<svg width="1543pt" height="404pt"
 viewBox="0.00 0.00 1543.00 404.14" xmlns="http://www.w3.org/2000/svg" xmlns:xlink="http://www.w3.org/1999/xlink">
<g id="graph0" class="graph" transform="scale(1 1) rotate(0) translate(4 400.1374)">
<title>pred_size</title>
<!-- Node161 -->
<g id="node1" class="node">
<title>Node161</title>
<polygon fill="#bfbfbf" stroke="#000000" points="0,-307.6374 0,-326.6374 59,-326.6374 59,-307.6374 0,-307.6374"/>
<text text-anchor="middle" x="29.5" y="-314.6374" font-family="Helvetica,sans-Serif" font-size="10.00" fill="#000000">pred_size</text>
</g>
<!-- Node162 -->
<g id="node2" class="node">
<title>Node162</title>
<g id="a_node2"><a xlink:href="cl_8h.html#aaa9b5b7ca68222f98cc38c80b643edbe" target="_top" xlink:title="Returns the size of the classifier prediction. ">
<polygon fill="none" stroke="#000000" points="95,-307.6374 95,-326.6374 166,-326.6374 166,-307.6374 95,-307.6374"/>
<text text-anchor="middle" x="130.5" y="-314.6374" font-family="Helvetica,sans-Serif" font-size="10.00" fill="#000000">cl_pred_size</text>
</a>
</g>
</g>
<!-- Node161&#45;&gt;Node162 -->
<g id="edge1" class="edge">
<title>Node161&#45;&gt;Node162</title>
<path fill="none" stroke="#191970" d="M69.2887,-317.1374C77.7389,-317.1374 86.6085,-317.1374 94.8912,-317.1374"/>
<polygon fill="#191970" stroke="#191970" points="69.2571,-313.6375 59.2571,-317.1374 69.257,-320.6375 69.2571,-313.6375"/>
</g>
<!-- Node163 -->
<g id="node3" class="node">
<title>Node163</title>
<g id="a_node3"><a xlink:href="clset_8h.html#ae1203442b5a7d2289f1ff55b1bb3ed5f" target="_top" xlink:title="Calculates the mean prediction size of classifiers in the set. ">
<polygon fill="none" stroke="#000000" points="202,-354.6374 202,-373.6374 316,-373.6374 316,-354.6374 202,-354.6374"/>
<text text-anchor="middle" x="259" y="-361.6374" font-family="Helvetica,sans-Serif" font-size="10.00" fill="#000000">clset_mean_pred_size</text>
</a>
</g>
</g>
<!-- Node162&#45;&gt;Node163 -->
<g id="edge2" class="edge">
<title>Node162&#45;&gt;Node163</title>
<path fill="none" stroke="#191970" d="M166.074,-330.1489C187.1379,-337.8532 213.3754,-347.4498 232.5937,-354.4791"/>
<polygon fill="#191970" stroke="#191970" points="167.0977,-326.7966 156.5039,-326.6486 164.6931,-333.3707 167.0977,-326.7966"/>
</g>
<!-- Node166 -->
<g id="node6" class="node">
<title>Node166</title>
<g id="a_node6"><a xlink:href="clset_8c.html#a6dae2bd49bceef5337bcad19010098f8" target="_top" xlink:title="Deletes a single classifier from the population set. ">
<polygon fill="none" stroke="#000000" points="220.5,-288.6374 220.5,-307.6374 297.5,-307.6374 297.5,-288.6374 220.5,-288.6374"/>
<text text-anchor="middle" x="259" y="-295.6374" font-family="Helvetica,sans-Serif" font-size="10.00" fill="#000000">clset_pop_del</text>
</a>
</g>
</g>
<!-- Node162&#45;&gt;Node166 -->
<g id="edge5" class="edge">
<title>Node162&#45;&gt;Node166</title>
<path fill="none" stroke="#191970" d="M176.4541,-310.3427C190.7914,-308.2227 206.4547,-305.9068 220.247,-303.8674"/>
<polygon fill="#191970" stroke="#191970" points="175.6749,-306.9197 166.2944,-311.8449 176.6988,-313.8444 175.6749,-306.9197"/>
</g>
<!-- Node164 -->
<g id="node4" class="node">
<title>Node164</title>
<g id="a_node4"><a xlink:href="structXCS.html#ad9367f471d3bd009d3d84a6e85f5b619" target="_top" xlink:title="XCS::get_pop_mean_pred_size">
<polygon fill="none" stroke="#000000" points="507,-376.6374 507,-395.6374 662,-395.6374 662,-376.6374 507,-376.6374"/>
<text text-anchor="middle" x="584.5" y="-383.6374" font-family="Helvetica,sans-Serif" font-size="10.00" fill="#000000">XCS::get_pop_mean_pred_size</text>
</a>
</g>
</g>
<!-- Node163&#45;&gt;Node164 -->
<g id="edge3" class="edge">
<title>Node163&#45;&gt;Node164</title>
<path fill="none" stroke="#191970" d="M326.2983,-368.686C378.8656,-372.2389 451.9798,-377.1806 506.9914,-380.8987"/>
<polygon fill="#191970" stroke="#191970" points="326.2835,-365.1771 316.0702,-367.9947 325.8114,-372.1612 326.2835,-365.1771"/>
</g>
<!-- Node165 -->
<g id="node5" class="node">
<title>Node165</title>
<g id="a_node5"><a xlink:href="python__wrapper_8cpp.html#afbdcc1358036a0b83a6b239da2b098a2" target="_top" xlink:title="BOOST_PYTHON_MODULE">
<polygon fill="none" stroke="#000000" points="1389,-117.6374 1389,-136.6374 1535,-136.6374 1535,-117.6374 1389,-117.6374"/>
<text text-anchor="middle" x="1462" y="-124.6374" font-family="Helvetica,sans-Serif" font-size="10.00" fill="#000000">BOOST_PYTHON_MODULE</text>
</a>
</g>
</g>
<!-- Node164&#45;&gt;Node165 -->
<g id="edge4" class="edge">
<title>Node164&#45;&gt;Node165</title>
<path fill="none" stroke="#191970" d="M672.4816,-389.5218C726.3289,-391.3095 796.6364,-393.1374 859,-393.1374 859,-393.1374 859,-393.1374 1153,-393.1374 1245.676,-393.1374 1281.3175,-392.878 1353,-334.1374 1420.8563,-278.5323 1451.8037,-169.3946 1459.8181,-136.6466"/>
<polygon fill="#191970" stroke="#191970" points="672.3945,-386.017 662.282,-389.1772 672.1581,-393.013 672.3945,-386.017"/>
</g>
<!-- Node167 -->
<g id="node7" class="node">
<title>Node167</title>
<g id="a_node7"><a xlink:href="clset_8h.html#ad87086ed11e5fdd6bffe41b8a34f3608" target="_top" xlink:title="Enforces the maximum population size limit. ">
<polygon fill="none" stroke="#000000" points="352,-231.6374 352,-250.6374 471,-250.6374 471,-231.6374 352,-231.6374"/>
<text text-anchor="middle" x="411.5" y="-238.6374" font-family="Helvetica,sans-Serif" font-size="10.00" fill="#000000">clset_pop_enforce_limit</text>
</a>
</g>
</g>
<!-- Node166&#45;&gt;Node167 -->
<g id="edge6" class="edge">
<title>Node166&#45;&gt;Node167</title>
<path fill="none" stroke="#191970" d="M293.9559,-285.0719C321.9872,-274.5946 360.6803,-260.1323 385.8917,-250.7091"/>
<polygon fill="#191970" stroke="#191970" points="292.6667,-281.8172 284.5251,-288.5969 295.1176,-288.3742 292.6667,-281.8172"/>
</g>
<!-- Node168 -->
<g id="node8" class="node">
<title>Node168</title>
<g id="a_node8"><a xlink:href="clset_8c.html#a4618b655dcce0a515530eb3a2ea77056" target="_top" xlink:title="Ensures all possible actions are covered by the match set. ">
<polygon fill="none" stroke="#000000" points="551,-174.6374 551,-193.6374 618,-193.6374 618,-174.6374 551,-174.6374"/>
<text text-anchor="middle" x="584.5" y="-181.6374" font-family="Helvetica,sans-Serif" font-size="10.00" fill="#000000">clset_cover</text>
</a>
</g>
</g>
<!-- Node167&#45;&gt;Node168 -->
<g id="edge7" class="edge">
<title>Node167&#45;&gt;Node168</title>
<path fill="none" stroke="#191970" d="M450.3245,-228.3455C482.1865,-217.8477 526.599,-203.2146 555.4492,-193.7091"/>
<polygon fill="#191970" stroke="#191970" points="448.8588,-225.1433 440.4563,-231.5969 451.0494,-231.7917 448.8588,-225.1433"/>
</g>
<!-- Node189 -->
<g id="node29" class="node">
<title>Node189</title>
<g id="a_node29"><a xlink:href="ea_8h.html#ae3824341a2f5482cb6ac70b3839ded51" target="_top" xlink:title="Executes the evolutionary algorithm (EA). ">
<polygon fill="none" stroke="#000000" points="718.5,-231.6374 718.5,-250.6374 747.5,-250.6374 747.5,-231.6374 718.5,-231.6374"/>
<text text-anchor="middle" x="733" y="-238.6374" font-family="Helvetica,sans-Serif" font-size="10.00" fill="#000000">ea</text>
</a>
</g>
</g>
<!-- Node167&#45;&gt;Node189 -->
<g id="edge36" class="edge">
<title>Node167&#45;&gt;Node189</title>
<path fill="none" stroke="#191970" d="M481.3464,-241.1374C558.4883,-241.1374 677.2371,-241.1374 718.376,-241.1374"/>
<polygon fill="#191970" stroke="#191970" points="481.2183,-237.6375 471.2182,-241.1374 481.2182,-244.6375 481.2183,-237.6375"/>
</g>
<!-- Node169 -->
<g id="node9" class="node">
<title>Node169</title>
<g id="a_node9"><a xlink:href="clset_8h.html#a4662c8796d3667b21324be9d35a1223e" target="_top" xlink:title="Constructs the match set. ">
<polygon fill="none" stroke="#000000" points="698,-155.6374 698,-174.6374 768,-174.6374 768,-155.6374 698,-155.6374"/>
<text text-anchor="middle" x="733" y="-162.6374" font-family="Helvetica,sans-Serif" font-size="10.00" fill="#000000">clset_match</text>
</a>
</g>
</g>
<!-- Node168&#45;&gt;Node169 -->
<g id="edge8" class="edge">
<title>Node168&#45;&gt;Node169</title>
<path fill="none" stroke="#191970" d="M628.3635,-178.5253C650.5381,-175.6881 677.0825,-172.2918 697.8869,-169.63"/>
<polygon fill="#191970" stroke="#191970" points="627.6719,-175.0851 618.1969,-179.826 628.5603,-182.0285 627.6719,-175.0851"/>
</g>
<!-- Node170 -->
<g id="node10" class="node">
<title>Node170</title>
<g id="a_node10"><a xlink:href="xcs__multi__step_8c.html#a1e1c2a3094be715b468dda79cd59ebf3" target="_top" xlink:title="Executes a multi&#45;step trial using a built&#45;in environment. ">
<polygon fill="none" stroke="#000000" points="819,-231.6374 819,-250.6374 899,-250.6374 899,-231.6374 819,-231.6374"/>
<text text-anchor="middle" x="859" y="-238.6374" font-family="Helvetica,sans-Serif" font-size="10.00" fill="#000000">xcs_multi_trial</text>
</a>
</g>
</g>
<!-- Node169&#45;&gt;Node170 -->
<g id="edge9" class="edge">
<title>Node169&#45;&gt;Node170</title>
<path fill="none" stroke="#191970" d="M750.4098,-181.9788C764.0738,-194.4526 784.0609,-211.1269 804,-222.1374 810.6327,-225.8 818.0997,-228.9474 825.3429,-231.567"/>
<polygon fill="#191970" stroke="#191970" points="752.4715,-179.115 742.7761,-174.8431 747.6914,-184.2288 752.4715,-179.115"/>
</g>
<!-- Node173 -->
<g id="node13" class="node">
<title>Node173</title>
<g id="a_node13"><a xlink:href="xcs__single__step_8h.html#a6cd0f3c0c1c71e13dba1ce493ef873a5" target="_top" xlink:title="Constructs the match set and selects an action to perform. ">
<polygon fill="none" stroke="#000000" points="807,-155.6374 807,-174.6374 911,-174.6374 911,-155.6374 807,-155.6374"/>
<text text-anchor="middle" x="859" y="-162.6374" font-family="Helvetica,sans-Serif" font-size="10.00" fill="#000000">xcs_single_decision</text>
</a>
</g>
</g>
<!-- Node169&#45;&gt;Node173 -->
<g id="edge12" class="edge">
<title>Node169&#45;&gt;Node173</title>
<path fill="none" stroke="#191970" d="M778.2232,-165.1374C787.4409,-165.1374 797.2117,-165.1374 806.6536,-165.1374"/>
<polygon fill="#191970" stroke="#191970" points="778.0981,-161.6375 768.098,-165.1374 778.098,-168.6375 778.0981,-161.6375"/>
</g>
<!-- Node177 -->
<g id="node17" class="node">
<title>Node177</title>
<g id="a_node17"><a xlink:href="xcsf_8c.html#a474f4e13cfc5f00958c689cd8c81135a" target="_top" xlink:title="Executes a single XCSF learning trial. ">
<polygon fill="none" stroke="#000000" points="817.5,-193.6374 817.5,-212.6374 900.5,-212.6374 900.5,-193.6374 817.5,-193.6374"/>
<text text-anchor="middle" x="859" y="-200.6374" font-family="Helvetica,sans-Serif" font-size="10.00" fill="#000000">xcsf_learn_trial</text>
</a>
</g>
</g>
<!-- Node169&#45;&gt;Node177 -->
<g id="edge18" class="edge">
<title>Node169&#45;&gt;Node177</title>
<path fill="none" stroke="#191970" d="M774.5644,-177.6727C791.7052,-182.8422 811.2496,-188.7365 827.2151,-193.5515"/>
<polygon fill="#191970" stroke="#191970" points="775.3798,-174.263 764.7951,-174.7264 773.3586,-180.9648 775.3798,-174.263"/>
</g>
<!-- Node182 -->
<g id="node22" class="node">
<title>Node182</title>
<g id="a_node22"><a xlink:href="xcsf_8h.html#af0b9db7273578fdff649d46823cd9790" target="_top" xlink:title="Calculates the XCSF predictions for the provided input. ">
<polygon fill="none" stroke="#000000" points="824,-70.6374 824,-89.6374 894,-89.6374 894,-70.6374 824,-70.6374"/>
<text text-anchor="middle" x="859" y="-77.6374" font-family="Helvetica,sans-Serif" font-size="10.00" fill="#000000">xcsf_predict</text>
</a>
</g>
</g>
<!-- Node169&#45;&gt;Node182 -->
<g id="edge25" class="edge">
<title>Node169&#45;&gt;Node182</title>
<path fill="none" stroke="#191970" d="M751.3551,-148.6527C765.2421,-136.6246 785.0891,-120.357 804,-108.1374 814.7094,-101.2174 827.3468,-94.6806 837.8056,-89.666"/>
<polygon fill="#191970" stroke="#191970" points="748.7418,-146.2898 743.5404,-155.52 753.3625,-151.5481 748.7418,-146.2898"/>
</g>
<!-- Node184 -->
<g id="node24" class="node">
<title>Node184</title>
<g id="a_node24"><a xlink:href="xcsf_8h.html#ae1f6851f682e015601030a5c725c6618" target="_top" xlink:title="Prints the XCSF match set for the supplied input. ">
<polygon fill="none" stroke="#000000" points="804,-13.6374 804,-32.6374 914,-32.6374 914,-13.6374 804,-13.6374"/>
<text text-anchor="middle" x="859" y="-20.6374" font-family="Helvetica,sans-Serif" font-size="10.00" fill="#000000">xcsf_print_match_set</text>
</a>
</g>
</g>
<!-- Node169&#45;&gt;Node184 -->
<g id="edge28" class="edge">
<title>Node169&#45;&gt;Node184</title>
<path fill="none" stroke="#191970" d="M742.9779,-146.3842C755.3233,-124.3121 777.9322,-87.3512 804,-61.1374 815.2936,-49.7806 830.3936,-39.6255 841.9145,-32.6767"/>
<polygon fill="#191970" stroke="#191970" points="739.7822,-144.933 738.0523,-155.3857 745.923,-148.2933 739.7822,-144.933"/>
</g>
<!-- Node186 -->
<g id="node26" class="node">
<title>Node186</title>
<g id="a_node26"><a xlink:href="xcsf_8c.html#aa6edd3962ddd04940e2c78a4f99de7cd" target="_top" xlink:title="Executes a single XCSF testing trial. ">
<polygon fill="none" stroke="#000000" points="820,-117.6374 820,-136.6374 898,-136.6374 898,-117.6374 820,-117.6374"/>
<text text-anchor="middle" x="859" y="-124.6374" font-family="Helvetica,sans-Serif" font-size="10.00" fill="#000000">xcsf_test_trial</text>
</a>
</g>
</g>
<!-- Node169&#45;&gt;Node186 -->
<g id="edge31" class="edge">
<title>Node169&#45;&gt;Node186</title>
<path fill="none" stroke="#191970" d="M774.5644,-152.6021C791.7052,-147.4327 811.2496,-141.5383 827.2151,-136.7234"/>
<polygon fill="#191970" stroke="#191970" points="773.3586,-149.31 764.7951,-155.5484 775.3798,-156.0119 773.3586,-149.31"/>
</g>
<!-- Node171 -->
<g id="node11" class="node">
<title>Node171</title>
<g id="a_node11"><a xlink:href="xcs__multi__step_8h.html#acc29d4a55dbd56c16ea5f19f15a7c677" target="_top" xlink:title="Executes a multi&#45;step reinforcement learning experiment. ">
<polygon fill="none" stroke="#000000" points="1101,-307.6374 1101,-326.6374 1205,-326.6374 1205,-307.6374 1101,-307.6374"/>
<text text-anchor="middle" x="1153" y="-314.6374" font-family="Helvetica,sans-Serif" font-size="10.00" fill="#000000">xcs_multi_step_exp</text>
</a>
</g>
</g>
<!-- Node170&#45;&gt;Node171 -->
<g id="edge10" class="edge">
<title>Node170&#45;&gt;Node171</title>
<path fill="none" stroke="#191970" d="M904.0848,-254.662C907.5385,-256.31 910.8874,-258.1312 914,-260.1374 933.5547,-272.741 929.0807,-287.9581 950,-298.1374 997.2659,-321.1371 1058.0035,-323.8468 1100.6791,-322.067"/>
<polygon fill="#191970" stroke="#191970" points="905.3596,-251.4006 894.7882,-250.6956 902.6126,-257.8391 905.3596,-251.4006"/>
</g>
<!-- Node172 -->
<g id="node12" class="node">
<title>Node172</title>
<g id="a_node12"><a xlink:href="main_8c.html#a3c04138a5bfe5d72780bb7e82a18e627" target="_top" xlink:title="main">
<polygon fill="none" stroke="#000000" points="1279,-269.6374 1279,-288.6374 1317,-288.6374 1317,-269.6374 1279,-269.6374"/>
<text text-anchor="middle" x="1298" y="-276.6374" font-family="Helvetica,sans-Serif" font-size="10.00" fill="#000000">main</text>
</a>
</g>
</g>
<!-- Node171&#45;&gt;Node172 -->
<g id="edge11" class="edge">
<title>Node171&#45;&gt;Node172</title>
<path fill="none" stroke="#191970" d="M1199.5673,-304.9336C1226.394,-297.9031 1258.6769,-289.4428 1278.7732,-284.1762"/>
<polygon fill="#191970" stroke="#191970" points="1198.3757,-301.6276 1189.5896,-307.5484 1200.1503,-308.3989 1198.3757,-301.6276"/>
</g>
<!-- Node174 -->
<g id="node14" class="node">
<title>Node174</title>
<g id="a_node14"><a xlink:href="structXCS.html#a94d556a5e545ec415d7165d5e91b21d4" target="_top" xlink:title="XCS::single_decision">
<polygon fill="none" stroke="#000000" points="1243,-117.6374 1243,-136.6374 1353,-136.6374 1353,-117.6374 1243,-117.6374"/>
<text text-anchor="middle" x="1298" y="-124.6374" font-family="Helvetica,sans-Serif" font-size="10.00" fill="#000000">XCS::single_decision</text>
</a>
</g>
</g>
<!-- Node173&#45;&gt;Node174 -->
<g id="edge13" class="edge">
<title>Node173&#45;&gt;Node174</title>
<path fill="none" stroke="#191970" d="M921.219,-159.7517C1007.1651,-152.3122 1160.8695,-139.0075 1242.8847,-131.9082"/>
<polygon fill="#191970" stroke="#191970" points="920.7439,-156.2797 911.083,-160.6291 921.3476,-163.2536 920.7439,-156.2797"/>
</g>
<!-- Node175 -->
<g id="node15" class="node">
<title>Node175</title>
<g id="a_node15"><a xlink:href="xcs__single__step_8c.html#a3d1fd2472d35310800aed897219a65af" target="_top" xlink:title="Executes a single&#45;step trial using a built&#45;in environment. ">
<polygon fill="none" stroke="#000000" points="964.5,-269.6374 964.5,-288.6374 1048.5,-288.6374 1048.5,-269.6374 964.5,-269.6374"/>
<text text-anchor="middle" x="1006.5" y="-276.6374" font-family="Helvetica,sans-Serif" font-size="10.00" fill="#000000">xcs_single_trial</text>
</a>
</g>
</g>
<!-- Node173&#45;&gt;Node175 -->
<g id="edge15" class="edge">
<title>Node173&#45;&gt;Node175</title>
<path fill="none" stroke="#191970" d="M904.0848,-178.662C907.5385,-180.31 910.8874,-182.1312 914,-184.1374 933.5547,-196.741 933.8101,-205.4305 950,-222.1374 966.2901,-238.9477 985.532,-258.2423 996.8358,-269.521"/>
<polygon fill="#191970" stroke="#191970" points="905.3596,-175.4006 894.7882,-174.6956 902.6126,-181.8391 905.3596,-175.4006"/>
</g>
<!-- Node174&#45;&gt;Node165 -->
<g id="edge14" class="edge">
<title>Node174&#45;&gt;Node165</title>
<path fill="none" stroke="#191970" d="M1363.1637,-127.1374C1371.5629,-127.1374 1380.2083,-127.1374 1388.7266,-127.1374"/>
<polygon fill="#191970" stroke="#191970" points="1363.0659,-123.6375 1353.0659,-127.1374 1363.0658,-130.6375 1363.0659,-123.6375"/>
</g>
<!-- Node176 -->
<g id="node16" class="node">
<title>Node176</title>
<g id="a_node16"><a xlink:href="xcs__single__step_8h.html#a39a031bf59eaa9b33e30e614610dcda8" target="_top" xlink:title="Executes a single&#45;step experiment. ">
<polygon fill="none" stroke="#000000" points="1099,-269.6374 1099,-288.6374 1207,-288.6374 1207,-269.6374 1099,-269.6374"/>
<text text-anchor="middle" x="1153" y="-276.6374" font-family="Helvetica,sans-Serif" font-size="10.00" fill="#000000">xcs_single_step_exp</text>
</a>
</g>
</g>
<!-- Node175&#45;&gt;Node176 -->
<g id="edge16" class="edge">
<title>Node175&#45;&gt;Node176</title>
<path fill="none" stroke="#191970" d="M1059.0389,-279.1374C1072.0094,-279.1374 1085.9239,-279.1374 1098.9641,-279.1374"/>
<polygon fill="#191970" stroke="#191970" points="1058.8739,-275.6375 1048.8739,-279.1374 1058.8738,-282.6375 1058.8739,-275.6375"/>
</g>
<!-- Node176&#45;&gt;Node172 -->
<g id="edge17" class="edge">
<title>Node176&#45;&gt;Node172</title>
<path fill="none" stroke="#191970" d="M1217.5275,-279.1374C1239.7805,-279.1374 1263.0477,-279.1374 1278.8059,-279.1374"/>
<polygon fill="#191970" stroke="#191970" points="1217.4052,-275.6375 1207.4052,-279.1374 1217.4052,-282.6375 1217.4052,-275.6375"/>
</g>
<!-- Node178 -->
<g id="node18" class="node">
<title>Node178</title>
<g id="a_node18"><a xlink:href="xcsf_8h.html#a0b4de57cb9dadc9deca7901aa36e5025" target="_top" xlink:title="Executes MAX_TRIALS number of XCSF learning iterations using the training. data and test iterations u...">
<polygon fill="none" stroke="#000000" points="979.5,-193.6374 979.5,-212.6374 1033.5,-212.6374 1033.5,-193.6374 979.5,-193.6374"/>
<text text-anchor="middle" x="1006.5" y="-200.6374" font-family="Helvetica,sans-Serif" font-size="10.00" fill="#000000">xcsf_fit2</text>
</a>
</g>
</g>
<!-- Node177&#45;&gt;Node178 -->
<g id="edge19" class="edge">
<title>Node177&#45;&gt;Node178</title>
<path fill="none" stroke="#191970" d="M910.8959,-203.1374C934.0137,-203.1374 960.2809,-203.1374 979.4248,-203.1374"/>
<polygon fill="#191970" stroke="#191970" points="910.8731,-199.6375 900.873,-203.1374 910.873,-206.6375 910.8731,-199.6375"/>
</g>
<!-- Node178&#45;&gt;Node172 -->
<g id="edge20" class="edge">
<title>Node178&#45;&gt;Node172</title>
<path fill="none" stroke="#191970" d="M1043.5219,-212.7898C1106.1606,-229.121 1230.8947,-261.6417 1278.7201,-274.1108"/>
<polygon fill="#191970" stroke="#191970" points="1044.2214,-209.3552 1033.6618,-210.2191 1042.4553,-216.1288 1044.2214,-209.3552"/>
</g>
<!-- Node179 -->
<g id="node19" class="node">
<title>Node179</title>
<g id="a_node19"><a xlink:href="structXCS.html#a7d53320740db8e846251bacd0238a9fb" target="_top" xlink:title="XCS::fit">
<polygon fill="none" stroke="#000000" points="1127,-193.6374 1127,-212.6374 1179,-212.6374 1179,-193.6374 1127,-193.6374"/>
<text text-anchor="middle" x="1153" y="-200.6374" font-family="Helvetica,sans-Serif" font-size="10.00" fill="#000000">XCS::fit</text>
</a>
</g>
</g>
<!-- Node178&#45;&gt;Node179 -->
<g id="edge21" class="edge">
<title>Node178&#45;&gt;Node179</title>
<path fill="none" stroke="#191970" d="M1043.9437,-203.1374C1069.9137,-203.1374 1103.8473,-203.1374 1126.9182,-203.1374"/>
<polygon fill="#191970" stroke="#191970" points="1043.7122,-199.6375 1033.7122,-203.1374 1043.7122,-206.6375 1043.7122,-199.6375"/>
</g>
<!-- Node180 -->
<g id="node20" class="node">
<title>Node180</title>
<g id="a_node20"><a xlink:href="xcsf_8h.html#a874829f28fee20f9ad15b540f4b4d6ff" target="_top" xlink:title="Executes MAX_TRIALS number of XCSF learning iterations using the training data. ">
<polygon fill="none" stroke="#000000" points="1126,-155.6374 1126,-174.6374 1180,-174.6374 1180,-155.6374 1126,-155.6374"/>
<text text-anchor="middle" x="1153" y="-162.6374" font-family="Helvetica,sans-Serif" font-size="10.00" fill="#000000">xcsf_fit1</text>
</a>
</g>
</g>
<!-- Node178&#45;&gt;Node180 -->
<g id="edge22" class="edge">
<title>Node178&#45;&gt;Node180</title>
<path fill="none" stroke="#191970" d="M1043.4693,-193.5481C1069.1336,-186.8912 1102.7471,-178.1723 1125.9335,-172.1581"/>
<polygon fill="#191970" stroke="#191970" points="1042.5131,-190.1802 1033.7122,-196.079 1044.2707,-196.956 1042.5131,-190.1802"/>
</g>
<!-- Node181 -->
<g id="node21" class="node">
<title>Node181</title>
<g id="a_node21"><a xlink:href="structXCS.html#ad2ccafe59d2b4ae6d0e1cbc15edee53c" target="_top" xlink:title="XCS::fit">
<polygon fill="none" stroke="#000000" points="1272,-155.6374 1272,-174.6374 1324,-174.6374 1324,-155.6374 1272,-155.6374"/>
<text text-anchor="middle" x="1298" y="-162.6374" font-family="Helvetica,sans-Serif" font-size="10.00" fill="#000000">XCS::fit</text>
</a>
</g>
</g>
<!-- Node180&#45;&gt;Node181 -->
<g id="edge23" class="edge">
<title>Node180&#45;&gt;Node181</title>
<path fill="none" stroke="#191970" d="M1190.3422,-165.1374C1215.8746,-165.1374 1249.0827,-165.1374 1271.8256,-165.1374"/>
<polygon fill="#191970" stroke="#191970" points="1190.2734,-161.6375 1180.2734,-165.1374 1190.2734,-168.6375 1190.2734,-161.6375"/>
</g>
<!-- Node181&#45;&gt;Node165 -->
<g id="edge24" class="edge">
<title>Node181&#45;&gt;Node165</title>
<path fill="none" stroke="#191970" d="M1334.4051,-156.7021C1360.038,-150.7628 1394.3853,-142.8043 1420.9861,-136.6406"/>
<polygon fill="#191970" stroke="#191970" points="1333.3013,-153.3651 1324.3494,-159.0321 1334.8814,-160.1844 1333.3013,-153.3651"/>
</g>
<!-- Node183 -->
<g id="node23" class="node">
<title>Node183</title>
<g id="a_node23"><a xlink:href="structXCS.html#a911ed75c86abed7807d33eb1385240ed" target="_top" xlink:title="XCS::predict">
<polygon fill="none" stroke="#000000" points="1261.5,-41.6374 1261.5,-60.6374 1334.5,-60.6374 1334.5,-41.6374 1261.5,-41.6374"/>
<text text-anchor="middle" x="1298" y="-48.6374" font-family="Helvetica,sans-Serif" font-size="10.00" fill="#000000">XCS::predict</text>
</a>
</g>
</g>
<!-- Node182&#45;&gt;Node183 -->
<g id="edge26" class="edge">
<title>Node182&#45;&gt;Node183</title>
<path fill="none" stroke="#191970" d="M904.6199,-74.6281C919.1122,-73.0111 935.2141,-71.3526 950,-70.1374 1063.3703,-60.8205 1197.9067,-54.941 1261.3801,-52.4749"/>
<polygon fill="#191970" stroke="#191970" points="903.9339,-71.1834 894.3935,-75.7912 904.7251,-78.1386 903.9339,-71.1834"/>
</g>
<!-- Node183&#45;&gt;Node165 -->
<g id="edge27" class="edge">
<title>Node183&#45;&gt;Node165</title>
<path fill="none" stroke="#191970" d="M1337.9849,-64.1627C1343.0832,-66.0533 1348.1952,-68.065 1353,-70.1374 1386.7267,-84.6849 1424.3375,-105.4149 1445.3884,-117.4527"/>
<polygon fill="#191970" stroke="#191970" points="1338.8766,-60.7646 1328.282,-60.6921 1336.519,-67.3556 1338.8766,-60.7646"/>
</g>
<!-- Node185 -->
<g id="node25" class="node">
<title>Node185</title>
<g id="a_node25"><a xlink:href="structXCS.html#aa5608b379fae01b724267a99068d55bb" target="_top" xlink:title="XCS::print_match_set">
<polygon fill="none" stroke="#000000" points="950,-3.6374 950,-22.6374 1063,-22.6374 1063,-3.6374 950,-3.6374"/>
<text text-anchor="middle" x="1006.5" y="-10.6374" font-family="Helvetica,sans-Serif" font-size="10.00" fill="#000000">XCS::print_match_set</text>
</a>
</g>
</g>
<!-- Node184&#45;&gt;Node185 -->
<g id="edge29" class="edge">
<title>Node184&#45;&gt;Node185</title>
<path fill="none" stroke="#191970" d="M924.542,-18.6939C932.9872,-18.1213 941.5777,-17.5389 949.8632,-16.9772"/>
<polygon fill="#191970" stroke="#191970" points="924.0835,-15.2169 914.3432,-19.3853 924.5571,-22.2008 924.0835,-15.2169"/>
</g>
<!-- Node185&#45;&gt;Node165 -->
<g id="edge30" class="edge">
<title>Node185&#45;&gt;Node165</title>
<path fill="none" stroke="#191970" d="M1073.5156,-4.2919C1145.4282,2.3949 1261.6269,4.9772 1353,-32.1374 1399.0487,-50.8418 1439.0702,-97.4424 1454.8413,-117.5982"/>
<polygon fill="#191970" stroke="#191970" points="1072.844,-.841 1063.2351,-5.304 1073.5299,-7.8073 1072.844,-.841"/>
</g>
<!-- Node186&#45;&gt;Node178 -->
<g id="edge32" class="edge">
<title>Node186&#45;&gt;Node178</title>
<path fill="none" stroke="#191970" d="M900.218,-140.2616C904.9271,-142.0881 909.6092,-144.0572 914,-146.1374 943.4911,-160.1092 975.366,-181.228 992.9349,-193.4536"/>
<polygon fill="#191970" stroke="#191970" points="901.1923,-136.8908 890.5988,-136.7232 898.7756,-143.4604 901.1923,-136.8908"/>
</g>
<!-- Node187 -->
<g id="node27" class="node">
<title>Node187</title>
<g id="a_node27"><a xlink:href="xcsf_8h.html#a2cf95733e5f97410d94211b72e835847" target="_top" xlink:title="Calculates the XCSF error for the input data. ">
<polygon fill="none" stroke="#000000" points="974,-79.6374 974,-98.6374 1039,-98.6374 1039,-79.6374 974,-79.6374"/>
<text text-anchor="middle" x="1006.5" y="-86.6374" font-family="Helvetica,sans-Serif" font-size="10.00" fill="#000000">xcsf_score</text>
</a>
</g>
</g>
<!-- Node186&#45;&gt;Node187 -->
<g id="edge33" class="edge">
<title>Node186&#45;&gt;Node187</title>
<path fill="none" stroke="#191970" d="M906.0695,-115.011C928.1448,-109.3238 953.9063,-102.687 973.8107,-97.5591"/>
<polygon fill="#191970" stroke="#191970" points="905.0311,-111.6642 896.2205,-117.5484 906.7775,-118.4429 905.0311,-111.6642"/>
</g>
<!-- Node188 -->
<g id="node28" class="node">
<title>Node188</title>
<g id="a_node28"><a xlink:href="structXCS.html#aa77bc77484d6d14bf512304a23cfec88" target="_top" xlink:title="XCS::score">
<polygon fill="none" stroke="#000000" points="1264,-79.6374 1264,-98.6374 1332,-98.6374 1332,-79.6374 1264,-79.6374"/>
<text text-anchor="middle" x="1298" y="-86.6374" font-family="Helvetica,sans-Serif" font-size="10.00" fill="#000000">XCS::score</text>
</a>
</g>
</g>
<!-- Node187&#45;&gt;Node188 -->
<g id="edge34" class="edge">
<title>Node187&#45;&gt;Node188</title>
<path fill="none" stroke="#191970" d="M1049.4214,-89.1374C1107.6502,-89.1374 1210.5109,-89.1374 1263.8218,-89.1374"/>
<polygon fill="#191970" stroke="#191970" points="1049.0903,-85.6375 1039.0903,-89.1374 1049.0902,-92.6375 1049.0903,-85.6375"/>
</g>
<!-- Node188&#45;&gt;Node165 -->
<g id="edge35" class="edge">
<title>Node188&#45;&gt;Node165</title>
<path fill="none" stroke="#191970" d="M1342.1559,-99.3687C1366.6816,-105.0515 1396.993,-112.0748 1420.9952,-117.6363"/>
<polygon fill="#191970" stroke="#191970" points="1342.9118,-95.9511 1332.3798,-97.1035 1341.3316,-102.7705 1342.9118,-95.9511"/>
</g>
<!-- Node189&#45;&gt;Node170 -->
<g id="edge37" class="edge">
<title>Node189&#45;&gt;Node170</title>
<path fill="none" stroke="#191970" d="M758.3549,-241.1374C775.6509,-241.1374 798.9248,-241.1374 818.7349,-241.1374"/>
<polygon fill="#191970" stroke="#191970" points="757.9487,-237.6375 747.9486,-241.1374 757.9486,-244.6375 757.9487,-237.6375"/>
</g>
<!-- Node189&#45;&gt;Node177 -->
<g id="edge42" class="edge">
<title>Node189&#45;&gt;Node177</title>
<path fill="none" stroke="#191970" d="M757.5475,-233.7342C777.5089,-227.7141 805.811,-219.1786 827.4525,-212.6517"/>
<polygon fill="#191970" stroke="#191970" points="756.5121,-230.3907 747.9486,-236.6291 758.5333,-237.0925 756.5121,-230.3907"/>
</g>
<!-- Node190 -->
<g id="node30" class="node">
<title>Node190</title>
<g id="a_node30"><a xlink:href="xcs__single__step_8h.html#aff4aec035e4573993a7906569f2028f5" target="_top" xlink:title="Creates the action set, updates the classifiers and runs the EA. ">
<polygon fill="none" stroke="#000000" points="810,-269.6374 810,-288.6374 908,-288.6374 908,-269.6374 810,-269.6374"/>
<text text-anchor="middle" x="859" y="-276.6374" font-family="Helvetica,sans-Serif" font-size="10.00" fill="#000000">xcs_single_update</text>
</a>
</g>
</g>
<!-- Node189&#45;&gt;Node190 -->
<g id="edge38" class="edge">
<title>Node189&#45;&gt;Node190</title>
<path fill="none" stroke="#191970" d="M757.5475,-248.5406C777.5089,-254.5607 805.811,-263.0963 827.4525,-269.6231"/>
<polygon fill="#191970" stroke="#191970" points="758.5333,-245.1823 747.9486,-245.6457 756.5121,-251.8842 758.5333,-245.1823"/>
</g>
<!-- Node190&#45;&gt;Node175 -->
<g id="edge41" class="edge">
<title>Node190&#45;&gt;Node175</title>
<path fill="none" stroke="#191970" d="M918.4999,-279.1374C933.7432,-279.1374 949.8308,-279.1374 964.0224,-279.1374"/>
<polygon fill="#191970" stroke="#191970" points="918.1154,-275.6375 908.1154,-279.1374 918.1153,-282.6375 918.1154,-275.6375"/>
</g>
<!-- Node191 -->
<g id="node31" class="node">
<title>Node191</title>
<g id="a_node31"><a xlink:href="structXCS.html#aedc01ad6f00a54b260a7605929a1d4c9" target="_top" xlink:title="XCS::single_update">
<polygon fill="none" stroke="#000000" points="1101,-345.6374 1101,-364.6374 1205,-364.6374 1205,-345.6374 1101,-345.6374"/>
<text text-anchor="middle" x="1153" y="-352.6374" font-family="Helvetica,sans-Serif" font-size="10.00" fill="#000000">XCS::single_update</text>
</a>
</g>
</g>
<!-- Node190&#45;&gt;Node191 -->
<g id="edge39" class="edge">
<title>Node190&#45;&gt;Node191</title>
<path fill="none" stroke="#191970" d="M883.6009,-293.8994C901.4354,-303.9445 926.4566,-316.7153 950,-324.1374 999.8129,-339.8411 1059.0935,-347.7235 1100.6925,-351.5936"/>
<polygon fill="#191970" stroke="#191970" points="884.8997,-290.6085 874.4873,-288.6506 881.4061,-296.6744 884.8997,-290.6085"/>
</g>
<!-- Node191&#45;&gt;Node165 -->
<g id="edge40" class="edge">
<title>Node191&#45;&gt;Node165</title>
<path fill="none" stroke="#191970" d="M1215.0471,-349.0755C1257.3616,-342.3272 1312.7989,-328.0986 1353,-298.1374 1412.5621,-253.7469 1447.9875,-166.3648 1458.6013,-137.0162"/>
<polygon fill="#191970" stroke="#191970" points="1214.5096,-345.6168 1205.1378,-350.5585 1215.5457,-352.5397 1214.5096,-345.6168"/>
</g>
</g>
</svg>
