<?xml version="1.0" encoding="UTF-8" standalone="no"?>
<!DOCTYPE svg PUBLIC "-//W3C//DTD SVG 1.1//EN"
 "http://www.w3.org/Graphics/SVG/1.1/DTD/svg11.dtd">
<!-- Generated by graphviz version 2.40.1 (20161225.0304)
 -->
<!-- Title: pred_print Pages: 1 -->
<svg width="666pt" height="28pt"
 viewBox="0.00 0.00 666.00 28.00" xmlns="http://www.w3.org/2000/svg" xmlns:xlink="http://www.w3.org/1999/xlink">
<g id="graph0" class="graph" transform="scale(1 1) rotate(0) translate(4 24)">
<title>pred_print</title>
<!-- Node157 -->
<g id="node1" class="node">
<title>Node157</title>
<polygon fill="#bfbfbf" stroke="#000000" points="0,-.5 0,-19.5 59,-19.5 59,-.5 0,-.5"/>
<text text-anchor="middle" x="29.5" y="-7.5" font-family="Helvetica,sans-Serif" font-size="10.00" fill="#000000">pred_print</text>
</g>
<!-- Node158 -->
<g id="node2" class="node">
<title>Node158</title>
<g id="a_node2"><a xlink:href="cl_8h.html#ae72baabb74be8c1a8eca64eacb1941d1" target="_top" xlink:title="Prints the classifier. ">
<polygon fill="none" stroke="#000000" points="95,-.5 95,-19.5 143,-19.5 143,-.5 95,-.5"/>
<text text-anchor="middle" x="119" y="-7.5" font-family="Helvetica,sans-Serif" font-size="10.00" fill="#000000">cl_print</text>
</a>
</g>
</g>
<!-- Node157&#45;&gt;Node158 -->
<g id="edge1" class="edge">
<title>Node157&#45;&gt;Node158</title>
<path fill="none" stroke="#191970" d="M69.3624,-10C78.0997,-10 87.0886,-10 94.9752,-10"/>
<polygon fill="#191970" stroke="#191970" points="69.3022,-6.5001 59.3022,-10 69.3022,-13.5001 69.3022,-6.5001"/>
</g>
<!-- Node159 -->
<g id="node3" class="node">
<title>Node159</title>
<g id="a_node3"><a xlink:href="clset_8h.html#af735b50009ce40e991d187e2c57033d4" target="_top" xlink:title="Prints the classifiers in the set. ">
<polygon fill="none" stroke="#000000" points="179,-.5 179,-19.5 241,-19.5 241,-.5 179,-.5"/>
<text text-anchor="middle" x="210" y="-7.5" font-family="Helvetica,sans-Serif" font-size="10.00" fill="#000000">clset_print</text>
</a>
</g>
</g>
<!-- Node158&#45;&gt;Node159 -->
<g id="edge2" class="edge">
<title>Node158&#45;&gt;Node159</title>
<path fill="none" stroke="#191970" d="M153.4999,-10C161.7727,-10 170.5615,-10 178.681,-10"/>
<polygon fill="#191970" stroke="#191970" points="153.3864,-6.5001 143.3863,-10 153.3863,-13.5001 153.3864,-6.5001"/>
</g>
<!-- Node160 -->
<g id="node4" class="node">
<title>Node160</title>
<g id="a_node4"><a xlink:href="xcsf_8h.html#a84d6ba23771186ab252b9120f87f9eac" target="_top" xlink:title="Prints the current XCSF population. ">
<polygon fill="none" stroke="#000000" points="277,-.5 277,-19.5 357,-19.5 357,-.5 277,-.5"/>
<text text-anchor="middle" x="317" y="-7.5" font-family="Helvetica,sans-Serif" font-size="10.00" fill="#000000">xcsf_print_pop</text>
</a>
</g>
</g>
<!-- Node159&#45;&gt;Node160 -->
<g id="edge3" class="edge">
<title>Node159&#45;&gt;Node160</title>
<path fill="none" stroke="#191970" d="M251.4724,-10C259.7766,-10 268.4884,-10 276.7504,-10"/>
<polygon fill="#191970" stroke="#191970" points="251.2365,-6.5001 241.2365,-10 251.2364,-13.5001 251.2365,-6.5001"/>
</g>
<!-- Node161 -->
<g id="node5" class="node">
<title>Node161</title>
<g id="a_node5"><a xlink:href="structXCS.html#a17153434b6e3310591eafb94e81cda9a" target="_top" xlink:title="XCS::print_pop">
<polygon fill="none" stroke="#000000" points="393,-.5 393,-19.5 476,-19.5 476,-.5 393,-.5"/>
<text text-anchor="middle" x="434.5" y="-7.5" font-family="Helvetica,sans-Serif" font-size="10.00" fill="#000000">XCS::print_pop</text>
</a>
</g>
</g>
<!-- Node160&#45;&gt;Node161 -->
<g id="edge4" class="edge">
<title>Node160&#45;&gt;Node161</title>
<path fill="none" stroke="#191970" d="M367.3595,-10C375.9028,-10 384.6879,-10 392.9719,-10"/>
<polygon fill="#191970" stroke="#191970" points="367.1082,-6.5001 357.1082,-10 367.1082,-13.5001 367.1082,-6.5001"/>
</g>
<!-- Node162 -->
<g id="node6" class="node">
<title>Node162</title>
<g id="a_node6"><a xlink:href="python__wrapper_8cpp.html#afbdcc1358036a0b83a6b239da2b098a2" target="_top" xlink:title="BOOST_PYTHON_MODULE">
<polygon fill="none" stroke="#000000" points="512,-.5 512,-19.5 658,-19.5 658,-.5 512,-.5"/>
<text text-anchor="middle" x="585" y="-7.5" font-family="Helvetica,sans-Serif" font-size="10.00" fill="#000000">BOOST_PYTHON_MODULE</text>
</a>
</g>
</g>
<!-- Node161&#45;&gt;Node162 -->
<g id="edge5" class="edge">
<title>Node161&#45;&gt;Node162</title>
<path fill="none" stroke="#191970" d="M486.236,-10C494.5037,-10 503.1924,-10 511.8441,-10"/>
<polygon fill="#191970" stroke="#191970" points="486.0232,-6.5001 476.0232,-10 486.0231,-13.5001 486.0232,-6.5001"/>
</g>
</g>
</svg>
