<?xml version="1.0" encoding="UTF-8" standalone="no"?>
<!DOCTYPE svg PUBLIC "-//W3C//DTD SVG 1.1//EN"
 "http://www.w3.org/Graphics/SVG/1.1/DTD/svg11.dtd">
<!-- Generated by graphviz version 2.40.1 (20161225.0304)
 -->
<!-- Title: pred_rls_copy Pages: 1 -->
<svg width="276pt" height="28pt"
 viewBox="0.00 0.00 276.00 28.00" xmlns="http://www.w3.org/2000/svg" xmlns:xlink="http://www.w3.org/1999/xlink">
<g id="graph0" class="graph" transform="scale(1 1) rotate(0) translate(4 24)">
<title>pred_rls_copy</title>
<!-- Node4 -->
<g id="node1" class="node">
<title>Node4</title>
<polygon fill="#bfbfbf" stroke="#000000" points="0,-.5 0,-19.5 77,-19.5 77,-.5 0,-.5"/>
<text text-anchor="middle" x="38.5" y="-7.5" font-family="Helvetica,sans-Serif" font-size="10.00" fill="#000000">pred_rls_copy</text>
</g>
<!-- Node5 -->
<g id="node2" class="node">
<title>Node5</title>
<g id="a_node2"><a xlink:href="pred__rls_8c.html#abd35c579776a63f6361245817ef7af7a" target="_top" xlink:title="pred_rls_init">
<polygon fill="none" stroke="#000000" points="113,-.5 113,-19.5 182,-19.5 182,-.5 113,-.5"/>
<text text-anchor="middle" x="147.5" y="-7.5" font-family="Helvetica,sans-Serif" font-size="10.00" fill="#000000">pred_rls_init</text>
</a>
</g>
</g>
<!-- Node4&#45;&gt;Node5 -->
<g id="edge1" class="edge">
<title>Node4&#45;&gt;Node5</title>
<path fill="none" stroke="#191970" d="M77.2362,-10C85.5018,-10 94.2966,-10 102.7661,-10"/>
<polygon fill="#191970" stroke="#191970" points="102.8784,-13.5001 112.8783,-10 102.8783,-6.5001 102.8784,-13.5001"/>
</g>
<!-- Node6 -->
<g id="node3" class="node">
<title>Node6</title>
<g id="a_node3"><a xlink:href="blas_8c.html#a95eb315efef08b5eb4694c3ca6bfe633" target="_top" xlink:title="Fills the vector X with the value ALPHA. ">
<polygon fill="none" stroke="#000000" points="218,-.5 218,-19.5 268,-19.5 268,-.5 218,-.5"/>
<text text-anchor="middle" x="243" y="-7.5" font-family="Helvetica,sans-Serif" font-size="10.00" fill="#000000">blas_fill</text>
</a>
</g>
</g>
<!-- Node5&#45;&gt;Node6 -->
<g id="edge2" class="edge">
<title>Node5&#45;&gt;Node6</title>
<path fill="none" stroke="#191970" d="M182.2478,-10C190.4976,-10 199.3078,-10 207.5869,-10"/>
<polygon fill="#191970" stroke="#191970" points="207.7074,-13.5001 217.7074,-10 207.7073,-6.5001 207.7074,-13.5001"/>
</g>
</g>
</svg>
