<?xml version="1.0" encoding="UTF-8" standalone="no"?>
<!DOCTYPE svg PUBLIC "-//W3C//DTD SVG 1.1//EN"
 "http://www.w3.org/Graphics/SVG/1.1/DTD/svg11.dtd">
<!-- Generated by graphviz version 2.40.1 (20161225.0304)
 -->
<!-- Title: prediction_set Pages: 1 -->
<svg width="1221pt" height="409pt"
 viewBox="0.00 0.00 1221.00 409.01" xmlns="http://www.w3.org/2000/svg" xmlns:xlink="http://www.w3.org/1999/xlink">
<g id="graph0" class="graph" transform="scale(1 1) rotate(0) translate(4 405.0054)">
<title>prediction_set</title>
<!-- Node1 -->
<g id="node1" class="node">
<title>Node1</title>
<polygon fill="#bfbfbf" stroke="#000000" points="0,-229.5054 0,-248.5054 77,-248.5054 77,-229.5054 0,-229.5054"/>
<text text-anchor="middle" x="38.5" y="-236.5054" font-family="Helvetica,sans-Serif" font-size="10.00" fill="#000000">prediction_set</text>
</g>
<!-- Node2 -->
<g id="node2" class="node">
<title>Node2</title>
<g id="a_node2"><a xlink:href="$cl_8h.html#a619c0c3f1c27d0d069f59be58a898007" xlink:title="Reads the classifier from a binary file. ">
<polygon fill="none" stroke="#000000" points="113.5,-281.5054 113.5,-300.5054 160.5,-300.5054 160.5,-281.5054 113.5,-281.5054"/>
<text text-anchor="middle" x="137" y="-288.5054" font-family="Helvetica,sans-Serif" font-size="10.00" fill="#000000">cl_load</text>
</a>
</g>
</g>
<!-- Node1&#45;&gt;Node2 -->
<g id="edge1" class="edge">
<title>Node1&#45;&gt;Node2</title>
<path fill="none" stroke="#191970" d="M65.4419,-253.2285C82.3674,-262.1638 103.7496,-273.4519 118.7145,-281.3522"/>
<polygon fill="#191970" stroke="#191970" points="67.0438,-250.1165 56.5664,-248.543 63.7757,-256.3068 67.0438,-250.1165"/>
</g>
<!-- Node8 -->
<g id="node8" class="node">
<title>Node8</title>
<g id="a_node8"><a xlink:href="$cl_8h.html#a5c1f93d94c386004e38c02f6d7d19004" xlink:title="Initialises random actions, conditions and predictions. ">
<polygon fill="none" stroke="#000000" points="113,-210.5054 113,-229.5054 161,-229.5054 161,-210.5054 113,-210.5054"/>
<text text-anchor="middle" x="137" y="-217.5054" font-family="Helvetica,sans-Serif" font-size="10.00" fill="#000000">cl_rand</text>
</a>
</g>
</g>
<!-- Node1&#45;&gt;Node8 -->
<g id="edge7" class="edge">
<title>Node1&#45;&gt;Node8</title>
<path fill="none" stroke="#191970" d="M87.1877,-229.6139C96.146,-227.8859 105.1292,-226.1531 112.9514,-224.6442"/>
<polygon fill="#191970" stroke="#191970" points="86.3032,-226.2199 77.1471,-231.5506 87.629,-233.0932 86.3032,-226.2199"/>
</g>
<!-- Node3 -->
<g id="node3" class="node">
<title>Node3</title>
<g id="a_node3"><a xlink:href="$cl__set_8h.html#a488209fe1e7dc1ef3d09d9aa94340329" xlink:title="Reads the population set from a binary file. ">
<polygon fill="none" stroke="#000000" points="197,-347.5054 197,-366.5054 253,-366.5054 253,-347.5054 197,-347.5054"/>
<text text-anchor="middle" x="225" y="-354.5054" font-family="Helvetica,sans-Serif" font-size="10.00" fill="#000000">pop_load</text>
</a>
</g>
</g>
<!-- Node2&#45;&gt;Node3 -->
<g id="edge2" class="edge">
<title>Node2&#45;&gt;Node3</title>
<path fill="none" stroke="#191970" d="M158.1612,-306.8763C175.0301,-319.528 198.0955,-336.827 212.2481,-347.4415"/>
<polygon fill="#191970" stroke="#191970" points="160.0847,-303.944 149.9847,-300.7439 155.8847,-309.544 160.0847,-303.944"/>
</g>
<!-- Node4 -->
<g id="node4" class="node">
<title>Node4</title>
<g id="a_node4"><a xlink:href="$xcsf_8h.html#a70e6ae30c7d4e471009c4611255ed873" xlink:title="Reads the state of XCSF from a binary file. ">
<polygon fill="none" stroke="#000000" points="801.5,-381.5054 801.5,-400.5054 860.5,-400.5054 860.5,-381.5054 801.5,-381.5054"/>
<text text-anchor="middle" x="831" y="-388.5054" font-family="Helvetica,sans-Serif" font-size="10.00" fill="#000000">xcsf_load</text>
</a>
</g>
</g>
<!-- Node3&#45;&gt;Node4 -->
<g id="edge3" class="edge">
<title>Node3&#45;&gt;Node4</title>
<path fill="none" stroke="#191970" d="M263.1807,-367.9416C301.2934,-377.8819 361.7032,-391.0054 415,-391.0054 415,-391.0054 415,-391.0054 537,-391.0054 633.724,-391.0054 748.3475,-391.0054 801.3713,-391.0054"/>
<polygon fill="#191970" stroke="#191970" points="263.6111,-364.434 253.0466,-365.2359 261.8053,-371.197 263.6111,-364.434"/>
</g>
<!-- Node5 -->
<g id="node5" class="node">
<title>Node5</title>
<g id="a_node5"><a xlink:href="$main_8c.html#a3c04138a5bfe5d72780bb7e82a18e627" xlink:title="main">
<polygon fill="none" stroke="#000000" points="957,-229.5054 957,-248.5054 995,-248.5054 995,-229.5054 957,-229.5054"/>
<text text-anchor="middle" x="976" y="-236.5054" font-family="Helvetica,sans-Serif" font-size="10.00" fill="#000000">main</text>
</a>
</g>
</g>
<!-- Node4&#45;&gt;Node5 -->
<g id="edge4" class="edge">
<title>Node4&#45;&gt;Node5</title>
<path fill="none" stroke="#191970" d="M847.0196,-374.2124C877.4983,-342.2623 942.9313,-273.6705 966.933,-248.5101"/>
<polygon fill="#191970" stroke="#191970" points="844.4404,-371.8455 840.0704,-381.4971 849.5054,-376.6773 844.4404,-371.8455"/>
</g>
<!-- Node6 -->
<g id="node6" class="node">
<title>Node6</title>
<g id="a_node6"><a xlink:href="$structXCS.html#adc9b621f2b7a306fbf381dd0efaf268b" xlink:title="XCS::load">
<polygon fill="none" stroke="#000000" points="945,-371.5054 945,-390.5054 1007,-390.5054 1007,-371.5054 945,-371.5054"/>
<text text-anchor="middle" x="976" y="-378.5054" font-family="Helvetica,sans-Serif" font-size="10.00" fill="#000000">XCS::load</text>
</a>
</g>
</g>
<!-- Node4&#45;&gt;Node6 -->
<g id="edge5" class="edge">
<title>Node4&#45;&gt;Node6</title>
<path fill="none" stroke="#191970" d="M870.9565,-388.2498C894.2642,-386.6424 923.2343,-384.6444 944.8438,-383.1541"/>
<polygon fill="#191970" stroke="#191970" points="870.4283,-384.7778 860.6928,-388.9576 870.91,-391.7612 870.4283,-384.7778"/>
</g>
<!-- Node7 -->
<g id="node7" class="node">
<title>Node7</title>
<g id="a_node7"><a xlink:href="$python__wrapper_8cpp.html#afbdcc1358036a0b83a6b239da2b098a2" xlink:title="BOOST_PYTHON_MODULE">
<polygon fill="none" stroke="#000000" points="1067,-115.5054 1067,-134.5054 1213,-134.5054 1213,-115.5054 1067,-115.5054"/>
<text text-anchor="middle" x="1140" y="-122.5054" font-family="Helvetica,sans-Serif" font-size="10.00" fill="#000000">BOOST_PYTHON_MODULE</text>
</a>
</g>
</g>
<!-- Node6&#45;&gt;Node7 -->
<g id="edge6" class="edge">
<title>Node6&#45;&gt;Node7</title>
<path fill="none" stroke="#191970" d="M1012.3865,-366.7743C1019.127,-363.0061 1025.7022,-358.437 1031,-353.0054 1097.4767,-284.8496 1129.5734,-168.4164 1137.8101,-134.5224"/>
<polygon fill="#191970" stroke="#191970" points="1010.5408,-363.7855 1003.1968,-371.422 1013.7,-370.0321 1010.5408,-363.7855"/>
</g>
<!-- Node9 -->
<g id="node9" class="node">
<title>Node9</title>
<g id="a_node9"><a xlink:href="$cl_8h.html#a42adb85e78d1f9af3dbd53cd9e9ae0fd" xlink:title="Covers the condition and action for a classifier. ">
<polygon fill="none" stroke="#000000" points="198.5,-210.5054 198.5,-229.5054 251.5,-229.5054 251.5,-210.5054 198.5,-210.5054"/>
<text text-anchor="middle" x="225" y="-217.5054" font-family="Helvetica,sans-Serif" font-size="10.00" fill="#000000">cl_cover</text>
</a>
</g>
</g>
<!-- Node8&#45;&gt;Node9 -->
<g id="edge8" class="edge">
<title>Node8&#45;&gt;Node9</title>
<path fill="none" stroke="#191970" d="M171.2027,-220.0054C180.1587,-220.0054 189.6852,-220.0054 198.1938,-220.0054"/>
<polygon fill="#191970" stroke="#191970" points="171.0464,-216.5055 161.0464,-220.0054 171.0464,-223.5055 171.0464,-216.5055"/>
</g>
<!-- Node30 -->
<g id="node30" class="node">
<title>Node30</title>
<g id="a_node30"><a xlink:href="$cl__set_8h.html#a1e1060f1e8c1f916d798864804078e88" xlink:title="Initialises a new population set. ">
<polygon fill="none" stroke="#000000" points="806,-39.5054 806,-58.5054 856,-58.5054 856,-39.5054 806,-39.5054"/>
<text text-anchor="middle" x="831" y="-46.5054" font-family="Helvetica,sans-Serif" font-size="10.00" fill="#000000">pop_init</text>
</a>
</g>
</g>
<!-- Node8&#45;&gt;Node30 -->
<g id="edge38" class="edge">
<title>Node8&#45;&gt;Node30</title>
<path fill="none" stroke="#191970" d="M148.9406,-201.5552C174.8885,-163.9595 240.4078,-82.0054 318.5,-82.0054 318.5,-82.0054 318.5,-82.0054 537,-82.0054 637.1563,-82.0054 755.3141,-62.8583 805.937,-53.7335"/>
<polygon fill="#191970" stroke="#191970" points="145.8843,-199.8283 143.2127,-210.0808 151.6947,-203.732 145.8843,-199.8283"/>
</g>
<!-- Node10 -->
<g id="node10" class="node">
<title>Node10</title>
<g id="a_node10"><a xlink:href="$cl__set_8c.html#aa4b74b698e7491734e4788fcfae8e27a" xlink:title="Ensures all possible actions are covered by the match set. ">
<polygon fill="none" stroke="#000000" points="289,-210.5054 289,-229.5054 348,-229.5054 348,-210.5054 289,-210.5054"/>
<text text-anchor="middle" x="318.5" y="-217.5054" font-family="Helvetica,sans-Serif" font-size="10.00" fill="#000000">set_cover</text>
</a>
</g>
</g>
<!-- Node9&#45;&gt;Node10 -->
<g id="edge9" class="edge">
<title>Node9&#45;&gt;Node10</title>
<path fill="none" stroke="#191970" d="M261.7906,-220.0054C270.7947,-220.0054 280.3157,-220.0054 288.9321,-220.0054"/>
<polygon fill="#191970" stroke="#191970" points="261.5433,-216.5055 251.5432,-220.0054 261.5432,-223.5055 261.5433,-216.5055"/>
</g>
<!-- Node11 -->
<g id="node11" class="node">
<title>Node11</title>
<g id="a_node11"><a xlink:href="$cl__set_8h.html#af3bea0b4d03654b9d6cb08fbf272c847" xlink:title="Constructs the match set. ">
<polygon fill="none" stroke="#000000" points="384,-210.5054 384,-229.5054 446,-229.5054 446,-210.5054 384,-210.5054"/>
<text text-anchor="middle" x="415" y="-217.5054" font-family="Helvetica,sans-Serif" font-size="10.00" fill="#000000">set_match</text>
</a>
</g>
</g>
<!-- Node10&#45;&gt;Node11 -->
<g id="edge10" class="edge">
<title>Node10&#45;&gt;Node11</title>
<path fill="none" stroke="#191970" d="M358.3634,-220.0054C366.8689,-220.0054 375.733,-220.0054 383.8545,-220.0054"/>
<polygon fill="#191970" stroke="#191970" points="358.2406,-216.5055 348.2406,-220.0054 358.2406,-223.5055 358.2406,-216.5055"/>
</g>
<!-- Node12 -->
<g id="node12" class="node">
<title>Node12</title>
<g id="a_node12"><a xlink:href="$xcs__multi__step_8c.html#a1e1c2a3094be715b468dda79cd59ebf3" xlink:title="Executes a multi&#45;step trial using a built&#45;in environment. ">
<polygon fill="none" stroke="#000000" points="497,-229.5054 497,-248.5054 577,-248.5054 577,-229.5054 497,-229.5054"/>
<text text-anchor="middle" x="537" y="-236.5054" font-family="Helvetica,sans-Serif" font-size="10.00" fill="#000000">xcs_multi_trial</text>
</a>
</g>
</g>
<!-- Node11&#45;&gt;Node12 -->
<g id="edge11" class="edge">
<title>Node11&#45;&gt;Node12</title>
<path fill="none" stroke="#191970" d="M456.2376,-226.4277C469.3055,-228.4628 483.73,-230.7093 496.7291,-232.7337"/>
<polygon fill="#191970" stroke="#191970" points="456.5209,-222.9297 446.1014,-224.8491 455.4437,-229.8463 456.5209,-222.9297"/>
</g>
<!-- Node14 -->
<g id="node14" class="node">
<title>Node14</title>
<g id="a_node14"><a xlink:href="$xcs__single__step_8h.html#a6cd0f3c0c1c71e13dba1ce493ef873a5" xlink:title="Constructs the match set and selects an action to perform. ">
<polygon fill="none" stroke="#000000" points="485,-305.5054 485,-324.5054 589,-324.5054 589,-305.5054 485,-305.5054"/>
<text text-anchor="middle" x="537" y="-312.5054" font-family="Helvetica,sans-Serif" font-size="10.00" fill="#000000">xcs_single_decision</text>
</a>
</g>
</g>
<!-- Node11&#45;&gt;Node14 -->
<g id="edge14" class="edge">
<title>Node11&#45;&gt;Node14</title>
<path fill="none" stroke="#191970" d="M426.8386,-238.1596C438.8585,-255.2796 458.9455,-280.5546 482,-296.0054 487.7065,-299.8299 494.2621,-302.9631 500.813,-305.5026"/>
<polygon fill="#191970" stroke="#191970" points="429.5386,-235.9057 421.0233,-229.6017 423.7489,-239.84 429.5386,-235.9057"/>
</g>
<!-- Node18 -->
<g id="node18" class="node">
<title>Node18</title>
<g id="a_node18"><a xlink:href="$xcsf_8c.html#a474f4e13cfc5f00958c689cd8c81135a" xlink:title="Executes a single XCSF learning trial. ">
<polygon fill="none" stroke="#000000" points="495.5,-191.5054 495.5,-210.5054 578.5,-210.5054 578.5,-191.5054 495.5,-191.5054"/>
<text text-anchor="middle" x="537" y="-198.5054" font-family="Helvetica,sans-Serif" font-size="10.00" fill="#000000">xcsf_learn_trial</text>
</a>
</g>
</g>
<!-- Node11&#45;&gt;Node18 -->
<g id="edge20" class="edge">
<title>Node11&#45;&gt;Node18</title>
<path fill="none" stroke="#191970" d="M456.3267,-213.5693C468.915,-211.6088 482.7551,-209.4534 495.3637,-207.4897"/>
<polygon fill="#191970" stroke="#191970" points="455.4437,-210.1645 446.1014,-215.1617 456.5209,-217.0811 455.4437,-210.1645"/>
</g>
<!-- Node23 -->
<g id="node23" class="node">
<title>Node23</title>
<g id="a_node23"><a xlink:href="$xcsf_8h.html#af0b9db7273578fdff649d46823cd9790" xlink:title="Calculates the XCSF predictions for the provided input. ">
<polygon fill="none" stroke="#000000" points="502,-25.5054 502,-44.5054 572,-44.5054 572,-25.5054 502,-25.5054"/>
<text text-anchor="middle" x="537" y="-32.5054" font-family="Helvetica,sans-Serif" font-size="10.00" fill="#000000">xcsf_predict</text>
</a>
</g>
</g>
<!-- Node11&#45;&gt;Node23 -->
<g id="edge27" class="edge">
<title>Node11&#45;&gt;Node23</title>
<path fill="none" stroke="#191970" d="M427.1293,-201.6126C452.69,-162.8525 511.326,-73.9373 530.6758,-44.5955"/>
<polygon fill="#191970" stroke="#191970" points="423.9709,-200.0444 421.3875,-210.3195 429.8147,-203.8982 423.9709,-200.0444"/>
</g>
<!-- Node25 -->
<g id="node25" class="node">
<title>Node25</title>
<g id="a_node25"><a xlink:href="$xcsf_8h.html#ae1f6851f682e015601030a5c725c6618" xlink:title="Prints the XCSF match set for the supplied input. ">
<polygon fill="none" stroke="#000000" points="482,-267.5054 482,-286.5054 592,-286.5054 592,-267.5054 482,-267.5054"/>
<text text-anchor="middle" x="537" y="-274.5054" font-family="Helvetica,sans-Serif" font-size="10.00" fill="#000000">xcsf_print_match_set</text>
</a>
</g>
</g>
<!-- Node11&#45;&gt;Node25 -->
<g id="edge30" class="edge">
<title>Node11&#45;&gt;Node25</title>
<path fill="none" stroke="#191970" d="M438.9041,-234.9822C451.4467,-242.4725 467.2386,-251.3376 482,-258.0054 489.6415,-261.4571 498.1094,-264.6679 506.0647,-267.431"/>
<polygon fill="#191970" stroke="#191970" points="440.3803,-231.7837 430.0169,-229.5814 436.745,-237.7658 440.3803,-231.7837"/>
</g>
<!-- Node27 -->
<g id="node27" class="node">
<title>Node27</title>
<g id="a_node27"><a xlink:href="$xcsf_8c.html#aa6edd3962ddd04940e2c78a4f99de7cd" xlink:title="Executes a single XCSF testing trial. ">
<polygon fill="none" stroke="#000000" points="498,-153.5054 498,-172.5054 576,-172.5054 576,-153.5054 498,-153.5054"/>
<text text-anchor="middle" x="537" y="-160.5054" font-family="Helvetica,sans-Serif" font-size="10.00" fill="#000000">xcsf_test_trial</text>
</a>
</g>
</g>
<!-- Node11&#45;&gt;Node27 -->
<g id="edge33" class="edge">
<title>Node11&#45;&gt;Node27</title>
<path fill="none" stroke="#191970" d="M438.9041,-205.0286C451.4467,-197.5383 467.2386,-188.6732 482,-182.0054 489.6415,-178.5537 498.1094,-175.343 506.0647,-172.5798"/>
<polygon fill="#191970" stroke="#191970" points="436.745,-202.2451 430.0169,-210.4294 440.3803,-208.2271 436.745,-202.2451"/>
</g>
<!-- Node13 -->
<g id="node13" class="node">
<title>Node13</title>
<g id="a_node13"><a xlink:href="$xcs__multi__step_8h.html#acc29d4a55dbd56c16ea5f19f15a7c677" xlink:title="Executes a multi&#45;step reinforcement learning experiment. ">
<polygon fill="none" stroke="#000000" points="779,-229.5054 779,-248.5054 883,-248.5054 883,-229.5054 779,-229.5054"/>
<text text-anchor="middle" x="831" y="-236.5054" font-family="Helvetica,sans-Serif" font-size="10.00" fill="#000000">xcs_multi_step_exp</text>
</a>
</g>
</g>
<!-- Node12&#45;&gt;Node13 -->
<g id="edge12" class="edge">
<title>Node12&#45;&gt;Node13</title>
<path fill="none" stroke="#191970" d="M587.5238,-239.0054C640.947,-239.0054 724.8153,-239.0054 778.8475,-239.0054"/>
<polygon fill="#191970" stroke="#191970" points="587.263,-235.5055 577.263,-239.0054 587.263,-242.5055 587.263,-235.5055"/>
</g>
<!-- Node13&#45;&gt;Node5 -->
<g id="edge13" class="edge">
<title>Node13&#45;&gt;Node5</title>
<path fill="none" stroke="#191970" d="M893.4129,-239.0054C916.3558,-239.0054 940.6732,-239.0054 956.932,-239.0054"/>
<polygon fill="#191970" stroke="#191970" points="893.3484,-235.5055 883.3483,-239.0054 893.3483,-242.5055 893.3484,-235.5055"/>
</g>
<!-- Node15 -->
<g id="node15" class="node">
<title>Node15</title>
<g id="a_node15"><a xlink:href="$structXCS.html#a94d556a5e545ec415d7165d5e91b21d4" xlink:title="XCS::single_decision">
<polygon fill="none" stroke="#000000" points="921,-324.5054 921,-343.5054 1031,-343.5054 1031,-324.5054 921,-324.5054"/>
<text text-anchor="middle" x="976" y="-331.5054" font-family="Helvetica,sans-Serif" font-size="10.00" fill="#000000">XCS::single_decision</text>
</a>
</g>
</g>
<!-- Node14&#45;&gt;Node15 -->
<g id="edge15" class="edge">
<title>Node14&#45;&gt;Node15</title>
<path fill="none" stroke="#191970" d="M583.8823,-326.7167C597.9717,-329.714 613.5314,-332.5111 628,-334.0054 731.0663,-344.6503 852.2207,-341.0327 920.9722,-337.4847"/>
<polygon fill="#191970" stroke="#191970" points="584.4393,-323.2554 573.9195,-324.5146 582.9284,-330.0905 584.4393,-323.2554"/>
</g>
<!-- Node16 -->
<g id="node16" class="node">
<title>Node16</title>
<g id="a_node16"><a xlink:href="$xcs__single__step_8c.html#a3d1fd2472d35310800aed897219a65af" xlink:title="Executes a single&#45;step trial using a built&#45;in environment. ">
<polygon fill="none" stroke="#000000" points="642.5,-305.5054 642.5,-324.5054 726.5,-324.5054 726.5,-305.5054 642.5,-305.5054"/>
<text text-anchor="middle" x="684.5" y="-312.5054" font-family="Helvetica,sans-Serif" font-size="10.00" fill="#000000">xcs_single_trial</text>
</a>
</g>
</g>
<!-- Node14&#45;&gt;Node16 -->
<g id="edge17" class="edge">
<title>Node14&#45;&gt;Node16</title>
<path fill="none" stroke="#191970" d="M599.3794,-315.0054C613.8192,-315.0054 628.8549,-315.0054 642.2,-315.0054"/>
<polygon fill="#191970" stroke="#191970" points="599.003,-311.5055 589.003,-315.0054 599.0029,-318.5055 599.003,-311.5055"/>
</g>
<!-- Node15&#45;&gt;Node7 -->
<g id="edge16" class="edge">
<title>Node15&#45;&gt;Node7</title>
<path fill="none" stroke="#191970" d="M999.3381,-318.3873C1009.6977,-310.8199 1021.6359,-301.1761 1031,-291.0054 1079.5729,-238.2484 1121.1719,-161.6356 1135.0638,-134.7605"/>
<polygon fill="#191970" stroke="#191970" points="997.2372,-315.5863 991.0985,-324.2215 1001.2823,-321.2992 997.2372,-315.5863"/>
</g>
<!-- Node17 -->
<g id="node17" class="node">
<title>Node17</title>
<g id="a_node17"><a xlink:href="$xcs__single__step_8h.html#a39a031bf59eaa9b33e30e614610dcda8" xlink:title="Executes a single&#45;step experiment. ">
<polygon fill="none" stroke="#000000" points="777,-305.5054 777,-324.5054 885,-324.5054 885,-305.5054 777,-305.5054"/>
<text text-anchor="middle" x="831" y="-312.5054" font-family="Helvetica,sans-Serif" font-size="10.00" fill="#000000">xcs_single_step_exp</text>
</a>
</g>
</g>
<!-- Node16&#45;&gt;Node17 -->
<g id="edge18" class="edge">
<title>Node16&#45;&gt;Node17</title>
<path fill="none" stroke="#191970" d="M737.0389,-315.0054C750.0094,-315.0054 763.9239,-315.0054 776.9641,-315.0054"/>
<polygon fill="#191970" stroke="#191970" points="736.8739,-311.5055 726.8739,-315.0054 736.8738,-318.5055 736.8739,-311.5055"/>
</g>
<!-- Node17&#45;&gt;Node5 -->
<g id="edge19" class="edge">
<title>Node17&#45;&gt;Node5</title>
<path fill="none" stroke="#191970" d="M858.5789,-300.5503C887.7087,-285.2822 932.8059,-261.6451 957.7848,-248.5527"/>
<polygon fill="#191970" stroke="#191970" points="856.5966,-297.6376 849.3644,-305.38 859.8463,-303.8375 856.5966,-297.6376"/>
</g>
<!-- Node19 -->
<g id="node19" class="node">
<title>Node19</title>
<g id="a_node19"><a xlink:href="$xcsf_8h.html#a0b4de57cb9dadc9deca7901aa36e5025" xlink:title="Executes MAX_TRIALS number of XCSF learning iterations using the training. data and test iterations u...">
<polygon fill="none" stroke="#000000" points="657.5,-153.5054 657.5,-172.5054 711.5,-172.5054 711.5,-153.5054 657.5,-153.5054"/>
<text text-anchor="middle" x="684.5" y="-160.5054" font-family="Helvetica,sans-Serif" font-size="10.00" fill="#000000">xcsf_fit2</text>
</a>
</g>
</g>
<!-- Node18&#45;&gt;Node19 -->
<g id="edge21" class="edge">
<title>Node18&#45;&gt;Node19</title>
<path fill="none" stroke="#191970" d="M584.223,-188.8395C608.2658,-182.6454 636.6482,-175.3333 657.0697,-170.0722"/>
<polygon fill="#191970" stroke="#191970" points="583.0311,-185.5322 574.2205,-191.4164 584.7775,-192.3108 583.0311,-185.5322"/>
</g>
<!-- Node19&#45;&gt;Node5 -->
<g id="edge22" class="edge">
<title>Node19&#45;&gt;Node5</title>
<path fill="none" stroke="#191970" d="M721.5219,-172.6578C784.1606,-188.989 908.8947,-221.5097 956.7201,-233.9787"/>
<polygon fill="#191970" stroke="#191970" points="722.2214,-169.2232 711.6618,-170.0871 720.4553,-175.9968 722.2214,-169.2232"/>
</g>
<!-- Node20 -->
<g id="node20" class="node">
<title>Node20</title>
<g id="a_node20"><a xlink:href="$structXCS.html#a7d53320740db8e846251bacd0238a9fb" xlink:title="XCS::fit">
<polygon fill="none" stroke="#000000" points="805,-153.5054 805,-172.5054 857,-172.5054 857,-153.5054 805,-153.5054"/>
<text text-anchor="middle" x="831" y="-160.5054" font-family="Helvetica,sans-Serif" font-size="10.00" fill="#000000">XCS::fit</text>
</a>
</g>
</g>
<!-- Node19&#45;&gt;Node20 -->
<g id="edge23" class="edge">
<title>Node19&#45;&gt;Node20</title>
<path fill="none" stroke="#191970" d="M721.9437,-163.0054C747.9137,-163.0054 781.8473,-163.0054 804.9182,-163.0054"/>
<polygon fill="#191970" stroke="#191970" points="721.7122,-159.5055 711.7122,-163.0054 721.7122,-166.5055 721.7122,-159.5055"/>
</g>
<!-- Node21 -->
<g id="node21" class="node">
<title>Node21</title>
<g id="a_node21"><a xlink:href="$xcsf_8h.html#a874829f28fee20f9ad15b540f4b4d6ff" xlink:title="Executes MAX_TRIALS number of XCSF learning iterations using the training data. ">
<polygon fill="none" stroke="#000000" points="804,-77.5054 804,-96.5054 858,-96.5054 858,-77.5054 804,-77.5054"/>
<text text-anchor="middle" x="831" y="-84.5054" font-family="Helvetica,sans-Serif" font-size="10.00" fill="#000000">xcsf_fit1</text>
</a>
</g>
</g>
<!-- Node19&#45;&gt;Node21 -->
<g id="edge24" class="edge">
<title>Node19&#45;&gt;Node21</title>
<path fill="none" stroke="#191970" d="M721.3249,-152.0517C727.9858,-149.6698 734.7853,-146.9653 741,-144.0054 770.0544,-130.1676 801.1908,-108.808 818.1565,-96.5442"/>
<polygon fill="#191970" stroke="#191970" points="720.0931,-148.7736 711.7494,-155.303 722.3438,-155.402 720.0931,-148.7736"/>
</g>
<!-- Node22 -->
<g id="node22" class="node">
<title>Node22</title>
<g id="a_node22"><a xlink:href="$structXCS.html#ad2ccafe59d2b4ae6d0e1cbc15edee53c" xlink:title="XCS::fit">
<polygon fill="none" stroke="#000000" points="950,-77.5054 950,-96.5054 1002,-96.5054 1002,-77.5054 950,-77.5054"/>
<text text-anchor="middle" x="976" y="-84.5054" font-family="Helvetica,sans-Serif" font-size="10.00" fill="#000000">XCS::fit</text>
</a>
</g>
</g>
<!-- Node21&#45;&gt;Node22 -->
<g id="edge25" class="edge">
<title>Node21&#45;&gt;Node22</title>
<path fill="none" stroke="#191970" d="M868.3422,-87.0054C893.8746,-87.0054 927.0827,-87.0054 949.8256,-87.0054"/>
<polygon fill="#191970" stroke="#191970" points="868.2734,-83.5055 858.2734,-87.0054 868.2734,-90.5055 868.2734,-83.5055"/>
</g>
<!-- Node22&#45;&gt;Node7 -->
<g id="edge26" class="edge">
<title>Node22&#45;&gt;Node7</title>
<path fill="none" stroke="#191970" d="M1012.4051,-95.4407C1038.038,-101.3801 1072.3853,-109.3386 1098.9861,-115.5022"/>
<polygon fill="#191970" stroke="#191970" points="1012.8814,-91.9584 1002.3494,-93.1108 1011.3013,-98.7778 1012.8814,-91.9584"/>
</g>
<!-- Node24 -->
<g id="node24" class="node">
<title>Node24</title>
<g id="a_node24"><a xlink:href="$structXCS.html#a911ed75c86abed7807d33eb1385240ed" xlink:title="XCS::predict">
<polygon fill="none" stroke="#000000" points="648,-6.5054 648,-25.5054 721,-25.5054 721,-6.5054 648,-6.5054"/>
<text text-anchor="middle" x="684.5" y="-13.5054" font-family="Helvetica,sans-Serif" font-size="10.00" fill="#000000">XCS::predict</text>
</a>
</g>
</g>
<!-- Node23&#45;&gt;Node24 -->
<g id="edge28" class="edge">
<title>Node23&#45;&gt;Node24</title>
<path fill="none" stroke="#191970" d="M582.3334,-29.1658C603.3834,-26.4543 628.0797,-23.2731 647.9179,-20.7177"/>
<polygon fill="#191970" stroke="#191970" points="581.8008,-25.7054 572.3299,-30.4544 582.6952,-32.6481 581.8008,-25.7054"/>
</g>
<!-- Node24&#45;&gt;Node7 -->
<g id="edge29" class="edge">
<title>Node24&#45;&gt;Node7</title>
<path fill="none" stroke="#191970" d="M731.0779,-8.4202C799.5506,.675 930.1678,10.1082 1031,-30.0054 1077.1822,-48.3778 1117.1307,-95.1599 1132.8618,-115.415"/>
<polygon fill="#191970" stroke="#191970" points="730.4615,-4.9721 721.0366,-9.8115 731.4223,-11.9058 730.4615,-4.9721"/>
</g>
<!-- Node26 -->
<g id="node26" class="node">
<title>Node26</title>
<g id="a_node26"><a xlink:href="$structXCS.html#aa5608b379fae01b724267a99068d55bb" xlink:title="XCS::print_match_set">
<polygon fill="none" stroke="#000000" points="628,-267.5054 628,-286.5054 741,-286.5054 741,-267.5054 628,-267.5054"/>
<text text-anchor="middle" x="684.5" y="-274.5054" font-family="Helvetica,sans-Serif" font-size="10.00" fill="#000000">XCS::print_match_set</text>
</a>
</g>
</g>
<!-- Node25&#45;&gt;Node26 -->
<g id="edge31" class="edge">
<title>Node25&#45;&gt;Node26</title>
<path fill="none" stroke="#191970" d="M602.542,-277.0054C610.9872,-277.0054 619.5777,-277.0054 627.8632,-277.0054"/>
<polygon fill="#191970" stroke="#191970" points="602.3432,-273.5055 592.3432,-277.0054 602.3432,-280.5055 602.3432,-273.5055"/>
</g>
<!-- Node26&#45;&gt;Node7 -->
<g id="edge32" class="edge">
<title>Node26&#45;&gt;Node7</title>
<path fill="none" stroke="#191970" d="M746.5846,-287.9675C819.05,-297.6376 940.4885,-303.9268 1031,-258.0054 1086.1106,-230.0448 1123.3638,-160.3432 1135.6058,-134.6849"/>
<polygon fill="#191970" stroke="#191970" points="746.6465,-284.4421 736.2578,-286.522 745.6761,-291.3745 746.6465,-284.4421"/>
</g>
<!-- Node27&#45;&gt;Node19 -->
<g id="edge34" class="edge">
<title>Node27&#45;&gt;Node19</title>
<path fill="none" stroke="#191970" d="M586.3635,-163.0054C610.0342,-163.0054 637.4816,-163.0054 657.32,-163.0054"/>
<polygon fill="#191970" stroke="#191970" points="586.1401,-159.5055 576.14,-163.0054 586.14,-166.5055 586.1401,-159.5055"/>
</g>
<!-- Node28 -->
<g id="node28" class="node">
<title>Node28</title>
<g id="a_node28"><a xlink:href="$xcsf_8h.html#a2cf95733e5f97410d94211b72e835847" xlink:title="Calculates the XCSF error for the input data. ">
<polygon fill="none" stroke="#000000" points="652,-115.5054 652,-134.5054 717,-134.5054 717,-115.5054 652,-115.5054"/>
<text text-anchor="middle" x="684.5" y="-122.5054" font-family="Helvetica,sans-Serif" font-size="10.00" fill="#000000">xcsf_score</text>
</a>
</g>
</g>
<!-- Node27&#45;&gt;Node28 -->
<g id="edge35" class="edge">
<title>Node27&#45;&gt;Node28</title>
<path fill="none" stroke="#191970" d="M584.0695,-150.879C606.1448,-145.1918 631.9063,-138.555 651.8107,-133.427"/>
<polygon fill="#191970" stroke="#191970" points="583.0311,-147.5322 574.2205,-153.4164 584.7775,-154.3108 583.0311,-147.5322"/>
</g>
<!-- Node29 -->
<g id="node29" class="node">
<title>Node29</title>
<g id="a_node29"><a xlink:href="$structXCS.html#aa77bc77484d6d14bf512304a23cfec88" xlink:title="XCS::score">
<polygon fill="none" stroke="#000000" points="942,-115.5054 942,-134.5054 1010,-134.5054 1010,-115.5054 942,-115.5054"/>
<text text-anchor="middle" x="976" y="-122.5054" font-family="Helvetica,sans-Serif" font-size="10.00" fill="#000000">XCS::score</text>
</a>
</g>
</g>
<!-- Node28&#45;&gt;Node29 -->
<g id="edge36" class="edge">
<title>Node28&#45;&gt;Node29</title>
<path fill="none" stroke="#191970" d="M727.4214,-125.0054C785.6502,-125.0054 888.5109,-125.0054 941.8218,-125.0054"/>
<polygon fill="#191970" stroke="#191970" points="727.0903,-121.5055 717.0903,-125.0054 727.0902,-128.5055 727.0903,-121.5055"/>
</g>
<!-- Node29&#45;&gt;Node7 -->
<g id="edge37" class="edge">
<title>Node29&#45;&gt;Node7</title>
<path fill="none" stroke="#191970" d="M1020.4237,-125.0054C1034.7375,-125.0054 1051.0002,-125.0054 1066.82,-125.0054"/>
<polygon fill="#191970" stroke="#191970" points="1020.3798,-121.5055 1010.3798,-125.0054 1020.3797,-128.5055 1020.3798,-121.5055"/>
</g>
<!-- Node30&#45;&gt;Node5 -->
<g id="edge40" class="edge">
<title>Node30&#45;&gt;Node5</title>
<path fill="none" stroke="#191970" d="M865.5241,-56.5929C872.5462,-59.3254 879.467,-63.0202 885,-68.0054 912.7671,-93.0239 903.622,-110.9155 921,-144.0054 937.7473,-175.8943 959.7444,-212.4779 970.1114,-229.4428"/>
<polygon fill="#191970" stroke="#191970" points="866.6002,-53.2624 856.0067,-53.4323 864.394,-59.9056 866.6002,-53.2624"/>
</g>
<!-- Node30&#45;&gt;Node22 -->
<g id="edge39" class="edge">
<title>Node30&#45;&gt;Node22</title>
<path fill="none" stroke="#191970" d="M865.9937,-58.1762C891.7123,-64.9162 926.121,-73.9337 949.5628,-80.077"/>
<polygon fill="#191970" stroke="#191970" points="866.8177,-54.774 856.2571,-55.6245 865.0431,-61.5453 866.8177,-54.774"/>
</g>
<!-- Node31 -->
<g id="node31" class="node">
<title>Node31</title>
<g id="a_node31"><a xlink:href="$structXCS.html#ab58a4fb495b05f3450b182bc21dcba1f" xlink:title="XCS::single_reset">
<polygon fill="none" stroke="#000000" points="928,-39.5054 928,-58.5054 1024,-58.5054 1024,-39.5054 928,-39.5054"/>
<text text-anchor="middle" x="976" y="-46.5054" font-family="Helvetica,sans-Serif" font-size="10.00" fill="#000000">XCS::single_reset</text>
</a>
</g>
</g>
<!-- Node30&#45;&gt;Node31 -->
<g id="edge41" class="edge">
<title>Node30&#45;&gt;Node31</title>
<path fill="none" stroke="#191970" d="M866.3154,-49.0054C884.8312,-49.0054 907.7839,-49.0054 927.8996,-49.0054"/>
<polygon fill="#191970" stroke="#191970" points="866.2571,-45.5055 856.2571,-49.0054 866.257,-52.5055 866.2571,-45.5055"/>
</g>
<!-- Node31&#45;&gt;Node7 -->
<g id="edge42" class="edge">
<title>Node31&#45;&gt;Node7</title>
<path fill="none" stroke="#191970" d="M1015.9849,-62.0307C1021.0832,-63.9213 1026.1952,-65.9329 1031,-68.0054 1064.7267,-82.5529 1102.3375,-103.2829 1123.3884,-115.3207"/>
<polygon fill="#191970" stroke="#191970" points="1016.8766,-58.6326 1006.282,-58.5601 1014.519,-65.2236 1016.8766,-58.6326"/>
</g>
</g>
</svg>
