<?xml version="1.0" encoding="UTF-8" standalone="no"?>
<!DOCTYPE svg PUBLIC "-//W3C//DTD SVG 1.1//EN"
 "http://www.w3.org/Graphics/SVG/1.1/DTD/svg11.dtd">
<!-- Generated by graphviz version 2.40.1 (20161225.0304)
 -->
<!-- Title: pred_neural_init Pages: 1 -->
<svg width="816pt" height="142pt"
 viewBox="0.00 0.00 816.00 142.00" xmlns="http://www.w3.org/2000/svg" xmlns:xlink="http://www.w3.org/1999/xlink">
<g id="graph0" class="graph" transform="scale(1 1) rotate(0) translate(4 138)">
<title>pred_neural_init</title>
<!-- Node24 -->
<g id="node1" class="node">
<title>Node24</title>
<polygon fill="#bfbfbf" stroke="#000000" points="0,-57.5 0,-76.5 85,-76.5 85,-57.5 0,-57.5"/>
<text text-anchor="middle" x="42.5" y="-64.5" font-family="Helvetica,sans-Serif" font-size="10.00" fill="#000000">pred_neural_init</text>
</g>
<!-- Node25 -->
<g id="node2" class="node">
<title>Node25</title>
<g id="a_node2"><a xlink:href="neural_8c.html#a89a8b1cf58b3c2abe700d9e602e13c8e" target="_top" xlink:title="Initialises an empty neural network. ">
<polygon fill="none" stroke="#000000" points="159,-114.5 159,-133.5 220,-133.5 220,-114.5 159,-114.5"/>
<text text-anchor="middle" x="189.5" y="-121.5" font-family="Helvetica,sans-Serif" font-size="10.00" fill="#000000">neural_init</text>
</a>
</g>
</g>
<!-- Node24&#45;&gt;Node25 -->
<g id="edge1" class="edge">
<title>Node24&#45;&gt;Node25</title>
<path fill="none" stroke="#191970" d="M59.8707,-76.5338C75.5184,-84.8475 99.3246,-96.824 121,-105 129.904,-108.3586 139.6588,-111.4177 148.9441,-114.0531"/>
<polygon fill="#191970" stroke="#191970" points="148.2038,-117.4791 158.7729,-116.7405 150.0501,-110.7269 148.2038,-117.4791"/>
</g>
<!-- Node26 -->
<g id="node3" class="node">
<title>Node26</title>
<g id="a_node3"><a xlink:href="neural__layer__connected_8c.html#adcf59226c12296224d675cfb28892039" target="_top" xlink:title="neural_layer_connected_init">
<polygon fill="none" stroke="#000000" points="121,-76.5 121,-95.5 258,-95.5 258,-76.5 121,-76.5"/>
<text text-anchor="middle" x="189.5" y="-83.5" font-family="Helvetica,sans-Serif" font-size="10.00" fill="#000000">neural_layer_connected_init</text>
</a>
</g>
</g>
<!-- Node24&#45;&gt;Node26 -->
<g id="edge2" class="edge">
<title>Node24&#45;&gt;Node26</title>
<path fill="none" stroke="#191970" d="M85.0185,-72.4956C93.1508,-73.5467 101.9025,-74.6779 110.7561,-75.8222"/>
<polygon fill="#191970" stroke="#191970" points="110.4018,-79.3055 120.768,-77.1163 111.2991,-72.3632 110.4018,-79.3055"/>
</g>
<!-- Node33 -->
<g id="node10" class="node">
<title>Node33</title>
<g id="a_node10"><a xlink:href="neural_8c.html#a6217c5bc4bdba93832cb4d8aa6c64d51" target="_top" xlink:title="Inserts a layer into a neural network. ">
<polygon fill="none" stroke="#000000" points="140.5,-38.5 140.5,-57.5 238.5,-57.5 238.5,-38.5 140.5,-38.5"/>
<text text-anchor="middle" x="189.5" y="-45.5" font-family="Helvetica,sans-Serif" font-size="10.00" fill="#000000">neural_layer_insert</text>
</a>
</g>
</g>
<!-- Node24&#45;&gt;Node33 -->
<g id="edge10" class="edge">
<title>Node24&#45;&gt;Node33</title>
<path fill="none" stroke="#191970" d="M85.0185,-61.5044C99.0731,-59.6878 114.9778,-57.6321 130.0616,-55.6825"/>
<polygon fill="#191970" stroke="#191970" points="130.8715,-59.107 140.3404,-54.354 129.9742,-52.1648 130.8715,-59.107"/>
</g>
<!-- Node34 -->
<g id="node11" class="node">
<title>Node34</title>
<g id="a_node11"><a xlink:href="pred__neural_8c.html#af4e5dbaabdf0e6103578db9fb2f3736a" target="_top" xlink:title="pred_neural_lopt">
<polygon fill="none" stroke="#000000" points="145.5,-.5 145.5,-19.5 233.5,-19.5 233.5,-.5 145.5,-.5"/>
<text text-anchor="middle" x="189.5" y="-7.5" font-family="Helvetica,sans-Serif" font-size="10.00" fill="#000000">pred_neural_lopt</text>
</a>
</g>
</g>
<!-- Node24&#45;&gt;Node34 -->
<g id="edge11" class="edge">
<title>Node24&#45;&gt;Node34</title>
<path fill="none" stroke="#191970" d="M59.8707,-57.4662C75.5184,-49.1525 99.3246,-37.176 121,-29 127.2842,-26.6296 133.9922,-24.4084 140.6599,-22.38"/>
<polygon fill="#191970" stroke="#191970" points="141.728,-25.7143 150.3458,-19.5513 139.7656,-18.995 141.728,-25.7143"/>
</g>
<!-- Node27 -->
<g id="node4" class="node">
<title>Node27</title>
<g id="a_node4"><a xlink:href="utils_8c.html#aa57fc0f69e730ce0a348c25ee498643d" target="_top" xlink:title="Returns a normal random float with specified mean and standard deviation. ">
<polygon fill="none" stroke="#000000" points="295.5,-95.5 295.5,-114.5 365.5,-114.5 365.5,-95.5 295.5,-95.5"/>
<text text-anchor="middle" x="330.5" y="-102.5" font-family="Helvetica,sans-Serif" font-size="10.00" fill="#000000">rand_normal</text>
</a>
</g>
</g>
<!-- Node26&#45;&gt;Node27 -->
<g id="edge3" class="edge">
<title>Node26&#45;&gt;Node27</title>
<path fill="none" stroke="#191970" d="M258.3478,-95.2774C267.4924,-96.5096 276.6741,-97.7469 285.277,-98.9061"/>
<polygon fill="#191970" stroke="#191970" points="285.0644,-102.409 295.4422,-100.2759 285.9992,-95.4717 285.0644,-102.409"/>
</g>
<!-- Node32 -->
<g id="node9" class="node">
<title>Node32</title>
<g id="a_node9"><a xlink:href="utils_8c.html#ae42a9e1d467853befaa7922cfafed3bb" target="_top" xlink:title="Returns a uniform random float [min,max]. ">
<polygon fill="none" stroke="#000000" points="294,-57.5 294,-76.5 367,-76.5 367,-57.5 294,-57.5"/>
<text text-anchor="middle" x="330.5" y="-64.5" font-family="Helvetica,sans-Serif" font-size="10.00" fill="#000000">rand_uniform</text>
</a>
</g>
</g>
<!-- Node26&#45;&gt;Node32 -->
<g id="edge8" class="edge">
<title>Node26&#45;&gt;Node32</title>
<path fill="none" stroke="#191970" d="M258.3478,-76.7226C266.9987,-75.5569 275.6828,-74.3867 283.8787,-73.2823"/>
<polygon fill="#191970" stroke="#191970" points="284.5168,-76.728 293.9597,-71.9239 283.5819,-69.7907 284.5168,-76.728"/>
</g>
<!-- Node28 -->
<g id="node5" class="node">
<title>Node28</title>
<g id="a_node5"><a xlink:href="utils_8c.html#a101d27cdda714b7f17a06224c65cac56" target="_top" xlink:title="Returns a uniform random float [0,1]. ">
<polygon fill="none" stroke="#000000" points="403,-76.5 403,-95.5 444,-95.5 444,-76.5 403,-76.5"/>
<text text-anchor="middle" x="423.5" y="-83.5" font-family="Helvetica,sans-Serif" font-size="10.00" fill="#000000">drand</text>
</a>
</g>
</g>
<!-- Node27&#45;&gt;Node28 -->
<g id="edge4" class="edge">
<title>Node27&#45;&gt;Node28</title>
<path fill="none" stroke="#191970" d="M365.6593,-97.8169C374.5821,-95.994 384.0982,-94.0498 392.7814,-92.2759"/>
<polygon fill="#191970" stroke="#191970" points="393.7669,-95.6469 402.8639,-90.216 392.3657,-88.7886 393.7669,-95.6469"/>
</g>
<!-- Node29 -->
<g id="node6" class="node">
<title>Node29</title>
<g id="a_node6"><a xlink:href="mt19937-64_8c.html#aa0b74daf51eca91df224d00f1730084a" target="_top" xlink:title="genrand64_real1">
<polygon fill="none" stroke="#000000" points="480,-76.5 480,-95.5 568,-95.5 568,-76.5 480,-76.5"/>
<text text-anchor="middle" x="524" y="-83.5" font-family="Helvetica,sans-Serif" font-size="10.00" fill="#000000">genrand64_real1</text>
</a>
</g>
</g>
<!-- Node28&#45;&gt;Node29 -->
<g id="edge5" class="edge">
<title>Node28&#45;&gt;Node29</title>
<path fill="none" stroke="#191970" d="M444.3237,-86C451.8428,-86 460.7193,-86 469.769,-86"/>
<polygon fill="#191970" stroke="#191970" points="469.9969,-89.5001 479.9969,-86 469.9969,-82.5001 469.9969,-89.5001"/>
</g>
<!-- Node30 -->
<g id="node7" class="node">
<title>Node30</title>
<g id="a_node7"><a xlink:href="mt19937-64_8c.html#a265bf48d20d6e0347371fcf4fe340e6d" target="_top" xlink:title="genrand64_int64">
<polygon fill="none" stroke="#000000" points="604,-76.5 604,-95.5 692,-95.5 692,-76.5 604,-76.5"/>
<text text-anchor="middle" x="648" y="-83.5" font-family="Helvetica,sans-Serif" font-size="10.00" fill="#000000">genrand64_int64</text>
</a>
</g>
</g>
<!-- Node29&#45;&gt;Node30 -->
<g id="edge6" class="edge">
<title>Node29&#45;&gt;Node30</title>
<path fill="none" stroke="#191970" d="M568.0669,-86C576.2822,-86 584.957,-86 593.4432,-86"/>
<polygon fill="#191970" stroke="#191970" points="593.6572,-89.5001 603.6572,-86 593.6572,-82.5001 593.6572,-89.5001"/>
</g>
<!-- Node31 -->
<g id="node8" class="node">
<title>Node31</title>
<g id="a_node8"><a xlink:href="mt19937-64_8c.html#adf4127d44c2dc34fcb318d406131ef7c" target="_top" xlink:title="init_genrand64">
<polygon fill="none" stroke="#000000" points="728,-76.5 728,-95.5 808,-95.5 808,-76.5 728,-76.5"/>
<text text-anchor="middle" x="768" y="-83.5" font-family="Helvetica,sans-Serif" font-size="10.00" fill="#000000">init_genrand64</text>
</a>
</g>
</g>
<!-- Node30&#45;&gt;Node31 -->
<g id="edge7" class="edge">
<title>Node30&#45;&gt;Node31</title>
<path fill="none" stroke="#191970" d="M692.0022,-86C700.3719,-86 709.1896,-86 717.7365,-86"/>
<polygon fill="#191970" stroke="#191970" points="717.9792,-89.5001 727.9792,-86 717.9792,-82.5001 717.9792,-89.5001"/>
</g>
<!-- Node32&#45;&gt;Node28 -->
<g id="edge9" class="edge">
<title>Node32&#45;&gt;Node28</title>
<path fill="none" stroke="#191970" d="M367.2561,-74.5093C375.7524,-76.2451 384.7031,-78.0738 392.9036,-79.7491"/>
<polygon fill="#191970" stroke="#191970" points="392.3007,-83.1982 402.7989,-81.7707 393.7019,-76.3398 392.3007,-83.1982"/>
</g>
</g>
</svg>
