<?xml version="1.0" encoding="UTF-8" standalone="no"?>
<!DOCTYPE svg PUBLIC "-//W3C//DTD SVG 1.1//EN"
 "http://www.w3.org/Graphics/SVG/1.1/DTD/svg11.dtd">
<!-- Generated by graphviz version 2.40.1 (20161225.0304)
 -->
<!-- Title: pred_mutate Pages: 1 -->
<svg width="791pt" height="256pt"
 viewBox="0.00 0.00 791.00 256.00" xmlns="http://www.w3.org/2000/svg" xmlns:xlink="http://www.w3.org/1999/xlink">
<g id="graph0" class="graph" transform="scale(1 1) rotate(0) translate(4 252)">
<title>pred_mutate</title>
<!-- Node126 -->
<g id="node1" class="node">
<title>Node126</title>
<polygon fill="#bfbfbf" stroke="#000000" points="0,-171.5 0,-190.5 71,-190.5 71,-171.5 0,-171.5"/>
<text text-anchor="middle" x="35.5" y="-178.5" font-family="Helvetica,sans-Serif" font-size="10.00" fill="#000000">pred_mutate</text>
</g>
<!-- Node127 -->
<g id="node2" class="node">
<title>Node127</title>
<g id="a_node2"><a xlink:href="cl_8h.html#a9c652f3dd22936f8d99809daf219efe8" target="_top" xlink:title="Performs classifier mutation. ">
<polygon fill="none" stroke="#000000" points="107,-171.5 107,-190.5 166,-190.5 166,-171.5 107,-171.5"/>
<text text-anchor="middle" x="136.5" y="-178.5" font-family="Helvetica,sans-Serif" font-size="10.00" fill="#000000">cl_mutate</text>
</a>
</g>
</g>
<!-- Node126&#45;&gt;Node127 -->
<g id="edge1" class="edge">
<title>Node126&#45;&gt;Node127</title>
<path fill="none" stroke="#191970" d="M81.1951,-181C89.9164,-181 98.8305,-181 106.8844,-181"/>
<polygon fill="#191970" stroke="#191970" points="81.1089,-177.5001 71.1088,-181 81.1088,-184.5001 81.1089,-177.5001"/>
</g>
<!-- Node128 -->
<g id="node3" class="node">
<title>Node128</title>
<g id="a_node3"><a xlink:href="ea_8h.html#ae90a9b4131bb94462265b9c928499eb8" target="_top" xlink:title="Executes the evolutionary algorithm (EA). ">
<polygon fill="none" stroke="#000000" points="202,-171.5 202,-190.5 231,-190.5 231,-171.5 202,-171.5"/>
<text text-anchor="middle" x="216.5" y="-178.5" font-family="Helvetica,sans-Serif" font-size="10.00" fill="#000000">ea</text>
</a>
</g>
</g>
<!-- Node127&#45;&gt;Node128 -->
<g id="edge2" class="edge">
<title>Node127&#45;&gt;Node128</title>
<path fill="none" stroke="#191970" d="M176.4014,-181C185.4479,-181 194.5011,-181 201.7102,-181"/>
<polygon fill="#191970" stroke="#191970" points="176.2891,-177.5001 166.289,-181 176.289,-184.5001 176.2891,-177.5001"/>
</g>
<!-- Node129 -->
<g id="node4" class="node">
<title>Node129</title>
<g id="a_node4"><a xlink:href="xcs__multi__step_8c.html#ad50c415970b4bfc42f469fb38c5e68fa" target="_top" xlink:title="Executes a multi&#45;step trial using a built&#45;in environment. ">
<polygon fill="none" stroke="#000000" points="276,-218.5 276,-237.5 356,-237.5 356,-218.5 276,-218.5"/>
<text text-anchor="middle" x="316" y="-225.5" font-family="Helvetica,sans-Serif" font-size="10.00" fill="#000000">xcs_multi_trial</text>
</a>
</g>
</g>
<!-- Node128&#45;&gt;Node129 -->
<g id="edge3" class="edge">
<title>Node128&#45;&gt;Node129</title>
<path fill="none" stroke="#191970" d="M240.4056,-192.2921C257.3056,-200.275 279.714,-210.8599 295.7373,-218.4287"/>
<polygon fill="#191970" stroke="#191970" points="241.7185,-189.0415 231.1816,-187.935 238.7287,-195.3709 241.7185,-189.0415"/>
</g>
<!-- Node132 -->
<g id="node7" class="node">
<title>Node132</title>
<g id="a_node7"><a xlink:href="xcs__single__step_8h.html#a0ff6b521f66224d56ef0e6f50f5781b9" target="_top" xlink:title="Creates the action set, updates the classifiers and runs the EA. ">
<polygon fill="none" stroke="#000000" points="267,-171.5 267,-190.5 365,-190.5 365,-171.5 267,-171.5"/>
<text text-anchor="middle" x="316" y="-178.5" font-family="Helvetica,sans-Serif" font-size="10.00" fill="#000000">xcs_single_update</text>
</a>
</g>
</g>
<!-- Node128&#45;&gt;Node132 -->
<g id="edge6" class="edge">
<title>Node128&#45;&gt;Node132</title>
<path fill="none" stroke="#191970" d="M241.2801,-181C249.0174,-181 257.8425,-181 266.6508,-181"/>
<polygon fill="#191970" stroke="#191970" points="241.1816,-177.5001 231.1816,-181 241.1815,-184.5001 241.1816,-177.5001"/>
</g>
<!-- Node137 -->
<g id="node12" class="node">
<title>Node137</title>
<g id="a_node12"><a xlink:href="xcsf_8c.html#af5fb604e81235fdcb2ed8925d9291f59" target="_top" xlink:title="Executes a single XCSF trial. ">
<polygon fill="none" stroke="#000000" points="288,-57.5 288,-76.5 344,-76.5 344,-57.5 288,-57.5"/>
<text text-anchor="middle" x="316" y="-64.5" font-family="Helvetica,sans-Serif" font-size="10.00" fill="#000000">xcsf_trial</text>
</a>
</g>
</g>
<!-- Node128&#45;&gt;Node137 -->
<g id="edge12" class="edge">
<title>Node128&#45;&gt;Node137</title>
<path fill="none" stroke="#191970" d="M231.7434,-163.5352C252.9778,-139.2063 290.7403,-95.9408 307.5382,-76.695"/>
<polygon fill="#191970" stroke="#191970" points="228.9221,-161.445 224.9833,-171.2804 234.1959,-166.048 228.9221,-161.445"/>
</g>
<!-- Node130 -->
<g id="node5" class="node">
<title>Node130</title>
<g id="a_node5"><a xlink:href="xcs__multi__step_8h.html#acc29d4a55dbd56c16ea5f19f15a7c677" target="_top" xlink:title="Executes a multi&#45;step reinforcement learning experiment. ">
<polygon fill="none" stroke="#000000" points="543,-228.5 543,-247.5 647,-247.5 647,-228.5 543,-228.5"/>
<text text-anchor="middle" x="595" y="-235.5" font-family="Helvetica,sans-Serif" font-size="10.00" fill="#000000">xcs_multi_step_exp</text>
</a>
</g>
</g>
<!-- Node129&#45;&gt;Node130 -->
<g id="edge4" class="edge">
<title>Node129&#45;&gt;Node130</title>
<path fill="none" stroke="#191970" d="M366.5047,-229.8102C416.4046,-231.5987 492.3872,-234.3221 542.8508,-236.1309"/>
<polygon fill="#191970" stroke="#191970" points="366.39,-226.3039 356.271,-229.4434 366.1392,-233.2994 366.39,-226.3039"/>
</g>
<!-- Node131 -->
<g id="node6" class="node">
<title>Node131</title>
<g id="a_node6"><a xlink:href="main_8c.html#a3c04138a5bfe5d72780bb7e82a18e627" target="_top" xlink:title="main">
<polygon fill="none" stroke="#000000" points="715,-190.5 715,-209.5 753,-209.5 753,-190.5 715,-190.5"/>
<text text-anchor="middle" x="734" y="-197.5" font-family="Helvetica,sans-Serif" font-size="10.00" fill="#000000">main</text>
</a>
</g>
</g>
<!-- Node130&#45;&gt;Node131 -->
<g id="edge5" class="edge">
<title>Node130&#45;&gt;Node131</title>
<path fill="none" stroke="#191970" d="M639.8597,-225.7362C665.1892,-218.8116 695.5345,-210.5157 714.7913,-205.2513"/>
<polygon fill="#191970" stroke="#191970" points="638.7986,-222.3978 630.0756,-228.411 640.6446,-229.15 638.7986,-222.3978"/>
</g>
<!-- Node133 -->
<g id="node8" class="node">
<title>Node133</title>
<g id="a_node8"><a xlink:href="classXCS.html#aedc01ad6f00a54b260a7605929a1d4c9" target="_top" xlink:title="XCS::single_update">
<polygon fill="none" stroke="#000000" points="401,-152.5 401,-171.5 505,-171.5 505,-152.5 401,-152.5"/>
<text text-anchor="middle" x="453" y="-159.5" font-family="Helvetica,sans-Serif" font-size="10.00" fill="#000000">XCS::single_update</text>
</a>
</g>
</g>
<!-- Node132&#45;&gt;Node133 -->
<g id="edge7" class="edge">
<title>Node132&#45;&gt;Node133</title>
<path fill="none" stroke="#191970" d="M375.2254,-172.7863C383.6549,-171.6172 392.2753,-170.4217 400.5632,-169.2723"/>
<polygon fill="#191970" stroke="#191970" points="374.4976,-169.3536 365.0732,-174.1942 375.4592,-176.2873 374.4976,-169.3536"/>
</g>
<!-- Node135 -->
<g id="node10" class="node">
<title>Node135</title>
<g id="a_node10"><a xlink:href="xcs__single__step_8c.html#a536ab4256e871e31959ea6e907455340" target="_top" xlink:title="Executes a single&#45;step trial using a built&#45;in environment. ">
<polygon fill="none" stroke="#000000" points="411,-190.5 411,-209.5 495,-209.5 495,-190.5 411,-190.5"/>
<text text-anchor="middle" x="453" y="-197.5" font-family="Helvetica,sans-Serif" font-size="10.00" fill="#000000">xcs_single_trial</text>
</a>
</g>
</g>
<!-- Node132&#45;&gt;Node135 -->
<g id="edge9" class="edge">
<title>Node132&#45;&gt;Node135</title>
<path fill="none" stroke="#191970" d="M375.0069,-189.1834C386.9825,-190.8443 399.3528,-192.5599 410.6154,-194.1218"/>
<polygon fill="#191970" stroke="#191970" points="375.4592,-185.7128 365.0732,-187.8058 374.4976,-192.6464 375.4592,-185.7128"/>
</g>
<!-- Node134 -->
<g id="node9" class="node">
<title>Node134</title>
<g id="a_node9"><a xlink:href="pybind__wrapper_8cpp.html#a9f26280e01308c4674f2473fb6f78730" target="_top" xlink:title="pybind11_init_xcsf">
<polygon fill="none" stroke="#000000" points="685,-57.5 685,-76.5 783,-76.5 783,-57.5 685,-57.5"/>
<text text-anchor="middle" x="734" y="-64.5" font-family="Helvetica,sans-Serif" font-size="10.00" fill="#000000">pybind11_init_xcsf</text>
</a>
</g>
</g>
<!-- Node133&#45;&gt;Node134 -->
<g id="edge8" class="edge">
<title>Node133&#45;&gt;Node134</title>
<path fill="none" stroke="#191970" d="M501.2146,-149.9595C541.2575,-139.4896 599.4693,-123.176 649,-105 672.066,-96.5356 697.7069,-84.7262 714.7334,-76.528"/>
<polygon fill="#191970" stroke="#191970" points="500.2436,-146.5954 491.442,-152.493 502.0003,-153.3714 500.2436,-146.5954"/>
</g>
<!-- Node136 -->
<g id="node11" class="node">
<title>Node136</title>
<g id="a_node11"><a xlink:href="xcs__single__step_8h.html#a39a031bf59eaa9b33e30e614610dcda8" target="_top" xlink:title="Executes a single&#45;step reinforcement learning experiment. ">
<polygon fill="none" stroke="#000000" points="541,-190.5 541,-209.5 649,-209.5 649,-190.5 541,-190.5"/>
<text text-anchor="middle" x="595" y="-197.5" font-family="Helvetica,sans-Serif" font-size="10.00" fill="#000000">xcs_single_step_exp</text>
</a>
</g>
</g>
<!-- Node135&#45;&gt;Node136 -->
<g id="edge10" class="edge">
<title>Node135&#45;&gt;Node136</title>
<path fill="none" stroke="#191970" d="M505.551,-200C517.0539,-200 529.2511,-200 540.8166,-200"/>
<polygon fill="#191970" stroke="#191970" points="505.2203,-196.5001 495.2202,-200 505.2202,-203.5001 505.2203,-196.5001"/>
</g>
<!-- Node136&#45;&gt;Node131 -->
<g id="edge11" class="edge">
<title>Node136&#45;&gt;Node131</title>
<path fill="none" stroke="#191970" d="M659.3039,-200C679.5242,-200 700.3344,-200 714.8368,-200"/>
<polygon fill="#191970" stroke="#191970" points="659.1391,-196.5001 649.139,-200 659.139,-203.5001 659.1391,-196.5001"/>
</g>
<!-- Node138 -->
<g id="node13" class="node">
<title>Node138</title>
<g id="a_node13"><a xlink:href="xcsf_8h.html#aee465caea59599a71fc69528598156cb" target="_top" xlink:title="Executes MAX_TRIALS number of XCSF learning iterations using the training. data and test iterations u...">
<polygon fill="none" stroke="#000000" points="428.5,-76.5 428.5,-95.5 477.5,-95.5 477.5,-76.5 428.5,-76.5"/>
<text text-anchor="middle" x="453" y="-83.5" font-family="Helvetica,sans-Serif" font-size="10.00" fill="#000000">xcsf_fit</text>
</a>
</g>
</g>
<!-- Node137&#45;&gt;Node138 -->
<g id="edge13" class="edge">
<title>Node137&#45;&gt;Node138</title>
<path fill="none" stroke="#191970" d="M354.1185,-72.2865C377.7972,-75.5704 407.5501,-79.6967 428.2027,-82.561"/>
<polygon fill="#191970" stroke="#191970" points="354.4406,-68.7978 344.0546,-70.8908 353.479,-75.7314 354.4406,-68.7978"/>
</g>
<!-- Node140 -->
<g id="node15" class="node">
<title>Node140</title>
<g id="a_node15"><a xlink:href="xcsf_8h.html#af128a7da769acabe2e841e8d06749b0b" target="_top" xlink:title="Calculates the XCSF predictions for the provided input. ">
<polygon fill="none" stroke="#000000" points="418,-38.5 418,-57.5 488,-57.5 488,-38.5 418,-38.5"/>
<text text-anchor="middle" x="453" y="-45.5" font-family="Helvetica,sans-Serif" font-size="10.00" fill="#000000">xcsf_predict</text>
</a>
</g>
</g>
<!-- Node137&#45;&gt;Node140 -->
<g id="edge17" class="edge">
<title>Node137&#45;&gt;Node140</title>
<path fill="none" stroke="#191970" d="M354.064,-61.721C374.0542,-58.9487 398.385,-55.5743 417.9157,-52.8657"/>
<polygon fill="#191970" stroke="#191970" points="353.479,-58.2686 344.0546,-63.1092 354.4406,-65.2022 353.479,-58.2686"/>
</g>
<!-- Node142 -->
<g id="node17" class="node">
<title>Node142</title>
<g id="a_node17"><a xlink:href="xcsf_8h.html#a348b8cd321211c377fb1deedc62c7c67" target="_top" xlink:title="Calculates the XCSF error for the input data. ">
<polygon fill="none" stroke="#000000" points="420.5,-.5 420.5,-19.5 485.5,-19.5 485.5,-.5 420.5,-.5"/>
<text text-anchor="middle" x="453" y="-7.5" font-family="Helvetica,sans-Serif" font-size="10.00" fill="#000000">xcsf_score</text>
</a>
</g>
</g>
<!-- Node137&#45;&gt;Node142 -->
<g id="edge20" class="edge">
<title>Node137&#45;&gt;Node142</title>
<path fill="none" stroke="#191970" d="M345.9163,-53.0094C362.1046,-45.5955 382.5173,-36.4974 401,-29 409.016,-25.7484 417.8227,-22.4347 425.8735,-19.5046"/>
<polygon fill="#191970" stroke="#191970" points="344.0541,-50.0138 336.4377,-57.3787 346.9845,-56.3709 344.0541,-50.0138"/>
</g>
<!-- Node138&#45;&gt;Node131 -->
<g id="edge14" class="edge">
<title>Node138&#45;&gt;Node131</title>
<path fill="none" stroke="#191970" d="M486.1003,-99.4286C545.3724,-123.4749 667.8314,-173.1558 714.9488,-192.271"/>
<polygon fill="#191970" stroke="#191970" points="487.0568,-96.0396 476.4746,-95.5235 484.4253,-102.5262 487.0568,-96.0396"/>
</g>
<!-- Node139 -->
<g id="node14" class="node">
<title>Node139</title>
<g id="a_node14"><a xlink:href="classXCS.html#ac9a4a7cb0ec6238ef1d4d77996f8975b" target="_top" xlink:title="XCS::fit">
<polygon fill="none" stroke="#000000" points="569,-76.5 569,-95.5 621,-95.5 621,-76.5 569,-76.5"/>
<text text-anchor="middle" x="595" y="-83.5" font-family="Helvetica,sans-Serif" font-size="10.00" fill="#000000">XCS::fit</text>
</a>
</g>
</g>
<!-- Node138&#45;&gt;Node139 -->
<g id="edge15" class="edge">
<title>Node138&#45;&gt;Node139</title>
<path fill="none" stroke="#191970" d="M487.8735,-86C512.8145,-86 545.8634,-86 568.6237,-86"/>
<polygon fill="#191970" stroke="#191970" points="487.7345,-82.5001 477.7345,-86 487.7345,-89.5001 487.7345,-82.5001"/>
</g>
<!-- Node139&#45;&gt;Node134 -->
<g id="edge16" class="edge">
<title>Node139&#45;&gt;Node134</title>
<path fill="none" stroke="#191970" d="M631.3776,-81.0275C647.7306,-78.7922 667.2768,-76.1204 684.9021,-73.7112"/>
<polygon fill="#191970" stroke="#191970" points="630.5787,-77.6041 621.1448,-82.4262 631.5267,-84.5396 630.5787,-77.6041"/>
</g>
<!-- Node141 -->
<g id="node16" class="node">
<title>Node141</title>
<g id="a_node16"><a xlink:href="classXCS.html#a8e8db281054f9e5937610eed434cd4a5" target="_top" xlink:title="XCS::predict">
<polygon fill="none" stroke="#000000" points="558.5,-38.5 558.5,-57.5 631.5,-57.5 631.5,-38.5 558.5,-38.5"/>
<text text-anchor="middle" x="595" y="-45.5" font-family="Helvetica,sans-Serif" font-size="10.00" fill="#000000">XCS::predict</text>
</a>
</g>
</g>
<!-- Node140&#45;&gt;Node141 -->
<g id="edge18" class="edge">
<title>Node140&#45;&gt;Node141</title>
<path fill="none" stroke="#191970" d="M498.2292,-48C517.6223,-48 539.9834,-48 558.3219,-48"/>
<polygon fill="#191970" stroke="#191970" points="498.1012,-44.5001 488.1011,-48 498.1011,-51.5001 498.1012,-44.5001"/>
</g>
<!-- Node141&#45;&gt;Node134 -->
<g id="edge19" class="edge">
<title>Node141&#45;&gt;Node134</title>
<path fill="none" stroke="#191970" d="M641.8196,-54.3998C655.6882,-56.2955 670.9099,-58.3762 684.9174,-60.2909"/>
<polygon fill="#191970" stroke="#191970" points="641.9025,-50.8787 631.5206,-52.992 640.9544,-57.8142 641.9025,-50.8787"/>
</g>
<!-- Node143 -->
<g id="node18" class="node">
<title>Node143</title>
<g id="a_node18"><a xlink:href="classXCS.html#ad32ffc841106ec036029e4c90a33b761" target="_top" xlink:title="XCS::score">
<polygon fill="none" stroke="#000000" points="561,-.5 561,-19.5 629,-19.5 629,-.5 561,-.5"/>
<text text-anchor="middle" x="595" y="-7.5" font-family="Helvetica,sans-Serif" font-size="10.00" fill="#000000">XCS::score</text>
</a>
</g>
</g>
<!-- Node142&#45;&gt;Node143 -->
<g id="edge21" class="edge">
<title>Node142&#45;&gt;Node143</title>
<path fill="none" stroke="#191970" d="M495.7215,-10C516.4707,-10 541.0715,-10 560.5932,-10"/>
<polygon fill="#191970" stroke="#191970" points="495.5777,-6.5001 485.5777,-10 495.5776,-13.5001 495.5777,-6.5001"/>
</g>
<!-- Node143&#45;&gt;Node134 -->
<g id="edge22" class="edge">
<title>Node143&#45;&gt;Node134</title>
<path fill="none" stroke="#191970" d="M633.0214,-22.936C638.4118,-24.8981 643.8648,-26.9527 649,-29 671.5228,-37.9793 696.8341,-49.4822 713.9336,-57.4686"/>
<polygon fill="#191970" stroke="#191970" points="634.0633,-19.5916 623.4686,-19.5256 631.7097,-26.1841 634.0633,-19.5916"/>
</g>
</g>
</svg>
