<?xml version="1.0" encoding="UTF-8" standalone="no"?>
<!DOCTYPE svg PUBLIC "-//W3C//DTD SVG 1.1//EN"
 "http://www.w3.org/Graphics/SVG/1.1/DTD/svg11.dtd">
<!-- Generated by graphviz version 2.40.1 (20161225.0304)
 -->
<!-- Title: pred_neural_init Pages: 1 -->
<svg width="1194pt" height="180pt"
 viewBox="0.00 0.00 1194.00 180.00" xmlns="http://www.w3.org/2000/svg" xmlns:xlink="http://www.w3.org/1999/xlink">
<g id="graph0" class="graph" transform="scale(1 1) rotate(0) translate(4 176)">
<title>pred_neural_init</title>
<!-- Node45 -->
<g id="node1" class="node">
<title>Node45</title>
<polygon fill="#bfbfbf" stroke="#000000" points="0,-57.5 0,-76.5 85,-76.5 85,-57.5 0,-57.5"/>
<text text-anchor="middle" x="42.5" y="-64.5" font-family="Helvetica,sans-Serif" font-size="10.00" fill="#000000">pred_neural_init</text>
</g>
<!-- Node46 -->
<g id="node2" class="node">
<title>Node46</title>
<g id="a_node2"><a xlink:href="neural_8c.html#a89a8b1cf58b3c2abe700d9e602e13c8e" target="_top" xlink:title="Initialises an empty neural network. ">
<polygon fill="none" stroke="#000000" points="139.5,-114.5 139.5,-133.5 200.5,-133.5 200.5,-114.5 139.5,-114.5"/>
<text text-anchor="middle" x="170" y="-121.5" font-family="Helvetica,sans-Serif" font-size="10.00" fill="#000000">neural_init</text>
</a>
</g>
</g>
<!-- Node45&#45;&gt;Node46 -->
<g id="edge1" class="edge">
<title>Node45&#45;&gt;Node46</title>
<path fill="none" stroke="#191970" d="M63.8406,-76.5405C84.5264,-85.7883 116.1148,-99.9102 139.4599,-110.3468"/>
<polygon fill="#191970" stroke="#191970" points="138.032,-113.5422 148.5897,-114.4284 140.889,-107.1518 138.032,-113.5422"/>
</g>
<!-- Node56 -->
<g id="node12" class="node">
<title>Node56</title>
<g id="a_node12"><a xlink:href="neural__layer__connected_8c.html#adcf59226c12296224d675cfb28892039" target="_top" xlink:title="neural_layer_connected_init">
<polygon fill="none" stroke="#000000" points="499,-76.5 499,-95.5 636,-95.5 636,-76.5 499,-76.5"/>
<text text-anchor="middle" x="567.5" y="-83.5" font-family="Helvetica,sans-Serif" font-size="10.00" fill="#000000">neural_layer_connected_init</text>
</a>
</g>
</g>
<!-- Node45&#45;&gt;Node56 -->
<g id="edge12" class="edge">
<title>Node45&#45;&gt;Node56</title>
<path fill="none" stroke="#191970" d="M85.0182,-68.5388C172.9598,-71.7214 376.014,-79.07 488.6516,-83.1464"/>
<polygon fill="#191970" stroke="#191970" points="488.8101,-86.6544 498.9302,-83.5184 489.0633,-79.659 488.8101,-86.6544"/>
</g>
<!-- Node58 -->
<g id="node14" class="node">
<title>Node58</title>
<g id="a_node14"><a xlink:href="neural_8c.html#a6217c5bc4bdba93832cb4d8aa6c64d51" target="_top" xlink:title="Inserts a layer into a neural network. ">
<polygon fill="none" stroke="#000000" points="121,-38.5 121,-57.5 219,-57.5 219,-38.5 121,-38.5"/>
<text text-anchor="middle" x="170" y="-45.5" font-family="Helvetica,sans-Serif" font-size="10.00" fill="#000000">neural_layer_insert</text>
</a>
</g>
</g>
<!-- Node45&#45;&gt;Node58 -->
<g id="edge16" class="edge">
<title>Node45&#45;&gt;Node58</title>
<path fill="none" stroke="#191970" d="M85.3103,-60.6204C93.5259,-59.3961 102.2634,-58.0941 110.8871,-56.809"/>
<polygon fill="#191970" stroke="#191970" points="111.5454,-60.2496 120.9203,-55.3138 110.5136,-53.3261 111.5454,-60.2496"/>
</g>
<!-- Node59 -->
<g id="node15" class="node">
<title>Node59</title>
<g id="a_node15"><a xlink:href="pred__neural_8c.html#af4e5dbaabdf0e6103578db9fb2f3736a" target="_top" xlink:title="pred_neural_lopt">
<polygon fill="none" stroke="#000000" points="126,-.5 126,-19.5 214,-19.5 214,-.5 126,-.5"/>
<text text-anchor="middle" x="170" y="-7.5" font-family="Helvetica,sans-Serif" font-size="10.00" fill="#000000">pred_neural_lopt</text>
</a>
</g>
</g>
<!-- Node45&#45;&gt;Node59 -->
<g id="edge17" class="edge">
<title>Node45&#45;&gt;Node59</title>
<path fill="none" stroke="#191970" d="M61.3353,-57.3509C77.1139,-49.3967 100.3126,-38.0004 121,-29 125.4212,-27.0765 130.105,-25.1375 134.7546,-23.2714"/>
<polygon fill="#191970" stroke="#191970" points="136.132,-26.4907 144.1555,-19.5716 133.5684,-19.977 136.132,-26.4907"/>
</g>
<!-- Node47 -->
<g id="node3" class="node">
<title>Node47</title>
<g id="a_node3"><a xlink:href="sam_8c.html#a3164f33509a5dc751b57a544fe2153a7" target="_top" xlink:title="Initialises self&#45;adaptive mutation rates. ">
<polygon fill="none" stroke="#000000" points="255,-114.5 255,-133.5 308,-133.5 308,-114.5 255,-114.5"/>
<text text-anchor="middle" x="281.5" y="-121.5" font-family="Helvetica,sans-Serif" font-size="10.00" fill="#000000">sam_init</text>
</a>
</g>
</g>
<!-- Node46&#45;&gt;Node47 -->
<g id="edge2" class="edge">
<title>Node46&#45;&gt;Node47</title>
<path fill="none" stroke="#191970" d="M200.763,-124C214.221,-124 230.1283,-124 244.2496,-124"/>
<polygon fill="#191970" stroke="#191970" points="244.63,-127.5001 254.63,-124 244.63,-120.5001 244.63,-127.5001"/>
</g>
<!-- Node48 -->
<g id="node4" class="node">
<title>Node48</title>
<g id="a_node4"><a xlink:href="sam_8c.html#a3376574f2624a397ac253242b1958491" target="_top" xlink:title="Initialises log normal self&#45;adaptive mutation rates. ">
<polygon fill="none" stroke="#000000" points="350.5,-152.5 350.5,-171.5 456.5,-171.5 456.5,-152.5 350.5,-152.5"/>
<text text-anchor="middle" x="403.5" y="-159.5" font-family="Helvetica,sans-Serif" font-size="10.00" fill="#000000">sam_log_normal_init</text>
</a>
</g>
</g>
<!-- Node47&#45;&gt;Node48 -->
<g id="edge3" class="edge">
<title>Node47&#45;&gt;Node48</title>
<path fill="none" stroke="#191970" d="M308.2734,-132.3393C324.371,-137.3533 345.1704,-143.8318 363.2221,-149.4544"/>
<polygon fill="#191970" stroke="#191970" points="362.3324,-152.8431 372.9209,-152.4754 364.4142,-146.1598 362.3324,-152.8431"/>
</g>
<!-- Node54 -->
<g id="node10" class="node">
<title>Node54</title>
<g id="a_node10"><a xlink:href="sam_8c.html#a5c510f09cd5f6069b67e1b9a59df7acc" target="_top" xlink:title="Initialises rate selection self&#45;adaptive mutation. ">
<polygon fill="none" stroke="#000000" points="344,-114.5 344,-133.5 463,-133.5 463,-114.5 344,-114.5"/>
<text text-anchor="middle" x="403.5" y="-121.5" font-family="Helvetica,sans-Serif" font-size="10.00" fill="#000000">sam_rate_selection_init</text>
</a>
</g>
</g>
<!-- Node47&#45;&gt;Node54 -->
<g id="edge9" class="edge">
<title>Node47&#45;&gt;Node54</title>
<path fill="none" stroke="#191970" d="M308.2734,-124C315.9178,-124 324.6225,-124 333.5897,-124"/>
<polygon fill="#191970" stroke="#191970" points="333.783,-127.5001 343.783,-124 333.783,-120.5001 333.783,-127.5001"/>
</g>
<!-- Node49 -->
<g id="node5" class="node">
<title>Node49</title>
<g id="a_node5"><a xlink:href="utils_8c.html#ae42a9e1d467853befaa7922cfafed3bb" target="_top" xlink:title="Returns a uniform random float [min,max]. ">
<polygon fill="none" stroke="#000000" points="672,-114.5 672,-133.5 745,-133.5 745,-114.5 672,-114.5"/>
<text text-anchor="middle" x="708.5" y="-121.5" font-family="Helvetica,sans-Serif" font-size="10.00" fill="#000000">rand_uniform</text>
</a>
</g>
</g>
<!-- Node48&#45;&gt;Node49 -->
<g id="edge4" class="edge">
<title>Node48&#45;&gt;Node49</title>
<path fill="none" stroke="#191970" d="M456.9265,-160.2859C504.2656,-158.1382 575.1179,-153.3833 636,-143 646.1972,-141.2609 657.0528,-138.7696 667.1745,-136.161"/>
<polygon fill="#191970" stroke="#191970" points="668.2418,-139.4987 677,-133.5368 666.4355,-132.7357 668.2418,-139.4987"/>
</g>
<!-- Node50 -->
<g id="node6" class="node">
<title>Node50</title>
<g id="a_node6"><a xlink:href="utils_8c.html#a101d27cdda714b7f17a06224c65cac56" target="_top" xlink:title="Returns a uniform random float [0,1]. ">
<polygon fill="none" stroke="#000000" points="781,-95.5 781,-114.5 822,-114.5 822,-95.5 781,-95.5"/>
<text text-anchor="middle" x="801.5" y="-102.5" font-family="Helvetica,sans-Serif" font-size="10.00" fill="#000000">drand</text>
</a>
</g>
</g>
<!-- Node49&#45;&gt;Node50 -->
<g id="edge5" class="edge">
<title>Node49&#45;&gt;Node50</title>
<path fill="none" stroke="#191970" d="M745.2561,-116.4907C753.7524,-114.7549 762.7031,-112.9262 770.9036,-111.2509"/>
<polygon fill="#191970" stroke="#191970" points="771.7019,-114.6602 780.7989,-109.2293 770.3007,-107.8018 771.7019,-114.6602"/>
</g>
<!-- Node51 -->
<g id="node7" class="node">
<title>Node51</title>
<g id="a_node7"><a xlink:href="mt19937-64_8c.html#aa0b74daf51eca91df224d00f1730084a" target="_top" xlink:title="genrand64_real1">
<polygon fill="none" stroke="#000000" points="858,-95.5 858,-114.5 946,-114.5 946,-95.5 858,-95.5"/>
<text text-anchor="middle" x="902" y="-102.5" font-family="Helvetica,sans-Serif" font-size="10.00" fill="#000000">genrand64_real1</text>
</a>
</g>
</g>
<!-- Node50&#45;&gt;Node51 -->
<g id="edge6" class="edge">
<title>Node50&#45;&gt;Node51</title>
<path fill="none" stroke="#191970" d="M822.3237,-105C829.8428,-105 838.7193,-105 847.769,-105"/>
<polygon fill="#191970" stroke="#191970" points="847.9969,-108.5001 857.9969,-105 847.9969,-101.5001 847.9969,-108.5001"/>
</g>
<!-- Node52 -->
<g id="node8" class="node">
<title>Node52</title>
<g id="a_node8"><a xlink:href="mt19937-64_8c.html#a265bf48d20d6e0347371fcf4fe340e6d" target="_top" xlink:title="genrand64_int64">
<polygon fill="none" stroke="#000000" points="982,-95.5 982,-114.5 1070,-114.5 1070,-95.5 982,-95.5"/>
<text text-anchor="middle" x="1026" y="-102.5" font-family="Helvetica,sans-Serif" font-size="10.00" fill="#000000">genrand64_int64</text>
</a>
</g>
</g>
<!-- Node51&#45;&gt;Node52 -->
<g id="edge7" class="edge">
<title>Node51&#45;&gt;Node52</title>
<path fill="none" stroke="#191970" d="M946.0669,-105C954.2822,-105 962.957,-105 971.4432,-105"/>
<polygon fill="#191970" stroke="#191970" points="971.6572,-108.5001 981.6572,-105 971.6572,-101.5001 971.6572,-108.5001"/>
</g>
<!-- Node53 -->
<g id="node9" class="node">
<title>Node53</title>
<g id="a_node9"><a xlink:href="mt19937-64_8c.html#adf4127d44c2dc34fcb318d406131ef7c" target="_top" xlink:title="init_genrand64">
<polygon fill="none" stroke="#000000" points="1106,-95.5 1106,-114.5 1186,-114.5 1186,-95.5 1106,-95.5"/>
<text text-anchor="middle" x="1146" y="-102.5" font-family="Helvetica,sans-Serif" font-size="10.00" fill="#000000">init_genrand64</text>
</a>
</g>
</g>
<!-- Node52&#45;&gt;Node53 -->
<g id="edge8" class="edge">
<title>Node52&#45;&gt;Node53</title>
<path fill="none" stroke="#191970" d="M1070.0022,-105C1078.3719,-105 1087.1896,-105 1095.7365,-105"/>
<polygon fill="#191970" stroke="#191970" points="1095.9792,-108.5001 1105.9792,-105 1095.9792,-101.5001 1095.9792,-108.5001"/>
</g>
<!-- Node55 -->
<g id="node11" class="node">
<title>Node55</title>
<g id="a_node11"><a xlink:href="utils_8c.html#a32648ab076544a9ac1c086d0f07b599f" target="_top" xlink:title="Returns a uniform random integer [min,max] not inclusive of max. ">
<polygon fill="none" stroke="#000000" points="530,-114.5 530,-133.5 605,-133.5 605,-114.5 530,-114.5"/>
<text text-anchor="middle" x="567.5" y="-121.5" font-family="Helvetica,sans-Serif" font-size="10.00" fill="#000000">irand_uniform</text>
</a>
</g>
</g>
<!-- Node54&#45;&gt;Node55 -->
<g id="edge10" class="edge">
<title>Node54&#45;&gt;Node55</title>
<path fill="none" stroke="#191970" d="M463.1717,-124C481.6991,-124 501.8727,-124 519.4993,-124"/>
<polygon fill="#191970" stroke="#191970" points="519.5516,-127.5001 529.5516,-124 519.5515,-120.5001 519.5516,-127.5001"/>
</g>
<!-- Node55&#45;&gt;Node49 -->
<g id="edge11" class="edge">
<title>Node55&#45;&gt;Node49</title>
<path fill="none" stroke="#191970" d="M605.2854,-124C622.5498,-124 643.1773,-124 661.4377,-124"/>
<polygon fill="#191970" stroke="#191970" points="661.5863,-127.5001 671.5863,-124 661.5863,-120.5001 661.5863,-127.5001"/>
</g>
<!-- Node56&#45;&gt;Node49 -->
<g id="edge15" class="edge">
<title>Node56&#45;&gt;Node49</title>
<path fill="none" stroke="#191970" d="M603.0803,-95.589C621.282,-100.4944 643.6384,-106.5196 663.0723,-111.7571"/>
<polygon fill="#191970" stroke="#191970" points="662.3648,-115.1912 672.9311,-114.4141 664.1864,-108.4324 662.3648,-115.1912"/>
</g>
<!-- Node57 -->
<g id="node13" class="node">
<title>Node57</title>
<g id="a_node13"><a xlink:href="utils_8c.html#aa57fc0f69e730ce0a348c25ee498643d" target="_top" xlink:title="Returns a normal random float with specified mean and standard deviation. ">
<polygon fill="none" stroke="#000000" points="673.5,-76.5 673.5,-95.5 743.5,-95.5 743.5,-76.5 673.5,-76.5"/>
<text text-anchor="middle" x="708.5" y="-83.5" font-family="Helvetica,sans-Serif" font-size="10.00" fill="#000000">rand_normal</text>
</a>
</g>
</g>
<!-- Node56&#45;&gt;Node57 -->
<g id="edge13" class="edge">
<title>Node56&#45;&gt;Node57</title>
<path fill="none" stroke="#191970" d="M636.3478,-86C645.4924,-86 654.6741,-86 663.277,-86"/>
<polygon fill="#191970" stroke="#191970" points="663.4423,-89.5001 673.4422,-86 663.4422,-82.5001 663.4423,-89.5001"/>
</g>
<!-- Node57&#45;&gt;Node50 -->
<g id="edge14" class="edge">
<title>Node57&#45;&gt;Node50</title>
<path fill="none" stroke="#191970" d="M743.6593,-93.1831C752.5821,-95.006 762.0982,-96.9502 770.7814,-98.7241"/>
<polygon fill="#191970" stroke="#191970" points="770.3657,-102.2114 780.8639,-100.784 771.7669,-95.3531 770.3657,-102.2114"/>
</g>
</g>
</svg>
