<?xml version="1.0" encoding="UTF-8" standalone="no"?>
<!DOCTYPE svg PUBLIC "-//W3C//DTD SVG 1.1//EN"
 "http://www.w3.org/Graphics/SVG/1.1/DTD/svg11.dtd">
<!-- Generated by graphviz version 2.40.1 (20161225.0304)
 -->
<!-- Title: pred_rls_update Pages: 1 -->
<svg width="245pt" height="66pt"
 viewBox="0.00 0.00 245.00 66.00" xmlns="http://www.w3.org/2000/svg" xmlns:xlink="http://www.w3.org/1999/xlink">
<g id="graph0" class="graph" transform="scale(1 1) rotate(0) translate(4 62)">
<title>pred_rls_update</title>
<!-- Node38 -->
<g id="node1" class="node">
<title>Node38</title>
<polygon fill="#bfbfbf" stroke="#000000" points="0,-19.5 0,-38.5 86,-38.5 86,-19.5 0,-19.5"/>
<text text-anchor="middle" x="43" y="-26.5" font-family="Helvetica,sans-Serif" font-size="10.00" fill="#000000">pred_rls_update</text>
</g>
<!-- Node39 -->
<g id="node2" class="node">
<title>Node39</title>
<g id="a_node2"><a xlink:href="$pred__rls_8c.html#a0495599b5e0677cd077212eaa9f3fd31" xlink:title="matrix_matrix_multiply">
<polygon fill="none" stroke="#000000" points="122,-38.5 122,-57.5 237,-57.5 237,-38.5 122,-38.5"/>
<text text-anchor="middle" x="179.5" y="-45.5" font-family="Helvetica,sans-Serif" font-size="10.00" fill="#000000">matrix_matrix_multiply</text>
</a>
</g>
</g>
<!-- Node38&#45;&gt;Node39 -->
<g id="edge1" class="edge">
<title>Node38&#45;&gt;Node39</title>
<path fill="none" stroke="#191970" d="M86.1895,-35.0117C94.2734,-36.137 102.9021,-37.338 111.5249,-38.5383"/>
<polygon fill="#191970" stroke="#191970" points="111.2246,-42.0301 121.6117,-39.9423 112.1898,-35.097 111.2246,-42.0301"/>
</g>
<!-- Node40 -->
<g id="node3" class="node">
<title>Node40</title>
<g id="a_node3"><a xlink:href="$pred__rls_8c.html#abf68900ca12cb5ad1ab6b884c31285d2" xlink:title="matrix_vector_multiply">
<polygon fill="none" stroke="#000000" points="122,-.5 122,-19.5 237,-19.5 237,-.5 122,-.5"/>
<text text-anchor="middle" x="179.5" y="-7.5" font-family="Helvetica,sans-Serif" font-size="10.00" fill="#000000">matrix_vector_multiply</text>
</a>
</g>
</g>
<!-- Node38&#45;&gt;Node40 -->
<g id="edge2" class="edge">
<title>Node38&#45;&gt;Node40</title>
<path fill="none" stroke="#191970" d="M86.1895,-22.9883C94.2734,-21.863 102.9021,-20.662 111.5249,-19.4617"/>
<polygon fill="#191970" stroke="#191970" points="112.1898,-22.903 121.6117,-18.0577 111.2246,-15.9699 112.1898,-22.903"/>
</g>
</g>
</svg>
