<?xml version="1.0" encoding="UTF-8" standalone="no"?>
<!DOCTYPE svg PUBLIC "-//W3C//DTD SVG 1.1//EN"
 "http://www.w3.org/Graphics/SVG/1.1/DTD/svg11.dtd">
<!-- Generated by graphviz version 2.40.1 (20161225.0304)
 -->
<!-- Title: pred_compute Pages: 1 -->
<svg width="933pt" height="294pt"
 viewBox="0.00 0.00 933.00 294.00" xmlns="http://www.w3.org/2000/svg" xmlns:xlink="http://www.w3.org/1999/xlink">
<g id="graph0" class="graph" transform="scale(1 1) rotate(0) translate(4 290)">
<title>pred_compute</title>
<!-- Node1 -->
<g id="node1" class="node">
<title>Node1</title>
<polygon fill="#bfbfbf" stroke="#000000" points="0,-161.5 0,-180.5 78,-180.5 78,-161.5 0,-161.5"/>
<text text-anchor="middle" x="39" y="-168.5" font-family="Helvetica,sans-Serif" font-size="10.00" fill="#000000">pred_compute</text>
</g>
<!-- Node2 -->
<g id="node2" class="node">
<title>Node2</title>
<g id="a_node2"><a xlink:href="cl_8h.html#a3ae6b6421d2dc7d021d0b78bf0569c7c" target="_top" xlink:title="Computes the current classifier payoff prediction using the input. ">
<polygon fill="none" stroke="#000000" points="114,-161.5 114,-180.5 173,-180.5 173,-161.5 114,-161.5"/>
<text text-anchor="middle" x="143.5" y="-168.5" font-family="Helvetica,sans-Serif" font-size="10.00" fill="#000000">cl_predict</text>
</a>
</g>
</g>
<!-- Node1&#45;&gt;Node2 -->
<g id="edge1" class="edge">
<title>Node1&#45;&gt;Node2</title>
<path fill="none" stroke="#191970" d="M88.3448,-171C97.071,-171 105.9057,-171 113.8711,-171"/>
<polygon fill="#191970" stroke="#191970" points="88.2093,-167.5001 78.2093,-171 88.2092,-174.5001 88.2093,-167.5001"/>
</g>
<!-- Node3 -->
<g id="node3" class="node">
<title>Node3</title>
<g id="a_node3"><a xlink:href="pa_8h.html#aa3098dbad2e3e1e113b0176ebd76ae65" target="_top" xlink:title="Builds the prediction array for the specified input. ">
<polygon fill="none" stroke="#000000" points="209.5,-199.5 209.5,-218.5 262.5,-218.5 262.5,-199.5 209.5,-199.5"/>
<text text-anchor="middle" x="236" y="-206.5" font-family="Helvetica,sans-Serif" font-size="10.00" fill="#000000">pa_build</text>
</a>
</g>
</g>
<!-- Node2&#45;&gt;Node3 -->
<g id="edge2" class="edge">
<title>Node2&#45;&gt;Node3</title>
<path fill="none" stroke="#191970" d="M176.1463,-184.4114C188.198,-189.3624 201.6024,-194.8691 212.6658,-199.4141"/>
<polygon fill="#191970" stroke="#191970" points="177.4216,-181.1516 166.8417,-180.589 174.7615,-187.6265 177.4216,-181.1516"/>
</g>
<!-- Node13 -->
<g id="node13" class="node">
<title>Node13</title>
<g id="a_node13"><a xlink:href="cl__set_8h.html#a67f86a207056d80953cf3d491327f02a" target="_top" xlink:title="Calculates the set mean fitness weighted prediction. ">
<polygon fill="none" stroke="#000000" points="209,-142.5 209,-161.5 263,-161.5 263,-142.5 209,-142.5"/>
<text text-anchor="middle" x="236" y="-149.5" font-family="Helvetica,sans-Serif" font-size="10.00" fill="#000000">set_pred</text>
</a>
</g>
</g>
<!-- Node2&#45;&gt;Node13 -->
<g id="edge13" class="edge">
<title>Node2&#45;&gt;Node13</title>
<path fill="none" stroke="#191970" d="M183.0505,-162.8761C191.7863,-161.0817 200.8478,-159.2204 208.9527,-157.5557"/>
<polygon fill="#191970" stroke="#191970" points="182.1132,-159.4955 173.0219,-164.936 183.5216,-166.3523 182.1132,-159.4955"/>
</g>
<!-- Node4 -->
<g id="node4" class="node">
<title>Node4</title>
<g id="a_node4"><a xlink:href="xcs__multi__step_8c.html#a1e1c2a3094be715b468dda79cd59ebf3" target="_top" xlink:title="Executes a multi&#45;step trial using a built&#45;in environment. ">
<polygon fill="none" stroke="#000000" points="311,-251.5 311,-270.5 391,-270.5 391,-251.5 311,-251.5"/>
<text text-anchor="middle" x="351" y="-258.5" font-family="Helvetica,sans-Serif" font-size="10.00" fill="#000000">xcs_multi_trial</text>
</a>
</g>
</g>
<!-- Node3&#45;&gt;Node4 -->
<g id="edge3" class="edge">
<title>Node3&#45;&gt;Node4</title>
<path fill="none" stroke="#191970" d="M266.3626,-222.7292C286.2885,-231.7392 311.8562,-243.3002 329.6515,-251.3468"/>
<polygon fill="#191970" stroke="#191970" points="267.6466,-219.4686 257.0928,-218.5376 264.7625,-225.8469 267.6466,-219.4686"/>
</g>
<!-- Node8 -->
<g id="node8" class="node">
<title>Node8</title>
<g id="a_node8"><a xlink:href="xcs__single__step_8h.html#a6cd0f3c0c1c71e13dba1ce493ef873a5" target="_top" xlink:title="Constructs the match set and selects an action to perform. ">
<polygon fill="none" stroke="#000000" points="299,-199.5 299,-218.5 403,-218.5 403,-199.5 299,-199.5"/>
<text text-anchor="middle" x="351" y="-206.5" font-family="Helvetica,sans-Serif" font-size="10.00" fill="#000000">xcs_single_decision</text>
</a>
</g>
</g>
<!-- Node3&#45;&gt;Node8 -->
<g id="edge7" class="edge">
<title>Node3&#45;&gt;Node8</title>
<path fill="none" stroke="#191970" d="M272.7233,-209C280.9864,-209 289.9109,-209 298.6738,-209"/>
<polygon fill="#191970" stroke="#191970" points="272.6724,-205.5001 262.6724,-209 272.6723,-212.5001 272.6724,-205.5001"/>
</g>
<!-- Node5 -->
<g id="node5" class="node">
<title>Node5</title>
<g id="a_node5"><a xlink:href="xcs__multi__step_8h.html#acc29d4a55dbd56c16ea5f19f15a7c677" target="_top" xlink:title="Executes a multi&#45;step reinforcement learning experiment. ">
<polygon fill="none" stroke="#000000" points="562,-266.5 562,-285.5 666,-285.5 666,-266.5 562,-266.5"/>
<text text-anchor="middle" x="614" y="-273.5" font-family="Helvetica,sans-Serif" font-size="10.00" fill="#000000">xcs_multi_step_exp</text>
</a>
</g>
</g>
<!-- Node4&#45;&gt;Node5 -->
<g id="edge4" class="edge">
<title>Node4&#45;&gt;Node5</title>
<path fill="none" stroke="#191970" d="M401.2953,-263.8686C447.393,-266.4977 515.3683,-270.3746 561.9967,-273.034"/>
<polygon fill="#191970" stroke="#191970" points="401.4134,-260.3697 391.2303,-263.2945 401.0148,-267.3583 401.4134,-260.3697"/>
</g>
<!-- Node6 -->
<g id="node6" class="node">
<title>Node6</title>
<g id="a_node6"><a xlink:href="main_8c.html#ab572a67aa431827116ebd6931d667d21" target="_top" xlink:title="classification">
<polygon fill="none" stroke="#000000" points="741,-228.5 741,-247.5 815,-247.5 815,-228.5 741,-228.5"/>
<text text-anchor="middle" x="778" y="-235.5" font-family="Helvetica,sans-Serif" font-size="10.00" fill="#000000">classification</text>
</a>
</g>
</g>
<!-- Node5&#45;&gt;Node6 -->
<g id="edge5" class="edge">
<title>Node5&#45;&gt;Node6</title>
<path fill="none" stroke="#191970" d="M665.2325,-264.1291C689.7166,-258.4559 718.4812,-251.7909 740.8307,-246.6124"/>
<polygon fill="#191970" stroke="#191970" points="664.336,-260.744 655.3841,-266.411 665.9161,-267.5633 664.336,-260.744"/>
</g>
<!-- Node7 -->
<g id="node7" class="node">
<title>Node7</title>
<g id="a_node7"><a xlink:href="main_8c.html#a3c04138a5bfe5d72780bb7e82a18e627" target="_top" xlink:title="main">
<polygon fill="none" stroke="#000000" points="887,-161.5 887,-180.5 925,-180.5 925,-161.5 887,-161.5"/>
<text text-anchor="middle" x="906" y="-168.5" font-family="Helvetica,sans-Serif" font-size="10.00" fill="#000000">main</text>
</a>
</g>
</g>
<!-- Node6&#45;&gt;Node7 -->
<g id="edge6" class="edge">
<title>Node6&#45;&gt;Node7</title>
<path fill="none" stroke="#191970" d="M805.2625,-223.7298C830.1119,-210.7227 866.1336,-191.8676 887.6947,-180.5817"/>
<polygon fill="#191970" stroke="#191970" points="803.5758,-220.6621 796.3393,-228.4005 806.8221,-226.8639 803.5758,-220.6621"/>
</g>
<!-- Node9 -->
<g id="node9" class="node">
<title>Node9</title>
<g id="a_node9"><a xlink:href="structXCS.html#a94d556a5e545ec415d7165d5e91b21d4" target="_top" xlink:title="XCS::single_decision">
<polygon fill="none" stroke="#000000" points="559,-190.5 559,-209.5 669,-209.5 669,-190.5 559,-190.5"/>
<text text-anchor="middle" x="614" y="-197.5" font-family="Helvetica,sans-Serif" font-size="10.00" fill="#000000">XCS::single_decision</text>
</a>
</g>
</g>
<!-- Node8&#45;&gt;Node9 -->
<g id="edge8" class="edge">
<title>Node8&#45;&gt;Node9</title>
<path fill="none" stroke="#191970" d="M413.3116,-206.8677C457.4572,-205.357 516.1486,-203.3485 558.6486,-201.8942"/>
<polygon fill="#191970" stroke="#191970" points="413.1492,-203.3711 403.2748,-207.2111 413.3887,-210.367 413.1492,-203.3711"/>
</g>
<!-- Node11 -->
<g id="node11" class="node">
<title>Node11</title>
<g id="a_node11"><a xlink:href="xcs__single__step_8c.html#a3d1fd2472d35310800aed897219a65af" target="_top" xlink:title="Executes a single&#45;step trial using a built&#45;in environment. ">
<polygon fill="none" stroke="#000000" points="439,-228.5 439,-247.5 523,-247.5 523,-228.5 439,-228.5"/>
<text text-anchor="middle" x="481" y="-235.5" font-family="Helvetica,sans-Serif" font-size="10.00" fill="#000000">xcs_single_trial</text>
</a>
</g>
</g>
<!-- Node8&#45;&gt;Node11 -->
<g id="edge10" class="edge">
<title>Node8&#45;&gt;Node11</title>
<path fill="none" stroke="#191970" d="M403.8915,-220.7989C415.4284,-223.3725 427.4929,-226.0638 438.561,-228.5328"/>
<polygon fill="#191970" stroke="#191970" points="404.4493,-217.3373 393.9271,-218.5761 402.9252,-224.1694 404.4493,-217.3373"/>
</g>
<!-- Node10 -->
<g id="node10" class="node">
<title>Node10</title>
<g id="a_node10"><a xlink:href="python__wrapper_8cpp.html#afbdcc1358036a0b83a6b239da2b098a2" target="_top" xlink:title="BOOST_PYTHON_MODULE">
<polygon fill="none" stroke="#000000" points="705,-133.5 705,-152.5 851,-152.5 851,-133.5 705,-133.5"/>
<text text-anchor="middle" x="778" y="-140.5" font-family="Helvetica,sans-Serif" font-size="10.00" fill="#000000">BOOST_PYTHON_MODULE</text>
</a>
</g>
</g>
<!-- Node9&#45;&gt;Node10 -->
<g id="edge9" class="edge">
<title>Node9&#45;&gt;Node10</title>
<path fill="none" stroke="#191970" d="M651.1976,-187.0715C681.3734,-176.5836 723.2296,-162.0361 750.4605,-152.5716"/>
<polygon fill="#191970" stroke="#191970" points="649.7466,-183.8704 641.4499,-190.4595 652.0447,-190.4825 649.7466,-183.8704"/>
</g>
<!-- Node12 -->
<g id="node12" class="node">
<title>Node12</title>
<g id="a_node12"><a xlink:href="xcs__single__step_8h.html#a39a031bf59eaa9b33e30e614610dcda8" target="_top" xlink:title="Executes a single&#45;step experiment. ">
<polygon fill="none" stroke="#000000" points="560,-228.5 560,-247.5 668,-247.5 668,-228.5 560,-228.5"/>
<text text-anchor="middle" x="614" y="-235.5" font-family="Helvetica,sans-Serif" font-size="10.00" fill="#000000">xcs_single_step_exp</text>
</a>
</g>
</g>
<!-- Node11&#45;&gt;Node12 -->
<g id="edge11" class="edge">
<title>Node11&#45;&gt;Node12</title>
<path fill="none" stroke="#191970" d="M533.2102,-238C542.0085,-238 551.157,-238 559.9997,-238"/>
<polygon fill="#191970" stroke="#191970" points="533.0821,-234.5001 523.082,-238 533.082,-241.5001 533.0821,-234.5001"/>
</g>
<!-- Node12&#45;&gt;Node6 -->
<g id="edge12" class="edge">
<title>Node12&#45;&gt;Node6</title>
<path fill="none" stroke="#191970" d="M678.4163,-238C699.6445,-238 722.5225,-238 740.9907,-238"/>
<polygon fill="#191970" stroke="#191970" points="678.1543,-234.5001 668.1542,-238 678.1542,-241.5001 678.1543,-234.5001"/>
</g>
<!-- Node14 -->
<g id="node14" class="node">
<title>Node14</title>
<g id="a_node14"><a xlink:href="xcsf_8c.html#a474f4e13cfc5f00958c689cd8c81135a" target="_top" xlink:title="Executes a single XCSF learning trial. ">
<polygon fill="none" stroke="#000000" points="309.5,-76.5 309.5,-95.5 392.5,-95.5 392.5,-76.5 309.5,-76.5"/>
<text text-anchor="middle" x="351" y="-83.5" font-family="Helvetica,sans-Serif" font-size="10.00" fill="#000000">xcsf_learn_trial</text>
</a>
</g>
</g>
<!-- Node13&#45;&gt;Node14 -->
<g id="edge14" class="edge">
<title>Node13&#45;&gt;Node14</title>
<path fill="none" stroke="#191970" d="M254.8798,-135.6239C266.9081,-125.789 283.1587,-113.5646 299,-105 305.6794,-101.3888 313.1883,-98.197 320.3787,-95.5097"/>
<polygon fill="#191970" stroke="#191970" points="252.3546,-133.1733 246.9339,-142.2764 256.8482,-138.5406 252.3546,-133.1733"/>
</g>
<!-- Node20 -->
<g id="node20" class="node">
<title>Node20</title>
<g id="a_node20"><a xlink:href="xcsf_8h.html#af0b9db7273578fdff649d46823cd9790" target="_top" xlink:title="Calculates the XCSF predictions for the provided input. ">
<polygon fill="none" stroke="#000000" points="316,-152.5 316,-171.5 386,-171.5 386,-152.5 316,-152.5"/>
<text text-anchor="middle" x="351" y="-159.5" font-family="Helvetica,sans-Serif" font-size="10.00" fill="#000000">xcsf_predict</text>
</a>
</g>
</g>
<!-- Node13&#45;&gt;Node20 -->
<g id="edge22" class="edge">
<title>Node13&#45;&gt;Node20</title>
<path fill="none" stroke="#191970" d="M273.2641,-155.2404C286.8758,-156.424 302.2217,-157.7584 315.6608,-158.927"/>
<polygon fill="#191970" stroke="#191970" points="273.519,-151.7494 263.2534,-154.3699 272.9126,-158.7231 273.519,-151.7494"/>
</g>
<!-- Node22 -->
<g id="node22" class="node">
<title>Node22</title>
<g id="a_node22"><a xlink:href="xcsf_8c.html#aa6edd3962ddd04940e2c78a4f99de7cd" target="_top" xlink:title="Executes a single XCSF testing trial. ">
<polygon fill="none" stroke="#000000" points="312,-114.5 312,-133.5 390,-133.5 390,-114.5 312,-114.5"/>
<text text-anchor="middle" x="351" y="-121.5" font-family="Helvetica,sans-Serif" font-size="10.00" fill="#000000">xcsf_test_trial</text>
</a>
</g>
</g>
<!-- Node13&#45;&gt;Node22 -->
<g id="edge25" class="edge">
<title>Node13&#45;&gt;Node22</title>
<path fill="none" stroke="#191970" d="M273.2098,-142.9402C285.5326,-139.9399 299.2817,-136.5923 311.7527,-133.5559"/>
<polygon fill="#191970" stroke="#191970" points="272.1415,-139.598 263.2534,-145.3644 273.7976,-146.3993 272.1415,-139.598"/>
</g>
<!-- Node15 -->
<g id="node15" class="node">
<title>Node15</title>
<g id="a_node15"><a xlink:href="xcsf_8h.html#a874829f28fee20f9ad15b540f4b4d6ff" target="_top" xlink:title="Executes MAX_TRIALS number of XCSF learning iterations using the training data. ">
<polygon fill="none" stroke="#000000" points="454,-19.5 454,-38.5 508,-38.5 508,-19.5 454,-19.5"/>
<text text-anchor="middle" x="481" y="-26.5" font-family="Helvetica,sans-Serif" font-size="10.00" fill="#000000">xcsf_fit1</text>
</a>
</g>
</g>
<!-- Node14&#45;&gt;Node15 -->
<g id="edge15" class="edge">
<title>Node14&#45;&gt;Node15</title>
<path fill="none" stroke="#191970" d="M382.0588,-72.3819C405.8428,-61.9535 438.0537,-47.8303 459.1699,-38.5716"/>
<polygon fill="#191970" stroke="#191970" points="380.5119,-69.2384 372.7591,-76.4595 383.3229,-75.6493 380.5119,-69.2384"/>
</g>
<!-- Node17 -->
<g id="node17" class="node">
<title>Node17</title>
<g id="a_node17"><a xlink:href="xcsf_8h.html#a0b4de57cb9dadc9deca7901aa36e5025" target="_top" xlink:title="Executes MAX_TRIALS number of XCSF learning iterations using the training. data and test iterations u...">
<polygon fill="none" stroke="#000000" points="454,-76.5 454,-95.5 508,-95.5 508,-76.5 454,-76.5"/>
<text text-anchor="middle" x="481" y="-83.5" font-family="Helvetica,sans-Serif" font-size="10.00" fill="#000000">xcsf_fit2</text>
</a>
</g>
</g>
<!-- Node14&#45;&gt;Node17 -->
<g id="edge18" class="edge">
<title>Node14&#45;&gt;Node17</title>
<path fill="none" stroke="#191970" d="M402.9446,-86C420.4182,-86 439.2047,-86 453.9677,-86"/>
<polygon fill="#191970" stroke="#191970" points="402.8484,-82.5001 392.8484,-86 402.8484,-89.5001 402.8484,-82.5001"/>
</g>
<!-- Node16 -->
<g id="node16" class="node">
<title>Node16</title>
<g id="a_node16"><a xlink:href="structXCS.html#ad2ccafe59d2b4ae6d0e1cbc15edee53c" target="_top" xlink:title="XCS::fit">
<polygon fill="none" stroke="#000000" points="588,-.5 588,-19.5 640,-19.5 640,-.5 588,-.5"/>
<text text-anchor="middle" x="614" y="-7.5" font-family="Helvetica,sans-Serif" font-size="10.00" fill="#000000">XCS::fit</text>
</a>
</g>
</g>
<!-- Node15&#45;&gt;Node16 -->
<g id="edge16" class="edge">
<title>Node15&#45;&gt;Node16</title>
<path fill="none" stroke="#191970" d="M518.2818,-23.674C540.3872,-20.5161 567.8689,-16.5902 587.7073,-13.7561"/>
<polygon fill="#191970" stroke="#191970" points="517.64,-20.2301 508.2355,-25.1092 518.63,-27.1597 517.64,-20.2301"/>
</g>
<!-- Node16&#45;&gt;Node10 -->
<g id="edge17" class="edge">
<title>Node16&#45;&gt;Node10</title>
<path fill="none" stroke="#191970" d="M630.6095,-27.1528C648.2845,-45.0039 677.4448,-73.3264 705,-95 723.5982,-109.6285 746.6375,-124.2527 761.7991,-133.4458"/>
<polygon fill="#191970" stroke="#191970" points="632.8462,-24.435 623.3438,-19.7493 627.8502,-29.338 632.8462,-24.435"/>
</g>
<!-- Node18 -->
<g id="node18" class="node">
<title>Node18</title>
<g id="a_node18"><a xlink:href="main_8c.html#a968c78da8ed8ad08662a86280deec99a" target="_top" xlink:title="regression">
<polygon fill="none" stroke="#000000" points="747,-66.5 747,-85.5 809,-85.5 809,-66.5 747,-66.5"/>
<text text-anchor="middle" x="778" y="-73.5" font-family="Helvetica,sans-Serif" font-size="10.00" fill="#000000">regression</text>
</a>
</g>
</g>
<!-- Node17&#45;&gt;Node18 -->
<g id="edge19" class="edge">
<title>Node17&#45;&gt;Node18</title>
<path fill="none" stroke="#191970" d="M518.0239,-75.0659C530.876,-71.7837 545.4601,-68.6253 559,-67 625.4958,-59.0179 704.0716,-66.2651 746.6877,-71.5741"/>
<polygon fill="#191970" stroke="#191970" points="516.9035,-71.7422 508.141,-77.6978 518.7049,-78.5065 516.9035,-71.7422"/>
</g>
<!-- Node19 -->
<g id="node19" class="node">
<title>Node19</title>
<g id="a_node19"><a xlink:href="structXCS.html#a7d53320740db8e846251bacd0238a9fb" target="_top" xlink:title="XCS::fit">
<polygon fill="none" stroke="#000000" points="588,-76.5 588,-95.5 640,-95.5 640,-76.5 588,-76.5"/>
<text text-anchor="middle" x="614" y="-83.5" font-family="Helvetica,sans-Serif" font-size="10.00" fill="#000000">XCS::fit</text>
</a>
</g>
</g>
<!-- Node17&#45;&gt;Node19 -->
<g id="edge21" class="edge">
<title>Node17&#45;&gt;Node19</title>
<path fill="none" stroke="#191970" d="M518.2818,-86C540.3872,-86 567.8689,-86 587.7073,-86"/>
<polygon fill="#191970" stroke="#191970" points="518.2355,-82.5001 508.2355,-86 518.2354,-89.5001 518.2355,-82.5001"/>
</g>
<!-- Node18&#45;&gt;Node7 -->
<g id="edge20" class="edge">
<title>Node18&#45;&gt;Node7</title>
<path fill="none" stroke="#191970" d="M802.5935,-91.0853C817.0033,-100.1893 835.3828,-112.2654 851,-124 867.0662,-136.072 884.5341,-151.4134 895.3756,-161.2218"/>
<polygon fill="#191970" stroke="#191970" points="804.1008,-87.8999 793.7664,-85.5653 800.3893,-93.8349 804.1008,-87.8999"/>
</g>
<!-- Node21 -->
<g id="node21" class="node">
<title>Node21</title>
<g id="a_node21"><a xlink:href="structXCS.html#a911ed75c86abed7807d33eb1385240ed" target="_top" xlink:title="XCS::predict">
<polygon fill="none" stroke="#000000" points="444.5,-152.5 444.5,-171.5 517.5,-171.5 517.5,-152.5 444.5,-152.5"/>
<text text-anchor="middle" x="481" y="-159.5" font-family="Helvetica,sans-Serif" font-size="10.00" fill="#000000">XCS::predict</text>
</a>
</g>
</g>
<!-- Node20&#45;&gt;Node21 -->
<g id="edge23" class="edge">
<title>Node20&#45;&gt;Node21</title>
<path fill="none" stroke="#191970" d="M396.2432,-162C411.9994,-162 429.467,-162 444.431,-162"/>
<polygon fill="#191970" stroke="#191970" points="396.1799,-158.5001 386.1799,-162 396.1798,-165.5001 396.1799,-158.5001"/>
</g>
<!-- Node21&#45;&gt;Node10 -->
<g id="edge24" class="edge">
<title>Node21&#45;&gt;Node10</title>
<path fill="none" stroke="#191970" d="M527.7166,-159.0114C575.1934,-155.9742 649.4221,-151.2255 704.7305,-147.6873"/>
<polygon fill="#191970" stroke="#191970" points="527.472,-155.5198 517.7159,-159.6512 527.919,-162.5055 527.472,-155.5198"/>
</g>
<!-- Node22&#45;&gt;Node17 -->
<g id="edge26" class="edge">
<title>Node22&#45;&gt;Node17</title>
<path fill="none" stroke="#191970" d="M393.5549,-111.5609C413.4142,-105.7558 436.4601,-99.0194 453.906,-93.9198"/>
<polygon fill="#191970" stroke="#191970" points="392.4208,-108.2458 383.8045,-114.411 394.3848,-114.9647 392.4208,-108.2458"/>
</g>
<!-- Node23 -->
<g id="node23" class="node">
<title>Node23</title>
<g id="a_node23"><a xlink:href="xcsf_8h.html#a2cf95733e5f97410d94211b72e835847" target="_top" xlink:title="Calculates the XCSF error for the input data. ">
<polygon fill="none" stroke="#000000" points="448.5,-114.5 448.5,-133.5 513.5,-133.5 513.5,-114.5 448.5,-114.5"/>
<text text-anchor="middle" x="481" y="-121.5" font-family="Helvetica,sans-Serif" font-size="10.00" fill="#000000">xcsf_score</text>
</a>
</g>
</g>
<!-- Node22&#45;&gt;Node23 -->
<g id="edge27" class="edge">
<title>Node22&#45;&gt;Node23</title>
<path fill="none" stroke="#191970" d="M400.286,-124C416.2958,-124 433.6585,-124 448.164,-124"/>
<polygon fill="#191970" stroke="#191970" points="400.0043,-120.5001 390.0043,-124 400.0043,-127.5001 400.0043,-120.5001"/>
</g>
<!-- Node24 -->
<g id="node24" class="node">
<title>Node24</title>
<g id="a_node24"><a xlink:href="structXCS.html#aa77bc77484d6d14bf512304a23cfec88" target="_top" xlink:title="XCS::score">
<polygon fill="none" stroke="#000000" points="580,-114.5 580,-133.5 648,-133.5 648,-114.5 580,-114.5"/>
<text text-anchor="middle" x="614" y="-121.5" font-family="Helvetica,sans-Serif" font-size="10.00" fill="#000000">XCS::score</text>
</a>
</g>
</g>
<!-- Node23&#45;&gt;Node24 -->
<g id="edge28" class="edge">
<title>Node23&#45;&gt;Node24</title>
<path fill="none" stroke="#191970" d="M523.6082,-124C541.8206,-124 562.7904,-124 579.9448,-124"/>
<polygon fill="#191970" stroke="#191970" points="523.5355,-120.5001 513.5355,-124 523.5354,-127.5001 523.5355,-120.5001"/>
</g>
<!-- Node24&#45;&gt;Node10 -->
<g id="edge29" class="edge">
<title>Node24&#45;&gt;Node10</title>
<path fill="none" stroke="#191970" d="M658.4237,-129.1467C672.7375,-130.8049 689.0002,-132.6891 704.82,-134.5218"/>
<polygon fill="#191970" stroke="#191970" points="658.7162,-125.6572 648.3798,-127.983 657.9105,-132.6107 658.7162,-125.6572"/>
</g>
</g>
</svg>
