<?xml version="1.0" encoding="UTF-8" standalone="no"?>
<!DOCTYPE svg PUBLIC "-//W3C//DTD SVG 1.1//EN"
 "http://www.w3.org/Graphics/SVG/1.1/DTD/svg11.dtd">
<!-- Generated by graphviz version 2.40.1 (20161225.0304)
 -->
<!-- Title: pred_compute Pages: 1 -->
<svg width="1003pt" height="275pt"
 viewBox="0.00 0.00 1003.00 275.00" xmlns="http://www.w3.org/2000/svg" xmlns:xlink="http://www.w3.org/1999/xlink">
<g id="graph0" class="graph" transform="scale(1 1) rotate(0) translate(4 271)">
<title>pred_compute</title>
<!-- Node1 -->
<g id="node1" class="node">
<title>Node1</title>
<polygon fill="#bfbfbf" stroke="#000000" points="0,-133.5 0,-152.5 78,-152.5 78,-133.5 0,-133.5"/>
<text text-anchor="middle" x="39" y="-140.5" font-family="Helvetica,sans-Serif" font-size="10.00" fill="#000000">pred_compute</text>
</g>
<!-- Node2 -->
<g id="node2" class="node">
<title>Node2</title>
<g id="a_node2"><a xlink:href="cl_8h.html#a3ae6b6421d2dc7d021d0b78bf0569c7c" target="_top" xlink:title="Computes the current classifier payoff prediction using the input. ">
<polygon fill="none" stroke="#000000" points="114,-133.5 114,-152.5 173,-152.5 173,-133.5 114,-133.5"/>
<text text-anchor="middle" x="143.5" y="-140.5" font-family="Helvetica,sans-Serif" font-size="10.00" fill="#000000">cl_predict</text>
</a>
</g>
</g>
<!-- Node1&#45;&gt;Node2 -->
<g id="edge1" class="edge">
<title>Node1&#45;&gt;Node2</title>
<path fill="none" stroke="#191970" d="M88.3448,-143C97.071,-143 105.9057,-143 113.8711,-143"/>
<polygon fill="#191970" stroke="#191970" points="88.2093,-139.5001 78.2093,-143 88.2092,-146.5001 88.2093,-139.5001"/>
</g>
<!-- Node3 -->
<g id="node3" class="node">
<title>Node3</title>
<g id="a_node3"><a xlink:href="pa_8h.html#aa3098dbad2e3e1e113b0176ebd76ae65" target="_top" xlink:title="Builds the prediction array for the specified input. ">
<polygon fill="none" stroke="#000000" points="209.5,-190.5 209.5,-209.5 262.5,-209.5 262.5,-190.5 209.5,-190.5"/>
<text text-anchor="middle" x="236" y="-197.5" font-family="Helvetica,sans-Serif" font-size="10.00" fill="#000000">pa_build</text>
</a>
</g>
</g>
<!-- Node2&#45;&gt;Node3 -->
<g id="edge2" class="edge">
<title>Node2&#45;&gt;Node3</title>
<path fill="none" stroke="#191970" d="M167.8755,-158.0206C184.56,-168.3018 206.179,-181.6238 220.5404,-190.4735"/>
<polygon fill="#191970" stroke="#191970" points="169.541,-154.9357 159.1914,-152.6693 165.8686,-160.8951 169.541,-154.9357"/>
</g>
<!-- Node12 -->
<g id="node12" class="node">
<title>Node12</title>
<g id="a_node12"><a xlink:href="cl__set_8h.html#a67f86a207056d80953cf3d491327f02a" target="_top" xlink:title="Calculates the set mean fitness weighted prediction. ">
<polygon fill="none" stroke="#000000" points="209,-76.5 209,-95.5 263,-95.5 263,-76.5 209,-76.5"/>
<text text-anchor="middle" x="236" y="-83.5" font-family="Helvetica,sans-Serif" font-size="10.00" fill="#000000">set_pred</text>
</a>
</g>
</g>
<!-- Node2&#45;&gt;Node12 -->
<g id="edge12" class="edge">
<title>Node2&#45;&gt;Node12</title>
<path fill="none" stroke="#191970" d="M167.8755,-127.9794C184.56,-117.6982 206.179,-104.3762 220.5404,-95.5265"/>
<polygon fill="#191970" stroke="#191970" points="165.8686,-125.1049 159.1914,-133.3307 169.541,-131.0643 165.8686,-125.1049"/>
</g>
<!-- Node4 -->
<g id="node4" class="node">
<title>Node4</title>
<g id="a_node4"><a xlink:href="xcs__multi__step_8c.html#a1e1c2a3094be715b468dda79cd59ebf3" target="_top" xlink:title="Executes a multi&#45;step trial using a built&#45;in environment. ">
<polygon fill="none" stroke="#000000" points="311,-190.5 311,-209.5 391,-209.5 391,-190.5 311,-190.5"/>
<text text-anchor="middle" x="351" y="-197.5" font-family="Helvetica,sans-Serif" font-size="10.00" fill="#000000">xcs_multi_trial</text>
</a>
</g>
</g>
<!-- Node3&#45;&gt;Node4 -->
<g id="edge3" class="edge">
<title>Node3&#45;&gt;Node4</title>
<path fill="none" stroke="#191970" d="M272.907,-200C285.0406,-200 298.5837,-200 310.94,-200"/>
<polygon fill="#191970" stroke="#191970" points="272.6724,-196.5001 262.6724,-200 272.6723,-203.5001 272.6724,-196.5001"/>
</g>
<!-- Node7 -->
<g id="node7" class="node">
<title>Node7</title>
<g id="a_node7"><a xlink:href="xcs__single__step_8h.html#a6cd0f3c0c1c71e13dba1ce493ef873a5" target="_top" xlink:title="Constructs the match set and selects an action to perform. ">
<polygon fill="none" stroke="#000000" points="299,-228.5 299,-247.5 403,-247.5 403,-228.5 299,-228.5"/>
<text text-anchor="middle" x="351" y="-235.5" font-family="Helvetica,sans-Serif" font-size="10.00" fill="#000000">xcs_single_decision</text>
</a>
</g>
</g>
<!-- Node3&#45;&gt;Node7 -->
<g id="edge6" class="edge">
<title>Node3&#45;&gt;Node7</title>
<path fill="none" stroke="#191970" d="M272.2819,-211.9888C288.3354,-217.2934 306.9556,-223.4462 322.0549,-228.4355"/>
<polygon fill="#191970" stroke="#191970" points="273.2656,-208.6278 262.6724,-208.8135 271.0693,-215.2743 273.2656,-208.6278"/>
</g>
<!-- Node5 -->
<g id="node5" class="node">
<title>Node5</title>
<g id="a_node5"><a xlink:href="xcs__multi__step_8h.html#acc29d4a55dbd56c16ea5f19f15a7c677" target="_top" xlink:title="Executes a multi&#45;step reinforcement learning experiment. ">
<polygon fill="none" stroke="#000000" points="561,-190.5 561,-209.5 665,-209.5 665,-190.5 561,-190.5"/>
<text text-anchor="middle" x="613" y="-197.5" font-family="Helvetica,sans-Serif" font-size="10.00" fill="#000000">xcs_multi_step_exp</text>
</a>
</g>
</g>
<!-- Node4&#45;&gt;Node5 -->
<g id="edge4" class="edge">
<title>Node4&#45;&gt;Node5</title>
<path fill="none" stroke="#191970" d="M401.3601,-200C447.1222,-200 514.372,-200 560.7224,-200"/>
<polygon fill="#191970" stroke="#191970" points="401.0774,-196.5001 391.0774,-200 401.0773,-203.5001 401.0774,-196.5001"/>
</g>
<!-- Node6 -->
<g id="node6" class="node">
<title>Node6</title>
<g id="a_node6"><a xlink:href="main_8c.html#a3c04138a5bfe5d72780bb7e82a18e627" target="_top" xlink:title="main">
<polygon fill="none" stroke="#000000" points="739,-190.5 739,-209.5 777,-209.5 777,-190.5 739,-190.5"/>
<text text-anchor="middle" x="758" y="-197.5" font-family="Helvetica,sans-Serif" font-size="10.00" fill="#000000">main</text>
</a>
</g>
</g>
<!-- Node5&#45;&gt;Node6 -->
<g id="edge5" class="edge">
<title>Node5&#45;&gt;Node6</title>
<path fill="none" stroke="#191970" d="M675.4129,-200C698.3558,-200 722.6732,-200 738.932,-200"/>
<polygon fill="#191970" stroke="#191970" points="675.3484,-196.5001 665.3483,-200 675.3483,-203.5001 675.3484,-196.5001"/>
</g>
<!-- Node8 -->
<g id="node8" class="node">
<title>Node8</title>
<g id="a_node8"><a xlink:href="structXCS.html#a94d556a5e545ec415d7165d5e91b21d4" target="_top" xlink:title="XCS::single_decision">
<polygon fill="none" stroke="#000000" points="703,-247.5 703,-266.5 813,-266.5 813,-247.5 703,-247.5"/>
<text text-anchor="middle" x="758" y="-254.5" font-family="Helvetica,sans-Serif" font-size="10.00" fill="#000000">XCS::single_decision</text>
</a>
</g>
</g>
<!-- Node7&#45;&gt;Node8 -->
<g id="edge7" class="edge">
<title>Node7&#45;&gt;Node8</title>
<path fill="none" stroke="#191970" d="M396.7147,-249.7979C410.234,-252.7621 425.1292,-255.5196 439,-257 531.1032,-266.8297 639.0186,-263.8155 702.7731,-260.5442"/>
<polygon fill="#191970" stroke="#191970" points="397.2125,-246.3216 386.6844,-247.5086 395.6549,-253.1461 397.2125,-246.3216"/>
</g>
<!-- Node10 -->
<g id="node10" class="node">
<title>Node10</title>
<g id="a_node10"><a xlink:href="xcs__single__step_8c.html#a3d1fd2472d35310800aed897219a65af" target="_top" xlink:title="Executes a single&#45;step trial using a built&#45;in environment. ">
<polygon fill="none" stroke="#000000" points="439,-228.5 439,-247.5 523,-247.5 523,-228.5 439,-228.5"/>
<text text-anchor="middle" x="481" y="-235.5" font-family="Helvetica,sans-Serif" font-size="10.00" fill="#000000">xcs_single_trial</text>
</a>
</g>
</g>
<!-- Node7&#45;&gt;Node10 -->
<g id="edge9" class="edge">
<title>Node7&#45;&gt;Node10</title>
<path fill="none" stroke="#191970" d="M413.2443,-238C421.9202,-238 430.6616,-238 438.8488,-238"/>
<polygon fill="#191970" stroke="#191970" points="413.127,-234.5001 403.1269,-238 413.1269,-241.5001 413.127,-234.5001"/>
</g>
<!-- Node9 -->
<g id="node9" class="node">
<title>Node9</title>
<g id="a_node9"><a xlink:href="python__wrapper_8cpp.html#afbdcc1358036a0b83a6b239da2b098a2" target="_top" xlink:title="BOOST_PYTHON_MODULE">
<polygon fill="none" stroke="#000000" points="849,-95.5 849,-114.5 995,-114.5 995,-95.5 849,-95.5"/>
<text text-anchor="middle" x="922" y="-102.5" font-family="Helvetica,sans-Serif" font-size="10.00" fill="#000000">BOOST_PYTHON_MODULE</text>
</a>
</g>
</g>
<!-- Node8&#45;&gt;Node9 -->
<g id="edge8" class="edge">
<title>Node8&#45;&gt;Node9</title>
<path fill="none" stroke="#191970" d="M782.1341,-241.8702C792.0343,-235.2754 803.3999,-227.1884 813,-219 854.0421,-183.9929 896.4653,-135.3556 913.8397,-114.7963"/>
<polygon fill="#191970" stroke="#191970" points="780.0132,-239.0747 773.5468,-247.4674 783.8355,-244.9391 780.0132,-239.0747"/>
</g>
<!-- Node11 -->
<g id="node11" class="node">
<title>Node11</title>
<g id="a_node11"><a xlink:href="xcs__single__step_8h.html#a39a031bf59eaa9b33e30e614610dcda8" target="_top" xlink:title="Executes a single&#45;step experiment. ">
<polygon fill="none" stroke="#000000" points="559,-228.5 559,-247.5 667,-247.5 667,-228.5 559,-228.5"/>
<text text-anchor="middle" x="613" y="-235.5" font-family="Helvetica,sans-Serif" font-size="10.00" fill="#000000">xcs_single_step_exp</text>
</a>
</g>
</g>
<!-- Node10&#45;&gt;Node11 -->
<g id="edge10" class="edge">
<title>Node10&#45;&gt;Node11</title>
<path fill="none" stroke="#191970" d="M533.1756,-238C541.5711,-238 550.2792,-238 558.7227,-238"/>
<polygon fill="#191970" stroke="#191970" points="533.1286,-234.5001 523.1285,-238 533.1285,-241.5001 533.1286,-234.5001"/>
</g>
<!-- Node11&#45;&gt;Node6 -->
<g id="edge11" class="edge">
<title>Node11&#45;&gt;Node6</title>
<path fill="none" stroke="#191970" d="M659.5673,-225.7962C686.394,-218.7657 718.6769,-210.3054 738.7732,-205.0387"/>
<polygon fill="#191970" stroke="#191970" points="658.3757,-222.4902 649.5896,-228.411 660.1503,-229.2615 658.3757,-222.4902"/>
</g>
<!-- Node13 -->
<g id="node13" class="node">
<title>Node13</title>
<g id="a_node13"><a xlink:href="xcsf_8c.html#a474f4e13cfc5f00958c689cd8c81135a" target="_top" xlink:title="Executes a single XCSF learning trial. ">
<polygon fill="none" stroke="#000000" points="309.5,-95.5 309.5,-114.5 392.5,-114.5 392.5,-95.5 309.5,-95.5"/>
<text text-anchor="middle" x="351" y="-102.5" font-family="Helvetica,sans-Serif" font-size="10.00" fill="#000000">xcsf_learn_trial</text>
</a>
</g>
</g>
<!-- Node12&#45;&gt;Node13 -->
<g id="edge13" class="edge">
<title>Node12&#45;&gt;Node13</title>
<path fill="none" stroke="#191970" d="M273.3387,-92.169C284.7595,-94.0559 297.3954,-96.1436 309.0985,-98.0772"/>
<polygon fill="#191970" stroke="#191970" points="273.6902,-88.6797 263.2534,-90.5027 272.5491,-95.5861 273.6902,-88.6797"/>
</g>
<!-- Node18 -->
<g id="node18" class="node">
<title>Node18</title>
<g id="a_node18"><a xlink:href="xcsf_8h.html#af0b9db7273578fdff649d46823cd9790" target="_top" xlink:title="Calculates the XCSF predictions for the provided input. ">
<polygon fill="none" stroke="#000000" points="316,-19.5 316,-38.5 386,-38.5 386,-19.5 316,-19.5"/>
<text text-anchor="middle" x="351" y="-26.5" font-family="Helvetica,sans-Serif" font-size="10.00" fill="#000000">xcsf_predict</text>
</a>
</g>
</g>
<!-- Node12&#45;&gt;Node18 -->
<g id="edge20" class="edge">
<title>Node12&#45;&gt;Node18</title>
<path fill="none" stroke="#191970" d="M258.7624,-70.8137C270.4836,-63.3733 285.1824,-54.6157 299,-48 306.1954,-44.555 314.1911,-41.3466 321.7119,-38.5835"/>
<polygon fill="#191970" stroke="#191970" points="256.5707,-68.0629 250.0742,-76.4323 260.372,-73.9409 256.5707,-68.0629"/>
</g>
<!-- Node20 -->
<g id="node20" class="node">
<title>Node20</title>
<g id="a_node20"><a xlink:href="xcsf_8c.html#aa6edd3962ddd04940e2c78a4f99de7cd" target="_top" xlink:title="Executes a single XCSF testing trial. ">
<polygon fill="none" stroke="#000000" points="312,-57.5 312,-76.5 390,-76.5 390,-57.5 312,-57.5"/>
<text text-anchor="middle" x="351" y="-64.5" font-family="Helvetica,sans-Serif" font-size="10.00" fill="#000000">xcsf_test_trial</text>
</a>
</g>
</g>
<!-- Node12&#45;&gt;Node20 -->
<g id="edge23" class="edge">
<title>Node12&#45;&gt;Node20</title>
<path fill="none" stroke="#191970" d="M273.2098,-79.8523C285.5326,-77.8163 299.2817,-75.5448 311.7527,-73.4843"/>
<polygon fill="#191970" stroke="#191970" points="272.5491,-76.4139 263.2534,-81.4973 273.6902,-83.3203 272.5491,-76.4139"/>
</g>
<!-- Node14 -->
<g id="node14" class="node">
<title>Node14</title>
<g id="a_node14"><a xlink:href="xcsf_8h.html#a0b4de57cb9dadc9deca7901aa36e5025" target="_top" xlink:title="Executes MAX_TRIALS number of XCSF learning iterations using the training. data and test iterations u...">
<polygon fill="none" stroke="#000000" points="454,-95.5 454,-114.5 508,-114.5 508,-95.5 454,-95.5"/>
<text text-anchor="middle" x="481" y="-102.5" font-family="Helvetica,sans-Serif" font-size="10.00" fill="#000000">xcsf_fit2</text>
</a>
</g>
</g>
<!-- Node13&#45;&gt;Node14 -->
<g id="edge14" class="edge">
<title>Node13&#45;&gt;Node14</title>
<path fill="none" stroke="#191970" d="M402.9446,-105C420.4182,-105 439.2047,-105 453.9677,-105"/>
<polygon fill="#191970" stroke="#191970" points="402.8484,-101.5001 392.8484,-105 402.8484,-108.5001 402.8484,-101.5001"/>
</g>
<!-- Node14&#45;&gt;Node6 -->
<g id="edge15" class="edge">
<title>Node14&#45;&gt;Node6</title>
<path fill="none" stroke="#191970" d="M507.6713,-119.4297C522.5055,-127.0869 541.4631,-136.2756 559,-143 623.4269,-167.704 703.151,-187.4145 738.9863,-195.7257"/>
<polygon fill="#191970" stroke="#191970" points="509.0567,-116.2042 498.575,-114.6602 505.8061,-122.4037 509.0567,-116.2042"/>
</g>
<!-- Node15 -->
<g id="node15" class="node">
<title>Node15</title>
<g id="a_node15"><a xlink:href="structXCS.html#a7d53320740db8e846251bacd0238a9fb" target="_top" xlink:title="XCS::fit">
<polygon fill="none" stroke="#000000" points="587,-76.5 587,-95.5 639,-95.5 639,-76.5 587,-76.5"/>
<text text-anchor="middle" x="613" y="-83.5" font-family="Helvetica,sans-Serif" font-size="10.00" fill="#000000">XCS::fit</text>
</a>
</g>
</g>
<!-- Node14&#45;&gt;Node15 -->
<g id="edge16" class="edge">
<title>Node14&#45;&gt;Node15</title>
<path fill="none" stroke="#191970" d="M518.0015,-99.674C539.9406,-96.5161 567.2158,-92.5902 586.905,-89.7561"/>
<polygon fill="#191970" stroke="#191970" points="517.43,-96.2201 508.0307,-101.1092 518.4274,-103.1487 517.43,-96.2201"/>
</g>
<!-- Node16 -->
<g id="node16" class="node">
<title>Node16</title>
<g id="a_node16"><a xlink:href="xcsf_8h.html#a874829f28fee20f9ad15b540f4b4d6ff" target="_top" xlink:title="Executes MAX_TRIALS number of XCSF learning iterations using the training data. ">
<polygon fill="none" stroke="#000000" points="586,-114.5 586,-133.5 640,-133.5 640,-114.5 586,-114.5"/>
<text text-anchor="middle" x="613" y="-121.5" font-family="Helvetica,sans-Serif" font-size="10.00" fill="#000000">xcsf_fit1</text>
</a>
</g>
</g>
<!-- Node14&#45;&gt;Node16 -->
<g id="edge17" class="edge">
<title>Node14&#45;&gt;Node16</title>
<path fill="none" stroke="#191970" d="M518.0891,-110.3386C539.5146,-113.4226 566.0062,-117.2357 585.5518,-120.0491"/>
<polygon fill="#191970" stroke="#191970" points="518.4274,-106.8513 508.0307,-108.8908 517.43,-113.7799 518.4274,-106.8513"/>
</g>
<!-- Node17 -->
<g id="node17" class="node">
<title>Node17</title>
<g id="a_node17"><a xlink:href="structXCS.html#ad2ccafe59d2b4ae6d0e1cbc15edee53c" target="_top" xlink:title="XCS::fit">
<polygon fill="none" stroke="#000000" points="732,-105.5 732,-124.5 784,-124.5 784,-105.5 732,-105.5"/>
<text text-anchor="middle" x="758" y="-112.5" font-family="Helvetica,sans-Serif" font-size="10.00" fill="#000000">XCS::fit</text>
</a>
</g>
</g>
<!-- Node16&#45;&gt;Node17 -->
<g id="edge18" class="edge">
<title>Node16&#45;&gt;Node17</title>
<path fill="none" stroke="#191970" d="M650.3422,-121.6822C675.8746,-120.0974 709.0827,-118.0362 731.8256,-116.6246"/>
<polygon fill="#191970" stroke="#191970" points="650.0373,-118.1943 640.2734,-122.3072 650.471,-125.1809 650.0373,-118.1943"/>
</g>
<!-- Node17&#45;&gt;Node9 -->
<g id="edge19" class="edge">
<title>Node17&#45;&gt;Node9</title>
<path fill="none" stroke="#191970" d="M794.4003,-112.7805C810.5152,-111.7979 830.0749,-110.6052 848.9889,-109.4519"/>
<polygon fill="#191970" stroke="#191970" points="794.1178,-109.2911 784.3494,-113.3933 794.544,-116.2781 794.1178,-109.2911"/>
</g>
<!-- Node19 -->
<g id="node19" class="node">
<title>Node19</title>
<g id="a_node19"><a xlink:href="structXCS.html#a911ed75c86abed7807d33eb1385240ed" target="_top" xlink:title="XCS::predict">
<polygon fill="none" stroke="#000000" points="721.5,-.5 721.5,-19.5 794.5,-19.5 794.5,-.5 721.5,-.5"/>
<text text-anchor="middle" x="758" y="-7.5" font-family="Helvetica,sans-Serif" font-size="10.00" fill="#000000">XCS::predict</text>
</a>
</g>
</g>
<!-- Node18&#45;&gt;Node19 -->
<g id="edge21" class="edge">
<title>Node18&#45;&gt;Node19</title>
<path fill="none" stroke="#191970" d="M396.4713,-26.8773C477.8786,-23.0769 646.953,-15.184 721.4275,-11.7073"/>
<polygon fill="#191970" stroke="#191970" points="395.8787,-23.401 386.0529,-27.3636 396.2052,-30.3934 395.8787,-23.401"/>
</g>
<!-- Node19&#45;&gt;Node9 -->
<g id="edge22" class="edge">
<title>Node19&#45;&gt;Node9</title>
<path fill="none" stroke="#191970" d="M783.4912,-24.7662C817.4456,-44.435 876.5655,-78.6812 905.3283,-95.3426"/>
<polygon fill="#191970" stroke="#191970" points="785.0352,-21.6158 774.6277,-19.6319 781.5264,-27.673 785.0352,-21.6158"/>
</g>
<!-- Node20&#45;&gt;Node14 -->
<g id="edge24" class="edge">
<title>Node20&#45;&gt;Node14</title>
<path fill="none" stroke="#191970" d="M393.5549,-79.4391C413.4142,-85.2442 436.4601,-91.9806 453.906,-97.0802"/>
<polygon fill="#191970" stroke="#191970" points="394.3848,-76.0353 383.8045,-76.589 392.4208,-82.7542 394.3848,-76.0353"/>
</g>
<!-- Node21 -->
<g id="node21" class="node">
<title>Node21</title>
<g id="a_node21"><a xlink:href="xcsf_8h.html#a2cf95733e5f97410d94211b72e835847" target="_top" xlink:title="Calculates the XCSF error for the input data. ">
<polygon fill="none" stroke="#000000" points="448.5,-38.5 448.5,-57.5 513.5,-57.5 513.5,-38.5 448.5,-38.5"/>
<text text-anchor="middle" x="481" y="-45.5" font-family="Helvetica,sans-Serif" font-size="10.00" fill="#000000">xcsf_score</text>
</a>
</g>
</g>
<!-- Node20&#45;&gt;Node21 -->
<g id="edge25" class="edge">
<title>Node20&#45;&gt;Node21</title>
<path fill="none" stroke="#191970" d="M400.286,-59.7967C416.2958,-57.4568 433.6585,-54.9191 448.164,-52.7991"/>
<polygon fill="#191970" stroke="#191970" points="399.393,-56.3899 390.0043,-61.2994 400.4054,-63.3163 399.393,-56.3899"/>
</g>
<!-- Node22 -->
<g id="node22" class="node">
<title>Node22</title>
<g id="a_node22"><a xlink:href="structXCS.html#aa77bc77484d6d14bf512304a23cfec88" target="_top" xlink:title="XCS::score">
<polygon fill="none" stroke="#000000" points="724,-57.5 724,-76.5 792,-76.5 792,-57.5 724,-57.5"/>
<text text-anchor="middle" x="758" y="-64.5" font-family="Helvetica,sans-Serif" font-size="10.00" fill="#000000">XCS::score</text>
</a>
</g>
</g>
<!-- Node21&#45;&gt;Node22 -->
<g id="edge26" class="edge">
<title>Node21&#45;&gt;Node22</title>
<path fill="none" stroke="#191970" d="M523.7127,-50.9298C578.7311,-54.7036 673.2742,-61.1885 723.8027,-64.6543"/>
<polygon fill="#191970" stroke="#191970" points="523.8061,-47.428 513.59,-50.2354 523.327,-54.4116 523.8061,-47.428"/>
</g>
<!-- Node22&#45;&gt;Node9 -->
<g id="edge27" class="edge">
<title>Node22&#45;&gt;Node9</title>
<path fill="none" stroke="#191970" d="M802.1559,-77.2313C826.6816,-82.914 856.993,-89.9374 880.9952,-95.4989"/>
<polygon fill="#191970" stroke="#191970" points="802.9118,-73.8137 792.3798,-74.966 801.3316,-80.6331 802.9118,-73.8137"/>
</g>
</g>
</svg>
