<?xml version="1.0" encoding="UTF-8" standalone="no"?>
<!DOCTYPE svg PUBLIC "-//W3C//DTD SVG 1.1//EN"
 "http://www.w3.org/Graphics/SVG/1.1/DTD/svg11.dtd">
<!-- Generated by graphviz version 2.40.1 (20161225.0304)
 -->
<!-- Title: pred_rls_copy Pages: 1 -->
<svg width="414pt" height="142pt"
 viewBox="0.00 0.00 414.00 142.00" xmlns="http://www.w3.org/2000/svg" xmlns:xlink="http://www.w3.org/1999/xlink">
<g id="graph0" class="graph" transform="scale(1 1) rotate(0) translate(4 138)">
<title>pred_rls_copy</title>
<!-- Node2 -->
<g id="node1" class="node">
<title>Node2</title>
<polygon fill="#bfbfbf" stroke="#000000" points="0,-57.5 0,-76.5 77,-76.5 77,-57.5 0,-57.5"/>
<text text-anchor="middle" x="38.5" y="-64.5" font-family="Helvetica,sans-Serif" font-size="10.00" fill="#000000">pred_rls_copy</text>
</g>
<!-- Node3 -->
<g id="node2" class="node">
<title>Node3</title>
<g id="a_node2"><a xlink:href="pred__rls_8c.html#abd35c579776a63f6361245817ef7af7a" target="_top" xlink:title="pred_rls_init">
<polygon fill="none" stroke="#000000" points="113,-57.5 113,-76.5 182,-76.5 182,-57.5 113,-57.5"/>
<text text-anchor="middle" x="147.5" y="-64.5" font-family="Helvetica,sans-Serif" font-size="10.00" fill="#000000">pred_rls_init</text>
</a>
</g>
</g>
<!-- Node2&#45;&gt;Node3 -->
<g id="edge1" class="edge">
<title>Node2&#45;&gt;Node3</title>
<path fill="none" stroke="#191970" d="M77.2362,-67C85.5018,-67 94.2966,-67 102.7661,-67"/>
<polygon fill="#191970" stroke="#191970" points="102.8784,-70.5001 112.8783,-67 102.8783,-63.5001 102.8784,-70.5001"/>
</g>
<!-- Node4 -->
<g id="node3" class="node">
<title>Node4</title>
<g id="a_node3"><a xlink:href="blas_8c.html#a95eb315efef08b5eb4694c3ca6bfe633" target="_top" xlink:title="blas_fill">
<polygon fill="none" stroke="#000000" points="245.5,-114.5 245.5,-133.5 295.5,-133.5 295.5,-114.5 245.5,-114.5"/>
<text text-anchor="middle" x="270.5" y="-121.5" font-family="Helvetica,sans-Serif" font-size="10.00" fill="#000000">blas_fill</text>
</a>
</g>
</g>
<!-- Node3&#45;&gt;Node4 -->
<g id="edge2" class="edge">
<title>Node3&#45;&gt;Node4</title>
<path fill="none" stroke="#191970" d="M163.6795,-76.6056C177.7515,-84.7438 198.8361,-96.4235 218,-105 223.6113,-107.5112 229.6645,-109.9443 235.5962,-112.1839"/>
<polygon fill="#191970" stroke="#191970" points="234.771,-115.6085 245.3649,-115.7498 237.1714,-109.0329 234.771,-115.6085"/>
</g>
<!-- Node6 -->
<g id="node5" class="node">
<title>Node6</title>
<g id="a_node5"><a xlink:href="cuda_8h.html#a3053369275468b696672af9128373951" target="_top" xlink:title="cuda_create_stream">
<polygon fill="none" stroke="#000000" points="218,-76.5 218,-95.5 323,-95.5 323,-76.5 218,-76.5"/>
<text text-anchor="middle" x="270.5" y="-83.5" font-family="Helvetica,sans-Serif" font-size="10.00" fill="#000000">cuda_create_stream</text>
</a>
</g>
</g>
<!-- Node3&#45;&gt;Node6 -->
<g id="edge4" class="edge">
<title>Node3&#45;&gt;Node6</title>
<path fill="none" stroke="#191970" d="M182.0897,-72.3431C190.1434,-73.5872 198.964,-74.9497 207.8173,-76.3173"/>
<polygon fill="#191970" stroke="#191970" points="207.3706,-79.7897 217.7877,-77.8575 208.4393,-72.8718 207.3706,-79.7897"/>
</g>
<!-- Node7 -->
<g id="node6" class="node">
<title>Node7</title>
<g id="a_node6"><a xlink:href="cuda_8h.html#ae7232801b626203e05c04dd734796d65" target="_top" xlink:title="cuda_make_array">
<polygon fill="none" stroke="#000000" points="223.5,-38.5 223.5,-57.5 317.5,-57.5 317.5,-38.5 223.5,-38.5"/>
<text text-anchor="middle" x="270.5" y="-45.5" font-family="Helvetica,sans-Serif" font-size="10.00" fill="#000000">cuda_make_array</text>
</a>
</g>
</g>
<!-- Node3&#45;&gt;Node7 -->
<g id="edge5" class="edge">
<title>Node3&#45;&gt;Node7</title>
<path fill="none" stroke="#191970" d="M182.0897,-61.6569C191.7821,-60.1597 202.5853,-58.4909 213.2194,-56.8482"/>
<polygon fill="#191970" stroke="#191970" points="213.973,-60.2734 223.3215,-55.2877 212.9043,-53.3555 213.973,-60.2734"/>
</g>
<!-- Node8 -->
<g id="node7" class="node">
<title>Node8</title>
<g id="a_node7"><a xlink:href="pred__rls_8c.html#a93c37219fc0ec594a2dceb6b6d6b4f06" target="_top" xlink:title="init_matrix">
<polygon fill="none" stroke="#000000" points="239.5,-.5 239.5,-19.5 301.5,-19.5 301.5,-.5 239.5,-.5"/>
<text text-anchor="middle" x="270.5" y="-7.5" font-family="Helvetica,sans-Serif" font-size="10.00" fill="#000000">init_matrix</text>
</a>
</g>
</g>
<!-- Node3&#45;&gt;Node8 -->
<g id="edge6" class="edge">
<title>Node3&#45;&gt;Node8</title>
<path fill="none" stroke="#191970" d="M163.6795,-57.3944C177.7515,-49.2562 198.8361,-37.5765 218,-29 222.5178,-26.9781 227.322,-25.0069 232.1187,-23.1466"/>
<polygon fill="#191970" stroke="#191970" points="233.7197,-26.2847 241.8598,-19.5031 231.2673,-19.7283 233.7197,-26.2847"/>
</g>
<!-- Node5 -->
<g id="node4" class="node">
<title>Node5</title>
<g id="a_node4"><a xlink:href="blas_8c.html#a3ad51e4642cc0045163e7d3390657541" target="_top" xlink:title="fill_cpu">
<polygon fill="none" stroke="#000000" points="359,-114.5 359,-133.5 406,-133.5 406,-114.5 359,-114.5"/>
<text text-anchor="middle" x="382.5" y="-121.5" font-family="Helvetica,sans-Serif" font-size="10.00" fill="#000000">fill_cpu</text>
</a>
</g>
</g>
<!-- Node4&#45;&gt;Node5 -->
<g id="edge3" class="edge">
<title>Node4&#45;&gt;Node5</title>
<path fill="none" stroke="#191970" d="M295.635,-124C311.3374,-124 331.7483,-124 348.839,-124"/>
<polygon fill="#191970" stroke="#191970" points="348.9796,-127.5001 358.9795,-124 348.9795,-120.5001 348.9796,-127.5001"/>
</g>
</g>
</svg>
