<?xml version="1.0" encoding="UTF-8" standalone="no"?>
<!DOCTYPE svg PUBLIC "-//W3C//DTD SVG 1.1//EN"
 "http://www.w3.org/Graphics/SVG/1.1/DTD/svg11.dtd">
<!-- Generated by graphviz version 2.40.1 (20161225.0304)
 -->
<!-- Title: pred_neural_layers Pages: 1 -->
<svg width="589pt" height="39pt"
 viewBox="0.00 0.00 589.00 39.00" xmlns="http://www.w3.org/2000/svg" xmlns:xlink="http://www.w3.org/1999/xlink">
<g id="graph0" class="graph" transform="scale(1 1) rotate(0) translate(4 35)">
<title>pred_neural_layers</title>
<!-- Node56 -->
<g id="node1" class="node">
<title>Node56</title>
<polygon fill="#bfbfbf" stroke="#000000" points="0,-6 0,-25 98,-25 98,-6 0,-6"/>
<text text-anchor="middle" x="49" y="-13" font-family="Helvetica,sans-Serif" font-size="10.00" fill="#000000">pred_neural_layers</text>
</g>
<!-- Node57 -->
<g id="node2" class="node">
<title>Node57</title>
<g id="a_node2"><a xlink:href="clset_8h.html#aa9eaaf1c746c2ac3e63bb11b59a0ade4" target="_top" xlink:title="Calculates the mean number of prediction layers in the set. ">
<polygon fill="none" stroke="#000000" points="134,-6 134,-25 232,-25 232,-6 134,-6"/>
<text text-anchor="middle" x="183" y="-13" font-family="Helvetica,sans-Serif" font-size="10.00" fill="#000000">clset_mean_layers</text>
</a>
</g>
</g>
<!-- Node56&#45;&gt;Node57 -->
<g id="edge1" class="edge">
<title>Node56&#45;&gt;Node57</title>
<path fill="none" stroke="#191970" d="M108.3979,-15.5C116.9092,-15.5 125.5863,-15.5 133.8702,-15.5"/>
<polygon fill="#191970" stroke="#191970" points="108.1358,-12.0001 98.1358,-15.5 108.1357,-19.0001 108.1358,-12.0001"/>
</g>
<!-- Node58 -->
<g id="node3" class="node">
<title>Node58</title>
<g id="a_node3"><a xlink:href="structXCS.html#a58ad19780e86b0ea47f65539678a4f5b" target="_top" xlink:title="XCS::get_pop_mean_pred\l_layers">
<polygon fill="none" stroke="#000000" points="268,-.5 268,-30.5 399,-30.5 399,-.5 268,-.5"/>
<text text-anchor="start" x="276" y="-18.5" font-family="Helvetica,sans-Serif" font-size="10.00" fill="#000000">XCS::get_pop_mean_pred</text>
<text text-anchor="middle" x="333.5" y="-7.5" font-family="Helvetica,sans-Serif" font-size="10.00" fill="#000000">_layers</text>
</a>
</g>
</g>
<!-- Node57&#45;&gt;Node58 -->
<g id="edge2" class="edge">
<title>Node57&#45;&gt;Node58</title>
<path fill="none" stroke="#191970" d="M242.364,-15.5C250.7689,-15.5 259.4507,-15.5 267.9639,-15.5"/>
<polygon fill="#191970" stroke="#191970" points="242.2794,-12.0001 232.2793,-15.5 242.2793,-19.0001 242.2794,-12.0001"/>
</g>
<!-- Node59 -->
<g id="node4" class="node">
<title>Node59</title>
<g id="a_node4"><a xlink:href="python__wrapper_8cpp.html#afbdcc1358036a0b83a6b239da2b098a2" target="_top" xlink:title="BOOST_PYTHON_MODULE">
<polygon fill="none" stroke="#000000" points="435,-6 435,-25 581,-25 581,-6 435,-6"/>
<text text-anchor="middle" x="508" y="-13" font-family="Helvetica,sans-Serif" font-size="10.00" fill="#000000">BOOST_PYTHON_MODULE</text>
</a>
</g>
</g>
<!-- Node58&#45;&gt;Node59 -->
<g id="edge3" class="edge">
<title>Node58&#45;&gt;Node59</title>
<path fill="none" stroke="#191970" d="M409.6266,-15.5C418.0269,-15.5 426.5669,-15.5 434.9284,-15.5"/>
<polygon fill="#191970" stroke="#191970" points="409.471,-12.0001 399.471,-15.5 409.4709,-19.0001 409.471,-12.0001"/>
</g>
</g>
</svg>
