<?xml version="1.0" encoding="UTF-8" standalone="no"?>
<!DOCTYPE svg PUBLIC "-//W3C//DTD SVG 1.1//EN"
 "http://www.w3.org/Graphics/SVG/1.1/DTD/svg11.dtd">
<!-- Generated by graphviz version 2.40.1 (20161225.0304)
 -->
<!-- Title: /home/unknown/work/current/xcsf/xcsf/pred_nlms.h Pages: 1 -->
<svg width="288pt" height="128pt"
 viewBox="0.00 0.00 287.50 128.00" xmlns="http://www.w3.org/2000/svg" xmlns:xlink="http://www.w3.org/1999/xlink">
<g id="graph0" class="graph" transform="scale(1 1) rotate(0) translate(4 124)">
<title>/home/unknown/work/current/xcsf/xcsf/pred_nlms.h</title>
<!-- Node1 -->
<g id="node1" class="node">
<title>Node1</title>
<polygon fill="#bfbfbf" stroke="#000000" points="74,-78.5 74,-119.5 189,-119.5 189,-78.5 74,-78.5"/>
<text text-anchor="start" x="82" y="-107.5" font-family="Helvetica,sans-Serif" font-size="10.00" fill="#000000">/home/unknown/work</text>
<text text-anchor="start" x="82" y="-96.5" font-family="Helvetica,sans-Serif" font-size="10.00" fill="#000000">/current/xcsf/xcsf/pred</text>
<text text-anchor="middle" x="131.5" y="-85.5" font-family="Helvetica,sans-Serif" font-size="10.00" fill="#000000">_nlms.h</text>
</g>
<!-- Node2 -->
<g id="node2" class="node">
<title>Node2</title>
<g id="a_node2"><a xlink:href="pred__nlms_8c.html" target="_top" xlink:title="Normalised least mean squares prediction functions. ">
<polygon fill="none" stroke="#000000" points="0,-.5 0,-41.5 115,-41.5 115,-.5 0,-.5"/>
<text text-anchor="start" x="8" y="-29.5" font-family="Helvetica,sans-Serif" font-size="10.00" fill="#000000">/home/unknown/work</text>
<text text-anchor="start" x="8" y="-18.5" font-family="Helvetica,sans-Serif" font-size="10.00" fill="#000000">/current/xcsf/xcsf/pred</text>
<text text-anchor="middle" x="57.5" y="-7.5" font-family="Helvetica,sans-Serif" font-size="10.00" fill="#000000">_nlms.c</text>
</a>
</g>
</g>
<!-- Node1&#45;&gt;Node2 -->
<g id="edge1" class="edge">
<title>Node1&#45;&gt;Node2</title>
<path fill="none" stroke="#191970" d="M104.6142,-70.6609C95.523,-61.0783 85.5495,-50.5657 77.1288,-41.6898"/>
<polygon fill="#191970" stroke="#191970" points="102.2476,-73.2517 111.6694,-78.0974 107.3259,-68.4338 102.2476,-73.2517"/>
</g>
<!-- Node3 -->
<g id="node3" class="node">
<title>Node3</title>
<g id="a_node3"><a xlink:href="prediction_8c.html" target="_top" xlink:title="Interface for classifier predictions. ">
<polygon fill="none" stroke="#000000" points="133.5,-6 133.5,-36 279.5,-36 279.5,-6 133.5,-6"/>
<text text-anchor="start" x="141.5" y="-24" font-family="Helvetica,sans-Serif" font-size="10.00" fill="#000000">/home/unknown/work</text>
<text text-anchor="middle" x="206.5" y="-13" font-family="Helvetica,sans-Serif" font-size="10.00" fill="#000000">/current/xcsf/xcsf/prediction.c</text>
</a>
</g>
</g>
<!-- Node1&#45;&gt;Node3 -->
<g id="edge2" class="edge">
<title>Node1&#45;&gt;Node3</title>
<path fill="none" stroke="#191970" d="M158.712,-70.6996C169.8972,-59.0669 182.4059,-46.0578 191.8194,-36.2679"/>
<polygon fill="#191970" stroke="#191970" points="156.0068,-68.4632 151.5986,-78.0974 161.0527,-73.315 156.0068,-68.4632"/>
</g>
</g>
</svg>
