<?xml version="1.0" encoding="UTF-8" standalone="no"?>
<!DOCTYPE svg PUBLIC "-//W3C//DTD SVG 1.1//EN"
 "http://www.w3.org/Graphics/SVG/1.1/DTD/svg11.dtd">
<!-- Generated by graphviz version 2.40.1 (20161225.0304)
 -->
<!-- Title: pred_nlms_copy Pages: 1 -->
<svg width="1384pt" height="90pt"
 viewBox="0.00 0.00 1384.00 89.64" xmlns="http://www.w3.org/2000/svg" xmlns:xlink="http://www.w3.org/1999/xlink">
<g id="graph0" class="graph" transform="scale(1 1) rotate(0) translate(4 85.6371)">
<title>pred_nlms_copy</title>
<!-- Node4 -->
<g id="node1" class="node">
<title>Node4</title>
<polygon fill="#bfbfbf" stroke="#000000" points="0,-24.1371 0,-43.1371 88,-43.1371 88,-24.1371 0,-24.1371"/>
<text text-anchor="middle" x="44" y="-31.1371" font-family="Helvetica,sans-Serif" font-size="10.00" fill="#000000">pred_nlms_copy</text>
</g>
<!-- Node5 -->
<g id="node2" class="node">
<title>Node5</title>
<g id="a_node2"><a xlink:href="pred__nlms_8c.html#a6821aa2339db542232df02a312836b6c" target="_top" xlink:title="pred_nlms_init">
<polygon fill="none" stroke="#000000" points="124,-24.1371 124,-43.1371 204,-43.1371 204,-24.1371 124,-24.1371"/>
<text text-anchor="middle" x="164" y="-31.1371" font-family="Helvetica,sans-Serif" font-size="10.00" fill="#000000">pred_nlms_init</text>
</a>
</g>
</g>
<!-- Node4&#45;&gt;Node5 -->
<g id="edge1" class="edge">
<title>Node4&#45;&gt;Node5</title>
<path fill="none" stroke="#191970" d="M88.0022,-33.6371C96.3719,-33.6371 105.1896,-33.6371 113.7365,-33.6371"/>
<polygon fill="#191970" stroke="#191970" points="113.9792,-37.1372 123.9792,-33.6371 113.9792,-30.1372 113.9792,-37.1372"/>
</g>
<!-- Node6 -->
<g id="node3" class="node">
<title>Node6</title>
<g id="a_node3"><a xlink:href="blas_8c.html#a95eb315efef08b5eb4694c3ca6bfe633" target="_top" xlink:title="Fills the vector X with the value ALPHA. ">
<polygon fill="none" stroke="#000000" points="241.5,-62.1371 241.5,-81.1371 291.5,-81.1371 291.5,-62.1371 241.5,-62.1371"/>
<text text-anchor="middle" x="266.5" y="-69.1371" font-family="Helvetica,sans-Serif" font-size="10.00" fill="#000000">blas_fill</text>
</a>
</g>
</g>
<!-- Node5&#45;&gt;Node6 -->
<g id="edge2" class="edge">
<title>Node5&#45;&gt;Node6</title>
<path fill="none" stroke="#191970" d="M189.8651,-43.2261C202.5594,-47.9323 218.0335,-53.6691 231.7446,-58.7522"/>
<polygon fill="#191970" stroke="#191970" points="230.7588,-62.1194 241.3519,-62.3139 233.1921,-55.556 230.7588,-62.1194"/>
</g>
<!-- Node7 -->
<g id="node4" class="node">
<title>Node7</title>
<g id="a_node4"><a xlink:href="sam_8c.html#a3164f33509a5dc751b57a544fe2153a7" target="_top" xlink:title="Initialises self&#45;adaptive mutation rates. ">
<polygon fill="none" stroke="#000000" points="240,-24.1371 240,-43.1371 293,-43.1371 293,-24.1371 240,-24.1371"/>
<text text-anchor="middle" x="266.5" y="-31.1371" font-family="Helvetica,sans-Serif" font-size="10.00" fill="#000000">sam_init</text>
</a>
</g>
</g>
<!-- Node5&#45;&gt;Node7 -->
<g id="edge3" class="edge">
<title>Node5&#45;&gt;Node7</title>
<path fill="none" stroke="#191970" d="M204.2165,-33.6371C212.6557,-33.6371 221.5139,-33.6371 229.8159,-33.6371"/>
<polygon fill="#191970" stroke="#191970" points="229.9611,-37.1372 239.961,-33.6371 229.961,-30.1372 229.9611,-37.1372"/>
</g>
<!-- Node9 -->
<g id="node6" class="node">
<title>Node9</title>
<g id="a_node6"><a xlink:href="utils_8c.html#ae42a9e1d467853befaa7922cfafed3bb" target="_top" xlink:title="Returns a uniform random float [min,max]. ">
<polygon fill="none" stroke="#000000" points="626,-24.1371 626,-43.1371 699,-43.1371 699,-24.1371 626,-24.1371"/>
<text text-anchor="middle" x="662.5" y="-31.1371" font-family="Helvetica,sans-Serif" font-size="10.00" fill="#000000">rand_uniform</text>
</a>
</g>
</g>
<!-- Node5&#45;&gt;Node9 -->
<g id="edge14" class="edge">
<title>Node5&#45;&gt;Node9</title>
<path fill="none" stroke="#191970" d="M194.7372,-24.1318C208.4449,-20.3676 224.8815,-16.4983 240,-14.6371 394.3901,4.3692 435.72,5.2432 590,-14.6371 600.9533,-16.0485 612.6128,-18.6125 623.3063,-21.4098"/>
<polygon fill="#191970" stroke="#191970" points="622.6382,-24.8559 633.2083,-24.133 624.4945,-18.1065 622.6382,-24.8559"/>
</g>
<!-- Node8 -->
<g id="node5" class="node">
<title>Node8</title>
<g id="a_node5"><a xlink:href="sam_8c.html#a3376574f2624a397ac253242b1958491" target="_top" xlink:title="Initialises log normal self&#45;adaptive mutation rates. ">
<polygon fill="none" stroke="#000000" points="484,-62.1371 484,-81.1371 590,-81.1371 590,-62.1371 484,-62.1371"/>
<text text-anchor="middle" x="537" y="-69.1371" font-family="Helvetica,sans-Serif" font-size="10.00" fill="#000000">sam_log_normal_init</text>
</a>
</g>
</g>
<!-- Node7&#45;&gt;Node8 -->
<g id="edge4" class="edge">
<title>Node7&#45;&gt;Node8</title>
<path fill="none" stroke="#191970" d="M293.2682,-43.0873C304.2182,-46.607 317.0907,-50.3083 329,-52.6371 376.8985,-62.0034 431.9265,-66.7729 473.3471,-69.1901"/>
<polygon fill="#191970" stroke="#191970" points="473.394,-72.698 483.5719,-69.7554 473.7804,-65.7087 473.394,-72.698"/>
</g>
<!-- Node15 -->
<g id="node12" class="node">
<title>Node15</title>
<g id="a_node12"><a xlink:href="sam_8c.html#a5c510f09cd5f6069b67e1b9a59df7acc" target="_top" xlink:title="Initialises rate selection self&#45;adaptive mutation. ">
<polygon fill="none" stroke="#000000" points="329,-24.1371 329,-43.1371 448,-43.1371 448,-24.1371 329,-24.1371"/>
<text text-anchor="middle" x="388.5" y="-31.1371" font-family="Helvetica,sans-Serif" font-size="10.00" fill="#000000">sam_rate_selection_init</text>
</a>
</g>
</g>
<!-- Node7&#45;&gt;Node15 -->
<g id="edge11" class="edge">
<title>Node7&#45;&gt;Node15</title>
<path fill="none" stroke="#191970" d="M293.2734,-33.6371C300.9178,-33.6371 309.6225,-33.6371 318.5897,-33.6371"/>
<polygon fill="#191970" stroke="#191970" points="318.783,-37.1372 328.783,-33.6371 318.783,-30.1372 318.783,-37.1372"/>
</g>
<!-- Node8&#45;&gt;Node9 -->
<g id="edge5" class="edge">
<title>Node8&#45;&gt;Node9</title>
<path fill="none" stroke="#191970" d="M568.6689,-62.0481C584.5725,-57.2327 604.0396,-51.3383 621.1114,-46.1691"/>
<polygon fill="#191970" stroke="#191970" points="622.2846,-49.4709 630.8412,-43.223 620.256,-42.7713 622.2846,-49.4709"/>
</g>
<!-- Node10 -->
<g id="node7" class="node">
<title>Node10</title>
<g id="a_node7"><a xlink:href="utils_8c.html#a101d27cdda714b7f17a06224c65cac56" target="_top" xlink:title="Returns a uniform random float (0,1) ">
<polygon fill="none" stroke="#000000" points="735,-24.1371 735,-43.1371 776,-43.1371 776,-24.1371 735,-24.1371"/>
<text text-anchor="middle" x="755.5" y="-31.1371" font-family="Helvetica,sans-Serif" font-size="10.00" fill="#000000">drand</text>
</a>
</g>
</g>
<!-- Node9&#45;&gt;Node10 -->
<g id="edge6" class="edge">
<title>Node9&#45;&gt;Node10</title>
<path fill="none" stroke="#191970" d="M699.2561,-33.6371C707.658,-33.6371 716.5043,-33.6371 724.63,-33.6371"/>
<polygon fill="#191970" stroke="#191970" points="724.799,-37.1372 734.7989,-33.6371 724.7989,-30.1372 724.799,-37.1372"/>
</g>
<!-- Node11 -->
<g id="node8" class="node">
<title>Node11</title>
<g id="a_node8"><a xlink:href="dSFMT_8h.html#af6dbcef408462da1f40edd1a1ea5dcd3" target="_top" xlink:title="dsfmt_gv_genrand_open_open">
<polygon fill="none" stroke="#000000" points="812,-24.1371 812,-43.1371 961,-43.1371 961,-24.1371 812,-24.1371"/>
<text text-anchor="middle" x="886.5" y="-31.1371" font-family="Helvetica,sans-Serif" font-size="10.00" fill="#000000">dsfmt_gv_genrand_open_open</text>
</a>
</g>
</g>
<!-- Node10&#45;&gt;Node11 -->
<g id="edge7" class="edge">
<title>Node10&#45;&gt;Node11</title>
<path fill="none" stroke="#191970" d="M776.2573,-33.6371C783.5688,-33.6371 792.3051,-33.6371 801.6156,-33.6371"/>
<polygon fill="#191970" stroke="#191970" points="801.9038,-37.1372 811.9037,-33.6371 801.9037,-30.1372 801.9038,-37.1372"/>
</g>
<!-- Node12 -->
<g id="node9" class="node">
<title>Node12</title>
<g id="a_node9"><a xlink:href="dSFMT_8h.html#a147a0a05c969a4cb5d92ce3963b839c2" target="_top" xlink:title="dsfmt_genrand_open_open">
<polygon fill="none" stroke="#000000" points="997,-24.1371 997,-43.1371 1131,-43.1371 1131,-24.1371 997,-24.1371"/>
<text text-anchor="middle" x="1064" y="-31.1371" font-family="Helvetica,sans-Serif" font-size="10.00" fill="#000000">dsfmt_genrand_open_open</text>
</a>
</g>
</g>
<!-- Node11&#45;&gt;Node12 -->
<g id="edge8" class="edge">
<title>Node11&#45;&gt;Node12</title>
<path fill="none" stroke="#191970" d="M961.0045,-33.6371C969.4355,-33.6371 978.0427,-33.6371 986.5109,-33.6371"/>
<polygon fill="#191970" stroke="#191970" points="986.7501,-37.1372 996.75,-33.6371 986.75,-30.1372 986.7501,-37.1372"/>
</g>
<!-- Node13 -->
<g id="node10" class="node">
<title>Node13</title>
<g id="a_node10"><a xlink:href="dSFMT_8h.html#afccb1e4d75cea7ffe3b45cba53d1e5e0" target="_top" xlink:title="dsfmt_gen_rand_all">
<polygon fill="none" stroke="#000000" points="1167,-24.1371 1167,-43.1371 1268,-43.1371 1268,-24.1371 1167,-24.1371"/>
<text text-anchor="middle" x="1217.5" y="-31.1371" font-family="Helvetica,sans-Serif" font-size="10.00" fill="#000000">dsfmt_gen_rand_all</text>
</a>
</g>
</g>
<!-- Node12&#45;&gt;Node13 -->
<g id="edge9" class="edge">
<title>Node12&#45;&gt;Node13</title>
<path fill="none" stroke="#191970" d="M1131.3273,-33.6371C1139.8031,-33.6371 1148.4345,-33.6371 1156.7997,-33.6371"/>
<polygon fill="#191970" stroke="#191970" points="1156.8429,-37.1372 1166.8429,-33.6371 1156.8428,-30.1372 1156.8429,-37.1372"/>
</g>
<!-- Node14 -->
<g id="node11" class="node">
<title>Node14</title>
<g id="a_node11"><a xlink:href="dSFMT-common_8h.html#a43e33e2235015c9c072bad7dfe1a282c" target="_top" xlink:title="do_recursion">
<polygon fill="none" stroke="#000000" points="1304,-24.1371 1304,-43.1371 1376,-43.1371 1376,-24.1371 1304,-24.1371"/>
<text text-anchor="middle" x="1340" y="-31.1371" font-family="Helvetica,sans-Serif" font-size="10.00" fill="#000000">do_recursion</text>
</a>
</g>
</g>
<!-- Node13&#45;&gt;Node14 -->
<g id="edge10" class="edge">
<title>Node13&#45;&gt;Node14</title>
<path fill="none" stroke="#191970" d="M1268.0327,-33.6371C1276.5603,-33.6371 1285.3741,-33.6371 1293.7846,-33.6371"/>
<polygon fill="#191970" stroke="#191970" points="1293.7975,-37.1372 1303.7974,-33.6371 1293.7974,-30.1372 1293.7975,-37.1372"/>
</g>
<!-- Node16 -->
<g id="node13" class="node">
<title>Node16</title>
<g id="a_node13"><a xlink:href="utils_8c.html#a32648ab076544a9ac1c086d0f07b599f" target="_top" xlink:title="Returns a uniform random integer [min,max] not inclusive of max. ">
<polygon fill="none" stroke="#000000" points="499.5,-24.1371 499.5,-43.1371 574.5,-43.1371 574.5,-24.1371 499.5,-24.1371"/>
<text text-anchor="middle" x="537" y="-31.1371" font-family="Helvetica,sans-Serif" font-size="10.00" fill="#000000">irand_uniform</text>
</a>
</g>
</g>
<!-- Node15&#45;&gt;Node16 -->
<g id="edge12" class="edge">
<title>Node15&#45;&gt;Node16</title>
<path fill="none" stroke="#191970" d="M448.045,-33.6371C461.6704,-33.6371 475.9841,-33.6371 489.05,-33.6371"/>
<polygon fill="#191970" stroke="#191970" points="489.2241,-37.1372 499.2241,-33.6371 489.2241,-30.1372 489.2241,-37.1372"/>
</g>
<!-- Node16&#45;&gt;Node9 -->
<g id="edge13" class="edge">
<title>Node16&#45;&gt;Node9</title>
<path fill="none" stroke="#191970" d="M574.6541,-33.6371C587.542,-33.6371 602.1208,-33.6371 615.6451,-33.6371"/>
<polygon fill="#191970" stroke="#191970" points="615.7361,-37.1372 625.7361,-33.6371 615.7361,-30.1372 615.7361,-37.1372"/>
</g>
</g>
</svg>
