<?xml version="1.0" encoding="UTF-8" standalone="no"?>
<!DOCTYPE svg PUBLIC "-//W3C//DTD SVG 1.1//EN"
 "http://www.w3.org/Graphics/SVG/1.1/DTD/svg11.dtd">
<!-- Generated by graphviz version 2.40.1 (20161225.0304)
 -->
<!-- Title: pred_update Pages: 1 -->
<svg width="881pt" height="256pt"
 viewBox="0.00 0.00 881.00 256.00" xmlns="http://www.w3.org/2000/svg" xmlns:xlink="http://www.w3.org/1999/xlink">
<g id="graph0" class="graph" transform="scale(1 1) rotate(0) translate(4 252)">
<title>pred_update</title>
<!-- Node188 -->
<g id="node1" class="node">
<title>Node188</title>
<polygon fill="#bfbfbf" stroke="#000000" points="0,-171.5 0,-190.5 70,-190.5 70,-171.5 0,-171.5"/>
<text text-anchor="middle" x="35" y="-178.5" font-family="Helvetica,sans-Serif" font-size="10.00" fill="#000000">pred_update</text>
</g>
<!-- Node189 -->
<g id="node2" class="node">
<title>Node189</title>
<g id="a_node2"><a xlink:href="cl_8h.html#ad3ef5eea9801c3b8c38ad8e5e2141dc0" target="_top" xlink:title="Updates the classifier&#39;s parameters as well as condition, action, and prediction depending on the kno...">
<polygon fill="none" stroke="#000000" points="106,-171.5 106,-190.5 165,-190.5 165,-171.5 106,-171.5"/>
<text text-anchor="middle" x="135.5" y="-178.5" font-family="Helvetica,sans-Serif" font-size="10.00" fill="#000000">cl_update</text>
</a>
</g>
</g>
<!-- Node188&#45;&gt;Node189 -->
<g id="edge1" class="edge">
<title>Node188&#45;&gt;Node189</title>
<path fill="none" stroke="#191970" d="M80.2089,-181C88.9113,-181 97.8174,-181 105.8691,-181"/>
<polygon fill="#191970" stroke="#191970" points="80.1501,-177.5001 70.15,-181 80.15,-184.5001 80.1501,-177.5001"/>
</g>
<!-- Node190 -->
<g id="node3" class="node">
<title>Node190</title>
<g id="a_node3"><a xlink:href="clset_8h.html#add82b1503285b43b57b320ea3ef78a85" target="_top" xlink:title="Provides reinforcement to the set and performs set subsumption. ">
<polygon fill="none" stroke="#000000" points="201,-171.5 201,-190.5 273,-190.5 273,-171.5 201,-171.5"/>
<text text-anchor="middle" x="237" y="-178.5" font-family="Helvetica,sans-Serif" font-size="10.00" fill="#000000">clset_update</text>
</a>
</g>
</g>
<!-- Node189&#45;&gt;Node190 -->
<g id="edge2" class="edge">
<title>Node189&#45;&gt;Node190</title>
<path fill="none" stroke="#191970" d="M175.3956,-181C183.7292,-181 192.4725,-181 200.6686,-181"/>
<polygon fill="#191970" stroke="#191970" points="175.1309,-177.5001 165.1309,-181 175.1308,-184.5001 175.1309,-177.5001"/>
</g>
<!-- Node191 -->
<g id="node4" class="node">
<title>Node191</title>
<g id="a_node4"><a xlink:href="xcs__multi__step_8c.html#ad50c415970b4bfc42f469fb38c5e68fa" target="_top" xlink:title="Executes a multi&#45;step trial using a built&#45;in environment. ">
<polygon fill="none" stroke="#000000" points="318,-218.5 318,-237.5 398,-237.5 398,-218.5 318,-218.5"/>
<text text-anchor="middle" x="358" y="-225.5" font-family="Helvetica,sans-Serif" font-size="10.00" fill="#000000">xcs_multi_trial</text>
</a>
</g>
</g>
<!-- Node190&#45;&gt;Node191 -->
<g id="edge3" class="edge">
<title>Node190&#45;&gt;Node191</title>
<path fill="none" stroke="#191970" d="M271.0373,-194.2211C290.7789,-201.8893 315.2021,-211.376 333.135,-218.3417"/>
<polygon fill="#191970" stroke="#191970" points="272.0749,-190.8694 261.4862,-190.5112 269.5404,-197.3945 272.0749,-190.8694"/>
</g>
<!-- Node194 -->
<g id="node7" class="node">
<title>Node194</title>
<g id="a_node7"><a xlink:href="xcs__single__step_8h.html#a0ff6b521f66224d56ef0e6f50f5781b9" target="_top" xlink:title="Creates the action set, updates the classifiers and runs the EA. ">
<polygon fill="none" stroke="#000000" points="309,-171.5 309,-190.5 407,-190.5 407,-171.5 309,-171.5"/>
<text text-anchor="middle" x="358" y="-178.5" font-family="Helvetica,sans-Serif" font-size="10.00" fill="#000000">xcs_single_update</text>
</a>
</g>
</g>
<!-- Node190&#45;&gt;Node194 -->
<g id="edge6" class="edge">
<title>Node190&#45;&gt;Node194</title>
<path fill="none" stroke="#191970" d="M283.5202,-181C291.7802,-181 300.4081,-181 308.741,-181"/>
<polygon fill="#191970" stroke="#191970" points="283.304,-177.5001 273.304,-181 283.304,-184.5001 283.304,-177.5001"/>
</g>
<!-- Node199 -->
<g id="node12" class="node">
<title>Node199</title>
<g id="a_node12"><a xlink:href="xcsf_8c.html#af5fb604e81235fdcb2ed8925d9291f59" target="_top" xlink:title="Executes a single XCSF trial. ">
<polygon fill="none" stroke="#000000" points="330,-57.5 330,-76.5 386,-76.5 386,-57.5 330,-57.5"/>
<text text-anchor="middle" x="358" y="-64.5" font-family="Helvetica,sans-Serif" font-size="10.00" fill="#000000">xcsf_trial</text>
</a>
</g>
</g>
<!-- Node190&#45;&gt;Node199 -->
<g id="edge12" class="edge">
<title>Node190&#45;&gt;Node199</title>
<path fill="none" stroke="#191970" d="M254.8653,-164.1683C280.5558,-139.9639 327.1038,-96.1088 347.7097,-76.695"/>
<polygon fill="#191970" stroke="#191970" points="252.1948,-161.8755 247.3164,-171.2804 256.995,-166.9705 252.1948,-161.8755"/>
</g>
<!-- Node192 -->
<g id="node5" class="node">
<title>Node192</title>
<g id="a_node5"><a xlink:href="xcs__multi__step_8h.html#acc29d4a55dbd56c16ea5f19f15a7c677" target="_top" xlink:title="Executes a multi&#45;step reinforcement learning experiment. ">
<polygon fill="none" stroke="#000000" points="585,-228.5 585,-247.5 689,-247.5 689,-228.5 585,-228.5"/>
<text text-anchor="middle" x="637" y="-235.5" font-family="Helvetica,sans-Serif" font-size="10.00" fill="#000000">xcs_multi_step_exp</text>
</a>
</g>
</g>
<!-- Node191&#45;&gt;Node192 -->
<g id="edge4" class="edge">
<title>Node191&#45;&gt;Node192</title>
<path fill="none" stroke="#191970" d="M408.5047,-229.8102C458.4046,-231.5987 534.3872,-234.3221 584.8508,-236.1309"/>
<polygon fill="#191970" stroke="#191970" points="408.39,-226.3039 398.271,-229.4434 408.1392,-233.2994 408.39,-226.3039"/>
</g>
<!-- Node193 -->
<g id="node6" class="node">
<title>Node193</title>
<g id="a_node6"><a xlink:href="main_8c.html#a3c04138a5bfe5d72780bb7e82a18e627" target="_top" xlink:title="main">
<polygon fill="none" stroke="#000000" points="781,-190.5 781,-209.5 819,-209.5 819,-190.5 781,-190.5"/>
<text text-anchor="middle" x="800" y="-197.5" font-family="Helvetica,sans-Serif" font-size="10.00" fill="#000000">main</text>
</a>
</g>
</g>
<!-- Node192&#45;&gt;Node193 -->
<g id="edge5" class="edge">
<title>Node192&#45;&gt;Node193</title>
<path fill="none" stroke="#191970" d="M688.0525,-226.0982C719.4599,-218.7762 757.9128,-209.8117 780.6012,-204.5224"/>
<polygon fill="#191970" stroke="#191970" points="687.076,-222.7319 678.1318,-228.411 688.6653,-229.5491 687.076,-222.7319"/>
</g>
<!-- Node195 -->
<g id="node8" class="node">
<title>Node195</title>
<g id="a_node8"><a xlink:href="structXCS.html#aedc01ad6f00a54b260a7605929a1d4c9" target="_top" xlink:title="XCS::single_update">
<polygon fill="none" stroke="#000000" points="443,-152.5 443,-171.5 547,-171.5 547,-152.5 443,-152.5"/>
<text text-anchor="middle" x="495" y="-159.5" font-family="Helvetica,sans-Serif" font-size="10.00" fill="#000000">XCS::single_update</text>
</a>
</g>
</g>
<!-- Node194&#45;&gt;Node195 -->
<g id="edge7" class="edge">
<title>Node194&#45;&gt;Node195</title>
<path fill="none" stroke="#191970" d="M417.2254,-172.7863C425.6549,-171.6172 434.2753,-170.4217 442.5632,-169.2723"/>
<polygon fill="#191970" stroke="#191970" points="416.4976,-169.3536 407.0732,-174.1942 417.4592,-176.2873 416.4976,-169.3536"/>
</g>
<!-- Node197 -->
<g id="node10" class="node">
<title>Node197</title>
<g id="a_node10"><a xlink:href="xcs__single__step_8c.html#a536ab4256e871e31959ea6e907455340" target="_top" xlink:title="Executes a single&#45;step trial using a built&#45;in environment. ">
<polygon fill="none" stroke="#000000" points="453,-190.5 453,-209.5 537,-209.5 537,-190.5 453,-190.5"/>
<text text-anchor="middle" x="495" y="-197.5" font-family="Helvetica,sans-Serif" font-size="10.00" fill="#000000">xcs_single_trial</text>
</a>
</g>
</g>
<!-- Node194&#45;&gt;Node197 -->
<g id="edge9" class="edge">
<title>Node194&#45;&gt;Node197</title>
<path fill="none" stroke="#191970" d="M417.0069,-189.1834C428.9825,-190.8443 441.3528,-192.5599 452.6154,-194.1218"/>
<polygon fill="#191970" stroke="#191970" points="417.4592,-185.7128 407.0732,-187.8058 416.4976,-192.6464 417.4592,-185.7128"/>
</g>
<!-- Node196 -->
<g id="node9" class="node">
<title>Node196</title>
<g id="a_node9"><a xlink:href="python__wrapper_8cpp.html#afbdcc1358036a0b83a6b239da2b098a2" target="_top" xlink:title="BOOST_PYTHON_MODULE">
<polygon fill="none" stroke="#000000" points="727,-57.5 727,-76.5 873,-76.5 873,-57.5 727,-57.5"/>
<text text-anchor="middle" x="800" y="-64.5" font-family="Helvetica,sans-Serif" font-size="10.00" fill="#000000">BOOST_PYTHON_MODULE</text>
</a>
</g>
</g>
<!-- Node195&#45;&gt;Node196 -->
<g id="edge8" class="edge">
<title>Node195&#45;&gt;Node196</title>
<path fill="none" stroke="#191970" d="M539.5475,-149.7635C579.4055,-138.6446 639.3418,-121.5037 691,-105 719.4442,-95.9127 751.7024,-84.5307 773.6992,-76.6036"/>
<polygon fill="#191970" stroke="#191970" points="538.5605,-146.405 529.8639,-152.4565 540.4361,-153.1491 538.5605,-146.405"/>
</g>
<!-- Node198 -->
<g id="node11" class="node">
<title>Node198</title>
<g id="a_node11"><a xlink:href="xcs__single__step_8h.html#a39a031bf59eaa9b33e30e614610dcda8" target="_top" xlink:title="Executes a single&#45;step reinforcement learning experiment. ">
<polygon fill="none" stroke="#000000" points="583,-190.5 583,-209.5 691,-209.5 691,-190.5 583,-190.5"/>
<text text-anchor="middle" x="637" y="-197.5" font-family="Helvetica,sans-Serif" font-size="10.00" fill="#000000">xcs_single_step_exp</text>
</a>
</g>
</g>
<!-- Node197&#45;&gt;Node198 -->
<g id="edge10" class="edge">
<title>Node197&#45;&gt;Node198</title>
<path fill="none" stroke="#191970" d="M547.551,-200C559.0539,-200 571.2511,-200 582.8166,-200"/>
<polygon fill="#191970" stroke="#191970" points="547.2203,-196.5001 537.2202,-200 547.2202,-203.5001 547.2203,-196.5001"/>
</g>
<!-- Node198&#45;&gt;Node193 -->
<g id="edge11" class="edge">
<title>Node198&#45;&gt;Node193</title>
<path fill="none" stroke="#191970" d="M701.611,-200C730.0891,-200 761.4445,-200 780.9303,-200"/>
<polygon fill="#191970" stroke="#191970" points="701.2767,-196.5001 691.2766,-200 701.2766,-203.5001 701.2767,-196.5001"/>
</g>
<!-- Node200 -->
<g id="node13" class="node">
<title>Node200</title>
<g id="a_node13"><a xlink:href="xcsf_8h.html#aee465caea59599a71fc69528598156cb" target="_top" xlink:title="Executes MAX_TRIALS number of XCSF learning iterations using the training. data and test iterations u...">
<polygon fill="none" stroke="#000000" points="470.5,-76.5 470.5,-95.5 519.5,-95.5 519.5,-76.5 470.5,-76.5"/>
<text text-anchor="middle" x="495" y="-83.5" font-family="Helvetica,sans-Serif" font-size="10.00" fill="#000000">xcsf_fit</text>
</a>
</g>
</g>
<!-- Node199&#45;&gt;Node200 -->
<g id="edge13" class="edge">
<title>Node199&#45;&gt;Node200</title>
<path fill="none" stroke="#191970" d="M396.1185,-72.2865C419.7972,-75.5704 449.5501,-79.6967 470.2027,-82.561"/>
<polygon fill="#191970" stroke="#191970" points="396.4406,-68.7978 386.0546,-70.8908 395.479,-75.7314 396.4406,-68.7978"/>
</g>
<!-- Node202 -->
<g id="node15" class="node">
<title>Node202</title>
<g id="a_node15"><a xlink:href="xcsf_8h.html#af128a7da769acabe2e841e8d06749b0b" target="_top" xlink:title="Calculates the XCSF predictions for the provided input. ">
<polygon fill="none" stroke="#000000" points="460,-38.5 460,-57.5 530,-57.5 530,-38.5 460,-38.5"/>
<text text-anchor="middle" x="495" y="-45.5" font-family="Helvetica,sans-Serif" font-size="10.00" fill="#000000">xcsf_predict</text>
</a>
</g>
</g>
<!-- Node199&#45;&gt;Node202 -->
<g id="edge17" class="edge">
<title>Node199&#45;&gt;Node202</title>
<path fill="none" stroke="#191970" d="M396.064,-61.721C416.0542,-58.9487 440.385,-55.5743 459.9157,-52.8657"/>
<polygon fill="#191970" stroke="#191970" points="395.479,-58.2686 386.0546,-63.1092 396.4406,-65.2022 395.479,-58.2686"/>
</g>
<!-- Node204 -->
<g id="node17" class="node">
<title>Node204</title>
<g id="a_node17"><a xlink:href="xcsf_8h.html#a348b8cd321211c377fb1deedc62c7c67" target="_top" xlink:title="Calculates the XCSF error for the input data. ">
<polygon fill="none" stroke="#000000" points="462.5,-.5 462.5,-19.5 527.5,-19.5 527.5,-.5 462.5,-.5"/>
<text text-anchor="middle" x="495" y="-7.5" font-family="Helvetica,sans-Serif" font-size="10.00" fill="#000000">xcsf_score</text>
</a>
</g>
</g>
<!-- Node199&#45;&gt;Node204 -->
<g id="edge20" class="edge">
<title>Node199&#45;&gt;Node204</title>
<path fill="none" stroke="#191970" d="M387.9163,-53.0094C404.1046,-45.5955 424.5173,-36.4974 443,-29 451.016,-25.7484 459.8227,-22.4347 467.8735,-19.5046"/>
<polygon fill="#191970" stroke="#191970" points="386.0541,-50.0138 378.4377,-57.3787 388.9845,-56.3709 386.0541,-50.0138"/>
</g>
<!-- Node200&#45;&gt;Node193 -->
<g id="edge14" class="edge">
<title>Node200&#45;&gt;Node193</title>
<path fill="none" stroke="#191970" d="M529.3792,-98.8499C593.6984,-122.8906 730.2779,-173.94 780.7389,-192.8008"/>
<polygon fill="#191970" stroke="#191970" points="530.2936,-95.4553 519.7011,-95.2325 527.8427,-102.0122 530.2936,-95.4553"/>
</g>
<!-- Node201 -->
<g id="node14" class="node">
<title>Node201</title>
<g id="a_node14"><a xlink:href="structXCS.html#ad2ccafe59d2b4ae6d0e1cbc15edee53c" target="_top" xlink:title="XCS::fit">
<polygon fill="none" stroke="#000000" points="611,-76.5 611,-95.5 663,-95.5 663,-76.5 611,-76.5"/>
<text text-anchor="middle" x="637" y="-83.5" font-family="Helvetica,sans-Serif" font-size="10.00" fill="#000000">XCS::fit</text>
</a>
</g>
</g>
<!-- Node200&#45;&gt;Node201 -->
<g id="edge15" class="edge">
<title>Node200&#45;&gt;Node201</title>
<path fill="none" stroke="#191970" d="M529.8735,-86C554.8145,-86 587.8634,-86 610.6237,-86"/>
<polygon fill="#191970" stroke="#191970" points="529.7345,-82.5001 519.7345,-86 529.7345,-89.5001 529.7345,-82.5001"/>
</g>
<!-- Node201&#45;&gt;Node196 -->
<g id="edge16" class="edge">
<title>Node201&#45;&gt;Node196</title>
<path fill="none" stroke="#191970" d="M673.5233,-81.7427C689.2717,-79.907 708.2822,-77.691 726.7251,-75.5412"/>
<polygon fill="#191970" stroke="#191970" points="672.7163,-78.313 663.1888,-82.9473 673.5268,-85.2659 672.7163,-78.313"/>
</g>
<!-- Node203 -->
<g id="node16" class="node">
<title>Node203</title>
<g id="a_node16"><a xlink:href="structXCS.html#a911ed75c86abed7807d33eb1385240ed" target="_top" xlink:title="XCS::predict">
<polygon fill="none" stroke="#000000" points="600.5,-38.5 600.5,-57.5 673.5,-57.5 673.5,-38.5 600.5,-38.5"/>
<text text-anchor="middle" x="637" y="-45.5" font-family="Helvetica,sans-Serif" font-size="10.00" fill="#000000">XCS::predict</text>
</a>
</g>
</g>
<!-- Node202&#45;&gt;Node203 -->
<g id="edge18" class="edge">
<title>Node202&#45;&gt;Node203</title>
<path fill="none" stroke="#191970" d="M540.2292,-48C559.6223,-48 581.9834,-48 600.3219,-48"/>
<polygon fill="#191970" stroke="#191970" points="540.1012,-44.5001 530.1011,-48 540.1011,-51.5001 540.1012,-44.5001"/>
</g>
<!-- Node203&#45;&gt;Node196 -->
<g id="edge19" class="edge">
<title>Node203&#45;&gt;Node196</title>
<path fill="none" stroke="#191970" d="M683.5613,-53.4274C697.0572,-55.0005 712.1298,-56.7575 726.8365,-58.4717"/>
<polygon fill="#191970" stroke="#191970" points="683.9184,-49.9454 673.5804,-52.264 683.1079,-56.8983 683.9184,-49.9454"/>
</g>
<!-- Node205 -->
<g id="node18" class="node">
<title>Node205</title>
<g id="a_node18"><a xlink:href="structXCS.html#aa77bc77484d6d14bf512304a23cfec88" target="_top" xlink:title="XCS::score">
<polygon fill="none" stroke="#000000" points="603,-.5 603,-19.5 671,-19.5 671,-.5 603,-.5"/>
<text text-anchor="middle" x="637" y="-7.5" font-family="Helvetica,sans-Serif" font-size="10.00" fill="#000000">XCS::score</text>
</a>
</g>
</g>
<!-- Node204&#45;&gt;Node205 -->
<g id="edge21" class="edge">
<title>Node204&#45;&gt;Node205</title>
<path fill="none" stroke="#191970" d="M537.7215,-10C558.4707,-10 583.0715,-10 602.5932,-10"/>
<polygon fill="#191970" stroke="#191970" points="537.5777,-6.5001 527.5777,-10 537.5776,-13.5001 537.5777,-6.5001"/>
</g>
<!-- Node205&#45;&gt;Node196 -->
<g id="edge22" class="edge">
<title>Node205&#45;&gt;Node196</title>
<path fill="none" stroke="#191970" d="M673.9708,-22.9285C703.9626,-33.4164 745.5636,-47.9639 772.6285,-57.4284"/>
<polygon fill="#191970" stroke="#191970" points="674.8774,-19.5377 664.2825,-19.5405 672.5667,-26.1453 674.8774,-19.5377"/>
</g>
</g>
</svg>
