<?xml version="1.0" encoding="UTF-8" standalone="no"?>
<!DOCTYPE svg PUBLIC "-//W3C//DTD SVG 1.1//EN"
 "http://www.w3.org/Graphics/SVG/1.1/DTD/svg11.dtd">
<!-- Generated by graphviz version 2.40.1 (20161225.0304)
 -->
<!-- Title: pred_update Pages: 1 -->
<svg width="874pt" height="218pt"
 viewBox="0.00 0.00 874.00 218.00" xmlns="http://www.w3.org/2000/svg" xmlns:xlink="http://www.w3.org/1999/xlink">
<g id="graph0" class="graph" transform="scale(1 1) rotate(0) translate(4 214)">
<title>pred_update</title>
<!-- Node193 -->
<g id="node1" class="node">
<title>Node193</title>
<polygon fill="#bfbfbf" stroke="#000000" points="0,-133.5 0,-152.5 70,-152.5 70,-133.5 0,-133.5"/>
<text text-anchor="middle" x="35" y="-140.5" font-family="Helvetica,sans-Serif" font-size="10.00" fill="#000000">pred_update</text>
</g>
<!-- Node194 -->
<g id="node2" class="node">
<title>Node194</title>
<g id="a_node2"><a xlink:href="cl_8h.html#ae53336b60c1a03b8faa06c11979ce91e" target="_top" xlink:title="Updates the classifier&#39;s parameters as well as condition, action, and prediction depending on the kno...">
<polygon fill="none" stroke="#000000" points="106,-133.5 106,-152.5 165,-152.5 165,-133.5 106,-133.5"/>
<text text-anchor="middle" x="135.5" y="-140.5" font-family="Helvetica,sans-Serif" font-size="10.00" fill="#000000">cl_update</text>
</a>
</g>
</g>
<!-- Node193&#45;&gt;Node194 -->
<g id="edge1" class="edge">
<title>Node193&#45;&gt;Node194</title>
<path fill="none" stroke="#191970" d="M80.2089,-143C88.9113,-143 97.8174,-143 105.8691,-143"/>
<polygon fill="#191970" stroke="#191970" points="80.1501,-139.5001 70.15,-143 80.15,-146.5001 80.1501,-139.5001"/>
</g>
<!-- Node195 -->
<g id="node3" class="node">
<title>Node195</title>
<g id="a_node3"><a xlink:href="cl__set_8h.html#a0993c66e2751530b39449164017d6654" target="_top" xlink:title="Provides reinforcement to the set and performs set subsumption. ">
<polygon fill="none" stroke="#000000" points="201,-133.5 201,-152.5 266,-152.5 266,-133.5 201,-133.5"/>
<text text-anchor="middle" x="233.5" y="-140.5" font-family="Helvetica,sans-Serif" font-size="10.00" fill="#000000">set_update</text>
</a>
</g>
</g>
<!-- Node194&#45;&gt;Node195 -->
<g id="edge2" class="edge">
<title>Node194&#45;&gt;Node195</title>
<path fill="none" stroke="#191970" d="M175.2748,-143C183.7751,-143 192.6596,-143 200.8547,-143"/>
<polygon fill="#191970" stroke="#191970" points="175.1692,-139.5001 165.1692,-143 175.1691,-146.5001 175.1692,-139.5001"/>
</g>
<!-- Node196 -->
<g id="node4" class="node">
<title>Node196</title>
<g id="a_node4"><a xlink:href="xcs__multi__step_8c.html#a1e1c2a3094be715b468dda79cd59ebf3" target="_top" xlink:title="Executes a multi&#45;step trial using a built&#45;in environment. ">
<polygon fill="none" stroke="#000000" points="311,-180.5 311,-199.5 391,-199.5 391,-180.5 311,-180.5"/>
<text text-anchor="middle" x="351" y="-187.5" font-family="Helvetica,sans-Serif" font-size="10.00" fill="#000000">xcs_multi_trial</text>
</a>
</g>
</g>
<!-- Node195&#45;&gt;Node196 -->
<g id="edge3" class="edge">
<title>Node195&#45;&gt;Node196</title>
<path fill="none" stroke="#191970" d="M266.8157,-156.3263C285.9397,-163.9759 309.5196,-173.4078 326.8542,-180.3417"/>
<polygon fill="#191970" stroke="#191970" points="267.8625,-152.9754 257.2779,-152.5112 265.2628,-159.4748 267.8625,-152.9754"/>
</g>
<!-- Node199 -->
<g id="node7" class="node">
<title>Node199</title>
<g id="a_node7"><a xlink:href="xcs__single__step_8h.html#aff4aec035e4573993a7906569f2028f5" target="_top" xlink:title="Creates the action set, updates the classifiers and runs the EA. ">
<polygon fill="none" stroke="#000000" points="302,-133.5 302,-152.5 400,-152.5 400,-133.5 302,-133.5"/>
<text text-anchor="middle" x="351" y="-140.5" font-family="Helvetica,sans-Serif" font-size="10.00" fill="#000000">xcs_single_update</text>
</a>
</g>
</g>
<!-- Node195&#45;&gt;Node199 -->
<g id="edge6" class="edge">
<title>Node195&#45;&gt;Node199</title>
<path fill="none" stroke="#191970" d="M276.3769,-143C284.6204,-143 293.3146,-143 301.7413,-143"/>
<polygon fill="#191970" stroke="#191970" points="276.2303,-139.5001 266.2303,-143 276.2303,-146.5001 276.2303,-139.5001"/>
</g>
<!-- Node204 -->
<g id="node12" class="node">
<title>Node204</title>
<g id="a_node12"><a xlink:href="xcsf_8c.html#a474f4e13cfc5f00958c689cd8c81135a" target="_top" xlink:title="Executes a single XCSF learning trial. ">
<polygon fill="none" stroke="#000000" points="309.5,-57.5 309.5,-76.5 392.5,-76.5 392.5,-57.5 309.5,-57.5"/>
<text text-anchor="middle" x="351" y="-64.5" font-family="Helvetica,sans-Serif" font-size="10.00" fill="#000000">xcsf_learn_trial</text>
</a>
</g>
</g>
<!-- Node195&#45;&gt;Node204 -->
<g id="edge12" class="edge">
<title>Node195&#45;&gt;Node204</title>
<path fill="none" stroke="#191970" d="M256.7786,-127.9432C280.4042,-112.662 316.2619,-89.4689 336.2394,-76.5473"/>
<polygon fill="#191970" stroke="#191970" points="254.8773,-125.0046 248.3815,-133.3745 258.679,-130.8823 254.8773,-125.0046"/>
</g>
<!-- Node197 -->
<g id="node5" class="node">
<title>Node197</title>
<g id="a_node5"><a xlink:href="xcs__multi__step_8h.html#acc29d4a55dbd56c16ea5f19f15a7c677" target="_top" xlink:title="Executes a multi&#45;step reinforcement learning experiment. ">
<polygon fill="none" stroke="#000000" points="578,-190.5 578,-209.5 682,-209.5 682,-190.5 578,-190.5"/>
<text text-anchor="middle" x="630" y="-197.5" font-family="Helvetica,sans-Serif" font-size="10.00" fill="#000000">xcs_multi_step_exp</text>
</a>
</g>
</g>
<!-- Node196&#45;&gt;Node197 -->
<g id="edge4" class="edge">
<title>Node196&#45;&gt;Node197</title>
<path fill="none" stroke="#191970" d="M401.5047,-191.8102C451.4046,-193.5987 527.3872,-196.3221 577.8508,-198.1309"/>
<polygon fill="#191970" stroke="#191970" points="401.39,-188.3039 391.271,-191.4434 401.1392,-195.2994 401.39,-188.3039"/>
</g>
<!-- Node198 -->
<g id="node6" class="node">
<title>Node198</title>
<g id="a_node6"><a xlink:href="main_8c.html#a3c04138a5bfe5d72780bb7e82a18e627" target="_top" xlink:title="main">
<polygon fill="none" stroke="#000000" points="774,-152.5 774,-171.5 812,-171.5 812,-152.5 774,-152.5"/>
<text text-anchor="middle" x="793" y="-159.5" font-family="Helvetica,sans-Serif" font-size="10.00" fill="#000000">main</text>
</a>
</g>
</g>
<!-- Node197&#45;&gt;Node198 -->
<g id="edge5" class="edge">
<title>Node197&#45;&gt;Node198</title>
<path fill="none" stroke="#191970" d="M681.0525,-188.0982C712.4599,-180.7762 750.9128,-171.8117 773.6012,-166.5224"/>
<polygon fill="#191970" stroke="#191970" points="680.076,-184.7319 671.1318,-190.411 681.6653,-191.5491 680.076,-184.7319"/>
</g>
<!-- Node200 -->
<g id="node8" class="node">
<title>Node200</title>
<g id="a_node8"><a xlink:href="structXCS.html#aedc01ad6f00a54b260a7605929a1d4c9" target="_top" xlink:title="XCS::single_update">
<polygon fill="none" stroke="#000000" points="436,-114.5 436,-133.5 540,-133.5 540,-114.5 436,-114.5"/>
<text text-anchor="middle" x="488" y="-121.5" font-family="Helvetica,sans-Serif" font-size="10.00" fill="#000000">XCS::single_update</text>
</a>
</g>
</g>
<!-- Node199&#45;&gt;Node200 -->
<g id="edge7" class="edge">
<title>Node199&#45;&gt;Node200</title>
<path fill="none" stroke="#191970" d="M410.2254,-134.7863C418.6549,-133.6172 427.2753,-132.4217 435.5632,-131.2723"/>
<polygon fill="#191970" stroke="#191970" points="409.4976,-131.3536 400.0732,-136.1942 410.4592,-138.2873 409.4976,-131.3536"/>
</g>
<!-- Node202 -->
<g id="node10" class="node">
<title>Node202</title>
<g id="a_node10"><a xlink:href="xcs__single__step_8c.html#a3d1fd2472d35310800aed897219a65af" target="_top" xlink:title="Executes a single&#45;step trial using a built&#45;in environment. ">
<polygon fill="none" stroke="#000000" points="446,-152.5 446,-171.5 530,-171.5 530,-152.5 446,-152.5"/>
<text text-anchor="middle" x="488" y="-159.5" font-family="Helvetica,sans-Serif" font-size="10.00" fill="#000000">xcs_single_trial</text>
</a>
</g>
</g>
<!-- Node199&#45;&gt;Node202 -->
<g id="edge9" class="edge">
<title>Node199&#45;&gt;Node202</title>
<path fill="none" stroke="#191970" d="M410.0069,-151.1834C421.9825,-152.8443 434.3528,-154.5599 445.6154,-156.1218"/>
<polygon fill="#191970" stroke="#191970" points="410.4592,-147.7128 400.0732,-149.8058 409.4976,-154.6464 410.4592,-147.7128"/>
</g>
<!-- Node201 -->
<g id="node9" class="node">
<title>Node201</title>
<g id="a_node9"><a xlink:href="python__wrapper_8cpp.html#afbdcc1358036a0b83a6b239da2b098a2" target="_top" xlink:title="BOOST_PYTHON_MODULE">
<polygon fill="none" stroke="#000000" points="720,-57.5 720,-76.5 866,-76.5 866,-57.5 720,-57.5"/>
<text text-anchor="middle" x="793" y="-64.5" font-family="Helvetica,sans-Serif" font-size="10.00" fill="#000000">BOOST_PYTHON_MODULE</text>
</a>
</g>
</g>
<!-- Node200&#45;&gt;Node201 -->
<g id="edge8" class="edge">
<title>Node200&#45;&gt;Node201</title>
<path fill="none" stroke="#191970" d="M548.945,-112.6103C605.5512,-102.0314 688.8787,-86.4587 742.0378,-76.5241"/>
<polygon fill="#191970" stroke="#191970" points="548.237,-109.1819 539.0501,-114.4595 549.523,-116.0628 548.237,-109.1819"/>
</g>
<!-- Node203 -->
<g id="node11" class="node">
<title>Node203</title>
<g id="a_node11"><a xlink:href="xcs__single__step_8h.html#a39a031bf59eaa9b33e30e614610dcda8" target="_top" xlink:title="Executes a single&#45;step experiment. ">
<polygon fill="none" stroke="#000000" points="576,-152.5 576,-171.5 684,-171.5 684,-152.5 576,-152.5"/>
<text text-anchor="middle" x="630" y="-159.5" font-family="Helvetica,sans-Serif" font-size="10.00" fill="#000000">xcs_single_step_exp</text>
</a>
</g>
</g>
<!-- Node202&#45;&gt;Node203 -->
<g id="edge10" class="edge">
<title>Node202&#45;&gt;Node203</title>
<path fill="none" stroke="#191970" d="M540.551,-162C552.0539,-162 564.2511,-162 575.8166,-162"/>
<polygon fill="#191970" stroke="#191970" points="540.2203,-158.5001 530.2202,-162 540.2202,-165.5001 540.2203,-158.5001"/>
</g>
<!-- Node203&#45;&gt;Node198 -->
<g id="edge11" class="edge">
<title>Node203&#45;&gt;Node198</title>
<path fill="none" stroke="#191970" d="M694.611,-162C723.0891,-162 754.4445,-162 773.9303,-162"/>
<polygon fill="#191970" stroke="#191970" points="694.2767,-158.5001 684.2766,-162 694.2766,-165.5001 694.2767,-158.5001"/>
</g>
<!-- Node205 -->
<g id="node13" class="node">
<title>Node205</title>
<g id="a_node13"><a xlink:href="xcsf_8h.html#a874829f28fee20f9ad15b540f4b4d6ff" target="_top" xlink:title="Executes MAX_TRIALS number of XCSF learning iterations using the training data. ">
<polygon fill="none" stroke="#000000" points="461,-10.5 461,-29.5 515,-29.5 515,-10.5 461,-10.5"/>
<text text-anchor="middle" x="488" y="-17.5" font-family="Helvetica,sans-Serif" font-size="10.00" fill="#000000">xcsf_fit1</text>
</a>
</g>
</g>
<!-- Node204&#45;&gt;Node205 -->
<g id="edge13" class="edge">
<title>Node204&#45;&gt;Node205</title>
<path fill="none" stroke="#191970" d="M388.4515,-54.1517C411.3317,-46.3022 440.0738,-36.4418 460.7848,-29.3366"/>
<polygon fill="#191970" stroke="#191970" points="387.0471,-50.9332 378.724,-57.4888 389.3186,-57.5544 387.0471,-50.9332"/>
</g>
<!-- Node207 -->
<g id="node15" class="node">
<title>Node207</title>
<g id="a_node15"><a xlink:href="xcsf_8h.html#a0b4de57cb9dadc9deca7901aa36e5025" target="_top" xlink:title="Executes MAX_TRIALS number of XCSF learning iterations using the training. data and test iterations u...">
<polygon fill="none" stroke="#000000" points="461,-57.5 461,-76.5 515,-76.5 515,-57.5 461,-57.5"/>
<text text-anchor="middle" x="488" y="-64.5" font-family="Helvetica,sans-Serif" font-size="10.00" fill="#000000">xcsf_fit2</text>
</a>
</g>
</g>
<!-- Node204&#45;&gt;Node207 -->
<g id="edge16" class="edge">
<title>Node204&#45;&gt;Node207</title>
<path fill="none" stroke="#191970" d="M402.9115,-67C422.5628,-67 444.1522,-67 460.6669,-67"/>
<polygon fill="#191970" stroke="#191970" points="402.849,-63.5001 392.8489,-67 402.8489,-70.5001 402.849,-63.5001"/>
</g>
<!-- Node206 -->
<g id="node14" class="node">
<title>Node206</title>
<g id="a_node14"><a xlink:href="structXCS.html#ad2ccafe59d2b4ae6d0e1cbc15edee53c" target="_top" xlink:title="XCS::fit">
<polygon fill="none" stroke="#000000" points="604,-.5 604,-19.5 656,-19.5 656,-.5 604,-.5"/>
<text text-anchor="middle" x="630" y="-7.5" font-family="Helvetica,sans-Serif" font-size="10.00" fill="#000000">XCS::fit</text>
</a>
</g>
</g>
<!-- Node205&#45;&gt;Node206 -->
<g id="edge14" class="edge">
<title>Node205&#45;&gt;Node206</title>
<path fill="none" stroke="#191970" d="M525.1114,-17.3865C549.7321,-15.6527 581.4557,-13.4186 603.538,-11.8635"/>
<polygon fill="#191970" stroke="#191970" points="524.7727,-13.9016 515.0434,-18.0955 525.2646,-20.8843 524.7727,-13.9016"/>
</g>
<!-- Node206&#45;&gt;Node201 -->
<g id="edge15" class="edge">
<title>Node206&#45;&gt;Node201</title>
<path fill="none" stroke="#191970" d="M665.8957,-22.5525C696.0205,-33.0869 738.4042,-47.9082 765.7892,-57.4846"/>
<polygon fill="#191970" stroke="#191970" points="666.7836,-19.1552 656.1888,-19.158 664.4729,-25.7628 666.7836,-19.1552"/>
</g>
<!-- Node207&#45;&gt;Node198 -->
<g id="edge17" class="edge">
<title>Node207&#45;&gt;Node198</title>
<path fill="none" stroke="#191970" d="M524.9399,-78.5059C590.2604,-98.8516 723.9534,-140.4937 773.7475,-156.0033"/>
<polygon fill="#191970" stroke="#191970" points="525.6552,-75.0629 515.0667,-75.4306 523.5734,-81.7462 525.6552,-75.0629"/>
</g>
<!-- Node208 -->
<g id="node16" class="node">
<title>Node208</title>
<g id="a_node16"><a xlink:href="structXCS.html#a7d53320740db8e846251bacd0238a9fb" target="_top" xlink:title="XCS::fit">
<polygon fill="none" stroke="#000000" points="604,-38.5 604,-57.5 656,-57.5 656,-38.5 604,-38.5"/>
<text text-anchor="middle" x="630" y="-45.5" font-family="Helvetica,sans-Serif" font-size="10.00" fill="#000000">XCS::fit</text>
</a>
</g>
</g>
<!-- Node207&#45;&gt;Node208 -->
<g id="edge18" class="edge">
<title>Node207&#45;&gt;Node208</title>
<path fill="none" stroke="#191970" d="M525.1114,-62.0344C549.7321,-58.7401 581.4557,-54.4954 603.538,-51.5407"/>
<polygon fill="#191970" stroke="#191970" points="524.4908,-58.5861 515.0434,-63.3815 525.4192,-65.5243 524.4908,-58.5861"/>
</g>
</g>
</svg>
