<?xml version="1.0" encoding="UTF-8" standalone="no"?>
<!DOCTYPE svg PUBLIC "-//W3C//DTD SVG 1.1//EN"
 "http://www.w3.org/Graphics/SVG/1.1/DTD/svg11.dtd">
<!-- Generated by graphviz version 2.40.1 (20161225.0304)
 -->
<!-- Title: prediction_set Pages: 1 -->
<svg width="1067pt" height="347pt"
 viewBox="0.00 0.00 1067.00 346.65" xmlns="http://www.w3.org/2000/svg" xmlns:xlink="http://www.w3.org/1999/xlink">
<g id="graph0" class="graph" transform="scale(1 1) rotate(0) translate(4 342.6457)">
<title>prediction_set</title>
<!-- Node215 -->
<g id="node1" class="node">
<title>Node215</title>
<polygon fill="#bfbfbf" stroke="#000000" points="0,-209.5 0,-228.5 77,-228.5 77,-209.5 0,-209.5"/>
<text text-anchor="middle" x="38.5" y="-216.5" font-family="Helvetica,sans-Serif" font-size="10.00" fill="#000000">prediction_set</text>
</g>
<!-- Node216 -->
<g id="node2" class="node">
<title>Node216</title>
<g id="a_node2"><a xlink:href="cl_8h.html#a619c0c3f1c27d0d069f59be58a898007" target="_top" xlink:title="Reads the classifier from a binary file. ">
<polygon fill="none" stroke="#000000" points="113.5,-256.5 113.5,-275.5 160.5,-275.5 160.5,-256.5 113.5,-256.5"/>
<text text-anchor="middle" x="137" y="-263.5" font-family="Helvetica,sans-Serif" font-size="10.00" fill="#000000">cl_load</text>
</a>
</g>
</g>
<!-- Node215&#45;&gt;Node216 -->
<g id="edge1" class="edge">
<title>Node215&#45;&gt;Node216</title>
<path fill="none" stroke="#191970" d="M67.7605,-232.9619C83.5442,-240.4932 102.627,-249.5987 116.7586,-256.3417"/>
<polygon fill="#191970" stroke="#191970" points="68.9654,-229.6588 58.4329,-228.5112 65.9509,-235.9765 68.9654,-229.6588"/>
</g>
<!-- Node224 -->
<g id="node10" class="node">
<title>Node224</title>
<g id="a_node10"><a xlink:href="cl_8h.html#a5c1f93d94c386004e38c02f6d7d19004" target="_top" xlink:title="Initialises random actions, conditions and predictions. ">
<polygon fill="none" stroke="#000000" points="113,-190.5 113,-209.5 161,-209.5 161,-190.5 113,-190.5"/>
<text text-anchor="middle" x="137" y="-197.5" font-family="Helvetica,sans-Serif" font-size="10.00" fill="#000000">cl_rand</text>
</a>
</g>
</g>
<!-- Node215&#45;&gt;Node224 -->
<g id="edge10" class="edge">
<title>Node215&#45;&gt;Node224</title>
<path fill="none" stroke="#191970" d="M87.1877,-209.6085C96.146,-207.8805 105.1292,-206.1477 112.9514,-204.6388"/>
<polygon fill="#191970" stroke="#191970" points="86.3032,-206.2145 77.1471,-211.5452 87.629,-213.0878 86.3032,-206.2145"/>
</g>
<!-- Node217 -->
<g id="node3" class="node">
<title>Node217</title>
<g id="a_node3"><a xlink:href="cl__set_8h.html#a488209fe1e7dc1ef3d09d9aa94340329" target="_top" xlink:title="Reads the population set from a binary file. ">
<polygon fill="none" stroke="#000000" points="197,-313.5 197,-332.5 253,-332.5 253,-313.5 197,-313.5"/>
<text text-anchor="middle" x="225" y="-320.5" font-family="Helvetica,sans-Serif" font-size="10.00" fill="#000000">pop_load</text>
</a>
</g>
</g>
<!-- Node216&#45;&gt;Node217 -->
<g id="edge2" class="edge">
<title>Node216&#45;&gt;Node217</title>
<path fill="none" stroke="#191970" d="M160.6317,-281.3069C176.4428,-291.5482 196.7563,-304.7058 210.2925,-313.4735"/>
<polygon fill="#191970" stroke="#191970" points="162.2239,-278.1682 151.928,-275.6693 158.4184,-284.0434 162.2239,-278.1682"/>
</g>
<!-- Node218 -->
<g id="node4" class="node">
<title>Node218</title>
<g id="a_node4"><a xlink:href="xcsf_8h.html#a70e6ae30c7d4e471009c4611255ed873" target="_top" xlink:title="Reads the state of XCSF from a binary file. ">
<polygon fill="none" stroke="#000000" points="643.5,-304.5 643.5,-323.5 702.5,-323.5 702.5,-304.5 643.5,-304.5"/>
<text text-anchor="middle" x="673" y="-311.5" font-family="Helvetica,sans-Serif" font-size="10.00" fill="#000000">xcsf_load</text>
</a>
</g>
</g>
<!-- Node217&#45;&gt;Node218 -->
<g id="edge3" class="edge">
<title>Node217&#45;&gt;Node218</title>
<path fill="none" stroke="#191970" d="M263.5992,-327.3747C329.2138,-334.0755 466.6146,-344.9172 582,-333 602.7095,-330.8611 625.6546,-326.0533 643.3236,-321.8095"/>
<polygon fill="#191970" stroke="#191970" points="263.6347,-323.8594 253.3245,-326.2988 262.9055,-330.8213 263.6347,-323.8594"/>
</g>
<!-- Node219 -->
<g id="node5" class="node">
<title>Node219</title>
<g id="a_node5"><a xlink:href="main_8c.html#a968c78da8ed8ad08662a86280deec99a" target="_top" xlink:title="regression">
<polygon fill="none" stroke="#000000" points="789.5,-190.5 789.5,-209.5 851.5,-209.5 851.5,-190.5 789.5,-190.5"/>
<text text-anchor="middle" x="820.5" y="-197.5" font-family="Helvetica,sans-Serif" font-size="10.00" fill="#000000">regression</text>
</a>
</g>
</g>
<!-- Node218&#45;&gt;Node219 -->
<g id="edge4" class="edge">
<title>Node218&#45;&gt;Node219</title>
<path fill="none" stroke="#191970" d="M712.3514,-304.7818C718.0261,-302.2601 723.4689,-299.0593 728,-295 755.8384,-270.0608 736.0594,-243.8246 764,-219 771.1175,-212.6763 780.4163,-208.4439 789.4093,-205.6164"/>
<polygon fill="#191970" stroke="#191970" points="710.8267,-301.616 702.7021,-308.4161 713.294,-308.1668 710.8267,-301.616"/>
</g>
<!-- Node221 -->
<g id="node7" class="node">
<title>Node221</title>
<g id="a_node7"><a xlink:href="main_8c.html#ab572a67aa431827116ebd6931d667d21" target="_top" xlink:title="classification">
<polygon fill="none" stroke="#000000" points="783.5,-228.5 783.5,-247.5 857.5,-247.5 857.5,-228.5 783.5,-228.5"/>
<text text-anchor="middle" x="820.5" y="-235.5" font-family="Helvetica,sans-Serif" font-size="10.00" fill="#000000">classification</text>
</a>
</g>
</g>
<!-- Node218&#45;&gt;Node221 -->
<g id="edge6" class="edge">
<title>Node218&#45;&gt;Node221</title>
<path fill="none" stroke="#191970" d="M712.1884,-301.6537C717.5764,-299.6126 722.9787,-297.3789 728,-295 757.4911,-281.0282 789.366,-259.9094 806.9349,-247.6838"/>
<polygon fill="#191970" stroke="#191970" points="710.814,-298.4285 702.5911,-305.1094 713.1855,-305.0146 710.814,-298.4285"/>
</g>
<!-- Node222 -->
<g id="node8" class="node">
<title>Node222</title>
<g id="a_node8"><a xlink:href="structXCS.html#adc9b621f2b7a306fbf381dd0efaf268b" target="_top" xlink:title="XCS::load">
<polygon fill="none" stroke="#000000" points="789.5,-285.5 789.5,-304.5 851.5,-304.5 851.5,-285.5 789.5,-285.5"/>
<text text-anchor="middle" x="820.5" y="-292.5" font-family="Helvetica,sans-Serif" font-size="10.00" fill="#000000">XCS::load</text>
</a>
</g>
</g>
<!-- Node218&#45;&gt;Node222 -->
<g id="edge8" class="edge">
<title>Node218&#45;&gt;Node222</title>
<path fill="none" stroke="#191970" d="M713.0719,-308.8382C737.1003,-305.743 767.2027,-301.8654 789.4246,-299.0029"/>
<polygon fill="#191970" stroke="#191970" points="712.3197,-305.4061 702.8488,-310.1551 713.2141,-312.3487 712.3197,-305.4061"/>
</g>
<!-- Node220 -->
<g id="node6" class="node">
<title>Node220</title>
<g id="a_node6"><a xlink:href="main_8c.html#a3c04138a5bfe5d72780bb7e82a18e627" target="_top" xlink:title="main">
<polygon fill="none" stroke="#000000" points="967,-209.5 967,-228.5 1005,-228.5 1005,-209.5 967,-209.5"/>
<text text-anchor="middle" x="986" y="-216.5" font-family="Helvetica,sans-Serif" font-size="10.00" fill="#000000">main</text>
</a>
</g>
</g>
<!-- Node219&#45;&gt;Node220 -->
<g id="edge5" class="edge">
<title>Node219&#45;&gt;Node220</title>
<path fill="none" stroke="#191970" d="M861.6335,-204.7223C895.2693,-208.5838 941.3073,-213.8691 966.8863,-216.8057"/>
<polygon fill="#191970" stroke="#191970" points="861.9633,-201.2372 851.6293,-203.5738 861.1648,-208.1915 861.9633,-201.2372"/>
</g>
<!-- Node221&#45;&gt;Node220 -->
<g id="edge7" class="edge">
<title>Node221&#45;&gt;Node220</title>
<path fill="none" stroke="#191970" d="M867.9722,-232.55C900.8892,-228.771 942.9689,-223.9401 966.9621,-221.1856"/>
<polygon fill="#191970" stroke="#191970" points="867.177,-229.1182 857.6414,-233.736 867.9754,-236.0726 867.177,-229.1182"/>
</g>
<!-- Node223 -->
<g id="node9" class="node">
<title>Node223</title>
<g id="a_node9"><a xlink:href="python__wrapper_8cpp.html#afbdcc1358036a0b83a6b239da2b098a2" target="_top" xlink:title="BOOST_PYTHON_MODULE">
<polygon fill="none" stroke="#000000" points="913,-76.5 913,-95.5 1059,-95.5 1059,-76.5 913,-76.5"/>
<text text-anchor="middle" x="986" y="-83.5" font-family="Helvetica,sans-Serif" font-size="10.00" fill="#000000">BOOST_PYTHON_MODULE</text>
</a>
</g>
</g>
<!-- Node222&#45;&gt;Node223 -->
<g id="edge9" class="edge">
<title>Node222&#45;&gt;Node223</title>
<path fill="none" stroke="#191970" d="M847.5054,-280.0669C857.4754,-273.7611 868.4224,-265.8279 877,-257 897.8802,-235.5105 896.921,-225.2832 913,-200 937.5929,-161.3293 967.0758,-115.4264 979.7299,-95.7465"/>
<polygon fill="#191970" stroke="#191970" points="845.466,-277.2099 838.72,-285.3795 849.0882,-283.1999 845.466,-277.2099"/>
</g>
<!-- Node225 -->
<g id="node11" class="node">
<title>Node225</title>
<g id="a_node11"><a xlink:href="cl_8h.html#a42adb85e78d1f9af3dbd53cd9e9ae0fd" target="_top" xlink:title="Covers the condition and action for a classifier. ">
<polygon fill="none" stroke="#000000" points="198.5,-190.5 198.5,-209.5 251.5,-209.5 251.5,-190.5 198.5,-190.5"/>
<text text-anchor="middle" x="225" y="-197.5" font-family="Helvetica,sans-Serif" font-size="10.00" fill="#000000">cl_cover</text>
</a>
</g>
</g>
<!-- Node224&#45;&gt;Node225 -->
<g id="edge11" class="edge">
<title>Node224&#45;&gt;Node225</title>
<path fill="none" stroke="#191970" d="M171.2027,-200C180.1587,-200 189.6852,-200 198.1938,-200"/>
<polygon fill="#191970" stroke="#191970" points="171.0464,-196.5001 161.0464,-200 171.0464,-203.5001 171.0464,-196.5001"/>
</g>
<!-- Node246 -->
<g id="node32" class="node">
<title>Node246</title>
<g id="a_node32"><a xlink:href="cl__set_8h.html#a1e1060f1e8c1f916d798864804078e88" target="_top" xlink:title="Initialises a new population set. ">
<polygon fill="none" stroke="#000000" points="648,-190.5 648,-209.5 698,-209.5 698,-190.5 648,-190.5"/>
<text text-anchor="middle" x="673" y="-197.5" font-family="Helvetica,sans-Serif" font-size="10.00" fill="#000000">pop_init</text>
</a>
</g>
</g>
<!-- Node224&#45;&gt;Node246 -->
<g id="edge42" class="edge">
<title>Node224&#45;&gt;Node246</title>
<path fill="none" stroke="#191970" d="M170.5735,-188.6317C206.6747,-177.4359 265.9728,-162 318.5,-162 318.5,-162 318.5,-162 415,-162 501.2487,-162 602.0014,-183.0423 647.9122,-193.8101"/>
<polygon fill="#191970" stroke="#191970" points="169.5035,-185.2992 161.0311,-191.6607 171.6214,-191.9711 169.5035,-185.2992"/>
</g>
<!-- Node226 -->
<g id="node12" class="node">
<title>Node226</title>
<g id="a_node12"><a xlink:href="cl__set_8c.html#aa4b74b698e7491734e4788fcfae8e27a" target="_top" xlink:title="Ensures all possible actions are covered by the match set. ">
<polygon fill="none" stroke="#000000" points="289,-190.5 289,-209.5 348,-209.5 348,-190.5 289,-190.5"/>
<text text-anchor="middle" x="318.5" y="-197.5" font-family="Helvetica,sans-Serif" font-size="10.00" fill="#000000">set_cover</text>
</a>
</g>
</g>
<!-- Node225&#45;&gt;Node226 -->
<g id="edge12" class="edge">
<title>Node225&#45;&gt;Node226</title>
<path fill="none" stroke="#191970" d="M261.7906,-200C270.7947,-200 280.3157,-200 288.9321,-200"/>
<polygon fill="#191970" stroke="#191970" points="261.5433,-196.5001 251.5432,-200 261.5432,-203.5001 261.5433,-196.5001"/>
</g>
<!-- Node227 -->
<g id="node13" class="node">
<title>Node227</title>
<g id="a_node13"><a xlink:href="cl__set_8h.html#af3bea0b4d03654b9d6cb08fbf272c847" target="_top" xlink:title="Constructs the match set. ">
<polygon fill="none" stroke="#000000" points="384,-190.5 384,-209.5 446,-209.5 446,-190.5 384,-190.5"/>
<text text-anchor="middle" x="415" y="-197.5" font-family="Helvetica,sans-Serif" font-size="10.00" fill="#000000">set_match</text>
</a>
</g>
</g>
<!-- Node226&#45;&gt;Node227 -->
<g id="edge13" class="edge">
<title>Node226&#45;&gt;Node227</title>
<path fill="none" stroke="#191970" d="M358.3634,-200C366.8689,-200 375.733,-200 383.8545,-200"/>
<polygon fill="#191970" stroke="#191970" points="358.2406,-196.5001 348.2406,-200 358.2406,-203.5001 358.2406,-196.5001"/>
</g>
<!-- Node228 -->
<g id="node14" class="node">
<title>Node228</title>
<g id="a_node14"><a xlink:href="xcs__multi__step_8c.html#a7c317faec2f018cc620fe5e465ebf378" target="_top" xlink:title="Executes a multi&#45;step exploit trial. ">
<polygon fill="none" stroke="#000000" points="486,-228.5 486,-247.5 578,-247.5 578,-228.5 486,-228.5"/>
<text text-anchor="middle" x="532" y="-235.5" font-family="Helvetica,sans-Serif" font-size="10.00" fill="#000000">xcs_multi_exploit</text>
</a>
</g>
</g>
<!-- Node227&#45;&gt;Node228 -->
<g id="edge14" class="edge">
<title>Node227&#45;&gt;Node228</title>
<path fill="none" stroke="#191970" d="M454.0424,-212.6804C469.8509,-217.8148 487.7989,-223.6441 502.4854,-228.4141"/>
<polygon fill="#191970" stroke="#191970" points="455.1162,-209.3493 444.524,-209.589 452.9538,-216.0069 455.1162,-209.3493"/>
</g>
<!-- Node230 -->
<g id="node16" class="node">
<title>Node230</title>
<g id="a_node16"><a xlink:href="xcs__multi__step_8c.html#a617d9e432dc180dccf0c5ef11a94f79f" target="_top" xlink:title="Executes a multi&#45;step explore trial. ">
<polygon fill="none" stroke="#000000" points="484.5,-190.5 484.5,-209.5 579.5,-209.5 579.5,-190.5 484.5,-190.5"/>
<text text-anchor="middle" x="532" y="-197.5" font-family="Helvetica,sans-Serif" font-size="10.00" fill="#000000">xcs_multi_explore</text>
</a>
</g>
</g>
<!-- Node227&#45;&gt;Node230 -->
<g id="edge17" class="edge">
<title>Node227&#45;&gt;Node230</title>
<path fill="none" stroke="#191970" d="M456.0859,-200C465.2629,-200 475.0689,-200 484.4815,-200"/>
<polygon fill="#191970" stroke="#191970" points="456.0467,-196.5001 446.0467,-200 456.0466,-203.5001 456.0467,-196.5001"/>
</g>
<!-- Node231 -->
<g id="node17" class="node">
<title>Node231</title>
<g id="a_node17"><a xlink:href="xcs__single__step_8c.html#aab16ce2421e484a5dc7cb2a60a74517a" target="_top" xlink:title="Executes a single&#45;step exploit trial. ">
<polygon fill="none" stroke="#000000" points="483.5,-304.5 483.5,-323.5 580.5,-323.5 580.5,-304.5 483.5,-304.5"/>
<text text-anchor="middle" x="532" y="-311.5" font-family="Helvetica,sans-Serif" font-size="10.00" fill="#000000">xcs_single_exploit</text>
</a>
</g>
</g>
<!-- Node227&#45;&gt;Node231 -->
<g id="edge19" class="edge">
<title>Node227&#45;&gt;Node231</title>
<path fill="none" stroke="#191970" d="M423.7455,-218.4627C434.6454,-239.6584 455.157,-274.1736 482,-295 486.9157,-298.8139 492.6832,-301.9329 498.5199,-304.4595"/>
<polygon fill="#191970" stroke="#191970" points="426.8807,-216.9067 419.3031,-209.5019 420.6091,-220.016 426.8807,-216.9067"/>
</g>
<!-- Node233 -->
<g id="node19" class="node">
<title>Node233</title>
<g id="a_node19"><a xlink:href="xcs__single__step_8c.html#a7aa49a74bb28adda31400d94a29c2b0b" target="_top" xlink:title="Executes a single&#45;step explore trial. ">
<polygon fill="none" stroke="#000000" points="482,-266.5 482,-285.5 582,-285.5 582,-266.5 482,-266.5"/>
<text text-anchor="middle" x="532" y="-273.5" font-family="Helvetica,sans-Serif" font-size="10.00" fill="#000000">xcs_single_explore</text>
</a>
</g>
</g>
<!-- Node227&#45;&gt;Node233 -->
<g id="edge22" class="edge">
<title>Node227&#45;&gt;Node233</title>
<path fill="none" stroke="#191970" d="M431.3568,-216.7321C444.2131,-229.1485 463.0583,-245.7988 482,-257 488.1547,-260.6396 495.1305,-263.8087 501.8765,-266.461"/>
<polygon fill="#191970" stroke="#191970" points="433.7504,-214.1768 424.1785,-209.6348 428.8288,-219.1546 433.7504,-214.1768"/>
</g>
<!-- Node234 -->
<g id="node20" class="node">
<title>Node234</title>
<g id="a_node20"><a xlink:href="xcsf_8c.html#a474f4e13cfc5f00958c689cd8c81135a" target="_top" xlink:title="Executes a single XCSF learning trial. ">
<polygon fill="none" stroke="#000000" points="490.5,-114.5 490.5,-133.5 573.5,-133.5 573.5,-114.5 490.5,-114.5"/>
<text text-anchor="middle" x="532" y="-121.5" font-family="Helvetica,sans-Serif" font-size="10.00" fill="#000000">xcsf_learn_trial</text>
</a>
</g>
</g>
<!-- Node227&#45;&gt;Node234 -->
<g id="edge24" class="edge">
<title>Node227&#45;&gt;Node234</title>
<path fill="none" stroke="#191970" d="M438.4912,-184.7408C462.0189,-169.4578 497.4973,-146.412 517.3022,-133.5473"/>
<polygon fill="#191970" stroke="#191970" points="436.2976,-181.992 429.8181,-190.3745 440.1108,-187.8623 436.2976,-181.992"/>
</g>
<!-- Node239 -->
<g id="node25" class="node">
<title>Node239</title>
<g id="a_node25"><a xlink:href="xcsf_8h.html#af0b9db7273578fdff649d46823cd9790" target="_top" xlink:title="Calculates the XCSF predictions for the provided input. ">
<polygon fill="none" stroke="#000000" points="497,-.5 497,-19.5 567,-19.5 567,-.5 497,-.5"/>
<text text-anchor="middle" x="532" y="-7.5" font-family="Helvetica,sans-Serif" font-size="10.00" fill="#000000">xcsf_predict</text>
</a>
</g>
</g>
<!-- Node227&#45;&gt;Node239 -->
<g id="edge31" class="edge">
<title>Node227&#45;&gt;Node239</title>
<path fill="none" stroke="#191970" d="M418.1409,-180.4674C424.5065,-146.6605 441.8837,-76.7653 482,-34 487.7312,-27.8903 495.3417,-23.1615 502.8922,-19.5806"/>
<polygon fill="#191970" stroke="#191970" points="414.669,-180.003 416.3873,-190.4576 421.5636,-181.2133 414.669,-180.003"/>
</g>
<!-- Node241 -->
<g id="node27" class="node">
<title>Node241</title>
<g id="a_node27"><a xlink:href="xcsf_8h.html#ae1f6851f682e015601030a5c725c6618" target="_top" xlink:title="Prints the XCSF match set for the supplied input. ">
<polygon fill="none" stroke="#000000" points="618,-38.5 618,-57.5 728,-57.5 728,-38.5 618,-38.5"/>
<text text-anchor="middle" x="673" y="-45.5" font-family="Helvetica,sans-Serif" font-size="10.00" fill="#000000">xcsf_print_match_set</text>
</a>
</g>
</g>
<!-- Node227&#45;&gt;Node241 -->
<g id="edge34" class="edge">
<title>Node227&#45;&gt;Node241</title>
<path fill="none" stroke="#191970" d="M418.7594,-180.0906C425.5816,-150.0289 443.0657,-93.7307 482,-67 521.4222,-39.9343 576.6631,-37.2418 617.6014,-40.1022"/>
<polygon fill="#191970" stroke="#191970" points="415.2641,-179.7066 416.6443,-190.2111 422.1161,-181.1386 415.2641,-179.7066"/>
</g>
<!-- Node243 -->
<g id="node29" class="node">
<title>Node243</title>
<g id="a_node29"><a xlink:href="xcsf_8c.html#aa6edd3962ddd04940e2c78a4f99de7cd" target="_top" xlink:title="Executes a single XCSF testing trial. ">
<polygon fill="none" stroke="#000000" points="493,-76.5 493,-95.5 571,-95.5 571,-76.5 493,-76.5"/>
<text text-anchor="middle" x="532" y="-83.5" font-family="Helvetica,sans-Serif" font-size="10.00" fill="#000000">xcsf_test_trial</text>
</a>
</g>
</g>
<!-- Node227&#45;&gt;Node243 -->
<g id="edge37" class="edge">
<title>Node227&#45;&gt;Node243</title>
<path fill="none" stroke="#191970" d="M423.7455,-181.5373C434.6454,-160.3416 455.157,-125.8264 482,-105 486.9157,-101.1861 492.6832,-98.0671 498.5199,-95.5405"/>
<polygon fill="#191970" stroke="#191970" points="420.6091,-179.984 419.3031,-190.4981 426.8807,-183.0933 420.6091,-179.984"/>
</g>
<!-- Node229 -->
<g id="node15" class="node">
<title>Node229</title>
<g id="a_node15"><a xlink:href="xcs__multi__step_8h.html#acc29d4a55dbd56c16ea5f19f15a7c677" target="_top" xlink:title="Executes a multi&#45;step reinforcement learning experiment. ">
<polygon fill="none" stroke="#000000" points="621,-228.5 621,-247.5 725,-247.5 725,-228.5 621,-228.5"/>
<text text-anchor="middle" x="673" y="-235.5" font-family="Helvetica,sans-Serif" font-size="10.00" fill="#000000">xcs_multi_step_exp</text>
</a>
</g>
</g>
<!-- Node228&#45;&gt;Node229 -->
<g id="edge15" class="edge">
<title>Node228&#45;&gt;Node229</title>
<path fill="none" stroke="#191970" d="M588.2986,-238C599.0471,-238 610.2549,-238 620.8661,-238"/>
<polygon fill="#191970" stroke="#191970" points="588.1687,-234.5001 578.1687,-238 588.1686,-241.5001 588.1687,-234.5001"/>
</g>
<!-- Node229&#45;&gt;Node221 -->
<g id="edge16" class="edge">
<title>Node229&#45;&gt;Node221</title>
<path fill="none" stroke="#191970" d="M735.0871,-238C751.495,-238 768.6931,-238 783.3212,-238"/>
<polygon fill="#191970" stroke="#191970" points="735.003,-234.5001 725.003,-238 735.0029,-241.5001 735.003,-234.5001"/>
</g>
<!-- Node230&#45;&gt;Node229 -->
<g id="edge18" class="edge">
<title>Node230&#45;&gt;Node229</title>
<path fill="none" stroke="#191970" d="M577.4398,-212.2462C596.875,-217.484 619.2311,-223.5091 637.4311,-228.4141"/>
<polygon fill="#191970" stroke="#191970" points="578.1465,-208.8118 567.5803,-209.589 576.325,-215.5707 578.1465,-208.8118"/>
</g>
<!-- Node232 -->
<g id="node18" class="node">
<title>Node232</title>
<g id="a_node18"><a xlink:href="xcs__single__step_8h.html#a39a031bf59eaa9b33e30e614610dcda8" target="_top" xlink:title="Executes a single&#45;step experiment. ">
<polygon fill="none" stroke="#000000" points="619,-266.5 619,-285.5 727,-285.5 727,-266.5 619,-266.5"/>
<text text-anchor="middle" x="673" y="-273.5" font-family="Helvetica,sans-Serif" font-size="10.00" fill="#000000">xcs_single_step_exp</text>
</a>
</g>
</g>
<!-- Node231&#45;&gt;Node232 -->
<g id="edge20" class="edge">
<title>Node231&#45;&gt;Node232</title>
<path fill="none" stroke="#191970" d="M577.4398,-301.7538C596.875,-296.516 619.2311,-290.4909 637.4311,-285.5859"/>
<polygon fill="#191970" stroke="#191970" points="576.325,-298.4293 567.5803,-304.411 578.1465,-305.1882 576.325,-298.4293"/>
</g>
<!-- Node232&#45;&gt;Node221 -->
<g id="edge21" class="edge">
<title>Node232&#45;&gt;Node221</title>
<path fill="none" stroke="#191970" d="M720.0141,-263.8879C740.5566,-258.5956 764.2998,-252.4787 783.5472,-247.5201"/>
<polygon fill="#191970" stroke="#191970" points="719.0311,-260.5268 710.2205,-266.411 720.7775,-267.3054 719.0311,-260.5268"/>
</g>
<!-- Node233&#45;&gt;Node232 -->
<g id="edge23" class="edge">
<title>Node233&#45;&gt;Node232</title>
<path fill="none" stroke="#191970" d="M592.2931,-276C601.0823,-276 610.0877,-276 618.7473,-276"/>
<polygon fill="#191970" stroke="#191970" points="592.1084,-272.5001 582.1083,-276 592.1083,-279.5001 592.1084,-272.5001"/>
</g>
<!-- Node235 -->
<g id="node21" class="node">
<title>Node235</title>
<g id="a_node21"><a xlink:href="xcsf_8h.html#a874829f28fee20f9ad15b540f4b4d6ff" target="_top" xlink:title="Executes MAX_TRIALS number of XCSF learning iterations using the training data. ">
<polygon fill="none" stroke="#000000" points="646,-152.5 646,-171.5 700,-171.5 700,-152.5 646,-152.5"/>
<text text-anchor="middle" x="673" y="-159.5" font-family="Helvetica,sans-Serif" font-size="10.00" fill="#000000">xcsf_fit1</text>
</a>
</g>
</g>
<!-- Node234&#45;&gt;Node235 -->
<g id="edge25" class="edge">
<title>Node234&#45;&gt;Node235</title>
<path fill="none" stroke="#191970" d="M577.3153,-136.2126C599.9134,-142.3029 626.4861,-149.4643 645.8868,-154.6929"/>
<polygon fill="#191970" stroke="#191970" points="578.1465,-132.8118 567.5803,-133.589 576.325,-139.5707 578.1465,-132.8118"/>
</g>
<!-- Node237 -->
<g id="node23" class="node">
<title>Node237</title>
<g id="a_node23"><a xlink:href="xcsf_8h.html#a0b4de57cb9dadc9deca7901aa36e5025" target="_top" xlink:title="Executes MAX_TRIALS number of XCSF learning iterations using the training. data and test iterations u...">
<polygon fill="none" stroke="#000000" points="646,-114.5 646,-133.5 700,-133.5 700,-114.5 646,-114.5"/>
<text text-anchor="middle" x="673" y="-121.5" font-family="Helvetica,sans-Serif" font-size="10.00" fill="#000000">xcsf_fit2</text>
</a>
</g>
</g>
<!-- Node234&#45;&gt;Node237 -->
<g id="edge28" class="edge">
<title>Node234&#45;&gt;Node237</title>
<path fill="none" stroke="#191970" d="M583.6807,-124C604.8063,-124 628.3646,-124 645.9806,-124"/>
<polygon fill="#191970" stroke="#191970" points="583.5421,-120.5001 573.542,-124 583.542,-127.5001 583.5421,-120.5001"/>
</g>
<!-- Node236 -->
<g id="node22" class="node">
<title>Node236</title>
<g id="a_node22"><a xlink:href="structXCS.html#ad2ccafe59d2b4ae6d0e1cbc15edee53c" target="_top" xlink:title="XCS::fit">
<polygon fill="none" stroke="#000000" points="794.5,-152.5 794.5,-171.5 846.5,-171.5 846.5,-152.5 794.5,-152.5"/>
<text text-anchor="middle" x="820.5" y="-159.5" font-family="Helvetica,sans-Serif" font-size="10.00" fill="#000000">XCS::fit</text>
</a>
</g>
</g>
<!-- Node235&#45;&gt;Node236 -->
<g id="edge26" class="edge">
<title>Node235&#45;&gt;Node236</title>
<path fill="none" stroke="#191970" d="M710.3464,-162C736.4913,-162 770.7833,-162 794.114,-162"/>
<polygon fill="#191970" stroke="#191970" points="710.0538,-158.5001 700.0538,-162 710.0537,-165.5001 710.0538,-158.5001"/>
</g>
<!-- Node236&#45;&gt;Node223 -->
<g id="edge27" class="edge">
<title>Node236&#45;&gt;Node223</title>
<path fill="none" stroke="#191970" d="M856.5256,-150.8317C863.3964,-148.4364 870.4763,-145.7822 877,-143 910.9826,-128.5074 948.8138,-107.5717 969.7727,-95.5196"/>
<polygon fill="#191970" stroke="#191970" points="855.0582,-147.6327 846.6979,-154.1408 857.292,-154.2667 855.0582,-147.6327"/>
</g>
<!-- Node237&#45;&gt;Node219 -->
<g id="edge29" class="edge">
<title>Node237&#45;&gt;Node219</title>
<path fill="none" stroke="#191970" d="M709.9551,-134.0101C716.2243,-136.4696 722.4832,-139.4443 728,-143 747.5547,-155.6035 744.3937,-168.4769 764,-181 771.675,-185.9022 780.7496,-189.6793 789.3549,-192.5255"/>
<polygon fill="#191970" stroke="#191970" points="710.7952,-130.5948 700.2004,-130.5597 708.4608,-137.1941 710.7952,-130.5948"/>
</g>
<!-- Node238 -->
<g id="node24" class="node">
<title>Node238</title>
<g id="a_node24"><a xlink:href="structXCS.html#a7d53320740db8e846251bacd0238a9fb" target="_top" xlink:title="XCS::fit">
<polygon fill="none" stroke="#000000" points="794.5,-114.5 794.5,-133.5 846.5,-133.5 846.5,-114.5 794.5,-114.5"/>
<text text-anchor="middle" x="820.5" y="-121.5" font-family="Helvetica,sans-Serif" font-size="10.00" fill="#000000">XCS::fit</text>
</a>
</g>
</g>
<!-- Node237&#45;&gt;Node238 -->
<g id="edge30" class="edge">
<title>Node237&#45;&gt;Node238</title>
<path fill="none" stroke="#191970" d="M710.3464,-124C736.4913,-124 770.7833,-124 794.114,-124"/>
<polygon fill="#191970" stroke="#191970" points="710.0538,-120.5001 700.0538,-124 710.0537,-127.5001 710.0538,-120.5001"/>
</g>
<!-- Node240 -->
<g id="node26" class="node">
<title>Node240</title>
<g id="a_node26"><a xlink:href="structXCS.html#a911ed75c86abed7807d33eb1385240ed" target="_top" xlink:title="XCS::predict">
<polygon fill="none" stroke="#000000" points="784,-.5 784,-19.5 857,-19.5 857,-.5 784,-.5"/>
<text text-anchor="middle" x="820.5" y="-7.5" font-family="Helvetica,sans-Serif" font-size="10.00" fill="#000000">XCS::predict</text>
</a>
</g>
</g>
<!-- Node239&#45;&gt;Node240 -->
<g id="edge32" class="edge">
<title>Node239&#45;&gt;Node240</title>
<path fill="none" stroke="#191970" d="M577.2526,-10C634.2847,-10 731.203,-10 783.8412,-10"/>
<polygon fill="#191970" stroke="#191970" points="577.0874,-6.5001 567.0873,-10 577.0873,-13.5001 577.0874,-6.5001"/>
</g>
<!-- Node240&#45;&gt;Node223 -->
<g id="edge33" class="edge">
<title>Node240&#45;&gt;Node223</title>
<path fill="none" stroke="#191970" d="M861.3719,-22.8901C866.6783,-24.8124 872.0024,-26.8687 877,-29 910.9826,-43.4926 948.8138,-64.4283 969.7727,-76.4804"/>
<polygon fill="#191970" stroke="#191970" points="862.5087,-19.5799 851.9138,-19.5873 860.2009,-26.1885 862.5087,-19.5799"/>
</g>
<!-- Node242 -->
<g id="node28" class="node">
<title>Node242</title>
<g id="a_node28"><a xlink:href="structXCS.html#aa5608b379fae01b724267a99068d55bb" target="_top" xlink:title="XCS::print_match_set">
<polygon fill="none" stroke="#000000" points="764,-38.5 764,-57.5 877,-57.5 877,-38.5 764,-38.5"/>
<text text-anchor="middle" x="820.5" y="-45.5" font-family="Helvetica,sans-Serif" font-size="10.00" fill="#000000">XCS::print_match_set</text>
</a>
</g>
</g>
<!-- Node241&#45;&gt;Node242 -->
<g id="edge35" class="edge">
<title>Node241&#45;&gt;Node242</title>
<path fill="none" stroke="#191970" d="M738.542,-48C746.9872,-48 755.5777,-48 763.8632,-48"/>
<polygon fill="#191970" stroke="#191970" points="738.3432,-44.5001 728.3432,-48 738.3432,-51.5001 738.3432,-44.5001"/>
</g>
<!-- Node242&#45;&gt;Node223 -->
<g id="edge36" class="edge">
<title>Node242&#45;&gt;Node223</title>
<path fill="none" stroke="#191970" d="M872.3105,-59.8961C895.5733,-65.2374 922.6469,-71.4537 944.5377,-76.4799"/>
<polygon fill="#191970" stroke="#191970" points="872.7923,-56.4157 862.2626,-57.589 871.2258,-63.2382 872.7923,-56.4157"/>
</g>
<!-- Node243&#45;&gt;Node237 -->
<g id="edge38" class="edge">
<title>Node243&#45;&gt;Node237</title>
<path fill="none" stroke="#191970" d="M577.3153,-98.2126C599.9134,-104.3029 626.4861,-111.4643 645.8868,-116.6929"/>
<polygon fill="#191970" stroke="#191970" points="578.1465,-94.8118 567.5803,-95.589 576.325,-101.5707 578.1465,-94.8118"/>
</g>
<!-- Node244 -->
<g id="node30" class="node">
<title>Node244</title>
<g id="a_node30"><a xlink:href="xcsf_8h.html#a2cf95733e5f97410d94211b72e835847" target="_top" xlink:title="Calculates the XCSF error for the input data. ">
<polygon fill="none" stroke="#000000" points="640.5,-76.5 640.5,-95.5 705.5,-95.5 705.5,-76.5 640.5,-76.5"/>
<text text-anchor="middle" x="673" y="-83.5" font-family="Helvetica,sans-Serif" font-size="10.00" fill="#000000">xcsf_score</text>
</a>
</g>
</g>
<!-- Node243&#45;&gt;Node244 -->
<g id="edge39" class="edge">
<title>Node243&#45;&gt;Node244</title>
<path fill="none" stroke="#191970" d="M581.4874,-86C600.919,-86 622.6946,-86 640.128,-86"/>
<polygon fill="#191970" stroke="#191970" points="581.2764,-82.5001 571.2764,-86 581.2763,-89.5001 581.2764,-82.5001"/>
</g>
<!-- Node245 -->
<g id="node31" class="node">
<title>Node245</title>
<g id="a_node31"><a xlink:href="structXCS.html#aa77bc77484d6d14bf512304a23cfec88" target="_top" xlink:title="XCS::score">
<polygon fill="none" stroke="#000000" points="786.5,-76.5 786.5,-95.5 854.5,-95.5 854.5,-76.5 786.5,-76.5"/>
<text text-anchor="middle" x="820.5" y="-83.5" font-family="Helvetica,sans-Serif" font-size="10.00" fill="#000000">XCS::score</text>
</a>
</g>
</g>
<!-- Node244&#45;&gt;Node245 -->
<g id="edge40" class="edge">
<title>Node244&#45;&gt;Node245</title>
<path fill="none" stroke="#191970" d="M715.9832,-86C738.3724,-86 765.3709,-86 786.3188,-86"/>
<polygon fill="#191970" stroke="#191970" points="715.7351,-82.5001 705.735,-86 715.735,-89.5001 715.7351,-82.5001"/>
</g>
<!-- Node245&#45;&gt;Node223 -->
<g id="edge41" class="edge">
<title>Node245&#45;&gt;Node223</title>
<path fill="none" stroke="#191970" d="M865.1037,-86C879.8156,-86 896.5869,-86 912.856,-86"/>
<polygon fill="#191970" stroke="#191970" points="864.7917,-82.5001 854.7917,-86 864.7917,-89.5001 864.7917,-82.5001"/>
</g>
<!-- Node246&#45;&gt;Node219 -->
<g id="edge45" class="edge">
<title>Node246&#45;&gt;Node219</title>
<path fill="none" stroke="#191970" d="M708.0795,-200C732.8217,-200 765.6614,-200 789.4541,-200"/>
<polygon fill="#191970" stroke="#191970" points="708.0214,-196.5001 698.0214,-200 708.0213,-203.5001 708.0214,-196.5001"/>
</g>
<!-- Node246&#45;&gt;Node221 -->
<g id="edge43" class="edge">
<title>Node246&#45;&gt;Node221</title>
<path fill="none" stroke="#191970" d="M707.9349,-209.0002C730.67,-214.8573 760.2876,-222.4877 783.4357,-228.4512"/>
<polygon fill="#191970" stroke="#191970" points="708.5784,-205.5517 698.0214,-206.4462 706.832,-212.3304 708.5784,-205.5517"/>
</g>
<!-- Node246&#45;&gt;Node236 -->
<g id="edge44" class="edge">
<title>Node246&#45;&gt;Node236</title>
<path fill="none" stroke="#191970" d="M708.032,-190.9748C734.529,-184.1485 770.3331,-174.9244 794.3609,-168.7341"/>
<polygon fill="#191970" stroke="#191970" points="706.832,-187.6696 698.0214,-193.5538 708.5784,-194.4483 706.832,-187.6696"/>
</g>
</g>
</svg>
