<?xml version="1.0" encoding="UTF-8" standalone="no"?>
<!DOCTYPE svg PUBLIC "-//W3C//DTD SVG 1.1//EN"
 "http://www.w3.org/Graphics/SVG/1.1/DTD/svg11.dtd">
<!-- Generated by graphviz version 2.40.1 (20161225.0304)
 -->
<!-- Title: pred_rls_init Pages: 1 -->
<svg width="258pt" height="66pt"
 viewBox="0.00 0.00 258.00 66.00" xmlns="http://www.w3.org/2000/svg" xmlns:xlink="http://www.w3.org/1999/xlink">
<g id="graph0" class="graph" transform="scale(1 1) rotate(0) translate(4 62)">
<title>pred_rls_init</title>
<!-- Node17 -->
<g id="node1" class="node">
<title>Node17</title>
<polygon fill="#bfbfbf" stroke="#000000" points="0,-19.5 0,-38.5 69,-38.5 69,-19.5 0,-19.5"/>
<text text-anchor="middle" x="34.5" y="-26.5" font-family="Helvetica,sans-Serif" font-size="10.00" fill="#000000">pred_rls_init</text>
</g>
<!-- Node18 -->
<g id="node2" class="node">
<title>Node18</title>
<g id="a_node2"><a xlink:href="blas_8c.html#a95eb315efef08b5eb4694c3ca6bfe633" target="_top" xlink:title="blas_fill">
<polygon fill="none" stroke="#000000" points="111,-38.5 111,-57.5 161,-57.5 161,-38.5 111,-38.5"/>
<text text-anchor="middle" x="136" y="-45.5" font-family="Helvetica,sans-Serif" font-size="10.00" fill="#000000">blas_fill</text>
</a>
</g>
</g>
<!-- Node17&#45;&gt;Node18 -->
<g id="edge1" class="edge">
<title>Node17&#45;&gt;Node18</title>
<path fill="none" stroke="#191970" d="M69.1467,-35.4856C79.3978,-37.4045 90.6268,-39.5065 100.9059,-41.4307"/>
<polygon fill="#191970" stroke="#191970" points="100.3237,-44.8824 110.797,-43.2822 101.6118,-38.0019 100.3237,-44.8824"/>
</g>
<!-- Node20 -->
<g id="node4" class="node">
<title>Node20</title>
<g id="a_node4"><a xlink:href="pred__rls_8c.html#a93c37219fc0ec594a2dceb6b6d6b4f06" target="_top" xlink:title="init_matrix">
<polygon fill="none" stroke="#000000" points="105,-.5 105,-19.5 167,-19.5 167,-.5 105,-.5"/>
<text text-anchor="middle" x="136" y="-7.5" font-family="Helvetica,sans-Serif" font-size="10.00" fill="#000000">init_matrix</text>
</a>
</g>
</g>
<!-- Node17&#45;&gt;Node20 -->
<g id="edge3" class="edge">
<title>Node17&#45;&gt;Node20</title>
<path fill="none" stroke="#191970" d="M69.1467,-22.5144C77.4847,-20.9536 86.4696,-19.2717 95.0642,-17.6629"/>
<polygon fill="#191970" stroke="#191970" points="95.7267,-21.0997 104.912,-15.8194 94.4387,-14.2192 95.7267,-21.0997"/>
</g>
<!-- Node19 -->
<g id="node3" class="node">
<title>Node19</title>
<g id="a_node3"><a xlink:href="blas_8c.html#a3ad51e4642cc0045163e7d3390657541" target="_top" xlink:title="fill_cpu">
<polygon fill="none" stroke="#000000" points="203,-38.5 203,-57.5 250,-57.5 250,-38.5 203,-38.5"/>
<text text-anchor="middle" x="226.5" y="-45.5" font-family="Helvetica,sans-Serif" font-size="10.00" fill="#000000">fill_cpu</text>
</a>
</g>
</g>
<!-- Node18&#45;&gt;Node19 -->
<g id="edge2" class="edge">
<title>Node18&#45;&gt;Node19</title>
<path fill="none" stroke="#191970" d="M161.2093,-48C171.0158,-48 182.3959,-48 192.882,-48"/>
<polygon fill="#191970" stroke="#191970" points="192.9787,-51.5001 202.9787,-48 192.9787,-44.5001 192.9787,-51.5001"/>
</g>
</g>
</svg>
