<?xml version="1.0" encoding="UTF-8" standalone="no"?>
<!DOCTYPE svg PUBLIC "-//W3C//DTD SVG 1.1//EN"
 "http://www.w3.org/Graphics/SVG/1.1/DTD/svg11.dtd">
<!-- Generated by graphviz version 2.40.1 (20161225.0304)
 -->
<!-- Title: pred_neural_save Pages: 1 -->
<svg width="306pt" height="28pt"
 viewBox="0.00 0.00 306.00 28.00" xmlns="http://www.w3.org/2000/svg" xmlns:xlink="http://www.w3.org/1999/xlink">
<g id="graph0" class="graph" transform="scale(1 1) rotate(0) translate(4 24)">
<title>pred_neural_save</title>
<!-- Node64 -->
<g id="node1" class="node">
<title>Node64</title>
<polygon fill="#bfbfbf" stroke="#000000" points="0,-.5 0,-19.5 93,-19.5 93,-.5 0,-.5"/>
<text text-anchor="middle" x="46.5" y="-7.5" font-family="Helvetica,sans-Serif" font-size="10.00" fill="#000000">pred_neural_save</text>
</g>
<!-- Node65 -->
<g id="node2" class="node">
<title>Node65</title>
<g id="a_node2"><a xlink:href="neural_8c.html#a535649e8569318c9b4f8d9395a308b1d" target="_top" xlink:title="Writes a neural network to a binary file. ">
<polygon fill="none" stroke="#000000" points="129,-.5 129,-19.5 198,-19.5 198,-.5 129,-.5"/>
<text text-anchor="middle" x="163.5" y="-7.5" font-family="Helvetica,sans-Serif" font-size="10.00" fill="#000000">neural_save</text>
</a>
</g>
</g>
<!-- Node64&#45;&gt;Node65 -->
<g id="edge1" class="edge">
<title>Node64&#45;&gt;Node65</title>
<path fill="none" stroke="#191970" d="M93.0777,-10C101.595,-10 110.4645,-10 118.9218,-10"/>
<polygon fill="#191970" stroke="#191970" points="118.9821,-13.5001 128.9821,-10 118.9821,-6.5001 118.9821,-13.5001"/>
</g>
<!-- Node66 -->
<g id="node3" class="node">
<title>Node66</title>
<g id="a_node3"><a xlink:href="neural__layer_8h.html#ae644505bcb4340d5cd245c8ffe3b624b" target="_top" xlink:title="layer_save">
<polygon fill="none" stroke="#000000" points="234,-.5 234,-19.5 298,-19.5 298,-.5 234,-.5"/>
<text text-anchor="middle" x="266" y="-7.5" font-family="Helvetica,sans-Serif" font-size="10.00" fill="#000000">layer_save</text>
</a>
</g>
</g>
<!-- Node65&#45;&gt;Node66 -->
<g id="edge2" class="edge">
<title>Node65&#45;&gt;Node66</title>
<path fill="none" stroke="#191970" d="M198.2018,-10C206.3772,-10 215.182,-10 223.6521,-10"/>
<polygon fill="#191970" stroke="#191970" points="223.753,-13.5001 233.753,-10 223.7529,-6.5001 223.753,-13.5001"/>
</g>
</g>
</svg>
