<?xml version="1.0" encoding="UTF-8" standalone="no"?>
<!DOCTYPE svg PUBLIC "-//W3C//DTD SVG 1.1//EN"
 "http://www.w3.org/Graphics/SVG/1.1/DTD/svg11.dtd">
<!-- Generated by graphviz version 2.40.1 (20161225.0304)
 -->
<!-- Title: /home/unknown/work/current/xcsf/xcsf/prediction.h Pages: 1 -->
<svg width="857pt" height="117pt"
 viewBox="0.00 0.00 857.00 117.00" xmlns="http://www.w3.org/2000/svg" xmlns:xlink="http://www.w3.org/1999/xlink">
<g id="graph0" class="graph" transform="scale(1 1) rotate(0) translate(4 113)">
<title>/home/unknown/work/current/xcsf/xcsf/prediction.h</title>
<!-- Node1 -->
<g id="node1" class="node">
<title>Node1</title>
<polygon fill="#bfbfbf" stroke="#000000" points="330,-78.5 330,-108.5 476,-108.5 476,-78.5 330,-78.5"/>
<text text-anchor="start" x="338" y="-96.5" font-family="Helvetica,sans-Serif" font-size="10.00" fill="#000000">/home/unknown/work</text>
<text text-anchor="middle" x="403" y="-85.5" font-family="Helvetica,sans-Serif" font-size="10.00" fill="#000000">/current/xcsf/xcsf/prediction.h</text>
</g>
<!-- Node2 -->
<g id="node2" class="node">
<title>Node2</title>
<g id="a_node2"><a xlink:href="cl_8c.html" target="_top" xlink:title="Functions operating on classifiers. ">
<polygon fill="none" stroke="#000000" points="0,-6 0,-36 112,-36 112,-6 0,-6"/>
<text text-anchor="start" x="8" y="-24" font-family="Helvetica,sans-Serif" font-size="10.00" fill="#000000">/home/unknown/work</text>
<text text-anchor="middle" x="56" y="-13" font-family="Helvetica,sans-Serif" font-size="10.00" fill="#000000">/current/xcsf/xcsf/cl.c</text>
</a>
</g>
</g>
<!-- Node1&#45;&gt;Node2 -->
<g id="edge1" class="edge">
<title>Node1&#45;&gt;Node2</title>
<path fill="none" stroke="#191970" d="M320.0281,-81.3C263.5213,-72.2718 187.2451,-58.6728 121,-42 114.0998,-40.2633 106.8635,-38.1871 99.8276,-36.026"/>
<polygon fill="#191970" stroke="#191970" points="319.5618,-84.7697 329.9861,-82.8765 320.6564,-77.8558 319.5618,-84.7697"/>
</g>
<!-- Node3 -->
<g id="node3" class="node">
<title>Node3</title>
<g id="a_node3"><a xlink:href="cl__set_8c.html" target="_top" xlink:title="Functions operating on sets of classifiers. ">
<polygon fill="none" stroke="#000000" points="130.5,-6 130.5,-36 261.5,-36 261.5,-6 130.5,-6"/>
<text text-anchor="start" x="138.5" y="-24" font-family="Helvetica,sans-Serif" font-size="10.00" fill="#000000">/home/unknown/work</text>
<text text-anchor="middle" x="196" y="-13" font-family="Helvetica,sans-Serif" font-size="10.00" fill="#000000">/current/xcsf/xcsf/cl_set.c</text>
</a>
</g>
</g>
<!-- Node1&#45;&gt;Node3 -->
<g id="edge2" class="edge">
<title>Node1&#45;&gt;Node3</title>
<path fill="none" stroke="#191970" d="M350.6431,-75.1624C316.0575,-63.0491 271.295,-47.3714 238.8356,-36.0028"/>
<polygon fill="#191970" stroke="#191970" points="349.5146,-78.4756 360.1095,-78.478 351.8285,-71.8691 349.5146,-78.4756"/>
</g>
<!-- Node4 -->
<g id="node4" class="node">
<title>Node4</title>
<g id="a_node4"><a xlink:href="pred__neural_8c.html" target="_top" xlink:title="Multi&#45;layer perceptron neural network prediction functions. ">
<polygon fill="none" stroke="#000000" points="279.5,-.5 279.5,-41.5 394.5,-41.5 394.5,-.5 279.5,-.5"/>
<text text-anchor="start" x="287.5" y="-29.5" font-family="Helvetica,sans-Serif" font-size="10.00" fill="#000000">/home/unknown/work</text>
<text text-anchor="start" x="287.5" y="-18.5" font-family="Helvetica,sans-Serif" font-size="10.00" fill="#000000">/current/xcsf/xcsf/pred</text>
<text text-anchor="middle" x="337" y="-7.5" font-family="Helvetica,sans-Serif" font-size="10.00" fill="#000000">_neural.c</text>
</a>
</g>
</g>
<!-- Node1&#45;&gt;Node4 -->
<g id="edge3" class="edge">
<title>Node1&#45;&gt;Node4</title>
<path fill="none" stroke="#191970" d="M382.4965,-70.9772C373.9235,-61.5599 364.0303,-50.6924 355.6634,-41.5015"/>
<polygon fill="#191970" stroke="#191970" points="380.0047,-73.4393 389.3248,-78.478 385.1811,-68.727 380.0047,-73.4393"/>
</g>
<!-- Node5 -->
<g id="node5" class="node">
<title>Node5</title>
<g id="a_node5"><a xlink:href="pred__nlms_8c.html" target="_top" xlink:title="Normalised least mean squares prediction functions. ">
<polygon fill="none" stroke="#000000" points="412.5,-.5 412.5,-41.5 527.5,-41.5 527.5,-.5 412.5,-.5"/>
<text text-anchor="start" x="420.5" y="-29.5" font-family="Helvetica,sans-Serif" font-size="10.00" fill="#000000">/home/unknown/work</text>
<text text-anchor="start" x="420.5" y="-18.5" font-family="Helvetica,sans-Serif" font-size="10.00" fill="#000000">/current/xcsf/xcsf/pred</text>
<text text-anchor="middle" x="470" y="-7.5" font-family="Helvetica,sans-Serif" font-size="10.00" fill="#000000">_nlms.c</text>
</a>
</g>
</g>
<!-- Node1&#45;&gt;Node5 -->
<g id="edge4" class="edge">
<title>Node1&#45;&gt;Node5</title>
<path fill="none" stroke="#191970" d="M423.8142,-70.9772C432.517,-61.5599 442.5601,-50.6924 451.0538,-41.5015"/>
<polygon fill="#191970" stroke="#191970" points="421.099,-68.7583 416.8824,-78.478 426.2399,-73.5092 421.099,-68.7583"/>
</g>
<!-- Node6 -->
<g id="node6" class="node">
<title>Node6</title>
<g id="a_node6"><a xlink:href="pred__rls_8c.html" target="_top" xlink:title="Recursive least mean squares prediction functions. ">
<polygon fill="none" stroke="#000000" points="545.5,-6 545.5,-36 684.5,-36 684.5,-6 545.5,-6"/>
<text text-anchor="start" x="553.5" y="-24" font-family="Helvetica,sans-Serif" font-size="10.00" fill="#000000">/home/unknown/work</text>
<text text-anchor="middle" x="615" y="-13" font-family="Helvetica,sans-Serif" font-size="10.00" fill="#000000">/current/xcsf/xcsf/pred_rls.c</text>
</a>
</g>
</g>
<!-- Node1&#45;&gt;Node6 -->
<g id="edge5" class="edge">
<title>Node1&#45;&gt;Node6</title>
<path fill="none" stroke="#191970" d="M456.6216,-75.1624C492.0425,-63.0491 537.8863,-47.3714 571.1297,-36.0028"/>
<polygon fill="#191970" stroke="#191970" points="455.256,-71.9304 446.9265,-78.478 457.5211,-78.5538 455.256,-71.9304"/>
</g>
<!-- Node7 -->
<g id="node7" class="node">
<title>Node7</title>
<g id="a_node7"><a xlink:href="prediction_8c.html" target="_top" xlink:title="Interface for classifier predictions. ">
<polygon fill="none" stroke="#000000" points="703,-6 703,-36 849,-36 849,-6 703,-6"/>
<text text-anchor="start" x="711" y="-24" font-family="Helvetica,sans-Serif" font-size="10.00" fill="#000000">/home/unknown/work</text>
<text text-anchor="middle" x="776" y="-13" font-family="Helvetica,sans-Serif" font-size="10.00" fill="#000000">/current/xcsf/xcsf/prediction.c</text>
</a>
</g>
</g>
<!-- Node1&#45;&gt;Node7 -->
<g id="edge6" class="edge">
<title>Node1&#45;&gt;Node7</title>
<path fill="none" stroke="#191970" d="M486.1604,-80.4971C544.5394,-70.9511 624.3151,-57.0668 694,-42 702.3309,-40.1987 711.096,-38.1357 719.6709,-36.0221"/>
<polygon fill="#191970" stroke="#191970" points="485.5575,-77.0491 476.2494,-82.1097 486.6818,-83.9583 485.5575,-77.0491"/>
</g>
</g>
</svg>
