<?xml version="1.0" encoding="UTF-8" standalone="no"?>
<!DOCTYPE svg PUBLIC "-//W3C//DTD SVG 1.1//EN"
 "http://www.w3.org/Graphics/SVG/1.1/DTD/svg11.dtd">
<!-- Generated by graphviz version 2.40.1 (20161225.0304)
 -->
<!-- Title: pred_neural_init Pages: 1 -->
<svg width="1407pt" height="142pt"
 viewBox="0.00 0.00 1407.00 142.00" xmlns="http://www.w3.org/2000/svg" xmlns:xlink="http://www.w3.org/1999/xlink">
<g id="graph0" class="graph" transform="scale(1 1) rotate(0) translate(4 138)">
<title>pred_neural_init</title>
<!-- Node40 -->
<g id="node1" class="node">
<title>Node40</title>
<polygon fill="#bfbfbf" stroke="#000000" points="0,-57.5 0,-76.5 85,-76.5 85,-57.5 0,-57.5"/>
<text text-anchor="middle" x="42.5" y="-64.5" font-family="Helvetica,sans-Serif" font-size="10.00" fill="#000000">pred_neural_init</text>
</g>
<!-- Node41 -->
<g id="node2" class="node">
<title>Node41</title>
<g id="a_node2"><a xlink:href="neural_8c.html#a89a8b1cf58b3c2abe700d9e602e13c8e" target="_top" xlink:title="Initialises an empty neural network. ">
<polygon fill="none" stroke="#000000" points="159,-114.5 159,-133.5 220,-133.5 220,-114.5 159,-114.5"/>
<text text-anchor="middle" x="189.5" y="-121.5" font-family="Helvetica,sans-Serif" font-size="10.00" fill="#000000">neural_init</text>
</a>
</g>
</g>
<!-- Node40&#45;&gt;Node41 -->
<g id="edge1" class="edge">
<title>Node40&#45;&gt;Node41</title>
<path fill="none" stroke="#191970" d="M59.8707,-76.5338C75.5184,-84.8475 99.3246,-96.824 121,-105 129.904,-108.3586 139.6588,-111.4177 148.9441,-114.0531"/>
<polygon fill="#191970" stroke="#191970" points="148.2038,-117.4791 158.7729,-116.7405 150.0501,-110.7269 148.2038,-117.4791"/>
</g>
<!-- Node42 -->
<g id="node3" class="node">
<title>Node42</title>
<g id="a_node3"><a xlink:href="neural__layer__connected_8c.html#adcf59226c12296224d675cfb28892039" target="_top" xlink:title="neural_layer_connected_init">
<polygon fill="none" stroke="#000000" points="121,-76.5 121,-95.5 258,-95.5 258,-76.5 121,-76.5"/>
<text text-anchor="middle" x="189.5" y="-83.5" font-family="Helvetica,sans-Serif" font-size="10.00" fill="#000000">neural_layer_connected_init</text>
</a>
</g>
</g>
<!-- Node40&#45;&gt;Node42 -->
<g id="edge2" class="edge">
<title>Node40&#45;&gt;Node42</title>
<path fill="none" stroke="#191970" d="M85.0185,-72.4956C93.1508,-73.5467 101.9025,-74.6779 110.7561,-75.8222"/>
<polygon fill="#191970" stroke="#191970" points="110.4018,-79.3055 120.768,-77.1163 111.2991,-72.3632 110.4018,-79.3055"/>
</g>
<!-- Node54 -->
<g id="node15" class="node">
<title>Node54</title>
<g id="a_node15"><a xlink:href="neural_8c.html#a6217c5bc4bdba93832cb4d8aa6c64d51" target="_top" xlink:title="Inserts a layer into a neural network. ">
<polygon fill="none" stroke="#000000" points="140.5,-38.5 140.5,-57.5 238.5,-57.5 238.5,-38.5 140.5,-38.5"/>
<text text-anchor="middle" x="189.5" y="-45.5" font-family="Helvetica,sans-Serif" font-size="10.00" fill="#000000">neural_layer_insert</text>
</a>
</g>
</g>
<!-- Node40&#45;&gt;Node54 -->
<g id="edge17" class="edge">
<title>Node40&#45;&gt;Node54</title>
<path fill="none" stroke="#191970" d="M85.0185,-61.5044C99.0731,-59.6878 114.9778,-57.6321 130.0616,-55.6825"/>
<polygon fill="#191970" stroke="#191970" points="130.8715,-59.107 140.3404,-54.354 129.9742,-52.1648 130.8715,-59.107"/>
</g>
<!-- Node55 -->
<g id="node16" class="node">
<title>Node55</title>
<g id="a_node16"><a xlink:href="pred__neural_8c.html#af4e5dbaabdf0e6103578db9fb2f3736a" target="_top" xlink:title="pred_neural_lopt">
<polygon fill="none" stroke="#000000" points="145.5,-.5 145.5,-19.5 233.5,-19.5 233.5,-.5 145.5,-.5"/>
<text text-anchor="middle" x="189.5" y="-7.5" font-family="Helvetica,sans-Serif" font-size="10.00" fill="#000000">pred_neural_lopt</text>
</a>
</g>
</g>
<!-- Node40&#45;&gt;Node55 -->
<g id="edge18" class="edge">
<title>Node40&#45;&gt;Node55</title>
<path fill="none" stroke="#191970" d="M59.8707,-57.4662C75.5184,-49.1525 99.3246,-37.176 121,-29 127.2842,-26.6296 133.9922,-24.4084 140.6599,-22.38"/>
<polygon fill="#191970" stroke="#191970" points="141.728,-25.7143 150.3458,-19.5513 139.7656,-18.995 141.728,-25.7143"/>
</g>
<!-- Node43 -->
<g id="node4" class="node">
<title>Node43</title>
<g id="a_node4"><a xlink:href="utils_8c.html#aa57fc0f69e730ce0a348c25ee498643d" target="_top" xlink:title="Returns a normal random float with specified mean and standard deviation. ">
<polygon fill="none" stroke="#000000" points="540.5,-114.5 540.5,-133.5 610.5,-133.5 610.5,-114.5 540.5,-114.5"/>
<text text-anchor="middle" x="575.5" y="-121.5" font-family="Helvetica,sans-Serif" font-size="10.00" fill="#000000">rand_normal</text>
</a>
</g>
</g>
<!-- Node42&#45;&gt;Node43 -->
<g id="edge3" class="edge">
<title>Node42&#45;&gt;Node43</title>
<path fill="none" stroke="#191970" d="M256.8986,-95.5141C269.2282,-97.1166 281.9909,-98.6844 294,-100 377.1361,-109.1076 474.408,-116.73 530.1032,-120.8052"/>
<polygon fill="#191970" stroke="#191970" points="530.1115,-124.315 540.3387,-121.5484 530.6185,-117.3333 530.1115,-124.315"/>
</g>
<!-- Node49 -->
<g id="node10" class="node">
<title>Node49</title>
<g id="a_node10"><a xlink:href="utils_8c.html#ae42a9e1d467853befaa7922cfafed3bb" target="_top" xlink:title="Returns a uniform random float [min,max]. ">
<polygon fill="none" stroke="#000000" points="649,-57.5 649,-76.5 722,-76.5 722,-57.5 649,-57.5"/>
<text text-anchor="middle" x="685.5" y="-64.5" font-family="Helvetica,sans-Serif" font-size="10.00" fill="#000000">rand_uniform</text>
</a>
</g>
</g>
<!-- Node42&#45;&gt;Node49 -->
<g id="edge9" class="edge">
<title>Node42&#45;&gt;Node49</title>
<path fill="none" stroke="#191970" d="M258.1147,-84.4869C341.9012,-82.465 487.919,-78.3785 613,-72 621.2414,-71.5797 630.0041,-71.0478 638.4838,-70.4888"/>
<polygon fill="#191970" stroke="#191970" points="638.8931,-73.9691 648.6327,-69.7991 638.4184,-66.9852 638.8931,-73.9691"/>
</g>
<!-- Node50 -->
<g id="node11" class="node">
<title>Node50</title>
<g id="a_node11"><a xlink:href="sam_8c.html#a3164f33509a5dc751b57a544fe2153a7" target="_top" xlink:title="Initialises self&#45;adaptive mutation rates. ">
<polygon fill="none" stroke="#000000" points="294,-38.5 294,-57.5 347,-57.5 347,-38.5 294,-38.5"/>
<text text-anchor="middle" x="320.5" y="-45.5" font-family="Helvetica,sans-Serif" font-size="10.00" fill="#000000">sam_init</text>
</a>
</g>
</g>
<!-- Node42&#45;&gt;Node50 -->
<g id="edge11" class="edge">
<title>Node42&#45;&gt;Node50</title>
<path fill="none" stroke="#191970" d="M224.3946,-76.4993C235.1839,-73.5139 247.0971,-70.1688 258,-67 266.4536,-64.543 275.5271,-61.8292 284.0673,-59.2401"/>
<polygon fill="#191970" stroke="#191970" points="285.233,-62.5438 293.7786,-56.2809 283.1926,-55.8478 285.233,-62.5438"/>
</g>
<!-- Node44 -->
<g id="node5" class="node">
<title>Node44</title>
<g id="a_node5"><a xlink:href="utils_8c.html#a101d27cdda714b7f17a06224c65cac56" target="_top" xlink:title="Returns a uniform random float (0,1) ">
<polygon fill="none" stroke="#000000" points="758,-76.5 758,-95.5 799,-95.5 799,-76.5 758,-76.5"/>
<text text-anchor="middle" x="778.5" y="-83.5" font-family="Helvetica,sans-Serif" font-size="10.00" fill="#000000">drand</text>
</a>
</g>
</g>
<!-- Node43&#45;&gt;Node44 -->
<g id="edge4" class="edge">
<title>Node43&#45;&gt;Node44</title>
<path fill="none" stroke="#191970" d="M610.8599,-117.3809C649.5276,-110.1426 710.8787,-98.6582 747.6599,-91.773"/>
<polygon fill="#191970" stroke="#191970" points="748.6032,-95.1573 757.7885,-89.877 747.3152,-88.2768 748.6032,-95.1573"/>
</g>
<!-- Node45 -->
<g id="node6" class="node">
<title>Node45</title>
<g id="a_node6"><a xlink:href="dSFMT_8h.html#af6dbcef408462da1f40edd1a1ea5dcd3" target="_top" xlink:title="dsfmt_gv_genrand_open_open">
<polygon fill="none" stroke="#000000" points="835,-76.5 835,-95.5 984,-95.5 984,-76.5 835,-76.5"/>
<text text-anchor="middle" x="909.5" y="-83.5" font-family="Helvetica,sans-Serif" font-size="10.00" fill="#000000">dsfmt_gv_genrand_open_open</text>
</a>
</g>
</g>
<!-- Node44&#45;&gt;Node45 -->
<g id="edge5" class="edge">
<title>Node44&#45;&gt;Node45</title>
<path fill="none" stroke="#191970" d="M799.2573,-86C806.5688,-86 815.3051,-86 824.6156,-86"/>
<polygon fill="#191970" stroke="#191970" points="824.9038,-89.5001 834.9037,-86 824.9037,-82.5001 824.9038,-89.5001"/>
</g>
<!-- Node46 -->
<g id="node7" class="node">
<title>Node46</title>
<g id="a_node7"><a xlink:href="dSFMT_8h.html#a147a0a05c969a4cb5d92ce3963b839c2" target="_top" xlink:title="dsfmt_genrand_open_open">
<polygon fill="none" stroke="#000000" points="1020,-76.5 1020,-95.5 1154,-95.5 1154,-76.5 1020,-76.5"/>
<text text-anchor="middle" x="1087" y="-83.5" font-family="Helvetica,sans-Serif" font-size="10.00" fill="#000000">dsfmt_genrand_open_open</text>
</a>
</g>
</g>
<!-- Node45&#45;&gt;Node46 -->
<g id="edge6" class="edge">
<title>Node45&#45;&gt;Node46</title>
<path fill="none" stroke="#191970" d="M984.0045,-86C992.4355,-86 1001.0427,-86 1009.5109,-86"/>
<polygon fill="#191970" stroke="#191970" points="1009.7501,-89.5001 1019.75,-86 1009.75,-82.5001 1009.7501,-89.5001"/>
</g>
<!-- Node47 -->
<g id="node8" class="node">
<title>Node47</title>
<g id="a_node8"><a xlink:href="dSFMT_8h.html#afccb1e4d75cea7ffe3b45cba53d1e5e0" target="_top" xlink:title="dsfmt_gen_rand_all">
<polygon fill="none" stroke="#000000" points="1190,-76.5 1190,-95.5 1291,-95.5 1291,-76.5 1190,-76.5"/>
<text text-anchor="middle" x="1240.5" y="-83.5" font-family="Helvetica,sans-Serif" font-size="10.00" fill="#000000">dsfmt_gen_rand_all</text>
</a>
</g>
</g>
<!-- Node46&#45;&gt;Node47 -->
<g id="edge7" class="edge">
<title>Node46&#45;&gt;Node47</title>
<path fill="none" stroke="#191970" d="M1154.3273,-86C1162.8031,-86 1171.4345,-86 1179.7997,-86"/>
<polygon fill="#191970" stroke="#191970" points="1179.8429,-89.5001 1189.8429,-86 1179.8428,-82.5001 1179.8429,-89.5001"/>
</g>
<!-- Node48 -->
<g id="node9" class="node">
<title>Node48</title>
<g id="a_node9"><a xlink:href="dSFMT-common_8h.html#a43e33e2235015c9c072bad7dfe1a282c" target="_top" xlink:title="do_recursion">
<polygon fill="none" stroke="#000000" points="1327,-76.5 1327,-95.5 1399,-95.5 1399,-76.5 1327,-76.5"/>
<text text-anchor="middle" x="1363" y="-83.5" font-family="Helvetica,sans-Serif" font-size="10.00" fill="#000000">do_recursion</text>
</a>
</g>
</g>
<!-- Node47&#45;&gt;Node48 -->
<g id="edge8" class="edge">
<title>Node47&#45;&gt;Node48</title>
<path fill="none" stroke="#191970" d="M1291.0327,-86C1299.5603,-86 1308.3741,-86 1316.7846,-86"/>
<polygon fill="#191970" stroke="#191970" points="1316.7975,-89.5001 1326.7974,-86 1316.7974,-82.5001 1316.7975,-89.5001"/>
</g>
<!-- Node49&#45;&gt;Node44 -->
<g id="edge10" class="edge">
<title>Node49&#45;&gt;Node44</title>
<path fill="none" stroke="#191970" d="M722.2561,-74.5093C730.7524,-76.2451 739.7031,-78.0738 747.9036,-79.7491"/>
<polygon fill="#191970" stroke="#191970" points="747.3007,-83.1982 757.7989,-81.7707 748.7019,-76.3398 747.3007,-83.1982"/>
</g>
<!-- Node51 -->
<g id="node12" class="node">
<title>Node51</title>
<g id="a_node12"><a xlink:href="sam_8c.html#a3376574f2624a397ac253242b1958491" target="_top" xlink:title="Initialises log normal self&#45;adaptive mutation rates. ">
<polygon fill="none" stroke="#000000" points="389.5,-38.5 389.5,-57.5 495.5,-57.5 495.5,-38.5 389.5,-38.5"/>
<text text-anchor="middle" x="442.5" y="-45.5" font-family="Helvetica,sans-Serif" font-size="10.00" fill="#000000">sam_log_normal_init</text>
</a>
</g>
</g>
<!-- Node50&#45;&gt;Node51 -->
<g id="edge12" class="edge">
<title>Node50&#45;&gt;Node51</title>
<path fill="none" stroke="#191970" d="M347.2734,-48C356.7251,-48 367.7976,-48 378.9831,-48"/>
<polygon fill="#191970" stroke="#191970" points="379.2442,-51.5001 389.2441,-48 379.2441,-44.5001 379.2442,-51.5001"/>
</g>
<!-- Node52 -->
<g id="node13" class="node">
<title>Node52</title>
<g id="a_node13"><a xlink:href="sam_8c.html#a5c510f09cd5f6069b67e1b9a59df7acc" target="_top" xlink:title="Initialises rate selection self&#45;adaptive mutation. ">
<polygon fill="none" stroke="#000000" points="383,-.5 383,-19.5 502,-19.5 502,-.5 383,-.5"/>
<text text-anchor="middle" x="442.5" y="-7.5" font-family="Helvetica,sans-Serif" font-size="10.00" fill="#000000">sam_rate_selection_init</text>
</a>
</g>
</g>
<!-- Node50&#45;&gt;Node52 -->
<g id="edge14" class="edge">
<title>Node50&#45;&gt;Node52</title>
<path fill="none" stroke="#191970" d="M347.2734,-39.6607C363.371,-34.6467 384.1704,-28.1682 402.2221,-22.5456"/>
<polygon fill="#191970" stroke="#191970" points="403.4142,-25.8402 411.9209,-19.5246 401.3324,-19.1569 403.4142,-25.8402"/>
</g>
<!-- Node51&#45;&gt;Node49 -->
<g id="edge13" class="edge">
<title>Node51&#45;&gt;Node49</title>
<path fill="none" stroke="#191970" d="M495.5271,-52.1462C538.2683,-55.4881 597.7947,-60.1424 638.7655,-63.3459"/>
<polygon fill="#191970" stroke="#191970" points="638.5181,-66.8371 648.7606,-64.1274 639.0638,-59.8584 638.5181,-66.8371"/>
</g>
<!-- Node53 -->
<g id="node14" class="node">
<title>Node53</title>
<g id="a_node14"><a xlink:href="utils_8c.html#a32648ab076544a9ac1c086d0f07b599f" target="_top" xlink:title="Returns a uniform random integer [min,max] not inclusive of max. ">
<polygon fill="none" stroke="#000000" points="538,-.5 538,-19.5 613,-19.5 613,-.5 538,-.5"/>
<text text-anchor="middle" x="575.5" y="-7.5" font-family="Helvetica,sans-Serif" font-size="10.00" fill="#000000">irand_uniform</text>
</a>
</g>
</g>
<!-- Node52&#45;&gt;Node53 -->
<g id="edge15" class="edge">
<title>Node52&#45;&gt;Node53</title>
<path fill="none" stroke="#191970" d="M502.3857,-10C510.8211,-10 519.3999,-10 527.5719,-10"/>
<polygon fill="#191970" stroke="#191970" points="527.6642,-13.5001 537.6642,-10 527.6641,-6.5001 527.6642,-13.5001"/>
</g>
<!-- Node53&#45;&gt;Node49 -->
<g id="edge16" class="edge">
<title>Node53&#45;&gt;Node49</title>
<path fill="none" stroke="#191970" d="M594.16,-19.6693C611.728,-28.7727 638.2495,-42.5157 658.1955,-52.8513"/>
<polygon fill="#191970" stroke="#191970" points="656.6265,-55.9802 667.1156,-57.4735 659.8471,-49.7651 656.6265,-55.9802"/>
</g>
</g>
</svg>
