<?xml version="1.0" encoding="UTF-8" standalone="no"?>
<!DOCTYPE svg PUBLIC "-//W3C//DTD SVG 1.1//EN"
 "http://www.w3.org/Graphics/SVG/1.1/DTD/svg11.dtd">
<!-- Generated by graphviz version 2.40.1 (20161225.0304)
 -->
<!-- Title: pred_rls.c Pages: 1 -->
<svg width="660pt" height="84pt"
 viewBox="0.00 0.00 659.50 84.00" xmlns="http://www.w3.org/2000/svg" xmlns:xlink="http://www.w3.org/1999/xlink">
<g id="graph0" class="graph" transform="scale(1 1) rotate(0) translate(4 80)">
<title>pred_rls.c</title>
<!-- Node0 -->
<g id="node1" class="node">
<title>Node0</title>
<polygon fill="#bfbfbf" stroke="#000000" points="295.5,-56.5 295.5,-75.5 354.5,-75.5 354.5,-56.5 295.5,-56.5"/>
<text text-anchor="middle" x="325" y="-63.5" font-family="Helvetica,sans-Serif" font-size="10.00" fill="#000000">pred_rls.c</text>
</g>
<!-- Node1 -->
<g id="node2" class="node">
<title>Node1</title>
<polygon fill="none" stroke="#bfbfbf" points="0,-.5 0,-19.5 46,-19.5 46,-.5 0,-.5"/>
<text text-anchor="middle" x="23" y="-7.5" font-family="Helvetica,sans-Serif" font-size="10.00" fill="#000000">stdio.h</text>
</g>
<!-- Node0&#45;&gt;Node1 -->
<g id="edge1" class="edge">
<title>Node0&#45;&gt;Node1</title>
<path fill="none" stroke="#191970" d="M295.1708,-62.251C246.8279,-55.8889 148.2661,-41.7312 56.0787,-20.0174"/>
<polygon fill="#191970" stroke="#191970" points="56.8576,-16.6051 46.3178,-17.6838 55.2298,-23.4132 56.8576,-16.6051"/>
</g>
<!-- Node2 -->
<g id="node3" class="node">
<title>Node2</title>
<polygon fill="none" stroke="#bfbfbf" points="64,-.5 64,-19.5 112,-19.5 112,-.5 64,-.5"/>
<text text-anchor="middle" x="88" y="-7.5" font-family="Helvetica,sans-Serif" font-size="10.00" fill="#000000">stdlib.h</text>
</g>
<!-- Node0&#45;&gt;Node2 -->
<g id="edge2" class="edge">
<title>Node0&#45;&gt;Node2</title>
<path fill="none" stroke="#191970" d="M295.4466,-60.0378C257.4872,-52.2275 189.3798,-37.7026 122.022,-20.1346"/>
<polygon fill="#191970" stroke="#191970" points="122.6547,-16.682 112.0931,-17.521 120.8727,-23.4514 122.6547,-16.682"/>
</g>
<!-- Node3 -->
<g id="node4" class="node">
<title>Node3</title>
<polygon fill="none" stroke="#bfbfbf" points="130.5,-.5 130.5,-19.5 179.5,-19.5 179.5,-.5 130.5,-.5"/>
<text text-anchor="middle" x="155" y="-7.5" font-family="Helvetica,sans-Serif" font-size="10.00" fill="#000000">string.h</text>
</g>
<!-- Node0&#45;&gt;Node3 -->
<g id="edge3" class="edge">
<title>Node0&#45;&gt;Node3</title>
<path fill="none" stroke="#191970" d="M295.776,-56.3733C266.2226,-46.638 220.5636,-31.5974 189.3099,-21.3021"/>
<polygon fill="#191970" stroke="#191970" points="190.3004,-17.9434 179.7074,-18.1389 188.1103,-24.592 190.3004,-17.9434"/>
</g>
<!-- Node4 -->
<g id="node5" class="node">
<title>Node4</title>
<polygon fill="none" stroke="#bfbfbf" points="198,-.5 198,-19.5 254,-19.5 254,-.5 198,-.5"/>
<text text-anchor="middle" x="226" y="-7.5" font-family="Helvetica,sans-Serif" font-size="10.00" fill="#000000">stdbool.h</text>
</g>
<!-- Node0&#45;&gt;Node4 -->
<g id="edge4" class="edge">
<title>Node0&#45;&gt;Node4</title>
<path fill="none" stroke="#191970" d="M307.7555,-56.2455C292.4239,-47.5731 269.7801,-34.7645 252.2084,-24.825"/>
<polygon fill="#191970" stroke="#191970" points="253.4741,-21.5198 243.0469,-19.6427 250.0276,-27.6126 253.4741,-21.5198"/>
</g>
<!-- Node5 -->
<g id="node6" class="node">
<title>Node5</title>
<g id="a_node6"><a xlink:href="xcsf_8h.html" target="_top" xlink:title="XCSF data structures. ">
<polygon fill="none" stroke="#000000" points="272,-.5 272,-19.5 316,-19.5 316,-.5 272,-.5"/>
<text text-anchor="middle" x="294" y="-7.5" font-family="Helvetica,sans-Serif" font-size="10.00" fill="#000000">xcsf.h</text>
</a>
</g>
</g>
<!-- Node0&#45;&gt;Node5 -->
<g id="edge5" class="edge">
<title>Node0&#45;&gt;Node5</title>
<path fill="none" stroke="#191970" d="M319.6002,-56.2455C315.3773,-48.617 309.3827,-37.7881 304.2559,-28.5267"/>
<polygon fill="#191970" stroke="#191970" points="307.2432,-26.6965 299.3379,-19.6427 301.119,-30.0867 307.2432,-26.6965"/>
</g>
<!-- Node6 -->
<g id="node7" class="node">
<title>Node6</title>
<g id="a_node7"><a xlink:href="utils_8h.html" target="_top" xlink:title="Utility functions for random number handling, etc. ">
<polygon fill="none" stroke="#000000" points="334.5,-.5 334.5,-19.5 377.5,-19.5 377.5,-.5 334.5,-.5"/>
<text text-anchor="middle" x="356" y="-7.5" font-family="Helvetica,sans-Serif" font-size="10.00" fill="#000000">utils.h</text>
</a>
</g>
</g>
<!-- Node0&#45;&gt;Node6 -->
<g id="edge6" class="edge">
<title>Node0&#45;&gt;Node6</title>
<path fill="none" stroke="#191970" d="M330.3998,-56.2455C334.6227,-48.617 340.6173,-37.7881 345.7441,-28.5267"/>
<polygon fill="#191970" stroke="#191970" points="348.881,-30.0867 350.6621,-19.6427 342.7568,-26.6965 348.881,-30.0867"/>
</g>
<!-- Node7 -->
<g id="node8" class="node">
<title>Node7</title>
<g id="a_node8"><a xlink:href="blas_8h.html" target="_top" xlink:title="Basic linear algebra functions. ">
<polygon fill="none" stroke="#000000" points="395.5,-.5 395.5,-19.5 438.5,-19.5 438.5,-.5 395.5,-.5"/>
<text text-anchor="middle" x="417" y="-7.5" font-family="Helvetica,sans-Serif" font-size="10.00" fill="#000000">blas.h</text>
</a>
</g>
</g>
<!-- Node0&#45;&gt;Node7 -->
<g id="edge7" class="edge">
<title>Node0&#45;&gt;Node7</title>
<path fill="none" stroke="#191970" d="M341.0252,-56.2455C355.1408,-47.6534 375.9263,-35.0014 392.1899,-25.1018"/>
<polygon fill="#191970" stroke="#191970" points="394.4363,-27.8319 401.1585,-19.6427 390.7966,-21.8525 394.4363,-27.8319"/>
</g>
<!-- Node8 -->
<g id="node9" class="node">
<title>Node8</title>
<g id="a_node9"><a xlink:href="cl_8h.html" target="_top" xlink:title="Functions operating on classifiers. ">
<polygon fill="none" stroke="#000000" points="457,-.5 457,-19.5 489,-19.5 489,-.5 457,-.5"/>
<text text-anchor="middle" x="473" y="-7.5" font-family="Helvetica,sans-Serif" font-size="10.00" fill="#000000">cl.h</text>
</a>
</g>
</g>
<!-- Node0&#45;&gt;Node8 -->
<g id="edge8" class="edge">
<title>Node0&#45;&gt;Node8</title>
<path fill="none" stroke="#191970" d="M350.9802,-56.4778C374.0681,-47.9733 408.9494,-35.0219 447.5357,-20.1273"/>
<polygon fill="#191970" stroke="#191970" points="448.821,-23.3829 456.8832,-16.5089 446.294,-16.8549 448.821,-23.3829"/>
</g>
<!-- Node9 -->
<g id="node10" class="node">
<title>Node9</title>
<g id="a_node10"><a xlink:href="prediction_8h.html" target="_top" xlink:title="Interface for classifier predictions. ">
<polygon fill="none" stroke="#000000" points="507.5,-.5 507.5,-19.5 574.5,-19.5 574.5,-.5 507.5,-.5"/>
<text text-anchor="middle" x="541" y="-7.5" font-family="Helvetica,sans-Serif" font-size="10.00" fill="#000000">prediction.h</text>
</a>
</g>
</g>
<!-- Node0&#45;&gt;Node9 -->
<g id="edge9" class="edge">
<title>Node0&#45;&gt;Node9</title>
<path fill="none" stroke="#191970" d="M354.581,-58.3309C391.4841,-48.7634 454.8902,-32.3248 497.3725,-21.3108"/>
<polygon fill="#191970" stroke="#191970" points="498.3603,-24.6705 507.1619,-18.7728 496.6035,-17.8945 498.3603,-24.6705"/>
</g>
<!-- Node10 -->
<g id="node11" class="node">
<title>Node10</title>
<g id="a_node11"><a xlink:href="pred__rls_8h.html" target="_top" xlink:title="Recursive least mean squares prediction functions. ">
<polygon fill="none" stroke="#000000" points="592.5,-.5 592.5,-19.5 651.5,-19.5 651.5,-.5 592.5,-.5"/>
<text text-anchor="middle" x="622" y="-7.5" font-family="Helvetica,sans-Serif" font-size="10.00" fill="#000000">pred_rls.h</text>
</a>
</g>
</g>
<!-- Node0&#45;&gt;Node10 -->
<g id="edge10" class="edge">
<title>Node0&#45;&gt;Node10</title>
<path fill="none" stroke="#191970" d="M354.675,-61.5367C401.2271,-54.3609 494.4321,-39.2937 582.3255,-20.25"/>
<polygon fill="#191970" stroke="#191970" points="583.1648,-23.6492 592.185,-18.0917 581.6679,-16.8111 583.1648,-23.6492"/>
</g>
</g>
</svg>
