<?xml version="1.0" encoding="UTF-8" standalone="no"?>
<!DOCTYPE svg PUBLIC "-//W3C//DTD SVG 1.1//EN"
 "http://www.w3.org/Graphics/SVG/1.1/DTD/svg11.dtd">
<!-- Generated by graphviz version 2.40.1 (20161225.0304)
 -->
<!-- Title: pred_rls_copy Pages: 1 -->
<svg width="288pt" height="66pt"
 viewBox="0.00 0.00 288.00 66.00" xmlns="http://www.w3.org/2000/svg" xmlns:xlink="http://www.w3.org/1999/xlink">
<g id="graph0" class="graph" transform="scale(1 1) rotate(0) translate(4 62)">
<title>pred_rls_copy</title>
<!-- Node9 -->
<g id="node1" class="node">
<title>Node9</title>
<polygon fill="#bfbfbf" stroke="#000000" points="0,-19.5 0,-38.5 77,-38.5 77,-19.5 0,-19.5"/>
<text text-anchor="middle" x="38.5" y="-26.5" font-family="Helvetica,sans-Serif" font-size="10.00" fill="#000000">pred_rls_copy</text>
</g>
<!-- Node10 -->
<g id="node2" class="node">
<title>Node10</title>
<g id="a_node2"><a xlink:href="pred__rls_8c.html#abd35c579776a63f6361245817ef7af7a" target="_top" xlink:title="pred_rls_init">
<polygon fill="none" stroke="#000000" points="113,-19.5 113,-38.5 182,-38.5 182,-19.5 113,-19.5"/>
<text text-anchor="middle" x="147.5" y="-26.5" font-family="Helvetica,sans-Serif" font-size="10.00" fill="#000000">pred_rls_init</text>
</a>
</g>
</g>
<!-- Node9&#45;&gt;Node10 -->
<g id="edge1" class="edge">
<title>Node9&#45;&gt;Node10</title>
<path fill="none" stroke="#191970" d="M77.2362,-29C85.5018,-29 94.2966,-29 102.7661,-29"/>
<polygon fill="#191970" stroke="#191970" points="102.8784,-32.5001 112.8783,-29 102.8783,-25.5001 102.8784,-32.5001"/>
</g>
<!-- Node11 -->
<g id="node3" class="node">
<title>Node11</title>
<g id="a_node3"><a xlink:href="blas_8c.html#a95eb315efef08b5eb4694c3ca6bfe633" target="_top" xlink:title="Fills the vector X with the value ALPHA. ">
<polygon fill="none" stroke="#000000" points="224,-38.5 224,-57.5 274,-57.5 274,-38.5 224,-38.5"/>
<text text-anchor="middle" x="249" y="-45.5" font-family="Helvetica,sans-Serif" font-size="10.00" fill="#000000">blas_fill</text>
</a>
</g>
</g>
<!-- Node10&#45;&gt;Node11 -->
<g id="edge2" class="edge">
<title>Node10&#45;&gt;Node11</title>
<path fill="none" stroke="#191970" d="M182.1467,-35.4856C192.3978,-37.4045 203.6268,-39.5065 213.9059,-41.4307"/>
<polygon fill="#191970" stroke="#191970" points="213.3237,-44.8824 223.797,-43.2822 214.6118,-38.0019 213.3237,-44.8824"/>
</g>
<!-- Node12 -->
<g id="node4" class="node">
<title>Node12</title>
<g id="a_node4"><a xlink:href="pred__rls_8c.html#a93c37219fc0ec594a2dceb6b6d6b4f06" target="_top" xlink:title="init_matrix">
<polygon fill="none" stroke="#000000" points="218,-.5 218,-19.5 280,-19.5 280,-.5 218,-.5"/>
<text text-anchor="middle" x="249" y="-7.5" font-family="Helvetica,sans-Serif" font-size="10.00" fill="#000000">init_matrix</text>
</a>
</g>
</g>
<!-- Node10&#45;&gt;Node12 -->
<g id="edge3" class="edge">
<title>Node10&#45;&gt;Node12</title>
<path fill="none" stroke="#191970" d="M182.1467,-22.5144C190.4847,-20.9536 199.4696,-19.2717 208.0642,-17.6629"/>
<polygon fill="#191970" stroke="#191970" points="208.7267,-21.0997 217.912,-15.8194 207.4387,-14.2192 208.7267,-21.0997"/>
</g>
</g>
</svg>
