<?xml version="1.0" encoding="UTF-8" standalone="no"?>
<!DOCTYPE svg PUBLIC "-//W3C//DTD SVG 1.1//EN"
 "http://www.w3.org/Graphics/SVG/1.1/DTD/svg11.dtd">
<!-- Generated by graphviz version 2.40.1 (20161225.0304)
 -->
<!-- Title: pred_crossover Pages: 1 -->
<svg width="836pt" height="142pt"
 viewBox="0.00 0.00 836.00 142.00" xmlns="http://www.w3.org/2000/svg" xmlns:xlink="http://www.w3.org/1999/xlink">
<g id="graph0" class="graph" transform="scale(1 1) rotate(0) translate(4 138)">
<title>pred_crossover</title>
<!-- Node43 -->
<g id="node1" class="node">
<title>Node43</title>
<polygon fill="#bfbfbf" stroke="#000000" points="0,-76.5 0,-95.5 83,-95.5 83,-76.5 0,-76.5"/>
<text text-anchor="middle" x="41.5" y="-83.5" font-family="Helvetica,sans-Serif" font-size="10.00" fill="#000000">pred_crossover</text>
</g>
<!-- Node44 -->
<g id="node2" class="node">
<title>Node44</title>
<g id="a_node2"><a xlink:href="cl_8h.html#aef975f46b7a8a43ed1315df48ec6a02a" target="_top" xlink:title="Performs classifier crossover. ">
<polygon fill="none" stroke="#000000" points="119,-76.5 119,-95.5 191,-95.5 191,-76.5 119,-76.5"/>
<text text-anchor="middle" x="155" y="-83.5" font-family="Helvetica,sans-Serif" font-size="10.00" fill="#000000">cl_crossover</text>
</a>
</g>
</g>
<!-- Node43&#45;&gt;Node44 -->
<g id="edge1" class="edge">
<title>Node43&#45;&gt;Node44</title>
<path fill="none" stroke="#191970" d="M93.2203,-86C101.9299,-86 110.7988,-86 118.9978,-86"/>
<polygon fill="#191970" stroke="#191970" points="93.1188,-82.5001 83.1187,-86 93.1187,-89.5001 93.1188,-82.5001"/>
</g>
<!-- Node45 -->
<g id="node3" class="node">
<title>Node45</title>
<g id="a_node3"><a xlink:href="ea_8h.html#ae3824341a2f5482cb6ac70b3839ded51" target="_top" xlink:title="Executes the evolutionary algorithm (EA). ">
<polygon fill="none" stroke="#000000" points="227,-76.5 227,-95.5 256,-95.5 256,-76.5 227,-76.5"/>
<text text-anchor="middle" x="241.5" y="-83.5" font-family="Helvetica,sans-Serif" font-size="10.00" fill="#000000">ea</text>
</a>
</g>
</g>
<!-- Node44&#45;&gt;Node45 -->
<g id="edge2" class="edge">
<title>Node44&#45;&gt;Node45</title>
<path fill="none" stroke="#191970" d="M201.308,-86C210.6467,-86 219.7942,-86 226.9975,-86"/>
<polygon fill="#191970" stroke="#191970" points="201.1826,-82.5001 191.1826,-86 201.1826,-89.5001 201.1826,-82.5001"/>
</g>
<!-- Node46 -->
<g id="node4" class="node">
<title>Node46</title>
<g id="a_node4"><a xlink:href="xcs__multi__step_8c.html#a617d9e432dc180dccf0c5ef11a94f79f" target="_top" xlink:title="Executes a multi&#45;step explore trial. ">
<polygon fill="none" stroke="#000000" points="294.5,-114.5 294.5,-133.5 389.5,-133.5 389.5,-114.5 294.5,-114.5"/>
<text text-anchor="middle" x="342" y="-121.5" font-family="Helvetica,sans-Serif" font-size="10.00" fill="#000000">xcs_multi_explore</text>
</a>
</g>
</g>
<!-- Node45&#45;&gt;Node46 -->
<g id="edge3" class="edge">
<title>Node45&#45;&gt;Node46</title>
<path fill="none" stroke="#191970" d="M265.6974,-95.1493C281.08,-100.9656 300.9652,-108.4843 316.5787,-114.388"/>
<polygon fill="#191970" stroke="#191970" points="266.9207,-91.87 256.3291,-91.607 264.4449,-98.4176 266.9207,-91.87"/>
</g>
<!-- Node50 -->
<g id="node8" class="node">
<title>Node50</title>
<g id="a_node8"><a xlink:href="xcs__single__step_8c.html#a7aa49a74bb28adda31400d94a29c2b0b" target="_top" xlink:title="Executes a single&#45;step explore trial. ">
<polygon fill="none" stroke="#000000" points="292,-76.5 292,-95.5 392,-95.5 392,-76.5 292,-76.5"/>
<text text-anchor="middle" x="342" y="-83.5" font-family="Helvetica,sans-Serif" font-size="10.00" fill="#000000">xcs_single_explore</text>
</a>
</g>
</g>
<!-- Node45&#45;&gt;Node50 -->
<g id="edge7" class="edge">
<title>Node45&#45;&gt;Node50</title>
<path fill="none" stroke="#191970" d="M266.4037,-86C274.1182,-86 282.9126,-86 291.7086,-86"/>
<polygon fill="#191970" stroke="#191970" points="266.3292,-82.5001 256.3291,-86 266.3291,-89.5001 266.3292,-82.5001"/>
</g>
<!-- Node52 -->
<g id="node10" class="node">
<title>Node52</title>
<g id="a_node10"><a xlink:href="xcsf_8c.html#a474f4e13cfc5f00958c689cd8c81135a" target="_top" xlink:title="Executes a single XCSF learning trial. ">
<polygon fill="none" stroke="#000000" points="300.5,-38.5 300.5,-57.5 383.5,-57.5 383.5,-38.5 300.5,-38.5"/>
<text text-anchor="middle" x="342" y="-45.5" font-family="Helvetica,sans-Serif" font-size="10.00" fill="#000000">xcsf_learn_trial</text>
</a>
</g>
</g>
<!-- Node45&#45;&gt;Node52 -->
<g id="edge10" class="edge">
<title>Node45&#45;&gt;Node52</title>
<path fill="none" stroke="#191970" d="M265.6974,-76.8507C281.08,-71.0344 300.9652,-63.5157 316.5787,-57.612"/>
<polygon fill="#191970" stroke="#191970" points="264.4449,-73.5824 256.3291,-80.393 266.9207,-80.13 264.4449,-73.5824"/>
</g>
<!-- Node47 -->
<g id="node5" class="node">
<title>Node47</title>
<g id="a_node5"><a xlink:href="xcs__multi__step_8h.html#acc29d4a55dbd56c16ea5f19f15a7c677" target="_top" xlink:title="Executes a multi&#45;step reinforcement learning experiment. ">
<polygon fill="none" stroke="#000000" points="430,-114.5 430,-133.5 534,-133.5 534,-114.5 430,-114.5"/>
<text text-anchor="middle" x="482" y="-121.5" font-family="Helvetica,sans-Serif" font-size="10.00" fill="#000000">xcs_multi_step_exp</text>
</a>
</g>
</g>
<!-- Node46&#45;&gt;Node47 -->
<g id="edge4" class="edge">
<title>Node46&#45;&gt;Node47</title>
<path fill="none" stroke="#191970" d="M399.9011,-124C409.7523,-124 419.9332,-124 429.6312,-124"/>
<polygon fill="#191970" stroke="#191970" points="399.7885,-120.5001 389.7885,-124 399.7885,-127.5001 399.7885,-120.5001"/>
</g>
<!-- Node48 -->
<g id="node6" class="node">
<title>Node48</title>
<g id="a_node6"><a xlink:href="main_8c.html#ab572a67aa431827116ebd6931d667d21" target="_top" xlink:title="classification">
<polygon fill="none" stroke="#000000" points="572,-114.5 572,-133.5 646,-133.5 646,-114.5 572,-114.5"/>
<text text-anchor="middle" x="609" y="-121.5" font-family="Helvetica,sans-Serif" font-size="10.00" fill="#000000">classification</text>
</a>
</g>
</g>
<!-- Node47&#45;&gt;Node48 -->
<g id="edge5" class="edge">
<title>Node47&#45;&gt;Node48</title>
<path fill="none" stroke="#191970" d="M544.1594,-124C553.5516,-124 562.9829,-124 571.6309,-124"/>
<polygon fill="#191970" stroke="#191970" points="544.0222,-120.5001 534.0222,-124 544.0222,-127.5001 544.0222,-120.5001"/>
</g>
<!-- Node49 -->
<g id="node7" class="node">
<title>Node49</title>
<g id="a_node7"><a xlink:href="main_8c.html#a3c04138a5bfe5d72780bb7e82a18e627" target="_top" xlink:title="main">
<polygon fill="none" stroke="#000000" points="736,-95.5 736,-114.5 774,-114.5 774,-95.5 736,-95.5"/>
<text text-anchor="middle" x="755" y="-102.5" font-family="Helvetica,sans-Serif" font-size="10.00" fill="#000000">main</text>
</a>
</g>
</g>
<!-- Node48&#45;&gt;Node49 -->
<g id="edge6" class="edge">
<title>Node48&#45;&gt;Node49</title>
<path fill="none" stroke="#191970" d="M656.2611,-117.8496C683.2443,-114.3381 715.6082,-110.1263 735.7429,-107.5061"/>
<polygon fill="#191970" stroke="#191970" points="655.6844,-114.395 646.2197,-119.1563 656.5878,-121.3365 655.6844,-114.395"/>
</g>
<!-- Node51 -->
<g id="node9" class="node">
<title>Node51</title>
<g id="a_node9"><a xlink:href="xcs__single__step_8h.html#a39a031bf59eaa9b33e30e614610dcda8" target="_top" xlink:title="Executes a single&#45;step experiment. ">
<polygon fill="none" stroke="#000000" points="428,-76.5 428,-95.5 536,-95.5 536,-76.5 428,-76.5"/>
<text text-anchor="middle" x="482" y="-83.5" font-family="Helvetica,sans-Serif" font-size="10.00" fill="#000000">xcs_single_step_exp</text>
</a>
</g>
</g>
<!-- Node50&#45;&gt;Node51 -->
<g id="edge8" class="edge">
<title>Node50&#45;&gt;Node51</title>
<path fill="none" stroke="#191970" d="M402.3823,-86C410.8794,-86 419.5692,-86 427.9381,-86"/>
<polygon fill="#191970" stroke="#191970" points="402.1478,-82.5001 392.1478,-86 402.1477,-89.5001 402.1478,-82.5001"/>
</g>
<!-- Node51&#45;&gt;Node48 -->
<g id="edge9" class="edge">
<title>Node51&#45;&gt;Node48</title>
<path fill="none" stroke="#191970" d="M523.8943,-98.5353C541.1712,-103.7048 560.8707,-109.5991 576.9628,-114.4141"/>
<polygon fill="#191970" stroke="#191970" points="524.6311,-95.1025 514.0475,-95.589 522.6245,-101.8088 524.6311,-95.1025"/>
</g>
<!-- Node53 -->
<g id="node11" class="node">
<title>Node53</title>
<g id="a_node11"><a xlink:href="xcsf_8h.html#a874829f28fee20f9ad15b540f4b4d6ff" target="_top" xlink:title="Executes MAX_TRIALS number of XCSF learning iterations using the training data. ">
<polygon fill="none" stroke="#000000" points="455,-.5 455,-19.5 509,-19.5 509,-.5 455,-.5"/>
<text text-anchor="middle" x="482" y="-7.5" font-family="Helvetica,sans-Serif" font-size="10.00" fill="#000000">xcsf_fit1</text>
</a>
</g>
</g>
<!-- Node52&#45;&gt;Node53 -->
<g id="edge11" class="edge">
<title>Node52&#45;&gt;Node53</title>
<path fill="none" stroke="#191970" d="M387.2271,-35.7241C409.4412,-29.6945 435.4767,-22.6277 454.6326,-17.4283"/>
<polygon fill="#191970" stroke="#191970" points="386.0619,-32.4136 377.3279,-38.411 387.8956,-39.1692 386.0619,-32.4136"/>
</g>
<!-- Node56 -->
<g id="node14" class="node">
<title>Node56</title>
<g id="a_node14"><a xlink:href="xcsf_8h.html#a0b4de57cb9dadc9deca7901aa36e5025" target="_top" xlink:title="Executes MAX_TRIALS number of XCSF learning iterations using the training. data and test iterations u...">
<polygon fill="none" stroke="#000000" points="455,-38.5 455,-57.5 509,-57.5 509,-38.5 455,-38.5"/>
<text text-anchor="middle" x="482" y="-45.5" font-family="Helvetica,sans-Serif" font-size="10.00" fill="#000000">xcsf_fit2</text>
</a>
</g>
</g>
<!-- Node52&#45;&gt;Node56 -->
<g id="edge14" class="edge">
<title>Node52&#45;&gt;Node56</title>
<path fill="none" stroke="#191970" d="M393.8921,-48C414.6074,-48 437.5945,-48 454.8938,-48"/>
<polygon fill="#191970" stroke="#191970" points="393.6256,-44.5001 383.6256,-48 393.6255,-51.5001 393.6256,-44.5001"/>
</g>
<!-- Node54 -->
<g id="node12" class="node">
<title>Node54</title>
<g id="a_node12"><a xlink:href="structXCS.html#ad2ccafe59d2b4ae6d0e1cbc15edee53c" target="_top" xlink:title="XCS::fit">
<polygon fill="none" stroke="#000000" points="583,-.5 583,-19.5 635,-19.5 635,-.5 583,-.5"/>
<text text-anchor="middle" x="609" y="-7.5" font-family="Helvetica,sans-Serif" font-size="10.00" fill="#000000">XCS::fit</text>
</a>
</g>
</g>
<!-- Node53&#45;&gt;Node54 -->
<g id="edge12" class="edge">
<title>Node53&#45;&gt;Node54</title>
<path fill="none" stroke="#191970" d="M519.4227,-10C539.7458,-10 564.3818,-10 582.6699,-10"/>
<polygon fill="#191970" stroke="#191970" points="519.2447,-6.5001 509.2447,-10 519.2447,-13.5001 519.2447,-6.5001"/>
</g>
<!-- Node55 -->
<g id="node13" class="node">
<title>Node55</title>
<g id="a_node13"><a xlink:href="python__wrapper_8cpp.html#afbdcc1358036a0b83a6b239da2b098a2" target="_top" xlink:title="BOOST_PYTHON_MODULE">
<polygon fill="none" stroke="#000000" points="682,-.5 682,-19.5 828,-19.5 828,-.5 682,-.5"/>
<text text-anchor="middle" x="755" y="-7.5" font-family="Helvetica,sans-Serif" font-size="10.00" fill="#000000">BOOST_PYTHON_MODULE</text>
</a>
</g>
</g>
<!-- Node54&#45;&gt;Node55 -->
<g id="edge13" class="edge">
<title>Node54&#45;&gt;Node55</title>
<path fill="none" stroke="#191970" d="M645.2709,-10C656.4242,-10 669.1243,-10 681.8312,-10"/>
<polygon fill="#191970" stroke="#191970" points="645.1019,-6.5001 635.1019,-10 645.1018,-13.5001 645.1019,-6.5001"/>
</g>
<!-- Node57 -->
<g id="node15" class="node">
<title>Node57</title>
<g id="a_node15"><a xlink:href="main_8c.html#a968c78da8ed8ad08662a86280deec99a" target="_top" xlink:title="regression">
<polygon fill="none" stroke="#000000" points="578,-76.5 578,-95.5 640,-95.5 640,-76.5 578,-76.5"/>
<text text-anchor="middle" x="609" y="-83.5" font-family="Helvetica,sans-Serif" font-size="10.00" fill="#000000">regression</text>
</a>
</g>
</g>
<!-- Node56&#45;&gt;Node57 -->
<g id="edge15" class="edge">
<title>Node56&#45;&gt;Node57</title>
<path fill="none" stroke="#191970" d="M518.8981,-59.0404C537.5652,-64.6258 559.9762,-71.3315 577.7773,-76.6578"/>
<polygon fill="#191970" stroke="#191970" points="519.8283,-55.6655 509.2447,-56.152 517.8217,-62.3717 519.8283,-55.6655"/>
</g>
<!-- Node58 -->
<g id="node16" class="node">
<title>Node58</title>
<g id="a_node16"><a xlink:href="structXCS.html#a7d53320740db8e846251bacd0238a9fb" target="_top" xlink:title="XCS::fit">
<polygon fill="none" stroke="#000000" points="583,-38.5 583,-57.5 635,-57.5 635,-38.5 583,-38.5"/>
<text text-anchor="middle" x="609" y="-45.5" font-family="Helvetica,sans-Serif" font-size="10.00" fill="#000000">XCS::fit</text>
</a>
</g>
</g>
<!-- Node56&#45;&gt;Node58 -->
<g id="edge17" class="edge">
<title>Node56&#45;&gt;Node58</title>
<path fill="none" stroke="#191970" d="M519.4227,-48C539.7458,-48 564.3818,-48 582.6699,-48"/>
<polygon fill="#191970" stroke="#191970" points="519.2447,-44.5001 509.2447,-48 519.2447,-51.5001 519.2447,-44.5001"/>
</g>
<!-- Node57&#45;&gt;Node49 -->
<g id="edge16" class="edge">
<title>Node57&#45;&gt;Node49</title>
<path fill="none" stroke="#191970" d="M650.2659,-91.3702C678.3244,-95.0217 714.1493,-99.6838 735.7946,-102.5007"/>
<polygon fill="#191970" stroke="#191970" points="650.6887,-87.8958 640.3207,-90.076 649.7853,-94.8373 650.6887,-87.8958"/>
</g>
</g>
</svg>
