<?xml version="1.0" encoding="UTF-8" standalone="no"?>
<!DOCTYPE svg PUBLIC "-//W3C//DTD SVG 1.1//EN"
 "http://www.w3.org/Graphics/SVG/1.1/DTD/svg11.dtd">
<!-- Generated by graphviz version 2.40.1 (20161225.0304)
 -->
<!-- Title: rule_neural_cond_init Pages: 1 -->
<svg width="839pt" height="180pt"
 viewBox="0.00 0.00 839.00 180.00" xmlns="http://www.w3.org/2000/svg" xmlns:xlink="http://www.w3.org/1999/xlink">
<g id="graph0" class="graph" transform="scale(1 1) rotate(0) translate(4 176)">
<title>rule_neural_cond_init</title>
<!-- Node58 -->
<g id="node1" class="node">
<title>Node58</title>
<polygon fill="#bfbfbf" stroke="#000000" points="0,-76.5 0,-95.5 108,-95.5 108,-76.5 0,-76.5"/>
<text text-anchor="middle" x="54" y="-83.5" font-family="Helvetica,sans-Serif" font-size="10.00" fill="#000000">rule_neural_cond_init</text>
</g>
<!-- Node59 -->
<g id="node2" class="node">
<title>Node59</title>
<g id="a_node2"><a xlink:href="utils_8c.html#a32648ab076544a9ac1c086d0f07b599f" target="_top" xlink:title="Returns a uniform random integer [min,max] not inclusive of max. ">
<polygon fill="none" stroke="#000000" points="175,-152.5 175,-171.5 250,-171.5 250,-152.5 175,-152.5"/>
<text text-anchor="middle" x="212.5" y="-159.5" font-family="Helvetica,sans-Serif" font-size="10.00" fill="#000000">irand_uniform</text>
</a>
</g>
</g>
<!-- Node58&#45;&gt;Node59 -->
<g id="edge1" class="edge">
<title>Node58&#45;&gt;Node59</title>
<path fill="none" stroke="#191970" d="M66.4431,-95.566C83.221,-108.0577 114.4146,-129.8741 144,-143 150.6699,-145.9592 157.9127,-148.5649 165.108,-150.8227"/>
<polygon fill="#191970" stroke="#191970" points="164.2508,-154.2188 174.8322,-153.6863 166.2282,-147.5039 164.2508,-154.2188"/>
</g>
<!-- Node65 -->
<g id="node8" class="node">
<title>Node65</title>
<g id="a_node8"><a xlink:href="neural_8c.html#a89a8b1cf58b3c2abe700d9e602e13c8e" target="_top" xlink:title="Initialises an empty neural network. ">
<polygon fill="none" stroke="#000000" points="182,-114.5 182,-133.5 243,-133.5 243,-114.5 182,-114.5"/>
<text text-anchor="middle" x="212.5" y="-121.5" font-family="Helvetica,sans-Serif" font-size="10.00" fill="#000000">neural_init</text>
</a>
</g>
</g>
<!-- Node58&#45;&gt;Node65 -->
<g id="edge7" class="edge">
<title>Node58&#45;&gt;Node65</title>
<path fill="none" stroke="#191970" d="M93.9962,-95.589C117.8288,-101.3028 147.9976,-108.5357 171.9307,-114.2736"/>
<polygon fill="#191970" stroke="#191970" points="171.2289,-117.7045 181.7693,-116.6324 172.8609,-110.8974 171.2289,-117.7045"/>
</g>
<!-- Node66 -->
<g id="node9" class="node">
<title>Node66</title>
<g id="a_node9"><a xlink:href="neural__layer__connected_8c.html#adcf59226c12296224d675cfb28892039" target="_top" xlink:title="neural_layer_connected_init">
<polygon fill="none" stroke="#000000" points="144,-76.5 144,-95.5 281,-95.5 281,-76.5 144,-76.5"/>
<text text-anchor="middle" x="212.5" y="-83.5" font-family="Helvetica,sans-Serif" font-size="10.00" fill="#000000">neural_layer_connected_init</text>
</a>
</g>
</g>
<!-- Node58&#45;&gt;Node66 -->
<g id="edge8" class="edge">
<title>Node58&#45;&gt;Node66</title>
<path fill="none" stroke="#191970" d="M108.1034,-86C116.354,-86 125.0102,-86 133.6599,-86"/>
<polygon fill="#191970" stroke="#191970" points="133.7863,-89.5001 143.7863,-86 133.7862,-82.5001 133.7863,-89.5001"/>
</g>
<!-- Node68 -->
<g id="node11" class="node">
<title>Node68</title>
<g id="a_node11"><a xlink:href="neural_8c.html#a6217c5bc4bdba93832cb4d8aa6c64d51" target="_top" xlink:title="Inserts a layer into a neural network. ">
<polygon fill="none" stroke="#000000" points="163.5,-38.5 163.5,-57.5 261.5,-57.5 261.5,-38.5 163.5,-38.5"/>
<text text-anchor="middle" x="212.5" y="-45.5" font-family="Helvetica,sans-Serif" font-size="10.00" fill="#000000">neural_layer_insert</text>
</a>
</g>
</g>
<!-- Node58&#45;&gt;Node68 -->
<g id="edge12" class="edge">
<title>Node58&#45;&gt;Node68</title>
<path fill="none" stroke="#191970" d="M93.9962,-76.411C114.912,-71.3965 140.7081,-65.2119 162.8864,-59.8947"/>
<polygon fill="#191970" stroke="#191970" points="163.883,-63.2551 172.7914,-57.5201 162.2509,-56.448 163.883,-63.2551"/>
</g>
<!-- Node69 -->
<g id="node12" class="node">
<title>Node69</title>
<g id="a_node12"><a xlink:href="rule__neural_8c.html#aef85634661a05ebde4850db80177fdf7" target="_top" xlink:title="rule_neural_lopt">
<polygon fill="none" stroke="#000000" points="170,-.5 170,-19.5 255,-19.5 255,-.5 170,-.5"/>
<text text-anchor="middle" x="212.5" y="-7.5" font-family="Helvetica,sans-Serif" font-size="10.00" fill="#000000">rule_neural_lopt</text>
</a>
</g>
</g>
<!-- Node58&#45;&gt;Node69 -->
<g id="edge13" class="edge">
<title>Node58&#45;&gt;Node69</title>
<path fill="none" stroke="#191970" d="M66.4431,-76.434C83.221,-63.9423 114.4146,-42.1259 144,-29 149.3479,-26.6274 155.0641,-24.4819 160.8289,-22.5609"/>
<polygon fill="#191970" stroke="#191970" points="162.015,-25.8573 170.5199,-19.5393 159.9313,-19.1746 162.015,-25.8573"/>
</g>
<!-- Node60 -->
<g id="node3" class="node">
<title>Node60</title>
<g id="a_node3"><a xlink:href="utils_8c.html#ae42a9e1d467853befaa7922cfafed3bb" target="_top" xlink:title="Returns a uniform random float [min,max]. ">
<polygon fill="none" stroke="#000000" points="317,-114.5 317,-133.5 390,-133.5 390,-114.5 317,-114.5"/>
<text text-anchor="middle" x="353.5" y="-121.5" font-family="Helvetica,sans-Serif" font-size="10.00" fill="#000000">rand_uniform</text>
</a>
</g>
</g>
<!-- Node59&#45;&gt;Node60 -->
<g id="edge2" class="edge">
<title>Node59&#45;&gt;Node60</title>
<path fill="none" stroke="#191970" d="M248.0803,-152.411C266.282,-147.5056 288.6384,-141.4804 308.0723,-136.2429"/>
<polygon fill="#191970" stroke="#191970" points="309.1864,-139.5676 317.9311,-133.5859 307.3648,-132.8088 309.1864,-139.5676"/>
</g>
<!-- Node61 -->
<g id="node4" class="node">
<title>Node61</title>
<g id="a_node4"><a xlink:href="utils_8c.html#a101d27cdda714b7f17a06224c65cac56" target="_top" xlink:title="Returns a uniform random float [0,1]. ">
<polygon fill="none" stroke="#000000" points="426,-95.5 426,-114.5 467,-114.5 467,-95.5 426,-95.5"/>
<text text-anchor="middle" x="446.5" y="-102.5" font-family="Helvetica,sans-Serif" font-size="10.00" fill="#000000">drand</text>
</a>
</g>
</g>
<!-- Node60&#45;&gt;Node61 -->
<g id="edge3" class="edge">
<title>Node60&#45;&gt;Node61</title>
<path fill="none" stroke="#191970" d="M390.2561,-116.4907C398.7524,-114.7549 407.7031,-112.9262 415.9036,-111.2509"/>
<polygon fill="#191970" stroke="#191970" points="416.7019,-114.6602 425.7989,-109.2293 415.3007,-107.8018 416.7019,-114.6602"/>
</g>
<!-- Node62 -->
<g id="node5" class="node">
<title>Node62</title>
<g id="a_node5"><a xlink:href="mt19937-64_8c.html#aa0b74daf51eca91df224d00f1730084a" target="_top" xlink:title="genrand64_real1">
<polygon fill="none" stroke="#000000" points="503,-95.5 503,-114.5 591,-114.5 591,-95.5 503,-95.5"/>
<text text-anchor="middle" x="547" y="-102.5" font-family="Helvetica,sans-Serif" font-size="10.00" fill="#000000">genrand64_real1</text>
</a>
</g>
</g>
<!-- Node61&#45;&gt;Node62 -->
<g id="edge4" class="edge">
<title>Node61&#45;&gt;Node62</title>
<path fill="none" stroke="#191970" d="M467.3237,-105C474.8428,-105 483.7193,-105 492.769,-105"/>
<polygon fill="#191970" stroke="#191970" points="492.9969,-108.5001 502.9969,-105 492.9969,-101.5001 492.9969,-108.5001"/>
</g>
<!-- Node63 -->
<g id="node6" class="node">
<title>Node63</title>
<g id="a_node6"><a xlink:href="mt19937-64_8c.html#a265bf48d20d6e0347371fcf4fe340e6d" target="_top" xlink:title="genrand64_int64">
<polygon fill="none" stroke="#000000" points="627,-95.5 627,-114.5 715,-114.5 715,-95.5 627,-95.5"/>
<text text-anchor="middle" x="671" y="-102.5" font-family="Helvetica,sans-Serif" font-size="10.00" fill="#000000">genrand64_int64</text>
</a>
</g>
</g>
<!-- Node62&#45;&gt;Node63 -->
<g id="edge5" class="edge">
<title>Node62&#45;&gt;Node63</title>
<path fill="none" stroke="#191970" d="M591.0669,-105C599.2822,-105 607.957,-105 616.4432,-105"/>
<polygon fill="#191970" stroke="#191970" points="616.6572,-108.5001 626.6572,-105 616.6572,-101.5001 616.6572,-108.5001"/>
</g>
<!-- Node64 -->
<g id="node7" class="node">
<title>Node64</title>
<g id="a_node7"><a xlink:href="mt19937-64_8c.html#adf4127d44c2dc34fcb318d406131ef7c" target="_top" xlink:title="init_genrand64">
<polygon fill="none" stroke="#000000" points="751,-95.5 751,-114.5 831,-114.5 831,-95.5 751,-95.5"/>
<text text-anchor="middle" x="791" y="-102.5" font-family="Helvetica,sans-Serif" font-size="10.00" fill="#000000">init_genrand64</text>
</a>
</g>
</g>
<!-- Node63&#45;&gt;Node64 -->
<g id="edge6" class="edge">
<title>Node63&#45;&gt;Node64</title>
<path fill="none" stroke="#191970" d="M715.0022,-105C723.3719,-105 732.1896,-105 740.7365,-105"/>
<polygon fill="#191970" stroke="#191970" points="740.9792,-108.5001 750.9792,-105 740.9792,-101.5001 740.9792,-108.5001"/>
</g>
<!-- Node66&#45;&gt;Node60 -->
<g id="edge11" class="edge">
<title>Node66&#45;&gt;Node60</title>
<path fill="none" stroke="#191970" d="M248.0803,-95.589C266.282,-100.4944 288.6384,-106.5196 308.0723,-111.7571"/>
<polygon fill="#191970" stroke="#191970" points="307.3648,-115.1912 317.9311,-114.4141 309.1864,-108.4324 307.3648,-115.1912"/>
</g>
<!-- Node67 -->
<g id="node10" class="node">
<title>Node67</title>
<g id="a_node10"><a xlink:href="utils_8c.html#aa57fc0f69e730ce0a348c25ee498643d" target="_top" xlink:title="Returns a normal random float with specified mean and standard deviation. ">
<polygon fill="none" stroke="#000000" points="318.5,-76.5 318.5,-95.5 388.5,-95.5 388.5,-76.5 318.5,-76.5"/>
<text text-anchor="middle" x="353.5" y="-83.5" font-family="Helvetica,sans-Serif" font-size="10.00" fill="#000000">rand_normal</text>
</a>
</g>
</g>
<!-- Node66&#45;&gt;Node67 -->
<g id="edge9" class="edge">
<title>Node66&#45;&gt;Node67</title>
<path fill="none" stroke="#191970" d="M281.3478,-86C290.4924,-86 299.6741,-86 308.277,-86"/>
<polygon fill="#191970" stroke="#191970" points="308.4423,-89.5001 318.4422,-86 308.4422,-82.5001 308.4423,-89.5001"/>
</g>
<!-- Node67&#45;&gt;Node61 -->
<g id="edge10" class="edge">
<title>Node67&#45;&gt;Node61</title>
<path fill="none" stroke="#191970" d="M388.6593,-93.1831C397.5821,-95.006 407.0982,-96.9502 415.7814,-98.7241"/>
<polygon fill="#191970" stroke="#191970" points="415.3657,-102.2114 425.8639,-100.784 416.7669,-95.3531 415.3657,-102.2114"/>
</g>
</g>
</svg>
