<?xml version="1.0" encoding="UTF-8" standalone="no"?>
<!DOCTYPE svg PUBLIC "-//W3C//DTD SVG 1.1//EN"
 "http://www.w3.org/Graphics/SVG/1.1/DTD/svg11.dtd">
<!-- Generated by graphviz version 2.40.1 (20161225.0304)
 -->
<!-- Title: rule_neural.h Pages: 1 -->
<svg width="162pt" height="84pt"
 viewBox="0.00 0.00 162.00 84.00" xmlns="http://www.w3.org/2000/svg" xmlns:xlink="http://www.w3.org/1999/xlink">
<g id="graph0" class="graph" transform="scale(1 1) rotate(0) translate(4 80)">
<title>rule_neural.h</title>
<!-- Node1 -->
<g id="node1" class="node">
<title>Node1</title>
<polygon fill="#bfbfbf" stroke="#000000" points="39,-56.5 39,-75.5 111,-75.5 111,-56.5 39,-56.5"/>
<text text-anchor="middle" x="75" y="-63.5" font-family="Helvetica,sans-Serif" font-size="10.00" fill="#000000">rule_neural.h</text>
</g>
<!-- Node2 -->
<g id="node2" class="node">
<title>Node2</title>
<g id="a_node2"><a xlink:href="$condition_8c.html" xlink:title="Interface for classifier conditions. ">
<polygon fill="none" stroke="#000000" points="0,-.5 0,-19.5 64,-19.5 64,-.5 0,-.5"/>
<text text-anchor="middle" x="32" y="-7.5" font-family="Helvetica,sans-Serif" font-size="10.00" fill="#000000">condition.c</text>
</a>
</g>
</g>
<!-- Node1&#45;&gt;Node2 -->
<g id="edge1" class="edge">
<title>Node1&#45;&gt;Node2</title>
<path fill="none" stroke="#191970" d="M61.3408,-48.2112C54.0737,-38.7472 45.4219,-27.4797 39.4042,-19.6427"/>
<polygon fill="#191970" stroke="#191970" points="58.6436,-50.4456 67.51,-56.2455 64.1957,-46.1824 58.6436,-50.4456"/>
</g>
<!-- Node3 -->
<g id="node3" class="node">
<title>Node3</title>
<g id="a_node3"><a xlink:href="$rule__neural_8c.html" xlink:title="Neural network rule (condition + action) functions. ">
<polygon fill="none" stroke="#000000" points="82,-.5 82,-19.5 154,-19.5 154,-.5 82,-.5"/>
<text text-anchor="middle" x="118" y="-7.5" font-family="Helvetica,sans-Serif" font-size="10.00" fill="#000000">rule_neural.c</text>
</a>
</g>
</g>
<!-- Node1&#45;&gt;Node3 -->
<g id="edge2" class="edge">
<title>Node1&#45;&gt;Node3</title>
<path fill="none" stroke="#191970" d="M88.6592,-48.2112C95.9263,-38.7472 104.5781,-27.4797 110.5958,-19.6427"/>
<polygon fill="#191970" stroke="#191970" points="85.8043,-46.1824 82.49,-56.2455 91.3564,-50.4456 85.8043,-46.1824"/>
</g>
</g>
</svg>
