<?xml version="1.0" encoding="UTF-8" standalone="no"?>
<!DOCTYPE svg PUBLIC "-//W3C//DTD SVG 1.1//EN"
 "http://www.w3.org/Graphics/SVG/1.1/DTD/svg11.dtd">
<!-- Generated by graphviz version 2.40.1 (20161225.0304)
 -->
<!-- Title: rule_dgp_cond_copy Pages: 1 -->
<svg width="1153pt" height="85pt"
 viewBox="0.00 0.00 1153.00 85.00" xmlns="http://www.w3.org/2000/svg" xmlns:xlink="http://www.w3.org/1999/xlink">
<g id="graph0" class="graph" transform="scale(1 1) rotate(0) translate(4 81)">
<title>rule_dgp_cond_copy</title>
<!-- Node45 -->
<g id="node1" class="node">
<title>Node45</title>
<polygon fill="#bfbfbf" stroke="#000000" points="0,-38.5 0,-57.5 106,-57.5 106,-38.5 0,-38.5"/>
<text text-anchor="middle" x="53" y="-45.5" font-family="Helvetica,sans-Serif" font-size="10.00" fill="#000000">rule_dgp_cond_copy</text>
</g>
<!-- Node46 -->
<g id="node2" class="node">
<title>Node46</title>
<g id="a_node2"><a xlink:href="dgp_8c.html#a88698e131854543f5efa881b6db0e573" target="_top" xlink:title="Copies a DGP graph. ">
<polygon fill="none" stroke="#000000" points="142,-57.5 142,-76.5 209,-76.5 209,-57.5 142,-57.5"/>
<text text-anchor="middle" x="175.5" y="-64.5" font-family="Helvetica,sans-Serif" font-size="10.00" fill="#000000">graph_copy</text>
</a>
</g>
</g>
<!-- Node45&#45;&gt;Node46 -->
<g id="edge1" class="edge">
<title>Node45&#45;&gt;Node46</title>
<path fill="none" stroke="#191970" d="M106.0178,-56.2232C114.6603,-57.5636 123.5255,-58.9387 131.9082,-60.2388"/>
<polygon fill="#191970" stroke="#191970" points="131.4283,-63.7062 141.8466,-61.7803 132.5012,-56.7889 131.4283,-63.7062"/>
</g>
<!-- Node47 -->
<g id="node3" class="node">
<title>Node47</title>
<g id="a_node3"><a xlink:href="dgp_8c.html#a10b25afd37a261629da7540c1f7a574c" target="_top" xlink:title="Initialises a new DGP graph. ">
<polygon fill="none" stroke="#000000" points="146,-19.5 146,-38.5 205,-38.5 205,-19.5 146,-19.5"/>
<text text-anchor="middle" x="175.5" y="-26.5" font-family="Helvetica,sans-Serif" font-size="10.00" fill="#000000">graph_init</text>
</a>
</g>
</g>
<!-- Node45&#45;&gt;Node47 -->
<g id="edge2" class="edge">
<title>Node45&#45;&gt;Node47</title>
<path fill="none" stroke="#191970" d="M106.0178,-39.7768C115.9899,-38.2301 126.2586,-36.6374 135.7403,-35.1668"/>
<polygon fill="#191970" stroke="#191970" points="136.3236,-38.6183 145.669,-33.6269 135.2507,-31.701 136.3236,-38.6183"/>
</g>
<!-- Node48 -->
<g id="node4" class="node">
<title>Node48</title>
<g id="a_node4"><a xlink:href="sam_8c.html#a3164f33509a5dc751b57a544fe2153a7" target="_top" xlink:title="Initialises self&#45;adaptive mutation rates. ">
<polygon fill="none" stroke="#000000" points="245,-19.5 245,-38.5 298,-38.5 298,-19.5 245,-19.5"/>
<text text-anchor="middle" x="271.5" y="-26.5" font-family="Helvetica,sans-Serif" font-size="10.00" fill="#000000">sam_init</text>
</a>
</g>
</g>
<!-- Node47&#45;&gt;Node48 -->
<g id="edge3" class="edge">
<title>Node47&#45;&gt;Node48</title>
<path fill="none" stroke="#191970" d="M205.0865,-29C214.3919,-29 224.7855,-29 234.5366,-29"/>
<polygon fill="#191970" stroke="#191970" points="234.7836,-32.5001 244.7836,-29 234.7835,-25.5001 234.7836,-32.5001"/>
</g>
<!-- Node49 -->
<g id="node5" class="node">
<title>Node49</title>
<g id="a_node5"><a xlink:href="sam_8c.html#a3376574f2624a397ac253242b1958491" target="_top" xlink:title="Initialises log normal self&#45;adaptive mutation rates. ">
<polygon fill="none" stroke="#000000" points="489,-38.5 489,-57.5 595,-57.5 595,-38.5 489,-38.5"/>
<text text-anchor="middle" x="542" y="-45.5" font-family="Helvetica,sans-Serif" font-size="10.00" fill="#000000">sam_log_normal_init</text>
</a>
</g>
</g>
<!-- Node48&#45;&gt;Node49 -->
<g id="edge4" class="edge">
<title>Node48&#45;&gt;Node49</title>
<path fill="none" stroke="#191970" d="M298.4255,-30.8913C340.1525,-33.8222 421.5782,-39.5415 478.7609,-43.5581"/>
<polygon fill="#191970" stroke="#191970" points="478.5642,-47.0528 488.7849,-44.2622 479.0548,-40.07 478.5642,-47.0528"/>
</g>
<!-- Node55 -->
<g id="node11" class="node">
<title>Node55</title>
<g id="a_node11"><a xlink:href="sam_8c.html#a5c510f09cd5f6069b67e1b9a59df7acc" target="_top" xlink:title="Initialises rate selection self&#45;adaptive mutation. ">
<polygon fill="none" stroke="#000000" points="334,-.5 334,-19.5 453,-19.5 453,-.5 334,-.5"/>
<text text-anchor="middle" x="393.5" y="-7.5" font-family="Helvetica,sans-Serif" font-size="10.00" fill="#000000">sam_rate_selection_init</text>
</a>
</g>
</g>
<!-- Node48&#45;&gt;Node55 -->
<g id="edge10" class="edge">
<title>Node48&#45;&gt;Node55</title>
<path fill="none" stroke="#191970" d="M298.2734,-24.8304C306,-23.627 314.8098,-22.255 323.879,-20.8426"/>
<polygon fill="#191970" stroke="#191970" points="324.4407,-24.2974 333.783,-19.3002 323.3635,-17.3808 324.4407,-24.2974"/>
</g>
<!-- Node50 -->
<g id="node6" class="node">
<title>Node50</title>
<g id="a_node6"><a xlink:href="utils_8c.html#ae42a9e1d467853befaa7922cfafed3bb" target="_top" xlink:title="Returns a uniform random float [min,max]. ">
<polygon fill="none" stroke="#000000" points="631,-19.5 631,-38.5 704,-38.5 704,-19.5 631,-19.5"/>
<text text-anchor="middle" x="667.5" y="-26.5" font-family="Helvetica,sans-Serif" font-size="10.00" fill="#000000">rand_uniform</text>
</a>
</g>
</g>
<!-- Node49&#45;&gt;Node50 -->
<g id="edge5" class="edge">
<title>Node49&#45;&gt;Node50</title>
<path fill="none" stroke="#191970" d="M595.2233,-39.9423C603.7725,-38.648 612.5632,-37.3171 620.9406,-36.0488"/>
<polygon fill="#191970" stroke="#191970" points="621.5469,-39.497 630.9103,-34.5395 620.4991,-32.5759 621.5469,-39.497"/>
</g>
<!-- Node51 -->
<g id="node7" class="node">
<title>Node51</title>
<g id="a_node7"><a xlink:href="utils_8c.html#a101d27cdda714b7f17a06224c65cac56" target="_top" xlink:title="Returns a uniform random float [0,1]. ">
<polygon fill="none" stroke="#000000" points="740,-19.5 740,-38.5 781,-38.5 781,-19.5 740,-19.5"/>
<text text-anchor="middle" x="760.5" y="-26.5" font-family="Helvetica,sans-Serif" font-size="10.00" fill="#000000">drand</text>
</a>
</g>
</g>
<!-- Node50&#45;&gt;Node51 -->
<g id="edge6" class="edge">
<title>Node50&#45;&gt;Node51</title>
<path fill="none" stroke="#191970" d="M704.2561,-29C712.658,-29 721.5043,-29 729.63,-29"/>
<polygon fill="#191970" stroke="#191970" points="729.799,-32.5001 739.7989,-29 729.7989,-25.5001 729.799,-32.5001"/>
</g>
<!-- Node52 -->
<g id="node8" class="node">
<title>Node52</title>
<g id="a_node8"><a xlink:href="mt19937-64_8c.html#aa0b74daf51eca91df224d00f1730084a" target="_top" xlink:title="genrand64_real1">
<polygon fill="none" stroke="#000000" points="817,-19.5 817,-38.5 905,-38.5 905,-19.5 817,-19.5"/>
<text text-anchor="middle" x="861" y="-26.5" font-family="Helvetica,sans-Serif" font-size="10.00" fill="#000000">genrand64_real1</text>
</a>
</g>
</g>
<!-- Node51&#45;&gt;Node52 -->
<g id="edge7" class="edge">
<title>Node51&#45;&gt;Node52</title>
<path fill="none" stroke="#191970" d="M781.3237,-29C788.8428,-29 797.7193,-29 806.769,-29"/>
<polygon fill="#191970" stroke="#191970" points="806.9969,-32.5001 816.9969,-29 806.9969,-25.5001 806.9969,-32.5001"/>
</g>
<!-- Node53 -->
<g id="node9" class="node">
<title>Node53</title>
<g id="a_node9"><a xlink:href="mt19937-64_8c.html#a265bf48d20d6e0347371fcf4fe340e6d" target="_top" xlink:title="genrand64_int64">
<polygon fill="none" stroke="#000000" points="941,-19.5 941,-38.5 1029,-38.5 1029,-19.5 941,-19.5"/>
<text text-anchor="middle" x="985" y="-26.5" font-family="Helvetica,sans-Serif" font-size="10.00" fill="#000000">genrand64_int64</text>
</a>
</g>
</g>
<!-- Node52&#45;&gt;Node53 -->
<g id="edge8" class="edge">
<title>Node52&#45;&gt;Node53</title>
<path fill="none" stroke="#191970" d="M905.0669,-29C913.2822,-29 921.957,-29 930.4432,-29"/>
<polygon fill="#191970" stroke="#191970" points="930.6572,-32.5001 940.6572,-29 930.6572,-25.5001 930.6572,-32.5001"/>
</g>
<!-- Node54 -->
<g id="node10" class="node">
<title>Node54</title>
<g id="a_node10"><a xlink:href="mt19937-64_8c.html#adf4127d44c2dc34fcb318d406131ef7c" target="_top" xlink:title="init_genrand64">
<polygon fill="none" stroke="#000000" points="1065,-19.5 1065,-38.5 1145,-38.5 1145,-19.5 1065,-19.5"/>
<text text-anchor="middle" x="1105" y="-26.5" font-family="Helvetica,sans-Serif" font-size="10.00" fill="#000000">init_genrand64</text>
</a>
</g>
</g>
<!-- Node53&#45;&gt;Node54 -->
<g id="edge9" class="edge">
<title>Node53&#45;&gt;Node54</title>
<path fill="none" stroke="#191970" d="M1029.0022,-29C1037.3719,-29 1046.1896,-29 1054.7365,-29"/>
<polygon fill="#191970" stroke="#191970" points="1054.9792,-32.5001 1064.9792,-29 1054.9792,-25.5001 1054.9792,-32.5001"/>
</g>
<!-- Node56 -->
<g id="node12" class="node">
<title>Node56</title>
<g id="a_node12"><a xlink:href="utils_8c.html#a32648ab076544a9ac1c086d0f07b599f" target="_top" xlink:title="Returns a uniform random integer [min,max] not inclusive of max. ">
<polygon fill="none" stroke="#000000" points="504.5,-.5 504.5,-19.5 579.5,-19.5 579.5,-.5 504.5,-.5"/>
<text text-anchor="middle" x="542" y="-7.5" font-family="Helvetica,sans-Serif" font-size="10.00" fill="#000000">irand_uniform</text>
</a>
</g>
</g>
<!-- Node55&#45;&gt;Node56 -->
<g id="edge11" class="edge">
<title>Node55&#45;&gt;Node56</title>
<path fill="none" stroke="#191970" d="M453.045,-10C466.6704,-10 480.9841,-10 494.05,-10"/>
<polygon fill="#191970" stroke="#191970" points="494.2241,-13.5001 504.2241,-10 494.2241,-6.5001 494.2241,-13.5001"/>
</g>
<!-- Node56&#45;&gt;Node50 -->
<g id="edge12" class="edge">
<title>Node56&#45;&gt;Node50</title>
<path fill="none" stroke="#191970" d="M579.6541,-15.7006C592.542,-17.6518 607.1208,-19.8589 620.6451,-21.9064"/>
<polygon fill="#191970" stroke="#191970" points="620.3248,-25.3977 630.7361,-23.4342 621.3727,-18.4766 620.3248,-25.3977"/>
</g>
</g>
</svg>
