<?xml version="1.0" encoding="UTF-8" standalone="no"?>
<!DOCTYPE svg PUBLIC "-//W3C//DTD SVG 1.1//EN"
 "http://www.w3.org/Graphics/SVG/1.1/DTD/svg11.dtd">
<!-- Generated by graphviz version 2.40.1 (20161225.0304)
 -->
<!-- Title: rule_neural_cond_init Pages: 1 -->
<svg width="839pt" height="142pt"
 viewBox="0.00 0.00 839.00 142.00" xmlns="http://www.w3.org/2000/svg" xmlns:xlink="http://www.w3.org/1999/xlink">
<g id="graph0" class="graph" transform="scale(1 1) rotate(0) translate(4 138)">
<title>rule_neural_cond_init</title>
<!-- Node58 -->
<g id="node1" class="node">
<title>Node58</title>
<polygon fill="#bfbfbf" stroke="#000000" points="0,-57.5 0,-76.5 108,-76.5 108,-57.5 0,-57.5"/>
<text text-anchor="middle" x="54" y="-64.5" font-family="Helvetica,sans-Serif" font-size="10.00" fill="#000000">rule_neural_cond_init</text>
</g>
<!-- Node59 -->
<g id="node2" class="node">
<title>Node59</title>
<g id="a_node2"><a xlink:href="neural_8c.html#a89a8b1cf58b3c2abe700d9e602e13c8e" target="_top" xlink:title="Initialises an empty neural network. ">
<polygon fill="none" stroke="#000000" points="182,-114.5 182,-133.5 243,-133.5 243,-114.5 182,-114.5"/>
<text text-anchor="middle" x="212.5" y="-121.5" font-family="Helvetica,sans-Serif" font-size="10.00" fill="#000000">neural_init</text>
</a>
</g>
</g>
<!-- Node58&#45;&gt;Node59 -->
<g id="edge1" class="edge">
<title>Node58&#45;&gt;Node59</title>
<path fill="none" stroke="#191970" d="M74.4376,-76.5219C92.4898,-84.7161 119.6533,-96.5232 144,-105 152.9872,-108.1291 162.7751,-111.0969 172.066,-113.7168"/>
<polygon fill="#191970" stroke="#191970" points="171.3213,-117.1418 181.8912,-116.4143 173.1746,-110.3916 171.3213,-117.1418"/>
</g>
<!-- Node60 -->
<g id="node3" class="node">
<title>Node60</title>
<g id="a_node3"><a xlink:href="neural__layer__connected_8c.html#adcf59226c12296224d675cfb28892039" target="_top" xlink:title="neural_layer_connected_init">
<polygon fill="none" stroke="#000000" points="144,-76.5 144,-95.5 281,-95.5 281,-76.5 144,-76.5"/>
<text text-anchor="middle" x="212.5" y="-83.5" font-family="Helvetica,sans-Serif" font-size="10.00" fill="#000000">neural_layer_connected_init</text>
</a>
</g>
</g>
<!-- Node58&#45;&gt;Node60 -->
<g id="edge2" class="edge">
<title>Node58&#45;&gt;Node60</title>
<path fill="none" stroke="#191970" d="M108.1034,-73.4856C116.354,-74.4746 125.0102,-75.5123 133.6599,-76.5491"/>
<polygon fill="#191970" stroke="#191970" points="133.4408,-80.0478 143.7863,-77.763 134.274,-73.0976 133.4408,-80.0478"/>
</g>
<!-- Node67 -->
<g id="node10" class="node">
<title>Node67</title>
<g id="a_node10"><a xlink:href="neural_8c.html#a6217c5bc4bdba93832cb4d8aa6c64d51" target="_top" xlink:title="Inserts a layer into a neural network. ">
<polygon fill="none" stroke="#000000" points="163.5,-38.5 163.5,-57.5 261.5,-57.5 261.5,-38.5 163.5,-38.5"/>
<text text-anchor="middle" x="212.5" y="-45.5" font-family="Helvetica,sans-Serif" font-size="10.00" fill="#000000">neural_layer_insert</text>
</a>
</g>
</g>
<!-- Node58&#45;&gt;Node67 -->
<g id="edge10" class="edge">
<title>Node58&#45;&gt;Node67</title>
<path fill="none" stroke="#191970" d="M108.1034,-60.5144C122.6764,-58.7675 138.5151,-56.8689 153.348,-55.0908"/>
<polygon fill="#191970" stroke="#191970" points="153.916,-58.5478 163.4283,-53.8824 153.0828,-51.5976 153.916,-58.5478"/>
</g>
<!-- Node68 -->
<g id="node11" class="node">
<title>Node68</title>
<g id="a_node11"><a xlink:href="rule__neural_8c.html#aef85634661a05ebde4850db80177fdf7" target="_top" xlink:title="rule_neural_lopt">
<polygon fill="none" stroke="#000000" points="170,-.5 170,-19.5 255,-19.5 255,-.5 170,-.5"/>
<text text-anchor="middle" x="212.5" y="-7.5" font-family="Helvetica,sans-Serif" font-size="10.00" fill="#000000">rule_neural_lopt</text>
</a>
</g>
</g>
<!-- Node58&#45;&gt;Node68 -->
<g id="edge11" class="edge">
<title>Node58&#45;&gt;Node68</title>
<path fill="none" stroke="#191970" d="M74.4376,-57.4781C92.4898,-49.2839 119.6533,-37.4768 144,-29 150.5779,-26.7098 157.5847,-24.5059 164.5116,-22.4617"/>
<polygon fill="#191970" stroke="#191970" points="165.8936,-25.7067 174.5439,-19.5893 163.9668,-18.9771 165.8936,-25.7067"/>
</g>
<!-- Node61 -->
<g id="node4" class="node">
<title>Node61</title>
<g id="a_node4"><a xlink:href="utils_8c.html#aa57fc0f69e730ce0a348c25ee498643d" target="_top" xlink:title="Returns a normal random float with specified mean and standard deviation. ">
<polygon fill="none" stroke="#000000" points="318.5,-95.5 318.5,-114.5 388.5,-114.5 388.5,-95.5 318.5,-95.5"/>
<text text-anchor="middle" x="353.5" y="-102.5" font-family="Helvetica,sans-Serif" font-size="10.00" fill="#000000">rand_normal</text>
</a>
</g>
</g>
<!-- Node60&#45;&gt;Node61 -->
<g id="edge3" class="edge">
<title>Node60&#45;&gt;Node61</title>
<path fill="none" stroke="#191970" d="M281.3478,-95.2774C290.4924,-96.5096 299.6741,-97.7469 308.277,-98.9061"/>
<polygon fill="#191970" stroke="#191970" points="308.0644,-102.409 318.4422,-100.2759 308.9992,-95.4717 308.0644,-102.409"/>
</g>
<!-- Node66 -->
<g id="node9" class="node">
<title>Node66</title>
<g id="a_node9"><a xlink:href="utils_8c.html#ae42a9e1d467853befaa7922cfafed3bb" target="_top" xlink:title="Returns a uniform random float [min,max]. ">
<polygon fill="none" stroke="#000000" points="317,-57.5 317,-76.5 390,-76.5 390,-57.5 317,-57.5"/>
<text text-anchor="middle" x="353.5" y="-64.5" font-family="Helvetica,sans-Serif" font-size="10.00" fill="#000000">rand_uniform</text>
</a>
</g>
</g>
<!-- Node60&#45;&gt;Node66 -->
<g id="edge8" class="edge">
<title>Node60&#45;&gt;Node66</title>
<path fill="none" stroke="#191970" d="M281.3478,-76.7226C289.9987,-75.5569 298.6828,-74.3867 306.8787,-73.2823"/>
<polygon fill="#191970" stroke="#191970" points="307.5168,-76.728 316.9597,-71.9239 306.5819,-69.7907 307.5168,-76.728"/>
</g>
<!-- Node62 -->
<g id="node5" class="node">
<title>Node62</title>
<g id="a_node5"><a xlink:href="utils_8c.html#a101d27cdda714b7f17a06224c65cac56" target="_top" xlink:title="Returns a uniform random float [0,1]. ">
<polygon fill="none" stroke="#000000" points="426,-76.5 426,-95.5 467,-95.5 467,-76.5 426,-76.5"/>
<text text-anchor="middle" x="446.5" y="-83.5" font-family="Helvetica,sans-Serif" font-size="10.00" fill="#000000">drand</text>
</a>
</g>
</g>
<!-- Node61&#45;&gt;Node62 -->
<g id="edge4" class="edge">
<title>Node61&#45;&gt;Node62</title>
<path fill="none" stroke="#191970" d="M388.6593,-97.8169C397.5821,-95.994 407.0982,-94.0498 415.7814,-92.2759"/>
<polygon fill="#191970" stroke="#191970" points="416.7669,-95.6469 425.8639,-90.216 415.3657,-88.7886 416.7669,-95.6469"/>
</g>
<!-- Node63 -->
<g id="node6" class="node">
<title>Node63</title>
<g id="a_node6"><a xlink:href="mt19937-64_8c.html#aa0b74daf51eca91df224d00f1730084a" target="_top" xlink:title="genrand64_real1">
<polygon fill="none" stroke="#000000" points="503,-76.5 503,-95.5 591,-95.5 591,-76.5 503,-76.5"/>
<text text-anchor="middle" x="547" y="-83.5" font-family="Helvetica,sans-Serif" font-size="10.00" fill="#000000">genrand64_real1</text>
</a>
</g>
</g>
<!-- Node62&#45;&gt;Node63 -->
<g id="edge5" class="edge">
<title>Node62&#45;&gt;Node63</title>
<path fill="none" stroke="#191970" d="M467.3237,-86C474.8428,-86 483.7193,-86 492.769,-86"/>
<polygon fill="#191970" stroke="#191970" points="492.9969,-89.5001 502.9969,-86 492.9969,-82.5001 492.9969,-89.5001"/>
</g>
<!-- Node64 -->
<g id="node7" class="node">
<title>Node64</title>
<g id="a_node7"><a xlink:href="mt19937-64_8c.html#a265bf48d20d6e0347371fcf4fe340e6d" target="_top" xlink:title="genrand64_int64">
<polygon fill="none" stroke="#000000" points="627,-76.5 627,-95.5 715,-95.5 715,-76.5 627,-76.5"/>
<text text-anchor="middle" x="671" y="-83.5" font-family="Helvetica,sans-Serif" font-size="10.00" fill="#000000">genrand64_int64</text>
</a>
</g>
</g>
<!-- Node63&#45;&gt;Node64 -->
<g id="edge6" class="edge">
<title>Node63&#45;&gt;Node64</title>
<path fill="none" stroke="#191970" d="M591.0669,-86C599.2822,-86 607.957,-86 616.4432,-86"/>
<polygon fill="#191970" stroke="#191970" points="616.6572,-89.5001 626.6572,-86 616.6572,-82.5001 616.6572,-89.5001"/>
</g>
<!-- Node65 -->
<g id="node8" class="node">
<title>Node65</title>
<g id="a_node8"><a xlink:href="mt19937-64_8c.html#adf4127d44c2dc34fcb318d406131ef7c" target="_top" xlink:title="init_genrand64">
<polygon fill="none" stroke="#000000" points="751,-76.5 751,-95.5 831,-95.5 831,-76.5 751,-76.5"/>
<text text-anchor="middle" x="791" y="-83.5" font-family="Helvetica,sans-Serif" font-size="10.00" fill="#000000">init_genrand64</text>
</a>
</g>
</g>
<!-- Node64&#45;&gt;Node65 -->
<g id="edge7" class="edge">
<title>Node64&#45;&gt;Node65</title>
<path fill="none" stroke="#191970" d="M715.0022,-86C723.3719,-86 732.1896,-86 740.7365,-86"/>
<polygon fill="#191970" stroke="#191970" points="740.9792,-89.5001 750.9792,-86 740.9792,-82.5001 740.9792,-89.5001"/>
</g>
<!-- Node66&#45;&gt;Node62 -->
<g id="edge9" class="edge">
<title>Node66&#45;&gt;Node62</title>
<path fill="none" stroke="#191970" d="M390.2561,-74.5093C398.7524,-76.2451 407.7031,-78.0738 415.9036,-79.7491"/>
<polygon fill="#191970" stroke="#191970" points="415.3007,-83.1982 425.7989,-81.7707 416.7019,-76.3398 415.3007,-83.1982"/>
</g>
</g>
</svg>
