<?xml version="1.0" encoding="UTF-8" standalone="no"?>
<!DOCTYPE svg PUBLIC "-//W3C//DTD SVG 1.1//EN"
 "http://www.w3.org/Graphics/SVG/1.1/DTD/svg11.dtd">
<!-- Generated by graphviz version 2.40.1 (20161225.0304)
 -->
<!-- Title: rule_neural_cond_mutate Pages: 1 -->
<svg width="1203pt" height="180pt"
 viewBox="0.00 0.00 1203.00 180.00" xmlns="http://www.w3.org/2000/svg" xmlns:xlink="http://www.w3.org/1999/xlink">
<g id="graph0" class="graph" transform="scale(1 1) rotate(0) translate(4 176)">
<title>rule_neural_cond_mutate</title>
<!-- Node104 -->
<g id="node1" class="node">
<title>Node104</title>
<polygon fill="#bfbfbf" stroke="#000000" points="0,-95.5 0,-114.5 125,-114.5 125,-95.5 0,-95.5"/>
<text text-anchor="middle" x="62.5" y="-102.5" font-family="Helvetica,sans-Serif" font-size="10.00" fill="#000000">rule_neural_cond_mutate</text>
</g>
<!-- Node105 -->
<g id="node2" class="node">
<title>Node105</title>
<g id="a_node2"><a xlink:href="neural_8c.html#a9da7f9b824f9ef3e27e2e7c3a275a975" target="_top" xlink:title="Mutates a neural network. ">
<polygon fill="none" stroke="#000000" points="161,-95.5 161,-114.5 239,-114.5 239,-95.5 161,-95.5"/>
<text text-anchor="middle" x="200" y="-102.5" font-family="Helvetica,sans-Serif" font-size="10.00" fill="#000000">neural_mutate</text>
</a>
</g>
</g>
<!-- Node104&#45;&gt;Node105 -->
<g id="edge1" class="edge">
<title>Node104&#45;&gt;Node105</title>
<path fill="none" stroke="#191970" d="M125.2144,-105C133.7803,-105 142.472,-105 150.7523,-105"/>
<polygon fill="#191970" stroke="#191970" points="150.9802,-108.5001 160.9802,-105 150.9801,-101.5001 150.9802,-108.5001"/>
</g>
<!-- Node106 -->
<g id="node3" class="node">
<title>Node106</title>
<g id="a_node3"><a xlink:href="neural__layer_8h.html#aba48b2cb173d0298d54f222dc70eada8" target="_top" xlink:title="layer_mutate">
<polygon fill="none" stroke="#000000" points="275,-152.5 275,-171.5 348,-171.5 348,-152.5 275,-152.5"/>
<text text-anchor="middle" x="311.5" y="-159.5" font-family="Helvetica,sans-Serif" font-size="10.00" fill="#000000">layer_mutate</text>
</a>
</g>
</g>
<!-- Node105&#45;&gt;Node106 -->
<g id="edge2" class="edge">
<title>Node105&#45;&gt;Node106</title>
<path fill="none" stroke="#191970" d="M218.6626,-114.5405C236.4309,-123.6239 263.3977,-137.4096 283.6969,-147.7867"/>
<polygon fill="#191970" stroke="#191970" points="282.2794,-150.9929 292.7765,-152.4284 285.4657,-144.7601 282.2794,-150.9929"/>
</g>
<!-- Node107 -->
<g id="node4" class="node">
<title>Node107</title>
<g id="a_node4"><a xlink:href="neural__layer_8h.html#ab76b0a2c3d47e870fb8e8086ece24766" target="_top" xlink:title="layer_resize">
<polygon fill="none" stroke="#000000" points="277,-114.5 277,-133.5 346,-133.5 346,-114.5 277,-114.5"/>
<text text-anchor="middle" x="311.5" y="-121.5" font-family="Helvetica,sans-Serif" font-size="10.00" fill="#000000">layer_resize</text>
</a>
</g>
</g>
<!-- Node105&#45;&gt;Node107 -->
<g id="edge3" class="edge">
<title>Node105&#45;&gt;Node107</title>
<path fill="none" stroke="#191970" d="M239.3107,-111.6987C248.2394,-113.2202 257.7858,-114.8469 266.9157,-116.4027"/>
<polygon fill="#191970" stroke="#191970" points="266.5456,-119.89 276.9914,-118.1196 267.7215,-112.9894 266.5456,-119.89"/>
</g>
<!-- Node108 -->
<g id="node5" class="node">
<title>Node108</title>
<g id="a_node5"><a xlink:href="neural_8c.html#aae496b78c4dfc64d20cef1598ca96184" target="_top" xlink:title="mutate_eta">
<polygon fill="none" stroke="#000000" points="279,-76.5 279,-95.5 344,-95.5 344,-76.5 279,-76.5"/>
<text text-anchor="middle" x="311.5" y="-83.5" font-family="Helvetica,sans-Serif" font-size="10.00" fill="#000000">mutate_eta</text>
</a>
</g>
</g>
<!-- Node105&#45;&gt;Node108 -->
<g id="edge4" class="edge">
<title>Node105&#45;&gt;Node108</title>
<path fill="none" stroke="#191970" d="M239.3107,-98.3013C248.8967,-96.6678 259.1948,-94.913 268.925,-93.2549"/>
<polygon fill="#191970" stroke="#191970" points="269.5356,-96.7014 278.8056,-91.5712 268.3597,-89.8009 269.5356,-96.7014"/>
</g>
<!-- Node115 -->
<g id="node12" class="node">
<title>Node115</title>
<g id="a_node12"><a xlink:href="sam_8c.html#a3164f33509a5dc751b57a544fe2153a7" target="_top" xlink:title="Initialises self&#45;adaptive mutation rates. ">
<polygon fill="none" stroke="#000000" points="285,-38.5 285,-57.5 338,-57.5 338,-38.5 285,-38.5"/>
<text text-anchor="middle" x="311.5" y="-45.5" font-family="Helvetica,sans-Serif" font-size="10.00" fill="#000000">sam_init</text>
</a>
</g>
</g>
<!-- Node105&#45;&gt;Node115 -->
<g id="edge11" class="edge">
<title>Node105&#45;&gt;Node115</title>
<path fill="none" stroke="#191970" d="M218.6626,-95.4595C236.4309,-86.3761 263.3977,-72.5904 283.6969,-62.2133"/>
<polygon fill="#191970" stroke="#191970" points="285.4657,-65.2399 292.7765,-57.5716 282.2794,-59.0071 285.4657,-65.2399"/>
</g>
<!-- Node109 -->
<g id="node6" class="node">
<title>Node109</title>
<g id="a_node6"><a xlink:href="utils_8c.html#a4d9693be6ce890dc7a2ee825d11ca3ee" target="_top" xlink:title="Returns a float constrained within the specified range. ">
<polygon fill="none" stroke="#000000" points="415.5,-114.5 415.5,-133.5 471.5,-133.5 471.5,-114.5 415.5,-114.5"/>
<text text-anchor="middle" x="443.5" y="-121.5" font-family="Helvetica,sans-Serif" font-size="10.00" fill="#000000">constrain</text>
</a>
</g>
</g>
<!-- Node108&#45;&gt;Node109 -->
<g id="edge5" class="edge">
<title>Node108&#45;&gt;Node109</title>
<path fill="none" stroke="#191970" d="M344.1292,-95.3933C362.723,-100.746 386.112,-107.4792 405.5271,-113.0684"/>
<polygon fill="#191970" stroke="#191970" points="404.6933,-116.4704 415.2713,-115.8735 406.6298,-109.7436 404.6933,-116.4704"/>
</g>
<!-- Node110 -->
<g id="node7" class="node">
<title>Node110</title>
<g id="a_node7"><a xlink:href="utils_8c.html#aa57fc0f69e730ce0a348c25ee498643d" target="_top" xlink:title="Returns a normal random float with specified mean and standard deviation. ">
<polygon fill="none" stroke="#000000" points="557,-76.5 557,-95.5 627,-95.5 627,-76.5 557,-76.5"/>
<text text-anchor="middle" x="592" y="-83.5" font-family="Helvetica,sans-Serif" font-size="10.00" fill="#000000">rand_normal</text>
</a>
</g>
</g>
<!-- Node108&#45;&gt;Node110 -->
<g id="edge6" class="edge">
<title>Node108&#45;&gt;Node110</title>
<path fill="none" stroke="#191970" d="M344.2259,-86C394.2921,-86 490.045,-86 546.736,-86"/>
<polygon fill="#191970" stroke="#191970" points="546.8471,-89.5001 556.8471,-86 546.847,-82.5001 546.8471,-89.5001"/>
</g>
<!-- Node111 -->
<g id="node8" class="node">
<title>Node111</title>
<g id="a_node8"><a xlink:href="utils_8c.html#a101d27cdda714b7f17a06224c65cac56" target="_top" xlink:title="Returns a uniform random float [0,1]. ">
<polygon fill="none" stroke="#000000" points="790,-57.5 790,-76.5 831,-76.5 831,-57.5 790,-57.5"/>
<text text-anchor="middle" x="810.5" y="-64.5" font-family="Helvetica,sans-Serif" font-size="10.00" fill="#000000">drand</text>
</a>
</g>
</g>
<!-- Node110&#45;&gt;Node111 -->
<g id="edge7" class="edge">
<title>Node110&#45;&gt;Node111</title>
<path fill="none" stroke="#191970" d="M627.1058,-82.9473C669.408,-79.2689 739.7911,-73.1486 779.9475,-69.6567"/>
<polygon fill="#191970" stroke="#191970" points="780.288,-73.1404 789.9471,-68.7872 779.6815,-66.1668 780.288,-73.1404"/>
</g>
<!-- Node112 -->
<g id="node9" class="node">
<title>Node112</title>
<g id="a_node9"><a xlink:href="mt19937-64_8c.html#aa0b74daf51eca91df224d00f1730084a" target="_top" xlink:title="genrand64_real1">
<polygon fill="none" stroke="#000000" points="867,-57.5 867,-76.5 955,-76.5 955,-57.5 867,-57.5"/>
<text text-anchor="middle" x="911" y="-64.5" font-family="Helvetica,sans-Serif" font-size="10.00" fill="#000000">genrand64_real1</text>
</a>
</g>
</g>
<!-- Node111&#45;&gt;Node112 -->
<g id="edge8" class="edge">
<title>Node111&#45;&gt;Node112</title>
<path fill="none" stroke="#191970" d="M831.3237,-67C838.8428,-67 847.7193,-67 856.769,-67"/>
<polygon fill="#191970" stroke="#191970" points="856.9969,-70.5001 866.9969,-67 856.9969,-63.5001 856.9969,-70.5001"/>
</g>
<!-- Node113 -->
<g id="node10" class="node">
<title>Node113</title>
<g id="a_node10"><a xlink:href="mt19937-64_8c.html#a265bf48d20d6e0347371fcf4fe340e6d" target="_top" xlink:title="genrand64_int64">
<polygon fill="none" stroke="#000000" points="991,-57.5 991,-76.5 1079,-76.5 1079,-57.5 991,-57.5"/>
<text text-anchor="middle" x="1035" y="-64.5" font-family="Helvetica,sans-Serif" font-size="10.00" fill="#000000">genrand64_int64</text>
</a>
</g>
</g>
<!-- Node112&#45;&gt;Node113 -->
<g id="edge9" class="edge">
<title>Node112&#45;&gt;Node113</title>
<path fill="none" stroke="#191970" d="M955.0669,-67C963.2822,-67 971.957,-67 980.4432,-67"/>
<polygon fill="#191970" stroke="#191970" points="980.6572,-70.5001 990.6572,-67 980.6572,-63.5001 980.6572,-70.5001"/>
</g>
<!-- Node114 -->
<g id="node11" class="node">
<title>Node114</title>
<g id="a_node11"><a xlink:href="mt19937-64_8c.html#adf4127d44c2dc34fcb318d406131ef7c" target="_top" xlink:title="init_genrand64">
<polygon fill="none" stroke="#000000" points="1115,-57.5 1115,-76.5 1195,-76.5 1195,-57.5 1115,-57.5"/>
<text text-anchor="middle" x="1155" y="-64.5" font-family="Helvetica,sans-Serif" font-size="10.00" fill="#000000">init_genrand64</text>
</a>
</g>
</g>
<!-- Node113&#45;&gt;Node114 -->
<g id="edge10" class="edge">
<title>Node113&#45;&gt;Node114</title>
<path fill="none" stroke="#191970" d="M1079.0022,-67C1087.3719,-67 1096.1896,-67 1104.7365,-67"/>
<polygon fill="#191970" stroke="#191970" points="1104.9792,-70.5001 1114.9792,-67 1104.9792,-63.5001 1104.9792,-70.5001"/>
</g>
<!-- Node116 -->
<g id="node13" class="node">
<title>Node116</title>
<g id="a_node13"><a xlink:href="sam_8c.html#a3376574f2624a397ac253242b1958491" target="_top" xlink:title="Initialises log normal self&#45;adaptive mutation rates. ">
<polygon fill="none" stroke="#000000" points="539,-38.5 539,-57.5 645,-57.5 645,-38.5 539,-38.5"/>
<text text-anchor="middle" x="592" y="-45.5" font-family="Helvetica,sans-Serif" font-size="10.00" fill="#000000">sam_log_normal_init</text>
</a>
</g>
</g>
<!-- Node115&#45;&gt;Node116 -->
<g id="edge12" class="edge">
<title>Node115&#45;&gt;Node116</title>
<path fill="none" stroke="#191970" d="M338.1416,-48C381.5778,-48 468.8187,-48 528.7984,-48"/>
<polygon fill="#191970" stroke="#191970" points="528.9207,-51.5001 538.9206,-48 528.9206,-44.5001 528.9207,-51.5001"/>
</g>
<!-- Node118 -->
<g id="node15" class="node">
<title>Node118</title>
<g id="a_node15"><a xlink:href="sam_8c.html#a5c510f09cd5f6069b67e1b9a59df7acc" target="_top" xlink:title="Initialises rate selection self&#45;adaptive mutation. ">
<polygon fill="none" stroke="#000000" points="384,-.5 384,-19.5 503,-19.5 503,-.5 384,-.5"/>
<text text-anchor="middle" x="443.5" y="-7.5" font-family="Helvetica,sans-Serif" font-size="10.00" fill="#000000">sam_rate_selection_init</text>
</a>
</g>
</g>
<!-- Node115&#45;&gt;Node118 -->
<g id="edge15" class="edge">
<title>Node115&#45;&gt;Node118</title>
<path fill="none" stroke="#191970" d="M338.2122,-40.3101C356.0804,-35.1663 379.9889,-28.2835 400.5067,-22.3769"/>
<polygon fill="#191970" stroke="#191970" points="401.6239,-25.6974 410.2654,-19.5675 399.6874,-18.9706 401.6239,-25.6974"/>
</g>
<!-- Node117 -->
<g id="node14" class="node">
<title>Node117</title>
<g id="a_node14"><a xlink:href="utils_8c.html#ae42a9e1d467853befaa7922cfafed3bb" target="_top" xlink:title="Returns a uniform random float [min,max]. ">
<polygon fill="none" stroke="#000000" points="681,-38.5 681,-57.5 754,-57.5 754,-38.5 681,-38.5"/>
<text text-anchor="middle" x="717.5" y="-45.5" font-family="Helvetica,sans-Serif" font-size="10.00" fill="#000000">rand_uniform</text>
</a>
</g>
</g>
<!-- Node116&#45;&gt;Node117 -->
<g id="edge13" class="edge">
<title>Node116&#45;&gt;Node117</title>
<path fill="none" stroke="#191970" d="M645.2233,-48C653.6785,-48 662.37,-48 670.6643,-48"/>
<polygon fill="#191970" stroke="#191970" points="670.9104,-51.5001 680.9103,-48 670.9103,-44.5001 670.9104,-51.5001"/>
</g>
<!-- Node117&#45;&gt;Node111 -->
<g id="edge14" class="edge">
<title>Node117&#45;&gt;Node111</title>
<path fill="none" stroke="#191970" d="M754.2561,-55.5093C762.7524,-57.2451 771.7031,-59.0738 779.9036,-60.7491"/>
<polygon fill="#191970" stroke="#191970" points="779.3007,-64.1982 789.7989,-62.7707 780.7019,-57.3398 779.3007,-64.1982"/>
</g>
<!-- Node119 -->
<g id="node16" class="node">
<title>Node119</title>
<g id="a_node16"><a xlink:href="utils_8c.html#a32648ab076544a9ac1c086d0f07b599f" target="_top" xlink:title="Returns a uniform random integer [min,max] not inclusive of max. ">
<polygon fill="none" stroke="#000000" points="554.5,-.5 554.5,-19.5 629.5,-19.5 629.5,-.5 554.5,-.5"/>
<text text-anchor="middle" x="592" y="-7.5" font-family="Helvetica,sans-Serif" font-size="10.00" fill="#000000">irand_uniform</text>
</a>
</g>
</g>
<!-- Node118&#45;&gt;Node119 -->
<g id="edge16" class="edge">
<title>Node118&#45;&gt;Node119</title>
<path fill="none" stroke="#191970" d="M503.045,-10C516.6704,-10 530.9841,-10 544.05,-10"/>
<polygon fill="#191970" stroke="#191970" points="544.2241,-13.5001 554.2241,-10 544.2241,-6.5001 544.2241,-13.5001"/>
</g>
<!-- Node119&#45;&gt;Node117 -->
<g id="edge17" class="edge">
<title>Node119&#45;&gt;Node117</title>
<path fill="none" stroke="#191970" d="M623.6689,-19.589C639.5725,-24.4044 659.0396,-30.2988 676.1114,-35.468"/>
<polygon fill="#191970" stroke="#191970" points="675.256,-38.8658 685.8412,-38.4141 677.2846,-32.1662 675.256,-38.8658"/>
</g>
</g>
</svg>
