<?xml version="1.0" encoding="UTF-8" standalone="no"?>
<!DOCTYPE svg PUBLIC "-//W3C//DTD SVG 1.1//EN"
 "http://www.w3.org/Graphics/SVG/1.1/DTD/svg11.dtd">
<!-- Generated by graphviz version 2.40.1 (20161225.0304)
 -->
<!-- Title: rule_dgp.c Pages: 1 -->
<svg width="794pt" height="84pt"
 viewBox="0.00 0.00 794.00 84.00" xmlns="http://www.w3.org/2000/svg" xmlns:xlink="http://www.w3.org/1999/xlink">
<g id="graph0" class="graph" transform="scale(1 1) rotate(0) translate(4 80)">
<title>rule_dgp.c</title>
<!-- Node0 -->
<g id="node1" class="node">
<title>Node0</title>
<polygon fill="#bfbfbf" stroke="#000000" points="360,-56.5 360,-75.5 422,-75.5 422,-56.5 360,-56.5"/>
<text text-anchor="middle" x="391" y="-63.5" font-family="Helvetica,sans-Serif" font-size="10.00" fill="#000000">rule_dgp.c</text>
</g>
<!-- Node1 -->
<g id="node2" class="node">
<title>Node1</title>
<polygon fill="none" stroke="#bfbfbf" points="0,-.5 0,-19.5 46,-19.5 46,-.5 0,-.5"/>
<text text-anchor="middle" x="23" y="-7.5" font-family="Helvetica,sans-Serif" font-size="10.00" fill="#000000">stdio.h</text>
</g>
<!-- Node0&#45;&gt;Node1 -->
<g id="edge1" class="edge">
<title>Node0&#45;&gt;Node1</title>
<path fill="none" stroke="#191970" d="M359.6549,-63.468C301.4987,-58.394 172.9062,-45.4117 56.1169,-19.9508"/>
<polygon fill="#191970" stroke="#191970" points="56.8175,-16.5212 46.297,-17.7738 55.3024,-23.3553 56.8175,-16.5212"/>
</g>
<!-- Node2 -->
<g id="node3" class="node">
<title>Node2</title>
<polygon fill="none" stroke="#bfbfbf" points="64,-.5 64,-19.5 112,-19.5 112,-.5 64,-.5"/>
<text text-anchor="middle" x="88" y="-7.5" font-family="Helvetica,sans-Serif" font-size="10.00" fill="#000000">stdlib.h</text>
</g>
<!-- Node0&#45;&gt;Node2 -->
<g id="edge2" class="edge">
<title>Node0&#45;&gt;Node2</title>
<path fill="none" stroke="#191970" d="M359.973,-62.0051C311.2706,-55.4563 213.7903,-41.2296 122.0577,-20.0171"/>
<polygon fill="#191970" stroke="#191970" points="122.5909,-16.5473 112.0558,-17.6706 120.992,-23.3622 122.5909,-16.5473"/>
</g>
<!-- Node3 -->
<g id="node4" class="node">
<title>Node3</title>
<polygon fill="none" stroke="#bfbfbf" points="130.5,-.5 130.5,-19.5 179.5,-19.5 179.5,-.5 130.5,-.5"/>
<text text-anchor="middle" x="155" y="-7.5" font-family="Helvetica,sans-Serif" font-size="10.00" fill="#000000">string.h</text>
</g>
<!-- Node0&#45;&gt;Node3 -->
<g id="edge3" class="edge">
<title>Node0&#45;&gt;Node3</title>
<path fill="none" stroke="#191970" d="M359.7098,-59.5055C321.749,-51.4887 255.6111,-37.0814 189.5721,-20.0316"/>
<polygon fill="#191970" stroke="#191970" points="190.3919,-16.6284 179.8328,-17.4973 188.6291,-23.4028 190.3919,-16.6284"/>
</g>
<!-- Node4 -->
<g id="node5" class="node">
<title>Node4</title>
<polygon fill="none" stroke="#bfbfbf" points="198,-.5 198,-19.5 254,-19.5 254,-.5 198,-.5"/>
<text text-anchor="middle" x="226" y="-7.5" font-family="Helvetica,sans-Serif" font-size="10.00" fill="#000000">stdbool.h</text>
</g>
<!-- Node0&#45;&gt;Node4 -->
<g id="edge4" class="edge">
<title>Node0&#45;&gt;Node4</title>
<path fill="none" stroke="#191970" d="M362.6355,-56.3733C335.3173,-47.1016 293.8204,-33.0178 263.7262,-22.804"/>
<polygon fill="#191970" stroke="#191970" points="264.5887,-19.4008 253.9944,-19.5011 262.339,-26.0294 264.5887,-19.4008"/>
</g>
<!-- Node5 -->
<g id="node6" class="node">
<title>Node5</title>
<polygon fill="none" stroke="#bfbfbf" points="272.5,-.5 272.5,-19.5 319.5,-19.5 319.5,-.5 272.5,-.5"/>
<text text-anchor="middle" x="296" y="-7.5" font-family="Helvetica,sans-Serif" font-size="10.00" fill="#000000">math.h</text>
</g>
<!-- Node0&#45;&gt;Node5 -->
<g id="edge5" class="edge">
<title>Node0&#45;&gt;Node5</title>
<path fill="none" stroke="#191970" d="M374.4523,-56.2455C359.7401,-47.5731 338.0112,-34.7645 321.1495,-24.825"/>
<polygon fill="#191970" stroke="#191970" points="322.7502,-21.7057 312.3581,-19.6427 319.1954,-27.736 322.7502,-21.7057"/>
</g>
<!-- Node6 -->
<g id="node7" class="node">
<title>Node6</title>
<g id="a_node7"><a xlink:href="xcsf_8h.html" target="_top" xlink:title="XCSF data structures. ">
<polygon fill="none" stroke="#000000" points="338,-.5 338,-19.5 382,-19.5 382,-.5 338,-.5"/>
<text text-anchor="middle" x="360" y="-7.5" font-family="Helvetica,sans-Serif" font-size="10.00" fill="#000000">xcsf.h</text>
</a>
</g>
</g>
<!-- Node0&#45;&gt;Node6 -->
<g id="edge6" class="edge">
<title>Node0&#45;&gt;Node6</title>
<path fill="none" stroke="#191970" d="M385.6002,-56.2455C381.3773,-48.617 375.3827,-37.7881 370.2559,-28.5267"/>
<polygon fill="#191970" stroke="#191970" points="373.2432,-26.6965 365.3379,-19.6427 367.119,-30.0867 373.2432,-26.6965"/>
</g>
<!-- Node7 -->
<g id="node8" class="node">
<title>Node7</title>
<g id="a_node8"><a xlink:href="utils_8h.html" target="_top" xlink:title="Utility functions for random number handling, etc. ">
<polygon fill="none" stroke="#000000" points="400.5,-.5 400.5,-19.5 443.5,-19.5 443.5,-.5 400.5,-.5"/>
<text text-anchor="middle" x="422" y="-7.5" font-family="Helvetica,sans-Serif" font-size="10.00" fill="#000000">utils.h</text>
</a>
</g>
</g>
<!-- Node0&#45;&gt;Node7 -->
<g id="edge7" class="edge">
<title>Node0&#45;&gt;Node7</title>
<path fill="none" stroke="#191970" d="M396.3998,-56.2455C400.6227,-48.617 406.6173,-37.7881 411.7441,-28.5267"/>
<polygon fill="#191970" stroke="#191970" points="414.881,-30.0867 416.6621,-19.6427 408.7568,-26.6965 414.881,-30.0867"/>
</g>
<!-- Node8 -->
<g id="node9" class="node">
<title>Node8</title>
<g id="a_node9"><a xlink:href="cl_8h.html" target="_top" xlink:title="Functions operating on classifiers. ">
<polygon fill="none" stroke="#000000" points="462,-.5 462,-19.5 494,-19.5 494,-.5 462,-.5"/>
<text text-anchor="middle" x="478" y="-7.5" font-family="Helvetica,sans-Serif" font-size="10.00" fill="#000000">cl.h</text>
</a>
</g>
</g>
<!-- Node0&#45;&gt;Node8 -->
<g id="edge8" class="edge">
<title>Node0&#45;&gt;Node8</title>
<path fill="none" stroke="#191970" d="M406.1542,-56.2455C419.5027,-47.6534 439.1586,-35.0014 454.5383,-25.1018"/>
<polygon fill="#191970" stroke="#191970" points="456.5051,-27.9982 463.0194,-19.6427 452.7164,-22.1121 456.5051,-27.9982"/>
</g>
<!-- Node9 -->
<g id="node10" class="node">
<title>Node9</title>
<g id="a_node10"><a xlink:href="dgp_8h.html" target="_top" xlink:title="An implementation of dynamical GP graphs with fuzzy activation functions. ">
<polygon fill="none" stroke="#000000" points="512.5,-.5 512.5,-19.5 553.5,-19.5 553.5,-.5 512.5,-.5"/>
<text text-anchor="middle" x="533" y="-7.5" font-family="Helvetica,sans-Serif" font-size="10.00" fill="#000000">dgp.h</text>
</a>
</g>
</g>
<!-- Node0&#45;&gt;Node9 -->
<g id="edge9" class="edge">
<title>Node0&#45;&gt;Node9</title>
<path fill="none" stroke="#191970" d="M415.4107,-56.3733C439.5986,-46.8343 476.7025,-32.2018 502.7475,-21.9306"/>
<polygon fill="#191970" stroke="#191970" points="504.1193,-25.152 512.138,-18.2273 501.5512,-18.6401 504.1193,-25.152"/>
</g>
<!-- Node10 -->
<g id="node11" class="node">
<title>Node10</title>
<g id="a_node11"><a xlink:href="condition_8h.html" target="_top" xlink:title="Interface for classifier conditions. ">
<polygon fill="none" stroke="#000000" points="572,-.5 572,-19.5 636,-19.5 636,-.5 572,-.5"/>
<text text-anchor="middle" x="604" y="-7.5" font-family="Helvetica,sans-Serif" font-size="10.00" fill="#000000">condition.h</text>
</a>
</g>
</g>
<!-- Node0&#45;&gt;Node10 -->
<g id="edge10" class="edge">
<title>Node0&#45;&gt;Node10</title>
<path fill="none" stroke="#191970" d="M422.4289,-57.737C459.4187,-48.012 520.9913,-31.8239 562.0353,-21.033"/>
<polygon fill="#191970" stroke="#191970" points="562.9625,-24.4082 571.7439,-18.4805 561.1826,-17.6383 562.9625,-24.4082"/>
</g>
<!-- Node11 -->
<g id="node12" class="node">
<title>Node11</title>
<g id="a_node12"><a xlink:href="action_8h.html" target="_top" xlink:title="Interface for classifier actions. ">
<polygon fill="none" stroke="#000000" points="654.5,-.5 654.5,-19.5 705.5,-19.5 705.5,-.5 654.5,-.5"/>
<text text-anchor="middle" x="680" y="-7.5" font-family="Helvetica,sans-Serif" font-size="10.00" fill="#000000">action.h</text>
</a>
</g>
</g>
<!-- Node0&#45;&gt;Node11 -->
<g id="edge11" class="edge">
<title>Node0&#45;&gt;Node11</title>
<path fill="none" stroke="#191970" d="M422.0916,-61.3877C468.3894,-54.2995 558.345,-39.6822 644.5184,-19.9205"/>
<polygon fill="#191970" stroke="#191970" points="645.5122,-23.2829 654.4621,-17.6129 643.9297,-16.4641 645.5122,-23.2829"/>
</g>
<!-- Node12 -->
<g id="node13" class="node">
<title>Node12</title>
<g id="a_node13"><a xlink:href="rule__dgp_8h.html" target="_top" xlink:title="Dynamical GP graph rule (condition + action) functions. ">
<polygon fill="none" stroke="#000000" points="724,-.5 724,-19.5 786,-19.5 786,-.5 724,-.5"/>
<text text-anchor="middle" x="755" y="-7.5" font-family="Helvetica,sans-Serif" font-size="10.00" fill="#000000">rule_dgp.h</text>
</a>
</g>
</g>
<!-- Node0&#45;&gt;Node12 -->
<g id="edge12" class="edge">
<title>Node0&#45;&gt;Node12</title>
<path fill="none" stroke="#191970" d="M422.0037,-62.6854C478.2521,-56.4384 601.009,-41.7331 713.792,-20.0817"/>
<polygon fill="#191970" stroke="#191970" points="714.4774,-23.5141 723.6262,-18.1709 713.1421,-16.6426 714.4774,-23.5141"/>
</g>
</g>
</svg>
