<?xml version="1.0" encoding="UTF-8" standalone="no"?>
<!DOCTYPE svg PUBLIC "-//W3C//DTD SVG 1.1//EN"
 "http://www.w3.org/Graphics/SVG/1.1/DTD/svg11.dtd">
<!-- Generated by graphviz version 2.40.1 (20161225.0304)
 -->
<!-- Title: rule_neural_cond_copy Pages: 1 -->
<svg width="363pt" height="104pt"
 viewBox="0.00 0.00 363.00 104.00" xmlns="http://www.w3.org/2000/svg" xmlns:xlink="http://www.w3.org/1999/xlink">
<g id="graph0" class="graph" transform="scale(1 1) rotate(0) translate(4 100)">
<title>rule_neural_cond_copy</title>
<!-- Node37 -->
<g id="node1" class="node">
<title>Node37</title>
<polygon fill="#bfbfbf" stroke="#000000" points="0,-38.5 0,-57.5 116,-57.5 116,-38.5 0,-38.5"/>
<text text-anchor="middle" x="58" y="-45.5" font-family="Helvetica,sans-Serif" font-size="10.00" fill="#000000">rule_neural_cond_copy</text>
</g>
<!-- Node38 -->
<g id="node2" class="node">
<title>Node38</title>
<g id="a_node2"><a xlink:href="neural_8c.html#a6c25e5fdeaeca8fe4da40442b78de7a9" target="_top" xlink:title="Copies a neural network. ">
<polygon fill="none" stroke="#000000" points="152,-38.5 152,-57.5 221,-57.5 221,-38.5 152,-38.5"/>
<text text-anchor="middle" x="186.5" y="-45.5" font-family="Helvetica,sans-Serif" font-size="10.00" fill="#000000">neural_copy</text>
</a>
</g>
</g>
<!-- Node37&#45;&gt;Node38 -->
<g id="edge1" class="edge">
<title>Node37&#45;&gt;Node38</title>
<path fill="none" stroke="#191970" d="M116.2344,-48C124.8256,-48 133.5615,-48 141.8204,-48"/>
<polygon fill="#191970" stroke="#191970" points="141.9799,-51.5001 151.9799,-48 141.9798,-44.5001 141.9799,-51.5001"/>
</g>
<!-- Node39 -->
<g id="node3" class="node">
<title>Node39</title>
<g id="a_node3"><a xlink:href="neural__layer_8h.html#ad46f57aa777edc03333a3080ca625845" target="_top" xlink:title="Creates and returns a copy of a specified layer. ">
<polygon fill="none" stroke="#000000" points="274,-76.5 274,-95.5 338,-95.5 338,-76.5 274,-76.5"/>
<text text-anchor="middle" x="306" y="-83.5" font-family="Helvetica,sans-Serif" font-size="10.00" fill="#000000">layer_copy</text>
</a>
</g>
</g>
<!-- Node38&#45;&gt;Node39 -->
<g id="edge2" class="edge">
<title>Node38&#45;&gt;Node39</title>
<path fill="none" stroke="#191970" d="M216.6549,-57.589C231.6566,-62.3594 249.9883,-68.1888 266.1338,-73.3229"/>
<polygon fill="#191970" stroke="#191970" points="265.2643,-76.719 275.8548,-76.4141 267.3856,-70.0482 265.2643,-76.719"/>
</g>
<!-- Node40 -->
<g id="node4" class="node">
<title>Node40</title>
<g id="a_node4"><a xlink:href="neural_8c.html#a89a8b1cf58b3c2abe700d9e602e13c8e" target="_top" xlink:title="Initialises an empty neural network. ">
<polygon fill="none" stroke="#000000" points="275.5,-38.5 275.5,-57.5 336.5,-57.5 336.5,-38.5 275.5,-38.5"/>
<text text-anchor="middle" x="306" y="-45.5" font-family="Helvetica,sans-Serif" font-size="10.00" fill="#000000">neural_init</text>
</a>
</g>
</g>
<!-- Node38&#45;&gt;Node40 -->
<g id="edge3" class="edge">
<title>Node38&#45;&gt;Node40</title>
<path fill="none" stroke="#191970" d="M221.0644,-48C234.8205,-48 250.7567,-48 265.0836,-48"/>
<polygon fill="#191970" stroke="#191970" points="265.1773,-51.5001 275.1772,-48 265.1772,-44.5001 265.1773,-51.5001"/>
</g>
<!-- Node41 -->
<g id="node5" class="node">
<title>Node41</title>
<g id="a_node5"><a xlink:href="neural_8c.html#a6217c5bc4bdba93832cb4d8aa6c64d51" target="_top" xlink:title="Inserts a layer into a neural network. ">
<polygon fill="none" stroke="#000000" points="257,-.5 257,-19.5 355,-19.5 355,-.5 257,-.5"/>
<text text-anchor="middle" x="306" y="-7.5" font-family="Helvetica,sans-Serif" font-size="10.00" fill="#000000">neural_layer_insert</text>
</a>
</g>
</g>
<!-- Node38&#45;&gt;Node41 -->
<g id="edge4" class="edge">
<title>Node38&#45;&gt;Node41</title>
<path fill="none" stroke="#191970" d="M216.6549,-38.411C231.6566,-33.6406 249.9883,-27.8112 266.1338,-22.6771"/>
<polygon fill="#191970" stroke="#191970" points="267.3856,-25.9518 275.8548,-19.5859 265.2643,-19.281 267.3856,-25.9518"/>
</g>
</g>
</svg>
