<?xml version="1.0" encoding="UTF-8" standalone="no"?>
<!DOCTYPE svg PUBLIC "-//W3C//DTD SVG 1.1//EN"
 "http://www.w3.org/Graphics/SVG/1.1/DTD/svg11.dtd">
<!-- Generated by graphviz version 2.40.1 (20161225.0304)
 -->
<!-- Title: rule_dgp_cond_rand Pages: 1 -->
<svg width="874pt" height="47pt"
 viewBox="0.00 0.00 874.00 47.00" xmlns="http://www.w3.org/2000/svg" xmlns:xlink="http://www.w3.org/1999/xlink">
<g id="graph0" class="graph" transform="scale(1 1) rotate(0) translate(4 43)">
<title>rule_dgp_cond_rand</title>
<!-- Node98 -->
<g id="node1" class="node">
<title>Node98</title>
<polygon fill="#bfbfbf" stroke="#000000" points="0,-.5 0,-19.5 104,-19.5 104,-.5 0,-.5"/>
<text text-anchor="middle" x="52" y="-7.5" font-family="Helvetica,sans-Serif" font-size="10.00" fill="#000000">rule_dgp_cond_rand</text>
</g>
<!-- Node99 -->
<g id="node2" class="node">
<title>Node99</title>
<g id="a_node2"><a xlink:href="dgp_8c.html#a870d8b0c4cbc943f756b54ccbb3ff4c7" target="_top" xlink:title="Randomises a specified DGP graph. ">
<polygon fill="none" stroke="#000000" points="140,-.5 140,-19.5 205,-19.5 205,-.5 140,-.5"/>
<text text-anchor="middle" x="172.5" y="-7.5" font-family="Helvetica,sans-Serif" font-size="10.00" fill="#000000">graph_rand</text>
</a>
</g>
</g>
<!-- Node98&#45;&gt;Node99 -->
<g id="edge1" class="edge">
<title>Node98&#45;&gt;Node99</title>
<path fill="none" stroke="#191970" d="M104.1522,-10C112.6496,-10 121.3659,-10 129.6084,-10"/>
<polygon fill="#191970" stroke="#191970" points="129.7432,-13.5001 139.7432,-10 129.7432,-6.5001 129.7432,-13.5001"/>
</g>
<!-- Node100 -->
<g id="node3" class="node">
<title>Node100</title>
<g id="a_node3"><a xlink:href="utils_8c.html#a32648ab076544a9ac1c086d0f07b599f" target="_top" xlink:title="Returns a uniform random integer [min,max] not inclusive of max. ">
<polygon fill="none" stroke="#000000" points="241,-19.5 241,-38.5 316,-38.5 316,-19.5 241,-19.5"/>
<text text-anchor="middle" x="278.5" y="-26.5" font-family="Helvetica,sans-Serif" font-size="10.00" fill="#000000">irand_uniform</text>
</a>
</g>
</g>
<!-- Node99&#45;&gt;Node100 -->
<g id="edge2" class="edge">
<title>Node99&#45;&gt;Node100</title>
<path fill="none" stroke="#191970" d="M205.1684,-15.8557C213.3007,-17.3133 222.1858,-18.9059 230.876,-20.4636"/>
<polygon fill="#191970" stroke="#191970" points="230.4707,-23.9467 240.9314,-22.266 231.7058,-17.0565 230.4707,-23.9467"/>
</g>
<!-- Node101 -->
<g id="node4" class="node">
<title>Node101</title>
<g id="a_node4"><a xlink:href="utils_8c.html#ae42a9e1d467853befaa7922cfafed3bb" target="_top" xlink:title="Returns a uniform random float [min,max]. ">
<polygon fill="none" stroke="#000000" points="352,-.5 352,-19.5 425,-19.5 425,-.5 352,-.5"/>
<text text-anchor="middle" x="388.5" y="-7.5" font-family="Helvetica,sans-Serif" font-size="10.00" fill="#000000">rand_uniform</text>
</a>
</g>
</g>
<!-- Node99&#45;&gt;Node101 -->
<g id="edge8" class="edge">
<title>Node99&#45;&gt;Node101</title>
<path fill="none" stroke="#191970" d="M205.3058,-10C241.6443,-10 300.5299,-10 341.7017,-10"/>
<polygon fill="#191970" stroke="#191970" points="341.763,-13.5001 351.763,-10 341.7629,-6.5001 341.763,-13.5001"/>
</g>
<!-- Node100&#45;&gt;Node101 -->
<g id="edge3" class="edge">
<title>Node100&#45;&gt;Node101</title>
<path fill="none" stroke="#191970" d="M316.0481,-22.5144C324.3686,-21.0772 333.2836,-19.5374 341.9154,-18.0464"/>
<polygon fill="#191970" stroke="#191970" points="342.6073,-21.4788 351.8656,-16.3278 341.4158,-14.581 342.6073,-21.4788"/>
</g>
<!-- Node102 -->
<g id="node5" class="node">
<title>Node102</title>
<g id="a_node5"><a xlink:href="utils_8c.html#a101d27cdda714b7f17a06224c65cac56" target="_top" xlink:title="Returns a uniform random float [0,1]. ">
<polygon fill="none" stroke="#000000" points="461,-.5 461,-19.5 502,-19.5 502,-.5 461,-.5"/>
<text text-anchor="middle" x="481.5" y="-7.5" font-family="Helvetica,sans-Serif" font-size="10.00" fill="#000000">drand</text>
</a>
</g>
</g>
<!-- Node101&#45;&gt;Node102 -->
<g id="edge4" class="edge">
<title>Node101&#45;&gt;Node102</title>
<path fill="none" stroke="#191970" d="M425.2561,-10C433.658,-10 442.5043,-10 450.63,-10"/>
<polygon fill="#191970" stroke="#191970" points="450.799,-13.5001 460.7989,-10 450.7989,-6.5001 450.799,-13.5001"/>
</g>
<!-- Node103 -->
<g id="node6" class="node">
<title>Node103</title>
<g id="a_node6"><a xlink:href="mt19937-64_8c.html#aa0b74daf51eca91df224d00f1730084a" target="_top" xlink:title="genrand64_real1">
<polygon fill="none" stroke="#000000" points="538,-.5 538,-19.5 626,-19.5 626,-.5 538,-.5"/>
<text text-anchor="middle" x="582" y="-7.5" font-family="Helvetica,sans-Serif" font-size="10.00" fill="#000000">genrand64_real1</text>
</a>
</g>
</g>
<!-- Node102&#45;&gt;Node103 -->
<g id="edge5" class="edge">
<title>Node102&#45;&gt;Node103</title>
<path fill="none" stroke="#191970" d="M502.3237,-10C509.8428,-10 518.7193,-10 527.769,-10"/>
<polygon fill="#191970" stroke="#191970" points="527.9969,-13.5001 537.9969,-10 527.9969,-6.5001 527.9969,-13.5001"/>
</g>
<!-- Node104 -->
<g id="node7" class="node">
<title>Node104</title>
<g id="a_node7"><a xlink:href="mt19937-64_8c.html#a265bf48d20d6e0347371fcf4fe340e6d" target="_top" xlink:title="genrand64_int64">
<polygon fill="none" stroke="#000000" points="662,-.5 662,-19.5 750,-19.5 750,-.5 662,-.5"/>
<text text-anchor="middle" x="706" y="-7.5" font-family="Helvetica,sans-Serif" font-size="10.00" fill="#000000">genrand64_int64</text>
</a>
</g>
</g>
<!-- Node103&#45;&gt;Node104 -->
<g id="edge6" class="edge">
<title>Node103&#45;&gt;Node104</title>
<path fill="none" stroke="#191970" d="M626.0669,-10C634.2822,-10 642.957,-10 651.4432,-10"/>
<polygon fill="#191970" stroke="#191970" points="651.6572,-13.5001 661.6572,-10 651.6572,-6.5001 651.6572,-13.5001"/>
</g>
<!-- Node105 -->
<g id="node8" class="node">
<title>Node105</title>
<g id="a_node8"><a xlink:href="mt19937-64_8c.html#adf4127d44c2dc34fcb318d406131ef7c" target="_top" xlink:title="init_genrand64">
<polygon fill="none" stroke="#000000" points="786,-.5 786,-19.5 866,-19.5 866,-.5 786,-.5"/>
<text text-anchor="middle" x="826" y="-7.5" font-family="Helvetica,sans-Serif" font-size="10.00" fill="#000000">init_genrand64</text>
</a>
</g>
</g>
<!-- Node104&#45;&gt;Node105 -->
<g id="edge7" class="edge">
<title>Node104&#45;&gt;Node105</title>
<path fill="none" stroke="#191970" d="M750.0022,-10C758.3719,-10 767.1896,-10 775.7365,-10"/>
<polygon fill="#191970" stroke="#191970" points="775.9792,-13.5001 785.9792,-10 775.9792,-6.5001 775.9792,-13.5001"/>
</g>
</g>
</svg>
