<?xml version="1.0" encoding="UTF-8" standalone="no"?>
<!DOCTYPE svg PUBLIC "-//W3C//DTD SVG 1.1//EN"
 "http://www.w3.org/Graphics/SVG/1.1/DTD/svg11.dtd">
<!-- Generated by graphviz version 2.40.1 (20161225.0304)
 -->
<!-- Title: rule_neural_cond_init Pages: 1 -->
<svg width="1239pt" height="184pt"
 viewBox="0.00 0.00 1239.00 183.52" xmlns="http://www.w3.org/2000/svg" xmlns:xlink="http://www.w3.org/1999/xlink">
<g id="graph0" class="graph" transform="scale(1 1) rotate(0) translate(4 179.5184)">
<title>rule_neural_cond_init</title>
<!-- Node65 -->
<g id="node1" class="node">
<title>Node65</title>
<polygon fill="#bfbfbf" stroke="#000000" points="0,-57.5 0,-76.5 108,-76.5 108,-57.5 0,-57.5"/>
<text text-anchor="middle" x="54" y="-64.5" font-family="Helvetica,sans-Serif" font-size="10.00" fill="#000000">rule_neural_cond_init</text>
</g>
<!-- Node66 -->
<g id="node2" class="node">
<title>Node66</title>
<g id="a_node2"><a xlink:href="neural_8c.html#aebb469d16dbb79a4b20b3c63909a8f74" target="_top" xlink:title="Initialises an empty neural network. ">
<polygon fill="none" stroke="#000000" points="162.5,-119.5 162.5,-138.5 223.5,-138.5 223.5,-119.5 162.5,-119.5"/>
<text text-anchor="middle" x="193" y="-126.5" font-family="Helvetica,sans-Serif" font-size="10.00" fill="#000000">neural_init</text>
</a>
</g>
</g>
<!-- Node65&#45;&gt;Node66 -->
<g id="edge1" class="edge">
<title>Node65&#45;&gt;Node66</title>
<path fill="none" stroke="#191970" d="M75.4141,-76.5516C98.61,-86.898 135.8227,-103.4965 162.1653,-115.2464"/>
<polygon fill="#191970" stroke="#191970" points="160.7741,-118.4582 171.3325,-119.3354 163.6256,-112.0653 160.7741,-118.4582"/>
</g>
<!-- Node76 -->
<g id="node12" class="node">
<title>Node76</title>
<g id="a_node12"><a xlink:href="neural__layer__connected_8c.html#adcf59226c12296224d675cfb28892039" target="_top" xlink:title="neural_layer_connected_init">
<polygon fill="none" stroke="#000000" points="278,-67.5 278,-86.5 415,-86.5 415,-67.5 278,-67.5"/>
<text text-anchor="middle" x="346.5" y="-74.5" font-family="Helvetica,sans-Serif" font-size="10.00" fill="#000000">neural_layer_connected_init</text>
</a>
</g>
</g>
<!-- Node65&#45;&gt;Node76 -->
<g id="edge13" class="edge">
<title>Node65&#45;&gt;Node76</title>
<path fill="none" stroke="#191970" d="M108.3315,-68.8575C153.0778,-70.3873 217.1295,-72.5771 267.5409,-74.3005"/>
<polygon fill="#191970" stroke="#191970" points="267.6412,-77.8059 277.755,-74.6497 267.8805,-70.81 267.6412,-77.8059"/>
</g>
<!-- Node78 -->
<g id="node14" class="node">
<title>Node78</title>
<g id="a_node14"><a xlink:href="neural_8c.html#a6217c5bc4bdba93832cb4d8aa6c64d51" target="_top" xlink:title="Inserts a layer into a neural network. ">
<polygon fill="none" stroke="#000000" points="144,-38.5 144,-57.5 242,-57.5 242,-38.5 144,-38.5"/>
<text text-anchor="middle" x="193" y="-45.5" font-family="Helvetica,sans-Serif" font-size="10.00" fill="#000000">neural_layer_insert</text>
</a>
</g>
</g>
<!-- Node65&#45;&gt;Node78 -->
<g id="edge16" class="edge">
<title>Node65&#45;&gt;Node78</title>
<path fill="none" stroke="#191970" d="M108.139,-59.5997C116.4849,-58.4589 125.1417,-57.2756 133.595,-56.1201"/>
<polygon fill="#191970" stroke="#191970" points="134.3368,-59.5513 143.7707,-54.7292 133.3888,-52.6158 134.3368,-59.5513"/>
</g>
<!-- Node79 -->
<g id="node15" class="node">
<title>Node79</title>
<g id="a_node15"><a xlink:href="rule__neural_8c.html#aef85634661a05ebde4850db80177fdf7" target="_top" xlink:title="rule_neural_lopt">
<polygon fill="none" stroke="#000000" points="150.5,-.5 150.5,-19.5 235.5,-19.5 235.5,-.5 150.5,-.5"/>
<text text-anchor="middle" x="193" y="-7.5" font-family="Helvetica,sans-Serif" font-size="10.00" fill="#000000">rule_neural_lopt</text>
</a>
</g>
</g>
<!-- Node65&#45;&gt;Node79 -->
<g id="edge17" class="edge">
<title>Node65&#45;&gt;Node79</title>
<path fill="none" stroke="#191970" d="M76.1159,-57.4468C94.2879,-49.6492 120.733,-38.4205 144,-29 148.7413,-27.0803 153.7559,-25.0902 158.6968,-23.1526"/>
<polygon fill="#191970" stroke="#191970" points="159.9678,-26.4138 168.0161,-19.5235 157.4276,-19.8909 159.9678,-26.4138"/>
</g>
<!-- Node67 -->
<g id="node3" class="node">
<title>Node67</title>
<g id="a_node3"><a xlink:href="utils_8c.html#ae42a9e1d467853befaa7922cfafed3bb" target="_top" xlink:title="Returns a uniform random float [min,max]. ">
<polygon fill="none" stroke="#000000" points="717,-128.5 717,-147.5 790,-147.5 790,-128.5 717,-128.5"/>
<text text-anchor="middle" x="753.5" y="-135.5" font-family="Helvetica,sans-Serif" font-size="10.00" fill="#000000">rand_uniform</text>
</a>
</g>
</g>
<!-- Node66&#45;&gt;Node67 -->
<g id="edge2" class="edge">
<title>Node66&#45;&gt;Node67</title>
<path fill="none" stroke="#191970" d="M223.5278,-136.6821C239.6442,-140.5194 259.8017,-144.9763 278,-148 454.7235,-177.3636 504.4684,-186.4966 681,-156 690.2912,-154.3949 700.1525,-152.2497 709.5107,-150.0007"/>
<polygon fill="#191970" stroke="#191970" points="710.5557,-153.3475 719.4171,-147.5401 708.8682,-146.554 710.5557,-153.3475"/>
</g>
<!-- Node72 -->
<g id="node8" class="node">
<title>Node72</title>
<g id="a_node8"><a xlink:href="sam_8c.html#a3164f33509a5dc751b57a544fe2153a7" target="_top" xlink:title="Initialises self&#45;adaptive mutation rates. ">
<polygon fill="none" stroke="#000000" points="320,-119.5 320,-138.5 373,-138.5 373,-119.5 320,-119.5"/>
<text text-anchor="middle" x="346.5" y="-126.5" font-family="Helvetica,sans-Serif" font-size="10.00" fill="#000000">sam_init</text>
</a>
</g>
</g>
<!-- Node66&#45;&gt;Node72 -->
<g id="edge7" class="edge">
<title>Node66&#45;&gt;Node72</title>
<path fill="none" stroke="#191970" d="M223.6941,-129C248.4546,-129 283.3636,-129 309.6367,-129"/>
<polygon fill="#191970" stroke="#191970" points="309.9554,-132.5001 319.9554,-129 309.9553,-125.5001 309.9554,-132.5001"/>
</g>
<!-- Node68 -->
<g id="node4" class="node">
<title>Node68</title>
<g id="a_node4"><a xlink:href="utils_8c.html#a101d27cdda714b7f17a06224c65cac56" target="_top" xlink:title="Returns a uniform random float [0,1]. ">
<polygon fill="none" stroke="#000000" points="826,-100.5 826,-119.5 867,-119.5 867,-100.5 826,-100.5"/>
<text text-anchor="middle" x="846.5" y="-107.5" font-family="Helvetica,sans-Serif" font-size="10.00" fill="#000000">drand</text>
</a>
</g>
</g>
<!-- Node67&#45;&gt;Node68 -->
<g id="edge3" class="edge">
<title>Node67&#45;&gt;Node68</title>
<path fill="none" stroke="#191970" d="M785.2452,-128.4423C795.243,-125.4322 806.256,-122.1165 816.1539,-119.1365"/>
<polygon fill="#191970" stroke="#191970" points="817.4092,-122.4138 825.9756,-116.1794 815.3911,-115.711 817.4092,-122.4138"/>
</g>
<!-- Node69 -->
<g id="node5" class="node">
<title>Node69</title>
<g id="a_node5"><a xlink:href="mt19937-64_8c.html#aa0b74daf51eca91df224d00f1730084a" target="_top" xlink:title="genrand64_real1">
<polygon fill="none" stroke="#000000" points="903,-100.5 903,-119.5 991,-119.5 991,-100.5 903,-100.5"/>
<text text-anchor="middle" x="947" y="-107.5" font-family="Helvetica,sans-Serif" font-size="10.00" fill="#000000">genrand64_real1</text>
</a>
</g>
</g>
<!-- Node68&#45;&gt;Node69 -->
<g id="edge4" class="edge">
<title>Node68&#45;&gt;Node69</title>
<path fill="none" stroke="#191970" d="M867.3237,-110C874.8428,-110 883.7193,-110 892.769,-110"/>
<polygon fill="#191970" stroke="#191970" points="892.9969,-113.5001 902.9969,-110 892.9969,-106.5001 892.9969,-113.5001"/>
</g>
<!-- Node70 -->
<g id="node6" class="node">
<title>Node70</title>
<g id="a_node6"><a xlink:href="mt19937-64_8c.html#a265bf48d20d6e0347371fcf4fe340e6d" target="_top" xlink:title="genrand64_int64">
<polygon fill="none" stroke="#000000" points="1027,-100.5 1027,-119.5 1115,-119.5 1115,-100.5 1027,-100.5"/>
<text text-anchor="middle" x="1071" y="-107.5" font-family="Helvetica,sans-Serif" font-size="10.00" fill="#000000">genrand64_int64</text>
</a>
</g>
</g>
<!-- Node69&#45;&gt;Node70 -->
<g id="edge5" class="edge">
<title>Node69&#45;&gt;Node70</title>
<path fill="none" stroke="#191970" d="M991.0669,-110C999.2822,-110 1007.957,-110 1016.4432,-110"/>
<polygon fill="#191970" stroke="#191970" points="1016.6572,-113.5001 1026.6572,-110 1016.6572,-106.5001 1016.6572,-113.5001"/>
</g>
<!-- Node71 -->
<g id="node7" class="node">
<title>Node71</title>
<g id="a_node7"><a xlink:href="mt19937-64_8c.html#adf4127d44c2dc34fcb318d406131ef7c" target="_top" xlink:title="init_genrand64">
<polygon fill="none" stroke="#000000" points="1151,-100.5 1151,-119.5 1231,-119.5 1231,-100.5 1151,-100.5"/>
<text text-anchor="middle" x="1191" y="-107.5" font-family="Helvetica,sans-Serif" font-size="10.00" fill="#000000">init_genrand64</text>
</a>
</g>
</g>
<!-- Node70&#45;&gt;Node71 -->
<g id="edge6" class="edge">
<title>Node70&#45;&gt;Node71</title>
<path fill="none" stroke="#191970" d="M1115.0022,-110C1123.3719,-110 1132.1896,-110 1140.7365,-110"/>
<polygon fill="#191970" stroke="#191970" points="1140.9792,-113.5001 1150.9792,-110 1140.9792,-106.5001 1140.9792,-113.5001"/>
</g>
<!-- Node73 -->
<g id="node9" class="node">
<title>Node73</title>
<g id="a_node9"><a xlink:href="sam_8c.html#a3376574f2624a397ac253242b1958491" target="_top" xlink:title="Initialises log normal self&#45;adaptive mutation rates. ">
<polygon fill="none" stroke="#000000" points="457.5,-138.5 457.5,-157.5 563.5,-157.5 563.5,-138.5 457.5,-138.5"/>
<text text-anchor="middle" x="510.5" y="-145.5" font-family="Helvetica,sans-Serif" font-size="10.00" fill="#000000">sam_log_normal_init</text>
</a>
</g>
</g>
<!-- Node72&#45;&gt;Node73 -->
<g id="edge8" class="edge">
<title>Node72&#45;&gt;Node73</title>
<path fill="none" stroke="#191970" d="M373.2144,-132.095C393.2464,-134.4157 421.5179,-137.6911 447.2032,-140.6668"/>
<polygon fill="#191970" stroke="#191970" points="446.9334,-144.1589 457.2698,-141.8331 447.7391,-137.2054 446.9334,-144.1589"/>
</g>
<!-- Node74 -->
<g id="node10" class="node">
<title>Node74</title>
<g id="a_node10"><a xlink:href="sam_8c.html#a5c510f09cd5f6069b67e1b9a59df7acc" target="_top" xlink:title="Initialises rate selection self&#45;adaptive mutation. ">
<polygon fill="none" stroke="#000000" points="451,-100.5 451,-119.5 570,-119.5 570,-100.5 451,-100.5"/>
<text text-anchor="middle" x="510.5" y="-107.5" font-family="Helvetica,sans-Serif" font-size="10.00" fill="#000000">sam_rate_selection_init</text>
</a>
</g>
</g>
<!-- Node72&#45;&gt;Node74 -->
<g id="edge10" class="edge">
<title>Node72&#45;&gt;Node74</title>
<path fill="none" stroke="#191970" d="M373.2144,-125.905C391.5602,-123.7796 416.8167,-120.8536 440.6683,-118.0903"/>
<polygon fill="#191970" stroke="#191970" points="441.2495,-121.5464 450.7802,-116.9188 440.4439,-114.5929 441.2495,-121.5464"/>
</g>
<!-- Node73&#45;&gt;Node67 -->
<g id="edge9" class="edge">
<title>Node73&#45;&gt;Node67</title>
<path fill="none" stroke="#191970" d="M563.5271,-145.8178C606.2683,-144.0589 665.7947,-141.6093 706.7655,-139.9232"/>
<polygon fill="#191970" stroke="#191970" points="706.913,-143.4202 716.7606,-139.5119 706.6251,-136.4261 706.913,-143.4202"/>
</g>
<!-- Node75 -->
<g id="node11" class="node">
<title>Node75</title>
<g id="a_node11"><a xlink:href="utils_8c.html#a32648ab076544a9ac1c086d0f07b599f" target="_top" xlink:title="Returns a uniform random integer [min,max] not inclusive of max. ">
<polygon fill="none" stroke="#000000" points="606,-100.5 606,-119.5 681,-119.5 681,-100.5 606,-100.5"/>
<text text-anchor="middle" x="643.5" y="-107.5" font-family="Helvetica,sans-Serif" font-size="10.00" fill="#000000">irand_uniform</text>
</a>
</g>
</g>
<!-- Node74&#45;&gt;Node75 -->
<g id="edge11" class="edge">
<title>Node74&#45;&gt;Node75</title>
<path fill="none" stroke="#191970" d="M570.3857,-110C578.8211,-110 587.3999,-110 595.5719,-110"/>
<polygon fill="#191970" stroke="#191970" points="595.6642,-113.5001 605.6642,-110 595.6641,-106.5001 595.6642,-113.5001"/>
</g>
<!-- Node75&#45;&gt;Node67 -->
<g id="edge12" class="edge">
<title>Node75&#45;&gt;Node67</title>
<path fill="none" stroke="#191970" d="M681.0481,-119.5577C689.3686,-121.6756 698.2836,-123.9449 706.9154,-126.1421"/>
<polygon fill="#191970" stroke="#191970" points="706.3112,-129.5999 716.8656,-128.6749 708.038,-122.8162 706.3112,-129.5999"/>
</g>
<!-- Node77 -->
<g id="node13" class="node">
<title>Node77</title>
<g id="a_node13"><a xlink:href="utils_8c.html#aa57fc0f69e730ce0a348c25ee498643d" target="_top" xlink:title="Returns a normal random float with specified mean and standard deviation. ">
<polygon fill="none" stroke="#000000" points="608.5,-62.5 608.5,-81.5 678.5,-81.5 678.5,-62.5 608.5,-62.5"/>
<text text-anchor="middle" x="643.5" y="-69.5" font-family="Helvetica,sans-Serif" font-size="10.00" fill="#000000">rand_normal</text>
</a>
</g>
</g>
<!-- Node76&#45;&gt;Node77 -->
<g id="edge14" class="edge">
<title>Node76&#45;&gt;Node77</title>
<path fill="none" stroke="#191970" d="M415.0107,-75.8466C471.1901,-74.9008 549.1397,-73.5886 597.9245,-72.7673"/>
<polygon fill="#191970" stroke="#191970" points="598.2325,-76.2627 608.1721,-72.5947 598.1146,-69.2637 598.2325,-76.2627"/>
</g>
<!-- Node77&#45;&gt;Node68 -->
<g id="edge15" class="edge">
<title>Node77&#45;&gt;Node68</title>
<path fill="none" stroke="#191970" d="M678.8599,-78.6191C717.5276,-85.8574 778.8787,-97.3418 815.6599,-104.227"/>
<polygon fill="#191970" stroke="#191970" points="815.3152,-107.7232 825.7885,-106.123 816.6032,-100.8427 815.3152,-107.7232"/>
</g>
</g>
</svg>
