<?xml version="1.0" encoding="UTF-8" standalone="no"?>
<!DOCTYPE svg PUBLIC "-//W3C//DTD SVG 1.1//EN"
 "http://www.w3.org/Graphics/SVG/1.1/DTD/svg11.dtd">
<!-- Generated by graphviz version 2.40.1 (20161225.0304)
 -->
<!-- Title: sam_free Pages: 1 -->
<svg width="1162pt" height="404pt"
 viewBox="0.00 0.00 1162.00 403.51" xmlns="http://www.w3.org/2000/svg" xmlns:xlink="http://www.w3.org/1999/xlink">
<g id="graph0" class="graph" transform="scale(1 1) rotate(0) translate(4 399.5061)">
<title>sam_free</title>
<!-- Node51 -->
<g id="node1" class="node">
<title>Node51</title>
<polygon fill="#bfbfbf" stroke="#000000" points="0,-158.5084 0,-177.5084 57,-177.5084 57,-158.5084 0,-158.5084"/>
<text text-anchor="middle" x="28.5" y="-165.5084" font-family="Helvetica,sans-Serif" font-size="10.00" fill="#000000">sam_free</text>
</g>
<!-- Node52 -->
<g id="node2" class="node">
<title>Node52</title>
<g id="a_node2"><a xlink:href="cl_8h.html#a2bba8869890a67c2412a358c8f3ec0b4" target="_top" xlink:title="Frees the memory used by the classifier. ">
<polygon fill="none" stroke="#000000" points="93,-158.5084 93,-177.5084 139,-177.5084 139,-158.5084 93,-158.5084"/>
<text text-anchor="middle" x="116" y="-165.5084" font-family="Helvetica,sans-Serif" font-size="10.00" fill="#000000">cl_free</text>
</a>
</g>
</g>
<!-- Node51&#45;&gt;Node52 -->
<g id="edge1" class="edge">
<title>Node51&#45;&gt;Node52</title>
<path fill="none" stroke="#191970" d="M67.2027,-168.0084C75.9445,-168.0084 84.9588,-168.0084 92.8243,-168.0084"/>
<polygon fill="#191970" stroke="#191970" points="67.1508,-164.5085 57.1508,-168.0084 67.1507,-171.5085 67.1508,-164.5085"/>
</g>
<!-- Node53 -->
<g id="node3" class="node">
<title>Node53</title>
<g id="a_node3"><a xlink:href="clset_8h.html#aad012238caff12fcd827b1e282c9a4ef" target="_top" xlink:title="Frees the set and the classifiers. ">
<polygon fill="none" stroke="#000000" points="367,-120.5084 367,-139.5084 422,-139.5084 422,-120.5084 367,-120.5084"/>
<text text-anchor="middle" x="394.5" y="-127.5084" font-family="Helvetica,sans-Serif" font-size="10.00" fill="#000000">clset_kill</text>
</a>
</g>
</g>
<!-- Node52&#45;&gt;Node53 -->
<g id="edge2" class="edge">
<title>Node52&#45;&gt;Node53</title>
<path fill="none" stroke="#191970" d="M148.7488,-156.0186C157.2019,-153.3246 166.3566,-150.751 175,-149.0084 243.0546,-135.2877 324.9435,-131.472 366.8419,-130.4131"/>
<polygon fill="#191970" stroke="#191970" points="147.6009,-152.7118 139.2204,-159.1939 149.8141,-159.3528 147.6009,-152.7118"/>
</g>
<!-- Node72 -->
<g id="node22" class="node">
<title>Node72</title>
<g id="a_node22"><a xlink:href="ea_8c.html#a72cd70b4efb82200d9c3004e1658a69c" target="_top" xlink:title="Adds offspring to the population. ">
<polygon fill="none" stroke="#000000" points="283,-196.5084 283,-215.5084 331,-215.5084 331,-196.5084 283,-196.5084"/>
<text text-anchor="middle" x="307" y="-203.5084" font-family="Helvetica,sans-Serif" font-size="10.00" fill="#000000">ea_add</text>
</a>
</g>
</g>
<!-- Node52&#45;&gt;Node72 -->
<g id="edge29" class="edge">
<title>Node52&#45;&gt;Node72</title>
<path fill="none" stroke="#191970" d="M148.5997,-179.5888C157.1134,-182.3138 166.334,-185.0044 175,-187.0084 212.22,-195.6154 256.2966,-201.0204 282.9293,-203.7755"/>
<polygon fill="#191970" stroke="#191970" points="149.5991,-176.2329 139.0058,-176.4132 147.3994,-182.8783 149.5991,-176.2329"/>
</g>
<!-- Node76 -->
<g id="node26" class="node">
<title>Node76</title>
<g id="a_node26"><a xlink:href="ea_8c.html#a8ea16017fe8753d9b079e8e333d98545" target="_top" xlink:title="Performs evolutionary algorithm subsumption. ">
<polygon fill="none" stroke="#000000" points="175,-158.5084 175,-177.5084 247,-177.5084 247,-158.5084 175,-158.5084"/>
<text text-anchor="middle" x="211" y="-165.5084" font-family="Helvetica,sans-Serif" font-size="10.00" fill="#000000">ea_subsume</text>
</a>
</g>
</g>
<!-- Node52&#45;&gt;Node76 -->
<g id="edge37" class="edge">
<title>Node52&#45;&gt;Node76</title>
<path fill="none" stroke="#191970" d="M149.7462,-168.0084C157.8798,-168.0084 166.6022,-168.0084 174.8411,-168.0084"/>
<polygon fill="#191970" stroke="#191970" points="149.4832,-164.5085 139.4832,-168.0084 149.4831,-171.5085 149.4832,-164.5085"/>
</g>
<!-- Node54 -->
<g id="node4" class="node">
<title>Node54</title>
<g id="a_node4"><a xlink:href="main_8c.html#a3c04138a5bfe5d72780bb7e82a18e627" target="_top" xlink:title="main">
<polygon fill="none" stroke="#000000" points="905,-120.5084 905,-139.5084 943,-139.5084 943,-120.5084 905,-120.5084"/>
<text text-anchor="middle" x="924" y="-127.5084" font-family="Helvetica,sans-Serif" font-size="10.00" fill="#000000">main</text>
</a>
</g>
</g>
<!-- Node53&#45;&gt;Node54 -->
<g id="edge3" class="edge">
<title>Node53&#45;&gt;Node54</title>
<path fill="none" stroke="#191970" d="M432.4033,-124.4821C509.4392,-114.1112 689.7342,-94.226 840,-111.0084 862.5862,-113.5309 887.9646,-119.7562 904.8569,-124.3979"/>
<polygon fill="#191970" stroke="#191970" points="431.6638,-121.0507 422.2324,-125.8776 432.6153,-127.9858 431.6638,-121.0507"/>
</g>
<!-- Node55 -->
<g id="node5" class="node">
<title>Node55</title>
<g id="a_node5"><a xlink:href="structXCS.html#ab58a4fb495b05f3450b182bc21dcba1f" target="_top" xlink:title="XCS::single_reset">
<polygon fill="none" stroke="#000000" points="876,-16.5084 876,-35.5084 972,-35.5084 972,-16.5084 876,-16.5084"/>
<text text-anchor="middle" x="924" y="-23.5084" font-family="Helvetica,sans-Serif" font-size="10.00" fill="#000000">XCS::single_reset</text>
</a>
</g>
</g>
<!-- Node53&#45;&gt;Node55 -->
<g id="edge4" class="edge">
<title>Node53&#45;&gt;Node55</title>
<path fill="none" stroke="#191970" d="M403.3065,-111.4636C413.5119,-92.3109 432.2806,-63.3902 458,-50.0084 596.5191,22.0629 790.6248,-.7893 878.0845,-16.4811"/>
<polygon fill="#191970" stroke="#191970" points="400.1491,-109.9516 398.7589,-120.4548 406.3956,-113.111 400.1491,-109.9516"/>
</g>
<!-- Node57 -->
<g id="node7" class="node">
<title>Node57</title>
<g id="a_node7"><a xlink:href="xcs__multi__step_8c.html#ad50c415970b4bfc42f469fb38c5e68fa" target="_top" xlink:title="Executes a multi&#45;step trial using a built&#45;in environment. ">
<polygon fill="none" stroke="#000000" points="467,-158.5084 467,-177.5084 547,-177.5084 547,-158.5084 467,-158.5084"/>
<text text-anchor="middle" x="507" y="-165.5084" font-family="Helvetica,sans-Serif" font-size="10.00" fill="#000000">xcs_multi_trial</text>
</a>
</g>
</g>
<!-- Node53&#45;&gt;Node57 -->
<g id="edge6" class="edge">
<title>Node53&#45;&gt;Node57</title>
<path fill="none" stroke="#191970" d="M431.6953,-142.5721C446.968,-147.7309 464.3659,-153.6075 478.5888,-158.4117"/>
<polygon fill="#191970" stroke="#191970" points="432.6148,-139.1885 422.0206,-139.3042 430.3747,-145.8204 432.6148,-139.1885"/>
</g>
<!-- Node59 -->
<g id="node9" class="node">
<title>Node59</title>
<g id="a_node9"><a xlink:href="xcs__single__step_8c.html#a536ab4256e871e31959ea6e907455340" target="_top" xlink:title="Executes a single&#45;step trial using a built&#45;in environment. ">
<polygon fill="none" stroke="#000000" points="602,-120.5084 602,-139.5084 686,-139.5084 686,-120.5084 602,-120.5084"/>
<text text-anchor="middle" x="644" y="-127.5084" font-family="Helvetica,sans-Serif" font-size="10.00" fill="#000000">xcs_single_trial</text>
</a>
</g>
</g>
<!-- Node53&#45;&gt;Node59 -->
<g id="edge9" class="edge">
<title>Node53&#45;&gt;Node59</title>
<path fill="none" stroke="#191970" d="M432.2069,-130.0084C477.7498,-130.0084 554.1481,-130.0084 601.6691,-130.0084"/>
<polygon fill="#191970" stroke="#191970" points="432.1542,-126.5085 422.1542,-130.0084 432.1541,-133.5085 432.1542,-126.5085"/>
</g>
<!-- Node61 -->
<g id="node11" class="node">
<title>Node61</title>
<g id="a_node11"><a xlink:href="xcsf_8h.html#af419720749752a7b5596f9def871a71c" target="_top" xlink:title="Reads the state of XCSF from a binary file. ">
<polygon fill="none" stroke="#000000" points="756.5,-44.5084 756.5,-63.5084 815.5,-63.5084 815.5,-44.5084 756.5,-44.5084"/>
<text text-anchor="middle" x="786" y="-51.5084" font-family="Helvetica,sans-Serif" font-size="10.00" fill="#000000">xcsf_load</text>
</a>
</g>
</g>
<!-- Node53&#45;&gt;Node61 -->
<g id="edge12" class="edge">
<title>Node53&#45;&gt;Node61</title>
<path fill="none" stroke="#191970" d="M409.6982,-112.9038C421.5439,-100.8424 439.1095,-85.5447 458,-78.0084 561.1475,-36.8579 696.8951,-44.383 756.1647,-50.3735"/>
<polygon fill="#191970" stroke="#191970" points="407.0899,-110.5683 402.7834,-120.2484 412.1866,-115.3667 407.0899,-110.5683"/>
</g>
<!-- Node63 -->
<g id="node13" class="node">
<title>Node63</title>
<g id="a_node13"><a xlink:href="xcsf_8c.html#af5fb604e81235fdcb2ed8925d9291f59" target="_top" xlink:title="Executes a single XCSF trial. ">
<polygon fill="none" stroke="#000000" points="479,-206.5084 479,-225.5084 535,-225.5084 535,-206.5084 479,-206.5084"/>
<text text-anchor="middle" x="507" y="-213.5084" font-family="Helvetica,sans-Serif" font-size="10.00" fill="#000000">xcsf_trial</text>
</a>
</g>
</g>
<!-- Node53&#45;&gt;Node63 -->
<g id="edge16" class="edge">
<title>Node53&#45;&gt;Node63</title>
<path fill="none" stroke="#191970" d="M411.2092,-146.6776C423.582,-158.5945 441.147,-174.6443 458,-187.0084 467.7237,-194.1421 479.308,-201.0628 488.7711,-206.3533"/>
<polygon fill="#191970" stroke="#191970" points="413.4863,-144.0092 403.8879,-139.5235 408.594,-149.0158 413.4863,-144.0092"/>
</g>
<!-- Node56 -->
<g id="node6" class="node">
<title>Node56</title>
<g id="a_node6"><a xlink:href="python__wrapper_8cpp.html#afbdcc1358036a0b83a6b239da2b098a2" target="_top" xlink:title="BOOST_PYTHON_MODULE">
<polygon fill="none" stroke="#000000" points="1008,-291.5084 1008,-310.5084 1154,-310.5084 1154,-291.5084 1008,-291.5084"/>
<text text-anchor="middle" x="1081" y="-298.5084" font-family="Helvetica,sans-Serif" font-size="10.00" fill="#000000">BOOST_PYTHON_MODULE</text>
</a>
</g>
</g>
<!-- Node55&#45;&gt;Node56 -->
<g id="edge5" class="edge">
<title>Node55&#45;&gt;Node56</title>
<path fill="none" stroke="#191970" d="M956.1794,-40.9665C961.9434,-44.6514 967.5288,-49.0037 972,-54.0084 1040.0768,-130.2081 1071.2526,-255.7444 1079.0079,-291.334"/>
<polygon fill="#191970" stroke="#191970" points="957.5191,-37.6985 947.1092,-35.7275 954.0178,-43.76 957.5191,-37.6985"/>
</g>
<!-- Node58 -->
<g id="node8" class="node">
<title>Node58</title>
<g id="a_node8"><a xlink:href="xcs__multi__step_8h.html#acc29d4a55dbd56c16ea5f19f15a7c677" target="_top" xlink:title="Executes a multi&#45;step reinforcement learning experiment. ">
<polygon fill="none" stroke="#000000" points="592,-158.5084 592,-177.5084 696,-177.5084 696,-158.5084 592,-158.5084"/>
<text text-anchor="middle" x="644" y="-165.5084" font-family="Helvetica,sans-Serif" font-size="10.00" fill="#000000">xcs_multi_step_exp</text>
</a>
</g>
</g>
<!-- Node57&#45;&gt;Node58 -->
<g id="edge7" class="edge">
<title>Node57&#45;&gt;Node58</title>
<path fill="none" stroke="#191970" d="M557.4012,-168.0084C568.5845,-168.0084 580.461,-168.0084 591.7176,-168.0084"/>
<polygon fill="#191970" stroke="#191970" points="557.3636,-164.5085 547.3635,-168.0084 557.3635,-171.5085 557.3636,-164.5085"/>
</g>
<!-- Node58&#45;&gt;Node54 -->
<g id="edge8" class="edge">
<title>Node58&#45;&gt;Node54</title>
<path fill="none" stroke="#191970" d="M706.2868,-163.9811C744.9365,-160.9852 795.5375,-156.1628 840,-149.0084 862.438,-145.3979 887.8442,-139.3766 904.7835,-135.0802"/>
<polygon fill="#191970" stroke="#191970" points="705.9327,-160.4978 696.2246,-164.7409 706.4598,-167.4779 705.9327,-160.4978"/>
</g>
<!-- Node60 -->
<g id="node10" class="node">
<title>Node60</title>
<g id="a_node10"><a xlink:href="xcs__single__step_8h.html#a39a031bf59eaa9b33e30e614610dcda8" target="_top" xlink:title="Executes a single&#45;step reinforcement learning experiment. ">
<polygon fill="none" stroke="#000000" points="732,-120.5084 732,-139.5084 840,-139.5084 840,-120.5084 732,-120.5084"/>
<text text-anchor="middle" x="786" y="-127.5084" font-family="Helvetica,sans-Serif" font-size="10.00" fill="#000000">xcs_single_step_exp</text>
</a>
</g>
</g>
<!-- Node59&#45;&gt;Node60 -->
<g id="edge10" class="edge">
<title>Node59&#45;&gt;Node60</title>
<path fill="none" stroke="#191970" d="M696.551,-130.0084C708.0539,-130.0084 720.2511,-130.0084 731.8166,-130.0084"/>
<polygon fill="#191970" stroke="#191970" points="696.2203,-126.5085 686.2202,-130.0084 696.2202,-133.5085 696.2203,-126.5085"/>
</g>
<!-- Node60&#45;&gt;Node54 -->
<g id="edge11" class="edge">
<title>Node60&#45;&gt;Node54</title>
<path fill="none" stroke="#191970" d="M850.4157,-130.0084C870.2103,-130.0084 890.5102,-130.0084 904.7607,-130.0084"/>
<polygon fill="#191970" stroke="#191970" points="850.1452,-126.5085 840.1452,-130.0084 850.1451,-133.5085 850.1452,-126.5085"/>
</g>
<!-- Node61&#45;&gt;Node54 -->
<g id="edge13" class="edge">
<title>Node61&#45;&gt;Node54</title>
<path fill="none" stroke="#191970" d="M818.8238,-67.7397C825.8949,-70.9347 833.2655,-74.4485 840,-78.0084 865.3228,-91.3941 893.3537,-109.4443 909.7832,-120.3771"/>
<polygon fill="#191970" stroke="#191970" points="820.0166,-64.4405 809.4547,-63.6061 817.191,-70.8449 820.0166,-64.4405"/>
</g>
<!-- Node62 -->
<g id="node12" class="node">
<title>Node62</title>
<g id="a_node12"><a xlink:href="structXCS.html#adc9b621f2b7a306fbf381dd0efaf268b" target="_top" xlink:title="XCS::load">
<polygon fill="none" stroke="#000000" points="893,-63.5084 893,-82.5084 955,-82.5084 955,-63.5084 893,-63.5084"/>
<text text-anchor="middle" x="924" y="-70.5084" font-family="Helvetica,sans-Serif" font-size="10.00" fill="#000000">XCS::load</text>
</a>
</g>
</g>
<!-- Node61&#45;&gt;Node62 -->
<g id="edge14" class="edge">
<title>Node61&#45;&gt;Node62</title>
<path fill="none" stroke="#191970" d="M825.6193,-59.4632C846.8613,-62.3878 872.6716,-65.9414 892.5251,-68.6749"/>
<polygon fill="#191970" stroke="#191970" points="825.9884,-55.9811 815.6045,-58.0844 825.0336,-62.9157 825.9884,-55.9811"/>
</g>
<!-- Node62&#45;&gt;Node56 -->
<g id="edge15" class="edge">
<title>Node62&#45;&gt;Node56</title>
<path fill="none" stroke="#191970" d="M947.4278,-88.7219C955.793,-95.0291 964.8958,-102.7599 972,-111.0084 1024.3645,-171.8075 1064.4571,-261.457 1076.9341,-291.0958"/>
<polygon fill="#191970" stroke="#191970" points="949.2484,-85.7195 939.0922,-82.7026 945.1503,-91.3945 949.2484,-85.7195"/>
</g>
<!-- Node64 -->
<g id="node14" class="node">
<title>Node64</title>
<g id="a_node14"><a xlink:href="xcsf_8h.html#a40f4dfe69c6480f25c55d21c44746eb8" target="_top" xlink:title="Executes MAX_TRIALS number of XCSF learning iterations using the training. data and test iterations u...">
<polygon fill="none" stroke="#000000" points="617,-262.5084 617,-281.5084 671,-281.5084 671,-262.5084 617,-262.5084"/>
<text text-anchor="middle" x="644" y="-269.5084" font-family="Helvetica,sans-Serif" font-size="10.00" fill="#000000">xcsf_fit2</text>
</a>
</g>
</g>
<!-- Node63&#45;&gt;Node64 -->
<g id="edge17" class="edge">
<title>Node63&#45;&gt;Node64</title>
<path fill="none" stroke="#191970" d="M541.3006,-229.1675C546.2418,-231.1042 551.2573,-233.0923 556,-235.0084 578.4352,-244.0725 603.9028,-254.8323 621.6468,-262.4055"/>
<polygon fill="#191970" stroke="#191970" points="542.5695,-225.9057 531.981,-225.5391 540.0298,-232.4288 542.5695,-225.9057"/>
</g>
<!-- Node68 -->
<g id="node18" class="node">
<title>Node68</title>
<g id="a_node18"><a xlink:href="xcsf_8h.html#a90b938e4ae2ef92284e8eabfcf4b7b7b" target="_top" xlink:title="Calculates the XCSF predictions for the provided input. ">
<polygon fill="none" stroke="#000000" points="751,-234.5084 751,-253.5084 821,-253.5084 821,-234.5084 751,-234.5084"/>
<text text-anchor="middle" x="786" y="-241.5084" font-family="Helvetica,sans-Serif" font-size="10.00" fill="#000000">xcsf_predict</text>
</a>
</g>
</g>
<!-- Node63&#45;&gt;Node68 -->
<g id="edge23" class="edge">
<title>Node63&#45;&gt;Node68</title>
<path fill="none" stroke="#191970" d="M545.2588,-219.848C599.4907,-225.2906 697.963,-235.1731 750.5926,-240.455"/>
<polygon fill="#191970" stroke="#191970" points="545.3286,-216.3375 535.029,-218.8213 544.6295,-223.3025 545.3286,-216.3375"/>
</g>
<!-- Node70 -->
<g id="node20" class="node">
<title>Node70</title>
<g id="a_node20"><a xlink:href="xcsf_8h.html#a348b8cd321211c377fb1deedc62c7c67" target="_top" xlink:title="Calculates the XCSF error for the input data. ">
<polygon fill="none" stroke="#000000" points="611.5,-324.5084 611.5,-343.5084 676.5,-343.5084 676.5,-324.5084 611.5,-324.5084"/>
<text text-anchor="middle" x="644" y="-331.5084" font-family="Helvetica,sans-Serif" font-size="10.00" fill="#000000">xcsf_score</text>
</a>
</g>
</g>
<!-- Node63&#45;&gt;Node70 -->
<g id="edge26" class="edge">
<title>Node63&#45;&gt;Node70</title>
<path fill="none" stroke="#191970" d="M544.3284,-227.5485C548.4887,-229.6682 552.486,-232.1395 556,-235.0084 578.9195,-253.7207 572.3659,-268.8734 592,-291.0084 603.5049,-303.9787 619.0871,-316.3239 630.187,-324.4317"/>
<polygon fill="#191970" stroke="#191970" points="545.6452,-224.3038 535.0847,-223.4513 542.8087,-230.7033 545.6452,-224.3038"/>
</g>
<!-- Node64&#45;&gt;Node54 -->
<g id="edge18" class="edge">
<title>Node64&#45;&gt;Node54</title>
<path fill="none" stroke="#191970" d="M670.4581,-257.6013C687.8715,-248.1877 711.2063,-235.7022 732,-225.0084 794.8388,-192.6914 870.163,-156.0149 904.8253,-139.2516"/>
<polygon fill="#191970" stroke="#191970" points="668.5716,-254.6427 661.4469,-262.4842 671.9066,-260.7972 668.5716,-254.6427"/>
</g>
<!-- Node65 -->
<g id="node15" class="node">
<title>Node65</title>
<g id="a_node15"><a xlink:href="structXCS.html#a7d53320740db8e846251bacd0238a9fb" target="_top" xlink:title="XCS::fit">
<polygon fill="none" stroke="#000000" points="760,-272.5084 760,-291.5084 812,-291.5084 812,-272.5084 760,-272.5084"/>
<text text-anchor="middle" x="786" y="-279.5084" font-family="Helvetica,sans-Serif" font-size="10.00" fill="#000000">XCS::fit</text>
</a>
</g>
</g>
<!-- Node64&#45;&gt;Node65 -->
<g id="edge19" class="edge">
<title>Node64&#45;&gt;Node65</title>
<path fill="none" stroke="#191970" d="M681.1114,-274.6219C705.7321,-276.3557 737.4557,-278.5898 759.538,-280.1449"/>
<polygon fill="#191970" stroke="#191970" points="681.2646,-271.1241 671.0434,-273.9128 680.7727,-278.1068 681.2646,-271.1241"/>
</g>
<!-- Node66 -->
<g id="node16" class="node">
<title>Node66</title>
<g id="a_node16"><a xlink:href="xcsf_8h.html#afd4a983899f1980887b8375e40b32a72" target="_top" xlink:title="Executes MAX_TRIALS number of XCSF learning iterations using the training data. ">
<polygon fill="none" stroke="#000000" points="759,-310.5084 759,-329.5084 813,-329.5084 813,-310.5084 759,-310.5084"/>
<text text-anchor="middle" x="786" y="-317.5084" font-family="Helvetica,sans-Serif" font-size="10.00" fill="#000000">xcsf_fit1</text>
</a>
</g>
</g>
<!-- Node64&#45;&gt;Node66 -->
<g id="edge20" class="edge">
<title>Node64&#45;&gt;Node66</title>
<path fill="none" stroke="#191970" d="M680.6531,-284.3982C704.9825,-292.6222 736.4004,-303.2423 758.5737,-310.7375"/>
<polygon fill="#191970" stroke="#191970" points="681.6376,-281.0365 671.0434,-281.1498 679.3959,-287.6678 681.6376,-281.0365"/>
</g>
<!-- Node67 -->
<g id="node17" class="node">
<title>Node67</title>
<g id="a_node17"><a xlink:href="structXCS.html#ad2ccafe59d2b4ae6d0e1cbc15edee53c" target="_top" xlink:title="XCS::fit">
<polygon fill="none" stroke="#000000" points="898,-296.5084 898,-315.5084 950,-315.5084 950,-296.5084 898,-296.5084"/>
<text text-anchor="middle" x="924" y="-303.5084" font-family="Helvetica,sans-Serif" font-size="10.00" fill="#000000">XCS::fit</text>
</a>
</g>
</g>
<!-- Node66&#45;&gt;Node67 -->
<g id="edge21" class="edge">
<title>Node66&#45;&gt;Node67</title>
<path fill="none" stroke="#191970" d="M823.2539,-316.229C846.7989,-313.8404 876.6504,-310.812 897.7286,-308.6736"/>
<polygon fill="#191970" stroke="#191970" points="822.86,-312.7509 813.2644,-317.2424 823.5666,-319.7152 822.86,-312.7509"/>
</g>
<!-- Node67&#45;&gt;Node56 -->
<g id="edge22" class="edge">
<title>Node67&#45;&gt;Node56</title>
<path fill="none" stroke="#191970" d="M960.5582,-304.8441C974.7211,-304.3931 991.4627,-303.8599 1007.8882,-303.3368"/>
<polygon fill="#191970" stroke="#191970" points="960.1618,-301.3549 950.2783,-305.1715 960.3846,-308.3513 960.1618,-301.3549"/>
</g>
<!-- Node69 -->
<g id="node19" class="node">
<title>Node69</title>
<g id="a_node19"><a xlink:href="structXCS.html#a911ed75c86abed7807d33eb1385240ed" target="_top" xlink:title="XCS::predict">
<polygon fill="none" stroke="#000000" points="887.5,-253.5084 887.5,-272.5084 960.5,-272.5084 960.5,-253.5084 887.5,-253.5084"/>
<text text-anchor="middle" x="924" y="-260.5084" font-family="Helvetica,sans-Serif" font-size="10.00" fill="#000000">XCS::predict</text>
</a>
</g>
</g>
<!-- Node68&#45;&gt;Node69 -->
<g id="edge24" class="edge">
<title>Node68&#45;&gt;Node69</title>
<path fill="none" stroke="#191970" d="M831.2828,-250.243C849.4928,-252.7501 870.212,-255.6028 887.4388,-257.9746"/>
<polygon fill="#191970" stroke="#191970" points="831.5642,-246.7488 821.1803,-248.852 830.6094,-253.6834 831.5642,-246.7488"/>
</g>
<!-- Node69&#45;&gt;Node56 -->
<g id="edge25" class="edge">
<title>Node69&#45;&gt;Node56</title>
<path fill="none" stroke="#191970" d="M970.5458,-274.2742C993.1793,-279.7524 1020.0864,-286.265 1041.6766,-291.4906"/>
<polygon fill="#191970" stroke="#191970" points="971.3523,-270.8685 960.8095,-271.9177 969.7055,-277.672 971.3523,-270.8685"/>
</g>
<!-- Node71 -->
<g id="node21" class="node">
<title>Node71</title>
<g id="a_node21"><a xlink:href="structXCS.html#aa77bc77484d6d14bf512304a23cfec88" target="_top" xlink:title="XCS::score">
<polygon fill="none" stroke="#000000" points="890,-343.5084 890,-362.5084 958,-362.5084 958,-343.5084 890,-343.5084"/>
<text text-anchor="middle" x="924" y="-350.5084" font-family="Helvetica,sans-Serif" font-size="10.00" fill="#000000">XCS::score</text>
</a>
</g>
</g>
<!-- Node70&#45;&gt;Node71 -->
<g id="edge27" class="edge">
<title>Node70&#45;&gt;Node71</title>
<path fill="none" stroke="#191970" d="M686.912,-336.9203C742.6193,-340.7004 838.7306,-347.2222 889.7956,-350.6874"/>
<polygon fill="#191970" stroke="#191970" points="686.8816,-333.4102 676.6675,-336.2251 686.4076,-340.3942 686.8816,-333.4102"/>
</g>
<!-- Node71&#45;&gt;Node56 -->
<g id="edge28" class="edge">
<title>Node71&#45;&gt;Node56</title>
<path fill="none" stroke="#191970" d="M962.5473,-340.2411C990.2278,-331.0731 1026.9449,-318.912 1052.1209,-310.5734"/>
<polygon fill="#191970" stroke="#191970" points="961.1886,-337.0041 952.7962,-343.4708 963.3896,-343.6491 961.1886,-337.0041"/>
</g>
<!-- Node73 -->
<g id="node23" class="node">
<title>Node73</title>
<g id="a_node23"><a xlink:href="ea_8h.html#a3e63f4f98f4b3eb0de9a52a1abe1c225" target="_top" xlink:title="Executes the evolutionary algorithm (EA). ">
<polygon fill="none" stroke="#000000" points="380,-201.5084 380,-220.5084 409,-220.5084 409,-201.5084 380,-201.5084"/>
<text text-anchor="middle" x="394.5" y="-208.5084" font-family="Helvetica,sans-Serif" font-size="10.00" fill="#000000">ea</text>
</a>
</g>
</g>
<!-- Node72&#45;&gt;Node73 -->
<g id="edge30" class="edge">
<title>Node72&#45;&gt;Node73</title>
<path fill="none" stroke="#191970" d="M341.6783,-207.99C354.9632,-208.7491 369.4153,-209.575 379.8391,-210.1706"/>
<polygon fill="#191970" stroke="#191970" points="341.557,-204.4775 331.3736,-207.4012 341.1576,-211.4661 341.557,-204.4775"/>
</g>
<!-- Node73&#45;&gt;Node57 -->
<g id="edge31" class="edge">
<title>Node73&#45;&gt;Node57</title>
<path fill="none" stroke="#191970" d="M418.7622,-201.7348C437.4222,-194.6026 463.117,-184.7814 481.9671,-177.5765"/>
<polygon fill="#191970" stroke="#191970" points="417.2987,-198.5472 409.2074,-205.3869 419.798,-205.0858 417.2987,-198.5472"/>
</g>
<!-- Node73&#45;&gt;Node63 -->
<g id="edge36" class="edge">
<title>Node73&#45;&gt;Node63</title>
<path fill="none" stroke="#191970" d="M419.2857,-212.11C436.8948,-212.8926 460.5687,-213.9448 478.8836,-214.7588"/>
<polygon fill="#191970" stroke="#191970" points="419.353,-208.6096 409.2074,-211.662 419.0421,-215.6027 419.353,-208.6096"/>
</g>
<!-- Node74 -->
<g id="node24" class="node">
<title>Node74</title>
<g id="a_node24"><a xlink:href="xcs__single__step_8h.html#afd31e5406eeef1fb9b244f635a0f0408" target="_top" xlink:title="Creates the action set, updates the classifiers and runs the EA. ">
<polygon fill="none" stroke="#000000" points="458,-244.5084 458,-263.5084 556,-263.5084 556,-244.5084 458,-244.5084"/>
<text text-anchor="middle" x="507" y="-251.5084" font-family="Helvetica,sans-Serif" font-size="10.00" fill="#000000">xcs_single_update</text>
</a>
</g>
</g>
<!-- Node73&#45;&gt;Node74 -->
<g id="edge32" class="edge">
<title>Node73&#45;&gt;Node74</title>
<path fill="none" stroke="#191970" d="M418.7622,-220.2819C437.4222,-227.4142 463.117,-237.2353 481.9671,-244.4403"/>
<polygon fill="#191970" stroke="#191970" points="419.798,-216.9309 409.2074,-216.6299 417.2987,-223.4696 419.798,-216.9309"/>
</g>
<!-- Node74&#45;&gt;Node59 -->
<g id="edge35" class="edge">
<title>Node74&#45;&gt;Node59</title>
<path fill="none" stroke="#191970" d="M550.7471,-239.3686C552.6147,-238.0359 554.3801,-236.5858 556,-235.0084 585.6858,-206.1 562.0325,-177.6245 592,-149.0084 596.0318,-145.1584 600.9058,-142.0777 606.0336,-139.6153"/>
<polygon fill="#191970" stroke="#191970" points="548.8847,-236.4034 542.0388,-244.4895 552.433,-242.4374 548.8847,-236.4034"/>
</g>
<!-- Node75 -->
<g id="node25" class="node">
<title>Node75</title>
<g id="a_node25"><a xlink:href="structXCS.html#aedc01ad6f00a54b260a7605929a1d4c9" target="_top" xlink:title="XCS::single_update">
<polygon fill="none" stroke="#000000" points="592,-374.5084 592,-393.5084 696,-393.5084 696,-374.5084 592,-374.5084"/>
<text text-anchor="middle" x="644" y="-381.5084" font-family="Helvetica,sans-Serif" font-size="10.00" fill="#000000">XCS::single_update</text>
</a>
</g>
</g>
<!-- Node74&#45;&gt;Node75 -->
<g id="edge33" class="edge">
<title>Node74&#45;&gt;Node75</title>
<path fill="none" stroke="#191970" d="M519.6305,-272.0015C535.0478,-293.1141 562.7067,-328.3618 592,-353.0084 601.9725,-361.399 614.4843,-368.9344 624.7358,-374.4744"/>
<polygon fill="#191970" stroke="#191970" points="522.3003,-269.7189 513.6247,-263.6375 516.6143,-273.8018 522.3003,-269.7189"/>
</g>
<!-- Node75&#45;&gt;Node56 -->
<g id="edge34" class="edge">
<title>Node75&#45;&gt;Node56</title>
<path fill="none" stroke="#191970" d="M706.0265,-391.4052C773.257,-397.2257 882.8748,-400.2587 972,-372.0084 1012.4736,-359.1793 1052.286,-326.9022 1070.5807,-310.6601"/>
<polygon fill="#191970" stroke="#191970" points="706.2933,-387.9151 696.0163,-390.4906 705.6564,-394.886 706.2933,-387.9151"/>
</g>
<!-- Node76&#45;&gt;Node72 -->
<g id="edge38" class="edge">
<title>Node76&#45;&gt;Node72</title>
<path fill="none" stroke="#191970" d="M244.8816,-181.4198C257.3892,-186.3708 271.3009,-191.8775 282.7829,-196.4224"/>
<polygon fill="#191970" stroke="#191970" points="245.8111,-178.0236 235.2249,-177.5974 243.2347,-184.5323 245.8111,-178.0236"/>
</g>
</g>
</svg>
