<?xml version="1.0" encoding="UTF-8" standalone="no"?>
<!DOCTYPE svg PUBLIC "-//W3C//DTD SVG 1.1//EN"
 "http://www.w3.org/Graphics/SVG/1.1/DTD/svg11.dtd">
<!-- Generated by graphviz version 2.40.1 (20161225.0304)
 -->
<!-- Title: sam_rate_selection_init Pages: 1 -->
<svg width="1353pt" height="367pt"
 viewBox="0.00 0.00 1353.00 367.47" xmlns="http://www.w3.org/2000/svg" xmlns:xlink="http://www.w3.org/1999/xlink">
<g id="graph0" class="graph" transform="scale(1 1) rotate(0) translate(4 363.4725)">
<title>sam_rate_selection_init</title>
<!-- Node214 -->
<g id="node1" class="node">
<title>Node214</title>
<polygon fill="#bfbfbf" stroke="#000000" points="0,-180.7984 0,-199.7984 119,-199.7984 119,-180.7984 0,-180.7984"/>
<text text-anchor="middle" x="59.5" y="-187.7984" font-family="Helvetica,sans-Serif" font-size="10.00" fill="#000000">sam_rate_selection_init</text>
</g>
<!-- Node215 -->
<g id="node2" class="node">
<title>Node215</title>
<g id="a_node2"><a xlink:href="sam_8h.html#a934d788eb57734b6118fff7385733803" target="_top" xlink:title="Resets a classifier&#39;s self&#45;adaptive mutation rates. ">
<polygon fill="none" stroke="#000000" points="155,-180.7984 155,-199.7984 217,-199.7984 217,-180.7984 155,-180.7984"/>
<text text-anchor="middle" x="186" y="-187.7984" font-family="Helvetica,sans-Serif" font-size="10.00" fill="#000000">sam_reset</text>
</a>
</g>
</g>
<!-- Node214&#45;&gt;Node215 -->
<g id="edge1" class="edge">
<title>Node214&#45;&gt;Node215</title>
<path fill="none" stroke="#191970" d="M129.2474,-190.2984C138.2513,-190.2984 147.0777,-190.2984 154.9863,-190.2984"/>
<polygon fill="#191970" stroke="#191970" points="129.0459,-186.7985 119.0458,-190.2984 129.0458,-193.7985 129.0459,-186.7985"/>
</g>
<!-- Node216 -->
<g id="node3" class="node">
<title>Node216</title>
<g id="a_node3"><a xlink:href="sam_8h.html#ac19f397e3c1bd2a2a4f4a1174509ac67" target="_top" xlink:title="Initialises a classifier&#39;s self&#45;adaptive mutation rates. ">
<polygon fill="none" stroke="#000000" points="253,-180.7984 253,-199.7984 306,-199.7984 306,-180.7984 253,-180.7984"/>
<text text-anchor="middle" x="279.5" y="-187.7984" font-family="Helvetica,sans-Serif" font-size="10.00" fill="#000000">sam_init</text>
</a>
</g>
</g>
<!-- Node215&#45;&gt;Node216 -->
<g id="edge2" class="edge">
<title>Node215&#45;&gt;Node216</title>
<path fill="none" stroke="#191970" d="M227.1742,-190.2984C235.8927,-190.2984 244.8736,-190.2984 252.8806,-190.2984"/>
<polygon fill="#191970" stroke="#191970" points="227.1342,-186.7985 217.1341,-190.2984 227.1341,-193.7985 227.1342,-186.7985"/>
</g>
<!-- Node217 -->
<g id="node4" class="node">
<title>Node217</title>
<g id="a_node4"><a xlink:href="cl_8h.html#ab45c6f772a335d0a4fdb753a61958744" target="_top" xlink:title="Initialises a new classifier. ">
<polygon fill="none" stroke="#000000" points="342,-180.7984 342,-199.7984 384,-199.7984 384,-180.7984 342,-180.7984"/>
<text text-anchor="middle" x="363" y="-187.7984" font-family="Helvetica,sans-Serif" font-size="10.00" fill="#000000">cl_init</text>
</a>
</g>
</g>
<!-- Node216&#45;&gt;Node217 -->
<g id="edge3" class="edge">
<title>Node216&#45;&gt;Node217</title>
<path fill="none" stroke="#191970" d="M316.4338,-190.2984C325.1907,-190.2984 334.2341,-190.2984 341.9951,-190.2984"/>
<polygon fill="#191970" stroke="#191970" points="316.3796,-186.7985 306.3795,-190.2984 316.3795,-193.7985 316.3796,-186.7985"/>
</g>
<!-- Node218 -->
<g id="node5" class="node">
<title>Node218</title>
<g id="a_node5"><a xlink:href="clset_8c.html#afc4b91ff72294195a5462944b92ec9b2" target="_top" xlink:title="Ensures all possible actions are covered by the match set. ">
<polygon fill="none" stroke="#000000" points="420,-142.7984 420,-161.7984 487,-161.7984 487,-142.7984 420,-142.7984"/>
<text text-anchor="middle" x="453.5" y="-149.7984" font-family="Helvetica,sans-Serif" font-size="10.00" fill="#000000">clset_cover</text>
</a>
</g>
</g>
<!-- Node217&#45;&gt;Node218 -->
<g id="edge4" class="edge">
<title>Node217&#45;&gt;Node218</title>
<path fill="none" stroke="#191970" d="M393.7291,-177.3956C405.8106,-172.3227 419.4369,-166.6012 430.6247,-161.9036"/>
<polygon fill="#191970" stroke="#191970" points="392.3124,-174.1944 384.4472,-181.293 395.0225,-180.6485 392.3124,-174.1944"/>
</g>
<!-- Node237 -->
<g id="node24" class="node">
<title>Node237</title>
<g id="a_node24"><a xlink:href="clset_8h.html#a010148dc53ed67a07156c06cd3bedc17" target="_top" xlink:title="Initialises a new population set. ">
<polygon fill="none" stroke="#000000" points="924.5,-294.7984 924.5,-313.7984 1001.5,-313.7984 1001.5,-294.7984 924.5,-294.7984"/>
<text text-anchor="middle" x="963" y="-301.7984" font-family="Helvetica,sans-Serif" font-size="10.00" fill="#000000">clset_pop_init</text>
</a>
</g>
</g>
<!-- Node217&#45;&gt;Node237 -->
<g id="edge28" class="edge">
<title>Node217&#45;&gt;Node237</title>
<path fill="none" stroke="#191970" d="M378.58,-207.3192C409.4703,-239.1044 482.0822,-304.2984 558,-304.2984 558,-304.2984 558,-304.2984 681,-304.2984 767.901,-304.2984 869.8655,-304.2984 924.2272,-304.2984"/>
<polygon fill="#191970" stroke="#191970" points="381.0721,-204.8607 371.6488,-200.018 375.9954,-209.6802 381.0721,-204.8607"/>
</g>
<!-- Node239 -->
<g id="node26" class="node">
<title>Node239</title>
<g id="a_node26"><a xlink:href="ea_8h.html#a3e63f4f98f4b3eb0de9a52a1abe1c225" target="_top" xlink:title="Executes the evolutionary algorithm (EA). ">
<polygon fill="none" stroke="#000000" points="543.5,-180.7984 543.5,-199.7984 572.5,-199.7984 572.5,-180.7984 543.5,-180.7984"/>
<text text-anchor="middle" x="558" y="-187.7984" font-family="Helvetica,sans-Serif" font-size="10.00" fill="#000000">ea</text>
</a>
</g>
</g>
<!-- Node217&#45;&gt;Node239 -->
<g id="edge33" class="edge">
<title>Node217&#45;&gt;Node239</title>
<path fill="none" stroke="#191970" d="M394.369,-190.2984C437.1092,-190.2984 511.9174,-190.2984 543.3907,-190.2984"/>
<polygon fill="#191970" stroke="#191970" points="394.2397,-186.7985 384.2396,-190.2984 394.2396,-193.7985 394.2397,-186.7985"/>
</g>
<!-- Node219 -->
<g id="node6" class="node">
<title>Node219</title>
<g id="a_node6"><a xlink:href="clset_8h.html#a460e3bd1d979c502e9e9d97d4253f97c" target="_top" xlink:title="Constructs the match set. ">
<polygon fill="none" stroke="#000000" points="523,-142.7984 523,-161.7984 593,-161.7984 593,-142.7984 523,-142.7984"/>
<text text-anchor="middle" x="558" y="-149.7984" font-family="Helvetica,sans-Serif" font-size="10.00" fill="#000000">clset_match</text>
</a>
</g>
</g>
<!-- Node218&#45;&gt;Node219 -->
<g id="edge5" class="edge">
<title>Node218&#45;&gt;Node219</title>
<path fill="none" stroke="#191970" d="M497.3543,-152.2984C505.9061,-152.2984 514.7659,-152.2984 522.985,-152.2984"/>
<polygon fill="#191970" stroke="#191970" points="497.1397,-148.7985 487.1397,-152.2984 497.1396,-155.7985 497.1397,-148.7985"/>
</g>
<!-- Node220 -->
<g id="node7" class="node">
<title>Node220</title>
<g id="a_node7"><a xlink:href="xcs__multi__step_8c.html#a1e1c2a3094be715b468dda79cd59ebf3" target="_top" xlink:title="Executes a multi&#45;step trial using a built&#45;in environment. ">
<polygon fill="none" stroke="#000000" points="641,-180.7984 641,-199.7984 721,-199.7984 721,-180.7984 641,-180.7984"/>
<text text-anchor="middle" x="681" y="-187.7984" font-family="Helvetica,sans-Serif" font-size="10.00" fill="#000000">xcs_multi_trial</text>
</a>
</g>
</g>
<!-- Node219&#45;&gt;Node220 -->
<g id="edge6" class="edge">
<title>Node219&#45;&gt;Node220</title>
<path fill="none" stroke="#191970" d="M599.0445,-164.9789C615.6638,-170.1133 634.5322,-175.9425 649.9718,-180.7125"/>
<polygon fill="#191970" stroke="#191970" points="599.6257,-161.4952 589.0381,-161.8874 597.5594,-168.1833 599.6257,-161.4952"/>
</g>
<!-- Node223 -->
<g id="node10" class="node">
<title>Node223</title>
<g id="a_node10"><a xlink:href="xcs__single__step_8h.html#ae25a81ce7f997ab7167ab23daec18183" target="_top" xlink:title="Constructs the match set and selects an action to perform. ">
<polygon fill="none" stroke="#000000" points="629,-104.7984 629,-123.7984 733,-123.7984 733,-104.7984 629,-104.7984"/>
<text text-anchor="middle" x="681" y="-111.7984" font-family="Helvetica,sans-Serif" font-size="10.00" fill="#000000">xcs_single_decision</text>
</a>
</g>
</g>
<!-- Node219&#45;&gt;Node223 -->
<g id="edge9" class="edge">
<title>Node219&#45;&gt;Node223</title>
<path fill="none" stroke="#191970" d="M599.0445,-139.618C615.6638,-134.4836 634.5322,-128.6543 649.9718,-123.8844"/>
<polygon fill="#191970" stroke="#191970" points="597.5594,-136.4135 589.0381,-142.7094 599.6257,-143.1016 597.5594,-136.4135"/>
</g>
<!-- Node228 -->
<g id="node15" class="node">
<title>Node228</title>
<g id="a_node15"><a xlink:href="xcsf_8c.html#af5fb604e81235fdcb2ed8925d9291f59" target="_top" xlink:title="Executes a single XCSF trial. ">
<polygon fill="none" stroke="#000000" points="653,-142.7984 653,-161.7984 709,-161.7984 709,-142.7984 653,-142.7984"/>
<text text-anchor="middle" x="681" y="-149.7984" font-family="Helvetica,sans-Serif" font-size="10.00" fill="#000000">xcsf_trial</text>
</a>
</g>
</g>
<!-- Node219&#45;&gt;Node228 -->
<g id="edge15" class="edge">
<title>Node219&#45;&gt;Node228</title>
<path fill="none" stroke="#191970" d="M603.2964,-152.2984C619.863,-152.2984 638.1189,-152.2984 652.7705,-152.2984"/>
<polygon fill="#191970" stroke="#191970" points="603.2469,-148.7985 593.2469,-152.2984 603.2468,-155.7985 603.2469,-148.7985"/>
</g>
<!-- Node221 -->
<g id="node8" class="node">
<title>Node221</title>
<g id="a_node8"><a xlink:href="xcs__multi__step_8h.html#acc29d4a55dbd56c16ea5f19f15a7c677" target="_top" xlink:title="Executes a multi&#45;step reinforcement learning experiment. ">
<polygon fill="none" stroke="#000000" points="911,-256.7984 911,-275.7984 1015,-275.7984 1015,-256.7984 911,-256.7984"/>
<text text-anchor="middle" x="963" y="-263.7984" font-family="Helvetica,sans-Serif" font-size="10.00" fill="#000000">xcs_multi_step_exp</text>
</a>
</g>
</g>
<!-- Node220&#45;&gt;Node221 -->
<g id="edge7" class="edge">
<title>Node220&#45;&gt;Node221</title>
<path fill="none" stroke="#191970" d="M723.6347,-203.9863C726.8963,-205.5978 730.0594,-207.3661 733,-209.2984 752.4424,-222.0745 748.1027,-237.0741 769,-247.2984 813.3816,-269.0128 870.2402,-272.1391 910.9088,-270.8166"/>
<polygon fill="#191970" stroke="#191970" points="724.8456,-200.6949 714.2842,-199.8533 722.0156,-207.0974 724.8456,-200.6949"/>
</g>
<!-- Node222 -->
<g id="node9" class="node">
<title>Node222</title>
<g id="a_node9"><a xlink:href="main_8c.html#a3c04138a5bfe5d72780bb7e82a18e627" target="_top" xlink:title="main">
<polygon fill="none" stroke="#000000" points="1089,-228.7984 1089,-247.7984 1127,-247.7984 1127,-228.7984 1089,-228.7984"/>
<text text-anchor="middle" x="1108" y="-235.7984" font-family="Helvetica,sans-Serif" font-size="10.00" fill="#000000">main</text>
</a>
</g>
</g>
<!-- Node221&#45;&gt;Node222 -->
<g id="edge8" class="edge">
<title>Node221&#45;&gt;Node222</title>
<path fill="none" stroke="#191970" d="M1022.5197,-254.805C1046.2566,-250.2213 1071.9125,-245.2671 1088.8573,-241.995"/>
<polygon fill="#191970" stroke="#191970" points="1021.6502,-251.4081 1012.4952,-256.7407 1022.9775,-258.2812 1021.6502,-251.4081"/>
</g>
<!-- Node224 -->
<g id="node11" class="node">
<title>Node224</title>
<g id="a_node11"><a xlink:href="structXCS.html#a94d556a5e545ec415d7165d5e91b21d4" target="_top" xlink:title="XCS::single_decision">
<polygon fill="none" stroke="#000000" points="1053,-9.7984 1053,-28.7984 1163,-28.7984 1163,-9.7984 1053,-9.7984"/>
<text text-anchor="middle" x="1108" y="-16.7984" font-family="Helvetica,sans-Serif" font-size="10.00" fill="#000000">XCS::single_decision</text>
</a>
</g>
</g>
<!-- Node223&#45;&gt;Node224 -->
<g id="edge10" class="edge">
<title>Node223&#45;&gt;Node224</title>
<path fill="none" stroke="#191970" d="M693.1227,-96.3466C708.1671,-75.8128 735.9209,-43.2363 769,-29.2984 864.3618,10.8822 988.563,.6061 1057.0603,-9.785"/>
<polygon fill="#191970" stroke="#191970" points="690.2216,-94.3871 687.3026,-104.5719 695.9358,-98.4304 690.2216,-94.3871"/>
</g>
<!-- Node226 -->
<g id="node13" class="node">
<title>Node226</title>
<g id="a_node13"><a xlink:href="xcs__single__step_8c.html#a3d1fd2472d35310800aed897219a65af" target="_top" xlink:title="Executes a single&#45;step trial using a built&#45;in environment. ">
<polygon fill="none" stroke="#000000" points="779,-218.7984 779,-237.7984 863,-237.7984 863,-218.7984 779,-218.7984"/>
<text text-anchor="middle" x="821" y="-225.7984" font-family="Helvetica,sans-Serif" font-size="10.00" fill="#000000">xcs_single_trial</text>
</a>
</g>
</g>
<!-- Node223&#45;&gt;Node226 -->
<g id="edge12" class="edge">
<title>Node223&#45;&gt;Node226</title>
<path fill="none" stroke="#191970" d="M723.6587,-127.95C726.915,-129.5696 730.0702,-131.3496 733,-133.2984 735.3983,-134.8938 790.3856,-194.8529 812.1995,-218.6795"/>
<polygon fill="#191970" stroke="#191970" points="724.8773,-124.6617 714.3173,-123.8033 722.0372,-131.0596 724.8773,-124.6617"/>
</g>
<!-- Node225 -->
<g id="node12" class="node">
<title>Node225</title>
<g id="a_node12"><a xlink:href="python__wrapper_8cpp.html#afbdcc1358036a0b83a6b239da2b098a2" target="_top" xlink:title="BOOST_PYTHON_MODULE">
<polygon fill="none" stroke="#000000" points="1199,-123.7984 1199,-142.7984 1345,-142.7984 1345,-123.7984 1199,-123.7984"/>
<text text-anchor="middle" x="1272" y="-130.7984" font-family="Helvetica,sans-Serif" font-size="10.00" fill="#000000">BOOST_PYTHON_MODULE</text>
</a>
</g>
</g>
<!-- Node224&#45;&gt;Node225 -->
<g id="edge11" class="edge">
<title>Node224&#45;&gt;Node225</title>
<path fill="none" stroke="#191970" d="M1151.9446,-32.7379C1155.7703,-34.4255 1159.5096,-36.2779 1163,-38.2984 1205.146,-62.6961 1246.011,-104.6727 1263.3329,-123.574"/>
<polygon fill="#191970" stroke="#191970" points="1152.9333,-29.3632 1142.3495,-28.8807 1150.3224,-35.8581 1152.9333,-29.3632"/>
</g>
<!-- Node227 -->
<g id="node14" class="node">
<title>Node227</title>
<g id="a_node14"><a xlink:href="xcs__single__step_8h.html#a39a031bf59eaa9b33e30e614610dcda8" target="_top" xlink:title="Executes a single&#45;step experiment. ">
<polygon fill="none" stroke="#000000" points="909,-218.7984 909,-237.7984 1017,-237.7984 1017,-218.7984 909,-218.7984"/>
<text text-anchor="middle" x="963" y="-225.7984" font-family="Helvetica,sans-Serif" font-size="10.00" fill="#000000">xcs_single_step_exp</text>
</a>
</g>
</g>
<!-- Node226&#45;&gt;Node227 -->
<g id="edge13" class="edge">
<title>Node226&#45;&gt;Node227</title>
<path fill="none" stroke="#191970" d="M873.551,-228.2984C885.0539,-228.2984 897.2511,-228.2984 908.8166,-228.2984"/>
<polygon fill="#191970" stroke="#191970" points="873.2203,-224.7985 863.2202,-228.2984 873.2202,-231.7985 873.2203,-224.7985"/>
</g>
<!-- Node227&#45;&gt;Node222 -->
<g id="edge14" class="edge">
<title>Node227&#45;&gt;Node222</title>
<path fill="none" stroke="#191970" d="M1027.5275,-232.7486C1049.7805,-234.2833 1073.0477,-235.8879 1088.8059,-236.9747"/>
<polygon fill="#191970" stroke="#191970" points="1027.6223,-229.2469 1017.4052,-232.0505 1027.1407,-236.2303 1027.6223,-229.2469"/>
</g>
<!-- Node229 -->
<g id="node16" class="node">
<title>Node229</title>
<g id="a_node16"><a xlink:href="xcsf_8h.html#a40f4dfe69c6480f25c55d21c44746eb8" target="_top" xlink:title="Executes MAX_TRIALS number of XCSF learning iterations using the training. data and test iterations u...">
<polygon fill="none" stroke="#000000" points="794,-142.7984 794,-161.7984 848,-161.7984 848,-142.7984 794,-142.7984"/>
<text text-anchor="middle" x="821" y="-149.7984" font-family="Helvetica,sans-Serif" font-size="10.00" fill="#000000">xcsf_fit2</text>
</a>
</g>
</g>
<!-- Node228&#45;&gt;Node229 -->
<g id="edge16" class="edge">
<title>Node228&#45;&gt;Node229</title>
<path fill="none" stroke="#191970" d="M719.3394,-152.2984C742.8852,-152.2984 772.4858,-152.2984 793.6638,-152.2984"/>
<polygon fill="#191970" stroke="#191970" points="719.3311,-148.7985 709.3311,-152.2984 719.3311,-155.7985 719.3311,-148.7985"/>
</g>
<!-- Node233 -->
<g id="node20" class="node">
<title>Node233</title>
<g id="a_node20"><a xlink:href="xcsf_8h.html#a90b938e4ae2ef92284e8eabfcf4b7b7b" target="_top" xlink:title="Calculates the XCSF predictions for the provided input. ">
<polygon fill="none" stroke="#000000" points="786,-85.7984 786,-104.7984 856,-104.7984 856,-85.7984 786,-85.7984"/>
<text text-anchor="middle" x="821" y="-92.7984" font-family="Helvetica,sans-Serif" font-size="10.00" fill="#000000">xcsf_predict</text>
</a>
</g>
</g>
<!-- Node228&#45;&gt;Node233 -->
<g id="edge22" class="edge">
<title>Node228&#45;&gt;Node233</title>
<path fill="none" stroke="#191970" d="M717.7916,-139.1532C722.9171,-137.2353 728.1027,-135.2487 733,-133.2984 756.0362,-124.1249 782.0677,-112.757 799.8041,-104.8568"/>
<polygon fill="#191970" stroke="#191970" points="716.2705,-135.9838 708.1005,-142.7292 718.6938,-142.5509 716.2705,-135.9838"/>
</g>
<!-- Node235 -->
<g id="node22" class="node">
<title>Node235</title>
<g id="a_node22"><a xlink:href="xcsf_8h.html#a348b8cd321211c377fb1deedc62c7c67" target="_top" xlink:title="Calculates the XCSF error for the input data. ">
<polygon fill="none" stroke="#000000" points="788.5,-38.7984 788.5,-57.7984 853.5,-57.7984 853.5,-38.7984 788.5,-38.7984"/>
<text text-anchor="middle" x="821" y="-45.7984" font-family="Helvetica,sans-Serif" font-size="10.00" fill="#000000">xcsf_score</text>
</a>
</g>
</g>
<!-- Node228&#45;&gt;Node235 -->
<g id="edge25" class="edge">
<title>Node228&#45;&gt;Node235</title>
<path fill="none" stroke="#191970" d="M718.5503,-142.0029C723.7064,-139.6388 728.6988,-136.7688 733,-133.2984 756.3191,-114.4837 747.091,-96.7379 769,-76.2984 777.172,-68.6745 787.8122,-62.4667 797.3371,-57.8513"/>
<polygon fill="#191970" stroke="#191970" points="717.1964,-138.7748 709.2065,-145.7327 719.7915,-145.276 717.1964,-138.7748"/>
</g>
<!-- Node229&#45;&gt;Node222 -->
<g id="edge17" class="edge">
<title>Node229&#45;&gt;Node222</title>
<path fill="none" stroke="#191970" d="M857.7223,-162.6756C897.1672,-173.8927 961.6479,-192.4329 1017,-209.2984 1041.9026,-216.8861 1070.4869,-226.0743 1088.871,-232.0461"/>
<polygon fill="#191970" stroke="#191970" points="858.5888,-159.2833 848.013,-159.9187 856.6767,-166.0172 858.5888,-159.2833"/>
</g>
<!-- Node230 -->
<g id="node17" class="node">
<title>Node230</title>
<g id="a_node17"><a xlink:href="structXCS.html#a7d53320740db8e846251bacd0238a9fb" target="_top" xlink:title="XCS::fit">
<polygon fill="none" stroke="#000000" points="937,-104.7984 937,-123.7984 989,-123.7984 989,-104.7984 937,-104.7984"/>
<text text-anchor="middle" x="963" y="-111.7984" font-family="Helvetica,sans-Serif" font-size="10.00" fill="#000000">XCS::fit</text>
</a>
</g>
</g>
<!-- Node229&#45;&gt;Node230 -->
<g id="edge18" class="edge">
<title>Node229&#45;&gt;Node230</title>
<path fill="none" stroke="#191970" d="M857.7821,-142.4553C882.4487,-135.8544 914.3571,-127.3155 936.538,-121.3798"/>
<polygon fill="#191970" stroke="#191970" points="856.7986,-139.0953 848.0434,-145.0615 858.6083,-145.8573 856.7986,-139.0953"/>
</g>
<!-- Node231 -->
<g id="node18" class="node">
<title>Node231</title>
<g id="a_node18"><a xlink:href="xcsf_8h.html#afd4a983899f1980887b8375e40b32a72" target="_top" xlink:title="Executes MAX_TRIALS number of XCSF learning iterations using the training data. ">
<polygon fill="none" stroke="#000000" points="936,-142.7984 936,-161.7984 990,-161.7984 990,-142.7984 936,-142.7984"/>
<text text-anchor="middle" x="963" y="-149.7984" font-family="Helvetica,sans-Serif" font-size="10.00" fill="#000000">xcsf_fit1</text>
</a>
</g>
</g>
<!-- Node229&#45;&gt;Node231 -->
<g id="edge19" class="edge">
<title>Node229&#45;&gt;Node231</title>
<path fill="none" stroke="#191970" d="M858.3035,-152.2984C882.5403,-152.2984 913.5975,-152.2984 935.5737,-152.2984"/>
<polygon fill="#191970" stroke="#191970" points="858.0434,-148.7985 848.0434,-152.2984 858.0433,-155.7985 858.0434,-148.7985"/>
</g>
<!-- Node232 -->
<g id="node19" class="node">
<title>Node232</title>
<g id="a_node19"><a xlink:href="structXCS.html#ad2ccafe59d2b4ae6d0e1cbc15edee53c" target="_top" xlink:title="XCS::fit">
<polygon fill="none" stroke="#000000" points="1082,-142.7984 1082,-161.7984 1134,-161.7984 1134,-142.7984 1082,-142.7984"/>
<text text-anchor="middle" x="1108" y="-149.7984" font-family="Helvetica,sans-Serif" font-size="10.00" fill="#000000">XCS::fit</text>
</a>
</g>
</g>
<!-- Node231&#45;&gt;Node232 -->
<g id="edge20" class="edge">
<title>Node231&#45;&gt;Node232</title>
<path fill="none" stroke="#191970" d="M1000.3422,-152.2984C1025.8746,-152.2984 1059.0827,-152.2984 1081.8256,-152.2984"/>
<polygon fill="#191970" stroke="#191970" points="1000.2734,-148.7985 990.2734,-152.2984 1000.2734,-155.7985 1000.2734,-148.7985"/>
</g>
<!-- Node232&#45;&gt;Node225 -->
<g id="edge21" class="edge">
<title>Node232&#45;&gt;Node225</title>
<path fill="none" stroke="#191970" d="M1144.4003,-148.0813C1160.5152,-146.2144 1180.0749,-143.9483 1198.9889,-141.757"/>
<polygon fill="#191970" stroke="#191970" points="1143.8802,-144.6181 1134.3494,-149.2458 1144.6858,-151.5716 1143.8802,-144.6181"/>
</g>
<!-- Node234 -->
<g id="node21" class="node">
<title>Node234</title>
<g id="a_node21"><a xlink:href="structXCS.html#a911ed75c86abed7807d33eb1385240ed" target="_top" xlink:title="XCS::predict">
<polygon fill="none" stroke="#000000" points="1071.5,-85.7984 1071.5,-104.7984 1144.5,-104.7984 1144.5,-85.7984 1071.5,-85.7984"/>
<text text-anchor="middle" x="1108" y="-92.7984" font-family="Helvetica,sans-Serif" font-size="10.00" fill="#000000">XCS::predict</text>
</a>
</g>
</g>
<!-- Node233&#45;&gt;Node234 -->
<g id="edge23" class="edge">
<title>Node233&#45;&gt;Node234</title>
<path fill="none" stroke="#191970" d="M866.2913,-95.2984C922.928,-95.2984 1018.795,-95.2984 1071.1588,-95.2984"/>
<polygon fill="#191970" stroke="#191970" points="866.1919,-91.7985 856.1918,-95.2984 866.1918,-98.7985 866.1919,-91.7985"/>
</g>
<!-- Node234&#45;&gt;Node225 -->
<g id="edge24" class="edge">
<title>Node234&#45;&gt;Node225</title>
<path fill="none" stroke="#191970" d="M1154.7709,-106.1356C1178.8116,-111.706 1207.8406,-118.4322 1230.9968,-123.7977"/>
<polygon fill="#191970" stroke="#191970" points="1155.3368,-102.6741 1144.8048,-103.8264 1153.7566,-109.4934 1155.3368,-102.6741"/>
</g>
<!-- Node236 -->
<g id="node23" class="node">
<title>Node236</title>
<g id="a_node23"><a xlink:href="structXCS.html#aa77bc77484d6d14bf512304a23cfec88" target="_top" xlink:title="XCS::score">
<polygon fill="none" stroke="#000000" points="1074,-47.7984 1074,-66.7984 1142,-66.7984 1142,-47.7984 1074,-47.7984"/>
<text text-anchor="middle" x="1108" y="-54.7984" font-family="Helvetica,sans-Serif" font-size="10.00" fill="#000000">XCS::score</text>
</a>
</g>
</g>
<!-- Node235&#45;&gt;Node236 -->
<g id="edge26" class="edge">
<title>Node235&#45;&gt;Node236</title>
<path fill="none" stroke="#191970" d="M863.7934,-49.6404C920.9456,-51.4326 1021.0748,-54.5726 1073.6061,-56.2199"/>
<polygon fill="#191970" stroke="#191970" points="863.7479,-46.1373 853.6431,-49.3221 863.5285,-53.1339 863.7479,-46.1373"/>
</g>
<!-- Node236&#45;&gt;Node225 -->
<g id="edge27" class="edge">
<title>Node236&#45;&gt;Node225</title>
<path fill="none" stroke="#191970" d="M1147.9849,-70.3238C1153.0832,-72.2143 1158.1952,-74.226 1163,-76.2984 1196.7267,-90.8459 1234.3375,-111.5759 1255.3884,-123.6137"/>
<polygon fill="#191970" stroke="#191970" points="1148.8766,-66.9256 1138.282,-66.8531 1146.519,-73.5167 1148.8766,-66.9256"/>
</g>
<!-- Node237&#45;&gt;Node222 -->
<g id="edge30" class="edge">
<title>Node237&#45;&gt;Node222</title>
<path fill="none" stroke="#191970" d="M1002.0644,-291.2781C1007.1312,-289.3781 1012.2182,-287.3628 1017,-285.2984 1043.6099,-273.8108 1073.2261,-257.8977 1091.2324,-247.8518"/>
<polygon fill="#191970" stroke="#191970" points="1000.6384,-288.0721 992.431,-294.772 1003.0252,-294.6526 1000.6384,-288.0721"/>
</g>
<!-- Node237&#45;&gt;Node232 -->
<g id="edge29" class="edge">
<title>Node237&#45;&gt;Node232</title>
<path fill="none" stroke="#191970" d="M1010.6117,-289.9413C1012.8655,-288.5323 1015.0129,-286.9888 1017,-285.2984 1042.4504,-263.6484 1034.3173,-247.0004 1053,-219.2984 1067.6414,-197.5887 1087.7883,-174.4383 1099.1927,-161.835"/>
<polygon fill="#191970" stroke="#191970" points="1008.7232,-286.98 1001.5043,-294.7349 1011.9836,-293.1743 1008.7232,-286.98"/>
</g>
<!-- Node238 -->
<g id="node25" class="node">
<title>Node238</title>
<g id="a_node25"><a xlink:href="structXCS.html#ab58a4fb495b05f3450b182bc21dcba1f" target="_top" xlink:title="XCS::single_reset">
<polygon fill="none" stroke="#000000" points="1060,-285.7984 1060,-304.7984 1156,-304.7984 1156,-285.7984 1060,-285.7984"/>
<text text-anchor="middle" x="1108" y="-292.7984" font-family="Helvetica,sans-Serif" font-size="10.00" fill="#000000">XCS::single_reset</text>
</a>
</g>
</g>
<!-- Node237&#45;&gt;Node238 -->
<g id="edge31" class="edge">
<title>Node237&#45;&gt;Node238</title>
<path fill="none" stroke="#191970" d="M1012.2381,-301.2423C1027.6517,-300.2856 1044.6344,-299.2315 1059.9641,-298.28"/>
<polygon fill="#191970" stroke="#191970" points="1011.6213,-297.7737 1001.8573,-301.8866 1012.055,-304.7603 1011.6213,-297.7737"/>
</g>
<!-- Node238&#45;&gt;Node225 -->
<g id="edge32" class="edge">
<title>Node238&#45;&gt;Node225</title>
<path fill="none" stroke="#191970" d="M1132.7267,-280.0882C1142.553,-273.5743 1153.7062,-265.5679 1163,-257.2984 1205.8264,-219.1921 1248.2649,-164.9433 1264.7824,-143.0329"/>
<polygon fill="#191970" stroke="#191970" points="1130.6692,-277.2505 1124.167,-285.6155 1134.4665,-283.131 1130.6692,-277.2505"/>
</g>
<!-- Node239&#45;&gt;Node220 -->
<g id="edge34" class="edge">
<title>Node239&#45;&gt;Node220</title>
<path fill="none" stroke="#191970" d="M582.6262,-190.2984C599.2914,-190.2984 621.6835,-190.2984 640.8941,-190.2984"/>
<polygon fill="#191970" stroke="#191970" points="582.5928,-186.7985 572.5927,-190.2984 582.5927,-193.7985 582.5928,-186.7985"/>
</g>
<!-- Node239&#45;&gt;Node228 -->
<g id="edge39" class="edge">
<title>Node239&#45;&gt;Node228</title>
<path fill="none" stroke="#191970" d="M582.3389,-182.7791C602.6496,-176.5043 631.6115,-167.5567 652.9042,-160.9784"/>
<polygon fill="#191970" stroke="#191970" points="581.114,-179.4942 572.5927,-185.7901 583.1803,-186.1823 581.114,-179.4942"/>
</g>
<!-- Node240 -->
<g id="node27" class="node">
<title>Node240</title>
<g id="a_node27"><a xlink:href="xcs__single__step_8h.html#afd31e5406eeef1fb9b244f635a0f0408" target="_top" xlink:title="Creates the action set, updates the classifiers and runs the EA. ">
<polygon fill="none" stroke="#000000" points="632,-218.7984 632,-237.7984 730,-237.7984 730,-218.7984 632,-218.7984"/>
<text text-anchor="middle" x="681" y="-225.7984" font-family="Helvetica,sans-Serif" font-size="10.00" fill="#000000">xcs_single_update</text>
</a>
</g>
</g>
<!-- Node239&#45;&gt;Node240 -->
<g id="edge35" class="edge">
<title>Node239&#45;&gt;Node240</title>
<path fill="none" stroke="#191970" d="M582.1966,-197.7738C601.5927,-203.7661 628.9449,-212.2164 649.9545,-218.7071"/>
<polygon fill="#191970" stroke="#191970" points="583.1803,-194.4146 572.5927,-194.8068 581.114,-201.1027 583.1803,-194.4146"/>
</g>
<!-- Node240&#45;&gt;Node226 -->
<g id="edge38" class="edge">
<title>Node240&#45;&gt;Node226</title>
<path fill="none" stroke="#191970" d="M740.4928,-228.2984C753.2995,-228.2984 766.5863,-228.2984 778.5857,-228.2984"/>
<polygon fill="#191970" stroke="#191970" points="740.3588,-224.7985 730.3588,-228.2984 740.3587,-231.7985 740.3588,-224.7985"/>
</g>
<!-- Node241 -->
<g id="node28" class="node">
<title>Node241</title>
<g id="a_node28"><a xlink:href="structXCS.html#aedc01ad6f00a54b260a7605929a1d4c9" target="_top" xlink:title="XCS::single_update">
<polygon fill="none" stroke="#000000" points="769,-332.7984 769,-351.7984 873,-351.7984 873,-332.7984 769,-332.7984"/>
<text text-anchor="middle" x="821" y="-339.7984" font-family="Helvetica,sans-Serif" font-size="10.00" fill="#000000">XCS::single_update</text>
</a>
</g>
</g>
<!-- Node240&#45;&gt;Node241 -->
<g id="edge36" class="edge">
<title>Node240&#45;&gt;Node241</title>
<path fill="none" stroke="#191970" d="M700.904,-244.506C730.4604,-268.5733 785.0459,-313.0215 809.0939,-332.6035"/>
<polygon fill="#191970" stroke="#191970" points="702.9007,-241.6183 692.9363,-238.018 698.4807,-247.0463 702.9007,-241.6183"/>
</g>
<!-- Node241&#45;&gt;Node225 -->
<g id="edge37" class="edge">
<title>Node241&#45;&gt;Node225</title>
<path fill="none" stroke="#191970" d="M882.9432,-353.175C955.7328,-362.5701 1077.4195,-367.3851 1163,-314.2984 1229.707,-272.9193 1261.0565,-174.2396 1269.5475,-142.9742"/>
<polygon fill="#191970" stroke="#191970" points="883.3859,-349.7031 873.0056,-351.8245 882.4431,-356.6393 883.3859,-349.7031"/>
</g>
</g>
</svg>
