<?xml version="1.0" encoding="UTF-8" standalone="no"?>
<!DOCTYPE svg PUBLIC "-//W3C//DTD SVG 1.1//EN"
 "http://www.w3.org/Graphics/SVG/1.1/DTD/svg11.dtd">
<!-- Generated by graphviz version 2.40.1 (20161225.0304)
 -->
<!-- Title: sam.c Pages: 1 -->
<svg width="514pt" height="84pt"
 viewBox="0.00 0.00 514.00 84.00" xmlns="http://www.w3.org/2000/svg" xmlns:xlink="http://www.w3.org/1999/xlink">
<g id="graph0" class="graph" transform="scale(1 1) rotate(0) translate(4 80)">
<title>sam.c</title>
<!-- Node0 -->
<g id="node1" class="node">
<title>Node0</title>
<polygon fill="#bfbfbf" stroke="#000000" points="239,-56.5 239,-75.5 283,-75.5 283,-56.5 239,-56.5"/>
<text text-anchor="middle" x="261" y="-63.5" font-family="Helvetica,sans-Serif" font-size="10.00" fill="#000000">sam.c</text>
</g>
<!-- Node1 -->
<g id="node2" class="node">
<title>Node1</title>
<polygon fill="none" stroke="#bfbfbf" points="0,-.5 0,-19.5 46,-19.5 46,-.5 0,-.5"/>
<text text-anchor="middle" x="23" y="-7.5" font-family="Helvetica,sans-Serif" font-size="10.00" fill="#000000">stdio.h</text>
</g>
<!-- Node0&#45;&gt;Node1 -->
<g id="edge1" class="edge">
<title>Node0&#45;&gt;Node1</title>
<path fill="none" stroke="#191970" d="M238.9028,-61.6945C202.6563,-54.4981 128.1446,-39.1445 55.7412,-20.0364"/>
<polygon fill="#191970" stroke="#191970" points="56.5695,-16.635 46.0053,-17.4403 54.7659,-23.3987 56.5695,-16.635"/>
</g>
<!-- Node2 -->
<g id="node3" class="node">
<title>Node2</title>
<polygon fill="none" stroke="#bfbfbf" points="64,-.5 64,-19.5 112,-19.5 112,-.5 64,-.5"/>
<text text-anchor="middle" x="88" y="-7.5" font-family="Helvetica,sans-Serif" font-size="10.00" fill="#000000">stdlib.h</text>
</g>
<!-- Node0&#45;&gt;Node2 -->
<g id="edge2" class="edge">
<title>Node0&#45;&gt;Node2</title>
<path fill="none" stroke="#191970" d="M238.7374,-58.7936C209.0851,-49.1952 156.3602,-32.1282 121.7897,-20.9377"/>
<polygon fill="#191970" stroke="#191970" points="122.7143,-17.5583 112.1224,-17.8084 120.5585,-24.218 122.7143,-17.5583"/>
</g>
<!-- Node3 -->
<g id="node4" class="node">
<title>Node3</title>
<polygon fill="none" stroke="#bfbfbf" points="130.5,-.5 130.5,-19.5 179.5,-19.5 179.5,-.5 130.5,-.5"/>
<text text-anchor="middle" x="155" y="-7.5" font-family="Helvetica,sans-Serif" font-size="10.00" fill="#000000">string.h</text>
</g>
<!-- Node0&#45;&gt;Node3 -->
<g id="edge3" class="edge">
<title>Node0&#45;&gt;Node3</title>
<path fill="none" stroke="#191970" d="M242.5362,-56.2455C225.8926,-47.4527 201.2007,-34.4079 182.2808,-24.4125"/>
<polygon fill="#191970" stroke="#191970" points="183.7291,-21.2193 173.2522,-19.6427 180.4592,-27.4086 183.7291,-21.2193"/>
</g>
<!-- Node4 -->
<g id="node5" class="node">
<title>Node4</title>
<polygon fill="none" stroke="#bfbfbf" points="198,-.5 198,-19.5 254,-19.5 254,-.5 198,-.5"/>
<text text-anchor="middle" x="226" y="-7.5" font-family="Helvetica,sans-Serif" font-size="10.00" fill="#000000">stdbool.h</text>
</g>
<!-- Node0&#45;&gt;Node4 -->
<g id="edge4" class="edge">
<title>Node0&#45;&gt;Node4</title>
<path fill="none" stroke="#191970" d="M254.9035,-56.2455C250.0855,-48.5367 243.2249,-37.5598 237.3968,-28.2348"/>
<polygon fill="#191970" stroke="#191970" points="240.2947,-26.2677 232.0267,-19.6427 234.3587,-29.9777 240.2947,-26.2677"/>
</g>
<!-- Node5 -->
<g id="node6" class="node">
<title>Node5</title>
<polygon fill="none" stroke="#bfbfbf" points="272.5,-.5 272.5,-19.5 319.5,-19.5 319.5,-.5 272.5,-.5"/>
<text text-anchor="middle" x="296" y="-7.5" font-family="Helvetica,sans-Serif" font-size="10.00" fill="#000000">math.h</text>
</g>
<!-- Node0&#45;&gt;Node5 -->
<g id="edge5" class="edge">
<title>Node0&#45;&gt;Node5</title>
<path fill="none" stroke="#191970" d="M267.0965,-56.2455C271.9145,-48.5367 278.7751,-37.5598 284.6032,-28.2348"/>
<polygon fill="#191970" stroke="#191970" points="287.6413,-29.9777 289.9733,-19.6427 281.7053,-26.2677 287.6413,-29.9777"/>
</g>
<!-- Node6 -->
<g id="node7" class="node">
<title>Node6</title>
<g id="a_node7"><a xlink:href="$xcsf_8h.html" xlink:title="XCSF data structures. ">
<polygon fill="none" stroke="#000000" points="338,-.5 338,-19.5 382,-19.5 382,-.5 338,-.5"/>
<text text-anchor="middle" x="360" y="-7.5" font-family="Helvetica,sans-Serif" font-size="10.00" fill="#000000">xcsf.h</text>
</a>
</g>
</g>
<!-- Node0&#45;&gt;Node6 -->
<g id="edge6" class="edge">
<title>Node0&#45;&gt;Node6</title>
<path fill="none" stroke="#191970" d="M278.2445,-56.2455C293.5761,-47.5731 316.2199,-34.7645 333.7916,-24.825"/>
<polygon fill="#191970" stroke="#191970" points="335.9724,-27.6126 342.9531,-19.6427 332.5259,-21.5198 335.9724,-27.6126"/>
</g>
<!-- Node7 -->
<g id="node8" class="node">
<title>Node7</title>
<g id="a_node8"><a xlink:href="$utils_8h.html" xlink:title="Utility functions for random number handling, etc. ">
<polygon fill="none" stroke="#000000" points="400.5,-.5 400.5,-19.5 443.5,-19.5 443.5,-.5 400.5,-.5"/>
<text text-anchor="middle" x="422" y="-7.5" font-family="Helvetica,sans-Serif" font-size="10.00" fill="#000000">utils.h</text>
</a>
</g>
</g>
<!-- Node0&#45;&gt;Node7 -->
<g id="edge7" class="edge">
<title>Node0&#45;&gt;Node7</title>
<path fill="none" stroke="#191970" d="M283.0488,-58.3309C310.9469,-48.6272 359.166,-31.8553 390.8241,-20.8438"/>
<polygon fill="#191970" stroke="#191970" points="392.179,-24.0783 400.4741,-17.4873 389.8793,-17.4668 392.179,-24.0783"/>
</g>
<!-- Node8 -->
<g id="node9" class="node">
<title>Node8</title>
<g id="a_node9"><a xlink:href="$sam_8h.html" xlink:title="Self&#45;adaptive mutation functions. ">
<polygon fill="none" stroke="#000000" points="462,-.5 462,-19.5 506,-19.5 506,-.5 462,-.5"/>
<text text-anchor="middle" x="484" y="-7.5" font-family="Helvetica,sans-Serif" font-size="10.00" fill="#000000">sam.h</text>
</a>
</g>
</g>
<!-- Node0&#45;&gt;Node8 -->
<g id="edge8" class="edge">
<title>Node0&#45;&gt;Node8</title>
<path fill="none" stroke="#191970" d="M283.0252,-61.3015C317.1859,-53.8909 385.1773,-38.6515 451.8828,-20.1665"/>
<polygon fill="#191970" stroke="#191970" points="453.0243,-23.4816 461.7111,-17.4162 451.1379,-16.7406 453.0243,-23.4816"/>
</g>
</g>
</svg>
