<?xml version="1.0" encoding="UTF-8" standalone="no"?>
<!DOCTYPE svg PUBLIC "-//W3C//DTD SVG 1.1//EN"
 "http://www.w3.org/Graphics/SVG/1.1/DTD/svg11.dtd">
<!-- Generated by graphviz version 2.40.1 (20161225.0304)
 -->
<!-- Title: sam_rate_selection_adapt Pages: 1 -->
<svg width="516pt" height="230pt"
 viewBox="0.00 0.00 516.00 229.50" xmlns="http://www.w3.org/2000/svg" xmlns:xlink="http://www.w3.org/1999/xlink">
<g id="graph0" class="graph" transform="scale(1 1) rotate(0) translate(4 225.5)">
<title>sam_rate_selection_adapt</title>
<!-- Node98 -->
<g id="node1" class="node">
<title>Node98</title>
<polygon fill="#bfbfbf" stroke="#000000" points="0,-101.5 0,-131.5 101,-131.5 101,-101.5 0,-101.5"/>
<text text-anchor="start" x="8" y="-119.5" font-family="Helvetica,sans-Serif" font-size="10.00" fill="#000000">sam_rate_selection</text>
<text text-anchor="middle" x="50.5" y="-108.5" font-family="Helvetica,sans-Serif" font-size="10.00" fill="#000000">_adapt</text>
</g>
<!-- Node99 -->
<g id="node2" class="node">
<title>Node99</title>
<g id="a_node2"><a xlink:href="sam_8h.html#ab7b9b862cf798bc25fc0654a4ff1e54e" target="_top" xlink:title="Self&#45;adapts mutation rates. ">
<polygon fill="none" stroke="#000000" points="137,-107 137,-126 202,-126 202,-107 137,-107"/>
<text text-anchor="middle" x="169.5" y="-114" font-family="Helvetica,sans-Serif" font-size="10.00" fill="#000000">sam_adapt</text>
</a>
</g>
</g>
<!-- Node98&#45;&gt;Node99 -->
<g id="edge1" class="edge">
<title>Node98&#45;&gt;Node99</title>
<path fill="none" stroke="#191970" d="M111.5087,-116.5C120.2162,-116.5 128.8805,-116.5 136.7552,-116.5"/>
<polygon fill="#191970" stroke="#191970" points="111.3119,-113.0001 101.3119,-116.5 111.3119,-120.0001 111.3119,-113.0001"/>
</g>
<!-- Node100 -->
<g id="node3" class="node">
<title>Node100</title>
<g id="a_node3"><a xlink:href="cond__ellipsoid_8h.html#a6f3653cfc733f9a3fc151dd5f3c2e072" target="_top" xlink:title="cond_ellipsoid_mutate">
<polygon fill="none" stroke="#000000" points="241,-202 241,-221 354,-221 354,-202 241,-202"/>
<text text-anchor="middle" x="297.5" y="-209" font-family="Helvetica,sans-Serif" font-size="10.00" fill="#000000">cond_ellipsoid_mutate</text>
</a>
</g>
</g>
<!-- Node99&#45;&gt;Node100 -->
<g id="edge2" class="edge">
<title>Node99&#45;&gt;Node100</title>
<path fill="none" stroke="#191970" d="M181.6139,-134.7655C193.9104,-151.9676 214.4525,-177.3012 238,-192.5 243.922,-196.3224 250.6726,-199.4286 257.4492,-201.9359"/>
<polygon fill="#191970" stroke="#191970" points="184.2305,-132.3957 175.6641,-126.1614 178.473,-136.3771 184.2305,-132.3957"/>
</g>
<!-- Node101 -->
<g id="node4" class="node">
<title>Node101</title>
<g id="a_node4"><a xlink:href="cond__rectangle_8h.html#a6b86e46dae23504984370c2961d31bf0" target="_top" xlink:title="cond_rectangle_mutate">
<polygon fill="none" stroke="#000000" points="238.5,-164 238.5,-183 356.5,-183 356.5,-164 238.5,-164"/>
<text text-anchor="middle" x="297.5" y="-171" font-family="Helvetica,sans-Serif" font-size="10.00" fill="#000000">cond_rectangle_mutate</text>
</a>
</g>
</g>
<!-- Node99&#45;&gt;Node101 -->
<g id="edge3" class="edge">
<title>Node99&#45;&gt;Node101</title>
<path fill="none" stroke="#191970" d="M193.5383,-131.3685C206.4144,-138.9356 222.7299,-147.9033 238,-154.5 246.1628,-158.0263 255.2009,-161.243 263.7163,-163.9866"/>
<polygon fill="#191970" stroke="#191970" points="195.2127,-128.2917 184.8345,-126.16 191.6181,-134.2983 195.2127,-128.2917"/>
</g>
<!-- Node102 -->
<g id="node5" class="node">
<title>Node102</title>
<g id="a_node5"><a xlink:href="cond__ternary_8h.html#a2589fbba59f649de6614f1e23543d5d0" target="_top" xlink:title="cond_ternary_mutate">
<polygon fill="none" stroke="#000000" points="243.5,-126 243.5,-145 351.5,-145 351.5,-126 243.5,-126"/>
<text text-anchor="middle" x="297.5" y="-133" font-family="Helvetica,sans-Serif" font-size="10.00" fill="#000000">cond_ternary_mutate</text>
</a>
</g>
</g>
<!-- Node99&#45;&gt;Node102 -->
<g id="edge4" class="edge">
<title>Node99&#45;&gt;Node102</title>
<path fill="none" stroke="#191970" d="M212.1278,-122.8276C222.0335,-124.2979 232.7109,-125.8829 243.0483,-127.4173"/>
<polygon fill="#191970" stroke="#191970" points="212.5365,-119.35 202.131,-121.3437 211.5087,-126.2741 212.5365,-119.35"/>
</g>
<!-- Node103 -->
<g id="node6" class="node">
<title>Node103</title>
<g id="a_node6"><a xlink:href="dgp_8h.html#ab69f05c12959b88862bd24420a00fa0d" target="_top" xlink:title="Mutates a specified DGP graph. ">
<polygon fill="none" stroke="#000000" points="259.5,-88 259.5,-107 335.5,-107 335.5,-88 259.5,-88"/>
<text text-anchor="middle" x="297.5" y="-95" font-family="Helvetica,sans-Serif" font-size="10.00" fill="#000000">graph_mutate</text>
</a>
</g>
</g>
<!-- Node99&#45;&gt;Node103 -->
<g id="edge5" class="edge">
<title>Node99&#45;&gt;Node103</title>
<path fill="none" stroke="#191970" d="M212.3514,-110.1392C227.6026,-107.8754 244.6589,-105.3436 259.4775,-103.144"/>
<polygon fill="#191970" stroke="#191970" points="211.5087,-106.7259 202.131,-111.6563 212.5365,-113.65 211.5087,-106.7259"/>
</g>
<!-- Node106 -->
<g id="node9" class="node">
<title>Node106</title>
<g id="a_node9"><a xlink:href="gp_8h.html#acfa176ddc5ae609393a558e46b3fc52b" target="_top" xlink:title="Performs point mutation on a GP tree. ">
<polygon fill="none" stroke="#000000" points="263.5,-50 263.5,-69 331.5,-69 331.5,-50 263.5,-50"/>
<text text-anchor="middle" x="297.5" y="-57" font-family="Helvetica,sans-Serif" font-size="10.00" fill="#000000">tree_mutate</text>
</a>
</g>
</g>
<!-- Node99&#45;&gt;Node106 -->
<g id="edge8" class="edge">
<title>Node99&#45;&gt;Node106</title>
<path fill="none" stroke="#191970" d="M193.5383,-101.6315C206.4144,-94.0644 222.7299,-85.0967 238,-78.5 246.1628,-74.9737 255.2009,-71.757 263.7163,-69.0134"/>
<polygon fill="#191970" stroke="#191970" points="191.6181,-98.7017 184.8345,-106.84 195.2127,-104.7083 191.6181,-98.7017"/>
</g>
<!-- Node108 -->
<g id="node11" class="node">
<title>Node108</title>
<g id="a_node11"><a xlink:href="neural__layer__connected_8h.html#a433ccceeb6c15628abb37054d7b12a1e" target="_top" xlink:title="neural_layer_connected\l_mutate">
<polygon fill="none" stroke="#000000" points="238,-.5 238,-30.5 357,-30.5 357,-.5 238,-.5"/>
<text text-anchor="start" x="246" y="-18.5" font-family="Helvetica,sans-Serif" font-size="10.00" fill="#000000">neural_layer_connected</text>
<text text-anchor="middle" x="297.5" y="-7.5" font-family="Helvetica,sans-Serif" font-size="10.00" fill="#000000">_mutate</text>
</a>
</g>
</g>
<!-- Node99&#45;&gt;Node108 -->
<g id="edge10" class="edge">
<title>Node99&#45;&gt;Node108</title>
<path fill="none" stroke="#191970" d="M182.1232,-98.4175C194.6666,-81.5537 215.2715,-56.6409 238,-40.5 243.2072,-36.8021 249.0453,-33.5115 254.9752,-30.6302"/>
<polygon fill="#191970" stroke="#191970" points="179.0475,-96.6977 176.0218,-106.8513 184.719,-100.8008 179.0475,-96.6977"/>
</g>
<!-- Node104 -->
<g id="node7" class="node">
<title>Node104</title>
<g id="a_node7"><a xlink:href="cond__dgp_8h.html#abd373ea063e99377a8bcd234c5018abe" target="_top" xlink:title="cond_dgp_mutate">
<polygon fill="none" stroke="#000000" points="403.5,-126 403.5,-145 497.5,-145 497.5,-126 403.5,-126"/>
<text text-anchor="middle" x="450.5" y="-133" font-family="Helvetica,sans-Serif" font-size="10.00" fill="#000000">cond_dgp_mutate</text>
</a>
</g>
</g>
<!-- Node103&#45;&gt;Node104 -->
<g id="edge6" class="edge">
<title>Node103&#45;&gt;Node104</title>
<path fill="none" stroke="#191970" d="M345.625,-109.4526C367.1058,-114.7877 392.0642,-120.9865 412.2432,-125.9983"/>
<polygon fill="#191970" stroke="#191970" points="346.2625,-106.0047 335.7137,-106.991 344.5752,-112.7983 346.2625,-106.0047"/>
</g>
<!-- Node105 -->
<g id="node8" class="node">
<title>Node105</title>
<g id="a_node8"><a xlink:href="rule__dgp_8h.html#acf593e54dcbb44e3e9531be28b8e9e28" target="_top" xlink:title="rule_dgp_cond_mutate">
<polygon fill="none" stroke="#000000" points="393,-88 393,-107 508,-107 508,-88 393,-88"/>
<text text-anchor="middle" x="450.5" y="-95" font-family="Helvetica,sans-Serif" font-size="10.00" fill="#000000">rule_dgp_cond_mutate</text>
</a>
</g>
</g>
<!-- Node103&#45;&gt;Node105 -->
<g id="edge7" class="edge">
<title>Node103&#45;&gt;Node105</title>
<path fill="none" stroke="#191970" d="M345.7576,-97.5C360.7007,-97.5 377.3163,-97.5 392.8302,-97.5"/>
<polygon fill="#191970" stroke="#191970" points="345.7137,-94.0001 335.7137,-97.5 345.7137,-101.0001 345.7137,-94.0001"/>
</g>
<!-- Node107 -->
<g id="node10" class="node">
<title>Node107</title>
<g id="a_node10"><a xlink:href="cond__gp_8h.html#a77ae493ef13fd14de230a57f260d8468" target="_top" xlink:title="cond_gp_mutate">
<polygon fill="none" stroke="#000000" points="406,-50 406,-69 495,-69 495,-50 406,-50"/>
<text text-anchor="middle" x="450.5" y="-57" font-family="Helvetica,sans-Serif" font-size="10.00" fill="#000000">cond_gp_mutate</text>
</a>
</g>
</g>
<!-- Node106&#45;&gt;Node107 -->
<g id="edge9" class="edge">
<title>Node106&#45;&gt;Node107</title>
<path fill="none" stroke="#191970" d="M341.9695,-59.5C362.0457,-59.5 385.7137,-59.5 405.8155,-59.5"/>
<polygon fill="#191970" stroke="#191970" points="341.8362,-56.0001 331.8362,-59.5 341.8362,-63.0001 341.8362,-56.0001"/>
</g>
</g>
</svg>
