<?xml version="1.0" encoding="UTF-8" standalone="no"?>
<!DOCTYPE svg PUBLIC "-//W3C//DTD SVG 1.1//EN"
 "http://www.w3.org/Graphics/SVG/1.1/DTD/svg11.dtd">
<!-- Generated by graphviz version 2.40.1 (20161225.0304)
 -->
<!-- Title: sam_reset Pages: 1 -->
<svg width="1054pt" height="370pt"
 viewBox="0.00 0.00 1054.00 370.00" xmlns="http://www.w3.org/2000/svg" xmlns:xlink="http://www.w3.org/1999/xlink">
<g id="graph0" class="graph" transform="scale(1 1) rotate(0) translate(4 366)">
<title>sam_reset</title>
<!-- Node123 -->
<g id="node1" class="node">
<title>Node123</title>
<polygon fill="#bfbfbf" stroke="#000000" points="0,-190.5 0,-209.5 62,-209.5 62,-190.5 0,-190.5"/>
<text text-anchor="middle" x="31" y="-197.5" font-family="Helvetica,sans-Serif" font-size="10.00" fill="#000000">sam_reset</text>
</g>
<!-- Node124 -->
<g id="node2" class="node">
<title>Node124</title>
<g id="a_node2"><a xlink:href="sam_8h.html#ac19f397e3c1bd2a2a4f4a1174509ac67" target="_top" xlink:title="Initialises a classifier&#39;s self&#45;adaptive mutation rates. ">
<polygon fill="none" stroke="#000000" points="98,-190.5 98,-209.5 151,-209.5 151,-190.5 98,-190.5"/>
<text text-anchor="middle" x="124.5" y="-197.5" font-family="Helvetica,sans-Serif" font-size="10.00" fill="#000000">sam_init</text>
</a>
</g>
</g>
<!-- Node123&#45;&gt;Node124 -->
<g id="edge1" class="edge">
<title>Node123&#45;&gt;Node124</title>
<path fill="none" stroke="#191970" d="M72.1742,-200C80.8927,-200 89.8736,-200 97.8806,-200"/>
<polygon fill="#191970" stroke="#191970" points="72.1342,-196.5001 62.1341,-200 72.1341,-203.5001 72.1342,-196.5001"/>
</g>
<!-- Node125 -->
<g id="node3" class="node">
<title>Node125</title>
<g id="a_node3"><a xlink:href="cl_8h.html#ab45c6f772a335d0a4fdb753a61958744" target="_top" xlink:title="Initialises a new classifier. ">
<polygon fill="none" stroke="#000000" points="187,-190.5 187,-209.5 229,-209.5 229,-190.5 187,-190.5"/>
<text text-anchor="middle" x="208" y="-197.5" font-family="Helvetica,sans-Serif" font-size="10.00" fill="#000000">cl_init</text>
</a>
</g>
</g>
<!-- Node124&#45;&gt;Node125 -->
<g id="edge2" class="edge">
<title>Node124&#45;&gt;Node125</title>
<path fill="none" stroke="#191970" d="M161.4338,-200C170.1907,-200 179.2341,-200 186.9951,-200"/>
<polygon fill="#191970" stroke="#191970" points="161.3796,-196.5001 151.3795,-200 161.3795,-203.5001 161.3796,-196.5001"/>
</g>
<!-- Node126 -->
<g id="node4" class="node">
<title>Node126</title>
<g id="a_node4"><a xlink:href="clset_8c.html#a60fd3363a0a370e8b5a18671861be461" target="_top" xlink:title="Ensures all possible actions are covered by the match set. ">
<polygon fill="none" stroke="#000000" points="265,-228.5 265,-247.5 332,-247.5 332,-228.5 265,-228.5"/>
<text text-anchor="middle" x="298.5" y="-235.5" font-family="Helvetica,sans-Serif" font-size="10.00" fill="#000000">clset_cover</text>
</a>
</g>
</g>
<!-- Node125&#45;&gt;Node126 -->
<g id="edge3" class="edge">
<title>Node125&#45;&gt;Node126</title>
<path fill="none" stroke="#191970" d="M238.7291,-212.9028C250.8106,-217.9757 264.4369,-223.6972 275.6247,-228.3949"/>
<polygon fill="#191970" stroke="#191970" points="240.0225,-209.6499 229.4472,-209.0055 237.3124,-216.1041 240.0225,-209.6499"/>
</g>
<!-- Node144 -->
<g id="node22" class="node">
<title>Node144</title>
<g id="a_node22"><a xlink:href="clset_8h.html#a010148dc53ed67a07156c06cd3bedc17" target="_top" xlink:title="Initialises a new population of random classifiers. ">
<polygon fill="none" stroke="#000000" points="627.5,-114.5 627.5,-133.5 704.5,-133.5 704.5,-114.5 627.5,-114.5"/>
<text text-anchor="middle" x="666" y="-121.5" font-family="Helvetica,sans-Serif" font-size="10.00" fill="#000000">clset_pop_init</text>
</a>
</g>
</g>
<!-- Node125&#45;&gt;Node144 -->
<g id="edge26" class="edge">
<title>Node125&#45;&gt;Node144</title>
<path fill="none" stroke="#191970" d="M238.9783,-192.1744C288.3761,-179.9652 388.1771,-156.3983 474,-143 526.787,-134.7591 588.3284,-129.4116 627.2242,-126.551"/>
<polygon fill="#191970" stroke="#191970" points="238.0854,-188.7898 229.2255,-194.5996 239.7746,-195.5829 238.0854,-188.7898"/>
</g>
<!-- Node146 -->
<g id="node24" class="node">
<title>Node146</title>
<g id="a_node24"><a xlink:href="ea_8h.html#ae90a9b4131bb94462265b9c928499eb8" target="_top" xlink:title="Executes the evolutionary algorithm (EA). ">
<polygon fill="none" stroke="#000000" points="388.5,-190.5 388.5,-209.5 417.5,-209.5 417.5,-190.5 388.5,-190.5"/>
<text text-anchor="middle" x="403" y="-197.5" font-family="Helvetica,sans-Serif" font-size="10.00" fill="#000000">ea</text>
</a>
</g>
</g>
<!-- Node125&#45;&gt;Node146 -->
<g id="edge31" class="edge">
<title>Node125&#45;&gt;Node146</title>
<path fill="none" stroke="#191970" d="M239.369,-200C282.1092,-200 356.9174,-200 388.3907,-200"/>
<polygon fill="#191970" stroke="#191970" points="239.2397,-196.5001 229.2396,-200 239.2396,-203.5001 239.2397,-196.5001"/>
</g>
<!-- Node127 -->
<g id="node5" class="node">
<title>Node127</title>
<g id="a_node5"><a xlink:href="clset_8h.html#a229207544a5b8b601de05d231bb84650" target="_top" xlink:title="Constructs the match set. ">
<polygon fill="none" stroke="#000000" points="368,-228.5 368,-247.5 438,-247.5 438,-228.5 368,-228.5"/>
<text text-anchor="middle" x="403" y="-235.5" font-family="Helvetica,sans-Serif" font-size="10.00" fill="#000000">clset_match</text>
</a>
</g>
</g>
<!-- Node126&#45;&gt;Node127 -->
<g id="edge4" class="edge">
<title>Node126&#45;&gt;Node127</title>
<path fill="none" stroke="#191970" d="M342.3543,-238C350.9061,-238 359.7659,-238 367.985,-238"/>
<polygon fill="#191970" stroke="#191970" points="342.1397,-234.5001 332.1397,-238 342.1396,-241.5001 342.1397,-234.5001"/>
</g>
<!-- Node128 -->
<g id="node6" class="node">
<title>Node128</title>
<g id="a_node6"><a xlink:href="xcs__multi__step_8h.html#af2eaa15cba52d29fa3630218d9780a6a" target="_top" xlink:title="Constructs the match set and selects an action to perform. ">
<polygon fill="none" stroke="#000000" points="476,-304.5 476,-323.5 576,-323.5 576,-304.5 476,-304.5"/>
<text text-anchor="middle" x="526" y="-311.5" font-family="Helvetica,sans-Serif" font-size="10.00" fill="#000000">xcs_multi_decision</text>
</a>
</g>
</g>
<!-- Node127&#45;&gt;Node128 -->
<g id="edge5" class="edge">
<title>Node127&#45;&gt;Node128</title>
<path fill="none" stroke="#191970" d="M422.4307,-253.8735C436.3065,-264.7921 455.6841,-279.2124 474,-290 483.0814,-295.3487 493.5576,-300.3828 502.7165,-304.4457"/>
<polygon fill="#191970" stroke="#191970" points="424.5596,-251.0946 414.5607,-247.5914 420.1927,-256.5654 424.5596,-251.0946"/>
</g>
<!-- Node132 -->
<g id="node10" class="node">
<title>Node132</title>
<g id="a_node10"><a xlink:href="xcs__single__step_8h.html#a5c1d53976f601ae3603aed34f0767c29" target="_top" xlink:title="Constructs the match set and selects an action to perform. ">
<polygon fill="none" stroke="#000000" points="474,-228.5 474,-247.5 578,-247.5 578,-228.5 474,-228.5"/>
<text text-anchor="middle" x="526" y="-235.5" font-family="Helvetica,sans-Serif" font-size="10.00" fill="#000000">xcs_single_decision</text>
</a>
</g>
</g>
<!-- Node127&#45;&gt;Node132 -->
<g id="edge9" class="edge">
<title>Node127&#45;&gt;Node132</title>
<path fill="none" stroke="#191970" d="M448.4304,-238C456.6841,-238 465.3532,-238 473.784,-238"/>
<polygon fill="#191970" stroke="#191970" points="448.2469,-234.5001 438.2469,-238 448.2468,-241.5001 448.2469,-234.5001"/>
</g>
<!-- Node137 -->
<g id="node15" class="node">
<title>Node137</title>
<g id="a_node15"><a xlink:href="xcsf_8c.html#af5fb604e81235fdcb2ed8925d9291f59" target="_top" xlink:title="Executes a single XCSF trial. ">
<polygon fill="none" stroke="#000000" points="498,-152.5 498,-171.5 554,-171.5 554,-152.5 498,-152.5"/>
<text text-anchor="middle" x="526" y="-159.5" font-family="Helvetica,sans-Serif" font-size="10.00" fill="#000000">xcsf_trial</text>
</a>
</g>
</g>
<!-- Node127&#45;&gt;Node137 -->
<g id="edge15" class="edge">
<title>Node127&#45;&gt;Node137</title>
<path fill="none" stroke="#191970" d="M432.2295,-223.0659C434.2293,-221.7623 436.1733,-220.4028 438,-219 456.4515,-204.8304 454.5576,-193.7761 474,-181 481.2292,-176.2495 489.8024,-172.4909 497.8811,-169.6138"/>
<polygon fill="#191970" stroke="#191970" points="430.0974,-220.2619 423.2956,-228.3851 433.6785,-226.2766 430.0974,-220.2619"/>
</g>
<!-- Node129 -->
<g id="node7" class="node">
<title>Node129</title>
<g id="a_node7"><a xlink:href="xcs__multi__step_8c.html#ad50c415970b4bfc42f469fb38c5e68fa" target="_top" xlink:title="Executes a multi&#45;step trial using a built&#45;in environment. ">
<polygon fill="none" stroke="#000000" points="626,-304.5 626,-323.5 706,-323.5 706,-304.5 626,-304.5"/>
<text text-anchor="middle" x="666" y="-311.5" font-family="Helvetica,sans-Serif" font-size="10.00" fill="#000000">xcs_multi_trial</text>
</a>
</g>
</g>
<!-- Node128&#45;&gt;Node129 -->
<g id="edge6" class="edge">
<title>Node128&#45;&gt;Node129</title>
<path fill="none" stroke="#191970" d="M586.2536,-314C599.6359,-314 613.5029,-314 625.8465,-314"/>
<polygon fill="#191970" stroke="#191970" points="586.1478,-310.5001 576.1478,-314 586.1477,-317.5001 586.1478,-310.5001"/>
</g>
<!-- Node130 -->
<g id="node8" class="node">
<title>Node130</title>
<g id="a_node8"><a xlink:href="xcs__multi__step_8h.html#acc29d4a55dbd56c16ea5f19f15a7c677" target="_top" xlink:title="Executes a multi&#45;step reinforcement learning experiment. ">
<polygon fill="none" stroke="#000000" points="757,-342.5 757,-361.5 861,-361.5 861,-342.5 757,-342.5"/>
<text text-anchor="middle" x="809" y="-349.5" font-family="Helvetica,sans-Serif" font-size="10.00" fill="#000000">xcs_multi_step_exp</text>
</a>
</g>
</g>
<!-- Node129&#45;&gt;Node130 -->
<g id="edge7" class="edge">
<title>Node129&#45;&gt;Node130</title>
<path fill="none" stroke="#191970" d="M711.8133,-326.1742C731.5871,-331.4287 754.3838,-337.4866 772.9266,-342.4141"/>
<polygon fill="#191970" stroke="#191970" points="712.6484,-322.7747 702.0849,-323.589 710.8506,-329.5399 712.6484,-322.7747"/>
</g>
<!-- Node131 -->
<g id="node9" class="node">
<title>Node131</title>
<g id="a_node9"><a xlink:href="main_8c.html#a3c04138a5bfe5d72780bb7e82a18e627" target="_top" xlink:title="main">
<polygon fill="none" stroke="#000000" points="954,-285.5 954,-304.5 992,-304.5 992,-285.5 954,-285.5"/>
<text text-anchor="middle" x="973" y="-292.5" font-family="Helvetica,sans-Serif" font-size="10.00" fill="#000000">main</text>
</a>
</g>
</g>
<!-- Node130&#45;&gt;Node131 -->
<g id="edge8" class="edge">
<title>Node130&#45;&gt;Node131</title>
<path fill="none" stroke="#191970" d="M846.4075,-339.0933C852.2955,-337.0572 858.3139,-334.9733 864,-333 895.4287,-322.0931 931.9296,-309.3531 953.7099,-301.7435"/>
<polygon fill="#191970" stroke="#191970" points="845.0114,-335.8726 836.7031,-342.4469 847.2978,-342.4887 845.0114,-335.8726"/>
</g>
<!-- Node133 -->
<g id="node11" class="node">
<title>Node133</title>
<g id="a_node11"><a xlink:href="structXCS.html#a94d556a5e545ec415d7165d5e91b21d4" target="_top" xlink:title="XCS::single_decision">
<polygon fill="none" stroke="#000000" points="754,-190.5 754,-209.5 864,-209.5 864,-190.5 754,-190.5"/>
<text text-anchor="middle" x="809" y="-197.5" font-family="Helvetica,sans-Serif" font-size="10.00" fill="#000000">XCS::single_decision</text>
</a>
</g>
</g>
<!-- Node132&#45;&gt;Node133 -->
<g id="edge10" class="edge">
<title>Node132&#45;&gt;Node133</title>
<path fill="none" stroke="#191970" d="M575.4831,-226.2678C587.998,-223.59 601.4492,-220.9597 614,-219 660.8822,-211.6799 714.5734,-206.6957 753.7316,-203.6753"/>
<polygon fill="#191970" stroke="#191970" points="574.7023,-222.8557 565.6822,-228.4135 576.1994,-229.6938 574.7023,-222.8557"/>
</g>
<!-- Node135 -->
<g id="node13" class="node">
<title>Node135</title>
<g id="a_node13"><a xlink:href="xcs__single__step_8c.html#a536ab4256e871e31959ea6e907455340" target="_top" xlink:title="Executes a single&#45;step trial using a built&#45;in environment. ">
<polygon fill="none" stroke="#000000" points="624,-228.5 624,-247.5 708,-247.5 708,-228.5 624,-228.5"/>
<text text-anchor="middle" x="666" y="-235.5" font-family="Helvetica,sans-Serif" font-size="10.00" fill="#000000">xcs_single_trial</text>
</a>
</g>
</g>
<!-- Node132&#45;&gt;Node135 -->
<g id="edge12" class="edge">
<title>Node132&#45;&gt;Node135</title>
<path fill="none" stroke="#191970" d="M588.1666,-238C600.2402,-238 612.6287,-238 623.8708,-238"/>
<polygon fill="#191970" stroke="#191970" points="588.1309,-234.5001 578.1308,-238 588.1308,-241.5001 588.1309,-234.5001"/>
</g>
<!-- Node134 -->
<g id="node12" class="node">
<title>Node134</title>
<g id="a_node12"><a xlink:href="python__wrapper_8cpp.html#afbdcc1358036a0b83a6b239da2b098a2" target="_top" xlink:title="BOOST_PYTHON_MODULE">
<polygon fill="none" stroke="#000000" points="900,-95.5 900,-114.5 1046,-114.5 1046,-95.5 900,-95.5"/>
<text text-anchor="middle" x="973" y="-102.5" font-family="Helvetica,sans-Serif" font-size="10.00" fill="#000000">BOOST_PYTHON_MODULE</text>
</a>
</g>
</g>
<!-- Node133&#45;&gt;Node134 -->
<g id="edge11" class="edge">
<title>Node133&#45;&gt;Node134</title>
<path fill="none" stroke="#191970" d="M851.2146,-186.768C855.6038,-184.994 859.94,-183.0662 864,-181 902.2418,-161.5385 942.4538,-130.2371 961.5855,-114.5743"/>
<polygon fill="#191970" stroke="#191970" points="849.724,-183.5897 841.6081,-190.4002 852.1997,-190.1373 849.724,-183.5897"/>
</g>
<!-- Node136 -->
<g id="node14" class="node">
<title>Node136</title>
<g id="a_node14"><a xlink:href="xcs__single__step_8h.html#a39a031bf59eaa9b33e30e614610dcda8" target="_top" xlink:title="Executes a single&#45;step reinforcement learning experiment. ">
<polygon fill="none" stroke="#000000" points="755,-304.5 755,-323.5 863,-323.5 863,-304.5 755,-304.5"/>
<text text-anchor="middle" x="809" y="-311.5" font-family="Helvetica,sans-Serif" font-size="10.00" fill="#000000">xcs_single_step_exp</text>
</a>
</g>
</g>
<!-- Node135&#45;&gt;Node136 -->
<g id="edge13" class="edge">
<title>Node135&#45;&gt;Node136</title>
<path fill="none" stroke="#191970" d="M689.8672,-253.1792C707.3205,-264.012 731.7358,-278.6181 754,-290 764.1111,-295.169 775.5829,-300.2872 785.4236,-304.4608"/>
<polygon fill="#191970" stroke="#191970" points="691.2783,-249.9334 680.945,-247.5936 687.5639,-255.8666 691.2783,-249.9334"/>
</g>
<!-- Node136&#45;&gt;Node131 -->
<g id="edge14" class="edge">
<title>Node136&#45;&gt;Node131</title>
<path fill="none" stroke="#191970" d="M873.1924,-306.5631C902.0058,-303.2249 933.9013,-299.5297 953.7011,-297.2359"/>
<polygon fill="#191970" stroke="#191970" points="872.685,-303.0984 863.1542,-307.726 873.4906,-310.0519 872.685,-303.0984"/>
</g>
<!-- Node138 -->
<g id="node16" class="node">
<title>Node138</title>
<g id="a_node16"><a xlink:href="xcsf_8h.html#aee465caea59599a71fc69528598156cb" target="_top" xlink:title="Executes MAX_TRIALS number of XCSF learning iterations using the training. data and test iterations u...">
<polygon fill="none" stroke="#000000" points="641.5,-152.5 641.5,-171.5 690.5,-171.5 690.5,-152.5 641.5,-152.5"/>
<text text-anchor="middle" x="666" y="-159.5" font-family="Helvetica,sans-Serif" font-size="10.00" fill="#000000">xcsf_fit</text>
</a>
</g>
</g>
<!-- Node137&#45;&gt;Node138 -->
<g id="edge16" class="edge">
<title>Node137&#45;&gt;Node138</title>
<path fill="none" stroke="#191970" d="M564.4176,-162C589.0044,-162 620.1683,-162 641.4537,-162"/>
<polygon fill="#191970" stroke="#191970" points="564.3311,-158.5001 554.3311,-162 564.3311,-165.5001 564.3311,-158.5001"/>
</g>
<!-- Node140 -->
<g id="node18" class="node">
<title>Node140</title>
<g id="a_node18"><a xlink:href="xcsf_8h.html#a90b938e4ae2ef92284e8eabfcf4b7b7b" target="_top" xlink:title="Calculates the XCSF predictions for the provided input. ">
<polygon fill="none" stroke="#000000" points="631,-.5 631,-19.5 701,-19.5 701,-.5 631,-.5"/>
<text text-anchor="middle" x="666" y="-7.5" font-family="Helvetica,sans-Serif" font-size="10.00" fill="#000000">xcsf_predict</text>
</a>
</g>
</g>
<!-- Node137&#45;&gt;Node140 -->
<g id="edge20" class="edge">
<title>Node137&#45;&gt;Node140</title>
<path fill="none" stroke="#191970" d="M533.7728,-143.1846C546.4804,-114.6176 574.3239,-60.3234 614,-29 618.979,-25.0692 624.847,-21.9023 630.8146,-19.3668"/>
<polygon fill="#191970" stroke="#191970" points="530.5213,-141.8861 529.782,-152.4551 536.9508,-144.654 530.5213,-141.8861"/>
</g>
<!-- Node142 -->
<g id="node20" class="node">
<title>Node142</title>
<g id="a_node20"><a xlink:href="xcsf_8h.html#a348b8cd321211c377fb1deedc62c7c67" target="_top" xlink:title="Calculates the XCSF error for the input data. ">
<polygon fill="none" stroke="#000000" points="633.5,-38.5 633.5,-57.5 698.5,-57.5 698.5,-38.5 633.5,-38.5"/>
<text text-anchor="middle" x="666" y="-45.5" font-family="Helvetica,sans-Serif" font-size="10.00" fill="#000000">xcsf_score</text>
</a>
</g>
</g>
<!-- Node137&#45;&gt;Node142 -->
<g id="edge23" class="edge">
<title>Node137&#45;&gt;Node142</title>
<path fill="none" stroke="#191970" d="M538.6237,-143.8298C554.1499,-122.7009 582.3666,-88.0419 614,-67 619.842,-63.114 626.5806,-59.8993 633.2294,-57.289"/>
<polygon fill="#191970" stroke="#191970" points="535.5804,-142.0675 532.5946,-152.233 541.268,-146.1482 535.5804,-142.0675"/>
</g>
<!-- Node138&#45;&gt;Node131 -->
<g id="edge17" class="edge">
<title>Node138&#45;&gt;Node131</title>
<path fill="none" stroke="#191970" d="M681.8098,-179.2391C704.6952,-204.0253 745.2764,-247.2879 754,-252 820.9893,-288.1849 914.1691,-294.1549 953.8644,-294.9753"/>
<polygon fill="#191970" stroke="#191970" points="684.1469,-176.6102 674.7986,-171.624 678.9971,-181.3515 684.1469,-176.6102"/>
</g>
<!-- Node139 -->
<g id="node17" class="node">
<title>Node139</title>
<g id="a_node17"><a xlink:href="structXCS.html#ad2ccafe59d2b4ae6d0e1cbc15edee53c" target="_top" xlink:title="XCS::fit">
<polygon fill="none" stroke="#000000" points="783,-152.5 783,-171.5 835,-171.5 835,-152.5 783,-152.5"/>
<text text-anchor="middle" x="809" y="-159.5" font-family="Helvetica,sans-Serif" font-size="10.00" fill="#000000">XCS::fit</text>
</a>
</g>
</g>
<!-- Node138&#45;&gt;Node139 -->
<g id="edge18" class="edge">
<title>Node138&#45;&gt;Node139</title>
<path fill="none" stroke="#191970" d="M700.849,-162C726.1305,-162 759.7911,-162 782.8041,-162"/>
<polygon fill="#191970" stroke="#191970" points="700.5826,-158.5001 690.5826,-162 700.5825,-165.5001 700.5826,-158.5001"/>
</g>
<!-- Node139&#45;&gt;Node134 -->
<g id="edge19" class="edge">
<title>Node139&#45;&gt;Node134</title>
<path fill="none" stroke="#191970" d="M844.8128,-149.6447C851.2037,-147.4352 857.7994,-145.1518 864,-143 891.8314,-133.3414 923.6404,-122.2455 945.6823,-114.5476"/>
<polygon fill="#191970" stroke="#191970" points="843.3334,-146.4527 835.0247,-153.0265 845.6194,-153.069 843.3334,-146.4527"/>
</g>
<!-- Node141 -->
<g id="node19" class="node">
<title>Node141</title>
<g id="a_node19"><a xlink:href="structXCS.html#a911ed75c86abed7807d33eb1385240ed" target="_top" xlink:title="XCS::predict">
<polygon fill="none" stroke="#000000" points="772.5,-.5 772.5,-19.5 845.5,-19.5 845.5,-.5 772.5,-.5"/>
<text text-anchor="middle" x="809" y="-7.5" font-family="Helvetica,sans-Serif" font-size="10.00" fill="#000000">XCS::predict</text>
</a>
</g>
</g>
<!-- Node140&#45;&gt;Node141 -->
<g id="edge21" class="edge">
<title>Node140&#45;&gt;Node141</title>
<path fill="none" stroke="#191970" d="M711.5882,-10C731.1972,-10 753.8131,-10 772.3147,-10"/>
<polygon fill="#191970" stroke="#191970" points="711.3484,-6.5001 701.3483,-10 711.3483,-13.5001 711.3484,-6.5001"/>
</g>
<!-- Node141&#45;&gt;Node134 -->
<g id="edge22" class="edge">
<title>Node141&#45;&gt;Node134</title>
<path fill="none" stroke="#191970" d="M851.2146,-23.232C855.6038,-25.006 859.94,-26.9338 864,-29 902.2418,-48.4615 942.4538,-79.7629 961.5855,-95.4257"/>
<polygon fill="#191970" stroke="#191970" points="852.1997,-19.8627 841.6081,-19.5998 849.724,-26.4103 852.1997,-19.8627"/>
</g>
<!-- Node143 -->
<g id="node21" class="node">
<title>Node143</title>
<g id="a_node21"><a xlink:href="structXCS.html#aa77bc77484d6d14bf512304a23cfec88" target="_top" xlink:title="XCS::score">
<polygon fill="none" stroke="#000000" points="775,-38.5 775,-57.5 843,-57.5 843,-38.5 775,-38.5"/>
<text text-anchor="middle" x="809" y="-45.5" font-family="Helvetica,sans-Serif" font-size="10.00" fill="#000000">XCS::score</text>
</a>
</g>
</g>
<!-- Node142&#45;&gt;Node143 -->
<g id="edge24" class="edge">
<title>Node142&#45;&gt;Node143</title>
<path fill="none" stroke="#191970" d="M708.8115,-48C729.9289,-48 755.0489,-48 774.853,-48"/>
<polygon fill="#191970" stroke="#191970" points="708.8071,-44.5001 698.8071,-48 708.8071,-51.5001 708.8071,-44.5001"/>
</g>
<!-- Node143&#45;&gt;Node134 -->
<g id="edge25" class="edge">
<title>Node143&#45;&gt;Node134</title>
<path fill="none" stroke="#191970" d="M846.1976,-60.9285C876.3734,-71.4164 918.2296,-85.9639 945.4605,-95.4284"/>
<polygon fill="#191970" stroke="#191970" points="847.0447,-57.5175 836.4499,-57.5405 844.7466,-64.1296 847.0447,-57.5175"/>
</g>
<!-- Node144&#45;&gt;Node131 -->
<g id="edge28" class="edge">
<title>Node144&#45;&gt;Node131</title>
<path fill="none" stroke="#191970" d="M712.4241,-138.6391C714.396,-139.9711 716.2689,-141.4214 718,-143 745.6167,-168.1845 725.6543,-194.639 754,-219 792.7099,-252.2682 815.7725,-235.2864 864,-252 895.9075,-263.0578 932.2663,-277.8552 953.8875,-286.893"/>
<polygon fill="#191970" stroke="#191970" points="713.7127,-135.3497 703.2762,-133.5246 710.2967,-141.4596 713.7127,-135.3497"/>
</g>
<!-- Node144&#45;&gt;Node139 -->
<g id="edge27" class="edge">
<title>Node144&#45;&gt;Node139</title>
<path fill="none" stroke="#191970" d="M711.8485,-136.1835C735.3201,-142.4207 763.0435,-149.7878 782.8548,-155.0523"/>
<polygon fill="#191970" stroke="#191970" points="712.6484,-132.7747 702.0849,-133.589 710.8506,-139.5399 712.6484,-132.7747"/>
</g>
<!-- Node145 -->
<g id="node23" class="node">
<title>Node145</title>
<g id="a_node23"><a xlink:href="structXCS.html#ab58a4fb495b05f3450b182bc21dcba1f" target="_top" xlink:title="XCS::single_reset">
<polygon fill="none" stroke="#000000" points="761,-114.5 761,-133.5 857,-133.5 857,-114.5 761,-114.5"/>
<text text-anchor="middle" x="809" y="-121.5" font-family="Helvetica,sans-Serif" font-size="10.00" fill="#000000">XCS::single_reset</text>
</a>
</g>
</g>
<!-- Node144&#45;&gt;Node145 -->
<g id="edge29" class="edge">
<title>Node144&#45;&gt;Node145</title>
<path fill="none" stroke="#191970" d="M714.73,-124C729.6127,-124 745.9651,-124 760.8118,-124"/>
<polygon fill="#191970" stroke="#191970" points="714.6979,-120.5001 704.6979,-124 714.6978,-127.5001 714.6979,-120.5001"/>
</g>
<!-- Node145&#45;&gt;Node134 -->
<g id="edge30" class="edge">
<title>Node145&#45;&gt;Node134</title>
<path fill="none" stroke="#191970" d="M867.5511,-117.2166C877.9968,-116.0065 888.9967,-114.7321 899.791,-113.4815"/>
<polygon fill="#191970" stroke="#191970" points="866.8491,-113.7745 857.3184,-118.4021 867.6548,-120.728 866.8491,-113.7745"/>
</g>
<!-- Node146&#45;&gt;Node129 -->
<g id="edge32" class="edge">
<title>Node146&#45;&gt;Node129</title>
<path fill="none" stroke="#191970" d="M426.5858,-211.4699C430.5328,-213.76 434.4836,-216.2997 438,-219 456.4515,-233.1696 454.1726,-244.83 474,-257 499.4854,-272.6429 577.3967,-292.9963 625.782,-304.6691"/>
<polygon fill="#191970" stroke="#191970" points="428.0529,-208.2846 417.5894,-206.6212 424.7318,-214.4467 428.0529,-208.2846"/>
</g>
<!-- Node146&#45;&gt;Node137 -->
<g id="edge37" class="edge">
<title>Node146&#45;&gt;Node137</title>
<path fill="none" stroke="#191970" d="M427.3389,-192.4807C447.6496,-186.2058 476.6115,-177.2583 497.9042,-170.68"/>
<polygon fill="#191970" stroke="#191970" points="426.114,-189.1958 417.5927,-195.4917 428.1803,-195.8839 426.114,-189.1958"/>
</g>
<!-- Node147 -->
<g id="node25" class="node">
<title>Node147</title>
<g id="a_node25"><a xlink:href="xcs__single__step_8h.html#a0ff6b521f66224d56ef0e6f50f5781b9" target="_top" xlink:title="Creates the action set, updates the classifiers and runs the EA. ">
<polygon fill="none" stroke="#000000" points="477,-190.5 477,-209.5 575,-209.5 575,-190.5 477,-190.5"/>
<text text-anchor="middle" x="526" y="-197.5" font-family="Helvetica,sans-Serif" font-size="10.00" fill="#000000">xcs_single_update</text>
</a>
</g>
</g>
<!-- Node146&#45;&gt;Node147 -->
<g id="edge33" class="edge">
<title>Node146&#45;&gt;Node147</title>
<path fill="none" stroke="#191970" d="M427.9182,-200C441.9931,-200 460.0837,-200 476.8873,-200"/>
<polygon fill="#191970" stroke="#191970" points="427.5928,-196.5001 417.5927,-200 427.5927,-203.5001 427.5928,-196.5001"/>
</g>
<!-- Node147&#45;&gt;Node135 -->
<g id="edge36" class="edge">
<title>Node147&#45;&gt;Node135</title>
<path fill="none" stroke="#191970" d="M571.1176,-212.2462C590.4149,-217.484 612.6124,-223.5091 630.6834,-228.4141"/>
<polygon fill="#191970" stroke="#191970" points="571.8956,-208.8308 561.3279,-209.589 570.0619,-215.5864 571.8956,-208.8308"/>
</g>
<!-- Node148 -->
<g id="node26" class="node">
<title>Node148</title>
<g id="a_node26"><a xlink:href="structXCS.html#aedc01ad6f00a54b260a7605929a1d4c9" target="_top" xlink:title="XCS::single_update">
<polygon fill="none" stroke="#000000" points="614,-76.5 614,-95.5 718,-95.5 718,-76.5 614,-76.5"/>
<text text-anchor="middle" x="666" y="-83.5" font-family="Helvetica,sans-Serif" font-size="10.00" fill="#000000">XCS::single_update</text>
</a>
</g>
</g>
<!-- Node147&#45;&gt;Node148 -->
<g id="edge34" class="edge">
<title>Node147&#45;&gt;Node148</title>
<path fill="none" stroke="#191970" d="M572.4241,-185.3609C574.396,-184.0289 576.2689,-182.5786 578,-181 605.6167,-155.8155 586.3833,-130.1845 614,-105 618.2611,-101.1141 623.3813,-98.0061 628.7238,-95.5246"/>
<polygon fill="#191970" stroke="#191970" points="570.2967,-182.5404 563.2762,-190.4754 573.7127,-188.6503 570.2967,-182.5404"/>
</g>
<!-- Node148&#45;&gt;Node134 -->
<g id="edge35" class="edge">
<title>Node148&#45;&gt;Node134</title>
<path fill="none" stroke="#191970" d="M728.3596,-89.8594C778.0226,-92.933 847.6399,-97.2416 899.9168,-100.4769"/>
<polygon fill="#191970" stroke="#191970" points="728.2755,-86.3476 718.0784,-89.2231 727.843,-93.3342 728.2755,-86.3476"/>
</g>
</g>
</svg>
