<?xml version="1.0" encoding="UTF-8" standalone="no"?>
<!DOCTYPE svg PUBLIC "-//W3C//DTD SVG 1.1//EN"
 "http://www.w3.org/Graphics/SVG/1.1/DTD/svg11.dtd">
<!-- Generated by graphviz version 2.40.1 (20161225.0304)
 -->
<!-- Title: /home/unknown/work/current/xcsf/xcsf/sam.c Pages: 1 -->
<svg width="514pt" height="95pt"
 viewBox="0.00 0.00 514.00 95.00" xmlns="http://www.w3.org/2000/svg" xmlns:xlink="http://www.w3.org/1999/xlink">
<g id="graph0" class="graph" transform="scale(1 1) rotate(0) translate(4 91)">
<title>/home/unknown/work/current/xcsf/xcsf/sam.c</title>
<!-- Node0 -->
<g id="node1" class="node">
<title>Node0</title>
<polygon fill="#bfbfbf" stroke="#000000" points="199.5,-56.5 199.5,-86.5 322.5,-86.5 322.5,-56.5 199.5,-56.5"/>
<text text-anchor="start" x="207.5" y="-74.5" font-family="Helvetica,sans-Serif" font-size="10.00" fill="#000000">/home/unknown/work</text>
<text text-anchor="middle" x="261" y="-63.5" font-family="Helvetica,sans-Serif" font-size="10.00" fill="#000000">/current/xcsf/xcsf/sam.c</text>
</g>
<!-- Node1 -->
<g id="node2" class="node">
<title>Node1</title>
<polygon fill="none" stroke="#bfbfbf" points="0,-.5 0,-19.5 46,-19.5 46,-.5 0,-.5"/>
<text text-anchor="middle" x="23" y="-7.5" font-family="Helvetica,sans-Serif" font-size="10.00" fill="#000000">stdio.h</text>
</g>
<!-- Node0&#45;&gt;Node1 -->
<g id="edge1" class="edge">
<title>Node0&#45;&gt;Node1</title>
<path fill="none" stroke="#191970" d="M199.46,-57.1012C160.7148,-47.8077 109.4657,-35.1009 55.7286,-20.0972"/>
<polygon fill="#191970" stroke="#191970" points="56.5986,-16.7061 46.0245,-17.37 54.7047,-23.4451 56.5986,-16.7061"/>
</g>
<!-- Node2 -->
<g id="node3" class="node">
<title>Node2</title>
<polygon fill="none" stroke="#bfbfbf" points="64,-.5 64,-19.5 112,-19.5 112,-.5 64,-.5"/>
<text text-anchor="middle" x="88" y="-7.5" font-family="Helvetica,sans-Serif" font-size="10.00" fill="#000000">stdlib.h</text>
</g>
<!-- Node0&#45;&gt;Node2 -->
<g id="edge2" class="edge">
<title>Node0&#45;&gt;Node2</title>
<path fill="none" stroke="#191970" d="M218.6794,-56.4554C188.923,-45.8773 149.6319,-31.9096 121.9296,-22.0617"/>
<polygon fill="#191970" stroke="#191970" points="122.8817,-18.6856 112.287,-18.6338 120.5369,-25.2813 122.8817,-18.6856"/>
</g>
<!-- Node3 -->
<g id="node4" class="node">
<title>Node3</title>
<polygon fill="none" stroke="#bfbfbf" points="130.5,-.5 130.5,-19.5 179.5,-19.5 179.5,-.5 130.5,-.5"/>
<text text-anchor="middle" x="155" y="-7.5" font-family="Helvetica,sans-Serif" font-size="10.00" fill="#000000">string.h</text>
</g>
<!-- Node0&#45;&gt;Node3 -->
<g id="edge3" class="edge">
<title>Node0&#45;&gt;Node3</title>
<path fill="none" stroke="#191970" d="M235.0695,-56.4554C218.4691,-46.8241 197.0256,-34.3828 180.5083,-24.7996"/>
<polygon fill="#191970" stroke="#191970" points="181.8323,-21.5214 171.4262,-19.5303 178.3194,-27.5761 181.8323,-21.5214"/>
</g>
<!-- Node4 -->
<g id="node5" class="node">
<title>Node4</title>
<polygon fill="none" stroke="#bfbfbf" points="198,-.5 198,-19.5 254,-19.5 254,-.5 198,-.5"/>
<text text-anchor="middle" x="226" y="-7.5" font-family="Helvetica,sans-Serif" font-size="10.00" fill="#000000">stdbool.h</text>
</g>
<!-- Node0&#45;&gt;Node4 -->
<g id="edge4" class="edge">
<title>Node0&#45;&gt;Node4</title>
<path fill="none" stroke="#191970" d="M252.3483,-56.2977C247.5912,-47.9388 241.6502,-37.4997 236.6143,-28.6509"/>
<polygon fill="#191970" stroke="#191970" points="239.5921,-26.8069 231.6039,-19.8469 233.5083,-30.2692 239.5921,-26.8069"/>
</g>
<!-- Node5 -->
<g id="node6" class="node">
<title>Node5</title>
<polygon fill="none" stroke="#bfbfbf" points="272.5,-.5 272.5,-19.5 319.5,-19.5 319.5,-.5 272.5,-.5"/>
<text text-anchor="middle" x="296" y="-7.5" font-family="Helvetica,sans-Serif" font-size="10.00" fill="#000000">math.h</text>
</g>
<!-- Node0&#45;&gt;Node5 -->
<g id="edge5" class="edge">
<title>Node0&#45;&gt;Node5</title>
<path fill="none" stroke="#191970" d="M269.6517,-56.2977C274.4088,-47.9388 280.3498,-37.4997 285.3857,-28.6509"/>
<polygon fill="#191970" stroke="#191970" points="288.4917,-30.2692 290.3961,-19.8469 282.4079,-26.8069 288.4917,-30.2692"/>
</g>
<!-- Node6 -->
<g id="node7" class="node">
<title>Node6</title>
<g id="a_node7"><a xlink:href="xcsf_8h.html" target="_top" xlink:title="XCSF data structures. ">
<polygon fill="none" stroke="#000000" points="338,-.5 338,-19.5 382,-19.5 382,-.5 338,-.5"/>
<text text-anchor="middle" x="360" y="-7.5" font-family="Helvetica,sans-Serif" font-size="10.00" fill="#000000">xcsf.h</text>
</a>
</g>
</g>
<!-- Node0&#45;&gt;Node6 -->
<g id="edge6" class="edge">
<title>Node0&#45;&gt;Node6</title>
<path fill="none" stroke="#191970" d="M285.2181,-56.4554C300.5773,-46.9141 320.3757,-34.6151 335.7425,-25.0691"/>
<polygon fill="#191970" stroke="#191970" points="338.011,-27.7802 344.6585,-19.5303 334.3172,-21.8341 338.011,-27.7802"/>
</g>
<!-- Node7 -->
<g id="node8" class="node">
<title>Node7</title>
<g id="a_node8"><a xlink:href="utils_8h.html" target="_top" xlink:title="Utility functions for random number handling, etc. ">
<polygon fill="none" stroke="#000000" points="400.5,-.5 400.5,-19.5 443.5,-19.5 443.5,-.5 400.5,-.5"/>
<text text-anchor="middle" x="422" y="-7.5" font-family="Helvetica,sans-Serif" font-size="10.00" fill="#000000">utils.h</text>
</a>
</g>
</g>
<!-- Node0&#45;&gt;Node7 -->
<g id="edge7" class="edge">
<title>Node0&#45;&gt;Node7</title>
<path fill="none" stroke="#191970" d="M300.385,-56.4554C328.1632,-45.8445 364.8699,-31.823 390.6633,-21.9702"/>
<polygon fill="#191970" stroke="#191970" points="392.219,-25.1227 400.3117,-18.2847 389.721,-18.5836 392.219,-25.1227"/>
</g>
<!-- Node8 -->
<g id="node9" class="node">
<title>Node8</title>
<g id="a_node9"><a xlink:href="sam_8h.html" target="_top" xlink:title="Self&#45;adaptive mutation functions. ">
<polygon fill="none" stroke="#000000" points="462,-.5 462,-19.5 506,-19.5 506,-.5 462,-.5"/>
<text text-anchor="middle" x="484" y="-7.5" font-family="Helvetica,sans-Serif" font-size="10.00" fill="#000000">sam.h</text>
</a>
</g>
</g>
<!-- Node0&#45;&gt;Node8 -->
<g id="edge8" class="edge">
<title>Node0&#45;&gt;Node8</title>
<path fill="none" stroke="#191970" d="M320.0354,-56.4802C355.8143,-47.1887 402.5738,-34.7144 452.0853,-20.1794"/>
<polygon fill="#191970" stroke="#191970" points="453.0906,-23.5321 461.6903,-17.3438 451.1085,-16.8185 453.0906,-23.5321"/>
</g>
</g>
</svg>
