<?xml version="1.0" encoding="UTF-8" standalone="no"?>
<!DOCTYPE svg PUBLIC "-//W3C//DTD SVG 1.1//EN"
 "http://www.w3.org/Graphics/SVG/1.1/DTD/svg11.dtd">
<!-- Generated by graphviz version 2.40.1 (20161225.0304)
 -->
<!-- Title: sam_rate_selection_adapt Pages: 1 -->
<svg width="875pt" height="256pt"
 viewBox="0.00 0.00 875.00 256.00" xmlns="http://www.w3.org/2000/svg" xmlns:xlink="http://www.w3.org/1999/xlink">
<g id="graph0" class="graph" transform="scale(1 1) rotate(0) translate(4 252)">
<title>sam_rate_selection_adapt</title>
<!-- Node178 -->
<g id="node1" class="node">
<title>Node178</title>
<polygon fill="#bfbfbf" stroke="#000000" points="0,-166 0,-196 101,-196 101,-166 0,-166"/>
<text text-anchor="start" x="8" y="-184" font-family="Helvetica,sans-Serif" font-size="10.00" fill="#000000">sam_rate_selection</text>
<text text-anchor="middle" x="50.5" y="-173" font-family="Helvetica,sans-Serif" font-size="10.00" fill="#000000">_adapt</text>
</g>
<!-- Node179 -->
<g id="node2" class="node">
<title>Node179</title>
<g id="a_node2"><a xlink:href="sam_8h.html#aa7382542688a4953644df6cb73a2972c" target="_top" xlink:title="Self&#45;adapts a classifier&#39;s mutation rates. ">
<polygon fill="none" stroke="#000000" points="137,-171.5 137,-190.5 202,-190.5 202,-171.5 137,-171.5"/>
<text text-anchor="middle" x="169.5" y="-178.5" font-family="Helvetica,sans-Serif" font-size="10.00" fill="#000000">sam_adapt</text>
</a>
</g>
</g>
<!-- Node178&#45;&gt;Node179 -->
<g id="edge1" class="edge">
<title>Node178&#45;&gt;Node179</title>
<path fill="none" stroke="#191970" d="M111.5087,-181C120.2162,-181 128.8805,-181 136.7552,-181"/>
<polygon fill="#191970" stroke="#191970" points="111.3119,-177.5001 101.3119,-181 111.3119,-184.5001 111.3119,-177.5001"/>
</g>
<!-- Node180 -->
<g id="node3" class="node">
<title>Node180</title>
<g id="a_node3"><a xlink:href="ea_8h.html#ae90a9b4131bb94462265b9c928499eb8" target="_top" xlink:title="Executes the evolutionary algorithm (EA). ">
<polygon fill="none" stroke="#000000" points="238,-171.5 238,-190.5 267,-190.5 267,-171.5 238,-171.5"/>
<text text-anchor="middle" x="252.5" y="-178.5" font-family="Helvetica,sans-Serif" font-size="10.00" fill="#000000">ea</text>
</a>
</g>
</g>
<!-- Node179&#45;&gt;Node180 -->
<g id="edge2" class="edge">
<title>Node179&#45;&gt;Node180</title>
<path fill="none" stroke="#191970" d="M212.5601,-181C221.6898,-181 230.7188,-181 237.8761,-181"/>
<polygon fill="#191970" stroke="#191970" points="212.3038,-177.5001 202.3038,-181 212.3038,-184.5001 212.3038,-177.5001"/>
</g>
<!-- Node181 -->
<g id="node4" class="node">
<title>Node181</title>
<g id="a_node4"><a xlink:href="xcs__multi__step_8c.html#ad50c415970b4bfc42f469fb38c5e68fa" target="_top" xlink:title="Executes a multi&#45;step trial using a built&#45;in environment. ">
<polygon fill="none" stroke="#000000" points="312,-218.5 312,-237.5 392,-237.5 392,-218.5 312,-218.5"/>
<text text-anchor="middle" x="352" y="-225.5" font-family="Helvetica,sans-Serif" font-size="10.00" fill="#000000">xcs_multi_trial</text>
</a>
</g>
</g>
<!-- Node180&#45;&gt;Node181 -->
<g id="edge3" class="edge">
<title>Node180&#45;&gt;Node181</title>
<path fill="none" stroke="#191970" d="M276.4056,-192.2921C293.3056,-200.275 315.714,-210.8599 331.7373,-218.4287"/>
<polygon fill="#191970" stroke="#191970" points="277.7185,-189.0415 267.1816,-187.935 274.7287,-195.3709 277.7185,-189.0415"/>
</g>
<!-- Node184 -->
<g id="node7" class="node">
<title>Node184</title>
<g id="a_node7"><a xlink:href="xcs__single__step_8h.html#a0ff6b521f66224d56ef0e6f50f5781b9" target="_top" xlink:title="Creates the action set, updates the classifiers and runs the EA. ">
<polygon fill="none" stroke="#000000" points="303,-171.5 303,-190.5 401,-190.5 401,-171.5 303,-171.5"/>
<text text-anchor="middle" x="352" y="-178.5" font-family="Helvetica,sans-Serif" font-size="10.00" fill="#000000">xcs_single_update</text>
</a>
</g>
</g>
<!-- Node180&#45;&gt;Node184 -->
<g id="edge6" class="edge">
<title>Node180&#45;&gt;Node184</title>
<path fill="none" stroke="#191970" d="M277.2801,-181C285.0174,-181 293.8425,-181 302.6508,-181"/>
<polygon fill="#191970" stroke="#191970" points="277.1816,-177.5001 267.1816,-181 277.1815,-184.5001 277.1816,-177.5001"/>
</g>
<!-- Node189 -->
<g id="node12" class="node">
<title>Node189</title>
<g id="a_node12"><a xlink:href="xcsf_8c.html#af5fb604e81235fdcb2ed8925d9291f59" target="_top" xlink:title="Executes a single XCSF trial. ">
<polygon fill="none" stroke="#000000" points="324,-57.5 324,-76.5 380,-76.5 380,-57.5 324,-57.5"/>
<text text-anchor="middle" x="352" y="-64.5" font-family="Helvetica,sans-Serif" font-size="10.00" fill="#000000">xcsf_trial</text>
</a>
</g>
</g>
<!-- Node180&#45;&gt;Node189 -->
<g id="edge12" class="edge">
<title>Node180&#45;&gt;Node189</title>
<path fill="none" stroke="#191970" d="M267.7434,-163.5352C288.9778,-139.2063 326.7403,-95.9408 343.5382,-76.695"/>
<polygon fill="#191970" stroke="#191970" points="264.9221,-161.445 260.9833,-171.2804 270.1959,-166.048 264.9221,-161.445"/>
</g>
<!-- Node182 -->
<g id="node5" class="node">
<title>Node182</title>
<g id="a_node5"><a xlink:href="xcs__multi__step_8h.html#acc29d4a55dbd56c16ea5f19f15a7c677" target="_top" xlink:title="Executes a multi&#45;step reinforcement learning experiment. ">
<polygon fill="none" stroke="#000000" points="579,-228.5 579,-247.5 683,-247.5 683,-228.5 579,-228.5"/>
<text text-anchor="middle" x="631" y="-235.5" font-family="Helvetica,sans-Serif" font-size="10.00" fill="#000000">xcs_multi_step_exp</text>
</a>
</g>
</g>
<!-- Node181&#45;&gt;Node182 -->
<g id="edge4" class="edge">
<title>Node181&#45;&gt;Node182</title>
<path fill="none" stroke="#191970" d="M402.5047,-229.8102C452.4046,-231.5987 528.3872,-234.3221 578.8508,-236.1309"/>
<polygon fill="#191970" stroke="#191970" points="402.39,-226.3039 392.271,-229.4434 402.1392,-233.2994 402.39,-226.3039"/>
</g>
<!-- Node183 -->
<g id="node6" class="node">
<title>Node183</title>
<g id="a_node6"><a xlink:href="main_8c.html#a3c04138a5bfe5d72780bb7e82a18e627" target="_top" xlink:title="main">
<polygon fill="none" stroke="#000000" points="775,-190.5 775,-209.5 813,-209.5 813,-190.5 775,-190.5"/>
<text text-anchor="middle" x="794" y="-197.5" font-family="Helvetica,sans-Serif" font-size="10.00" fill="#000000">main</text>
</a>
</g>
</g>
<!-- Node182&#45;&gt;Node183 -->
<g id="edge5" class="edge">
<title>Node182&#45;&gt;Node183</title>
<path fill="none" stroke="#191970" d="M682.0525,-226.0982C713.4599,-218.7762 751.9128,-209.8117 774.6012,-204.5224"/>
<polygon fill="#191970" stroke="#191970" points="681.076,-222.7319 672.1318,-228.411 682.6653,-229.5491 681.076,-222.7319"/>
</g>
<!-- Node185 -->
<g id="node8" class="node">
<title>Node185</title>
<g id="a_node8"><a xlink:href="structXCS.html#aedc01ad6f00a54b260a7605929a1d4c9" target="_top" xlink:title="XCS::single_update">
<polygon fill="none" stroke="#000000" points="437,-152.5 437,-171.5 541,-171.5 541,-152.5 437,-152.5"/>
<text text-anchor="middle" x="489" y="-159.5" font-family="Helvetica,sans-Serif" font-size="10.00" fill="#000000">XCS::single_update</text>
</a>
</g>
</g>
<!-- Node184&#45;&gt;Node185 -->
<g id="edge7" class="edge">
<title>Node184&#45;&gt;Node185</title>
<path fill="none" stroke="#191970" d="M411.2254,-172.7863C419.6549,-171.6172 428.2753,-170.4217 436.5632,-169.2723"/>
<polygon fill="#191970" stroke="#191970" points="410.4976,-169.3536 401.0732,-174.1942 411.4592,-176.2873 410.4976,-169.3536"/>
</g>
<!-- Node187 -->
<g id="node10" class="node">
<title>Node187</title>
<g id="a_node10"><a xlink:href="xcs__single__step_8c.html#a536ab4256e871e31959ea6e907455340" target="_top" xlink:title="Executes a single&#45;step trial using a built&#45;in environment. ">
<polygon fill="none" stroke="#000000" points="447,-190.5 447,-209.5 531,-209.5 531,-190.5 447,-190.5"/>
<text text-anchor="middle" x="489" y="-197.5" font-family="Helvetica,sans-Serif" font-size="10.00" fill="#000000">xcs_single_trial</text>
</a>
</g>
</g>
<!-- Node184&#45;&gt;Node187 -->
<g id="edge9" class="edge">
<title>Node184&#45;&gt;Node187</title>
<path fill="none" stroke="#191970" d="M411.0069,-189.1834C422.9825,-190.8443 435.3528,-192.5599 446.6154,-194.1218"/>
<polygon fill="#191970" stroke="#191970" points="411.4592,-185.7128 401.0732,-187.8058 410.4976,-192.6464 411.4592,-185.7128"/>
</g>
<!-- Node186 -->
<g id="node9" class="node">
<title>Node186</title>
<g id="a_node9"><a xlink:href="python__wrapper_8cpp.html#afbdcc1358036a0b83a6b239da2b098a2" target="_top" xlink:title="BOOST_PYTHON_MODULE">
<polygon fill="none" stroke="#000000" points="721,-57.5 721,-76.5 867,-76.5 867,-57.5 721,-57.5"/>
<text text-anchor="middle" x="794" y="-64.5" font-family="Helvetica,sans-Serif" font-size="10.00" fill="#000000">BOOST_PYTHON_MODULE</text>
</a>
</g>
</g>
<!-- Node185&#45;&gt;Node186 -->
<g id="edge8" class="edge">
<title>Node185&#45;&gt;Node186</title>
<path fill="none" stroke="#191970" d="M533.5475,-149.7635C573.4055,-138.6446 633.3418,-121.5037 685,-105 713.4442,-95.9127 745.7024,-84.5307 767.6992,-76.6036"/>
<polygon fill="#191970" stroke="#191970" points="532.5605,-146.405 523.8639,-152.4565 534.4361,-153.1491 532.5605,-146.405"/>
</g>
<!-- Node188 -->
<g id="node11" class="node">
<title>Node188</title>
<g id="a_node11"><a xlink:href="xcs__single__step_8h.html#a39a031bf59eaa9b33e30e614610dcda8" target="_top" xlink:title="Executes a single&#45;step reinforcement learning experiment. ">
<polygon fill="none" stroke="#000000" points="577,-190.5 577,-209.5 685,-209.5 685,-190.5 577,-190.5"/>
<text text-anchor="middle" x="631" y="-197.5" font-family="Helvetica,sans-Serif" font-size="10.00" fill="#000000">xcs_single_step_exp</text>
</a>
</g>
</g>
<!-- Node187&#45;&gt;Node188 -->
<g id="edge10" class="edge">
<title>Node187&#45;&gt;Node188</title>
<path fill="none" stroke="#191970" d="M541.551,-200C553.0539,-200 565.2511,-200 576.8166,-200"/>
<polygon fill="#191970" stroke="#191970" points="541.2203,-196.5001 531.2202,-200 541.2202,-203.5001 541.2203,-196.5001"/>
</g>
<!-- Node188&#45;&gt;Node183 -->
<g id="edge11" class="edge">
<title>Node188&#45;&gt;Node183</title>
<path fill="none" stroke="#191970" d="M695.611,-200C724.0891,-200 755.4445,-200 774.9303,-200"/>
<polygon fill="#191970" stroke="#191970" points="695.2767,-196.5001 685.2766,-200 695.2766,-203.5001 695.2767,-196.5001"/>
</g>
<!-- Node190 -->
<g id="node13" class="node">
<title>Node190</title>
<g id="a_node13"><a xlink:href="xcsf_8h.html#aee465caea59599a71fc69528598156cb" target="_top" xlink:title="Executes MAX_TRIALS number of XCSF learning iterations using the training. data and test iterations u...">
<polygon fill="none" stroke="#000000" points="464.5,-76.5 464.5,-95.5 513.5,-95.5 513.5,-76.5 464.5,-76.5"/>
<text text-anchor="middle" x="489" y="-83.5" font-family="Helvetica,sans-Serif" font-size="10.00" fill="#000000">xcsf_fit</text>
</a>
</g>
</g>
<!-- Node189&#45;&gt;Node190 -->
<g id="edge13" class="edge">
<title>Node189&#45;&gt;Node190</title>
<path fill="none" stroke="#191970" d="M390.1185,-72.2865C413.7972,-75.5704 443.5501,-79.6967 464.2027,-82.561"/>
<polygon fill="#191970" stroke="#191970" points="390.4406,-68.7978 380.0546,-70.8908 389.479,-75.7314 390.4406,-68.7978"/>
</g>
<!-- Node192 -->
<g id="node15" class="node">
<title>Node192</title>
<g id="a_node15"><a xlink:href="xcsf_8h.html#a90b938e4ae2ef92284e8eabfcf4b7b7b" target="_top" xlink:title="Calculates the XCSF predictions for the provided input. ">
<polygon fill="none" stroke="#000000" points="454,-38.5 454,-57.5 524,-57.5 524,-38.5 454,-38.5"/>
<text text-anchor="middle" x="489" y="-45.5" font-family="Helvetica,sans-Serif" font-size="10.00" fill="#000000">xcsf_predict</text>
</a>
</g>
</g>
<!-- Node189&#45;&gt;Node192 -->
<g id="edge17" class="edge">
<title>Node189&#45;&gt;Node192</title>
<path fill="none" stroke="#191970" d="M390.064,-61.721C410.0542,-58.9487 434.385,-55.5743 453.9157,-52.8657"/>
<polygon fill="#191970" stroke="#191970" points="389.479,-58.2686 380.0546,-63.1092 390.4406,-65.2022 389.479,-58.2686"/>
</g>
<!-- Node194 -->
<g id="node17" class="node">
<title>Node194</title>
<g id="a_node17"><a xlink:href="xcsf_8h.html#a348b8cd321211c377fb1deedc62c7c67" target="_top" xlink:title="Calculates the XCSF error for the input data. ">
<polygon fill="none" stroke="#000000" points="456.5,-.5 456.5,-19.5 521.5,-19.5 521.5,-.5 456.5,-.5"/>
<text text-anchor="middle" x="489" y="-7.5" font-family="Helvetica,sans-Serif" font-size="10.00" fill="#000000">xcsf_score</text>
</a>
</g>
</g>
<!-- Node189&#45;&gt;Node194 -->
<g id="edge20" class="edge">
<title>Node189&#45;&gt;Node194</title>
<path fill="none" stroke="#191970" d="M381.9163,-53.0094C398.1046,-45.5955 418.5173,-36.4974 437,-29 445.016,-25.7484 453.8227,-22.4347 461.8735,-19.5046"/>
<polygon fill="#191970" stroke="#191970" points="380.0541,-50.0138 372.4377,-57.3787 382.9845,-56.3709 380.0541,-50.0138"/>
</g>
<!-- Node190&#45;&gt;Node183 -->
<g id="edge14" class="edge">
<title>Node190&#45;&gt;Node183</title>
<path fill="none" stroke="#191970" d="M523.3792,-98.8499C587.6984,-122.8906 724.2779,-173.94 774.7389,-192.8008"/>
<polygon fill="#191970" stroke="#191970" points="524.2936,-95.4553 513.7011,-95.2325 521.8427,-102.0122 524.2936,-95.4553"/>
</g>
<!-- Node191 -->
<g id="node14" class="node">
<title>Node191</title>
<g id="a_node14"><a xlink:href="structXCS.html#ad2ccafe59d2b4ae6d0e1cbc15edee53c" target="_top" xlink:title="XCS::fit">
<polygon fill="none" stroke="#000000" points="605,-76.5 605,-95.5 657,-95.5 657,-76.5 605,-76.5"/>
<text text-anchor="middle" x="631" y="-83.5" font-family="Helvetica,sans-Serif" font-size="10.00" fill="#000000">XCS::fit</text>
</a>
</g>
</g>
<!-- Node190&#45;&gt;Node191 -->
<g id="edge15" class="edge">
<title>Node190&#45;&gt;Node191</title>
<path fill="none" stroke="#191970" d="M523.8735,-86C548.8145,-86 581.8634,-86 604.6237,-86"/>
<polygon fill="#191970" stroke="#191970" points="523.7345,-82.5001 513.7345,-86 523.7345,-89.5001 523.7345,-82.5001"/>
</g>
<!-- Node191&#45;&gt;Node186 -->
<g id="edge16" class="edge">
<title>Node191&#45;&gt;Node186</title>
<path fill="none" stroke="#191970" d="M667.5233,-81.7427C683.2717,-79.907 702.2822,-77.691 720.7251,-75.5412"/>
<polygon fill="#191970" stroke="#191970" points="666.7163,-78.313 657.1888,-82.9473 667.5268,-85.2659 666.7163,-78.313"/>
</g>
<!-- Node193 -->
<g id="node16" class="node">
<title>Node193</title>
<g id="a_node16"><a xlink:href="structXCS.html#a911ed75c86abed7807d33eb1385240ed" target="_top" xlink:title="XCS::predict">
<polygon fill="none" stroke="#000000" points="594.5,-38.5 594.5,-57.5 667.5,-57.5 667.5,-38.5 594.5,-38.5"/>
<text text-anchor="middle" x="631" y="-45.5" font-family="Helvetica,sans-Serif" font-size="10.00" fill="#000000">XCS::predict</text>
</a>
</g>
</g>
<!-- Node192&#45;&gt;Node193 -->
<g id="edge18" class="edge">
<title>Node192&#45;&gt;Node193</title>
<path fill="none" stroke="#191970" d="M534.2292,-48C553.6223,-48 575.9834,-48 594.3219,-48"/>
<polygon fill="#191970" stroke="#191970" points="534.1012,-44.5001 524.1011,-48 534.1011,-51.5001 534.1012,-44.5001"/>
</g>
<!-- Node193&#45;&gt;Node186 -->
<g id="edge19" class="edge">
<title>Node193&#45;&gt;Node186</title>
<path fill="none" stroke="#191970" d="M677.5613,-53.4274C691.0572,-55.0005 706.1298,-56.7575 720.8365,-58.4717"/>
<polygon fill="#191970" stroke="#191970" points="677.9184,-49.9454 667.5804,-52.264 677.1079,-56.8983 677.9184,-49.9454"/>
</g>
<!-- Node195 -->
<g id="node18" class="node">
<title>Node195</title>
<g id="a_node18"><a xlink:href="structXCS.html#aa77bc77484d6d14bf512304a23cfec88" target="_top" xlink:title="XCS::score">
<polygon fill="none" stroke="#000000" points="597,-.5 597,-19.5 665,-19.5 665,-.5 597,-.5"/>
<text text-anchor="middle" x="631" y="-7.5" font-family="Helvetica,sans-Serif" font-size="10.00" fill="#000000">XCS::score</text>
</a>
</g>
</g>
<!-- Node194&#45;&gt;Node195 -->
<g id="edge21" class="edge">
<title>Node194&#45;&gt;Node195</title>
<path fill="none" stroke="#191970" d="M531.7215,-10C552.4707,-10 577.0715,-10 596.5932,-10"/>
<polygon fill="#191970" stroke="#191970" points="531.5777,-6.5001 521.5777,-10 531.5776,-13.5001 531.5777,-6.5001"/>
</g>
<!-- Node195&#45;&gt;Node186 -->
<g id="edge22" class="edge">
<title>Node195&#45;&gt;Node186</title>
<path fill="none" stroke="#191970" d="M667.9708,-22.9285C697.9626,-33.4164 739.5636,-47.9639 766.6285,-57.4284"/>
<polygon fill="#191970" stroke="#191970" points="668.8774,-19.5377 658.2825,-19.5405 666.5667,-26.1453 668.8774,-19.5377"/>
</g>
</g>
</svg>
