<?xml version="1.0" encoding="UTF-8" standalone="no"?>
<!DOCTYPE svg PUBLIC "-//W3C//DTD SVG 1.1//EN"
 "http://www.w3.org/Graphics/SVG/1.1/DTD/svg11.dtd">
<!-- Generated by graphviz version 2.40.1 (20161225.0304)
 -->
<!-- Title: sam_log_normal_init Pages: 1 -->
<svg width="639pt" height="389pt"
 viewBox="0.00 0.00 639.00 389.00" xmlns="http://www.w3.org/2000/svg" xmlns:xlink="http://www.w3.org/1999/xlink">
<g id="graph0" class="graph" transform="scale(1 1) rotate(0) translate(4 385)">
<title>sam_log_normal_init</title>
<!-- Node72 -->
<g id="node1" class="node">
<title>Node72</title>
<polygon fill="#bfbfbf" stroke="#000000" points="0,-247.5 0,-266.5 106,-266.5 106,-247.5 0,-247.5"/>
<text text-anchor="middle" x="53" y="-254.5" font-family="Helvetica,sans-Serif" font-size="10.00" fill="#000000">sam_log_normal_init</text>
</g>
<!-- Node73 -->
<g id="node2" class="node">
<title>Node73</title>
<g id="a_node2"><a xlink:href="sam_8h.html#a3164f33509a5dc751b57a544fe2153a7" target="_top" xlink:title="Initialises self&#45;adaptive mutation rates. ">
<polygon fill="none" stroke="#000000" points="142,-247.5 142,-266.5 195,-266.5 195,-247.5 142,-247.5"/>
<text text-anchor="middle" x="168.5" y="-254.5" font-family="Helvetica,sans-Serif" font-size="10.00" fill="#000000">sam_init</text>
</a>
</g>
</g>
<!-- Node72&#45;&gt;Node73 -->
<g id="edge1" class="edge">
<title>Node72&#45;&gt;Node73</title>
<path fill="none" stroke="#191970" d="M116.2517,-257C125.2905,-257 134.1478,-257 141.9272,-257"/>
<polygon fill="#191970" stroke="#191970" points="116.0175,-253.5001 106.0174,-257 116.0174,-260.5001 116.0175,-253.5001"/>
</g>
<!-- Node74 -->
<g id="node3" class="node">
<title>Node74</title>
<g id="a_node3"><a xlink:href="act__integer_8h.html#ae341a07c64345b35f5510fe5d80b6a11" target="_top" xlink:title="act_integer_init">
<polygon fill="none" stroke="#000000" points="258,-361.5 258,-380.5 341,-380.5 341,-361.5 258,-361.5"/>
<text text-anchor="middle" x="299.5" y="-368.5" font-family="Helvetica,sans-Serif" font-size="10.00" fill="#000000">act_integer_init</text>
</a>
</g>
</g>
<!-- Node73&#45;&gt;Node74 -->
<g id="edge2" class="edge">
<title>Node73&#45;&gt;Node74</title>
<path fill="none" stroke="#191970" d="M176.1485,-276.198C185.7481,-297.8327 204.2622,-332.5161 231,-352 238.8795,-357.7418 248.4192,-361.7493 257.844,-364.5459"/>
<polygon fill="#191970" stroke="#191970" points="179.2721,-274.5979 172.1551,-266.7493 172.8243,-277.323 179.2721,-274.5979"/>
</g>
<!-- Node75 -->
<g id="node4" class="node">
<title>Node75</title>
<g id="a_node4"><a xlink:href="cond__ellipsoid_8h.html#a84c4803c1a83edf27c3ac97fbc449bc7" target="_top" xlink:title="cond_ellipsoid_init">
<polygon fill="none" stroke="#000000" points="251.5,-323.5 251.5,-342.5 347.5,-342.5 347.5,-323.5 251.5,-323.5"/>
<text text-anchor="middle" x="299.5" y="-330.5" font-family="Helvetica,sans-Serif" font-size="10.00" fill="#000000">cond_ellipsoid_init</text>
</a>
</g>
</g>
<!-- Node73&#45;&gt;Node75 -->
<g id="edge3" class="edge">
<title>Node73&#45;&gt;Node75</title>
<path fill="none" stroke="#191970" d="M183.2022,-274.2101C194.9395,-286.9255 212.4442,-303.7424 231,-314 237.9126,-317.8213 245.6501,-320.9194 253.3681,-323.4171"/>
<polygon fill="#191970" stroke="#191970" points="185.6398,-271.6851 176.3688,-266.5568 180.4182,-276.3472 185.6398,-271.6851"/>
</g>
<!-- Node76 -->
<g id="node5" class="node">
<title>Node76</title>
<g id="a_node5"><a xlink:href="cond__rectangle_8h.html#a866e9e396e49a53c4f04e5b62b25629a" target="_top" xlink:title="cond_rectangle_init">
<polygon fill="none" stroke="#000000" points="249,-285.5 249,-304.5 350,-304.5 350,-285.5 249,-285.5"/>
<text text-anchor="middle" x="299.5" y="-292.5" font-family="Helvetica,sans-Serif" font-size="10.00" fill="#000000">cond_rectangle_init</text>
</a>
</g>
</g>
<!-- Node73&#45;&gt;Node76 -->
<g id="edge4" class="edge">
<title>Node73&#45;&gt;Node76</title>
<path fill="none" stroke="#191970" d="M204.9327,-268.2401C213.4729,-270.8292 222.5464,-273.543 231,-276 241.9029,-279.1688 253.8161,-282.5139 264.6054,-285.4993"/>
<polygon fill="#191970" stroke="#191970" points="205.8074,-264.8478 195.2214,-265.2809 203.767,-271.5438 205.8074,-264.8478"/>
</g>
<!-- Node77 -->
<g id="node6" class="node">
<title>Node77</title>
<g id="a_node6"><a xlink:href="cond__ternary_8h.html#a602614ad29a8e29ce9fbed0568ede473" target="_top" xlink:title="cond_ternary_init">
<polygon fill="none" stroke="#000000" points="254,-247.5 254,-266.5 345,-266.5 345,-247.5 254,-247.5"/>
<text text-anchor="middle" x="299.5" y="-254.5" font-family="Helvetica,sans-Serif" font-size="10.00" fill="#000000">cond_ternary_init</text>
</a>
</g>
</g>
<!-- Node73&#45;&gt;Node77 -->
<g id="edge5" class="edge">
<title>Node73&#45;&gt;Node77</title>
<path fill="none" stroke="#191970" d="M205.0347,-257C220.19,-257 237.9359,-257 253.9296,-257"/>
<polygon fill="#191970" stroke="#191970" points="205.0098,-253.5001 195.0098,-257 205.0098,-260.5001 205.0098,-253.5001"/>
</g>
<!-- Node78 -->
<g id="node7" class="node">
<title>Node78</title>
<g id="a_node7"><a xlink:href="dgp_8h.html#a10b25afd37a261629da7540c1f7a574c" target="_top" xlink:title="Initialises a new DGP graph. ">
<polygon fill="none" stroke="#000000" points="270,-209.5 270,-228.5 329,-228.5 329,-209.5 270,-209.5"/>
<text text-anchor="middle" x="299.5" y="-216.5" font-family="Helvetica,sans-Serif" font-size="10.00" fill="#000000">graph_init</text>
</a>
</g>
</g>
<!-- Node73&#45;&gt;Node78 -->
<g id="edge6" class="edge">
<title>Node73&#45;&gt;Node78</title>
<path fill="none" stroke="#191970" d="M204.9327,-245.7599C213.4729,-243.1708 222.5464,-240.457 231,-238 243.6805,-234.3145 257.7277,-230.3906 269.7839,-227.0715"/>
<polygon fill="#191970" stroke="#191970" points="203.767,-242.4562 195.2214,-248.7191 205.8074,-249.1522 203.767,-242.4562"/>
</g>
<!-- Node83 -->
<g id="node12" class="node">
<title>Node83</title>
<g id="a_node12"><a xlink:href="gp_8h.html#ae77c9d7102a5e5d3b0ecca6993117e21" target="_top" xlink:title="Creates a random GP tree. ">
<polygon fill="none" stroke="#000000" points="271,-152.5 271,-171.5 328,-171.5 328,-152.5 271,-152.5"/>
<text text-anchor="middle" x="299.5" y="-159.5" font-family="Helvetica,sans-Serif" font-size="10.00" fill="#000000">tree_rand</text>
</a>
</g>
</g>
<!-- Node73&#45;&gt;Node83 -->
<g id="edge11" class="edge">
<title>Node73&#45;&gt;Node83</title>
<path fill="none" stroke="#191970" d="M184.8005,-240.1644C196.9079,-228.1667 214.1716,-212.0888 231,-200 246.3528,-188.9711 265.2283,-178.716 279.2748,-171.6458"/>
<polygon fill="#191970" stroke="#191970" points="182.2037,-237.8124 177.6452,-247.3765 187.173,-242.7426 182.2037,-237.8124"/>
</g>
<!-- Node87 -->
<g id="node16" class="node">
<title>Node87</title>
<g id="a_node16"><a xlink:href="neural__layer__connected_8h.html#adcf59226c12296224d675cfb28892039" target="_top" xlink:title="neural_layer_connected_init">
<polygon fill="none" stroke="#000000" points="231,-57.5 231,-76.5 368,-76.5 368,-57.5 231,-57.5"/>
<text text-anchor="middle" x="299.5" y="-64.5" font-family="Helvetica,sans-Serif" font-size="10.00" fill="#000000">neural_layer_connected_init</text>
</a>
</g>
</g>
<!-- Node73&#45;&gt;Node87 -->
<g id="edge15" class="edge">
<title>Node73&#45;&gt;Node87</title>
<path fill="none" stroke="#191970" d="M177.0869,-238.2965C188.129,-215.0471 208.5731,-174.5797 231,-143 249.3073,-117.2213 275.273,-90.5482 289.3963,-76.6874"/>
<polygon fill="#191970" stroke="#191970" points="173.8943,-236.8614 172.8265,-247.4023 180.2346,-239.8279 173.8943,-236.8614"/>
</g>
<!-- Node79 -->
<g id="node8" class="node">
<title>Node79</title>
<g id="a_node8"><a xlink:href="cond__dgp_8h.html#a37bf08ae23c363518126948e3c6a8427" target="_top" xlink:title="cond_dgp_copy">
<polygon fill="none" stroke="#000000" points="415.5,-304.5 415.5,-323.5 500.5,-323.5 500.5,-304.5 415.5,-304.5"/>
<text text-anchor="middle" x="458" y="-311.5" font-family="Helvetica,sans-Serif" font-size="10.00" fill="#000000">cond_dgp_copy</text>
</a>
</g>
</g>
<!-- Node78&#45;&gt;Node79 -->
<g id="edge7" class="edge">
<title>Node78&#45;&gt;Node79</title>
<path fill="none" stroke="#191970" d="M339.1779,-224.7573C349.2604,-227.5718 359.6046,-231.7619 368,-238 392.0506,-255.8703 380.5685,-276.3254 404,-295 408.8186,-298.8404 414.4706,-301.935 420.2696,-304.4199"/>
<polygon fill="#191970" stroke="#191970" points="339.8054,-221.3086 329.2645,-222.3765 338.1707,-228.115 339.8054,-221.3086"/>
</g>
<!-- Node80 -->
<g id="node9" class="node">
<title>Node80</title>
<g id="a_node9"><a xlink:href="cond__dgp_8h.html#acc170040871580ad44545d370a093309" target="_top" xlink:title="cond_dgp_init">
<polygon fill="none" stroke="#000000" points="419.5,-266.5 419.5,-285.5 496.5,-285.5 496.5,-266.5 419.5,-266.5"/>
<text text-anchor="middle" x="458" y="-273.5" font-family="Helvetica,sans-Serif" font-size="10.00" fill="#000000">cond_dgp_init</text>
</a>
</g>
</g>
<!-- Node78&#45;&gt;Node80 -->
<g id="edge8" class="edge">
<title>Node78&#45;&gt;Node80</title>
<path fill="none" stroke="#191970" d="M339.0454,-228.4094C348.6543,-231.1205 358.8063,-234.3482 368,-238 384.8138,-244.6786 387.422,-249.7558 404,-257 411.7408,-260.3826 420.2945,-263.6136 428.2678,-266.4207"/>
<polygon fill="#191970" stroke="#191970" points="339.8582,-225.0036 329.2915,-225.7749 338.0329,-231.7614 339.8582,-225.0036"/>
</g>
<!-- Node81 -->
<g id="node10" class="node">
<title>Node81</title>
<g id="a_node10"><a xlink:href="rule__dgp_8h.html#a9dda1a5a9d9f219a063c611f103b791c" target="_top" xlink:title="rule_dgp_cond_copy">
<polygon fill="none" stroke="#000000" points="405,-228.5 405,-247.5 511,-247.5 511,-228.5 405,-228.5"/>
<text text-anchor="middle" x="458" y="-235.5" font-family="Helvetica,sans-Serif" font-size="10.00" fill="#000000">rule_dgp_cond_copy</text>
</a>
</g>
</g>
<!-- Node78&#45;&gt;Node81 -->
<g id="edge9" class="edge">
<title>Node78&#45;&gt;Node81</title>
<path fill="none" stroke="#191970" d="M339.2601,-223.7662C359.1324,-226.1484 383.4547,-229.064 404.8998,-231.6347"/>
<polygon fill="#191970" stroke="#191970" points="339.6582,-220.2889 329.3126,-222.5738 338.8249,-227.2392 339.6582,-220.2889"/>
</g>
<!-- Node82 -->
<g id="node11" class="node">
<title>Node82</title>
<g id="a_node11"><a xlink:href="rule__dgp_8h.html#af85402bc11325dca1f496facbf2d3e9b" target="_top" xlink:title="rule_dgp_cond_init">
<polygon fill="none" stroke="#000000" points="409,-190.5 409,-209.5 507,-209.5 507,-190.5 409,-190.5"/>
<text text-anchor="middle" x="458" y="-197.5" font-family="Helvetica,sans-Serif" font-size="10.00" fill="#000000">rule_dgp_cond_init</text>
</a>
</g>
</g>
<!-- Node78&#45;&gt;Node82 -->
<g id="edge10" class="edge">
<title>Node78&#45;&gt;Node82</title>
<path fill="none" stroke="#191970" d="M339.4992,-214.2051C360.5109,-211.6864 386.4472,-208.5773 408.693,-205.9106"/>
<polygon fill="#191970" stroke="#191970" points="338.8249,-210.7608 329.3126,-215.4262 339.6582,-217.7111 338.8249,-210.7608"/>
</g>
<!-- Node84 -->
<g id="node13" class="node">
<title>Node84</title>
<g id="a_node13"><a xlink:href="cond__gp_8h.html#a58dd662ffc31ea5f0b9efa99fc869764" target="_top" xlink:title="cond_gp_init">
<polygon fill="none" stroke="#000000" points="422.5,-152.5 422.5,-171.5 493.5,-171.5 493.5,-152.5 422.5,-152.5"/>
<text text-anchor="middle" x="458" y="-159.5" font-family="Helvetica,sans-Serif" font-size="10.00" fill="#000000">cond_gp_init</text>
</a>
</g>
</g>
<!-- Node83&#45;&gt;Node84 -->
<g id="edge12" class="edge">
<title>Node83&#45;&gt;Node84</title>
<path fill="none" stroke="#191970" d="M338.3192,-162C363.9576,-162 397.3069,-162 422.2875,-162"/>
<polygon fill="#191970" stroke="#191970" points="338.2032,-158.5001 328.2032,-162 338.2031,-165.5001 338.2032,-158.5001"/>
</g>
<!-- Node85 -->
<g id="node14" class="node">
<title>Node85</title>
<g id="a_node14"><a xlink:href="cond__gp_8c.html#ab553edec48ce059a4245c854c4b9b679" target="_top" xlink:title="cond_gp_rand">
<polygon fill="none" stroke="#000000" points="419.5,-114.5 419.5,-133.5 496.5,-133.5 496.5,-114.5 419.5,-114.5"/>
<text text-anchor="middle" x="458" y="-121.5" font-family="Helvetica,sans-Serif" font-size="10.00" fill="#000000">cond_gp_rand</text>
</a>
</g>
</g>
<!-- Node83&#45;&gt;Node85 -->
<g id="edge13" class="edge">
<title>Node83&#45;&gt;Node85</title>
<path fill="none" stroke="#191970" d="M337.9617,-152.7789C362.6643,-146.8565 394.6353,-139.1915 419.3707,-133.2613"/>
<polygon fill="#191970" stroke="#191970" points="337.1116,-149.3834 328.2032,-155.1185 338.7436,-156.1906 337.1116,-149.3834"/>
</g>
<!-- Node86 -->
<g id="node15" class="node">
<title>Node86</title>
<g id="a_node15"><a xlink:href="cond__gp_8h.html#a2f60a0b400444aced3dc0a9ad45bc89a" target="_top" xlink:title="cond_gp_cover">
<polygon fill="none" stroke="#000000" points="548,-114.5 548,-133.5 631,-133.5 631,-114.5 548,-114.5"/>
<text text-anchor="middle" x="589.5" y="-121.5" font-family="Helvetica,sans-Serif" font-size="10.00" fill="#000000">cond_gp_cover</text>
</a>
</g>
</g>
<!-- Node85&#45;&gt;Node86 -->
<g id="edge14" class="edge">
<title>Node85&#45;&gt;Node86</title>
<path fill="none" stroke="#191970" d="M506.8113,-124C520.2911,-124 534.7903,-124 547.8248,-124"/>
<polygon fill="#191970" stroke="#191970" points="506.7431,-120.5001 496.7431,-124 506.7431,-127.5001 506.7431,-120.5001"/>
</g>
<!-- Node88 -->
<g id="node17" class="node">
<title>Node88</title>
<g id="a_node17"><a xlink:href="cond__neural_8h.html#afec4115526e4854e95c8dae631df7cf6" target="_top" xlink:title="cond_neural_init">
<polygon fill="none" stroke="#000000" points="414.5,-76.5 414.5,-95.5 501.5,-95.5 501.5,-76.5 414.5,-76.5"/>
<text text-anchor="middle" x="458" y="-83.5" font-family="Helvetica,sans-Serif" font-size="10.00" fill="#000000">cond_neural_init</text>
</a>
</g>
</g>
<!-- Node87&#45;&gt;Node88 -->
<g id="edge16" class="edge">
<title>Node87&#45;&gt;Node88</title>
<path fill="none" stroke="#191970" d="M378.1043,-76.4226C390.6162,-77.9224 403.1494,-79.4249 414.4566,-80.7803"/>
<polygon fill="#191970" stroke="#191970" points="378.4441,-72.9384 368.0986,-75.2232 377.6109,-79.8886 378.4441,-72.9384"/>
</g>
<!-- Node89 -->
<g id="node18" class="node">
<title>Node89</title>
<g id="a_node18"><a xlink:href="pred__neural_8h.html#a397fa4cc96b4018275cd41fd50292440" target="_top" xlink:title="pred_neural_init">
<polygon fill="none" stroke="#000000" points="415.5,-38.5 415.5,-57.5 500.5,-57.5 500.5,-38.5 415.5,-38.5"/>
<text text-anchor="middle" x="458" y="-45.5" font-family="Helvetica,sans-Serif" font-size="10.00" fill="#000000">pred_neural_init</text>
</a>
</g>
</g>
<!-- Node87&#45;&gt;Node89 -->
<g id="edge17" class="edge">
<title>Node87&#45;&gt;Node89</title>
<path fill="none" stroke="#191970" d="M378.3178,-57.5518C391.0961,-56.02 403.8893,-54.4865 415.3686,-53.1104"/>
<polygon fill="#191970" stroke="#191970" points="377.6109,-54.1114 368.0986,-58.7768 378.4441,-61.0616 377.6109,-54.1114"/>
</g>
<!-- Node90 -->
<g id="node19" class="node">
<title>Node90</title>
<g id="a_node19"><a xlink:href="rule__neural_8h.html#afb90ac6dd347be8fde0402182fcaeacf" target="_top" xlink:title="rule_neural_cond_init">
<polygon fill="none" stroke="#000000" points="404,-.5 404,-19.5 512,-19.5 512,-.5 404,-.5"/>
<text text-anchor="middle" x="458" y="-7.5" font-family="Helvetica,sans-Serif" font-size="10.00" fill="#000000">rule_neural_cond_init</text>
</a>
</g>
</g>
<!-- Node87&#45;&gt;Node90 -->
<g id="edge18" class="edge">
<title>Node87&#45;&gt;Node90</title>
<path fill="none" stroke="#191970" d="M335.0992,-53.9505C355.291,-46.5751 381.0379,-37.2143 404,-29 412.7026,-25.8868 422.2088,-22.528 430.7862,-19.513"/>
<polygon fill="#191970" stroke="#191970" points="333.8599,-50.6769 325.6697,-57.398 336.2635,-57.2513 333.8599,-50.6769"/>
</g>
</g>
</svg>
