<?xml version="1.0" encoding="UTF-8" standalone="no"?>
<!DOCTYPE svg PUBLIC "-//W3C//DTD SVG 1.1//EN"
 "http://www.w3.org/Graphics/SVG/1.1/DTD/svg11.dtd">
<!-- Generated by graphviz version 2.40.1 (20161225.0304)
 -->
<!-- Title: sam_log_normal_init Pages: 1 -->
<svg width="1169pt" height="443pt"
 viewBox="0.00 0.00 1169.00 443.00" xmlns="http://www.w3.org/2000/svg" xmlns:xlink="http://www.w3.org/1999/xlink">
<g id="graph0" class="graph" transform="scale(1 1) rotate(0) translate(4 439)">
<title>sam_log_normal_init</title>
<!-- Node148 -->
<g id="node1" class="node">
<title>Node148</title>
<polygon fill="#bfbfbf" stroke="#000000" points="0,-171.5 0,-190.5 106,-190.5 106,-171.5 0,-171.5"/>
<text text-anchor="middle" x="53" y="-178.5" font-family="Helvetica,sans-Serif" font-size="10.00" fill="#000000">sam_log_normal_init</text>
</g>
<!-- Node149 -->
<g id="node2" class="node">
<title>Node149</title>
<g id="a_node2"><a xlink:href="sam_8h.html#ab529fdda992a0d15c0f798ec3fefe843" target="_top" xlink:title="Initialises a classifier&#39;s self&#45;adaptive mutation rates. ">
<polygon fill="none" stroke="#000000" points="142,-171.5 142,-190.5 195,-190.5 195,-171.5 142,-171.5"/>
<text text-anchor="middle" x="168.5" y="-178.5" font-family="Helvetica,sans-Serif" font-size="10.00" fill="#000000">sam_init</text>
</a>
</g>
</g>
<!-- Node148&#45;&gt;Node149 -->
<g id="edge1" class="edge">
<title>Node148&#45;&gt;Node149</title>
<path fill="none" stroke="#191970" d="M116.2517,-181C125.2905,-181 134.1478,-181 141.9272,-181"/>
<polygon fill="#191970" stroke="#191970" points="116.0175,-177.5001 106.0174,-181 116.0174,-184.5001 116.0175,-177.5001"/>
</g>
<!-- Node150 -->
<g id="node3" class="node">
<title>Node150</title>
<g id="a_node3"><a xlink:href="cl_8h.html#ab76fe4ea183f51174a3797c3cbb1b3bf" target="_top" xlink:title="Initialises a new classifier. ">
<polygon fill="none" stroke="#000000" points="231,-171.5 231,-190.5 273,-190.5 273,-171.5 231,-171.5"/>
<text text-anchor="middle" x="252" y="-178.5" font-family="Helvetica,sans-Serif" font-size="10.00" fill="#000000">cl_init</text>
</a>
</g>
</g>
<!-- Node149&#45;&gt;Node150 -->
<g id="edge2" class="edge">
<title>Node149&#45;&gt;Node150</title>
<path fill="none" stroke="#191970" d="M205.4338,-181C214.1907,-181 223.2341,-181 230.9951,-181"/>
<polygon fill="#191970" stroke="#191970" points="205.3796,-177.5001 195.3795,-181 205.3795,-184.5001 205.3796,-177.5001"/>
</g>
<!-- Node151 -->
<g id="node4" class="node">
<title>Node151</title>
<g id="a_node4"><a xlink:href="ea_8h.html#ae3824341a2f5482cb6ac70b3839ded51" target="_top" xlink:title="Executes the evolutionary algorithm (EA). ">
<polygon fill="none" stroke="#000000" points="420.5,-133.5 420.5,-152.5 449.5,-152.5 449.5,-133.5 420.5,-133.5"/>
<text text-anchor="middle" x="435" y="-140.5" font-family="Helvetica,sans-Serif" font-size="10.00" fill="#000000">ea</text>
</a>
</g>
</g>
<!-- Node150&#45;&gt;Node151 -->
<g id="edge3" class="edge">
<title>Node150&#45;&gt;Node151</title>
<path fill="none" stroke="#191970" d="M282.9003,-173.0964C291.343,-171.0227 300.506,-168.8507 309,-167 349.0344,-158.277 396.6111,-149.6949 420.2063,-145.5574"/>
<polygon fill="#191970" stroke="#191970" points="281.9104,-169.7359 273.0526,-175.5487 283.602,-176.5284 281.9104,-169.7359"/>
</g>
<!-- Node167 -->
<g id="node20" class="node">
<title>Node167</title>
<g id="a_node20"><a xlink:href="cl__set_8h.html#a1e1060f1e8c1f916d798864804078e88" target="_top" xlink:title="Initialises a new population set. ">
<polygon fill="none" stroke="#000000" points="679.5,-171.5 679.5,-190.5 729.5,-190.5 729.5,-171.5 679.5,-171.5"/>
<text text-anchor="middle" x="704.5" y="-178.5" font-family="Helvetica,sans-Serif" font-size="10.00" fill="#000000">pop_init</text>
</a>
</g>
</g>
<!-- Node150&#45;&gt;Node167 -->
<g id="edge22" class="edge">
<title>Node150&#45;&gt;Node167</title>
<path fill="none" stroke="#191970" d="M283.2733,-181C368.1882,-181 601.8558,-181 679.2396,-181"/>
<polygon fill="#191970" stroke="#191970" points="283.2181,-177.5001 273.2181,-181 283.2181,-184.5001 283.2181,-177.5001"/>
</g>
<!-- Node169 -->
<g id="node22" class="node">
<title>Node169</title>
<g id="a_node22"><a xlink:href="cl__set_8c.html#aa4b74b698e7491734e4788fcfae8e27a" target="_top" xlink:title="Ensures all possible actions are covered by the match set. ">
<polygon fill="none" stroke="#000000" points="309,-228.5 309,-247.5 368,-247.5 368,-228.5 309,-228.5"/>
<text text-anchor="middle" x="338.5" y="-235.5" font-family="Helvetica,sans-Serif" font-size="10.00" fill="#000000">set_cover</text>
</a>
</g>
</g>
<!-- Node150&#45;&gt;Node169 -->
<g id="edge28" class="edge">
<title>Node150&#45;&gt;Node169</title>
<path fill="none" stroke="#191970" d="M275.2289,-196.3069C290.7705,-206.5482 310.7377,-219.7058 324.0432,-228.4735"/>
<polygon fill="#191970" stroke="#191970" points="276.9495,-193.2492 266.6735,-190.6693 273.0978,-199.0942 276.9495,-193.2492"/>
</g>
<!-- Node152 -->
<g id="node5" class="node">
<title>Node152</title>
<g id="a_node5"><a xlink:href="xcs__multi__step_8c.html#a1e1c2a3094be715b468dda79cd59ebf3" target="_top" xlink:title="Executes a multi&#45;step trial using a built&#45;in environment. ">
<polygon fill="none" stroke="#000000" points="517,-95.5 517,-114.5 597,-114.5 597,-95.5 517,-95.5"/>
<text text-anchor="middle" x="557" y="-102.5" font-family="Helvetica,sans-Serif" font-size="10.00" fill="#000000">xcs_multi_trial</text>
</a>
</g>
</g>
<!-- Node151&#45;&gt;Node152 -->
<g id="edge4" class="edge">
<title>Node151&#45;&gt;Node152</title>
<path fill="none" stroke="#191970" d="M459.5322,-135.3588C478.8181,-129.3517 505.788,-120.9513 526.47,-114.5093"/>
<polygon fill="#191970" stroke="#191970" points="458.4663,-132.0249 449.9596,-138.3405 460.548,-138.7082 458.4663,-132.0249"/>
</g>
<!-- Node156 -->
<g id="node9" class="node">
<title>Node156</title>
<g id="a_node9"><a xlink:href="xcs__single__step_8h.html#aff4aec035e4573993a7906569f2028f5" target="_top" xlink:title="Creates the action set, updates the classifiers and runs the EA. ">
<polygon fill="none" stroke="#000000" points="508,-133.5 508,-152.5 606,-152.5 606,-133.5 508,-133.5"/>
<text text-anchor="middle" x="557" y="-140.5" font-family="Helvetica,sans-Serif" font-size="10.00" fill="#000000">xcs_single_update</text>
</a>
</g>
</g>
<!-- Node151&#45;&gt;Node156 -->
<g id="edge8" class="edge">
<title>Node151&#45;&gt;Node156</title>
<path fill="none" stroke="#191970" d="M460.1035,-143C473.8851,-143 491.4612,-143 507.8504,-143"/>
<polygon fill="#191970" stroke="#191970" points="459.9596,-139.5001 449.9596,-143 459.9596,-146.5001 459.9596,-139.5001"/>
</g>
<!-- Node161 -->
<g id="node14" class="node">
<title>Node161</title>
<g id="a_node14"><a xlink:href="xcsf_8c.html#a474f4e13cfc5f00958c689cd8c81135a" target="_top" xlink:title="Executes a single XCSF learning trial. ">
<polygon fill="none" stroke="#000000" points="515.5,-247.5 515.5,-266.5 598.5,-266.5 598.5,-247.5 515.5,-247.5"/>
<text text-anchor="middle" x="557" y="-254.5" font-family="Helvetica,sans-Serif" font-size="10.00" fill="#000000">xcsf_learn_trial</text>
</a>
</g>
</g>
<!-- Node151&#45;&gt;Node161 -->
<g id="edge14" class="edge">
<title>Node151&#45;&gt;Node161</title>
<path fill="none" stroke="#191970" d="M443.6348,-161.6077C454.4298,-182.9406 474.8423,-217.5857 502,-238 507.0874,-241.8242 513.0018,-244.9168 519.028,-247.4064"/>
<polygon fill="#191970" stroke="#191970" points="446.7654,-160.0421 439.241,-152.5833 440.4717,-163.1064 446.7654,-160.0421"/>
</g>
<!-- Node153 -->
<g id="node6" class="node">
<title>Node153</title>
<g id="a_node6"><a xlink:href="xcs__multi__step_8h.html#acc29d4a55dbd56c16ea5f19f15a7c677" target="_top" xlink:title="Executes a multi&#45;step reinforcement learning experiment. ">
<polygon fill="none" stroke="#000000" points="799,-.5 799,-19.5 903,-19.5 903,-.5 799,-.5"/>
<text text-anchor="middle" x="851" y="-7.5" font-family="Helvetica,sans-Serif" font-size="10.00" fill="#000000">xcs_multi_step_exp</text>
</a>
</g>
</g>
<!-- Node152&#45;&gt;Node153 -->
<g id="edge5" class="edge">
<title>Node152&#45;&gt;Node153</title>
<path fill="none" stroke="#191970" d="M596.351,-92.2845C656.0634,-72.9897 768.2273,-36.7463 821.4837,-19.5376"/>
<polygon fill="#191970" stroke="#191970" points="594.9753,-89.0508 586.5359,-95.4561 597.1277,-95.7117 594.9753,-89.0508"/>
</g>
<!-- Node154 -->
<g id="node7" class="node">
<title>Node154</title>
<g id="a_node7"><a xlink:href="main_8c.html#ab572a67aa431827116ebd6931d667d21" target="_top" xlink:title="classification">
<polygon fill="none" stroke="#000000" points="977,-95.5 977,-114.5 1051,-114.5 1051,-95.5 977,-95.5"/>
<text text-anchor="middle" x="1014" y="-102.5" font-family="Helvetica,sans-Serif" font-size="10.00" fill="#000000">classification</text>
</a>
</g>
</g>
<!-- Node153&#45;&gt;Node154 -->
<g id="edge6" class="edge">
<title>Node153&#45;&gt;Node154</title>
<path fill="none" stroke="#191970" d="M892.277,-23.2092C896.6437,-24.9935 900.9606,-26.9298 905,-29 943.1861,-48.5705 983.4234,-79.8225 1002.573,-95.4502"/>
<polygon fill="#191970" stroke="#191970" points="893.3165,-19.8595 882.7261,-19.5531 890.8139,-26.3969 893.3165,-19.8595"/>
</g>
<!-- Node155 -->
<g id="node8" class="node">
<title>Node155</title>
<g id="a_node8"><a xlink:href="main_8c.html#a3c04138a5bfe5d72780bb7e82a18e627" target="_top" xlink:title="main">
<polygon fill="none" stroke="#000000" points="1123,-114.5 1123,-133.5 1161,-133.5 1161,-114.5 1123,-114.5"/>
<text text-anchor="middle" x="1142" y="-121.5" font-family="Helvetica,sans-Serif" font-size="10.00" fill="#000000">main</text>
</a>
</g>
</g>
<!-- Node154&#45;&gt;Node155 -->
<g id="edge7" class="edge">
<title>Node154&#45;&gt;Node155</title>
<path fill="none" stroke="#191970" d="M1060.9436,-111.9682C1082.3476,-115.1453 1106.497,-118.73 1122.8263,-121.1539"/>
<polygon fill="#191970" stroke="#191970" points="1061.4285,-108.5019 1051.0229,-110.4956 1060.4006,-115.426 1061.4285,-108.5019"/>
</g>
<!-- Node157 -->
<g id="node10" class="node">
<title>Node157</title>
<g id="a_node10"><a xlink:href="structXCS.html#aedc01ad6f00a54b260a7605929a1d4c9" target="_top" xlink:title="XCS::single_update">
<polygon fill="none" stroke="#000000" points="799,-38.5 799,-57.5 903,-57.5 903,-38.5 799,-38.5"/>
<text text-anchor="middle" x="851" y="-45.5" font-family="Helvetica,sans-Serif" font-size="10.00" fill="#000000">XCS::single_update</text>
</a>
</g>
</g>
<!-- Node156&#45;&gt;Node157 -->
<g id="edge9" class="edge">
<title>Node156&#45;&gt;Node157</title>
<path fill="none" stroke="#191970" d="M596.351,-130.2845C656.0634,-110.9897 768.2273,-74.7463 821.4837,-57.5376"/>
<polygon fill="#191970" stroke="#191970" points="594.9753,-127.0508 586.5359,-133.4561 597.1277,-133.7117 594.9753,-127.0508"/>
</g>
<!-- Node159 -->
<g id="node12" class="node">
<title>Node159</title>
<g id="a_node12"><a xlink:href="xcs__single__step_8c.html#a3d1fd2472d35310800aed897219a65af" target="_top" xlink:title="Executes a single&#45;step trial using a built&#45;in environment. ">
<polygon fill="none" stroke="#000000" points="662.5,-133.5 662.5,-152.5 746.5,-152.5 746.5,-133.5 662.5,-133.5"/>
<text text-anchor="middle" x="704.5" y="-140.5" font-family="Helvetica,sans-Serif" font-size="10.00" fill="#000000">xcs_single_trial</text>
</a>
</g>
</g>
<!-- Node156&#45;&gt;Node159 -->
<g id="edge11" class="edge">
<title>Node156&#45;&gt;Node159</title>
<path fill="none" stroke="#191970" d="M616.4999,-143C631.7432,-143 647.8308,-143 662.0224,-143"/>
<polygon fill="#191970" stroke="#191970" points="616.1154,-139.5001 606.1154,-143 616.1153,-146.5001 616.1154,-139.5001"/>
</g>
<!-- Node158 -->
<g id="node11" class="node">
<title>Node158</title>
<g id="a_node11"><a xlink:href="python__wrapper_8cpp.html#afbdcc1358036a0b83a6b239da2b098a2" target="_top" xlink:title="BOOST_PYTHON_MODULE">
<polygon fill="none" stroke="#000000" points="941,-266.5 941,-285.5 1087,-285.5 1087,-266.5 941,-266.5"/>
<text text-anchor="middle" x="1014" y="-273.5" font-family="Helvetica,sans-Serif" font-size="10.00" fill="#000000">BOOST_PYTHON_MODULE</text>
</a>
</g>
</g>
<!-- Node157&#45;&gt;Node158 -->
<g id="edge10" class="edge">
<title>Node157&#45;&gt;Node158</title>
<path fill="none" stroke="#191970" d="M898.762,-62.3838C900.9651,-63.785 903.0616,-65.3197 905,-67 922.1231,-81.8433 991.2159,-227.4645 1009.5276,-266.4444"/>
<polygon fill="#191970" stroke="#191970" points="900.3147,-59.2451 889.8461,-57.6143 897.0128,-65.4174 900.3147,-59.2451"/>
</g>
<!-- Node160 -->
<g id="node13" class="node">
<title>Node160</title>
<g id="a_node13"><a xlink:href="xcs__single__step_8h.html#a39a031bf59eaa9b33e30e614610dcda8" target="_top" xlink:title="Executes a single&#45;step experiment. ">
<polygon fill="none" stroke="#000000" points="797,-76.5 797,-95.5 905,-95.5 905,-76.5 797,-76.5"/>
<text text-anchor="middle" x="851" y="-83.5" font-family="Helvetica,sans-Serif" font-size="10.00" fill="#000000">xcs_single_step_exp</text>
</a>
</g>
</g>
<!-- Node159&#45;&gt;Node160 -->
<g id="edge12" class="edge">
<title>Node159&#45;&gt;Node160</title>
<path fill="none" stroke="#191970" d="M738.4339,-129.797C765.3334,-119.331 802.2855,-104.9538 826.3992,-95.5716"/>
<polygon fill="#191970" stroke="#191970" points="737.0711,-126.5716 729.0208,-133.4595 739.6094,-133.0952 737.0711,-126.5716"/>
</g>
<!-- Node160&#45;&gt;Node154 -->
<g id="edge13" class="edge">
<title>Node160&#45;&gt;Node154</title>
<path fill="none" stroke="#191970" d="M915.3777,-93.5042C936.2632,-95.9387 958.7197,-98.5563 976.9204,-100.6778"/>
<polygon fill="#191970" stroke="#191970" points="915.6147,-90.0082 905.2766,-92.3267 914.8041,-96.9611 915.6147,-90.0082"/>
</g>
<!-- Node162 -->
<g id="node15" class="node">
<title>Node162</title>
<g id="a_node15"><a xlink:href="xcsf_8h.html#a874829f28fee20f9ad15b540f4b4d6ff" target="_top" xlink:title="Executes MAX_TRIALS number of XCSF learning iterations using the training data. ">
<polygon fill="none" stroke="#000000" points="677.5,-247.5 677.5,-266.5 731.5,-266.5 731.5,-247.5 677.5,-247.5"/>
<text text-anchor="middle" x="704.5" y="-254.5" font-family="Helvetica,sans-Serif" font-size="10.00" fill="#000000">xcsf_fit1</text>
</a>
</g>
</g>
<!-- Node161&#45;&gt;Node162 -->
<g id="edge15" class="edge">
<title>Node161&#45;&gt;Node162</title>
<path fill="none" stroke="#191970" d="M608.8959,-257C632.0137,-257 658.2809,-257 677.4248,-257"/>
<polygon fill="#191970" stroke="#191970" points="608.8731,-253.5001 598.873,-257 608.873,-260.5001 608.8731,-253.5001"/>
</g>
<!-- Node164 -->
<g id="node17" class="node">
<title>Node164</title>
<g id="a_node17"><a xlink:href="xcsf_8h.html#a0b4de57cb9dadc9deca7901aa36e5025" target="_top" xlink:title="Executes MAX_TRIALS number of XCSF learning iterations using the training. data and test iterations u...">
<polygon fill="none" stroke="#000000" points="677.5,-285.5 677.5,-304.5 731.5,-304.5 731.5,-285.5 677.5,-285.5"/>
<text text-anchor="middle" x="704.5" y="-292.5" font-family="Helvetica,sans-Serif" font-size="10.00" fill="#000000">xcsf_fit2</text>
</a>
</g>
</g>
<!-- Node161&#45;&gt;Node164 -->
<g id="edge18" class="edge">
<title>Node161&#45;&gt;Node164</title>
<path fill="none" stroke="#191970" d="M604.223,-269.1659C628.2658,-275.36 656.6482,-282.6721 677.0697,-287.9332"/>
<polygon fill="#191970" stroke="#191970" points="604.7775,-265.6946 594.2205,-266.589 603.0311,-272.4732 604.7775,-265.6946"/>
</g>
<!-- Node163 -->
<g id="node16" class="node">
<title>Node163</title>
<g id="a_node16"><a xlink:href="structXCS.html#ad2ccafe59d2b4ae6d0e1cbc15edee53c" target="_top" xlink:title="XCS::fit">
<polygon fill="none" stroke="#000000" points="825,-228.5 825,-247.5 877,-247.5 877,-228.5 825,-228.5"/>
<text text-anchor="middle" x="851" y="-235.5" font-family="Helvetica,sans-Serif" font-size="10.00" fill="#000000">XCS::fit</text>
</a>
</g>
</g>
<!-- Node162&#45;&gt;Node163 -->
<g id="edge16" class="edge">
<title>Node162&#45;&gt;Node163</title>
<path fill="none" stroke="#191970" d="M741.9437,-252.1438C767.9137,-248.7757 801.8473,-244.3748 824.9182,-241.3826"/>
<polygon fill="#191970" stroke="#191970" points="741.179,-248.7136 731.7122,-253.4708 742.0793,-255.6555 741.179,-248.7136"/>
</g>
<!-- Node163&#45;&gt;Node158 -->
<g id="edge17" class="edge">
<title>Node163&#45;&gt;Node158</title>
<path fill="none" stroke="#191970" d="M887.1831,-246.4353C912.6597,-252.3747 946.7975,-260.3332 973.2362,-266.4968"/>
<polygon fill="#191970" stroke="#191970" points="887.7223,-242.9672 877.1888,-244.1054 886.133,-249.7844 887.7223,-242.9672"/>
</g>
<!-- Node165 -->
<g id="node18" class="node">
<title>Node165</title>
<g id="a_node18"><a xlink:href="main_8c.html#a968c78da8ed8ad08662a86280deec99a" target="_top" xlink:title="regression">
<polygon fill="none" stroke="#000000" points="820,-152.5 820,-171.5 882,-171.5 882,-152.5 820,-152.5"/>
<text text-anchor="middle" x="851" y="-159.5" font-family="Helvetica,sans-Serif" font-size="10.00" fill="#000000">regression</text>
</a>
</g>
</g>
<!-- Node164&#45;&gt;Node165 -->
<g id="edge19" class="edge">
<title>Node164&#45;&gt;Node165</title>
<path fill="none" stroke="#191970" d="M741.3299,-287.8501C748.5185,-285.0949 755.5161,-281.2803 761,-276 793.5254,-244.6821 764.6933,-212.5435 797,-181 803.2577,-174.8902 811.594,-170.7357 819.8406,-167.9143"/>
<polygon fill="#191970" stroke="#191970" points="739.9886,-284.6045 731.5333,-290.9886 742.1244,-291.2707 739.9886,-284.6045"/>
</g>
<!-- Node166 -->
<g id="node19" class="node">
<title>Node166</title>
<g id="a_node19"><a xlink:href="structXCS.html#a7d53320740db8e846251bacd0238a9fb" target="_top" xlink:title="XCS::fit">
<polygon fill="none" stroke="#000000" points="825,-304.5 825,-323.5 877,-323.5 877,-304.5 825,-304.5"/>
<text text-anchor="middle" x="851" y="-311.5" font-family="Helvetica,sans-Serif" font-size="10.00" fill="#000000">XCS::fit</text>
</a>
</g>
</g>
<!-- Node164&#45;&gt;Node166 -->
<g id="edge21" class="edge">
<title>Node164&#45;&gt;Node166</title>
<path fill="none" stroke="#191970" d="M741.9437,-299.8562C767.9137,-303.2243 801.8473,-307.6252 824.9182,-310.6174"/>
<polygon fill="#191970" stroke="#191970" points="742.0793,-296.3445 731.7122,-298.5292 741.179,-303.2864 742.0793,-296.3445"/>
</g>
<!-- Node165&#45;&gt;Node155 -->
<g id="edge20" class="edge">
<title>Node165&#45;&gt;Node155</title>
<path fill="none" stroke="#191970" d="M892.2431,-156.6143C955.9887,-148.2901 1075.966,-132.623 1122.6884,-126.5218"/>
<polygon fill="#191970" stroke="#191970" points="891.6047,-153.1679 882.1421,-157.9333 892.5111,-160.1089 891.6047,-153.1679"/>
</g>
<!-- Node167&#45;&gt;Node154 -->
<g id="edge23" class="edge">
<title>Node167&#45;&gt;Node154</title>
<path fill="none" stroke="#191970" d="M739.2305,-170.3042C746.5048,-167.7911 754.0684,-164.9717 761,-162 777.628,-154.8713 779.8815,-148.8537 797,-143 857.9793,-122.1478 932.6963,-112.2828 976.6484,-107.9752"/>
<polygon fill="#191970" stroke="#191970" points="737.9542,-167.0404 729.5771,-173.5268 740.1708,-173.6802 737.9542,-167.0404"/>
</g>
<!-- Node167&#45;&gt;Node163 -->
<g id="edge24" class="edge">
<title>Node167&#45;&gt;Node163</title>
<path fill="none" stroke="#191970" d="M739.2305,-191.6958C746.5048,-194.2089 754.0684,-197.0283 761,-200 777.628,-207.1287 780.422,-211.7558 797,-219 805.9247,-222.8999 815.9299,-226.5983 824.8805,-229.678"/>
<polygon fill="#191970" stroke="#191970" points="740.1708,-188.3198 729.5771,-188.4732 737.9542,-194.9596 740.1708,-188.3198"/>
</g>
<!-- Node167&#45;&gt;Node165 -->
<g id="edge25" class="edge">
<title>Node167&#45;&gt;Node165</title>
<path fill="none" stroke="#191970" d="M739.6174,-176.4455C764.0266,-173.2798 796.2693,-169.0982 819.7805,-166.0489"/>
<polygon fill="#191970" stroke="#191970" points="739.151,-172.9766 729.6842,-177.7338 740.0514,-179.9185 739.151,-172.9766"/>
</g>
<!-- Node168 -->
<g id="node21" class="node">
<title>Node168</title>
<g id="a_node21"><a xlink:href="structXCS.html#ab58a4fb495b05f3450b182bc21dcba1f" target="_top" xlink:title="XCS::single_reset">
<polygon fill="none" stroke="#000000" points="803,-190.5 803,-209.5 899,-209.5 899,-190.5 803,-190.5"/>
<text text-anchor="middle" x="851" y="-197.5" font-family="Helvetica,sans-Serif" font-size="10.00" fill="#000000">XCS::single_reset</text>
</a>
</g>
</g>
<!-- Node167&#45;&gt;Node168 -->
<g id="edge26" class="edge">
<title>Node167&#45;&gt;Node168</title>
<path fill="none" stroke="#191970" d="M739.6603,-185.56C758.5745,-188.0131 782.183,-191.0749 802.7871,-193.7471"/>
<polygon fill="#191970" stroke="#191970" points="740.0514,-182.0815 729.6842,-184.2662 739.151,-189.0234 740.0514,-182.0815"/>
</g>
<!-- Node168&#45;&gt;Node158 -->
<g id="edge27" class="edge">
<title>Node168&#45;&gt;Node158</title>
<path fill="none" stroke="#191970" d="M890.0744,-212.9973C895.1396,-214.901 900.2235,-216.9235 905,-219 938.6851,-233.6436 976.3102,-254.3406 997.3749,-266.3464"/>
<polygon fill="#191970" stroke="#191970" points="891.0366,-209.6232 880.4424,-209.5001 888.6475,-216.2029 891.0366,-209.6232"/>
</g>
<!-- Node170 -->
<g id="node23" class="node">
<title>Node170</title>
<g id="a_node23"><a xlink:href="cl__set_8h.html#af3bea0b4d03654b9d6cb08fbf272c847" target="_top" xlink:title="Constructs the match set. ">
<polygon fill="none" stroke="#000000" points="404,-247.5 404,-266.5 466,-266.5 466,-247.5 404,-247.5"/>
<text text-anchor="middle" x="435" y="-254.5" font-family="Helvetica,sans-Serif" font-size="10.00" fill="#000000">set_match</text>
</a>
</g>
</g>
<!-- Node169&#45;&gt;Node170 -->
<g id="edge29" class="edge">
<title>Node169&#45;&gt;Node170</title>
<path fill="none" stroke="#191970" d="M378.0832,-245.7936C386.674,-247.485 395.6438,-249.2511 403.8545,-250.8677"/>
<polygon fill="#191970" stroke="#191970" points="378.7284,-242.3535 368.2406,-243.8557 377.3761,-249.2216 378.7284,-242.3535"/>
</g>
<!-- Node170&#45;&gt;Node152 -->
<g id="edge30" class="edge">
<title>Node170&#45;&gt;Node152</title>
<path fill="none" stroke="#191970" d="M439.7073,-237.7433C447.7013,-208.9948 466.6166,-154.9325 502,-124 506.4113,-120.1436 511.647,-117.0593 517.1069,-114.5953"/>
<polygon fill="#191970" stroke="#191970" points="436.3207,-236.8601 437.1667,-247.4211 443.0912,-238.6375 436.3207,-236.8601"/>
</g>
<!-- Node170&#45;&gt;Node161 -->
<g id="edge35" class="edge">
<title>Node170&#45;&gt;Node161</title>
<path fill="none" stroke="#191970" d="M476.3267,-257C488.915,-257 502.7551,-257 515.3637,-257"/>
<polygon fill="#191970" stroke="#191970" points="476.1015,-253.5001 466.1014,-257 476.1014,-260.5001 476.1015,-253.5001"/>
</g>
<!-- Node171 -->
<g id="node24" class="node">
<title>Node171</title>
<g id="a_node24"><a xlink:href="xcs__single__step_8h.html#a6cd0f3c0c1c71e13dba1ce493ef873a5" target="_top" xlink:title="Constructs the match set and selects an action to perform. ">
<polygon fill="none" stroke="#000000" points="505,-209.5 505,-228.5 609,-228.5 609,-209.5 505,-209.5"/>
<text text-anchor="middle" x="557" y="-216.5" font-family="Helvetica,sans-Serif" font-size="10.00" fill="#000000">xcs_single_decision</text>
</a>
</g>
</g>
<!-- Node170&#45;&gt;Node171 -->
<g id="edge31" class="edge">
<title>Node170&#45;&gt;Node171</title>
<path fill="none" stroke="#191970" d="M475.7108,-244.3196C492.195,-239.1852 510.91,-233.3559 526.2241,-228.5859"/>
<polygon fill="#191970" stroke="#191970" points="474.2925,-241.0954 465.7858,-247.411 476.3742,-247.7787 474.2925,-241.0954"/>
</g>
<!-- Node173 -->
<g id="node26" class="node">
<title>Node173</title>
<g id="a_node26"><a xlink:href="xcsf_8h.html#af0b9db7273578fdff649d46823cd9790" target="_top" xlink:title="Calculates the XCSF predictions for the provided input. ">
<polygon fill="none" stroke="#000000" points="522,-389.5 522,-408.5 592,-408.5 592,-389.5 522,-389.5"/>
<text text-anchor="middle" x="557" y="-396.5" font-family="Helvetica,sans-Serif" font-size="10.00" fill="#000000">xcsf_predict</text>
</a>
</g>
</g>
<!-- Node170&#45;&gt;Node173 -->
<g id="edge36" class="edge">
<title>Node170&#45;&gt;Node173</title>
<path fill="none" stroke="#191970" d="M442.2443,-276.116C452.3851,-300.7338 472.8933,-343.6016 502,-371 510.2701,-378.7847 521.1212,-384.9233 530.9979,-389.4442"/>
<polygon fill="#191970" stroke="#191970" points="445.4813,-274.7839 438.5382,-266.7812 438.9753,-277.367 445.4813,-274.7839"/>
</g>
<!-- Node175 -->
<g id="node28" class="node">
<title>Node175</title>
<g id="a_node28"><a xlink:href="xcsf_8h.html#ae1f6851f682e015601030a5c725c6618" target="_top" xlink:title="Prints the XCSF match set for the supplied input. ">
<polygon fill="none" stroke="#000000" points="502,-342.5 502,-361.5 612,-361.5 612,-342.5 502,-342.5"/>
<text text-anchor="middle" x="557" y="-349.5" font-family="Helvetica,sans-Serif" font-size="10.00" fill="#000000">xcsf_print_match_set</text>
</a>
</g>
</g>
<!-- Node170&#45;&gt;Node175 -->
<g id="edge39" class="edge">
<title>Node170&#45;&gt;Node175</title>
<path fill="none" stroke="#191970" d="M453.1356,-273.289C466.3872,-284.9766 484.9464,-300.9072 502,-314 515.2563,-324.1775 531.0016,-334.9288 542.2414,-342.3881"/>
<polygon fill="#191970" stroke="#191970" points="455.4323,-270.6476 445.6315,-266.6233 450.7836,-275.8811 455.4323,-270.6476"/>
</g>
<!-- Node177 -->
<g id="node30" class="node">
<title>Node177</title>
<g id="a_node30"><a xlink:href="xcsf_8c.html#aa6edd3962ddd04940e2c78a4f99de7cd" target="_top" xlink:title="Executes a single XCSF testing trial. ">
<polygon fill="none" stroke="#000000" points="518,-285.5 518,-304.5 596,-304.5 596,-285.5 518,-285.5"/>
<text text-anchor="middle" x="557" y="-292.5" font-family="Helvetica,sans-Serif" font-size="10.00" fill="#000000">xcsf_test_trial</text>
</a>
</g>
</g>
<!-- Node170&#45;&gt;Node177 -->
<g id="edge42" class="edge">
<title>Node170&#45;&gt;Node177</title>
<path fill="none" stroke="#191970" d="M475.7108,-269.6804C492.195,-274.8148 510.91,-280.6441 526.2241,-285.4141"/>
<polygon fill="#191970" stroke="#191970" points="476.3742,-266.2213 465.7858,-266.589 474.2925,-272.9046 476.3742,-266.2213"/>
</g>
<!-- Node171&#45;&gt;Node159 -->
<g id="edge34" class="edge">
<title>Node171&#45;&gt;Node159</title>
<path fill="none" stroke="#191970" d="M578.5446,-203.4698C596.4816,-191.0485 623.0323,-173.8152 648,-162 655.4834,-158.4587 663.8073,-155.2752 671.7155,-152.5718"/>
<polygon fill="#191970" stroke="#191970" points="576.1727,-200.8588 570.0039,-209.4725 580.1979,-206.5858 576.1727,-200.8588"/>
</g>
<!-- Node172 -->
<g id="node25" class="node">
<title>Node172</title>
<g id="a_node25"><a xlink:href="structXCS.html#a94d556a5e545ec415d7165d5e91b21d4" target="_top" xlink:title="XCS::single_decision">
<polygon fill="none" stroke="#000000" points="649.5,-209.5 649.5,-228.5 759.5,-228.5 759.5,-209.5 649.5,-209.5"/>
<text text-anchor="middle" x="704.5" y="-216.5" font-family="Helvetica,sans-Serif" font-size="10.00" fill="#000000">XCS::single_decision</text>
</a>
</g>
</g>
<!-- Node171&#45;&gt;Node172 -->
<g id="edge32" class="edge">
<title>Node171&#45;&gt;Node172</title>
<path fill="none" stroke="#191970" d="M619.3073,-219C629.3263,-219 639.6341,-219 649.4667,-219"/>
<polygon fill="#191970" stroke="#191970" points="619.003,-215.5001 609.003,-219 619.0029,-222.5001 619.003,-215.5001"/>
</g>
<!-- Node172&#45;&gt;Node158 -->
<g id="edge33" class="edge">
<title>Node172&#45;&gt;Node158</title>
<path fill="none" stroke="#191970" d="M745.3796,-231.8721C750.6848,-233.7974 756.0064,-235.8592 761,-238 777.628,-245.1287 779.6457,-251.8877 797,-257 843.6153,-270.732 898.1078,-275.4655 940.8246,-276.7744"/>
<polygon fill="#191970" stroke="#191970" points="746.5174,-228.5623 735.9226,-228.5668 744.2078,-235.1703 746.5174,-228.5623"/>
</g>
<!-- Node174 -->
<g id="node27" class="node">
<title>Node174</title>
<g id="a_node27"><a xlink:href="structXCS.html#a911ed75c86abed7807d33eb1385240ed" target="_top" xlink:title="XCS::predict">
<polygon fill="none" stroke="#000000" points="668,-415.5 668,-434.5 741,-434.5 741,-415.5 668,-415.5"/>
<text text-anchor="middle" x="704.5" y="-422.5" font-family="Helvetica,sans-Serif" font-size="10.00" fill="#000000">XCS::predict</text>
</a>
</g>
</g>
<!-- Node173&#45;&gt;Node174 -->
<g id="edge37" class="edge">
<title>Node173&#45;&gt;Node174</title>
<path fill="none" stroke="#191970" d="M602.3334,-406.991C623.3834,-410.7015 648.0797,-415.0547 667.9179,-418.5516"/>
<polygon fill="#191970" stroke="#191970" points="602.7857,-403.5168 592.3299,-405.2276 601.5705,-410.4105 602.7857,-403.5168"/>
</g>
<!-- Node174&#45;&gt;Node158 -->
<g id="edge38" class="edge">
<title>Node174&#45;&gt;Node158</title>
<path fill="none" stroke="#191970" d="M751.21,-426.3084C793.6838,-425.5885 856.8892,-419.6131 905,-394 954.9736,-367.3953 994.2313,-308.7856 1008.3445,-285.6579"/>
<polygon fill="#191970" stroke="#191970" points="751.119,-422.8089 741.1468,-426.3873 751.1739,-429.8087 751.119,-422.8089"/>
</g>
<!-- Node176 -->
<g id="node29" class="node">
<title>Node176</title>
<g id="a_node29"><a xlink:href="structXCS.html#aa5608b379fae01b724267a99068d55bb" target="_top" xlink:title="XCS::print_match_set">
<polygon fill="none" stroke="#000000" points="648,-375.5 648,-394.5 761,-394.5 761,-375.5 648,-375.5"/>
<text text-anchor="middle" x="704.5" y="-382.5" font-family="Helvetica,sans-Serif" font-size="10.00" fill="#000000">XCS::print_match_set</text>
</a>
</g>
</g>
<!-- Node175&#45;&gt;Node176 -->
<g id="edge40" class="edge">
<title>Node175&#45;&gt;Node176</title>
<path fill="none" stroke="#191970" d="M609.5517,-363.7573C626.7295,-367.6005 645.5841,-371.8188 661.9328,-375.4765"/>
<polygon fill="#191970" stroke="#191970" points="610.186,-360.3128 599.6631,-361.545 608.6577,-367.1439 610.186,-360.3128"/>
</g>
<!-- Node176&#45;&gt;Node158 -->
<g id="edge41" class="edge">
<title>Node176&#45;&gt;Node158</title>
<path fill="none" stroke="#191970" d="M771.3697,-390.7842C811.5583,-391.7548 862.8987,-388.4683 905,-371 950.6759,-352.0485 990.6012,-306.0076 1006.5781,-285.7922"/>
<polygon fill="#191970" stroke="#191970" points="771.2535,-387.2785 761.1416,-390.4406 771.0184,-394.2745 771.2535,-387.2785"/>
</g>
<!-- Node177&#45;&gt;Node164 -->
<g id="edge43" class="edge">
<title>Node177&#45;&gt;Node164</title>
<path fill="none" stroke="#191970" d="M606.3635,-295C630.0342,-295 657.4816,-295 677.32,-295"/>
<polygon fill="#191970" stroke="#191970" points="606.1401,-291.5001 596.14,-295 606.14,-298.5001 606.1401,-291.5001"/>
</g>
<!-- Node178 -->
<g id="node31" class="node">
<title>Node178</title>
<g id="a_node31"><a xlink:href="xcsf_8h.html#a2cf95733e5f97410d94211b72e835847" target="_top" xlink:title="Calculates the XCSF error for the input data. ">
<polygon fill="none" stroke="#000000" points="672,-332.5 672,-351.5 737,-351.5 737,-332.5 672,-332.5"/>
<text text-anchor="middle" x="704.5" y="-339.5" font-family="Helvetica,sans-Serif" font-size="10.00" fill="#000000">xcsf_score</text>
</a>
</g>
</g>
<!-- Node177&#45;&gt;Node178 -->
<g id="edge44" class="edge">
<title>Node177&#45;&gt;Node178</title>
<path fill="none" stroke="#191970" d="M596.5604,-307.6057C621.0396,-315.4058 651.9725,-325.2624 674.4428,-332.4224"/>
<polygon fill="#191970" stroke="#191970" points="597.4395,-304.2125 586.8488,-304.5112 595.3142,-310.8821 597.4395,-304.2125"/>
</g>
<!-- Node179 -->
<g id="node32" class="node">
<title>Node179</title>
<g id="a_node32"><a xlink:href="structXCS.html#aa77bc77484d6d14bf512304a23cfec88" target="_top" xlink:title="XCS::score">
<polygon fill="none" stroke="#000000" points="817,-342.5 817,-361.5 885,-361.5 885,-342.5 817,-342.5"/>
<text text-anchor="middle" x="851" y="-349.5" font-family="Helvetica,sans-Serif" font-size="10.00" fill="#000000">XCS::score</text>
</a>
</g>
</g>
<!-- Node178&#45;&gt;Node179 -->
<g id="edge45" class="edge">
<title>Node178&#45;&gt;Node179</title>
<path fill="none" stroke="#191970" d="M747.1544,-344.9116C769.3077,-346.4237 796.0127,-348.2466 816.7938,-349.6651"/>
<polygon fill="#191970" stroke="#191970" points="747.2283,-341.4086 737.0131,-344.2193 746.7515,-348.3923 747.2283,-341.4086"/>
</g>
<!-- Node179&#45;&gt;Node158 -->
<g id="edge46" class="edge">
<title>Node179&#45;&gt;Node158</title>
<path fill="none" stroke="#191970" d="M890.0744,-339.0027C895.1396,-337.099 900.2235,-335.0765 905,-333 938.6851,-318.3564 976.3102,-297.6594 997.3749,-285.6536"/>
<polygon fill="#191970" stroke="#191970" points="888.6475,-335.7971 880.4424,-342.4999 891.0366,-342.3768 888.6475,-335.7971"/>
</g>
</g>
</svg>
