<?xml version="1.0" encoding="UTF-8" standalone="no"?>
<!DOCTYPE svg PUBLIC "-//W3C//DTD SVG 1.1//EN"
 "http://www.w3.org/Graphics/SVG/1.1/DTD/svg11.dtd">
<!-- Generated by graphviz version 2.40.1 (20161225.0304)
 -->
<!-- Title: sam_free Pages: 1 -->
<svg width="1155pt" height="457pt"
 viewBox="0.00 0.00 1155.00 457.28" xmlns="http://www.w3.org/2000/svg" xmlns:xlink="http://www.w3.org/1999/xlink">
<g id="graph0" class="graph" transform="scale(1 1) rotate(0) translate(4 453.2808)">
<title>sam_free</title>
<!-- Node47 -->
<g id="node1" class="node">
<title>Node47</title>
<polygon fill="#bfbfbf" stroke="#000000" points="0,-220.7808 0,-239.7808 57,-239.7808 57,-220.7808 0,-220.7808"/>
<text text-anchor="middle" x="28.5" y="-227.7808" font-family="Helvetica,sans-Serif" font-size="10.00" fill="#000000">sam_free</text>
</g>
<!-- Node48 -->
<g id="node2" class="node">
<title>Node48</title>
<g id="a_node2"><a xlink:href="cl_8h.html#a7bf8d03856a0c04854cfd99fcd45b32a" target="_top" xlink:title="Frees the memory used by the classifier. ">
<polygon fill="none" stroke="#000000" points="93,-220.7808 93,-239.7808 139,-239.7808 139,-220.7808 93,-220.7808"/>
<text text-anchor="middle" x="116" y="-227.7808" font-family="Helvetica,sans-Serif" font-size="10.00" fill="#000000">cl_free</text>
</a>
</g>
</g>
<!-- Node47&#45;&gt;Node48 -->
<g id="edge1" class="edge">
<title>Node47&#45;&gt;Node48</title>
<path fill="none" stroke="#191970" d="M67.2027,-230.2808C75.9445,-230.2808 84.9588,-230.2808 92.8243,-230.2808"/>
<polygon fill="#191970" stroke="#191970" points="67.1508,-226.7809 57.1508,-230.2808 67.1507,-233.7809 67.1508,-226.7809"/>
</g>
<!-- Node49 -->
<g id="node3" class="node">
<title>Node49</title>
<g id="a_node3"><a xlink:href="ea_8c.html#a14278fc032b7fb0c473e11764ab1c4d1" target="_top" xlink:title="Adds offspring to the population. ">
<polygon fill="none" stroke="#000000" points="283,-248.7808 283,-267.7808 331,-267.7808 331,-248.7808 283,-248.7808"/>
<text text-anchor="middle" x="307" y="-255.7808" font-family="Helvetica,sans-Serif" font-size="10.00" fill="#000000">ea_add</text>
</a>
</g>
</g>
<!-- Node48&#45;&gt;Node49 -->
<g id="edge2" class="edge">
<title>Node48&#45;&gt;Node49</title>
<path fill="none" stroke="#191970" d="M148.7272,-242.3802C157.1808,-245.0721 166.341,-247.6172 175,-249.2808 212.2196,-256.4316 256.2963,-258.1034 282.9291,-258.3883"/>
<polygon fill="#191970" stroke="#191970" points="149.7942,-239.0466 139.2005,-239.1968 147.5756,-245.6857 149.7942,-239.0466"/>
</g>
<!-- Node66 -->
<g id="node20" class="node">
<title>Node66</title>
<g id="a_node20"><a xlink:href="ea_8c.html#afe1eb3a920dc0bbcd5f737b9cdda2170" target="_top" xlink:title="Performs evolutionary algorithm subsumption. ">
<polygon fill="none" stroke="#000000" points="175,-220.7808 175,-239.7808 247,-239.7808 247,-220.7808 175,-220.7808"/>
<text text-anchor="middle" x="211" y="-227.7808" font-family="Helvetica,sans-Serif" font-size="10.00" fill="#000000">ea_subsume</text>
</a>
</g>
</g>
<!-- Node48&#45;&gt;Node66 -->
<g id="edge22" class="edge">
<title>Node48&#45;&gt;Node66</title>
<path fill="none" stroke="#191970" d="M149.7462,-230.2808C157.8798,-230.2808 166.6022,-230.2808 174.8411,-230.2808"/>
<polygon fill="#191970" stroke="#191970" points="149.4832,-226.7809 139.4832,-230.2808 149.4831,-233.7809 149.4832,-226.7809"/>
</g>
<!-- Node67 -->
<g id="node21" class="node">
<title>Node67</title>
<g id="a_node21"><a xlink:href="cl__set_8h.html#a0b2479df1a61213f1f150907c62278bb" target="_top" xlink:title="Frees the set and the classifiers. ">
<polygon fill="none" stroke="#000000" points="457.5,-182.7808 457.5,-201.7808 504.5,-201.7808 504.5,-182.7808 457.5,-182.7808"/>
<text text-anchor="middle" x="481" y="-189.7808" font-family="Helvetica,sans-Serif" font-size="10.00" fill="#000000">set_kill</text>
</a>
</g>
</g>
<!-- Node48&#45;&gt;Node67 -->
<g id="edge24" class="edge">
<title>Node48&#45;&gt;Node67</title>
<path fill="none" stroke="#191970" d="M148.7203,-218.145C157.1739,-215.4538 166.336,-212.9182 175,-211.2808 278.8186,-191.661 405.6138,-191.0438 457.335,-191.7564"/>
<polygon fill="#191970" stroke="#191970" points="147.5675,-214.8399 139.194,-221.3312 149.7878,-221.4784 147.5675,-214.8399"/>
</g>
<!-- Node50 -->
<g id="node4" class="node">
<title>Node50</title>
<g id="a_node4"><a xlink:href="ea_8h.html#ae3824341a2f5482cb6ac70b3839ded51" target="_top" xlink:title="Executes the evolutionary algorithm (EA). ">
<polygon fill="none" stroke="#000000" points="367,-248.7808 367,-267.7808 396,-267.7808 396,-248.7808 367,-248.7808"/>
<text text-anchor="middle" x="381.5" y="-255.7808" font-family="Helvetica,sans-Serif" font-size="10.00" fill="#000000">ea</text>
</a>
</g>
</g>
<!-- Node49&#45;&gt;Node50 -->
<g id="edge3" class="edge">
<title>Node49&#45;&gt;Node50</title>
<path fill="none" stroke="#191970" d="M341.613,-258.2808C350.5007,-258.2808 359.5897,-258.2808 366.8423,-258.2808"/>
<polygon fill="#191970" stroke="#191970" points="341.3941,-254.7809 331.3941,-258.2808 341.3941,-261.7809 341.3941,-254.7809"/>
</g>
<!-- Node51 -->
<g id="node5" class="node">
<title>Node51</title>
<g id="a_node5"><a xlink:href="xcs__multi__step_8c.html#a617d9e432dc180dccf0c5ef11a94f79f" target="_top" xlink:title="Executes a multi&#45;step explore trial. ">
<polygon fill="none" stroke="#000000" points="573.5,-49.7808 573.5,-68.7808 668.5,-68.7808 668.5,-49.7808 573.5,-49.7808"/>
<text text-anchor="middle" x="621" y="-56.7808" font-family="Helvetica,sans-Serif" font-size="10.00" fill="#000000">xcs_multi_explore</text>
</a>
</g>
</g>
<!-- Node50&#45;&gt;Node51 -->
<g id="edge4" class="edge">
<title>Node50&#45;&gt;Node51</title>
<path fill="none" stroke="#191970" d="M389.8305,-239.4656C398.5468,-221.1777 413.5263,-193.3074 432,-173.2808 481.4992,-119.6206 501.0669,-111.6466 566,-78.2808 573.0087,-74.6794 580.8523,-71.5088 588.3715,-68.8407"/>
<polygon fill="#191970" stroke="#191970" points="386.5532,-238.2149 385.5466,-248.7618 392.9106,-241.1446 386.5532,-238.2149"/>
</g>
<!-- Node55 -->
<g id="node9" class="node">
<title>Node55</title>
<g id="a_node9"><a xlink:href="xcs__single__step_8h.html#aff4aec035e4573993a7906569f2028f5" target="_top" xlink:title="Creates the action set, updates the classifiers and runs the EA. ">
<polygon fill="none" stroke="#000000" points="432,-248.7808 432,-267.7808 530,-267.7808 530,-248.7808 432,-248.7808"/>
<text text-anchor="middle" x="481" y="-255.7808" font-family="Helvetica,sans-Serif" font-size="10.00" fill="#000000">xcs_single_update</text>
</a>
</g>
</g>
<!-- Node50&#45;&gt;Node55 -->
<g id="edge8" class="edge">
<title>Node50&#45;&gt;Node55</title>
<path fill="none" stroke="#191970" d="M406.2801,-258.2808C414.0174,-258.2808 422.8425,-258.2808 431.6508,-258.2808"/>
<polygon fill="#191970" stroke="#191970" points="406.1816,-254.7809 396.1816,-258.2808 406.1815,-261.7809 406.1816,-254.7809"/>
</g>
<!-- Node60 -->
<g id="node14" class="node">
<title>Node60</title>
<g id="a_node14"><a xlink:href="xcsf_8c.html#a474f4e13cfc5f00958c689cd8c81135a" target="_top" xlink:title="Executes a single XCSF learning trial. ">
<polygon fill="none" stroke="#000000" points="579.5,-353.7808 579.5,-372.7808 662.5,-372.7808 662.5,-353.7808 579.5,-353.7808"/>
<text text-anchor="middle" x="621" y="-360.7808" font-family="Helvetica,sans-Serif" font-size="10.00" fill="#000000">xcsf_learn_trial</text>
</a>
</g>
</g>
<!-- Node50&#45;&gt;Node60 -->
<g id="edge14" class="edge">
<title>Node50&#45;&gt;Node60</title>
<path fill="none" stroke="#191970" d="M405.4421,-270.4152C440.295,-287.8548 507.2591,-320.5187 566,-344.2808 574.2413,-347.6146 583.3157,-350.9015 591.6767,-353.7799"/>
<polygon fill="#191970" stroke="#191970" points="406.605,-267.0826 396.0983,-265.719 403.4614,-273.337 406.605,-267.0826"/>
</g>
<!-- Node52 -->
<g id="node6" class="node">
<title>Node52</title>
<g id="a_node6"><a xlink:href="xcs__multi__step_8h.html#acc29d4a55dbd56c16ea5f19f15a7c677" target="_top" xlink:title="Executes a multi&#45;step reinforcement learning experiment. ">
<polygon fill="none" stroke="#000000" points="716.5,-49.7808 716.5,-68.7808 820.5,-68.7808 820.5,-49.7808 716.5,-49.7808"/>
<text text-anchor="middle" x="768.5" y="-56.7808" font-family="Helvetica,sans-Serif" font-size="10.00" fill="#000000">xcs_multi_step_exp</text>
</a>
</g>
</g>
<!-- Node51&#45;&gt;Node52 -->
<g id="edge5" class="edge">
<title>Node51&#45;&gt;Node52</title>
<path fill="none" stroke="#191970" d="M679.0328,-59.2808C691.3175,-59.2808 704.2124,-59.2808 716.2667,-59.2808"/>
<polygon fill="#191970" stroke="#191970" points="678.8891,-55.7809 668.889,-59.2808 678.889,-62.7809 678.8891,-55.7809"/>
</g>
<!-- Node53 -->
<g id="node7" class="node">
<title>Node53</title>
<g id="a_node7"><a xlink:href="main_8c.html#ab572a67aa431827116ebd6931d667d21" target="_top" xlink:title="classification">
<polygon fill="none" stroke="#000000" points="876,-87.7808 876,-106.7808 950,-106.7808 950,-87.7808 876,-87.7808"/>
<text text-anchor="middle" x="913" y="-94.7808" font-family="Helvetica,sans-Serif" font-size="10.00" fill="#000000">classification</text>
</a>
</g>
</g>
<!-- Node52&#45;&gt;Node53 -->
<g id="edge6" class="edge">
<title>Node52&#45;&gt;Node53</title>
<path fill="none" stroke="#191970" d="M814.8325,-71.4652C834.8939,-76.7408 858.0285,-82.8247 876.7988,-87.7608"/>
<polygon fill="#191970" stroke="#191970" points="815.5248,-68.0283 804.9635,-68.8698 813.7445,-74.7981 815.5248,-68.0283"/>
</g>
<!-- Node54 -->
<g id="node8" class="node">
<title>Node54</title>
<g id="a_node8"><a xlink:href="main_8c.html#a3c04138a5bfe5d72780bb7e82a18e627" target="_top" xlink:title="main">
<polygon fill="none" stroke="#000000" points="1055,-87.7808 1055,-106.7808 1093,-106.7808 1093,-87.7808 1055,-87.7808"/>
<text text-anchor="middle" x="1074" y="-94.7808" font-family="Helvetica,sans-Serif" font-size="10.00" fill="#000000">main</text>
</a>
</g>
</g>
<!-- Node53&#45;&gt;Node54 -->
<g id="edge7" class="edge">
<title>Node53&#45;&gt;Node54</title>
<path fill="none" stroke="#191970" d="M960.6858,-97.2808C992.2095,-97.2808 1031.8332,-97.2808 1054.8989,-97.2808"/>
<polygon fill="#191970" stroke="#191970" points="960.3413,-93.7809 950.3413,-97.2808 960.3413,-100.7809 960.3413,-93.7809"/>
</g>
<!-- Node56 -->
<g id="node10" class="node">
<title>Node56</title>
<g id="a_node10"><a xlink:href="structXCS.html#aedc01ad6f00a54b260a7605929a1d4c9" target="_top" xlink:title="XCS::single_update">
<polygon fill="none" stroke="#000000" points="861,-429.7808 861,-448.7808 965,-448.7808 965,-429.7808 861,-429.7808"/>
<text text-anchor="middle" x="913" y="-436.7808" font-family="Helvetica,sans-Serif" font-size="10.00" fill="#000000">XCS::single_update</text>
</a>
</g>
</g>
<!-- Node55&#45;&gt;Node56 -->
<g id="edge9" class="edge">
<title>Node55&#45;&gt;Node56</title>
<path fill="none" stroke="#191970" d="M488.8601,-277.4373C501.1486,-304.9437 527.5527,-355.2802 566,-382.2808 654.9305,-444.7346 787.9525,-447.8958 860.7569,-444.0243"/>
<polygon fill="#191970" stroke="#191970" points="492.0138,-275.9113 484.8459,-268.1093 485.5839,-278.6784 492.0138,-275.9113"/>
</g>
<!-- Node58 -->
<g id="node12" class="node">
<title>Node58</title>
<g id="a_node12"><a xlink:href="xcs__single__step_8c.html#a3d1fd2472d35310800aed897219a65af" target="_top" xlink:title="Executes a single&#45;step trial using a built&#45;in environment. ">
<polygon fill="none" stroke="#000000" points="579,-239.7808 579,-258.7808 663,-258.7808 663,-239.7808 579,-239.7808"/>
<text text-anchor="middle" x="621" y="-246.7808" font-family="Helvetica,sans-Serif" font-size="10.00" fill="#000000">xcs_single_trial</text>
</a>
</g>
</g>
<!-- Node55&#45;&gt;Node58 -->
<g id="edge11" class="edge">
<title>Node55&#45;&gt;Node58</title>
<path fill="none" stroke="#191970" d="M540.4928,-254.4563C553.2995,-253.633 566.5863,-252.7788 578.5857,-252.0074"/>
<polygon fill="#191970" stroke="#191970" points="540.1136,-250.9733 530.3588,-255.1078 540.5627,-257.9589 540.1136,-250.9733"/>
</g>
<!-- Node57 -->
<g id="node11" class="node">
<title>Node57</title>
<g id="a_node11"><a xlink:href="python__wrapper_8cpp.html#afbdcc1358036a0b83a6b239da2b098a2" target="_top" xlink:title="BOOST_PYTHON_MODULE">
<polygon fill="none" stroke="#000000" points="1001,-277.7808 1001,-296.7808 1147,-296.7808 1147,-277.7808 1001,-277.7808"/>
<text text-anchor="middle" x="1074" y="-284.7808" font-family="Helvetica,sans-Serif" font-size="10.00" fill="#000000">BOOST_PYTHON_MODULE</text>
</a>
</g>
</g>
<!-- Node56&#45;&gt;Node57 -->
<g id="edge10" class="edge">
<title>Node56&#45;&gt;Node57</title>
<path fill="none" stroke="#191970" d="M956.4799,-425.4646C959.4609,-423.8966 962.3352,-422.1724 965,-420.2808 1014.9065,-384.8566 1054.7809,-320.8801 1068.6877,-296.7954"/>
<polygon fill="#191970" stroke="#191970" points="954.9199,-422.33 947.3193,-429.7111 957.8639,-428.6808 954.9199,-422.33"/>
</g>
<!-- Node59 -->
<g id="node13" class="node">
<title>Node59</title>
<g id="a_node13"><a xlink:href="xcs__single__step_8h.html#a39a031bf59eaa9b33e30e614610dcda8" target="_top" xlink:title="Executes a single&#45;step experiment. ">
<polygon fill="none" stroke="#000000" points="714.5,-87.7808 714.5,-106.7808 822.5,-106.7808 822.5,-87.7808 714.5,-87.7808"/>
<text text-anchor="middle" x="768.5" y="-94.7808" font-family="Helvetica,sans-Serif" font-size="10.00" fill="#000000">xcs_single_step_exp</text>
</a>
</g>
</g>
<!-- Node58&#45;&gt;Node59 -->
<g id="edge12" class="edge">
<title>Node58&#45;&gt;Node59</title>
<path fill="none" stroke="#191970" d="M671.3913,-234.3478C673.0275,-233.0993 674.5729,-231.7466 676,-230.2808 713.065,-192.2112 674.7789,-154.1979 712,-116.2808 715.8423,-112.3667 720.5153,-109.2589 725.5105,-106.7913"/>
<polygon fill="#191970" stroke="#191970" points="669.2698,-231.5434 662.5826,-239.7612 672.9349,-237.5072 669.2698,-231.5434"/>
</g>
<!-- Node59&#45;&gt;Node53 -->
<g id="edge13" class="edge">
<title>Node59&#45;&gt;Node53</title>
<path fill="none" stroke="#191970" d="M832.7589,-97.2808C847.409,-97.2808 862.5027,-97.2808 875.5909,-97.2808"/>
<polygon fill="#191970" stroke="#191970" points="832.7176,-93.7809 822.7176,-97.2808 832.7175,-100.7809 832.7176,-93.7809"/>
</g>
<!-- Node61 -->
<g id="node15" class="node">
<title>Node61</title>
<g id="a_node15"><a xlink:href="xcsf_8h.html#a874829f28fee20f9ad15b540f4b4d6ff" target="_top" xlink:title="Executes MAX_TRIALS number of XCSF learning iterations using the training data. ">
<polygon fill="none" stroke="#000000" points="741.5,-391.7808 741.5,-410.7808 795.5,-410.7808 795.5,-391.7808 741.5,-391.7808"/>
<text text-anchor="middle" x="768.5" y="-398.7808" font-family="Helvetica,sans-Serif" font-size="10.00" fill="#000000">xcsf_fit1</text>
</a>
</g>
</g>
<!-- Node60&#45;&gt;Node61 -->
<g id="edge15" class="edge">
<title>Node60&#45;&gt;Node61</title>
<path fill="none" stroke="#191970" d="M668.223,-375.4467C692.2658,-381.6408 720.6482,-388.9529 741.0697,-394.214"/>
<polygon fill="#191970" stroke="#191970" points="668.7775,-371.9754 658.2205,-372.8698 667.0311,-378.754 668.7775,-371.9754"/>
</g>
<!-- Node63 -->
<g id="node17" class="node">
<title>Node63</title>
<g id="a_node17"><a xlink:href="xcsf_8h.html#a0b4de57cb9dadc9deca7901aa36e5025" target="_top" xlink:title="Executes MAX_TRIALS number of XCSF learning iterations using the training. data and test iterations u...">
<polygon fill="none" stroke="#000000" points="741.5,-353.7808 741.5,-372.7808 795.5,-372.7808 795.5,-353.7808 741.5,-353.7808"/>
<text text-anchor="middle" x="768.5" y="-360.7808" font-family="Helvetica,sans-Serif" font-size="10.00" fill="#000000">xcsf_fit2</text>
</a>
</g>
</g>
<!-- Node60&#45;&gt;Node63 -->
<g id="edge18" class="edge">
<title>Node60&#45;&gt;Node63</title>
<path fill="none" stroke="#191970" d="M672.8959,-363.2808C696.0137,-363.2808 722.2809,-363.2808 741.4248,-363.2808"/>
<polygon fill="#191970" stroke="#191970" points="672.8731,-359.7809 662.873,-363.2808 672.873,-366.7809 672.8731,-359.7809"/>
</g>
<!-- Node62 -->
<g id="node16" class="node">
<title>Node62</title>
<g id="a_node16"><a xlink:href="structXCS.html#ad2ccafe59d2b4ae6d0e1cbc15edee53c" target="_top" xlink:title="XCS::fit">
<polygon fill="none" stroke="#000000" points="887,-391.7808 887,-410.7808 939,-410.7808 939,-391.7808 887,-391.7808"/>
<text text-anchor="middle" x="913" y="-398.7808" font-family="Helvetica,sans-Serif" font-size="10.00" fill="#000000">XCS::fit</text>
</a>
</g>
</g>
<!-- Node61&#45;&gt;Node62 -->
<g id="edge16" class="edge">
<title>Node61&#45;&gt;Node62</title>
<path fill="none" stroke="#191970" d="M805.7134,-401.2808C831.1578,-401.2808 864.2514,-401.2808 886.9158,-401.2808"/>
<polygon fill="#191970" stroke="#191970" points="805.6794,-397.7809 795.6793,-401.2808 805.6793,-404.7809 805.6794,-397.7809"/>
</g>
<!-- Node62&#45;&gt;Node57 -->
<g id="edge17" class="edge">
<title>Node62&#45;&gt;Node57</title>
<path fill="none" stroke="#191970" d="M948.6254,-390.2502C954.2655,-387.9459 959.9106,-385.2874 965,-382.2808 1006.9285,-357.5112 1047.9056,-315.7265 1065.2946,-296.9398"/>
<polygon fill="#191970" stroke="#191970" points="947.3577,-386.9875 939.2371,-393.7924 949.8288,-393.5369 947.3577,-386.9875"/>
</g>
<!-- Node64 -->
<g id="node18" class="node">
<title>Node64</title>
<g id="a_node18"><a xlink:href="main_8c.html#a968c78da8ed8ad08662a86280deec99a" target="_top" xlink:title="regression">
<polygon fill="none" stroke="#000000" points="882,-163.7808 882,-182.7808 944,-182.7808 944,-163.7808 882,-163.7808"/>
<text text-anchor="middle" x="913" y="-170.7808" font-family="Helvetica,sans-Serif" font-size="10.00" fill="#000000">regression</text>
</a>
</g>
</g>
<!-- Node63&#45;&gt;Node64 -->
<g id="edge19" class="edge">
<title>Node63&#45;&gt;Node64</title>
<path fill="none" stroke="#191970" d="M805.2164,-355.7128C812.3556,-352.9869 819.3621,-349.29 825,-344.2808 852.9406,-319.4562 844.0199,-301.5767 861,-268.2808 877.1444,-236.6237 897.7937,-199.9297 907.4964,-182.891"/>
<polygon fill="#191970" stroke="#191970" points="803.9471,-352.4449 795.5152,-358.8601 806.1072,-359.1033 803.9471,-352.4449"/>
</g>
<!-- Node65 -->
<g id="node19" class="node">
<title>Node65</title>
<g id="a_node19"><a xlink:href="structXCS.html#a7d53320740db8e846251bacd0238a9fb" target="_top" xlink:title="XCS::fit">
<polygon fill="none" stroke="#000000" points="887,-353.7808 887,-372.7808 939,-372.7808 939,-353.7808 887,-353.7808"/>
<text text-anchor="middle" x="913" y="-360.7808" font-family="Helvetica,sans-Serif" font-size="10.00" fill="#000000">XCS::fit</text>
</a>
</g>
</g>
<!-- Node63&#45;&gt;Node65 -->
<g id="edge21" class="edge">
<title>Node63&#45;&gt;Node65</title>
<path fill="none" stroke="#191970" d="M805.7134,-363.2808C831.1578,-363.2808 864.2514,-363.2808 886.9158,-363.2808"/>
<polygon fill="#191970" stroke="#191970" points="805.6794,-359.7809 795.6793,-363.2808 805.6793,-366.7809 805.6794,-359.7809"/>
</g>
<!-- Node64&#45;&gt;Node54 -->
<g id="edge20" class="edge">
<title>Node64&#45;&gt;Node54</title>
<path fill="none" stroke="#191970" d="M950.988,-160.0607C955.7437,-158.2127 960.5108,-156.2644 965,-154.2808 998.5967,-139.4355 1036.2522,-118.8079 1057.3464,-106.8693"/>
<polygon fill="#191970" stroke="#191970" points="949.4622,-156.8952 941.3353,-163.6926 951.9273,-163.4468 949.4622,-156.8952"/>
</g>
<!-- Node66&#45;&gt;Node49 -->
<g id="edge23" class="edge">
<title>Node66&#45;&gt;Node49</title>
<path fill="none" stroke="#191970" d="M253.6207,-242.7119C263.6437,-245.6352 273.9834,-248.651 282.8623,-251.2407"/>
<polygon fill="#191970" stroke="#191970" points="254.3493,-239.2786 243.7693,-239.8385 252.3892,-245.9986 254.3493,-239.2786"/>
</g>
<!-- Node67&#45;&gt;Node51 -->
<g id="edge30" class="edge">
<title>Node67&#45;&gt;Node51</title>
<path fill="none" stroke="#191970" d="M490.3101,-173.5946C503.7303,-148.4757 530.8139,-104.0091 566,-78.2808 571.2191,-74.4646 577.2661,-71.369 583.401,-68.8722"/>
<polygon fill="#191970" stroke="#191970" points="487.196,-171.997 485.701,-182.4859 493.4106,-175.2186 487.196,-171.997"/>
</g>
<!-- Node67&#45;&gt;Node54 -->
<g id="edge25" class="edge">
<title>Node67&#45;&gt;Node54</title>
<path fill="none" stroke="#191970" d="M485.3351,-172.2586C493.9487,-138.0229 516.7947,-69.1411 566,-40.2808 733.2659,57.8253 985.0761,-53.0627 1055.2594,-87.6545"/>
<polygon fill="#191970" stroke="#191970" points="481.8247,-171.8971 482.9421,-182.4329 488.6388,-173.4999 481.8247,-171.8971"/>
</g>
<!-- Node67&#45;&gt;Node58 -->
<g id="edge31" class="edge">
<title>Node67&#45;&gt;Node58</title>
<path fill="none" stroke="#191970" d="M510.5384,-206.2535C526.7625,-213.733 547.3272,-222.8981 566,-230.2808 574.2673,-233.5495 583.3499,-236.8161 591.7103,-239.6958"/>
<polygon fill="#191970" stroke="#191970" points="511.5969,-202.8859 501.0533,-201.8452 508.6467,-209.2338 511.5969,-202.8859"/>
</g>
<!-- Node67&#45;&gt;Node60 -->
<g id="edge32" class="edge">
<title>Node67&#45;&gt;Node60</title>
<path fill="none" stroke="#191970" d="M502.329,-208.7323C511.8877,-217.0226 522.6403,-227.7546 530,-239.2808 556.5497,-280.8608 531.1566,-309.3564 566,-344.2808 569.853,-348.1427 574.5277,-351.2208 579.506,-353.6739"/>
<polygon fill="#191970" stroke="#191970" points="504.2833,-205.8061 494.3515,-202.1168 499.8149,-211.1944 504.2833,-205.8061"/>
</g>
<!-- Node68 -->
<g id="node22" class="node">
<title>Node68</title>
<g id="a_node22"><a xlink:href="structXCS.html#ab58a4fb495b05f3450b182bc21dcba1f" target="_top" xlink:title="XCS::single_reset">
<polygon fill="none" stroke="#000000" points="865,-277.7808 865,-296.7808 961,-296.7808 961,-277.7808 865,-277.7808"/>
<text text-anchor="middle" x="913" y="-284.7808" font-family="Helvetica,sans-Serif" font-size="10.00" fill="#000000">XCS::single_reset</text>
</a>
</g>
</g>
<!-- Node67&#45;&gt;Node68 -->
<g id="edge26" class="edge">
<title>Node67&#45;&gt;Node68</title>
<path fill="none" stroke="#191970" d="M498.2712,-208.8517C520.6996,-230.1908 557.9409,-264.948 566,-268.2808 665.7994,-309.5523 795.6863,-302.3975 864.7925,-294.3595"/>
<polygon fill="#191970" stroke="#191970" points="500.6779,-206.3104 491.0279,-201.9368 495.8443,-211.3736 500.6779,-206.3104"/>
</g>
<!-- Node69 -->
<g id="node23" class="node">
<title>Node69</title>
<g id="a_node23"><a xlink:href="xcs__multi__step_8c.html#a7c317faec2f018cc620fe5e465ebf378" target="_top" xlink:title="Executes a multi&#45;step exploit trial. ">
<polygon fill="none" stroke="#000000" points="575,-87.7808 575,-106.7808 667,-106.7808 667,-87.7808 575,-87.7808"/>
<text text-anchor="middle" x="621" y="-94.7808" font-family="Helvetica,sans-Serif" font-size="10.00" fill="#000000">xcs_multi_exploit</text>
</a>
</g>
</g>
<!-- Node67&#45;&gt;Node69 -->
<g id="edge28" class="edge">
<title>Node67&#45;&gt;Node69</title>
<path fill="none" stroke="#191970" d="M498.1496,-175.4144C514.5582,-159.9195 540.5129,-137.0363 566,-121.2808 575.0389,-115.6932 585.6063,-110.7482 595.0492,-106.8207"/>
<polygon fill="#191970" stroke="#191970" points="495.2813,-173.3162 490.4921,-182.7669 500.1295,-178.3655 495.2813,-173.3162"/>
</g>
<!-- Node70 -->
<g id="node24" class="node">
<title>Node70</title>
<g id="a_node24"><a xlink:href="xcsf_8h.html#a70e6ae30c7d4e471009c4611255ed873" target="_top" xlink:title="Reads the state of XCSF from a binary file. ">
<polygon fill="none" stroke="#000000" points="739,-125.7808 739,-144.7808 798,-144.7808 798,-125.7808 739,-125.7808"/>
<text text-anchor="middle" x="768.5" y="-132.7808" font-family="Helvetica,sans-Serif" font-size="10.00" fill="#000000">xcsf_load</text>
</a>
</g>
</g>
<!-- Node67&#45;&gt;Node70 -->
<g id="edge33" class="edge">
<title>Node67&#45;&gt;Node70</title>
<path fill="none" stroke="#191970" d="M506.9542,-178.003C523.3836,-169.6492 545.3513,-159.7071 566,-154.2808 625.9352,-138.5305 698.8635,-135.4458 738.8021,-135.0633"/>
<polygon fill="#191970" stroke="#191970" points="505.2175,-174.9614 497.9726,-182.692 508.4571,-181.1666 505.2175,-174.9614"/>
</g>
<!-- Node72 -->
<g id="node26" class="node">
<title>Node72</title>
<g id="a_node26"><a xlink:href="xcsf_8h.html#af0b9db7273578fdff649d46823cd9790" target="_top" xlink:title="Calculates the XCSF predictions for the provided input. ">
<polygon fill="none" stroke="#000000" points="586,-201.7808 586,-220.7808 656,-220.7808 656,-201.7808 586,-201.7808"/>
<text text-anchor="middle" x="621" y="-208.7808" font-family="Helvetica,sans-Serif" font-size="10.00" fill="#000000">xcsf_predict</text>
</a>
</g>
</g>
<!-- Node67&#45;&gt;Node72 -->
<g id="edge38" class="edge">
<title>Node67&#45;&gt;Node72</title>
<path fill="none" stroke="#191970" d="M514.7434,-196.8603C536.2436,-199.7782 564.0472,-203.5515 585.8203,-206.5064"/>
<polygon fill="#191970" stroke="#191970" points="515.129,-193.3806 504.7491,-195.5039 514.1875,-200.317 515.129,-193.3806"/>
</g>
<!-- Node74 -->
<g id="node28" class="node">
<title>Node74</title>
<g id="a_node28"><a xlink:href="xcsf_8h.html#ae1f6851f682e015601030a5c725c6618" target="_top" xlink:title="Prints the XCSF match set for the supplied input. ">
<polygon fill="none" stroke="#000000" points="566,-163.7808 566,-182.7808 676,-182.7808 676,-163.7808 566,-163.7808"/>
<text text-anchor="middle" x="621" y="-170.7808" font-family="Helvetica,sans-Serif" font-size="10.00" fill="#000000">xcsf_print_match_set</text>
</a>
</g>
</g>
<!-- Node67&#45;&gt;Node74 -->
<g id="edge41" class="edge">
<title>Node67&#45;&gt;Node74</title>
<path fill="none" stroke="#191970" d="M514.8051,-187.693C530.1485,-185.6107 548.6924,-183.094 565.9619,-180.7503"/>
<polygon fill="#191970" stroke="#191970" points="514.1875,-184.2446 504.7491,-189.0577 515.129,-191.181 514.1875,-184.2446"/>
</g>
<!-- Node76 -->
<g id="node30" class="node">
<title>Node76</title>
<g id="a_node30"><a xlink:href="xcsf_8c.html#aa6edd3962ddd04940e2c78a4f99de7cd" target="_top" xlink:title="Executes a single XCSF testing trial. ">
<polygon fill="none" stroke="#000000" points="582,-315.7808 582,-334.7808 660,-334.7808 660,-315.7808 582,-315.7808"/>
<text text-anchor="middle" x="621" y="-322.7808" font-family="Helvetica,sans-Serif" font-size="10.00" fill="#000000">xcsf_test_trial</text>
</a>
</g>
</g>
<!-- Node67&#45;&gt;Node76 -->
<g id="edge44" class="edge">
<title>Node67&#45;&gt;Node76</title>
<path fill="none" stroke="#191970" d="M500.6059,-208.7564C510.1137,-217.3011 521.3237,-228.2423 530,-239.2808 549.6907,-264.3325 542.2154,-280.0771 566,-301.2808 572.8434,-307.3816 581.4809,-312.124 589.8706,-315.7211"/>
<polygon fill="#191970" stroke="#191970" points="502.6258,-205.8731 492.7952,-201.922 498.0162,-211.1411 502.6258,-205.8731"/>
</g>
<!-- Node68&#45;&gt;Node57 -->
<g id="edge27" class="edge">
<title>Node68&#45;&gt;Node57</title>
<path fill="none" stroke="#191970" d="M971.4267,-287.2808C980.9412,-287.2808 990.9016,-287.2808 1000.7177,-287.2808"/>
<polygon fill="#191970" stroke="#191970" points="971.3053,-283.7809 961.3053,-287.2808 971.3053,-290.7809 971.3053,-283.7809"/>
</g>
<!-- Node69&#45;&gt;Node52 -->
<g id="edge29" class="edge">
<title>Node69&#45;&gt;Node52</title>
<path fill="none" stroke="#191970" d="M668.0141,-85.1687C688.5566,-79.8764 712.2998,-73.7595 731.5472,-68.8009"/>
<polygon fill="#191970" stroke="#191970" points="667.0311,-81.8076 658.2205,-87.6918 668.7775,-88.5863 667.0311,-81.8076"/>
</g>
<!-- Node70&#45;&gt;Node53 -->
<g id="edge35" class="edge">
<title>Node70&#45;&gt;Node53</title>
<path fill="none" stroke="#191970" d="M807.891,-124.9219C829.3865,-119.2692 855.8127,-112.3197 876.79,-106.8032"/>
<polygon fill="#191970" stroke="#191970" points="806.8714,-121.571 798.0904,-127.4993 808.6518,-128.3408 806.8714,-121.571"/>
</g>
<!-- Node70&#45;&gt;Node64 -->
<g id="edge34" class="edge">
<title>Node70&#45;&gt;Node64</title>
<path fill="none" stroke="#191970" d="M808.0052,-145.6697C831.2858,-151.792 860.3193,-159.4271 881.9512,-165.1157"/>
<polygon fill="#191970" stroke="#191970" points="808.6518,-142.2208 798.0904,-143.0624 806.8714,-148.9907 808.6518,-142.2208"/>
</g>
<!-- Node71 -->
<g id="node25" class="node">
<title>Node71</title>
<g id="a_node25"><a xlink:href="structXCS.html#adc9b621f2b7a306fbf381dd0efaf268b" target="_top" xlink:title="XCS::load">
<polygon fill="none" stroke="#000000" points="882,-125.7808 882,-144.7808 944,-144.7808 944,-125.7808 882,-125.7808"/>
<text text-anchor="middle" x="913" y="-132.7808" font-family="Helvetica,sans-Serif" font-size="10.00" fill="#000000">XCS::load</text>
</a>
</g>
</g>
<!-- Node70&#45;&gt;Node71 -->
<g id="edge36" class="edge">
<title>Node70&#45;&gt;Node71</title>
<path fill="none" stroke="#191970" d="M808.3187,-135.2808C831.5461,-135.2808 860.4163,-135.2808 881.9512,-135.2808"/>
<polygon fill="#191970" stroke="#191970" points="808.0905,-131.7809 798.0904,-135.2808 808.0904,-138.7809 808.0905,-131.7809"/>
</g>
<!-- Node71&#45;&gt;Node57 -->
<g id="edge37" class="edge">
<title>Node71&#45;&gt;Node57</title>
<path fill="none" stroke="#191970" d="M953.5566,-147.6238C957.5792,-149.5669 961.473,-151.7773 965,-154.2808 1014.9065,-189.7051 1054.7809,-253.6815 1068.6877,-277.7662"/>
<polygon fill="#191970" stroke="#191970" points="954.6196,-144.272 944.0485,-143.5632 951.8703,-150.7095 954.6196,-144.272"/>
</g>
<!-- Node73 -->
<g id="node27" class="node">
<title>Node73</title>
<g id="a_node27"><a xlink:href="structXCS.html#a911ed75c86abed7807d33eb1385240ed" target="_top" xlink:title="XCS::predict">
<polygon fill="none" stroke="#000000" points="732,-229.7808 732,-248.7808 805,-248.7808 805,-229.7808 732,-229.7808"/>
<text text-anchor="middle" x="768.5" y="-236.7808" font-family="Helvetica,sans-Serif" font-size="10.00" fill="#000000">XCS::predict</text>
</a>
</g>
</g>
<!-- Node72&#45;&gt;Node73 -->
<g id="edge39" class="edge">
<title>Node72&#45;&gt;Node73</title>
<path fill="none" stroke="#191970" d="M666.3334,-219.8865C687.3834,-223.8824 712.0797,-228.5705 731.9179,-232.3364"/>
<polygon fill="#191970" stroke="#191970" points="666.8073,-216.414 656.3299,-217.9875 665.5017,-223.2912 666.8073,-216.414"/>
</g>
<!-- Node73&#45;&gt;Node57 -->
<g id="edge40" class="edge">
<title>Node73&#45;&gt;Node57</title>
<path fill="none" stroke="#191970" d="M815.0782,-245.8064C854.9267,-251.4725 913.7922,-260.0405 965,-268.2808 983.3012,-271.2258 1003.2932,-274.6504 1021.1009,-277.7744"/>
<polygon fill="#191970" stroke="#191970" points="815.5141,-242.3333 805.1218,-244.3948 814.5314,-249.264 815.5141,-242.3333"/>
</g>
<!-- Node75 -->
<g id="node29" class="node">
<title>Node75</title>
<g id="a_node29"><a xlink:href="structXCS.html#aa5608b379fae01b724267a99068d55bb" target="_top" xlink:title="XCS::print_match_set">
<polygon fill="none" stroke="#000000" points="712,-182.7808 712,-201.7808 825,-201.7808 825,-182.7808 712,-182.7808"/>
<text text-anchor="middle" x="768.5" y="-189.7808" font-family="Helvetica,sans-Serif" font-size="10.00" fill="#000000">XCS::print_match_set</text>
</a>
</g>
</g>
<!-- Node74&#45;&gt;Node75 -->
<g id="edge42" class="edge">
<title>Node74&#45;&gt;Node75</title>
<path fill="none" stroke="#191970" d="M686.2637,-181.6877C694.7983,-182.787 703.4866,-183.9062 711.8632,-184.9852"/>
<polygon fill="#191970" stroke="#191970" points="686.7084,-178.2161 676.3432,-180.4098 685.8141,-185.1588 686.7084,-178.2161"/>
</g>
<!-- Node75&#45;&gt;Node57 -->
<g id="edge43" class="edge">
<title>Node75&#45;&gt;Node57</title>
<path fill="none" stroke="#191970" d="M814.3002,-204.4137C854.2894,-215.2256 913.7802,-231.8389 965,-248.2808 993.8963,-257.5567 1026.6268,-269.4587 1048.6149,-277.6615"/>
<polygon fill="#191970" stroke="#191970" points="815.1367,-201.0143 804.5706,-201.7935 813.3164,-207.7735 815.1367,-201.0143"/>
</g>
<!-- Node76&#45;&gt;Node63 -->
<g id="edge45" class="edge">
<title>Node76&#45;&gt;Node63</title>
<path fill="none" stroke="#191970" d="M668.223,-337.4467C692.2658,-343.6408 720.6482,-350.9529 741.0697,-356.214"/>
<polygon fill="#191970" stroke="#191970" points="668.7775,-333.9754 658.2205,-334.8698 667.0311,-340.754 668.7775,-333.9754"/>
</g>
<!-- Node77 -->
<g id="node31" class="node">
<title>Node77</title>
<g id="a_node31"><a xlink:href="xcsf_8h.html#a2cf95733e5f97410d94211b72e835847" target="_top" xlink:title="Calculates the XCSF error for the input data. ">
<polygon fill="none" stroke="#000000" points="736,-315.7808 736,-334.7808 801,-334.7808 801,-315.7808 736,-315.7808"/>
<text text-anchor="middle" x="768.5" y="-322.7808" font-family="Helvetica,sans-Serif" font-size="10.00" fill="#000000">xcsf_score</text>
</a>
</g>
</g>
<!-- Node76&#45;&gt;Node77 -->
<g id="edge46" class="edge">
<title>Node76&#45;&gt;Node77</title>
<path fill="none" stroke="#191970" d="M670.4017,-325.2808C691.8895,-325.2808 716.4834,-325.2808 735.6705,-325.2808"/>
<polygon fill="#191970" stroke="#191970" points="670.1401,-321.7809 660.14,-325.2808 670.14,-328.7809 670.1401,-321.7809"/>
</g>
<!-- Node78 -->
<g id="node32" class="node">
<title>Node78</title>
<g id="a_node32"><a xlink:href="structXCS.html#aa77bc77484d6d14bf512304a23cfec88" target="_top" xlink:title="XCS::score">
<polygon fill="none" stroke="#000000" points="879,-315.7808 879,-334.7808 947,-334.7808 947,-315.7808 879,-315.7808"/>
<text text-anchor="middle" x="913" y="-322.7808" font-family="Helvetica,sans-Serif" font-size="10.00" fill="#000000">XCS::score</text>
</a>
</g>
</g>
<!-- Node77&#45;&gt;Node78 -->
<g id="edge47" class="edge">
<title>Node77&#45;&gt;Node78</title>
<path fill="none" stroke="#191970" d="M811.4751,-325.2808C832.993,-325.2808 858.6803,-325.2808 878.8327,-325.2808"/>
<polygon fill="#191970" stroke="#191970" points="811.2893,-321.7809 801.2893,-325.2808 811.2893,-328.7809 811.2893,-321.7809"/>
</g>
<!-- Node78&#45;&gt;Node57 -->
<g id="edge48" class="edge">
<title>Node78&#45;&gt;Node57</title>
<path fill="none" stroke="#191970" d="M957.0289,-314.8889C980.9502,-309.2429 1010.32,-302.3109 1033.6456,-296.8055"/>
<polygon fill="#191970" stroke="#191970" points="956.0725,-311.5184 947.144,-317.222 957.6806,-318.3312 956.0725,-311.5184"/>
</g>
</g>
</svg>
