<?xml version="1.0" encoding="UTF-8" standalone="no"?>
<!DOCTYPE svg PUBLIC "-//W3C//DTD SVG 1.1//EN"
 "http://www.w3.org/Graphics/SVG/1.1/DTD/svg11.dtd">
<!-- Generated by graphviz version 2.40.1 (20161225.0304)
 -->
<!-- Title: sam_init Pages: 1 -->
<svg width="1027pt" height="443pt"
 viewBox="0.00 0.00 1027.00 443.00" xmlns="http://www.w3.org/2000/svg" xmlns:xlink="http://www.w3.org/1999/xlink">
<g id="graph0" class="graph" transform="scale(1 1) rotate(0) translate(4 439)">
<title>sam_init</title>
<!-- Node87 -->
<g id="node1" class="node">
<title>Node87</title>
<polygon fill="#bfbfbf" stroke="#000000" points="0,-171.5 0,-190.5 53,-190.5 53,-171.5 0,-171.5"/>
<text text-anchor="middle" x="26.5" y="-178.5" font-family="Helvetica,sans-Serif" font-size="10.00" fill="#000000">sam_init</text>
</g>
<!-- Node88 -->
<g id="node2" class="node">
<title>Node88</title>
<g id="a_node2"><a xlink:href="cl_8h.html#ab76fe4ea183f51174a3797c3cbb1b3bf" target="_top" xlink:title="Initialises a new classifier. ">
<polygon fill="none" stroke="#000000" points="89,-171.5 89,-190.5 131,-190.5 131,-171.5 89,-171.5"/>
<text text-anchor="middle" x="110" y="-178.5" font-family="Helvetica,sans-Serif" font-size="10.00" fill="#000000">cl_init</text>
</a>
</g>
</g>
<!-- Node87&#45;&gt;Node88 -->
<g id="edge1" class="edge">
<title>Node87&#45;&gt;Node88</title>
<path fill="none" stroke="#191970" d="M63.4338,-181C72.1907,-181 81.2341,-181 88.9951,-181"/>
<polygon fill="#191970" stroke="#191970" points="63.3796,-177.5001 53.3795,-181 63.3795,-184.5001 63.3796,-177.5001"/>
</g>
<!-- Node89 -->
<g id="node3" class="node">
<title>Node89</title>
<g id="a_node3"><a xlink:href="ea_8h.html#ae3824341a2f5482cb6ac70b3839ded51" target="_top" xlink:title="Executes the evolutionary algorithm (EA). ">
<polygon fill="none" stroke="#000000" points="278.5,-133.5 278.5,-152.5 307.5,-152.5 307.5,-133.5 278.5,-133.5"/>
<text text-anchor="middle" x="293" y="-140.5" font-family="Helvetica,sans-Serif" font-size="10.00" fill="#000000">ea</text>
</a>
</g>
</g>
<!-- Node88&#45;&gt;Node89 -->
<g id="edge2" class="edge">
<title>Node88&#45;&gt;Node89</title>
<path fill="none" stroke="#191970" d="M140.9003,-173.0964C149.343,-171.0227 158.506,-168.8507 167,-167 207.0344,-158.277 254.6111,-149.6949 278.2063,-145.5574"/>
<polygon fill="#191970" stroke="#191970" points="139.9104,-169.7359 131.0526,-175.5487 141.602,-176.5284 139.9104,-169.7359"/>
</g>
<!-- Node105 -->
<g id="node19" class="node">
<title>Node105</title>
<g id="a_node19"><a xlink:href="cl__set_8h.html#a1e1060f1e8c1f916d798864804078e88" target="_top" xlink:title="Initialises a new population set. ">
<polygon fill="none" stroke="#000000" points="537.5,-171.5 537.5,-190.5 587.5,-190.5 587.5,-171.5 537.5,-171.5"/>
<text text-anchor="middle" x="562.5" y="-178.5" font-family="Helvetica,sans-Serif" font-size="10.00" fill="#000000">pop_init</text>
</a>
</g>
</g>
<!-- Node88&#45;&gt;Node105 -->
<g id="edge21" class="edge">
<title>Node88&#45;&gt;Node105</title>
<path fill="none" stroke="#191970" d="M141.2733,-181C226.1882,-181 459.8558,-181 537.2396,-181"/>
<polygon fill="#191970" stroke="#191970" points="141.2181,-177.5001 131.2181,-181 141.2181,-184.5001 141.2181,-177.5001"/>
</g>
<!-- Node107 -->
<g id="node21" class="node">
<title>Node107</title>
<g id="a_node21"><a xlink:href="cl__set_8c.html#aa4b74b698e7491734e4788fcfae8e27a" target="_top" xlink:title="Ensures all possible actions are covered by the match set. ">
<polygon fill="none" stroke="#000000" points="167,-228.5 167,-247.5 226,-247.5 226,-228.5 167,-228.5"/>
<text text-anchor="middle" x="196.5" y="-235.5" font-family="Helvetica,sans-Serif" font-size="10.00" fill="#000000">set_cover</text>
</a>
</g>
</g>
<!-- Node88&#45;&gt;Node107 -->
<g id="edge27" class="edge">
<title>Node88&#45;&gt;Node107</title>
<path fill="none" stroke="#191970" d="M133.2289,-196.3069C148.7705,-206.5482 168.7377,-219.7058 182.0432,-228.4735"/>
<polygon fill="#191970" stroke="#191970" points="134.9495,-193.2492 124.6735,-190.6693 131.0978,-199.0942 134.9495,-193.2492"/>
</g>
<!-- Node90 -->
<g id="node4" class="node">
<title>Node90</title>
<g id="a_node4"><a xlink:href="xcs__multi__step_8c.html#a1e1c2a3094be715b468dda79cd59ebf3" target="_top" xlink:title="Executes a multi&#45;step trial using a built&#45;in environment. ">
<polygon fill="none" stroke="#000000" points="375,-95.5 375,-114.5 455,-114.5 455,-95.5 375,-95.5"/>
<text text-anchor="middle" x="415" y="-102.5" font-family="Helvetica,sans-Serif" font-size="10.00" fill="#000000">xcs_multi_trial</text>
</a>
</g>
</g>
<!-- Node89&#45;&gt;Node90 -->
<g id="edge3" class="edge">
<title>Node89&#45;&gt;Node90</title>
<path fill="none" stroke="#191970" d="M317.5322,-135.3588C336.8181,-129.3517 363.788,-120.9513 384.47,-114.5093"/>
<polygon fill="#191970" stroke="#191970" points="316.4663,-132.0249 307.9596,-138.3405 318.548,-138.7082 316.4663,-132.0249"/>
</g>
<!-- Node94 -->
<g id="node8" class="node">
<title>Node94</title>
<g id="a_node8"><a xlink:href="xcs__single__step_8h.html#aff4aec035e4573993a7906569f2028f5" target="_top" xlink:title="Creates the action set, updates the classifiers and runs the EA. ">
<polygon fill="none" stroke="#000000" points="366,-133.5 366,-152.5 464,-152.5 464,-133.5 366,-133.5"/>
<text text-anchor="middle" x="415" y="-140.5" font-family="Helvetica,sans-Serif" font-size="10.00" fill="#000000">xcs_single_update</text>
</a>
</g>
</g>
<!-- Node89&#45;&gt;Node94 -->
<g id="edge7" class="edge">
<title>Node89&#45;&gt;Node94</title>
<path fill="none" stroke="#191970" d="M318.1035,-143C331.8851,-143 349.4612,-143 365.8504,-143"/>
<polygon fill="#191970" stroke="#191970" points="317.9596,-139.5001 307.9596,-143 317.9596,-146.5001 317.9596,-139.5001"/>
</g>
<!-- Node99 -->
<g id="node13" class="node">
<title>Node99</title>
<g id="a_node13"><a xlink:href="xcsf_8c.html#a474f4e13cfc5f00958c689cd8c81135a" target="_top" xlink:title="Executes a single XCSF learning trial. ">
<polygon fill="none" stroke="#000000" points="373.5,-247.5 373.5,-266.5 456.5,-266.5 456.5,-247.5 373.5,-247.5"/>
<text text-anchor="middle" x="415" y="-254.5" font-family="Helvetica,sans-Serif" font-size="10.00" fill="#000000">xcsf_learn_trial</text>
</a>
</g>
</g>
<!-- Node89&#45;&gt;Node99 -->
<g id="edge13" class="edge">
<title>Node89&#45;&gt;Node99</title>
<path fill="none" stroke="#191970" d="M301.6348,-161.6077C312.4298,-182.9406 332.8423,-217.5857 360,-238 365.0874,-241.8242 371.0018,-244.9168 377.028,-247.4064"/>
<polygon fill="#191970" stroke="#191970" points="304.7654,-160.0421 297.241,-152.5833 298.4717,-163.1064 304.7654,-160.0421"/>
</g>
<!-- Node91 -->
<g id="node5" class="node">
<title>Node91</title>
<g id="a_node5"><a xlink:href="xcs__multi__step_8h.html#acc29d4a55dbd56c16ea5f19f15a7c677" target="_top" xlink:title="Executes a multi&#45;step reinforcement learning experiment. ">
<polygon fill="none" stroke="#000000" points="657,-.5 657,-19.5 761,-19.5 761,-.5 657,-.5"/>
<text text-anchor="middle" x="709" y="-7.5" font-family="Helvetica,sans-Serif" font-size="10.00" fill="#000000">xcs_multi_step_exp</text>
</a>
</g>
</g>
<!-- Node90&#45;&gt;Node91 -->
<g id="edge4" class="edge">
<title>Node90&#45;&gt;Node91</title>
<path fill="none" stroke="#191970" d="M454.351,-92.2845C514.0634,-72.9897 626.2273,-36.7463 679.4837,-19.5376"/>
<polygon fill="#191970" stroke="#191970" points="452.9753,-89.0508 444.5359,-95.4561 455.1277,-95.7117 452.9753,-89.0508"/>
</g>
<!-- Node92 -->
<g id="node6" class="node">
<title>Node92</title>
<g id="a_node6"><a xlink:href="main_8c.html#ab572a67aa431827116ebd6931d667d21" target="_top" xlink:title="classification">
<polygon fill="none" stroke="#000000" points="835,-95.5 835,-114.5 909,-114.5 909,-95.5 835,-95.5"/>
<text text-anchor="middle" x="872" y="-102.5" font-family="Helvetica,sans-Serif" font-size="10.00" fill="#000000">classification</text>
</a>
</g>
</g>
<!-- Node91&#45;&gt;Node92 -->
<g id="edge5" class="edge">
<title>Node91&#45;&gt;Node92</title>
<path fill="none" stroke="#191970" d="M750.277,-23.2092C754.6437,-24.9935 758.9606,-26.9298 763,-29 801.1861,-48.5705 841.4234,-79.8225 860.573,-95.4502"/>
<polygon fill="#191970" stroke="#191970" points="751.3165,-19.8595 740.7261,-19.5531 748.8139,-26.3969 751.3165,-19.8595"/>
</g>
<!-- Node93 -->
<g id="node7" class="node">
<title>Node93</title>
<g id="a_node7"><a xlink:href="main_8c.html#a3c04138a5bfe5d72780bb7e82a18e627" target="_top" xlink:title="main">
<polygon fill="none" stroke="#000000" points="981,-114.5 981,-133.5 1019,-133.5 1019,-114.5 981,-114.5"/>
<text text-anchor="middle" x="1000" y="-121.5" font-family="Helvetica,sans-Serif" font-size="10.00" fill="#000000">main</text>
</a>
</g>
</g>
<!-- Node92&#45;&gt;Node93 -->
<g id="edge6" class="edge">
<title>Node92&#45;&gt;Node93</title>
<path fill="none" stroke="#191970" d="M918.9436,-111.9682C940.3476,-115.1453 964.497,-118.73 980.8263,-121.1539"/>
<polygon fill="#191970" stroke="#191970" points="919.4285,-108.5019 909.0229,-110.4956 918.4006,-115.426 919.4285,-108.5019"/>
</g>
<!-- Node95 -->
<g id="node9" class="node">
<title>Node95</title>
<g id="a_node9"><a xlink:href="structXCS.html#aedc01ad6f00a54b260a7605929a1d4c9" target="_top" xlink:title="XCS::single_update">
<polygon fill="none" stroke="#000000" points="657,-38.5 657,-57.5 761,-57.5 761,-38.5 657,-38.5"/>
<text text-anchor="middle" x="709" y="-45.5" font-family="Helvetica,sans-Serif" font-size="10.00" fill="#000000">XCS::single_update</text>
</a>
</g>
</g>
<!-- Node94&#45;&gt;Node95 -->
<g id="edge8" class="edge">
<title>Node94&#45;&gt;Node95</title>
<path fill="none" stroke="#191970" d="M454.351,-130.2845C514.0634,-110.9897 626.2273,-74.7463 679.4837,-57.5376"/>
<polygon fill="#191970" stroke="#191970" points="452.9753,-127.0508 444.5359,-133.4561 455.1277,-133.7117 452.9753,-127.0508"/>
</g>
<!-- Node97 -->
<g id="node11" class="node">
<title>Node97</title>
<g id="a_node11"><a xlink:href="xcs__single__step_8c.html#a3d1fd2472d35310800aed897219a65af" target="_top" xlink:title="Executes a single&#45;step trial using a built&#45;in environment. ">
<polygon fill="none" stroke="#000000" points="520.5,-133.5 520.5,-152.5 604.5,-152.5 604.5,-133.5 520.5,-133.5"/>
<text text-anchor="middle" x="562.5" y="-140.5" font-family="Helvetica,sans-Serif" font-size="10.00" fill="#000000">xcs_single_trial</text>
</a>
</g>
</g>
<!-- Node94&#45;&gt;Node97 -->
<g id="edge10" class="edge">
<title>Node94&#45;&gt;Node97</title>
<path fill="none" stroke="#191970" d="M474.4999,-143C489.7432,-143 505.8308,-143 520.0224,-143"/>
<polygon fill="#191970" stroke="#191970" points="474.1154,-139.5001 464.1154,-143 474.1153,-146.5001 474.1154,-139.5001"/>
</g>
<!-- Node96 -->
<g id="node10" class="node">
<title>Node96</title>
<g id="a_node10"><a xlink:href="python__wrapper_8cpp.html#afbdcc1358036a0b83a6b239da2b098a2" target="_top" xlink:title="BOOST_PYTHON_MODULE">
<polygon fill="none" stroke="#000000" points="799,-266.5 799,-285.5 945,-285.5 945,-266.5 799,-266.5"/>
<text text-anchor="middle" x="872" y="-273.5" font-family="Helvetica,sans-Serif" font-size="10.00" fill="#000000">BOOST_PYTHON_MODULE</text>
</a>
</g>
</g>
<!-- Node95&#45;&gt;Node96 -->
<g id="edge9" class="edge">
<title>Node95&#45;&gt;Node96</title>
<path fill="none" stroke="#191970" d="M756.762,-62.3838C758.9651,-63.785 761.0616,-65.3197 763,-67 780.1231,-81.8433 849.2159,-227.4645 867.5276,-266.4444"/>
<polygon fill="#191970" stroke="#191970" points="758.3147,-59.2451 747.8461,-57.6143 755.0128,-65.4174 758.3147,-59.2451"/>
</g>
<!-- Node98 -->
<g id="node12" class="node">
<title>Node98</title>
<g id="a_node12"><a xlink:href="xcs__single__step_8h.html#a39a031bf59eaa9b33e30e614610dcda8" target="_top" xlink:title="Executes a single&#45;step experiment. ">
<polygon fill="none" stroke="#000000" points="655,-76.5 655,-95.5 763,-95.5 763,-76.5 655,-76.5"/>
<text text-anchor="middle" x="709" y="-83.5" font-family="Helvetica,sans-Serif" font-size="10.00" fill="#000000">xcs_single_step_exp</text>
</a>
</g>
</g>
<!-- Node97&#45;&gt;Node98 -->
<g id="edge11" class="edge">
<title>Node97&#45;&gt;Node98</title>
<path fill="none" stroke="#191970" d="M596.4339,-129.797C623.3334,-119.331 660.2855,-104.9538 684.3992,-95.5716"/>
<polygon fill="#191970" stroke="#191970" points="595.0711,-126.5716 587.0208,-133.4595 597.6094,-133.0952 595.0711,-126.5716"/>
</g>
<!-- Node98&#45;&gt;Node92 -->
<g id="edge12" class="edge">
<title>Node98&#45;&gt;Node92</title>
<path fill="none" stroke="#191970" d="M773.3777,-93.5042C794.2632,-95.9387 816.7197,-98.5563 834.9204,-100.6778"/>
<polygon fill="#191970" stroke="#191970" points="773.6147,-90.0082 763.2766,-92.3267 772.8041,-96.9611 773.6147,-90.0082"/>
</g>
<!-- Node100 -->
<g id="node14" class="node">
<title>Node100</title>
<g id="a_node14"><a xlink:href="xcsf_8h.html#a874829f28fee20f9ad15b540f4b4d6ff" target="_top" xlink:title="Executes MAX_TRIALS number of XCSF learning iterations using the training data. ">
<polygon fill="none" stroke="#000000" points="535.5,-247.5 535.5,-266.5 589.5,-266.5 589.5,-247.5 535.5,-247.5"/>
<text text-anchor="middle" x="562.5" y="-254.5" font-family="Helvetica,sans-Serif" font-size="10.00" fill="#000000">xcsf_fit1</text>
</a>
</g>
</g>
<!-- Node99&#45;&gt;Node100 -->
<g id="edge14" class="edge">
<title>Node99&#45;&gt;Node100</title>
<path fill="none" stroke="#191970" d="M466.8959,-257C490.0137,-257 516.2809,-257 535.4248,-257"/>
<polygon fill="#191970" stroke="#191970" points="466.8731,-253.5001 456.873,-257 466.873,-260.5001 466.8731,-253.5001"/>
</g>
<!-- Node102 -->
<g id="node16" class="node">
<title>Node102</title>
<g id="a_node16"><a xlink:href="xcsf_8h.html#a0b4de57cb9dadc9deca7901aa36e5025" target="_top" xlink:title="Executes MAX_TRIALS number of XCSF learning iterations using the training. data and test iterations u...">
<polygon fill="none" stroke="#000000" points="535.5,-285.5 535.5,-304.5 589.5,-304.5 589.5,-285.5 535.5,-285.5"/>
<text text-anchor="middle" x="562.5" y="-292.5" font-family="Helvetica,sans-Serif" font-size="10.00" fill="#000000">xcsf_fit2</text>
</a>
</g>
</g>
<!-- Node99&#45;&gt;Node102 -->
<g id="edge17" class="edge">
<title>Node99&#45;&gt;Node102</title>
<path fill="none" stroke="#191970" d="M462.223,-269.1659C486.2658,-275.36 514.6482,-282.6721 535.0697,-287.9332"/>
<polygon fill="#191970" stroke="#191970" points="462.7775,-265.6946 452.2205,-266.589 461.0311,-272.4732 462.7775,-265.6946"/>
</g>
<!-- Node101 -->
<g id="node15" class="node">
<title>Node101</title>
<g id="a_node15"><a xlink:href="structXCS.html#ad2ccafe59d2b4ae6d0e1cbc15edee53c" target="_top" xlink:title="XCS::fit">
<polygon fill="none" stroke="#000000" points="683,-228.5 683,-247.5 735,-247.5 735,-228.5 683,-228.5"/>
<text text-anchor="middle" x="709" y="-235.5" font-family="Helvetica,sans-Serif" font-size="10.00" fill="#000000">XCS::fit</text>
</a>
</g>
</g>
<!-- Node100&#45;&gt;Node101 -->
<g id="edge15" class="edge">
<title>Node100&#45;&gt;Node101</title>
<path fill="none" stroke="#191970" d="M599.9437,-252.1438C625.9137,-248.7757 659.8473,-244.3748 682.9182,-241.3826"/>
<polygon fill="#191970" stroke="#191970" points="599.179,-248.7136 589.7122,-253.4708 600.0793,-255.6555 599.179,-248.7136"/>
</g>
<!-- Node101&#45;&gt;Node96 -->
<g id="edge16" class="edge">
<title>Node101&#45;&gt;Node96</title>
<path fill="none" stroke="#191970" d="M745.1831,-246.4353C770.6597,-252.3747 804.7975,-260.3332 831.2362,-266.4968"/>
<polygon fill="#191970" stroke="#191970" points="745.7223,-242.9672 735.1888,-244.1054 744.133,-249.7844 745.7223,-242.9672"/>
</g>
<!-- Node103 -->
<g id="node17" class="node">
<title>Node103</title>
<g id="a_node17"><a xlink:href="main_8c.html#a968c78da8ed8ad08662a86280deec99a" target="_top" xlink:title="regression">
<polygon fill="none" stroke="#000000" points="678,-152.5 678,-171.5 740,-171.5 740,-152.5 678,-152.5"/>
<text text-anchor="middle" x="709" y="-159.5" font-family="Helvetica,sans-Serif" font-size="10.00" fill="#000000">regression</text>
</a>
</g>
</g>
<!-- Node102&#45;&gt;Node103 -->
<g id="edge18" class="edge">
<title>Node102&#45;&gt;Node103</title>
<path fill="none" stroke="#191970" d="M599.3299,-287.8501C606.5185,-285.0949 613.5161,-281.2803 619,-276 651.5254,-244.6821 622.6933,-212.5435 655,-181 661.2577,-174.8902 669.594,-170.7357 677.8406,-167.9143"/>
<polygon fill="#191970" stroke="#191970" points="597.9886,-284.6045 589.5333,-290.9886 600.1244,-291.2707 597.9886,-284.6045"/>
</g>
<!-- Node104 -->
<g id="node18" class="node">
<title>Node104</title>
<g id="a_node18"><a xlink:href="structXCS.html#a7d53320740db8e846251bacd0238a9fb" target="_top" xlink:title="XCS::fit">
<polygon fill="none" stroke="#000000" points="683,-304.5 683,-323.5 735,-323.5 735,-304.5 683,-304.5"/>
<text text-anchor="middle" x="709" y="-311.5" font-family="Helvetica,sans-Serif" font-size="10.00" fill="#000000">XCS::fit</text>
</a>
</g>
</g>
<!-- Node102&#45;&gt;Node104 -->
<g id="edge20" class="edge">
<title>Node102&#45;&gt;Node104</title>
<path fill="none" stroke="#191970" d="M599.9437,-299.8562C625.9137,-303.2243 659.8473,-307.6252 682.9182,-310.6174"/>
<polygon fill="#191970" stroke="#191970" points="600.0793,-296.3445 589.7122,-298.5292 599.179,-303.2864 600.0793,-296.3445"/>
</g>
<!-- Node103&#45;&gt;Node93 -->
<g id="edge19" class="edge">
<title>Node103&#45;&gt;Node93</title>
<path fill="none" stroke="#191970" d="M750.2431,-156.6143C813.9887,-148.2901 933.966,-132.623 980.6884,-126.5218"/>
<polygon fill="#191970" stroke="#191970" points="749.6047,-153.1679 740.1421,-157.9333 750.5111,-160.1089 749.6047,-153.1679"/>
</g>
<!-- Node105&#45;&gt;Node92 -->
<g id="edge22" class="edge">
<title>Node105&#45;&gt;Node92</title>
<path fill="none" stroke="#191970" d="M597.2305,-170.3042C604.5048,-167.7911 612.0684,-164.9717 619,-162 635.628,-154.8713 637.8815,-148.8537 655,-143 715.9793,-122.1478 790.6963,-112.2828 834.6484,-107.9752"/>
<polygon fill="#191970" stroke="#191970" points="595.9542,-167.0404 587.5771,-173.5268 598.1708,-173.6802 595.9542,-167.0404"/>
</g>
<!-- Node105&#45;&gt;Node101 -->
<g id="edge23" class="edge">
<title>Node105&#45;&gt;Node101</title>
<path fill="none" stroke="#191970" d="M597.2305,-191.6958C604.5048,-194.2089 612.0684,-197.0283 619,-200 635.628,-207.1287 638.422,-211.7558 655,-219 663.9247,-222.8999 673.9299,-226.5983 682.8805,-229.678"/>
<polygon fill="#191970" stroke="#191970" points="598.1708,-188.3198 587.5771,-188.4732 595.9542,-194.9596 598.1708,-188.3198"/>
</g>
<!-- Node105&#45;&gt;Node103 -->
<g id="edge24" class="edge">
<title>Node105&#45;&gt;Node103</title>
<path fill="none" stroke="#191970" d="M597.6174,-176.4455C622.0266,-173.2798 654.2693,-169.0982 677.7805,-166.0489"/>
<polygon fill="#191970" stroke="#191970" points="597.151,-172.9766 587.6842,-177.7338 598.0514,-179.9185 597.151,-172.9766"/>
</g>
<!-- Node106 -->
<g id="node20" class="node">
<title>Node106</title>
<g id="a_node20"><a xlink:href="structXCS.html#ab58a4fb495b05f3450b182bc21dcba1f" target="_top" xlink:title="XCS::single_reset">
<polygon fill="none" stroke="#000000" points="661,-190.5 661,-209.5 757,-209.5 757,-190.5 661,-190.5"/>
<text text-anchor="middle" x="709" y="-197.5" font-family="Helvetica,sans-Serif" font-size="10.00" fill="#000000">XCS::single_reset</text>
</a>
</g>
</g>
<!-- Node105&#45;&gt;Node106 -->
<g id="edge25" class="edge">
<title>Node105&#45;&gt;Node106</title>
<path fill="none" stroke="#191970" d="M597.6603,-185.56C616.5745,-188.0131 640.183,-191.0749 660.7871,-193.7471"/>
<polygon fill="#191970" stroke="#191970" points="598.0514,-182.0815 587.6842,-184.2662 597.151,-189.0234 598.0514,-182.0815"/>
</g>
<!-- Node106&#45;&gt;Node96 -->
<g id="edge26" class="edge">
<title>Node106&#45;&gt;Node96</title>
<path fill="none" stroke="#191970" d="M748.0744,-212.9973C753.1396,-214.901 758.2235,-216.9235 763,-219 796.6851,-233.6436 834.3102,-254.3406 855.3749,-266.3464"/>
<polygon fill="#191970" stroke="#191970" points="749.0366,-209.6232 738.4424,-209.5001 746.6475,-216.2029 749.0366,-209.6232"/>
</g>
<!-- Node108 -->
<g id="node22" class="node">
<title>Node108</title>
<g id="a_node22"><a xlink:href="cl__set_8h.html#af3bea0b4d03654b9d6cb08fbf272c847" target="_top" xlink:title="Constructs the match set. ">
<polygon fill="none" stroke="#000000" points="262,-247.5 262,-266.5 324,-266.5 324,-247.5 262,-247.5"/>
<text text-anchor="middle" x="293" y="-254.5" font-family="Helvetica,sans-Serif" font-size="10.00" fill="#000000">set_match</text>
</a>
</g>
</g>
<!-- Node107&#45;&gt;Node108 -->
<g id="edge28" class="edge">
<title>Node107&#45;&gt;Node108</title>
<path fill="none" stroke="#191970" d="M236.0832,-245.7936C244.674,-247.485 253.6438,-249.2511 261.8545,-250.8677"/>
<polygon fill="#191970" stroke="#191970" points="236.7284,-242.3535 226.2406,-243.8557 235.3761,-249.2216 236.7284,-242.3535"/>
</g>
<!-- Node108&#45;&gt;Node90 -->
<g id="edge29" class="edge">
<title>Node108&#45;&gt;Node90</title>
<path fill="none" stroke="#191970" d="M297.7073,-237.7433C305.7013,-208.9948 324.6166,-154.9325 360,-124 364.4113,-120.1436 369.647,-117.0593 375.1069,-114.5953"/>
<polygon fill="#191970" stroke="#191970" points="294.3207,-236.8601 295.1667,-247.4211 301.0912,-238.6375 294.3207,-236.8601"/>
</g>
<!-- Node108&#45;&gt;Node99 -->
<g id="edge34" class="edge">
<title>Node108&#45;&gt;Node99</title>
<path fill="none" stroke="#191970" d="M334.3267,-257C346.915,-257 360.7551,-257 373.3637,-257"/>
<polygon fill="#191970" stroke="#191970" points="334.1015,-253.5001 324.1014,-257 334.1014,-260.5001 334.1015,-253.5001"/>
</g>
<!-- Node109 -->
<g id="node23" class="node">
<title>Node109</title>
<g id="a_node23"><a xlink:href="xcs__single__step_8h.html#a6cd0f3c0c1c71e13dba1ce493ef873a5" target="_top" xlink:title="Constructs the match set and selects an action to perform. ">
<polygon fill="none" stroke="#000000" points="363,-209.5 363,-228.5 467,-228.5 467,-209.5 363,-209.5"/>
<text text-anchor="middle" x="415" y="-216.5" font-family="Helvetica,sans-Serif" font-size="10.00" fill="#000000">xcs_single_decision</text>
</a>
</g>
</g>
<!-- Node108&#45;&gt;Node109 -->
<g id="edge30" class="edge">
<title>Node108&#45;&gt;Node109</title>
<path fill="none" stroke="#191970" d="M333.7108,-244.3196C350.195,-239.1852 368.91,-233.3559 384.2241,-228.5859"/>
<polygon fill="#191970" stroke="#191970" points="332.2925,-241.0954 323.7858,-247.411 334.3742,-247.7787 332.2925,-241.0954"/>
</g>
<!-- Node111 -->
<g id="node25" class="node">
<title>Node111</title>
<g id="a_node25"><a xlink:href="xcsf_8h.html#af0b9db7273578fdff649d46823cd9790" target="_top" xlink:title="Calculates the XCSF predictions for the provided input. ">
<polygon fill="none" stroke="#000000" points="380,-389.5 380,-408.5 450,-408.5 450,-389.5 380,-389.5"/>
<text text-anchor="middle" x="415" y="-396.5" font-family="Helvetica,sans-Serif" font-size="10.00" fill="#000000">xcsf_predict</text>
</a>
</g>
</g>
<!-- Node108&#45;&gt;Node111 -->
<g id="edge35" class="edge">
<title>Node108&#45;&gt;Node111</title>
<path fill="none" stroke="#191970" d="M300.2443,-276.116C310.3851,-300.7338 330.8933,-343.6016 360,-371 368.2701,-378.7847 379.1212,-384.9233 388.9979,-389.4442"/>
<polygon fill="#191970" stroke="#191970" points="303.4813,-274.7839 296.5382,-266.7812 296.9753,-277.367 303.4813,-274.7839"/>
</g>
<!-- Node113 -->
<g id="node27" class="node">
<title>Node113</title>
<g id="a_node27"><a xlink:href="xcsf_8h.html#ae1f6851f682e015601030a5c725c6618" target="_top" xlink:title="Prints the XCSF match set for the supplied input. ">
<polygon fill="none" stroke="#000000" points="360,-342.5 360,-361.5 470,-361.5 470,-342.5 360,-342.5"/>
<text text-anchor="middle" x="415" y="-349.5" font-family="Helvetica,sans-Serif" font-size="10.00" fill="#000000">xcsf_print_match_set</text>
</a>
</g>
</g>
<!-- Node108&#45;&gt;Node113 -->
<g id="edge38" class="edge">
<title>Node108&#45;&gt;Node113</title>
<path fill="none" stroke="#191970" d="M311.1356,-273.289C324.3872,-284.9766 342.9464,-300.9072 360,-314 373.2563,-324.1775 389.0016,-334.9288 400.2414,-342.3881"/>
<polygon fill="#191970" stroke="#191970" points="313.4323,-270.6476 303.6315,-266.6233 308.7836,-275.8811 313.4323,-270.6476"/>
</g>
<!-- Node115 -->
<g id="node29" class="node">
<title>Node115</title>
<g id="a_node29"><a xlink:href="xcsf_8c.html#aa6edd3962ddd04940e2c78a4f99de7cd" target="_top" xlink:title="Executes a single XCSF testing trial. ">
<polygon fill="none" stroke="#000000" points="376,-285.5 376,-304.5 454,-304.5 454,-285.5 376,-285.5"/>
<text text-anchor="middle" x="415" y="-292.5" font-family="Helvetica,sans-Serif" font-size="10.00" fill="#000000">xcsf_test_trial</text>
</a>
</g>
</g>
<!-- Node108&#45;&gt;Node115 -->
<g id="edge41" class="edge">
<title>Node108&#45;&gt;Node115</title>
<path fill="none" stroke="#191970" d="M333.7108,-269.6804C350.195,-274.8148 368.91,-280.6441 384.2241,-285.4141"/>
<polygon fill="#191970" stroke="#191970" points="334.3742,-266.2213 323.7858,-266.589 332.2925,-272.9046 334.3742,-266.2213"/>
</g>
<!-- Node109&#45;&gt;Node97 -->
<g id="edge33" class="edge">
<title>Node109&#45;&gt;Node97</title>
<path fill="none" stroke="#191970" d="M436.5446,-203.4698C454.4816,-191.0485 481.0323,-173.8152 506,-162 513.4834,-158.4587 521.8073,-155.2752 529.7155,-152.5718"/>
<polygon fill="#191970" stroke="#191970" points="434.1727,-200.8588 428.0039,-209.4725 438.1979,-206.5858 434.1727,-200.8588"/>
</g>
<!-- Node110 -->
<g id="node24" class="node">
<title>Node110</title>
<g id="a_node24"><a xlink:href="structXCS.html#a94d556a5e545ec415d7165d5e91b21d4" target="_top" xlink:title="XCS::single_decision">
<polygon fill="none" stroke="#000000" points="507.5,-209.5 507.5,-228.5 617.5,-228.5 617.5,-209.5 507.5,-209.5"/>
<text text-anchor="middle" x="562.5" y="-216.5" font-family="Helvetica,sans-Serif" font-size="10.00" fill="#000000">XCS::single_decision</text>
</a>
</g>
</g>
<!-- Node109&#45;&gt;Node110 -->
<g id="edge31" class="edge">
<title>Node109&#45;&gt;Node110</title>
<path fill="none" stroke="#191970" d="M477.3073,-219C487.3263,-219 497.6341,-219 507.4667,-219"/>
<polygon fill="#191970" stroke="#191970" points="477.003,-215.5001 467.003,-219 477.0029,-222.5001 477.003,-215.5001"/>
</g>
<!-- Node110&#45;&gt;Node96 -->
<g id="edge32" class="edge">
<title>Node110&#45;&gt;Node96</title>
<path fill="none" stroke="#191970" d="M603.3796,-231.8721C608.6848,-233.7974 614.0064,-235.8592 619,-238 635.628,-245.1287 637.6457,-251.8877 655,-257 701.6153,-270.732 756.1078,-275.4655 798.8246,-276.7744"/>
<polygon fill="#191970" stroke="#191970" points="604.5174,-228.5623 593.9226,-228.5668 602.2078,-235.1703 604.5174,-228.5623"/>
</g>
<!-- Node112 -->
<g id="node26" class="node">
<title>Node112</title>
<g id="a_node26"><a xlink:href="structXCS.html#a911ed75c86abed7807d33eb1385240ed" target="_top" xlink:title="XCS::predict">
<polygon fill="none" stroke="#000000" points="526,-415.5 526,-434.5 599,-434.5 599,-415.5 526,-415.5"/>
<text text-anchor="middle" x="562.5" y="-422.5" font-family="Helvetica,sans-Serif" font-size="10.00" fill="#000000">XCS::predict</text>
</a>
</g>
</g>
<!-- Node111&#45;&gt;Node112 -->
<g id="edge36" class="edge">
<title>Node111&#45;&gt;Node112</title>
<path fill="none" stroke="#191970" d="M460.3334,-406.991C481.3834,-410.7015 506.0797,-415.0547 525.9179,-418.5516"/>
<polygon fill="#191970" stroke="#191970" points="460.7857,-403.5168 450.3299,-405.2276 459.5705,-410.4105 460.7857,-403.5168"/>
</g>
<!-- Node112&#45;&gt;Node96 -->
<g id="edge37" class="edge">
<title>Node112&#45;&gt;Node96</title>
<path fill="none" stroke="#191970" d="M609.21,-426.3084C651.6838,-425.5885 714.8892,-419.6131 763,-394 812.9736,-367.3953 852.2313,-308.7856 866.3445,-285.6579"/>
<polygon fill="#191970" stroke="#191970" points="609.119,-422.8089 599.1468,-426.3873 609.1739,-429.8087 609.119,-422.8089"/>
</g>
<!-- Node114 -->
<g id="node28" class="node">
<title>Node114</title>
<g id="a_node28"><a xlink:href="structXCS.html#aa5608b379fae01b724267a99068d55bb" target="_top" xlink:title="XCS::print_match_set">
<polygon fill="none" stroke="#000000" points="506,-375.5 506,-394.5 619,-394.5 619,-375.5 506,-375.5"/>
<text text-anchor="middle" x="562.5" y="-382.5" font-family="Helvetica,sans-Serif" font-size="10.00" fill="#000000">XCS::print_match_set</text>
</a>
</g>
</g>
<!-- Node113&#45;&gt;Node114 -->
<g id="edge39" class="edge">
<title>Node113&#45;&gt;Node114</title>
<path fill="none" stroke="#191970" d="M467.5517,-363.7573C484.7295,-367.6005 503.5841,-371.8188 519.9328,-375.4765"/>
<polygon fill="#191970" stroke="#191970" points="468.186,-360.3128 457.6631,-361.545 466.6577,-367.1439 468.186,-360.3128"/>
</g>
<!-- Node114&#45;&gt;Node96 -->
<g id="edge40" class="edge">
<title>Node114&#45;&gt;Node96</title>
<path fill="none" stroke="#191970" d="M629.3697,-390.7842C669.5583,-391.7548 720.8987,-388.4683 763,-371 808.6759,-352.0485 848.6012,-306.0076 864.5781,-285.7922"/>
<polygon fill="#191970" stroke="#191970" points="629.2535,-387.2785 619.1416,-390.4406 629.0184,-394.2745 629.2535,-387.2785"/>
</g>
<!-- Node115&#45;&gt;Node102 -->
<g id="edge42" class="edge">
<title>Node115&#45;&gt;Node102</title>
<path fill="none" stroke="#191970" d="M464.3635,-295C488.0342,-295 515.4816,-295 535.32,-295"/>
<polygon fill="#191970" stroke="#191970" points="464.1401,-291.5001 454.14,-295 464.14,-298.5001 464.1401,-291.5001"/>
</g>
<!-- Node116 -->
<g id="node30" class="node">
<title>Node116</title>
<g id="a_node30"><a xlink:href="xcsf_8h.html#a2cf95733e5f97410d94211b72e835847" target="_top" xlink:title="Calculates the XCSF error for the input data. ">
<polygon fill="none" stroke="#000000" points="530,-332.5 530,-351.5 595,-351.5 595,-332.5 530,-332.5"/>
<text text-anchor="middle" x="562.5" y="-339.5" font-family="Helvetica,sans-Serif" font-size="10.00" fill="#000000">xcsf_score</text>
</a>
</g>
</g>
<!-- Node115&#45;&gt;Node116 -->
<g id="edge43" class="edge">
<title>Node115&#45;&gt;Node116</title>
<path fill="none" stroke="#191970" d="M454.5604,-307.6057C479.0396,-315.4058 509.9725,-325.2624 532.4428,-332.4224"/>
<polygon fill="#191970" stroke="#191970" points="455.4395,-304.2125 444.8488,-304.5112 453.3142,-310.8821 455.4395,-304.2125"/>
</g>
<!-- Node117 -->
<g id="node31" class="node">
<title>Node117</title>
<g id="a_node31"><a xlink:href="structXCS.html#aa77bc77484d6d14bf512304a23cfec88" target="_top" xlink:title="XCS::score">
<polygon fill="none" stroke="#000000" points="675,-342.5 675,-361.5 743,-361.5 743,-342.5 675,-342.5"/>
<text text-anchor="middle" x="709" y="-349.5" font-family="Helvetica,sans-Serif" font-size="10.00" fill="#000000">XCS::score</text>
</a>
</g>
</g>
<!-- Node116&#45;&gt;Node117 -->
<g id="edge44" class="edge">
<title>Node116&#45;&gt;Node117</title>
<path fill="none" stroke="#191970" d="M605.1544,-344.9116C627.3077,-346.4237 654.0127,-348.2466 674.7938,-349.6651"/>
<polygon fill="#191970" stroke="#191970" points="605.2283,-341.4086 595.0131,-344.2193 604.7515,-348.3923 605.2283,-341.4086"/>
</g>
<!-- Node117&#45;&gt;Node96 -->
<g id="edge45" class="edge">
<title>Node117&#45;&gt;Node96</title>
<path fill="none" stroke="#191970" d="M748.0744,-339.0027C753.1396,-337.099 758.2235,-335.0765 763,-333 796.6851,-318.3564 834.3102,-297.6594 855.3749,-285.6536"/>
<polygon fill="#191970" stroke="#191970" points="746.6475,-335.7971 738.4424,-342.4999 749.0366,-342.3768 746.6475,-335.7971"/>
</g>
</g>
</svg>
