<?xml version="1.0" encoding="UTF-8" standalone="no"?>
<!DOCTYPE svg PUBLIC "-//W3C//DTD SVG 1.1//EN"
 "http://www.w3.org/Graphics/SVG/1.1/DTD/svg11.dtd">
<!-- Generated by graphviz version 2.40.1 (20161225.0304)
 -->
<!-- Title: sam_rate_selection_init Pages: 1 -->
<svg width="1209pt" height="370pt"
 viewBox="0.00 0.00 1209.00 370.00" xmlns="http://www.w3.org/2000/svg" xmlns:xlink="http://www.w3.org/1999/xlink">
<g id="graph0" class="graph" transform="scale(1 1) rotate(0) translate(4 366)">
<title>sam_rate_selection_init</title>
<!-- Node203 -->
<g id="node1" class="node">
<title>Node203</title>
<polygon fill="#bfbfbf" stroke="#000000" points="0,-190.5 0,-209.5 119,-209.5 119,-190.5 0,-190.5"/>
<text text-anchor="middle" x="59.5" y="-197.5" font-family="Helvetica,sans-Serif" font-size="10.00" fill="#000000">sam_rate_selection_init</text>
</g>
<!-- Node204 -->
<g id="node2" class="node">
<title>Node204</title>
<g id="a_node2"><a xlink:href="sam_8h.html#a934d788eb57734b6118fff7385733803" target="_top" xlink:title="Resets a classifier&#39;s self&#45;adaptive mutation rates. ">
<polygon fill="none" stroke="#000000" points="155,-190.5 155,-209.5 217,-209.5 217,-190.5 155,-190.5"/>
<text text-anchor="middle" x="186" y="-197.5" font-family="Helvetica,sans-Serif" font-size="10.00" fill="#000000">sam_reset</text>
</a>
</g>
</g>
<!-- Node203&#45;&gt;Node204 -->
<g id="edge1" class="edge">
<title>Node203&#45;&gt;Node204</title>
<path fill="none" stroke="#191970" d="M129.2474,-200C138.2513,-200 147.0777,-200 154.9863,-200"/>
<polygon fill="#191970" stroke="#191970" points="129.0459,-196.5001 119.0458,-200 129.0458,-203.5001 129.0459,-196.5001"/>
</g>
<!-- Node205 -->
<g id="node3" class="node">
<title>Node205</title>
<g id="a_node3"><a xlink:href="sam_8h.html#ac19f397e3c1bd2a2a4f4a1174509ac67" target="_top" xlink:title="Initialises a classifier&#39;s self&#45;adaptive mutation rates. ">
<polygon fill="none" stroke="#000000" points="253,-190.5 253,-209.5 306,-209.5 306,-190.5 253,-190.5"/>
<text text-anchor="middle" x="279.5" y="-197.5" font-family="Helvetica,sans-Serif" font-size="10.00" fill="#000000">sam_init</text>
</a>
</g>
</g>
<!-- Node204&#45;&gt;Node205 -->
<g id="edge2" class="edge">
<title>Node204&#45;&gt;Node205</title>
<path fill="none" stroke="#191970" d="M227.1742,-200C235.8927,-200 244.8736,-200 252.8806,-200"/>
<polygon fill="#191970" stroke="#191970" points="227.1342,-196.5001 217.1341,-200 227.1341,-203.5001 227.1342,-196.5001"/>
</g>
<!-- Node206 -->
<g id="node4" class="node">
<title>Node206</title>
<g id="a_node4"><a xlink:href="cl_8h.html#ab45c6f772a335d0a4fdb753a61958744" target="_top" xlink:title="Initialises a new classifier. ">
<polygon fill="none" stroke="#000000" points="342,-190.5 342,-209.5 384,-209.5 384,-190.5 342,-190.5"/>
<text text-anchor="middle" x="363" y="-197.5" font-family="Helvetica,sans-Serif" font-size="10.00" fill="#000000">cl_init</text>
</a>
</g>
</g>
<!-- Node205&#45;&gt;Node206 -->
<g id="edge3" class="edge">
<title>Node205&#45;&gt;Node206</title>
<path fill="none" stroke="#191970" d="M316.4338,-200C325.1907,-200 334.2341,-200 341.9951,-200"/>
<polygon fill="#191970" stroke="#191970" points="316.3796,-196.5001 306.3795,-200 316.3795,-203.5001 316.3796,-196.5001"/>
</g>
<!-- Node207 -->
<g id="node5" class="node">
<title>Node207</title>
<g id="a_node5"><a xlink:href="clset_8c.html#a60fd3363a0a370e8b5a18671861be461" target="_top" xlink:title="Ensures all possible actions are covered by the match set. ">
<polygon fill="none" stroke="#000000" points="420,-228.5 420,-247.5 487,-247.5 487,-228.5 420,-228.5"/>
<text text-anchor="middle" x="453.5" y="-235.5" font-family="Helvetica,sans-Serif" font-size="10.00" fill="#000000">clset_cover</text>
</a>
</g>
</g>
<!-- Node206&#45;&gt;Node207 -->
<g id="edge4" class="edge">
<title>Node206&#45;&gt;Node207</title>
<path fill="none" stroke="#191970" d="M393.7291,-212.9028C405.8106,-217.9757 419.4369,-223.6972 430.6247,-228.3949"/>
<polygon fill="#191970" stroke="#191970" points="395.0225,-209.6499 384.4472,-209.0055 392.3124,-216.1041 395.0225,-209.6499"/>
</g>
<!-- Node225 -->
<g id="node23" class="node">
<title>Node225</title>
<g id="a_node23"><a xlink:href="clset_8h.html#a010148dc53ed67a07156c06cd3bedc17" target="_top" xlink:title="Initialises a new population of random classifiers. ">
<polygon fill="none" stroke="#000000" points="782.5,-114.5 782.5,-133.5 859.5,-133.5 859.5,-114.5 782.5,-114.5"/>
<text text-anchor="middle" x="821" y="-121.5" font-family="Helvetica,sans-Serif" font-size="10.00" fill="#000000">clset_pop_init</text>
</a>
</g>
</g>
<!-- Node206&#45;&gt;Node225 -->
<g id="edge27" class="edge">
<title>Node206&#45;&gt;Node225</title>
<path fill="none" stroke="#191970" d="M393.9783,-192.1744C443.3761,-179.9652 543.1771,-156.3983 629,-143 681.787,-134.7591 743.3284,-129.4116 782.2242,-126.551"/>
<polygon fill="#191970" stroke="#191970" points="393.0854,-188.7898 384.2255,-194.5996 394.7746,-195.5829 393.0854,-188.7898"/>
</g>
<!-- Node227 -->
<g id="node25" class="node">
<title>Node227</title>
<g id="a_node25"><a xlink:href="ea_8h.html#ae90a9b4131bb94462265b9c928499eb8" target="_top" xlink:title="Executes the evolutionary algorithm (EA). ">
<polygon fill="none" stroke="#000000" points="543.5,-190.5 543.5,-209.5 572.5,-209.5 572.5,-190.5 543.5,-190.5"/>
<text text-anchor="middle" x="558" y="-197.5" font-family="Helvetica,sans-Serif" font-size="10.00" fill="#000000">ea</text>
</a>
</g>
</g>
<!-- Node206&#45;&gt;Node227 -->
<g id="edge32" class="edge">
<title>Node206&#45;&gt;Node227</title>
<path fill="none" stroke="#191970" d="M394.369,-200C437.1092,-200 511.9174,-200 543.3907,-200"/>
<polygon fill="#191970" stroke="#191970" points="394.2397,-196.5001 384.2396,-200 394.2396,-203.5001 394.2397,-196.5001"/>
</g>
<!-- Node208 -->
<g id="node6" class="node">
<title>Node208</title>
<g id="a_node6"><a xlink:href="clset_8h.html#a229207544a5b8b601de05d231bb84650" target="_top" xlink:title="Constructs the match set. ">
<polygon fill="none" stroke="#000000" points="523,-228.5 523,-247.5 593,-247.5 593,-228.5 523,-228.5"/>
<text text-anchor="middle" x="558" y="-235.5" font-family="Helvetica,sans-Serif" font-size="10.00" fill="#000000">clset_match</text>
</a>
</g>
</g>
<!-- Node207&#45;&gt;Node208 -->
<g id="edge5" class="edge">
<title>Node207&#45;&gt;Node208</title>
<path fill="none" stroke="#191970" d="M497.3543,-238C505.9061,-238 514.7659,-238 522.985,-238"/>
<polygon fill="#191970" stroke="#191970" points="497.1397,-234.5001 487.1397,-238 497.1396,-241.5001 497.1397,-234.5001"/>
</g>
<!-- Node209 -->
<g id="node7" class="node">
<title>Node209</title>
<g id="a_node7"><a xlink:href="xcs__multi__step_8h.html#af2eaa15cba52d29fa3630218d9780a6a" target="_top" xlink:title="Constructs the match set and selects an action to perform. ">
<polygon fill="none" stroke="#000000" points="631,-304.5 631,-323.5 731,-323.5 731,-304.5 631,-304.5"/>
<text text-anchor="middle" x="681" y="-311.5" font-family="Helvetica,sans-Serif" font-size="10.00" fill="#000000">xcs_multi_decision</text>
</a>
</g>
</g>
<!-- Node208&#45;&gt;Node209 -->
<g id="edge6" class="edge">
<title>Node208&#45;&gt;Node209</title>
<path fill="none" stroke="#191970" d="M577.4307,-253.8735C591.3065,-264.7921 610.6841,-279.2124 629,-290 638.0814,-295.3487 648.5576,-300.3828 657.7165,-304.4457"/>
<polygon fill="#191970" stroke="#191970" points="579.5596,-251.0946 569.5607,-247.5914 575.1927,-256.5654 579.5596,-251.0946"/>
</g>
<!-- Node213 -->
<g id="node11" class="node">
<title>Node213</title>
<g id="a_node11"><a xlink:href="xcs__single__step_8h.html#a5c1d53976f601ae3603aed34f0767c29" target="_top" xlink:title="Constructs the match set and selects an action to perform. ">
<polygon fill="none" stroke="#000000" points="629,-228.5 629,-247.5 733,-247.5 733,-228.5 629,-228.5"/>
<text text-anchor="middle" x="681" y="-235.5" font-family="Helvetica,sans-Serif" font-size="10.00" fill="#000000">xcs_single_decision</text>
</a>
</g>
</g>
<!-- Node208&#45;&gt;Node213 -->
<g id="edge10" class="edge">
<title>Node208&#45;&gt;Node213</title>
<path fill="none" stroke="#191970" d="M603.4304,-238C611.6841,-238 620.3532,-238 628.784,-238"/>
<polygon fill="#191970" stroke="#191970" points="603.2469,-234.5001 593.2469,-238 603.2468,-241.5001 603.2469,-234.5001"/>
</g>
<!-- Node218 -->
<g id="node16" class="node">
<title>Node218</title>
<g id="a_node16"><a xlink:href="xcsf_8c.html#af5fb604e81235fdcb2ed8925d9291f59" target="_top" xlink:title="Executes a single XCSF trial. ">
<polygon fill="none" stroke="#000000" points="653,-152.5 653,-171.5 709,-171.5 709,-152.5 653,-152.5"/>
<text text-anchor="middle" x="681" y="-159.5" font-family="Helvetica,sans-Serif" font-size="10.00" fill="#000000">xcsf_trial</text>
</a>
</g>
</g>
<!-- Node208&#45;&gt;Node218 -->
<g id="edge16" class="edge">
<title>Node208&#45;&gt;Node218</title>
<path fill="none" stroke="#191970" d="M587.2295,-223.0659C589.2293,-221.7623 591.1733,-220.4028 593,-219 611.4515,-204.8304 609.5576,-193.7761 629,-181 636.2292,-176.2495 644.8024,-172.4909 652.8811,-169.6138"/>
<polygon fill="#191970" stroke="#191970" points="585.0974,-220.2619 578.2956,-228.3851 588.6785,-226.2766 585.0974,-220.2619"/>
</g>
<!-- Node210 -->
<g id="node8" class="node">
<title>Node210</title>
<g id="a_node8"><a xlink:href="xcs__multi__step_8c.html#ad50c415970b4bfc42f469fb38c5e68fa" target="_top" xlink:title="Executes a multi&#45;step trial using a built&#45;in environment. ">
<polygon fill="none" stroke="#000000" points="781,-304.5 781,-323.5 861,-323.5 861,-304.5 781,-304.5"/>
<text text-anchor="middle" x="821" y="-311.5" font-family="Helvetica,sans-Serif" font-size="10.00" fill="#000000">xcs_multi_trial</text>
</a>
</g>
</g>
<!-- Node209&#45;&gt;Node210 -->
<g id="edge7" class="edge">
<title>Node209&#45;&gt;Node210</title>
<path fill="none" stroke="#191970" d="M741.2536,-314C754.6359,-314 768.5029,-314 780.8465,-314"/>
<polygon fill="#191970" stroke="#191970" points="741.1478,-310.5001 731.1478,-314 741.1477,-317.5001 741.1478,-310.5001"/>
</g>
<!-- Node211 -->
<g id="node9" class="node">
<title>Node211</title>
<g id="a_node9"><a xlink:href="xcs__multi__step_8h.html#acc29d4a55dbd56c16ea5f19f15a7c677" target="_top" xlink:title="Executes a multi&#45;step reinforcement learning experiment. ">
<polygon fill="none" stroke="#000000" points="912,-342.5 912,-361.5 1016,-361.5 1016,-342.5 912,-342.5"/>
<text text-anchor="middle" x="964" y="-349.5" font-family="Helvetica,sans-Serif" font-size="10.00" fill="#000000">xcs_multi_step_exp</text>
</a>
</g>
</g>
<!-- Node210&#45;&gt;Node211 -->
<g id="edge8" class="edge">
<title>Node210&#45;&gt;Node211</title>
<path fill="none" stroke="#191970" d="M866.8133,-326.1742C886.5871,-331.4287 909.3838,-337.4866 927.9266,-342.4141"/>
<polygon fill="#191970" stroke="#191970" points="867.6484,-322.7747 857.0849,-323.589 865.8506,-329.5399 867.6484,-322.7747"/>
</g>
<!-- Node212 -->
<g id="node10" class="node">
<title>Node212</title>
<g id="a_node10"><a xlink:href="main_8c.html#a3c04138a5bfe5d72780bb7e82a18e627" target="_top" xlink:title="main">
<polygon fill="none" stroke="#000000" points="1109,-285.5 1109,-304.5 1147,-304.5 1147,-285.5 1109,-285.5"/>
<text text-anchor="middle" x="1128" y="-292.5" font-family="Helvetica,sans-Serif" font-size="10.00" fill="#000000">main</text>
</a>
</g>
</g>
<!-- Node211&#45;&gt;Node212 -->
<g id="edge9" class="edge">
<title>Node211&#45;&gt;Node212</title>
<path fill="none" stroke="#191970" d="M1001.4075,-339.0933C1007.2955,-337.0572 1013.3139,-334.9733 1019,-333 1050.4287,-322.0931 1086.9296,-309.3531 1108.7099,-301.7435"/>
<polygon fill="#191970" stroke="#191970" points="1000.0114,-335.8726 991.7031,-342.4469 1002.2978,-342.4887 1000.0114,-335.8726"/>
</g>
<!-- Node214 -->
<g id="node12" class="node">
<title>Node214</title>
<g id="a_node12"><a xlink:href="structXCS.html#a94d556a5e545ec415d7165d5e91b21d4" target="_top" xlink:title="XCS::single_decision">
<polygon fill="none" stroke="#000000" points="909,-190.5 909,-209.5 1019,-209.5 1019,-190.5 909,-190.5"/>
<text text-anchor="middle" x="964" y="-197.5" font-family="Helvetica,sans-Serif" font-size="10.00" fill="#000000">XCS::single_decision</text>
</a>
</g>
</g>
<!-- Node213&#45;&gt;Node214 -->
<g id="edge11" class="edge">
<title>Node213&#45;&gt;Node214</title>
<path fill="none" stroke="#191970" d="M730.4831,-226.2678C742.998,-223.59 756.4492,-220.9597 769,-219 815.8822,-211.6799 869.5734,-206.6957 908.7316,-203.6753"/>
<polygon fill="#191970" stroke="#191970" points="729.7023,-222.8557 720.6822,-228.4135 731.1994,-229.6938 729.7023,-222.8557"/>
</g>
<!-- Node216 -->
<g id="node14" class="node">
<title>Node216</title>
<g id="a_node14"><a xlink:href="xcs__single__step_8c.html#a536ab4256e871e31959ea6e907455340" target="_top" xlink:title="Executes a single&#45;step trial using a built&#45;in environment. ">
<polygon fill="none" stroke="#000000" points="779,-228.5 779,-247.5 863,-247.5 863,-228.5 779,-228.5"/>
<text text-anchor="middle" x="821" y="-235.5" font-family="Helvetica,sans-Serif" font-size="10.00" fill="#000000">xcs_single_trial</text>
</a>
</g>
</g>
<!-- Node213&#45;&gt;Node216 -->
<g id="edge13" class="edge">
<title>Node213&#45;&gt;Node216</title>
<path fill="none" stroke="#191970" d="M743.1666,-238C755.2402,-238 767.6287,-238 778.8708,-238"/>
<polygon fill="#191970" stroke="#191970" points="743.1309,-234.5001 733.1308,-238 743.1308,-241.5001 743.1309,-234.5001"/>
</g>
<!-- Node215 -->
<g id="node13" class="node">
<title>Node215</title>
<g id="a_node13"><a xlink:href="python__wrapper_8cpp.html#afbdcc1358036a0b83a6b239da2b098a2" target="_top" xlink:title="BOOST_PYTHON_MODULE">
<polygon fill="none" stroke="#000000" points="1055,-95.5 1055,-114.5 1201,-114.5 1201,-95.5 1055,-95.5"/>
<text text-anchor="middle" x="1128" y="-102.5" font-family="Helvetica,sans-Serif" font-size="10.00" fill="#000000">BOOST_PYTHON_MODULE</text>
</a>
</g>
</g>
<!-- Node214&#45;&gt;Node215 -->
<g id="edge12" class="edge">
<title>Node214&#45;&gt;Node215</title>
<path fill="none" stroke="#191970" d="M1006.2146,-186.768C1010.6038,-184.994 1014.94,-183.0662 1019,-181 1057.2418,-161.5385 1097.4538,-130.2371 1116.5855,-114.5743"/>
<polygon fill="#191970" stroke="#191970" points="1004.724,-183.5897 996.6081,-190.4002 1007.1997,-190.1373 1004.724,-183.5897"/>
</g>
<!-- Node217 -->
<g id="node15" class="node">
<title>Node217</title>
<g id="a_node15"><a xlink:href="xcs__single__step_8h.html#a39a031bf59eaa9b33e30e614610dcda8" target="_top" xlink:title="Executes a single&#45;step reinforcement learning experiment. ">
<polygon fill="none" stroke="#000000" points="910,-304.5 910,-323.5 1018,-323.5 1018,-304.5 910,-304.5"/>
<text text-anchor="middle" x="964" y="-311.5" font-family="Helvetica,sans-Serif" font-size="10.00" fill="#000000">xcs_single_step_exp</text>
</a>
</g>
</g>
<!-- Node216&#45;&gt;Node217 -->
<g id="edge14" class="edge">
<title>Node216&#45;&gt;Node217</title>
<path fill="none" stroke="#191970" d="M844.8672,-253.1792C862.3205,-264.012 886.7358,-278.6181 909,-290 919.1111,-295.169 930.5829,-300.2872 940.4236,-304.4608"/>
<polygon fill="#191970" stroke="#191970" points="846.2783,-249.9334 835.945,-247.5936 842.5639,-255.8666 846.2783,-249.9334"/>
</g>
<!-- Node217&#45;&gt;Node212 -->
<g id="edge15" class="edge">
<title>Node217&#45;&gt;Node212</title>
<path fill="none" stroke="#191970" d="M1028.1924,-306.5631C1057.0058,-303.2249 1088.9013,-299.5297 1108.7011,-297.2359"/>
<polygon fill="#191970" stroke="#191970" points="1027.685,-303.0984 1018.1542,-307.726 1028.4906,-310.0519 1027.685,-303.0984"/>
</g>
<!-- Node219 -->
<g id="node17" class="node">
<title>Node219</title>
<g id="a_node17"><a xlink:href="xcsf_8h.html#aee465caea59599a71fc69528598156cb" target="_top" xlink:title="Executes MAX_TRIALS number of XCSF learning iterations using the training. data and test iterations u...">
<polygon fill="none" stroke="#000000" points="796.5,-152.5 796.5,-171.5 845.5,-171.5 845.5,-152.5 796.5,-152.5"/>
<text text-anchor="middle" x="821" y="-159.5" font-family="Helvetica,sans-Serif" font-size="10.00" fill="#000000">xcsf_fit</text>
</a>
</g>
</g>
<!-- Node218&#45;&gt;Node219 -->
<g id="edge17" class="edge">
<title>Node218&#45;&gt;Node219</title>
<path fill="none" stroke="#191970" d="M719.4176,-162C744.0044,-162 775.1683,-162 796.4537,-162"/>
<polygon fill="#191970" stroke="#191970" points="719.3311,-158.5001 709.3311,-162 719.3311,-165.5001 719.3311,-158.5001"/>
</g>
<!-- Node221 -->
<g id="node19" class="node">
<title>Node221</title>
<g id="a_node19"><a xlink:href="xcsf_8h.html#a90b938e4ae2ef92284e8eabfcf4b7b7b" target="_top" xlink:title="Calculates the XCSF predictions for the provided input. ">
<polygon fill="none" stroke="#000000" points="786,-.5 786,-19.5 856,-19.5 856,-.5 786,-.5"/>
<text text-anchor="middle" x="821" y="-7.5" font-family="Helvetica,sans-Serif" font-size="10.00" fill="#000000">xcsf_predict</text>
</a>
</g>
</g>
<!-- Node218&#45;&gt;Node221 -->
<g id="edge21" class="edge">
<title>Node218&#45;&gt;Node221</title>
<path fill="none" stroke="#191970" d="M688.7728,-143.1846C701.4804,-114.6176 729.3239,-60.3234 769,-29 773.979,-25.0692 779.847,-21.9023 785.8146,-19.3668"/>
<polygon fill="#191970" stroke="#191970" points="685.5213,-141.8861 684.782,-152.4551 691.9508,-144.654 685.5213,-141.8861"/>
</g>
<!-- Node223 -->
<g id="node21" class="node">
<title>Node223</title>
<g id="a_node21"><a xlink:href="xcsf_8h.html#a348b8cd321211c377fb1deedc62c7c67" target="_top" xlink:title="Calculates the XCSF error for the input data. ">
<polygon fill="none" stroke="#000000" points="788.5,-38.5 788.5,-57.5 853.5,-57.5 853.5,-38.5 788.5,-38.5"/>
<text text-anchor="middle" x="821" y="-45.5" font-family="Helvetica,sans-Serif" font-size="10.00" fill="#000000">xcsf_score</text>
</a>
</g>
</g>
<!-- Node218&#45;&gt;Node223 -->
<g id="edge24" class="edge">
<title>Node218&#45;&gt;Node223</title>
<path fill="none" stroke="#191970" d="M693.6237,-143.8298C709.1499,-122.7009 737.3666,-88.0419 769,-67 774.842,-63.114 781.5806,-59.8993 788.2294,-57.289"/>
<polygon fill="#191970" stroke="#191970" points="690.5804,-142.0675 687.5946,-152.233 696.268,-146.1482 690.5804,-142.0675"/>
</g>
<!-- Node219&#45;&gt;Node212 -->
<g id="edge18" class="edge">
<title>Node219&#45;&gt;Node212</title>
<path fill="none" stroke="#191970" d="M836.8098,-179.2391C859.6952,-204.0253 900.2764,-247.2879 909,-252 975.9893,-288.1849 1069.1691,-294.1549 1108.8644,-294.9753"/>
<polygon fill="#191970" stroke="#191970" points="839.1469,-176.6102 829.7986,-171.624 833.9971,-181.3515 839.1469,-176.6102"/>
</g>
<!-- Node220 -->
<g id="node18" class="node">
<title>Node220</title>
<g id="a_node18"><a xlink:href="structXCS.html#ad2ccafe59d2b4ae6d0e1cbc15edee53c" target="_top" xlink:title="XCS::fit">
<polygon fill="none" stroke="#000000" points="938,-152.5 938,-171.5 990,-171.5 990,-152.5 938,-152.5"/>
<text text-anchor="middle" x="964" y="-159.5" font-family="Helvetica,sans-Serif" font-size="10.00" fill="#000000">XCS::fit</text>
</a>
</g>
</g>
<!-- Node219&#45;&gt;Node220 -->
<g id="edge19" class="edge">
<title>Node219&#45;&gt;Node220</title>
<path fill="none" stroke="#191970" d="M855.849,-162C881.1305,-162 914.7911,-162 937.8041,-162"/>
<polygon fill="#191970" stroke="#191970" points="855.5826,-158.5001 845.5826,-162 855.5825,-165.5001 855.5826,-158.5001"/>
</g>
<!-- Node220&#45;&gt;Node215 -->
<g id="edge20" class="edge">
<title>Node220&#45;&gt;Node215</title>
<path fill="none" stroke="#191970" d="M999.8128,-149.6447C1006.2037,-147.4352 1012.7994,-145.1518 1019,-143 1046.8314,-133.3414 1078.6404,-122.2455 1100.6823,-114.5476"/>
<polygon fill="#191970" stroke="#191970" points="998.3334,-146.4527 990.0247,-153.0265 1000.6194,-153.069 998.3334,-146.4527"/>
</g>
<!-- Node222 -->
<g id="node20" class="node">
<title>Node222</title>
<g id="a_node20"><a xlink:href="structXCS.html#a911ed75c86abed7807d33eb1385240ed" target="_top" xlink:title="XCS::predict">
<polygon fill="none" stroke="#000000" points="927.5,-.5 927.5,-19.5 1000.5,-19.5 1000.5,-.5 927.5,-.5"/>
<text text-anchor="middle" x="964" y="-7.5" font-family="Helvetica,sans-Serif" font-size="10.00" fill="#000000">XCS::predict</text>
</a>
</g>
</g>
<!-- Node221&#45;&gt;Node222 -->
<g id="edge22" class="edge">
<title>Node221&#45;&gt;Node222</title>
<path fill="none" stroke="#191970" d="M866.5882,-10C886.1972,-10 908.8131,-10 927.3147,-10"/>
<polygon fill="#191970" stroke="#191970" points="866.3484,-6.5001 856.3483,-10 866.3483,-13.5001 866.3484,-6.5001"/>
</g>
<!-- Node222&#45;&gt;Node215 -->
<g id="edge23" class="edge">
<title>Node222&#45;&gt;Node215</title>
<path fill="none" stroke="#191970" d="M1006.2146,-23.232C1010.6038,-25.006 1014.94,-26.9338 1019,-29 1057.2418,-48.4615 1097.4538,-79.7629 1116.5855,-95.4257"/>
<polygon fill="#191970" stroke="#191970" points="1007.1997,-19.8627 996.6081,-19.5998 1004.724,-26.4103 1007.1997,-19.8627"/>
</g>
<!-- Node224 -->
<g id="node22" class="node">
<title>Node224</title>
<g id="a_node22"><a xlink:href="structXCS.html#aa77bc77484d6d14bf512304a23cfec88" target="_top" xlink:title="XCS::score">
<polygon fill="none" stroke="#000000" points="930,-38.5 930,-57.5 998,-57.5 998,-38.5 930,-38.5"/>
<text text-anchor="middle" x="964" y="-45.5" font-family="Helvetica,sans-Serif" font-size="10.00" fill="#000000">XCS::score</text>
</a>
</g>
</g>
<!-- Node223&#45;&gt;Node224 -->
<g id="edge25" class="edge">
<title>Node223&#45;&gt;Node224</title>
<path fill="none" stroke="#191970" d="M863.8115,-48C884.9289,-48 910.0489,-48 929.853,-48"/>
<polygon fill="#191970" stroke="#191970" points="863.8071,-44.5001 853.8071,-48 863.8071,-51.5001 863.8071,-44.5001"/>
</g>
<!-- Node224&#45;&gt;Node215 -->
<g id="edge26" class="edge">
<title>Node224&#45;&gt;Node215</title>
<path fill="none" stroke="#191970" d="M1001.1976,-60.9285C1031.3734,-71.4164 1073.2296,-85.9639 1100.4605,-95.4284"/>
<polygon fill="#191970" stroke="#191970" points="1002.0447,-57.5175 991.4499,-57.5405 999.7466,-64.1296 1002.0447,-57.5175"/>
</g>
<!-- Node225&#45;&gt;Node212 -->
<g id="edge29" class="edge">
<title>Node225&#45;&gt;Node212</title>
<path fill="none" stroke="#191970" d="M867.4241,-138.6391C869.396,-139.9711 871.2689,-141.4214 873,-143 900.6167,-168.1845 880.6543,-194.639 909,-219 947.7099,-252.2682 970.7725,-235.2864 1019,-252 1050.9075,-263.0578 1087.2663,-277.8552 1108.8875,-286.893"/>
<polygon fill="#191970" stroke="#191970" points="868.7127,-135.3497 858.2762,-133.5246 865.2967,-141.4596 868.7127,-135.3497"/>
</g>
<!-- Node225&#45;&gt;Node220 -->
<g id="edge28" class="edge">
<title>Node225&#45;&gt;Node220</title>
<path fill="none" stroke="#191970" d="M866.8485,-136.1835C890.3201,-142.4207 918.0435,-149.7878 937.8548,-155.0523"/>
<polygon fill="#191970" stroke="#191970" points="867.6484,-132.7747 857.0849,-133.589 865.8506,-139.5399 867.6484,-132.7747"/>
</g>
<!-- Node226 -->
<g id="node24" class="node">
<title>Node226</title>
<g id="a_node24"><a xlink:href="structXCS.html#ab58a4fb495b05f3450b182bc21dcba1f" target="_top" xlink:title="XCS::single_reset">
<polygon fill="none" stroke="#000000" points="916,-114.5 916,-133.5 1012,-133.5 1012,-114.5 916,-114.5"/>
<text text-anchor="middle" x="964" y="-121.5" font-family="Helvetica,sans-Serif" font-size="10.00" fill="#000000">XCS::single_reset</text>
</a>
</g>
</g>
<!-- Node225&#45;&gt;Node226 -->
<g id="edge30" class="edge">
<title>Node225&#45;&gt;Node226</title>
<path fill="none" stroke="#191970" d="M869.73,-124C884.6127,-124 900.9651,-124 915.8118,-124"/>
<polygon fill="#191970" stroke="#191970" points="869.6979,-120.5001 859.6979,-124 869.6978,-127.5001 869.6979,-120.5001"/>
</g>
<!-- Node226&#45;&gt;Node215 -->
<g id="edge31" class="edge">
<title>Node226&#45;&gt;Node215</title>
<path fill="none" stroke="#191970" d="M1022.5511,-117.2166C1032.9968,-116.0065 1043.9967,-114.7321 1054.791,-113.4815"/>
<polygon fill="#191970" stroke="#191970" points="1021.8491,-113.7745 1012.3184,-118.4021 1022.6548,-120.728 1021.8491,-113.7745"/>
</g>
<!-- Node227&#45;&gt;Node210 -->
<g id="edge33" class="edge">
<title>Node227&#45;&gt;Node210</title>
<path fill="none" stroke="#191970" d="M581.5858,-211.4699C585.5328,-213.76 589.4836,-216.2997 593,-219 611.4515,-233.1696 609.1726,-244.83 629,-257 654.4854,-272.6429 732.3967,-292.9963 780.782,-304.6691"/>
<polygon fill="#191970" stroke="#191970" points="583.0529,-208.2846 572.5894,-206.6212 579.7318,-214.4467 583.0529,-208.2846"/>
</g>
<!-- Node227&#45;&gt;Node218 -->
<g id="edge38" class="edge">
<title>Node227&#45;&gt;Node218</title>
<path fill="none" stroke="#191970" d="M582.3389,-192.4807C602.6496,-186.2058 631.6115,-177.2583 652.9042,-170.68"/>
<polygon fill="#191970" stroke="#191970" points="581.114,-189.1958 572.5927,-195.4917 583.1803,-195.8839 581.114,-189.1958"/>
</g>
<!-- Node228 -->
<g id="node26" class="node">
<title>Node228</title>
<g id="a_node26"><a xlink:href="xcs__single__step_8h.html#a0ff6b521f66224d56ef0e6f50f5781b9" target="_top" xlink:title="Creates the action set, updates the classifiers and runs the EA. ">
<polygon fill="none" stroke="#000000" points="632,-190.5 632,-209.5 730,-209.5 730,-190.5 632,-190.5"/>
<text text-anchor="middle" x="681" y="-197.5" font-family="Helvetica,sans-Serif" font-size="10.00" fill="#000000">xcs_single_update</text>
</a>
</g>
</g>
<!-- Node227&#45;&gt;Node228 -->
<g id="edge34" class="edge">
<title>Node227&#45;&gt;Node228</title>
<path fill="none" stroke="#191970" d="M582.9182,-200C596.9931,-200 615.0837,-200 631.8873,-200"/>
<polygon fill="#191970" stroke="#191970" points="582.5928,-196.5001 572.5927,-200 582.5927,-203.5001 582.5928,-196.5001"/>
</g>
<!-- Node228&#45;&gt;Node216 -->
<g id="edge37" class="edge">
<title>Node228&#45;&gt;Node216</title>
<path fill="none" stroke="#191970" d="M726.1176,-212.2462C745.4149,-217.484 767.6124,-223.5091 785.6834,-228.4141"/>
<polygon fill="#191970" stroke="#191970" points="726.8956,-208.8308 716.3279,-209.589 725.0619,-215.5864 726.8956,-208.8308"/>
</g>
<!-- Node229 -->
<g id="node27" class="node">
<title>Node229</title>
<g id="a_node27"><a xlink:href="structXCS.html#aedc01ad6f00a54b260a7605929a1d4c9" target="_top" xlink:title="XCS::single_update">
<polygon fill="none" stroke="#000000" points="769,-76.5 769,-95.5 873,-95.5 873,-76.5 769,-76.5"/>
<text text-anchor="middle" x="821" y="-83.5" font-family="Helvetica,sans-Serif" font-size="10.00" fill="#000000">XCS::single_update</text>
</a>
</g>
</g>
<!-- Node228&#45;&gt;Node229 -->
<g id="edge35" class="edge">
<title>Node228&#45;&gt;Node229</title>
<path fill="none" stroke="#191970" d="M727.4241,-185.3609C729.396,-184.0289 731.2689,-182.5786 733,-181 760.6167,-155.8155 741.3833,-130.1845 769,-105 773.2611,-101.1141 778.3813,-98.0061 783.7238,-95.5246"/>
<polygon fill="#191970" stroke="#191970" points="725.2967,-182.5404 718.2762,-190.4754 728.7127,-188.6503 725.2967,-182.5404"/>
</g>
<!-- Node229&#45;&gt;Node215 -->
<g id="edge36" class="edge">
<title>Node229&#45;&gt;Node215</title>
<path fill="none" stroke="#191970" d="M883.3596,-89.8594C933.0226,-92.933 1002.6399,-97.2416 1054.9168,-100.4769"/>
<polygon fill="#191970" stroke="#191970" points="883.2755,-86.3476 873.0784,-89.2231 882.843,-93.3342 883.2755,-86.3476"/>
</g>
</g>
</svg>
