<?xml version="1.0" encoding="UTF-8" standalone="no"?>
<!DOCTYPE svg PUBLIC "-//W3C//DTD SVG 1.1//EN"
 "http://www.w3.org/Graphics/SVG/1.1/DTD/svg11.dtd">
<!-- Generated by graphviz version 2.40.1 (20161225.0304)
 -->
<!-- Title: sam.h Pages: 1 -->
<svg width="944pt" height="84pt"
 viewBox="0.00 0.00 943.50 84.00" xmlns="http://www.w3.org/2000/svg" xmlns:xlink="http://www.w3.org/1999/xlink">
<g id="graph0" class="graph" transform="scale(1 1) rotate(0) translate(4 80)">
<title>sam.h</title>
<!-- Node1 -->
<g id="node1" class="node">
<title>Node1</title>
<polygon fill="#bfbfbf" stroke="#000000" points="527.5,-56.5 527.5,-75.5 571.5,-75.5 571.5,-56.5 527.5,-56.5"/>
<text text-anchor="middle" x="549.5" y="-63.5" font-family="Helvetica,sans-Serif" font-size="10.00" fill="#000000">sam.h</text>
</g>
<!-- Node2 -->
<g id="node2" class="node">
<title>Node2</title>
<g id="a_node2"><a xlink:href="act__integer_8c.html" target="_top" xlink:title="integer action functions. ">
<polygon fill="none" stroke="#000000" points="0,-.5 0,-19.5 73,-19.5 73,-.5 0,-.5"/>
<text text-anchor="middle" x="36.5" y="-7.5" font-family="Helvetica,sans-Serif" font-size="10.00" fill="#000000">act_integer.c</text>
</a>
</g>
</g>
<!-- Node1&#45;&gt;Node2 -->
<g id="edge1" class="edge">
<title>Node1&#45;&gt;Node2</title>
<path fill="none" stroke="#191970" d="M517.0841,-64.1656C440.7813,-59.5538 244.0195,-45.9476 81.5,-20 78.813,-19.571 76.0459,-19.0796 73.2675,-18.5498"/>
<polygon fill="#191970" stroke="#191970" points="517.2595,-67.6821 527.4494,-64.7812 517.6745,-60.6944 517.2595,-67.6821"/>
</g>
<!-- Node3 -->
<g id="node3" class="node">
<title>Node3</title>
<g id="a_node3"><a xlink:href="cond__dgp_8c.html" target="_top" xlink:title="Dynamical GP graph condition functions. ">
<polygon fill="none" stroke="#000000" points="91,-.5 91,-19.5 158,-19.5 158,-.5 91,-.5"/>
<text text-anchor="middle" x="124.5" y="-7.5" font-family="Helvetica,sans-Serif" font-size="10.00" fill="#000000">cond_dgp.c</text>
</a>
</g>
</g>
<!-- Node1&#45;&gt;Node3 -->
<g id="edge2" class="edge">
<title>Node1&#45;&gt;Node3</title>
<path fill="none" stroke="#191970" d="M517.2406,-63.3084C451.2462,-57.54 296.188,-42.6429 167.5,-20 164.4806,-19.4687 161.3549,-18.8593 158.23,-18.2092"/>
<polygon fill="#191970" stroke="#191970" points="517.1504,-66.8135 527.4144,-64.1867 517.7525,-59.8395 517.1504,-66.8135"/>
</g>
<!-- Node4 -->
<g id="node4" class="node">
<title>Node4</title>
<g id="a_node4"><a xlink:href="cond__ellipsoid_8c.html" target="_top" xlink:title="Hyperellipsoid condition functions. ">
<polygon fill="none" stroke="#000000" points="176.5,-.5 176.5,-19.5 262.5,-19.5 262.5,-.5 176.5,-.5"/>
<text text-anchor="middle" x="219.5" y="-7.5" font-family="Helvetica,sans-Serif" font-size="10.00" fill="#000000">cond_ellipsoid.c</text>
</a>
</g>
</g>
<!-- Node1&#45;&gt;Node4 -->
<g id="edge3" class="edge">
<title>Node1&#45;&gt;Node4</title>
<path fill="none" stroke="#191970" d="M517.5757,-60.9943C465.8351,-52.8191 360.478,-35.9143 271.5,-20 268.6041,-19.4821 265.6197,-18.9373 262.6142,-18.3807"/>
<polygon fill="#191970" stroke="#191970" points="517.0601,-64.4561 527.4832,-62.5564 518.1504,-57.5415 517.0601,-64.4561"/>
</g>
<!-- Node5 -->
<g id="node5" class="node">
<title>Node5</title>
<g id="a_node5"><a xlink:href="cond__gp_8c.html" target="_top" xlink:title="Tree GP condition functions. ">
<polygon fill="none" stroke="#000000" points="280.5,-.5 280.5,-19.5 342.5,-19.5 342.5,-.5 280.5,-.5"/>
<text text-anchor="middle" x="311.5" y="-7.5" font-family="Helvetica,sans-Serif" font-size="10.00" fill="#000000">cond_gp.c</text>
</a>
</g>
</g>
<!-- Node1&#45;&gt;Node5 -->
<g id="edge4" class="edge">
<title>Node1&#45;&gt;Node5</title>
<path fill="none" stroke="#191970" d="M517.7355,-58.7923C478.5945,-49.8711 410.0767,-34.1254 351.5,-20 348.7165,-19.3288 345.8263,-18.6232 342.9307,-17.9103"/>
<polygon fill="#191970" stroke="#191970" points="516.9694,-62.2074 527.4969,-61.0144 518.5232,-55.382 516.9694,-62.2074"/>
</g>
<!-- Node6 -->
<g id="node6" class="node">
<title>Node6</title>
<g id="a_node6"><a xlink:href="cond__rectangle_8c.html" target="_top" xlink:title="Hyperrectangle condition functions. ">
<polygon fill="none" stroke="#000000" points="361,-.5 361,-19.5 452,-19.5 452,-.5 361,-.5"/>
<text text-anchor="middle" x="406.5" y="-7.5" font-family="Helvetica,sans-Serif" font-size="10.00" fill="#000000">cond_rectangle.c</text>
</a>
</g>
</g>
<!-- Node1&#45;&gt;Node6 -->
<g id="edge5" class="edge">
<title>Node1&#45;&gt;Node6</title>
<path fill="none" stroke="#191970" d="M518.0188,-53.6717C491.8903,-43.4395 455.2446,-29.0888 431.1971,-19.6716"/>
<polygon fill="#191970" stroke="#191970" points="516.8819,-56.9852 527.4696,-57.3727 519.4344,-50.4672 516.8819,-56.9852"/>
</g>
<!-- Node7 -->
<g id="node7" class="node">
<title>Node7</title>
<g id="a_node7"><a xlink:href="cond__ternary_8c.html" target="_top" xlink:title="Ternary condition functions. ">
<polygon fill="none" stroke="#000000" points="470,-.5 470,-19.5 551,-19.5 551,-.5 470,-.5"/>
<text text-anchor="middle" x="510.5" y="-7.5" font-family="Helvetica,sans-Serif" font-size="10.00" fill="#000000">cond_ternary.c</text>
</a>
</g>
</g>
<!-- Node1&#45;&gt;Node7 -->
<g id="edge6" class="edge">
<title>Node1&#45;&gt;Node7</title>
<path fill="none" stroke="#191970" d="M536.9092,-47.9209C530.3605,-38.5176 522.6176,-27.3997 517.2154,-19.6427"/>
<polygon fill="#191970" stroke="#191970" points="534.1196,-50.0397 542.7067,-56.2455 539.8639,-46.0392 534.1196,-50.0397"/>
</g>
<!-- Node8 -->
<g id="node8" class="node">
<title>Node8</title>
<g id="a_node8"><a xlink:href="dgp_8c.html" target="_top" xlink:title="An implementation of dynamical GP graphs with fuzzy activation functions. ">
<polygon fill="none" stroke="#000000" points="569,-.5 569,-19.5 610,-19.5 610,-.5 569,-.5"/>
<text text-anchor="middle" x="589.5" y="-7.5" font-family="Helvetica,sans-Serif" font-size="10.00" fill="#000000">dgp.c</text>
</a>
</g>
</g>
<!-- Node1&#45;&gt;Node8 -->
<g id="edge7" class="edge">
<title>Node1&#45;&gt;Node8</title>
<path fill="none" stroke="#191970" d="M562.4136,-47.9209C569.1303,-38.5176 577.0717,-27.3997 582.6124,-19.6427"/>
<polygon fill="#191970" stroke="#191970" points="559.4318,-46.0738 556.4675,-56.2455 565.128,-50.1425 559.4318,-46.0738"/>
</g>
<!-- Node9 -->
<g id="node9" class="node">
<title>Node9</title>
<g id="a_node9"><a xlink:href="ea_8c.html" target="_top" xlink:title="Evolutionary algorithm functions. ">
<polygon fill="none" stroke="#000000" points="628,-.5 628,-19.5 663,-19.5 663,-.5 628,-.5"/>
<text text-anchor="middle" x="645.5" y="-7.5" font-family="Helvetica,sans-Serif" font-size="10.00" fill="#000000">ea.c</text>
</a>
</g>
</g>
<!-- Node1&#45;&gt;Node9 -->
<g id="edge8" class="edge">
<title>Node1&#45;&gt;Node9</title>
<path fill="none" stroke="#191970" d="M575.1346,-51.0465C592.2159,-41.0824 614.164,-28.2794 628.9697,-19.6427"/>
<polygon fill="#191970" stroke="#191970" points="573.0962,-48.1836 566.2219,-56.2455 576.6233,-54.23 573.0962,-48.1836"/>
</g>
<!-- Node10 -->
<g id="node10" class="node">
<title>Node10</title>
<g id="a_node10"><a xlink:href="gp_8c.html" target="_top" xlink:title="An implementation of GP trees based upon TinyGP. ">
<polygon fill="none" stroke="#000000" points="681,-.5 681,-19.5 716,-19.5 716,-.5 681,-.5"/>
<text text-anchor="middle" x="698.5" y="-7.5" font-family="Helvetica,sans-Serif" font-size="10.00" fill="#000000">gp.c</text>
</a>
</g>
</g>
<!-- Node1&#45;&gt;Node10 -->
<g id="edge9" class="edge">
<title>Node1&#45;&gt;Node10</title>
<path fill="none" stroke="#191970" d="M581.3768,-54.1711C606.2259,-44.9277 641.5864,-31.7252 672.5,-20 675.2131,-18.9709 678.0827,-17.8749 680.8864,-16.7999"/>
<polygon fill="#191970" stroke="#191970" points="579.8974,-50.9869 571.7436,-57.752 582.3365,-57.5483 579.8974,-50.9869"/>
</g>
<!-- Node11 -->
<g id="node11" class="node">
<title>Node11</title>
<g id="a_node11"><a xlink:href="neural_8c.html" target="_top" xlink:title="An implementation of a multi&#45;layer perceptron neural network. ">
<polygon fill="none" stroke="#000000" points="734,-.5 734,-19.5 785,-19.5 785,-.5 734,-.5"/>
<text text-anchor="middle" x="759.5" y="-7.5" font-family="Helvetica,sans-Serif" font-size="10.00" fill="#000000">neural.c</text>
</a>
</g>
</g>
<!-- Node1&#45;&gt;Node11 -->
<g id="edge10" class="edge">
<title>Node1&#45;&gt;Node11</title>
<path fill="none" stroke="#191970" d="M581.2489,-58.0114C616.5521,-49.0566 675.2306,-33.9584 725.5,-20 728.2271,-19.2428 731.0719,-18.4348 733.9041,-17.6187"/>
<polygon fill="#191970" stroke="#191970" points="580.3438,-54.6301 571.5082,-60.4767 582.0613,-61.4161 580.3438,-54.6301"/>
</g>
<!-- Node12 -->
<g id="node12" class="node">
<title>Node12</title>
<g id="a_node12"><a xlink:href="pred__nlms_8c.html" target="_top" xlink:title="Normalised least mean squares prediction functions. ">
<polygon fill="none" stroke="#000000" points="803.5,-.5 803.5,-19.5 873.5,-19.5 873.5,-.5 803.5,-.5"/>
<text text-anchor="middle" x="838.5" y="-7.5" font-family="Helvetica,sans-Serif" font-size="10.00" fill="#000000">pred_nlms.c</text>
</a>
</g>
</g>
<!-- Node1&#45;&gt;Node12 -->
<g id="edge11" class="edge">
<title>Node1&#45;&gt;Node12</title>
<path fill="none" stroke="#191970" d="M581.3727,-60.4135C628.1922,-52.1172 718.2682,-35.8132 794.5,-20 797.4148,-19.3954 800.4337,-18.7499 803.4616,-18.0891"/>
<polygon fill="#191970" stroke="#191970" points="580.7553,-56.9683 571.5167,-62.1548 581.9732,-63.8616 580.7553,-56.9683"/>
</g>
<!-- Node13 -->
<g id="node13" class="node">
<title>Node13</title>
<g id="a_node13"><a xlink:href="sam_8c.html" target="_top" xlink:title="Self&#45;adaptive mutation functions. ">
<polygon fill="none" stroke="#000000" points="891.5,-.5 891.5,-19.5 935.5,-19.5 935.5,-.5 891.5,-.5"/>
<text text-anchor="middle" x="913.5" y="-7.5" font-family="Helvetica,sans-Serif" font-size="10.00" fill="#000000">sam.c</text>
</a>
</g>
</g>
<!-- Node1&#45;&gt;Node13 -->
<g id="edge12" class="edge">
<title>Node1&#45;&gt;Node13</title>
<path fill="none" stroke="#191970" d="M581.8857,-63.4206C641.8043,-58.2311 773.7707,-44.8461 882.5,-20 885.3667,-19.3449 888.3479,-18.5434 891.2787,-17.6819"/>
<polygon fill="#191970" stroke="#191970" points="581.2269,-59.9638 571.5579,-64.2951 581.8176,-66.9388 581.2269,-59.9638"/>
</g>
</g>
</svg>
