<?xml version="1.0" encoding="UTF-8" standalone="no"?>
<!DOCTYPE svg PUBLIC "-//W3C//DTD SVG 1.1//EN"
 "http://www.w3.org/Graphics/SVG/1.1/DTD/svg11.dtd">
<!-- Generated by graphviz version 2.40.1 (20161225.0304)
 -->
<!-- Title: sam_log_normal_init Pages: 1 -->
<svg width="1196pt" height="370pt"
 viewBox="0.00 0.00 1196.00 370.00" xmlns="http://www.w3.org/2000/svg" xmlns:xlink="http://www.w3.org/1999/xlink">
<g id="graph0" class="graph" transform="scale(1 1) rotate(0) translate(4 366)">
<title>sam_log_normal_init</title>
<!-- Node137 -->
<g id="node1" class="node">
<title>Node137</title>
<polygon fill="#bfbfbf" stroke="#000000" points="0,-190.5 0,-209.5 106,-209.5 106,-190.5 0,-190.5"/>
<text text-anchor="middle" x="53" y="-197.5" font-family="Helvetica,sans-Serif" font-size="10.00" fill="#000000">sam_log_normal_init</text>
</g>
<!-- Node138 -->
<g id="node2" class="node">
<title>Node138</title>
<g id="a_node2"><a xlink:href="sam_8h.html#a934d788eb57734b6118fff7385733803" target="_top" xlink:title="Resets a classifier&#39;s self&#45;adaptive mutation rates. ">
<polygon fill="none" stroke="#000000" points="142,-190.5 142,-209.5 204,-209.5 204,-190.5 142,-190.5"/>
<text text-anchor="middle" x="173" y="-197.5" font-family="Helvetica,sans-Serif" font-size="10.00" fill="#000000">sam_reset</text>
</a>
</g>
</g>
<!-- Node137&#45;&gt;Node138 -->
<g id="edge1" class="edge">
<title>Node137&#45;&gt;Node138</title>
<path fill="none" stroke="#191970" d="M116.3355,-200C125.1952,-200 133.9577,-200 141.847,-200"/>
<polygon fill="#191970" stroke="#191970" points="116.3326,-196.5001 106.3326,-200 116.3325,-203.5001 116.3326,-196.5001"/>
</g>
<!-- Node139 -->
<g id="node3" class="node">
<title>Node139</title>
<g id="a_node3"><a xlink:href="sam_8h.html#ac19f397e3c1bd2a2a4f4a1174509ac67" target="_top" xlink:title="Initialises a classifier&#39;s self&#45;adaptive mutation rates. ">
<polygon fill="none" stroke="#000000" points="240,-190.5 240,-209.5 293,-209.5 293,-190.5 240,-190.5"/>
<text text-anchor="middle" x="266.5" y="-197.5" font-family="Helvetica,sans-Serif" font-size="10.00" fill="#000000">sam_init</text>
</a>
</g>
</g>
<!-- Node138&#45;&gt;Node139 -->
<g id="edge2" class="edge">
<title>Node138&#45;&gt;Node139</title>
<path fill="none" stroke="#191970" d="M214.1742,-200C222.8927,-200 231.8736,-200 239.8806,-200"/>
<polygon fill="#191970" stroke="#191970" points="214.1342,-196.5001 204.1341,-200 214.1341,-203.5001 214.1342,-196.5001"/>
</g>
<!-- Node140 -->
<g id="node4" class="node">
<title>Node140</title>
<g id="a_node4"><a xlink:href="cl_8h.html#ab45c6f772a335d0a4fdb753a61958744" target="_top" xlink:title="Initialises a new classifier. ">
<polygon fill="none" stroke="#000000" points="329,-190.5 329,-209.5 371,-209.5 371,-190.5 329,-190.5"/>
<text text-anchor="middle" x="350" y="-197.5" font-family="Helvetica,sans-Serif" font-size="10.00" fill="#000000">cl_init</text>
</a>
</g>
</g>
<!-- Node139&#45;&gt;Node140 -->
<g id="edge3" class="edge">
<title>Node139&#45;&gt;Node140</title>
<path fill="none" stroke="#191970" d="M303.4338,-200C312.1907,-200 321.2341,-200 328.9951,-200"/>
<polygon fill="#191970" stroke="#191970" points="303.3796,-196.5001 293.3795,-200 303.3795,-203.5001 303.3796,-196.5001"/>
</g>
<!-- Node141 -->
<g id="node5" class="node">
<title>Node141</title>
<g id="a_node5"><a xlink:href="clset_8c.html#a60fd3363a0a370e8b5a18671861be461" target="_top" xlink:title="Ensures all possible actions are covered by the match set. ">
<polygon fill="none" stroke="#000000" points="407,-228.5 407,-247.5 474,-247.5 474,-228.5 407,-228.5"/>
<text text-anchor="middle" x="440.5" y="-235.5" font-family="Helvetica,sans-Serif" font-size="10.00" fill="#000000">clset_cover</text>
</a>
</g>
</g>
<!-- Node140&#45;&gt;Node141 -->
<g id="edge4" class="edge">
<title>Node140&#45;&gt;Node141</title>
<path fill="none" stroke="#191970" d="M380.7291,-212.9028C392.8106,-217.9757 406.4369,-223.6972 417.6247,-228.3949"/>
<polygon fill="#191970" stroke="#191970" points="382.0225,-209.6499 371.4472,-209.0055 379.3124,-216.1041 382.0225,-209.6499"/>
</g>
<!-- Node159 -->
<g id="node23" class="node">
<title>Node159</title>
<g id="a_node23"><a xlink:href="clset_8h.html#a010148dc53ed67a07156c06cd3bedc17" target="_top" xlink:title="Initialises a new population of random classifiers. ">
<polygon fill="none" stroke="#000000" points="769.5,-114.5 769.5,-133.5 846.5,-133.5 846.5,-114.5 769.5,-114.5"/>
<text text-anchor="middle" x="808" y="-121.5" font-family="Helvetica,sans-Serif" font-size="10.00" fill="#000000">clset_pop_init</text>
</a>
</g>
</g>
<!-- Node140&#45;&gt;Node159 -->
<g id="edge27" class="edge">
<title>Node140&#45;&gt;Node159</title>
<path fill="none" stroke="#191970" d="M380.9783,-192.1744C430.3761,-179.9652 530.1771,-156.3983 616,-143 668.787,-134.7591 730.3284,-129.4116 769.2242,-126.551"/>
<polygon fill="#191970" stroke="#191970" points="380.0854,-188.7898 371.2255,-194.5996 381.7746,-195.5829 380.0854,-188.7898"/>
</g>
<!-- Node161 -->
<g id="node25" class="node">
<title>Node161</title>
<g id="a_node25"><a xlink:href="ea_8h.html#ae90a9b4131bb94462265b9c928499eb8" target="_top" xlink:title="Executes the evolutionary algorithm (EA). ">
<polygon fill="none" stroke="#000000" points="530.5,-190.5 530.5,-209.5 559.5,-209.5 559.5,-190.5 530.5,-190.5"/>
<text text-anchor="middle" x="545" y="-197.5" font-family="Helvetica,sans-Serif" font-size="10.00" fill="#000000">ea</text>
</a>
</g>
</g>
<!-- Node140&#45;&gt;Node161 -->
<g id="edge32" class="edge">
<title>Node140&#45;&gt;Node161</title>
<path fill="none" stroke="#191970" d="M381.369,-200C424.1092,-200 498.9174,-200 530.3907,-200"/>
<polygon fill="#191970" stroke="#191970" points="381.2397,-196.5001 371.2396,-200 381.2396,-203.5001 381.2397,-196.5001"/>
</g>
<!-- Node142 -->
<g id="node6" class="node">
<title>Node142</title>
<g id="a_node6"><a xlink:href="clset_8h.html#a229207544a5b8b601de05d231bb84650" target="_top" xlink:title="Constructs the match set. ">
<polygon fill="none" stroke="#000000" points="510,-228.5 510,-247.5 580,-247.5 580,-228.5 510,-228.5"/>
<text text-anchor="middle" x="545" y="-235.5" font-family="Helvetica,sans-Serif" font-size="10.00" fill="#000000">clset_match</text>
</a>
</g>
</g>
<!-- Node141&#45;&gt;Node142 -->
<g id="edge5" class="edge">
<title>Node141&#45;&gt;Node142</title>
<path fill="none" stroke="#191970" d="M484.3543,-238C492.9061,-238 501.7659,-238 509.985,-238"/>
<polygon fill="#191970" stroke="#191970" points="484.1397,-234.5001 474.1397,-238 484.1396,-241.5001 484.1397,-234.5001"/>
</g>
<!-- Node143 -->
<g id="node7" class="node">
<title>Node143</title>
<g id="a_node7"><a xlink:href="xcs__multi__step_8h.html#af2eaa15cba52d29fa3630218d9780a6a" target="_top" xlink:title="Constructs the match set and selects an action to perform. ">
<polygon fill="none" stroke="#000000" points="618,-304.5 618,-323.5 718,-323.5 718,-304.5 618,-304.5"/>
<text text-anchor="middle" x="668" y="-311.5" font-family="Helvetica,sans-Serif" font-size="10.00" fill="#000000">xcs_multi_decision</text>
</a>
</g>
</g>
<!-- Node142&#45;&gt;Node143 -->
<g id="edge6" class="edge">
<title>Node142&#45;&gt;Node143</title>
<path fill="none" stroke="#191970" d="M564.4307,-253.8735C578.3065,-264.7921 597.6841,-279.2124 616,-290 625.0814,-295.3487 635.5576,-300.3828 644.7165,-304.4457"/>
<polygon fill="#191970" stroke="#191970" points="566.5596,-251.0946 556.5607,-247.5914 562.1927,-256.5654 566.5596,-251.0946"/>
</g>
<!-- Node147 -->
<g id="node11" class="node">
<title>Node147</title>
<g id="a_node11"><a xlink:href="xcs__single__step_8h.html#a5c1d53976f601ae3603aed34f0767c29" target="_top" xlink:title="Constructs the match set and selects an action to perform. ">
<polygon fill="none" stroke="#000000" points="616,-228.5 616,-247.5 720,-247.5 720,-228.5 616,-228.5"/>
<text text-anchor="middle" x="668" y="-235.5" font-family="Helvetica,sans-Serif" font-size="10.00" fill="#000000">xcs_single_decision</text>
</a>
</g>
</g>
<!-- Node142&#45;&gt;Node147 -->
<g id="edge10" class="edge">
<title>Node142&#45;&gt;Node147</title>
<path fill="none" stroke="#191970" d="M590.4304,-238C598.6841,-238 607.3532,-238 615.784,-238"/>
<polygon fill="#191970" stroke="#191970" points="590.2469,-234.5001 580.2469,-238 590.2468,-241.5001 590.2469,-234.5001"/>
</g>
<!-- Node152 -->
<g id="node16" class="node">
<title>Node152</title>
<g id="a_node16"><a xlink:href="xcsf_8c.html#af5fb604e81235fdcb2ed8925d9291f59" target="_top" xlink:title="Executes a single XCSF trial. ">
<polygon fill="none" stroke="#000000" points="640,-152.5 640,-171.5 696,-171.5 696,-152.5 640,-152.5"/>
<text text-anchor="middle" x="668" y="-159.5" font-family="Helvetica,sans-Serif" font-size="10.00" fill="#000000">xcsf_trial</text>
</a>
</g>
</g>
<!-- Node142&#45;&gt;Node152 -->
<g id="edge16" class="edge">
<title>Node142&#45;&gt;Node152</title>
<path fill="none" stroke="#191970" d="M574.2295,-223.0659C576.2293,-221.7623 578.1733,-220.4028 580,-219 598.4515,-204.8304 596.5576,-193.7761 616,-181 623.2292,-176.2495 631.8024,-172.4909 639.8811,-169.6138"/>
<polygon fill="#191970" stroke="#191970" points="572.0974,-220.2619 565.2956,-228.3851 575.6785,-226.2766 572.0974,-220.2619"/>
</g>
<!-- Node144 -->
<g id="node8" class="node">
<title>Node144</title>
<g id="a_node8"><a xlink:href="xcs__multi__step_8c.html#ad50c415970b4bfc42f469fb38c5e68fa" target="_top" xlink:title="Executes a multi&#45;step trial using a built&#45;in environment. ">
<polygon fill="none" stroke="#000000" points="768,-304.5 768,-323.5 848,-323.5 848,-304.5 768,-304.5"/>
<text text-anchor="middle" x="808" y="-311.5" font-family="Helvetica,sans-Serif" font-size="10.00" fill="#000000">xcs_multi_trial</text>
</a>
</g>
</g>
<!-- Node143&#45;&gt;Node144 -->
<g id="edge7" class="edge">
<title>Node143&#45;&gt;Node144</title>
<path fill="none" stroke="#191970" d="M728.2536,-314C741.6359,-314 755.5029,-314 767.8465,-314"/>
<polygon fill="#191970" stroke="#191970" points="728.1478,-310.5001 718.1478,-314 728.1477,-317.5001 728.1478,-310.5001"/>
</g>
<!-- Node145 -->
<g id="node9" class="node">
<title>Node145</title>
<g id="a_node9"><a xlink:href="xcs__multi__step_8h.html#acc29d4a55dbd56c16ea5f19f15a7c677" target="_top" xlink:title="Executes a multi&#45;step reinforcement learning experiment. ">
<polygon fill="none" stroke="#000000" points="899,-342.5 899,-361.5 1003,-361.5 1003,-342.5 899,-342.5"/>
<text text-anchor="middle" x="951" y="-349.5" font-family="Helvetica,sans-Serif" font-size="10.00" fill="#000000">xcs_multi_step_exp</text>
</a>
</g>
</g>
<!-- Node144&#45;&gt;Node145 -->
<g id="edge8" class="edge">
<title>Node144&#45;&gt;Node145</title>
<path fill="none" stroke="#191970" d="M853.8133,-326.1742C873.5871,-331.4287 896.3838,-337.4866 914.9266,-342.4141"/>
<polygon fill="#191970" stroke="#191970" points="854.6484,-322.7747 844.0849,-323.589 852.8506,-329.5399 854.6484,-322.7747"/>
</g>
<!-- Node146 -->
<g id="node10" class="node">
<title>Node146</title>
<g id="a_node10"><a xlink:href="main_8c.html#a3c04138a5bfe5d72780bb7e82a18e627" target="_top" xlink:title="main">
<polygon fill="none" stroke="#000000" points="1096,-285.5 1096,-304.5 1134,-304.5 1134,-285.5 1096,-285.5"/>
<text text-anchor="middle" x="1115" y="-292.5" font-family="Helvetica,sans-Serif" font-size="10.00" fill="#000000">main</text>
</a>
</g>
</g>
<!-- Node145&#45;&gt;Node146 -->
<g id="edge9" class="edge">
<title>Node145&#45;&gt;Node146</title>
<path fill="none" stroke="#191970" d="M988.4075,-339.0933C994.2955,-337.0572 1000.3139,-334.9733 1006,-333 1037.4287,-322.0931 1073.9296,-309.3531 1095.7099,-301.7435"/>
<polygon fill="#191970" stroke="#191970" points="987.0114,-335.8726 978.7031,-342.4469 989.2978,-342.4887 987.0114,-335.8726"/>
</g>
<!-- Node148 -->
<g id="node12" class="node">
<title>Node148</title>
<g id="a_node12"><a xlink:href="structXCS.html#a94d556a5e545ec415d7165d5e91b21d4" target="_top" xlink:title="XCS::single_decision">
<polygon fill="none" stroke="#000000" points="896,-190.5 896,-209.5 1006,-209.5 1006,-190.5 896,-190.5"/>
<text text-anchor="middle" x="951" y="-197.5" font-family="Helvetica,sans-Serif" font-size="10.00" fill="#000000">XCS::single_decision</text>
</a>
</g>
</g>
<!-- Node147&#45;&gt;Node148 -->
<g id="edge11" class="edge">
<title>Node147&#45;&gt;Node148</title>
<path fill="none" stroke="#191970" d="M717.4831,-226.2678C729.998,-223.59 743.4492,-220.9597 756,-219 802.8822,-211.6799 856.5734,-206.6957 895.7316,-203.6753"/>
<polygon fill="#191970" stroke="#191970" points="716.7023,-222.8557 707.6822,-228.4135 718.1994,-229.6938 716.7023,-222.8557"/>
</g>
<!-- Node150 -->
<g id="node14" class="node">
<title>Node150</title>
<g id="a_node14"><a xlink:href="xcs__single__step_8c.html#a536ab4256e871e31959ea6e907455340" target="_top" xlink:title="Executes a single&#45;step trial using a built&#45;in environment. ">
<polygon fill="none" stroke="#000000" points="766,-228.5 766,-247.5 850,-247.5 850,-228.5 766,-228.5"/>
<text text-anchor="middle" x="808" y="-235.5" font-family="Helvetica,sans-Serif" font-size="10.00" fill="#000000">xcs_single_trial</text>
</a>
</g>
</g>
<!-- Node147&#45;&gt;Node150 -->
<g id="edge13" class="edge">
<title>Node147&#45;&gt;Node150</title>
<path fill="none" stroke="#191970" d="M730.1666,-238C742.2402,-238 754.6287,-238 765.8708,-238"/>
<polygon fill="#191970" stroke="#191970" points="730.1309,-234.5001 720.1308,-238 730.1308,-241.5001 730.1309,-234.5001"/>
</g>
<!-- Node149 -->
<g id="node13" class="node">
<title>Node149</title>
<g id="a_node13"><a xlink:href="python__wrapper_8cpp.html#afbdcc1358036a0b83a6b239da2b098a2" target="_top" xlink:title="BOOST_PYTHON_MODULE">
<polygon fill="none" stroke="#000000" points="1042,-95.5 1042,-114.5 1188,-114.5 1188,-95.5 1042,-95.5"/>
<text text-anchor="middle" x="1115" y="-102.5" font-family="Helvetica,sans-Serif" font-size="10.00" fill="#000000">BOOST_PYTHON_MODULE</text>
</a>
</g>
</g>
<!-- Node148&#45;&gt;Node149 -->
<g id="edge12" class="edge">
<title>Node148&#45;&gt;Node149</title>
<path fill="none" stroke="#191970" d="M993.2146,-186.768C997.6038,-184.994 1001.94,-183.0662 1006,-181 1044.2418,-161.5385 1084.4538,-130.2371 1103.5855,-114.5743"/>
<polygon fill="#191970" stroke="#191970" points="991.724,-183.5897 983.6081,-190.4002 994.1997,-190.1373 991.724,-183.5897"/>
</g>
<!-- Node151 -->
<g id="node15" class="node">
<title>Node151</title>
<g id="a_node15"><a xlink:href="xcs__single__step_8h.html#a39a031bf59eaa9b33e30e614610dcda8" target="_top" xlink:title="Executes a single&#45;step reinforcement learning experiment. ">
<polygon fill="none" stroke="#000000" points="897,-304.5 897,-323.5 1005,-323.5 1005,-304.5 897,-304.5"/>
<text text-anchor="middle" x="951" y="-311.5" font-family="Helvetica,sans-Serif" font-size="10.00" fill="#000000">xcs_single_step_exp</text>
</a>
</g>
</g>
<!-- Node150&#45;&gt;Node151 -->
<g id="edge14" class="edge">
<title>Node150&#45;&gt;Node151</title>
<path fill="none" stroke="#191970" d="M831.8672,-253.1792C849.3205,-264.012 873.7358,-278.6181 896,-290 906.1111,-295.169 917.5829,-300.2872 927.4236,-304.4608"/>
<polygon fill="#191970" stroke="#191970" points="833.2783,-249.9334 822.945,-247.5936 829.5639,-255.8666 833.2783,-249.9334"/>
</g>
<!-- Node151&#45;&gt;Node146 -->
<g id="edge15" class="edge">
<title>Node151&#45;&gt;Node146</title>
<path fill="none" stroke="#191970" d="M1015.1924,-306.5631C1044.0058,-303.2249 1075.9013,-299.5297 1095.7011,-297.2359"/>
<polygon fill="#191970" stroke="#191970" points="1014.685,-303.0984 1005.1542,-307.726 1015.4906,-310.0519 1014.685,-303.0984"/>
</g>
<!-- Node153 -->
<g id="node17" class="node">
<title>Node153</title>
<g id="a_node17"><a xlink:href="xcsf_8h.html#aee465caea59599a71fc69528598156cb" target="_top" xlink:title="Executes MAX_TRIALS number of XCSF learning iterations using the training. data and test iterations u...">
<polygon fill="none" stroke="#000000" points="783.5,-152.5 783.5,-171.5 832.5,-171.5 832.5,-152.5 783.5,-152.5"/>
<text text-anchor="middle" x="808" y="-159.5" font-family="Helvetica,sans-Serif" font-size="10.00" fill="#000000">xcsf_fit</text>
</a>
</g>
</g>
<!-- Node152&#45;&gt;Node153 -->
<g id="edge17" class="edge">
<title>Node152&#45;&gt;Node153</title>
<path fill="none" stroke="#191970" d="M706.4176,-162C731.0044,-162 762.1683,-162 783.4537,-162"/>
<polygon fill="#191970" stroke="#191970" points="706.3311,-158.5001 696.3311,-162 706.3311,-165.5001 706.3311,-158.5001"/>
</g>
<!-- Node155 -->
<g id="node19" class="node">
<title>Node155</title>
<g id="a_node19"><a xlink:href="xcsf_8h.html#a90b938e4ae2ef92284e8eabfcf4b7b7b" target="_top" xlink:title="Calculates the XCSF predictions for the provided input. ">
<polygon fill="none" stroke="#000000" points="773,-.5 773,-19.5 843,-19.5 843,-.5 773,-.5"/>
<text text-anchor="middle" x="808" y="-7.5" font-family="Helvetica,sans-Serif" font-size="10.00" fill="#000000">xcsf_predict</text>
</a>
</g>
</g>
<!-- Node152&#45;&gt;Node155 -->
<g id="edge21" class="edge">
<title>Node152&#45;&gt;Node155</title>
<path fill="none" stroke="#191970" d="M675.7728,-143.1846C688.4804,-114.6176 716.3239,-60.3234 756,-29 760.979,-25.0692 766.847,-21.9023 772.8146,-19.3668"/>
<polygon fill="#191970" stroke="#191970" points="672.5213,-141.8861 671.782,-152.4551 678.9508,-144.654 672.5213,-141.8861"/>
</g>
<!-- Node157 -->
<g id="node21" class="node">
<title>Node157</title>
<g id="a_node21"><a xlink:href="xcsf_8h.html#a348b8cd321211c377fb1deedc62c7c67" target="_top" xlink:title="Calculates the XCSF error for the input data. ">
<polygon fill="none" stroke="#000000" points="775.5,-38.5 775.5,-57.5 840.5,-57.5 840.5,-38.5 775.5,-38.5"/>
<text text-anchor="middle" x="808" y="-45.5" font-family="Helvetica,sans-Serif" font-size="10.00" fill="#000000">xcsf_score</text>
</a>
</g>
</g>
<!-- Node152&#45;&gt;Node157 -->
<g id="edge24" class="edge">
<title>Node152&#45;&gt;Node157</title>
<path fill="none" stroke="#191970" d="M680.6237,-143.8298C696.1499,-122.7009 724.3666,-88.0419 756,-67 761.842,-63.114 768.5806,-59.8993 775.2294,-57.289"/>
<polygon fill="#191970" stroke="#191970" points="677.5804,-142.0675 674.5946,-152.233 683.268,-146.1482 677.5804,-142.0675"/>
</g>
<!-- Node153&#45;&gt;Node146 -->
<g id="edge18" class="edge">
<title>Node153&#45;&gt;Node146</title>
<path fill="none" stroke="#191970" d="M823.8098,-179.2391C846.6952,-204.0253 887.2764,-247.2879 896,-252 962.9893,-288.1849 1056.1691,-294.1549 1095.8644,-294.9753"/>
<polygon fill="#191970" stroke="#191970" points="826.1469,-176.6102 816.7986,-171.624 820.9971,-181.3515 826.1469,-176.6102"/>
</g>
<!-- Node154 -->
<g id="node18" class="node">
<title>Node154</title>
<g id="a_node18"><a xlink:href="structXCS.html#ad2ccafe59d2b4ae6d0e1cbc15edee53c" target="_top" xlink:title="XCS::fit">
<polygon fill="none" stroke="#000000" points="925,-152.5 925,-171.5 977,-171.5 977,-152.5 925,-152.5"/>
<text text-anchor="middle" x="951" y="-159.5" font-family="Helvetica,sans-Serif" font-size="10.00" fill="#000000">XCS::fit</text>
</a>
</g>
</g>
<!-- Node153&#45;&gt;Node154 -->
<g id="edge19" class="edge">
<title>Node153&#45;&gt;Node154</title>
<path fill="none" stroke="#191970" d="M842.849,-162C868.1305,-162 901.7911,-162 924.8041,-162"/>
<polygon fill="#191970" stroke="#191970" points="842.5826,-158.5001 832.5826,-162 842.5825,-165.5001 842.5826,-158.5001"/>
</g>
<!-- Node154&#45;&gt;Node149 -->
<g id="edge20" class="edge">
<title>Node154&#45;&gt;Node149</title>
<path fill="none" stroke="#191970" d="M986.8128,-149.6447C993.2037,-147.4352 999.7994,-145.1518 1006,-143 1033.8314,-133.3414 1065.6404,-122.2455 1087.6823,-114.5476"/>
<polygon fill="#191970" stroke="#191970" points="985.3334,-146.4527 977.0247,-153.0265 987.6194,-153.069 985.3334,-146.4527"/>
</g>
<!-- Node156 -->
<g id="node20" class="node">
<title>Node156</title>
<g id="a_node20"><a xlink:href="structXCS.html#a911ed75c86abed7807d33eb1385240ed" target="_top" xlink:title="XCS::predict">
<polygon fill="none" stroke="#000000" points="914.5,-.5 914.5,-19.5 987.5,-19.5 987.5,-.5 914.5,-.5"/>
<text text-anchor="middle" x="951" y="-7.5" font-family="Helvetica,sans-Serif" font-size="10.00" fill="#000000">XCS::predict</text>
</a>
</g>
</g>
<!-- Node155&#45;&gt;Node156 -->
<g id="edge22" class="edge">
<title>Node155&#45;&gt;Node156</title>
<path fill="none" stroke="#191970" d="M853.5882,-10C873.1972,-10 895.8131,-10 914.3147,-10"/>
<polygon fill="#191970" stroke="#191970" points="853.3484,-6.5001 843.3483,-10 853.3483,-13.5001 853.3484,-6.5001"/>
</g>
<!-- Node156&#45;&gt;Node149 -->
<g id="edge23" class="edge">
<title>Node156&#45;&gt;Node149</title>
<path fill="none" stroke="#191970" d="M993.2146,-23.232C997.6038,-25.006 1001.94,-26.9338 1006,-29 1044.2418,-48.4615 1084.4538,-79.7629 1103.5855,-95.4257"/>
<polygon fill="#191970" stroke="#191970" points="994.1997,-19.8627 983.6081,-19.5998 991.724,-26.4103 994.1997,-19.8627"/>
</g>
<!-- Node158 -->
<g id="node22" class="node">
<title>Node158</title>
<g id="a_node22"><a xlink:href="structXCS.html#aa77bc77484d6d14bf512304a23cfec88" target="_top" xlink:title="XCS::score">
<polygon fill="none" stroke="#000000" points="917,-38.5 917,-57.5 985,-57.5 985,-38.5 917,-38.5"/>
<text text-anchor="middle" x="951" y="-45.5" font-family="Helvetica,sans-Serif" font-size="10.00" fill="#000000">XCS::score</text>
</a>
</g>
</g>
<!-- Node157&#45;&gt;Node158 -->
<g id="edge25" class="edge">
<title>Node157&#45;&gt;Node158</title>
<path fill="none" stroke="#191970" d="M850.8115,-48C871.9289,-48 897.0489,-48 916.853,-48"/>
<polygon fill="#191970" stroke="#191970" points="850.8071,-44.5001 840.8071,-48 850.8071,-51.5001 850.8071,-44.5001"/>
</g>
<!-- Node158&#45;&gt;Node149 -->
<g id="edge26" class="edge">
<title>Node158&#45;&gt;Node149</title>
<path fill="none" stroke="#191970" d="M988.1976,-60.9285C1018.3734,-71.4164 1060.2296,-85.9639 1087.4605,-95.4284"/>
<polygon fill="#191970" stroke="#191970" points="989.0447,-57.5175 978.4499,-57.5405 986.7466,-64.1296 989.0447,-57.5175"/>
</g>
<!-- Node159&#45;&gt;Node146 -->
<g id="edge29" class="edge">
<title>Node159&#45;&gt;Node146</title>
<path fill="none" stroke="#191970" d="M854.4241,-138.6391C856.396,-139.9711 858.2689,-141.4214 860,-143 887.6167,-168.1845 867.6543,-194.639 896,-219 934.7099,-252.2682 957.7725,-235.2864 1006,-252 1037.9075,-263.0578 1074.2663,-277.8552 1095.8875,-286.893"/>
<polygon fill="#191970" stroke="#191970" points="855.7127,-135.3497 845.2762,-133.5246 852.2967,-141.4596 855.7127,-135.3497"/>
</g>
<!-- Node159&#45;&gt;Node154 -->
<g id="edge28" class="edge">
<title>Node159&#45;&gt;Node154</title>
<path fill="none" stroke="#191970" d="M853.8485,-136.1835C877.3201,-142.4207 905.0435,-149.7878 924.8548,-155.0523"/>
<polygon fill="#191970" stroke="#191970" points="854.6484,-132.7747 844.0849,-133.589 852.8506,-139.5399 854.6484,-132.7747"/>
</g>
<!-- Node160 -->
<g id="node24" class="node">
<title>Node160</title>
<g id="a_node24"><a xlink:href="structXCS.html#ab58a4fb495b05f3450b182bc21dcba1f" target="_top" xlink:title="XCS::single_reset">
<polygon fill="none" stroke="#000000" points="903,-114.5 903,-133.5 999,-133.5 999,-114.5 903,-114.5"/>
<text text-anchor="middle" x="951" y="-121.5" font-family="Helvetica,sans-Serif" font-size="10.00" fill="#000000">XCS::single_reset</text>
</a>
</g>
</g>
<!-- Node159&#45;&gt;Node160 -->
<g id="edge30" class="edge">
<title>Node159&#45;&gt;Node160</title>
<path fill="none" stroke="#191970" d="M856.73,-124C871.6127,-124 887.9651,-124 902.8118,-124"/>
<polygon fill="#191970" stroke="#191970" points="856.6979,-120.5001 846.6979,-124 856.6978,-127.5001 856.6979,-120.5001"/>
</g>
<!-- Node160&#45;&gt;Node149 -->
<g id="edge31" class="edge">
<title>Node160&#45;&gt;Node149</title>
<path fill="none" stroke="#191970" d="M1009.5511,-117.2166C1019.9968,-116.0065 1030.9967,-114.7321 1041.791,-113.4815"/>
<polygon fill="#191970" stroke="#191970" points="1008.8491,-113.7745 999.3184,-118.4021 1009.6548,-120.728 1008.8491,-113.7745"/>
</g>
<!-- Node161&#45;&gt;Node144 -->
<g id="edge33" class="edge">
<title>Node161&#45;&gt;Node144</title>
<path fill="none" stroke="#191970" d="M568.5858,-211.4699C572.5328,-213.76 576.4836,-216.2997 580,-219 598.4515,-233.1696 596.1726,-244.83 616,-257 641.4854,-272.6429 719.3967,-292.9963 767.782,-304.6691"/>
<polygon fill="#191970" stroke="#191970" points="570.0529,-208.2846 559.5894,-206.6212 566.7318,-214.4467 570.0529,-208.2846"/>
</g>
<!-- Node161&#45;&gt;Node152 -->
<g id="edge38" class="edge">
<title>Node161&#45;&gt;Node152</title>
<path fill="none" stroke="#191970" d="M569.3389,-192.4807C589.6496,-186.2058 618.6115,-177.2583 639.9042,-170.68"/>
<polygon fill="#191970" stroke="#191970" points="568.114,-189.1958 559.5927,-195.4917 570.1803,-195.8839 568.114,-189.1958"/>
</g>
<!-- Node162 -->
<g id="node26" class="node">
<title>Node162</title>
<g id="a_node26"><a xlink:href="xcs__single__step_8h.html#a0ff6b521f66224d56ef0e6f50f5781b9" target="_top" xlink:title="Creates the action set, updates the classifiers and runs the EA. ">
<polygon fill="none" stroke="#000000" points="619,-190.5 619,-209.5 717,-209.5 717,-190.5 619,-190.5"/>
<text text-anchor="middle" x="668" y="-197.5" font-family="Helvetica,sans-Serif" font-size="10.00" fill="#000000">xcs_single_update</text>
</a>
</g>
</g>
<!-- Node161&#45;&gt;Node162 -->
<g id="edge34" class="edge">
<title>Node161&#45;&gt;Node162</title>
<path fill="none" stroke="#191970" d="M569.9182,-200C583.9931,-200 602.0837,-200 618.8873,-200"/>
<polygon fill="#191970" stroke="#191970" points="569.5928,-196.5001 559.5927,-200 569.5927,-203.5001 569.5928,-196.5001"/>
</g>
<!-- Node162&#45;&gt;Node150 -->
<g id="edge37" class="edge">
<title>Node162&#45;&gt;Node150</title>
<path fill="none" stroke="#191970" d="M713.1176,-212.2462C732.4149,-217.484 754.6124,-223.5091 772.6834,-228.4141"/>
<polygon fill="#191970" stroke="#191970" points="713.8956,-208.8308 703.3279,-209.589 712.0619,-215.5864 713.8956,-208.8308"/>
</g>
<!-- Node163 -->
<g id="node27" class="node">
<title>Node163</title>
<g id="a_node27"><a xlink:href="structXCS.html#aedc01ad6f00a54b260a7605929a1d4c9" target="_top" xlink:title="XCS::single_update">
<polygon fill="none" stroke="#000000" points="756,-76.5 756,-95.5 860,-95.5 860,-76.5 756,-76.5"/>
<text text-anchor="middle" x="808" y="-83.5" font-family="Helvetica,sans-Serif" font-size="10.00" fill="#000000">XCS::single_update</text>
</a>
</g>
</g>
<!-- Node162&#45;&gt;Node163 -->
<g id="edge35" class="edge">
<title>Node162&#45;&gt;Node163</title>
<path fill="none" stroke="#191970" d="M714.4241,-185.3609C716.396,-184.0289 718.2689,-182.5786 720,-181 747.6167,-155.8155 728.3833,-130.1845 756,-105 760.2611,-101.1141 765.3813,-98.0061 770.7238,-95.5246"/>
<polygon fill="#191970" stroke="#191970" points="712.2967,-182.5404 705.2762,-190.4754 715.7127,-188.6503 712.2967,-182.5404"/>
</g>
<!-- Node163&#45;&gt;Node149 -->
<g id="edge36" class="edge">
<title>Node163&#45;&gt;Node149</title>
<path fill="none" stroke="#191970" d="M870.3596,-89.8594C920.0226,-92.933 989.6399,-97.2416 1041.9168,-100.4769"/>
<polygon fill="#191970" stroke="#191970" points="870.2755,-86.3476 860.0784,-89.2231 869.843,-93.3342 870.2755,-86.3476"/>
</g>
</g>
</svg>
