<?xml version="1.0" encoding="UTF-8" standalone="no"?>
<!DOCTYPE svg PUBLIC "-//W3C//DTD SVG 1.1//EN"
 "http://www.w3.org/Graphics/SVG/1.1/DTD/svg11.dtd">
<!-- Generated by graphviz version 2.40.1 (20161225.0304)
 -->
<!-- Title: sam_adapt Pages: 1 -->
<svg width="379pt" height="230pt"
 viewBox="0.00 0.00 379.00 230.00" xmlns="http://www.w3.org/2000/svg" xmlns:xlink="http://www.w3.org/1999/xlink">
<g id="graph0" class="graph" transform="scale(1 1) rotate(0) translate(4 226)">
<title>sam_adapt</title>
<!-- Node11 -->
<g id="node1" class="node">
<title>Node11</title>
<polygon fill="#bfbfbf" stroke="#000000" points="0,-107.5 0,-126.5 65,-126.5 65,-107.5 0,-107.5"/>
<text text-anchor="middle" x="32.5" y="-114.5" font-family="Helvetica,sans-Serif" font-size="10.00" fill="#000000">sam_adapt</text>
</g>
<!-- Node12 -->
<g id="node2" class="node">
<title>Node12</title>
<g id="a_node2"><a xlink:href="cond__ellipsoid_8h.html#a6f3653cfc733f9a3fc151dd5f3c2e072" target="_top" xlink:title="cond_ellipsoid_mutate">
<polygon fill="none" stroke="#000000" points="104,-202.5 104,-221.5 217,-221.5 217,-202.5 104,-202.5"/>
<text text-anchor="middle" x="160.5" y="-209.5" font-family="Helvetica,sans-Serif" font-size="10.00" fill="#000000">cond_ellipsoid_mutate</text>
</a>
</g>
</g>
<!-- Node11&#45;&gt;Node12 -->
<g id="edge1" class="edge">
<title>Node11&#45;&gt;Node12</title>
<path fill="none" stroke="#191970" d="M44.6139,-135.2655C56.9104,-152.4676 77.4525,-177.8012 101,-193 106.922,-196.8224 113.6726,-199.9286 120.4492,-202.4359"/>
<polygon fill="#191970" stroke="#191970" points="47.2305,-132.8957 38.6641,-126.6614 41.473,-136.8771 47.2305,-132.8957"/>
</g>
<!-- Node13 -->
<g id="node3" class="node">
<title>Node13</title>
<g id="a_node3"><a xlink:href="cond__rectangle_8h.html#a6b86e46dae23504984370c2961d31bf0" target="_top" xlink:title="cond_rectangle_mutate">
<polygon fill="none" stroke="#000000" points="101.5,-164.5 101.5,-183.5 219.5,-183.5 219.5,-164.5 101.5,-164.5"/>
<text text-anchor="middle" x="160.5" y="-171.5" font-family="Helvetica,sans-Serif" font-size="10.00" fill="#000000">cond_rectangle_mutate</text>
</a>
</g>
</g>
<!-- Node11&#45;&gt;Node13 -->
<g id="edge2" class="edge">
<title>Node11&#45;&gt;Node13</title>
<path fill="none" stroke="#191970" d="M56.5383,-131.8685C69.4144,-139.4356 85.7299,-148.4033 101,-155 109.1628,-158.5263 118.2009,-161.743 126.7163,-164.4866"/>
<polygon fill="#191970" stroke="#191970" points="58.2127,-128.7917 47.8345,-126.66 54.6181,-134.7983 58.2127,-128.7917"/>
</g>
<!-- Node14 -->
<g id="node4" class="node">
<title>Node14</title>
<g id="a_node4"><a xlink:href="cond__ternary_8h.html#a2589fbba59f649de6614f1e23543d5d0" target="_top" xlink:title="cond_ternary_mutate">
<polygon fill="none" stroke="#000000" points="106.5,-126.5 106.5,-145.5 214.5,-145.5 214.5,-126.5 106.5,-126.5"/>
<text text-anchor="middle" x="160.5" y="-133.5" font-family="Helvetica,sans-Serif" font-size="10.00" fill="#000000">cond_ternary_mutate</text>
</a>
</g>
</g>
<!-- Node11&#45;&gt;Node14 -->
<g id="edge3" class="edge">
<title>Node11&#45;&gt;Node14</title>
<path fill="none" stroke="#191970" d="M75.1278,-123.3276C85.0335,-124.7979 95.7109,-126.3829 106.0483,-127.9173"/>
<polygon fill="#191970" stroke="#191970" points="75.5365,-119.85 65.131,-121.8437 74.5087,-126.7741 75.5365,-119.85"/>
</g>
<!-- Node15 -->
<g id="node5" class="node">
<title>Node15</title>
<g id="a_node5"><a xlink:href="dgp_8h.html#ab69f05c12959b88862bd24420a00fa0d" target="_top" xlink:title="Mutates a specified DGP graph. ">
<polygon fill="none" stroke="#000000" points="122.5,-88.5 122.5,-107.5 198.5,-107.5 198.5,-88.5 122.5,-88.5"/>
<text text-anchor="middle" x="160.5" y="-95.5" font-family="Helvetica,sans-Serif" font-size="10.00" fill="#000000">graph_mutate</text>
</a>
</g>
</g>
<!-- Node11&#45;&gt;Node15 -->
<g id="edge4" class="edge">
<title>Node11&#45;&gt;Node15</title>
<path fill="none" stroke="#191970" d="M75.3514,-110.6392C90.6026,-108.3754 107.6589,-105.8436 122.4775,-103.644"/>
<polygon fill="#191970" stroke="#191970" points="74.5087,-107.2259 65.131,-112.1563 75.5365,-114.15 74.5087,-107.2259"/>
</g>
<!-- Node18 -->
<g id="node8" class="node">
<title>Node18</title>
<g id="a_node8"><a xlink:href="neural__layer__connected_8h.html#a433ccceeb6c15628abb37054d7b12a1e" target="_top" xlink:title="neural_layer_connected\l_mutate">
<polygon fill="none" stroke="#000000" points="101,-39 101,-69 220,-69 220,-39 101,-39"/>
<text text-anchor="start" x="109" y="-57" font-family="Helvetica,sans-Serif" font-size="10.00" fill="#000000">neural_layer_connected</text>
<text text-anchor="middle" x="160.5" y="-46" font-family="Helvetica,sans-Serif" font-size="10.00" fill="#000000">_mutate</text>
</a>
</g>
</g>
<!-- Node11&#45;&gt;Node18 -->
<g id="edge7" class="edge">
<title>Node11&#45;&gt;Node18</title>
<path fill="none" stroke="#191970" d="M57.3025,-102.3864C70.1642,-95.028 86.2341,-86.1715 101,-79 107.9544,-75.6224 115.4824,-72.2494 122.7697,-69.1238"/>
<polygon fill="#191970" stroke="#191970" points="55.4754,-99.3998 48.5688,-107.4341 58.9782,-105.4604 55.4754,-99.3998"/>
</g>
<!-- Node19 -->
<g id="node9" class="node">
<title>Node19</title>
<g id="a_node9"><a xlink:href="gp_8h.html#acfa176ddc5ae609393a558e46b3fc52b" target="_top" xlink:title="Performs point mutation on a GP tree. ">
<polygon fill="none" stroke="#000000" points="126.5,-.5 126.5,-19.5 194.5,-19.5 194.5,-.5 126.5,-.5"/>
<text text-anchor="middle" x="160.5" y="-7.5" font-family="Helvetica,sans-Serif" font-size="10.00" fill="#000000">tree_mutate</text>
</a>
</g>
</g>
<!-- Node11&#45;&gt;Node19 -->
<g id="edge8" class="edge">
<title>Node11&#45;&gt;Node19</title>
<path fill="none" stroke="#191970" d="M42.3821,-98.4763C53.9186,-78.553 74.802,-47.2801 101,-29 108.5589,-23.7256 117.6578,-19.8591 126.4407,-17.047"/>
<polygon fill="#191970" stroke="#191970" points="39.3087,-96.8013 37.4872,-107.2384 45.4198,-100.2152 39.3087,-96.8013"/>
</g>
<!-- Node16 -->
<g id="node6" class="node">
<title>Node16</title>
<g id="a_node6"><a xlink:href="cond__dgp_8h.html#abd373ea063e99377a8bcd234c5018abe" target="_top" xlink:title="cond_dgp_mutate">
<polygon fill="none" stroke="#000000" points="266.5,-107.5 266.5,-126.5 360.5,-126.5 360.5,-107.5 266.5,-107.5"/>
<text text-anchor="middle" x="313.5" y="-114.5" font-family="Helvetica,sans-Serif" font-size="10.00" fill="#000000">cond_dgp_mutate</text>
</a>
</g>
</g>
<!-- Node15&#45;&gt;Node16 -->
<g id="edge5" class="edge">
<title>Node15&#45;&gt;Node16</title>
<path fill="none" stroke="#191970" d="M208.6692,-103.9818C227.1233,-106.2735 248.1387,-108.8832 266.4835,-111.1613"/>
<polygon fill="#191970" stroke="#191970" points="209.0688,-100.5046 198.7137,-102.7455 208.2061,-107.4513 209.0688,-100.5046"/>
</g>
<!-- Node17 -->
<g id="node7" class="node">
<title>Node17</title>
<g id="a_node7"><a xlink:href="rule__dgp_8h.html#acf593e54dcbb44e3e9531be28b8e9e28" target="_top" xlink:title="rule_dgp_cond_mutate">
<polygon fill="none" stroke="#000000" points="256,-69.5 256,-88.5 371,-88.5 371,-69.5 256,-69.5"/>
<text text-anchor="middle" x="313.5" y="-76.5" font-family="Helvetica,sans-Serif" font-size="10.00" fill="#000000">rule_dgp_cond_mutate</text>
</a>
</g>
</g>
<!-- Node15&#45;&gt;Node17 -->
<g id="edge6" class="edge">
<title>Node15&#45;&gt;Node17</title>
<path fill="none" stroke="#191970" d="M208.7576,-92.0072C223.7007,-90.1515 240.3163,-88.0882 255.8302,-86.1616"/>
<polygon fill="#191970" stroke="#191970" points="208.2061,-88.5487 198.7137,-93.2545 209.0688,-95.4954 208.2061,-88.5487"/>
</g>
<!-- Node20 -->
<g id="node10" class="node">
<title>Node20</title>
<g id="a_node10"><a xlink:href="cond__gp_8h.html#a77ae493ef13fd14de230a57f260d8468" target="_top" xlink:title="cond_gp_mutate">
<polygon fill="none" stroke="#000000" points="269,-.5 269,-19.5 358,-19.5 358,-.5 269,-.5"/>
<text text-anchor="middle" x="313.5" y="-7.5" font-family="Helvetica,sans-Serif" font-size="10.00" fill="#000000">cond_gp_mutate</text>
</a>
</g>
</g>
<!-- Node19&#45;&gt;Node20 -->
<g id="edge9" class="edge">
<title>Node19&#45;&gt;Node20</title>
<path fill="none" stroke="#191970" d="M204.9695,-10C225.0457,-10 248.7137,-10 268.8155,-10"/>
<polygon fill="#191970" stroke="#191970" points="204.8362,-6.5001 194.8362,-10 204.8362,-13.5001 204.8362,-6.5001"/>
</g>
</g>
</svg>
