<?xml version="1.0" encoding="UTF-8" standalone="no"?>
<!DOCTYPE svg PUBLIC "-//W3C//DTD SVG 1.1//EN"
 "http://www.w3.org/Graphics/SVG/1.1/DTD/svg11.dtd">
<!-- Generated by graphviz version 2.40.1 (20161225.0304)
 -->
<!-- Title: XCS::predict Pages: 1 -->
<svg width="1467pt" height="693pt"
 viewBox="0.00 0.00 1467.00 693.00" xmlns="http://www.w3.org/2000/svg" xmlns:xlink="http://www.w3.org/1999/xlink">
<g id="graph0" class="graph" transform="scale(1 1) rotate(0) translate(4 689)">
<title>XCS::predict</title>
<!-- Node543 -->
<g id="node1" class="node">
<title>Node543</title>
<polygon fill="#bfbfbf" stroke="#000000" points="0,-356.5 0,-375.5 73,-375.5 73,-356.5 0,-356.5"/>
<text text-anchor="middle" x="36.5" y="-363.5" font-family="Helvetica,sans-Serif" font-size="10.00" fill="#000000">XCS::predict</text>
</g>
<!-- Node544 -->
<g id="node2" class="node">
<title>Node544</title>
<g id="a_node2"><a xlink:href="xcsf_8c.html#af0b9db7273578fdff649d46823cd9790" target="_top" xlink:title="Calculates the XCSF predictions for the provided input. ">
<polygon fill="none" stroke="#000000" points="109,-356.5 109,-375.5 179,-375.5 179,-356.5 109,-356.5"/>
<text text-anchor="middle" x="144" y="-363.5" font-family="Helvetica,sans-Serif" font-size="10.00" fill="#000000">xcsf_predict</text>
</a>
</g>
</g>
<!-- Node543&#45;&gt;Node544 -->
<g id="edge1" class="edge">
<title>Node543&#45;&gt;Node544</title>
<path fill="none" stroke="#191970" d="M73.1947,-366C81.4107,-366 90.2199,-366 98.7373,-366"/>
<polygon fill="#191970" stroke="#191970" points="98.9225,-369.5001 108.9225,-366 98.9225,-362.5001 98.9225,-369.5001"/>
</g>
<!-- Node545 -->
<g id="node3" class="node">
<title>Node545</title>
<g id="a_node3"><a xlink:href="cl__set_8c.html#af03c3db68031f8953d79a4725ae951ad" target="_top" xlink:title="Frees the set, but not the classifiers. ">
<polygon fill="none" stroke="#000000" points="220,-432.5 220,-451.5 272,-451.5 272,-432.5 220,-432.5"/>
<text text-anchor="middle" x="246" y="-439.5" font-family="Helvetica,sans-Serif" font-size="10.00" fill="#000000">set_free</text>
</a>
</g>
</g>
<!-- Node544&#45;&gt;Node545 -->
<g id="edge2" class="edge">
<title>Node544&#45;&gt;Node545</title>
<path fill="none" stroke="#191970" d="M155.2138,-375.7407C168.9246,-387.4746 193.0229,-407.5364 215,-423 216.8456,-424.2986 218.7803,-425.605 220.7432,-426.8918"/>
<polygon fill="#191970" stroke="#191970" points="219.0165,-429.9409 229.3404,-432.3218 222.7546,-424.0225 219.0165,-429.9409"/>
</g>
<!-- Node546 -->
<g id="node4" class="node">
<title>Node546</title>
<g id="a_node4"><a xlink:href="cl__set_8c.html#ad4388f1d26d4129991f692eb4c81886c" target="_top" xlink:title="Initialises a new set. ">
<polygon fill="none" stroke="#000000" points="222,-394.5 222,-413.5 270,-413.5 270,-394.5 222,-394.5"/>
<text text-anchor="middle" x="246" y="-401.5" font-family="Helvetica,sans-Serif" font-size="10.00" fill="#000000">set_init</text>
</a>
</g>
</g>
<!-- Node544&#45;&gt;Node546 -->
<g id="edge3" class="edge">
<title>Node544&#45;&gt;Node546</title>
<path fill="none" stroke="#191970" d="M169.7389,-375.589C182.5613,-380.366 198.2337,-386.2047 212.0285,-391.3439"/>
<polygon fill="#191970" stroke="#191970" points="211.081,-394.7259 221.6738,-394.9373 213.5248,-388.1663 211.081,-394.7259"/>
</g>
<!-- Node547 -->
<g id="node5" class="node">
<title>Node547</title>
<g id="a_node5"><a xlink:href="cl__set_8c.html#a0b2479df1a61213f1f150907c62278bb" target="_top" xlink:title="Frees the set and the classifiers. ">
<polygon fill="none" stroke="#000000" points="222.5,-356.5 222.5,-375.5 269.5,-375.5 269.5,-356.5 222.5,-356.5"/>
<text text-anchor="middle" x="246" y="-363.5" font-family="Helvetica,sans-Serif" font-size="10.00" fill="#000000">set_kill</text>
</a>
</g>
</g>
<!-- Node544&#45;&gt;Node547 -->
<g id="edge4" class="edge">
<title>Node544&#45;&gt;Node547</title>
<path fill="none" stroke="#191970" d="M179.1026,-366C189.8212,-366 201.5807,-366 212.2103,-366"/>
<polygon fill="#191970" stroke="#191970" points="212.3829,-369.5001 222.3829,-366 212.3829,-362.5001 212.3829,-369.5001"/>
</g>
<!-- Node553 -->
<g id="node11" class="node">
<title>Node553</title>
<g id="a_node11"><a xlink:href="cl__set_8c.html#af3bea0b4d03654b9d6cb08fbf272c847" target="_top" xlink:title="Constructs the match set. ">
<polygon fill="none" stroke="#000000" points="215,-318.5 215,-337.5 277,-337.5 277,-318.5 215,-318.5"/>
<text text-anchor="middle" x="246" y="-325.5" font-family="Helvetica,sans-Serif" font-size="10.00" fill="#000000">set_match</text>
</a>
</g>
</g>
<!-- Node544&#45;&gt;Node553 -->
<g id="edge10" class="edge">
<title>Node544&#45;&gt;Node553</title>
<path fill="none" stroke="#191970" d="M169.7389,-356.411C182.1813,-351.7756 197.3075,-346.1404 210.7975,-341.1147"/>
<polygon fill="#191970" stroke="#191970" points="212.1204,-344.3569 220.2693,-337.5859 209.6766,-337.7973 212.1204,-344.3569"/>
</g>
<!-- Node591 -->
<g id="node49" class="node">
<title>Node591</title>
<g id="a_node49"><a xlink:href="cl__set_8c.html#a67f86a207056d80953cf3d491327f02a" target="_top" xlink:title="Calculates the set mean fitness weighted prediction. ">
<polygon fill="none" stroke="#000000" points="219,-233.5 219,-252.5 273,-252.5 273,-233.5 219,-233.5"/>
<text text-anchor="middle" x="246" y="-240.5" font-family="Helvetica,sans-Serif" font-size="10.00" fill="#000000">set_pred</text>
</a>
</g>
</g>
<!-- Node544&#45;&gt;Node591 -->
<g id="edge52" class="edge">
<title>Node544&#45;&gt;Node591</title>
<path fill="none" stroke="#191970" d="M152.0038,-356.3484C169.1346,-335.6906 209.5651,-286.9362 231.4014,-260.6042"/>
<polygon fill="#191970" stroke="#191970" points="234.3442,-262.5386 238.0334,-252.6068 228.9559,-258.0702 234.3442,-262.5386"/>
</g>
<!-- Node548 -->
<g id="node6" class="node">
<title>Node548</title>
<g id="a_node6"><a xlink:href="cl_8c.html#a7bf8d03856a0c04854cfd99fcd45b32a" target="_top" xlink:title="Frees the memory used by the classifier. ">
<polygon fill="none" stroke="#000000" points="319.5,-589.5 319.5,-608.5 365.5,-608.5 365.5,-589.5 319.5,-589.5"/>
<text text-anchor="middle" x="342.5" y="-596.5" font-family="Helvetica,sans-Serif" font-size="10.00" fill="#000000">cl_free</text>
</a>
</g>
</g>
<!-- Node547&#45;&gt;Node548 -->
<g id="edge5" class="edge">
<title>Node547&#45;&gt;Node548</title>
<path fill="none" stroke="#191970" d="M266.8916,-375.6316C270.716,-378.2055 274.3343,-381.3189 277,-385 317.7185,-441.2295 289.9571,-471.5112 313,-537 318.2547,-551.934 325.9971,-568.06 332.2317,-580.1216"/>
<polygon fill="#191970" stroke="#191970" points="329.2555,-581.9804 337.0264,-589.182 335.4425,-578.7062 329.2555,-581.9804"/>
</g>
<!-- Node549 -->
<g id="node7" class="node">
<title>Node549</title>
<g id="a_node7"><a xlink:href="action_8h.html#a3c0b8f4ef29f45d210b6e76340a25e15" target="_top" xlink:title="act_free">
<polygon fill="none" stroke="#000000" points="432.5,-589.5 432.5,-608.5 484.5,-608.5 484.5,-589.5 432.5,-589.5"/>
<text text-anchor="middle" x="458.5" y="-596.5" font-family="Helvetica,sans-Serif" font-size="10.00" fill="#000000">act_free</text>
</a>
</g>
</g>
<!-- Node548&#45;&gt;Node549 -->
<g id="edge6" class="edge">
<title>Node548&#45;&gt;Node549</title>
<path fill="none" stroke="#191970" d="M365.6955,-599C381.7986,-599 403.5815,-599 421.9968,-599"/>
<polygon fill="#191970" stroke="#191970" points="422.1019,-602.5001 432.1019,-599 422.1018,-595.5001 422.1019,-602.5001"/>
</g>
<!-- Node550 -->
<g id="node8" class="node">
<title>Node550</title>
<g id="a_node8"><a xlink:href="condition_8h.html#a3f9b67abe92145cf80a263853912a0d5" target="_top" xlink:title="cond_free">
<polygon fill="none" stroke="#000000" points="429,-551.5 429,-570.5 488,-570.5 488,-551.5 429,-551.5"/>
<text text-anchor="middle" x="458.5" y="-558.5" font-family="Helvetica,sans-Serif" font-size="10.00" fill="#000000">cond_free</text>
</a>
</g>
</g>
<!-- Node548&#45;&gt;Node550 -->
<g id="edge7" class="edge">
<title>Node548&#45;&gt;Node550</title>
<path fill="none" stroke="#191970" d="M365.6955,-591.4015C381.0925,-586.3576 401.6821,-579.6128 419.5556,-573.7576"/>
<polygon fill="#191970" stroke="#191970" points="420.7422,-577.052 429.1557,-570.6128 418.563,-570.3999 420.7422,-577.052"/>
</g>
<!-- Node551 -->
<g id="node9" class="node">
<title>Node551</title>
<g id="a_node9"><a xlink:href="prediction_8h.html#a5c8b28f792149c6267cc8387554e1da7" target="_top" xlink:title="pred_free">
<polygon fill="none" stroke="#000000" points="430,-665.5 430,-684.5 487,-684.5 487,-665.5 430,-665.5"/>
<text text-anchor="middle" x="458.5" y="-672.5" font-family="Helvetica,sans-Serif" font-size="10.00" fill="#000000">pred_free</text>
</a>
</g>
</g>
<!-- Node548&#45;&gt;Node551 -->
<g id="edge8" class="edge">
<title>Node548&#45;&gt;Node551</title>
<path fill="none" stroke="#191970" d="M351.4227,-608.6612C363.3109,-621.0572 385.4756,-642.5597 408,-656 411.9064,-658.331 416.148,-660.4613 420.4571,-662.3832"/>
<polygon fill="#191970" stroke="#191970" points="419.3139,-665.6973 429.894,-666.2547 421.9708,-659.2211 419.3139,-665.6973"/>
</g>
<!-- Node552 -->
<g id="node10" class="node">
<title>Node552</title>
<g id="a_node10"><a xlink:href="sam_8c.html#ab788a3ced38cf0fd20f8e6a2bab9f86a" target="_top" xlink:title="Frees the self&#45;adaptive mutation rates. ">
<polygon fill="none" stroke="#000000" points="430,-627.5 430,-646.5 487,-646.5 487,-627.5 430,-627.5"/>
<text text-anchor="middle" x="458.5" y="-634.5" font-family="Helvetica,sans-Serif" font-size="10.00" fill="#000000">sam_free</text>
</a>
</g>
</g>
<!-- Node548&#45;&gt;Node552 -->
<g id="edge9" class="edge">
<title>Node548&#45;&gt;Node552</title>
<path fill="none" stroke="#191970" d="M365.6955,-606.5985C381.204,-611.6789 401.9808,-618.4851 419.9438,-624.3695"/>
<polygon fill="#191970" stroke="#191970" points="418.9897,-627.7399 429.5824,-627.527 421.1689,-621.0877 418.9897,-627.7399"/>
</g>
<!-- Node554 -->
<g id="node12" class="node">
<title>Node554</title>
<g id="a_node12"><a xlink:href="cl_8c.html#ae2fc6cc72c129339a3301573f80a52ee" target="_top" xlink:title="Computes the current classifier action using the input. ">
<polygon fill="none" stroke="#000000" points="314.5,-318.5 314.5,-337.5 370.5,-337.5 370.5,-318.5 314.5,-318.5"/>
<text text-anchor="middle" x="342.5" y="-325.5" font-family="Helvetica,sans-Serif" font-size="10.00" fill="#000000">cl_action</text>
</a>
</g>
</g>
<!-- Node553&#45;&gt;Node554 -->
<g id="edge11" class="edge">
<title>Node553&#45;&gt;Node554</title>
<path fill="none" stroke="#191970" d="M277.0644,-328C285.6975,-328 295.175,-328 304.1715,-328"/>
<polygon fill="#191970" stroke="#191970" points="304.4323,-331.5001 314.4322,-328 304.4322,-324.5001 304.4323,-331.5001"/>
</g>
<!-- Node556 -->
<g id="node14" class="node">
<title>Node556</title>
<g id="a_node14"><a xlink:href="cl_8c.html#ac759904d9a05b2109c39ef17f9f889c3" target="_top" xlink:title="Returns whether the classifier matched the most recent input. ">
<polygon fill="none" stroke="#000000" points="323.5,-280.5 323.5,-299.5 361.5,-299.5 361.5,-280.5 323.5,-280.5"/>
<text text-anchor="middle" x="342.5" y="-287.5" font-family="Helvetica,sans-Serif" font-size="10.00" fill="#000000">cl_m</text>
</a>
</g>
</g>
<!-- Node553&#45;&gt;Node556 -->
<g id="edge13" class="edge">
<title>Node553&#45;&gt;Node556</title>
<path fill="none" stroke="#191970" d="M270.351,-318.411C283.5603,-313.2094 299.9666,-306.7489 313.7953,-301.3034"/>
<polygon fill="#191970" stroke="#191970" points="315.3044,-304.4708 323.3265,-297.5502 312.7395,-297.9576 315.3044,-304.4708"/>
</g>
<!-- Node557 -->
<g id="node15" class="node">
<title>Node557</title>
<g id="a_node15"><a xlink:href="cl_8c.html#a5d3c4060ef3fd0476e3c8e439a8f81e1" target="_top" xlink:title="Calculates whether the classifier matches the input. ">
<polygon fill="none" stroke="#000000" points="314.5,-223.5 314.5,-242.5 370.5,-242.5 370.5,-223.5 314.5,-223.5"/>
<text text-anchor="middle" x="342.5" y="-230.5" font-family="Helvetica,sans-Serif" font-size="10.00" fill="#000000">cl_match</text>
</a>
</g>
</g>
<!-- Node553&#45;&gt;Node557 -->
<g id="edge14" class="edge">
<title>Node553&#45;&gt;Node557</title>
<path fill="none" stroke="#191970" d="M255.9637,-318.1911C272.3734,-302.0365 305.2727,-269.6487 325.443,-249.7919"/>
<polygon fill="#191970" stroke="#191970" points="328.0633,-252.1237 332.7342,-242.614 323.1525,-247.1353 328.0633,-252.1237"/>
</g>
<!-- Node559 -->
<g id="node17" class="node">
<title>Node559</title>
<g id="a_node17"><a xlink:href="cl__set_8c.html#a274578f0b79dea927e8148a7c41bf75f" target="_top" xlink:title="Adds a classifier to the set. ">
<polygon fill="none" stroke="#000000" points="682,-494.5 682,-513.5 733,-513.5 733,-494.5 682,-494.5"/>
<text text-anchor="middle" x="707.5" y="-501.5" font-family="Helvetica,sans-Serif" font-size="10.00" fill="#000000">set_add</text>
</a>
</g>
</g>
<!-- Node553&#45;&gt;Node559 -->
<g id="edge16" class="edge">
<title>Node553&#45;&gt;Node559</title>
<path fill="none" stroke="#191970" d="M263.7442,-337.5105C268.2712,-340.2957 272.988,-343.5331 277,-347 311.3807,-376.7095 366.845,-484.7397 408,-504 495.5211,-544.9593 613.8064,-526.4502 672.0665,-513.2289"/>
<polygon fill="#191970" stroke="#191970" points="672.9584,-516.6147 681.8917,-510.9186 671.356,-509.8006 672.9584,-516.6147"/>
</g>
<!-- Node560 -->
<g id="node18" class="node">
<title>Node560</title>
<g id="a_node18"><a xlink:href="cl__set_8c.html#aa4b74b698e7491734e4788fcfae8e27a" target="_top" xlink:title="Ensures all possible actions are covered by the match set. ">
<polygon fill="none" stroke="#000000" points="313,-361.5 313,-380.5 372,-380.5 372,-361.5 313,-361.5"/>
<text text-anchor="middle" x="342.5" y="-368.5" font-family="Helvetica,sans-Serif" font-size="10.00" fill="#000000">set_cover</text>
</a>
</g>
</g>
<!-- Node553&#45;&gt;Node560 -->
<g id="edge17" class="edge">
<title>Node553&#45;&gt;Node560</title>
<path fill="none" stroke="#191970" d="M267.4165,-337.5431C280.4097,-343.3328 297.2096,-350.8188 311.6226,-357.2412"/>
<polygon fill="#191970" stroke="#191970" points="310.5846,-360.6103 321.1434,-361.4836 313.4338,-354.2164 310.5846,-360.6103"/>
</g>
<!-- Node555 -->
<g id="node13" class="node">
<title>Node555</title>
<g id="a_node13"><a xlink:href="action_8h.html#a0d7fce139fe8ea66b42b95ebcb941c1d" target="_top" xlink:title="act_compute">
<polygon fill="none" stroke="#000000" points="422,-247.5 422,-266.5 495,-266.5 495,-247.5 422,-247.5"/>
<text text-anchor="middle" x="458.5" y="-254.5" font-family="Helvetica,sans-Serif" font-size="10.00" fill="#000000">act_compute</text>
</a>
</g>
</g>
<!-- Node554&#45;&gt;Node555 -->
<g id="edge12" class="edge">
<title>Node554&#45;&gt;Node555</title>
<path fill="none" stroke="#191970" d="M358.455,-318.4223C362.9431,-315.5428 367.7554,-312.2744 372,-309 389.1858,-295.7425 389.5061,-287.3616 408,-276 411.1801,-274.0463 414.5936,-272.2405 418.0909,-270.5839"/>
<polygon fill="#191970" stroke="#191970" points="419.6467,-273.7245 427.4409,-266.548 416.8726,-267.2976 419.6467,-273.7245"/>
</g>
<!-- Node558 -->
<g id="node16" class="node">
<title>Node558</title>
<g id="a_node16"><a xlink:href="condition_8h.html#a733d2f270aa8c0c18afa29d5a449b45f" target="_top" xlink:title="cond_match">
<polygon fill="none" stroke="#000000" points="423.5,-209.5 423.5,-228.5 493.5,-228.5 493.5,-209.5 423.5,-209.5"/>
<text text-anchor="middle" x="458.5" y="-216.5" font-family="Helvetica,sans-Serif" font-size="10.00" fill="#000000">cond_match</text>
</a>
</g>
</g>
<!-- Node557&#45;&gt;Node558 -->
<g id="edge15" class="edge">
<title>Node557&#45;&gt;Node558</title>
<path fill="none" stroke="#191970" d="M370.5804,-229.611C383.3139,-228.0742 398.697,-226.2176 413.0123,-224.4899"/>
<polygon fill="#191970" stroke="#191970" points="413.6856,-227.9341 423.1941,-223.2611 412.8468,-220.9846 413.6856,-227.9341"/>
</g>
<!-- Node560&#45;&gt;Node559 -->
<g id="edge50" class="edge">
<title>Node560&#45;&gt;Node559</title>
<path fill="none" stroke="#191970" d="M372.1633,-380.5655C405.6099,-391.4873 461.5239,-410.1571 509,-428 571.5019,-451.4901 585.2578,-462.1594 648,-485 655.7377,-487.8168 664.1203,-490.6343 672.0844,-493.2043"/>
<polygon fill="#191970" stroke="#191970" points="671.2781,-496.6204 681.8684,-496.3085 673.3951,-489.9481 671.2781,-496.6204"/>
</g>
<!-- Node561 -->
<g id="node19" class="node">
<title>Node561</title>
<g id="a_node19"><a xlink:href="cl_8c.html#a42adb85e78d1f9af3dbd53cd9e9ae0fd" target="_top" xlink:title="Covers the condition and action for a classifier. ">
<polygon fill="none" stroke="#000000" points="432,-323.5 432,-342.5 485,-342.5 485,-323.5 432,-323.5"/>
<text text-anchor="middle" x="458.5" y="-330.5" font-family="Helvetica,sans-Serif" font-size="10.00" fill="#000000">cl_cover</text>
</a>
</g>
</g>
<!-- Node560&#45;&gt;Node561 -->
<g id="edge18" class="edge">
<title>Node560&#45;&gt;Node561</title>
<path fill="none" stroke="#191970" d="M371.7717,-361.411C387.001,-356.4221 405.7657,-350.275 421.941,-344.9762"/>
<polygon fill="#191970" stroke="#191970" points="423.2096,-348.2437 431.6231,-341.8045 421.0304,-341.5916 423.2096,-348.2437"/>
</g>
<!-- Node571 -->
<g id="node29" class="node">
<title>Node571</title>
<g id="a_node29"><a xlink:href="cl_8c.html#ab76fe4ea183f51174a3797c3cbb1b3bf" target="_top" xlink:title="Initialises a new classifier. ">
<polygon fill="none" stroke="#000000" points="437.5,-285.5 437.5,-304.5 479.5,-304.5 479.5,-285.5 437.5,-285.5"/>
<text text-anchor="middle" x="458.5" y="-292.5" font-family="Helvetica,sans-Serif" font-size="10.00" fill="#000000">cl_init</text>
</a>
</g>
</g>
<!-- Node560&#45;&gt;Node571 -->
<g id="edge28" class="edge">
<title>Node560&#45;&gt;Node571</title>
<path fill="none" stroke="#191970" d="M354.6894,-361.3501C360.058,-357.0318 366.404,-351.8338 372,-347 388.4256,-332.8116 389.5061,-325.3616 408,-314 414.0061,-310.3102 420.8446,-307.1479 427.5073,-304.5219"/>
<polygon fill="#191970" stroke="#191970" points="428.8248,-307.767 437.0256,-301.0591 426.4316,-301.1888 428.8248,-307.767"/>
</g>
<!-- Node581 -->
<g id="node39" class="node">
<title>Node581</title>
<g id="a_node39"><a xlink:href="cl__set_8c.html#a8537e849783523d1e2394e4a027cf33a" target="_top" xlink:title="Enforces the maximum population size limit. ">
<polygon fill="none" stroke="#000000" points="412,-361.5 412,-380.5 505,-380.5 505,-361.5 412,-361.5"/>
<text text-anchor="middle" x="458.5" y="-368.5" font-family="Helvetica,sans-Serif" font-size="10.00" fill="#000000">pop_enforce_limit</text>
</a>
</g>
</g>
<!-- Node560&#45;&gt;Node581 -->
<g id="edge39" class="edge">
<title>Node560&#45;&gt;Node581</title>
<path fill="none" stroke="#191970" d="M372.0718,-371C381.1337,-371 391.4256,-371 401.6688,-371"/>
<polygon fill="#191970" stroke="#191970" points="401.8485,-374.5001 411.8485,-371 401.8485,-367.5001 401.8485,-374.5001"/>
</g>
<!-- Node589 -->
<g id="node47" class="node">
<title>Node589</title>
<g id="a_node47"><a xlink:href="cl__set_8c.html#a55395d23e56e86a5dd11be34a4e051ff" target="_top" xlink:title="Returns whether an action is covered by the set. ">
<polygon fill="none" stroke="#000000" points="408,-475.5 408,-494.5 509,-494.5 509,-475.5 408,-475.5"/>
<text text-anchor="middle" x="458.5" y="-482.5" font-family="Helvetica,sans-Serif" font-size="10.00" fill="#000000">set_action_covered</text>
</a>
</g>
</g>
<!-- Node560&#45;&gt;Node589 -->
<g id="edge49" class="edge">
<title>Node560&#45;&gt;Node589</title>
<path fill="none" stroke="#191970" d="M346.6422,-380.513C355.3289,-399.4136 377.2233,-441.9404 408,-466 410.2832,-467.7849 412.752,-469.4158 415.3283,-470.904"/>
<polygon fill="#191970" stroke="#191970" points="413.8781,-474.0919 424.3881,-475.4298 417.0064,-467.8297 413.8781,-474.0919"/>
</g>
<!-- Node590 -->
<g id="node48" class="node">
<title>Node590</title>
<g id="a_node48"><a xlink:href="cl__set_8c.html#ad2333ccd5fef4fcef4f5ae98406611d3" target="_top" xlink:title="Removes classifiers with 0 numerosity from the set. ">
<polygon fill="none" stroke="#000000" points="424,-437.5 424,-456.5 493,-456.5 493,-437.5 424,-437.5"/>
<text text-anchor="middle" x="458.5" y="-444.5" font-family="Helvetica,sans-Serif" font-size="10.00" fill="#000000">set_validate</text>
</a>
</g>
</g>
<!-- Node560&#45;&gt;Node590 -->
<g id="edge51" class="edge">
<title>Node560&#45;&gt;Node590</title>
<path fill="none" stroke="#191970" d="M353.0597,-380.6357C365.5594,-391.7355 387.2987,-410.0983 408,-423 413.6766,-426.5378 419.956,-429.91 426.1025,-432.9492"/>
<polygon fill="#191970" stroke="#191970" points="425.0108,-436.3051 435.546,-437.4273 428.01,-429.9802 425.0108,-436.3051"/>
</g>
<!-- Node562 -->
<g id="node20" class="node">
<title>Node562</title>
<g id="a_node20"><a xlink:href="action_8h.html#aef1564c19502c8f890ff9f3c1260d6cf" target="_top" xlink:title="act_cover">
<polygon fill="none" stroke="#000000" points="549,-285.5 549,-304.5 608,-304.5 608,-285.5 549,-285.5"/>
<text text-anchor="middle" x="578.5" y="-292.5" font-family="Helvetica,sans-Serif" font-size="10.00" fill="#000000">act_cover</text>
</a>
</g>
</g>
<!-- Node561&#45;&gt;Node562 -->
<g id="edge19" class="edge">
<title>Node561&#45;&gt;Node562</title>
<path fill="none" stroke="#191970" d="M485.1319,-324.5666C501.0951,-319.5116 521.6788,-312.9934 539.4557,-307.364"/>
<polygon fill="#191970" stroke="#191970" points="540.519,-310.6987 548.9958,-304.343 538.4057,-304.0253 540.519,-310.6987"/>
</g>
<!-- Node563 -->
<g id="node21" class="node">
<title>Node563</title>
<g id="a_node21"><a xlink:href="cl_8c.html#a5c1f93d94c386004e38c02f6d7d19004" target="_top" xlink:title="Initialises random actions, conditions and predictions. ">
<polygon fill="none" stroke="#000000" points="554.5,-190.5 554.5,-209.5 602.5,-209.5 602.5,-190.5 554.5,-190.5"/>
<text text-anchor="middle" x="578.5" y="-197.5" font-family="Helvetica,sans-Serif" font-size="10.00" fill="#000000">cl_rand</text>
</a>
</g>
</g>
<!-- Node561&#45;&gt;Node563 -->
<g id="edge20" class="edge">
<title>Node561&#45;&gt;Node563</title>
<path fill="none" stroke="#191970" d="M485.1652,-326.6418C493.4241,-323.7551 502.1457,-319.6754 509,-314 540.2442,-288.1297 561.2491,-244.3567 571.4133,-219.2466"/>
<polygon fill="#191970" stroke="#191970" points="574.7498,-220.3232 575.1039,-209.7343 568.2237,-217.7912 574.7498,-220.3232"/>
</g>
<!-- Node570 -->
<g id="node28" class="node">
<title>Node570</title>
<g id="a_node28"><a xlink:href="condition_8h.html#a641c2ffa4792f9f5549a73f31bb66d44" target="_top" xlink:title="cond_cover">
<polygon fill="none" stroke="#000000" points="545,-323.5 545,-342.5 612,-342.5 612,-323.5 545,-323.5"/>
<text text-anchor="middle" x="578.5" y="-330.5" font-family="Helvetica,sans-Serif" font-size="10.00" fill="#000000">cond_cover</text>
</a>
</g>
</g>
<!-- Node561&#45;&gt;Node570 -->
<g id="edge27" class="edge">
<title>Node561&#45;&gt;Node570</title>
<path fill="none" stroke="#191970" d="M485.1319,-333C499.6559,-333 518.0048,-333 534.5844,-333"/>
<polygon fill="#191970" stroke="#191970" points="534.629,-336.5001 544.629,-333 534.629,-329.5001 534.629,-336.5001"/>
</g>
<!-- Node564 -->
<g id="node22" class="node">
<title>Node564</title>
<g id="a_node22"><a xlink:href="action_8h.html#a5fff1d9e3cc60eaae50fda42aef83661" target="_top" xlink:title="act_init">
<polygon fill="none" stroke="#000000" points="683.5,-152.5 683.5,-171.5 731.5,-171.5 731.5,-152.5 683.5,-152.5"/>
<text text-anchor="middle" x="707.5" y="-159.5" font-family="Helvetica,sans-Serif" font-size="10.00" fill="#000000">act_init</text>
</a>
</g>
</g>
<!-- Node563&#45;&gt;Node564 -->
<g id="edge21" class="edge">
<title>Node563&#45;&gt;Node564</title>
<path fill="none" stroke="#191970" d="M602.7639,-192.8525C622.764,-186.961 651.3577,-178.538 673.617,-171.981"/>
<polygon fill="#191970" stroke="#191970" points="674.7414,-175.2986 683.3449,-169.1155 672.7634,-168.5839 674.7414,-175.2986"/>
</g>
<!-- Node565 -->
<g id="node23" class="node">
<title>Node565</title>
<g id="a_node23"><a xlink:href="action_8c.html#a3dda6c6f441d69995296435482803ae8" target="_top" xlink:title="Sets a classifier&#39;s action functions to the implementations. ">
<polygon fill="none" stroke="#000000" points="676.5,-114.5 676.5,-133.5 738.5,-133.5 738.5,-114.5 676.5,-114.5"/>
<text text-anchor="middle" x="707.5" y="-121.5" font-family="Helvetica,sans-Serif" font-size="10.00" fill="#000000">action_set</text>
</a>
</g>
</g>
<!-- Node563&#45;&gt;Node565 -->
<g id="edge22" class="edge">
<title>Node563&#45;&gt;Node565</title>
<path fill="none" stroke="#191970" d="M587.9815,-190.194C600.6108,-177.6415 624.1453,-155.97 648,-143 653.7517,-139.8727 660.0999,-137.1638 666.4433,-134.8497"/>
<polygon fill="#191970" stroke="#191970" points="667.9541,-138.0346 676.3211,-131.5351 665.7271,-131.3983 667.9541,-138.0346"/>
</g>
<!-- Node566 -->
<g id="node24" class="node">
<title>Node566</title>
<g id="a_node24"><a xlink:href="condition_8h.html#ac4d6ce7d2050452ba7b242cad65d592b" target="_top" xlink:title="cond_init">
<polygon fill="none" stroke="#000000" points="679.5,-76.5 679.5,-95.5 735.5,-95.5 735.5,-76.5 679.5,-76.5"/>
<text text-anchor="middle" x="707.5" y="-83.5" font-family="Helvetica,sans-Serif" font-size="10.00" fill="#000000">cond_init</text>
</a>
</g>
</g>
<!-- Node563&#45;&gt;Node566 -->
<g id="edge23" class="edge">
<title>Node563&#45;&gt;Node566</title>
<path fill="none" stroke="#191970" d="M582.9497,-190.3555C592.2648,-171.2186 615.6638,-128.2879 648,-105 654.4964,-100.3214 662.1943,-96.7612 669.8605,-94.0633"/>
<polygon fill="#191970" stroke="#191970" points="670.9455,-97.3914 679.4612,-91.088 668.8733,-90.7051 670.9455,-97.3914"/>
</g>
<!-- Node567 -->
<g id="node25" class="node">
<title>Node567</title>
<g id="a_node25"><a xlink:href="condition_8c.html#a3329903e950755c55a38c98db2641e3d" target="_top" xlink:title="Sets a classifier&#39;s condition functions to the implementations. ">
<polygon fill="none" stroke="#000000" points="670.5,-266.5 670.5,-285.5 744.5,-285.5 744.5,-266.5 670.5,-266.5"/>
<text text-anchor="middle" x="707.5" y="-273.5" font-family="Helvetica,sans-Serif" font-size="10.00" fill="#000000">condition_set</text>
</a>
</g>
</g>
<!-- Node563&#45;&gt;Node567 -->
<g id="edge24" class="edge">
<title>Node563&#45;&gt;Node567</title>
<path fill="none" stroke="#191970" d="M587.9815,-209.806C600.6108,-222.3585 624.1453,-244.03 648,-257 652.0206,-259.186 656.3325,-261.1676 660.7306,-262.9528"/>
<polygon fill="#191970" stroke="#191970" points="659.8236,-266.3495 670.4165,-266.5504 662.2609,-259.7875 659.8236,-266.3495"/>
</g>
<!-- Node568 -->
<g id="node26" class="node">
<title>Node568</title>
<g id="a_node26"><a xlink:href="prediction_8h.html#a9466870f30753fb12cd3670e3be4b8d2" target="_top" xlink:title="pred_init">
<polygon fill="none" stroke="#000000" points="681,-228.5 681,-247.5 734,-247.5 734,-228.5 681,-228.5"/>
<text text-anchor="middle" x="707.5" y="-235.5" font-family="Helvetica,sans-Serif" font-size="10.00" fill="#000000">pred_init</text>
</a>
</g>
</g>
<!-- Node563&#45;&gt;Node568 -->
<g id="edge25" class="edge">
<title>Node563&#45;&gt;Node568</title>
<path fill="none" stroke="#191970" d="M602.7639,-207.1475C622.0045,-212.8153 649.1985,-220.8259 671.0546,-227.2641"/>
<polygon fill="#191970" stroke="#191970" points="670.0917,-230.6291 680.6732,-230.0975 672.0697,-223.9144 670.0917,-230.6291"/>
</g>
<!-- Node569 -->
<g id="node27" class="node">
<title>Node569</title>
<g id="a_node27"><a xlink:href="prediction_8c.html#a68bf56c06ff52c2e31c4fb31436e1eed" target="_top" xlink:title="Sets a classifier&#39;s prediction functions to the implementations. ">
<polygon fill="none" stroke="#000000" points="669,-190.5 669,-209.5 746,-209.5 746,-190.5 669,-190.5"/>
<text text-anchor="middle" x="707.5" y="-197.5" font-family="Helvetica,sans-Serif" font-size="10.00" fill="#000000">prediction_set</text>
</a>
</g>
</g>
<!-- Node563&#45;&gt;Node569 -->
<g id="edge26" class="edge">
<title>Node563&#45;&gt;Node569</title>
<path fill="none" stroke="#191970" d="M602.7639,-200C618.5397,-200 639.6624,-200 658.8056,-200"/>
<polygon fill="#191970" stroke="#191970" points="658.8927,-203.5001 668.8927,-200 658.8927,-196.5001 658.8927,-203.5001"/>
</g>
<!-- Node572 -->
<g id="node30" class="node">
<title>Node572</title>
<g id="a_node30"><a xlink:href="sam_8c.html#ab529fdda992a0d15c0f798ec3fefe843" target="_top" xlink:title="Initialises a classifier&#39;s self&#45;adaptive mutation rates. ">
<polygon fill="none" stroke="#000000" points="552,-38.5 552,-57.5 605,-57.5 605,-38.5 552,-38.5"/>
<text text-anchor="middle" x="578.5" y="-45.5" font-family="Helvetica,sans-Serif" font-size="10.00" fill="#000000">sam_init</text>
</a>
</g>
</g>
<!-- Node571&#45;&gt;Node572 -->
<g id="edge29" class="edge">
<title>Node571&#45;&gt;Node572</title>
<path fill="none" stroke="#191970" d="M479.603,-291.5521C489.733,-288.8858 501.3098,-284.1986 509,-276 523.7041,-260.3238 560.3153,-119.929 573.5921,-67.5699"/>
<polygon fill="#191970" stroke="#191970" points="577.0673,-68.1027 576.1199,-57.5503 570.28,-66.3903 577.0673,-68.1027"/>
</g>
<!-- Node573 -->
<g id="node31" class="node">
<title>Node573</title>
<g id="a_node31"><a xlink:href="sam_8c.html#af9ece15d6d1cb98bb4817cb267d24f82" target="_top" xlink:title="Initialises log normal self&#45;adaptive mutation rates. ">
<polygon fill="none" stroke="#000000" points="803,-.5 803,-19.5 909,-19.5 909,-.5 803,-.5"/>
<text text-anchor="middle" x="856" y="-7.5" font-family="Helvetica,sans-Serif" font-size="10.00" fill="#000000">sam_log_normal_init</text>
</a>
</g>
</g>
<!-- Node572&#45;&gt;Node573 -->
<g id="edge30" class="edge">
<title>Node572&#45;&gt;Node573</title>
<path fill="none" stroke="#191970" d="M605.3116,-39.4856C618.1132,-35.7264 633.7216,-31.5831 648,-29 696.026,-20.3115 751.0475,-15.5071 792.4331,-12.9043"/>
<polygon fill="#191970" stroke="#191970" points="792.8771,-16.3839 802.6486,-12.2889 792.4562,-9.3966 792.8771,-16.3839"/>
</g>
<!-- Node579 -->
<g id="node37" class="node">
<title>Node579</title>
<g id="a_node37"><a xlink:href="sam_8c.html#ade3e812ff797267372cee374fa55aad8" target="_top" xlink:title="Initialises rate selection self&#45;adaptive mutation. ">
<polygon fill="none" stroke="#000000" points="648,-38.5 648,-57.5 767,-57.5 767,-38.5 648,-38.5"/>
<text text-anchor="middle" x="707.5" y="-45.5" font-family="Helvetica,sans-Serif" font-size="10.00" fill="#000000">sam_rate_selection_init</text>
</a>
</g>
</g>
<!-- Node572&#45;&gt;Node579 -->
<g id="edge36" class="edge">
<title>Node572&#45;&gt;Node579</title>
<path fill="none" stroke="#191970" d="M605.2289,-48C614.8181,-48 626.127,-48 637.6652,-48"/>
<polygon fill="#191970" stroke="#191970" points="637.8264,-51.5001 647.8264,-48 637.8264,-44.5001 637.8264,-51.5001"/>
</g>
<!-- Node574 -->
<g id="node32" class="node">
<title>Node574</title>
<g id="a_node32"><a xlink:href="utils_8c.html#ae42a9e1d467853befaa7922cfafed3bb" target="_top" xlink:title="Returns a uniform random float [min,max]. ">
<polygon fill="none" stroke="#000000" points="945,-38.5 945,-57.5 1018,-57.5 1018,-38.5 945,-38.5"/>
<text text-anchor="middle" x="981.5" y="-45.5" font-family="Helvetica,sans-Serif" font-size="10.00" fill="#000000">rand_uniform</text>
</a>
</g>
</g>
<!-- Node573&#45;&gt;Node574 -->
<g id="edge31" class="edge">
<title>Node573&#45;&gt;Node574</title>
<path fill="none" stroke="#191970" d="M887.6689,-19.589C903.5725,-24.4044 923.0396,-30.2988 940.1114,-35.468"/>
<polygon fill="#191970" stroke="#191970" points="939.256,-38.8658 949.8412,-38.4141 941.2846,-32.1662 939.256,-38.8658"/>
</g>
<!-- Node575 -->
<g id="node33" class="node">
<title>Node575</title>
<g id="a_node33"><a xlink:href="utils_8c.html#a0c0a81e7797a05c535bad34449d8642c" target="_top" xlink:title="Returns a uniform random float [0,1]. ">
<polygon fill="none" stroke="#000000" points="1054,-38.5 1054,-57.5 1095,-57.5 1095,-38.5 1054,-38.5"/>
<text text-anchor="middle" x="1074.5" y="-45.5" font-family="Helvetica,sans-Serif" font-size="10.00" fill="#000000">drand</text>
</a>
</g>
</g>
<!-- Node574&#45;&gt;Node575 -->
<g id="edge32" class="edge">
<title>Node574&#45;&gt;Node575</title>
<path fill="none" stroke="#191970" d="M1018.2561,-48C1026.658,-48 1035.5043,-48 1043.63,-48"/>
<polygon fill="#191970" stroke="#191970" points="1043.799,-51.5001 1053.7989,-48 1043.7989,-44.5001 1043.799,-51.5001"/>
</g>
<!-- Node576 -->
<g id="node34" class="node">
<title>Node576</title>
<g id="a_node34"><a xlink:href="mt19937-64_8c.html#aa0b74daf51eca91df224d00f1730084a" target="_top" xlink:title="genrand64_real1">
<polygon fill="none" stroke="#000000" points="1131,-38.5 1131,-57.5 1219,-57.5 1219,-38.5 1131,-38.5"/>
<text text-anchor="middle" x="1175" y="-45.5" font-family="Helvetica,sans-Serif" font-size="10.00" fill="#000000">genrand64_real1</text>
</a>
</g>
</g>
<!-- Node575&#45;&gt;Node576 -->
<g id="edge33" class="edge">
<title>Node575&#45;&gt;Node576</title>
<path fill="none" stroke="#191970" d="M1095.3237,-48C1102.8428,-48 1111.7193,-48 1120.769,-48"/>
<polygon fill="#191970" stroke="#191970" points="1120.9969,-51.5001 1130.9969,-48 1120.9969,-44.5001 1120.9969,-51.5001"/>
</g>
<!-- Node577 -->
<g id="node35" class="node">
<title>Node577</title>
<g id="a_node35"><a xlink:href="mt19937-64_8c.html#a265bf48d20d6e0347371fcf4fe340e6d" target="_top" xlink:title="genrand64_int64">
<polygon fill="none" stroke="#000000" points="1255,-38.5 1255,-57.5 1343,-57.5 1343,-38.5 1255,-38.5"/>
<text text-anchor="middle" x="1299" y="-45.5" font-family="Helvetica,sans-Serif" font-size="10.00" fill="#000000">genrand64_int64</text>
</a>
</g>
</g>
<!-- Node576&#45;&gt;Node577 -->
<g id="edge34" class="edge">
<title>Node576&#45;&gt;Node577</title>
<path fill="none" stroke="#191970" d="M1219.0669,-48C1227.2822,-48 1235.957,-48 1244.4432,-48"/>
<polygon fill="#191970" stroke="#191970" points="1244.6572,-51.5001 1254.6572,-48 1244.6572,-44.5001 1244.6572,-51.5001"/>
</g>
<!-- Node578 -->
<g id="node36" class="node">
<title>Node578</title>
<g id="a_node36"><a xlink:href="mt19937-64_8c.html#adf4127d44c2dc34fcb318d406131ef7c" target="_top" xlink:title="init_genrand64">
<polygon fill="none" stroke="#000000" points="1379,-38.5 1379,-57.5 1459,-57.5 1459,-38.5 1379,-38.5"/>
<text text-anchor="middle" x="1419" y="-45.5" font-family="Helvetica,sans-Serif" font-size="10.00" fill="#000000">init_genrand64</text>
</a>
</g>
</g>
<!-- Node577&#45;&gt;Node578 -->
<g id="edge35" class="edge">
<title>Node577&#45;&gt;Node578</title>
<path fill="none" stroke="#191970" d="M1343.0022,-48C1351.3719,-48 1360.1896,-48 1368.7365,-48"/>
<polygon fill="#191970" stroke="#191970" points="1368.9792,-51.5001 1378.9792,-48 1368.9792,-44.5001 1368.9792,-51.5001"/>
</g>
<!-- Node580 -->
<g id="node38" class="node">
<title>Node580</title>
<g id="a_node38"><a xlink:href="utils_8c.html#a32648ab076544a9ac1c086d0f07b599f" target="_top" xlink:title="Returns a uniform random integer [min,max] not inclusive of max. ">
<polygon fill="none" stroke="#000000" points="818.5,-38.5 818.5,-57.5 893.5,-57.5 893.5,-38.5 818.5,-38.5"/>
<text text-anchor="middle" x="856" y="-45.5" font-family="Helvetica,sans-Serif" font-size="10.00" fill="#000000">irand_uniform</text>
</a>
</g>
</g>
<!-- Node579&#45;&gt;Node580 -->
<g id="edge37" class="edge">
<title>Node579&#45;&gt;Node580</title>
<path fill="none" stroke="#191970" d="M767.045,-48C780.6704,-48 794.9841,-48 808.05,-48"/>
<polygon fill="#191970" stroke="#191970" points="808.2241,-51.5001 818.2241,-48 808.2241,-44.5001 808.2241,-51.5001"/>
</g>
<!-- Node580&#45;&gt;Node574 -->
<g id="edge38" class="edge">
<title>Node580&#45;&gt;Node574</title>
<path fill="none" stroke="#191970" d="M893.6541,-48C906.542,-48 921.1208,-48 934.6451,-48"/>
<polygon fill="#191970" stroke="#191970" points="934.7361,-51.5001 944.7361,-48 934.7361,-44.5001 934.7361,-51.5001"/>
</g>
<!-- Node582 -->
<g id="node40" class="node">
<title>Node582</title>
<g id="a_node40"><a xlink:href="cl__set_8c.html#a7ff6217fb822a2eca84c9ac23e8b5cb5" target="_top" xlink:title="Deletes a single classifier from the population set. ">
<polygon fill="none" stroke="#000000" points="553.5,-361.5 553.5,-380.5 603.5,-380.5 603.5,-361.5 553.5,-361.5"/>
<text text-anchor="middle" x="578.5" y="-368.5" font-family="Helvetica,sans-Serif" font-size="10.00" fill="#000000">pop_del</text>
</a>
</g>
</g>
<!-- Node581&#45;&gt;Node582 -->
<g id="edge40" class="edge">
<title>Node581&#45;&gt;Node582</title>
<path fill="none" stroke="#191970" d="M505.2387,-371C517.7341,-371 531.0373,-371 542.8306,-371"/>
<polygon fill="#191970" stroke="#191970" points="543.1703,-374.5001 553.1702,-371 543.1702,-367.5001 543.1703,-374.5001"/>
</g>
<!-- Node582&#45;&gt;Node559 -->
<g id="edge47" class="edge">
<title>Node582&#45;&gt;Node559</title>
<path fill="none" stroke="#191970" d="M595.7415,-380.6019C601.5091,-384.4754 607.5863,-389.3692 612,-395 638.5777,-428.9062 616.4688,-455.6438 648,-485 654.689,-491.2276 663.4228,-495.414 672.1299,-498.2283"/>
<polygon fill="#191970" stroke="#191970" points="671.2715,-501.6218 681.8388,-500.8583 673.1018,-494.8654 671.2715,-501.6218"/>
</g>
<!-- Node582&#45;&gt;Node574 -->
<g id="edge46" class="edge">
<title>Node582&#45;&gt;Node574</title>
<path fill="none" stroke="#191970" d="M595.6091,-361.4225C614.4188,-350.9288 642.6909,-335.2743 648,-333 699.0346,-311.1382 720.6327,-325.5376 767,-295 863.775,-231.2638 942.5414,-112.2293 970.5338,-66.5255"/>
<polygon fill="#191970" stroke="#191970" points="973.6899,-68.0699 975.8626,-57.7002 967.6975,-64.4516 973.6899,-68.0699"/>
</g>
<!-- Node583 -->
<g id="node41" class="node">
<title>Node583</title>
<g id="a_node41"><a xlink:href="cl_8c.html#ab34a0468e7a08b58586daccab5f49651" target="_top" xlink:title="Returns the size of the classifier condition. ">
<polygon fill="none" stroke="#000000" points="670.5,-456.5 670.5,-475.5 744.5,-475.5 744.5,-456.5 670.5,-456.5"/>
<text text-anchor="middle" x="707.5" y="-463.5" font-family="Helvetica,sans-Serif" font-size="10.00" fill="#000000">cl_cond_size</text>
</a>
</g>
</g>
<!-- Node582&#45;&gt;Node583 -->
<g id="edge41" class="edge">
<title>Node582&#45;&gt;Node583</title>
<path fill="none" stroke="#191970" d="M594.3863,-380.7263C600.2739,-384.7411 606.7812,-389.6964 612,-395 631.7154,-415.0357 625.4064,-430.2772 648,-447 651.9331,-449.9111 656.3283,-452.3863 660.9006,-454.4888"/>
<polygon fill="#191970" stroke="#191970" points="659.8582,-457.8413 670.4431,-458.3012 662.4553,-451.3408 659.8582,-457.8413"/>
</g>
<!-- Node585 -->
<g id="node43" class="node">
<title>Node585</title>
<g id="a_node43"><a xlink:href="cl_8c.html#af708b9effceaf930cbe524f7aaffd2f9" target="_top" xlink:title="Returns the deletion vote of the classifier. ">
<polygon fill="none" stroke="#000000" points="674.5,-418.5 674.5,-437.5 740.5,-437.5 740.5,-418.5 674.5,-418.5"/>
<text text-anchor="middle" x="707.5" y="-425.5" font-family="Helvetica,sans-Serif" font-size="10.00" fill="#000000">cl_del_vote</text>
</a>
</g>
</g>
<!-- Node582&#45;&gt;Node585 -->
<g id="edge43" class="edge">
<title>Node582&#45;&gt;Node585</title>
<path fill="none" stroke="#191970" d="M594.0779,-380.6437C607.8872,-388.916 628.786,-400.7693 648,-409 653.3639,-411.2977 659.1018,-413.469 664.8195,-415.4655"/>
<polygon fill="#191970" stroke="#191970" points="663.7595,-418.8015 674.3533,-418.6518 665.9784,-412.1624 663.7595,-418.8015"/>
</g>
<!-- Node586 -->
<g id="node44" class="node">
<title>Node586</title>
<g id="a_node44"><a xlink:href="cl_8c.html#aaa9b5b7ca68222f98cc38c80b643edbe" target="_top" xlink:title="Returns the size of the classifier prediction. ">
<polygon fill="none" stroke="#000000" points="672,-380.5 672,-399.5 743,-399.5 743,-380.5 672,-380.5"/>
<text text-anchor="middle" x="707.5" y="-387.5" font-family="Helvetica,sans-Serif" font-size="10.00" fill="#000000">cl_pred_size</text>
</a>
</g>
</g>
<!-- Node582&#45;&gt;Node586 -->
<g id="edge44" class="edge">
<title>Node582&#45;&gt;Node586</title>
<path fill="none" stroke="#191970" d="M603.6787,-374.7085C620.1627,-377.1364 642.1873,-380.3803 661.7089,-383.2556"/>
<polygon fill="#191970" stroke="#191970" points="661.2433,-386.7247 671.6466,-384.7193 662.2634,-379.7994 661.2433,-386.7247"/>
</g>
<!-- Node588 -->
<g id="node46" class="node">
<title>Node588</title>
<g id="a_node46"><a xlink:href="cl__set_8c.html#ac2ecc83b8ceaada1cc75c14e76021d83" target="_top" xlink:title="Calculates the total fitness of classifiers in the set. ">
<polygon fill="none" stroke="#000000" points="673.5,-342.5 673.5,-361.5 741.5,-361.5 741.5,-342.5 673.5,-342.5"/>
<text text-anchor="middle" x="707.5" y="-349.5" font-family="Helvetica,sans-Serif" font-size="10.00" fill="#000000">set_total_fit</text>
</a>
</g>
</g>
<!-- Node582&#45;&gt;Node588 -->
<g id="edge48" class="edge">
<title>Node582&#45;&gt;Node588</title>
<path fill="none" stroke="#191970" d="M603.6787,-367.2915C620.5373,-364.8085 643.1913,-361.4718 663.0359,-358.549"/>
<polygon fill="#191970" stroke="#191970" points="663.7285,-361.9848 673.1117,-357.0649 662.7084,-355.0595 663.7285,-361.9848"/>
</g>
<!-- Node584 -->
<g id="node42" class="node">
<title>Node584</title>
<g id="a_node42"><a xlink:href="condition_8h.html#a1433f279ed8c1fff6eb5c4517d216315" target="_top" xlink:title="cond_size">
<polygon fill="none" stroke="#000000" points="825.5,-456.5 825.5,-475.5 886.5,-475.5 886.5,-456.5 825.5,-456.5"/>
<text text-anchor="middle" x="856" y="-463.5" font-family="Helvetica,sans-Serif" font-size="10.00" fill="#000000">cond_size</text>
</a>
</g>
</g>
<!-- Node583&#45;&gt;Node584 -->
<g id="edge42" class="edge">
<title>Node583&#45;&gt;Node584</title>
<path fill="none" stroke="#191970" d="M744.5898,-466C766.0968,-466 793.2084,-466 815.3015,-466"/>
<polygon fill="#191970" stroke="#191970" points="815.3785,-469.5001 825.3784,-466 815.3784,-462.5001 815.3785,-469.5001"/>
</g>
<!-- Node587 -->
<g id="node45" class="node">
<title>Node587</title>
<g id="a_node45"><a xlink:href="prediction_8h.html#a5a7d522104f8457884c00e432dbe0a35" target="_top" xlink:title="pred_size">
<polygon fill="none" stroke="#000000" points="826.5,-380.5 826.5,-399.5 885.5,-399.5 885.5,-380.5 826.5,-380.5"/>
<text text-anchor="middle" x="856" y="-387.5" font-family="Helvetica,sans-Serif" font-size="10.00" fill="#000000">pred_size</text>
</a>
</g>
</g>
<!-- Node586&#45;&gt;Node587 -->
<g id="edge45" class="edge">
<title>Node586&#45;&gt;Node587</title>
<path fill="none" stroke="#191970" d="M743.0694,-390C765.0946,-390 793.42,-390 816.1925,-390"/>
<polygon fill="#191970" stroke="#191970" points="816.2222,-393.5001 826.2222,-390 816.2222,-386.5001 816.2222,-393.5001"/>
</g>
<!-- Node592 -->
<g id="node50" class="node">
<title>Node592</title>
<g id="a_node50"><a xlink:href="cl_8c.html#a3ae6b6421d2dc7d021d0b78bf0569c7c" target="_top" xlink:title="Computes the current classifier payoff prediction using the input. ">
<polygon fill="none" stroke="#000000" points="313,-176.5 313,-195.5 372,-195.5 372,-176.5 313,-176.5"/>
<text text-anchor="middle" x="342.5" y="-183.5" font-family="Helvetica,sans-Serif" font-size="10.00" fill="#000000">cl_predict</text>
</a>
</g>
</g>
<!-- Node591&#45;&gt;Node592 -->
<g id="edge53" class="edge">
<title>Node591&#45;&gt;Node592</title>
<path fill="none" stroke="#191970" d="M262.3699,-233.3307C277.4331,-224.4333 299.9997,-211.1038 317.3501,-200.8554"/>
<polygon fill="#191970" stroke="#191970" points="319.5417,-203.6259 326.3718,-195.5265 315.9816,-197.5988 319.5417,-203.6259"/>
</g>
<!-- Node593 -->
<g id="node51" class="node">
<title>Node593</title>
<g id="a_node51"><a xlink:href="prediction_8h.html#ab7b5be5cd3d39ed86fd6bf0777354d70" target="_top" xlink:title="pred_compute">
<polygon fill="none" stroke="#000000" points="419.5,-171.5 419.5,-190.5 497.5,-190.5 497.5,-171.5 419.5,-171.5"/>
<text text-anchor="middle" x="458.5" y="-178.5" font-family="Helvetica,sans-Serif" font-size="10.00" fill="#000000">pred_compute</text>
</a>
</g>
</g>
<!-- Node592&#45;&gt;Node593 -->
<g id="edge54" class="edge">
<title>Node592&#45;&gt;Node593</title>
<path fill="none" stroke="#191970" d="M372.0718,-184.7254C383.4065,-184.2368 396.6655,-183.6653 409.3468,-183.1187"/>
<polygon fill="#191970" stroke="#191970" points="409.5052,-186.6152 419.3452,-182.6877 409.2037,-179.6217 409.5052,-186.6152"/>
</g>
</g>
</svg>
