<?xml version="1.0" encoding="UTF-8" standalone="no"?>
<!DOCTYPE svg PUBLIC "-//W3C//DTD SVG 1.1//EN"
 "http://www.w3.org/Graphics/SVG/1.1/DTD/svg11.dtd">
<!-- Generated by graphviz version 2.40.1 (20161225.0304)
 -->
<!-- Title: XCSF Pages: 1 -->
<svg width="206pt" height="340pt"
 viewBox="0.00 0.00 205.50 340.00" xmlns="http://www.w3.org/2000/svg" xmlns:xlink="http://www.w3.org/1999/xlink">
<g id="graph0" class="graph" transform="scale(1 1) rotate(0) translate(4 336)">
<title>XCSF</title>
<!-- Node1 -->
<g id="node1" class="node">
<title>Node1</title>
<polygon fill="#bfbfbf" stroke="#000000" points="105.5,-.5 105.5,-19.5 149.5,-19.5 149.5,-.5 105.5,-.5"/>
<text text-anchor="middle" x="127.5" y="-7.5" font-family="Helvetica,sans-Serif" font-size="10.00" fill="#000000">XCSF</text>
</g>
<!-- Node2 -->
<g id="node2" class="node">
<title>Node2</title>
<g id="a_node2"><a xlink:href="structSET.html" target="_top" xlink:title="Classifier set. ">
<polygon fill="none" stroke="#000000" points="76.5,-111.5 76.5,-130.5 112.5,-130.5 112.5,-111.5 76.5,-111.5"/>
<text text-anchor="middle" x="94.5" y="-118.5" font-family="Helvetica,sans-Serif" font-size="10.00" fill="#000000">SET</text>
</a>
</g>
</g>
<!-- Node2&#45;&gt;Node1 -->
<g id="edge1" class="edge">
<title>Node2&#45;&gt;Node1</title>
<path fill="none" stroke="#9a32cd" stroke-dasharray="5,2" d="M90.3929,-101.3638C87.7219,-83.8932 86.2444,-58.075 95.5,-38 98.8999,-30.6258 105.2862,-24.4191 111.4648,-19.7381"/>
<polygon fill="#9a32cd" stroke="#9a32cd" points="87.0006,-102.2746 92.2197,-111.4948 93.8895,-101.0324 87.0006,-102.2746"/>
<text text-anchor="middle" x="117" y="-85" font-family="Helvetica,sans-Serif" font-size="10.00" fill="#000000"> pset</text>
<text text-anchor="middle" x="117" y="-74" font-family="Helvetica,sans-Serif" font-size="10.00" fill="#000000">prev_aset</text>
<text text-anchor="middle" x="117" y="-63" font-family="Helvetica,sans-Serif" font-size="10.00" fill="#000000">mset</text>
<text text-anchor="middle" x="117" y="-52" font-family="Helvetica,sans-Serif" font-size="10.00" fill="#000000">kset</text>
<text text-anchor="middle" x="117" y="-41" font-family="Helvetica,sans-Serif" font-size="10.00" fill="#000000">aset</text>
</g>
<!-- Node3 -->
<g id="node3" class="node">
<title>Node3</title>
<g id="a_node3"><a xlink:href="structCLIST.html" target="_top" xlink:title="Classifier linked list. ">
<polygon fill="none" stroke="#000000" points="72,-178.5 72,-197.5 117,-197.5 117,-178.5 72,-178.5"/>
<text text-anchor="middle" x="94.5" y="-185.5" font-family="Helvetica,sans-Serif" font-size="10.00" fill="#000000">CLIST</text>
</a>
</g>
</g>
<!-- Node3&#45;&gt;Node2 -->
<g id="edge2" class="edge">
<title>Node3&#45;&gt;Node2</title>
<path fill="none" stroke="#9a32cd" stroke-dasharray="5,2" d="M94.5,-168.1079C94.5,-155.714 94.5,-140.3263 94.5,-130.5817"/>
<polygon fill="#9a32cd" stroke="#9a32cd" points="91.0001,-168.4005 94.5,-178.4005 98.0001,-168.4006 91.0001,-168.4005"/>
<text text-anchor="middle" x="102.5" y="-152" font-family="Helvetica,sans-Serif" font-size="10.00" fill="#000000"> list</text>
</g>
<!-- Node3&#45;&gt;Node3 -->
<g id="edge7" class="edge">
<title>Node3&#45;&gt;Node3</title>
<path fill="none" stroke="#9a32cd" stroke-dasharray="5,2" d="M127.5033,-193.3327C132.0015,-192.4436 135,-190.666 135,-188 135,-183.625 126.925,-181.6426 117.3991,-182.0527"/>
<polygon fill="#9a32cd" stroke="#9a32cd" points="127.1682,-189.8465 117.3991,-193.9473 127.5932,-196.8336 127.1682,-189.8465"/>
<text text-anchor="middle" x="146" y="-185.5" font-family="Helvetica,sans-Serif" font-size="10.00" fill="#000000"> next</text>
</g>
<!-- Node4 -->
<g id="node4" class="node">
<title>Node4</title>
<g id="a_node4"><a xlink:href="structCL.html" target="_top" xlink:title="Classifier data structure. ">
<polygon fill="none" stroke="#000000" points="80,-245.5 80,-264.5 109,-264.5 109,-245.5 80,-245.5"/>
<text text-anchor="middle" x="94.5" y="-252.5" font-family="Helvetica,sans-Serif" font-size="10.00" fill="#000000">CL</text>
</a>
</g>
</g>
<!-- Node4&#45;&gt;Node3 -->
<g id="edge3" class="edge">
<title>Node4&#45;&gt;Node3</title>
<path fill="none" stroke="#9a32cd" stroke-dasharray="5,2" d="M94.5,-235.1079C94.5,-222.714 94.5,-207.3263 94.5,-197.5817"/>
<polygon fill="#9a32cd" stroke="#9a32cd" points="91.0001,-235.4005 94.5,-245.4005 98.0001,-235.4006 91.0001,-235.4005"/>
<text text-anchor="middle" x="100" y="-219" font-family="Helvetica,sans-Serif" font-size="10.00" fill="#000000"> cl</text>
</g>
<!-- Node5 -->
<g id="node5" class="node">
<title>Node5</title>
<g id="a_node5"><a xlink:href="structActVtbl.html" target="_top" xlink:title="Action interface data structure. ">
<polygon fill="none" stroke="#000000" points="0,-312.5 0,-331.5 49,-331.5 49,-312.5 0,-312.5"/>
<text text-anchor="middle" x="24.5" y="-319.5" font-family="Helvetica,sans-Serif" font-size="10.00" fill="#000000">ActVtbl</text>
</a>
</g>
</g>
<!-- Node5&#45;&gt;Node4 -->
<g id="edge4" class="edge">
<title>Node5&#45;&gt;Node4</title>
<path fill="none" stroke="#9a32cd" stroke-dasharray="5,2" d="M35.1925,-303.4924C39.6973,-296.5981 45.3292,-288.9983 51.5,-283 59.932,-274.8037 71.1009,-267.6155 79.9424,-262.5749"/>
<polygon fill="#9a32cd" stroke="#9a32cd" points="32.0689,-301.89 29.8036,-312.2399 38.0287,-305.5616 32.0689,-301.89"/>
<text text-anchor="middle" x="71" y="-286" font-family="Helvetica,sans-Serif" font-size="10.00" fill="#000000"> act_vptr</text>
</g>
<!-- Node6 -->
<g id="node6" class="node">
<title>Node6</title>
<g id="a_node6"><a xlink:href="structPredVtbl.html" target="_top" xlink:title="Prediction interface data structure. ">
<polygon fill="none" stroke="#000000" points="67.5,-312.5 67.5,-331.5 121.5,-331.5 121.5,-312.5 67.5,-312.5"/>
<text text-anchor="middle" x="94.5" y="-319.5" font-family="Helvetica,sans-Serif" font-size="10.00" fill="#000000">PredVtbl</text>
</a>
</g>
</g>
<!-- Node6&#45;&gt;Node4 -->
<g id="edge5" class="edge">
<title>Node6&#45;&gt;Node4</title>
<path fill="none" stroke="#9a32cd" stroke-dasharray="5,2" d="M94.5,-302.1079C94.5,-289.714 94.5,-274.3263 94.5,-264.5817"/>
<polygon fill="#9a32cd" stroke="#9a32cd" points="91.0001,-302.4005 94.5,-312.4005 98.0001,-302.4006 91.0001,-302.4005"/>
<text text-anchor="middle" x="116.5" y="-286" font-family="Helvetica,sans-Serif" font-size="10.00" fill="#000000"> pred_vptr</text>
</g>
<!-- Node7 -->
<g id="node7" class="node">
<title>Node7</title>
<g id="a_node7"><a xlink:href="structCondVtbl.html" target="_top" xlink:title="Condition interface data structure. ">
<polygon fill="none" stroke="#000000" points="140,-312.5 140,-331.5 197,-331.5 197,-312.5 140,-312.5"/>
<text text-anchor="middle" x="168.5" y="-319.5" font-family="Helvetica,sans-Serif" font-size="10.00" fill="#000000">CondVtbl</text>
</a>
</g>
</g>
<!-- Node7&#45;&gt;Node4 -->
<g id="edge6" class="edge">
<title>Node7&#45;&gt;Node4</title>
<path fill="none" stroke="#9a32cd" stroke-dasharray="5,2" d="M158.6336,-303.5885C154.3032,-296.5986 148.7719,-288.9069 142.5,-283 132.6676,-273.7399 119.2339,-266.234 109.0784,-261.3331"/>
<polygon fill="#9a32cd" stroke="#9a32cd" points="155.7198,-305.5417 163.7513,-312.4516 161.7819,-302.0414 155.7198,-305.5417"/>
<text text-anchor="middle" x="174.5" y="-286" font-family="Helvetica,sans-Serif" font-size="10.00" fill="#000000"> cond_vptr</text>
</g>
<!-- Node8 -->
<g id="node8" class="node">
<title>Node8</title>
<g id="a_node8"><a xlink:href="structEnvVtbl.html" target="_top" xlink:title="Built&#45;in problem environment interface data structure. ">
<polygon fill="none" stroke="#000000" points="135,-111.5 135,-130.5 186,-130.5 186,-111.5 135,-111.5"/>
<text text-anchor="middle" x="160.5" y="-118.5" font-family="Helvetica,sans-Serif" font-size="10.00" fill="#000000">EnvVtbl</text>
</a>
</g>
</g>
<!-- Node8&#45;&gt;Node1 -->
<g id="edge8" class="edge">
<title>Node8&#45;&gt;Node1</title>
<path fill="none" stroke="#9a32cd" stroke-dasharray="5,2" d="M155.9661,-101.3396C151.8998,-84.4031 145.5078,-59.3816 138.5,-38 136.483,-31.8459 133.8391,-25.0842 131.6489,-19.7475"/>
<polygon fill="#9a32cd" stroke="#9a32cd" points="152.5851,-102.2515 158.2854,-111.1822 159.3984,-100.646 152.5851,-102.2515"/>
<text text-anchor="middle" x="173" y="-63" font-family="Helvetica,sans-Serif" font-size="10.00" fill="#000000"> env_vptr</text>
</g>
</g>
</svg>
