<?xml version="1.0" encoding="UTF-8" standalone="no"?>
<!DOCTYPE svg PUBLIC "-//W3C//DTD SVG 1.1//EN"
 "http://www.w3.org/Graphics/SVG/1.1/DTD/svg11.dtd">
<!-- Generated by graphviz version 2.40.1 (20161225.0304)
 -->
<!-- Title: XCS::single_decision Pages: 1 -->
<svg width="1752pt" height="486pt"
 viewBox="0.00 0.00 1752.00 485.52" xmlns="http://www.w3.org/2000/svg" xmlns:xlink="http://www.w3.org/1999/xlink">
<g id="graph0" class="graph" transform="scale(1 1) rotate(0) translate(4 481.5208)">
<title>XCS::single_decision</title>
<!-- Node1036 -->
<g id="node1" class="node">
<title>Node1036</title>
<polygon fill="#bfbfbf" stroke="#000000" points="0,-105.5 0,-124.5 110,-124.5 110,-105.5 0,-105.5"/>
<text text-anchor="middle" x="55" y="-112.5" font-family="Helvetica,sans-Serif" font-size="10.00" fill="#000000">XCS::single_decision</text>
</g>
<!-- Node1037 -->
<g id="node2" class="node">
<title>Node1037</title>
<g id="a_node2"><a xlink:href="xcs__single__step_8c.html#a5c1d53976f601ae3603aed34f0767c29" target="_top" xlink:title="Constructs the match set and selects an action to perform. ">
<polygon fill="none" stroke="#000000" points="146,-105.5 146,-124.5 250,-124.5 250,-105.5 146,-105.5"/>
<text text-anchor="middle" x="198" y="-112.5" font-family="Helvetica,sans-Serif" font-size="10.00" fill="#000000">xcs_single_decision</text>
</a>
</g>
</g>
<!-- Node1036&#45;&gt;Node1037 -->
<g id="edge1" class="edge">
<title>Node1036&#45;&gt;Node1037</title>
<path fill="none" stroke="#191970" d="M110.2875,-115C118.5571,-115 127.1321,-115 135.5378,-115"/>
<polygon fill="#191970" stroke="#191970" points="135.6749,-118.5001 145.6749,-115 135.6749,-111.5001 135.6749,-118.5001"/>
</g>
<!-- Node1038 -->
<g id="node3" class="node">
<title>Node1038</title>
<g id="a_node3"><a xlink:href="clset_8c.html#a229207544a5b8b601de05d231bb84650" target="_top" xlink:title="Constructs the match set. ">
<polygon fill="none" stroke="#000000" points="292.5,-152.5 292.5,-171.5 362.5,-171.5 362.5,-152.5 292.5,-152.5"/>
<text text-anchor="middle" x="327.5" y="-159.5" font-family="Helvetica,sans-Serif" font-size="10.00" fill="#000000">clset_match</text>
</a>
</g>
</g>
<!-- Node1037&#45;&gt;Node1038 -->
<g id="edge2" class="edge">
<title>Node1037&#45;&gt;Node1038</title>
<path fill="none" stroke="#191970" d="M224.2063,-124.5112C243.4746,-131.5043 269.9026,-141.0959 291.2028,-148.8265"/>
<polygon fill="#191970" stroke="#191970" points="290.2941,-152.22 300.8882,-152.3417 292.6823,-145.64 290.2941,-152.22"/>
</g>
<!-- Node1060 -->
<g id="node25" class="node">
<title>Node1060</title>
<g id="a_node25"><a xlink:href="utils_8c.html#ae42a9e1d467853befaa7922cfafed3bb" target="_top" xlink:title="Returns a uniform random float [min,max]. ">
<polygon fill="none" stroke="#000000" points="1230,-247.5 1230,-266.5 1303,-266.5 1303,-247.5 1230,-247.5"/>
<text text-anchor="middle" x="1266.5" y="-254.5" font-family="Helvetica,sans-Serif" font-size="10.00" fill="#000000">rand_uniform</text>
</a>
</g>
</g>
<!-- Node1037&#45;&gt;Node1060 -->
<g id="edge55" class="edge">
<title>Node1037&#45;&gt;Node1060</title>
<path fill="none" stroke="#191970" d="M199.6256,-124.7541C209.6771,-181.4431 268.6172,-466 439,-466 439,-466 439,-466 992.5,-466 1082.4528,-466 1122.3978,-501.4484 1194,-447 1248.9939,-405.1811 1262.2754,-316.2788 1265.4811,-276.7076"/>
<polygon fill="#191970" stroke="#191970" points="1268.987,-276.7363 1266.1663,-266.5238 1262.0028,-276.2663 1268.987,-276.7363"/>
</g>
<!-- Node1081 -->
<g id="node46" class="node">
<title>Node1081</title>
<g id="a_node46"><a xlink:href="pa_8c.html#ac934537ad2bbae81042677d1a03e5ee4" target="_top" xlink:title="Returns the best action in the prediction array. ">
<polygon fill="none" stroke="#000000" points="286,-67.5 286,-86.5 369,-86.5 369,-67.5 286,-67.5"/>
<text text-anchor="middle" x="327.5" y="-74.5" font-family="Helvetica,sans-Serif" font-size="10.00" fill="#000000">pa_best_action</text>
</a>
</g>
</g>
<!-- Node1037&#45;&gt;Node1081 -->
<g id="edge49" class="edge">
<title>Node1037&#45;&gt;Node1081</title>
<path fill="none" stroke="#191970" d="M230.6783,-105.411C247.0888,-100.5956 267.1763,-94.7012 284.7922,-89.532"/>
<polygon fill="#191970" stroke="#191970" points="286.2222,-92.7601 294.8321,-86.5859 284.2512,-86.0433 286.2222,-92.7601"/>
</g>
<!-- Node1082 -->
<g id="node47" class="node">
<title>Node1082</title>
<g id="a_node47"><a xlink:href="pa_8c.html#a5cf732b7d7928a84d6745d0cba498a6a" target="_top" xlink:title="Builds the prediction array for the specified input. ">
<polygon fill="none" stroke="#000000" points="301,-10.5 301,-29.5 354,-29.5 354,-10.5 301,-10.5"/>
<text text-anchor="middle" x="327.5" y="-17.5" font-family="Helvetica,sans-Serif" font-size="10.00" fill="#000000">pa_build</text>
</a>
</g>
</g>
<!-- Node1037&#45;&gt;Node1082 -->
<g id="edge50" class="edge">
<title>Node1037&#45;&gt;Node1082</title>
<path fill="none" stroke="#191970" d="M211.371,-105.1911C233.7821,-88.7506 279.1118,-55.4971 306.031,-35.7495"/>
<polygon fill="#191970" stroke="#191970" points="308.4018,-38.3511 314.3946,-29.614 304.2612,-32.707 308.4018,-38.3511"/>
</g>
<!-- Node1085 -->
<g id="node50" class="node">
<title>Node1085</title>
<g id="a_node50"><a xlink:href="pa_8c.html#a729cd032e57cbcdbf1c44b9cc3c23227" target="_top" xlink:title="Returns a random action from the prediction array. ">
<polygon fill="none" stroke="#000000" points="286,-105.5 286,-124.5 369,-124.5 369,-105.5 286,-105.5"/>
<text text-anchor="middle" x="327.5" y="-112.5" font-family="Helvetica,sans-Serif" font-size="10.00" fill="#000000">pa_rand_action</text>
</a>
</g>
</g>
<!-- Node1037&#45;&gt;Node1085 -->
<g id="edge53" class="edge">
<title>Node1037&#45;&gt;Node1085</title>
<path fill="none" stroke="#191970" d="M250.2993,-115C258.6835,-115 267.3571,-115 275.7289,-115"/>
<polygon fill="#191970" stroke="#191970" points="275.7512,-118.5001 285.7512,-115 275.7511,-111.5001 275.7512,-118.5001"/>
</g>
<!-- Node1039 -->
<g id="node4" class="node">
<title>Node1039</title>
<g id="a_node4"><a xlink:href="cl_8c.html#a03bd37ba4e5697866192d6f643a50de3" target="_top" xlink:title="Computes the current classifier action using the input. ">
<polygon fill="none" stroke="#000000" points="411,-114.5 411,-133.5 467,-133.5 467,-114.5 411,-114.5"/>
<text text-anchor="middle" x="439" y="-121.5" font-family="Helvetica,sans-Serif" font-size="10.00" fill="#000000">cl_action</text>
</a>
</g>
</g>
<!-- Node1038&#45;&gt;Node1039 -->
<g id="edge3" class="edge">
<title>Node1038&#45;&gt;Node1039</title>
<path fill="none" stroke="#191970" d="M355.6362,-152.411C369.5015,-147.6856 386.4156,-141.9211 401.3758,-136.8226"/>
<polygon fill="#191970" stroke="#191970" points="402.5365,-140.1248 410.8728,-133.5859 400.2784,-133.499 402.5365,-140.1248"/>
</g>
<!-- Node1041 -->
<g id="node6" class="node">
<title>Node1041</title>
<g id="a_node6"><a xlink:href="cl_8c.html#ad26f65e65f9785ce44ece9979362d889" target="_top" xlink:title="Returns whether the classifier matched the most recent input. ">
<polygon fill="none" stroke="#000000" points="420,-152.5 420,-171.5 458,-171.5 458,-152.5 420,-152.5"/>
<text text-anchor="middle" x="439" y="-159.5" font-family="Helvetica,sans-Serif" font-size="10.00" fill="#000000">cl_m</text>
</a>
</g>
</g>
<!-- Node1038&#45;&gt;Node1041 -->
<g id="edge5" class="edge">
<title>Node1038&#45;&gt;Node1041</title>
<path fill="none" stroke="#191970" d="M362.7793,-162C377.8283,-162 395.1883,-162 409.536,-162"/>
<polygon fill="#191970" stroke="#191970" points="409.8325,-165.5001 419.8325,-162 409.8324,-158.5001 409.8325,-165.5001"/>
</g>
<!-- Node1042 -->
<g id="node7" class="node">
<title>Node1042</title>
<g id="a_node7"><a xlink:href="cl_8c.html#af5a666538852ce0406d5d8ad933f92f7" target="_top" xlink:title="Calculates whether the classifier matches the input. ">
<polygon fill="none" stroke="#000000" points="411,-76.5 411,-95.5 467,-95.5 467,-76.5 411,-76.5"/>
<text text-anchor="middle" x="439" y="-83.5" font-family="Helvetica,sans-Serif" font-size="10.00" fill="#000000">cl_match</text>
</a>
</g>
</g>
<!-- Node1038&#45;&gt;Node1042 -->
<g id="edge6" class="edge">
<title>Node1038&#45;&gt;Node1042</title>
<path fill="none" stroke="#191970" d="M342.3061,-152.4487C350.3211,-147.1694 360.3288,-140.4001 369,-134 385.5306,-121.799 387.972,-116.4965 405,-105 407.1576,-103.5433 409.4353,-102.095 411.748,-100.6855"/>
<polygon fill="#191970" stroke="#191970" points="413.7741,-103.5563 420.6624,-95.5063 410.2575,-97.5037 413.7741,-103.5563"/>
</g>
<!-- Node1044 -->
<g id="node9" class="node">
<title>Node1044</title>
<g id="a_node9"><a xlink:href="clset_8c.html#ae702f77855a5f1c42a8177f197706aee" target="_top" xlink:title="Adds a classifier to the set. ">
<polygon fill="none" stroke="#000000" points="807.5,-418.5 807.5,-437.5 866.5,-437.5 866.5,-418.5 807.5,-418.5"/>
<text text-anchor="middle" x="837" y="-425.5" font-family="Helvetica,sans-Serif" font-size="10.00" fill="#000000">clset_add</text>
</a>
</g>
</g>
<!-- Node1038&#45;&gt;Node1044 -->
<g id="edge8" class="edge">
<title>Node1038&#45;&gt;Node1044</title>
<path fill="none" stroke="#191970" d="M331.1962,-171.7033C346.2192,-209.5435 406.8189,-347.4966 509,-396 604.475,-441.3202 732.9381,-437.8991 797.0766,-432.48"/>
<polygon fill="#191970" stroke="#191970" points="797.5305,-435.9533 807.1736,-431.5645 796.8983,-428.9819 797.5305,-435.9533"/>
</g>
<!-- Node1045 -->
<g id="node10" class="node">
<title>Node1045</title>
<g id="a_node10"><a xlink:href="clset_8c.html#a60fd3363a0a370e8b5a18671861be461" target="_top" xlink:title="Ensures all possible actions are covered by the match set. ">
<polygon fill="none" stroke="#000000" points="405.5,-266.5 405.5,-285.5 472.5,-285.5 472.5,-266.5 405.5,-266.5"/>
<text text-anchor="middle" x="439" y="-273.5" font-family="Helvetica,sans-Serif" font-size="10.00" fill="#000000">clset_cover</text>
</a>
</g>
</g>
<!-- Node1038&#45;&gt;Node1045 -->
<g id="edge9" class="edge">
<title>Node1038&#45;&gt;Node1045</title>
<path fill="none" stroke="#191970" d="M337.0064,-171.7196C355.9324,-191.0699 398.5391,-234.6319 422.259,-258.8837"/>
<polygon fill="#191970" stroke="#191970" points="420.0232,-261.6033 429.5176,-266.305 425.0275,-256.7087 420.0232,-261.6033"/>
</g>
<!-- Node1079 -->
<g id="node44" class="node">
<title>Node1079</title>
<g id="a_node44"><a xlink:href="clset_8c.html#ab6ceafb49b749c1e063e83b31945bceb" target="_top" xlink:title="Returns the fraction of inputs matched by the most general rule with error below EPS_0. If no rules below EPS_0, the lowest error rule is used. ">
<polygon fill="none" stroke="#000000" points="405,-190.5 405,-209.5 473,-209.5 473,-190.5 405,-190.5"/>
<text text-anchor="middle" x="439" y="-197.5" font-family="Helvetica,sans-Serif" font-size="10.00" fill="#000000">clset_mfrac</text>
</a>
</g>
</g>
<!-- Node1038&#45;&gt;Node1079 -->
<g id="edge47" class="edge">
<title>Node1038&#45;&gt;Node1079</title>
<path fill="none" stroke="#191970" d="M355.6362,-171.589C369.5015,-176.3144 386.4156,-182.0789 401.3758,-187.1774"/>
<polygon fill="#191970" stroke="#191970" points="400.2784,-190.501 410.8728,-190.4141 402.5365,-183.8752 400.2784,-190.501"/>
</g>
<!-- Node1040 -->
<g id="node5" class="node">
<title>Node1040</title>
<g id="a_node5"><a xlink:href="action_8h.html#aab6ebb454826f8e9425efc0ed2917023" target="_top" xlink:title="act_compute">
<polygon fill="none" stroke="#000000" points="532,-114.5 532,-133.5 605,-133.5 605,-114.5 532,-114.5"/>
<text text-anchor="middle" x="568.5" y="-121.5" font-family="Helvetica,sans-Serif" font-size="10.00" fill="#000000">act_compute</text>
</a>
</g>
</g>
<!-- Node1039&#45;&gt;Node1040 -->
<g id="edge4" class="edge">
<title>Node1039&#45;&gt;Node1040</title>
<path fill="none" stroke="#191970" d="M467.0996,-124C482.9682,-124 503.2158,-124 521.439,-124"/>
<polygon fill="#191970" stroke="#191970" points="521.599,-127.5001 531.599,-124 521.5989,-120.5001 521.599,-127.5001"/>
</g>
<!-- Node1043 -->
<g id="node8" class="node">
<title>Node1043</title>
<g id="a_node8"><a xlink:href="condition_8h.html#a921ad37edd9a0af1c245bd9a490e3527" target="_top" xlink:title="cond_match">
<polygon fill="none" stroke="#000000" points="533.5,-76.5 533.5,-95.5 603.5,-95.5 603.5,-76.5 533.5,-76.5"/>
<text text-anchor="middle" x="568.5" y="-83.5" font-family="Helvetica,sans-Serif" font-size="10.00" fill="#000000">cond_match</text>
</a>
</g>
</g>
<!-- Node1042&#45;&gt;Node1043 -->
<g id="edge7" class="edge">
<title>Node1042&#45;&gt;Node1043</title>
<path fill="none" stroke="#191970" d="M467.0996,-86C483.4186,-86 504.3688,-86 522.9856,-86"/>
<polygon fill="#191970" stroke="#191970" points="523.044,-89.5001 533.044,-86 523.044,-82.5001 523.044,-89.5001"/>
</g>
<!-- Node1045&#45;&gt;Node1044 -->
<g id="edge33" class="edge">
<title>Node1045&#45;&gt;Node1044</title>
<path fill="none" stroke="#191970" d="M443.1055,-285.7285C451.9595,-305.4118 474.85,-349.878 509,-371 521.2245,-378.5609 712.5509,-408.7962 797.2157,-421.8962"/>
<polygon fill="#191970" stroke="#191970" points="796.8152,-425.3757 807.2322,-423.4431 797.8836,-418.4578 796.8152,-425.3757"/>
</g>
<!-- Node1046 -->
<g id="node11" class="node">
<title>Node1046</title>
<g id="a_node11"><a xlink:href="cl_8c.html#a502630fa339b234b42b9b859a8c70986" target="_top" xlink:title="Covers the condition and action for a classifier. ">
<polygon fill="none" stroke="#000000" points="542,-266.5 542,-285.5 595,-285.5 595,-266.5 542,-266.5"/>
<text text-anchor="middle" x="568.5" y="-273.5" font-family="Helvetica,sans-Serif" font-size="10.00" fill="#000000">cl_cover</text>
</a>
</g>
</g>
<!-- Node1045&#45;&gt;Node1046 -->
<g id="edge10" class="edge">
<title>Node1045&#45;&gt;Node1046</title>
<path fill="none" stroke="#191970" d="M472.6865,-276C490.8131,-276 513.1963,-276 531.7689,-276"/>
<polygon fill="#191970" stroke="#191970" points="531.9226,-279.5001 541.9225,-276 531.9225,-272.5001 531.9226,-279.5001"/>
</g>
<!-- Node1056 -->
<g id="node21" class="node">
<title>Node1056</title>
<g id="a_node21"><a xlink:href="cl_8c.html#ab45c6f772a335d0a4fdb753a61958744" target="_top" xlink:title="Initialises a new classifier. ">
<polygon fill="none" stroke="#000000" points="547.5,-190.5 547.5,-209.5 589.5,-209.5 589.5,-190.5 547.5,-190.5"/>
<text text-anchor="middle" x="568.5" y="-197.5" font-family="Helvetica,sans-Serif" font-size="10.00" fill="#000000">cl_init</text>
</a>
</g>
</g>
<!-- Node1045&#45;&gt;Node1056 -->
<g id="edge20" class="edge">
<title>Node1045&#45;&gt;Node1056</title>
<path fill="none" stroke="#191970" d="M448.5639,-266.1983C461.2994,-253.6503 485.0197,-231.9837 509,-219 517.8236,-214.2226 528.042,-210.4166 537.4942,-207.5038"/>
<polygon fill="#191970" stroke="#191970" points="538.6933,-210.8013 547.3479,-204.69 536.7712,-204.0704 538.6933,-210.8013"/>
</g>
<!-- Node1067 -->
<g id="node32" class="node">
<title>Node1067</title>
<g id="a_node32"><a xlink:href="clset_8c.html#add73fc8e93b326673bec83ae4b93fae7" target="_top" xlink:title="Returns whether an action is covered by the match set. ">
<polygon fill="none" stroke="#000000" points="514,-228.5 514,-247.5 623,-247.5 623,-228.5 514,-228.5"/>
<text text-anchor="middle" x="568.5" y="-235.5" font-family="Helvetica,sans-Serif" font-size="10.00" fill="#000000">clset_action_covered</text>
</a>
</g>
</g>
<!-- Node1045&#45;&gt;Node1067 -->
<g id="edge32" class="edge">
<title>Node1045&#45;&gt;Node1067</title>
<path fill="none" stroke="#191970" d="M471.6783,-266.411C488.0888,-261.5956 508.1763,-255.7012 525.7922,-250.532"/>
<polygon fill="#191970" stroke="#191970" points="527.2222,-253.7601 535.8321,-247.5859 525.2512,-247.0433 527.2222,-253.7601"/>
</g>
<!-- Node1068 -->
<g id="node33" class="node">
<title>Node1068</title>
<g id="a_node33"><a xlink:href="clset_8c.html#aa9a3c8630ce227b87a65c6e624430c99" target="_top" xlink:title="Enforces the maximum population size limit. ">
<polygon fill="none" stroke="#000000" points="509,-304.5 509,-323.5 628,-323.5 628,-304.5 509,-304.5"/>
<text text-anchor="middle" x="568.5" y="-311.5" font-family="Helvetica,sans-Serif" font-size="10.00" fill="#000000">clset_pop_enforce_limit</text>
</a>
</g>
</g>
<!-- Node1045&#45;&gt;Node1068 -->
<g id="edge34" class="edge">
<title>Node1045&#45;&gt;Node1068</title>
<path fill="none" stroke="#191970" d="M471.6783,-285.589C488.0888,-290.4044 508.1763,-296.2988 525.7922,-301.468"/>
<polygon fill="#191970" stroke="#191970" points="525.2512,-304.9567 535.8321,-304.4141 527.2222,-298.2399 525.2512,-304.9567"/>
</g>
<!-- Node1078 -->
<g id="node43" class="node">
<title>Node1078</title>
<g id="a_node43"><a xlink:href="clset_8c.html#a1ae9e544f97c9141ff4e6ed14420711f" target="_top" xlink:title="Removes classifiers with 0 numerosity from the set. ">
<polygon fill="none" stroke="#000000" points="530,-342.5 530,-361.5 607,-361.5 607,-342.5 530,-342.5"/>
<text text-anchor="middle" x="568.5" y="-349.5" font-family="Helvetica,sans-Serif" font-size="10.00" fill="#000000">clset_validate</text>
</a>
</g>
</g>
<!-- Node1045&#45;&gt;Node1078 -->
<g id="edge46" class="edge">
<title>Node1045&#45;&gt;Node1078</title>
<path fill="none" stroke="#191970" d="M448.5639,-285.8017C461.2994,-298.3497 485.0197,-320.0163 509,-333 512.9693,-335.1491 517.2208,-337.1016 521.5579,-338.8647"/>
<polygon fill="#191970" stroke="#191970" points="520.52,-342.213 531.1128,-342.4245 522.9639,-335.6535 520.52,-342.213"/>
</g>
<!-- Node1047 -->
<g id="node12" class="node">
<title>Node1047</title>
<g id="a_node12"><a xlink:href="action_8h.html#ac250a5534d7c5fb268e0ccdb479d6e20" target="_top" xlink:title="act_cover">
<polygon fill="none" stroke="#000000" points="673,-266.5 673,-285.5 732,-285.5 732,-266.5 673,-266.5"/>
<text text-anchor="middle" x="702.5" y="-273.5" font-family="Helvetica,sans-Serif" font-size="10.00" fill="#000000">act_cover</text>
</a>
</g>
</g>
<!-- Node1046&#45;&gt;Node1047 -->
<g id="edge11" class="edge">
<title>Node1046&#45;&gt;Node1047</title>
<path fill="none" stroke="#191970" d="M595.2948,-276C614.5918,-276 640.9495,-276 662.7005,-276"/>
<polygon fill="#191970" stroke="#191970" points="662.9571,-279.5001 672.9571,-276 662.957,-272.5001 662.9571,-279.5001"/>
</g>
<!-- Node1048 -->
<g id="node13" class="node">
<title>Node1048</title>
<g id="a_node13"><a xlink:href="cl_8c.html#a7b56e6acc90b92c0692466ae2b7d2a24" target="_top" xlink:title="Initialises random actions, conditions and predictions. ">
<polygon fill="none" stroke="#000000" points="678.5,-228.5 678.5,-247.5 726.5,-247.5 726.5,-228.5 678.5,-228.5"/>
<text text-anchor="middle" x="702.5" y="-235.5" font-family="Helvetica,sans-Serif" font-size="10.00" fill="#000000">cl_rand</text>
</a>
</g>
</g>
<!-- Node1046&#45;&gt;Node1048 -->
<g id="edge12" class="edge">
<title>Node1046&#45;&gt;Node1048</title>
<path fill="none" stroke="#191970" d="M595.2948,-268.4015C616.3568,-262.4287 645.8303,-254.0705 668.5444,-247.6292"/>
<polygon fill="#191970" stroke="#191970" points="669.7847,-250.9156 678.4504,-244.82 667.8749,-244.1811 669.7847,-250.9156"/>
</g>
<!-- Node1055 -->
<g id="node20" class="node">
<title>Node1055</title>
<g id="a_node20"><a xlink:href="condition_8h.html#af6a4967f684827b76d279cc04420ab6d" target="_top" xlink:title="cond_cover">
<polygon fill="none" stroke="#000000" points="669,-190.5 669,-209.5 736,-209.5 736,-190.5 669,-190.5"/>
<text text-anchor="middle" x="702.5" y="-197.5" font-family="Helvetica,sans-Serif" font-size="10.00" fill="#000000">cond_cover</text>
</a>
</g>
</g>
<!-- Node1046&#45;&gt;Node1055 -->
<g id="edge19" class="edge">
<title>Node1046&#45;&gt;Node1055</title>
<path fill="none" stroke="#191970" d="M595.2216,-270.5366C605.9429,-267.5831 618.0823,-263.2284 628,-257 647.7016,-244.6274 645.2764,-232.808 664,-219 666.0996,-217.4516 668.3447,-215.9715 670.6563,-214.5699"/>
<polygon fill="#191970" stroke="#191970" points="672.6603,-217.4621 679.7344,-209.5749 669.2858,-211.3292 672.6603,-217.4621"/>
</g>
<!-- Node1049 -->
<g id="node14" class="node">
<title>Node1049</title>
<g id="a_node14"><a xlink:href="action_8h.html#a7561ff50b261f644feae225259c8b8f6" target="_top" xlink:title="act_init">
<polygon fill="none" stroke="#000000" points="813,-152.5 813,-171.5 861,-171.5 861,-152.5 813,-152.5"/>
<text text-anchor="middle" x="837" y="-159.5" font-family="Helvetica,sans-Serif" font-size="10.00" fill="#000000">act_init</text>
</a>
</g>
</g>
<!-- Node1048&#45;&gt;Node1049 -->
<g id="edge13" class="edge">
<title>Node1048&#45;&gt;Node1049</title>
<path fill="none" stroke="#191970" d="M725.2656,-228.4251C730.6415,-225.7218 736.2009,-222.5391 741,-219 759.7236,-205.192 757.2835,-193.3488 777,-181 784.8718,-176.0697 794.1317,-172.3187 802.9898,-169.5074"/>
<polygon fill="#191970" stroke="#191970" points="804.0746,-172.8376 812.7247,-166.72 802.1476,-166.108 804.0746,-172.8376"/>
</g>
<!-- Node1050 -->
<g id="node15" class="node">
<title>Node1050</title>
<g id="a_node15"><a xlink:href="action_8c.html#ac235375c6dc54d6abca5efb0f50b1400" target="_top" xlink:title="Sets a classifier&#39;s action functions to the implementations. ">
<polygon fill="none" stroke="#000000" points="806,-114.5 806,-133.5 868,-133.5 868,-114.5 806,-114.5"/>
<text text-anchor="middle" x="837" y="-121.5" font-family="Helvetica,sans-Serif" font-size="10.00" fill="#000000">action_set</text>
</a>
</g>
</g>
<!-- Node1048&#45;&gt;Node1050 -->
<g id="edge14" class="edge">
<title>Node1048&#45;&gt;Node1050</title>
<path fill="none" stroke="#191970" d="M726.5412,-229.2269C731.7551,-226.5265 736.9221,-223.1439 741,-219 767.2154,-192.36 748.8405,-167.576 777,-143 782.5465,-138.1594 789.3294,-134.5507 796.3137,-131.8607"/>
<polygon fill="#191970" stroke="#191970" points="797.4515,-135.1711 805.8656,-128.7326 795.2729,-128.5187 797.4515,-135.1711"/>
</g>
<!-- Node1051 -->
<g id="node16" class="node">
<title>Node1051</title>
<g id="a_node16"><a xlink:href="condition_8h.html#ac4e250ced4f7408df04ba9ac9f302c6e" target="_top" xlink:title="cond_init">
<polygon fill="none" stroke="#000000" points="809,-304.5 809,-323.5 865,-323.5 865,-304.5 809,-304.5"/>
<text text-anchor="middle" x="837" y="-311.5" font-family="Helvetica,sans-Serif" font-size="10.00" fill="#000000">cond_init</text>
</a>
</g>
</g>
<!-- Node1048&#45;&gt;Node1051 -->
<g id="edge15" class="edge">
<title>Node1048&#45;&gt;Node1051</title>
<path fill="none" stroke="#191970" d="M725.2656,-247.5749C730.6415,-250.2782 736.2009,-253.4609 741,-257 759.7236,-270.808 757.2835,-282.6512 777,-295 783.7715,-299.2411 791.57,-302.6096 799.2564,-305.2579"/>
<polygon fill="#191970" stroke="#191970" points="798.2586,-308.6128 808.8468,-308.2388 800.3363,-301.9283 798.2586,-308.6128"/>
</g>
<!-- Node1052 -->
<g id="node17" class="node">
<title>Node1052</title>
<g id="a_node17"><a xlink:href="condition_8c.html#aa485cf16f149e89aae83972b83b70596" target="_top" xlink:title="Sets a classifier&#39;s condition functions to the implementations. ">
<polygon fill="none" stroke="#000000" points="800,-266.5 800,-285.5 874,-285.5 874,-266.5 800,-266.5"/>
<text text-anchor="middle" x="837" y="-273.5" font-family="Helvetica,sans-Serif" font-size="10.00" fill="#000000">condition_set</text>
</a>
</g>
</g>
<!-- Node1048&#45;&gt;Node1052 -->
<g id="edge16" class="edge">
<title>Node1048&#45;&gt;Node1052</title>
<path fill="none" stroke="#191970" d="M726.5459,-244.7936C745.0895,-250.0327 771.2333,-257.4191 793.431,-263.6906"/>
<polygon fill="#191970" stroke="#191970" points="792.7359,-267.1311 803.3108,-266.4819 794.6391,-260.3948 792.7359,-267.1311"/>
</g>
<!-- Node1053 -->
<g id="node18" class="node">
<title>Node1053</title>
<g id="a_node18"><a xlink:href="prediction_8h.html#a32efd0b8ad0f4cbc72683c35c5e49afd" target="_top" xlink:title="pred_init">
<polygon fill="none" stroke="#000000" points="810.5,-228.5 810.5,-247.5 863.5,-247.5 863.5,-228.5 810.5,-228.5"/>
<text text-anchor="middle" x="837" y="-235.5" font-family="Helvetica,sans-Serif" font-size="10.00" fill="#000000">pred_init</text>
</a>
</g>
</g>
<!-- Node1048&#45;&gt;Node1053 -->
<g id="edge17" class="edge">
<title>Node1048&#45;&gt;Node1053</title>
<path fill="none" stroke="#191970" d="M726.5459,-238C746.9897,-238 776.6713,-238 800.1183,-238"/>
<polygon fill="#191970" stroke="#191970" points="800.397,-241.5001 810.397,-238 800.397,-234.5001 800.397,-241.5001"/>
</g>
<!-- Node1054 -->
<g id="node19" class="node">
<title>Node1054</title>
<g id="a_node19"><a xlink:href="prediction_8c.html#acc3389ac08ab3b032ab1223e3339be12" target="_top" xlink:title="Sets a classifier&#39;s prediction functions to the implementations. ">
<polygon fill="none" stroke="#000000" points="798.5,-190.5 798.5,-209.5 875.5,-209.5 875.5,-190.5 798.5,-190.5"/>
<text text-anchor="middle" x="837" y="-197.5" font-family="Helvetica,sans-Serif" font-size="10.00" fill="#000000">prediction_set</text>
</a>
</g>
</g>
<!-- Node1048&#45;&gt;Node1054 -->
<g id="edge18" class="edge">
<title>Node1048&#45;&gt;Node1054</title>
<path fill="none" stroke="#191970" d="M726.5459,-231.2064C745.0895,-225.9673 771.2333,-218.5809 793.431,-212.3094"/>
<polygon fill="#191970" stroke="#191970" points="794.6391,-215.6052 803.3108,-209.5181 792.7359,-208.8689 794.6391,-215.6052"/>
</g>
<!-- Node1057 -->
<g id="node22" class="node">
<title>Node1057</title>
<g id="a_node22"><a xlink:href="sam_8c.html#ac19f397e3c1bd2a2a4f4a1174509ac67" target="_top" xlink:title="Initialises a classifier&#39;s self&#45;adaptive mutation rates. ">
<polygon fill="none" stroke="#000000" points="676,-114.5 676,-133.5 729,-133.5 729,-114.5 676,-114.5"/>
<text text-anchor="middle" x="702.5" y="-121.5" font-family="Helvetica,sans-Serif" font-size="10.00" fill="#000000">sam_init</text>
</a>
</g>
</g>
<!-- Node1056&#45;&gt;Node1057 -->
<g id="edge21" class="edge">
<title>Node1056&#45;&gt;Node1057</title>
<path fill="none" stroke="#191970" d="M589.577,-195.1687C601.2848,-192.0241 615.8878,-187.3226 628,-181 648.9989,-170.0385 670.1861,-153.1322 684.5686,-140.575"/>
<polygon fill="#191970" stroke="#191970" points="687.0702,-143.0335 692.1976,-133.762 682.4076,-137.8124 687.0702,-143.0335"/>
</g>
<!-- Node1058 -->
<g id="node23" class="node">
<title>Node1058</title>
<g id="a_node23"><a xlink:href="sam_8c.html#a934d788eb57734b6118fff7385733803" target="_top" xlink:title="Resets a classifier&#39;s self&#45;adaptive mutation rates. ">
<polygon fill="none" stroke="#000000" points="806,-76.5 806,-95.5 868,-95.5 868,-76.5 806,-76.5"/>
<text text-anchor="middle" x="837" y="-83.5" font-family="Helvetica,sans-Serif" font-size="10.00" fill="#000000">sam_reset</text>
</a>
</g>
</g>
<!-- Node1057&#45;&gt;Node1058 -->
<g id="edge22" class="edge">
<title>Node1057&#45;&gt;Node1058</title>
<path fill="none" stroke="#191970" d="M729.0729,-116.4924C748.1931,-111.0904 774.3403,-103.7031 796.1095,-97.5527"/>
<polygon fill="#191970" stroke="#191970" points="797.0909,-100.9125 805.7626,-94.8254 795.1877,-94.1762 797.0909,-100.9125"/>
</g>
<!-- Node1059 -->
<g id="node24" class="node">
<title>Node1059</title>
<g id="a_node24"><a xlink:href="sam_8c.html#a9b54bfbcf790a621afa925081a66941e" target="_top" xlink:title="Initialises log normal self&#45;adaptive mutation rates. ">
<polygon fill="none" stroke="#000000" points="1088,-171.5 1088,-190.5 1194,-190.5 1194,-171.5 1088,-171.5"/>
<text text-anchor="middle" x="1141" y="-178.5" font-family="Helvetica,sans-Serif" font-size="10.00" fill="#000000">sam_log_normal_init</text>
</a>
</g>
</g>
<!-- Node1058&#45;&gt;Node1059 -->
<g id="edge23" class="edge">
<title>Node1058&#45;&gt;Node1059</title>
<path fill="none" stroke="#191970" d="M867.5406,-95.5439C922.7372,-112.7929 1039.0827,-149.1509 1100.7152,-168.411"/>
<polygon fill="#191970" stroke="#191970" points="1099.8909,-171.8203 1110.4797,-171.4624 1101.9789,-165.1389 1099.8909,-171.8203"/>
</g>
<!-- Node1065 -->
<g id="node30" class="node">
<title>Node1065</title>
<g id="a_node30"><a xlink:href="sam_8c.html#afa2d48bd3ec297da02c66bdbb554280b" target="_top" xlink:title="Initialises rate selection self&#45;adaptive mutation. ">
<polygon fill="none" stroke="#000000" points="933,-76.5 933,-95.5 1052,-95.5 1052,-76.5 933,-76.5"/>
<text text-anchor="middle" x="992.5" y="-83.5" font-family="Helvetica,sans-Serif" font-size="10.00" fill="#000000">sam_rate_selection_init</text>
</a>
</g>
</g>
<!-- Node1058&#45;&gt;Node1065 -->
<g id="edge29" class="edge">
<title>Node1058&#45;&gt;Node1065</title>
<path fill="none" stroke="#191970" d="M868.094,-86C883.7958,-86 903.5262,-86 922.6174,-86"/>
<polygon fill="#191970" stroke="#191970" points="922.8218,-89.5001 932.8218,-86 922.8217,-82.5001 922.8218,-89.5001"/>
</g>
<!-- Node1059&#45;&gt;Node1060 -->
<g id="edge24" class="edge">
<title>Node1059&#45;&gt;Node1060</title>
<path fill="none" stroke="#191970" d="M1156.8947,-190.6255C1178.3948,-203.6454 1216.9451,-226.9907 1242.1207,-242.2364"/>
<polygon fill="#191970" stroke="#191970" points="1240.3676,-245.2665 1250.7344,-247.4527 1243.9936,-239.2788 1240.3676,-245.2665"/>
</g>
<!-- Node1061 -->
<g id="node26" class="node">
<title>Node1061</title>
<g id="a_node26"><a xlink:href="utils_8c.html#a101d27cdda714b7f17a06224c65cac56" target="_top" xlink:title="Returns a uniform random float [0,1]. ">
<polygon fill="none" stroke="#000000" points="1339,-247.5 1339,-266.5 1380,-266.5 1380,-247.5 1339,-247.5"/>
<text text-anchor="middle" x="1359.5" y="-254.5" font-family="Helvetica,sans-Serif" font-size="10.00" fill="#000000">drand</text>
</a>
</g>
</g>
<!-- Node1060&#45;&gt;Node1061 -->
<g id="edge25" class="edge">
<title>Node1060&#45;&gt;Node1061</title>
<path fill="none" stroke="#191970" d="M1303.2561,-257C1311.658,-257 1320.5043,-257 1328.63,-257"/>
<polygon fill="#191970" stroke="#191970" points="1328.799,-260.5001 1338.7989,-257 1328.7989,-253.5001 1328.799,-260.5001"/>
</g>
<!-- Node1062 -->
<g id="node27" class="node">
<title>Node1062</title>
<g id="a_node27"><a xlink:href="mt19937-64_8c.html#aa0b74daf51eca91df224d00f1730084a" target="_top" xlink:title="genrand64_real1">
<polygon fill="none" stroke="#000000" points="1416,-247.5 1416,-266.5 1504,-266.5 1504,-247.5 1416,-247.5"/>
<text text-anchor="middle" x="1460" y="-254.5" font-family="Helvetica,sans-Serif" font-size="10.00" fill="#000000">genrand64_real1</text>
</a>
</g>
</g>
<!-- Node1061&#45;&gt;Node1062 -->
<g id="edge26" class="edge">
<title>Node1061&#45;&gt;Node1062</title>
<path fill="none" stroke="#191970" d="M1380.3237,-257C1387.8428,-257 1396.7193,-257 1405.769,-257"/>
<polygon fill="#191970" stroke="#191970" points="1405.9969,-260.5001 1415.9969,-257 1405.9969,-253.5001 1405.9969,-260.5001"/>
</g>
<!-- Node1063 -->
<g id="node28" class="node">
<title>Node1063</title>
<g id="a_node28"><a xlink:href="mt19937-64_8c.html#a265bf48d20d6e0347371fcf4fe340e6d" target="_top" xlink:title="genrand64_int64">
<polygon fill="none" stroke="#000000" points="1540,-247.5 1540,-266.5 1628,-266.5 1628,-247.5 1540,-247.5"/>
<text text-anchor="middle" x="1584" y="-254.5" font-family="Helvetica,sans-Serif" font-size="10.00" fill="#000000">genrand64_int64</text>
</a>
</g>
</g>
<!-- Node1062&#45;&gt;Node1063 -->
<g id="edge27" class="edge">
<title>Node1062&#45;&gt;Node1063</title>
<path fill="none" stroke="#191970" d="M1504.0669,-257C1512.2822,-257 1520.957,-257 1529.4432,-257"/>
<polygon fill="#191970" stroke="#191970" points="1529.6572,-260.5001 1539.6572,-257 1529.6572,-253.5001 1529.6572,-260.5001"/>
</g>
<!-- Node1064 -->
<g id="node29" class="node">
<title>Node1064</title>
<g id="a_node29"><a xlink:href="mt19937-64_8c.html#adf4127d44c2dc34fcb318d406131ef7c" target="_top" xlink:title="init_genrand64">
<polygon fill="none" stroke="#000000" points="1664,-247.5 1664,-266.5 1744,-266.5 1744,-247.5 1664,-247.5"/>
<text text-anchor="middle" x="1704" y="-254.5" font-family="Helvetica,sans-Serif" font-size="10.00" fill="#000000">init_genrand64</text>
</a>
</g>
</g>
<!-- Node1063&#45;&gt;Node1064 -->
<g id="edge28" class="edge">
<title>Node1063&#45;&gt;Node1064</title>
<path fill="none" stroke="#191970" d="M1628.0022,-257C1636.3719,-257 1645.1896,-257 1653.7365,-257"/>
<polygon fill="#191970" stroke="#191970" points="1653.9792,-260.5001 1663.9792,-257 1653.9792,-253.5001 1653.9792,-260.5001"/>
</g>
<!-- Node1066 -->
<g id="node31" class="node">
<title>Node1066</title>
<g id="a_node31"><a xlink:href="utils_8c.html#a32648ab076544a9ac1c086d0f07b599f" target="_top" xlink:title="Returns a uniform random integer [min,max] not inclusive of max. ">
<polygon fill="none" stroke="#000000" points="1103.5,-76.5 1103.5,-95.5 1178.5,-95.5 1178.5,-76.5 1103.5,-76.5"/>
<text text-anchor="middle" x="1141" y="-83.5" font-family="Helvetica,sans-Serif" font-size="10.00" fill="#000000">irand_uniform</text>
</a>
</g>
</g>
<!-- Node1065&#45;&gt;Node1066 -->
<g id="edge30" class="edge">
<title>Node1065&#45;&gt;Node1066</title>
<path fill="none" stroke="#191970" d="M1052.045,-86C1065.6704,-86 1079.9841,-86 1093.05,-86"/>
<polygon fill="#191970" stroke="#191970" points="1093.2241,-89.5001 1103.2241,-86 1093.2241,-82.5001 1093.2241,-89.5001"/>
</g>
<!-- Node1066&#45;&gt;Node1060 -->
<g id="edge31" class="edge">
<title>Node1066&#45;&gt;Node1060</title>
<path fill="none" stroke="#191970" d="M1148.107,-95.6837C1168.4706,-123.4301 1227.2498,-203.5197 1253.5323,-239.3308"/>
<polygon fill="#191970" stroke="#191970" points="1250.7326,-241.4316 1259.4709,-247.4226 1256.3758,-237.2899 1250.7326,-241.4316"/>
</g>
<!-- Node1069 -->
<g id="node34" class="node">
<title>Node1069</title>
<g id="a_node34"><a xlink:href="clset_8c.html#ab1434372d7fab6e40f3c8d898d20e025" target="_top" xlink:title="Deletes a single classifier from the population set. ">
<polygon fill="none" stroke="#000000" points="664,-342.5 664,-361.5 741,-361.5 741,-342.5 664,-342.5"/>
<text text-anchor="middle" x="702.5" y="-349.5" font-family="Helvetica,sans-Serif" font-size="10.00" fill="#000000">clset_pop_del</text>
</a>
</g>
</g>
<!-- Node1068&#45;&gt;Node1069 -->
<g id="edge35" class="edge">
<title>Node1068&#45;&gt;Node1069</title>
<path fill="none" stroke="#191970" d="M602.3139,-323.589C619.5326,-328.4719 640.6637,-334.4643 659.0733,-339.685"/>
<polygon fill="#191970" stroke="#191970" points="658.1214,-343.053 668.697,-342.4141 660.0312,-336.3185 658.1214,-343.053"/>
</g>
<!-- Node1069&#45;&gt;Node1044 -->
<g id="edge36" class="edge">
<title>Node1069&#45;&gt;Node1044</title>
<path fill="none" stroke="#191970" d="M719.4333,-361.6299C726.316,-365.7786 734.2265,-370.8541 741,-376 758.2832,-389.1303 758.2106,-398.1341 777,-409 783.3728,-412.6854 790.5471,-415.747 797.6596,-418.2578"/>
<polygon fill="#191970" stroke="#191970" points="796.6475,-421.6089 807.2391,-421.3472 798.7961,-414.9467 796.6475,-421.6089"/>
</g>
<!-- Node1070 -->
<g id="node35" class="node">
<title>Node1070</title>
<g id="a_node35"><a xlink:href="clset_8c.html#af899fada328f41ed56991a51fe80db17" target="_top" xlink:title="Finds a rule in the population that never matches an input. ">
<polygon fill="none" stroke="#000000" points="777,-342.5 777,-361.5 897,-361.5 897,-342.5 777,-342.5"/>
<text text-anchor="middle" x="837" y="-349.5" font-family="Helvetica,sans-Serif" font-size="10.00" fill="#000000">clset_pop_never_match</text>
</a>
</g>
</g>
<!-- Node1069&#45;&gt;Node1070 -->
<g id="edge37" class="edge">
<title>Node1069&#45;&gt;Node1070</title>
<path fill="none" stroke="#191970" d="M741.0423,-352C749.1639,-352 757.9732,-352 766.85,-352"/>
<polygon fill="#191970" stroke="#191970" points="766.8679,-355.5001 776.8678,-352 766.8678,-348.5001 766.8679,-355.5001"/>
</g>
<!-- Node1071 -->
<g id="node36" class="node">
<title>Node1071</title>
<g id="a_node36"><a xlink:href="clset_8c.html#a008502b88c280aa55bb9a3645216209c" target="_top" xlink:title="clset_pop_roulette">
<polygon fill="none" stroke="#000000" points="789,-380.5 789,-399.5 885,-399.5 885,-380.5 789,-380.5"/>
<text text-anchor="middle" x="837" y="-387.5" font-family="Helvetica,sans-Serif" font-size="10.00" fill="#000000">clset_pop_roulette</text>
</a>
</g>
</g>
<!-- Node1069&#45;&gt;Node1071 -->
<g id="edge38" class="edge">
<title>Node1069&#45;&gt;Node1071</title>
<path fill="none" stroke="#191970" d="M736.44,-361.589C753.7231,-366.4719 774.9329,-372.4643 793.4112,-377.685"/>
<polygon fill="#191970" stroke="#191970" points="792.4959,-381.0633 803.0708,-380.4141 794.3992,-374.327 792.4959,-381.0633"/>
</g>
<!-- Node1071&#45;&gt;Node1060 -->
<g id="edge45" class="edge">
<title>Node1071&#45;&gt;Node1060</title>
<path fill="none" stroke="#191970" d="M881.8139,-380.4262C887.3149,-377.968 892.5546,-374.8797 897,-371 925.1595,-346.424 902.6012,-316.7451 933,-295 1018.881,-233.5671 1150.2676,-240.0617 1219.7162,-249.1021"/>
<polygon fill="#191970" stroke="#191970" points="1219.5233,-252.6085 1229.9074,-250.5057 1220.4784,-245.674 1219.5233,-252.6085"/>
</g>
<!-- Node1072 -->
<g id="node37" class="node">
<title>Node1072</title>
<g id="a_node37"><a xlink:href="cl_8c.html#a49f5a7f4f2f47ce1cf7f33b3769de7cc" target="_top" xlink:title="Returns the size of the classifier condition. ">
<polygon fill="none" stroke="#000000" points="955.5,-418.5 955.5,-437.5 1029.5,-437.5 1029.5,-418.5 955.5,-418.5"/>
<text text-anchor="middle" x="992.5" y="-425.5" font-family="Helvetica,sans-Serif" font-size="10.00" fill="#000000">cl_cond_size</text>
</a>
</g>
</g>
<!-- Node1071&#45;&gt;Node1072 -->
<g id="edge39" class="edge">
<title>Node1071&#45;&gt;Node1072</title>
<path fill="none" stroke="#191970" d="M876.2392,-399.589C897.3053,-404.737 923.4175,-411.1181 945.5552,-416.528"/>
<polygon fill="#191970" stroke="#191970" points="944.8694,-419.9633 955.4144,-418.9373 946.5311,-413.1634 944.8694,-419.9633"/>
</g>
<!-- Node1074 -->
<g id="node39" class="node">
<title>Node1074</title>
<g id="a_node39"><a xlink:href="cl_8c.html#aa0059f455cba46b3a1acb6b8a271b95f" target="_top" xlink:title="Returns the deletion vote of the classifier. ">
<polygon fill="none" stroke="#000000" points="959.5,-380.5 959.5,-399.5 1025.5,-399.5 1025.5,-380.5 959.5,-380.5"/>
<text text-anchor="middle" x="992.5" y="-387.5" font-family="Helvetica,sans-Serif" font-size="10.00" fill="#000000">cl_del_vote</text>
</a>
</g>
</g>
<!-- Node1071&#45;&gt;Node1074 -->
<g id="edge41" class="edge">
<title>Node1071&#45;&gt;Node1074</title>
<path fill="none" stroke="#191970" d="M885.3488,-390C905.8475,-390 929.5438,-390 949.4321,-390"/>
<polygon fill="#191970" stroke="#191970" points="949.4482,-393.5001 959.4481,-390 949.4481,-386.5001 949.4482,-393.5001"/>
</g>
<!-- Node1075 -->
<g id="node40" class="node">
<title>Node1075</title>
<g id="a_node40"><a xlink:href="cl_8c.html#a72d3cf213699a8d68d348ff75c2b2d49" target="_top" xlink:title="Returns the size of the classifier prediction. ">
<polygon fill="none" stroke="#000000" points="957,-342.5 957,-361.5 1028,-361.5 1028,-342.5 957,-342.5"/>
<text text-anchor="middle" x="992.5" y="-349.5" font-family="Helvetica,sans-Serif" font-size="10.00" fill="#000000">cl_pred_size</text>
</a>
</g>
</g>
<!-- Node1071&#45;&gt;Node1075 -->
<g id="edge42" class="edge">
<title>Node1071&#45;&gt;Node1075</title>
<path fill="none" stroke="#191970" d="M876.2392,-380.411C897.7734,-375.1486 924.5806,-368.5977 947.025,-363.1129"/>
<polygon fill="#191970" stroke="#191970" points="948.1125,-366.4502 956.9957,-360.6763 946.4507,-359.6503 948.1125,-366.4502"/>
</g>
<!-- Node1077 -->
<g id="node42" class="node">
<title>Node1077</title>
<g id="a_node42"><a xlink:href="clset_8c.html#aff1b530c481a2283ff4293449d1f8305" target="_top" xlink:title="Calculates the total fitness of classifiers in the set. ">
<polygon fill="none" stroke="#000000" points="955,-304.5 955,-323.5 1030,-323.5 1030,-304.5 955,-304.5"/>
<text text-anchor="middle" x="992.5" y="-311.5" font-family="Helvetica,sans-Serif" font-size="10.00" fill="#000000">clset_total_fit</text>
</a>
</g>
</g>
<!-- Node1071&#45;&gt;Node1077 -->
<g id="edge44" class="edge">
<title>Node1071&#45;&gt;Node1077</title>
<path fill="none" stroke="#191970" d="M876.9925,-380.4631C883.9399,-377.9449 890.8883,-374.8279 897,-371 916.7165,-358.6512 913.2984,-345.3726 933,-333 936.8225,-330.5995 940.9749,-328.4773 945.249,-326.6064"/>
<polygon fill="#191970" stroke="#191970" points="946.6817,-329.8043 954.7192,-322.9015 944.1313,-323.2854 946.6817,-329.8043"/>
</g>
<!-- Node1073 -->
<g id="node38" class="node">
<title>Node1073</title>
<g id="a_node38"><a xlink:href="condition_8h.html#afc882c8ebd96835127f8e611b815d447" target="_top" xlink:title="cond_size">
<polygon fill="none" stroke="#000000" points="1110.5,-418.5 1110.5,-437.5 1171.5,-437.5 1171.5,-418.5 1110.5,-418.5"/>
<text text-anchor="middle" x="1141" y="-425.5" font-family="Helvetica,sans-Serif" font-size="10.00" fill="#000000">cond_size</text>
</a>
</g>
</g>
<!-- Node1072&#45;&gt;Node1073 -->
<g id="edge40" class="edge">
<title>Node1072&#45;&gt;Node1073</title>
<path fill="none" stroke="#191970" d="M1029.5898,-428C1051.0968,-428 1078.2084,-428 1100.3015,-428"/>
<polygon fill="#191970" stroke="#191970" points="1100.3785,-431.5001 1110.3784,-428 1100.3784,-424.5001 1100.3785,-431.5001"/>
</g>
<!-- Node1076 -->
<g id="node41" class="node">
<title>Node1076</title>
<g id="a_node41"><a xlink:href="prediction_8h.html#a60ead673b526125328224ec152916290" target="_top" xlink:title="pred_size">
<polygon fill="none" stroke="#000000" points="1111.5,-342.5 1111.5,-361.5 1170.5,-361.5 1170.5,-342.5 1111.5,-342.5"/>
<text text-anchor="middle" x="1141" y="-349.5" font-family="Helvetica,sans-Serif" font-size="10.00" fill="#000000">pred_size</text>
</a>
</g>
</g>
<!-- Node1075&#45;&gt;Node1076 -->
<g id="edge43" class="edge">
<title>Node1075&#45;&gt;Node1076</title>
<path fill="none" stroke="#191970" d="M1028.0694,-352C1050.0946,-352 1078.42,-352 1101.1925,-352"/>
<polygon fill="#191970" stroke="#191970" points="1101.2222,-355.5001 1111.2222,-352 1101.2222,-348.5001 1101.2222,-355.5001"/>
</g>
<!-- Node1080 -->
<g id="node45" class="node">
<title>Node1080</title>
<g id="a_node45"><a xlink:href="cl_8c.html#a98982b34e8eebe2f85333397bdd24bd3" target="_top" xlink:title="Returns the fraction of observed inputs matched by the classifier. ">
<polygon fill="none" stroke="#000000" points="541.5,-152.5 541.5,-171.5 595.5,-171.5 595.5,-152.5 541.5,-152.5"/>
<text text-anchor="middle" x="568.5" y="-159.5" font-family="Helvetica,sans-Serif" font-size="10.00" fill="#000000">cl_mfrac</text>
</a>
</g>
</g>
<!-- Node1079&#45;&gt;Node1080 -->
<g id="edge48" class="edge">
<title>Node1079&#45;&gt;Node1080</title>
<path fill="none" stroke="#191970" d="M471.6783,-190.411C489.8432,-185.0808 512.5133,-178.4285 531.3497,-172.9012"/>
<polygon fill="#191970" stroke="#191970" points="532.4759,-176.2184 541.0859,-170.0443 530.5049,-169.5016 532.4759,-176.2184"/>
</g>
<!-- Node1083 -->
<g id="node48" class="node">
<title>Node1083</title>
<g id="a_node48"><a xlink:href="cl_8c.html#a2e37895c1cc585b83805af74061afa46" target="_top" xlink:title="Computes the current classifier payoff prediction using the input. ">
<polygon fill="none" stroke="#000000" points="409.5,-.5 409.5,-19.5 468.5,-19.5 468.5,-.5 409.5,-.5"/>
<text text-anchor="middle" x="439" y="-7.5" font-family="Helvetica,sans-Serif" font-size="10.00" fill="#000000">cl_predict</text>
</a>
</g>
</g>
<!-- Node1082&#45;&gt;Node1083 -->
<g id="edge51" class="edge">
<title>Node1082&#45;&gt;Node1083</title>
<path fill="none" stroke="#191970" d="M354.207,-17.6048C367.7124,-16.3935 384.3726,-14.8993 399.3404,-13.5569"/>
<polygon fill="#191970" stroke="#191970" points="399.7255,-17.0365 409.3728,-12.6571 399.1001,-10.0645 399.7255,-17.0365"/>
</g>
<!-- Node1084 -->
<g id="node49" class="node">
<title>Node1084</title>
<g id="a_node49"><a xlink:href="prediction_8h.html#a98a959a3e1a7e5e353c39a561efd666c" target="_top" xlink:title="pred_compute">
<polygon fill="none" stroke="#000000" points="529.5,-.5 529.5,-19.5 607.5,-19.5 607.5,-.5 529.5,-.5"/>
<text text-anchor="middle" x="568.5" y="-7.5" font-family="Helvetica,sans-Serif" font-size="10.00" fill="#000000">pred_compute</text>
</a>
</g>
</g>
<!-- Node1083&#45;&gt;Node1084 -->
<g id="edge52" class="edge">
<title>Node1083&#45;&gt;Node1084</title>
<path fill="none" stroke="#191970" d="M468.7099,-10C483.5513,-10 501.9073,-10 518.8129,-10"/>
<polygon fill="#191970" stroke="#191970" points="519.1073,-13.5001 529.1073,-10 519.1072,-6.5001 519.1073,-13.5001"/>
</g>
<!-- Node1085&#45;&gt;Node1066 -->
<g id="edge54" class="edge">
<title>Node1085&#45;&gt;Node1066</title>
<path fill="none" stroke="#191970" d="M351.2943,-105.335C357.2292,-102.5943 363.4732,-99.4169 369,-96 386.4755,-85.1957 386.0515,-74.9422 405,-67 472.4687,-38.7206 495.3443,-48 568.5,-48 568.5,-48 568.5,-48 837,-48 932.928,-48 957.1383,-52.7373 1052,-67 1065.4464,-69.0217 1079.9105,-71.8314 1093.1884,-74.6708"/>
<polygon fill="#191970" stroke="#191970" points="1092.5572,-78.1155 1103.0744,-76.8354 1094.0544,-71.2775 1092.5572,-78.1155"/>
</g>
</g>
</svg>
