<?xml version="1.0" encoding="UTF-8" standalone="no"?>
<!DOCTYPE svg PUBLIC "-//W3C//DTD SVG 1.1//EN"
 "http://www.w3.org/Graphics/SVG/1.1/DTD/svg11.dtd">
<!-- Generated by graphviz version 2.40.1 (20161225.0304)
 -->
<!-- Title: XCS::xcs_init Pages: 1 -->
<svg width="946pt" height="522pt"
 viewBox="0.00 0.00 946.00 522.00" xmlns="http://www.w3.org/2000/svg" xmlns:xlink="http://www.w3.org/1999/xlink">
<g id="graph0" class="graph" transform="scale(1 1) rotate(0) translate(4 518)">
<title>XCS::xcs_init</title>
<!-- Node1107 -->
<g id="node1" class="node">
<title>Node1107</title>
<polygon fill="#bfbfbf" stroke="#000000" points="0,-228.5 0,-247.5 77,-247.5 77,-228.5 0,-228.5"/>
<text text-anchor="middle" x="38.5" y="-235.5" font-family="Helvetica,sans-Serif" font-size="10.00" fill="#000000">XCS::xcs_init</text>
</g>
<!-- Node1108 -->
<g id="node2" class="node">
<title>Node1108</title>
<g id="a_node2"><a xlink:href="clset_8c.html#ad8801da838caede39ba706340e3c6f5c" target="_top" xlink:title="Initialises a new set. ">
<polygon fill="none" stroke="#000000" points="115.5,-247.5 115.5,-266.5 171.5,-266.5 171.5,-247.5 115.5,-247.5"/>
<text text-anchor="middle" x="143.5" y="-254.5" font-family="Helvetica,sans-Serif" font-size="10.00" fill="#000000">clset_init</text>
</a>
</g>
</g>
<!-- Node1107&#45;&gt;Node1108 -->
<g id="edge1" class="edge">
<title>Node1107&#45;&gt;Node1108</title>
<path fill="none" stroke="#191970" d="M77.0019,-244.967C86.1873,-246.6291 95.9895,-248.4029 105.1673,-250.0636"/>
<polygon fill="#191970" stroke="#191970" points="104.7344,-253.542 115.1979,-251.8787 105.9809,-246.6539 104.7344,-253.542"/>
</g>
<!-- Node1109 -->
<g id="node3" class="node">
<title>Node1109</title>
<g id="a_node3"><a xlink:href="config_8c.html#a37df9fe8af1e1583876040747eeee030" target="_top" xlink:title="Initialises global constants and reads the specified configuration file. ">
<polygon fill="none" stroke="#000000" points="113,-209.5 113,-228.5 174,-228.5 174,-209.5 113,-209.5"/>
<text text-anchor="middle" x="143.5" y="-216.5" font-family="Helvetica,sans-Serif" font-size="10.00" fill="#000000">config_init</text>
</a>
</g>
</g>
<!-- Node1107&#45;&gt;Node1109 -->
<g id="edge2" class="edge">
<title>Node1107&#45;&gt;Node1109</title>
<path fill="none" stroke="#191970" d="M77.0019,-231.033C85.4072,-229.512 94.329,-227.8976 102.8162,-226.3618"/>
<polygon fill="#191970" stroke="#191970" points="103.6724,-229.7638 112.8893,-224.5391 102.4259,-222.8757 103.6724,-229.7638"/>
</g>
<!-- Node1110 -->
<g id="node4" class="node">
<title>Node1110</title>
<g id="a_node4"><a xlink:href="config_8c.html#a9948d2908366d72fbb1c6feb609b3d4f" target="_top" xlink:title="Reads the specified configuration file. ">
<polygon fill="none" stroke="#000000" points="231.5,-456.5 231.5,-475.5 298.5,-475.5 298.5,-456.5 231.5,-456.5"/>
<text text-anchor="middle" x="265" y="-463.5" font-family="Helvetica,sans-Serif" font-size="10.00" fill="#000000">config_read</text>
</a>
</g>
</g>
<!-- Node1109&#45;&gt;Node1110 -->
<g id="edge3" class="edge">
<title>Node1109&#45;&gt;Node1110</title>
<path fill="none" stroke="#191970" d="M164.128,-228.6331C167.8854,-231.2069 171.4247,-234.3199 174,-238 218.5295,-301.6327 173.6185,-340.3823 210,-409 218.3742,-424.7942 232.4264,-439.2462 244.2304,-449.6463"/>
<polygon fill="#191970" stroke="#191970" points="242.0485,-452.3848 251.9458,-456.1657 246.5665,-447.038 242.0485,-452.3848"/>
</g>
<!-- Node1114 -->
<g id="node8" class="node">
<title>Node1114</title>
<g id="a_node8"><a xlink:href="config_8c.html#a4c74c2f130c3fda846bc707b3c1467c1" target="_top" xlink:title="Frees the config file parameter list. ">
<polygon fill="none" stroke="#000000" points="228,-380.5 228,-399.5 302,-399.5 302,-380.5 228,-380.5"/>
<text text-anchor="middle" x="265" y="-387.5" font-family="Helvetica,sans-Serif" font-size="10.00" fill="#000000">config_tidyup</text>
</a>
</g>
</g>
<!-- Node1109&#45;&gt;Node1114 -->
<g id="edge7" class="edge">
<title>Node1109&#45;&gt;Node1114</title>
<path fill="none" stroke="#191970" d="M163.6531,-228.5362C167.5367,-231.1435 171.2467,-234.2944 174,-238 210.5224,-287.1552 168.2012,-326.2453 210,-371 212.5642,-373.7456 215.5441,-376.0944 218.7647,-378.1039"/>
<polygon fill="#191970" stroke="#191970" points="217.2325,-381.2512 227.732,-382.6696 220.4086,-375.0133 217.2325,-381.2512"/>
</g>
<!-- Node1115 -->
<g id="node9" class="node">
<title>Node1115</title>
<g id="a_node9"><a xlink:href="loss_8c.html#a1accbbfc21d6eefe2d2cb676497953f6" target="_top" xlink:title="Sets the XCSF error function to the implemented function. ">
<polygon fill="none" stroke="#000000" points="226.5,-342.5 226.5,-361.5 303.5,-361.5 303.5,-342.5 226.5,-342.5"/>
<text text-anchor="middle" x="265" y="-349.5" font-family="Helvetica,sans-Serif" font-size="10.00" fill="#000000">loss_set_func</text>
</a>
</g>
</g>
<!-- Node1109&#45;&gt;Node1115 -->
<g id="edge8" class="edge">
<title>Node1109&#45;&gt;Node1115</title>
<path fill="none" stroke="#191970" d="M163.0667,-228.538C167.0784,-231.1745 170.9895,-234.3371 174,-238 202.6695,-272.8823 177.6035,-301.5487 210,-333 212.247,-335.1814 214.7563,-337.1132 217.4314,-338.8237"/>
<polygon fill="#191970" stroke="#191970" points="215.9445,-341.9964 226.422,-343.5686 219.2117,-335.8057 215.9445,-341.9964"/>
</g>
<!-- Node1122 -->
<g id="node16" class="node">
<title>Node1122</title>
<g id="a_node16"><a xlink:href="config_8c.html#a39ac19705915795f1f3daefebf96e37d" target="_top" xlink:title="Initialises classifier action parameters. ">
<polygon fill="none" stroke="#000000" points="218.5,-304.5 218.5,-323.5 311.5,-323.5 311.5,-304.5 218.5,-304.5"/>
<text text-anchor="middle" x="265" y="-311.5" font-family="Helvetica,sans-Serif" font-size="10.00" fill="#000000">params_cl_action</text>
</a>
</g>
</g>
<!-- Node1109&#45;&gt;Node1122 -->
<g id="edge16" class="edge">
<title>Node1109&#45;&gt;Node1122</title>
<path fill="none" stroke="#191970" d="M161.9065,-228.6047C166.154,-231.3071 170.46,-234.4819 174,-238 195.2525,-259.1213 186.5153,-276.3923 210,-295 212.2641,-296.7939 214.7086,-298.4241 217.2649,-299.9048"/>
<polygon fill="#191970" stroke="#191970" points="215.7742,-303.0723 226.2876,-304.3837 218.8867,-296.8023 215.7742,-303.0723"/>
</g>
<!-- Node1124 -->
<g id="node18" class="node">
<title>Node1124</title>
<g id="a_node18"><a xlink:href="config_8c.html#a165dae50e0b9f879753798bea405c7e0" target="_top" xlink:title="Initialises classifier condition parameters. ">
<polygon fill="none" stroke="#000000" points="212,-266.5 212,-285.5 318,-285.5 318,-266.5 212,-266.5"/>
<text text-anchor="middle" x="265" y="-273.5" font-family="Helvetica,sans-Serif" font-size="10.00" fill="#000000">params_cl_condition</text>
</a>
</g>
</g>
<!-- Node1109&#45;&gt;Node1124 -->
<g id="edge18" class="edge">
<title>Node1109&#45;&gt;Node1124</title>
<path fill="none" stroke="#191970" d="M158.3948,-228.5847C171.6011,-236.8192 191.5938,-248.6501 210,-257 214.6531,-259.1109 219.6145,-261.1293 224.5807,-263.0094"/>
<polygon fill="#191970" stroke="#191970" points="223.4628,-266.327 234.0571,-266.4425 225.8472,-259.7456 223.4628,-266.327"/>
</g>
<!-- Node1125 -->
<g id="node19" class="node">
<title>Node1125</title>
<g id="a_node19"><a xlink:href="config_8c.html#adc175ba379a3169ae3bc6df1a31b0d0f" target="_top" xlink:title="Initialises general classifier parameters. ">
<polygon fill="none" stroke="#000000" points="216,-228.5 216,-247.5 314,-247.5 314,-228.5 216,-228.5"/>
<text text-anchor="middle" x="265" y="-235.5" font-family="Helvetica,sans-Serif" font-size="10.00" fill="#000000">params_cl_general</text>
</a>
</g>
</g>
<!-- Node1109&#45;&gt;Node1125 -->
<g id="edge20" class="edge">
<title>Node1109&#45;&gt;Node1125</title>
<path fill="none" stroke="#191970" d="M174.1596,-223.7945C183.8477,-225.3095 194.9018,-227.0381 205.8847,-228.7556"/>
<polygon fill="#191970" stroke="#191970" points="205.4889,-232.2362 215.9096,-230.3233 206.5705,-225.3203 205.4889,-232.2362"/>
</g>
<!-- Node1126 -->
<g id="node20" class="node">
<title>Node1126</title>
<g id="a_node20"><a xlink:href="config_8c.html#a9e94168e46b659d4ae6962a05b8a34e7" target="_top" xlink:title="Initialises classifier prediction parameters. ">
<polygon fill="none" stroke="#000000" points="210.5,-190.5 210.5,-209.5 319.5,-209.5 319.5,-190.5 210.5,-190.5"/>
<text text-anchor="middle" x="265" y="-197.5" font-family="Helvetica,sans-Serif" font-size="10.00" fill="#000000">params_cl_prediction</text>
</a>
</g>
</g>
<!-- Node1109&#45;&gt;Node1126 -->
<g id="edge22" class="edge">
<title>Node1109&#45;&gt;Node1126</title>
<path fill="none" stroke="#191970" d="M174.1596,-214.2055C182.2133,-212.9461 191.2109,-211.539 200.3268,-210.1135"/>
<polygon fill="#191970" stroke="#191970" points="200.8868,-213.5686 210.2259,-208.5655 199.8052,-206.6526 200.8868,-213.5686"/>
</g>
<!-- Node1127 -->
<g id="node21" class="node">
<title>Node1127</title>
<g id="a_node21"><a xlink:href="config_8c.html#ae95254f43497b746fa5446cad160e21f" target="_top" xlink:title="Initialises evolutionary algorithm parameters. ">
<polygon fill="none" stroke="#000000" points="232.5,-152.5 232.5,-171.5 297.5,-171.5 297.5,-152.5 232.5,-152.5"/>
<text text-anchor="middle" x="265" y="-159.5" font-family="Helvetica,sans-Serif" font-size="10.00" fill="#000000">params_ea</text>
</a>
</g>
</g>
<!-- Node1109&#45;&gt;Node1127 -->
<g id="edge24" class="edge">
<title>Node1109&#45;&gt;Node1127</title>
<path fill="none" stroke="#191970" d="M158.3948,-209.4153C171.6011,-201.1808 191.5938,-189.3499 210,-181 214.6531,-178.8891 219.6145,-176.8707 224.5807,-174.9906"/>
<polygon fill="#191970" stroke="#191970" points="225.8472,-178.2544 234.0571,-171.5575 223.4628,-171.673 225.8472,-178.2544"/>
</g>
<!-- Node1128 -->
<g id="node22" class="node">
<title>Node1128</title>
<g id="a_node22"><a xlink:href="config_8c.html#a0d7a055b73c24de7dd348448b75ea626" target="_top" xlink:title="Initialises general system parameters. ">
<polygon fill="none" stroke="#000000" points="222,-114.5 222,-133.5 308,-133.5 308,-114.5 222,-114.5"/>
<text text-anchor="middle" x="265" y="-121.5" font-family="Helvetica,sans-Serif" font-size="10.00" fill="#000000">params_general</text>
</a>
</g>
</g>
<!-- Node1109&#45;&gt;Node1128 -->
<g id="edge26" class="edge">
<title>Node1109&#45;&gt;Node1128</title>
<path fill="none" stroke="#191970" d="M149.4607,-209.4017C159.8536,-193.4189 182.7991,-161.303 210,-143 212.8956,-141.0516 216.0112,-139.2831 219.2349,-137.6814"/>
<polygon fill="#191970" stroke="#191970" points="220.7697,-140.8299 228.5125,-133.5982 217.9498,-134.423 220.7697,-140.8299"/>
</g>
<!-- Node1129 -->
<g id="node23" class="node">
<title>Node1129</title>
<g id="a_node23"><a xlink:href="config_8c.html#aeedb9eacce33b5236623057f71df1ebb" target="_top" xlink:title="Initialises multi&#45;step parameters. ">
<polygon fill="none" stroke="#000000" points="218,-76.5 218,-95.5 312,-95.5 312,-76.5 218,-76.5"/>
<text text-anchor="middle" x="265" y="-83.5" font-family="Helvetica,sans-Serif" font-size="10.00" fill="#000000">params_multistep</text>
</a>
</g>
</g>
<!-- Node1109&#45;&gt;Node1129 -->
<g id="edge28" class="edge">
<title>Node1109&#45;&gt;Node1129</title>
<path fill="none" stroke="#191970" d="M146.5708,-209.197C153.9194,-187.3058 174.5892,-134.0874 210,-105 212.0492,-103.3168 214.2564,-101.7789 216.5677,-100.3744"/>
<polygon fill="#191970" stroke="#191970" points="218.586,-103.2726 225.8842,-95.5923 215.3894,-97.0451 218.586,-103.2726"/>
</g>
<!-- Node1130 -->
<g id="node24" class="node">
<title>Node1130</title>
<g id="a_node24"><a xlink:href="config_8c.html#abe7b908d3de0d9711545ecc150d91628" target="_top" xlink:title="Initialises subsumption parameters. ">
<polygon fill="none" stroke="#000000" points="210,-38.5 210,-57.5 320,-57.5 320,-38.5 210,-38.5"/>
<text text-anchor="middle" x="265" y="-45.5" font-family="Helvetica,sans-Serif" font-size="10.00" fill="#000000">params_subsumption</text>
</a>
</g>
</g>
<!-- Node1109&#45;&gt;Node1130 -->
<g id="edge30" class="edge">
<title>Node1109&#45;&gt;Node1130</title>
<path fill="none" stroke="#191970" d="M144.9942,-209.259C149.592,-182.5841 165.9798,-107.6408 210,-67 211.7188,-65.4131 213.5767,-63.9579 215.5344,-62.6235"/>
<polygon fill="#191970" stroke="#191970" points="217.63,-65.4608 224.6355,-57.5127 214.2025,-59.3573 217.63,-65.4608"/>
</g>
<!-- Node1131 -->
<g id="node25" class="node">
<title>Node1131</title>
<g id="a_node25"><a xlink:href="gp_8c.html#a262c601e1744b1d1c654f609a5138b94" target="_top" xlink:title="Initialises the constants shared among all GP trees. ">
<polygon fill="none" stroke="#000000" points="226.5,-.5 226.5,-19.5 303.5,-19.5 303.5,-.5 226.5,-.5"/>
<text text-anchor="middle" x="265" y="-7.5" font-family="Helvetica,sans-Serif" font-size="10.00" fill="#000000">tree_init_cons</text>
</a>
</g>
</g>
<!-- Node1109&#45;&gt;Node1131 -->
<g id="edge32" class="edge">
<title>Node1109&#45;&gt;Node1131</title>
<path fill="none" stroke="#191970" d="M144.0341,-209.1653C146.2452,-178.1792 157.2567,-81.5299 210,-29 212.2189,-26.79 214.707,-24.8367 217.3664,-23.1102"/>
<polygon fill="#191970" stroke="#191970" points="219.1483,-26.1266 226.3243,-18.332 215.8537,-19.9503 219.1483,-26.1266"/>
</g>
<!-- Node1111 -->
<g id="node5" class="node">
<title>Node1111</title>
<g id="a_node5"><a xlink:href="config_8c.html#a4ed060d9643354e9d5ceccdcffd0f2b8" target="_top" xlink:title="Parses a line of the config file and adds to the list. ">
<polygon fill="none" stroke="#000000" points="359.5,-494.5 359.5,-513.5 442.5,-513.5 442.5,-494.5 359.5,-494.5"/>
<text text-anchor="middle" x="401" y="-501.5" font-family="Helvetica,sans-Serif" font-size="10.00" fill="#000000">config_process</text>
</a>
</g>
</g>
<!-- Node1110&#45;&gt;Node1111 -->
<g id="edge4" class="edge">
<title>Node1110&#45;&gt;Node1111</title>
<path fill="none" stroke="#191970" d="M298.618,-475.3933C316.3015,-480.3343 338.1948,-486.4515 357.1917,-491.7594"/>
<polygon fill="#191970" stroke="#191970" points="356.2511,-495.1306 366.8241,-494.4509 358.1349,-488.3888 356.2511,-495.1306"/>
</g>
<!-- Node1113 -->
<g id="node7" class="node">
<title>Node1113</title>
<g id="a_node7"><a xlink:href="config_8c.html#a0c81724e9bdc867a3dd41bafab67cbd3" target="_top" xlink:title="Removes tabs/spaces/lf/cr. ">
<polygon fill="none" stroke="#000000" points="368.5,-456.5 368.5,-475.5 433.5,-475.5 433.5,-456.5 368.5,-456.5"/>
<text text-anchor="middle" x="401" y="-463.5" font-family="Helvetica,sans-Serif" font-size="10.00" fill="#000000">config_trim</text>
</a>
</g>
</g>
<!-- Node1110&#45;&gt;Node1113 -->
<g id="edge6" class="edge">
<title>Node1110&#45;&gt;Node1113</title>
<path fill="none" stroke="#191970" d="M298.618,-466C316.6205,-466 338.9859,-466 358.2167,-466"/>
<polygon fill="#191970" stroke="#191970" points="358.238,-469.5001 368.238,-466 358.238,-462.5001 358.238,-469.5001"/>
</g>
<!-- Node1112 -->
<g id="node6" class="node">
<title>Node1112</title>
<g id="a_node6"><a xlink:href="config_8c.html#ae2e1c63fec3382cc3dfe4b72c7a24db8" target="_top" xlink:title="Adds a parameter to the list. ">
<polygon fill="none" stroke="#000000" points="482,-494.5 482,-513.5 574,-513.5 574,-494.5 482,-494.5"/>
<text text-anchor="middle" x="528" y="-501.5" font-family="Helvetica,sans-Serif" font-size="10.00" fill="#000000">config_newnvpair</text>
</a>
</g>
</g>
<!-- Node1111&#45;&gt;Node1112 -->
<g id="edge5" class="edge">
<title>Node1111&#45;&gt;Node1112</title>
<path fill="none" stroke="#191970" d="M442.5845,-504C451.9267,-504 461.9902,-504 471.8168,-504"/>
<polygon fill="#191970" stroke="#191970" points="471.9313,-507.5001 481.9312,-504 471.9312,-500.5001 471.9313,-507.5001"/>
</g>
<!-- Node1116 -->
<g id="node10" class="node">
<title>Node1116</title>
<g id="a_node10"><a xlink:href="loss_8c.html#a7d3c3d2e87b68e284655669ec3164f41" target="_top" xlink:title="Binary logistic log loss for binary&#45;class classification. ">
<polygon fill="none" stroke="#000000" points="359,-418.5 359,-437.5 443,-437.5 443,-418.5 359,-418.5"/>
<text text-anchor="middle" x="401" y="-425.5" font-family="Helvetica,sans-Serif" font-size="10.00" fill="#000000">loss_binary_log</text>
</a>
</g>
</g>
<!-- Node1115&#45;&gt;Node1116 -->
<g id="edge9" class="edge">
<title>Node1115&#45;&gt;Node1116</title>
<path fill="none" stroke="#191970" d="M300.7882,-361.5582C307.4447,-364.1027 314.1409,-367.2237 320,-371 339.5547,-383.6035 336.8777,-395.7496 356,-409 358.566,-410.7781 361.3245,-412.4376 364.1672,-413.976"/>
<polygon fill="#191970" stroke="#191970" points="362.8775,-417.241 373.4004,-418.4738 365.9431,-410.9479 362.8775,-417.241"/>
</g>
<!-- Node1117 -->
<g id="node11" class="node">
<title>Node1117</title>
<g id="a_node11"><a xlink:href="loss_8c.html#a01aa2becdd3653d1aec1619ee1e01982" target="_top" xlink:title="Logistic log loss for multi&#45;class classification. ">
<polygon fill="none" stroke="#000000" points="374.5,-380.5 374.5,-399.5 427.5,-399.5 427.5,-380.5 374.5,-380.5"/>
<text text-anchor="middle" x="401" y="-387.5" font-family="Helvetica,sans-Serif" font-size="10.00" fill="#000000">loss_log</text>
</a>
</g>
</g>
<!-- Node1115&#45;&gt;Node1117 -->
<g id="edge10" class="edge">
<title>Node1115&#45;&gt;Node1117</title>
<path fill="none" stroke="#191970" d="M299.3185,-361.589C319.2441,-367.1564 344.3316,-374.1662 364.6015,-379.8298"/>
<polygon fill="#191970" stroke="#191970" points="363.8415,-383.2515 374.4145,-382.5717 365.7253,-376.5097 363.8415,-383.2515"/>
</g>
<!-- Node1118 -->
<g id="node12" class="node">
<title>Node1118</title>
<g id="a_node12"><a xlink:href="loss_8c.html#aad7295372dcd993c57f424e02cc6bb17" target="_top" xlink:title="Mean absolute error loss function. ">
<polygon fill="none" stroke="#000000" points="371.5,-342.5 371.5,-361.5 430.5,-361.5 430.5,-342.5 371.5,-342.5"/>
<text text-anchor="middle" x="401" y="-349.5" font-family="Helvetica,sans-Serif" font-size="10.00" fill="#000000">loss_mae</text>
</a>
</g>
</g>
<!-- Node1115&#45;&gt;Node1118 -->
<g id="edge11" class="edge">
<title>Node1115&#45;&gt;Node1118</title>
<path fill="none" stroke="#191970" d="M303.6084,-352C321.6796,-352 343.1801,-352 361.3768,-352"/>
<polygon fill="#191970" stroke="#191970" points="361.38,-355.5001 371.38,-352 361.3799,-348.5001 361.38,-355.5001"/>
</g>
<!-- Node1119 -->
<g id="node13" class="node">
<title>Node1119</title>
<g id="a_node13"><a xlink:href="loss_8c.html#a5b93dfed6fa50fe21761ed1c4ed77314" target="_top" xlink:title="Mean squared error loss function. ">
<polygon fill="none" stroke="#000000" points="498.5,-266.5 498.5,-285.5 557.5,-285.5 557.5,-266.5 498.5,-266.5"/>
<text text-anchor="middle" x="528" y="-273.5" font-family="Helvetica,sans-Serif" font-size="10.00" fill="#000000">loss_mse</text>
</a>
</g>
</g>
<!-- Node1115&#45;&gt;Node1119 -->
<g id="edge12" class="edge">
<title>Node1115&#45;&gt;Node1119</title>
<path fill="none" stroke="#191970" d="M298.0428,-342.4515C346.4156,-328.473 436.3789,-302.4761 488.2836,-287.477"/>
<polygon fill="#191970" stroke="#191970" points="489.4983,-290.7693 498.1335,-284.6306 487.5549,-284.0444 489.4983,-290.7693"/>
</g>
<!-- Node1120 -->
<g id="node14" class="node">
<title>Node1120</title>
<g id="a_node14"><a xlink:href="loss_8c.html#a7bacdd1aa368a4c34e03b304f24a6ab0" target="_top" xlink:title="One&#45;hot classification error. ">
<polygon fill="none" stroke="#000000" points="356,-266.5 356,-285.5 446,-285.5 446,-266.5 356,-266.5"/>
<text text-anchor="middle" x="401" y="-273.5" font-family="Helvetica,sans-Serif" font-size="10.00" fill="#000000">loss_onehot_acc</text>
</a>
</g>
</g>
<!-- Node1115&#45;&gt;Node1120 -->
<g id="edge13" class="edge">
<title>Node1115&#45;&gt;Node1120</title>
<path fill="none" stroke="#191970" d="M299.711,-342.4328C306.6667,-339.8543 313.7512,-336.7227 320,-333 338.6469,-321.8912 338.2838,-312.5398 356,-300 360.6975,-296.675 365.9107,-293.4912 371.0748,-290.5914"/>
<polygon fill="#191970" stroke="#191970" points="373.0308,-293.5143 380.1951,-285.7089 369.7271,-287.3429 373.0308,-293.5143"/>
</g>
<!-- Node1121 -->
<g id="node15" class="node">
<title>Node1121</title>
<g id="a_node15"><a xlink:href="loss_8c.html#acd3f9518c7b2a284f8fe7f213c142118" target="_top" xlink:title="Root mean squared error loss function. ">
<polygon fill="none" stroke="#000000" points="370,-228.5 370,-247.5 432,-247.5 432,-228.5 370,-228.5"/>
<text text-anchor="middle" x="401" y="-235.5" font-family="Helvetica,sans-Serif" font-size="10.00" fill="#000000">loss_rmse</text>
</a>
</g>
</g>
<!-- Node1115&#45;&gt;Node1121 -->
<g id="edge14" class="edge">
<title>Node1115&#45;&gt;Node1121</title>
<path fill="none" stroke="#191970" d="M303.5637,-343.1269C309.5214,-340.554 315.2596,-337.2467 320,-333 347.8384,-308.0608 329.0112,-282.8562 356,-257 357.4697,-255.592 359.0593,-254.281 360.7334,-253.0612"/>
<polygon fill="#191970" stroke="#191970" points="362.8834,-255.8522 369.6448,-247.6953 359.2725,-249.8554 362.8834,-255.8522"/>
</g>
<!-- Node1121&#45;&gt;Node1119 -->
<g id="edge15" class="edge">
<title>Node1121&#45;&gt;Node1119</title>
<path fill="none" stroke="#191970" d="M432.0677,-247.2958C449.0447,-252.3756 470.2495,-258.7203 488.4027,-264.152"/>
<polygon fill="#191970" stroke="#191970" points="487.5439,-267.5483 498.1276,-267.0618 489.5506,-260.8421 487.5439,-267.5483"/>
</g>
<!-- Node1123 -->
<g id="node17" class="node">
<title>Node1123</title>
<g id="a_node17"><a xlink:href="config_8c.html#a72c6747f43fac87892e66bc000746cdd" target="_top" xlink:title="Returns the value of a specified parameter from the list. ">
<polygon fill="none" stroke="#000000" points="358.5,-171.5 358.5,-190.5 443.5,-190.5 443.5,-171.5 358.5,-171.5"/>
<text text-anchor="middle" x="401" y="-178.5" font-family="Helvetica,sans-Serif" font-size="10.00" fill="#000000">config_getvalue</text>
</a>
</g>
</g>
<!-- Node1122&#45;&gt;Node1123 -->
<g id="edge17" class="edge">
<title>Node1122&#45;&gt;Node1123</title>
<path fill="none" stroke="#191970" d="M305.2592,-304.3716C310.6054,-301.9155 315.711,-298.8423 320,-295 347.8384,-270.0608 333.204,-248.6189 356,-219 362.3204,-210.7878 370.6889,-203.1224 378.4934,-196.8579"/>
<polygon fill="#191970" stroke="#191970" points="380.7963,-199.503 386.6171,-190.6503 376.5462,-193.9409 380.7963,-199.503"/>
</g>
<!-- Node1124&#45;&gt;Node1123 -->
<g id="edge19" class="edge">
<title>Node1124&#45;&gt;Node1123</title>
<path fill="none" stroke="#191970" d="M300.7882,-266.4418C307.4447,-263.8973 314.1409,-260.7763 320,-257 339.5547,-244.3965 339.0865,-234.974 356,-219 363.945,-211.4963 373.0993,-203.6349 381.0685,-197.0222"/>
<polygon fill="#191970" stroke="#191970" points="383.3275,-199.6961 388.8437,-190.6505 378.8906,-194.2818 383.3275,-199.6961"/>
</g>
<!-- Node1125&#45;&gt;Node1123 -->
<g id="edge21" class="edge">
<title>Node1125&#45;&gt;Node1123</title>
<path fill="none" stroke="#191970" d="M294.614,-228.4139C302.8958,-225.5593 311.8565,-222.306 320,-219 337.878,-211.7422 357.4774,-202.5808 372.9183,-195.072"/>
<polygon fill="#191970" stroke="#191970" points="374.5081,-198.1906 381.9425,-190.642 371.4234,-191.9069 374.5081,-198.1906"/>
</g>
<!-- Node1126&#45;&gt;Node1123 -->
<g id="edge23" class="edge">
<title>Node1126&#45;&gt;Node1123</title>
<path fill="none" stroke="#191970" d="M319.5328,-192.3815C328.9757,-191.0622 338.7795,-189.6926 348.1759,-188.3798"/>
<polygon fill="#191970" stroke="#191970" points="348.7563,-191.8328 358.1758,-186.9828 347.7877,-184.9002 348.7563,-191.8328"/>
</g>
<!-- Node1127&#45;&gt;Node1123 -->
<g id="edge25" class="edge">
<title>Node1127&#45;&gt;Node1123</title>
<path fill="none" stroke="#191970" d="M297.5754,-166.551C312.6731,-168.6602 331.0032,-171.221 348.0139,-173.5975"/>
<polygon fill="#191970" stroke="#191970" points="348.0062,-177.1304 358.3943,-175.0477 348.9748,-170.1977 348.0062,-177.1304"/>
</g>
<!-- Node1128&#45;&gt;Node1123 -->
<g id="edge27" class="edge">
<title>Node1128&#45;&gt;Node1123</title>
<path fill="none" stroke="#191970" d="M294.614,-133.5861C302.8958,-136.4407 311.8565,-139.694 320,-143 337.878,-150.2578 357.4774,-159.4192 372.9183,-166.928"/>
<polygon fill="#191970" stroke="#191970" points="371.4234,-170.0931 381.9425,-171.358 374.5081,-163.8094 371.4234,-170.0931"/>
</g>
<!-- Node1129&#45;&gt;Node1123 -->
<g id="edge29" class="edge">
<title>Node1129&#45;&gt;Node1123</title>
<path fill="none" stroke="#191970" d="M299.7447,-95.511C306.698,-98.0936 313.7729,-101.2411 320,-105 346.5301,-121.0146 371.6712,-146.872 386.7125,-163.9038"/>
<polygon fill="#191970" stroke="#191970" points="384.0633,-166.1911 393.247,-171.4741 389.3623,-161.6171 384.0633,-166.1911"/>
</g>
<!-- Node1130&#45;&gt;Node1123 -->
<g id="edge31" class="edge">
<title>Node1130&#45;&gt;Node1123</title>
<path fill="none" stroke="#191970" d="M302.9606,-57.6088C308.9881,-60.0966 314.9059,-63.1847 320,-67 354.1593,-92.5837 379.598,-136.7825 392.1865,-161.9702"/>
<polygon fill="#191970" stroke="#191970" points="389.1445,-163.7194 396.6472,-171.2 395.4471,-160.6734 389.1445,-163.7194"/>
</g>
<!-- Node1132 -->
<g id="node26" class="node">
<title>Node1132</title>
<g id="a_node26"><a xlink:href="utils_8c.html#ae42a9e1d467853befaa7922cfafed3bb" target="_top" xlink:title="Returns a uniform random float [min,max]. ">
<polygon fill="none" stroke="#000000" points="364.5,-.5 364.5,-19.5 437.5,-19.5 437.5,-.5 364.5,-.5"/>
<text text-anchor="middle" x="401" y="-7.5" font-family="Helvetica,sans-Serif" font-size="10.00" fill="#000000">rand_uniform</text>
</a>
</g>
</g>
<!-- Node1131&#45;&gt;Node1132 -->
<g id="edge33" class="edge">
<title>Node1131&#45;&gt;Node1132</title>
<path fill="none" stroke="#191970" d="M303.6084,-10C319.1979,-10 337.3395,-10 353.7106,-10"/>
<polygon fill="#191970" stroke="#191970" points="354.1685,-13.5001 364.1684,-10 354.1684,-6.5001 354.1685,-13.5001"/>
</g>
<!-- Node1133 -->
<g id="node27" class="node">
<title>Node1133</title>
<g id="a_node27"><a xlink:href="utils_8c.html#a101d27cdda714b7f17a06224c65cac56" target="_top" xlink:title="Returns a uniform random float [0,1]. ">
<polygon fill="none" stroke="#000000" points="507.5,-.5 507.5,-19.5 548.5,-19.5 548.5,-.5 507.5,-.5"/>
<text text-anchor="middle" x="528" y="-7.5" font-family="Helvetica,sans-Serif" font-size="10.00" fill="#000000">drand</text>
</a>
</g>
</g>
<!-- Node1132&#45;&gt;Node1133 -->
<g id="edge34" class="edge">
<title>Node1132&#45;&gt;Node1133</title>
<path fill="none" stroke="#191970" d="M437.7337,-10C456.5071,-10 479.101,-10 496.9879,-10"/>
<polygon fill="#191970" stroke="#191970" points="497.1752,-13.5001 507.1752,-10 497.1751,-6.5001 497.1752,-13.5001"/>
</g>
<!-- Node1134 -->
<g id="node28" class="node">
<title>Node1134</title>
<g id="a_node28"><a xlink:href="mt19937-64_8c.html#aa0b74daf51eca91df224d00f1730084a" target="_top" xlink:title="genrand64_real1">
<polygon fill="none" stroke="#000000" points="610,-.5 610,-19.5 698,-19.5 698,-.5 610,-.5"/>
<text text-anchor="middle" x="654" y="-7.5" font-family="Helvetica,sans-Serif" font-size="10.00" fill="#000000">genrand64_real1</text>
</a>
</g>
</g>
<!-- Node1133&#45;&gt;Node1134 -->
<g id="edge35" class="edge">
<title>Node1133&#45;&gt;Node1134</title>
<path fill="none" stroke="#191970" d="M548.5245,-10C562.463,-10 581.5939,-10 599.7386,-10"/>
<polygon fill="#191970" stroke="#191970" points="599.9687,-13.5001 609.9686,-10 599.9686,-6.5001 599.9687,-13.5001"/>
</g>
<!-- Node1135 -->
<g id="node29" class="node">
<title>Node1135</title>
<g id="a_node29"><a xlink:href="mt19937-64_8c.html#a265bf48d20d6e0347371fcf4fe340e6d" target="_top" xlink:title="genrand64_int64">
<polygon fill="none" stroke="#000000" points="734,-.5 734,-19.5 822,-19.5 822,-.5 734,-.5"/>
<text text-anchor="middle" x="778" y="-7.5" font-family="Helvetica,sans-Serif" font-size="10.00" fill="#000000">genrand64_int64</text>
</a>
</g>
</g>
<!-- Node1134&#45;&gt;Node1135 -->
<g id="edge36" class="edge">
<title>Node1134&#45;&gt;Node1135</title>
<path fill="none" stroke="#191970" d="M698.0669,-10C706.2822,-10 714.957,-10 723.4432,-10"/>
<polygon fill="#191970" stroke="#191970" points="723.6572,-13.5001 733.6572,-10 723.6572,-6.5001 723.6572,-13.5001"/>
</g>
<!-- Node1136 -->
<g id="node30" class="node">
<title>Node1136</title>
<g id="a_node30"><a xlink:href="mt19937-64_8c.html#adf4127d44c2dc34fcb318d406131ef7c" target="_top" xlink:title="init_genrand64">
<polygon fill="none" stroke="#000000" points="858,-.5 858,-19.5 938,-19.5 938,-.5 858,-.5"/>
<text text-anchor="middle" x="898" y="-7.5" font-family="Helvetica,sans-Serif" font-size="10.00" fill="#000000">init_genrand64</text>
</a>
</g>
</g>
<!-- Node1135&#45;&gt;Node1136 -->
<g id="edge37" class="edge">
<title>Node1135&#45;&gt;Node1136</title>
<path fill="none" stroke="#191970" d="M822.0022,-10C830.3719,-10 839.1896,-10 847.7365,-10"/>
<polygon fill="#191970" stroke="#191970" points="847.9792,-13.5001 857.9792,-10 847.9792,-6.5001 847.9792,-13.5001"/>
</g>
</g>
</svg>
