<?xml version="1.0" encoding="UTF-8" standalone="no"?>
<!DOCTYPE svg PUBLIC "-//W3C//DTD SVG 1.1//EN"
 "http://www.w3.org/Graphics/SVG/1.1/DTD/svg11.dtd">
<!-- Generated by graphviz version 2.40.1 (20161225.0304)
 -->
<!-- Title: XCS::score Pages: 1 -->
<svg width="1771pt" height="522pt"
 viewBox="0.00 0.00 1771.00 522.00" xmlns="http://www.w3.org/2000/svg" xmlns:xlink="http://www.w3.org/1999/xlink">
<g id="graph0" class="graph" transform="scale(1 1) rotate(0) translate(4 518)">
<title>XCS::score</title>
<!-- Node720 -->
<g id="node1" class="node">
<title>Node720</title>
<polygon fill="#bfbfbf" stroke="#000000" points="0,-185.5 0,-204.5 68,-204.5 68,-185.5 0,-185.5"/>
<text text-anchor="middle" x="34" y="-192.5" font-family="Helvetica,sans-Serif" font-size="10.00" fill="#000000">XCS::score</text>
</g>
<!-- Node721 -->
<g id="node2" class="node">
<title>Node721</title>
<g id="a_node2"><a xlink:href="xcsf_8c.html#a348b8cd321211c377fb1deedc62c7c67" target="_top" xlink:title="Calculates the XCSF error for the input data. ">
<polygon fill="none" stroke="#000000" points="104,-185.5 104,-204.5 169,-204.5 169,-185.5 104,-185.5"/>
<text text-anchor="middle" x="136.5" y="-192.5" font-family="Helvetica,sans-Serif" font-size="10.00" fill="#000000">xcsf_score</text>
</a>
</g>
</g>
<!-- Node720&#45;&gt;Node721 -->
<g id="edge1" class="edge">
<title>Node720&#45;&gt;Node721</title>
<path fill="none" stroke="#191970" d="M68.131,-195C76.3288,-195 85.1867,-195 93.7223,-195"/>
<polygon fill="#191970" stroke="#191970" points="93.9077,-198.5001 103.9077,-195 93.9077,-191.5001 93.9077,-198.5001"/>
</g>
<!-- Node722 -->
<g id="node3" class="node">
<title>Node722</title>
<g id="a_node3"><a xlink:href="xcsf_8c.html#a3089cd4a65514a0a3030e5cb6e11ff7e" target="_top" xlink:title="Executes a single XCSF testing trial. ">
<polygon fill="none" stroke="#000000" points="205,-185.5 205,-204.5 283,-204.5 283,-185.5 205,-185.5"/>
<text text-anchor="middle" x="244" y="-192.5" font-family="Helvetica,sans-Serif" font-size="10.00" fill="#000000">xcsf_test_trial</text>
</a>
</g>
</g>
<!-- Node721&#45;&gt;Node722 -->
<g id="edge2" class="edge">
<title>Node721&#45;&gt;Node722</title>
<path fill="none" stroke="#191970" d="M169.0453,-195C177.1291,-195 185.975,-195 194.6659,-195"/>
<polygon fill="#191970" stroke="#191970" points="194.7421,-198.5001 204.742,-195 194.742,-191.5001 194.7421,-198.5001"/>
</g>
<!-- Node723 -->
<g id="node4" class="node">
<title>Node723</title>
<g id="a_node4"><a xlink:href="clset_8c.html#a75789e37a9512f6358e710580ad17d87" target="_top" xlink:title="Frees the set, but not the classifiers. ">
<polygon fill="none" stroke="#000000" points="324.5,-261.5 324.5,-280.5 383.5,-280.5 383.5,-261.5 324.5,-261.5"/>
<text text-anchor="middle" x="354" y="-268.5" font-family="Helvetica,sans-Serif" font-size="10.00" fill="#000000">clset_free</text>
</a>
</g>
</g>
<!-- Node722&#45;&gt;Node723 -->
<g id="edge3" class="edge">
<title>Node722&#45;&gt;Node723</title>
<path fill="none" stroke="#191970" d="M255.5454,-204.6596C269.9374,-216.4896 295.5098,-236.8237 319,-252 321.3157,-253.4961 323.7592,-254.9871 326.2344,-256.4383"/>
<polygon fill="#191970" stroke="#191970" points="324.7342,-259.61 335.1667,-261.4577 328.1634,-253.5075 324.7342,-259.61"/>
</g>
<!-- Node724 -->
<g id="node5" class="node">
<title>Node724</title>
<g id="a_node5"><a xlink:href="clset_8c.html#a7feb00168d3dbd1d0597301029aed664" target="_top" xlink:title="Initialises a new set. ">
<polygon fill="none" stroke="#000000" points="326,-223.5 326,-242.5 382,-242.5 382,-223.5 326,-223.5"/>
<text text-anchor="middle" x="354" y="-230.5" font-family="Helvetica,sans-Serif" font-size="10.00" fill="#000000">clset_init</text>
</a>
</g>
</g>
<!-- Node722&#45;&gt;Node724 -->
<g id="edge4" class="edge">
<title>Node722&#45;&gt;Node724</title>
<path fill="none" stroke="#191970" d="M271.7576,-204.589C285.3062,-209.2694 301.8055,-214.9692 316.4597,-220.0315"/>
<polygon fill="#191970" stroke="#191970" points="315.6565,-223.457 326.2512,-223.4141 317.9422,-216.8406 315.6565,-223.457"/>
</g>
<!-- Node725 -->
<g id="node6" class="node">
<title>Node725</title>
<g id="a_node6"><a xlink:href="clset_8c.html#aad012238caff12fcd827b1e282c9a4ef" target="_top" xlink:title="Frees the set and the classifiers. ">
<polygon fill="none" stroke="#000000" points="326.5,-185.5 326.5,-204.5 381.5,-204.5 381.5,-185.5 326.5,-185.5"/>
<text text-anchor="middle" x="354" y="-192.5" font-family="Helvetica,sans-Serif" font-size="10.00" fill="#000000">clset_kill</text>
</a>
</g>
</g>
<!-- Node722&#45;&gt;Node725 -->
<g id="edge5" class="edge">
<title>Node722&#45;&gt;Node725</title>
<path fill="none" stroke="#191970" d="M283.0916,-195C293.8365,-195 305.4677,-195 316.1418,-195"/>
<polygon fill="#191970" stroke="#191970" points="316.4287,-198.5001 326.4287,-195 316.4286,-191.5001 316.4287,-198.5001"/>
</g>
<!-- Node731 -->
<g id="node12" class="node">
<title>Node731</title>
<g id="a_node12"><a xlink:href="clset_8c.html#a460e3bd1d979c502e9e9d97d4253f97c" target="_top" xlink:title="Constructs the match set. ">
<polygon fill="none" stroke="#000000" points="319,-147.5 319,-166.5 389,-166.5 389,-147.5 319,-147.5"/>
<text text-anchor="middle" x="354" y="-154.5" font-family="Helvetica,sans-Serif" font-size="10.00" fill="#000000">clset_match</text>
</a>
</g>
</g>
<!-- Node722&#45;&gt;Node731 -->
<g id="edge11" class="edge">
<title>Node722&#45;&gt;Node731</title>
<path fill="none" stroke="#191970" d="M271.7576,-185.411C285.3062,-180.7306 301.8055,-175.0308 316.4597,-169.9685"/>
<polygon fill="#191970" stroke="#191970" points="317.9422,-173.1594 326.2512,-166.5859 315.6565,-166.543 317.9422,-173.1594"/>
</g>
<!-- Node772 -->
<g id="node53" class="node">
<title>Node772</title>
<g id="a_node53"><a xlink:href="clset_8c.html#a7146a28cbf1fbbcc90f8bb583144fb12" target="_top" xlink:title="Calculates the set mean fitness weighted prediction. ">
<polygon fill="none" stroke="#000000" points="323,-62.5 323,-81.5 385,-81.5 385,-62.5 323,-62.5"/>
<text text-anchor="middle" x="354" y="-69.5" font-family="Helvetica,sans-Serif" font-size="10.00" fill="#000000">clset_pred</text>
</a>
</g>
</g>
<!-- Node722&#45;&gt;Node772 -->
<g id="edge56" class="edge">
<title>Node722&#45;&gt;Node772</title>
<path fill="none" stroke="#191970" d="M252.6315,-185.3484C271.1863,-164.6008 315.0871,-115.5117 338.5624,-89.262"/>
<polygon fill="#191970" stroke="#191970" points="341.3513,-91.394 345.4086,-81.6068 336.1335,-86.7276 341.3513,-91.394"/>
</g>
<!-- Node726 -->
<g id="node7" class="node">
<title>Node726</title>
<g id="a_node7"><a xlink:href="cl_8c.html#a2bba8869890a67c2412a358c8f3ec0b4" target="_top" xlink:title="Frees the memory used by the classifier. ">
<polygon fill="none" stroke="#000000" points="435.5,-418.5 435.5,-437.5 481.5,-437.5 481.5,-418.5 435.5,-418.5"/>
<text text-anchor="middle" x="458.5" y="-425.5" font-family="Helvetica,sans-Serif" font-size="10.00" fill="#000000">cl_free</text>
</a>
</g>
</g>
<!-- Node725&#45;&gt;Node726 -->
<g id="edge6" class="edge">
<title>Node725&#45;&gt;Node726</title>
<path fill="none" stroke="#191970" d="M378.2818,-204.6488C382.335,-207.1748 386.1435,-210.2658 389,-214 431.1806,-269.1412 400.2858,-301.1235 425,-366 430.8423,-381.3365 439.7599,-397.6236 446.9258,-409.6543"/>
<polygon fill="#191970" stroke="#191970" points="444.0032,-411.5839 452.205,-418.2907 449.9757,-407.933 444.0032,-411.5839"/>
</g>
<!-- Node727 -->
<g id="node8" class="node">
<title>Node727</title>
<g id="a_node8"><a xlink:href="action_8h.html#a2e77a50c24d06a37f2fc5aab8e3ecbac" target="_top" xlink:title="act_free">
<polygon fill="none" stroke="#000000" points="561.5,-418.5 561.5,-437.5 613.5,-437.5 613.5,-418.5 561.5,-418.5"/>
<text text-anchor="middle" x="587.5" y="-425.5" font-family="Helvetica,sans-Serif" font-size="10.00" fill="#000000">act_free</text>
</a>
</g>
</g>
<!-- Node726&#45;&gt;Node727 -->
<g id="edge7" class="edge">
<title>Node726&#45;&gt;Node727</title>
<path fill="none" stroke="#191970" d="M481.5626,-428C500.8319,-428 528.6577,-428 550.9563,-428"/>
<polygon fill="#191970" stroke="#191970" points="551.0788,-431.5001 561.0788,-428 551.0787,-424.5001 551.0788,-431.5001"/>
</g>
<!-- Node728 -->
<g id="node9" class="node">
<title>Node728</title>
<g id="a_node9"><a xlink:href="condition_8h.html#a3359b327b7de91f97ce0fb0cee911d04" target="_top" xlink:title="cond_free">
<polygon fill="none" stroke="#000000" points="558,-380.5 558,-399.5 617,-399.5 617,-380.5 558,-380.5"/>
<text text-anchor="middle" x="587.5" y="-387.5" font-family="Helvetica,sans-Serif" font-size="10.00" fill="#000000">cond_free</text>
</a>
</g>
</g>
<!-- Node726&#45;&gt;Node728 -->
<g id="edge8" class="edge">
<title>Node726&#45;&gt;Node728</title>
<path fill="none" stroke="#191970" d="M481.5626,-421.2064C500.0392,-415.7636 526.383,-408.0035 548.1774,-401.5834"/>
<polygon fill="#191970" stroke="#191970" points="549.2229,-404.9242 557.8264,-398.7411 547.2449,-398.2095 549.2229,-404.9242"/>
</g>
<!-- Node729 -->
<g id="node10" class="node">
<title>Node729</title>
<g id="a_node10"><a xlink:href="prediction_8h.html#a43bac629eb9434b643605a214f5d5876" target="_top" xlink:title="pred_free">
<polygon fill="none" stroke="#000000" points="559,-494.5 559,-513.5 616,-513.5 616,-494.5 559,-494.5"/>
<text text-anchor="middle" x="587.5" y="-501.5" font-family="Helvetica,sans-Serif" font-size="10.00" fill="#000000">pred_free</text>
</a>
</g>
</g>
<!-- Node726&#45;&gt;Node729 -->
<g id="edge9" class="edge">
<title>Node726&#45;&gt;Node729</title>
<path fill="none" stroke="#191970" d="M467.9815,-437.806C480.6108,-450.3585 504.1453,-472.03 528,-485 534.5496,-488.5611 541.8726,-491.5797 549.0812,-494.0905"/>
<polygon fill="#191970" stroke="#191970" points="548.1654,-497.4725 558.7568,-497.2028 550.3089,-490.8088 548.1654,-497.4725"/>
</g>
<!-- Node730 -->
<g id="node11" class="node">
<title>Node730</title>
<g id="a_node11"><a xlink:href="sam_8c.html#a0f3791bc58a3d67f38670151d1cd4418" target="_top" xlink:title="Frees the self&#45;adaptive mutation rates. ">
<polygon fill="none" stroke="#000000" points="559,-456.5 559,-475.5 616,-475.5 616,-456.5 559,-456.5"/>
<text text-anchor="middle" x="587.5" y="-463.5" font-family="Helvetica,sans-Serif" font-size="10.00" fill="#000000">sam_free</text>
</a>
</g>
</g>
<!-- Node726&#45;&gt;Node730 -->
<g id="edge10" class="edge">
<title>Node726&#45;&gt;Node730</title>
<path fill="none" stroke="#191970" d="M481.5626,-434.7936C500.2906,-440.3104 527.1013,-448.2081 549.0644,-454.6779"/>
<polygon fill="#191970" stroke="#191970" points="548.1866,-458.0679 558.7681,-457.5363 550.1646,-451.3532 548.1866,-458.0679"/>
</g>
<!-- Node732 -->
<g id="node13" class="node">
<title>Node732</title>
<g id="a_node13"><a xlink:href="cl_8c.html#a03bd37ba4e5697866192d6f643a50de3" target="_top" xlink:title="Computes the current classifier action using the input. ">
<polygon fill="none" stroke="#000000" points="430.5,-147.5 430.5,-166.5 486.5,-166.5 486.5,-147.5 430.5,-147.5"/>
<text text-anchor="middle" x="458.5" y="-154.5" font-family="Helvetica,sans-Serif" font-size="10.00" fill="#000000">cl_action</text>
</a>
</g>
</g>
<!-- Node731&#45;&gt;Node732 -->
<g id="edge12" class="edge">
<title>Node731&#45;&gt;Node732</title>
<path fill="none" stroke="#191970" d="M389.0877,-157C399.0333,-157 409.9121,-157 420.0453,-157"/>
<polygon fill="#191970" stroke="#191970" points="420.2649,-160.5001 430.2649,-157 420.2649,-153.5001 420.2649,-160.5001"/>
</g>
<!-- Node734 -->
<g id="node15" class="node">
<title>Node734</title>
<g id="a_node15"><a xlink:href="cl_8c.html#ad26f65e65f9785ce44ece9979362d889" target="_top" xlink:title="Returns whether the classifier matched the most recent input. ">
<polygon fill="none" stroke="#000000" points="439.5,-109.5 439.5,-128.5 477.5,-128.5 477.5,-109.5 439.5,-109.5"/>
<text text-anchor="middle" x="458.5" y="-116.5" font-family="Helvetica,sans-Serif" font-size="10.00" fill="#000000">cl_m</text>
</a>
</g>
</g>
<!-- Node731&#45;&gt;Node734 -->
<g id="edge14" class="edge">
<title>Node731&#45;&gt;Node734</title>
<path fill="none" stroke="#191970" d="M380.3698,-147.411C395.4478,-141.9281 414.3727,-135.0463 429.8202,-129.429"/>
<polygon fill="#191970" stroke="#191970" points="431.1921,-132.6545 439.3939,-125.9477 428.7998,-126.0759 431.1921,-132.6545"/>
</g>
<!-- Node735 -->
<g id="node16" class="node">
<title>Node735</title>
<g id="a_node16"><a xlink:href="cl_8c.html#af5a666538852ce0406d5d8ad933f92f7" target="_top" xlink:title="Calculates whether the classifier matches the input. ">
<polygon fill="none" stroke="#000000" points="430.5,-52.5 430.5,-71.5 486.5,-71.5 486.5,-52.5 430.5,-52.5"/>
<text text-anchor="middle" x="458.5" y="-59.5" font-family="Helvetica,sans-Serif" font-size="10.00" fill="#000000">cl_match</text>
</a>
</g>
</g>
<!-- Node731&#45;&gt;Node735 -->
<g id="edge15" class="edge">
<title>Node731&#45;&gt;Node735</title>
<path fill="none" stroke="#191970" d="M364.7897,-147.1911C382.6385,-130.965 418.5021,-98.3617 440.3181,-78.529"/>
<polygon fill="#191970" stroke="#191970" points="442.8795,-80.9306 447.9246,-71.614 438.1708,-75.751 442.8795,-80.9306"/>
</g>
<!-- Node737 -->
<g id="node18" class="node">
<title>Node737</title>
<g id="a_node18"><a xlink:href="clset_8c.html#a73ab8d4cc3a3e4f70561c7f5bf20c265" target="_top" xlink:title="Adds a classifier to the set. ">
<polygon fill="none" stroke="#000000" points="826.5,-342.5 826.5,-361.5 885.5,-361.5 885.5,-342.5 826.5,-342.5"/>
<text text-anchor="middle" x="856" y="-349.5" font-family="Helvetica,sans-Serif" font-size="10.00" fill="#000000">clset_add</text>
</a>
</g>
</g>
<!-- Node731&#45;&gt;Node737 -->
<g id="edge17" class="edge">
<title>Node731&#45;&gt;Node737</title>
<path fill="none" stroke="#191970" d="M374.8113,-166.6278C379.695,-169.3295 384.7185,-172.4982 389,-176 408.2933,-191.7799 408.0815,-200.697 425,-219 468.5199,-266.0811 470.1466,-292.3667 528,-320 623.3653,-365.5506 751.877,-362.0274 816.0511,-356.5336"/>
<polygon fill="#191970" stroke="#191970" points="816.5158,-360.0058 826.1538,-355.6059 815.8757,-353.0351 816.5158,-360.0058"/>
</g>
<!-- Node738 -->
<g id="node19" class="node">
<title>Node738</title>
<g id="a_node19"><a xlink:href="clset_8c.html#afc4b91ff72294195a5462944b92ec9b2" target="_top" xlink:title="Ensures all possible actions are covered by the match set. ">
<polygon fill="none" stroke="#000000" points="425,-190.5 425,-209.5 492,-209.5 492,-190.5 425,-190.5"/>
<text text-anchor="middle" x="458.5" y="-197.5" font-family="Helvetica,sans-Serif" font-size="10.00" fill="#000000">clset_cover</text>
</a>
</g>
</g>
<!-- Node731&#45;&gt;Node738 -->
<g id="edge18" class="edge">
<title>Node731&#45;&gt;Node738</title>
<path fill="none" stroke="#191970" d="M377.1919,-166.5431C391.5329,-172.4442 410.1562,-180.1073 425.9604,-186.6105"/>
<polygon fill="#191970" stroke="#191970" points="424.7933,-189.9149 435.3729,-190.4836 427.4571,-183.4416 424.7933,-189.9149"/>
</g>
<!-- Node733 -->
<g id="node14" class="node">
<title>Node733</title>
<g id="a_node14"><a xlink:href="action_8h.html#aab6ebb454826f8e9425efc0ed2917023" target="_top" xlink:title="act_compute">
<polygon fill="none" stroke="#000000" points="551,-76.5 551,-95.5 624,-95.5 624,-76.5 551,-76.5"/>
<text text-anchor="middle" x="587.5" y="-83.5" font-family="Helvetica,sans-Serif" font-size="10.00" fill="#000000">act_compute</text>
</a>
</g>
</g>
<!-- Node732&#45;&gt;Node733 -->
<g id="edge13" class="edge">
<title>Node732&#45;&gt;Node733</title>
<path fill="none" stroke="#191970" d="M477.0467,-147.4672C482.0437,-144.637 487.3501,-141.3828 492,-138 509.5519,-125.2312 509.2237,-115.8886 528,-105 532.1773,-102.5775 536.7016,-100.4229 541.326,-98.5163"/>
<polygon fill="#191970" stroke="#191970" points="542.7382,-101.725 550.8793,-94.9446 540.2868,-95.1683 542.7382,-101.725"/>
</g>
<!-- Node736 -->
<g id="node17" class="node">
<title>Node736</title>
<g id="a_node17"><a xlink:href="condition_8h.html#a921ad37edd9a0af1c245bd9a490e3527" target="_top" xlink:title="cond_match">
<polygon fill="none" stroke="#000000" points="552.5,-38.5 552.5,-57.5 622.5,-57.5 622.5,-38.5 552.5,-38.5"/>
<text text-anchor="middle" x="587.5" y="-45.5" font-family="Helvetica,sans-Serif" font-size="10.00" fill="#000000">cond_match</text>
</a>
</g>
</g>
<!-- Node735&#45;&gt;Node736 -->
<g id="edge16" class="edge">
<title>Node735&#45;&gt;Node736</title>
<path fill="none" stroke="#191970" d="M486.8096,-58.9276C503.0799,-57.1619 523.8927,-54.9031 542.3685,-52.898"/>
<polygon fill="#191970" stroke="#191970" points="542.7848,-56.3735 552.3487,-51.8149 542.0294,-49.4143 542.7848,-56.3735"/>
</g>
<!-- Node738&#45;&gt;Node737 -->
<g id="edge42" class="edge">
<title>Node738&#45;&gt;Node737</title>
<path fill="none" stroke="#191970" d="M462.556,-209.7277C471.3096,-229.4094 493.9717,-273.8728 528,-295 540.2115,-302.5818 731.5451,-332.8055 816.2138,-345.8993"/>
<polygon fill="#191970" stroke="#191970" points="815.8139,-349.3789 826.2308,-347.4454 816.8817,-342.4609 815.8139,-349.3789"/>
</g>
<!-- Node739 -->
<g id="node20" class="node">
<title>Node739</title>
<g id="a_node20"><a xlink:href="cl_8c.html#a502630fa339b234b42b9b859a8c70986" target="_top" xlink:title="Covers the condition and action for a classifier. ">
<polygon fill="none" stroke="#000000" points="561,-190.5 561,-209.5 614,-209.5 614,-190.5 561,-190.5"/>
<text text-anchor="middle" x="587.5" y="-197.5" font-family="Helvetica,sans-Serif" font-size="10.00" fill="#000000">cl_cover</text>
</a>
</g>
</g>
<!-- Node738&#45;&gt;Node739 -->
<g id="edge19" class="edge">
<title>Node738&#45;&gt;Node739</title>
<path fill="none" stroke="#191970" d="M492.0565,-200C509.9877,-200 532.1003,-200 550.5247,-200"/>
<polygon fill="#191970" stroke="#191970" points="550.6083,-203.5001 560.6083,-200 550.6082,-196.5001 550.6083,-203.5001"/>
</g>
<!-- Node749 -->
<g id="node30" class="node">
<title>Node749</title>
<g id="a_node30"><a xlink:href="cl_8c.html#ab45c6f772a335d0a4fdb753a61958744" target="_top" xlink:title="Initialises a new classifier. ">
<polygon fill="none" stroke="#000000" points="566.5,-152.5 566.5,-171.5 608.5,-171.5 608.5,-152.5 566.5,-152.5"/>
<text text-anchor="middle" x="587.5" y="-159.5" font-family="Helvetica,sans-Serif" font-size="10.00" fill="#000000">cl_init</text>
</a>
</g>
</g>
<!-- Node738&#45;&gt;Node749 -->
<g id="edge29" class="edge">
<title>Node738&#45;&gt;Node749</title>
<path fill="none" stroke="#191970" d="M491.0521,-190.411C511.137,-184.4945 536.7513,-176.9492 556.5348,-171.1215"/>
<polygon fill="#191970" stroke="#191970" points="557.6851,-174.4314 566.2886,-168.2483 555.7071,-167.7167 557.6851,-174.4314"/>
</g>
<!-- Node760 -->
<g id="node41" class="node">
<title>Node760</title>
<g id="a_node41"><a xlink:href="clset_8c.html#a1be391cf8ecd96d1a71b1dc6a7feb4a9" target="_top" xlink:title="Returns whether an action is covered by the set. ">
<polygon fill="none" stroke="#000000" points="533,-114.5 533,-133.5 642,-133.5 642,-114.5 533,-114.5"/>
<text text-anchor="middle" x="587.5" y="-121.5" font-family="Helvetica,sans-Serif" font-size="10.00" fill="#000000">clset_action_covered</text>
</a>
</g>
</g>
<!-- Node738&#45;&gt;Node760 -->
<g id="edge41" class="edge">
<title>Node738&#45;&gt;Node760</title>
<path fill="none" stroke="#191970" d="M472.7975,-190.3248C478.845,-186.0882 485.8895,-180.9596 492,-176 508.8526,-162.3216 509.2237,-153.8886 528,-143 531.6408,-140.8886 535.5453,-138.9808 539.5499,-137.2632"/>
<polygon fill="#191970" stroke="#191970" points="540.9432,-140.4768 548.9984,-133.5947 538.4096,-133.9514 540.9432,-140.4768"/>
</g>
<!-- Node761 -->
<g id="node42" class="node">
<title>Node761</title>
<g id="a_node42"><a xlink:href="clset_8c.html#ad87086ed11e5fdd6bffe41b8a34f3608" target="_top" xlink:title="Enforces the maximum population size limit. ">
<polygon fill="none" stroke="#000000" points="528,-228.5 528,-247.5 647,-247.5 647,-228.5 528,-228.5"/>
<text text-anchor="middle" x="587.5" y="-235.5" font-family="Helvetica,sans-Serif" font-size="10.00" fill="#000000">clset_pop_enforce_limit</text>
</a>
</g>
</g>
<!-- Node738&#45;&gt;Node761 -->
<g id="edge43" class="edge">
<title>Node738&#45;&gt;Node761</title>
<path fill="none" stroke="#191970" d="M491.0521,-209.589C507.3993,-214.4044 527.4092,-220.2988 544.9571,-225.468"/>
<polygon fill="#191970" stroke="#191970" points="544.3768,-228.9457 554.9583,-228.4141 546.3548,-222.2309 544.3768,-228.9457"/>
</g>
<!-- Node771 -->
<g id="node52" class="node">
<title>Node771</title>
<g id="a_node52"><a xlink:href="clset_8c.html#a7ec1121fd19ff524f19b46ffa0522dd9" target="_top" xlink:title="Removes classifiers with 0 numerosity from the set. ">
<polygon fill="none" stroke="#000000" points="549,-266.5 549,-285.5 626,-285.5 626,-266.5 549,-266.5"/>
<text text-anchor="middle" x="587.5" y="-273.5" font-family="Helvetica,sans-Serif" font-size="10.00" fill="#000000">clset_validate</text>
</a>
</g>
</g>
<!-- Node738&#45;&gt;Node771 -->
<g id="edge55" class="edge">
<title>Node738&#45;&gt;Node771</title>
<path fill="none" stroke="#191970" d="M467.9815,-209.806C480.6108,-222.3585 504.1453,-244.03 528,-257 531.9655,-259.1561 536.2145,-261.1133 540.5499,-262.8794"/>
<polygon fill="#191970" stroke="#191970" points="539.51,-266.227 550.1026,-266.4432 541.9568,-259.6685 539.51,-266.227"/>
</g>
<!-- Node740 -->
<g id="node21" class="node">
<title>Node740</title>
<g id="a_node21"><a xlink:href="action_8h.html#ac250a5534d7c5fb268e0ccdb479d6e20" target="_top" xlink:title="act_cover">
<polygon fill="none" stroke="#000000" points="692,-190.5 692,-209.5 751,-209.5 751,-190.5 692,-190.5"/>
<text text-anchor="middle" x="721.5" y="-197.5" font-family="Helvetica,sans-Serif" font-size="10.00" fill="#000000">act_cover</text>
</a>
</g>
</g>
<!-- Node739&#45;&gt;Node740 -->
<g id="edge20" class="edge">
<title>Node739&#45;&gt;Node740</title>
<path fill="none" stroke="#191970" d="M614.2948,-200C633.5918,-200 659.9495,-200 681.7005,-200"/>
<polygon fill="#191970" stroke="#191970" points="681.9571,-203.5001 691.9571,-200 681.957,-196.5001 681.9571,-203.5001"/>
</g>
<!-- Node741 -->
<g id="node22" class="node">
<title>Node741</title>
<g id="a_node22"><a xlink:href="cl_8c.html#a7b56e6acc90b92c0692466ae2b7d2a24" target="_top" xlink:title="Initialises random actions, conditions and predictions. ">
<polygon fill="none" stroke="#000000" points="697.5,-152.5 697.5,-171.5 745.5,-171.5 745.5,-152.5 697.5,-152.5"/>
<text text-anchor="middle" x="721.5" y="-159.5" font-family="Helvetica,sans-Serif" font-size="10.00" fill="#000000">cl_rand</text>
</a>
</g>
</g>
<!-- Node739&#45;&gt;Node741 -->
<g id="edge21" class="edge">
<title>Node739&#45;&gt;Node741</title>
<path fill="none" stroke="#191970" d="M614.2948,-192.4015C635.3568,-186.4287 664.8303,-178.0705 687.5444,-171.6292"/>
<polygon fill="#191970" stroke="#191970" points="688.7847,-174.9156 697.4504,-168.82 686.8749,-168.1811 688.7847,-174.9156"/>
</g>
<!-- Node748 -->
<g id="node29" class="node">
<title>Node748</title>
<g id="a_node29"><a xlink:href="condition_8h.html#af6a4967f684827b76d279cc04420ab6d" target="_top" xlink:title="cond_cover">
<polygon fill="none" stroke="#000000" points="688,-114.5 688,-133.5 755,-133.5 755,-114.5 688,-114.5"/>
<text text-anchor="middle" x="721.5" y="-121.5" font-family="Helvetica,sans-Serif" font-size="10.00" fill="#000000">cond_cover</text>
</a>
</g>
</g>
<!-- Node739&#45;&gt;Node748 -->
<g id="edge28" class="edge">
<title>Node739&#45;&gt;Node748</title>
<path fill="none" stroke="#191970" d="M614.2216,-194.5366C624.9429,-191.5831 637.0823,-187.2284 647,-181 666.7016,-168.6274 664.2764,-156.808 683,-143 685.0996,-141.4516 687.3447,-139.9715 689.6563,-138.5699"/>
<polygon fill="#191970" stroke="#191970" points="691.6603,-141.4621 698.7344,-133.5749 688.2858,-135.3292 691.6603,-141.4621"/>
</g>
<!-- Node742 -->
<g id="node23" class="node">
<title>Node742</title>
<g id="a_node23"><a xlink:href="action_8h.html#a7561ff50b261f644feae225259c8b8f6" target="_top" xlink:title="act_init">
<polygon fill="none" stroke="#000000" points="832,-152.5 832,-171.5 880,-171.5 880,-152.5 832,-152.5"/>
<text text-anchor="middle" x="856" y="-159.5" font-family="Helvetica,sans-Serif" font-size="10.00" fill="#000000">act_init</text>
</a>
</g>
</g>
<!-- Node741&#45;&gt;Node742 -->
<g id="edge22" class="edge">
<title>Node741&#45;&gt;Node742</title>
<path fill="none" stroke="#191970" d="M745.5459,-162C766.74,-162 797.8623,-162 821.6739,-162"/>
<polygon fill="#191970" stroke="#191970" points="821.7088,-165.5001 831.7088,-162 821.7088,-158.5001 821.7088,-165.5001"/>
</g>
<!-- Node743 -->
<g id="node24" class="node">
<title>Node743</title>
<g id="a_node24"><a xlink:href="action_8c.html#ac235375c6dc54d6abca5efb0f50b1400" target="_top" xlink:title="Sets a classifier&#39;s action functions to the implementations. ">
<polygon fill="none" stroke="#000000" points="825,-114.5 825,-133.5 887,-133.5 887,-114.5 825,-114.5"/>
<text text-anchor="middle" x="856" y="-121.5" font-family="Helvetica,sans-Serif" font-size="10.00" fill="#000000">action_set</text>
</a>
</g>
</g>
<!-- Node741&#45;&gt;Node743 -->
<g id="edge23" class="edge">
<title>Node741&#45;&gt;Node743</title>
<path fill="none" stroke="#191970" d="M745.5459,-155.2064C764.7654,-149.7763 792.1493,-142.0396 814.842,-135.6283"/>
<polygon fill="#191970" stroke="#191970" points="815.8949,-138.9679 824.5665,-132.8808 813.9916,-132.2316 815.8949,-138.9679"/>
</g>
<!-- Node744 -->
<g id="node25" class="node">
<title>Node744</title>
<g id="a_node25"><a xlink:href="condition_8h.html#ac4e250ced4f7408df04ba9ac9f302c6e" target="_top" xlink:title="cond_init">
<polygon fill="none" stroke="#000000" points="828,-76.5 828,-95.5 884,-95.5 884,-76.5 828,-76.5"/>
<text text-anchor="middle" x="856" y="-83.5" font-family="Helvetica,sans-Serif" font-size="10.00" fill="#000000">cond_init</text>
</a>
</g>
</g>
<!-- Node741&#45;&gt;Node744 -->
<g id="edge24" class="edge">
<title>Node741&#45;&gt;Node744</title>
<path fill="none" stroke="#191970" d="M744.2656,-152.4251C749.6415,-149.7218 755.2009,-146.5391 760,-143 778.7236,-129.192 776.2835,-117.3488 796,-105 802.7715,-100.7589 810.57,-97.3904 818.2564,-94.7421"/>
<polygon fill="#191970" stroke="#191970" points="819.3363,-98.0717 827.8468,-91.7612 817.2586,-91.3872 819.3363,-98.0717"/>
</g>
<!-- Node745 -->
<g id="node26" class="node">
<title>Node745</title>
<g id="a_node26"><a xlink:href="condition_8c.html#aa485cf16f149e89aae83972b83b70596" target="_top" xlink:title="Sets a classifier&#39;s condition functions to the implementations. ">
<polygon fill="none" stroke="#000000" points="819,-38.5 819,-57.5 893,-57.5 893,-38.5 819,-38.5"/>
<text text-anchor="middle" x="856" y="-45.5" font-family="Helvetica,sans-Serif" font-size="10.00" fill="#000000">condition_set</text>
</a>
</g>
</g>
<!-- Node741&#45;&gt;Node745 -->
<g id="edge25" class="edge">
<title>Node741&#45;&gt;Node745</title>
<path fill="none" stroke="#191970" d="M745.5412,-153.2269C750.7551,-150.5265 755.9221,-147.1439 760,-143 786.2154,-116.36 767.8405,-91.576 796,-67 799.963,-63.5413 804.5573,-60.7115 809.4053,-58.3964"/>
<polygon fill="#191970" stroke="#191970" points="810.9777,-61.5362 818.9417,-54.5487 808.3585,-55.0447 810.9777,-61.5362"/>
</g>
<!-- Node746 -->
<g id="node27" class="node">
<title>Node746</title>
<g id="a_node27"><a xlink:href="prediction_8h.html#a32efd0b8ad0f4cbc72683c35c5e49afd" target="_top" xlink:title="pred_init">
<polygon fill="none" stroke="#000000" points="829.5,-228.5 829.5,-247.5 882.5,-247.5 882.5,-228.5 829.5,-228.5"/>
<text text-anchor="middle" x="856" y="-235.5" font-family="Helvetica,sans-Serif" font-size="10.00" fill="#000000">pred_init</text>
</a>
</g>
</g>
<!-- Node741&#45;&gt;Node746 -->
<g id="edge26" class="edge">
<title>Node741&#45;&gt;Node746</title>
<path fill="none" stroke="#191970" d="M744.2656,-171.5749C749.6415,-174.2782 755.2009,-177.4609 760,-181 778.7236,-194.808 776.2835,-206.6512 796,-219 803.1759,-223.4944 811.5052,-227.0088 819.6321,-229.7247"/>
<polygon fill="#191970" stroke="#191970" points="818.7692,-233.12 829.3537,-232.6537 820.7885,-226.4176 818.7692,-233.12"/>
</g>
<!-- Node747 -->
<g id="node28" class="node">
<title>Node747</title>
<g id="a_node28"><a xlink:href="prediction_8c.html#acc3389ac08ab3b032ab1223e3339be12" target="_top" xlink:title="Sets a classifier&#39;s prediction functions to the implementations. ">
<polygon fill="none" stroke="#000000" points="817.5,-190.5 817.5,-209.5 894.5,-209.5 894.5,-190.5 817.5,-190.5"/>
<text text-anchor="middle" x="856" y="-197.5" font-family="Helvetica,sans-Serif" font-size="10.00" fill="#000000">prediction_set</text>
</a>
</g>
</g>
<!-- Node741&#45;&gt;Node747 -->
<g id="edge27" class="edge">
<title>Node741&#45;&gt;Node747</title>
<path fill="none" stroke="#191970" d="M745.5459,-168.7936C764.0895,-174.0327 790.2333,-181.4191 812.431,-187.6906"/>
<polygon fill="#191970" stroke="#191970" points="811.7359,-191.1311 822.3108,-190.4819 813.6391,-184.3948 811.7359,-191.1311"/>
</g>
<!-- Node750 -->
<g id="node31" class="node">
<title>Node750</title>
<g id="a_node31"><a xlink:href="sam_8c.html#ac19f397e3c1bd2a2a4f4a1174509ac67" target="_top" xlink:title="Initialises a classifier&#39;s self&#45;adaptive mutation rates. ">
<polygon fill="none" stroke="#000000" points="695,-38.5 695,-57.5 748,-57.5 748,-38.5 695,-38.5"/>
<text text-anchor="middle" x="721.5" y="-45.5" font-family="Helvetica,sans-Serif" font-size="10.00" fill="#000000">sam_init</text>
</a>
</g>
</g>
<!-- Node749&#45;&gt;Node750 -->
<g id="edge30" class="edge">
<title>Node749&#45;&gt;Node750</title>
<path fill="none" stroke="#191970" d="M608.7021,-158.4416C620.7279,-155.6721 635.6029,-150.9221 647,-143 662.3371,-132.3393 692.4295,-90.4751 709.2975,-66.0234"/>
<polygon fill="#191970" stroke="#191970" points="712.2984,-67.8356 715.0564,-57.606 706.5211,-63.8829 712.2984,-67.8356"/>
</g>
<!-- Node751 -->
<g id="node32" class="node">
<title>Node751</title>
<g id="a_node32"><a xlink:href="sam_8c.html#a934d788eb57734b6118fff7385733803" target="_top" xlink:title="Resets a classifier&#39;s self&#45;adaptive mutation rates. ">
<polygon fill="none" stroke="#000000" points="825,-.5 825,-19.5 887,-19.5 887,-.5 825,-.5"/>
<text text-anchor="middle" x="856" y="-7.5" font-family="Helvetica,sans-Serif" font-size="10.00" fill="#000000">sam_reset</text>
</a>
</g>
</g>
<!-- Node750&#45;&gt;Node751 -->
<g id="edge31" class="edge">
<title>Node750&#45;&gt;Node751</title>
<path fill="none" stroke="#191970" d="M748.0729,-40.4924C767.1931,-35.0904 793.3403,-27.7031 815.1095,-21.5527"/>
<polygon fill="#191970" stroke="#191970" points="816.0909,-24.9125 824.7626,-18.8254 814.1877,-18.1762 816.0909,-24.9125"/>
</g>
<!-- Node752 -->
<g id="node33" class="node">
<title>Node752</title>
<g id="a_node33"><a xlink:href="sam_8c.html#a9b54bfbcf790a621afa925081a66941e" target="_top" xlink:title="Initialises log normal self&#45;adaptive mutation rates. ">
<polygon fill="none" stroke="#000000" points="1107,-38.5 1107,-57.5 1213,-57.5 1213,-38.5 1107,-38.5"/>
<text text-anchor="middle" x="1160" y="-45.5" font-family="Helvetica,sans-Serif" font-size="10.00" fill="#000000">sam_log_normal_init</text>
</a>
</g>
</g>
<!-- Node751&#45;&gt;Node752 -->
<g id="edge32" class="edge">
<title>Node751&#45;&gt;Node752</title>
<path fill="none" stroke="#191970" d="M887.4213,-17.0787C906.1004,-21.0712 930.3074,-25.8713 952,-29 1000.3058,-35.9672 1055.3128,-40.8602 1096.6219,-43.9343"/>
<polygon fill="#191970" stroke="#191970" points="1096.5888,-47.4411 1106.8167,-44.6768 1097.0974,-40.4596 1096.5888,-47.4411"/>
</g>
<!-- Node758 -->
<g id="node39" class="node">
<title>Node758</title>
<g id="a_node39"><a xlink:href="sam_8c.html#afa2d48bd3ec297da02c66bdbb554280b" target="_top" xlink:title="Initialises rate selection self&#45;adaptive mutation. ">
<polygon fill="none" stroke="#000000" points="952,-.5 952,-19.5 1071,-19.5 1071,-.5 952,-.5"/>
<text text-anchor="middle" x="1011.5" y="-7.5" font-family="Helvetica,sans-Serif" font-size="10.00" fill="#000000">sam_rate_selection_init</text>
</a>
</g>
</g>
<!-- Node751&#45;&gt;Node758 -->
<g id="edge38" class="edge">
<title>Node751&#45;&gt;Node758</title>
<path fill="none" stroke="#191970" d="M887.094,-10C902.7958,-10 922.5262,-10 941.6174,-10"/>
<polygon fill="#191970" stroke="#191970" points="941.8218,-13.5001 951.8218,-10 941.8217,-6.5001 941.8218,-13.5001"/>
</g>
<!-- Node753 -->
<g id="node34" class="node">
<title>Node753</title>
<g id="a_node34"><a xlink:href="utils_8c.html#ae42a9e1d467853befaa7922cfafed3bb" target="_top" xlink:title="Returns a uniform random float [min,max]. ">
<polygon fill="none" stroke="#000000" points="1249,-38.5 1249,-57.5 1322,-57.5 1322,-38.5 1249,-38.5"/>
<text text-anchor="middle" x="1285.5" y="-45.5" font-family="Helvetica,sans-Serif" font-size="10.00" fill="#000000">rand_uniform</text>
</a>
</g>
</g>
<!-- Node752&#45;&gt;Node753 -->
<g id="edge33" class="edge">
<title>Node752&#45;&gt;Node753</title>
<path fill="none" stroke="#191970" d="M1213.2233,-48C1221.6785,-48 1230.37,-48 1238.6643,-48"/>
<polygon fill="#191970" stroke="#191970" points="1238.9104,-51.5001 1248.9103,-48 1238.9103,-44.5001 1238.9104,-51.5001"/>
</g>
<!-- Node754 -->
<g id="node35" class="node">
<title>Node754</title>
<g id="a_node35"><a xlink:href="utils_8c.html#a101d27cdda714b7f17a06224c65cac56" target="_top" xlink:title="Returns a uniform random float [0,1]. ">
<polygon fill="none" stroke="#000000" points="1358,-38.5 1358,-57.5 1399,-57.5 1399,-38.5 1358,-38.5"/>
<text text-anchor="middle" x="1378.5" y="-45.5" font-family="Helvetica,sans-Serif" font-size="10.00" fill="#000000">drand</text>
</a>
</g>
</g>
<!-- Node753&#45;&gt;Node754 -->
<g id="edge34" class="edge">
<title>Node753&#45;&gt;Node754</title>
<path fill="none" stroke="#191970" d="M1322.2561,-48C1330.658,-48 1339.5043,-48 1347.63,-48"/>
<polygon fill="#191970" stroke="#191970" points="1347.799,-51.5001 1357.7989,-48 1347.7989,-44.5001 1347.799,-51.5001"/>
</g>
<!-- Node755 -->
<g id="node36" class="node">
<title>Node755</title>
<g id="a_node36"><a xlink:href="mt19937-64_8c.html#aa0b74daf51eca91df224d00f1730084a" target="_top" xlink:title="genrand64_real1">
<polygon fill="none" stroke="#000000" points="1435,-38.5 1435,-57.5 1523,-57.5 1523,-38.5 1435,-38.5"/>
<text text-anchor="middle" x="1479" y="-45.5" font-family="Helvetica,sans-Serif" font-size="10.00" fill="#000000">genrand64_real1</text>
</a>
</g>
</g>
<!-- Node754&#45;&gt;Node755 -->
<g id="edge35" class="edge">
<title>Node754&#45;&gt;Node755</title>
<path fill="none" stroke="#191970" d="M1399.3237,-48C1406.8428,-48 1415.7193,-48 1424.769,-48"/>
<polygon fill="#191970" stroke="#191970" points="1424.9969,-51.5001 1434.9969,-48 1424.9969,-44.5001 1424.9969,-51.5001"/>
</g>
<!-- Node756 -->
<g id="node37" class="node">
<title>Node756</title>
<g id="a_node37"><a xlink:href="mt19937-64_8c.html#a265bf48d20d6e0347371fcf4fe340e6d" target="_top" xlink:title="genrand64_int64">
<polygon fill="none" stroke="#000000" points="1559,-38.5 1559,-57.5 1647,-57.5 1647,-38.5 1559,-38.5"/>
<text text-anchor="middle" x="1603" y="-45.5" font-family="Helvetica,sans-Serif" font-size="10.00" fill="#000000">genrand64_int64</text>
</a>
</g>
</g>
<!-- Node755&#45;&gt;Node756 -->
<g id="edge36" class="edge">
<title>Node755&#45;&gt;Node756</title>
<path fill="none" stroke="#191970" d="M1523.0669,-48C1531.2822,-48 1539.957,-48 1548.4432,-48"/>
<polygon fill="#191970" stroke="#191970" points="1548.6572,-51.5001 1558.6572,-48 1548.6572,-44.5001 1548.6572,-51.5001"/>
</g>
<!-- Node757 -->
<g id="node38" class="node">
<title>Node757</title>
<g id="a_node38"><a xlink:href="mt19937-64_8c.html#adf4127d44c2dc34fcb318d406131ef7c" target="_top" xlink:title="init_genrand64">
<polygon fill="none" stroke="#000000" points="1683,-38.5 1683,-57.5 1763,-57.5 1763,-38.5 1683,-38.5"/>
<text text-anchor="middle" x="1723" y="-45.5" font-family="Helvetica,sans-Serif" font-size="10.00" fill="#000000">init_genrand64</text>
</a>
</g>
</g>
<!-- Node756&#45;&gt;Node757 -->
<g id="edge37" class="edge">
<title>Node756&#45;&gt;Node757</title>
<path fill="none" stroke="#191970" d="M1647.0022,-48C1655.3719,-48 1664.1896,-48 1672.7365,-48"/>
<polygon fill="#191970" stroke="#191970" points="1672.9792,-51.5001 1682.9792,-48 1672.9792,-44.5001 1672.9792,-51.5001"/>
</g>
<!-- Node759 -->
<g id="node40" class="node">
<title>Node759</title>
<g id="a_node40"><a xlink:href="utils_8c.html#a32648ab076544a9ac1c086d0f07b599f" target="_top" xlink:title="Returns a uniform random integer [min,max] not inclusive of max. ">
<polygon fill="none" stroke="#000000" points="1122.5,-.5 1122.5,-19.5 1197.5,-19.5 1197.5,-.5 1122.5,-.5"/>
<text text-anchor="middle" x="1160" y="-7.5" font-family="Helvetica,sans-Serif" font-size="10.00" fill="#000000">irand_uniform</text>
</a>
</g>
</g>
<!-- Node758&#45;&gt;Node759 -->
<g id="edge39" class="edge">
<title>Node758&#45;&gt;Node759</title>
<path fill="none" stroke="#191970" d="M1071.045,-10C1084.6704,-10 1098.9841,-10 1112.05,-10"/>
<polygon fill="#191970" stroke="#191970" points="1112.2241,-13.5001 1122.2241,-10 1112.2241,-6.5001 1112.2241,-13.5001"/>
</g>
<!-- Node759&#45;&gt;Node753 -->
<g id="edge40" class="edge">
<title>Node759&#45;&gt;Node753</title>
<path fill="none" stroke="#191970" d="M1191.6689,-19.589C1207.5725,-24.4044 1227.0396,-30.2988 1244.1114,-35.468"/>
<polygon fill="#191970" stroke="#191970" points="1243.256,-38.8658 1253.8412,-38.4141 1245.2846,-32.1662 1243.256,-38.8658"/>
</g>
<!-- Node762 -->
<g id="node43" class="node">
<title>Node762</title>
<g id="a_node43"><a xlink:href="clset_8c.html#a6dae2bd49bceef5337bcad19010098f8" target="_top" xlink:title="Deletes a single classifier from the population set. ">
<polygon fill="none" stroke="#000000" points="683,-266.5 683,-285.5 760,-285.5 760,-266.5 683,-266.5"/>
<text text-anchor="middle" x="721.5" y="-273.5" font-family="Helvetica,sans-Serif" font-size="10.00" fill="#000000">clset_pop_del</text>
</a>
</g>
</g>
<!-- Node761&#45;&gt;Node762 -->
<g id="edge44" class="edge">
<title>Node761&#45;&gt;Node762</title>
<path fill="none" stroke="#191970" d="M621.3139,-247.589C638.5326,-252.4719 659.6637,-258.4643 678.0733,-263.685"/>
<polygon fill="#191970" stroke="#191970" points="677.1214,-267.053 687.697,-266.4141 679.0312,-260.3185 677.1214,-267.053"/>
</g>
<!-- Node762&#45;&gt;Node737 -->
<g id="edge45" class="edge">
<title>Node762&#45;&gt;Node737</title>
<path fill="none" stroke="#191970" d="M738.4333,-285.6299C745.316,-289.7786 753.2265,-294.8541 760,-300 777.2832,-313.1303 777.2106,-322.1341 796,-333 802.3728,-336.6854 809.5471,-339.747 816.6596,-342.2578"/>
<polygon fill="#191970" stroke="#191970" points="815.6475,-345.6089 826.2391,-345.3472 817.7961,-338.9467 815.6475,-345.6089"/>
</g>
<!-- Node763 -->
<g id="node44" class="node">
<title>Node763</title>
<g id="a_node44"><a xlink:href="clset_8c.html#af899fada328f41ed56991a51fe80db17" target="_top" xlink:title="Finds a rule in the population that never matches an input. ">
<polygon fill="none" stroke="#000000" points="796,-266.5 796,-285.5 916,-285.5 916,-266.5 796,-266.5"/>
<text text-anchor="middle" x="856" y="-273.5" font-family="Helvetica,sans-Serif" font-size="10.00" fill="#000000">clset_pop_never_match</text>
</a>
</g>
</g>
<!-- Node762&#45;&gt;Node763 -->
<g id="edge46" class="edge">
<title>Node762&#45;&gt;Node763</title>
<path fill="none" stroke="#191970" d="M760.0423,-276C768.1639,-276 776.9732,-276 785.85,-276"/>
<polygon fill="#191970" stroke="#191970" points="785.8679,-279.5001 795.8678,-276 785.8678,-272.5001 785.8679,-279.5001"/>
</g>
<!-- Node764 -->
<g id="node45" class="node">
<title>Node764</title>
<g id="a_node45"><a xlink:href="clset_8c.html#a008502b88c280aa55bb9a3645216209c" target="_top" xlink:title="clset_pop_roulette">
<polygon fill="none" stroke="#000000" points="808,-304.5 808,-323.5 904,-323.5 904,-304.5 808,-304.5"/>
<text text-anchor="middle" x="856" y="-311.5" font-family="Helvetica,sans-Serif" font-size="10.00" fill="#000000">clset_pop_roulette</text>
</a>
</g>
</g>
<!-- Node762&#45;&gt;Node764 -->
<g id="edge47" class="edge">
<title>Node762&#45;&gt;Node764</title>
<path fill="none" stroke="#191970" d="M755.44,-285.589C772.7231,-290.4719 793.9329,-296.4643 812.4112,-301.685"/>
<polygon fill="#191970" stroke="#191970" points="811.4959,-305.0633 822.0708,-304.4141 813.3992,-298.327 811.4959,-305.0633"/>
</g>
<!-- Node764&#45;&gt;Node753 -->
<g id="edge54" class="edge">
<title>Node764&#45;&gt;Node753</title>
<path fill="none" stroke="#191970" d="M899.151,-304.4307C905.1583,-301.9631 910.9822,-298.8709 916,-295 939.7241,-276.6985 930.3369,-258.7 952,-238 1044.3383,-149.7671 1185.3457,-87.1519 1250.3904,-61.2516"/>
<polygon fill="#191970" stroke="#191970" points="1251.7651,-64.472 1259.7901,-57.5546 1249.2029,-57.9577 1251.7651,-64.472"/>
</g>
<!-- Node765 -->
<g id="node46" class="node">
<title>Node765</title>
<g id="a_node46"><a xlink:href="cl_8c.html#a49f5a7f4f2f47ce1cf7f33b3769de7cc" target="_top" xlink:title="Returns the size of the classifier condition. ">
<polygon fill="none" stroke="#000000" points="974.5,-285.5 974.5,-304.5 1048.5,-304.5 1048.5,-285.5 974.5,-285.5"/>
<text text-anchor="middle" x="1011.5" y="-292.5" font-family="Helvetica,sans-Serif" font-size="10.00" fill="#000000">cl_cond_size</text>
</a>
</g>
</g>
<!-- Node764&#45;&gt;Node765 -->
<g id="edge48" class="edge">
<title>Node764&#45;&gt;Node765</title>
<path fill="none" stroke="#191970" d="M904.3488,-308.0924C923.3054,-305.7762 944.9966,-303.1258 963.8818,-300.8183"/>
<polygon fill="#191970" stroke="#191970" points="964.5482,-304.263 974.0498,-299.5759 963.6991,-297.3147 964.5482,-304.263"/>
</g>
<!-- Node767 -->
<g id="node48" class="node">
<title>Node767</title>
<g id="a_node48"><a xlink:href="cl_8c.html#aa0059f455cba46b3a1acb6b8a271b95f" target="_top" xlink:title="Returns the deletion vote of the classifier. ">
<polygon fill="none" stroke="#000000" points="978.5,-247.5 978.5,-266.5 1044.5,-266.5 1044.5,-247.5 978.5,-247.5"/>
<text text-anchor="middle" x="1011.5" y="-254.5" font-family="Helvetica,sans-Serif" font-size="10.00" fill="#000000">cl_del_vote</text>
</a>
</g>
</g>
<!-- Node764&#45;&gt;Node767 -->
<g id="edge50" class="edge">
<title>Node764&#45;&gt;Node767</title>
<path fill="none" stroke="#191970" d="M889.7059,-304.491C898.3849,-301.7269 907.6334,-298.4994 916,-295 932.6905,-288.019 935.3179,-283.0012 952,-276 957.3806,-273.7418 963.1283,-271.5935 968.8509,-269.6086"/>
<polygon fill="#191970" stroke="#191970" points="970.0072,-272.9126 978.3888,-266.4319 967.7951,-266.2712 970.0072,-272.9126"/>
</g>
<!-- Node768 -->
<g id="node49" class="node">
<title>Node768</title>
<g id="a_node49"><a xlink:href="cl_8c.html#a72d3cf213699a8d68d348ff75c2b2d49" target="_top" xlink:title="Returns the size of the classifier prediction. ">
<polygon fill="none" stroke="#000000" points="976,-361.5 976,-380.5 1047,-380.5 1047,-361.5 976,-361.5"/>
<text text-anchor="middle" x="1011.5" y="-368.5" font-family="Helvetica,sans-Serif" font-size="10.00" fill="#000000">cl_pred_size</text>
</a>
</g>
</g>
<!-- Node764&#45;&gt;Node768 -->
<g id="edge51" class="edge">
<title>Node764&#45;&gt;Node768</title>
<path fill="none" stroke="#191970" d="M889.7059,-323.509C898.3849,-326.2731 907.6334,-329.5006 916,-333 932.6905,-339.981 935.3179,-344.9988 952,-352 957.1869,-354.1769 962.7149,-356.2517 968.2327,-358.1764"/>
<polygon fill="#191970" stroke="#191970" points="967.4841,-361.6165 978.0779,-361.4684 969.704,-354.9778 967.4841,-361.6165"/>
</g>
<!-- Node770 -->
<g id="node51" class="node">
<title>Node770</title>
<g id="a_node51"><a xlink:href="clset_8c.html#a9a50c1393921d731b6840a654c366fb8" target="_top" xlink:title="Calculates the total fitness of classifiers in the set. ">
<polygon fill="none" stroke="#000000" points="974,-323.5 974,-342.5 1049,-342.5 1049,-323.5 974,-323.5"/>
<text text-anchor="middle" x="1011.5" y="-330.5" font-family="Helvetica,sans-Serif" font-size="10.00" fill="#000000">clset_total_fit</text>
</a>
</g>
</g>
<!-- Node764&#45;&gt;Node770 -->
<g id="edge53" class="edge">
<title>Node764&#45;&gt;Node770</title>
<path fill="none" stroke="#191970" d="M904.3488,-319.9076C923.1549,-322.2054 944.6524,-324.8321 963.4317,-327.1267"/>
<polygon fill="#191970" stroke="#191970" points="963.1999,-330.6243 973.5506,-328.3631 964.0489,-323.676 963.1999,-330.6243"/>
</g>
<!-- Node766 -->
<g id="node47" class="node">
<title>Node766</title>
<g id="a_node47"><a xlink:href="condition_8h.html#afc882c8ebd96835127f8e611b815d447" target="_top" xlink:title="cond_size">
<polygon fill="none" stroke="#000000" points="1129.5,-285.5 1129.5,-304.5 1190.5,-304.5 1190.5,-285.5 1129.5,-285.5"/>
<text text-anchor="middle" x="1160" y="-292.5" font-family="Helvetica,sans-Serif" font-size="10.00" fill="#000000">cond_size</text>
</a>
</g>
</g>
<!-- Node765&#45;&gt;Node766 -->
<g id="edge49" class="edge">
<title>Node765&#45;&gt;Node766</title>
<path fill="none" stroke="#191970" d="M1048.5898,-295C1070.0968,-295 1097.2084,-295 1119.3015,-295"/>
<polygon fill="#191970" stroke="#191970" points="1119.3785,-298.5001 1129.3784,-295 1119.3784,-291.5001 1119.3785,-298.5001"/>
</g>
<!-- Node769 -->
<g id="node50" class="node">
<title>Node769</title>
<g id="a_node50"><a xlink:href="prediction_8h.html#a60ead673b526125328224ec152916290" target="_top" xlink:title="pred_size">
<polygon fill="none" stroke="#000000" points="1130.5,-361.5 1130.5,-380.5 1189.5,-380.5 1189.5,-361.5 1130.5,-361.5"/>
<text text-anchor="middle" x="1160" y="-368.5" font-family="Helvetica,sans-Serif" font-size="10.00" fill="#000000">pred_size</text>
</a>
</g>
</g>
<!-- Node768&#45;&gt;Node769 -->
<g id="edge52" class="edge">
<title>Node768&#45;&gt;Node769</title>
<path fill="none" stroke="#191970" d="M1047.0694,-371C1069.0946,-371 1097.42,-371 1120.1925,-371"/>
<polygon fill="#191970" stroke="#191970" points="1120.2222,-374.5001 1130.2222,-371 1120.2222,-367.5001 1120.2222,-374.5001"/>
</g>
<!-- Node773 -->
<g id="node54" class="node">
<title>Node773</title>
<g id="a_node54"><a xlink:href="cl_8c.html#a2e37895c1cc585b83805af74061afa46" target="_top" xlink:title="Computes the current classifier payoff prediction using the input. ">
<polygon fill="none" stroke="#000000" points="429,-5.5 429,-24.5 488,-24.5 488,-5.5 429,-5.5"/>
<text text-anchor="middle" x="458.5" y="-12.5" font-family="Helvetica,sans-Serif" font-size="10.00" fill="#000000">cl_predict</text>
</a>
</g>
</g>
<!-- Node772&#45;&gt;Node773 -->
<g id="edge57" class="edge">
<title>Node772&#45;&gt;Node773</title>
<path fill="none" stroke="#191970" d="M371.727,-62.3307C388.2655,-53.3097 413.1567,-39.7327 432.0447,-29.4302"/>
<polygon fill="#191970" stroke="#191970" points="433.9318,-32.3877 441.0348,-24.5265 430.5798,-26.2424 433.9318,-32.3877"/>
</g>
<!-- Node774 -->
<g id="node55" class="node">
<title>Node774</title>
<g id="a_node55"><a xlink:href="prediction_8h.html#a98a959a3e1a7e5e353c39a561efd666c" target="_top" xlink:title="pred_compute">
<polygon fill="none" stroke="#000000" points="548.5,-.5 548.5,-19.5 626.5,-19.5 626.5,-.5 548.5,-.5"/>
<text text-anchor="middle" x="587.5" y="-7.5" font-family="Helvetica,sans-Serif" font-size="10.00" fill="#000000">pred_compute</text>
</a>
</g>
</g>
<!-- Node773&#45;&gt;Node774 -->
<g id="edge58" class="edge">
<title>Node773&#45;&gt;Node774</title>
<path fill="none" stroke="#191970" d="M488.0952,-13.8529C502.8793,-13.2799 521.1644,-12.5711 538.0048,-11.9184"/>
<polygon fill="#191970" stroke="#191970" points="538.4025,-15.4057 548.2594,-11.521 538.1313,-8.411 538.4025,-15.4057"/>
</g>
</g>
</svg>
