<?xml version="1.0" encoding="UTF-8" standalone="no"?>
<!DOCTYPE svg PUBLIC "-//W3C//DTD SVG 1.1//EN"
 "http://www.w3.org/Graphics/SVG/1.1/DTD/svg11.dtd">
<!-- Generated by graphviz version 2.40.1 (20161225.0304)
 -->
<!-- Title: LAYER Pages: 1 -->
<svg width="135pt" height="95pt"
 viewBox="0.00 0.00 135.42 95.00" xmlns="http://www.w3.org/2000/svg" xmlns:xlink="http://www.w3.org/1999/xlink">
<g id="graph0" class="graph" transform="scale(1 1) rotate(0) translate(4 91)">
<title>LAYER</title>
<!-- Node1 -->
<g id="node1" class="node">
<title>Node1</title>
<polygon fill="#bfbfbf" stroke="#000000" points="28.4243,-67.5 28.4243,-86.5 78.4243,-86.5 78.4243,-67.5 28.4243,-67.5"/>
<text text-anchor="middle" x="53.4243" y="-74.5" font-family="Helvetica,sans-Serif" font-size="10.00" fill="#000000">LAYER</text>
</g>
<!-- Node2 -->
<g id="node2" class="node">
<title>Node2</title>
<g id="a_node2"><a xlink:href="structLayerVtbl.html" target="_top" xlink:title="Neural network layer interface data structure. ">
<polygon fill="none" stroke="#000000" points="24.4243,-.5 24.4243,-19.5 82.4243,-19.5 82.4243,-.5 24.4243,-.5"/>
<text text-anchor="middle" x="53.4243" y="-7.5" font-family="Helvetica,sans-Serif" font-size="10.00" fill="#000000">LayerVtbl</text>
</a>
</g>
</g>
<!-- Node1&#45;&gt;Node2 -->
<g id="edge2" class="edge">
<title>Node1&#45;&gt;Node2</title>
<path fill="none" stroke="#9a32cd" stroke-dasharray="5,2" d="M19.1203,-64.7855C12.4671,-60.8005 6.35,-55.6337 2.4243,-49 -5.1256,-36.242 8.9348,-26.2137 24.189,-19.5224"/>
<polygon fill="#9a32cd" stroke="#9a32cd" points="17.8726,-68.0785 28.3697,-69.514 21.0589,-61.8457 17.8726,-68.0785"/>
<text text-anchor="middle" x="39.4243" y="-41" font-family="Helvetica,sans-Serif" font-size="10.00" fill="#000000"> layer_impl_copy</text>
</g>
<!-- Node2&#45;&gt;Node1 -->
<g id="edge1" class="edge">
<title>Node2&#45;&gt;Node1</title>
<path fill="none" stroke="#9a32cd" stroke-dasharray="5,2" d="M74.149,-26.6159C79.8116,-33.2085 83.6143,-41.0961 80.4243,-49 77.543,-56.1389 71.8737,-62.4722 66.4708,-67.3017"/>
<polygon fill="#9a32cd" stroke="#9a32cd" points="76.5412,-24.0596 66.9548,-19.5483 71.6356,-29.0531 76.5412,-24.0596"/>
<text text-anchor="middle" x="104.4243" y="-41" font-family="Helvetica,sans-Serif" font-size="10.00" fill="#000000"> layer_vptr</text>
</g>
</g>
</svg>
