<?xml version="1.0" encoding="UTF-8" standalone="no"?>
<!DOCTYPE svg PUBLIC "-//W3C//DTD SVG 1.1//EN"
 "http://www.w3.org/Graphics/SVG/1.1/DTD/svg11.dtd">
<!-- Generated by graphviz version 2.40.1 (20161225.0304)
 -->
<!-- Title: XCS::get_pop_mean_pred_neurons Pages: 1 -->
<svg width="425pt" height="39pt"
 viewBox="0.00 0.00 425.00 39.00" xmlns="http://www.w3.org/2000/svg" xmlns:xlink="http://www.w3.org/1999/xlink">
<g id="graph0" class="graph" transform="scale(1 1) rotate(0) translate(4 35)">
<title>XCS::get_pop_mean_pred_neurons</title>
<!-- Node447 -->
<g id="node1" class="node">
<title>Node447</title>
<polygon fill="#bfbfbf" stroke="#000000" points="0,-.5 0,-30.5 131,-30.5 131,-.5 0,-.5"/>
<text text-anchor="start" x="8" y="-18.5" font-family="Helvetica,sans-Serif" font-size="10.00" fill="#000000">XCS::get_pop_mean_pred</text>
<text text-anchor="middle" x="65.5" y="-7.5" font-family="Helvetica,sans-Serif" font-size="10.00" fill="#000000">_neurons</text>
</g>
<!-- Node448 -->
<g id="node2" class="node">
<title>Node448</title>
<g id="a_node2"><a xlink:href="clset_8c.html#aec15f8785c4988e8f2dcfcf48eb38c43" target="_top" xlink:title="Calculates the mean number of prediction neurons for a given layer. ">
<polygon fill="none" stroke="#000000" points="167,-6 167,-25 274,-25 274,-6 167,-6"/>
<text text-anchor="middle" x="220.5" y="-13" font-family="Helvetica,sans-Serif" font-size="10.00" fill="#000000">clset_mean_neurons</text>
</a>
</g>
</g>
<!-- Node447&#45;&gt;Node448 -->
<g id="edge1" class="edge">
<title>Node447&#45;&gt;Node448</title>
<path fill="none" stroke="#191970" d="M131.234,-15.5C139.6809,-15.5 148.3189,-15.5 156.7336,-15.5"/>
<polygon fill="#191970" stroke="#191970" points="156.8593,-19.0001 166.8593,-15.5 156.8593,-12.0001 156.8593,-19.0001"/>
</g>
<!-- Node449 -->
<g id="node3" class="node">
<title>Node449</title>
<g id="a_node3"><a xlink:href="pred__neural_8c.html#af97a80e730d0f379ad6bd5a7a1ed1326" target="_top" xlink:title="pred_neural_neurons">
<polygon fill="none" stroke="#000000" points="310,-6 310,-25 417,-25 417,-6 310,-6"/>
<text text-anchor="middle" x="363.5" y="-13" font-family="Helvetica,sans-Serif" font-size="10.00" fill="#000000">pred_neural_neurons</text>
</a>
</g>
</g>
<!-- Node448&#45;&gt;Node449 -->
<g id="edge2" class="edge">
<title>Node448&#45;&gt;Node449</title>
<path fill="none" stroke="#191970" d="M274.1548,-15.5C282.3808,-15.5 290.9436,-15.5 299.3684,-15.5"/>
<polygon fill="#191970" stroke="#191970" points="299.5445,-19.0001 309.5445,-15.5 299.5445,-12.0001 299.5445,-19.0001"/>
</g>
</g>
</svg>
