<?xml version="1.0" encoding="UTF-8" standalone="no"?>
<!DOCTYPE svg PUBLIC "-//W3C//DTD SVG 1.1//EN"
 "http://www.w3.org/Graphics/SVG/1.1/DTD/svg11.dtd">
<!-- Generated by graphviz version 2.40.1 (20161225.0304)
 -->
<!-- Title: XCS::single_decision Pages: 1 -->
<svg width="1751pt" height="636pt"
 viewBox="0.00 0.00 1751.00 636.00" xmlns="http://www.w3.org/2000/svg" xmlns:xlink="http://www.w3.org/1999/xlink">
<g id="graph0" class="graph" transform="scale(1 1) rotate(0) translate(4 632)">
<title>XCS::single_decision</title>
<!-- Node1004 -->
<g id="node1" class="node">
<title>Node1004</title>
<polygon fill="#bfbfbf" stroke="#000000" points="0,-95.5 0,-114.5 110,-114.5 110,-95.5 0,-95.5"/>
<text text-anchor="middle" x="55" y="-102.5" font-family="Helvetica,sans-Serif" font-size="10.00" fill="#000000">XCS::single_decision</text>
</g>
<!-- Node1005 -->
<g id="node2" class="node">
<title>Node1005</title>
<g id="a_node2"><a xlink:href="xcs__single__step_8c.html#ae25a81ce7f997ab7167ab23daec18183" target="_top" xlink:title="Constructs the match set and selects an action to perform. ">
<polygon fill="none" stroke="#000000" points="146,-95.5 146,-114.5 250,-114.5 250,-95.5 146,-95.5"/>
<text text-anchor="middle" x="198" y="-102.5" font-family="Helvetica,sans-Serif" font-size="10.00" fill="#000000">xcs_single_decision</text>
</a>
</g>
</g>
<!-- Node1004&#45;&gt;Node1005 -->
<g id="edge1" class="edge">
<title>Node1004&#45;&gt;Node1005</title>
<path fill="none" stroke="#191970" d="M110.2875,-105C118.5571,-105 127.1321,-105 135.5378,-105"/>
<polygon fill="#191970" stroke="#191970" points="135.6749,-108.5001 145.6749,-105 135.6749,-101.5001 135.6749,-108.5001"/>
</g>
<!-- Node1006 -->
<g id="node3" class="node">
<title>Node1006</title>
<g id="a_node3"><a xlink:href="clset_8c.html#a460e3bd1d979c502e9e9d97d4253f97c" target="_top" xlink:title="Constructs the match set. ">
<polygon fill="none" stroke="#000000" points="292.5,-475.5 292.5,-494.5 362.5,-494.5 362.5,-475.5 292.5,-475.5"/>
<text text-anchor="middle" x="327.5" y="-482.5" font-family="Helvetica,sans-Serif" font-size="10.00" fill="#000000">clset_match</text>
</a>
</g>
</g>
<!-- Node1005&#45;&gt;Node1006 -->
<g id="edge2" class="edge">
<title>Node1005&#45;&gt;Node1006</title>
<path fill="none" stroke="#191970" d="M201.3313,-114.7752C218.5424,-165.2789 297.4906,-396.9416 320.9244,-465.7047"/>
<polygon fill="#191970" stroke="#191970" points="317.652,-466.953 324.1907,-475.2895 324.2779,-464.695 317.652,-466.953"/>
</g>
<!-- Node1028 -->
<g id="node25" class="node">
<title>Node1028</title>
<g id="a_node25"><a xlink:href="utils_8c.html#ae42a9e1d467853befaa7922cfafed3bb" target="_top" xlink:title="Returns a uniform random float [min,max]. ">
<polygon fill="none" stroke="#000000" points="1229,-209.5 1229,-228.5 1302,-228.5 1302,-209.5 1229,-209.5"/>
<text text-anchor="middle" x="1265.5" y="-216.5" font-family="Helvetica,sans-Serif" font-size="10.00" fill="#000000">rand_uniform</text>
</a>
</g>
</g>
<!-- Node1005&#45;&gt;Node1028 -->
<g id="edge55" class="edge">
<title>Node1005&#45;&gt;Node1028</title>
<path fill="none" stroke="#191970" d="M250.4513,-111.5387C299.109,-117.0347 373.5805,-124 438.5,-124 438.5,-124 438.5,-124 991.5,-124 1088.2956,-124 1194.2395,-177.5795 1240.9989,-204.2625"/>
<polygon fill="#191970" stroke="#191970" points="1239.3921,-207.3767 1249.7981,-209.3681 1242.9052,-201.322 1239.3921,-207.3767"/>
</g>
<!-- Node1047 -->
<g id="node44" class="node">
<title>Node1047</title>
<g id="a_node44"><a xlink:href="clset_8c.html#ab6ceafb49b749c1e063e83b31945bceb" target="_top" xlink:title="Returns the fraction of inputs matched by the most general rule with error below EPS_0. If no rules below EPS_0, the lowest error rule is used. ">
<polygon fill="none" stroke="#000000" points="293.5,-76.5 293.5,-95.5 361.5,-95.5 361.5,-76.5 293.5,-76.5"/>
<text text-anchor="middle" x="327.5" y="-83.5" font-family="Helvetica,sans-Serif" font-size="10.00" fill="#000000">clset_mfrac</text>
</a>
</g>
</g>
<!-- Node1005&#45;&gt;Node1047 -->
<g id="edge47" class="edge">
<title>Node1005&#45;&gt;Node1047</title>
<path fill="none" stroke="#191970" d="M250.2993,-97.3267C261.1448,-95.7355 272.4746,-94.0732 283.0088,-92.5277"/>
<polygon fill="#191970" stroke="#191970" points="283.8445,-95.9426 293.2305,-91.028 282.8283,-89.0168 283.8445,-95.9426"/>
</g>
<!-- Node1049 -->
<g id="node46" class="node">
<title>Node1049</title>
<g id="a_node46"><a xlink:href="pa_8c.html#ac934537ad2bbae81042677d1a03e5ee4" target="_top" xlink:title="Returns the best action in the prediction array. ">
<polygon fill="none" stroke="#000000" points="286,-38.5 286,-57.5 369,-57.5 369,-38.5 286,-38.5"/>
<text text-anchor="middle" x="327.5" y="-45.5" font-family="Helvetica,sans-Serif" font-size="10.00" fill="#000000">pa_best_action</text>
</a>
</g>
</g>
<!-- Node1005&#45;&gt;Node1049 -->
<g id="edge49" class="edge">
<title>Node1005&#45;&gt;Node1049</title>
<path fill="none" stroke="#191970" d="M219.6754,-95.4595C240.6856,-86.2117 272.7696,-72.0898 296.4809,-61.6532"/>
<polygon fill="#191970" stroke="#191970" points="298.0113,-64.8037 305.7539,-57.5716 295.1912,-58.3969 298.0113,-64.8037"/>
</g>
<!-- Node1050 -->
<g id="node47" class="node">
<title>Node1050</title>
<g id="a_node47"><a xlink:href="pa_8c.html#a7709f55993f14e74995a7495fbea2474" target="_top" xlink:title="Builds the prediction array for the specified input. ">
<polygon fill="none" stroke="#000000" points="301,-.5 301,-19.5 354,-19.5 354,-.5 301,-.5"/>
<text text-anchor="middle" x="327.5" y="-7.5" font-family="Helvetica,sans-Serif" font-size="10.00" fill="#000000">pa_build</text>
</a>
</g>
</g>
<!-- Node1005&#45;&gt;Node1050 -->
<g id="edge50" class="edge">
<title>Node1005&#45;&gt;Node1050</title>
<path fill="none" stroke="#191970" d="M207.5505,-95.1093C222.9586,-79.5514 254.7459,-49.0705 286,-29 288.7337,-27.2445 291.6563,-25.5639 294.6371,-23.9793"/>
<polygon fill="#191970" stroke="#191970" points="296.2117,-27.1053 303.6235,-19.5346 293.1082,-20.8308 296.2117,-27.1053"/>
</g>
<!-- Node1053 -->
<g id="node50" class="node">
<title>Node1053</title>
<g id="a_node50"><a xlink:href="pa_8c.html#a729cd032e57cbcdbf1c44b9cc3c23227" target="_top" xlink:title="Returns a random action from the prediction array. ">
<polygon fill="none" stroke="#000000" points="286,-152.5 286,-171.5 369,-171.5 369,-152.5 286,-152.5"/>
<text text-anchor="middle" x="327.5" y="-159.5" font-family="Helvetica,sans-Serif" font-size="10.00" fill="#000000">pa_rand_action</text>
</a>
</g>
</g>
<!-- Node1005&#45;&gt;Node1053 -->
<g id="edge53" class="edge">
<title>Node1005&#45;&gt;Node1053</title>
<path fill="none" stroke="#191970" d="M219.6754,-114.5405C240.6856,-123.7883 272.7696,-137.9102 296.4809,-148.3468"/>
<polygon fill="#191970" stroke="#191970" points="295.1912,-151.6031 305.7539,-152.4284 298.0113,-145.1963 295.1912,-151.6031"/>
</g>
<!-- Node1007 -->
<g id="node4" class="node">
<title>Node1007</title>
<g id="a_node4"><a xlink:href="cl_8c.html#a03bd37ba4e5697866192d6f643a50de3" target="_top" xlink:title="Computes the current classifier action using the input. ">
<polygon fill="none" stroke="#000000" points="410.5,-323.5 410.5,-342.5 466.5,-342.5 466.5,-323.5 410.5,-323.5"/>
<text text-anchor="middle" x="438.5" y="-330.5" font-family="Helvetica,sans-Serif" font-size="10.00" fill="#000000">cl_action</text>
</a>
</g>
</g>
<!-- Node1006&#45;&gt;Node1007 -->
<g id="edge3" class="edge">
<title>Node1006&#45;&gt;Node1007</title>
<path fill="none" stroke="#191970" d="M334.4435,-475.4917C352.6646,-450.5404 402.0639,-382.8945 425.6412,-350.6085"/>
<polygon fill="#191970" stroke="#191970" points="428.4881,-352.6447 431.5591,-342.5047 422.835,-348.5164 428.4881,-352.6447"/>
</g>
<!-- Node1009 -->
<g id="node6" class="node">
<title>Node1009</title>
<g id="a_node6"><a xlink:href="cl_8c.html#ad26f65e65f9785ce44ece9979362d889" target="_top" xlink:title="Returns whether the classifier matched the most recent input. ">
<polygon fill="none" stroke="#000000" points="419.5,-608.5 419.5,-627.5 457.5,-627.5 457.5,-608.5 419.5,-608.5"/>
<text text-anchor="middle" x="438.5" y="-615.5" font-family="Helvetica,sans-Serif" font-size="10.00" fill="#000000">cl_m</text>
</a>
</g>
</g>
<!-- Node1006&#45;&gt;Node1009 -->
<g id="edge5" class="edge">
<title>Node1006&#45;&gt;Node1009</title>
<path fill="none" stroke="#191970" d="M332.1079,-494.6369C342.5775,-515.7382 369.9862,-566.7176 405,-599 406.7174,-600.5835 408.5901,-602.0886 410.5435,-603.5073"/>
<polygon fill="#191970" stroke="#191970" points="409.0805,-606.7253 419.3945,-609.1485 412.8428,-600.8223 409.0805,-606.7253"/>
</g>
<!-- Node1010 -->
<g id="node7" class="node">
<title>Node1010</title>
<g id="a_node7"><a xlink:href="cl_8c.html#af5a666538852ce0406d5d8ad933f92f7" target="_top" xlink:title="Calculates whether the classifier matches the input. ">
<polygon fill="none" stroke="#000000" points="410.5,-570.5 410.5,-589.5 466.5,-589.5 466.5,-570.5 410.5,-570.5"/>
<text text-anchor="middle" x="438.5" y="-577.5" font-family="Helvetica,sans-Serif" font-size="10.00" fill="#000000">cl_match</text>
</a>
</g>
</g>
<!-- Node1006&#45;&gt;Node1010 -->
<g id="edge6" class="edge">
<title>Node1006&#45;&gt;Node1010</title>
<path fill="none" stroke="#191970" d="M337.192,-494.5853C351.5412,-508.6108 379.4944,-535.3046 405,-556 408.4376,-558.7893 412.1704,-561.6322 415.8551,-564.34"/>
<polygon fill="#191970" stroke="#191970" points="414.0365,-567.3428 424.2032,-570.324 418.1146,-561.6534 414.0365,-567.3428"/>
</g>
<!-- Node1012 -->
<g id="node9" class="node">
<title>Node1012</title>
<g id="a_node9"><a xlink:href="clset_8c.html#a73ab8d4cc3a3e4f70561c7f5bf20c265" target="_top" xlink:title="Adds a classifier to the set. ">
<polygon fill="none" stroke="#000000" points="806.5,-532.5 806.5,-551.5 865.5,-551.5 865.5,-532.5 806.5,-532.5"/>
<text text-anchor="middle" x="836" y="-539.5" font-family="Helvetica,sans-Serif" font-size="10.00" fill="#000000">clset_add</text>
</a>
</g>
</g>
<!-- Node1006&#45;&gt;Node1012 -->
<g id="edge8" class="edge">
<title>Node1006&#45;&gt;Node1012</title>
<path fill="none" stroke="#191970" d="M362.7307,-490.4345C399.0772,-495.9566 457.4321,-504.5868 508,-511 576.7513,-519.7193 594.0105,-521.4266 663,-528 708.5346,-532.3386 760.8955,-536.4544 795.9774,-539.0861"/>
<polygon fill="#191970" stroke="#191970" points="796.0511,-542.6012 806.2835,-539.8538 796.5712,-535.6206 796.0511,-542.6012"/>
</g>
<!-- Node1013 -->
<g id="node10" class="node">
<title>Node1013</title>
<g id="a_node10"><a xlink:href="clset_8c.html#afc4b91ff72294195a5462944b92ec9b2" target="_top" xlink:title="Ensures all possible actions are covered by the match set. ">
<polygon fill="none" stroke="#000000" points="405,-418.5 405,-437.5 472,-437.5 472,-418.5 405,-418.5"/>
<text text-anchor="middle" x="438.5" y="-425.5" font-family="Helvetica,sans-Serif" font-size="10.00" fill="#000000">clset_cover</text>
</a>
</g>
</g>
<!-- Node1006&#45;&gt;Node1013 -->
<g id="edge9" class="edge">
<title>Node1006&#45;&gt;Node1013</title>
<path fill="none" stroke="#191970" d="M346.0789,-475.4595C363.7675,-466.3761 390.6134,-452.5904 410.8215,-442.2133"/>
<polygon fill="#191970" stroke="#191970" points="412.5636,-445.2532 419.8605,-437.5716 409.366,-439.0263 412.5636,-445.2532"/>
</g>
<!-- Node1008 -->
<g id="node5" class="node">
<title>Node1008</title>
<g id="a_node5"><a xlink:href="action_8h.html#aab6ebb454826f8e9425efc0ed2917023" target="_top" xlink:title="act_compute">
<polygon fill="none" stroke="#000000" points="531,-266.5 531,-285.5 604,-285.5 604,-266.5 531,-266.5"/>
<text text-anchor="middle" x="567.5" y="-273.5" font-family="Helvetica,sans-Serif" font-size="10.00" fill="#000000">act_compute</text>
</a>
</g>
</g>
<!-- Node1007&#45;&gt;Node1008 -->
<g id="edge4" class="edge">
<title>Node1007&#45;&gt;Node1008</title>
<path fill="none" stroke="#191970" d="M454.0779,-323.3563C467.8872,-315.084 488.786,-303.2307 508,-295 513.1084,-292.8117 518.5562,-290.7381 524.0026,-288.8209"/>
<polygon fill="#191970" stroke="#191970" points="525.3691,-292.054 533.7312,-285.5481 523.1371,-285.4194 525.3691,-292.054"/>
</g>
<!-- Node1011 -->
<g id="node8" class="node">
<title>Node1011</title>
<g id="a_node8"><a xlink:href="condition_8h.html#a921ad37edd9a0af1c245bd9a490e3527" target="_top" xlink:title="cond_match">
<polygon fill="none" stroke="#000000" points="532.5,-570.5 532.5,-589.5 602.5,-589.5 602.5,-570.5 532.5,-570.5"/>
<text text-anchor="middle" x="567.5" y="-577.5" font-family="Helvetica,sans-Serif" font-size="10.00" fill="#000000">cond_match</text>
</a>
</g>
</g>
<!-- Node1010&#45;&gt;Node1011 -->
<g id="edge7" class="edge">
<title>Node1010&#45;&gt;Node1011</title>
<path fill="none" stroke="#191970" d="M466.8096,-580C483.0046,-580 503.7001,-580 522.1118,-580"/>
<polygon fill="#191970" stroke="#191970" points="522.3488,-583.5001 532.3487,-580 522.3487,-576.5001 522.3488,-583.5001"/>
</g>
<!-- Node1013&#45;&gt;Node1012 -->
<g id="edge33" class="edge">
<title>Node1013&#45;&gt;Node1012</title>
<path fill="none" stroke="#191970" d="M447.3038,-437.8697C459.5439,-450.9109 483.0296,-473.5637 508,-485 533.8998,-496.862 714.4355,-524.2589 796.073,-536.2285"/>
<polygon fill="#191970" stroke="#191970" points="796.047,-539.7618 806.448,-537.7447 797.0592,-532.8354 796.047,-539.7618"/>
</g>
<!-- Node1014 -->
<g id="node11" class="node">
<title>Node1014</title>
<g id="a_node11"><a xlink:href="cl_8c.html#a502630fa339b234b42b9b859a8c70986" target="_top" xlink:title="Covers the condition and action for a classifier. ">
<polygon fill="none" stroke="#000000" points="541,-418.5 541,-437.5 594,-437.5 594,-418.5 541,-418.5"/>
<text text-anchor="middle" x="567.5" y="-425.5" font-family="Helvetica,sans-Serif" font-size="10.00" fill="#000000">cl_cover</text>
</a>
</g>
</g>
<!-- Node1013&#45;&gt;Node1014 -->
<g id="edge10" class="edge">
<title>Node1013&#45;&gt;Node1014</title>
<path fill="none" stroke="#191970" d="M472.0565,-428C489.9877,-428 512.1003,-428 530.5247,-428"/>
<polygon fill="#191970" stroke="#191970" points="530.6083,-431.5001 540.6083,-428 530.6082,-424.5001 530.6083,-431.5001"/>
</g>
<!-- Node1024 -->
<g id="node21" class="node">
<title>Node1024</title>
<g id="a_node21"><a xlink:href="cl_8c.html#ab45c6f772a335d0a4fdb753a61958744" target="_top" xlink:title="Initialises a new classifier. ">
<polygon fill="none" stroke="#000000" points="546.5,-304.5 546.5,-323.5 588.5,-323.5 588.5,-304.5 546.5,-304.5"/>
<text text-anchor="middle" x="567.5" y="-311.5" font-family="Helvetica,sans-Serif" font-size="10.00" fill="#000000">cl_init</text>
</a>
</g>
</g>
<!-- Node1013&#45;&gt;Node1024 -->
<g id="edge20" class="edge">
<title>Node1013&#45;&gt;Node1024</title>
<path fill="none" stroke="#191970" d="M442.9497,-418.3555C452.2648,-399.2186 475.6638,-356.2879 508,-333 516.4247,-326.9327 526.8701,-322.7461 536.6465,-319.8822"/>
<polygon fill="#191970" stroke="#191970" points="537.6666,-323.2338 546.4795,-317.353 535.9228,-316.4544 537.6666,-323.2338"/>
</g>
<!-- Node1035 -->
<g id="node32" class="node">
<title>Node1035</title>
<g id="a_node32"><a xlink:href="clset_8c.html#a1be391cf8ecd96d1a71b1dc6a7feb4a9" target="_top" xlink:title="Returns whether an action is covered by the set. ">
<polygon fill="none" stroke="#000000" points="513,-380.5 513,-399.5 622,-399.5 622,-380.5 513,-380.5"/>
<text text-anchor="middle" x="567.5" y="-387.5" font-family="Helvetica,sans-Serif" font-size="10.00" fill="#000000">clset_action_covered</text>
</a>
</g>
</g>
<!-- Node1013&#45;&gt;Node1035 -->
<g id="edge32" class="edge">
<title>Node1013&#45;&gt;Node1035</title>
<path fill="none" stroke="#191970" d="M471.0521,-418.411C487.3993,-413.5956 507.4092,-407.7012 524.9571,-402.532"/>
<polygon fill="#191970" stroke="#191970" points="526.3548,-405.7691 534.9583,-399.5859 524.3768,-399.0543 526.3548,-405.7691"/>
</g>
<!-- Node1036 -->
<g id="node33" class="node">
<title>Node1036</title>
<g id="a_node33"><a xlink:href="clset_8c.html#ad87086ed11e5fdd6bffe41b8a34f3608" target="_top" xlink:title="Enforces the maximum population size limit. ">
<polygon fill="none" stroke="#000000" points="508,-456.5 508,-475.5 627,-475.5 627,-456.5 508,-456.5"/>
<text text-anchor="middle" x="567.5" y="-463.5" font-family="Helvetica,sans-Serif" font-size="10.00" fill="#000000">clset_pop_enforce_limit</text>
</a>
</g>
</g>
<!-- Node1013&#45;&gt;Node1036 -->
<g id="edge34" class="edge">
<title>Node1013&#45;&gt;Node1036</title>
<path fill="none" stroke="#191970" d="M471.0521,-437.589C487.3993,-442.4044 507.4092,-448.2988 524.9571,-453.468"/>
<polygon fill="#191970" stroke="#191970" points="524.3768,-456.9457 534.9583,-456.4141 526.3548,-450.2309 524.3768,-456.9457"/>
</g>
<!-- Node1046 -->
<g id="node43" class="node">
<title>Node1046</title>
<g id="a_node43"><a xlink:href="clset_8c.html#a7ec1121fd19ff524f19b46ffa0522dd9" target="_top" xlink:title="Removes classifiers with 0 numerosity from the set. ">
<polygon fill="none" stroke="#000000" points="529,-342.5 529,-361.5 606,-361.5 606,-342.5 529,-342.5"/>
<text text-anchor="middle" x="567.5" y="-349.5" font-family="Helvetica,sans-Serif" font-size="10.00" fill="#000000">clset_validate</text>
</a>
</g>
</g>
<!-- Node1013&#45;&gt;Node1046 -->
<g id="edge46" class="edge">
<title>Node1013&#45;&gt;Node1046</title>
<path fill="none" stroke="#191970" d="M447.9815,-418.194C460.6108,-405.6415 484.1453,-383.97 508,-371 511.9655,-368.8439 516.2145,-366.8867 520.5499,-365.1206"/>
<polygon fill="#191970" stroke="#191970" points="521.9568,-368.3315 530.1026,-361.5568 519.51,-361.773 521.9568,-368.3315"/>
</g>
<!-- Node1015 -->
<g id="node12" class="node">
<title>Node1015</title>
<g id="a_node12"><a xlink:href="action_8h.html#ac250a5534d7c5fb268e0ccdb479d6e20" target="_top" xlink:title="act_cover">
<polygon fill="none" stroke="#000000" points="672,-418.5 672,-437.5 731,-437.5 731,-418.5 672,-418.5"/>
<text text-anchor="middle" x="701.5" y="-425.5" font-family="Helvetica,sans-Serif" font-size="10.00" fill="#000000">act_cover</text>
</a>
</g>
</g>
<!-- Node1014&#45;&gt;Node1015 -->
<g id="edge11" class="edge">
<title>Node1014&#45;&gt;Node1015</title>
<path fill="none" stroke="#191970" d="M594.2948,-428C613.5918,-428 639.9495,-428 661.7005,-428"/>
<polygon fill="#191970" stroke="#191970" points="661.9571,-431.5001 671.9571,-428 661.957,-424.5001 661.9571,-431.5001"/>
</g>
<!-- Node1016 -->
<g id="node13" class="node">
<title>Node1016</title>
<g id="a_node13"><a xlink:href="cl_8c.html#a7b56e6acc90b92c0692466ae2b7d2a24" target="_top" xlink:title="Initialises random actions, conditions and predictions. ">
<polygon fill="none" stroke="#000000" points="677.5,-361.5 677.5,-380.5 725.5,-380.5 725.5,-361.5 677.5,-361.5"/>
<text text-anchor="middle" x="701.5" y="-368.5" font-family="Helvetica,sans-Serif" font-size="10.00" fill="#000000">cl_rand</text>
</a>
</g>
</g>
<!-- Node1014&#45;&gt;Node1016 -->
<g id="edge12" class="edge">
<title>Node1014&#45;&gt;Node1016</title>
<path fill="none" stroke="#191970" d="M594.1923,-420.4894C604.5691,-417.3077 616.4707,-413.3328 627,-409 643.5823,-402.1764 661.5038,-393.0927 675.613,-385.5176"/>
<polygon fill="#191970" stroke="#191970" points="677.6028,-388.4193 684.7087,-380.5607 674.2531,-382.2728 677.6028,-388.4193"/>
</g>
<!-- Node1023 -->
<g id="node20" class="node">
<title>Node1023</title>
<g id="a_node20"><a xlink:href="condition_8h.html#af6a4967f684827b76d279cc04420ab6d" target="_top" xlink:title="cond_cover">
<polygon fill="none" stroke="#000000" points="668,-323.5 668,-342.5 735,-342.5 735,-323.5 668,-323.5"/>
<text text-anchor="middle" x="701.5" y="-330.5" font-family="Helvetica,sans-Serif" font-size="10.00" fill="#000000">cond_cover</text>
</a>
</g>
</g>
<!-- Node1014&#45;&gt;Node1023 -->
<g id="edge19" class="edge">
<title>Node1014&#45;&gt;Node1023</title>
<path fill="none" stroke="#191970" d="M594.277,-423.6297C605.2519,-420.8313 617.5644,-416.2972 627,-409 650.7019,-390.6698 640.7316,-372.0474 663,-352 664.6653,-350.5008 666.4704,-349.0916 668.3596,-347.7721"/>
<polygon fill="#191970" stroke="#191970" points="670.2495,-350.7196 677.0067,-342.5593 666.6355,-344.7247 670.2495,-350.7196"/>
</g>
<!-- Node1017 -->
<g id="node14" class="node">
<title>Node1017</title>
<g id="a_node14"><a xlink:href="action_8h.html#a7561ff50b261f644feae225259c8b8f6" target="_top" xlink:title="act_init">
<polygon fill="none" stroke="#000000" points="812,-266.5 812,-285.5 860,-285.5 860,-266.5 812,-266.5"/>
<text text-anchor="middle" x="836" y="-273.5" font-family="Helvetica,sans-Serif" font-size="10.00" fill="#000000">act_init</text>
</a>
</g>
</g>
<!-- Node1016&#45;&gt;Node1017 -->
<g id="edge13" class="edge">
<title>Node1016&#45;&gt;Node1017</title>
<path fill="none" stroke="#191970" d="M725.591,-361.6508C730.6864,-359.0045 735.7899,-355.7901 740,-352 762.2684,-331.9526 752.2759,-313.3015 776,-295 783.624,-289.1186 793.1091,-285.0349 802.2704,-282.2082"/>
<polygon fill="#191970" stroke="#191970" points="803.2263,-285.5756 811.9811,-279.6086 801.4161,-278.8137 803.2263,-285.5756"/>
</g>
<!-- Node1018 -->
<g id="node15" class="node">
<title>Node1018</title>
<g id="a_node15"><a xlink:href="action_8c.html#ac235375c6dc54d6abca5efb0f50b1400" target="_top" xlink:title="Sets a classifier&#39;s action functions to the implementations. ">
<polygon fill="none" stroke="#000000" points="805,-228.5 805,-247.5 867,-247.5 867,-228.5 805,-228.5"/>
<text text-anchor="middle" x="836" y="-235.5" font-family="Helvetica,sans-Serif" font-size="10.00" fill="#000000">action_set</text>
</a>
</g>
</g>
<!-- Node1016&#45;&gt;Node1018 -->
<g id="edge14" class="edge">
<title>Node1016&#45;&gt;Node1018</title>
<path fill="none" stroke="#191970" d="M725.7867,-362.4591C730.9905,-359.749 736.0914,-356.3039 740,-352 770.3551,-318.5742 743.1982,-288.0284 776,-257 781.4026,-251.8894 788.1737,-248.1533 795.2036,-245.422"/>
<polygon fill="#191970" stroke="#191970" points="796.4191,-248.7072 804.8461,-242.2857 794.2539,-242.0505 796.4191,-248.7072"/>
</g>
<!-- Node1019 -->
<g id="node16" class="node">
<title>Node1019</title>
<g id="a_node16"><a xlink:href="condition_8h.html#ac4e250ced4f7408df04ba9ac9f302c6e" target="_top" xlink:title="cond_init">
<polygon fill="none" stroke="#000000" points="808,-418.5 808,-437.5 864,-437.5 864,-418.5 808,-418.5"/>
<text text-anchor="middle" x="836" y="-425.5" font-family="Helvetica,sans-Serif" font-size="10.00" fill="#000000">cond_init</text>
</a>
</g>
</g>
<!-- Node1016&#45;&gt;Node1019 -->
<g id="edge15" class="edge">
<title>Node1016&#45;&gt;Node1019</title>
<path fill="none" stroke="#191970" d="M718.2863,-380.5729C733.1453,-388.7999 755.5808,-400.6263 776,-409 783.0995,-411.9114 790.8191,-414.6553 798.2842,-417.1045"/>
<polygon fill="#191970" stroke="#191970" points="797.2878,-420.4602 807.8779,-420.1437 799.4019,-413.787 797.2878,-420.4602"/>
</g>
<!-- Node1020 -->
<g id="node17" class="node">
<title>Node1020</title>
<g id="a_node17"><a xlink:href="condition_8c.html#aa485cf16f149e89aae83972b83b70596" target="_top" xlink:title="Sets a classifier&#39;s condition functions to the implementations. ">
<polygon fill="none" stroke="#000000" points="799,-380.5 799,-399.5 873,-399.5 873,-380.5 799,-380.5"/>
<text text-anchor="middle" x="836" y="-387.5" font-family="Helvetica,sans-Serif" font-size="10.00" fill="#000000">condition_set</text>
</a>
</g>
</g>
<!-- Node1016&#45;&gt;Node1020 -->
<g id="edge16" class="edge">
<title>Node1016&#45;&gt;Node1020</title>
<path fill="none" stroke="#191970" d="M725.5459,-374.3968C743.158,-376.8848 767.6259,-380.3412 789.0574,-383.3687"/>
<polygon fill="#191970" stroke="#191970" points="788.5807,-386.836 798.972,-384.7693 789.5599,-379.9048 788.5807,-386.836"/>
</g>
<!-- Node1021 -->
<g id="node18" class="node">
<title>Node1021</title>
<g id="a_node18"><a xlink:href="prediction_8h.html#a32efd0b8ad0f4cbc72683c35c5e49afd" target="_top" xlink:title="pred_init">
<polygon fill="none" stroke="#000000" points="809.5,-342.5 809.5,-361.5 862.5,-361.5 862.5,-342.5 809.5,-342.5"/>
<text text-anchor="middle" x="836" y="-349.5" font-family="Helvetica,sans-Serif" font-size="10.00" fill="#000000">pred_init</text>
</a>
</g>
</g>
<!-- Node1016&#45;&gt;Node1021 -->
<g id="edge17" class="edge">
<title>Node1016&#45;&gt;Node1021</title>
<path fill="none" stroke="#191970" d="M725.5459,-367.6032C746.0818,-364.7022 775.9388,-360.4845 799.4348,-357.1653"/>
<polygon fill="#191970" stroke="#191970" points="799.9849,-360.6225 809.397,-355.758 799.0057,-353.6913 799.9849,-360.6225"/>
</g>
<!-- Node1022 -->
<g id="node19" class="node">
<title>Node1022</title>
<g id="a_node19"><a xlink:href="prediction_8c.html#acc3389ac08ab3b032ab1223e3339be12" target="_top" xlink:title="Sets a classifier&#39;s prediction functions to the implementations. ">
<polygon fill="none" stroke="#000000" points="797.5,-304.5 797.5,-323.5 874.5,-323.5 874.5,-304.5 797.5,-304.5"/>
<text text-anchor="middle" x="836" y="-311.5" font-family="Helvetica,sans-Serif" font-size="10.00" fill="#000000">prediction_set</text>
</a>
</g>
</g>
<!-- Node1016&#45;&gt;Node1022 -->
<g id="edge18" class="edge">
<title>Node1016&#45;&gt;Node1022</title>
<path fill="none" stroke="#191970" d="M721.1374,-361.4368C727.2025,-358.4488 733.8925,-355.118 740,-352 756.1133,-343.7738 759.3095,-339.981 776,-333 781.3599,-330.7582 787.0816,-328.628 792.7837,-326.6597"/>
<polygon fill="#191970" stroke="#191970" points="793.9021,-329.9763 802.2941,-323.509 791.7007,-323.3315 793.9021,-329.9763"/>
</g>
<!-- Node1025 -->
<g id="node22" class="node">
<title>Node1025</title>
<g id="a_node22"><a xlink:href="sam_8c.html#ac19f397e3c1bd2a2a4f4a1174509ac67" target="_top" xlink:title="Initialises a classifier&#39;s self&#45;adaptive mutation rates. ">
<polygon fill="none" stroke="#000000" points="675,-228.5 675,-247.5 728,-247.5 728,-228.5 675,-228.5"/>
<text text-anchor="middle" x="701.5" y="-235.5" font-family="Helvetica,sans-Serif" font-size="10.00" fill="#000000">sam_init</text>
</a>
</g>
</g>
<!-- Node1024&#45;&gt;Node1025 -->
<g id="edge21" class="edge">
<title>Node1024&#45;&gt;Node1025</title>
<path fill="none" stroke="#191970" d="M588.577,-309.1687C600.2848,-306.0241 614.8878,-301.3226 627,-295 647.9989,-284.0385 669.1861,-267.1322 683.5686,-254.575"/>
<polygon fill="#191970" stroke="#191970" points="686.0702,-257.0335 691.1976,-247.762 681.4076,-251.8124 686.0702,-257.0335"/>
</g>
<!-- Node1026 -->
<g id="node23" class="node">
<title>Node1026</title>
<g id="a_node23"><a xlink:href="sam_8c.html#a934d788eb57734b6118fff7385733803" target="_top" xlink:title="Resets a classifier&#39;s self&#45;adaptive mutation rates. ">
<polygon fill="none" stroke="#000000" points="805,-190.5 805,-209.5 867,-209.5 867,-190.5 805,-190.5"/>
<text text-anchor="middle" x="836" y="-197.5" font-family="Helvetica,sans-Serif" font-size="10.00" fill="#000000">sam_reset</text>
</a>
</g>
</g>
<!-- Node1025&#45;&gt;Node1026 -->
<g id="edge22" class="edge">
<title>Node1025&#45;&gt;Node1026</title>
<path fill="none" stroke="#191970" d="M728.0729,-230.4924C747.1931,-225.0904 773.3403,-217.7031 795.1095,-211.5527"/>
<polygon fill="#191970" stroke="#191970" points="796.0909,-214.9125 804.7626,-208.8254 794.1877,-208.1762 796.0909,-214.9125"/>
</g>
<!-- Node1027 -->
<g id="node24" class="node">
<title>Node1027</title>
<g id="a_node24"><a xlink:href="sam_8c.html#a9b54bfbcf790a621afa925081a66941e" target="_top" xlink:title="Initialises log normal self&#45;adaptive mutation rates. ">
<polygon fill="none" stroke="#000000" points="1087,-228.5 1087,-247.5 1193,-247.5 1193,-228.5 1087,-228.5"/>
<text text-anchor="middle" x="1140" y="-235.5" font-family="Helvetica,sans-Serif" font-size="10.00" fill="#000000">sam_log_normal_init</text>
</a>
</g>
</g>
<!-- Node1026&#45;&gt;Node1027 -->
<g id="edge23" class="edge">
<title>Node1026&#45;&gt;Node1027</title>
<path fill="none" stroke="#191970" d="M867.4213,-207.0787C886.1004,-211.0712 910.3074,-215.8713 932,-219 980.3058,-225.9672 1035.3128,-230.8602 1076.6219,-233.9343"/>
<polygon fill="#191970" stroke="#191970" points="1076.5888,-237.4411 1086.8167,-234.6768 1077.0974,-230.4596 1076.5888,-237.4411"/>
</g>
<!-- Node1033 -->
<g id="node30" class="node">
<title>Node1033</title>
<g id="a_node30"><a xlink:href="sam_8c.html#afa2d48bd3ec297da02c66bdbb554280b" target="_top" xlink:title="Initialises rate selection self&#45;adaptive mutation. ">
<polygon fill="none" stroke="#000000" points="932,-190.5 932,-209.5 1051,-209.5 1051,-190.5 932,-190.5"/>
<text text-anchor="middle" x="991.5" y="-197.5" font-family="Helvetica,sans-Serif" font-size="10.00" fill="#000000">sam_rate_selection_init</text>
</a>
</g>
</g>
<!-- Node1026&#45;&gt;Node1033 -->
<g id="edge29" class="edge">
<title>Node1026&#45;&gt;Node1033</title>
<path fill="none" stroke="#191970" d="M867.094,-200C882.7958,-200 902.5262,-200 921.6174,-200"/>
<polygon fill="#191970" stroke="#191970" points="921.8218,-203.5001 931.8218,-200 921.8217,-196.5001 921.8218,-203.5001"/>
</g>
<!-- Node1027&#45;&gt;Node1028 -->
<g id="edge24" class="edge">
<title>Node1027&#45;&gt;Node1028</title>
<path fill="none" stroke="#191970" d="M1193.2233,-229.9423C1201.7725,-228.648 1210.5632,-227.3171 1218.9406,-226.0488"/>
<polygon fill="#191970" stroke="#191970" points="1219.5469,-229.497 1228.9103,-224.5395 1218.4991,-222.5759 1219.5469,-229.497"/>
</g>
<!-- Node1029 -->
<g id="node26" class="node">
<title>Node1029</title>
<g id="a_node26"><a xlink:href="utils_8c.html#a101d27cdda714b7f17a06224c65cac56" target="_top" xlink:title="Returns a uniform random float [0,1]. ">
<polygon fill="none" stroke="#000000" points="1338,-209.5 1338,-228.5 1379,-228.5 1379,-209.5 1338,-209.5"/>
<text text-anchor="middle" x="1358.5" y="-216.5" font-family="Helvetica,sans-Serif" font-size="10.00" fill="#000000">drand</text>
</a>
</g>
</g>
<!-- Node1028&#45;&gt;Node1029 -->
<g id="edge25" class="edge">
<title>Node1028&#45;&gt;Node1029</title>
<path fill="none" stroke="#191970" d="M1302.2561,-219C1310.658,-219 1319.5043,-219 1327.63,-219"/>
<polygon fill="#191970" stroke="#191970" points="1327.799,-222.5001 1337.7989,-219 1327.7989,-215.5001 1327.799,-222.5001"/>
</g>
<!-- Node1030 -->
<g id="node27" class="node">
<title>Node1030</title>
<g id="a_node27"><a xlink:href="mt19937-64_8c.html#aa0b74daf51eca91df224d00f1730084a" target="_top" xlink:title="genrand64_real1">
<polygon fill="none" stroke="#000000" points="1415,-209.5 1415,-228.5 1503,-228.5 1503,-209.5 1415,-209.5"/>
<text text-anchor="middle" x="1459" y="-216.5" font-family="Helvetica,sans-Serif" font-size="10.00" fill="#000000">genrand64_real1</text>
</a>
</g>
</g>
<!-- Node1029&#45;&gt;Node1030 -->
<g id="edge26" class="edge">
<title>Node1029&#45;&gt;Node1030</title>
<path fill="none" stroke="#191970" d="M1379.3237,-219C1386.8428,-219 1395.7193,-219 1404.769,-219"/>
<polygon fill="#191970" stroke="#191970" points="1404.9969,-222.5001 1414.9969,-219 1404.9969,-215.5001 1404.9969,-222.5001"/>
</g>
<!-- Node1031 -->
<g id="node28" class="node">
<title>Node1031</title>
<g id="a_node28"><a xlink:href="mt19937-64_8c.html#a265bf48d20d6e0347371fcf4fe340e6d" target="_top" xlink:title="genrand64_int64">
<polygon fill="none" stroke="#000000" points="1539,-209.5 1539,-228.5 1627,-228.5 1627,-209.5 1539,-209.5"/>
<text text-anchor="middle" x="1583" y="-216.5" font-family="Helvetica,sans-Serif" font-size="10.00" fill="#000000">genrand64_int64</text>
</a>
</g>
</g>
<!-- Node1030&#45;&gt;Node1031 -->
<g id="edge27" class="edge">
<title>Node1030&#45;&gt;Node1031</title>
<path fill="none" stroke="#191970" d="M1503.0669,-219C1511.2822,-219 1519.957,-219 1528.4432,-219"/>
<polygon fill="#191970" stroke="#191970" points="1528.6572,-222.5001 1538.6572,-219 1528.6572,-215.5001 1528.6572,-222.5001"/>
</g>
<!-- Node1032 -->
<g id="node29" class="node">
<title>Node1032</title>
<g id="a_node29"><a xlink:href="mt19937-64_8c.html#adf4127d44c2dc34fcb318d406131ef7c" target="_top" xlink:title="init_genrand64">
<polygon fill="none" stroke="#000000" points="1663,-209.5 1663,-228.5 1743,-228.5 1743,-209.5 1663,-209.5"/>
<text text-anchor="middle" x="1703" y="-216.5" font-family="Helvetica,sans-Serif" font-size="10.00" fill="#000000">init_genrand64</text>
</a>
</g>
</g>
<!-- Node1031&#45;&gt;Node1032 -->
<g id="edge28" class="edge">
<title>Node1031&#45;&gt;Node1032</title>
<path fill="none" stroke="#191970" d="M1627.0022,-219C1635.3719,-219 1644.1896,-219 1652.7365,-219"/>
<polygon fill="#191970" stroke="#191970" points="1652.9792,-222.5001 1662.9792,-219 1652.9792,-215.5001 1652.9792,-222.5001"/>
</g>
<!-- Node1034 -->
<g id="node31" class="node">
<title>Node1034</title>
<g id="a_node31"><a xlink:href="utils_8c.html#a32648ab076544a9ac1c086d0f07b599f" target="_top" xlink:title="Returns a uniform random integer [min,max] not inclusive of max. ">
<polygon fill="none" stroke="#000000" points="1102.5,-190.5 1102.5,-209.5 1177.5,-209.5 1177.5,-190.5 1102.5,-190.5"/>
<text text-anchor="middle" x="1140" y="-197.5" font-family="Helvetica,sans-Serif" font-size="10.00" fill="#000000">irand_uniform</text>
</a>
</g>
</g>
<!-- Node1033&#45;&gt;Node1034 -->
<g id="edge30" class="edge">
<title>Node1033&#45;&gt;Node1034</title>
<path fill="none" stroke="#191970" d="M1051.045,-200C1064.6704,-200 1078.9841,-200 1092.05,-200"/>
<polygon fill="#191970" stroke="#191970" points="1092.2241,-203.5001 1102.2241,-200 1092.2241,-196.5001 1092.2241,-203.5001"/>
</g>
<!-- Node1034&#45;&gt;Node1028 -->
<g id="edge31" class="edge">
<title>Node1034&#45;&gt;Node1028</title>
<path fill="none" stroke="#191970" d="M1177.6541,-205.7006C1190.542,-207.6518 1205.1208,-209.8589 1218.6451,-211.9064"/>
<polygon fill="#191970" stroke="#191970" points="1218.3248,-215.3977 1228.7361,-213.4342 1219.3727,-208.4766 1218.3248,-215.3977"/>
</g>
<!-- Node1037 -->
<g id="node34" class="node">
<title>Node1037</title>
<g id="a_node34"><a xlink:href="clset_8c.html#a6dae2bd49bceef5337bcad19010098f8" target="_top" xlink:title="Deletes a single classifier from the population set. ">
<polygon fill="none" stroke="#000000" points="663,-456.5 663,-475.5 740,-475.5 740,-456.5 663,-456.5"/>
<text text-anchor="middle" x="701.5" y="-463.5" font-family="Helvetica,sans-Serif" font-size="10.00" fill="#000000">clset_pop_del</text>
</a>
</g>
</g>
<!-- Node1036&#45;&gt;Node1037 -->
<g id="edge35" class="edge">
<title>Node1036&#45;&gt;Node1037</title>
<path fill="none" stroke="#191970" d="M627.0547,-466C635.6064,-466 644.3219,-466 652.6346,-466"/>
<polygon fill="#191970" stroke="#191970" points="652.906,-469.5001 662.906,-466 652.9059,-462.5001 652.906,-469.5001"/>
</g>
<!-- Node1037&#45;&gt;Node1012 -->
<g id="edge36" class="edge">
<title>Node1037&#45;&gt;Node1012</title>
<path fill="none" stroke="#191970" d="M718.4333,-475.6299C725.316,-479.7786 733.2265,-484.8541 740,-490 757.2832,-503.1303 757.2106,-512.1341 776,-523 782.3728,-526.6854 789.5471,-529.747 796.6596,-532.2578"/>
<polygon fill="#191970" stroke="#191970" points="795.6475,-535.6089 806.2391,-535.3472 797.7961,-528.9467 795.6475,-535.6089"/>
</g>
<!-- Node1038 -->
<g id="node35" class="node">
<title>Node1038</title>
<g id="a_node35"><a xlink:href="clset_8c.html#af899fada328f41ed56991a51fe80db17" target="_top" xlink:title="Finds a rule in the population that never matches an input. ">
<polygon fill="none" stroke="#000000" points="776,-456.5 776,-475.5 896,-475.5 896,-456.5 776,-456.5"/>
<text text-anchor="middle" x="836" y="-463.5" font-family="Helvetica,sans-Serif" font-size="10.00" fill="#000000">clset_pop_never_match</text>
</a>
</g>
</g>
<!-- Node1037&#45;&gt;Node1038 -->
<g id="edge37" class="edge">
<title>Node1037&#45;&gt;Node1038</title>
<path fill="none" stroke="#191970" d="M740.0423,-466C748.1639,-466 756.9732,-466 765.85,-466"/>
<polygon fill="#191970" stroke="#191970" points="765.8679,-469.5001 775.8678,-466 765.8678,-462.5001 765.8679,-469.5001"/>
</g>
<!-- Node1039 -->
<g id="node36" class="node">
<title>Node1039</title>
<g id="a_node36"><a xlink:href="clset_8c.html#a008502b88c280aa55bb9a3645216209c" target="_top" xlink:title="clset_pop_roulette">
<polygon fill="none" stroke="#000000" points="788,-494.5 788,-513.5 884,-513.5 884,-494.5 788,-494.5"/>
<text text-anchor="middle" x="836" y="-501.5" font-family="Helvetica,sans-Serif" font-size="10.00" fill="#000000">clset_pop_roulette</text>
</a>
</g>
</g>
<!-- Node1037&#45;&gt;Node1039 -->
<g id="edge38" class="edge">
<title>Node1037&#45;&gt;Node1039</title>
<path fill="none" stroke="#191970" d="M735.44,-475.589C752.7231,-480.4719 773.9329,-486.4643 792.4112,-491.685"/>
<polygon fill="#191970" stroke="#191970" points="791.4959,-495.0633 802.0708,-494.4141 793.3992,-488.327 791.4959,-495.0633"/>
</g>
<!-- Node1039&#45;&gt;Node1028 -->
<g id="edge45" class="edge">
<title>Node1039&#45;&gt;Node1028</title>
<path fill="none" stroke="#191970" d="M879.151,-494.4307C885.1583,-491.9631 890.9822,-488.8709 896,-485 919.7241,-466.6985 910.7759,-449.1498 932,-428 982.0402,-378.1348 1168.8195,-272.4716 1238.7999,-233.6799"/>
<polygon fill="#191970" stroke="#191970" points="1240.8154,-236.5649 1247.8729,-228.6628 1237.428,-230.4391 1240.8154,-236.5649"/>
</g>
<!-- Node1040 -->
<g id="node37" class="node">
<title>Node1040</title>
<g id="a_node37"><a xlink:href="cl_8c.html#a49f5a7f4f2f47ce1cf7f33b3769de7cc" target="_top" xlink:title="Returns the size of the classifier condition. ">
<polygon fill="none" stroke="#000000" points="954.5,-551.5 954.5,-570.5 1028.5,-570.5 1028.5,-551.5 954.5,-551.5"/>
<text text-anchor="middle" x="991.5" y="-558.5" font-family="Helvetica,sans-Serif" font-size="10.00" fill="#000000">cl_cond_size</text>
</a>
</g>
</g>
<!-- Node1039&#45;&gt;Node1040 -->
<g id="edge39" class="edge">
<title>Node1039&#45;&gt;Node1040</title>
<path fill="none" stroke="#191970" d="M869.7059,-513.509C878.3849,-516.2731 887.6334,-519.5006 896,-523 912.6905,-529.981 915.3179,-534.9988 932,-542 937.1869,-544.1769 942.7149,-546.2517 948.2327,-548.1764"/>
<polygon fill="#191970" stroke="#191970" points="947.4841,-551.6165 958.0779,-551.4684 949.704,-544.9778 947.4841,-551.6165"/>
</g>
<!-- Node1042 -->
<g id="node39" class="node">
<title>Node1042</title>
<g id="a_node39"><a xlink:href="cl_8c.html#aa0059f455cba46b3a1acb6b8a271b95f" target="_top" xlink:title="Returns the deletion vote of the classifier. ">
<polygon fill="none" stroke="#000000" points="958.5,-513.5 958.5,-532.5 1024.5,-532.5 1024.5,-513.5 958.5,-513.5"/>
<text text-anchor="middle" x="991.5" y="-520.5" font-family="Helvetica,sans-Serif" font-size="10.00" fill="#000000">cl_del_vote</text>
</a>
</g>
</g>
<!-- Node1039&#45;&gt;Node1042 -->
<g id="edge41" class="edge">
<title>Node1039&#45;&gt;Node1042</title>
<path fill="none" stroke="#191970" d="M884.3488,-509.9076C904.8475,-512.4122 928.5438,-515.3076 948.4321,-517.7377"/>
<polygon fill="#191970" stroke="#191970" points="948.0974,-521.2227 958.4481,-518.9615 948.9465,-514.2744 948.0974,-521.2227"/>
</g>
<!-- Node1043 -->
<g id="node40" class="node">
<title>Node1043</title>
<g id="a_node40"><a xlink:href="cl_8c.html#a72d3cf213699a8d68d348ff75c2b2d49" target="_top" xlink:title="Returns the size of the classifier prediction. ">
<polygon fill="none" stroke="#000000" points="956,-475.5 956,-494.5 1027,-494.5 1027,-475.5 956,-475.5"/>
<text text-anchor="middle" x="991.5" y="-482.5" font-family="Helvetica,sans-Serif" font-size="10.00" fill="#000000">cl_pred_size</text>
</a>
</g>
</g>
<!-- Node1039&#45;&gt;Node1043 -->
<g id="edge42" class="edge">
<title>Node1039&#45;&gt;Node1043</title>
<path fill="none" stroke="#191970" d="M884.3488,-498.0924C903.8466,-495.7101 926.2373,-492.9742 945.4923,-490.6215"/>
<polygon fill="#191970" stroke="#191970" points="946.0336,-494.0815 955.5352,-489.3944 945.1845,-487.1332 946.0336,-494.0815"/>
</g>
<!-- Node1045 -->
<g id="node42" class="node">
<title>Node1045</title>
<g id="a_node42"><a xlink:href="clset_8c.html#a9a50c1393921d731b6840a654c366fb8" target="_top" xlink:title="Calculates the total fitness of classifiers in the set. ">
<polygon fill="none" stroke="#000000" points="954,-437.5 954,-456.5 1029,-456.5 1029,-437.5 954,-437.5"/>
<text text-anchor="middle" x="991.5" y="-444.5" font-family="Helvetica,sans-Serif" font-size="10.00" fill="#000000">clset_total_fit</text>
</a>
</g>
</g>
<!-- Node1039&#45;&gt;Node1045 -->
<g id="edge44" class="edge">
<title>Node1039&#45;&gt;Node1045</title>
<path fill="none" stroke="#191970" d="M869.7059,-494.491C878.3849,-491.7269 887.6334,-488.4994 896,-485 912.6905,-478.019 915.3179,-473.0012 932,-466 937.1869,-463.8231 942.7149,-461.7483 948.2327,-459.8236"/>
<polygon fill="#191970" stroke="#191970" points="949.704,-463.0222 958.0779,-456.5316 947.4841,-456.3835 949.704,-463.0222"/>
</g>
<!-- Node1041 -->
<g id="node38" class="node">
<title>Node1041</title>
<g id="a_node38"><a xlink:href="condition_8h.html#afc882c8ebd96835127f8e611b815d447" target="_top" xlink:title="cond_size">
<polygon fill="none" stroke="#000000" points="1109.5,-551.5 1109.5,-570.5 1170.5,-570.5 1170.5,-551.5 1109.5,-551.5"/>
<text text-anchor="middle" x="1140" y="-558.5" font-family="Helvetica,sans-Serif" font-size="10.00" fill="#000000">cond_size</text>
</a>
</g>
</g>
<!-- Node1040&#45;&gt;Node1041 -->
<g id="edge40" class="edge">
<title>Node1040&#45;&gt;Node1041</title>
<path fill="none" stroke="#191970" d="M1028.5898,-561C1050.0968,-561 1077.2084,-561 1099.3015,-561"/>
<polygon fill="#191970" stroke="#191970" points="1099.3785,-564.5001 1109.3784,-561 1099.3784,-557.5001 1099.3785,-564.5001"/>
</g>
<!-- Node1044 -->
<g id="node41" class="node">
<title>Node1044</title>
<g id="a_node41"><a xlink:href="prediction_8h.html#a60ead673b526125328224ec152916290" target="_top" xlink:title="pred_size">
<polygon fill="none" stroke="#000000" points="1110.5,-475.5 1110.5,-494.5 1169.5,-494.5 1169.5,-475.5 1110.5,-475.5"/>
<text text-anchor="middle" x="1140" y="-482.5" font-family="Helvetica,sans-Serif" font-size="10.00" fill="#000000">pred_size</text>
</a>
</g>
</g>
<!-- Node1043&#45;&gt;Node1044 -->
<g id="edge43" class="edge">
<title>Node1043&#45;&gt;Node1044</title>
<path fill="none" stroke="#191970" d="M1027.0694,-485C1049.0946,-485 1077.42,-485 1100.1925,-485"/>
<polygon fill="#191970" stroke="#191970" points="1100.2222,-488.5001 1110.2222,-485 1100.2222,-481.5001 1100.2222,-488.5001"/>
</g>
<!-- Node1048 -->
<g id="node45" class="node">
<title>Node1048</title>
<g id="a_node45"><a xlink:href="cl_8c.html#a98982b34e8eebe2f85333397bdd24bd3" target="_top" xlink:title="Returns the fraction of observed inputs matched by the classifier. ">
<polygon fill="none" stroke="#000000" points="411.5,-76.5 411.5,-95.5 465.5,-95.5 465.5,-76.5 411.5,-76.5"/>
<text text-anchor="middle" x="438.5" y="-83.5" font-family="Helvetica,sans-Serif" font-size="10.00" fill="#000000">cl_mfrac</text>
</a>
</g>
</g>
<!-- Node1047&#45;&gt;Node1048 -->
<g id="edge48" class="edge">
<title>Node1047&#45;&gt;Node1048</title>
<path fill="none" stroke="#191970" d="M361.7094,-86C374.1508,-86 388.2747,-86 400.9869,-86"/>
<polygon fill="#191970" stroke="#191970" points="401.2653,-89.5001 411.2653,-86 401.2653,-82.5001 401.2653,-89.5001"/>
</g>
<!-- Node1051 -->
<g id="node48" class="node">
<title>Node1051</title>
<g id="a_node48"><a xlink:href="cl_8c.html#a2e37895c1cc585b83805af74061afa46" target="_top" xlink:title="Computes the current classifier payoff prediction using the input. ">
<polygon fill="none" stroke="#000000" points="409,-.5 409,-19.5 468,-19.5 468,-.5 409,-.5"/>
<text text-anchor="middle" x="438.5" y="-7.5" font-family="Helvetica,sans-Serif" font-size="10.00" fill="#000000">cl_predict</text>
</a>
</g>
</g>
<!-- Node1050&#45;&gt;Node1051 -->
<g id="edge51" class="edge">
<title>Node1050&#45;&gt;Node1051</title>
<path fill="none" stroke="#191970" d="M354.0873,-10C367.2996,-10 383.5449,-10 398.2438,-10"/>
<polygon fill="#191970" stroke="#191970" points="398.6081,-13.5001 408.608,-10 398.608,-6.5001 398.6081,-13.5001"/>
</g>
<!-- Node1052 -->
<g id="node49" class="node">
<title>Node1052</title>
<g id="a_node49"><a xlink:href="prediction_8h.html#a98a959a3e1a7e5e353c39a561efd666c" target="_top" xlink:title="pred_compute">
<polygon fill="none" stroke="#000000" points="528.5,-.5 528.5,-19.5 606.5,-19.5 606.5,-.5 528.5,-.5"/>
<text text-anchor="middle" x="567.5" y="-7.5" font-family="Helvetica,sans-Serif" font-size="10.00" fill="#000000">pred_compute</text>
</a>
</g>
</g>
<!-- Node1051&#45;&gt;Node1052 -->
<g id="edge52" class="edge">
<title>Node1051&#45;&gt;Node1052</title>
<path fill="none" stroke="#191970" d="M468.0952,-10C482.8793,-10 501.1644,-10 518.0048,-10"/>
<polygon fill="#191970" stroke="#191970" points="518.2594,-13.5001 528.2594,-10 518.2593,-6.5001 518.2594,-13.5001"/>
</g>
<!-- Node1053&#45;&gt;Node1034 -->
<g id="edge54" class="edge">
<title>Node1053&#45;&gt;Node1034</title>
<path fill="none" stroke="#191970" d="M369.1228,-162C416.9853,-162 497.9167,-162 567.5,-162 567.5,-162 567.5,-162 836,-162 931.928,-162 956.1383,-166.7373 1051,-181 1064.4464,-183.0217 1078.9105,-185.8314 1092.1884,-188.6708"/>
<polygon fill="#191970" stroke="#191970" points="1091.5572,-192.1155 1102.0744,-190.8354 1093.0544,-185.2775 1091.5572,-192.1155"/>
</g>
</g>
</svg>
