<?xml version="1.0" encoding="UTF-8" standalone="no"?>
<!DOCTYPE svg PUBLIC "-//W3C//DTD SVG 1.1//EN"
 "http://www.w3.org/Graphics/SVG/1.1/DTD/svg11.dtd">
<!-- Generated by graphviz version 2.40.1 (20161225.0304)
 -->
<!-- Title: rand_normal Pages: 1 -->
<svg width="1151pt" height="401pt"
 viewBox="0.00 0.00 1151.00 401.00" xmlns="http://www.w3.org/2000/svg" xmlns:xlink="http://www.w3.org/1999/xlink">
<g id="graph0" class="graph" transform="scale(1 1) rotate(0) translate(4 397)">
<title>rand_normal</title>
<!-- Node205 -->
<g id="node1" class="node">
<title>Node205</title>
<polygon fill="#bfbfbf" stroke="#000000" points="0,-221.5 0,-240.5 70,-240.5 70,-221.5 0,-221.5"/>
<text text-anchor="middle" x="35" y="-228.5" font-family="Helvetica,sans-Serif" font-size="10.00" fill="#000000">rand_normal</text>
</g>
<!-- Node206 -->
<g id="node2" class="node">
<title>Node206</title>
<g id="a_node2"><a xlink:href="cond__ellipsoid_8h.html#a1e3bbf8d26e1519757370de2db2ed070" target="_top" xlink:title="cond_ellipsoid_mutate">
<polygon fill="none" stroke="#000000" points="121,-373.5 121,-392.5 234,-392.5 234,-373.5 121,-373.5"/>
<text text-anchor="middle" x="177.5" y="-380.5" font-family="Helvetica,sans-Serif" font-size="10.00" fill="#000000">cond_ellipsoid_mutate</text>
</a>
</g>
</g>
<!-- Node205&#45;&gt;Node206 -->
<g id="edge1" class="edge">
<title>Node205&#45;&gt;Node206</title>
<path fill="none" stroke="#191970" d="M40.04,-250.6055C48.5784,-279.8073 68.7091,-334.4506 106,-364 110.9327,-367.9087 116.5966,-371.0171 122.531,-373.4885"/>
<polygon fill="#191970" stroke="#191970" points="43.3583,-249.4728 37.3236,-240.7646 36.6107,-251.3355 43.3583,-249.4728"/>
</g>
<!-- Node207 -->
<g id="node3" class="node">
<title>Node207</title>
<g id="a_node3"><a xlink:href="cond__rectangle_8h.html#a66df2da336c2260d41bb129fb71b6986" target="_top" xlink:title="cond_rectangle_mutate">
<polygon fill="none" stroke="#000000" points="118.5,-335.5 118.5,-354.5 236.5,-354.5 236.5,-335.5 118.5,-335.5"/>
<text text-anchor="middle" x="177.5" y="-342.5" font-family="Helvetica,sans-Serif" font-size="10.00" fill="#000000">cond_rectangle_mutate</text>
</a>
</g>
</g>
<!-- Node205&#45;&gt;Node207 -->
<g id="edge2" class="edge">
<title>Node205&#45;&gt;Node207</title>
<path fill="none" stroke="#191970" d="M44.1719,-249.9611C55.632,-271.6286 77.2825,-306.5903 106,-326 111.7463,-329.8839 118.2498,-332.9746 124.9353,-335.434"/>
<polygon fill="#191970" stroke="#191970" points="47.1574,-248.1102 39.5063,-240.7815 40.9172,-251.2819 47.1574,-248.1102"/>
</g>
<!-- Node208 -->
<g id="node4" class="node">
<title>Node208</title>
<g id="a_node4"><a xlink:href="neural__layer__connected_8c.html#a89e19cb309ae3cc7722d8dac64ea0a8c" target="_top" xlink:title="mutate_eta">
<polygon fill="none" stroke="#000000" points="145,-297.5 145,-316.5 210,-316.5 210,-297.5 145,-297.5"/>
<text text-anchor="middle" x="177.5" y="-304.5" font-family="Helvetica,sans-Serif" font-size="10.00" fill="#000000">mutate_eta</text>
</a>
</g>
</g>
<!-- Node205&#45;&gt;Node208 -->
<g id="edge3" class="edge">
<title>Node205&#45;&gt;Node208</title>
<path fill="none" stroke="#191970" d="M51.7228,-247.8259C65.2763,-260.5704 85.4393,-277.6051 106,-288 118.0355,-294.0848 132.2264,-298.3745 144.78,-301.318"/>
<polygon fill="#191970" stroke="#191970" points="53.8145,-244.9797 44.1935,-240.5428 48.9477,-250.0111 53.8145,-244.9797"/>
</g>
<!-- Node210 -->
<g id="node6" class="node">
<title>Node210</title>
<g id="a_node6"><a xlink:href="neural__layer__connected_8c.html#ad933cd5004ffd10751af44495d2ce68d" target="_top" xlink:title="mutate_neurons">
<polygon fill="none" stroke="#000000" points="134.5,-259.5 134.5,-278.5 220.5,-278.5 220.5,-259.5 134.5,-259.5"/>
<text text-anchor="middle" x="177.5" y="-266.5" font-family="Helvetica,sans-Serif" font-size="10.00" fill="#000000">mutate_neurons</text>
</a>
</g>
</g>
<!-- Node205&#45;&gt;Node210 -->
<g id="edge5" class="edge">
<title>Node205&#45;&gt;Node210</title>
<path fill="none" stroke="#191970" d="M79.9615,-243.0447C88.6027,-245.3559 97.5814,-247.755 106,-250 117.5416,-253.0778 130.1336,-256.4269 141.4896,-259.4439"/>
<polygon fill="#191970" stroke="#191970" points="80.5912,-239.5901 70.0263,-240.3862 78.7817,-246.3522 80.5912,-239.5901"/>
</g>
<!-- Node211 -->
<g id="node7" class="node">
<title>Node211</title>
<g id="a_node7"><a xlink:href="neural__layer__connected_8c.html#a587edba8a58f8356b4cadf6d1bb75c03" target="_top" xlink:title="mutate_weights">
<polygon fill="none" stroke="#000000" points="134.5,-221.5 134.5,-240.5 220.5,-240.5 220.5,-221.5 134.5,-221.5"/>
<text text-anchor="middle" x="177.5" y="-228.5" font-family="Helvetica,sans-Serif" font-size="10.00" fill="#000000">mutate_weights</text>
</a>
</g>
</g>
<!-- Node205&#45;&gt;Node211 -->
<g id="edge7" class="edge">
<title>Node205&#45;&gt;Node211</title>
<path fill="none" stroke="#191970" d="M80.5955,-231C97.7989,-231 117.3052,-231 134.2845,-231"/>
<polygon fill="#191970" stroke="#191970" points="80.2248,-227.5001 70.2247,-231 80.2247,-234.5001 80.2248,-227.5001"/>
</g>
<!-- Node212 -->
<g id="node8" class="node">
<title>Node212</title>
<g id="a_node8"><a xlink:href="neural__layer__connected_8h.html#a40e50820f5b433df45cbfb9a5d765093" target="_top" xlink:title="neural_layer_connected_init">
<polygon fill="none" stroke="#000000" points="109,-183.5 109,-202.5 246,-202.5 246,-183.5 109,-183.5"/>
<text text-anchor="middle" x="177.5" y="-190.5" font-family="Helvetica,sans-Serif" font-size="10.00" fill="#000000">neural_layer_connected_init</text>
</a>
</g>
</g>
<!-- Node205&#45;&gt;Node212 -->
<g id="edge9" class="edge">
<title>Node205&#45;&gt;Node212</title>
<path fill="none" stroke="#191970" d="M79.9615,-218.9553C88.6027,-216.6441 97.5814,-214.245 106,-212 117.5416,-208.9222 130.1336,-205.5731 141.4896,-202.5561"/>
<polygon fill="#191970" stroke="#191970" points="78.7817,-215.6478 70.0263,-221.6138 80.5912,-222.4099 78.7817,-215.6478"/>
</g>
<!-- Node216 -->
<g id="node12" class="node">
<title>Node216</title>
<g id="a_node12"><a xlink:href="neural__layer__connected_8h.html#abb7c6e383c0a5fd4e4951d23769b1ffa" target="_top" xlink:title="neural_layer_connected_rand">
<polygon fill="none" stroke="#000000" points="106,-145.5 106,-164.5 249,-164.5 249,-145.5 106,-145.5"/>
<text text-anchor="middle" x="177.5" y="-152.5" font-family="Helvetica,sans-Serif" font-size="10.00" fill="#000000">neural_layer_connected_rand</text>
</a>
</g>
</g>
<!-- Node205&#45;&gt;Node216 -->
<g id="edge13" class="edge">
<title>Node205&#45;&gt;Node216</title>
<path fill="none" stroke="#191970" d="M51.7228,-214.1741C65.2763,-201.4296 85.4393,-184.3949 106,-174 113.5652,-170.1753 121.9819,-167.0598 130.3084,-164.5421"/>
<polygon fill="#191970" stroke="#191970" points="48.9477,-211.9889 44.1935,-221.4572 53.8145,-217.0203 48.9477,-211.9889"/>
</g>
<!-- Node217 -->
<g id="node13" class="node">
<title>Node217</title>
<g id="a_node13"><a xlink:href="neural__layer__noise_8h.html#a80f0dcb2fa9bcddcbd075ad4bc4cff62" target="_top" xlink:title="neural_layer_noise\l_forward">
<polygon fill="none" stroke="#000000" points="128.5,-96 128.5,-126 226.5,-126 226.5,-96 128.5,-96"/>
<text text-anchor="start" x="136.5" y="-114" font-family="Helvetica,sans-Serif" font-size="10.00" fill="#000000">neural_layer_noise</text>
<text text-anchor="middle" x="177.5" y="-103" font-family="Helvetica,sans-Serif" font-size="10.00" fill="#000000">_forward</text>
</a>
</g>
</g>
<!-- Node205&#45;&gt;Node217 -->
<g id="edge14" class="edge">
<title>Node205&#45;&gt;Node217</title>
<path fill="none" stroke="#191970" d="M44.4409,-212.4209C56.1556,-191.115 78.0471,-156.4955 106,-136 112.6811,-131.1013 120.404,-127.0997 128.2514,-123.8502"/>
<polygon fill="#191970" stroke="#191970" points="41.2544,-210.959 39.6572,-221.4328 47.4373,-214.2411 41.2544,-210.959"/>
</g>
<!-- Node218 -->
<g id="node14" class="node">
<title>Node218</title>
<g id="a_node14"><a xlink:href="sam_8c.html#a031d8383bb00ebca619ba28aa93b1084" target="_top" xlink:title="Performs log normal self&#45;adaptation. ">
<polygon fill="none" stroke="#000000" points="119,-57.5 119,-76.5 236,-76.5 236,-57.5 119,-57.5"/>
<text text-anchor="middle" x="177.5" y="-64.5" font-family="Helvetica,sans-Serif" font-size="10.00" fill="#000000">sam_log_normal_adapt</text>
</a>
</g>
</g>
<!-- Node205&#45;&gt;Node218 -->
<g id="edge15" class="edge">
<title>Node205&#45;&gt;Node218</title>
<path fill="none" stroke="#191970" d="M39.2785,-211.1906C47.046,-180.0497 66.4571,-119.8184 106,-87 111.2569,-82.6371 117.4017,-79.2235 123.8415,-76.553"/>
<polygon fill="#191970" stroke="#191970" points="35.7969,-210.7084 36.9279,-221.2427 42.613,-212.3023 35.7969,-210.7084"/>
</g>
<!-- Node209 -->
<g id="node5" class="node">
<title>Node209</title>
<g id="a_node5"><a xlink:href="neural__layer__connected_8h.html#a2bc6f959592b6e80f7636c071daed7db" target="_top" xlink:title="neural_layer_connected\l_mutate">
<polygon fill="none" stroke="#000000" points="285,-257 285,-287 404,-287 404,-257 285,-257"/>
<text text-anchor="start" x="293" y="-275" font-family="Helvetica,sans-Serif" font-size="10.00" fill="#000000">neural_layer_connected</text>
<text text-anchor="middle" x="344.5" y="-264" font-family="Helvetica,sans-Serif" font-size="10.00" fill="#000000">_mutate</text>
</a>
</g>
</g>
<!-- Node208&#45;&gt;Node209 -->
<g id="edge4" class="edge">
<title>Node208&#45;&gt;Node209</title>
<path fill="none" stroke="#191970" d="M220.0012,-298.0926C239.7146,-293.961 263.4831,-288.9796 284.9459,-284.4814"/>
<polygon fill="#191970" stroke="#191970" points="219.1651,-294.6917 210.0957,-300.1686 220.601,-301.5428 219.1651,-294.6917"/>
</g>
<!-- Node210&#45;&gt;Node209 -->
<g id="edge6" class="edge">
<title>Node210&#45;&gt;Node209</title>
<path fill="none" stroke="#191970" d="M230.9396,-269.96C248.1545,-270.2692 267.3366,-270.6138 284.9624,-270.9305"/>
<polygon fill="#191970" stroke="#191970" points="230.5679,-266.4528 220.5066,-269.7726 230.4421,-273.4517 230.5679,-266.4528"/>
</g>
<!-- Node211&#45;&gt;Node209 -->
<g id="edge8" class="edge">
<title>Node211&#45;&gt;Node209</title>
<path fill="none" stroke="#191970" d="M226.1022,-242.9323C244.4253,-247.4308 265.4823,-252.6005 284.7103,-257.3211"/>
<polygon fill="#191970" stroke="#191970" points="226.779,-239.4946 216.2329,-240.5093 225.11,-246.2927 226.779,-239.4946"/>
</g>
<!-- Node213 -->
<g id="node9" class="node">
<title>Node213</title>
<g id="a_node9"><a xlink:href="cond__neural_8h.html#a9630915748eec99071fa3b276bcb5c64" target="_top" xlink:title="cond_neural_init">
<polygon fill="none" stroke="#000000" points="301,-142.5 301,-161.5 388,-161.5 388,-142.5 301,-142.5"/>
<text text-anchor="middle" x="344.5" y="-149.5" font-family="Helvetica,sans-Serif" font-size="10.00" fill="#000000">cond_neural_init</text>
</a>
</g>
</g>
<!-- Node212&#45;&gt;Node213 -->
<g id="edge10" class="edge">
<title>Node212&#45;&gt;Node213</title>
<path fill="none" stroke="#191970" d="M226.0178,-181.0884C251.356,-174.8677 281.9405,-167.3589 305.6882,-161.5286"/>
<polygon fill="#191970" stroke="#191970" points="225.11,-177.7073 216.2329,-183.4907 226.779,-184.5054 225.11,-177.7073"/>
</g>
<!-- Node214 -->
<g id="node10" class="node">
<title>Node214</title>
<g id="a_node10"><a xlink:href="pred__neural_8h.html#afdf0ff1b67935bc9a1df2a94a984c975" target="_top" xlink:title="pred_neural_init">
<polygon fill="none" stroke="#000000" points="302,-218.5 302,-237.5 387,-237.5 387,-218.5 302,-218.5"/>
<text text-anchor="middle" x="344.5" y="-225.5" font-family="Helvetica,sans-Serif" font-size="10.00" fill="#000000">pred_neural_init</text>
</a>
</g>
</g>
<!-- Node212&#45;&gt;Node214 -->
<g id="edge11" class="edge">
<title>Node212&#45;&gt;Node214</title>
<path fill="none" stroke="#191970" d="M233.1727,-204.6679C255.5424,-209.3562 280.9206,-214.675 301.7915,-219.0491"/>
<polygon fill="#191970" stroke="#191970" points="233.6388,-201.1896 223.1335,-202.5639 232.2029,-208.0408 233.6388,-201.1896"/>
</g>
<!-- Node215 -->
<g id="node11" class="node">
<title>Node215</title>
<g id="a_node11"><a xlink:href="rule__neural_8h.html#a846979c6acd6263a2da766cc1ab628ce" target="_top" xlink:title="rule_neural_cond_init">
<polygon fill="none" stroke="#000000" points="290.5,-180.5 290.5,-199.5 398.5,-199.5 398.5,-180.5 290.5,-180.5"/>
<text text-anchor="middle" x="344.5" y="-187.5" font-family="Helvetica,sans-Serif" font-size="10.00" fill="#000000">rule_neural_cond_init</text>
</a>
</g>
</g>
<!-- Node212&#45;&gt;Node215 -->
<g id="edge12" class="edge">
<title>Node212&#45;&gt;Node215</title>
<path fill="none" stroke="#191970" d="M256.4171,-191.5823C267.8865,-191.3763 279.4716,-191.1682 290.3033,-190.9736"/>
<polygon fill="#191970" stroke="#191970" points="256.3249,-188.0833 246.3895,-191.7625 256.4507,-195.0822 256.3249,-188.0833"/>
</g>
<!-- Node219 -->
<g id="node15" class="node">
<title>Node219</title>
<g id="a_node15"><a xlink:href="sam_8h.html#a60ea9eae9a7d2d624fee8614b6aa6904" target="_top" xlink:title="Self&#45;adapts a classifier&#39;s mutation rates. ">
<polygon fill="none" stroke="#000000" points="312,-57.5 312,-76.5 377,-76.5 377,-57.5 312,-57.5"/>
<text text-anchor="middle" x="344.5" y="-64.5" font-family="Helvetica,sans-Serif" font-size="10.00" fill="#000000">sam_adapt</text>
</a>
</g>
</g>
<!-- Node218&#45;&gt;Node219 -->
<g id="edge16" class="edge">
<title>Node218&#45;&gt;Node219</title>
<path fill="none" stroke="#191970" d="M246.6316,-67C269.2237,-67 293.2626,-67 311.8624,-67"/>
<polygon fill="#191970" stroke="#191970" points="246.378,-63.5001 236.378,-67 246.3779,-70.5001 246.378,-63.5001"/>
</g>
<!-- Node220 -->
<g id="node16" class="node">
<title>Node220</title>
<g id="a_node16"><a xlink:href="ea_8h.html#ae3824341a2f5482cb6ac70b3839ded51" target="_top" xlink:title="Executes the evolutionary algorithm (EA). ">
<polygon fill="none" stroke="#000000" points="440,-57.5 440,-76.5 469,-76.5 469,-57.5 440,-57.5"/>
<text text-anchor="middle" x="454.5" y="-64.5" font-family="Helvetica,sans-Serif" font-size="10.00" fill="#000000">ea</text>
</a>
</g>
</g>
<!-- Node219&#45;&gt;Node220 -->
<g id="edge17" class="edge">
<title>Node219&#45;&gt;Node220</title>
<path fill="none" stroke="#191970" d="M387.2594,-67C405.8222,-67 426.3446,-67 439.7755,-67"/>
<polygon fill="#191970" stroke="#191970" points="387.2058,-63.5001 377.2058,-67 387.2058,-70.5001 387.2058,-63.5001"/>
</g>
<!-- Node221 -->
<g id="node17" class="node">
<title>Node221</title>
<g id="a_node17"><a xlink:href="xcs__multi__step_8c.html#a617d9e432dc180dccf0c5ef11a94f79f" target="_top" xlink:title="Executes a multi&#45;step explore trial. ">
<polygon fill="none" stroke="#000000" points="506.5,-19.5 506.5,-38.5 601.5,-38.5 601.5,-19.5 506.5,-19.5"/>
<text text-anchor="middle" x="554" y="-26.5" font-family="Helvetica,sans-Serif" font-size="10.00" fill="#000000">xcs_multi_explore</text>
</a>
</g>
</g>
<!-- Node220&#45;&gt;Node221 -->
<g id="edge18" class="edge">
<title>Node220&#45;&gt;Node221</title>
<path fill="none" stroke="#191970" d="M478.8929,-57.6841C494.0608,-51.8914 513.5207,-44.4594 528.8317,-38.612"/>
<polygon fill="#191970" stroke="#191970" points="477.2747,-54.5555 469.1816,-61.393 479.7722,-61.0948 477.2747,-54.5555"/>
</g>
<!-- Node225 -->
<g id="node21" class="node">
<title>Node225</title>
<g id="a_node21"><a xlink:href="xcs__single__step_8h.html#aff4aec035e4573993a7906569f2028f5" target="_top" xlink:title="Creates the action set, updates the classifiers and runs the EA. ">
<polygon fill="none" stroke="#000000" points="505,-57.5 505,-76.5 603,-76.5 603,-57.5 505,-57.5"/>
<text text-anchor="middle" x="554" y="-64.5" font-family="Helvetica,sans-Serif" font-size="10.00" fill="#000000">xcs_single_update</text>
</a>
</g>
</g>
<!-- Node220&#45;&gt;Node225 -->
<g id="edge22" class="edge">
<title>Node220&#45;&gt;Node225</title>
<path fill="none" stroke="#191970" d="M479.2801,-67C487.0174,-67 495.8425,-67 504.6508,-67"/>
<polygon fill="#191970" stroke="#191970" points="479.1816,-63.5001 469.1816,-67 479.1815,-70.5001 479.1816,-63.5001"/>
</g>
<!-- Node230 -->
<g id="node26" class="node">
<title>Node230</title>
<g id="a_node26"><a xlink:href="xcsf_8c.html#a474f4e13cfc5f00958c689cd8c81135a" target="_top" xlink:title="Executes a single XCSF learning trial. ">
<polygon fill="none" stroke="#000000" points="512.5,-114.5 512.5,-133.5 595.5,-133.5 595.5,-114.5 512.5,-114.5"/>
<text text-anchor="middle" x="554" y="-121.5" font-family="Helvetica,sans-Serif" font-size="10.00" fill="#000000">xcsf_learn_trial</text>
</a>
</g>
</g>
<!-- Node220&#45;&gt;Node230 -->
<g id="edge28" class="edge">
<title>Node220&#45;&gt;Node230</title>
<path fill="none" stroke="#191970" d="M478.0287,-80.4787C496.2445,-90.9139 521.0271,-105.111 537.2618,-114.4113"/>
<polygon fill="#191970" stroke="#191970" points="479.5984,-77.3444 469.1816,-75.4105 476.1189,-83.4183 479.5984,-77.3444"/>
</g>
<!-- Node222 -->
<g id="node18" class="node">
<title>Node222</title>
<g id="a_node18"><a xlink:href="xcs__multi__step_8h.html#acc29d4a55dbd56c16ea5f19f15a7c677" target="_top" xlink:title="Executes a multi&#45;step reinforcement learning experiment. ">
<polygon fill="none" stroke="#000000" points="781,-.5 781,-19.5 885,-19.5 885,-.5 781,-.5"/>
<text text-anchor="middle" x="833" y="-7.5" font-family="Helvetica,sans-Serif" font-size="10.00" fill="#000000">xcs_multi_step_exp</text>
</a>
</g>
</g>
<!-- Node221&#45;&gt;Node222 -->
<g id="edge19" class="edge">
<title>Node221&#45;&gt;Node222</title>
<path fill="none" stroke="#191970" d="M611.9226,-25.0554C661.6806,-21.6669 732.7864,-16.8246 780.8087,-13.5542"/>
<polygon fill="#191970" stroke="#191970" points="611.3839,-21.5839 601.6448,-25.7554 611.8595,-28.5678 611.3839,-21.5839"/>
</g>
<!-- Node223 -->
<g id="node19" class="node">
<title>Node223</title>
<g id="a_node19"><a xlink:href="main_8c.html#ab572a67aa431827116ebd6931d667d21" target="_top" xlink:title="classification">
<polygon fill="none" stroke="#000000" points="959,-38.5 959,-57.5 1033,-57.5 1033,-38.5 959,-38.5"/>
<text text-anchor="middle" x="996" y="-45.5" font-family="Helvetica,sans-Serif" font-size="10.00" fill="#000000">classification</text>
</a>
</g>
</g>
<!-- Node222&#45;&gt;Node223 -->
<g id="edge20" class="edge">
<title>Node222&#45;&gt;Node223</title>
<path fill="none" stroke="#191970" d="M883.8838,-21.8625C908.1266,-27.5142 936.5982,-34.1517 958.7833,-39.3237"/>
<polygon fill="#191970" stroke="#191970" points="884.6653,-18.4509 874.1318,-19.589 883.076,-25.2681 884.6653,-18.4509"/>
</g>
<!-- Node224 -->
<g id="node20" class="node">
<title>Node224</title>
<g id="a_node20"><a xlink:href="main_8c.html#a3c04138a5bfe5d72780bb7e82a18e627" target="_top" xlink:title="main">
<polygon fill="none" stroke="#000000" points="1105,-76.5 1105,-95.5 1143,-95.5 1143,-76.5 1105,-76.5"/>
<text text-anchor="middle" x="1124" y="-83.5" font-family="Helvetica,sans-Serif" font-size="10.00" fill="#000000">main</text>
</a>
</g>
</g>
<!-- Node223&#45;&gt;Node224 -->
<g id="edge21" class="edge">
<title>Node223&#45;&gt;Node224</title>
<path fill="none" stroke="#191970" d="M1037.9951,-60.4673C1060.5448,-67.1617 1087.2443,-75.0882 1104.8458,-80.3136"/>
<polygon fill="#191970" stroke="#191970" points="1038.8824,-57.0798 1028.2998,-57.589 1036.8902,-63.7903 1038.8824,-57.0798"/>
</g>
<!-- Node226 -->
<g id="node22" class="node">
<title>Node226</title>
<g id="a_node22"><a xlink:href="structXCS.html#aedc01ad6f00a54b260a7605929a1d4c9" target="_top" xlink:title="XCS::single_update">
<polygon fill="none" stroke="#000000" points="639,-76.5 639,-95.5 743,-95.5 743,-76.5 639,-76.5"/>
<text text-anchor="middle" x="691" y="-83.5" font-family="Helvetica,sans-Serif" font-size="10.00" fill="#000000">XCS::single_update</text>
</a>
</g>
</g>
<!-- Node225&#45;&gt;Node226 -->
<g id="edge23" class="edge">
<title>Node225&#45;&gt;Node226</title>
<path fill="none" stroke="#191970" d="M613.2254,-75.2137C621.6549,-76.3828 630.2753,-77.5783 638.5632,-78.7277"/>
<polygon fill="#191970" stroke="#191970" points="613.4592,-71.7127 603.0732,-73.8058 612.4976,-78.6464 613.4592,-71.7127"/>
</g>
<!-- Node228 -->
<g id="node24" class="node">
<title>Node228</title>
<g id="a_node24"><a xlink:href="xcs__single__step_8c.html#a3d1fd2472d35310800aed897219a65af" target="_top" xlink:title="Executes a single&#45;step trial using a built&#45;in environment. ">
<polygon fill="none" stroke="#000000" points="649,-38.5 649,-57.5 733,-57.5 733,-38.5 649,-38.5"/>
<text text-anchor="middle" x="691" y="-45.5" font-family="Helvetica,sans-Serif" font-size="10.00" fill="#000000">xcs_single_trial</text>
</a>
</g>
</g>
<!-- Node225&#45;&gt;Node228 -->
<g id="edge25" class="edge">
<title>Node225&#45;&gt;Node228</title>
<path fill="none" stroke="#191970" d="M613.0069,-58.8166C624.9825,-57.1557 637.3528,-55.4401 648.6154,-53.8782"/>
<polygon fill="#191970" stroke="#191970" points="612.4976,-55.3536 603.0732,-60.1942 613.4592,-62.2872 612.4976,-55.3536"/>
</g>
<!-- Node227 -->
<g id="node23" class="node">
<title>Node227</title>
<g id="a_node23"><a xlink:href="python__wrapper_8cpp.html#afbdcc1358036a0b83a6b239da2b098a2" target="_top" xlink:title="BOOST_PYTHON_MODULE">
<polygon fill="none" stroke="#000000" points="923,-95.5 923,-114.5 1069,-114.5 1069,-95.5 923,-95.5"/>
<text text-anchor="middle" x="996" y="-102.5" font-family="Helvetica,sans-Serif" font-size="10.00" fill="#000000">BOOST_PYTHON_MODULE</text>
</a>
</g>
</g>
<!-- Node226&#45;&gt;Node227 -->
<g id="edge24" class="edge">
<title>Node226&#45;&gt;Node227</title>
<path fill="none" stroke="#191970" d="M753.2714,-89.8792C802.4614,-92.9435 871.2093,-97.2262 922.9881,-100.4517"/>
<polygon fill="#191970" stroke="#191970" points="753.2831,-86.3732 743.0848,-89.2446 752.8478,-93.3597 753.2831,-86.3732"/>
</g>
<!-- Node229 -->
<g id="node25" class="node">
<title>Node229</title>
<g id="a_node25"><a xlink:href="xcs__single__step_8h.html#a39a031bf59eaa9b33e30e614610dcda8" target="_top" xlink:title="Executes a single&#45;step experiment. ">
<polygon fill="none" stroke="#000000" points="779,-38.5 779,-57.5 887,-57.5 887,-38.5 779,-38.5"/>
<text text-anchor="middle" x="833" y="-45.5" font-family="Helvetica,sans-Serif" font-size="10.00" fill="#000000">xcs_single_step_exp</text>
</a>
</g>
</g>
<!-- Node228&#45;&gt;Node229 -->
<g id="edge26" class="edge">
<title>Node228&#45;&gt;Node229</title>
<path fill="none" stroke="#191970" d="M743.551,-48C755.0539,-48 767.2511,-48 778.8166,-48"/>
<polygon fill="#191970" stroke="#191970" points="743.2203,-44.5001 733.2202,-48 743.2202,-51.5001 743.2203,-44.5001"/>
</g>
<!-- Node229&#45;&gt;Node223 -->
<g id="edge27" class="edge">
<title>Node229&#45;&gt;Node223</title>
<path fill="none" stroke="#191970" d="M897.3777,-48C918.2632,-48 940.7197,-48 958.9204,-48"/>
<polygon fill="#191970" stroke="#191970" points="897.2767,-44.5001 887.2766,-48 897.2766,-51.5001 897.2767,-44.5001"/>
</g>
<!-- Node231 -->
<g id="node27" class="node">
<title>Node231</title>
<g id="a_node27"><a xlink:href="xcsf_8h.html#a874829f28fee20f9ad15b540f4b4d6ff" target="_top" xlink:title="Executes MAX_TRIALS number of XCSF learning iterations using the training data. ">
<polygon fill="none" stroke="#000000" points="664,-114.5 664,-133.5 718,-133.5 718,-114.5 664,-114.5"/>
<text text-anchor="middle" x="691" y="-121.5" font-family="Helvetica,sans-Serif" font-size="10.00" fill="#000000">xcsf_fit1</text>
</a>
</g>
</g>
<!-- Node230&#45;&gt;Node231 -->
<g id="edge29" class="edge">
<title>Node230&#45;&gt;Node231</title>
<path fill="none" stroke="#191970" d="M605.9115,-124C625.5628,-124 647.1522,-124 663.6669,-124"/>
<polygon fill="#191970" stroke="#191970" points="605.849,-120.5001 595.8489,-124 605.8489,-127.5001 605.849,-120.5001"/>
</g>
<!-- Node233 -->
<g id="node29" class="node">
<title>Node233</title>
<g id="a_node29"><a xlink:href="xcsf_8h.html#a0b4de57cb9dadc9deca7901aa36e5025" target="_top" xlink:title="Executes MAX_TRIALS number of XCSF learning iterations using the training. data and test iterations u...">
<polygon fill="none" stroke="#000000" points="664,-152.5 664,-171.5 718,-171.5 718,-152.5 664,-152.5"/>
<text text-anchor="middle" x="691" y="-159.5" font-family="Helvetica,sans-Serif" font-size="10.00" fill="#000000">xcsf_fit2</text>
</a>
</g>
</g>
<!-- Node230&#45;&gt;Node233 -->
<g id="edge32" class="edge">
<title>Node230&#45;&gt;Node233</title>
<path fill="none" stroke="#191970" d="M598.4823,-136.3382C620.0016,-142.307 645.1417,-149.2802 663.7797,-154.4498"/>
<polygon fill="#191970" stroke="#191970" points="599.1426,-132.8892 588.5709,-133.589 597.2716,-139.6346 599.1426,-132.8892"/>
</g>
<!-- Node232 -->
<g id="node28" class="node">
<title>Node232</title>
<g id="a_node28"><a xlink:href="structXCS.html#ad2ccafe59d2b4ae6d0e1cbc15edee53c" target="_top" xlink:title="XCS::fit">
<polygon fill="none" stroke="#000000" points="807,-114.5 807,-133.5 859,-133.5 859,-114.5 807,-114.5"/>
<text text-anchor="middle" x="833" y="-121.5" font-family="Helvetica,sans-Serif" font-size="10.00" fill="#000000">XCS::fit</text>
</a>
</g>
</g>
<!-- Node231&#45;&gt;Node232 -->
<g id="edge30" class="edge">
<title>Node231&#45;&gt;Node232</title>
<path fill="none" stroke="#191970" d="M728.1114,-124C752.7321,-124 784.4557,-124 806.538,-124"/>
<polygon fill="#191970" stroke="#191970" points="728.0434,-120.5001 718.0434,-124 728.0433,-127.5001 728.0434,-120.5001"/>
</g>
<!-- Node232&#45;&gt;Node227 -->
<g id="edge31" class="edge">
<title>Node232&#45;&gt;Node227</title>
<path fill="none" stroke="#191970" d="M869.5233,-119.7427C885.2717,-117.907 904.2822,-115.691 922.7251,-113.5412"/>
<polygon fill="#191970" stroke="#191970" points="868.7163,-116.313 859.1888,-120.9473 869.5268,-123.2659 868.7163,-116.313"/>
</g>
<!-- Node234 -->
<g id="node30" class="node">
<title>Node234</title>
<g id="a_node30"><a xlink:href="main_8c.html#a968c78da8ed8ad08662a86280deec99a" target="_top" xlink:title="regression">
<polygon fill="none" stroke="#000000" points="965,-171.5 965,-190.5 1027,-190.5 1027,-171.5 965,-171.5"/>
<text text-anchor="middle" x="996" y="-178.5" font-family="Helvetica,sans-Serif" font-size="10.00" fill="#000000">regression</text>
</a>
</g>
</g>
<!-- Node233&#45;&gt;Node234 -->
<g id="edge33" class="edge">
<title>Node233&#45;&gt;Node234</title>
<path fill="none" stroke="#191970" d="M727.9242,-171.8011C743.5572,-175.4723 762.0439,-179.1904 779,-181 844.9311,-188.0365 922.7734,-185.3978 964.9862,-183.0615"/>
<polygon fill="#191970" stroke="#191970" points="728.6517,-168.376 718.108,-169.4159 726.9988,-175.1781 728.6517,-168.376"/>
</g>
<!-- Node235 -->
<g id="node31" class="node">
<title>Node235</title>
<g id="a_node31"><a xlink:href="structXCS.html#a7d53320740db8e846251bacd0238a9fb" target="_top" xlink:title="XCS::fit">
<polygon fill="none" stroke="#000000" points="807,-152.5 807,-171.5 859,-171.5 859,-152.5 807,-152.5"/>
<text text-anchor="middle" x="833" y="-159.5" font-family="Helvetica,sans-Serif" font-size="10.00" fill="#000000">XCS::fit</text>
</a>
</g>
</g>
<!-- Node233&#45;&gt;Node235 -->
<g id="edge35" class="edge">
<title>Node233&#45;&gt;Node235</title>
<path fill="none" stroke="#191970" d="M728.1114,-162C752.7321,-162 784.4557,-162 806.538,-162"/>
<polygon fill="#191970" stroke="#191970" points="728.0434,-158.5001 718.0434,-162 728.0433,-165.5001 728.0434,-158.5001"/>
</g>
<!-- Node234&#45;&gt;Node224 -->
<g id="edge34" class="edge">
<title>Node234&#45;&gt;Node224</title>
<path fill="none" stroke="#191970" d="M1017.5378,-165.0149C1044.2889,-145.1606 1089.0752,-111.9207 1111.0464,-95.614"/>
<polygon fill="#191970" stroke="#191970" points="1015.1602,-162.4208 1009.2161,-171.1911 1019.3321,-168.0418 1015.1602,-162.4208"/>
</g>
</g>
</svg>
