<?xml version="1.0" encoding="UTF-8" standalone="no"?>
<!DOCTYPE svg PUBLIC "-//W3C//DTD SVG 1.1//EN"
 "http://www.w3.org/Graphics/SVG/1.1/DTD/svg11.dtd">
<!-- Generated by graphviz version 2.40.1 (20161225.0304)
 -->
<!-- Title: /home/unknown/work/current/xcsf/xcsf/xcs_multi_step.c Pages: 1 -->
<svg width="905pt" height="106pt"
 viewBox="0.00 0.00 904.50 106.00" xmlns="http://www.w3.org/2000/svg" xmlns:xlink="http://www.w3.org/1999/xlink">
<g id="graph0" class="graph" transform="scale(1 1) rotate(0) translate(4 102)">
<title>/home/unknown/work/current/xcsf/xcsf/xcs_multi_step.c</title>
<!-- Node0 -->
<g id="node1" class="node">
<title>Node0</title>
<polygon fill="#bfbfbf" stroke="#000000" points="394,-56.5 394,-97.5 506,-97.5 506,-56.5 394,-56.5"/>
<text text-anchor="start" x="402" y="-85.5" font-family="Helvetica,sans-Serif" font-size="10.00" fill="#000000">/home/unknown/work</text>
<text text-anchor="start" x="402" y="-74.5" font-family="Helvetica,sans-Serif" font-size="10.00" fill="#000000">/current/xcsf/xcsf/xcs</text>
<text text-anchor="middle" x="450" y="-63.5" font-family="Helvetica,sans-Serif" font-size="10.00" fill="#000000">_multi_step.c</text>
</g>
<!-- Node1 -->
<g id="node2" class="node">
<title>Node1</title>
<polygon fill="none" stroke="#bfbfbf" points="0,-.5 0,-19.5 46,-19.5 46,-.5 0,-.5"/>
<text text-anchor="middle" x="23" y="-7.5" font-family="Helvetica,sans-Serif" font-size="10.00" fill="#000000">stdio.h</text>
</g>
<!-- Node0&#45;&gt;Node1 -->
<g id="edge1" class="edge">
<title>Node0&#45;&gt;Node1</title>
<path fill="none" stroke="#191970" d="M393.8832,-71.7512C318.7896,-64.0992 181.458,-47.9068 56.0753,-19.9618"/>
<polygon fill="#191970" stroke="#191970" points="56.827,-16.5435 46.3015,-17.7538 55.2844,-23.3714 56.827,-16.5435"/>
</g>
<!-- Node2 -->
<g id="node3" class="node">
<title>Node2</title>
<polygon fill="none" stroke="#bfbfbf" points="64,-.5 64,-19.5 112,-19.5 112,-.5 64,-.5"/>
<text text-anchor="middle" x="88" y="-7.5" font-family="Helvetica,sans-Serif" font-size="10.00" fill="#000000">stdlib.h</text>
</g>
<!-- Node0&#45;&gt;Node2 -->
<g id="edge2" class="edge">
<title>Node0&#45;&gt;Node2</title>
<path fill="none" stroke="#191970" d="M393.9842,-69.4341C330.2254,-60.3457 222.8711,-43.5983 121.8158,-19.9707"/>
<polygon fill="#191970" stroke="#191970" points="122.5948,-16.5584 112.0576,-17.6627 120.9835,-23.3704 122.5948,-16.5584"/>
</g>
<!-- Node3 -->
<g id="node4" class="node">
<title>Node3</title>
<polygon fill="none" stroke="#bfbfbf" points="130.5,-.5 130.5,-19.5 179.5,-19.5 179.5,-.5 130.5,-.5"/>
<text text-anchor="middle" x="155" y="-7.5" font-family="Helvetica,sans-Serif" font-size="10.00" fill="#000000">string.h</text>
</g>
<!-- Node0&#45;&gt;Node3 -->
<g id="edge3" class="edge">
<title>Node0&#45;&gt;Node3</title>
<path fill="none" stroke="#191970" d="M393.9789,-65.9653C343.1175,-55.6756 265.8636,-39.3723 189.6034,-20.0223"/>
<polygon fill="#191970" stroke="#191970" points="190.3814,-16.6087 179.8261,-17.523 188.6478,-23.3906 190.3814,-16.6087"/>
</g>
<!-- Node4 -->
<g id="node5" class="node">
<title>Node4</title>
<polygon fill="none" stroke="#bfbfbf" points="198,-.5 198,-19.5 254,-19.5 254,-.5 198,-.5"/>
<text text-anchor="middle" x="226" y="-7.5" font-family="Helvetica,sans-Serif" font-size="10.00" fill="#000000">stdbool.h</text>
</g>
<!-- Node0&#45;&gt;Node4 -->
<g id="edge4" class="edge">
<title>Node0&#45;&gt;Node4</title>
<path fill="none" stroke="#191970" d="M393.7645,-60.1796C353.3067,-48.0784 299.8152,-32.0787 264.2254,-21.4335"/>
<polygon fill="#191970" stroke="#191970" points="264.8226,-17.959 254.239,-18.4465 262.8166,-24.6654 264.8226,-17.959"/>
</g>
<!-- Node5 -->
<g id="node6" class="node">
<title>Node5</title>
<polygon fill="none" stroke="#bfbfbf" points="272.5,-.5 272.5,-19.5 319.5,-19.5 319.5,-.5 272.5,-.5"/>
<text text-anchor="middle" x="296" y="-7.5" font-family="Helvetica,sans-Serif" font-size="10.00" fill="#000000">math.h</text>
</g>
<!-- Node0&#45;&gt;Node5 -->
<g id="edge5" class="edge">
<title>Node0&#45;&gt;Node5</title>
<path fill="none" stroke="#191970" d="M402.5383,-56.3511C378.1671,-45.748 349.1425,-33.1204 327.5472,-23.7251"/>
<polygon fill="#191970" stroke="#191970" points="328.7573,-20.4347 318.1913,-19.6546 325.9647,-26.8536 328.7573,-20.4347"/>
</g>
<!-- Node6 -->
<g id="node7" class="node">
<title>Node6</title>
<g id="a_node7"><a xlink:href="xcsf_8h.html" target="_top" xlink:title="XCSF data structures. ">
<polygon fill="none" stroke="#000000" points="338,-.5 338,-19.5 382,-19.5 382,-.5 338,-.5"/>
<text text-anchor="middle" x="360" y="-7.5" font-family="Helvetica,sans-Serif" font-size="10.00" fill="#000000">xcsf.h</text>
</a>
</g>
</g>
<!-- Node0&#45;&gt;Node6 -->
<g id="edge6" class="edge">
<title>Node0&#45;&gt;Node6</title>
<path fill="none" stroke="#191970" d="M422.0168,-56.168C408.8956,-46.4001 393.5108,-34.9469 381.3472,-25.8918"/>
<polygon fill="#191970" stroke="#191970" points="383.2493,-22.9445 373.1379,-19.7805 379.0693,-28.5594 383.2493,-22.9445"/>
</g>
<!-- Node7 -->
<g id="node8" class="node">
<title>Node7</title>
<g id="a_node8"><a xlink:href="utils_8h.html" target="_top" xlink:title="Utility functions for random number handling, etc. ">
<polygon fill="none" stroke="#000000" points="400.5,-.5 400.5,-19.5 443.5,-19.5 443.5,-.5 400.5,-.5"/>
<text text-anchor="middle" x="422" y="-7.5" font-family="Helvetica,sans-Serif" font-size="10.00" fill="#000000">utils.h</text>
</a>
</g>
</g>
<!-- Node0&#45;&gt;Node7 -->
<g id="edge7" class="edge">
<title>Node0&#45;&gt;Node7</title>
<path fill="none" stroke="#191970" d="M441.2941,-56.168C437.6876,-47.5381 433.5313,-37.5928 430.0021,-29.1479"/>
<polygon fill="#191970" stroke="#191970" points="433.1727,-27.6576 426.0874,-19.7805 426.714,-30.3568 433.1727,-27.6576"/>
</g>
<!-- Node8 -->
<g id="node9" class="node">
<title>Node8</title>
<g id="a_node9"><a xlink:href="cl_8h.html" target="_top" xlink:title="Functions operating on classifiers. ">
<polygon fill="none" stroke="#000000" points="462,-.5 462,-19.5 494,-19.5 494,-.5 462,-.5"/>
<text text-anchor="middle" x="478" y="-7.5" font-family="Helvetica,sans-Serif" font-size="10.00" fill="#000000">cl.h</text>
</a>
</g>
</g>
<!-- Node0&#45;&gt;Node8 -->
<g id="edge8" class="edge">
<title>Node0&#45;&gt;Node8</title>
<path fill="none" stroke="#191970" d="M458.7059,-56.168C462.3124,-47.5381 466.4687,-37.5928 469.9979,-29.1479"/>
<polygon fill="#191970" stroke="#191970" points="473.286,-30.3568 473.9126,-19.7805 466.8273,-27.6576 473.286,-30.3568"/>
</g>
<!-- Node9 -->
<g id="node10" class="node">
<title>Node9</title>
<g id="a_node10"><a xlink:href="cl__set_8h.html" target="_top" xlink:title="Functions operating on sets of classifiers. ">
<polygon fill="none" stroke="#000000" points="512.5,-.5 512.5,-19.5 563.5,-19.5 563.5,-.5 512.5,-.5"/>
<text text-anchor="middle" x="538" y="-7.5" font-family="Helvetica,sans-Serif" font-size="10.00" fill="#000000">cl_set.h</text>
</a>
</g>
</g>
<!-- Node0&#45;&gt;Node9 -->
<g id="edge9" class="edge">
<title>Node0&#45;&gt;Node9</title>
<path fill="none" stroke="#191970" d="M477.3614,-56.168C490.191,-46.4001 505.2339,-34.9469 517.1272,-25.8918"/>
<polygon fill="#191970" stroke="#191970" points="519.3178,-28.623 525.154,-19.7805 515.0774,-23.0535 519.3178,-28.623"/>
</g>
<!-- Node10 -->
<g id="node11" class="node">
<title>Node10</title>
<g id="a_node11"><a xlink:href="pa_8h.html" target="_top" xlink:title="Prediction array functions. ">
<polygon fill="none" stroke="#000000" points="581.5,-.5 581.5,-19.5 616.5,-19.5 616.5,-.5 581.5,-.5"/>
<text text-anchor="middle" x="599" y="-7.5" font-family="Helvetica,sans-Serif" font-size="10.00" fill="#000000">pa.h</text>
</a>
</g>
</g>
<!-- Node0&#45;&gt;Node10 -->
<g id="edge10" class="edge">
<title>Node0&#45;&gt;Node10</title>
<path fill="none" stroke="#191970" d="M495.9207,-56.3511C520.8708,-45.1319 550.8615,-31.6462 572.0441,-22.1211"/>
<polygon fill="#191970" stroke="#191970" points="573.7055,-25.2117 581.3905,-17.9184 570.8347,-18.8274 573.7055,-25.2117"/>
</g>
<!-- Node11 -->
<g id="node12" class="node">
<title>Node11</title>
<g id="a_node12"><a xlink:href="ea_8h.html" target="_top" xlink:title="Evolutionary algorithm functions. ">
<polygon fill="none" stroke="#000000" points="634.5,-.5 634.5,-19.5 669.5,-19.5 669.5,-.5 634.5,-.5"/>
<text text-anchor="middle" x="652" y="-7.5" font-family="Helvetica,sans-Serif" font-size="10.00" fill="#000000">ea.h</text>
</a>
</g>
</g>
<!-- Node0&#45;&gt;Node11 -->
<g id="edge11" class="edge">
<title>Node0&#45;&gt;Node11</title>
<path fill="none" stroke="#191970" d="M506.1411,-59.6679C538.5309,-49.4722 580.2091,-36.0223 624.8557,-20.2967"/>
<polygon fill="#191970" stroke="#191970" points="626.1681,-23.545 634.4256,-16.9069 623.8308,-16.9467 626.1681,-23.545"/>
</g>
<!-- Node12 -->
<g id="node13" class="node">
<title>Node12</title>
<g id="a_node13"><a xlink:href="perf_8h.html" target="_top" xlink:title="System performance printing and plotting with Gnuplot. ">
<polygon fill="none" stroke="#000000" points="687.5,-.5 687.5,-19.5 728.5,-19.5 728.5,-.5 687.5,-.5"/>
<text text-anchor="middle" x="708" y="-7.5" font-family="Helvetica,sans-Serif" font-size="10.00" fill="#000000">perf.h</text>
</a>
</g>
</g>
<!-- Node0&#45;&gt;Node12 -->
<g id="edge12" class="edge">
<title>Node0&#45;&gt;Node12</title>
<path fill="none" stroke="#191970" d="M506.3692,-64.4299C550.6772,-54.2177 614.1031,-38.8704 677.6863,-20.2245"/>
<polygon fill="#191970" stroke="#191970" points="678.8814,-23.5209 687.4771,-17.3271 676.895,-16.8087 678.8814,-23.5209"/>
</g>
<!-- Node13 -->
<g id="node14" class="node">
<title>Node13</title>
<g id="a_node14"><a xlink:href="xcs__multi__step_8h.html" target="_top" xlink:title="Multi&#45;step reinforcement learning functions. ">
<polygon fill="none" stroke="#000000" points="746.5,-.5 746.5,-19.5 837.5,-19.5 837.5,-.5 746.5,-.5"/>
<text text-anchor="middle" x="792" y="-7.5" font-family="Helvetica,sans-Serif" font-size="10.00" fill="#000000">xcs_multi_step.h</text>
</a>
</g>
</g>
<!-- Node0&#45;&gt;Node13 -->
<g id="edge13" class="edge">
<title>Node0&#45;&gt;Node13</title>
<path fill="none" stroke="#191970" d="M506.0914,-66.0113C569.7681,-53.5367 673.0111,-33.3107 736.4588,-20.8809"/>
<polygon fill="#191970" stroke="#191970" points="737.1474,-24.3126 746.288,-18.9553 735.8016,-17.4432 737.1474,-24.3126"/>
</g>
<!-- Node14 -->
<g id="node15" class="node">
<title>Node14</title>
<g id="a_node15"><a xlink:href="env_8h.html" target="_top" xlink:title="Built&#45;in problem environment interface. ">
<polygon fill="none" stroke="#000000" points="855.5,-.5 855.5,-19.5 896.5,-19.5 896.5,-.5 855.5,-.5"/>
<text text-anchor="middle" x="876" y="-7.5" font-family="Helvetica,sans-Serif" font-size="10.00" fill="#000000">env.h</text>
</a>
</g>
</g>
<!-- Node0&#45;&gt;Node14 -->
<g id="edge14" class="edge">
<title>Node0&#45;&gt;Node14</title>
<path fill="none" stroke="#191970" d="M506.1907,-72.3134C581.7223,-65.27 720.1241,-49.7497 845.4632,-20.0404"/>
<polygon fill="#191970" stroke="#191970" points="846.3279,-23.4323 855.2313,-17.6895 844.6899,-16.6267 846.3279,-23.4323"/>
</g>
</g>
</svg>
