<?xml version="1.0" encoding="UTF-8" standalone="no"?>
<!DOCTYPE svg PUBLIC "-//W3C//DTD SVG 1.1//EN"
 "http://www.w3.org/Graphics/SVG/1.1/DTD/svg11.dtd">
<!-- Generated by graphviz version 2.40.1 (20161225.0304)
 -->
<!-- Title: xcs_single_decision Pages: 1 -->
<svg width="1562pt" height="636pt"
 viewBox="0.00 0.00 1562.00 636.00" xmlns="http://www.w3.org/2000/svg" xmlns:xlink="http://www.w3.org/1999/xlink">
<g id="graph0" class="graph" transform="scale(1 1) rotate(0) translate(4 632)">
<title>xcs_single_decision</title>
<!-- Node0 -->
<g id="node1" class="node">
<title>Node0</title>
<polygon fill="#bfbfbf" stroke="#000000" points="0,-76.5 0,-95.5 104,-95.5 104,-76.5 0,-76.5"/>
<text text-anchor="middle" x="52" y="-83.5" font-family="Helvetica,sans-Serif" font-size="10.00" fill="#000000">xcs_single_decision</text>
</g>
<!-- Node1 -->
<g id="node2" class="node">
<title>Node1</title>
<g id="a_node2"><a xlink:href="clset_8c.html#a460e3bd1d979c502e9e9d97d4253f97c" target="_top" xlink:title="Constructs the match set. ">
<polygon fill="none" stroke="#000000" points="146.5,-289.5 146.5,-308.5 216.5,-308.5 216.5,-289.5 146.5,-289.5"/>
<text text-anchor="middle" x="181.5" y="-296.5" font-family="Helvetica,sans-Serif" font-size="10.00" fill="#000000">clset_match</text>
</a>
</g>
</g>
<!-- Node0&#45;&gt;Node1 -->
<g id="edge1" class="edge">
<title>Node0&#45;&gt;Node1</title>
<path fill="none" stroke="#191970" d="M57.9009,-95.7057C77.9574,-128.6945 143.725,-236.8681 170.2551,-280.5045"/>
<polygon fill="#191970" stroke="#191970" points="167.3788,-282.5109 175.5645,-289.2373 173.3601,-278.8744 167.3788,-282.5109"/>
</g>
<!-- Node23 -->
<g id="node24" class="node">
<title>Node23</title>
<g id="a_node24"><a xlink:href="utils_8c.html#ae42a9e1d467853befaa7922cfafed3bb" target="_top" xlink:title="Returns a uniform random float [min,max]. ">
<polygon fill="none" stroke="#000000" points="1040,-171.5 1040,-190.5 1113,-190.5 1113,-171.5 1040,-171.5"/>
<text text-anchor="middle" x="1076.5" y="-178.5" font-family="Helvetica,sans-Serif" font-size="10.00" fill="#000000">rand_uniform</text>
</a>
</g>
</g>
<!-- Node0&#45;&gt;Node23 -->
<g id="edge50" class="edge">
<title>Node0&#45;&gt;Node23</title>
<path fill="none" stroke="#191970" d="M104.0748,-86C152.7872,-86 227.5734,-86 292.5,-86 292.5,-86 292.5,-86 802.5,-86 899.2956,-86 1005.2395,-139.5795 1051.9989,-166.2625"/>
<polygon fill="#191970" stroke="#191970" points="1050.3921,-169.3767 1060.7981,-171.3681 1053.9052,-163.322 1050.3921,-169.3767"/>
</g>
<!-- Node40 -->
<g id="node41" class="node">
<title>Node40</title>
<g id="a_node41"><a xlink:href="pa_8c.html#ac934537ad2bbae81042677d1a03e5ee4" target="_top" xlink:title="Returns the best action in the prediction array. ">
<polygon fill="none" stroke="#000000" points="140,-38.5 140,-57.5 223,-57.5 223,-38.5 140,-38.5"/>
<text text-anchor="middle" x="181.5" y="-45.5" font-family="Helvetica,sans-Serif" font-size="10.00" fill="#000000">pa_best_action</text>
</a>
</g>
</g>
<!-- Node0&#45;&gt;Node40 -->
<g id="edge44" class="edge">
<title>Node0&#45;&gt;Node40</title>
<path fill="none" stroke="#191970" d="M84.6783,-76.411C101.0888,-71.5956 121.1763,-65.7012 138.7922,-60.532"/>
<polygon fill="#191970" stroke="#191970" points="140.2222,-63.7601 148.8321,-57.5859 138.2512,-57.0433 140.2222,-63.7601"/>
</g>
<!-- Node41 -->
<g id="node42" class="node">
<title>Node41</title>
<g id="a_node42"><a xlink:href="pa_8c.html#a7709f55993f14e74995a7495fbea2474" target="_top" xlink:title="Builds the prediction array for the specified input. ">
<polygon fill="none" stroke="#000000" points="155,-.5 155,-19.5 208,-19.5 208,-.5 155,-.5"/>
<text text-anchor="middle" x="181.5" y="-7.5" font-family="Helvetica,sans-Serif" font-size="10.00" fill="#000000">pa_build</text>
</a>
</g>
</g>
<!-- Node0&#45;&gt;Node41 -->
<g id="edge45" class="edge">
<title>Node0&#45;&gt;Node41</title>
<path fill="none" stroke="#191970" d="M65.3415,-76.483C82.2647,-64.6183 112.5551,-44.0668 140,-29 143.0802,-27.309 146.3385,-25.6338 149.6207,-24.0196"/>
<polygon fill="#191970" stroke="#191970" points="151.2667,-27.1128 158.8065,-19.6695 148.2707,-20.7863 151.2667,-27.1128"/>
</g>
<!-- Node44 -->
<g id="node45" class="node">
<title>Node44</title>
<g id="a_node45"><a xlink:href="pa_8c.html#a729cd032e57cbcdbf1c44b9cc3c23227" target="_top" xlink:title="Returns a random action from the prediction array. ">
<polygon fill="none" stroke="#000000" points="761,-114.5 761,-133.5 844,-133.5 844,-114.5 761,-114.5"/>
<text text-anchor="middle" x="802.5" y="-121.5" font-family="Helvetica,sans-Serif" font-size="10.00" fill="#000000">pa_rand_action</text>
</a>
</g>
</g>
<!-- Node0&#45;&gt;Node44 -->
<g id="edge48" class="edge">
<title>Node0&#45;&gt;Node44</title>
<path fill="none" stroke="#191970" d="M89.2041,-95.589C136.2205,-106.8462 219.7931,-124 292.5,-124 292.5,-124 292.5,-124 555.5,-124 622.9578,-124 700.7788,-124 750.7544,-124"/>
<polygon fill="#191970" stroke="#191970" points="750.9822,-127.5001 760.9822,-124 750.9822,-120.5001 750.9822,-127.5001"/>
</g>
<!-- Node2 -->
<g id="node3" class="node">
<title>Node2</title>
<g id="a_node3"><a xlink:href="cl_8c.html#a03bd37ba4e5697866192d6f643a50de3" target="_top" xlink:title="Computes the current classifier action using the input. ">
<polygon fill="none" stroke="#000000" points="264.5,-232.5 264.5,-251.5 320.5,-251.5 320.5,-232.5 264.5,-232.5"/>
<text text-anchor="middle" x="292.5" y="-239.5" font-family="Helvetica,sans-Serif" font-size="10.00" fill="#000000">cl_action</text>
</a>
</g>
</g>
<!-- Node1&#45;&gt;Node2 -->
<g id="edge2" class="edge">
<title>Node1&#45;&gt;Node2</title>
<path fill="none" stroke="#191970" d="M200.0789,-289.4595C217.7675,-280.3761 244.6134,-266.5904 264.8215,-256.2133"/>
<polygon fill="#191970" stroke="#191970" points="266.5636,-259.2532 273.8605,-251.5716 263.366,-253.0263 266.5636,-259.2532"/>
</g>
<!-- Node4 -->
<g id="node5" class="node">
<title>Node4</title>
<g id="a_node5"><a xlink:href="cl_8c.html#ad26f65e65f9785ce44ece9979362d889" target="_top" xlink:title="Returns whether the classifier matched the most recent input. ">
<polygon fill="none" stroke="#000000" points="273.5,-335.5 273.5,-354.5 311.5,-354.5 311.5,-335.5 273.5,-335.5"/>
<text text-anchor="middle" x="292.5" y="-342.5" font-family="Helvetica,sans-Serif" font-size="10.00" fill="#000000">cl_m</text>
</a>
</g>
</g>
<!-- Node1&#45;&gt;Node4 -->
<g id="edge4" class="edge">
<title>Node1&#45;&gt;Node4</title>
<path fill="none" stroke="#191970" d="M204.4993,-308.5312C221.724,-315.6694 245.3972,-325.4799 263.8519,-333.1278"/>
<polygon fill="#191970" stroke="#191970" points="262.6506,-336.4186 273.2287,-337.0137 265.3305,-329.9519 262.6506,-336.4186"/>
</g>
<!-- Node5 -->
<g id="node6" class="node">
<title>Node5</title>
<g id="a_node6"><a xlink:href="cl_8c.html#af5a666538852ce0406d5d8ad933f92f7" target="_top" xlink:title="Calculates whether the classifier matches the input. ">
<polygon fill="none" stroke="#000000" points="264.5,-166.5 264.5,-185.5 320.5,-185.5 320.5,-166.5 264.5,-166.5"/>
<text text-anchor="middle" x="292.5" y="-173.5" font-family="Helvetica,sans-Serif" font-size="10.00" fill="#000000">cl_match</text>
</a>
</g>
</g>
<!-- Node1&#45;&gt;Node5 -->
<g id="edge5" class="edge">
<title>Node1&#45;&gt;Node5</title>
<path fill="none" stroke="#191970" d="M190.21,-289.3484C208.9334,-268.6008 253.2333,-219.5117 276.9221,-193.262"/>
<polygon fill="#191970" stroke="#191970" points="279.7292,-195.3756 283.8305,-185.6068 274.5324,-190.6858 279.7292,-195.3756"/>
</g>
<!-- Node7 -->
<g id="node8" class="node">
<title>Node7</title>
<g id="a_node8"><a xlink:href="clset_8c.html#a73ab8d4cc3a3e4f70561c7f5bf20c265" target="_top" xlink:title="Adds a classifier to the set. ">
<polygon fill="none" stroke="#000000" points="639,-418.5 639,-437.5 698,-437.5 698,-418.5 639,-418.5"/>
<text text-anchor="middle" x="668.5" y="-425.5" font-family="Helvetica,sans-Serif" font-size="10.00" fill="#000000">clset_add</text>
</a>
</g>
</g>
<!-- Node1&#45;&gt;Node7 -->
<g id="edge7" class="edge">
<title>Node1&#45;&gt;Node7</title>
<path fill="none" stroke="#191970" d="M189.1158,-308.8761C211.6983,-337.2347 281.7467,-418.689 362,-447 453.2532,-479.1915 569.1771,-456.1859 628.9203,-440.0697"/>
<polygon fill="#191970" stroke="#191970" points="630.0089,-443.3999 638.7092,-437.3538 628.1374,-436.6547 630.0089,-443.3999"/>
</g>
<!-- Node8 -->
<g id="node9" class="node">
<title>Node8</title>
<g id="a_node9"><a xlink:href="clset_8c.html#afc4b91ff72294195a5462944b92ec9b2" target="_top" xlink:title="Ensures all possible actions are covered by the match set. ">
<polygon fill="none" stroke="#000000" points="259,-297.5 259,-316.5 326,-316.5 326,-297.5 259,-297.5"/>
<text text-anchor="middle" x="292.5" y="-304.5" font-family="Helvetica,sans-Serif" font-size="10.00" fill="#000000">clset_cover</text>
</a>
</g>
</g>
<!-- Node1&#45;&gt;Node8 -->
<g id="edge8" class="edge">
<title>Node1&#45;&gt;Node8</title>
<path fill="none" stroke="#191970" d="M216.6211,-301.5313C226.8251,-302.2667 238.0964,-303.079 248.7606,-303.8476"/>
<polygon fill="#191970" stroke="#191970" points="248.5185,-307.3391 258.7442,-304.5672 249.0217,-300.3573 248.5185,-307.3391"/>
</g>
<!-- Node3 -->
<g id="node4" class="node">
<title>Node3</title>
<g id="a_node4"><a xlink:href="action_8h.html#aab6ebb454826f8e9425efc0ed2917023" target="_top" xlink:title="act_compute">
<polygon fill="none" stroke="#000000" points="385,-190.5 385,-209.5 458,-209.5 458,-190.5 385,-190.5"/>
<text text-anchor="middle" x="421.5" y="-197.5" font-family="Helvetica,sans-Serif" font-size="10.00" fill="#000000">act_compute</text>
</a>
</g>
</g>
<!-- Node2&#45;&gt;Node3 -->
<g id="edge3" class="edge">
<title>Node2&#45;&gt;Node3</title>
<path fill="none" stroke="#191970" d="M320.5454,-232.6445C333.2001,-228.4422 348.342,-223.4405 362,-219 368.4436,-216.905 375.2865,-214.7008 381.9497,-212.5655"/>
<polygon fill="#191970" stroke="#191970" points="383.0571,-215.8861 391.5163,-209.5071 380.9254,-209.2185 383.0571,-215.8861"/>
</g>
<!-- Node6 -->
<g id="node7" class="node">
<title>Node6</title>
<g id="a_node7"><a xlink:href="condition_8h.html#a921ad37edd9a0af1c245bd9a490e3527" target="_top" xlink:title="cond_match">
<polygon fill="none" stroke="#000000" points="386.5,-152.5 386.5,-171.5 456.5,-171.5 456.5,-152.5 386.5,-152.5"/>
<text text-anchor="middle" x="421.5" y="-159.5" font-family="Helvetica,sans-Serif" font-size="10.00" fill="#000000">cond_match</text>
</a>
</g>
</g>
<!-- Node5&#45;&gt;Node6 -->
<g id="edge6" class="edge">
<title>Node5&#45;&gt;Node6</title>
<path fill="none" stroke="#191970" d="M320.8096,-172.9276C337.0799,-171.1619 357.8927,-168.9031 376.3685,-166.898"/>
<polygon fill="#191970" stroke="#191970" points="376.7848,-170.3735 386.3487,-165.8149 376.0294,-163.4143 376.7848,-170.3735"/>
</g>
<!-- Node8&#45;&gt;Node7 -->
<g id="edge32" class="edge">
<title>Node8&#45;&gt;Node7</title>
<path fill="none" stroke="#191970" d="M312.4585,-316.6724C317.1317,-319.3728 321.9296,-322.5296 326,-326 345.4903,-342.6171 340.0314,-357.8325 362,-371 406.5242,-397.6869 556.4027,-416.3829 628.7581,-424.0803"/>
<polygon fill="#191970" stroke="#191970" points="628.5394,-427.5764 638.8492,-425.1358 629.2676,-420.6144 628.5394,-427.5764"/>
</g>
<!-- Node9 -->
<g id="node10" class="node">
<title>Node9</title>
<g id="a_node10"><a xlink:href="cl_8c.html#a502630fa339b234b42b9b859a8c70986" target="_top" xlink:title="Covers the condition and action for a classifier. ">
<polygon fill="none" stroke="#000000" points="395,-266.5 395,-285.5 448,-285.5 448,-266.5 395,-266.5"/>
<text text-anchor="middle" x="421.5" y="-273.5" font-family="Helvetica,sans-Serif" font-size="10.00" fill="#000000">cl_cover</text>
</a>
</g>
</g>
<!-- Node8&#45;&gt;Node9 -->
<g id="edge9" class="edge">
<title>Node8&#45;&gt;Node9</title>
<path fill="none" stroke="#191970" d="M326.0565,-298.936C344.0711,-294.607 366.3061,-289.2636 384.7816,-284.8238"/>
<polygon fill="#191970" stroke="#191970" points="385.7029,-288.2021 394.6083,-282.4624 384.0672,-281.3959 385.7029,-288.2021"/>
</g>
<!-- Node19 -->
<g id="node20" class="node">
<title>Node19</title>
<g id="a_node20"><a xlink:href="cl_8c.html#ab45c6f772a335d0a4fdb753a61958744" target="_top" xlink:title="Initialises a new classifier. ">
<polygon fill="none" stroke="#000000" points="400.5,-228.5 400.5,-247.5 442.5,-247.5 442.5,-228.5 400.5,-228.5"/>
<text text-anchor="middle" x="421.5" y="-235.5" font-family="Helvetica,sans-Serif" font-size="10.00" fill="#000000">cl_init</text>
</a>
</g>
</g>
<!-- Node8&#45;&gt;Node19 -->
<g id="edge19" class="edge">
<title>Node8&#45;&gt;Node19</title>
<path fill="none" stroke="#191970" d="M303.5843,-297.3176C316.7343,-286.2527 339.6952,-268.2284 362,-257 370.9623,-252.4883 381.2192,-248.7559 390.664,-245.8287"/>
<polygon fill="#191970" stroke="#191970" points="391.8693,-249.1233 400.4941,-242.9699 389.9145,-242.4018 391.8693,-249.1233"/>
</g>
<!-- Node30 -->
<g id="node31" class="node">
<title>Node30</title>
<g id="a_node31"><a xlink:href="clset_8c.html#a1be391cf8ecd96d1a71b1dc6a7feb4a9" target="_top" xlink:title="Returns whether an action is covered by the set. ">
<polygon fill="none" stroke="#000000" points="367,-342.5 367,-361.5 476,-361.5 476,-342.5 367,-342.5"/>
<text text-anchor="middle" x="421.5" y="-349.5" font-family="Helvetica,sans-Serif" font-size="10.00" fill="#000000">clset_action_covered</text>
</a>
</g>
</g>
<!-- Node8&#45;&gt;Node30 -->
<g id="edge31" class="edge">
<title>Node8&#45;&gt;Node30</title>
<path fill="none" stroke="#191970" d="M317.1614,-316.5607C330.3986,-321.6076 347.0276,-327.8123 362,-333 368.0516,-335.0968 374.478,-337.2374 380.784,-339.29"/>
<polygon fill="#191970" stroke="#191970" points="379.9319,-342.6925 390.5233,-342.4242 382.0763,-336.029 379.9319,-342.6925"/>
</g>
<!-- Node31 -->
<g id="node32" class="node">
<title>Node31</title>
<g id="a_node32"><a xlink:href="clset_8c.html#ad87086ed11e5fdd6bffe41b8a34f3608" target="_top" xlink:title="Enforces the maximum population size limit. ">
<polygon fill="none" stroke="#000000" points="362,-418.5 362,-437.5 481,-437.5 481,-418.5 362,-418.5"/>
<text text-anchor="middle" x="421.5" y="-425.5" font-family="Helvetica,sans-Serif" font-size="10.00" fill="#000000">clset_pop_enforce_limit</text>
</a>
</g>
</g>
<!-- Node8&#45;&gt;Node31 -->
<g id="edge33" class="edge">
<title>Node8&#45;&gt;Node31</title>
<path fill="none" stroke="#191970" d="M314.1419,-316.6332C318.4382,-319.2344 322.6505,-322.3583 326,-326 351.8473,-354.1015 334.3487,-377.6716 362,-404 366.0838,-407.8884 370.8793,-411.1775 375.9452,-413.9522"/>
<polygon fill="#191970" stroke="#191970" points="374.7295,-417.2505 385.2608,-418.4095 377.7509,-410.9361 374.7295,-417.2505"/>
</g>
<!-- Node39 -->
<g id="node40" class="node">
<title>Node39</title>
<g id="a_node40"><a xlink:href="clset_8c.html#a7ec1121fd19ff524f19b46ffa0522dd9" target="_top" xlink:title="Removes classifiers with 0 numerosity from the set. ">
<polygon fill="none" stroke="#000000" points="383,-304.5 383,-323.5 460,-323.5 460,-304.5 383,-304.5"/>
<text text-anchor="middle" x="421.5" y="-311.5" font-family="Helvetica,sans-Serif" font-size="10.00" fill="#000000">clset_validate</text>
</a>
</g>
</g>
<!-- Node8&#45;&gt;Node39 -->
<g id="edge43" class="edge">
<title>Node8&#45;&gt;Node39</title>
<path fill="none" stroke="#191970" d="M326.0565,-308.8209C340.2638,-309.5918 357.0961,-310.5052 372.6391,-311.3486"/>
<polygon fill="#191970" stroke="#191970" points="372.4513,-314.8435 382.6263,-311.8906 372.8306,-307.8538 372.4513,-314.8435"/>
</g>
<!-- Node10 -->
<g id="node11" class="node">
<title>Node10</title>
<g id="a_node11"><a xlink:href="action_8h.html#ac250a5534d7c5fb268e0ccdb479d6e20" target="_top" xlink:title="act_cover">
<polygon fill="none" stroke="#000000" points="526,-342.5 526,-361.5 585,-361.5 585,-342.5 526,-342.5"/>
<text text-anchor="middle" x="555.5" y="-349.5" font-family="Helvetica,sans-Serif" font-size="10.00" fill="#000000">act_cover</text>
</a>
</g>
</g>
<!-- Node9&#45;&gt;Node10 -->
<g id="edge10" class="edge">
<title>Node9&#45;&gt;Node10</title>
<path fill="none" stroke="#191970" d="M448.2216,-281.4634C458.9429,-284.4169 471.0823,-288.7716 481,-295 500.7016,-307.3726 498.2764,-319.192 517,-333 519.0996,-334.5484 521.3447,-336.0285 523.6563,-337.4301"/>
<polygon fill="#191970" stroke="#191970" points="522.2858,-340.6708 532.7344,-342.4251 525.6603,-334.5379 522.2858,-340.6708"/>
</g>
<!-- Node11 -->
<g id="node12" class="node">
<title>Node11</title>
<g id="a_node12"><a xlink:href="cl_8c.html#a7b56e6acc90b92c0692466ae2b7d2a24" target="_top" xlink:title="Initialises random actions, conditions and predictions. ">
<polygon fill="none" stroke="#000000" points="531.5,-266.5 531.5,-285.5 579.5,-285.5 579.5,-266.5 531.5,-266.5"/>
<text text-anchor="middle" x="555.5" y="-273.5" font-family="Helvetica,sans-Serif" font-size="10.00" fill="#000000">cl_rand</text>
</a>
</g>
</g>
<!-- Node9&#45;&gt;Node11 -->
<g id="edge11" class="edge">
<title>Node9&#45;&gt;Node11</title>
<path fill="none" stroke="#191970" d="M448.2948,-276C469.2619,-276 498.5649,-276 521.237,-276"/>
<polygon fill="#191970" stroke="#191970" points="521.4505,-279.5001 531.4504,-276 521.4504,-272.5001 521.4505,-279.5001"/>
</g>
<!-- Node18 -->
<g id="node19" class="node">
<title>Node18</title>
<g id="a_node19"><a xlink:href="condition_8h.html#af6a4967f684827b76d279cc04420ab6d" target="_top" xlink:title="cond_cover">
<polygon fill="none" stroke="#000000" points="522,-304.5 522,-323.5 589,-323.5 589,-304.5 522,-304.5"/>
<text text-anchor="middle" x="555.5" y="-311.5" font-family="Helvetica,sans-Serif" font-size="10.00" fill="#000000">cond_cover</text>
</a>
</g>
</g>
<!-- Node9&#45;&gt;Node18 -->
<g id="edge18" class="edge">
<title>Node9&#45;&gt;Node18</title>
<path fill="none" stroke="#191970" d="M448.2948,-283.5985C466.4927,-288.7591 490.9699,-295.7004 511.9412,-301.6475"/>
<polygon fill="#191970" stroke="#191970" points="511.0267,-305.0261 521.6023,-304.3872 512.9365,-298.2917 511.0267,-305.0261"/>
</g>
<!-- Node12 -->
<g id="node13" class="node">
<title>Node12</title>
<g id="a_node13"><a xlink:href="action_8h.html#a7561ff50b261f644feae225259c8b8f6" target="_top" xlink:title="act_init">
<polygon fill="none" stroke="#000000" points="644.5,-342.5 644.5,-361.5 692.5,-361.5 692.5,-342.5 644.5,-342.5"/>
<text text-anchor="middle" x="668.5" y="-349.5" font-family="Helvetica,sans-Serif" font-size="10.00" fill="#000000">act_init</text>
</a>
</g>
</g>
<!-- Node11&#45;&gt;Node12 -->
<g id="edge12" class="edge">
<title>Node11&#45;&gt;Node12</title>
<path fill="none" stroke="#191970" d="M578.2656,-285.5749C583.6415,-288.2782 589.2009,-291.4609 594,-295 612.7236,-308.808 611.2764,-319.192 630,-333 632.0996,-334.5484 634.3447,-336.0285 636.6563,-337.4301"/>
<polygon fill="#191970" stroke="#191970" points="635.2858,-340.6708 645.7344,-342.4251 638.6603,-334.5379 635.2858,-340.6708"/>
</g>
<!-- Node13 -->
<g id="node14" class="node">
<title>Node13</title>
<g id="a_node14"><a xlink:href="action_8c.html#ac235375c6dc54d6abca5efb0f50b1400" target="_top" xlink:title="Sets a classifier&#39;s action functions to the implementations. ">
<polygon fill="none" stroke="#000000" points="637.5,-304.5 637.5,-323.5 699.5,-323.5 699.5,-304.5 637.5,-304.5"/>
<text text-anchor="middle" x="668.5" y="-311.5" font-family="Helvetica,sans-Serif" font-size="10.00" fill="#000000">action_set</text>
</a>
</g>
</g>
<!-- Node11&#45;&gt;Node13 -->
<g id="edge13" class="edge">
<title>Node11&#45;&gt;Node13</title>
<path fill="none" stroke="#191970" d="M579.7413,-284.152C594.4866,-289.1105 613.6401,-295.5515 630.3785,-301.1804"/>
<polygon fill="#191970" stroke="#191970" points="629.3091,-304.5133 639.9032,-304.3834 631.5404,-297.8784 629.3091,-304.5133"/>
</g>
<!-- Node14 -->
<g id="node15" class="node">
<title>Node14</title>
<g id="a_node15"><a xlink:href="condition_8h.html#ac4e250ced4f7408df04ba9ac9f302c6e" target="_top" xlink:title="cond_init">
<polygon fill="none" stroke="#000000" points="640.5,-266.5 640.5,-285.5 696.5,-285.5 696.5,-266.5 640.5,-266.5"/>
<text text-anchor="middle" x="668.5" y="-273.5" font-family="Helvetica,sans-Serif" font-size="10.00" fill="#000000">cond_init</text>
</a>
</g>
</g>
<!-- Node11&#45;&gt;Node14 -->
<g id="edge14" class="edge">
<title>Node11&#45;&gt;Node14</title>
<path fill="none" stroke="#191970" d="M579.7413,-276C594.4562,-276 613.5611,-276 630.275,-276"/>
<polygon fill="#191970" stroke="#191970" points="630.3121,-279.5001 640.3121,-276 630.312,-272.5001 630.3121,-279.5001"/>
</g>
<!-- Node15 -->
<g id="node16" class="node">
<title>Node15</title>
<g id="a_node16"><a xlink:href="condition_8c.html#aa485cf16f149e89aae83972b83b70596" target="_top" xlink:title="Sets a classifier&#39;s condition functions to the implementations. ">
<polygon fill="none" stroke="#000000" points="631.5,-228.5 631.5,-247.5 705.5,-247.5 705.5,-228.5 631.5,-228.5"/>
<text text-anchor="middle" x="668.5" y="-235.5" font-family="Helvetica,sans-Serif" font-size="10.00" fill="#000000">condition_set</text>
</a>
</g>
</g>
<!-- Node11&#45;&gt;Node15 -->
<g id="edge15" class="edge">
<title>Node11&#45;&gt;Node15</title>
<path fill="none" stroke="#191970" d="M579.7413,-267.848C594.4866,-262.8895 613.6401,-256.4485 630.3785,-250.8196"/>
<polygon fill="#191970" stroke="#191970" points="631.5404,-254.1216 639.9032,-247.6166 629.3091,-247.4867 631.5404,-254.1216"/>
</g>
<!-- Node16 -->
<g id="node17" class="node">
<title>Node16</title>
<g id="a_node17"><a xlink:href="prediction_8h.html#a32efd0b8ad0f4cbc72683c35c5e49afd" target="_top" xlink:title="pred_init">
<polygon fill="none" stroke="#000000" points="642,-190.5 642,-209.5 695,-209.5 695,-190.5 642,-190.5"/>
<text text-anchor="middle" x="668.5" y="-197.5" font-family="Helvetica,sans-Serif" font-size="10.00" fill="#000000">pred_init</text>
</a>
</g>
</g>
<!-- Node11&#45;&gt;Node16 -->
<g id="edge16" class="edge">
<title>Node11&#45;&gt;Node16</title>
<path fill="none" stroke="#191970" d="M566.6137,-266.3899C580.7539,-254.4291 606.2048,-233.7785 630,-219 632.6376,-217.3619 635.4362,-215.7538 638.2736,-214.2093"/>
<polygon fill="#191970" stroke="#191970" points="640.0429,-217.2348 647.3193,-209.5338 636.8287,-211.0163 640.0429,-217.2348"/>
</g>
<!-- Node17 -->
<g id="node18" class="node">
<title>Node17</title>
<g id="a_node18"><a xlink:href="prediction_8c.html#acc3389ac08ab3b032ab1223e3339be12" target="_top" xlink:title="Sets a classifier&#39;s prediction functions to the implementations. ">
<polygon fill="none" stroke="#000000" points="630,-380.5 630,-399.5 707,-399.5 707,-380.5 630,-380.5"/>
<text text-anchor="middle" x="668.5" y="-387.5" font-family="Helvetica,sans-Serif" font-size="10.00" fill="#000000">prediction_set</text>
</a>
</g>
</g>
<!-- Node11&#45;&gt;Node17 -->
<g id="edge17" class="edge">
<title>Node11&#45;&gt;Node17</title>
<path fill="none" stroke="#191970" d="M579.5412,-284.7731C584.7551,-287.4735 589.9221,-290.8561 594,-295 620.2154,-321.64 603.7846,-344.36 630,-371 631.3724,-372.3946 632.8681,-373.7029 634.4474,-374.9281"/>
<polygon fill="#191970" stroke="#191970" points="632.561,-377.8763 642.8572,-380.3744 636.3662,-372.0008 632.561,-377.8763"/>
</g>
<!-- Node20 -->
<g id="node21" class="node">
<title>Node20</title>
<g id="a_node21"><a xlink:href="sam_8c.html#ac19f397e3c1bd2a2a4f4a1174509ac67" target="_top" xlink:title="Initialises a classifier&#39;s self&#45;adaptive mutation rates. ">
<polygon fill="none" stroke="#000000" points="529,-190.5 529,-209.5 582,-209.5 582,-190.5 529,-190.5"/>
<text text-anchor="middle" x="555.5" y="-197.5" font-family="Helvetica,sans-Serif" font-size="10.00" fill="#000000">sam_init</text>
</a>
</g>
</g>
<!-- Node19&#45;&gt;Node20 -->
<g id="edge20" class="edge">
<title>Node19&#45;&gt;Node20</title>
<path fill="none" stroke="#191970" d="M442.7327,-231.9788C463.2288,-226.1665 494.6707,-217.2501 519.1523,-210.3076"/>
<polygon fill="#191970" stroke="#191970" points="520.1624,-213.6592 528.8281,-207.5637 518.2525,-206.9248 520.1624,-213.6592"/>
</g>
<!-- Node21 -->
<g id="node22" class="node">
<title>Node21</title>
<g id="a_node22"><a xlink:href="sam_8c.html#a934d788eb57734b6118fff7385733803" target="_top" xlink:title="Resets a classifier&#39;s self&#45;adaptive mutation rates. ">
<polygon fill="none" stroke="#000000" points="637.5,-152.5 637.5,-171.5 699.5,-171.5 699.5,-152.5 637.5,-152.5"/>
<text text-anchor="middle" x="668.5" y="-159.5" font-family="Helvetica,sans-Serif" font-size="10.00" fill="#000000">sam_reset</text>
</a>
</g>
</g>
<!-- Node20&#45;&gt;Node21 -->
<g id="edge21" class="edge">
<title>Node20&#45;&gt;Node21</title>
<path fill="none" stroke="#191970" d="M582.2794,-190.9945C596.6561,-186.1599 614.6217,-180.1184 630.427,-174.8033"/>
<polygon fill="#191970" stroke="#191970" points="631.5746,-178.1101 639.9374,-171.6051 629.3434,-171.4752 631.5746,-178.1101"/>
</g>
<!-- Node22 -->
<g id="node23" class="node">
<title>Node22</title>
<g id="a_node23"><a xlink:href="sam_8c.html#a9b54bfbcf790a621afa925081a66941e" target="_top" xlink:title="Initialises log normal self&#45;adaptive mutation rates. ">
<polygon fill="none" stroke="#000000" points="898,-190.5 898,-209.5 1004,-209.5 1004,-190.5 898,-190.5"/>
<text text-anchor="middle" x="951" y="-197.5" font-family="Helvetica,sans-Serif" font-size="10.00" fill="#000000">sam_log_normal_init</text>
</a>
</g>
</g>
<!-- Node21&#45;&gt;Node22 -->
<g id="edge22" class="edge">
<title>Node21&#45;&gt;Node22</title>
<path fill="none" stroke="#191970" d="M699.7995,-171.1591C713.0269,-174.722 728.6614,-178.5327 743,-181 791.0988,-189.2764 846.1165,-194.102 887.4822,-196.8177"/>
<polygon fill="#191970" stroke="#191970" points="887.4913,-200.3251 897.6923,-197.4634 887.9332,-193.3391 887.4913,-200.3251"/>
</g>
<!-- Node28 -->
<g id="node29" class="node">
<title>Node28</title>
<g id="a_node29"><a xlink:href="sam_8c.html#afa2d48bd3ec297da02c66bdbb554280b" target="_top" xlink:title="Initialises rate selection self&#45;adaptive mutation. ">
<polygon fill="none" stroke="#000000" points="743,-152.5 743,-171.5 862,-171.5 862,-152.5 743,-152.5"/>
<text text-anchor="middle" x="802.5" y="-159.5" font-family="Helvetica,sans-Serif" font-size="10.00" fill="#000000">sam_rate_selection_init</text>
</a>
</g>
</g>
<!-- Node21&#45;&gt;Node28 -->
<g id="edge28" class="edge">
<title>Node21&#45;&gt;Node28</title>
<path fill="none" stroke="#191970" d="M699.5791,-162C709.5653,-162 721.0631,-162 732.6743,-162"/>
<polygon fill="#191970" stroke="#191970" points="732.8721,-165.5001 742.8721,-162 732.872,-158.5001 732.8721,-165.5001"/>
</g>
<!-- Node22&#45;&gt;Node23 -->
<g id="edge23" class="edge">
<title>Node22&#45;&gt;Node23</title>
<path fill="none" stroke="#191970" d="M1004.2233,-191.9423C1012.7725,-190.648 1021.5632,-189.3171 1029.9406,-188.0488"/>
<polygon fill="#191970" stroke="#191970" points="1030.5469,-191.497 1039.9103,-186.5395 1029.4991,-184.5759 1030.5469,-191.497"/>
</g>
<!-- Node24 -->
<g id="node25" class="node">
<title>Node24</title>
<g id="a_node25"><a xlink:href="utils_8c.html#a101d27cdda714b7f17a06224c65cac56" target="_top" xlink:title="Returns a uniform random float [0,1]. ">
<polygon fill="none" stroke="#000000" points="1149,-171.5 1149,-190.5 1190,-190.5 1190,-171.5 1149,-171.5"/>
<text text-anchor="middle" x="1169.5" y="-178.5" font-family="Helvetica,sans-Serif" font-size="10.00" fill="#000000">drand</text>
</a>
</g>
</g>
<!-- Node23&#45;&gt;Node24 -->
<g id="edge24" class="edge">
<title>Node23&#45;&gt;Node24</title>
<path fill="none" stroke="#191970" d="M1113.2561,-181C1121.658,-181 1130.5043,-181 1138.63,-181"/>
<polygon fill="#191970" stroke="#191970" points="1138.799,-184.5001 1148.7989,-181 1138.7989,-177.5001 1138.799,-184.5001"/>
</g>
<!-- Node25 -->
<g id="node26" class="node">
<title>Node25</title>
<g id="a_node26"><a xlink:href="mt19937-64_8c.html#aa0b74daf51eca91df224d00f1730084a" target="_top" xlink:title="genrand64_real1">
<polygon fill="none" stroke="#000000" points="1226,-171.5 1226,-190.5 1314,-190.5 1314,-171.5 1226,-171.5"/>
<text text-anchor="middle" x="1270" y="-178.5" font-family="Helvetica,sans-Serif" font-size="10.00" fill="#000000">genrand64_real1</text>
</a>
</g>
</g>
<!-- Node24&#45;&gt;Node25 -->
<g id="edge25" class="edge">
<title>Node24&#45;&gt;Node25</title>
<path fill="none" stroke="#191970" d="M1190.3237,-181C1197.8428,-181 1206.7193,-181 1215.769,-181"/>
<polygon fill="#191970" stroke="#191970" points="1215.9969,-184.5001 1225.9969,-181 1215.9969,-177.5001 1215.9969,-184.5001"/>
</g>
<!-- Node26 -->
<g id="node27" class="node">
<title>Node26</title>
<g id="a_node27"><a xlink:href="mt19937-64_8c.html#a265bf48d20d6e0347371fcf4fe340e6d" target="_top" xlink:title="genrand64_int64">
<polygon fill="none" stroke="#000000" points="1350,-171.5 1350,-190.5 1438,-190.5 1438,-171.5 1350,-171.5"/>
<text text-anchor="middle" x="1394" y="-178.5" font-family="Helvetica,sans-Serif" font-size="10.00" fill="#000000">genrand64_int64</text>
</a>
</g>
</g>
<!-- Node25&#45;&gt;Node26 -->
<g id="edge26" class="edge">
<title>Node25&#45;&gt;Node26</title>
<path fill="none" stroke="#191970" d="M1314.0669,-181C1322.2822,-181 1330.957,-181 1339.4432,-181"/>
<polygon fill="#191970" stroke="#191970" points="1339.6572,-184.5001 1349.6572,-181 1339.6572,-177.5001 1339.6572,-184.5001"/>
</g>
<!-- Node27 -->
<g id="node28" class="node">
<title>Node27</title>
<g id="a_node28"><a xlink:href="mt19937-64_8c.html#adf4127d44c2dc34fcb318d406131ef7c" target="_top" xlink:title="init_genrand64">
<polygon fill="none" stroke="#000000" points="1474,-171.5 1474,-190.5 1554,-190.5 1554,-171.5 1474,-171.5"/>
<text text-anchor="middle" x="1514" y="-178.5" font-family="Helvetica,sans-Serif" font-size="10.00" fill="#000000">init_genrand64</text>
</a>
</g>
</g>
<!-- Node26&#45;&gt;Node27 -->
<g id="edge27" class="edge">
<title>Node26&#45;&gt;Node27</title>
<path fill="none" stroke="#191970" d="M1438.0022,-181C1446.3719,-181 1455.1896,-181 1463.7365,-181"/>
<polygon fill="#191970" stroke="#191970" points="1463.9792,-184.5001 1473.9792,-181 1463.9792,-177.5001 1463.9792,-184.5001"/>
</g>
<!-- Node29 -->
<g id="node30" class="node">
<title>Node29</title>
<g id="a_node30"><a xlink:href="utils_8c.html#a32648ab076544a9ac1c086d0f07b599f" target="_top" xlink:title="Returns a uniform random integer [min,max] not inclusive of max. ">
<polygon fill="none" stroke="#000000" points="913.5,-152.5 913.5,-171.5 988.5,-171.5 988.5,-152.5 913.5,-152.5"/>
<text text-anchor="middle" x="951" y="-159.5" font-family="Helvetica,sans-Serif" font-size="10.00" fill="#000000">irand_uniform</text>
</a>
</g>
</g>
<!-- Node28&#45;&gt;Node29 -->
<g id="edge29" class="edge">
<title>Node28&#45;&gt;Node29</title>
<path fill="none" stroke="#191970" d="M862.045,-162C875.6704,-162 889.9841,-162 903.05,-162"/>
<polygon fill="#191970" stroke="#191970" points="903.2241,-165.5001 913.2241,-162 903.2241,-158.5001 903.2241,-165.5001"/>
</g>
<!-- Node29&#45;&gt;Node23 -->
<g id="edge30" class="edge">
<title>Node29&#45;&gt;Node23</title>
<path fill="none" stroke="#191970" d="M988.6541,-167.7006C1001.542,-169.6518 1016.1208,-171.8589 1029.6451,-173.9064"/>
<polygon fill="#191970" stroke="#191970" points="1029.3248,-177.3977 1039.7361,-175.4342 1030.3727,-170.4766 1029.3248,-177.3977"/>
</g>
<!-- Node32 -->
<g id="node33" class="node">
<title>Node32</title>
<g id="a_node33"><a xlink:href="clset_8c.html#a6dae2bd49bceef5337bcad19010098f8" target="_top" xlink:title="Deletes a single classifier from the population set. ">
<polygon fill="none" stroke="#000000" points="517,-494.5 517,-513.5 594,-513.5 594,-494.5 517,-494.5"/>
<text text-anchor="middle" x="555.5" y="-501.5" font-family="Helvetica,sans-Serif" font-size="10.00" fill="#000000">clset_pop_del</text>
</a>
</g>
</g>
<!-- Node31&#45;&gt;Node32 -->
<g id="edge34" class="edge">
<title>Node31&#45;&gt;Node32</title>
<path fill="none" stroke="#191970" d="M438.4712,-437.6255C461.5282,-450.7025 502.9502,-474.1957 529.8224,-489.4366"/>
<polygon fill="#191970" stroke="#191970" points="528.2415,-492.5637 538.6666,-494.4527 531.6949,-486.4748 528.2415,-492.5637"/>
</g>
<!-- Node32&#45;&gt;Node7 -->
<g id="edge40" class="edge">
<title>Node32&#45;&gt;Node7</title>
<path fill="none" stroke="#191970" d="M572.4333,-494.3701C579.316,-490.2214 587.2265,-485.1459 594,-480 611.2832,-466.8697 612.0884,-459.2591 630,-447 632.3643,-445.3818 634.8865,-443.8213 637.466,-442.3375"/>
<polygon fill="#191970" stroke="#191970" points="639.1366,-445.4132 646.3101,-437.6163 635.8401,-439.238 639.1366,-445.4132"/>
</g>
<!-- Node32&#45;&gt;Node23 -->
<g id="edge42" class="edge">
<title>Node32&#45;&gt;Node23</title>
<path fill="none" stroke="#191970" d="M594.2696,-511.683C655.4799,-521.7106 776.3436,-532.8136 862,-485 980.6891,-418.7474 1049.19,-255.9983 1069.8138,-200.1652"/>
<polygon fill="#191970" stroke="#191970" points="1073.1067,-201.3511 1073.2053,-190.7568 1066.5214,-198.9773 1073.1067,-201.3511"/>
</g>
<!-- Node33 -->
<g id="node34" class="node">
<title>Node33</title>
<g id="a_node34"><a xlink:href="cl_8c.html#a49f5a7f4f2f47ce1cf7f33b3769de7cc" target="_top" xlink:title="Returns the size of the classifier condition. ">
<polygon fill="none" stroke="#000000" points="631.5,-456.5 631.5,-475.5 705.5,-475.5 705.5,-456.5 631.5,-456.5"/>
<text text-anchor="middle" x="668.5" y="-463.5" font-family="Helvetica,sans-Serif" font-size="10.00" fill="#000000">cl_cond_size</text>
</a>
</g>
</g>
<!-- Node32&#45;&gt;Node33 -->
<g id="edge35" class="edge">
<title>Node32&#45;&gt;Node33</title>
<path fill="none" stroke="#191970" d="M584.0147,-494.411C598.0666,-489.6856 615.2082,-483.9211 630.3696,-478.8226"/>
<polygon fill="#191970" stroke="#191970" points="631.6317,-482.0909 639.9945,-475.5859 629.4004,-475.456 631.6317,-482.0909"/>
</g>
<!-- Node35 -->
<g id="node36" class="node">
<title>Node35</title>
<g id="a_node36"><a xlink:href="cl_8c.html#aa0059f455cba46b3a1acb6b8a271b95f" target="_top" xlink:title="Returns the deletion vote of the classifier. ">
<polygon fill="none" stroke="#000000" points="635.5,-608.5 635.5,-627.5 701.5,-627.5 701.5,-608.5 635.5,-608.5"/>
<text text-anchor="middle" x="668.5" y="-615.5" font-family="Helvetica,sans-Serif" font-size="10.00" fill="#000000">cl_del_vote</text>
</a>
</g>
</g>
<!-- Node32&#45;&gt;Node35 -->
<g id="edge37" class="edge">
<title>Node32&#45;&gt;Node35</title>
<path fill="none" stroke="#191970" d="M560.9386,-513.5069C571.9274,-532.0269 598.4362,-573.3658 630,-599 631.7864,-600.4508 633.7019,-601.828 635.6894,-603.1283"/>
<polygon fill="#191970" stroke="#191970" points="634.277,-606.3544 644.6867,-608.3261 637.7786,-600.2931 634.277,-606.3544"/>
</g>
<!-- Node36 -->
<g id="node37" class="node">
<title>Node36</title>
<g id="a_node37"><a xlink:href="cl_8c.html#a72d3cf213699a8d68d348ff75c2b2d49" target="_top" xlink:title="Returns the size of the classifier prediction. ">
<polygon fill="none" stroke="#000000" points="633,-570.5 633,-589.5 704,-589.5 704,-570.5 633,-570.5"/>
<text text-anchor="middle" x="668.5" y="-577.5" font-family="Helvetica,sans-Serif" font-size="10.00" fill="#000000">cl_pred_size</text>
</a>
</g>
</g>
<!-- Node32&#45;&gt;Node36 -->
<g id="edge38" class="edge">
<title>Node32&#45;&gt;Node36</title>
<path fill="none" stroke="#191970" d="M566.6137,-513.6101C580.7539,-525.5709 606.2048,-546.2215 630,-561 632.6376,-562.6381 635.4362,-564.2462 638.2736,-565.7907"/>
<polygon fill="#191970" stroke="#191970" points="636.8287,-568.9837 647.3193,-570.4662 640.0429,-562.7652 636.8287,-568.9837"/>
</g>
<!-- Node38 -->
<g id="node39" class="node">
<title>Node38</title>
<g id="a_node39"><a xlink:href="clset_8c.html#a9a50c1393921d731b6840a654c366fb8" target="_top" xlink:title="Calculates the total fitness of classifiers in the set. ">
<polygon fill="none" stroke="#000000" points="631,-532.5 631,-551.5 706,-551.5 706,-532.5 631,-532.5"/>
<text text-anchor="middle" x="668.5" y="-539.5" font-family="Helvetica,sans-Serif" font-size="10.00" fill="#000000">clset_total_fit</text>
</a>
</g>
</g>
<!-- Node32&#45;&gt;Node38 -->
<g id="edge41" class="edge">
<title>Node32&#45;&gt;Node38</title>
<path fill="none" stroke="#191970" d="M584.0147,-513.589C598.0666,-518.3144 615.2082,-524.0789 630.3696,-529.1774"/>
<polygon fill="#191970" stroke="#191970" points="629.4004,-532.544 639.9945,-532.4141 631.6317,-525.9091 629.4004,-532.544"/>
</g>
<!-- Node34 -->
<g id="node35" class="node">
<title>Node34</title>
<g id="a_node35"><a xlink:href="condition_8h.html#afc882c8ebd96835127f8e611b815d447" target="_top" xlink:title="cond_size">
<polygon fill="none" stroke="#000000" points="772,-456.5 772,-475.5 833,-475.5 833,-456.5 772,-456.5"/>
<text text-anchor="middle" x="802.5" y="-463.5" font-family="Helvetica,sans-Serif" font-size="10.00" fill="#000000">cond_size</text>
</a>
</g>
</g>
<!-- Node33&#45;&gt;Node34 -->
<g id="edge36" class="edge">
<title>Node33&#45;&gt;Node34</title>
<path fill="none" stroke="#191970" d="M705.8265,-466C723.1756,-466 743.8512,-466 761.6205,-466"/>
<polygon fill="#191970" stroke="#191970" points="761.6999,-469.5001 771.6999,-466 761.6999,-462.5001 761.6999,-469.5001"/>
</g>
<!-- Node37 -->
<g id="node38" class="node">
<title>Node37</title>
<g id="a_node38"><a xlink:href="prediction_8h.html#a60ead673b526125328224ec152916290" target="_top" xlink:title="pred_size">
<polygon fill="none" stroke="#000000" points="773,-570.5 773,-589.5 832,-589.5 832,-570.5 773,-570.5"/>
<text text-anchor="middle" x="802.5" y="-577.5" font-family="Helvetica,sans-Serif" font-size="10.00" fill="#000000">pred_size</text>
</a>
</g>
</g>
<!-- Node36&#45;&gt;Node37 -->
<g id="edge39" class="edge">
<title>Node36&#45;&gt;Node37</title>
<path fill="none" stroke="#191970" d="M704.0577,-580C722.0302,-580 743.9064,-580 762.468,-580"/>
<polygon fill="#191970" stroke="#191970" points="762.6753,-583.5001 772.6752,-580 762.6752,-576.5001 762.6753,-583.5001"/>
</g>
<!-- Node42 -->
<g id="node43" class="node">
<title>Node42</title>
<g id="a_node43"><a xlink:href="cl_8c.html#a2e37895c1cc585b83805af74061afa46" target="_top" xlink:title="Computes the current classifier payoff prediction using the input. ">
<polygon fill="none" stroke="#000000" points="263,-.5 263,-19.5 322,-19.5 322,-.5 263,-.5"/>
<text text-anchor="middle" x="292.5" y="-7.5" font-family="Helvetica,sans-Serif" font-size="10.00" fill="#000000">cl_predict</text>
</a>
</g>
</g>
<!-- Node41&#45;&gt;Node42 -->
<g id="edge46" class="edge">
<title>Node41&#45;&gt;Node42</title>
<path fill="none" stroke="#191970" d="M208.0873,-10C221.2996,-10 237.5449,-10 252.2438,-10"/>
<polygon fill="#191970" stroke="#191970" points="252.6081,-13.5001 262.608,-10 252.608,-6.5001 252.6081,-13.5001"/>
</g>
<!-- Node43 -->
<g id="node44" class="node">
<title>Node43</title>
<g id="a_node44"><a xlink:href="prediction_8h.html#a98a959a3e1a7e5e353c39a561efd666c" target="_top" xlink:title="pred_compute">
<polygon fill="none" stroke="#000000" points="382.5,-.5 382.5,-19.5 460.5,-19.5 460.5,-.5 382.5,-.5"/>
<text text-anchor="middle" x="421.5" y="-7.5" font-family="Helvetica,sans-Serif" font-size="10.00" fill="#000000">pred_compute</text>
</a>
</g>
</g>
<!-- Node42&#45;&gt;Node43 -->
<g id="edge47" class="edge">
<title>Node42&#45;&gt;Node43</title>
<path fill="none" stroke="#191970" d="M322.0952,-10C336.8793,-10 355.1644,-10 372.0048,-10"/>
<polygon fill="#191970" stroke="#191970" points="372.2594,-13.5001 382.2594,-10 372.2593,-6.5001 372.2594,-13.5001"/>
</g>
<!-- Node44&#45;&gt;Node29 -->
<g id="edge49" class="edge">
<title>Node44&#45;&gt;Node29</title>
<path fill="none" stroke="#191970" d="M839.9728,-133.589C859.3925,-138.5583 883.3025,-144.6767 903.9542,-149.9613"/>
<polygon fill="#191970" stroke="#191970" points="903.2411,-153.3916 913.7966,-152.4799 904.9765,-146.6101 903.2411,-153.3916"/>
</g>
</g>
</svg>
