<?xml version="1.0" encoding="UTF-8" standalone="no"?>
<!DOCTYPE svg PUBLIC "-//W3C//DTD SVG 1.1//EN"
 "http://www.w3.org/Graphics/SVG/1.1/DTD/svg11.dtd">
<!-- Generated by graphviz version 2.40.1 (20161225.0304)
 -->
<!-- Title: xcs_single_exploit Pages: 1 -->
<svg width="1406pt" height="712pt"
 viewBox="0.00 0.00 1406.00 712.00" xmlns="http://www.w3.org/2000/svg" xmlns:xlink="http://www.w3.org/1999/xlink">
<g id="graph0" class="graph" transform="scale(1 1) rotate(0) translate(4 708)">
<title>xcs_single_exploit</title>
<!-- Node0 -->
<g id="node1" class="node">
<title>Node0</title>
<polygon fill="#bfbfbf" stroke="#000000" points="0,-513.5 0,-532.5 97,-532.5 97,-513.5 0,-513.5"/>
<text text-anchor="middle" x="48.5" y="-520.5" font-family="Helvetica,sans-Serif" font-size="10.00" fill="#000000">xcs_single_exploit</text>
</g>
<!-- Node1 -->
<g id="node2" class="node">
<title>Node1</title>
<g id="a_node2"><a xlink:href="env_8h.html#a0a7407ba215b0279ffbdca7374461899" target="_top" xlink:title="env_execute">
<polygon fill="none" stroke="#000000" points="138.5,-684.5 138.5,-703.5 210.5,-703.5 210.5,-684.5 138.5,-684.5"/>
<text text-anchor="middle" x="174.5" y="-691.5" font-family="Helvetica,sans-Serif" font-size="10.00" fill="#000000">env_execute</text>
</a>
</g>
</g>
<!-- Node0&#45;&gt;Node1 -->
<g id="edge1" class="edge">
<title>Node0&#45;&gt;Node1</title>
<path fill="none" stroke="#191970" d="M51.4355,-532.5301C59.9275,-558.666 86.8951,-632.3593 133,-675 134.6543,-676.53 136.4532,-677.9546 138.3441,-679.2782"/>
<polygon fill="#191970" stroke="#191970" points="136.6746,-682.3573 147.0608,-684.4494 140.2462,-676.337 136.6746,-682.3573"/>
</g>
<!-- Node2 -->
<g id="node3" class="node">
<title>Node2</title>
<g id="a_node3"><a xlink:href="env_8h.html#ad9c83fde388649c684035b3fb3b6c7cf" target="_top" xlink:title="env_get_state">
<polygon fill="none" stroke="#000000" points="135.5,-646.5 135.5,-665.5 213.5,-665.5 213.5,-646.5 135.5,-646.5"/>
<text text-anchor="middle" x="174.5" y="-653.5" font-family="Helvetica,sans-Serif" font-size="10.00" fill="#000000">env_get_state</text>
</a>
</g>
</g>
<!-- Node0&#45;&gt;Node2 -->
<g id="edge2" class="edge">
<title>Node0&#45;&gt;Node2</title>
<path fill="none" stroke="#191970" d="M53.3665,-532.5248C64.6791,-553.8463 94.7231,-605.9747 133,-637 134.993,-638.6154 137.1456,-640.1261 139.3856,-641.5327"/>
<polygon fill="#191970" stroke="#191970" points="137.8572,-644.6866 148.3054,-646.4436 141.2333,-638.5546 137.8572,-644.6866"/>
</g>
<!-- Node3 -->
<g id="node4" class="node">
<title>Node3</title>
<g id="a_node4"><a xlink:href="pa_8c.html#aabfc87f8214b5e90fbae9e791d1246c3" target="_top" xlink:title="Returns the best action in the prediction array. ">
<polygon fill="none" stroke="#000000" points="133,-608.5 133,-627.5 216,-627.5 216,-608.5 133,-608.5"/>
<text text-anchor="middle" x="174.5" y="-615.5" font-family="Helvetica,sans-Serif" font-size="10.00" fill="#000000">pa_best_action</text>
</a>
</g>
</g>
<!-- Node0&#45;&gt;Node3 -->
<g id="edge3" class="edge">
<title>Node0&#45;&gt;Node3</title>
<path fill="none" stroke="#191970" d="M57.5904,-532.9256C72.2757,-548.5312 102.6507,-579.0763 133,-599 135.5669,-600.6851 138.3075,-602.2954 141.1105,-603.8149"/>
<polygon fill="#191970" stroke="#191970" points="139.6312,-606.9885 150.1396,-608.3397 142.7675,-600.7303 139.6312,-606.9885"/>
</g>
<!-- Node4 -->
<g id="node5" class="node">
<title>Node4</title>
<g id="a_node5"><a xlink:href="pa_8c.html#a1b14aee81c644bc70897e3ab8ad217ed" target="_top" xlink:title="Returns the highest value in the prediction array. ">
<polygon fill="none" stroke="#000000" points="140,-570.5 140,-589.5 209,-589.5 209,-570.5 140,-570.5"/>
<text text-anchor="middle" x="174.5" y="-577.5" font-family="Helvetica,sans-Serif" font-size="10.00" fill="#000000">pa_best_val</text>
</a>
</g>
</g>
<!-- Node0&#45;&gt;Node4 -->
<g id="edge4" class="edge">
<title>Node0&#45;&gt;Node4</title>
<path fill="none" stroke="#191970" d="M69.5896,-532.5405C89.9411,-541.7472 120.9715,-555.7847 144.0112,-566.2074"/>
<polygon fill="#191970" stroke="#191970" points="142.7879,-569.4955 153.3416,-570.4284 145.6731,-563.1177 142.7879,-569.4955"/>
</g>
<!-- Node5 -->
<g id="node6" class="node">
<title>Node5</title>
<g id="a_node6"><a xlink:href="pa_8c.html#aa3098dbad2e3e1e113b0176ebd76ae65" target="_top" xlink:title="Builds the prediction array for the specified input. ">
<polygon fill="none" stroke="#000000" points="148,-532.5 148,-551.5 201,-551.5 201,-532.5 148,-532.5"/>
<text text-anchor="middle" x="174.5" y="-539.5" font-family="Helvetica,sans-Serif" font-size="10.00" fill="#000000">pa_build</text>
</a>
</g>
</g>
<!-- Node0&#45;&gt;Node5 -->
<g id="edge5" class="edge">
<title>Node0&#45;&gt;Node5</title>
<path fill="none" stroke="#191970" d="M97.2149,-530.3459C110.6322,-532.3691 124.9621,-534.53 137.5925,-536.4346"/>
<polygon fill="#191970" stroke="#191970" points="137.3348,-539.9352 147.7449,-537.9655 138.3786,-533.0135 137.3348,-539.9352"/>
</g>
<!-- Node8 -->
<g id="node9" class="node">
<title>Node8</title>
<g id="a_node9"><a xlink:href="cl__set_8c.html#a3d345222ddc9ca29b5fd1f4cdda03875" target="_top" xlink:title="Constructs the action set. ">
<polygon fill="none" stroke="#000000" points="486.5,-380.5 486.5,-399.5 548.5,-399.5 548.5,-380.5 486.5,-380.5"/>
<text text-anchor="middle" x="517.5" y="-387.5" font-family="Helvetica,sans-Serif" font-size="10.00" fill="#000000">set_action</text>
</a>
</g>
</g>
<!-- Node0&#45;&gt;Node8 -->
<g id="edge8" class="edge">
<title>Node0&#45;&gt;Node8</title>
<path fill="none" stroke="#191970" d="M52.1953,-513.3974C61.6068,-490.4497 88.9011,-432.5872 133,-409 245.0109,-349.0886 402.6365,-367.6639 476.4062,-381.2078"/>
<polygon fill="#191970" stroke="#191970" points="475.7679,-384.649 486.2455,-383.0768 477.0743,-377.772 475.7679,-384.649"/>
</g>
<!-- Node10 -->
<g id="node11" class="node">
<title>Node10</title>
<g id="a_node11"><a xlink:href="cl__set_8c.html#af03c3db68031f8953d79a4725ae951ad" target="_top" xlink:title="Frees the set, but not the classifiers. ">
<polygon fill="none" stroke="#000000" points="148.5,-456.5 148.5,-475.5 200.5,-475.5 200.5,-456.5 148.5,-456.5"/>
<text text-anchor="middle" x="174.5" y="-463.5" font-family="Helvetica,sans-Serif" font-size="10.00" fill="#000000">set_free</text>
</a>
</g>
</g>
<!-- Node0&#45;&gt;Node10 -->
<g id="edge10" class="edge">
<title>Node0&#45;&gt;Node10</title>
<path fill="none" stroke="#191970" d="M69.5896,-513.4595C89.9411,-504.2528 120.9715,-490.2153 144.0112,-479.7926"/>
<polygon fill="#191970" stroke="#191970" points="145.6731,-482.8823 153.3416,-475.5716 142.7879,-476.5045 145.6731,-482.8823"/>
</g>
<!-- Node11 -->
<g id="node12" class="node">
<title>Node11</title>
<g id="a_node12"><a xlink:href="cl__set_8c.html#ad4388f1d26d4129991f692eb4c81886c" target="_top" xlink:title="Initialises a new set. ">
<polygon fill="none" stroke="#000000" points="150.5,-418.5 150.5,-437.5 198.5,-437.5 198.5,-418.5 150.5,-418.5"/>
<text text-anchor="middle" x="174.5" y="-425.5" font-family="Helvetica,sans-Serif" font-size="10.00" fill="#000000">set_init</text>
</a>
</g>
</g>
<!-- Node0&#45;&gt;Node11 -->
<g id="edge11" class="edge">
<title>Node0&#45;&gt;Node11</title>
<path fill="none" stroke="#191970" d="M57.5904,-513.0744C72.2757,-497.4688 102.6507,-466.9237 133,-447 135.5669,-445.3149 138.3075,-443.7046 141.1105,-442.1851"/>
<polygon fill="#191970" stroke="#191970" points="142.7675,-445.2697 150.1396,-437.6603 139.6312,-439.0115 142.7675,-445.2697"/>
</g>
<!-- Node12 -->
<g id="node13" class="node">
<title>Node12</title>
<g id="a_node13"><a xlink:href="cl__set_8c.html#a0b2479df1a61213f1f150907c62278bb" target="_top" xlink:title="Frees the set and the classifiers. ">
<polygon fill="none" stroke="#000000" points="151,-494.5 151,-513.5 198,-513.5 198,-494.5 151,-494.5"/>
<text text-anchor="middle" x="174.5" y="-501.5" font-family="Helvetica,sans-Serif" font-size="10.00" fill="#000000">set_kill</text>
</a>
</g>
</g>
<!-- Node0&#45;&gt;Node12 -->
<g id="edge12" class="edge">
<title>Node0&#45;&gt;Node12</title>
<path fill="none" stroke="#191970" d="M97.2149,-515.6541C111.75,-513.4623 127.3559,-511.109 140.7121,-509.095"/>
<polygon fill="#191970" stroke="#191970" points="141.5115,-512.5141 150.8778,-507.5621 140.4677,-505.5924 141.5115,-512.5141"/>
</g>
<!-- Node18 -->
<g id="node19" class="node">
<title>Node18</title>
<g id="a_node19"><a xlink:href="cl__set_8c.html#af3bea0b4d03654b9d6cb08fbf272c847" target="_top" xlink:title="Constructs the match set. ">
<polygon fill="none" stroke="#000000" points="143.5,-152.5 143.5,-171.5 205.5,-171.5 205.5,-152.5 143.5,-152.5"/>
<text text-anchor="middle" x="174.5" y="-159.5" font-family="Helvetica,sans-Serif" font-size="10.00" fill="#000000">set_match</text>
</a>
</g>
</g>
<!-- Node0&#45;&gt;Node18 -->
<g id="edge18" class="edge">
<title>Node0&#45;&gt;Node18</title>
<path fill="none" stroke="#191970" d="M51.8702,-513.3441C68.8121,-464.8042 144.7711,-247.1756 167.8368,-181.0906"/>
<polygon fill="#191970" stroke="#191970" points="171.187,-182.1128 171.1779,-171.518 164.578,-179.806 171.187,-182.1128"/>
</g>
<!-- Node6 -->
<g id="node7" class="node">
<title>Node6</title>
<g id="a_node7"><a xlink:href="cl_8c.html#a3ae6b6421d2dc7d021d0b78bf0569c7c" target="_top" xlink:title="Computes the current classifier payoff prediction using the input. ">
<polygon fill="none" stroke="#000000" points="252,-551.5 252,-570.5 311,-570.5 311,-551.5 252,-551.5"/>
<text text-anchor="middle" x="281.5" y="-558.5" font-family="Helvetica,sans-Serif" font-size="10.00" fill="#000000">cl_predict</text>
</a>
</g>
</g>
<!-- Node5&#45;&gt;Node6 -->
<g id="edge6" class="edge">
<title>Node5&#45;&gt;Node6</title>
<path fill="none" stroke="#191970" d="M201.2246,-546.7455C213.4575,-548.9177 228.2068,-551.5367 241.7074,-553.934"/>
<polygon fill="#191970" stroke="#191970" points="241.2677,-557.4106 251.7256,-555.713 242.4916,-550.5184 241.2677,-557.4106"/>
</g>
<!-- Node7 -->
<g id="node8" class="node">
<title>Node7</title>
<g id="a_node8"><a xlink:href="prediction_8h.html#ab7b5be5cd3d39ed86fd6bf0777354d70" target="_top" xlink:title="pred_compute">
<polygon fill="none" stroke="#000000" points="358.5,-570.5 358.5,-589.5 436.5,-589.5 436.5,-570.5 358.5,-570.5"/>
<text text-anchor="middle" x="397.5" y="-577.5" font-family="Helvetica,sans-Serif" font-size="10.00" fill="#000000">pred_compute</text>
</a>
</g>
</g>
<!-- Node6&#45;&gt;Node7 -->
<g id="edge7" class="edge">
<title>Node6&#45;&gt;Node7</title>
<path fill="none" stroke="#191970" d="M311.0718,-565.8437C322.4065,-567.7002 335.6655,-569.8719 348.3468,-571.949"/>
<polygon fill="#191970" stroke="#191970" points="347.9109,-575.4242 358.3452,-573.5867 349.0425,-568.5163 347.9109,-575.4242"/>
</g>
<!-- Node9 -->
<g id="node10" class="node">
<title>Node9</title>
<g id="a_node10"><a xlink:href="cl__set_8c.html#a274578f0b79dea927e8148a7c41bf75f" target="_top" xlink:title="Adds a classifier to the set. ">
<polygon fill="none" stroke="#000000" points="621,-304.5 621,-323.5 672,-323.5 672,-304.5 621,-304.5"/>
<text text-anchor="middle" x="646.5" y="-311.5" font-family="Helvetica,sans-Serif" font-size="10.00" fill="#000000">set_add</text>
</a>
</g>
</g>
<!-- Node8&#45;&gt;Node9 -->
<g id="edge9" class="edge">
<title>Node8&#45;&gt;Node9</title>
<path fill="none" stroke="#191970" d="M531.7975,-380.3248C537.845,-376.0882 544.8895,-370.9596 551,-366 567.8526,-352.3216 568.2237,-343.8886 587,-333 594.4026,-328.7071 602.8952,-325.2555 611.1024,-322.5343"/>
<polygon fill="#191970" stroke="#191970" points="612.3252,-325.821 620.8795,-319.5699 610.2941,-319.1221 612.3252,-325.821"/>
</g>
<!-- Node13 -->
<g id="node14" class="node">
<title>Node13</title>
<g id="a_node14"><a xlink:href="cl_8c.html#a7bf8d03856a0c04854cfd99fcd45b32a" target="_top" xlink:title="Frees the memory used by the classifier. ">
<polygon fill="none" stroke="#000000" points="258.5,-494.5 258.5,-513.5 304.5,-513.5 304.5,-494.5 258.5,-494.5"/>
<text text-anchor="middle" x="281.5" y="-501.5" font-family="Helvetica,sans-Serif" font-size="10.00" fill="#000000">cl_free</text>
</a>
</g>
</g>
<!-- Node12&#45;&gt;Node13 -->
<g id="edge13" class="edge">
<title>Node12&#45;&gt;Node13</title>
<path fill="none" stroke="#191970" d="M198.2468,-504C212.8933,-504 231.9022,-504 248.0578,-504"/>
<polygon fill="#191970" stroke="#191970" points="248.1878,-507.5001 258.1878,-504 248.1877,-500.5001 248.1878,-507.5001"/>
</g>
<!-- Node14 -->
<g id="node15" class="node">
<title>Node14</title>
<g id="a_node15"><a xlink:href="action_8h.html#a3c0b8f4ef29f45d210b6e76340a25e15" target="_top" xlink:title="act_free">
<polygon fill="none" stroke="#000000" points="371.5,-456.5 371.5,-475.5 423.5,-475.5 423.5,-456.5 371.5,-456.5"/>
<text text-anchor="middle" x="397.5" y="-463.5" font-family="Helvetica,sans-Serif" font-size="10.00" fill="#000000">act_free</text>
</a>
</g>
</g>
<!-- Node13&#45;&gt;Node14 -->
<g id="edge14" class="edge">
<title>Node13&#45;&gt;Node14</title>
<path fill="none" stroke="#191970" d="M304.6955,-496.4015C320.9484,-491.0773 342.9873,-483.8576 361.5098,-477.7899"/>
<polygon fill="#191970" stroke="#191970" points="362.6884,-481.0869 371.1019,-474.6477 360.5092,-474.4347 362.6884,-481.0869"/>
</g>
<!-- Node15 -->
<g id="node16" class="node">
<title>Node15</title>
<g id="a_node16"><a xlink:href="condition_8h.html#a3f9b67abe92145cf80a263853912a0d5" target="_top" xlink:title="cond_free">
<polygon fill="none" stroke="#000000" points="368,-418.5 368,-437.5 427,-437.5 427,-418.5 368,-418.5"/>
<text text-anchor="middle" x="397.5" y="-425.5" font-family="Helvetica,sans-Serif" font-size="10.00" fill="#000000">cond_free</text>
</a>
</g>
</g>
<!-- Node13&#45;&gt;Node15 -->
<g id="edge15" class="edge">
<title>Node13&#45;&gt;Node15</title>
<path fill="none" stroke="#191970" d="M290.4227,-494.3388C302.3109,-481.9428 324.4756,-460.4403 347,-447 350.6199,-444.84 354.5275,-442.8523 358.5099,-441.0431"/>
<polygon fill="#191970" stroke="#191970" points="359.9584,-444.2312 367.8377,-437.1483 357.2612,-437.7717 359.9584,-444.2312"/>
</g>
<!-- Node16 -->
<g id="node17" class="node">
<title>Node16</title>
<g id="a_node17"><a xlink:href="prediction_8h.html#a5c8b28f792149c6267cc8387554e1da7" target="_top" xlink:title="pred_free">
<polygon fill="none" stroke="#000000" points="369,-532.5 369,-551.5 426,-551.5 426,-532.5 369,-532.5"/>
<text text-anchor="middle" x="397.5" y="-539.5" font-family="Helvetica,sans-Serif" font-size="10.00" fill="#000000">pred_free</text>
</a>
</g>
</g>
<!-- Node13&#45;&gt;Node16 -->
<g id="edge16" class="edge">
<title>Node13&#45;&gt;Node16</title>
<path fill="none" stroke="#191970" d="M304.6955,-511.5985C320.204,-516.6789 340.9808,-523.4851 358.9438,-529.3695"/>
<polygon fill="#191970" stroke="#191970" points="357.9897,-532.7399 368.5824,-532.527 360.1689,-526.0877 357.9897,-532.7399"/>
</g>
<!-- Node17 -->
<g id="node18" class="node">
<title>Node17</title>
<g id="a_node18"><a xlink:href="sam_8c.html#ab788a3ced38cf0fd20f8e6a2bab9f86a" target="_top" xlink:title="Frees the self&#45;adaptive mutation rates. ">
<polygon fill="none" stroke="#000000" points="369,-494.5 369,-513.5 426,-513.5 426,-494.5 369,-494.5"/>
<text text-anchor="middle" x="397.5" y="-501.5" font-family="Helvetica,sans-Serif" font-size="10.00" fill="#000000">sam_free</text>
</a>
</g>
</g>
<!-- Node13&#45;&gt;Node17 -->
<g id="edge17" class="edge">
<title>Node13&#45;&gt;Node17</title>
<path fill="none" stroke="#191970" d="M304.6955,-504C320.0604,-504 340.5965,-504 358.4441,-504"/>
<polygon fill="#191970" stroke="#191970" points="358.5824,-507.5001 368.5824,-504 358.5823,-500.5001 358.5824,-507.5001"/>
</g>
<!-- Node18&#45;&gt;Node9 -->
<g id="edge24" class="edge">
<title>Node18&#45;&gt;Node9</title>
<path fill="none" stroke="#191970" d="M181.8273,-171.5743C203.5418,-199.158 270.8101,-279.0524 347,-314 434.8322,-354.2878 552.9769,-336.0822 611.1366,-323.0776"/>
<polygon fill="#191970" stroke="#191970" points="611.9924,-326.4721 620.9443,-320.8052 610.4123,-319.6528 611.9924,-326.4721"/>
</g>
<!-- Node19 -->
<g id="node20" class="node">
<title>Node19</title>
<g id="a_node20"><a xlink:href="cl_8c.html#ae2fc6cc72c129339a3301573f80a52ee" target="_top" xlink:title="Computes the current classifier action using the input. ">
<polygon fill="none" stroke="#000000" points="253.5,-133.5 253.5,-152.5 309.5,-152.5 309.5,-133.5 253.5,-133.5"/>
<text text-anchor="middle" x="281.5" y="-140.5" font-family="Helvetica,sans-Serif" font-size="10.00" fill="#000000">cl_action</text>
</a>
</g>
</g>
<!-- Node18&#45;&gt;Node19 -->
<g id="edge19" class="edge">
<title>Node18&#45;&gt;Node19</title>
<path fill="none" stroke="#191970" d="M205.7365,-156.4533C217.4951,-154.3654 231.0001,-151.9673 243.3211,-149.7794"/>
<polygon fill="#191970" stroke="#191970" points="244.094,-153.197 253.328,-148.0025 242.8701,-146.3048 244.094,-153.197"/>
</g>
<!-- Node21 -->
<g id="node22" class="node">
<title>Node21</title>
<g id="a_node22"><a xlink:href="cl_8c.html#ac759904d9a05b2109c39ef17f9f889c3" target="_top" xlink:title="Returns whether the classifier matched the most recent input. ">
<polygon fill="none" stroke="#000000" points="262.5,-95.5 262.5,-114.5 300.5,-114.5 300.5,-95.5 262.5,-95.5"/>
<text text-anchor="middle" x="281.5" y="-102.5" font-family="Helvetica,sans-Serif" font-size="10.00" fill="#000000">cl_m</text>
</a>
</g>
</g>
<!-- Node18&#45;&gt;Node21 -->
<g id="edge21" class="edge">
<title>Node18&#45;&gt;Node21</title>
<path fill="none" stroke="#191970" d="M192.6511,-152.3307C209.6626,-143.2685 235.3049,-129.6086 254.6764,-119.2892"/>
<polygon fill="#191970" stroke="#191970" points="256.4367,-122.3172 263.617,-114.5265 253.1456,-116.1391 256.4367,-122.3172"/>
</g>
<!-- Node22 -->
<g id="node23" class="node">
<title>Node22</title>
<g id="a_node23"><a xlink:href="cl_8c.html#a5d3c4060ef3fd0476e3c8e439a8f81e1" target="_top" xlink:title="Calculates whether the classifier matches the input. ">
<polygon fill="none" stroke="#000000" points="253.5,-19.5 253.5,-38.5 309.5,-38.5 309.5,-19.5 253.5,-19.5"/>
<text text-anchor="middle" x="281.5" y="-26.5" font-family="Helvetica,sans-Serif" font-size="10.00" fill="#000000">cl_match</text>
</a>
</g>
</g>
<!-- Node18&#45;&gt;Node22 -->
<g id="edge22" class="edge">
<title>Node18&#45;&gt;Node22</title>
<path fill="none" stroke="#191970" d="M182.1952,-152.435C199.9998,-130.304 244.2616,-75.287 267.2034,-46.7706"/>
<polygon fill="#191970" stroke="#191970" points="270.0445,-48.8227 273.5859,-38.8372 264.5904,-44.4348 270.0445,-48.8227"/>
</g>
<!-- Node24 -->
<g id="node25" class="node">
<title>Node24</title>
<g id="a_node25"><a xlink:href="cl__set_8c.html#aa4b74b698e7491734e4788fcfae8e27a" target="_top" xlink:title="Ensures all possible actions are covered by the match set. ">
<polygon fill="none" stroke="#000000" points="252,-171.5 252,-190.5 311,-190.5 311,-171.5 252,-171.5"/>
<text text-anchor="middle" x="281.5" y="-178.5" font-family="Helvetica,sans-Serif" font-size="10.00" fill="#000000">set_cover</text>
</a>
</g>
</g>
<!-- Node18&#45;&gt;Node24 -->
<g id="edge25" class="edge">
<title>Node18&#45;&gt;Node24</title>
<path fill="none" stroke="#191970" d="M205.7365,-167.5467C216.9958,-169.546 229.8564,-171.8296 241.7455,-173.9408"/>
<polygon fill="#191970" stroke="#191970" points="241.4208,-177.4378 251.8788,-175.7402 242.6447,-170.5456 241.4208,-177.4378"/>
</g>
<!-- Node20 -->
<g id="node21" class="node">
<title>Node20</title>
<g id="a_node21"><a xlink:href="action_8h.html#a0d7fce139fe8ea66b42b95ebcb941c1d" target="_top" xlink:title="act_compute">
<polygon fill="none" stroke="#000000" points="361,-38.5 361,-57.5 434,-57.5 434,-38.5 361,-38.5"/>
<text text-anchor="middle" x="397.5" y="-45.5" font-family="Helvetica,sans-Serif" font-size="10.00" fill="#000000">act_compute</text>
</a>
</g>
</g>
<!-- Node19&#45;&gt;Node20 -->
<g id="edge20" class="edge">
<title>Node19&#45;&gt;Node20</title>
<path fill="none" stroke="#191970" d="M299.2933,-133.3148C303.4019,-130.6148 307.5692,-127.4613 311,-124 332.0927,-102.7192 323.7709,-85.9258 347,-67 349.1389,-65.2573 351.4541,-63.6641 353.8768,-62.2091"/>
<polygon fill="#191970" stroke="#191970" points="355.7006,-65.2071 362.9966,-57.5248 352.5022,-58.9804 355.7006,-65.2071"/>
</g>
<!-- Node23 -->
<g id="node24" class="node">
<title>Node23</title>
<g id="a_node24"><a xlink:href="condition_8h.html#a733d2f270aa8c0c18afa29d5a449b45f" target="_top" xlink:title="cond_match">
<polygon fill="none" stroke="#000000" points="362.5,-.5 362.5,-19.5 432.5,-19.5 432.5,-.5 362.5,-.5"/>
<text text-anchor="middle" x="397.5" y="-7.5" font-family="Helvetica,sans-Serif" font-size="10.00" fill="#000000">cond_match</text>
</a>
</g>
</g>
<!-- Node22&#45;&gt;Node23 -->
<g id="edge23" class="edge">
<title>Node22&#45;&gt;Node23</title>
<path fill="none" stroke="#191970" d="M309.5804,-24.4006C322.3139,-22.315 337.697,-19.7953 352.0123,-17.4506"/>
<polygon fill="#191970" stroke="#191970" points="352.8914,-20.8533 362.1941,-15.7829 351.7599,-13.9454 352.8914,-20.8533"/>
</g>
<!-- Node24&#45;&gt;Node9 -->
<g id="edge58" class="edge">
<title>Node24&#45;&gt;Node9</title>
<path fill="none" stroke="#191970" d="M294.8723,-190.6024C307.6535,-199.3209 327.7695,-211.8727 347,-219 433.4778,-251.051 465.5624,-222.271 551,-257 568.8141,-264.2412 570.5781,-270.995 587,-281 597.4264,-287.3523 609.1328,-293.9545 619.3859,-299.5694"/>
<polygon fill="#191970" stroke="#191970" points="617.8561,-302.7213 628.315,-304.4128 621.1937,-296.5682 617.8561,-302.7213"/>
</g>
<!-- Node25 -->
<g id="node26" class="node">
<title>Node25</title>
<g id="a_node26"><a xlink:href="cl_8c.html#a42adb85e78d1f9af3dbd53cd9e9ae0fd" target="_top" xlink:title="Covers the condition and action for a classifier. ">
<polygon fill="none" stroke="#000000" points="371,-285.5 371,-304.5 424,-304.5 424,-285.5 371,-285.5"/>
<text text-anchor="middle" x="397.5" y="-292.5" font-family="Helvetica,sans-Serif" font-size="10.00" fill="#000000">cl_cover</text>
</a>
</g>
</g>
<!-- Node24&#45;&gt;Node25 -->
<g id="edge26" class="edge">
<title>Node24&#45;&gt;Node25</title>
<path fill="none" stroke="#191970" d="M289.6359,-190.5268C301.6944,-204.4793 325.2343,-231.0832 347,-252 356.7608,-261.3802 368.2068,-271.2134 377.7316,-279.1053"/>
<polygon fill="#191970" stroke="#191970" points="375.5624,-281.8528 385.5168,-285.4807 379.9975,-276.437 375.5624,-281.8528"/>
</g>
<!-- Node35 -->
<g id="node36" class="node">
<title>Node35</title>
<g id="a_node36"><a xlink:href="cl_8c.html#ab76fe4ea183f51174a3797c3cbb1b3bf" target="_top" xlink:title="Initialises a new classifier. ">
<polygon fill="none" stroke="#000000" points="376.5,-76.5 376.5,-95.5 418.5,-95.5 418.5,-76.5 376.5,-76.5"/>
<text text-anchor="middle" x="397.5" y="-83.5" font-family="Helvetica,sans-Serif" font-size="10.00" fill="#000000">cl_init</text>
</a>
</g>
</g>
<!-- Node24&#45;&gt;Node35 -->
<g id="edge36" class="edge">
<title>Node24&#45;&gt;Node35</title>
<path fill="none" stroke="#191970" d="M299.2933,-171.3148C303.4019,-168.6148 307.5692,-165.4613 311,-162 332.0927,-140.7192 323.7709,-123.9258 347,-105 352.6599,-100.3886 359.5542,-96.824 366.4067,-94.0962"/>
<polygon fill="#191970" stroke="#191970" points="367.9681,-97.2592 376.2679,-90.674 365.6731,-90.6461 367.9681,-97.2592"/>
</g>
<!-- Node45 -->
<g id="node46" class="node">
<title>Node45</title>
<g id="a_node46"><a xlink:href="cl__set_8c.html#a8537e849783523d1e2394e4a027cf33a" target="_top" xlink:title="Enforces the maximum population size limit. ">
<polygon fill="none" stroke="#000000" points="351,-190.5 351,-209.5 444,-209.5 444,-190.5 351,-190.5"/>
<text text-anchor="middle" x="397.5" y="-197.5" font-family="Helvetica,sans-Serif" font-size="10.00" fill="#000000">pop_enforce_limit</text>
</a>
</g>
</g>
<!-- Node24&#45;&gt;Node45 -->
<g id="edge47" class="edge">
<title>Node24&#45;&gt;Node45</title>
<path fill="none" stroke="#191970" d="M311.0718,-185.8437C320.1337,-187.3279 330.4256,-189.0137 340.6688,-190.6914"/>
<polygon fill="#191970" stroke="#191970" points="340.4142,-194.1963 350.8485,-192.3588 341.5457,-187.2884 340.4142,-194.1963"/>
</g>
<!-- Node53 -->
<g id="node54" class="node">
<title>Node53</title>
<g id="a_node54"><a xlink:href="cl__set_8c.html#a55395d23e56e86a5dd11be34a4e051ff" target="_top" xlink:title="Returns whether an action is covered by the set. ">
<polygon fill="none" stroke="#000000" points="347,-152.5 347,-171.5 448,-171.5 448,-152.5 347,-152.5"/>
<text text-anchor="middle" x="397.5" y="-159.5" font-family="Helvetica,sans-Serif" font-size="10.00" fill="#000000">set_action_covered</text>
</a>
</g>
</g>
<!-- Node24&#45;&gt;Node53 -->
<g id="edge57" class="edge">
<title>Node24&#45;&gt;Node53</title>
<path fill="none" stroke="#191970" d="M311.0718,-176.1563C318.9726,-174.8622 327.8085,-173.415 336.7319,-171.9534"/>
<polygon fill="#191970" stroke="#191970" points="337.496,-175.375 346.7987,-170.3045 336.3644,-168.467 337.496,-175.375"/>
</g>
<!-- Node54 -->
<g id="node55" class="node">
<title>Node54</title>
<g id="a_node55"><a xlink:href="cl__set_8c.html#ad2333ccd5fef4fcef4f5ae98406611d3" target="_top" xlink:title="Removes classifiers with 0 numerosity from the set. ">
<polygon fill="none" stroke="#000000" points="363,-114.5 363,-133.5 432,-133.5 432,-114.5 363,-114.5"/>
<text text-anchor="middle" x="397.5" y="-121.5" font-family="Helvetica,sans-Serif" font-size="10.00" fill="#000000">set_validate</text>
</a>
</g>
</g>
<!-- Node24&#45;&gt;Node54 -->
<g id="edge59" class="edge">
<title>Node24&#45;&gt;Node54</title>
<path fill="none" stroke="#191970" d="M296.4653,-171.3585C309.4975,-163.1979 329.0629,-151.5054 347,-143 351.1593,-141.0278 355.5825,-139.1126 360.0152,-137.3053"/>
<polygon fill="#191970" stroke="#191970" points="361.5982,-140.4443 369.6351,-133.5407 359.0472,-133.9256 361.5982,-140.4443"/>
</g>
<!-- Node26 -->
<g id="node27" class="node">
<title>Node26</title>
<g id="a_node27"><a xlink:href="action_8h.html#aef1564c19502c8f890ff9f3c1260d6cf" target="_top" xlink:title="act_cover">
<polygon fill="none" stroke="#000000" points="488,-304.5 488,-323.5 547,-323.5 547,-304.5 488,-304.5"/>
<text text-anchor="middle" x="517.5" y="-311.5" font-family="Helvetica,sans-Serif" font-size="10.00" fill="#000000">act_cover</text>
</a>
</g>
</g>
<!-- Node25&#45;&gt;Node26 -->
<g id="edge27" class="edge">
<title>Node25&#45;&gt;Node26</title>
<path fill="none" stroke="#191970" d="M424.1319,-299.2167C439.9473,-301.7208 460.298,-304.943 477.9612,-307.7397"/>
<polygon fill="#191970" stroke="#191970" points="477.5715,-311.2215 487.9958,-309.3285 478.6662,-304.3076 477.5715,-311.2215"/>
</g>
<!-- Node27 -->
<g id="node28" class="node">
<title>Node27</title>
<g id="a_node28"><a xlink:href="cl_8c.html#a5c1f93d94c386004e38c02f6d7d19004" target="_top" xlink:title="Initialises random actions, conditions and predictions. ">
<polygon fill="none" stroke="#000000" points="493.5,-418.5 493.5,-437.5 541.5,-437.5 541.5,-418.5 493.5,-418.5"/>
<text text-anchor="middle" x="517.5" y="-425.5" font-family="Helvetica,sans-Serif" font-size="10.00" fill="#000000">cl_rand</text>
</a>
</g>
</g>
<!-- Node25&#45;&gt;Node27 -->
<g id="edge28" class="edge">
<title>Node25&#45;&gt;Node27</title>
<path fill="none" stroke="#191970" d="M402.9215,-304.5962C415.1621,-325.6165 446.7922,-376.4442 484,-409 485.5096,-410.3209 487.1254,-411.5931 488.8019,-412.8099"/>
<polygon fill="#191970" stroke="#191970" points="487.1763,-415.9261 497.478,-418.4012 490.9683,-410.0421 487.1763,-415.9261"/>
</g>
<!-- Node34 -->
<g id="node35" class="node">
<title>Node34</title>
<g id="a_node35"><a xlink:href="condition_8h.html#a641c2ffa4792f9f5549a73f31bb66d44" target="_top" xlink:title="cond_cover">
<polygon fill="none" stroke="#000000" points="484,-266.5 484,-285.5 551,-285.5 551,-266.5 484,-266.5"/>
<text text-anchor="middle" x="517.5" y="-273.5" font-family="Helvetica,sans-Serif" font-size="10.00" fill="#000000">cond_cover</text>
</a>
</g>
</g>
<!-- Node25&#45;&gt;Node34 -->
<g id="edge35" class="edge">
<title>Node25&#45;&gt;Node34</title>
<path fill="none" stroke="#191970" d="M424.1319,-290.7833C438.6559,-288.4837 457.0048,-285.5784 473.5844,-282.9533"/>
<polygon fill="#191970" stroke="#191970" points="474.2994,-286.3838 483.629,-281.3629 473.2047,-279.4699 474.2994,-286.3838"/>
</g>
<!-- Node28 -->
<g id="node29" class="node">
<title>Node28</title>
<g id="a_node29"><a xlink:href="action_8h.html#a5fff1d9e3cc60eaae50fda42aef83661" target="_top" xlink:title="act_init">
<polygon fill="none" stroke="#000000" points="622.5,-342.5 622.5,-361.5 670.5,-361.5 670.5,-342.5 622.5,-342.5"/>
<text text-anchor="middle" x="646.5" y="-349.5" font-family="Helvetica,sans-Serif" font-size="10.00" fill="#000000">act_init</text>
</a>
</g>
</g>
<!-- Node27&#45;&gt;Node28 -->
<g id="edge29" class="edge">
<title>Node27&#45;&gt;Node28</title>
<path fill="none" stroke="#191970" d="M536.5573,-418.483C541.4504,-415.6978 546.5774,-412.462 551,-409 569.3191,-394.6596 567.2984,-383.3726 587,-371 594.8063,-366.0976 603.9891,-362.356 612.7733,-359.5448"/>
<polygon fill="#191970" stroke="#191970" points="613.7926,-362.8935 622.4271,-356.7539 611.8485,-356.1689 613.7926,-362.8935"/>
</g>
<!-- Node29 -->
<g id="node30" class="node">
<title>Node29</title>
<g id="a_node30"><a xlink:href="action_8c.html#a3dda6c6f441d69995296435482803ae8" target="_top" xlink:title="Sets a classifier&#39;s action functions to the implementations. ">
<polygon fill="none" stroke="#000000" points="615.5,-532.5 615.5,-551.5 677.5,-551.5 677.5,-532.5 615.5,-532.5"/>
<text text-anchor="middle" x="646.5" y="-539.5" font-family="Helvetica,sans-Serif" font-size="10.00" fill="#000000">action_set</text>
</a>
</g>
</g>
<!-- Node27&#45;&gt;Node29 -->
<g id="edge30" class="edge">
<title>Node27&#45;&gt;Node29</title>
<path fill="none" stroke="#191970" d="M521.9497,-437.6445C531.2648,-456.7814 554.6638,-499.7121 587,-523 592.6164,-527.0448 599.131,-530.2538 605.7467,-532.7923"/>
<polygon fill="#191970" stroke="#191970" points="604.8249,-536.175 615.419,-536.051 607.0598,-529.5414 604.8249,-536.175"/>
</g>
<!-- Node30 -->
<g id="node31" class="node">
<title>Node30</title>
<g id="a_node31"><a xlink:href="condition_8h.html#ac4d6ce7d2050452ba7b242cad65d592b" target="_top" xlink:title="cond_init">
<polygon fill="none" stroke="#000000" points="618.5,-494.5 618.5,-513.5 674.5,-513.5 674.5,-494.5 618.5,-494.5"/>
<text text-anchor="middle" x="646.5" y="-501.5" font-family="Helvetica,sans-Serif" font-size="10.00" fill="#000000">cond_init</text>
</a>
</g>
</g>
<!-- Node27&#45;&gt;Node30 -->
<g id="edge31" class="edge">
<title>Node27&#45;&gt;Node30</title>
<path fill="none" stroke="#191970" d="M526.9815,-437.806C539.6108,-450.3585 563.1453,-472.03 587,-485 593.7565,-488.6735 601.336,-491.7699 608.764,-494.327"/>
<polygon fill="#191970" stroke="#191970" points="607.769,-497.6832 618.3595,-497.381 609.892,-491.0129 607.769,-497.6832"/>
</g>
<!-- Node31 -->
<g id="node32" class="node">
<title>Node31</title>
<g id="a_node32"><a xlink:href="condition_8c.html#a3329903e950755c55a38c98db2641e3d" target="_top" xlink:title="Sets a classifier&#39;s condition functions to the implementations. ">
<polygon fill="none" stroke="#000000" points="609.5,-456.5 609.5,-475.5 683.5,-475.5 683.5,-456.5 609.5,-456.5"/>
<text text-anchor="middle" x="646.5" y="-463.5" font-family="Helvetica,sans-Serif" font-size="10.00" fill="#000000">condition_set</text>
</a>
</g>
</g>
<!-- Node27&#45;&gt;Node31 -->
<g id="edge32" class="edge">
<title>Node27&#45;&gt;Node31</title>
<path fill="none" stroke="#191970" d="M541.7639,-435.1475C559.3258,-440.3208 583.5139,-447.446 604.221,-453.5457"/>
<polygon fill="#191970" stroke="#191970" points="603.4809,-456.9763 614.0624,-456.4447 605.4589,-450.2616 603.4809,-456.9763"/>
</g>
<!-- Node32 -->
<g id="node33" class="node">
<title>Node32</title>
<g id="a_node33"><a xlink:href="prediction_8h.html#a9466870f30753fb12cd3670e3be4b8d2" target="_top" xlink:title="pred_init">
<polygon fill="none" stroke="#000000" points="620,-418.5 620,-437.5 673,-437.5 673,-418.5 620,-418.5"/>
<text text-anchor="middle" x="646.5" y="-425.5" font-family="Helvetica,sans-Serif" font-size="10.00" fill="#000000">pred_init</text>
</a>
</g>
</g>
<!-- Node27&#45;&gt;Node32 -->
<g id="edge33" class="edge">
<title>Node27&#45;&gt;Node32</title>
<path fill="none" stroke="#191970" d="M541.7639,-428C560.8312,-428 587.7091,-428 609.4626,-428"/>
<polygon fill="#191970" stroke="#191970" points="609.6732,-431.5001 619.6732,-428 609.6732,-424.5001 609.6732,-431.5001"/>
</g>
<!-- Node33 -->
<g id="node34" class="node">
<title>Node33</title>
<g id="a_node34"><a xlink:href="prediction_8c.html#a68bf56c06ff52c2e31c4fb31436e1eed" target="_top" xlink:title="Sets a classifier&#39;s prediction functions to the implementations. ">
<polygon fill="none" stroke="#000000" points="608,-380.5 608,-399.5 685,-399.5 685,-380.5 608,-380.5"/>
<text text-anchor="middle" x="646.5" y="-387.5" font-family="Helvetica,sans-Serif" font-size="10.00" fill="#000000">prediction_set</text>
</a>
</g>
</g>
<!-- Node27&#45;&gt;Node33 -->
<g id="edge34" class="edge">
<title>Node27&#45;&gt;Node33</title>
<path fill="none" stroke="#191970" d="M541.7639,-420.8525C559.3258,-415.6792 583.5139,-408.554 604.221,-402.4543"/>
<polygon fill="#191970" stroke="#191970" points="605.4589,-405.7384 614.0624,-399.5553 603.4809,-399.0237 605.4589,-405.7384"/>
</g>
<!-- Node36 -->
<g id="node37" class="node">
<title>Node36</title>
<g id="a_node37"><a xlink:href="sam_8c.html#ab529fdda992a0d15c0f798ec3fefe843" target="_top" xlink:title="Initialises a classifier&#39;s self&#45;adaptive mutation rates. ">
<polygon fill="none" stroke="#000000" points="491,-76.5 491,-95.5 544,-95.5 544,-76.5 491,-76.5"/>
<text text-anchor="middle" x="517.5" y="-83.5" font-family="Helvetica,sans-Serif" font-size="10.00" fill="#000000">sam_init</text>
</a>
</g>
</g>
<!-- Node35&#45;&gt;Node36 -->
<g id="edge37" class="edge">
<title>Node35&#45;&gt;Node36</title>
<path fill="none" stroke="#191970" d="M418.6774,-86C435.7518,-86 460.1771,-86 480.4722,-86"/>
<polygon fill="#191970" stroke="#191970" points="480.6479,-89.5001 490.6479,-86 480.6478,-82.5001 480.6479,-89.5001"/>
</g>
<!-- Node37 -->
<g id="node38" class="node">
<title>Node37</title>
<g id="a_node38"><a xlink:href="sam_8c.html#af9ece15d6d1cb98bb4817cb267d24f82" target="_top" xlink:title="Initialises log normal self&#45;adaptive mutation rates. ">
<polygon fill="none" stroke="#000000" points="742,-76.5 742,-95.5 848,-95.5 848,-76.5 742,-76.5"/>
<text text-anchor="middle" x="795" y="-83.5" font-family="Helvetica,sans-Serif" font-size="10.00" fill="#000000">sam_log_normal_init</text>
</a>
</g>
</g>
<!-- Node36&#45;&gt;Node37 -->
<g id="edge38" class="edge">
<title>Node36&#45;&gt;Node37</title>
<path fill="none" stroke="#191970" d="M544.1079,-86C586.9147,-86 672.2567,-86 731.4436,-86"/>
<polygon fill="#191970" stroke="#191970" points="731.8069,-89.5001 741.8069,-86 731.8069,-82.5001 731.8069,-89.5001"/>
</g>
<!-- Node43 -->
<g id="node44" class="node">
<title>Node43</title>
<g id="a_node44"><a xlink:href="sam_8c.html#ade3e812ff797267372cee374fa55aad8" target="_top" xlink:title="Initialises rate selection self&#45;adaptive mutation. ">
<polygon fill="none" stroke="#000000" points="587,-38.5 587,-57.5 706,-57.5 706,-38.5 587,-38.5"/>
<text text-anchor="middle" x="646.5" y="-45.5" font-family="Helvetica,sans-Serif" font-size="10.00" fill="#000000">sam_rate_selection_init</text>
</a>
</g>
</g>
<!-- Node36&#45;&gt;Node43 -->
<g id="edge44" class="edge">
<title>Node36&#45;&gt;Node43</title>
<path fill="none" stroke="#191970" d="M544.2289,-78.1264C561.5272,-73.0308 584.4218,-66.2866 604.163,-60.4713"/>
<polygon fill="#191970" stroke="#191970" points="605.2532,-63.799 613.8567,-57.6159 603.2752,-57.0843 605.2532,-63.799"/>
</g>
<!-- Node38 -->
<g id="node39" class="node">
<title>Node38</title>
<g id="a_node39"><a xlink:href="utils_8c.html#ae42a9e1d467853befaa7922cfafed3bb" target="_top" xlink:title="Returns a uniform random float [min,max]. ">
<polygon fill="none" stroke="#000000" points="884,-76.5 884,-95.5 957,-95.5 957,-76.5 884,-76.5"/>
<text text-anchor="middle" x="920.5" y="-83.5" font-family="Helvetica,sans-Serif" font-size="10.00" fill="#000000">rand_uniform</text>
</a>
</g>
</g>
<!-- Node37&#45;&gt;Node38 -->
<g id="edge39" class="edge">
<title>Node37&#45;&gt;Node38</title>
<path fill="none" stroke="#191970" d="M848.2233,-86C856.6785,-86 865.37,-86 873.6643,-86"/>
<polygon fill="#191970" stroke="#191970" points="873.9104,-89.5001 883.9103,-86 873.9103,-82.5001 873.9104,-89.5001"/>
</g>
<!-- Node39 -->
<g id="node40" class="node">
<title>Node39</title>
<g id="a_node40"><a xlink:href="utils_8c.html#a0c0a81e7797a05c535bad34449d8642c" target="_top" xlink:title="Returns a uniform random float [0,1]. ">
<polygon fill="none" stroke="#000000" points="993,-76.5 993,-95.5 1034,-95.5 1034,-76.5 993,-76.5"/>
<text text-anchor="middle" x="1013.5" y="-83.5" font-family="Helvetica,sans-Serif" font-size="10.00" fill="#000000">drand</text>
</a>
</g>
</g>
<!-- Node38&#45;&gt;Node39 -->
<g id="edge40" class="edge">
<title>Node38&#45;&gt;Node39</title>
<path fill="none" stroke="#191970" d="M957.2561,-86C965.658,-86 974.5043,-86 982.63,-86"/>
<polygon fill="#191970" stroke="#191970" points="982.799,-89.5001 992.7989,-86 982.7989,-82.5001 982.799,-89.5001"/>
</g>
<!-- Node40 -->
<g id="node41" class="node">
<title>Node40</title>
<g id="a_node41"><a xlink:href="mt19937-64_8c.html#aa0b74daf51eca91df224d00f1730084a" target="_top" xlink:title="genrand64_real1">
<polygon fill="none" stroke="#000000" points="1070,-76.5 1070,-95.5 1158,-95.5 1158,-76.5 1070,-76.5"/>
<text text-anchor="middle" x="1114" y="-83.5" font-family="Helvetica,sans-Serif" font-size="10.00" fill="#000000">genrand64_real1</text>
</a>
</g>
</g>
<!-- Node39&#45;&gt;Node40 -->
<g id="edge41" class="edge">
<title>Node39&#45;&gt;Node40</title>
<path fill="none" stroke="#191970" d="M1034.3237,-86C1041.8428,-86 1050.7193,-86 1059.769,-86"/>
<polygon fill="#191970" stroke="#191970" points="1059.9969,-89.5001 1069.9969,-86 1059.9969,-82.5001 1059.9969,-89.5001"/>
</g>
<!-- Node41 -->
<g id="node42" class="node">
<title>Node41</title>
<g id="a_node42"><a xlink:href="mt19937-64_8c.html#a265bf48d20d6e0347371fcf4fe340e6d" target="_top" xlink:title="genrand64_int64">
<polygon fill="none" stroke="#000000" points="1194,-76.5 1194,-95.5 1282,-95.5 1282,-76.5 1194,-76.5"/>
<text text-anchor="middle" x="1238" y="-83.5" font-family="Helvetica,sans-Serif" font-size="10.00" fill="#000000">genrand64_int64</text>
</a>
</g>
</g>
<!-- Node40&#45;&gt;Node41 -->
<g id="edge42" class="edge">
<title>Node40&#45;&gt;Node41</title>
<path fill="none" stroke="#191970" d="M1158.0669,-86C1166.2822,-86 1174.957,-86 1183.4432,-86"/>
<polygon fill="#191970" stroke="#191970" points="1183.6572,-89.5001 1193.6572,-86 1183.6572,-82.5001 1183.6572,-89.5001"/>
</g>
<!-- Node42 -->
<g id="node43" class="node">
<title>Node42</title>
<g id="a_node43"><a xlink:href="mt19937-64_8c.html#adf4127d44c2dc34fcb318d406131ef7c" target="_top" xlink:title="init_genrand64">
<polygon fill="none" stroke="#000000" points="1318,-76.5 1318,-95.5 1398,-95.5 1398,-76.5 1318,-76.5"/>
<text text-anchor="middle" x="1358" y="-83.5" font-family="Helvetica,sans-Serif" font-size="10.00" fill="#000000">init_genrand64</text>
</a>
</g>
</g>
<!-- Node41&#45;&gt;Node42 -->
<g id="edge43" class="edge">
<title>Node41&#45;&gt;Node42</title>
<path fill="none" stroke="#191970" d="M1282.0022,-86C1290.3719,-86 1299.1896,-86 1307.7365,-86"/>
<polygon fill="#191970" stroke="#191970" points="1307.9792,-89.5001 1317.9792,-86 1307.9792,-82.5001 1307.9792,-89.5001"/>
</g>
<!-- Node44 -->
<g id="node45" class="node">
<title>Node44</title>
<g id="a_node45"><a xlink:href="utils_8c.html#a32648ab076544a9ac1c086d0f07b599f" target="_top" xlink:title="Returns a uniform random integer [min,max] not inclusive of max. ">
<polygon fill="none" stroke="#000000" points="757.5,-38.5 757.5,-57.5 832.5,-57.5 832.5,-38.5 757.5,-38.5"/>
<text text-anchor="middle" x="795" y="-45.5" font-family="Helvetica,sans-Serif" font-size="10.00" fill="#000000">irand_uniform</text>
</a>
</g>
</g>
<!-- Node43&#45;&gt;Node44 -->
<g id="edge45" class="edge">
<title>Node43&#45;&gt;Node44</title>
<path fill="none" stroke="#191970" d="M706.045,-48C719.6704,-48 733.9841,-48 747.05,-48"/>
<polygon fill="#191970" stroke="#191970" points="747.2241,-51.5001 757.2241,-48 747.2241,-44.5001 747.2241,-51.5001"/>
</g>
<!-- Node44&#45;&gt;Node38 -->
<g id="edge46" class="edge">
<title>Node44&#45;&gt;Node38</title>
<path fill="none" stroke="#191970" d="M826.6689,-57.589C842.5725,-62.4044 862.0396,-68.2988 879.1114,-73.468"/>
<polygon fill="#191970" stroke="#191970" points="878.256,-76.8658 888.8412,-76.4141 880.2846,-70.1662 878.256,-76.8658"/>
</g>
<!-- Node46 -->
<g id="node47" class="node">
<title>Node46</title>
<g id="a_node47"><a xlink:href="cl__set_8c.html#a7ff6217fb822a2eca84c9ac23e8b5cb5" target="_top" xlink:title="Deletes a single classifier from the population set. ">
<polygon fill="none" stroke="#000000" points="492.5,-190.5 492.5,-209.5 542.5,-209.5 542.5,-190.5 492.5,-190.5"/>
<text text-anchor="middle" x="517.5" y="-197.5" font-family="Helvetica,sans-Serif" font-size="10.00" fill="#000000">pop_del</text>
</a>
</g>
</g>
<!-- Node45&#45;&gt;Node46 -->
<g id="edge48" class="edge">
<title>Node45&#45;&gt;Node46</title>
<path fill="none" stroke="#191970" d="M444.2387,-200C456.7341,-200 470.0373,-200 481.8306,-200"/>
<polygon fill="#191970" stroke="#191970" points="482.1703,-203.5001 492.1702,-200 482.1702,-196.5001 482.1703,-203.5001"/>
</g>
<!-- Node46&#45;&gt;Node9 -->
<g id="edge55" class="edge">
<title>Node46&#45;&gt;Node9</title>
<path fill="none" stroke="#191970" d="M534.0341,-209.672C539.8645,-213.6138 546.1649,-218.5341 551,-224 573.1385,-249.0266 562.044,-267.7819 587,-290 593.9511,-296.1885 602.7031,-300.894 611.34,-304.4253"/>
<polygon fill="#191970" stroke="#191970" points="610.3463,-307.7884 620.9402,-307.9298 612.7467,-301.2129 610.3463,-307.7884"/>
</g>
<!-- Node46&#45;&gt;Node38 -->
<g id="edge54" class="edge">
<title>Node46&#45;&gt;Node38</title>
<path fill="none" stroke="#191970" d="M531.7975,-209.6752C537.845,-213.9118 544.8895,-219.0404 551,-224 567.8526,-237.6784 566.7714,-249.1314 587,-257 641.0545,-278.0263 799.6414,-289.0226 848,-257 899.8971,-222.6343 914.751,-142.8705 918.9183,-105.7104"/>
<polygon fill="#191970" stroke="#191970" points="922.4129,-105.9351 919.8977,-95.6432 915.4458,-105.2572 922.4129,-105.9351"/>
</g>
<!-- Node47 -->
<g id="node48" class="node">
<title>Node47</title>
<g id="a_node48"><a xlink:href="cl_8c.html#ab34a0468e7a08b58586daccab5f49651" target="_top" xlink:title="Returns the size of the classifier condition. ">
<polygon fill="none" stroke="#000000" points="609.5,-228.5 609.5,-247.5 683.5,-247.5 683.5,-228.5 609.5,-228.5"/>
<text text-anchor="middle" x="646.5" y="-235.5" font-family="Helvetica,sans-Serif" font-size="10.00" fill="#000000">cl_cond_size</text>
</a>
</g>
</g>
<!-- Node46&#45;&gt;Node47 -->
<g id="edge49" class="edge">
<title>Node46&#45;&gt;Node47</title>
<path fill="none" stroke="#191970" d="M542.6787,-207.417C560.196,-212.5771 583.9706,-219.5805 604.3489,-225.5834"/>
<polygon fill="#191970" stroke="#191970" points="603.4562,-228.9691 614.0376,-228.4374 605.4342,-222.2543 603.4562,-228.9691"/>
</g>
<!-- Node49 -->
<g id="node50" class="node">
<title>Node49</title>
<g id="a_node50"><a xlink:href="cl_8c.html#af708b9effceaf930cbe524f7aaffd2f9" target="_top" xlink:title="Returns the deletion vote of the classifier. ">
<polygon fill="none" stroke="#000000" points="613.5,-190.5 613.5,-209.5 679.5,-209.5 679.5,-190.5 613.5,-190.5"/>
<text text-anchor="middle" x="646.5" y="-197.5" font-family="Helvetica,sans-Serif" font-size="10.00" fill="#000000">cl_del_vote</text>
</a>
</g>
</g>
<!-- Node46&#45;&gt;Node49 -->
<g id="edge51" class="edge">
<title>Node46&#45;&gt;Node49</title>
<path fill="none" stroke="#191970" d="M542.6787,-200C559.787,-200 582.8638,-200 602.916,-200"/>
<polygon fill="#191970" stroke="#191970" points="603.0788,-203.5001 613.0787,-200 603.0787,-196.5001 603.0788,-203.5001"/>
</g>
<!-- Node50 -->
<g id="node51" class="node">
<title>Node50</title>
<g id="a_node51"><a xlink:href="cl_8c.html#aaa9b5b7ca68222f98cc38c80b643edbe" target="_top" xlink:title="Returns the size of the classifier prediction. ">
<polygon fill="none" stroke="#000000" points="611,-152.5 611,-171.5 682,-171.5 682,-152.5 611,-152.5"/>
<text text-anchor="middle" x="646.5" y="-159.5" font-family="Helvetica,sans-Serif" font-size="10.00" fill="#000000">cl_pred_size</text>
</a>
</g>
</g>
<!-- Node46&#45;&gt;Node50 -->
<g id="edge52" class="edge">
<title>Node46&#45;&gt;Node50</title>
<path fill="none" stroke="#191970" d="M542.6787,-192.583C560.196,-187.4229 583.9706,-180.4195 604.3489,-174.4166"/>
<polygon fill="#191970" stroke="#191970" points="605.4342,-177.7457 614.0376,-171.5626 603.4562,-171.0309 605.4342,-177.7457"/>
</g>
<!-- Node52 -->
<g id="node53" class="node">
<title>Node52</title>
<g id="a_node53"><a xlink:href="cl__set_8c.html#ac2ecc83b8ceaada1cc75c14e76021d83" target="_top" xlink:title="Calculates the total fitness of classifiers in the set. ">
<polygon fill="none" stroke="#000000" points="612.5,-114.5 612.5,-133.5 680.5,-133.5 680.5,-114.5 612.5,-114.5"/>
<text text-anchor="middle" x="646.5" y="-121.5" font-family="Helvetica,sans-Serif" font-size="10.00" fill="#000000">set_total_fit</text>
</a>
</g>
</g>
<!-- Node46&#45;&gt;Node52 -->
<g id="edge56" class="edge">
<title>Node46&#45;&gt;Node52</title>
<path fill="none" stroke="#191970" d="M526.9815,-190.194C539.6108,-177.6415 563.1453,-155.97 587,-143 591.8824,-140.3454 597.1946,-137.9922 602.5688,-135.9261"/>
<polygon fill="#191970" stroke="#191970" points="603.9663,-139.1445 612.23,-132.5141 601.6352,-132.544 603.9663,-139.1445"/>
</g>
<!-- Node48 -->
<g id="node49" class="node">
<title>Node48</title>
<g id="a_node49"><a xlink:href="condition_8h.html#a1433f279ed8c1fff6eb5c4517d216315" target="_top" xlink:title="cond_size">
<polygon fill="none" stroke="#000000" points="764.5,-228.5 764.5,-247.5 825.5,-247.5 825.5,-228.5 764.5,-228.5"/>
<text text-anchor="middle" x="795" y="-235.5" font-family="Helvetica,sans-Serif" font-size="10.00" fill="#000000">cond_size</text>
</a>
</g>
</g>
<!-- Node47&#45;&gt;Node48 -->
<g id="edge50" class="edge">
<title>Node47&#45;&gt;Node48</title>
<path fill="none" stroke="#191970" d="M683.5898,-238C705.0968,-238 732.2084,-238 754.3015,-238"/>
<polygon fill="#191970" stroke="#191970" points="754.3785,-241.5001 764.3784,-238 754.3784,-234.5001 754.3785,-241.5001"/>
</g>
<!-- Node51 -->
<g id="node52" class="node">
<title>Node51</title>
<g id="a_node52"><a xlink:href="prediction_8h.html#a5a7d522104f8457884c00e432dbe0a35" target="_top" xlink:title="pred_size">
<polygon fill="none" stroke="#000000" points="765.5,-152.5 765.5,-171.5 824.5,-171.5 824.5,-152.5 765.5,-152.5"/>
<text text-anchor="middle" x="795" y="-159.5" font-family="Helvetica,sans-Serif" font-size="10.00" fill="#000000">pred_size</text>
</a>
</g>
</g>
<!-- Node50&#45;&gt;Node51 -->
<g id="edge53" class="edge">
<title>Node50&#45;&gt;Node51</title>
<path fill="none" stroke="#191970" d="M682.0694,-162C704.0946,-162 732.42,-162 755.1925,-162"/>
<polygon fill="#191970" stroke="#191970" points="755.2222,-165.5001 765.2222,-162 755.2222,-158.5001 755.2222,-165.5001"/>
</g>
</g>
</svg>
