<?xml version="1.0" encoding="UTF-8" standalone="no"?>
<!DOCTYPE svg PUBLIC "-//W3C//DTD SVG 1.1//EN"
 "http://www.w3.org/Graphics/SVG/1.1/DTD/svg11.dtd">
<!-- Generated by graphviz version 2.40.1 (20161225.0304)
 -->
<!-- Title: xcs_single_step.c Pages: 1 -->
<svg width="904pt" height="84pt"
 viewBox="0.00 0.00 903.50 84.00" xmlns="http://www.w3.org/2000/svg" xmlns:xlink="http://www.w3.org/1999/xlink">
<g id="graph0" class="graph" transform="scale(1 1) rotate(0) translate(4 80)">
<title>xcs_single_step.c</title>
<!-- Node0 -->
<g id="node1" class="node">
<title>Node0</title>
<polygon fill="#bfbfbf" stroke="#000000" points="402.5,-56.5 402.5,-75.5 497.5,-75.5 497.5,-56.5 402.5,-56.5"/>
<text text-anchor="middle" x="450" y="-63.5" font-family="Helvetica,sans-Serif" font-size="10.00" fill="#000000">xcs_single_step.c</text>
</g>
<!-- Node1 -->
<g id="node2" class="node">
<title>Node1</title>
<polygon fill="none" stroke="#bfbfbf" points="0,-.5 0,-19.5 46,-19.5 46,-.5 0,-.5"/>
<text text-anchor="middle" x="23" y="-7.5" font-family="Helvetica,sans-Serif" font-size="10.00" fill="#000000">stdio.h</text>
</g>
<!-- Node0&#45;&gt;Node1 -->
<g id="edge1" class="edge">
<title>Node0&#45;&gt;Node1</title>
<path fill="none" stroke="#191970" d="M402.4138,-63.3387C329.6291,-58.6408 186.2692,-46.916 56.4056,-19.9668"/>
<polygon fill="#191970" stroke="#191970" points="56.7923,-16.4713 46.2849,-17.8294 55.3458,-23.3202 56.7923,-16.4713"/>
</g>
<!-- Node2 -->
<g id="node3" class="node">
<title>Node2</title>
<polygon fill="none" stroke="#bfbfbf" points="64,-.5 64,-19.5 112,-19.5 112,-.5 64,-.5"/>
<text text-anchor="middle" x="88" y="-7.5" font-family="Helvetica,sans-Serif" font-size="10.00" fill="#000000">stdlib.h</text>
</g>
<!-- Node0&#45;&gt;Node2 -->
<g id="edge2" class="edge">
<title>Node0&#45;&gt;Node2</title>
<path fill="none" stroke="#191970" d="M402.4629,-61.6943C340.0744,-55.5287 227.0968,-42.5953 121.8674,-19.9085"/>
<polygon fill="#191970" stroke="#191970" points="122.5538,-16.4759 112.0365,-17.7551 121.056,-23.3138 122.5538,-16.4759"/>
</g>
<!-- Node3 -->
<g id="node4" class="node">
<title>Node3</title>
<polygon fill="none" stroke="#bfbfbf" points="130.5,-.5 130.5,-19.5 179.5,-19.5 179.5,-.5 130.5,-.5"/>
<text text-anchor="middle" x="155" y="-7.5" font-family="Helvetica,sans-Serif" font-size="10.00" fill="#000000">string.h</text>
</g>
<!-- Node0&#45;&gt;Node3 -->
<g id="edge3" class="edge">
<title>Node0&#45;&gt;Node3</title>
<path fill="none" stroke="#191970" d="M402.0483,-59.1914C351.6033,-51.6637 269.7496,-38.4173 190.0139,-20.0284"/>
<polygon fill="#191970" stroke="#191970" points="190.3314,-16.5083 179.7973,-17.6407 188.7384,-23.3247 190.3314,-16.5083"/>
</g>
<!-- Node4 -->
<g id="node5" class="node">
<title>Node4</title>
<polygon fill="none" stroke="#bfbfbf" points="198,-.5 198,-19.5 254,-19.5 254,-.5 198,-.5"/>
<text text-anchor="middle" x="226" y="-7.5" font-family="Helvetica,sans-Serif" font-size="10.00" fill="#000000">stdbool.h</text>
</g>
<!-- Node0&#45;&gt;Node4 -->
<g id="edge4" class="edge">
<title>Node0&#45;&gt;Node4</title>
<path fill="none" stroke="#191970" d="M410.1717,-56.4806C374.3411,-47.8546 320.0107,-34.6222 263.9989,-20.2205"/>
<polygon fill="#191970" stroke="#191970" points="264.8215,-16.8182 254.2642,-17.71 263.0733,-23.5964 264.8215,-16.8182"/>
</g>
<!-- Node5 -->
<g id="node6" class="node">
<title>Node5</title>
<polygon fill="none" stroke="#bfbfbf" points="272.5,-.5 272.5,-19.5 319.5,-19.5 319.5,-.5 272.5,-.5"/>
<text text-anchor="middle" x="296" y="-7.5" font-family="Helvetica,sans-Serif" font-size="10.00" fill="#000000">math.h</text>
</g>
<!-- Node0&#45;&gt;Node5 -->
<g id="edge5" class="edge">
<title>Node0&#45;&gt;Node5</title>
<path fill="none" stroke="#191970" d="M423.5265,-56.3733C397.371,-46.8622 357.2899,-32.2872 329.0568,-22.0207"/>
<polygon fill="#191970" stroke="#191970" points="330.2008,-18.7125 319.6068,-18.5843 327.8086,-25.2911 330.2008,-18.7125"/>
</g>
<!-- Node6 -->
<g id="node7" class="node">
<title>Node6</title>
<g id="a_node7"><a xlink:href="xcsf_8h.html" target="_top" xlink:title="XCSF data structures. ">
<polygon fill="none" stroke="#000000" points="338,-.5 338,-19.5 382,-19.5 382,-.5 338,-.5"/>
<text text-anchor="middle" x="360" y="-7.5" font-family="Helvetica,sans-Serif" font-size="10.00" fill="#000000">xcsf.h</text>
</a>
</g>
</g>
<!-- Node0&#45;&gt;Node6 -->
<g id="edge6" class="edge">
<title>Node0&#45;&gt;Node6</title>
<path fill="none" stroke="#191970" d="M434.3232,-56.2455C420.5144,-47.6534 400.1807,-35.0014 384.2708,-25.1018"/>
<polygon fill="#191970" stroke="#191970" points="385.8368,-21.954 375.4972,-19.6427 382.1387,-27.8974 385.8368,-21.954"/>
</g>
<!-- Node7 -->
<g id="node8" class="node">
<title>Node7</title>
<g id="a_node8"><a xlink:href="utils_8h.html" target="_top" xlink:title="Utility functions for random number handling, etc. ">
<polygon fill="none" stroke="#000000" points="400.5,-.5 400.5,-19.5 443.5,-19.5 443.5,-.5 400.5,-.5"/>
<text text-anchor="middle" x="422" y="-7.5" font-family="Helvetica,sans-Serif" font-size="10.00" fill="#000000">utils.h</text>
</a>
</g>
</g>
<!-- Node0&#45;&gt;Node7 -->
<g id="edge7" class="edge">
<title>Node0&#45;&gt;Node7</title>
<path fill="none" stroke="#191970" d="M445.1228,-56.2455C441.3487,-48.6973 436.0079,-38.0158 431.4099,-28.8197"/>
<polygon fill="#191970" stroke="#191970" points="434.424,-27.0217 426.8213,-19.6427 428.163,-30.1522 434.424,-27.0217"/>
</g>
<!-- Node8 -->
<g id="node9" class="node">
<title>Node8</title>
<g id="a_node9"><a xlink:href="cl_8h.html" target="_top" xlink:title="Functions operating on classifiers. ">
<polygon fill="none" stroke="#000000" points="462,-.5 462,-19.5 494,-19.5 494,-.5 462,-.5"/>
<text text-anchor="middle" x="478" y="-7.5" font-family="Helvetica,sans-Serif" font-size="10.00" fill="#000000">cl.h</text>
</a>
</g>
</g>
<!-- Node0&#45;&gt;Node8 -->
<g id="edge8" class="edge">
<title>Node0&#45;&gt;Node8</title>
<path fill="none" stroke="#191970" d="M454.8772,-56.2455C458.6513,-48.6973 463.9921,-38.0158 468.5901,-28.8197"/>
<polygon fill="#191970" stroke="#191970" points="471.837,-30.1522 473.1787,-19.6427 465.576,-27.0217 471.837,-30.1522"/>
</g>
<!-- Node9 -->
<g id="node10" class="node">
<title>Node9</title>
<g id="a_node10"><a xlink:href="clset_8h.html" target="_top" xlink:title="Functions operating on sets of classifiers. ">
<polygon fill="none" stroke="#000000" points="512,-.5 512,-19.5 558,-19.5 558,-.5 512,-.5"/>
<text text-anchor="middle" x="535" y="-7.5" font-family="Helvetica,sans-Serif" font-size="10.00" fill="#000000">clset.h</text>
</a>
</g>
</g>
<!-- Node0&#45;&gt;Node9 -->
<g id="edge9" class="edge">
<title>Node0&#45;&gt;Node9</title>
<path fill="none" stroke="#191970" d="M464.8059,-56.2455C477.7256,-47.7337 496.6931,-35.2375 511.6552,-25.3801"/>
<polygon fill="#191970" stroke="#191970" points="513.9387,-28.067 520.3638,-19.6427 510.0876,-22.2216 513.9387,-28.067"/>
</g>
<!-- Node10 -->
<g id="node11" class="node">
<title>Node10</title>
<g id="a_node11"><a xlink:href="pa_8h.html" target="_top" xlink:title="Prediction array functions. ">
<polygon fill="none" stroke="#000000" points="576.5,-.5 576.5,-19.5 611.5,-19.5 611.5,-.5 576.5,-.5"/>
<text text-anchor="middle" x="594" y="-7.5" font-family="Helvetica,sans-Serif" font-size="10.00" fill="#000000">pa.h</text>
</a>
</g>
</g>
<!-- Node0&#45;&gt;Node10 -->
<g id="edge10" class="edge">
<title>Node0&#45;&gt;Node10</title>
<path fill="none" stroke="#191970" d="M474.7545,-56.3733C500.424,-46.3907 540.4381,-30.8296 566.9315,-20.5266"/>
<polygon fill="#191970" stroke="#191970" points="568.3138,-23.7445 576.3653,-16.8579 565.7767,-17.2204 568.3138,-23.7445"/>
</g>
<!-- Node11 -->
<g id="node12" class="node">
<title>Node11</title>
<g id="a_node12"><a xlink:href="ea_8h.html" target="_top" xlink:title="Evolutionary algorithm functions. ">
<polygon fill="none" stroke="#000000" points="629.5,-.5 629.5,-19.5 664.5,-19.5 664.5,-.5 629.5,-.5"/>
<text text-anchor="middle" x="647" y="-7.5" font-family="Helvetica,sans-Serif" font-size="10.00" fill="#000000">ea.h</text>
</a>
</g>
</g>
<!-- Node0&#45;&gt;Node11 -->
<g id="edge11" class="edge">
<title>Node0&#45;&gt;Node11</title>
<path fill="none" stroke="#191970" d="M490.0815,-56.4757C522.8463,-48.41 570.5102,-36.0411 619.8997,-20.1458"/>
<polygon fill="#191970" stroke="#191970" points="621.0431,-23.4544 629.467,-17.0287 618.8747,-16.7987 621.0431,-23.4544"/>
</g>
<!-- Node12 -->
<g id="node13" class="node">
<title>Node12</title>
<g id="a_node13"><a xlink:href="perf_8h.html" target="_top" xlink:title="System performance printing. ">
<polygon fill="none" stroke="#000000" points="682.5,-.5 682.5,-19.5 723.5,-19.5 723.5,-.5 682.5,-.5"/>
<text text-anchor="middle" x="703" y="-7.5" font-family="Helvetica,sans-Serif" font-size="10.00" fill="#000000">perf.h</text>
</a>
</g>
</g>
<!-- Node0&#45;&gt;Node12 -->
<g id="edge12" class="edge">
<title>Node0&#45;&gt;Node12</title>
<path fill="none" stroke="#191970" d="M497.6174,-58.0689C541.026,-50.4267 607.046,-37.7752 672.1723,-20.2705"/>
<polygon fill="#191970" stroke="#191970" points="673.466,-23.5455 682.1918,-17.5364 671.6231,-16.7925 673.466,-23.5455"/>
</g>
<!-- Node13 -->
<g id="node14" class="node">
<title>Node13</title>
<g id="a_node14"><a xlink:href="xcs__single__step_8h.html" target="_top" xlink:title="Single&#45;step reinforcement learning functions. ">
<polygon fill="none" stroke="#000000" points="741.5,-.5 741.5,-19.5 836.5,-19.5 836.5,-.5 741.5,-.5"/>
<text text-anchor="middle" x="789" y="-7.5" font-family="Helvetica,sans-Serif" font-size="10.00" fill="#000000">xcs_single_step.h</text>
</a>
</g>
</g>
<!-- Node0&#45;&gt;Node13 -->
<g id="edge13" class="edge">
<title>Node0&#45;&gt;Node13</title>
<path fill="none" stroke="#191970" d="M497.6066,-58.4937C551.8428,-49.8904 643.4028,-35.21 731.4634,-20.2449"/>
<polygon fill="#191970" stroke="#191970" points="732.0796,-23.6904 741.3499,-18.561 730.9042,-16.7898 732.0796,-23.6904"/>
</g>
<!-- Node14 -->
<g id="node15" class="node">
<title>Node14</title>
<g id="a_node15"><a xlink:href="env_8h.html" target="_top" xlink:title="Built&#45;in problem environment interface. ">
<polygon fill="none" stroke="#000000" points="854.5,-.5 854.5,-19.5 895.5,-19.5 895.5,-.5 854.5,-.5"/>
<text text-anchor="middle" x="875" y="-7.5" font-family="Helvetica,sans-Serif" font-size="10.00" fill="#000000">env.h</text>
</a>
</g>
</g>
<!-- Node0&#45;&gt;Node14 -->
<g id="edge14" class="edge">
<title>Node0&#45;&gt;Node14</title>
<path fill="none" stroke="#191970" d="M497.803,-63.788C570.8985,-59.6795 714.7877,-48.73 844.1668,-20.0375"/>
<polygon fill="#191970" stroke="#191970" points="845.2654,-23.3776 854.2475,-17.7587 843.7219,-16.5498 845.2654,-23.3776"/>
</g>
</g>
</svg>
