<?xml version="1.0" encoding="UTF-8" standalone="no"?>
<!DOCTYPE svg PUBLIC "-//W3C//DTD SVG 1.1//EN"
 "http://www.w3.org/Graphics/SVG/1.1/DTD/svg11.dtd">
<!-- Generated by graphviz version 2.40.1 (20161225.0304)
 -->
<!-- Title: xcs_single_step.c Pages: 1 -->
<svg width="836pt" height="84pt"
 viewBox="0.00 0.00 835.50 84.00" xmlns="http://www.w3.org/2000/svg" xmlns:xlink="http://www.w3.org/1999/xlink">
<g id="graph0" class="graph" transform="scale(1 1) rotate(0) translate(4 80)">
<title>xcs_single_step.c</title>
<!-- Node0 -->
<g id="node1" class="node">
<title>Node0</title>
<polygon fill="#bfbfbf" stroke="#000000" points="362.5,-56.5 362.5,-75.5 457.5,-75.5 457.5,-56.5 362.5,-56.5"/>
<text text-anchor="middle" x="410" y="-63.5" font-family="Helvetica,sans-Serif" font-size="10.00" fill="#000000">xcs_single_step.c</text>
</g>
<!-- Node1 -->
<g id="node2" class="node">
<title>Node1</title>
<polygon fill="none" stroke="#bfbfbf" points="0,-.5 0,-19.5 46,-19.5 46,-.5 0,-.5"/>
<text text-anchor="middle" x="23" y="-7.5" font-family="Helvetica,sans-Serif" font-size="10.00" fill="#000000">stdio.h</text>
</g>
<!-- Node0&#45;&gt;Node1 -->
<g id="edge1" class="edge">
<title>Node0&#45;&gt;Node1</title>
<path fill="none" stroke="#191970" d="M362.4619,-62.4859C295.8695,-56.9843 170.9904,-44.5585 56.2937,-19.9743"/>
<polygon fill="#191970" stroke="#191970" points="56.8087,-16.5045 46.2926,-17.7937 55.3174,-23.3438 56.8087,-16.5045"/>
</g>
<!-- Node2 -->
<g id="node3" class="node">
<title>Node2</title>
<polygon fill="none" stroke="#bfbfbf" points="64,-.5 64,-19.5 112,-19.5 112,-.5 64,-.5"/>
<text text-anchor="middle" x="88" y="-7.5" font-family="Helvetica,sans-Serif" font-size="10.00" fill="#000000">stdlib.h</text>
</g>
<!-- Node0&#45;&gt;Node2 -->
<g id="edge2" class="edge">
<title>Node0&#45;&gt;Node2</title>
<path fill="none" stroke="#191970" d="M362.3118,-60.4359C306.7276,-53.5022 212.003,-40.299 121.8797,-19.9539"/>
<polygon fill="#191970" stroke="#191970" points="122.5777,-16.5232 112.0486,-17.7015 121.0143,-23.3464 122.5777,-16.5232"/>
</g>
<!-- Node3 -->
<g id="node4" class="node">
<title>Node3</title>
<polygon fill="none" stroke="#bfbfbf" points="130,-.5 130,-19.5 186,-19.5 186,-.5 130,-.5"/>
<text text-anchor="middle" x="158" y="-7.5" font-family="Helvetica,sans-Serif" font-size="10.00" fill="#000000">stdbool.h</text>
</g>
<!-- Node0&#45;&gt;Node3 -->
<g id="edge3" class="edge">
<title>Node0&#45;&gt;Node3</title>
<path fill="none" stroke="#191970" d="M362.4393,-56.5805C320.9812,-48.1996 259.0101,-35.2647 196.3085,-20.2296"/>
<polygon fill="#191970" stroke="#191970" points="196.7842,-16.7439 186.242,-17.7989 195.1411,-23.5484 196.7842,-16.7439"/>
</g>
<!-- Node4 -->
<g id="node5" class="node">
<title>Node4</title>
<polygon fill="none" stroke="#bfbfbf" points="204.5,-.5 204.5,-19.5 251.5,-19.5 251.5,-.5 204.5,-.5"/>
<text text-anchor="middle" x="228" y="-7.5" font-family="Helvetica,sans-Serif" font-size="10.00" fill="#000000">math.h</text>
</g>
<!-- Node0&#45;&gt;Node4 -->
<g id="edge4" class="edge">
<title>Node0&#45;&gt;Node4</title>
<path fill="none" stroke="#191970" d="M378.7131,-56.3733C346.0156,-46.3125 294.9031,-30.5856 261.428,-20.2855"/>
<polygon fill="#191970" stroke="#191970" points="262.2324,-16.8712 251.6453,-17.2755 260.1738,-23.5616 262.2324,-16.8712"/>
</g>
<!-- Node5 -->
<g id="node6" class="node">
<title>Node5</title>
<g id="a_node6"><a xlink:href="xcsf_8h.html" target="_top" xlink:title="XCSF data structures. ">
<polygon fill="none" stroke="#000000" points="270,-.5 270,-19.5 314,-19.5 314,-.5 270,-.5"/>
<text text-anchor="middle" x="292" y="-7.5" font-family="Helvetica,sans-Serif" font-size="10.00" fill="#000000">xcsf.h</text>
</a>
</g>
</g>
<!-- Node0&#45;&gt;Node5 -->
<g id="edge5" class="edge">
<title>Node0&#45;&gt;Node5</title>
<path fill="none" stroke="#191970" d="M389.7151,-56.3733C370.8579,-47.4241 342.554,-33.9917 321.2545,-23.8835"/>
<polygon fill="#191970" stroke="#191970" points="322.5551,-20.6266 312.0202,-19.5011 319.5539,-26.9506 322.5551,-20.6266"/>
</g>
<!-- Node6 -->
<g id="node7" class="node">
<title>Node6</title>
<g id="a_node7"><a xlink:href="utils_8h.html" target="_top" xlink:title="Utility functions for random number handling, etc. ">
<polygon fill="none" stroke="#000000" points="332.5,-.5 332.5,-19.5 375.5,-19.5 375.5,-.5 332.5,-.5"/>
<text text-anchor="middle" x="354" y="-7.5" font-family="Helvetica,sans-Serif" font-size="10.00" fill="#000000">utils.h</text>
</a>
</g>
</g>
<!-- Node0&#45;&gt;Node6 -->
<g id="edge6" class="edge">
<title>Node0&#45;&gt;Node6</title>
<path fill="none" stroke="#191970" d="M400.2455,-56.2455C392.1352,-48.1352 380.4075,-36.4075 370.7919,-26.7919"/>
<polygon fill="#191970" stroke="#191970" points="373.1887,-24.2389 363.6427,-19.6427 368.2389,-29.1887 373.1887,-24.2389"/>
</g>
<!-- Node7 -->
<g id="node8" class="node">
<title>Node7</title>
<g id="a_node8"><a xlink:href="cl_8h.html" target="_top" xlink:title="Functions operating on classifiers. ">
<polygon fill="none" stroke="#000000" points="394,-.5 394,-19.5 426,-19.5 426,-.5 394,-.5"/>
<text text-anchor="middle" x="410" y="-7.5" font-family="Helvetica,sans-Serif" font-size="10.00" fill="#000000">cl.h</text>
</a>
</g>
</g>
<!-- Node0&#45;&gt;Node7 -->
<g id="edge7" class="edge">
<title>Node0&#45;&gt;Node7</title>
<path fill="none" stroke="#191970" d="M410,-56.2455C410,-48.9382 410,-38.6944 410,-29.7046"/>
<polygon fill="#191970" stroke="#191970" points="413.5001,-29.6426 410,-19.6427 406.5001,-29.6427 413.5001,-29.6426"/>
</g>
<!-- Node8 -->
<g id="node9" class="node">
<title>Node8</title>
<g id="a_node9"><a xlink:href="clset_8h.html" target="_top" xlink:title="Functions operating on sets of classifiers. ">
<polygon fill="none" stroke="#000000" points="444,-.5 444,-19.5 490,-19.5 490,-.5 444,-.5"/>
<text text-anchor="middle" x="467" y="-7.5" font-family="Helvetica,sans-Serif" font-size="10.00" fill="#000000">clset.h</text>
</a>
</g>
</g>
<!-- Node0&#45;&gt;Node8 -->
<g id="edge8" class="edge">
<title>Node0&#45;&gt;Node8</title>
<path fill="none" stroke="#191970" d="M419.9286,-56.2455C428.1838,-48.1352 440.1209,-36.4075 449.9082,-26.7919"/>
<polygon fill="#191970" stroke="#191970" points="452.5046,-29.1476 457.1851,-19.6427 447.5989,-24.1542 452.5046,-29.1476"/>
</g>
<!-- Node9 -->
<g id="node10" class="node">
<title>Node9</title>
<g id="a_node10"><a xlink:href="pa_8h.html" target="_top" xlink:title="Prediction array functions. ">
<polygon fill="none" stroke="#000000" points="508.5,-.5 508.5,-19.5 543.5,-19.5 543.5,-.5 508.5,-.5"/>
<text text-anchor="middle" x="526" y="-7.5" font-family="Helvetica,sans-Serif" font-size="10.00" fill="#000000">pa.h</text>
</a>
</g>
</g>
<!-- Node0&#45;&gt;Node9 -->
<g id="edge9" class="edge">
<title>Node0&#45;&gt;Node9</title>
<path fill="none" stroke="#191970" d="M429.9411,-56.3733C449.0404,-47.1529 477.9977,-33.1735 499.1254,-22.9739"/>
<polygon fill="#191970" stroke="#191970" points="500.7344,-26.0838 508.2183,-18.5843 497.6911,-19.7799 500.7344,-26.0838"/>
</g>
<!-- Node10 -->
<g id="node11" class="node">
<title>Node10</title>
<g id="a_node11"><a xlink:href="ea_8h.html" target="_top" xlink:title="Evolutionary algorithm functions. ">
<polygon fill="none" stroke="#000000" points="561.5,-.5 561.5,-19.5 596.5,-19.5 596.5,-.5 561.5,-.5"/>
<text text-anchor="middle" x="579" y="-7.5" font-family="Helvetica,sans-Serif" font-size="10.00" fill="#000000">ea.h</text>
</a>
</g>
</g>
<!-- Node0&#45;&gt;Node10 -->
<g id="edge10" class="edge">
<title>Node0&#45;&gt;Node10</title>
<path fill="none" stroke="#191970" d="M441.412,-56.4501C468.5102,-48.0896 508.884,-35.344 551.9161,-20.2673"/>
<polygon fill="#191970" stroke="#191970" points="553.1615,-23.5394 561.4273,-16.9117 550.8325,-16.9382 553.1615,-23.5394"/>
</g>
<!-- Node11 -->
<g id="node12" class="node">
<title>Node11</title>
<g id="a_node12"><a xlink:href="perf_8h.html" target="_top" xlink:title="System performance printing. ">
<polygon fill="none" stroke="#000000" points="614.5,-.5 614.5,-19.5 655.5,-19.5 655.5,-.5 614.5,-.5"/>
<text text-anchor="middle" x="635" y="-7.5" font-family="Helvetica,sans-Serif" font-size="10.00" fill="#000000">perf.h</text>
</a>
</g>
</g>
<!-- Node0&#45;&gt;Node11 -->
<g id="edge11" class="edge">
<title>Node0&#45;&gt;Node11</title>
<path fill="none" stroke="#191970" d="M456.6781,-56.442C494.4232,-48.3992 549.0832,-36.0462 604.8083,-20.1551"/>
<polygon fill="#191970" stroke="#191970" points="605.8499,-23.4974 614.4872,-17.3617 603.9088,-16.7719 605.8499,-23.4974"/>
</g>
<!-- Node12 -->
<g id="node13" class="node">
<title>Node12</title>
<g id="a_node13"><a xlink:href="xcs__single__step_8h.html" target="_top" xlink:title="Single&#45;step reinforcement learning functions. ">
<polygon fill="none" stroke="#000000" points="673.5,-.5 673.5,-19.5 768.5,-19.5 768.5,-.5 673.5,-.5"/>
<text text-anchor="middle" x="721" y="-7.5" font-family="Helvetica,sans-Serif" font-size="10.00" fill="#000000">xcs_single_step.h</text>
</a>
</g>
</g>
<!-- Node0&#45;&gt;Node12 -->
<g id="edge12" class="edge">
<title>Node0&#45;&gt;Node12</title>
<path fill="none" stroke="#191970" d="M457.5727,-57.4338C512.9057,-47.4704 604.2158,-31.0287 663.4816,-20.357"/>
<polygon fill="#191970" stroke="#191970" points="664.2111,-23.782 673.4326,-18.5652 662.9705,-16.8928 664.2111,-23.782"/>
</g>
<!-- Node13 -->
<g id="node14" class="node">
<title>Node13</title>
<g id="a_node14"><a xlink:href="env_8h.html" target="_top" xlink:title="Built&#45;in problem environment interface. ">
<polygon fill="none" stroke="#000000" points="786.5,-.5 786.5,-19.5 827.5,-19.5 827.5,-.5 786.5,-.5"/>
<text text-anchor="middle" x="807" y="-7.5" font-family="Helvetica,sans-Serif" font-size="10.00" fill="#000000">env.h</text>
</a>
</g>
</g>
<!-- Node0&#45;&gt;Node13 -->
<g id="edge13" class="edge">
<title>Node0&#45;&gt;Node13</title>
<path fill="none" stroke="#191970" d="M457.6058,-63.2174C526.3492,-58.5087 657.3798,-46.9474 776.2479,-20.042"/>
<polygon fill="#191970" stroke="#191970" points="777.2851,-23.3947 786.2424,-17.7363 775.7115,-16.5739 777.2851,-23.3947"/>
</g>
</g>
</svg>
