<?xml version="1.0" encoding="UTF-8" standalone="no"?>
<!DOCTYPE svg PUBLIC "-//W3C//DTD SVG 1.1//EN"
 "http://www.w3.org/Graphics/SVG/1.1/DTD/svg11.dtd">
<!-- Generated by graphviz version 2.40.1 (20161225.0304)
 -->
<!-- Title: xcs_supervised_trial Pages: 1 -->
<svg width="512pt" height="142pt"
 viewBox="0.00 0.00 512.00 142.00" xmlns="http://www.w3.org/2000/svg" xmlns:xlink="http://www.w3.org/1999/xlink">
<g id="graph0" class="graph" transform="scale(1 1) rotate(0) translate(4 138)">
<title>xcs_supervised_trial</title>
<!-- Node360 -->
<g id="node1" class="node">
<title>Node360</title>
<polygon fill="#bfbfbf" stroke="#000000" points="0,-38.5 0,-57.5 106,-57.5 106,-38.5 0,-38.5"/>
<text text-anchor="middle" x="53" y="-45.5" font-family="Helvetica,sans-Serif" font-size="10.00" fill="#000000">xcs_supervised_trial</text>
</g>
<!-- Node361 -->
<g id="node2" class="node">
<title>Node361</title>
<g id="a_node2"><a xlink:href="xcs__supervised_8h.html#aa4daa45596a8cf402d58d029f780db3a" target="_top" xlink:title="Executes MAX_TRIALS number of XCSF learning iterations using the training data and test iterations us...">
<polygon fill="none" stroke="#000000" points="152.5,-76.5 152.5,-95.5 250.5,-95.5 250.5,-76.5 152.5,-76.5"/>
<text text-anchor="middle" x="201.5" y="-83.5" font-family="Helvetica,sans-Serif" font-size="10.00" fill="#000000">xcs_supervised_fit</text>
</a>
</g>
</g>
<!-- Node360&#45;&gt;Node361 -->
<g id="edge1" class="edge">
<title>Node360&#45;&gt;Node361</title>
<path fill="none" stroke="#191970" d="M100.3329,-60.1121C121.0146,-65.4044 144.9188,-71.5213 164.2966,-76.4799"/>
<polygon fill="#191970" stroke="#191970" points="101.0284,-56.6774 90.4728,-57.589 99.293,-63.4589 101.0284,-56.6774"/>
</g>
<!-- Node365 -->
<g id="node6" class="node">
<title>Node365</title>
<g id="a_node6"><a xlink:href="xcs__supervised_8h.html#a11b5fbece61ea9da003cda48fbf7d728" target="_top" xlink:title="Calculates the XCSF predictions for the provided input. ">
<polygon fill="none" stroke="#000000" points="142,-38.5 142,-57.5 261,-57.5 261,-38.5 142,-38.5"/>
<text text-anchor="middle" x="201.5" y="-45.5" font-family="Helvetica,sans-Serif" font-size="10.00" fill="#000000">xcs_supervised_predict</text>
</a>
</g>
</g>
<!-- Node360&#45;&gt;Node365 -->
<g id="edge5" class="edge">
<title>Node360&#45;&gt;Node365</title>
<path fill="none" stroke="#191970" d="M116.3802,-48C124.8353,-48 133.4826,-48 141.8707,-48"/>
<polygon fill="#191970" stroke="#191970" points="116.1925,-44.5001 106.1925,-48 116.1924,-51.5001 116.1925,-44.5001"/>
</g>
<!-- Node367 -->
<g id="node8" class="node">
<title>Node367</title>
<g id="a_node8"><a xlink:href="xcs__supervised_8h.html#a19dea220a72a3646e490ff13ea7ed5fa" target="_top" xlink:title="Calculates the XCSF error for the input data. ">
<polygon fill="none" stroke="#000000" points="144.5,-.5 144.5,-19.5 258.5,-19.5 258.5,-.5 144.5,-.5"/>
<text text-anchor="middle" x="201.5" y="-7.5" font-family="Helvetica,sans-Serif" font-size="10.00" fill="#000000">xcs_supervised_score</text>
</a>
</g>
</g>
<!-- Node360&#45;&gt;Node367 -->
<g id="edge8" class="edge">
<title>Node360&#45;&gt;Node367</title>
<path fill="none" stroke="#191970" d="M100.3329,-35.8879C121.0146,-30.5956 144.9188,-24.4787 164.2966,-19.5201"/>
<polygon fill="#191970" stroke="#191970" points="99.293,-32.5411 90.4728,-38.411 101.0284,-39.3226 99.293,-32.5411"/>
</g>
<!-- Node362 -->
<g id="node3" class="node">
<title>Node362</title>
<g id="a_node3"><a xlink:href="main_8c.html#a3c04138a5bfe5d72780bb7e82a18e627" target="_top" xlink:title="main">
<polygon fill="none" stroke="#000000" points="314.5,-114.5 314.5,-133.5 352.5,-133.5 352.5,-114.5 314.5,-114.5"/>
<text text-anchor="middle" x="333.5" y="-121.5" font-family="Helvetica,sans-Serif" font-size="10.00" fill="#000000">main</text>
</a>
</g>
</g>
<!-- Node361&#45;&gt;Node362 -->
<g id="edge2" class="edge">
<title>Node361&#45;&gt;Node362</title>
<path fill="none" stroke="#191970" d="M244.5562,-98.395C268.0268,-105.1517 295.9188,-113.1812 314.1293,-118.4236"/>
<polygon fill="#191970" stroke="#191970" points="245.3872,-94.9921 234.8092,-95.589 243.4506,-101.7189 245.3872,-94.9921"/>
</g>
<!-- Node363 -->
<g id="node4" class="node">
<title>Node363</title>
<g id="a_node4"><a xlink:href="classXCS.html#ac9a4a7cb0ec6238ef1d4d77996f8975b" target="_top" xlink:title="XCS::fit">
<polygon fill="none" stroke="#000000" points="307.5,-76.5 307.5,-95.5 359.5,-95.5 359.5,-76.5 307.5,-76.5"/>
<text text-anchor="middle" x="333.5" y="-83.5" font-family="Helvetica,sans-Serif" font-size="10.00" fill="#000000">XCS::fit</text>
</a>
</g>
</g>
<!-- Node361&#45;&gt;Node363 -->
<g id="edge3" class="edge">
<title>Node361&#45;&gt;Node363</title>
<path fill="none" stroke="#191970" d="M260.6989,-86C277.0092,-86 293.8794,-86 307.2682,-86"/>
<polygon fill="#191970" stroke="#191970" points="260.652,-82.5001 250.6519,-86 260.6519,-89.5001 260.652,-82.5001"/>
</g>
<!-- Node364 -->
<g id="node5" class="node">
<title>Node364</title>
<g id="a_node5"><a xlink:href="pybind__wrapper_8cpp.html#a9f26280e01308c4674f2473fb6f78730" target="_top" xlink:title="pybind11_init_xcsf">
<polygon fill="none" stroke="#000000" points="406,-38.5 406,-57.5 504,-57.5 504,-38.5 406,-38.5"/>
<text text-anchor="middle" x="455" y="-45.5" font-family="Helvetica,sans-Serif" font-size="10.00" fill="#000000">pybind11_init_xcsf</text>
</a>
</g>
</g>
<!-- Node363&#45;&gt;Node364 -->
<g id="edge4" class="edge">
<title>Node363&#45;&gt;Node364</title>
<path fill="none" stroke="#191970" d="M369.3919,-74.7746C386.8242,-69.3225 407.5565,-62.8383 424.2521,-57.6166"/>
<polygon fill="#191970" stroke="#191970" points="368.0641,-71.5226 359.5648,-77.848 370.1537,-78.2034 368.0641,-71.5226"/>
</g>
<!-- Node366 -->
<g id="node7" class="node">
<title>Node366</title>
<g id="a_node7"><a xlink:href="classXCS.html#a8e8db281054f9e5937610eed434cd4a5" target="_top" xlink:title="XCS::predict">
<polygon fill="none" stroke="#000000" points="297,-38.5 297,-57.5 370,-57.5 370,-38.5 297,-38.5"/>
<text text-anchor="middle" x="333.5" y="-45.5" font-family="Helvetica,sans-Serif" font-size="10.00" fill="#000000">XCS::predict</text>
</a>
</g>
</g>
<!-- Node365&#45;&gt;Node366 -->
<g id="edge6" class="edge">
<title>Node365&#45;&gt;Node366</title>
<path fill="none" stroke="#191970" d="M271.5952,-48C280.3416,-48 288.9916,-48 296.9278,-48"/>
<polygon fill="#191970" stroke="#191970" points="271.3206,-44.5001 261.3206,-48 271.3205,-51.5001 271.3206,-44.5001"/>
</g>
<!-- Node366&#45;&gt;Node364 -->
<g id="edge7" class="edge">
<title>Node366&#45;&gt;Node364</title>
<path fill="none" stroke="#191970" d="M380.5277,-48C388.8057,-48 397.4423,-48 405.7783,-48"/>
<polygon fill="#191970" stroke="#191970" points="380.2838,-44.5001 370.2837,-48 380.2837,-51.5001 380.2838,-44.5001"/>
</g>
<!-- Node368 -->
<g id="node9" class="node">
<title>Node368</title>
<g id="a_node9"><a xlink:href="classXCS.html#ad32ffc841106ec036029e4c90a33b761" target="_top" xlink:title="XCS::score">
<polygon fill="none" stroke="#000000" points="299.5,-.5 299.5,-19.5 367.5,-19.5 367.5,-.5 299.5,-.5"/>
<text text-anchor="middle" x="333.5" y="-7.5" font-family="Helvetica,sans-Serif" font-size="10.00" fill="#000000">XCS::score</text>
</a>
</g>
</g>
<!-- Node367&#45;&gt;Node368 -->
<g id="edge9" class="edge">
<title>Node367&#45;&gt;Node368</title>
<path fill="none" stroke="#191970" d="M268.7106,-10C279.2489,-10 289.7461,-10 299.1268,-10"/>
<polygon fill="#191970" stroke="#191970" points="268.6294,-6.5001 258.6294,-10 268.6294,-13.5001 268.6294,-6.5001"/>
</g>
<!-- Node368&#45;&gt;Node364 -->
<g id="edge10" class="edge">
<title>Node368&#45;&gt;Node364</title>
<path fill="none" stroke="#191970" d="M374.044,-22.6804C390.4606,-27.8148 409.0989,-33.6441 424.3502,-38.4141"/>
<polygon fill="#191970" stroke="#191970" points="374.7485,-19.2336 364.1596,-19.589 372.6589,-25.9145 374.7485,-19.2336"/>
</g>
</g>
</svg>
