<?xml version="1.0" encoding="UTF-8" standalone="no"?>
<!DOCTYPE svg PUBLIC "-//W3C//DTD SVG 1.1//EN"
 "http://www.w3.org/Graphics/SVG/1.1/DTD/svg11.dtd">
<!-- Generated by graphviz version 2.40.1 (20161225.0304)
 -->
<!-- Title: xcsf_print_match_set Pages: 1 -->
<svg width="1398pt" height="712pt"
 viewBox="0.00 0.00 1398.00 712.00" xmlns="http://www.w3.org/2000/svg" xmlns:xlink="http://www.w3.org/1999/xlink">
<g id="graph0" class="graph" transform="scale(1 1) rotate(0) translate(4 708)">
<title>xcsf_print_match_set</title>
<!-- Node282 -->
<g id="node1" class="node">
<title>Node282</title>
<polygon fill="#bfbfbf" stroke="#000000" points="0,-532.5 0,-551.5 110,-551.5 110,-532.5 0,-532.5"/>
<text text-anchor="middle" x="55" y="-539.5" font-family="Helvetica,sans-Serif" font-size="10.00" fill="#000000">xcsf_print_match_set</text>
</g>
<!-- Node283 -->
<g id="node2" class="node">
<title>Node283</title>
<g id="a_node2"><a xlink:href="cl__set_8c.html#af03c3db68031f8953d79a4725ae951ad" target="_top" xlink:title="Frees the set, but not the classifiers. ">
<polygon fill="none" stroke="#000000" points="151,-608.5 151,-627.5 203,-627.5 203,-608.5 151,-608.5"/>
<text text-anchor="middle" x="177" y="-615.5" font-family="Helvetica,sans-Serif" font-size="10.00" fill="#000000">set_free</text>
</a>
</g>
</g>
<!-- Node282&#45;&gt;Node283 -->
<g id="edge1" class="edge">
<title>Node282&#45;&gt;Node283</title>
<path fill="none" stroke="#191970" d="M70.1073,-551.5255C88.1391,-562.8804 119.2193,-582.4062 146,-599 148.1597,-600.3382 150.4067,-601.7253 152.66,-603.1128"/>
<polygon fill="#191970" stroke="#191970" points="150.8581,-606.1136 161.2113,-608.3638 154.5211,-600.1484 150.8581,-606.1136"/>
</g>
<!-- Node284 -->
<g id="node3" class="node">
<title>Node284</title>
<g id="a_node3"><a xlink:href="cl__set_8c.html#ad4388f1d26d4129991f692eb4c81886c" target="_top" xlink:title="Initialises a new set. ">
<polygon fill="none" stroke="#000000" points="153,-570.5 153,-589.5 201,-589.5 201,-570.5 153,-570.5"/>
<text text-anchor="middle" x="177" y="-577.5" font-family="Helvetica,sans-Serif" font-size="10.00" fill="#000000">set_init</text>
</a>
</g>
</g>
<!-- Node282&#45;&gt;Node284 -->
<g id="edge2" class="edge">
<title>Node282&#45;&gt;Node284</title>
<path fill="none" stroke="#191970" d="M85.7858,-551.589C103.2151,-557.0178 125.0473,-563.818 142.9823,-569.4043"/>
<polygon fill="#191970" stroke="#191970" points="142.1715,-572.8176 152.76,-572.4498 144.2533,-566.1343 142.1715,-572.8176"/>
</g>
<!-- Node285 -->
<g id="node4" class="node">
<title>Node285</title>
<g id="a_node4"><a xlink:href="cl__set_8c.html#a0b2479df1a61213f1f150907c62278bb" target="_top" xlink:title="Frees the set and the classifiers. ">
<polygon fill="none" stroke="#000000" points="153.5,-532.5 153.5,-551.5 200.5,-551.5 200.5,-532.5 153.5,-532.5"/>
<text text-anchor="middle" x="177" y="-539.5" font-family="Helvetica,sans-Serif" font-size="10.00" fill="#000000">set_kill</text>
</a>
</g>
</g>
<!-- Node282&#45;&gt;Node285 -->
<g id="edge3" class="edge">
<title>Node282&#45;&gt;Node285</title>
<path fill="none" stroke="#191970" d="M110.2887,-542C121.5188,-542 133.0094,-542 143.2199,-542"/>
<polygon fill="#191970" stroke="#191970" points="143.3326,-545.5001 153.3325,-542 143.3325,-538.5001 143.3326,-545.5001"/>
</g>
<!-- Node291 -->
<g id="node10" class="node">
<title>Node291</title>
<g id="a_node10"><a xlink:href="cl__set_8c.html#af3bea0b4d03654b9d6cb08fbf272c847" target="_top" xlink:title="Constructs the match set. ">
<polygon fill="none" stroke="#000000" points="146,-494.5 146,-513.5 208,-513.5 208,-494.5 146,-494.5"/>
<text text-anchor="middle" x="177" y="-501.5" font-family="Helvetica,sans-Serif" font-size="10.00" fill="#000000">set_match</text>
</a>
</g>
</g>
<!-- Node282&#45;&gt;Node291 -->
<g id="edge9" class="edge">
<title>Node282&#45;&gt;Node291</title>
<path fill="none" stroke="#191970" d="M85.7858,-532.411C101.1013,-527.6406 119.8166,-521.8112 136.2998,-516.6771"/>
<polygon fill="#191970" stroke="#191970" points="137.7174,-519.9015 146.2241,-513.5859 135.6356,-513.2182 137.7174,-519.9015"/>
</g>
<!-- Node329 -->
<g id="node48" class="node">
<title>Node329</title>
<g id="a_node48"><a xlink:href="cl__set_8c.html#aa461f1b5cd0429c12cbd18da16570be1" target="_top" xlink:title="Prints the classifiers in the set. ">
<polygon fill="none" stroke="#000000" points="150,-323.5 150,-342.5 204,-342.5 204,-323.5 150,-323.5"/>
<text text-anchor="middle" x="177" y="-330.5" font-family="Helvetica,sans-Serif" font-size="10.00" fill="#000000">set_print</text>
</a>
</g>
</g>
<!-- Node282&#45;&gt;Node329 -->
<g id="edge51" class="edge">
<title>Node282&#45;&gt;Node329</title>
<path fill="none" stroke="#191970" d="M60.5591,-532.4766C79.4144,-500.1753 141.1526,-394.4107 166.2483,-351.4188"/>
<polygon fill="#191970" stroke="#191970" points="169.3896,-352.9801 171.4082,-342.5793 163.3442,-349.4512 169.3896,-352.9801"/>
</g>
<!-- Node286 -->
<g id="node5" class="node">
<title>Node286</title>
<g id="a_node5"><a xlink:href="cl_8c.html#a7bf8d03856a0c04854cfd99fcd45b32a" target="_top" xlink:title="Frees the memory used by the classifier. ">
<polygon fill="none" stroke="#000000" points="250.5,-608.5 250.5,-627.5 296.5,-627.5 296.5,-608.5 250.5,-608.5"/>
<text text-anchor="middle" x="273.5" y="-615.5" font-family="Helvetica,sans-Serif" font-size="10.00" fill="#000000">cl_free</text>
</a>
</g>
</g>
<!-- Node285&#45;&gt;Node286 -->
<g id="edge4" class="edge">
<title>Node285&#45;&gt;Node286</title>
<path fill="none" stroke="#191970" d="M194.599,-551.6839C199.1272,-554.4678 203.8808,-557.6612 208,-561 226.0732,-575.6491 226.0916,-584.15 244,-599 245.5123,-600.254 247.1118,-601.4937 248.7524,-602.7026"/>
<polygon fill="#191970" stroke="#191970" points="246.8591,-605.6481 257.086,-608.4161 250.8174,-599.8747 246.8591,-605.6481"/>
</g>
<!-- Node287 -->
<g id="node6" class="node">
<title>Node287</title>
<g id="a_node6"><a xlink:href="action_8h.html#a3c0b8f4ef29f45d210b6e76340a25e15" target="_top" xlink:title="act_free">
<polygon fill="none" stroke="#000000" points="363.5,-684.5 363.5,-703.5 415.5,-703.5 415.5,-684.5 363.5,-684.5"/>
<text text-anchor="middle" x="389.5" y="-691.5" font-family="Helvetica,sans-Serif" font-size="10.00" fill="#000000">act_free</text>
</a>
</g>
</g>
<!-- Node286&#45;&gt;Node287 -->
<g id="edge5" class="edge">
<title>Node286&#45;&gt;Node287</title>
<path fill="none" stroke="#191970" d="M282.4227,-627.6612C294.3109,-640.0572 316.4756,-661.5597 339,-675 343.5588,-677.7202 348.574,-680.1672 353.6201,-682.3286"/>
<polygon fill="#191970" stroke="#191970" points="352.6637,-685.7138 363.2504,-686.1298 355.2338,-679.2027 352.6637,-685.7138"/>
</g>
<!-- Node288 -->
<g id="node7" class="node">
<title>Node288</title>
<g id="a_node7"><a xlink:href="condition_8h.html#a3f9b67abe92145cf80a263853912a0d5" target="_top" xlink:title="cond_free">
<polygon fill="none" stroke="#000000" points="360,-646.5 360,-665.5 419,-665.5 419,-646.5 360,-646.5"/>
<text text-anchor="middle" x="389.5" y="-653.5" font-family="Helvetica,sans-Serif" font-size="10.00" fill="#000000">cond_free</text>
</a>
</g>
</g>
<!-- Node286&#45;&gt;Node288 -->
<g id="edge6" class="edge">
<title>Node286&#45;&gt;Node288</title>
<path fill="none" stroke="#191970" d="M296.6955,-625.5985C312.0925,-630.6424 332.6821,-637.3872 350.5556,-643.2424"/>
<polygon fill="#191970" stroke="#191970" points="349.563,-646.6001 360.1557,-646.3872 351.7422,-639.948 349.563,-646.6001"/>
</g>
<!-- Node289 -->
<g id="node8" class="node">
<title>Node289</title>
<g id="a_node8"><a xlink:href="prediction_8h.html#a5c8b28f792149c6267cc8387554e1da7" target="_top" xlink:title="pred_free">
<polygon fill="none" stroke="#000000" points="361,-608.5 361,-627.5 418,-627.5 418,-608.5 361,-608.5"/>
<text text-anchor="middle" x="389.5" y="-615.5" font-family="Helvetica,sans-Serif" font-size="10.00" fill="#000000">pred_free</text>
</a>
</g>
</g>
<!-- Node286&#45;&gt;Node289 -->
<g id="edge7" class="edge">
<title>Node286&#45;&gt;Node289</title>
<path fill="none" stroke="#191970" d="M296.6955,-618C312.0604,-618 332.5965,-618 350.4441,-618"/>
<polygon fill="#191970" stroke="#191970" points="350.5824,-621.5001 360.5824,-618 350.5823,-614.5001 350.5824,-621.5001"/>
</g>
<!-- Node290 -->
<g id="node9" class="node">
<title>Node290</title>
<g id="a_node9"><a xlink:href="sam_8c.html#ab788a3ced38cf0fd20f8e6a2bab9f86a" target="_top" xlink:title="Frees the self&#45;adaptive mutation rates. ">
<polygon fill="none" stroke="#000000" points="361,-570.5 361,-589.5 418,-589.5 418,-570.5 361,-570.5"/>
<text text-anchor="middle" x="389.5" y="-577.5" font-family="Helvetica,sans-Serif" font-size="10.00" fill="#000000">sam_free</text>
</a>
</g>
</g>
<!-- Node286&#45;&gt;Node290 -->
<g id="edge8" class="edge">
<title>Node286&#45;&gt;Node290</title>
<path fill="none" stroke="#191970" d="M296.6955,-610.4015C312.204,-605.3211 332.9808,-598.5149 350.9438,-592.6305"/>
<polygon fill="#191970" stroke="#191970" points="352.1689,-595.9123 360.5824,-589.473 349.9897,-589.2601 352.1689,-595.9123"/>
</g>
<!-- Node292 -->
<g id="node11" class="node">
<title>Node292</title>
<g id="a_node11"><a xlink:href="cl_8c.html#ae2fc6cc72c129339a3301573f80a52ee" target="_top" xlink:title="Computes the current classifier action using the input. ">
<polygon fill="none" stroke="#000000" points="245.5,-285.5 245.5,-304.5 301.5,-304.5 301.5,-285.5 245.5,-285.5"/>
<text text-anchor="middle" x="273.5" y="-292.5" font-family="Helvetica,sans-Serif" font-size="10.00" fill="#000000">cl_action</text>
</a>
</g>
</g>
<!-- Node291&#45;&gt;Node292 -->
<g id="edge10" class="edge">
<title>Node291&#45;&gt;Node292</title>
<path fill="none" stroke="#191970" d="M181.3972,-494.4766C196.28,-462.2433 244.9398,-356.8557 264.8699,-313.6912"/>
<polygon fill="#191970" stroke="#191970" points="268.0626,-315.1255 269.077,-304.5793 261.7074,-312.1911 268.0626,-315.1255"/>
</g>
<!-- Node294 -->
<g id="node13" class="node">
<title>Node294</title>
<g id="a_node13"><a xlink:href="cl_8c.html#ac759904d9a05b2109c39ef17f9f889c3" target="_top" xlink:title="Returns whether the classifier matched the most recent input. ">
<polygon fill="none" stroke="#000000" points="254.5,-570.5 254.5,-589.5 292.5,-589.5 292.5,-570.5 254.5,-570.5"/>
<text text-anchor="middle" x="273.5" y="-577.5" font-family="Helvetica,sans-Serif" font-size="10.00" fill="#000000">cl_m</text>
</a>
</g>
</g>
<!-- Node291&#45;&gt;Node294 -->
<g id="edge12" class="edge">
<title>Node291&#45;&gt;Node294</title>
<path fill="none" stroke="#191970" d="M194.599,-513.6839C199.1272,-516.4678 203.8808,-519.6612 208,-523 226.0732,-537.6491 226.0916,-546.15 244,-561 245.5123,-562.254 247.1118,-563.4937 248.7524,-564.7026"/>
<polygon fill="#191970" stroke="#191970" points="246.8591,-567.6481 257.086,-570.4161 250.8174,-561.8747 246.8591,-567.6481"/>
</g>
<!-- Node295 -->
<g id="node14" class="node">
<title>Node295</title>
<g id="a_node14"><a xlink:href="cl_8c.html#a5d3c4060ef3fd0476e3c8e439a8f81e1" target="_top" xlink:title="Calculates whether the classifier matches the input. ">
<polygon fill="none" stroke="#000000" points="245.5,-532.5 245.5,-551.5 301.5,-551.5 301.5,-532.5 245.5,-532.5"/>
<text text-anchor="middle" x="273.5" y="-539.5" font-family="Helvetica,sans-Serif" font-size="10.00" fill="#000000">cl_match</text>
</a>
</g>
</g>
<!-- Node291&#45;&gt;Node295 -->
<g id="edge13" class="edge">
<title>Node291&#45;&gt;Node295</title>
<path fill="none" stroke="#191970" d="M201.351,-513.589C213.0082,-518.1794 227.1554,-523.7503 239.8235,-528.7388"/>
<polygon fill="#191970" stroke="#191970" points="238.5698,-532.0066 249.1568,-532.4141 241.1346,-525.4934 238.5698,-532.0066"/>
</g>
<!-- Node297 -->
<g id="node16" class="node">
<title>Node297</title>
<g id="a_node16"><a xlink:href="cl__set_8c.html#a274578f0b79dea927e8148a7c41bf75f" target="_top" xlink:title="Adds a classifier to the set. ">
<polygon fill="none" stroke="#000000" points="613,-494.5 613,-513.5 664,-513.5 664,-494.5 613,-494.5"/>
<text text-anchor="middle" x="638.5" y="-501.5" font-family="Helvetica,sans-Serif" font-size="10.00" fill="#000000">set_add</text>
</a>
</g>
</g>
<!-- Node291&#45;&gt;Node297 -->
<g id="edge15" class="edge">
<title>Node291&#45;&gt;Node297</title>
<path fill="none" stroke="#191970" d="M208.3579,-504C291.1271,-504 515.1104,-504 602.7021,-504"/>
<polygon fill="#191970" stroke="#191970" points="602.9303,-507.5001 612.9302,-504 602.9302,-500.5001 602.9303,-507.5001"/>
</g>
<!-- Node298 -->
<g id="node17" class="node">
<title>Node298</title>
<g id="a_node17"><a xlink:href="cl__set_8c.html#abe074d7cbd109322c145d194cdd02704" target="_top" xlink:title="Ensures all possible actions are covered by the match set. ">
<polygon fill="none" stroke="#000000" points="244,-380.5 244,-399.5 303,-399.5 303,-380.5 244,-380.5"/>
<text text-anchor="middle" x="273.5" y="-387.5" font-family="Helvetica,sans-Serif" font-size="10.00" fill="#000000">set_cover</text>
</a>
</g>
</g>
<!-- Node291&#45;&gt;Node298 -->
<g id="edge16" class="edge">
<title>Node291&#45;&gt;Node298</title>
<path fill="none" stroke="#191970" d="M185.2275,-494.2804C201.5362,-475.0142 238.162,-431.7464 258.7425,-407.4338"/>
<polygon fill="#191970" stroke="#191970" points="261.5037,-409.5889 265.2933,-399.695 256.1609,-405.0663 261.5037,-409.5889"/>
</g>
<!-- Node293 -->
<g id="node12" class="node">
<title>Node293</title>
<g id="a_node12"><a xlink:href="action_8h.html#a0d7fce139fe8ea66b42b95ebcb941c1d" target="_top" xlink:title="act_compute">
<polygon fill="none" stroke="#000000" points="353,-228.5 353,-247.5 426,-247.5 426,-228.5 353,-228.5"/>
<text text-anchor="middle" x="389.5" y="-235.5" font-family="Helvetica,sans-Serif" font-size="10.00" fill="#000000">act_compute</text>
</a>
</g>
</g>
<!-- Node292&#45;&gt;Node293 -->
<g id="edge11" class="edge">
<title>Node292&#45;&gt;Node293</title>
<path fill="none" stroke="#191970" d="M288.4653,-285.3585C301.4975,-277.1979 321.0629,-265.5054 339,-257 343.1593,-255.0278 347.5825,-253.1126 352.0152,-251.3053"/>
<polygon fill="#191970" stroke="#191970" points="353.5982,-254.4443 361.6351,-247.5407 351.0472,-247.9256 353.5982,-254.4443"/>
</g>
<!-- Node296 -->
<g id="node15" class="node">
<title>Node296</title>
<g id="a_node15"><a xlink:href="condition_8h.html#a733d2f270aa8c0c18afa29d5a449b45f" target="_top" xlink:title="cond_match">
<polygon fill="none" stroke="#000000" points="354.5,-532.5 354.5,-551.5 424.5,-551.5 424.5,-532.5 354.5,-532.5"/>
<text text-anchor="middle" x="389.5" y="-539.5" font-family="Helvetica,sans-Serif" font-size="10.00" fill="#000000">cond_match</text>
</a>
</g>
</g>
<!-- Node295&#45;&gt;Node296 -->
<g id="edge14" class="edge">
<title>Node295&#45;&gt;Node296</title>
<path fill="none" stroke="#191970" d="M301.5804,-542C314.3139,-542 329.697,-542 344.0123,-542"/>
<polygon fill="#191970" stroke="#191970" points="344.1942,-545.5001 354.1941,-542 344.1941,-538.5001 344.1942,-545.5001"/>
</g>
<!-- Node298&#45;&gt;Node297 -->
<g id="edge49" class="edge">
<title>Node298&#45;&gt;Node297</title>
<path fill="none" stroke="#191970" d="M281.6998,-399.8247C293.125,-412.8148 315.1344,-435.4099 339,-447 362.5411,-458.4325 528.4615,-486.2203 602.72,-498.2694"/>
<polygon fill="#191970" stroke="#191970" points="602.5527,-501.7878 612.9833,-499.9291 603.6703,-494.8775 602.5527,-501.7878"/>
</g>
<!-- Node299 -->
<g id="node18" class="node">
<title>Node299</title>
<g id="a_node18"><a xlink:href="cl_8c.html#a42adb85e78d1f9af3dbd53cd9e9ae0fd" target="_top" xlink:title="Covers the condition and action for a classifier. ">
<polygon fill="none" stroke="#000000" points="363,-342.5 363,-361.5 416,-361.5 416,-342.5 363,-342.5"/>
<text text-anchor="middle" x="389.5" y="-349.5" font-family="Helvetica,sans-Serif" font-size="10.00" fill="#000000">cl_cover</text>
</a>
</g>
</g>
<!-- Node298&#45;&gt;Node299 -->
<g id="edge17" class="edge">
<title>Node298&#45;&gt;Node299</title>
<path fill="none" stroke="#191970" d="M302.7717,-380.411C318.001,-375.4221 336.7657,-369.275 352.941,-363.9762"/>
<polygon fill="#191970" stroke="#191970" points="354.2096,-367.2437 362.6231,-360.8045 352.0304,-360.5916 354.2096,-367.2437"/>
</g>
<!-- Node309 -->
<g id="node28" class="node">
<title>Node309</title>
<g id="a_node28"><a xlink:href="cl_8c.html#ab76fe4ea183f51174a3797c3cbb1b3bf" target="_top" xlink:title="Initialises a new classifier. ">
<polygon fill="none" stroke="#000000" points="368.5,-304.5 368.5,-323.5 410.5,-323.5 410.5,-304.5 368.5,-304.5"/>
<text text-anchor="middle" x="389.5" y="-311.5" font-family="Helvetica,sans-Serif" font-size="10.00" fill="#000000">cl_init</text>
</a>
</g>
</g>
<!-- Node298&#45;&gt;Node309 -->
<g id="edge27" class="edge">
<title>Node298&#45;&gt;Node309</title>
<path fill="none" stroke="#191970" d="M282.4227,-380.3388C294.3109,-367.9428 316.4756,-346.4403 339,-333 345.0532,-329.3881 351.9112,-326.2579 358.5778,-323.6383"/>
<polygon fill="#191970" stroke="#191970" points="359.8963,-326.883 368.0922,-320.1691 357.4983,-320.3066 359.8963,-326.883"/>
</g>
<!-- Node319 -->
<g id="node38" class="node">
<title>Node319</title>
<g id="a_node38"><a xlink:href="cl__set_8c.html#a8537e849783523d1e2394e4a027cf33a" target="_top" xlink:title="Enforces the maximum population size limit. ">
<polygon fill="none" stroke="#000000" points="343,-380.5 343,-399.5 436,-399.5 436,-380.5 343,-380.5"/>
<text text-anchor="middle" x="389.5" y="-387.5" font-family="Helvetica,sans-Serif" font-size="10.00" fill="#000000">pop_enforce_limit</text>
</a>
</g>
</g>
<!-- Node298&#45;&gt;Node319 -->
<g id="edge38" class="edge">
<title>Node298&#45;&gt;Node319</title>
<path fill="none" stroke="#191970" d="M303.0718,-390C312.1337,-390 322.4256,-390 332.6688,-390"/>
<polygon fill="#191970" stroke="#191970" points="332.8485,-393.5001 342.8485,-390 332.8485,-386.5001 332.8485,-393.5001"/>
</g>
<!-- Node327 -->
<g id="node46" class="node">
<title>Node327</title>
<g id="a_node46"><a xlink:href="cl__set_8c.html#a55395d23e56e86a5dd11be34a4e051ff" target="_top" xlink:title="Returns whether an action is covered by the set. ">
<polygon fill="none" stroke="#000000" points="339,-266.5 339,-285.5 440,-285.5 440,-266.5 339,-266.5"/>
<text text-anchor="middle" x="389.5" y="-273.5" font-family="Helvetica,sans-Serif" font-size="10.00" fill="#000000">set_action_covered</text>
</a>
</g>
</g>
<!-- Node298&#45;&gt;Node327 -->
<g id="edge48" class="edge">
<title>Node298&#45;&gt;Node327</title>
<path fill="none" stroke="#191970" d="M277.6422,-380.487C286.3289,-361.5864 308.2233,-319.0596 339,-295 341.2832,-293.2151 343.752,-291.5842 346.3283,-290.096"/>
<polygon fill="#191970" stroke="#191970" points="348.0064,-293.1703 355.3881,-285.5702 344.8781,-286.9081 348.0064,-293.1703"/>
</g>
<!-- Node328 -->
<g id="node47" class="node">
<title>Node328</title>
<g id="a_node47"><a xlink:href="cl__set_8c.html#ad2333ccd5fef4fcef4f5ae98406611d3" target="_top" xlink:title="Removes classifiers with 0 numerosity from the set. ">
<polygon fill="none" stroke="#000000" points="355,-418.5 355,-437.5 424,-437.5 424,-418.5 355,-418.5"/>
<text text-anchor="middle" x="389.5" y="-425.5" font-family="Helvetica,sans-Serif" font-size="10.00" fill="#000000">set_validate</text>
</a>
</g>
</g>
<!-- Node298&#45;&gt;Node328 -->
<g id="edge50" class="edge">
<title>Node298&#45;&gt;Node328</title>
<path fill="none" stroke="#191970" d="M302.7717,-399.589C317.1967,-404.3144 334.7934,-410.0789 350.3573,-415.1774"/>
<polygon fill="#191970" stroke="#191970" points="349.645,-418.627 360.2377,-418.4141 351.8242,-411.9748 349.645,-418.627"/>
</g>
<!-- Node300 -->
<g id="node19" class="node">
<title>Node300</title>
<g id="a_node19"><a xlink:href="action_8h.html#aef1564c19502c8f890ff9f3c1260d6cf" target="_top" xlink:title="act_cover">
<polygon fill="none" stroke="#000000" points="480,-342.5 480,-361.5 539,-361.5 539,-342.5 480,-342.5"/>
<text text-anchor="middle" x="509.5" y="-349.5" font-family="Helvetica,sans-Serif" font-size="10.00" fill="#000000">act_cover</text>
</a>
</g>
</g>
<!-- Node299&#45;&gt;Node300 -->
<g id="edge18" class="edge">
<title>Node299&#45;&gt;Node300</title>
<path fill="none" stroke="#191970" d="M416.1319,-352C431.9473,-352 452.298,-352 469.9612,-352"/>
<polygon fill="#191970" stroke="#191970" points="469.9958,-355.5001 479.9958,-352 469.9958,-348.5001 469.9958,-355.5001"/>
</g>
<!-- Node301 -->
<g id="node20" class="node">
<title>Node301</title>
<g id="a_node20"><a xlink:href="cl_8c.html#a5c1f93d94c386004e38c02f6d7d19004" target="_top" xlink:title="Initialises random actions, conditions and predictions. ">
<polygon fill="none" stroke="#000000" points="485.5,-190.5 485.5,-209.5 533.5,-209.5 533.5,-190.5 485.5,-190.5"/>
<text text-anchor="middle" x="509.5" y="-197.5" font-family="Helvetica,sans-Serif" font-size="10.00" fill="#000000">cl_rand</text>
</a>
</g>
</g>
<!-- Node299&#45;&gt;Node301 -->
<g id="edge19" class="edge">
<title>Node299&#45;&gt;Node301</title>
<path fill="none" stroke="#191970" d="M416.1305,-345.9966C424.4814,-343.1224 433.2664,-338.9604 440,-333 475.4613,-301.6107 495.6044,-247.7404 504.3037,-219.1415"/>
<polygon fill="#191970" stroke="#191970" points="507.671,-220.0962 507.0856,-209.5176 500.9463,-218.1524 507.671,-220.0962"/>
</g>
<!-- Node308 -->
<g id="node27" class="node">
<title>Node308</title>
<g id="a_node27"><a xlink:href="condition_8h.html#a641c2ffa4792f9f5549a73f31bb66d44" target="_top" xlink:title="cond_cover">
<polygon fill="none" stroke="#000000" points="476,-304.5 476,-323.5 543,-323.5 543,-304.5 476,-304.5"/>
<text text-anchor="middle" x="509.5" y="-311.5" font-family="Helvetica,sans-Serif" font-size="10.00" fill="#000000">cond_cover</text>
</a>
</g>
</g>
<!-- Node299&#45;&gt;Node308 -->
<g id="edge26" class="edge">
<title>Node299&#45;&gt;Node308</title>
<path fill="none" stroke="#191970" d="M416.1319,-343.5666C431.7164,-338.6315 451.7048,-332.3018 469.1859,-326.7661"/>
<polygon fill="#191970" stroke="#191970" points="470.6598,-329.9708 479.1366,-323.6151 468.5465,-323.2974 470.6598,-329.9708"/>
</g>
<!-- Node302 -->
<g id="node21" class="node">
<title>Node302</title>
<g id="a_node21"><a xlink:href="action_8h.html#a5fff1d9e3cc60eaae50fda42aef83661" target="_top" xlink:title="act_init">
<polygon fill="none" stroke="#000000" points="614.5,-152.5 614.5,-171.5 662.5,-171.5 662.5,-152.5 614.5,-152.5"/>
<text text-anchor="middle" x="638.5" y="-159.5" font-family="Helvetica,sans-Serif" font-size="10.00" fill="#000000">act_init</text>
</a>
</g>
</g>
<!-- Node301&#45;&gt;Node302 -->
<g id="edge20" class="edge">
<title>Node301&#45;&gt;Node302</title>
<path fill="none" stroke="#191970" d="M533.7639,-192.8525C553.764,-186.961 582.3577,-178.538 604.617,-171.981"/>
<polygon fill="#191970" stroke="#191970" points="605.7414,-175.2986 614.3449,-169.1155 603.7634,-168.5839 605.7414,-175.2986"/>
</g>
<!-- Node303 -->
<g id="node22" class="node">
<title>Node303</title>
<g id="a_node22"><a xlink:href="action_8c.html#a3dda6c6f441d69995296435482803ae8" target="_top" xlink:title="Sets a classifier&#39;s action functions to the implementations. ">
<polygon fill="none" stroke="#000000" points="607.5,-114.5 607.5,-133.5 669.5,-133.5 669.5,-114.5 607.5,-114.5"/>
<text text-anchor="middle" x="638.5" y="-121.5" font-family="Helvetica,sans-Serif" font-size="10.00" fill="#000000">action_set</text>
</a>
</g>
</g>
<!-- Node301&#45;&gt;Node303 -->
<g id="edge21" class="edge">
<title>Node301&#45;&gt;Node303</title>
<path fill="none" stroke="#191970" d="M518.9815,-190.194C531.6108,-177.6415 555.1453,-155.97 579,-143 584.7517,-139.8727 591.0999,-137.1638 597.4433,-134.8497"/>
<polygon fill="#191970" stroke="#191970" points="598.9541,-138.0346 607.3211,-131.5351 596.7271,-131.3983 598.9541,-138.0346"/>
</g>
<!-- Node304 -->
<g id="node23" class="node">
<title>Node304</title>
<g id="a_node23"><a xlink:href="condition_8h.html#ac4d6ce7d2050452ba7b242cad65d592b" target="_top" xlink:title="cond_init">
<polygon fill="none" stroke="#000000" points="610.5,-76.5 610.5,-95.5 666.5,-95.5 666.5,-76.5 610.5,-76.5"/>
<text text-anchor="middle" x="638.5" y="-83.5" font-family="Helvetica,sans-Serif" font-size="10.00" fill="#000000">cond_init</text>
</a>
</g>
</g>
<!-- Node301&#45;&gt;Node304 -->
<g id="edge22" class="edge">
<title>Node301&#45;&gt;Node304</title>
<path fill="none" stroke="#191970" d="M513.9497,-190.3555C523.2648,-171.2186 546.6638,-128.2879 579,-105 585.4964,-100.3214 593.1943,-96.7612 600.8605,-94.0633"/>
<polygon fill="#191970" stroke="#191970" points="601.9455,-97.3914 610.4612,-91.088 599.8733,-90.7051 601.9455,-97.3914"/>
</g>
<!-- Node305 -->
<g id="node24" class="node">
<title>Node305</title>
<g id="a_node24"><a xlink:href="condition_8c.html#a3329903e950755c55a38c98db2641e3d" target="_top" xlink:title="Sets a classifier&#39;s condition functions to the implementations. ">
<polygon fill="none" stroke="#000000" points="601.5,-266.5 601.5,-285.5 675.5,-285.5 675.5,-266.5 601.5,-266.5"/>
<text text-anchor="middle" x="638.5" y="-273.5" font-family="Helvetica,sans-Serif" font-size="10.00" fill="#000000">condition_set</text>
</a>
</g>
</g>
<!-- Node301&#45;&gt;Node305 -->
<g id="edge23" class="edge">
<title>Node301&#45;&gt;Node305</title>
<path fill="none" stroke="#191970" d="M518.9815,-209.806C531.6108,-222.3585 555.1453,-244.03 579,-257 583.0206,-259.186 587.3325,-261.1676 591.7306,-262.9528"/>
<polygon fill="#191970" stroke="#191970" points="590.8236,-266.3495 601.4165,-266.5504 593.2609,-259.7875 590.8236,-266.3495"/>
</g>
<!-- Node306 -->
<g id="node25" class="node">
<title>Node306</title>
<g id="a_node25"><a xlink:href="prediction_8h.html#a9466870f30753fb12cd3670e3be4b8d2" target="_top" xlink:title="pred_init">
<polygon fill="none" stroke="#000000" points="612,-228.5 612,-247.5 665,-247.5 665,-228.5 612,-228.5"/>
<text text-anchor="middle" x="638.5" y="-235.5" font-family="Helvetica,sans-Serif" font-size="10.00" fill="#000000">pred_init</text>
</a>
</g>
</g>
<!-- Node301&#45;&gt;Node306 -->
<g id="edge24" class="edge">
<title>Node301&#45;&gt;Node306</title>
<path fill="none" stroke="#191970" d="M533.7639,-207.1475C553.0045,-212.8153 580.1985,-220.8259 602.0546,-227.2641"/>
<polygon fill="#191970" stroke="#191970" points="601.0917,-230.6291 611.6732,-230.0975 603.0697,-223.9144 601.0917,-230.6291"/>
</g>
<!-- Node307 -->
<g id="node26" class="node">
<title>Node307</title>
<g id="a_node26"><a xlink:href="prediction_8c.html#a68bf56c06ff52c2e31c4fb31436e1eed" target="_top" xlink:title="Sets a classifier&#39;s prediction functions to the implementations. ">
<polygon fill="none" stroke="#000000" points="600,-190.5 600,-209.5 677,-209.5 677,-190.5 600,-190.5"/>
<text text-anchor="middle" x="638.5" y="-197.5" font-family="Helvetica,sans-Serif" font-size="10.00" fill="#000000">prediction_set</text>
</a>
</g>
</g>
<!-- Node301&#45;&gt;Node307 -->
<g id="edge25" class="edge">
<title>Node301&#45;&gt;Node307</title>
<path fill="none" stroke="#191970" d="M533.7639,-200C549.5397,-200 570.6624,-200 589.8056,-200"/>
<polygon fill="#191970" stroke="#191970" points="589.8927,-203.5001 599.8927,-200 589.8927,-196.5001 589.8927,-203.5001"/>
</g>
<!-- Node310 -->
<g id="node29" class="node">
<title>Node310</title>
<g id="a_node29"><a xlink:href="sam_8c.html#ab529fdda992a0d15c0f798ec3fefe843" target="_top" xlink:title="Initialises a classifier&#39;s self&#45;adaptive mutation rates. ">
<polygon fill="none" stroke="#000000" points="483,-38.5 483,-57.5 536,-57.5 536,-38.5 483,-38.5"/>
<text text-anchor="middle" x="509.5" y="-45.5" font-family="Helvetica,sans-Serif" font-size="10.00" fill="#000000">sam_init</text>
</a>
</g>
</g>
<!-- Node309&#45;&gt;Node310 -->
<g id="edge28" class="edge">
<title>Node309&#45;&gt;Node310</title>
<path fill="none" stroke="#191970" d="M410.6783,-310.622C420.8275,-307.9735 432.3988,-303.2812 440,-295 447.9427,-286.3468 489.9822,-124.2569 504.5361,-67.4611"/>
<polygon fill="#191970" stroke="#191970" points="507.9756,-68.138 507.0621,-57.5826 501.1938,-66.4037 507.9756,-68.138"/>
</g>
<!-- Node311 -->
<g id="node30" class="node">
<title>Node311</title>
<g id="a_node30"><a xlink:href="sam_8c.html#a2142f014cab38e1a66523856ad64f825" target="_top" xlink:title="Initialises log normal self&#45;adaptive mutation rates. ">
<polygon fill="none" stroke="#000000" points="734,-38.5 734,-57.5 840,-57.5 840,-38.5 734,-38.5"/>
<text text-anchor="middle" x="787" y="-45.5" font-family="Helvetica,sans-Serif" font-size="10.00" fill="#000000">sam_log_normal_init</text>
</a>
</g>
</g>
<!-- Node310&#45;&gt;Node311 -->
<g id="edge29" class="edge">
<title>Node310&#45;&gt;Node311</title>
<path fill="none" stroke="#191970" d="M536.1079,-48C578.9147,-48 664.2567,-48 723.4436,-48"/>
<polygon fill="#191970" stroke="#191970" points="723.8069,-51.5001 733.8069,-48 723.8069,-44.5001 723.8069,-51.5001"/>
</g>
<!-- Node317 -->
<g id="node36" class="node">
<title>Node317</title>
<g id="a_node36"><a xlink:href="sam_8c.html#a3406e320683ba972c0573809afabc6b3" target="_top" xlink:title="Initialises rate selection self&#45;adaptive mutation. ">
<polygon fill="none" stroke="#000000" points="579,-.5 579,-19.5 698,-19.5 698,-.5 579,-.5"/>
<text text-anchor="middle" x="638.5" y="-7.5" font-family="Helvetica,sans-Serif" font-size="10.00" fill="#000000">sam_rate_selection_init</text>
</a>
</g>
</g>
<!-- Node310&#45;&gt;Node317 -->
<g id="edge35" class="edge">
<title>Node310&#45;&gt;Node317</title>
<path fill="none" stroke="#191970" d="M536.2289,-40.1264C553.5272,-35.0308 576.4218,-28.2866 596.163,-22.4713"/>
<polygon fill="#191970" stroke="#191970" points="597.2532,-25.799 605.8567,-19.6159 595.2752,-19.0843 597.2532,-25.799"/>
</g>
<!-- Node312 -->
<g id="node31" class="node">
<title>Node312</title>
<g id="a_node31"><a xlink:href="utils_8c.html#ae42a9e1d467853befaa7922cfafed3bb" target="_top" xlink:title="Returns a uniform random float [min,max]. ">
<polygon fill="none" stroke="#000000" points="876,-38.5 876,-57.5 949,-57.5 949,-38.5 876,-38.5"/>
<text text-anchor="middle" x="912.5" y="-45.5" font-family="Helvetica,sans-Serif" font-size="10.00" fill="#000000">rand_uniform</text>
</a>
</g>
</g>
<!-- Node311&#45;&gt;Node312 -->
<g id="edge30" class="edge">
<title>Node311&#45;&gt;Node312</title>
<path fill="none" stroke="#191970" d="M840.2233,-48C848.6785,-48 857.37,-48 865.6643,-48"/>
<polygon fill="#191970" stroke="#191970" points="865.9104,-51.5001 875.9103,-48 865.9103,-44.5001 865.9104,-51.5001"/>
</g>
<!-- Node313 -->
<g id="node32" class="node">
<title>Node313</title>
<g id="a_node32"><a xlink:href="utils_8c.html#a0c0a81e7797a05c535bad34449d8642c" target="_top" xlink:title="Returns a uniform random float [0,1]. ">
<polygon fill="none" stroke="#000000" points="985,-38.5 985,-57.5 1026,-57.5 1026,-38.5 985,-38.5"/>
<text text-anchor="middle" x="1005.5" y="-45.5" font-family="Helvetica,sans-Serif" font-size="10.00" fill="#000000">drand</text>
</a>
</g>
</g>
<!-- Node312&#45;&gt;Node313 -->
<g id="edge31" class="edge">
<title>Node312&#45;&gt;Node313</title>
<path fill="none" stroke="#191970" d="M949.2561,-48C957.658,-48 966.5043,-48 974.63,-48"/>
<polygon fill="#191970" stroke="#191970" points="974.799,-51.5001 984.7989,-48 974.7989,-44.5001 974.799,-51.5001"/>
</g>
<!-- Node314 -->
<g id="node33" class="node">
<title>Node314</title>
<g id="a_node33"><a xlink:href="mt19937-64_8c.html#aa0b74daf51eca91df224d00f1730084a" target="_top" xlink:title="genrand64_real1">
<polygon fill="none" stroke="#000000" points="1062,-38.5 1062,-57.5 1150,-57.5 1150,-38.5 1062,-38.5"/>
<text text-anchor="middle" x="1106" y="-45.5" font-family="Helvetica,sans-Serif" font-size="10.00" fill="#000000">genrand64_real1</text>
</a>
</g>
</g>
<!-- Node313&#45;&gt;Node314 -->
<g id="edge32" class="edge">
<title>Node313&#45;&gt;Node314</title>
<path fill="none" stroke="#191970" d="M1026.3237,-48C1033.8428,-48 1042.7193,-48 1051.769,-48"/>
<polygon fill="#191970" stroke="#191970" points="1051.9969,-51.5001 1061.9969,-48 1051.9969,-44.5001 1051.9969,-51.5001"/>
</g>
<!-- Node315 -->
<g id="node34" class="node">
<title>Node315</title>
<g id="a_node34"><a xlink:href="mt19937-64_8c.html#a265bf48d20d6e0347371fcf4fe340e6d" target="_top" xlink:title="genrand64_int64">
<polygon fill="none" stroke="#000000" points="1186,-38.5 1186,-57.5 1274,-57.5 1274,-38.5 1186,-38.5"/>
<text text-anchor="middle" x="1230" y="-45.5" font-family="Helvetica,sans-Serif" font-size="10.00" fill="#000000">genrand64_int64</text>
</a>
</g>
</g>
<!-- Node314&#45;&gt;Node315 -->
<g id="edge33" class="edge">
<title>Node314&#45;&gt;Node315</title>
<path fill="none" stroke="#191970" d="M1150.0669,-48C1158.2822,-48 1166.957,-48 1175.4432,-48"/>
<polygon fill="#191970" stroke="#191970" points="1175.6572,-51.5001 1185.6572,-48 1175.6572,-44.5001 1175.6572,-51.5001"/>
</g>
<!-- Node316 -->
<g id="node35" class="node">
<title>Node316</title>
<g id="a_node35"><a xlink:href="mt19937-64_8c.html#adf4127d44c2dc34fcb318d406131ef7c" target="_top" xlink:title="init_genrand64">
<polygon fill="none" stroke="#000000" points="1310,-38.5 1310,-57.5 1390,-57.5 1390,-38.5 1310,-38.5"/>
<text text-anchor="middle" x="1350" y="-45.5" font-family="Helvetica,sans-Serif" font-size="10.00" fill="#000000">init_genrand64</text>
</a>
</g>
</g>
<!-- Node315&#45;&gt;Node316 -->
<g id="edge34" class="edge">
<title>Node315&#45;&gt;Node316</title>
<path fill="none" stroke="#191970" d="M1274.0022,-48C1282.3719,-48 1291.1896,-48 1299.7365,-48"/>
<polygon fill="#191970" stroke="#191970" points="1299.9792,-51.5001 1309.9792,-48 1299.9792,-44.5001 1299.9792,-51.5001"/>
</g>
<!-- Node318 -->
<g id="node37" class="node">
<title>Node318</title>
<g id="a_node37"><a xlink:href="utils_8c.html#a32648ab076544a9ac1c086d0f07b599f" target="_top" xlink:title="Returns a uniform random integer [min,max] not inclusive of max. ">
<polygon fill="none" stroke="#000000" points="749.5,-.5 749.5,-19.5 824.5,-19.5 824.5,-.5 749.5,-.5"/>
<text text-anchor="middle" x="787" y="-7.5" font-family="Helvetica,sans-Serif" font-size="10.00" fill="#000000">irand_uniform</text>
</a>
</g>
</g>
<!-- Node317&#45;&gt;Node318 -->
<g id="edge36" class="edge">
<title>Node317&#45;&gt;Node318</title>
<path fill="none" stroke="#191970" d="M698.045,-10C711.6704,-10 725.9841,-10 739.05,-10"/>
<polygon fill="#191970" stroke="#191970" points="739.2241,-13.5001 749.2241,-10 739.2241,-6.5001 739.2241,-13.5001"/>
</g>
<!-- Node318&#45;&gt;Node312 -->
<g id="edge37" class="edge">
<title>Node318&#45;&gt;Node312</title>
<path fill="none" stroke="#191970" d="M818.6689,-19.589C834.5725,-24.4044 854.0396,-30.2988 871.1114,-35.468"/>
<polygon fill="#191970" stroke="#191970" points="870.256,-38.8658 880.8412,-38.4141 872.2846,-32.1662 870.256,-38.8658"/>
</g>
<!-- Node320 -->
<g id="node39" class="node">
<title>Node320</title>
<g id="a_node39"><a xlink:href="cl__set_8c.html#a7ff6217fb822a2eca84c9ac23e8b5cb5" target="_top" xlink:title="Deletes a single classifier from the population set. ">
<polygon fill="none" stroke="#000000" points="484.5,-380.5 484.5,-399.5 534.5,-399.5 534.5,-380.5 484.5,-380.5"/>
<text text-anchor="middle" x="509.5" y="-387.5" font-family="Helvetica,sans-Serif" font-size="10.00" fill="#000000">pop_del</text>
</a>
</g>
</g>
<!-- Node319&#45;&gt;Node320 -->
<g id="edge39" class="edge">
<title>Node319&#45;&gt;Node320</title>
<path fill="none" stroke="#191970" d="M436.2387,-390C448.7341,-390 462.0373,-390 473.8306,-390"/>
<polygon fill="#191970" stroke="#191970" points="474.1703,-393.5001 484.1702,-390 474.1702,-386.5001 474.1703,-393.5001"/>
</g>
<!-- Node320&#45;&gt;Node297 -->
<g id="edge46" class="edge">
<title>Node320&#45;&gt;Node297</title>
<path fill="none" stroke="#191970" d="M513.9497,-399.6445C523.2648,-418.7814 546.6638,-461.7121 579,-485 586.1467,-490.1469 594.7476,-493.9404 603.1606,-496.7212"/>
<polygon fill="#191970" stroke="#191970" points="602.2725,-500.1079 612.8521,-499.5409 604.228,-493.3866 602.2725,-500.1079"/>
</g>
<!-- Node320&#45;&gt;Node312 -->
<g id="edge45" class="edge">
<title>Node320&#45;&gt;Node312</title>
<path fill="none" stroke="#191970" d="M528.5573,-380.483C533.4504,-377.6978 538.5774,-374.462 543,-371 561.3191,-356.6596 559.2984,-345.3726 579,-333 626.0173,-303.473 651.6327,-325.5376 698,-295 794.775,-231.2638 873.5414,-112.2293 901.5338,-66.5255"/>
<polygon fill="#191970" stroke="#191970" points="904.6899,-68.0699 906.8626,-57.7002 898.6975,-64.4516 904.6899,-68.0699"/>
</g>
<!-- Node321 -->
<g id="node40" class="node">
<title>Node321</title>
<g id="a_node40"><a xlink:href="cl_8c.html#ab34a0468e7a08b58586daccab5f49651" target="_top" xlink:title="Returns the size of the classifier condition. ">
<polygon fill="none" stroke="#000000" points="601.5,-456.5 601.5,-475.5 675.5,-475.5 675.5,-456.5 601.5,-456.5"/>
<text text-anchor="middle" x="638.5" y="-463.5" font-family="Helvetica,sans-Serif" font-size="10.00" fill="#000000">cl_cond_size</text>
</a>
</g>
</g>
<!-- Node320&#45;&gt;Node321 -->
<g id="edge40" class="edge">
<title>Node320&#45;&gt;Node321</title>
<path fill="none" stroke="#191970" d="M518.9815,-399.806C531.6108,-412.3585 555.1453,-434.03 579,-447 583.0206,-449.186 587.3325,-451.1676 591.7306,-452.9528"/>
<polygon fill="#191970" stroke="#191970" points="590.8236,-456.3495 601.4165,-456.5504 593.2609,-449.7875 590.8236,-456.3495"/>
</g>
<!-- Node323 -->
<g id="node42" class="node">
<title>Node323</title>
<g id="a_node42"><a xlink:href="cl_8c.html#af708b9effceaf930cbe524f7aaffd2f9" target="_top" xlink:title="Returns the deletion vote of the classifier. ">
<polygon fill="none" stroke="#000000" points="605.5,-418.5 605.5,-437.5 671.5,-437.5 671.5,-418.5 605.5,-418.5"/>
<text text-anchor="middle" x="638.5" y="-425.5" font-family="Helvetica,sans-Serif" font-size="10.00" fill="#000000">cl_del_vote</text>
</a>
</g>
</g>
<!-- Node320&#45;&gt;Node323 -->
<g id="edge42" class="edge">
<title>Node320&#45;&gt;Node323</title>
<path fill="none" stroke="#191970" d="M534.6787,-397.417C552.196,-402.5771 575.9706,-409.5805 596.3489,-415.5834"/>
<polygon fill="#191970" stroke="#191970" points="595.4562,-418.9691 606.0376,-418.4374 597.4342,-412.2543 595.4562,-418.9691"/>
</g>
<!-- Node324 -->
<g id="node43" class="node">
<title>Node324</title>
<g id="a_node43"><a xlink:href="cl_8c.html#aaa9b5b7ca68222f98cc38c80b643edbe" target="_top" xlink:title="Returns the size of the classifier prediction. ">
<polygon fill="none" stroke="#000000" points="603,-380.5 603,-399.5 674,-399.5 674,-380.5 603,-380.5"/>
<text text-anchor="middle" x="638.5" y="-387.5" font-family="Helvetica,sans-Serif" font-size="10.00" fill="#000000">cl_pred_size</text>
</a>
</g>
</g>
<!-- Node320&#45;&gt;Node324 -->
<g id="edge43" class="edge">
<title>Node320&#45;&gt;Node324</title>
<path fill="none" stroke="#191970" d="M534.6787,-390C551.087,-390 572.9853,-390 592.4401,-390"/>
<polygon fill="#191970" stroke="#191970" points="592.6467,-393.5001 602.6466,-390 592.6466,-386.5001 592.6467,-393.5001"/>
</g>
<!-- Node326 -->
<g id="node45" class="node">
<title>Node326</title>
<g id="a_node45"><a xlink:href="cl__set_8c.html#ac2ecc83b8ceaada1cc75c14e76021d83" target="_top" xlink:title="Calculates the total fitness of classifiers in the set. ">
<polygon fill="none" stroke="#000000" points="604.5,-342.5 604.5,-361.5 672.5,-361.5 672.5,-342.5 604.5,-342.5"/>
<text text-anchor="middle" x="638.5" y="-349.5" font-family="Helvetica,sans-Serif" font-size="10.00" fill="#000000">set_total_fit</text>
</a>
</g>
</g>
<!-- Node320&#45;&gt;Node326 -->
<g id="edge47" class="edge">
<title>Node320&#45;&gt;Node326</title>
<path fill="none" stroke="#191970" d="M534.6787,-382.583C552.196,-377.4229 575.9706,-370.4195 596.3489,-364.4166"/>
<polygon fill="#191970" stroke="#191970" points="597.4342,-367.7457 606.0376,-361.5626 595.4562,-361.0309 597.4342,-367.7457"/>
</g>
<!-- Node322 -->
<g id="node41" class="node">
<title>Node322</title>
<g id="a_node41"><a xlink:href="condition_8h.html#a1433f279ed8c1fff6eb5c4517d216315" target="_top" xlink:title="cond_size">
<polygon fill="none" stroke="#000000" points="756.5,-456.5 756.5,-475.5 817.5,-475.5 817.5,-456.5 756.5,-456.5"/>
<text text-anchor="middle" x="787" y="-463.5" font-family="Helvetica,sans-Serif" font-size="10.00" fill="#000000">cond_size</text>
</a>
</g>
</g>
<!-- Node321&#45;&gt;Node322 -->
<g id="edge41" class="edge">
<title>Node321&#45;&gt;Node322</title>
<path fill="none" stroke="#191970" d="M675.5898,-466C697.0968,-466 724.2084,-466 746.3015,-466"/>
<polygon fill="#191970" stroke="#191970" points="746.3785,-469.5001 756.3784,-466 746.3784,-462.5001 746.3785,-469.5001"/>
</g>
<!-- Node325 -->
<g id="node44" class="node">
<title>Node325</title>
<g id="a_node44"><a xlink:href="prediction_8h.html#a5a7d522104f8457884c00e432dbe0a35" target="_top" xlink:title="pred_size">
<polygon fill="none" stroke="#000000" points="757.5,-380.5 757.5,-399.5 816.5,-399.5 816.5,-380.5 757.5,-380.5"/>
<text text-anchor="middle" x="787" y="-387.5" font-family="Helvetica,sans-Serif" font-size="10.00" fill="#000000">pred_size</text>
</a>
</g>
</g>
<!-- Node324&#45;&gt;Node325 -->
<g id="edge44" class="edge">
<title>Node324&#45;&gt;Node325</title>
<path fill="none" stroke="#191970" d="M674.0694,-390C696.0946,-390 724.42,-390 747.1925,-390"/>
<polygon fill="#191970" stroke="#191970" points="747.2222,-393.5001 757.2222,-390 747.2222,-386.5001 747.2222,-393.5001"/>
</g>
<!-- Node330 -->
<g id="node49" class="node">
<title>Node330</title>
<g id="a_node49"><a xlink:href="cl_8c.html#a6bdd560bed61d6de2ddaa85d5fe4c396" target="_top" xlink:title="Prints the classifier. ">
<polygon fill="none" stroke="#000000" points="249.5,-171.5 249.5,-190.5 297.5,-190.5 297.5,-171.5 249.5,-171.5"/>
<text text-anchor="middle" x="273.5" y="-178.5" font-family="Helvetica,sans-Serif" font-size="10.00" fill="#000000">cl_print</text>
</a>
</g>
</g>
<!-- Node329&#45;&gt;Node330 -->
<g id="edge52" class="edge">
<title>Node329&#45;&gt;Node330</title>
<path fill="none" stroke="#191970" d="M183.0365,-323.4917C198.8096,-298.6471 241.457,-231.4719 262.0569,-199.0243"/>
<polygon fill="#191970" stroke="#191970" points="265.0608,-200.823 267.4658,-190.5047 259.1511,-197.0711 265.0608,-200.823"/>
</g>
<!-- Node331 -->
<g id="node50" class="node">
<title>Node331</title>
<g id="a_node50"><a xlink:href="action_8h.html#ac6dff8a7b6f5e236c08df56588e188ca" target="_top" xlink:title="act_print">
<polygon fill="none" stroke="#000000" points="362.5,-114.5 362.5,-133.5 416.5,-133.5 416.5,-114.5 362.5,-114.5"/>
<text text-anchor="middle" x="389.5" y="-121.5" font-family="Helvetica,sans-Serif" font-size="10.00" fill="#000000">act_print</text>
</a>
</g>
</g>
<!-- Node330&#45;&gt;Node331 -->
<g id="edge53" class="edge">
<title>Node330&#45;&gt;Node331</title>
<path fill="none" stroke="#191970" d="M288.4653,-171.3585C301.4975,-163.1979 321.0629,-151.5054 339,-143 343.4225,-140.903 348.1433,-138.8705 352.8566,-136.9635"/>
<polygon fill="#191970" stroke="#191970" points="354.3701,-140.1304 362.4225,-133.2451 351.8339,-133.606 354.3701,-140.1304"/>
</g>
<!-- Node332 -->
<g id="node51" class="node">
<title>Node332</title>
<g id="a_node51"><a xlink:href="condition_8h.html#ac4469dfdf7e01d5e4f70ed70b7884386" target="_top" xlink:title="cond_print">
<polygon fill="none" stroke="#000000" points="358.5,-190.5 358.5,-209.5 420.5,-209.5 420.5,-190.5 358.5,-190.5"/>
<text text-anchor="middle" x="389.5" y="-197.5" font-family="Helvetica,sans-Serif" font-size="10.00" fill="#000000">cond_print</text>
</a>
</g>
</g>
<!-- Node330&#45;&gt;Node332 -->
<g id="edge54" class="edge">
<title>Node330&#45;&gt;Node332</title>
<path fill="none" stroke="#191970" d="M297.5353,-184.9368C312.1535,-187.3312 331.2161,-190.4535 348.193,-193.2342"/>
<polygon fill="#191970" stroke="#191970" points="348.0013,-196.7494 358.4356,-194.9119 349.1328,-189.8414 348.0013,-196.7494"/>
</g>
<!-- Node333 -->
<g id="node52" class="node">
<title>Node333</title>
<g id="a_node52"><a xlink:href="prediction_8h.html#a929a910050e8ea6825e88f85c38c839b" target="_top" xlink:title="pred_print">
<polygon fill="none" stroke="#000000" points="360,-152.5 360,-171.5 419,-171.5 419,-152.5 360,-152.5"/>
<text text-anchor="middle" x="389.5" y="-159.5" font-family="Helvetica,sans-Serif" font-size="10.00" fill="#000000">pred_print</text>
</a>
</g>
</g>
<!-- Node330&#45;&gt;Node333 -->
<g id="edge55" class="edge">
<title>Node330&#45;&gt;Node333</title>
<path fill="none" stroke="#191970" d="M297.5353,-177.0632C312.6242,-174.5917 332.4485,-171.3446 349.8264,-168.4983"/>
<polygon fill="#191970" stroke="#191970" points="350.4186,-171.948 359.7213,-166.8775 349.287,-165.04 350.4186,-171.948"/>
</g>
</g>
</svg>
