<?xml version="1.0" encoding="UTF-8" standalone="no"?>
<!DOCTYPE svg PUBLIC "-//W3C//DTD SVG 1.1//EN"
 "http://www.w3.org/Graphics/SVG/1.1/DTD/svg11.dtd">
<!-- Generated by graphviz version 2.40.1 (20161225.0304)
 -->
<!-- Title: xcsf_save Pages: 1 -->
<svg width="391pt" height="104pt"
 viewBox="0.00 0.00 391.00 104.00" xmlns="http://www.w3.org/2000/svg" xmlns:xlink="http://www.w3.org/1999/xlink">
<g id="graph0" class="graph" transform="scale(1 1) rotate(0) translate(4 100)">
<title>xcsf_save</title>
<!-- Node470 -->
<g id="node1" class="node">
<title>Node470</title>
<polygon fill="#bfbfbf" stroke="#000000" points="0,-19.5 0,-38.5 62,-38.5 62,-19.5 0,-19.5"/>
<text text-anchor="middle" x="31" y="-26.5" font-family="Helvetica,sans-Serif" font-size="10.00" fill="#000000">xcsf_save</text>
</g>
<!-- Node471 -->
<g id="node2" class="node">
<title>Node471</title>
<g id="a_node2"><a xlink:href="cl__set_8c.html#af3ee52849522864af509b10333baedab" target="_top" xlink:title="Writes the population set to a binary file. ">
<polygon fill="none" stroke="#000000" points="118,-38.5 118,-57.5 177,-57.5 177,-38.5 118,-38.5"/>
<text text-anchor="middle" x="147.5" y="-45.5" font-family="Helvetica,sans-Serif" font-size="10.00" fill="#000000">pop_save</text>
</a>
</g>
</g>
<!-- Node470&#45;&gt;Node471 -->
<g id="edge1" class="edge">
<title>Node470&#45;&gt;Node471</title>
<path fill="none" stroke="#191970" d="M62.2199,-34.0917C76.239,-36.378 92.9422,-39.1022 107.8349,-41.531"/>
<polygon fill="#191970" stroke="#191970" points="107.3677,-45.001 117.8007,-43.1563 108.4945,-38.0923 107.3677,-45.001"/>
</g>
<!-- Node476 -->
<g id="node7" class="node">
<title>Node476</title>
<g id="a_node7"><a xlink:href="xcsf_8c.html#ad4298490f66bf8bcd25bf9e66ea338bc" target="_top" xlink:title="Writes the XCSF data structure to a binary file. ">
<polygon fill="none" stroke="#000000" points="98,-.5 98,-19.5 197,-19.5 197,-.5 98,-.5"/>
<text text-anchor="middle" x="147.5" y="-7.5" font-family="Helvetica,sans-Serif" font-size="10.00" fill="#000000">xcsf_save_params</text>
</a>
</g>
</g>
<!-- Node470&#45;&gt;Node476 -->
<g id="edge6" class="edge">
<title>Node470&#45;&gt;Node476</title>
<path fill="none" stroke="#191970" d="M62.2199,-23.9083C70.153,-22.6145 78.9457,-21.1805 87.7833,-19.7392"/>
<polygon fill="#191970" stroke="#191970" points="88.4309,-23.1799 97.7371,-18.1158 87.3041,-16.2712 88.4309,-23.1799"/>
</g>
<!-- Node472 -->
<g id="node3" class="node">
<title>Node472</title>
<g id="a_node3"><a xlink:href="cl_8c.html#aebf8610a957e9f013bcfb0cea24597f3" target="_top" xlink:title="Writes the classifier to a binary file. ">
<polygon fill="none" stroke="#000000" points="233,-38.5 233,-57.5 283,-57.5 283,-38.5 233,-38.5"/>
<text text-anchor="middle" x="258" y="-45.5" font-family="Helvetica,sans-Serif" font-size="10.00" fill="#000000">cl_save</text>
</a>
</g>
</g>
<!-- Node471&#45;&gt;Node472 -->
<g id="edge2" class="edge">
<title>Node471&#45;&gt;Node472</title>
<path fill="none" stroke="#191970" d="M177.112,-48C191.1043,-48 207.9156,-48 222.5786,-48"/>
<polygon fill="#191970" stroke="#191970" points="222.8049,-51.5001 232.8049,-48 222.8048,-44.5001 222.8049,-51.5001"/>
</g>
<!-- Node473 -->
<g id="node4" class="node">
<title>Node473</title>
<g id="a_node4"><a xlink:href="action_8h.html#ab3e22194b9ced126cdfea043dcc5f7d3" target="_top" xlink:title="act_save">
<polygon fill="none" stroke="#000000" points="323,-76.5 323,-95.5 379,-95.5 379,-76.5 323,-76.5"/>
<text text-anchor="middle" x="351" y="-83.5" font-family="Helvetica,sans-Serif" font-size="10.00" fill="#000000">act_save</text>
</a>
</g>
</g>
<!-- Node472&#45;&gt;Node473 -->
<g id="edge3" class="edge">
<title>Node472&#45;&gt;Node473</title>
<path fill="none" stroke="#191970" d="M281.4678,-57.589C292.5921,-62.1344 306.0692,-67.6412 318.1854,-72.5919"/>
<polygon fill="#191970" stroke="#191970" points="316.9587,-75.8715 327.5397,-76.4141 319.6065,-69.3916 316.9587,-75.8715"/>
</g>
<!-- Node474 -->
<g id="node5" class="node">
<title>Node474</title>
<g id="a_node5"><a xlink:href="condition_8h.html#aa25820b88e9d66d28356e25062afb11b" target="_top" xlink:title="cond_save">
<polygon fill="none" stroke="#000000" points="319,-38.5 319,-57.5 383,-57.5 383,-38.5 319,-38.5"/>
<text text-anchor="middle" x="351" y="-45.5" font-family="Helvetica,sans-Serif" font-size="10.00" fill="#000000">cond_save</text>
</a>
</g>
</g>
<!-- Node472&#45;&gt;Node474 -->
<g id="edge4" class="edge">
<title>Node472&#45;&gt;Node474</title>
<path fill="none" stroke="#191970" d="M283.4127,-48C291.2982,-48 300.2102,-48 308.9141,-48"/>
<polygon fill="#191970" stroke="#191970" points="308.9622,-51.5001 318.9621,-48 308.9621,-44.5001 308.9622,-51.5001"/>
</g>
<!-- Node475 -->
<g id="node6" class="node">
<title>Node475</title>
<g id="a_node6"><a xlink:href="prediction_8h.html#a0c5122fad3ac8f4b09ff89512d5ef27d" target="_top" xlink:title="pred_save">
<polygon fill="none" stroke="#000000" points="320,-.5 320,-19.5 382,-19.5 382,-.5 320,-.5"/>
<text text-anchor="middle" x="351" y="-7.5" font-family="Helvetica,sans-Serif" font-size="10.00" fill="#000000">pred_save</text>
</a>
</g>
</g>
<!-- Node472&#45;&gt;Node475 -->
<g id="edge5" class="edge">
<title>Node472&#45;&gt;Node475</title>
<path fill="none" stroke="#191970" d="M281.4678,-38.411C292.5921,-33.8656 306.0692,-28.3588 318.1854,-23.4081"/>
<polygon fill="#191970" stroke="#191970" points="319.6065,-26.6084 327.5397,-19.5859 316.9587,-20.1285 319.6065,-26.6084"/>
</g>
</g>
</svg>
