<?xml version="1.0" encoding="UTF-8" standalone="no"?>
<!DOCTYPE svg PUBLIC "-//W3C//DTD SVG 1.1//EN"
 "http://www.w3.org/Graphics/SVG/1.1/DTD/svg11.dtd">
<!-- Generated by graphviz version 2.40.1 (20161225.0304)
 -->
<!-- Title: xcsf.h Pages: 1 -->
<svg width="3710pt" height="84pt"
 viewBox="0.00 0.00 3709.50 84.00" xmlns="http://www.w3.org/2000/svg" xmlns:xlink="http://www.w3.org/1999/xlink">
<g id="graph0" class="graph" transform="scale(1 1) rotate(0) translate(4 80)">
<title>xcsf.h</title>
<!-- Node1 -->
<g id="node1" class="node">
<title>Node1</title>
<polygon fill="#bfbfbf" stroke="#000000" points="1639.5,-56.5 1639.5,-75.5 1683.5,-75.5 1683.5,-56.5 1639.5,-56.5"/>
<text text-anchor="middle" x="1661.5" y="-63.5" font-family="Helvetica,sans-Serif" font-size="10.00" fill="#000000">xcsf.h</text>
</g>
<!-- Node2 -->
<g id="node2" class="node">
<title>Node2</title>
<g id="a_node2"><a xlink:href="act__integer_8c.html" target="_top" xlink:title="integer action functions. ">
<polygon fill="none" stroke="#000000" points="0,-.5 0,-19.5 73,-19.5 73,-.5 0,-.5"/>
<text text-anchor="middle" x="36.5" y="-7.5" font-family="Helvetica,sans-Serif" font-size="10.00" fill="#000000">act_integer.c</text>
</a>
</g>
</g>
<!-- Node1&#45;&gt;Node2 -->
<g id="edge1" class="edge">
<title>Node1&#45;&gt;Node2</title>
<path fill="none" stroke="#191970" d="M1629.2011,-65.894C1432.7691,-65.1233 396.5395,-59.2303 81.5,-20 78.7998,-19.6638 76.0231,-19.2404 73.2378,-18.7591"/>
<polygon fill="#191970" stroke="#191970" points="1629.4179,-69.3947 1639.431,-65.9324 1629.4443,-62.3948 1629.4179,-69.3947"/>
</g>
<!-- Node3 -->
<g id="node3" class="node">
<title>Node3</title>
<g id="a_node3"><a xlink:href="action_8c.html" target="_top" xlink:title="Interface for classifier actions. ">
<polygon fill="none" stroke="#000000" points="91,-.5 91,-19.5 142,-19.5 142,-.5 91,-.5"/>
<text text-anchor="middle" x="116.5" y="-7.5" font-family="Helvetica,sans-Serif" font-size="10.00" fill="#000000">action.c</text>
</a>
</g>
</g>
<!-- Node1&#45;&gt;Node3 -->
<g id="edge2" class="edge">
<title>Node1&#45;&gt;Node3</title>
<path fill="none" stroke="#191970" d="M1629.3803,-65.4994C1424.3208,-62.2404 302.1117,-43.4375 151.5,-20 148.5027,-19.5336 145.3989,-18.8905 142.334,-18.1534"/>
<polygon fill="#191970" stroke="#191970" points="1629.4417,-69.0007 1639.4958,-65.6594 1629.5524,-62.0016 1629.4417,-69.0007"/>
</g>
<!-- Node4 -->
<g id="node4" class="node">
<title>Node4</title>
<g id="a_node4"><a xlink:href="cl_8c.html" target="_top" xlink:title="Functions operating on classifiers. ">
<polygon fill="none" stroke="#000000" points="160.5,-.5 160.5,-19.5 192.5,-19.5 192.5,-.5 160.5,-.5"/>
<text text-anchor="middle" x="176.5" y="-7.5" font-family="Helvetica,sans-Serif" font-size="10.00" fill="#000000">cl.c</text>
</a>
</g>
</g>
<!-- Node1&#45;&gt;Node4 -->
<g id="edge3" class="edge">
<title>Node1&#45;&gt;Node4</title>
<path fill="none" stroke="#191970" d="M1629.1587,-65.6557C1427.408,-63.4184 345.4656,-50.0839 201.5,-20 198.5715,-19.388 195.5447,-18.4571 192.6519,-17.4048"/>
<polygon fill="#191970" stroke="#191970" points="1629.3516,-69.1579 1639.3895,-65.7679 1629.4285,-62.1583 1629.3516,-69.1579"/>
</g>
<!-- Node5 -->
<g id="node5" class="node">
<title>Node5</title>
<g id="a_node5"><a xlink:href="clset_8c.html" target="_top" xlink:title="Functions operating on sets of classifiers. ">
<polygon fill="none" stroke="#000000" points="210.5,-.5 210.5,-19.5 256.5,-19.5 256.5,-.5 210.5,-.5"/>
<text text-anchor="middle" x="233.5" y="-7.5" font-family="Helvetica,sans-Serif" font-size="10.00" fill="#000000">clset.c</text>
</a>
</g>
</g>
<!-- Node1&#45;&gt;Node5 -->
<g id="edge4" class="edge">
<title>Node1&#45;&gt;Node5</title>
<path fill="none" stroke="#191970" d="M1629.075,-65.4557C1432.4624,-62.086 403.7945,-43.4421 265.5,-20 262.6307,-19.5136 259.6615,-18.8358 256.7409,-18.0598"/>
<polygon fill="#191970" stroke="#191970" points="1629.2641,-68.9594 1639.3224,-65.6304 1629.3835,-61.9604 1629.2641,-68.9594"/>
</g>
<!-- Node6 -->
<g id="node6" class="node">
<title>Node6</title>
<g id="a_node6"><a xlink:href="cond__dgp_8c.html" target="_top" xlink:title="Dynamical GP graph condition functions. ">
<polygon fill="none" stroke="#000000" points="275,-.5 275,-19.5 342,-19.5 342,-.5 275,-.5"/>
<text text-anchor="middle" x="308.5" y="-7.5" font-family="Helvetica,sans-Serif" font-size="10.00" fill="#000000">cond_dgp.c</text>
</a>
</g>
</g>
<!-- Node1&#45;&gt;Node6 -->
<g id="edge5" class="edge">
<title>Node1&#45;&gt;Node6</title>
<path fill="none" stroke="#191970" d="M1629.3499,-65.7381C1453.731,-64.176 608.8659,-54.9372 350.5,-20 347.826,-19.6384 345.0734,-19.1808 342.3174,-18.6612"/>
<polygon fill="#191970" stroke="#191970" points="1629.459,-69.2391 1639.4891,-65.8263 1629.52,-62.2393 1629.459,-69.2391"/>
</g>
<!-- Node7 -->
<g id="node7" class="node">
<title>Node7</title>
<g id="a_node7"><a xlink:href="cond__dummy_8c.html" target="_top" xlink:title="Always&#45;matching dummy condition functions. ">
<polygon fill="none" stroke="#000000" points="360,-.5 360,-19.5 443,-19.5 443,-.5 360,-.5"/>
<text text-anchor="middle" x="401.5" y="-7.5" font-family="Helvetica,sans-Serif" font-size="10.00" fill="#000000">cond_dummy.c</text>
</a>
</g>
</g>
<!-- Node1&#45;&gt;Node7 -->
<g id="edge6" class="edge">
<title>Node1&#45;&gt;Node7</title>
<path fill="none" stroke="#191970" d="M1629.2603,-65.453C1461.8258,-62.5086 690.0887,-47.6426 452.5,-20 449.4528,-19.6455 446.3154,-19.2087 443.1656,-18.7178"/>
<polygon fill="#191970" stroke="#191970" points="1629.3434,-68.9549 1639.4029,-65.6297 1629.4654,-61.9559 1629.3434,-68.9549"/>
</g>
<!-- Node8 -->
<g id="node8" class="node">
<title>Node8</title>
<g id="a_node8"><a xlink:href="cond__ellipsoid_8c.html" target="_top" xlink:title="Hyperellipsoid condition functions. ">
<polygon fill="none" stroke="#000000" points="461.5,-.5 461.5,-19.5 547.5,-19.5 547.5,-.5 461.5,-.5"/>
<text text-anchor="middle" x="504.5" y="-7.5" font-family="Helvetica,sans-Serif" font-size="10.00" fill="#000000">cond_ellipsoid.c</text>
</a>
</g>
</g>
<!-- Node1&#45;&gt;Node8 -->
<g id="edge7" class="edge">
<title>Node1&#45;&gt;Node8</title>
<path fill="none" stroke="#191970" d="M1629.0467,-65.2998C1470.0526,-61.77 772.3006,-45.1013 556.5,-20 553.5779,-19.6601 550.5738,-19.2489 547.5539,-18.7896"/>
<polygon fill="#191970" stroke="#191970" points="1629.0659,-68.801 1639.1407,-65.5223 1629.2202,-61.8027 1629.0659,-68.801"/>
</g>
<!-- Node9 -->
<g id="node9" class="node">
<title>Node9</title>
<g id="a_node9"><a xlink:href="cond__gp_8c.html" target="_top" xlink:title="Tree GP condition functions. ">
<polygon fill="none" stroke="#000000" points="565.5,-.5 565.5,-19.5 627.5,-19.5 627.5,-.5 565.5,-.5"/>
<text text-anchor="middle" x="596.5" y="-7.5" font-family="Helvetica,sans-Serif" font-size="10.00" fill="#000000">cond_gp.c</text>
</a>
</g>
</g>
<!-- Node1&#45;&gt;Node9 -->
<g id="edge8" class="edge">
<title>Node1&#45;&gt;Node9</title>
<path fill="none" stroke="#191970" d="M1629.464,-65.4258C1478.2631,-62.5838 835.0976,-48.9826 636.5,-20 633.6667,-19.5865 630.7423,-19.0581 627.8244,-18.4608"/>
<polygon fill="#191970" stroke="#191970" points="1629.4241,-68.9256 1639.4874,-65.6119 1629.5541,-61.9268 1629.4241,-68.9256"/>
</g>
<!-- Node10 -->
<g id="node10" class="node">
<title>Node10</title>
<g id="a_node10"><a xlink:href="cond__neural_8c.html" target="_top" xlink:title="Multi&#45;layer perceptron neural network condition functions. ">
<polygon fill="none" stroke="#000000" points="646,-.5 646,-19.5 723,-19.5 723,-.5 646,-.5"/>
<text text-anchor="middle" x="684.5" y="-7.5" font-family="Helvetica,sans-Serif" font-size="10.00" fill="#000000">cond_neural.c</text>
</a>
</g>
</g>
<!-- Node1&#45;&gt;Node10 -->
<g id="edge9" class="edge">
<title>Node1&#45;&gt;Node10</title>
<path fill="none" stroke="#191970" d="M1628.8644,-65.0884C1485.4757,-60.9753 910.5801,-43.327 731.5,-20 728.7701,-19.6444 725.963,-19.2143 723.144,-18.7348"/>
<polygon fill="#191970" stroke="#191970" points="1629.0823,-68.596 1639.1779,-65.3822 1629.2816,-61.5988 1629.0823,-68.596"/>
</g>
<!-- Node11 -->
<g id="node11" class="node">
<title>Node11</title>
<g id="a_node11"><a xlink:href="cond__rectangle_8c.html" target="_top" xlink:title="Hyperrectangle condition functions. ">
<polygon fill="none" stroke="#000000" points="741,-.5 741,-19.5 832,-19.5 832,-.5 741,-.5"/>
<text text-anchor="middle" x="786.5" y="-7.5" font-family="Helvetica,sans-Serif" font-size="10.00" fill="#000000">cond_rectangle.c</text>
</a>
</g>
</g>
<!-- Node1&#45;&gt;Node11 -->
<g id="edge10" class="edge">
<title>Node1&#45;&gt;Node11</title>
<path fill="none" stroke="#191970" d="M1629.0292,-65.6617C1518.3347,-64.1932 1145.707,-56.6595 840.5,-20 837.7548,-19.6703 834.9385,-19.2869 832.1026,-18.8663"/>
<polygon fill="#191970" stroke="#191970" points="1629.161,-69.1635 1639.204,-65.789 1629.2486,-62.164 1629.161,-69.1635"/>
</g>
<!-- Node12 -->
<g id="node12" class="node">
<title>Node12</title>
<g id="a_node12"><a xlink:href="cond__ternary_8c.html" target="_top" xlink:title="Ternary condition functions. ">
<polygon fill="none" stroke="#000000" points="850,-.5 850,-19.5 931,-19.5 931,-.5 850,-.5"/>
<text text-anchor="middle" x="890.5" y="-7.5" font-family="Helvetica,sans-Serif" font-size="10.00" fill="#000000">cond_ternary.c</text>
</a>
</g>
</g>
<!-- Node1&#45;&gt;Node12 -->
<g id="edge11" class="edge">
<title>Node1&#45;&gt;Node12</title>
<path fill="none" stroke="#191970" d="M1629.0222,-65.4726C1527.1205,-63.488 1204.775,-54.6997 940.5,-20 937.428,-19.5966 934.2614,-19.1167 931.0835,-18.5885"/>
<polygon fill="#191970" stroke="#191970" points="1629.2063,-68.9766 1639.2698,-65.6634 1629.3367,-61.9778 1629.2063,-68.9766"/>
</g>
<!-- Node13 -->
<g id="node13" class="node">
<title>Node13</title>
<g id="a_node13"><a xlink:href="condition_8c.html" target="_top" xlink:title="Interface for classifier conditions. ">
<polygon fill="none" stroke="#000000" points="949.5,-.5 949.5,-19.5 1013.5,-19.5 1013.5,-.5 949.5,-.5"/>
<text text-anchor="middle" x="981.5" y="-7.5" font-family="Helvetica,sans-Serif" font-size="10.00" fill="#000000">condition.c</text>
</a>
</g>
</g>
<!-- Node1&#45;&gt;Node13 -->
<g id="edge12" class="edge">
<title>Node1&#45;&gt;Node13</title>
<path fill="none" stroke="#191970" d="M1629.2498,-65.581C1535.1761,-63.9514 1253.1529,-56.1697 1022.5,-20 1019.6047,-19.546 1016.6132,-18.9897 1013.6263,-18.3742"/>
<polygon fill="#191970" stroke="#191970" points="1629.2199,-69.0809 1639.2753,-65.7432 1629.3333,-62.0818 1629.2199,-69.0809"/>
</g>
<!-- Node14 -->
<g id="node14" class="node">
<title>Node14</title>
<g id="a_node14"><a xlink:href="config_8c.html" target="_top" xlink:title="Configuration file handling functions. ">
<polygon fill="none" stroke="#000000" points="1032,-.5 1032,-19.5 1083,-19.5 1083,-.5 1032,-.5"/>
<text text-anchor="middle" x="1057.5" y="-7.5" font-family="Helvetica,sans-Serif" font-size="10.00" fill="#000000">config.c</text>
</a>
</g>
</g>
<!-- Node1&#45;&gt;Node14 -->
<g id="edge13" class="edge">
<title>Node1&#45;&gt;Node14</title>
<path fill="none" stroke="#191970" d="M1629.1917,-64.269C1524.6074,-58.5281 1196.0336,-39.3774 1091.5,-20 1088.8381,-19.5066 1086.0869,-18.8873 1083.3556,-18.2001"/>
<polygon fill="#191970" stroke="#191970" points="1629.258,-67.7777 1639.4338,-64.8275 1629.6393,-60.7881 1629.258,-67.7777"/>
</g>
<!-- Node15 -->
<g id="node15" class="node">
<title>Node15</title>
<g id="a_node15"><a xlink:href="dgp_8c.html" target="_top" xlink:title="An implementation of dynamical GP graphs with fuzzy activation functions. ">
<polygon fill="none" stroke="#000000" points="1101,-.5 1101,-19.5 1142,-19.5 1142,-.5 1101,-.5"/>
<text text-anchor="middle" x="1121.5" y="-7.5" font-family="Helvetica,sans-Serif" font-size="10.00" fill="#000000">dgp.c</text>
</a>
</g>
</g>
<!-- Node1&#45;&gt;Node15 -->
<g id="edge14" class="edge">
<title>Node1&#45;&gt;Node15</title>
<path fill="none" stroke="#191970" d="M1629.3236,-64.1267C1532.1564,-58.3081 1242.7432,-39.7495 1150.5,-20 1147.792,-19.4202 1144.9876,-18.6634 1142.2377,-17.8253"/>
<polygon fill="#191970" stroke="#191970" points="1629.2302,-67.6272 1639.4202,-64.7267 1629.6455,-60.6395 1629.2302,-67.6272"/>
</g>
<!-- Node16 -->
<g id="node16" class="node">
<title>Node16</title>
<g id="a_node16"><a xlink:href="ea_8c.html" target="_top" xlink:title="Evolutionary algorithm functions. ">
<polygon fill="none" stroke="#000000" points="1160,-.5 1160,-19.5 1195,-19.5 1195,-.5 1160,-.5"/>
<text text-anchor="middle" x="1177.5" y="-7.5" font-family="Helvetica,sans-Serif" font-size="10.00" fill="#000000">ea.c</text>
</a>
</g>
</g>
<!-- Node1&#45;&gt;Node16 -->
<g id="edge15" class="edge">
<title>Node1&#45;&gt;Node16</title>
<path fill="none" stroke="#191970" d="M1629.0757,-63.8732C1538.606,-57.7598 1284.7427,-39.3344 1203.5,-20 1200.7712,-19.3506 1197.9443,-18.4821 1195.2038,-17.5272"/>
<polygon fill="#191970" stroke="#191970" points="1629.0643,-67.3802 1639.2761,-64.5569 1629.5326,-60.3959 1629.0643,-67.3802"/>
</g>
<!-- Node17 -->
<g id="node17" class="node">
<title>Node17</title>
<g id="a_node17"><a xlink:href="env_8c.html" target="_top" xlink:title="Built&#45;in problem environment interface. ">
<polygon fill="none" stroke="#000000" points="1213,-.5 1213,-19.5 1254,-19.5 1254,-.5 1213,-.5"/>
<text text-anchor="middle" x="1233.5" y="-7.5" font-family="Helvetica,sans-Serif" font-size="10.00" fill="#000000">env.c</text>
</a>
</g>
</g>
<!-- Node1&#45;&gt;Node17 -->
<g id="edge16" class="edge">
<title>Node1&#45;&gt;Node17</title>
<path fill="none" stroke="#191970" d="M1629.1016,-64.5253C1560.7861,-60.9215 1397.2472,-49.6851 1263.5,-20 1260.4986,-19.3338 1257.3748,-18.4806 1254.3257,-17.554"/>
<polygon fill="#191970" stroke="#191970" points="1629.0644,-68.0279 1639.2291,-65.0399 1629.4196,-61.0369 1629.0644,-68.0279"/>
</g>
<!-- Node18 -->
<g id="node18" class="node">
<title>Node18</title>
<g id="a_node18"><a xlink:href="env__csv_8c.html" target="_top" xlink:title="CSV input file handling functions. ">
<polygon fill="none" stroke="#000000" points="1272.5,-.5 1272.5,-19.5 1334.5,-19.5 1334.5,-.5 1272.5,-.5"/>
<text text-anchor="middle" x="1303.5" y="-7.5" font-family="Helvetica,sans-Serif" font-size="10.00" fill="#000000">env_csv.c</text>
</a>
</g>
</g>
<!-- Node1&#45;&gt;Node18 -->
<g id="edge17" class="edge">
<title>Node1&#45;&gt;Node18</title>
<path fill="none" stroke="#191970" d="M1629.4465,-62.453C1571.8864,-55.8417 1447.325,-40.4329 1343.5,-20 1340.6906,-19.4471 1337.7826,-18.8229 1334.8754,-18.163"/>
<polygon fill="#191970" stroke="#191970" points="1629.063,-65.9318 1639.3944,-63.5843 1629.854,-58.9767 1629.063,-65.9318"/>
</g>
<!-- Node19 -->
<g id="node19" class="node">
<title>Node19</title>
<g id="a_node19"><a xlink:href="env__maze_8c.html" target="_top" xlink:title="The discrete maze problem environment module. ">
<polygon fill="none" stroke="#000000" points="1352.5,-.5 1352.5,-19.5 1422.5,-19.5 1422.5,-.5 1352.5,-.5"/>
<text text-anchor="middle" x="1387.5" y="-7.5" font-family="Helvetica,sans-Serif" font-size="10.00" fill="#000000">env_maze.c</text>
</a>
</g>
</g>
<!-- Node1&#45;&gt;Node19 -->
<g id="edge18" class="edge">
<title>Node1&#45;&gt;Node19</title>
<path fill="none" stroke="#191970" d="M1629.3141,-59.8376C1584.7886,-51.25 1501.9167,-35.0409 1431.5,-20 1428.5889,-19.3782 1425.5725,-18.7206 1422.5463,-18.0517"/>
<polygon fill="#191970" stroke="#191970" points="1628.776,-63.2982 1639.2573,-61.7515 1630.0991,-56.4244 1628.776,-63.2982"/>
</g>
<!-- Node20 -->
<g id="node20" class="node">
<title>Node20</title>
<g id="a_node20"><a xlink:href="env__mux_8c.html" target="_top" xlink:title="The real multiplexer problem environment. ">
<polygon fill="none" stroke="#000000" points="1441,-.5 1441,-19.5 1506,-19.5 1506,-.5 1441,-.5"/>
<text text-anchor="middle" x="1473.5" y="-7.5" font-family="Helvetica,sans-Serif" font-size="10.00" fill="#000000">env_mux.c</text>
</a>
</g>
</g>
<!-- Node1&#45;&gt;Node20 -->
<g id="edge19" class="edge">
<title>Node1&#45;&gt;Node20</title>
<path fill="none" stroke="#191970" d="M1629.5851,-56.4934C1594.9979,-46.1909 1540.1248,-29.8457 1505.5031,-19.5328"/>
<polygon fill="#191970" stroke="#191970" points="1628.6126,-59.8557 1639.1957,-59.3562 1630.611,-53.147 1628.6126,-59.8557"/>
</g>
<!-- Node21 -->
<g id="node21" class="node">
<title>Node21</title>
<g id="a_node21"><a xlink:href="gp_8c.html" target="_top" xlink:title="An implementation of GP trees based upon TinyGP. ">
<polygon fill="none" stroke="#000000" points="1524,-.5 1524,-19.5 1559,-19.5 1559,-.5 1524,-.5"/>
<text text-anchor="middle" x="1541.5" y="-7.5" font-family="Helvetica,sans-Serif" font-size="10.00" fill="#000000">gp.c</text>
</a>
</g>
</g>
<!-- Node1&#45;&gt;Node21 -->
<g id="edge20" class="edge">
<title>Node1&#45;&gt;Node21</title>
<path fill="none" stroke="#191970" d="M1631.6329,-52.062C1608.8231,-41.4175 1578.1662,-27.1109 1559.1299,-18.2273"/>
<polygon fill="#191970" stroke="#191970" points="1630.3293,-55.316 1640.8713,-56.3733 1633.2895,-48.9727 1630.3293,-55.316"/>
</g>
<!-- Node22 -->
<g id="node22" class="node">
<title>Node22</title>
<g id="a_node22"><a xlink:href="loss_8c.html" target="_top" xlink:title="Loss functions for calculating prediction error. ">
<polygon fill="none" stroke="#000000" points="1577,-.5 1577,-19.5 1620,-19.5 1620,-.5 1577,-.5"/>
<text text-anchor="middle" x="1598.5" y="-7.5" font-family="Helvetica,sans-Serif" font-size="10.00" fill="#000000">loss.c</text>
</a>
</g>
</g>
<!-- Node1&#45;&gt;Node22 -->
<g id="edge21" class="edge">
<title>Node1&#45;&gt;Node22</title>
<path fill="none" stroke="#191970" d="M1642.7808,-49.3607C1631.8818,-39.6727 1618.5245,-27.7995 1609.348,-19.6427"/>
<polygon fill="#191970" stroke="#191970" points="1640.7268,-52.2178 1650.5262,-56.2455 1645.3774,-46.9859 1640.7268,-52.2178"/>
</g>
<!-- Node23 -->
<g id="node23" class="node">
<title>Node23</title>
<g id="a_node23"><a xlink:href="main_8c.html" target="_top" xlink:title="Main function for stand&#45;alone binary execution. ">
<polygon fill="none" stroke="#000000" points="1638.5,-.5 1638.5,-19.5 1684.5,-19.5 1684.5,-.5 1638.5,-.5"/>
<text text-anchor="middle" x="1661.5" y="-7.5" font-family="Helvetica,sans-Serif" font-size="10.00" fill="#000000">main.c</text>
</a>
</g>
</g>
<!-- Node1&#45;&gt;Node23 -->
<g id="edge22" class="edge">
<title>Node1&#45;&gt;Node23</title>
<path fill="none" stroke="#191970" d="M1661.5,-46.1575C1661.5,-37.155 1661.5,-26.9199 1661.5,-19.6427"/>
<polygon fill="#191970" stroke="#191970" points="1658.0001,-46.2455 1661.5,-56.2455 1665.0001,-46.2456 1658.0001,-46.2455"/>
</g>
<!-- Node24 -->
<g id="node24" class="node">
<title>Node24</title>
<g id="a_node24"><a xlink:href="neural_8c.html" target="_top" xlink:title="An implementation of a multi&#45;layer perceptron neural network. ">
<polygon fill="none" stroke="#000000" points="1703,-.5 1703,-19.5 1754,-19.5 1754,-.5 1703,-.5"/>
<text text-anchor="middle" x="1728.5" y="-7.5" font-family="Helvetica,sans-Serif" font-size="10.00" fill="#000000">neural.c</text>
</a>
</g>
</g>
<!-- Node1&#45;&gt;Node24 -->
<g id="edge23" class="edge">
<title>Node1&#45;&gt;Node24</title>
<path fill="none" stroke="#191970" d="M1681.0676,-49.645C1692.7198,-39.9058 1707.1084,-27.8795 1716.9632,-19.6427"/>
<polygon fill="#191970" stroke="#191970" points="1678.5988,-47.1469 1673.1705,-56.2455 1683.0879,-52.5179 1678.5988,-47.1469"/>
</g>
<!-- Node25 -->
<g id="node25" class="node">
<title>Node25</title>
<g id="a_node25"><a xlink:href="neural__layer_8c.html" target="_top" xlink:title="Interface for neural network layers. ">
<polygon fill="none" stroke="#000000" points="1772,-.5 1772,-19.5 1849,-19.5 1849,-.5 1772,-.5"/>
<text text-anchor="middle" x="1810.5" y="-7.5" font-family="Helvetica,sans-Serif" font-size="10.00" fill="#000000">neural_layer.c</text>
</a>
</g>
</g>
<!-- Node1&#45;&gt;Node25 -->
<g id="edge24" class="edge">
<title>Node1&#45;&gt;Node25</title>
<path fill="none" stroke="#191970" d="M1693.3226,-54.0398C1720.7031,-43.7492 1759.6885,-29.097 1785.0408,-19.5686"/>
<polygon fill="#191970" stroke="#191970" points="1691.9362,-50.8218 1683.8068,-57.6162 1694.3989,-57.3743 1691.9362,-50.8218"/>
</g>
<!-- Node26 -->
<g id="node26" class="node">
<title>Node26</title>
<g id="a_node26"><a xlink:href="neural__layer__connected_8c.html" target="_top" xlink:title="An implementation of a fully&#45;connected layer of perceptrons. ">
<polygon fill="none" stroke="#000000" points="1867.5,-.5 1867.5,-19.5 1995.5,-19.5 1995.5,-.5 1867.5,-.5"/>
<text text-anchor="middle" x="1931.5" y="-7.5" font-family="Helvetica,sans-Serif" font-size="10.00" fill="#000000">neural_layer_connected.c</text>
</a>
</g>
</g>
<!-- Node1&#45;&gt;Node26 -->
<g id="edge25" class="edge">
<title>Node1&#45;&gt;Node26</title>
<path fill="none" stroke="#191970" d="M1693.6533,-59.3312C1741.3022,-49.4484 1830.8957,-30.8661 1885.4855,-19.5438"/>
<polygon fill="#191970" stroke="#191970" points="1692.676,-55.9593 1683.5952,-61.4173 1694.0977,-62.8134 1692.676,-55.9593"/>
</g>
<!-- Node27 -->
<g id="node27" class="node">
<title>Node27</title>
<g id="a_node27"><a xlink:href="neural__layer__dropout_8c.html" target="_top" xlink:title="An implementation of a dropout layer. ">
<polygon fill="none" stroke="#000000" points="2014,-.5 2014,-19.5 2129,-19.5 2129,-.5 2014,-.5"/>
<text text-anchor="middle" x="2071.5" y="-7.5" font-family="Helvetica,sans-Serif" font-size="10.00" fill="#000000">neural_layer_dropout.c</text>
</a>
</g>
</g>
<!-- Node1&#45;&gt;Node27 -->
<g id="edge26" class="edge">
<title>Node1&#45;&gt;Node27</title>
<path fill="none" stroke="#191970" d="M1693.7032,-61.8433C1754.4916,-53.9609 1890.2993,-36.1793 2004.5,-20 2007.5276,-19.5711 2010.6313,-19.1261 2013.7644,-18.6728"/>
<polygon fill="#191970" stroke="#191970" points="1693.0536,-58.3981 1683.586,-63.1536 1693.9527,-65.3401 1693.0536,-58.3981"/>
</g>
<!-- Node28 -->
<g id="node28" class="node">
<title>Node28</title>
<g id="a_node28"><a xlink:href="neural__layer__noise_8c.html" target="_top" xlink:title="An implementation of a Gaussian noise adding layer. ">
<polygon fill="none" stroke="#000000" points="2147.5,-.5 2147.5,-19.5 2253.5,-19.5 2253.5,-.5 2147.5,-.5"/>
<text text-anchor="middle" x="2200.5" y="-7.5" font-family="Helvetica,sans-Serif" font-size="10.00" fill="#000000">neural_layer_noise.c</text>
</a>
</g>
</g>
<!-- Node1&#45;&gt;Node28 -->
<g id="edge27" class="edge">
<title>Node1&#45;&gt;Node28</title>
<path fill="none" stroke="#191970" d="M1693.9697,-63.5873C1771.1935,-57.6925 1971.8189,-41.4569 2138.5,-20 2141.4197,-19.6241 2144.4132,-19.2163 2147.4325,-18.7875"/>
<polygon fill="#191970" stroke="#191970" points="1693.6153,-60.104 1683.9085,-64.3499 1694.1445,-67.084 1693.6153,-60.104"/>
</g>
<!-- Node29 -->
<g id="node29" class="node">
<title>Node29</title>
<g id="a_node29"><a xlink:href="neural__layer__softmax_8c.html" target="_top" xlink:title="An implementation of a softmax layer. ">
<polygon fill="none" stroke="#000000" points="2271.5,-.5 2271.5,-19.5 2389.5,-19.5 2389.5,-.5 2271.5,-.5"/>
<text text-anchor="middle" x="2330.5" y="-7.5" font-family="Helvetica,sans-Serif" font-size="10.00" fill="#000000">neural_layer_softmax.c</text>
</a>
</g>
</g>
<!-- Node1&#45;&gt;Node29 -->
<g id="edge28" class="edge">
<title>Node1&#45;&gt;Node29</title>
<path fill="none" stroke="#191970" d="M1693.78,-64.3223C1783.9145,-59.4667 2045.8873,-44.1874 2262.5,-20 2265.3461,-19.6822 2268.2562,-19.3361 2271.1934,-18.9698"/>
<polygon fill="#191970" stroke="#191970" points="1693.4536,-60.8346 1683.6544,-64.8627 1693.8267,-67.8247 1693.4536,-60.8346"/>
</g>
<!-- Node30 -->
<g id="node30" class="node">
<title>Node30</title>
<g id="a_node30"><a xlink:href="pa_8c.html" target="_top" xlink:title="Prediction array functions. ">
<polygon fill="none" stroke="#000000" points="2408,-.5 2408,-19.5 2443,-19.5 2443,-.5 2408,-.5"/>
<text text-anchor="middle" x="2425.5" y="-7.5" font-family="Helvetica,sans-Serif" font-size="10.00" fill="#000000">pa.c</text>
</a>
</g>
</g>
<!-- Node1&#45;&gt;Node30 -->
<g id="edge29" class="edge">
<title>Node1&#45;&gt;Node30</title>
<path fill="none" stroke="#191970" d="M1693.9843,-65.2325C1817.9148,-62.1092 2260.9238,-49.1105 2398.5,-20 2401.532,-19.3584 2404.6791,-18.4411 2407.7077,-17.4191"/>
<polygon fill="#191970" stroke="#191970" points="1693.5625,-61.7417 1683.6523,-65.4884 1693.7359,-68.7396 1693.5625,-61.7417"/>
</g>
<!-- Node31 -->
<g id="node31" class="node">
<title>Node31</title>
<g id="a_node31"><a xlink:href="perf_8c.html" target="_top" xlink:title="System performance printing. ">
<polygon fill="none" stroke="#000000" points="2461,-.5 2461,-19.5 2502,-19.5 2502,-.5 2461,-.5"/>
<text text-anchor="middle" x="2481.5" y="-7.5" font-family="Helvetica,sans-Serif" font-size="10.00" fill="#000000">perf.c</text>
</a>
</g>
</g>
<!-- Node1&#45;&gt;Node31 -->
<g id="edge30" class="edge">
<title>Node1&#45;&gt;Node31</title>
<path fill="none" stroke="#191970" d="M1693.8141,-65.2995C1823.1301,-62.3141 2303.5206,-49.4364 2452.5,-20 2455.2168,-19.4632 2458.0265,-18.7319 2460.7791,-17.9072"/>
<polygon fill="#191970" stroke="#191970" points="1693.6734,-61.8017 1683.7555,-65.5279 1693.8324,-68.7999 1693.6734,-61.8017"/>
</g>
<!-- Node32 -->
<g id="node32" class="node">
<title>Node32</title>
<g id="a_node32"><a xlink:href="pred__constant_8c.html" target="_top" xlink:title="Piece&#45;wise constant prediction functions. ">
<polygon fill="none" stroke="#000000" points="2520.5,-.5 2520.5,-19.5 2606.5,-19.5 2606.5,-.5 2520.5,-.5"/>
<text text-anchor="middle" x="2563.5" y="-7.5" font-family="Helvetica,sans-Serif" font-size="10.00" fill="#000000">pred_constant.c</text>
</a>
</g>
</g>
<!-- Node1&#45;&gt;Node32 -->
<g id="edge31" class="edge">
<title>Node1&#45;&gt;Node32</title>
<path fill="none" stroke="#191970" d="M1693.9025,-64.8372C1829.0932,-59.8945 2348.6866,-39.9668 2511.5,-20 2514.4199,-19.6419 2517.4224,-19.2171 2520.4411,-18.7478"/>
<polygon fill="#191970" stroke="#191970" points="1693.6457,-61.3441 1683.7796,-65.2055 1693.9003,-68.3395 1693.6457,-61.3441"/>
</g>
<!-- Node33 -->
<g id="node33" class="node">
<title>Node33</title>
<g id="a_node33"><a xlink:href="pred__neural_8c.html" target="_top" xlink:title="Multi&#45;layer perceptron neural network prediction functions. ">
<polygon fill="none" stroke="#000000" points="2625,-.5 2625,-19.5 2700,-19.5 2700,-.5 2625,-.5"/>
<text text-anchor="middle" x="2662.5" y="-7.5" font-family="Helvetica,sans-Serif" font-size="10.00" fill="#000000">pred_neural.c</text>
</a>
</g>
</g>
<!-- Node1&#45;&gt;Node33 -->
<g id="edge32" class="edge">
<title>Node1&#45;&gt;Node33</title>
<path fill="none" stroke="#191970" d="M1693.5856,-65.15C1838.305,-61.2091 2431.2096,-43.8894 2615.5,-20 2618.5611,-19.6032 2621.7191,-19.1122 2624.8821,-18.5625"/>
<polygon fill="#191970" stroke="#191970" points="1693.478,-61.6515 1683.5763,-65.4206 1693.6672,-68.649 1693.478,-61.6515"/>
</g>
<!-- Node34 -->
<g id="node34" class="node">
<title>Node34</title>
<g id="a_node34"><a xlink:href="pred__nlms_8c.html" target="_top" xlink:title="Normalised least mean squares prediction functions. ">
<polygon fill="none" stroke="#000000" points="2718.5,-.5 2718.5,-19.5 2788.5,-19.5 2788.5,-.5 2718.5,-.5"/>
<text text-anchor="middle" x="2753.5" y="-7.5" font-family="Helvetica,sans-Serif" font-size="10.00" fill="#000000">pred_nlms.c</text>
</a>
</g>
</g>
<!-- Node1&#45;&gt;Node34 -->
<g id="edge33" class="edge">
<title>Node1&#45;&gt;Node34</title>
<path fill="none" stroke="#191970" d="M1693.741,-65.3657C1847.3491,-62.2242 2505.9143,-47.3767 2709.5,-20 2712.295,-19.6242 2715.174,-19.1563 2718.0581,-18.6296"/>
<polygon fill="#191970" stroke="#191970" points="1693.4941,-61.8699 1683.567,-65.5717 1693.6359,-68.8684 1693.4941,-61.8699"/>
</g>
<!-- Node35 -->
<g id="node35" class="node">
<title>Node35</title>
<g id="a_node35"><a xlink:href="pred__rls_8c.html" target="_top" xlink:title="Recursive least mean squares prediction functions. ">
<polygon fill="none" stroke="#000000" points="2807,-.5 2807,-19.5 2866,-19.5 2866,-.5 2807,-.5"/>
<text text-anchor="middle" x="2836.5" y="-7.5" font-family="Helvetica,sans-Serif" font-size="10.00" fill="#000000">pred_rls.c</text>
</a>
</g>
</g>
<!-- Node1&#45;&gt;Node35 -->
<g id="edge34" class="edge">
<title>Node1&#45;&gt;Node35</title>
<path fill="none" stroke="#191970" d="M1693.8469,-65.6095C1855.4192,-63.519 2576.0502,-52.5038 2797.5,-20 2800.5429,-19.5534 2803.692,-18.9649 2806.8207,-18.2964"/>
<polygon fill="#191970" stroke="#191970" points="1693.5626,-62.1128 1683.6079,-65.7396 1693.6516,-69.1122 1693.5626,-62.1128"/>
</g>
<!-- Node36 -->
<g id="node36" class="node">
<title>Node36</title>
<g id="a_node36"><a xlink:href="prediction_8c.html" target="_top" xlink:title="Interface for classifier predictions. ">
<polygon fill="none" stroke="#000000" points="2884,-.5 2884,-19.5 2951,-19.5 2951,-.5 2884,-.5"/>
<text text-anchor="middle" x="2917.5" y="-7.5" font-family="Helvetica,sans-Serif" font-size="10.00" fill="#000000">prediction.c</text>
</a>
</g>
</g>
<!-- Node1&#45;&gt;Node36 -->
<g id="edge35" class="edge">
<title>Node1&#45;&gt;Node36</title>
<path fill="none" stroke="#191970" d="M1693.8951,-65.6311C1862.1332,-63.5846 2637.5324,-52.5181 2875.5,-20 2878.1735,-19.6347 2880.9257,-19.1743 2883.6815,-18.6529"/>
<polygon fill="#191970" stroke="#191970" points="1693.6612,-62.1335 1683.7038,-65.753 1693.7449,-69.133 1693.6612,-62.1335"/>
</g>
<!-- Node37 -->
<g id="node37" class="node">
<title>Node37</title>
<g id="a_node37"><a xlink:href="pybind__wrapper_8cpp.html" target="_top" xlink:title="Python library wrapper functions. ">
<polygon fill="none" stroke="#000000" points="2969.5,-.5 2969.5,-19.5 3073.5,-19.5 3073.5,-.5 2969.5,-.5"/>
<text text-anchor="middle" x="3021.5" y="-7.5" font-family="Helvetica,sans-Serif" font-size="10.00" fill="#000000">pybind_wrapper.cpp</text>
</a>
</g>
</g>
<!-- Node1&#45;&gt;Node37 -->
<g id="edge36" class="edge">
<title>Node1&#45;&gt;Node37</title>
<path fill="none" stroke="#191970" d="M1693.88,-65.4123C1868.9295,-62.1504 2703.7045,-45.4914 2960.5,-20 2963.3834,-19.7138 2966.3371,-19.3767 2969.3142,-19.0027"/>
<polygon fill="#191970" stroke="#191970" points="1693.6974,-61.915 1683.7639,-65.5996 1693.827,-68.9138 1693.6974,-61.915"/>
</g>
<!-- Node38 -->
<g id="node38" class="node">
<title>Node38</title>
<g id="a_node38"><a xlink:href="rule__dgp_8c.html" target="_top" xlink:title="Dynamical GP graph rule (condition + action) functions. ">
<polygon fill="none" stroke="#000000" points="3091.5,-.5 3091.5,-19.5 3153.5,-19.5 3153.5,-.5 3091.5,-.5"/>
<text text-anchor="middle" x="3122.5" y="-7.5" font-family="Helvetica,sans-Serif" font-size="10.00" fill="#000000">rule_dgp.c</text>
</a>
</g>
</g>
<!-- Node1&#45;&gt;Node38 -->
<g id="edge37" class="edge">
<title>Node1&#45;&gt;Node38</title>
<path fill="none" stroke="#191970" d="M1693.6936,-65.8875C1878.0375,-65.1027 2801.3177,-59.2433 3082.5,-20 3085.3358,-19.6042 3088.2619,-19.088 3091.181,-18.4986"/>
<polygon fill="#191970" stroke="#191970" points="1693.5533,-62.3879 1683.5676,-65.9286 1693.5817,-69.3879 1693.5533,-62.3879"/>
</g>
<!-- Node39 -->
<g id="node39" class="node">
<title>Node39</title>
<g id="a_node39"><a xlink:href="rule__neural_8c.html" target="_top" xlink:title="Neural network rule (condition + action) functions. ">
<polygon fill="none" stroke="#000000" points="3171.5,-.5 3171.5,-19.5 3243.5,-19.5 3243.5,-.5 3171.5,-.5"/>
<text text-anchor="middle" x="3207.5" y="-7.5" font-family="Helvetica,sans-Serif" font-size="10.00" fill="#000000">rule_neural.c</text>
</a>
</g>
</g>
<!-- Node1&#45;&gt;Node39 -->
<g id="edge38" class="edge">
<title>Node1&#45;&gt;Node39</title>
<path fill="none" stroke="#191970" d="M1693.97,-65.8358C1884.987,-64.7441 2864.1693,-57.3816 3162.5,-20 3165.3588,-19.6418 3168.3034,-19.1866 3171.2532,-18.6687"/>
<polygon fill="#191970" stroke="#191970" points="1693.7278,-62.337 1683.7474,-65.8924 1693.7666,-69.3369 1693.7278,-62.337"/>
</g>
<!-- Node40 -->
<g id="node40" class="node">
<title>Node40</title>
<g id="a_node40"><a xlink:href="sam_8c.html" target="_top" xlink:title="Self&#45;adaptive mutation functions. ">
<polygon fill="none" stroke="#000000" points="3261.5,-.5 3261.5,-19.5 3305.5,-19.5 3305.5,-.5 3261.5,-.5"/>
<text text-anchor="middle" x="3283.5" y="-7.5" font-family="Helvetica,sans-Serif" font-size="10.00" fill="#000000">sam.c</text>
</a>
</g>
</g>
<!-- Node1&#45;&gt;Node40 -->
<g id="edge39" class="edge">
<title>Node1&#45;&gt;Node40</title>
<path fill="none" stroke="#191970" d="M1693.6803,-65.6165C1905.2967,-63.0222 3093.8212,-47.3156 3252.5,-20 3255.398,-19.5011 3258.3977,-18.7923 3261.3383,-17.9795"/>
<polygon fill="#191970" stroke="#191970" points="1693.4953,-62.1184 1683.5387,-65.7399 1693.5806,-69.1179 1693.4953,-62.1184"/>
</g>
<!-- Node41 -->
<g id="node41" class="node">
<title>Node41</title>
<g id="a_node41"><a xlink:href="xcs__multi__step_8c.html" target="_top" xlink:title="Multi&#45;step reinforcement learning functions. ">
<polygon fill="none" stroke="#000000" points="3324,-.5 3324,-19.5 3415,-19.5 3415,-.5 3324,-.5"/>
<text text-anchor="middle" x="3369.5" y="-7.5" font-family="Helvetica,sans-Serif" font-size="10.00" fill="#000000">xcs_multi_step.c</text>
</a>
</g>
</g>
<!-- Node1&#45;&gt;Node41 -->
<g id="edge40" class="edge">
<title>Node1&#45;&gt;Node41</title>
<path fill="none" stroke="#191970" d="M1693.9949,-65.7703C1896.1255,-64.2396 2983.4703,-54.4973 3314.5,-20 3317.5889,-19.6781 3320.765,-19.2804 3323.9581,-18.8309"/>
<polygon fill="#191970" stroke="#191970" points="1693.7208,-62.2721 1683.7472,-65.8465 1693.773,-69.2719 1693.7208,-62.2721"/>
</g>
<!-- Node42 -->
<g id="node42" class="node">
<title>Node42</title>
<g id="a_node42"><a xlink:href="xcs__single__step_8c.html" target="_top" xlink:title="Single&#45;step reinforcement learning functions. ">
<polygon fill="none" stroke="#000000" points="3433,-.5 3433,-19.5 3528,-19.5 3528,-.5 3433,-.5"/>
<text text-anchor="middle" x="3480.5" y="-7.5" font-family="Helvetica,sans-Serif" font-size="10.00" fill="#000000">xcs_single_step.c</text>
</a>
</g>
</g>
<!-- Node1&#45;&gt;Node42 -->
<g id="edge41" class="edge">
<title>Node1&#45;&gt;Node42</title>
<path fill="none" stroke="#191970" d="M1693.8169,-65.8225C1903.1906,-64.5725 3070.0717,-56.0618 3424.5,-20 3427.2511,-19.7201 3430.0703,-19.3818 3432.9098,-19.0012"/>
<polygon fill="#191970" stroke="#191970" points="1693.4873,-62.3243 1683.508,-65.8828 1693.5283,-69.3242 1693.4873,-62.3243"/>
</g>
<!-- Node43 -->
<g id="node43" class="node">
<title>Node43</title>
<g id="a_node43"><a xlink:href="xcs__supervised_8c.html" target="_top" xlink:title="Supervised regression learning functions. ">
<polygon fill="none" stroke="#000000" points="3546,-.5 3546,-19.5 3639,-19.5 3639,-.5 3546,-.5"/>
<text text-anchor="middle" x="3592.5" y="-7.5" font-family="Helvetica,sans-Serif" font-size="10.00" fill="#000000">xcs_supervised.c</text>
</a>
</g>
</g>
<!-- Node1&#45;&gt;Node43 -->
<g id="edge42" class="edge">
<title>Node1&#45;&gt;Node43</title>
<path fill="none" stroke="#191970" d="M1693.8423,-65.8949C1910.9659,-65.0861 3159.2281,-58.7886 3537.5,-20 3540.2033,-19.7228 3542.9732,-19.3866 3545.7628,-19.0077"/>
<polygon fill="#191970" stroke="#191970" points="1693.724,-62.3952 1683.7367,-65.9313 1693.7493,-69.3952 1693.724,-62.3952"/>
</g>
<!-- Node44 -->
<g id="node44" class="node">
<title>Node44</title>
<g id="a_node44"><a xlink:href="xcsf_8c.html" target="_top" xlink:title="System&#45;level functions for initialising, saving, loading, etc. ">
<polygon fill="none" stroke="#000000" points="3657.5,-.5 3657.5,-19.5 3701.5,-19.5 3701.5,-.5 3657.5,-.5"/>
<text text-anchor="middle" x="3679.5" y="-7.5" font-family="Helvetica,sans-Serif" font-size="10.00" fill="#000000">xcsf.c</text>
</a>
</g>
</g>
<!-- Node1&#45;&gt;Node44 -->
<g id="edge43" class="edge">
<title>Node1&#45;&gt;Node44</title>
<path fill="none" stroke="#191970" d="M1693.8142,-65.8143C1934.8387,-64.3557 3448.189,-53.8888 3648.5,-20 3651.3994,-19.5095 3654.4,-18.8056 3657.341,-17.9954"/>
<polygon fill="#191970" stroke="#191970" points="1693.5909,-62.3155 1683.6121,-65.8753 1693.6328,-69.3154 1693.5909,-62.3155"/>
</g>
</g>
</svg>
