<?xml version="1.0" encoding="UTF-8" standalone="no"?>
<!DOCTYPE svg PUBLIC "-//W3C//DTD SVG 1.1//EN"
 "http://www.w3.org/Graphics/SVG/1.1/DTD/svg11.dtd">
<!-- Generated by graphviz version 2.40.1 (20161225.0304)
 -->
<!-- Title: xcsf_print_match_set Pages: 1 -->
<svg width="1309pt" height="655pt"
 viewBox="0.00 0.00 1309.00 655.00" xmlns="http://www.w3.org/2000/svg" xmlns:xlink="http://www.w3.org/1999/xlink">
<g id="graph0" class="graph" transform="scale(1 1) rotate(0) translate(4 651)">
<title>xcsf_print_match_set</title>
<!-- Node279 -->
<g id="node1" class="node">
<title>Node279</title>
<polygon fill="#bfbfbf" stroke="#000000" points="0,-266.5 0,-285.5 110,-285.5 110,-266.5 0,-266.5"/>
<text text-anchor="middle" x="55" y="-273.5" font-family="Helvetica,sans-Serif" font-size="10.00" fill="#000000">xcsf_print_match_set</text>
</g>
<!-- Node280 -->
<g id="node2" class="node">
<title>Node280</title>
<g id="a_node2"><a xlink:href="cl__set_8c.html#af03c3db68031f8953d79a4725ae951ad" target="_top" xlink:title="Frees the set, but not the classifiers. ">
<polygon fill="none" stroke="#000000" points="151,-342.5 151,-361.5 203,-361.5 203,-342.5 151,-342.5"/>
<text text-anchor="middle" x="177" y="-349.5" font-family="Helvetica,sans-Serif" font-size="10.00" fill="#000000">set_free</text>
</a>
</g>
</g>
<!-- Node279&#45;&gt;Node280 -->
<g id="edge1" class="edge">
<title>Node279&#45;&gt;Node280</title>
<path fill="none" stroke="#191970" d="M70.1073,-285.5255C88.1391,-296.8804 119.2193,-316.4062 146,-333 148.1597,-334.3382 150.4067,-335.7253 152.66,-337.1128"/>
<polygon fill="#191970" stroke="#191970" points="150.8581,-340.1136 161.2113,-342.3638 154.5211,-334.1484 150.8581,-340.1136"/>
</g>
<!-- Node281 -->
<g id="node3" class="node">
<title>Node281</title>
<g id="a_node3"><a xlink:href="cl__set_8c.html#ad4388f1d26d4129991f692eb4c81886c" target="_top" xlink:title="Initialises a new set. ">
<polygon fill="none" stroke="#000000" points="153,-304.5 153,-323.5 201,-323.5 201,-304.5 153,-304.5"/>
<text text-anchor="middle" x="177" y="-311.5" font-family="Helvetica,sans-Serif" font-size="10.00" fill="#000000">set_init</text>
</a>
</g>
</g>
<!-- Node279&#45;&gt;Node281 -->
<g id="edge2" class="edge">
<title>Node279&#45;&gt;Node281</title>
<path fill="none" stroke="#191970" d="M85.7858,-285.589C103.2151,-291.0178 125.0473,-297.818 142.9823,-303.4043"/>
<polygon fill="#191970" stroke="#191970" points="142.1715,-306.8176 152.76,-306.4498 144.2533,-300.1343 142.1715,-306.8176"/>
</g>
<!-- Node282 -->
<g id="node4" class="node">
<title>Node282</title>
<g id="a_node4"><a xlink:href="cl__set_8c.html#a0b2479df1a61213f1f150907c62278bb" target="_top" xlink:title="Frees the set and the classifiers. ">
<polygon fill="none" stroke="#000000" points="153.5,-266.5 153.5,-285.5 200.5,-285.5 200.5,-266.5 153.5,-266.5"/>
<text text-anchor="middle" x="177" y="-273.5" font-family="Helvetica,sans-Serif" font-size="10.00" fill="#000000">set_kill</text>
</a>
</g>
</g>
<!-- Node279&#45;&gt;Node282 -->
<g id="edge3" class="edge">
<title>Node279&#45;&gt;Node282</title>
<path fill="none" stroke="#191970" d="M110.2887,-276C121.5188,-276 133.0094,-276 143.2199,-276"/>
<polygon fill="#191970" stroke="#191970" points="143.3326,-279.5001 153.3325,-276 143.3325,-272.5001 143.3326,-279.5001"/>
</g>
<!-- Node288 -->
<g id="node10" class="node">
<title>Node288</title>
<g id="a_node10"><a xlink:href="cl__set_8c.html#af3bea0b4d03654b9d6cb08fbf272c847" target="_top" xlink:title="Constructs the match set. ">
<polygon fill="none" stroke="#000000" points="146,-228.5 146,-247.5 208,-247.5 208,-228.5 146,-228.5"/>
<text text-anchor="middle" x="177" y="-235.5" font-family="Helvetica,sans-Serif" font-size="10.00" fill="#000000">set_match</text>
</a>
</g>
</g>
<!-- Node279&#45;&gt;Node288 -->
<g id="edge9" class="edge">
<title>Node279&#45;&gt;Node288</title>
<path fill="none" stroke="#191970" d="M85.7858,-266.411C101.1013,-261.6406 119.8166,-255.8112 136.2998,-250.6771"/>
<polygon fill="#191970" stroke="#191970" points="137.7174,-253.9015 146.2241,-247.5859 135.6356,-247.2182 137.7174,-253.9015"/>
</g>
<!-- Node325 -->
<g id="node47" class="node">
<title>Node325</title>
<g id="a_node47"><a xlink:href="cl__set_8c.html#aa461f1b5cd0429c12cbd18da16570be1" target="_top" xlink:title="Prints the classifiers in the set. ">
<polygon fill="none" stroke="#000000" points="150,-114.5 150,-133.5 204,-133.5 204,-114.5 150,-114.5"/>
<text text-anchor="middle" x="177" y="-121.5" font-family="Helvetica,sans-Serif" font-size="10.00" fill="#000000">set_print</text>
</a>
</g>
</g>
<!-- Node279&#45;&gt;Node325 -->
<g id="edge49" class="edge">
<title>Node279&#45;&gt;Node325</title>
<path fill="none" stroke="#191970" d="M62.6316,-266.4917C82.6583,-241.5404 136.9531,-173.8945 162.8669,-141.6085"/>
<polygon fill="#191970" stroke="#191970" points="165.8413,-143.4942 169.3712,-133.5047 160.3822,-139.1126 165.8413,-143.4942"/>
</g>
<!-- Node283 -->
<g id="node5" class="node">
<title>Node283</title>
<g id="a_node5"><a xlink:href="cl_8c.html#a7bf8d03856a0c04854cfd99fcd45b32a" target="_top" xlink:title="Frees the memory used by the classifier. ">
<polygon fill="none" stroke="#000000" points="271.5,-551.5 271.5,-570.5 317.5,-570.5 317.5,-551.5 271.5,-551.5"/>
<text text-anchor="middle" x="294.5" y="-558.5" font-family="Helvetica,sans-Serif" font-size="10.00" fill="#000000">cl_free</text>
</a>
</g>
</g>
<!-- Node282&#45;&gt;Node283 -->
<g id="edge4" class="edge">
<title>Node282&#45;&gt;Node283</title>
<path fill="none" stroke="#191970" d="M197.9956,-285.5577C201.8124,-288.137 205.4014,-291.2712 208,-295 254.8951,-362.2916 214.6304,-399.4184 244,-476 253.4904,-500.7463 269.9039,-526.5632 281.4366,-543.1569"/>
<polygon fill="#191970" stroke="#191970" points="278.6211,-545.2371 287.2667,-551.3613 284.3272,-541.1824 278.6211,-545.2371"/>
</g>
<!-- Node284 -->
<g id="node6" class="node">
<title>Node284</title>
<g id="a_node6"><a xlink:href="action_8h.html#a3c0b8f4ef29f45d210b6e76340a25e15" target="_top" xlink:title="act_free">
<polygon fill="none" stroke="#000000" points="391.5,-627.5 391.5,-646.5 443.5,-646.5 443.5,-627.5 391.5,-627.5"/>
<text text-anchor="middle" x="417.5" y="-634.5" font-family="Helvetica,sans-Serif" font-size="10.00" fill="#000000">act_free</text>
</a>
</g>
</g>
<!-- Node283&#45;&gt;Node284 -->
<g id="edge5" class="edge">
<title>Node283&#45;&gt;Node284</title>
<path fill="none" stroke="#191970" d="M308.0067,-570.5256C324.798,-582.2205 354.4856,-602.4185 381,-618 383.5406,-619.493 386.2102,-620.9982 388.9012,-622.4729"/>
<polygon fill="#191970" stroke="#191970" points="387.505,-625.6948 397.9764,-627.307 390.796,-619.5166 387.505,-625.6948"/>
</g>
<!-- Node285 -->
<g id="node7" class="node">
<title>Node285</title>
<g id="a_node7"><a xlink:href="condition_8h.html#a3f9b67abe92145cf80a263853912a0d5" target="_top" xlink:title="cond_free">
<polygon fill="none" stroke="#000000" points="388,-589.5 388,-608.5 447,-608.5 447,-589.5 388,-589.5"/>
<text text-anchor="middle" x="417.5" y="-596.5" font-family="Helvetica,sans-Serif" font-size="10.00" fill="#000000">cond_free</text>
</a>
</g>
</g>
<!-- Node283&#45;&gt;Node285 -->
<g id="edge6" class="edge">
<title>Node283&#45;&gt;Node285</title>
<path fill="none" stroke="#191970" d="M317.6354,-568.1475C334.6615,-573.4076 358.2195,-580.6857 378.1788,-586.852"/>
<polygon fill="#191970" stroke="#191970" points="377.3506,-590.2593 387.9382,-589.8671 379.4169,-583.5712 377.3506,-590.2593"/>
</g>
<!-- Node286 -->
<g id="node8" class="node">
<title>Node286</title>
<g id="a_node8"><a xlink:href="prediction_8h.html#a5c8b28f792149c6267cc8387554e1da7" target="_top" xlink:title="pred_free">
<polygon fill="none" stroke="#000000" points="389,-551.5 389,-570.5 446,-570.5 446,-551.5 389,-551.5"/>
<text text-anchor="middle" x="417.5" y="-558.5" font-family="Helvetica,sans-Serif" font-size="10.00" fill="#000000">pred_free</text>
</a>
</g>
</g>
<!-- Node283&#45;&gt;Node286 -->
<g id="edge7" class="edge">
<title>Node283&#45;&gt;Node286</title>
<path fill="none" stroke="#191970" d="M317.6354,-561C334.8208,-561 358.6609,-561 378.7381,-561"/>
<polygon fill="#191970" stroke="#191970" points="378.839,-564.5001 388.839,-561 378.839,-557.5001 378.839,-564.5001"/>
</g>
<!-- Node287 -->
<g id="node9" class="node">
<title>Node287</title>
<g id="a_node9"><a xlink:href="sam_8c.html#ab788a3ced38cf0fd20f8e6a2bab9f86a" target="_top" xlink:title="Frees the self&#45;adaptive mutation rates. ">
<polygon fill="none" stroke="#000000" points="389,-513.5 389,-532.5 446,-532.5 446,-513.5 389,-513.5"/>
<text text-anchor="middle" x="417.5" y="-520.5" font-family="Helvetica,sans-Serif" font-size="10.00" fill="#000000">sam_free</text>
</a>
</g>
</g>
<!-- Node283&#45;&gt;Node287 -->
<g id="edge8" class="edge">
<title>Node283&#45;&gt;Node287</title>
<path fill="none" stroke="#191970" d="M317.6354,-553.8525C334.8997,-548.5188 358.8798,-541.1103 379.0142,-534.8899"/>
<polygon fill="#191970" stroke="#191970" points="380.3177,-538.1505 388.839,-531.8546 378.2514,-531.4624 380.3177,-538.1505"/>
</g>
<!-- Node289 -->
<g id="node11" class="node">
<title>Node289</title>
<g id="a_node11"><a xlink:href="cl_8c.html#ae2fc6cc72c129339a3301573f80a52ee" target="_top" xlink:title="Computes the current classifier action using the input. ">
<polygon fill="none" stroke="#000000" points="266.5,-447.5 266.5,-466.5 322.5,-466.5 322.5,-447.5 266.5,-447.5"/>
<text text-anchor="middle" x="294.5" y="-454.5" font-family="Helvetica,sans-Serif" font-size="10.00" fill="#000000">cl_action</text>
</a>
</g>
</g>
<!-- Node288&#45;&gt;Node289 -->
<g id="edge10" class="edge">
<title>Node288&#45;&gt;Node289</title>
<path fill="none" stroke="#191970" d="M197.8916,-247.6316C201.716,-250.2055 205.3343,-253.3189 208,-257 248.7185,-313.2295 209.4041,-348.8097 244,-409 251.0637,-421.2895 262.2425,-432.3859 272.2888,-440.8063"/>
<polygon fill="#191970" stroke="#191970" points="270.3418,-443.7298 280.3461,-447.2175 274.7003,-438.2523 270.3418,-443.7298"/>
</g>
<!-- Node291 -->
<g id="node13" class="node">
<title>Node291</title>
<g id="a_node13"><a xlink:href="cl_8c.html#a42adb85e78d1f9af3dbd53cd9e9ae0fd" target="_top" xlink:title="Covers the condition and action for a classifier. ">
<polygon fill="none" stroke="#000000" points="268,-380.5 268,-399.5 321,-399.5 321,-380.5 268,-380.5"/>
<text text-anchor="middle" x="294.5" y="-387.5" font-family="Helvetica,sans-Serif" font-size="10.00" fill="#000000">cl_cover</text>
</a>
</g>
</g>
<!-- Node288&#45;&gt;Node291 -->
<g id="edge12" class="edge">
<title>Node288&#45;&gt;Node291</title>
<path fill="none" stroke="#191970" d="M196.6719,-247.6763C200.7605,-250.3057 204.7948,-253.4304 208,-257 232.9708,-284.81 223.402,-301.8125 244,-333 253.6155,-347.5588 266.7374,-362.2548 277.1953,-373.0776"/>
<polygon fill="#191970" stroke="#191970" points="274.7323,-375.5645 284.2513,-380.2164 279.7108,-370.6437 274.7323,-375.5645"/>
</g>
<!-- Node301 -->
<g id="node23" class="node">
<title>Node301</title>
<g id="a_node23"><a xlink:href="cl_8c.html#ab76fe4ea183f51174a3797c3cbb1b3bf" target="_top" xlink:title="Initialises a new classifier. ">
<polygon fill="none" stroke="#000000" points="273.5,-304.5 273.5,-323.5 315.5,-323.5 315.5,-304.5 273.5,-304.5"/>
<text text-anchor="middle" x="294.5" y="-311.5" font-family="Helvetica,sans-Serif" font-size="10.00" fill="#000000">cl_init</text>
</a>
</g>
</g>
<!-- Node288&#45;&gt;Node301 -->
<g id="edge22" class="edge">
<title>Node288&#45;&gt;Node301</title>
<path fill="none" stroke="#191970" d="M194.599,-247.6839C199.1272,-250.4678 203.8808,-253.6612 208,-257 226.0732,-271.6491 224.6188,-282.1313 244,-295 249.9772,-298.9687 256.8984,-302.2634 263.6635,-304.9322"/>
<polygon fill="#191970" stroke="#191970" points="262.741,-308.3195 273.3356,-308.3999 265.1035,-301.7303 262.741,-308.3195"/>
</g>
<!-- Node311 -->
<g id="node33" class="node">
<title>Node311</title>
<g id="a_node33"><a xlink:href="cl_8c.html#ac759904d9a05b2109c39ef17f9f889c3" target="_top" xlink:title="Returns whether the classifier matched the most recent input. ">
<polygon fill="none" stroke="#000000" points="275.5,-266.5 275.5,-285.5 313.5,-285.5 313.5,-266.5 275.5,-266.5"/>
<text text-anchor="middle" x="294.5" y="-273.5" font-family="Helvetica,sans-Serif" font-size="10.00" fill="#000000">cl_m</text>
</a>
</g>
</g>
<!-- Node288&#45;&gt;Node311 -->
<g id="edge33" class="edge">
<title>Node288&#45;&gt;Node311</title>
<path fill="none" stroke="#191970" d="M206.6502,-247.589C224.6928,-253.4241 247.6343,-260.8434 265.5483,-266.6369"/>
<polygon fill="#191970" stroke="#191970" points="264.5877,-270.0047 275.1795,-269.7517 266.7418,-263.3443 264.5877,-270.0047"/>
</g>
<!-- Node312 -->
<g id="node34" class="node">
<title>Node312</title>
<g id="a_node34"><a xlink:href="cl_8c.html#a5d3c4060ef3fd0476e3c8e439a8f81e1" target="_top" xlink:title="Calculates whether the classifier matches the input. ">
<polygon fill="none" stroke="#000000" points="266.5,-228.5 266.5,-247.5 322.5,-247.5 322.5,-228.5 266.5,-228.5"/>
<text text-anchor="middle" x="294.5" y="-235.5" font-family="Helvetica,sans-Serif" font-size="10.00" fill="#000000">cl_match</text>
</a>
</g>
</g>
<!-- Node288&#45;&gt;Node312 -->
<g id="edge34" class="edge">
<title>Node288&#45;&gt;Node312</title>
<path fill="none" stroke="#191970" d="M208.1794,-238C222.8733,-238 240.5431,-238 256.0581,-238"/>
<polygon fill="#191970" stroke="#191970" points="256.392,-241.5001 266.392,-238 256.392,-234.5001 256.392,-241.5001"/>
</g>
<!-- Node314 -->
<g id="node36" class="node">
<title>Node314</title>
<g id="a_node36"><a xlink:href="cl__set_8c.html#a8537e849783523d1e2394e4a027cf33a" target="_top" xlink:title="Enforces the maximum population size limit. ">
<polygon fill="none" stroke="#000000" points="248,-190.5 248,-209.5 341,-209.5 341,-190.5 248,-190.5"/>
<text text-anchor="middle" x="294.5" y="-197.5" font-family="Helvetica,sans-Serif" font-size="10.00" fill="#000000">pop_enforce_limit</text>
</a>
</g>
</g>
<!-- Node288&#45;&gt;Node314 -->
<g id="edge36" class="edge">
<title>Node288&#45;&gt;Node314</title>
<path fill="none" stroke="#191970" d="M206.6502,-228.411C221.4009,-223.6406 239.4258,-217.8112 255.301,-212.6771"/>
<polygon fill="#191970" stroke="#191970" points="256.4215,-215.9933 264.8593,-209.5859 254.2675,-209.333 256.4215,-215.9933"/>
</g>
<!-- Node321 -->
<g id="node43" class="node">
<title>Node321</title>
<g id="a_node43"><a xlink:href="cl__set_8c.html#a274578f0b79dea927e8148a7c41bf75f" target="_top" xlink:title="Adds a classifier to the set. ">
<polygon fill="none" stroke="#000000" points="524,-57.5 524,-76.5 575,-76.5 575,-57.5 524,-57.5"/>
<text text-anchor="middle" x="549.5" y="-64.5" font-family="Helvetica,sans-Serif" font-size="10.00" fill="#000000">set_add</text>
</a>
</g>
</g>
<!-- Node288&#45;&gt;Node321 -->
<g id="edge47" class="edge">
<title>Node288&#45;&gt;Node321</title>
<path fill="none" stroke="#191970" d="M186.1456,-228.3091C198.3262,-215.8809 221.0202,-194.3437 244,-181 265.459,-168.5394 431.3063,-115.0374 454,-105 470.5455,-97.6819 473.3179,-93.0012 490,-86 497.7483,-82.7482 506.2577,-79.724 514.3575,-77.0878"/>
<polygon fill="#191970" stroke="#191970" points="515.4626,-80.4093 523.9555,-74.0752 513.3663,-73.7306 515.4626,-80.4093"/>
</g>
<!-- Node323 -->
<g id="node45" class="node">
<title>Node323</title>
<g id="a_node45"><a xlink:href="cl__set_8c.html#a55395d23e56e86a5dd11be34a4e051ff" target="_top" xlink:title="Returns whether an action is covered by the set. ">
<polygon fill="none" stroke="#000000" points="244,-114.5 244,-133.5 345,-133.5 345,-114.5 244,-114.5"/>
<text text-anchor="middle" x="294.5" y="-121.5" font-family="Helvetica,sans-Serif" font-size="10.00" fill="#000000">set_action_covered</text>
</a>
</g>
</g>
<!-- Node288&#45;&gt;Node323 -->
<g id="edge46" class="edge">
<title>Node288&#45;&gt;Node323</title>
<path fill="none" stroke="#191970" d="M182.0481,-228.3864C191.8575,-210.4887 215.09,-171.7274 244,-148 248.5666,-144.2521 253.816,-140.9297 259.1655,-138.0425"/>
<polygon fill="#191970" stroke="#191970" points="260.7467,-141.1652 268.1599,-133.5959 257.6444,-134.8901 260.7467,-141.1652"/>
</g>
<!-- Node324 -->
<g id="node46" class="node">
<title>Node324</title>
<g id="a_node46"><a xlink:href="cl__set_8c.html#ad2333ccd5fef4fcef4f5ae98406611d3" target="_top" xlink:title="Removes classifiers with 0 numerosity from the set. ">
<polygon fill="none" stroke="#000000" points="260,-76.5 260,-95.5 329,-95.5 329,-76.5 260,-76.5"/>
<text text-anchor="middle" x="294.5" y="-83.5" font-family="Helvetica,sans-Serif" font-size="10.00" fill="#000000">set_validate</text>
</a>
</g>
</g>
<!-- Node288&#45;&gt;Node324 -->
<g id="edge48" class="edge">
<title>Node288&#45;&gt;Node324</title>
<path fill="none" stroke="#191970" d="M179.2237,-228.4854C185.3278,-204.4007 204.575,-140.4244 244,-105 246.1557,-103.0631 248.5278,-101.3168 251.0327,-99.7434"/>
<polygon fill="#191970" stroke="#191970" points="252.7345,-102.8028 259.9386,-95.0341 249.4623,-96.6147 252.7345,-102.8028"/>
</g>
<!-- Node290 -->
<g id="node12" class="node">
<title>Node290</title>
<g id="a_node12"><a xlink:href="action_8h.html#a0d7fce139fe8ea66b42b95ebcb941c1d" target="_top" xlink:title="act_compute">
<polygon fill="none" stroke="#000000" points="381,-475.5 381,-494.5 454,-494.5 454,-475.5 381,-475.5"/>
<text text-anchor="middle" x="417.5" y="-482.5" font-family="Helvetica,sans-Serif" font-size="10.00" fill="#000000">act_compute</text>
</a>
</g>
</g>
<!-- Node289&#45;&gt;Node290 -->
<g id="edge11" class="edge">
<title>Node289&#45;&gt;Node290</title>
<path fill="none" stroke="#191970" d="M322.7187,-463.4238C336.9326,-466.6594 354.5406,-470.6678 370.708,-474.3482"/>
<polygon fill="#191970" stroke="#191970" points="370.0177,-477.7805 380.5451,-476.5875 371.5715,-470.9551 370.0177,-477.7805"/>
</g>
<!-- Node292 -->
<g id="node14" class="node">
<title>Node292</title>
<g id="a_node14"><a xlink:href="action_8h.html#aef1564c19502c8f890ff9f3c1260d6cf" target="_top" xlink:title="act_cover">
<polygon fill="none" stroke="#000000" points="388,-437.5 388,-456.5 447,-456.5 447,-437.5 388,-437.5"/>
<text text-anchor="middle" x="417.5" y="-444.5" font-family="Helvetica,sans-Serif" font-size="10.00" fill="#000000">act_cover</text>
</a>
</g>
</g>
<!-- Node291&#45;&gt;Node292 -->
<g id="edge13" class="edge">
<title>Node291&#45;&gt;Node292</title>
<path fill="none" stroke="#191970" d="M315.0874,-399.5405C334.9544,-408.7472 365.246,-422.7847 387.7371,-433.2074"/>
<polygon fill="#191970" stroke="#191970" points="386.3007,-436.3993 396.8454,-437.4284 389.2439,-430.0481 386.3007,-436.3993"/>
</g>
<!-- Node293 -->
<g id="node15" class="node">
<title>Node293</title>
<g id="a_node15"><a xlink:href="cl_8c.html#a5c1f93d94c386004e38c02f6d7d19004" target="_top" xlink:title="Initialises random actions, conditions and predictions. ">
<polygon fill="none" stroke="#000000" points="393.5,-399.5 393.5,-418.5 441.5,-418.5 441.5,-399.5 393.5,-399.5"/>
<text text-anchor="middle" x="417.5" y="-406.5" font-family="Helvetica,sans-Serif" font-size="10.00" fill="#000000">cl_rand</text>
</a>
</g>
</g>
<!-- Node291&#45;&gt;Node293 -->
<g id="edge14" class="edge">
<title>Node291&#45;&gt;Node293</title>
<path fill="none" stroke="#191970" d="M321.1892,-394.1227C339.396,-396.9352 363.6722,-400.6851 383.2964,-403.7165"/>
<polygon fill="#191970" stroke="#191970" points="382.9471,-407.204 393.3642,-405.2717 384.0158,-400.286 382.9471,-407.204"/>
</g>
<!-- Node300 -->
<g id="node22" class="node">
<title>Node300</title>
<g id="a_node22"><a xlink:href="condition_8h.html#a641c2ffa4792f9f5549a73f31bb66d44" target="_top" xlink:title="cond_cover">
<polygon fill="none" stroke="#000000" points="384,-361.5 384,-380.5 451,-380.5 451,-361.5 384,-361.5"/>
<text text-anchor="middle" x="417.5" y="-368.5" font-family="Helvetica,sans-Serif" font-size="10.00" fill="#000000">cond_cover</text>
</a>
</g>
</g>
<!-- Node291&#45;&gt;Node300 -->
<g id="edge21" class="edge">
<title>Node291&#45;&gt;Node300</title>
<path fill="none" stroke="#191970" d="M321.1892,-385.8773C336.5456,-383.5052 356.2196,-380.4661 373.7784,-377.7537"/>
<polygon fill="#191970" stroke="#191970" points="374.4752,-381.1877 383.8236,-376.202 373.4065,-374.2698 374.4752,-381.1877"/>
</g>
<!-- Node294 -->
<g id="node16" class="node">
<title>Node294</title>
<g id="a_node16"><a xlink:href="action_8h.html#a5fff1d9e3cc60eaae50fda42aef83661" target="_top" xlink:title="act_init">
<polygon fill="none" stroke="#000000" points="525.5,-551.5 525.5,-570.5 573.5,-570.5 573.5,-551.5 525.5,-551.5"/>
<text text-anchor="middle" x="549.5" y="-558.5" font-family="Helvetica,sans-Serif" font-size="10.00" fill="#000000">act_init</text>
</a>
</g>
</g>
<!-- Node293&#45;&gt;Node294 -->
<g id="edge15" class="edge">
<title>Node293&#45;&gt;Node294</title>
<path fill="none" stroke="#191970" d="M441.837,-418.2312C446.3587,-420.834 450.6928,-424.0605 454,-428 488.1626,-468.6943 452.4898,-504.369 490,-542 496.8587,-548.8808 506.2044,-553.2726 515.4562,-556.0747"/>
<polygon fill="#191970" stroke="#191970" points="514.7871,-559.5149 525.3365,-558.534 516.478,-552.7221 514.7871,-559.5149"/>
</g>
<!-- Node295 -->
<g id="node17" class="node">
<title>Node295</title>
<g id="a_node17"><a xlink:href="action_8c.html#a3dda6c6f441d69995296435482803ae8" target="_top" xlink:title="Sets a classifier&#39;s action functions to the implementations. ">
<polygon fill="none" stroke="#000000" points="518.5,-513.5 518.5,-532.5 580.5,-532.5 580.5,-513.5 518.5,-513.5"/>
<text text-anchor="middle" x="549.5" y="-520.5" font-family="Helvetica,sans-Serif" font-size="10.00" fill="#000000">action_set</text>
</a>
</g>
</g>
<!-- Node293&#45;&gt;Node295 -->
<g id="edge16" class="edge">
<title>Node293&#45;&gt;Node295</title>
<path fill="none" stroke="#191970" d="M441.4325,-418.5949C445.9836,-421.1714 450.4319,-424.2952 454,-428 479.9274,-454.9204 461.8702,-479.39 490,-504 495.3189,-508.6533 501.7858,-512.1688 508.4715,-514.8241"/>
<polygon fill="#191970" stroke="#191970" points="507.7212,-518.2642 518.3152,-518.1314 509.9506,-511.6287 507.7212,-518.2642"/>
</g>
<!-- Node296 -->
<g id="node18" class="node">
<title>Node296</title>
<g id="a_node18"><a xlink:href="condition_8h.html#ac4d6ce7d2050452ba7b242cad65d592b" target="_top" xlink:title="cond_init">
<polygon fill="none" stroke="#000000" points="521.5,-475.5 521.5,-494.5 577.5,-494.5 577.5,-475.5 521.5,-475.5"/>
<text text-anchor="middle" x="549.5" y="-482.5" font-family="Helvetica,sans-Serif" font-size="10.00" fill="#000000">cond_init</text>
</a>
</g>
</g>
<!-- Node293&#45;&gt;Node296 -->
<g id="edge17" class="edge">
<title>Node293&#45;&gt;Node296</title>
<path fill="none" stroke="#191970" d="M438.6824,-418.5119C443.8973,-421.2556 449.323,-424.4726 454,-428 472.574,-442.0086 470.2984,-453.6274 490,-466 496.5767,-470.1302 504.1302,-473.4364 511.5994,-476.0566"/>
<polygon fill="#191970" stroke="#191970" points="510.6907,-479.44 521.2806,-479.1174 512.8009,-472.7656 510.6907,-479.44"/>
</g>
<!-- Node297 -->
<g id="node19" class="node">
<title>Node297</title>
<g id="a_node19"><a xlink:href="condition_8c.html#a3329903e950755c55a38c98db2641e3d" target="_top" xlink:title="Sets a classifier&#39;s condition functions to the implementations. ">
<polygon fill="none" stroke="#000000" points="512.5,-437.5 512.5,-456.5 586.5,-456.5 586.5,-437.5 512.5,-437.5"/>
<text text-anchor="middle" x="549.5" y="-444.5" font-family="Helvetica,sans-Serif" font-size="10.00" fill="#000000">condition_set</text>
</a>
</g>
</g>
<!-- Node293&#45;&gt;Node297 -->
<g id="edge18" class="edge">
<title>Node293&#45;&gt;Node297</title>
<path fill="none" stroke="#191970" d="M441.7108,-415.9698C459.8301,-421.1859 485.0877,-428.4571 506.599,-434.6497"/>
<polygon fill="#191970" stroke="#191970" points="505.9161,-438.0952 516.4941,-437.4983 507.8527,-431.3684 505.9161,-438.0952"/>
</g>
<!-- Node298 -->
<g id="node20" class="node">
<title>Node298</title>
<g id="a_node20"><a xlink:href="prediction_8h.html#a9466870f30753fb12cd3670e3be4b8d2" target="_top" xlink:title="pred_init">
<polygon fill="none" stroke="#000000" points="523,-399.5 523,-418.5 576,-418.5 576,-399.5 523,-399.5"/>
<text text-anchor="middle" x="549.5" y="-406.5" font-family="Helvetica,sans-Serif" font-size="10.00" fill="#000000">pred_init</text>
</a>
</g>
</g>
<!-- Node293&#45;&gt;Node298 -->
<g id="edge19" class="edge">
<title>Node293&#45;&gt;Node298</title>
<path fill="none" stroke="#191970" d="M441.7108,-409C461.5006,-409 489.8058,-409 512.4448,-409"/>
<polygon fill="#191970" stroke="#191970" points="512.7183,-412.5001 522.7183,-409 512.7182,-405.5001 512.7183,-412.5001"/>
</g>
<!-- Node299 -->
<g id="node21" class="node">
<title>Node299</title>
<g id="a_node21"><a xlink:href="prediction_8c.html#a68bf56c06ff52c2e31c4fb31436e1eed" target="_top" xlink:title="Sets a classifier&#39;s prediction functions to the implementations. ">
<polygon fill="none" stroke="#000000" points="511,-361.5 511,-380.5 588,-380.5 588,-361.5 511,-361.5"/>
<text text-anchor="middle" x="549.5" y="-368.5" font-family="Helvetica,sans-Serif" font-size="10.00" fill="#000000">prediction_set</text>
</a>
</g>
</g>
<!-- Node293&#45;&gt;Node299 -->
<g id="edge20" class="edge">
<title>Node293&#45;&gt;Node299</title>
<path fill="none" stroke="#191970" d="M441.7108,-402.0302C459.8301,-396.8141 485.0877,-389.5429 506.599,-383.3503"/>
<polygon fill="#191970" stroke="#191970" points="507.8527,-386.6316 516.4941,-380.5017 505.9161,-379.9048 507.8527,-386.6316"/>
</g>
<!-- Node302 -->
<g id="node24" class="node">
<title>Node302</title>
<g id="a_node24"><a xlink:href="sam_8c.html#ab529fdda992a0d15c0f798ec3fefe843" target="_top" xlink:title="Initialises a classifier&#39;s self&#45;adaptive mutation rates. ">
<polygon fill="none" stroke="#000000" points="391,-304.5 391,-323.5 444,-323.5 444,-304.5 391,-304.5"/>
<text text-anchor="middle" x="417.5" y="-311.5" font-family="Helvetica,sans-Serif" font-size="10.00" fill="#000000">sam_init</text>
</a>
</g>
</g>
<!-- Node301&#45;&gt;Node302 -->
<g id="edge23" class="edge">
<title>Node301&#45;&gt;Node302</title>
<path fill="none" stroke="#191970" d="M315.6445,-314C333.3897,-314 359.1606,-314 380.3395,-314"/>
<polygon fill="#191970" stroke="#191970" points="380.62,-317.5001 390.62,-314 380.6199,-310.5001 380.62,-317.5001"/>
</g>
<!-- Node303 -->
<g id="node25" class="node">
<title>Node303</title>
<g id="a_node25"><a xlink:href="sam_8c.html#a2142f014cab38e1a66523856ad64f825" target="_top" xlink:title="Initialises log normal self&#45;adaptive mutation rates. ">
<polygon fill="none" stroke="#000000" points="645,-323.5 645,-342.5 751,-342.5 751,-323.5 645,-323.5"/>
<text text-anchor="middle" x="698" y="-330.5" font-family="Helvetica,sans-Serif" font-size="10.00" fill="#000000">sam_log_normal_init</text>
</a>
</g>
</g>
<!-- Node302&#45;&gt;Node303 -->
<g id="edge24" class="edge">
<title>Node302&#45;&gt;Node303</title>
<path fill="none" stroke="#191970" d="M444.1416,-315.8046C487.5778,-318.7468 574.8187,-324.6562 634.7984,-328.719"/>
<polygon fill="#191970" stroke="#191970" points="634.7069,-332.2207 644.9206,-329.4046 635.1801,-325.2367 634.7069,-332.2207"/>
</g>
<!-- Node309 -->
<g id="node31" class="node">
<title>Node309</title>
<g id="a_node31"><a xlink:href="sam_8c.html#a3406e320683ba972c0573809afabc6b3" target="_top" xlink:title="Initialises rate selection self&#45;adaptive mutation. ">
<polygon fill="none" stroke="#000000" points="490,-285.5 490,-304.5 609,-304.5 609,-285.5 490,-285.5"/>
<text text-anchor="middle" x="549.5" y="-292.5" font-family="Helvetica,sans-Serif" font-size="10.00" fill="#000000">sam_rate_selection_init</text>
</a>
</g>
</g>
<!-- Node302&#45;&gt;Node309 -->
<g id="edge30" class="edge">
<title>Node302&#45;&gt;Node309</title>
<path fill="none" stroke="#191970" d="M444.2122,-310.1551C454.6147,-308.6577 467.0645,-306.8657 479.7006,-305.0469"/>
<polygon fill="#191970" stroke="#191970" points="480.4396,-308.4767 489.8389,-303.5876 479.4423,-301.5481 480.4396,-308.4767"/>
</g>
<!-- Node304 -->
<g id="node26" class="node">
<title>Node304</title>
<g id="a_node26"><a xlink:href="utils_8c.html#ae42a9e1d467853befaa7922cfafed3bb" target="_top" xlink:title="Returns a uniform random float [min,max]. ">
<polygon fill="none" stroke="#000000" points="787,-285.5 787,-304.5 860,-304.5 860,-285.5 787,-285.5"/>
<text text-anchor="middle" x="823.5" y="-292.5" font-family="Helvetica,sans-Serif" font-size="10.00" fill="#000000">rand_uniform</text>
</a>
</g>
</g>
<!-- Node303&#45;&gt;Node304 -->
<g id="edge25" class="edge">
<title>Node303&#45;&gt;Node304</title>
<path fill="none" stroke="#191970" d="M729.6689,-323.411C745.5725,-318.5956 765.0396,-312.7012 782.1114,-307.532"/>
<polygon fill="#191970" stroke="#191970" points="783.2846,-310.8338 791.8412,-304.5859 781.256,-304.1342 783.2846,-310.8338"/>
</g>
<!-- Node305 -->
<g id="node27" class="node">
<title>Node305</title>
<g id="a_node27"><a xlink:href="utils_8c.html#a0c0a81e7797a05c535bad34449d8642c" target="_top" xlink:title="Returns a uniform random float [0,1]. ">
<polygon fill="none" stroke="#000000" points="896,-285.5 896,-304.5 937,-304.5 937,-285.5 896,-285.5"/>
<text text-anchor="middle" x="916.5" y="-292.5" font-family="Helvetica,sans-Serif" font-size="10.00" fill="#000000">drand</text>
</a>
</g>
</g>
<!-- Node304&#45;&gt;Node305 -->
<g id="edge26" class="edge">
<title>Node304&#45;&gt;Node305</title>
<path fill="none" stroke="#191970" d="M860.2561,-295C868.658,-295 877.5043,-295 885.63,-295"/>
<polygon fill="#191970" stroke="#191970" points="885.799,-298.5001 895.7989,-295 885.7989,-291.5001 885.799,-298.5001"/>
</g>
<!-- Node306 -->
<g id="node28" class="node">
<title>Node306</title>
<g id="a_node28"><a xlink:href="mt19937-64_8c.html#aa0b74daf51eca91df224d00f1730084a" target="_top" xlink:title="genrand64_real1">
<polygon fill="none" stroke="#000000" points="973,-285.5 973,-304.5 1061,-304.5 1061,-285.5 973,-285.5"/>
<text text-anchor="middle" x="1017" y="-292.5" font-family="Helvetica,sans-Serif" font-size="10.00" fill="#000000">genrand64_real1</text>
</a>
</g>
</g>
<!-- Node305&#45;&gt;Node306 -->
<g id="edge27" class="edge">
<title>Node305&#45;&gt;Node306</title>
<path fill="none" stroke="#191970" d="M937.3237,-295C944.8428,-295 953.7193,-295 962.769,-295"/>
<polygon fill="#191970" stroke="#191970" points="962.9969,-298.5001 972.9969,-295 962.9969,-291.5001 962.9969,-298.5001"/>
</g>
<!-- Node307 -->
<g id="node29" class="node">
<title>Node307</title>
<g id="a_node29"><a xlink:href="mt19937-64_8c.html#a265bf48d20d6e0347371fcf4fe340e6d" target="_top" xlink:title="genrand64_int64">
<polygon fill="none" stroke="#000000" points="1097,-285.5 1097,-304.5 1185,-304.5 1185,-285.5 1097,-285.5"/>
<text text-anchor="middle" x="1141" y="-292.5" font-family="Helvetica,sans-Serif" font-size="10.00" fill="#000000">genrand64_int64</text>
</a>
</g>
</g>
<!-- Node306&#45;&gt;Node307 -->
<g id="edge28" class="edge">
<title>Node306&#45;&gt;Node307</title>
<path fill="none" stroke="#191970" d="M1061.0669,-295C1069.2822,-295 1077.957,-295 1086.4432,-295"/>
<polygon fill="#191970" stroke="#191970" points="1086.6572,-298.5001 1096.6572,-295 1086.6572,-291.5001 1086.6572,-298.5001"/>
</g>
<!-- Node308 -->
<g id="node30" class="node">
<title>Node308</title>
<g id="a_node30"><a xlink:href="mt19937-64_8c.html#adf4127d44c2dc34fcb318d406131ef7c" target="_top" xlink:title="init_genrand64">
<polygon fill="none" stroke="#000000" points="1221,-285.5 1221,-304.5 1301,-304.5 1301,-285.5 1221,-285.5"/>
<text text-anchor="middle" x="1261" y="-292.5" font-family="Helvetica,sans-Serif" font-size="10.00" fill="#000000">init_genrand64</text>
</a>
</g>
</g>
<!-- Node307&#45;&gt;Node308 -->
<g id="edge29" class="edge">
<title>Node307&#45;&gt;Node308</title>
<path fill="none" stroke="#191970" d="M1185.0022,-295C1193.3719,-295 1202.1896,-295 1210.7365,-295"/>
<polygon fill="#191970" stroke="#191970" points="1210.9792,-298.5001 1220.9792,-295 1210.9792,-291.5001 1210.9792,-298.5001"/>
</g>
<!-- Node310 -->
<g id="node32" class="node">
<title>Node310</title>
<g id="a_node32"><a xlink:href="utils_8c.html#a32648ab076544a9ac1c086d0f07b599f" target="_top" xlink:title="Returns a uniform random integer [min,max] not inclusive of max. ">
<polygon fill="none" stroke="#000000" points="660.5,-285.5 660.5,-304.5 735.5,-304.5 735.5,-285.5 660.5,-285.5"/>
<text text-anchor="middle" x="698" y="-292.5" font-family="Helvetica,sans-Serif" font-size="10.00" fill="#000000">irand_uniform</text>
</a>
</g>
</g>
<!-- Node309&#45;&gt;Node310 -->
<g id="edge31" class="edge">
<title>Node309&#45;&gt;Node310</title>
<path fill="none" stroke="#191970" d="M609.045,-295C622.6704,-295 636.9841,-295 650.05,-295"/>
<polygon fill="#191970" stroke="#191970" points="650.2241,-298.5001 660.2241,-295 650.2241,-291.5001 650.2241,-298.5001"/>
</g>
<!-- Node310&#45;&gt;Node304 -->
<g id="edge32" class="edge">
<title>Node310&#45;&gt;Node304</title>
<path fill="none" stroke="#191970" d="M735.6541,-295C748.542,-295 763.1208,-295 776.6451,-295"/>
<polygon fill="#191970" stroke="#191970" points="776.7361,-298.5001 786.7361,-295 776.7361,-291.5001 776.7361,-298.5001"/>
</g>
<!-- Node313 -->
<g id="node35" class="node">
<title>Node313</title>
<g id="a_node35"><a xlink:href="condition_8h.html#a733d2f270aa8c0c18afa29d5a449b45f" target="_top" xlink:title="cond_match">
<polygon fill="none" stroke="#000000" points="382.5,-228.5 382.5,-247.5 452.5,-247.5 452.5,-228.5 382.5,-228.5"/>
<text text-anchor="middle" x="417.5" y="-235.5" font-family="Helvetica,sans-Serif" font-size="10.00" fill="#000000">cond_match</text>
</a>
</g>
</g>
<!-- Node312&#45;&gt;Node313 -->
<g id="edge35" class="edge">
<title>Node312&#45;&gt;Node313</title>
<path fill="none" stroke="#191970" d="M322.7187,-238C337.4025,-238 355.7085,-238 372.3065,-238"/>
<polygon fill="#191970" stroke="#191970" points="372.3728,-241.5001 382.3728,-238 372.3727,-234.5001 372.3728,-241.5001"/>
</g>
<!-- Node315 -->
<g id="node37" class="node">
<title>Node315</title>
<g id="a_node37"><a xlink:href="cl__set_8c.html#a7ff6217fb822a2eca84c9ac23e8b5cb5" target="_top" xlink:title="Deletes a single classifier from the population set. ">
<polygon fill="none" stroke="#000000" points="392.5,-190.5 392.5,-209.5 442.5,-209.5 442.5,-190.5 392.5,-190.5"/>
<text text-anchor="middle" x="417.5" y="-197.5" font-family="Helvetica,sans-Serif" font-size="10.00" fill="#000000">pop_del</text>
</a>
</g>
</g>
<!-- Node314&#45;&gt;Node315 -->
<g id="edge37" class="edge">
<title>Node314&#45;&gt;Node315</title>
<path fill="none" stroke="#191970" d="M341.001,-200C354.6071,-200 369.2562,-200 382.0574,-200"/>
<polygon fill="#191970" stroke="#191970" points="382.3123,-203.5001 392.3123,-200 382.3123,-196.5001 382.3123,-203.5001"/>
</g>
<!-- Node315&#45;&gt;Node304 -->
<g id="edge43" class="edge">
<title>Node315&#45;&gt;Node304</title>
<path fill="none" stroke="#191970" d="M436.0791,-209.6454C441.8276,-212.6367 448.1788,-215.9488 454,-219 470.0239,-227.399 472.7991,-232.3932 490,-238 601.4516,-274.3288 636.1239,-252.6607 751,-276 760.5585,-277.942 770.7355,-280.3758 780.3492,-282.8469"/>
<polygon fill="#191970" stroke="#191970" points="779.5528,-286.2564 790.1143,-285.4164 781.3342,-279.4868 779.5528,-286.2564"/>
</g>
<!-- Node316 -->
<g id="node38" class="node">
<title>Node316</title>
<g id="a_node38"><a xlink:href="cl_8c.html#ab34a0468e7a08b58586daccab5f49651" target="_top" xlink:title="Returns the size of the classifier condition. ">
<polygon fill="none" stroke="#000000" points="512.5,-209.5 512.5,-228.5 586.5,-228.5 586.5,-209.5 512.5,-209.5"/>
<text text-anchor="middle" x="549.5" y="-216.5" font-family="Helvetica,sans-Serif" font-size="10.00" fill="#000000">cl_cond_size</text>
</a>
</g>
</g>
<!-- Node315&#45;&gt;Node316 -->
<g id="edge38" class="edge">
<title>Node315&#45;&gt;Node316</title>
<path fill="none" stroke="#191970" d="M442.6389,-203.6185C459.5324,-206.0501 482.3144,-209.3294 502.5031,-212.2353"/>
<polygon fill="#191970" stroke="#191970" points="502.0761,-215.7098 512.4728,-213.6703 503.0734,-208.7812 502.0761,-215.7098"/>
</g>
<!-- Node318 -->
<g id="node40" class="node">
<title>Node318</title>
<g id="a_node40"><a xlink:href="cl_8c.html#af708b9effceaf930cbe524f7aaffd2f9" target="_top" xlink:title="Returns the deletion vote of the classifier. ">
<polygon fill="none" stroke="#000000" points="516.5,-171.5 516.5,-190.5 582.5,-190.5 582.5,-171.5 516.5,-171.5"/>
<text text-anchor="middle" x="549.5" y="-178.5" font-family="Helvetica,sans-Serif" font-size="10.00" fill="#000000">cl_del_vote</text>
</a>
</g>
</g>
<!-- Node315&#45;&gt;Node318 -->
<g id="edge40" class="edge">
<title>Node315&#45;&gt;Node318</title>
<path fill="none" stroke="#191970" d="M442.6389,-196.3815C460.6381,-193.7907 485.3218,-190.2378 506.4314,-187.1993"/>
<polygon fill="#191970" stroke="#191970" points="507.0629,-190.6445 516.4622,-185.7554 506.0656,-183.7159 507.0629,-190.6445"/>
</g>
<!-- Node319 -->
<g id="node41" class="node">
<title>Node319</title>
<g id="a_node41"><a xlink:href="cl_8c.html#aaa9b5b7ca68222f98cc38c80b643edbe" target="_top" xlink:title="Returns the size of the classifier prediction. ">
<polygon fill="none" stroke="#000000" points="514,-133.5 514,-152.5 585,-152.5 585,-133.5 514,-133.5"/>
<text text-anchor="middle" x="549.5" y="-140.5" font-family="Helvetica,sans-Serif" font-size="10.00" fill="#000000">cl_pred_size</text>
</a>
</g>
</g>
<!-- Node315&#45;&gt;Node319 -->
<g id="edge41" class="edge">
<title>Node315&#45;&gt;Node319</title>
<path fill="none" stroke="#191970" d="M433.8067,-190.4058C448.2481,-182.1652 470.0704,-170.3307 490,-162 495.19,-159.8305 500.7198,-157.7601 506.2386,-155.8377"/>
<polygon fill="#191970" stroke="#191970" points="507.7094,-159.0366 516.0847,-152.5478 505.491,-152.3974 507.7094,-159.0366"/>
</g>
<!-- Node315&#45;&gt;Node321 -->
<g id="edge44" class="edge">
<title>Node315&#45;&gt;Node321</title>
<path fill="none" stroke="#191970" d="M436.6762,-190.4368C442.8481,-186.6228 449.2988,-181.7565 454,-176 481.2505,-142.6322 458.4688,-115.3562 490,-86 496.689,-79.7724 505.4228,-75.586 514.1299,-72.7717"/>
<polygon fill="#191970" stroke="#191970" points="515.1018,-76.1346 523.8388,-70.1417 513.2715,-69.3782 515.1018,-76.1346"/>
</g>
<!-- Node322 -->
<g id="node44" class="node">
<title>Node322</title>
<g id="a_node44"><a xlink:href="cl__set_8c.html#ac2ecc83b8ceaada1cc75c14e76021d83" target="_top" xlink:title="Calculates the total fitness of classifiers in the set. ">
<polygon fill="none" stroke="#000000" points="515.5,-95.5 515.5,-114.5 583.5,-114.5 583.5,-95.5 515.5,-95.5"/>
<text text-anchor="middle" x="549.5" y="-102.5" font-family="Helvetica,sans-Serif" font-size="10.00" fill="#000000">set_total_fit</text>
</a>
</g>
</g>
<!-- Node315&#45;&gt;Node322 -->
<g id="edge45" class="edge">
<title>Node315&#45;&gt;Node322</title>
<path fill="none" stroke="#191970" d="M434.8541,-190.4922C441.2746,-186.5042 448.3566,-181.5101 454,-176 474.1122,-156.3627 467.4064,-140.7228 490,-124 494.7461,-120.4871 500.1652,-117.609 505.7563,-115.2546"/>
<polygon fill="#191970" stroke="#191970" points="507.0621,-118.5036 515.2395,-111.7671 504.646,-111.9338 507.0621,-118.5036"/>
</g>
<!-- Node317 -->
<g id="node39" class="node">
<title>Node317</title>
<g id="a_node39"><a xlink:href="condition_8h.html#a1433f279ed8c1fff6eb5c4517d216315" target="_top" xlink:title="cond_size">
<polygon fill="none" stroke="#000000" points="667.5,-209.5 667.5,-228.5 728.5,-228.5 728.5,-209.5 667.5,-209.5"/>
<text text-anchor="middle" x="698" y="-216.5" font-family="Helvetica,sans-Serif" font-size="10.00" fill="#000000">cond_size</text>
</a>
</g>
</g>
<!-- Node316&#45;&gt;Node317 -->
<g id="edge39" class="edge">
<title>Node316&#45;&gt;Node317</title>
<path fill="none" stroke="#191970" d="M586.5898,-219C608.0968,-219 635.2084,-219 657.3015,-219"/>
<polygon fill="#191970" stroke="#191970" points="657.3785,-222.5001 667.3784,-219 657.3784,-215.5001 657.3785,-222.5001"/>
</g>
<!-- Node320 -->
<g id="node42" class="node">
<title>Node320</title>
<g id="a_node42"><a xlink:href="prediction_8h.html#a5a7d522104f8457884c00e432dbe0a35" target="_top" xlink:title="pred_size">
<polygon fill="none" stroke="#000000" points="668.5,-133.5 668.5,-152.5 727.5,-152.5 727.5,-133.5 668.5,-133.5"/>
<text text-anchor="middle" x="698" y="-140.5" font-family="Helvetica,sans-Serif" font-size="10.00" fill="#000000">pred_size</text>
</a>
</g>
</g>
<!-- Node319&#45;&gt;Node320 -->
<g id="edge42" class="edge">
<title>Node319&#45;&gt;Node320</title>
<path fill="none" stroke="#191970" d="M585.0694,-143C607.0946,-143 635.42,-143 658.1925,-143"/>
<polygon fill="#191970" stroke="#191970" points="658.2222,-146.5001 668.2222,-143 658.2222,-139.5001 658.2222,-146.5001"/>
</g>
<!-- Node326 -->
<g id="node48" class="node">
<title>Node326</title>
<g id="a_node48"><a xlink:href="cl_8c.html#a6bdd560bed61d6de2ddaa85d5fe4c396" target="_top" xlink:title="Prints the classifier. ">
<polygon fill="none" stroke="#000000" points="270.5,-38.5 270.5,-57.5 318.5,-57.5 318.5,-38.5 270.5,-38.5"/>
<text text-anchor="middle" x="294.5" y="-45.5" font-family="Helvetica,sans-Serif" font-size="10.00" fill="#000000">cl_print</text>
</a>
</g>
</g>
<!-- Node325&#45;&gt;Node326 -->
<g id="edge50" class="edge">
<title>Node325&#45;&gt;Node326</title>
<path fill="none" stroke="#191970" d="M186.1717,-114.3536C198.3804,-101.9735 221.1048,-80.4883 244,-67 249.2221,-63.9235 255.0305,-61.1884 260.7951,-58.8187"/>
<polygon fill="#191970" stroke="#191970" points="262.246,-62.0113 270.3442,-55.1797 259.7533,-55.4702 262.246,-62.0113"/>
</g>
<!-- Node327 -->
<g id="node49" class="node">
<title>Node327</title>
<g id="a_node49"><a xlink:href="action_8h.html#ac6dff8a7b6f5e236c08df56588e188ca" target="_top" xlink:title="act_print">
<polygon fill="none" stroke="#000000" points="390.5,-76.5 390.5,-95.5 444.5,-95.5 444.5,-76.5 390.5,-76.5"/>
<text text-anchor="middle" x="417.5" y="-83.5" font-family="Helvetica,sans-Serif" font-size="10.00" fill="#000000">act_print</text>
</a>
</g>
</g>
<!-- Node326&#45;&gt;Node327 -->
<g id="edge51" class="edge">
<title>Node326&#45;&gt;Node327</title>
<path fill="none" stroke="#191970" d="M318.5076,-55.417C336.0912,-60.8493 360.2869,-68.3244 380.3557,-74.5245"/>
<polygon fill="#191970" stroke="#191970" points="379.5348,-77.9341 390.1224,-77.5419 381.6011,-71.246 379.5348,-77.9341"/>
</g>
<!-- Node328 -->
<g id="node50" class="node">
<title>Node328</title>
<g id="a_node50"><a xlink:href="condition_8h.html#ac4469dfdf7e01d5e4f70ed70b7884386" target="_top" xlink:title="cond_print">
<polygon fill="none" stroke="#000000" points="386.5,-38.5 386.5,-57.5 448.5,-57.5 448.5,-38.5 386.5,-38.5"/>
<text text-anchor="middle" x="417.5" y="-45.5" font-family="Helvetica,sans-Serif" font-size="10.00" fill="#000000">cond_print</text>
</a>
</g>
</g>
<!-- Node326&#45;&gt;Node328 -->
<g id="edge52" class="edge">
<title>Node326&#45;&gt;Node328</title>
<path fill="none" stroke="#191970" d="M318.5076,-48C334.7885,-48 356.7382,-48 375.8318,-48"/>
<polygon fill="#191970" stroke="#191970" points="376.0914,-51.5001 386.0913,-48 376.0913,-44.5001 376.0914,-51.5001"/>
</g>
<!-- Node329 -->
<g id="node51" class="node">
<title>Node329</title>
<g id="a_node51"><a xlink:href="prediction_8h.html#a929a910050e8ea6825e88f85c38c839b" target="_top" xlink:title="pred_print">
<polygon fill="none" stroke="#000000" points="388,-.5 388,-19.5 447,-19.5 447,-.5 388,-.5"/>
<text text-anchor="middle" x="417.5" y="-7.5" font-family="Helvetica,sans-Serif" font-size="10.00" fill="#000000">pred_print</text>
</a>
</g>
</g>
<!-- Node326&#45;&gt;Node329 -->
<g id="edge53" class="edge">
<title>Node326&#45;&gt;Node329</title>
<path fill="none" stroke="#191970" d="M318.5076,-40.583C335.4931,-35.3355 358.6486,-28.1817 378.294,-22.1124"/>
<polygon fill="#191970" stroke="#191970" points="379.3827,-25.4394 387.9039,-19.1435 377.3164,-18.7513 379.3827,-25.4394"/>
</g>
</g>
</svg>
