<?xml version="1.0" encoding="UTF-8" standalone="no"?>
<!DOCTYPE svg PUBLIC "-//W3C//DTD SVG 1.1//EN"
 "http://www.w3.org/Graphics/SVG/1.1/DTD/svg11.dtd">
<!-- Generated by graphviz version 2.40.1 (20161225.0304)
 -->
<!-- Title: xcsf_score Pages: 1 -->
<svg width="1667pt" height="541pt"
 viewBox="0.00 0.00 1667.00 541.00" xmlns="http://www.w3.org/2000/svg" xmlns:xlink="http://www.w3.org/1999/xlink">
<g id="graph0" class="graph" transform="scale(1 1) rotate(0) translate(4 537)">
<title>xcsf_score</title>
<!-- Node502 -->
<g id="node1" class="node">
<title>Node502</title>
<polygon fill="#bfbfbf" stroke="#000000" points="0,-171.5 0,-190.5 65,-190.5 65,-171.5 0,-171.5"/>
<text text-anchor="middle" x="32.5" y="-178.5" font-family="Helvetica,sans-Serif" font-size="10.00" fill="#000000">xcsf_score</text>
</g>
<!-- Node503 -->
<g id="node2" class="node">
<title>Node503</title>
<g id="a_node2"><a xlink:href="xcsf_8c.html#a3089cd4a65514a0a3030e5cb6e11ff7e" target="_top" xlink:title="Executes a single XCSF testing trial. ">
<polygon fill="none" stroke="#000000" points="101,-171.5 101,-190.5 179,-190.5 179,-171.5 101,-171.5"/>
<text text-anchor="middle" x="140" y="-178.5" font-family="Helvetica,sans-Serif" font-size="10.00" fill="#000000">xcsf_test_trial</text>
</a>
</g>
</g>
<!-- Node502&#45;&gt;Node503 -->
<g id="edge1" class="edge">
<title>Node502&#45;&gt;Node503</title>
<path fill="none" stroke="#191970" d="M65.0453,-181C73.1291,-181 81.975,-181 90.6659,-181"/>
<polygon fill="#191970" stroke="#191970" points="90.7421,-184.5001 100.742,-181 90.742,-177.5001 90.7421,-184.5001"/>
</g>
<!-- Node504 -->
<g id="node3" class="node">
<title>Node504</title>
<g id="a_node3"><a xlink:href="clset_8c.html#a7feb00168d3dbd1d0597301029aed664" target="_top" xlink:title="Initialises a new set. ">
<polygon fill="none" stroke="#000000" points="222,-266.5 222,-285.5 278,-285.5 278,-266.5 222,-266.5"/>
<text text-anchor="middle" x="250" y="-273.5" font-family="Helvetica,sans-Serif" font-size="10.00" fill="#000000">clset_init</text>
</a>
</g>
</g>
<!-- Node503&#45;&gt;Node504 -->
<g id="edge2" class="edge">
<title>Node503&#45;&gt;Node504</title>
<path fill="none" stroke="#191970" d="M147.9911,-190.7894C160.9195,-206.2084 187.7371,-236.5025 215,-257 216.8409,-258.3841 218.7954,-259.7297 220.8027,-261.0234"/>
<polygon fill="#191970" stroke="#191970" points="219.3646,-264.2394 229.7529,-266.3213 222.9303,-258.2155 219.3646,-264.2394"/>
</g>
<!-- Node505 -->
<g id="node4" class="node">
<title>Node505</title>
<g id="a_node4"><a xlink:href="clset_8c.html#a460e3bd1d979c502e9e9d97d4253f97c" target="_top" xlink:title="Constructs the match set. ">
<polygon fill="none" stroke="#000000" points="215,-228.5 215,-247.5 285,-247.5 285,-228.5 215,-228.5"/>
<text text-anchor="middle" x="250" y="-235.5" font-family="Helvetica,sans-Serif" font-size="10.00" fill="#000000">clset_match</text>
</a>
</g>
</g>
<!-- Node503&#45;&gt;Node505 -->
<g id="edge3" class="edge">
<title>Node503&#45;&gt;Node505</title>
<path fill="none" stroke="#191970" d="M158.66,-190.6693C176.228,-199.7727 202.7495,-213.5157 222.6955,-223.8513"/>
<polygon fill="#191970" stroke="#191970" points="221.1265,-226.9802 231.6156,-228.4735 224.3471,-220.7651 221.1265,-226.9802"/>
</g>
<!-- Node546 -->
<g id="node45" class="node">
<title>Node546</title>
<g id="a_node45"><a xlink:href="clset_8c.html#a7146a28cbf1fbbcc90f8bb583144fb12" target="_top" xlink:title="Calculates the set mean fitness weighted prediction. ">
<polygon fill="none" stroke="#000000" points="219,-171.5 219,-190.5 281,-190.5 281,-171.5 219,-171.5"/>
<text text-anchor="middle" x="250" y="-178.5" font-family="Helvetica,sans-Serif" font-size="10.00" fill="#000000">clset_pred</text>
</a>
</g>
</g>
<!-- Node503&#45;&gt;Node546 -->
<g id="edge48" class="edge">
<title>Node503&#45;&gt;Node546</title>
<path fill="none" stroke="#191970" d="M179.0916,-181C188.7057,-181 199.0293,-181 208.742,-181"/>
<polygon fill="#191970" stroke="#191970" points="208.9791,-184.5001 218.9791,-181 208.9791,-177.5001 208.9791,-184.5001"/>
</g>
<!-- Node549 -->
<g id="node48" class="node">
<title>Node549</title>
<g id="a_node48"><a xlink:href="clset_8c.html#aad012238caff12fcd827b1e282c9a4ef" target="_top" xlink:title="Frees the set and the classifiers. ">
<polygon fill="none" stroke="#000000" points="222.5,-133.5 222.5,-152.5 277.5,-152.5 277.5,-133.5 222.5,-133.5"/>
<text text-anchor="middle" x="250" y="-140.5" font-family="Helvetica,sans-Serif" font-size="10.00" fill="#000000">clset_kill</text>
</a>
</g>
</g>
<!-- Node503&#45;&gt;Node549 -->
<g id="edge51" class="edge">
<title>Node503&#45;&gt;Node549</title>
<path fill="none" stroke="#191970" d="M167.7576,-171.411C181.3062,-166.7306 197.8055,-161.0308 212.4597,-155.9685"/>
<polygon fill="#191970" stroke="#191970" points="213.9422,-159.1594 222.2512,-152.5859 211.6565,-152.543 213.9422,-159.1594"/>
</g>
<!-- Node555 -->
<g id="node54" class="node">
<title>Node555</title>
<g id="a_node54"><a xlink:href="clset_8c.html#a75789e37a9512f6358e710580ad17d87" target="_top" xlink:title="Frees the set, but not the classifiers. ">
<polygon fill="none" stroke="#000000" points="220.5,-95.5 220.5,-114.5 279.5,-114.5 279.5,-95.5 220.5,-95.5"/>
<text text-anchor="middle" x="250" y="-102.5" font-family="Helvetica,sans-Serif" font-size="10.00" fill="#000000">clset_free</text>
</a>
</g>
</g>
<!-- Node503&#45;&gt;Node555 -->
<g id="edge57" class="edge">
<title>Node503&#45;&gt;Node555</title>
<path fill="none" stroke="#191970" d="M151.5454,-171.3404C165.9374,-159.5104 191.5098,-139.1763 215,-124 217.3157,-122.5039 219.7592,-121.0129 222.2344,-119.5617"/>
<polygon fill="#191970" stroke="#191970" points="224.1634,-122.4925 231.1667,-114.5423 220.7342,-116.39 224.1634,-122.4925"/>
</g>
<!-- Node506 -->
<g id="node5" class="node">
<title>Node506</title>
<g id="a_node5"><a xlink:href="cl_8c.html#a03bd37ba4e5697866192d6f643a50de3" target="_top" xlink:title="Computes the current classifier action using the input. ">
<polygon fill="none" stroke="#000000" points="326.5,-266.5 326.5,-285.5 382.5,-285.5 382.5,-266.5 326.5,-266.5"/>
<text text-anchor="middle" x="354.5" y="-273.5" font-family="Helvetica,sans-Serif" font-size="10.00" fill="#000000">cl_action</text>
</a>
</g>
</g>
<!-- Node505&#45;&gt;Node506 -->
<g id="edge4" class="edge">
<title>Node505&#45;&gt;Node506</title>
<path fill="none" stroke="#191970" d="M276.3698,-247.589C289.1171,-252.2244 304.614,-257.8596 318.4347,-262.8853"/>
<polygon fill="#191970" stroke="#191970" points="317.5446,-266.2858 328.1387,-266.4141 319.9369,-259.7073 317.5446,-266.2858"/>
</g>
<!-- Node508 -->
<g id="node7" class="node">
<title>Node508</title>
<g id="a_node7"><a xlink:href="cl_8c.html#ad26f65e65f9785ce44ece9979362d889" target="_top" xlink:title="Returns whether the classifier matched the most recent input. ">
<polygon fill="none" stroke="#000000" points="335.5,-228.5 335.5,-247.5 373.5,-247.5 373.5,-228.5 335.5,-228.5"/>
<text text-anchor="middle" x="354.5" y="-235.5" font-family="Helvetica,sans-Serif" font-size="10.00" fill="#000000">cl_m</text>
</a>
</g>
</g>
<!-- Node505&#45;&gt;Node508 -->
<g id="edge6" class="edge">
<title>Node505&#45;&gt;Node508</title>
<path fill="none" stroke="#191970" d="M285.0877,-238C298.1119,-238 312.7366,-238 325.1913,-238"/>
<polygon fill="#191970" stroke="#191970" points="325.4831,-241.5001 335.483,-238 325.483,-234.5001 325.4831,-241.5001"/>
</g>
<!-- Node509 -->
<g id="node8" class="node">
<title>Node509</title>
<g id="a_node8"><a xlink:href="cl_8c.html#af5a666538852ce0406d5d8ad933f92f7" target="_top" xlink:title="Calculates whether the classifier matches the input. ">
<polygon fill="none" stroke="#000000" points="326.5,-190.5 326.5,-209.5 382.5,-209.5 382.5,-190.5 326.5,-190.5"/>
<text text-anchor="middle" x="354.5" y="-197.5" font-family="Helvetica,sans-Serif" font-size="10.00" fill="#000000">cl_match</text>
</a>
</g>
</g>
<!-- Node505&#45;&gt;Node509 -->
<g id="edge7" class="edge">
<title>Node505&#45;&gt;Node509</title>
<path fill="none" stroke="#191970" d="M276.3698,-228.411C289.1171,-223.7756 304.614,-218.1404 318.4347,-213.1147"/>
<polygon fill="#191970" stroke="#191970" points="319.9369,-216.2927 328.1387,-209.5859 317.5446,-209.7142 319.9369,-216.2927"/>
</g>
<!-- Node511 -->
<g id="node10" class="node">
<title>Node511</title>
<g id="a_node10"><a xlink:href="clset_8c.html#a73ab8d4cc3a3e4f70561c7f5bf20c265" target="_top" xlink:title="Adds a classifier to the set. ">
<polygon fill="none" stroke="#000000" points="722.5,-494.5 722.5,-513.5 781.5,-513.5 781.5,-494.5 722.5,-494.5"/>
<text text-anchor="middle" x="752" y="-501.5" font-family="Helvetica,sans-Serif" font-size="10.00" fill="#000000">clset_add</text>
</a>
</g>
</g>
<!-- Node505&#45;&gt;Node511 -->
<g id="edge9" class="edge">
<title>Node505&#45;&gt;Node511</title>
<path fill="none" stroke="#191970" d="M273.7036,-247.6021C277.9083,-250.1539 281.9205,-253.2663 285,-257 318.8074,-297.9899 293.2036,-325.7179 321,-371 354.5411,-425.6407 366.1466,-444.3667 424,-472 519.3653,-517.5506 647.877,-514.0274 712.0511,-508.5336"/>
<polygon fill="#191970" stroke="#191970" points="712.5158,-512.0058 722.1538,-507.6059 711.8757,-505.0351 712.5158,-512.0058"/>
</g>
<!-- Node512 -->
<g id="node11" class="node">
<title>Node512</title>
<g id="a_node11"><a xlink:href="clset_8c.html#afc4b91ff72294195a5462944b92ec9b2" target="_top" xlink:title="Ensures all possible actions are covered by the match set. ">
<polygon fill="none" stroke="#000000" points="321,-342.5 321,-361.5 388,-361.5 388,-342.5 321,-342.5"/>
<text text-anchor="middle" x="354.5" y="-349.5" font-family="Helvetica,sans-Serif" font-size="10.00" fill="#000000">clset_cover</text>
</a>
</g>
</g>
<!-- Node505&#45;&gt;Node512 -->
<g id="edge10" class="edge">
<title>Node505&#45;&gt;Node512</title>
<path fill="none" stroke="#191970" d="M271.343,-247.6359C276.104,-250.3009 280.9394,-253.451 285,-257 310.6365,-279.4064 332.3419,-312.8876 344.374,-333.5369"/>
<polygon fill="#191970" stroke="#191970" points="341.3602,-335.3177 349.3399,-342.2872 347.4481,-331.8626 341.3602,-335.3177"/>
</g>
<!-- Node507 -->
<g id="node6" class="node">
<title>Node507</title>
<g id="a_node6"><a xlink:href="action_8h.html#aab6ebb454826f8e9425efc0ed2917023" target="_top" xlink:title="act_compute">
<polygon fill="none" stroke="#000000" points="447,-228.5 447,-247.5 520,-247.5 520,-228.5 447,-228.5"/>
<text text-anchor="middle" x="483.5" y="-235.5" font-family="Helvetica,sans-Serif" font-size="10.00" fill="#000000">act_compute</text>
</a>
</g>
</g>
<!-- Node506&#45;&gt;Node507 -->
<g id="edge5" class="edge">
<title>Node506&#45;&gt;Node507</title>
<path fill="none" stroke="#191970" d="M382.8096,-267.6607C399.9884,-262.6003 422.2313,-256.0481 441.4406,-250.3896"/>
<polygon fill="#191970" stroke="#191970" points="442.5629,-253.7078 451.1663,-247.5246 440.5849,-246.993 442.5629,-253.7078"/>
</g>
<!-- Node510 -->
<g id="node9" class="node">
<title>Node510</title>
<g id="a_node9"><a xlink:href="condition_8h.html#a921ad37edd9a0af1c245bd9a490e3527" target="_top" xlink:title="cond_match">
<polygon fill="none" stroke="#000000" points="448.5,-190.5 448.5,-209.5 518.5,-209.5 518.5,-190.5 448.5,-190.5"/>
<text text-anchor="middle" x="483.5" y="-197.5" font-family="Helvetica,sans-Serif" font-size="10.00" fill="#000000">cond_match</text>
</a>
</g>
</g>
<!-- Node509&#45;&gt;Node510 -->
<g id="edge8" class="edge">
<title>Node509&#45;&gt;Node510</title>
<path fill="none" stroke="#191970" d="M382.8096,-200C399.0046,-200 419.7001,-200 438.1118,-200"/>
<polygon fill="#191970" stroke="#191970" points="438.3488,-203.5001 448.3487,-200 438.3487,-196.5001 438.3488,-203.5001"/>
</g>
<!-- Node512&#45;&gt;Node511 -->
<g id="edge34" class="edge">
<title>Node512&#45;&gt;Node511</title>
<path fill="none" stroke="#191970" d="M358.556,-361.7277C367.3096,-381.4094 389.9717,-425.8728 424,-447 436.2115,-454.5818 627.5451,-484.8055 712.2138,-497.8993"/>
<polygon fill="#191970" stroke="#191970" points="711.8139,-501.3789 722.2308,-499.4454 712.8817,-494.4609 711.8139,-501.3789"/>
</g>
<!-- Node513 -->
<g id="node12" class="node">
<title>Node513</title>
<g id="a_node12"><a xlink:href="cl_8c.html#a502630fa339b234b42b9b859a8c70986" target="_top" xlink:title="Covers the condition and action for a classifier. ">
<polygon fill="none" stroke="#000000" points="457,-342.5 457,-361.5 510,-361.5 510,-342.5 457,-342.5"/>
<text text-anchor="middle" x="483.5" y="-349.5" font-family="Helvetica,sans-Serif" font-size="10.00" fill="#000000">cl_cover</text>
</a>
</g>
</g>
<!-- Node512&#45;&gt;Node513 -->
<g id="edge11" class="edge">
<title>Node512&#45;&gt;Node513</title>
<path fill="none" stroke="#191970" d="M388.0565,-352C405.9877,-352 428.1003,-352 446.5247,-352"/>
<polygon fill="#191970" stroke="#191970" points="446.6083,-355.5001 456.6083,-352 446.6082,-348.5001 446.6083,-355.5001"/>
</g>
<!-- Node523 -->
<g id="node22" class="node">
<title>Node523</title>
<g id="a_node22"><a xlink:href="cl_8c.html#ab45c6f772a335d0a4fdb753a61958744" target="_top" xlink:title="Initialises a new classifier. ">
<polygon fill="none" stroke="#000000" points="462.5,-304.5 462.5,-323.5 504.5,-323.5 504.5,-304.5 462.5,-304.5"/>
<text text-anchor="middle" x="483.5" y="-311.5" font-family="Helvetica,sans-Serif" font-size="10.00" fill="#000000">cl_init</text>
</a>
</g>
</g>
<!-- Node512&#45;&gt;Node523 -->
<g id="edge21" class="edge">
<title>Node512&#45;&gt;Node523</title>
<path fill="none" stroke="#191970" d="M387.0521,-342.411C407.137,-336.4945 432.7513,-328.9492 452.5348,-323.1215"/>
<polygon fill="#191970" stroke="#191970" points="453.6851,-326.4314 462.2886,-320.2483 451.7071,-319.7167 453.6851,-326.4314"/>
</g>
<!-- Node534 -->
<g id="node33" class="node">
<title>Node534</title>
<g id="a_node33"><a xlink:href="clset_8c.html#a1be391cf8ecd96d1a71b1dc6a7feb4a9" target="_top" xlink:title="Returns whether an action is covered by the set. ">
<polygon fill="none" stroke="#000000" points="429,-266.5 429,-285.5 538,-285.5 538,-266.5 429,-266.5"/>
<text text-anchor="middle" x="483.5" y="-273.5" font-family="Helvetica,sans-Serif" font-size="10.00" fill="#000000">clset_action_covered</text>
</a>
</g>
</g>
<!-- Node512&#45;&gt;Node534 -->
<g id="edge33" class="edge">
<title>Node512&#45;&gt;Node534</title>
<path fill="none" stroke="#191970" d="M363.9815,-342.194C376.6108,-329.6415 400.1453,-307.97 424,-295 427.9655,-292.8439 432.2145,-290.8867 436.5499,-289.1206"/>
<polygon fill="#191970" stroke="#191970" points="437.9568,-292.3315 446.1026,-285.5568 435.51,-285.773 437.9568,-292.3315"/>
</g>
<!-- Node535 -->
<g id="node34" class="node">
<title>Node535</title>
<g id="a_node34"><a xlink:href="clset_8c.html#ad87086ed11e5fdd6bffe41b8a34f3608" target="_top" xlink:title="Enforces the maximum population size limit. ">
<polygon fill="none" stroke="#000000" points="424,-380.5 424,-399.5 543,-399.5 543,-380.5 424,-380.5"/>
<text text-anchor="middle" x="483.5" y="-387.5" font-family="Helvetica,sans-Serif" font-size="10.00" fill="#000000">clset_pop_enforce_limit</text>
</a>
</g>
</g>
<!-- Node512&#45;&gt;Node535 -->
<g id="edge35" class="edge">
<title>Node512&#45;&gt;Node535</title>
<path fill="none" stroke="#191970" d="M387.0521,-361.589C403.3993,-366.4044 423.4092,-372.2988 440.9571,-377.468"/>
<polygon fill="#191970" stroke="#191970" points="440.3768,-380.9457 450.9583,-380.4141 442.3548,-374.2309 440.3768,-380.9457"/>
</g>
<!-- Node545 -->
<g id="node44" class="node">
<title>Node545</title>
<g id="a_node44"><a xlink:href="clset_8c.html#a7ec1121fd19ff524f19b46ffa0522dd9" target="_top" xlink:title="Removes classifiers with 0 numerosity from the set. ">
<polygon fill="none" stroke="#000000" points="445,-418.5 445,-437.5 522,-437.5 522,-418.5 445,-418.5"/>
<text text-anchor="middle" x="483.5" y="-425.5" font-family="Helvetica,sans-Serif" font-size="10.00" fill="#000000">clset_validate</text>
</a>
</g>
</g>
<!-- Node512&#45;&gt;Node545 -->
<g id="edge47" class="edge">
<title>Node512&#45;&gt;Node545</title>
<path fill="none" stroke="#191970" d="M363.9815,-361.806C376.6108,-374.3585 400.1453,-396.03 424,-409 427.9655,-411.1561 432.2145,-413.1133 436.5499,-414.8794"/>
<polygon fill="#191970" stroke="#191970" points="435.51,-418.227 446.1026,-418.4432 437.9568,-411.6685 435.51,-418.227"/>
</g>
<!-- Node514 -->
<g id="node13" class="node">
<title>Node514</title>
<g id="a_node13"><a xlink:href="action_8h.html#ac250a5534d7c5fb268e0ccdb479d6e20" target="_top" xlink:title="act_cover">
<polygon fill="none" stroke="#000000" points="588,-342.5 588,-361.5 647,-361.5 647,-342.5 588,-342.5"/>
<text text-anchor="middle" x="617.5" y="-349.5" font-family="Helvetica,sans-Serif" font-size="10.00" fill="#000000">act_cover</text>
</a>
</g>
</g>
<!-- Node513&#45;&gt;Node514 -->
<g id="edge12" class="edge">
<title>Node513&#45;&gt;Node514</title>
<path fill="none" stroke="#191970" d="M510.2948,-352C529.5918,-352 555.9495,-352 577.7005,-352"/>
<polygon fill="#191970" stroke="#191970" points="577.9571,-355.5001 587.9571,-352 577.957,-348.5001 577.9571,-355.5001"/>
</g>
<!-- Node515 -->
<g id="node14" class="node">
<title>Node515</title>
<g id="a_node14"><a xlink:href="cl_8c.html#a7b56e6acc90b92c0692466ae2b7d2a24" target="_top" xlink:title="Initialises random actions, conditions and predictions. ">
<polygon fill="none" stroke="#000000" points="593.5,-304.5 593.5,-323.5 641.5,-323.5 641.5,-304.5 593.5,-304.5"/>
<text text-anchor="middle" x="617.5" y="-311.5" font-family="Helvetica,sans-Serif" font-size="10.00" fill="#000000">cl_rand</text>
</a>
</g>
</g>
<!-- Node513&#45;&gt;Node515 -->
<g id="edge13" class="edge">
<title>Node513&#45;&gt;Node515</title>
<path fill="none" stroke="#191970" d="M510.2948,-344.4015C531.3568,-338.4287 560.8303,-330.0705 583.5444,-323.6292"/>
<polygon fill="#191970" stroke="#191970" points="584.7847,-326.9156 593.4504,-320.82 582.8749,-320.1811 584.7847,-326.9156"/>
</g>
<!-- Node522 -->
<g id="node21" class="node">
<title>Node522</title>
<g id="a_node21"><a xlink:href="condition_8h.html#af6a4967f684827b76d279cc04420ab6d" target="_top" xlink:title="cond_cover">
<polygon fill="none" stroke="#000000" points="584,-266.5 584,-285.5 651,-285.5 651,-266.5 584,-266.5"/>
<text text-anchor="middle" x="617.5" y="-273.5" font-family="Helvetica,sans-Serif" font-size="10.00" fill="#000000">cond_cover</text>
</a>
</g>
</g>
<!-- Node513&#45;&gt;Node522 -->
<g id="edge20" class="edge">
<title>Node513&#45;&gt;Node522</title>
<path fill="none" stroke="#191970" d="M510.2216,-346.5366C520.9429,-343.5831 533.0823,-339.2284 543,-333 562.7016,-320.6274 560.2764,-308.808 579,-295 581.0996,-293.4516 583.3447,-291.9715 585.6563,-290.5699"/>
<polygon fill="#191970" stroke="#191970" points="587.6603,-293.4621 594.7344,-285.5749 584.2858,-287.3292 587.6603,-293.4621"/>
</g>
<!-- Node516 -->
<g id="node15" class="node">
<title>Node516</title>
<g id="a_node15"><a xlink:href="action_8h.html#a7561ff50b261f644feae225259c8b8f6" target="_top" xlink:title="act_init">
<polygon fill="none" stroke="#000000" points="728,-304.5 728,-323.5 776,-323.5 776,-304.5 728,-304.5"/>
<text text-anchor="middle" x="752" y="-311.5" font-family="Helvetica,sans-Serif" font-size="10.00" fill="#000000">act_init</text>
</a>
</g>
</g>
<!-- Node515&#45;&gt;Node516 -->
<g id="edge14" class="edge">
<title>Node515&#45;&gt;Node516</title>
<path fill="none" stroke="#191970" d="M641.5459,-314C662.74,-314 693.8623,-314 717.6739,-314"/>
<polygon fill="#191970" stroke="#191970" points="717.7088,-317.5001 727.7088,-314 717.7088,-310.5001 717.7088,-317.5001"/>
</g>
<!-- Node517 -->
<g id="node16" class="node">
<title>Node517</title>
<g id="a_node16"><a xlink:href="action_8c.html#ac235375c6dc54d6abca5efb0f50b1400" target="_top" xlink:title="Sets a classifier&#39;s action functions to the implementations. ">
<polygon fill="none" stroke="#000000" points="721,-266.5 721,-285.5 783,-285.5 783,-266.5 721,-266.5"/>
<text text-anchor="middle" x="752" y="-273.5" font-family="Helvetica,sans-Serif" font-size="10.00" fill="#000000">action_set</text>
</a>
</g>
</g>
<!-- Node515&#45;&gt;Node517 -->
<g id="edge15" class="edge">
<title>Node515&#45;&gt;Node517</title>
<path fill="none" stroke="#191970" d="M641.5459,-307.2064C660.7654,-301.7763 688.1493,-294.0396 710.842,-287.6283"/>
<polygon fill="#191970" stroke="#191970" points="711.8949,-290.9679 720.5665,-284.8808 709.9916,-284.2316 711.8949,-290.9679"/>
</g>
<!-- Node518 -->
<g id="node17" class="node">
<title>Node518</title>
<g id="a_node17"><a xlink:href="condition_8h.html#ac4e250ced4f7408df04ba9ac9f302c6e" target="_top" xlink:title="cond_init">
<polygon fill="none" stroke="#000000" points="724,-228.5 724,-247.5 780,-247.5 780,-228.5 724,-228.5"/>
<text text-anchor="middle" x="752" y="-235.5" font-family="Helvetica,sans-Serif" font-size="10.00" fill="#000000">cond_init</text>
</a>
</g>
</g>
<!-- Node515&#45;&gt;Node518 -->
<g id="edge16" class="edge">
<title>Node515&#45;&gt;Node518</title>
<path fill="none" stroke="#191970" d="M640.2656,-304.4251C645.6415,-301.7218 651.2009,-298.5391 656,-295 674.7236,-281.192 672.2835,-269.3488 692,-257 698.7715,-252.7589 706.57,-249.3904 714.2564,-246.7421"/>
<polygon fill="#191970" stroke="#191970" points="715.3363,-250.0717 723.8468,-243.7612 713.2586,-243.3872 715.3363,-250.0717"/>
</g>
<!-- Node519 -->
<g id="node18" class="node">
<title>Node519</title>
<g id="a_node18"><a xlink:href="condition_8c.html#aa485cf16f149e89aae83972b83b70596" target="_top" xlink:title="Sets a classifier&#39;s condition functions to the implementations. ">
<polygon fill="none" stroke="#000000" points="715,-190.5 715,-209.5 789,-209.5 789,-190.5 715,-190.5"/>
<text text-anchor="middle" x="752" y="-197.5" font-family="Helvetica,sans-Serif" font-size="10.00" fill="#000000">condition_set</text>
</a>
</g>
</g>
<!-- Node515&#45;&gt;Node519 -->
<g id="edge17" class="edge">
<title>Node515&#45;&gt;Node519</title>
<path fill="none" stroke="#191970" d="M641.5412,-305.2269C646.7551,-302.5265 651.9221,-299.1439 656,-295 682.2154,-268.36 663.8405,-243.576 692,-219 695.963,-215.5413 700.5573,-212.7115 705.4053,-210.3964"/>
<polygon fill="#191970" stroke="#191970" points="706.9777,-213.5362 714.9417,-206.5487 704.3585,-207.0447 706.9777,-213.5362"/>
</g>
<!-- Node520 -->
<g id="node19" class="node">
<title>Node520</title>
<g id="a_node19"><a xlink:href="prediction_8h.html#a32efd0b8ad0f4cbc72683c35c5e49afd" target="_top" xlink:title="pred_init">
<polygon fill="none" stroke="#000000" points="725.5,-380.5 725.5,-399.5 778.5,-399.5 778.5,-380.5 725.5,-380.5"/>
<text text-anchor="middle" x="752" y="-387.5" font-family="Helvetica,sans-Serif" font-size="10.00" fill="#000000">pred_init</text>
</a>
</g>
</g>
<!-- Node515&#45;&gt;Node520 -->
<g id="edge18" class="edge">
<title>Node515&#45;&gt;Node520</title>
<path fill="none" stroke="#191970" d="M640.2656,-323.5749C645.6415,-326.2782 651.2009,-329.4609 656,-333 674.7236,-346.808 672.2835,-358.6512 692,-371 699.1759,-375.4944 707.5052,-379.0088 715.6321,-381.7247"/>
<polygon fill="#191970" stroke="#191970" points="714.7692,-385.12 725.3537,-384.6537 716.7885,-378.4176 714.7692,-385.12"/>
</g>
<!-- Node521 -->
<g id="node20" class="node">
<title>Node521</title>
<g id="a_node20"><a xlink:href="prediction_8c.html#acc3389ac08ab3b032ab1223e3339be12" target="_top" xlink:title="Sets a classifier&#39;s prediction functions to the implementations. ">
<polygon fill="none" stroke="#000000" points="713.5,-342.5 713.5,-361.5 790.5,-361.5 790.5,-342.5 713.5,-342.5"/>
<text text-anchor="middle" x="752" y="-349.5" font-family="Helvetica,sans-Serif" font-size="10.00" fill="#000000">prediction_set</text>
</a>
</g>
</g>
<!-- Node515&#45;&gt;Node521 -->
<g id="edge19" class="edge">
<title>Node515&#45;&gt;Node521</title>
<path fill="none" stroke="#191970" d="M641.5459,-320.7936C660.0895,-326.0327 686.2333,-333.4191 708.431,-339.6906"/>
<polygon fill="#191970" stroke="#191970" points="707.7359,-343.1311 718.3108,-342.4819 709.6391,-336.3948 707.7359,-343.1311"/>
</g>
<!-- Node524 -->
<g id="node23" class="node">
<title>Node524</title>
<g id="a_node23"><a xlink:href="sam_8c.html#ac19f397e3c1bd2a2a4f4a1174509ac67" target="_top" xlink:title="Initialises a classifier&#39;s self&#45;adaptive mutation rates. ">
<polygon fill="none" stroke="#000000" points="591,-190.5 591,-209.5 644,-209.5 644,-190.5 591,-190.5"/>
<text text-anchor="middle" x="617.5" y="-197.5" font-family="Helvetica,sans-Serif" font-size="10.00" fill="#000000">sam_init</text>
</a>
</g>
</g>
<!-- Node523&#45;&gt;Node524 -->
<g id="edge22" class="edge">
<title>Node523&#45;&gt;Node524</title>
<path fill="none" stroke="#191970" d="M504.7021,-310.4416C516.7279,-307.6721 531.6029,-302.9221 543,-295 558.3371,-284.3393 588.4295,-242.4751 605.2975,-218.0234"/>
<polygon fill="#191970" stroke="#191970" points="608.2984,-219.8356 611.0564,-209.606 602.5211,-215.8829 608.2984,-219.8356"/>
</g>
<!-- Node525 -->
<g id="node24" class="node">
<title>Node525</title>
<g id="a_node24"><a xlink:href="sam_8c.html#a934d788eb57734b6118fff7385733803" target="_top" xlink:title="Resets a classifier&#39;s self&#45;adaptive mutation rates. ">
<polygon fill="none" stroke="#000000" points="721,-152.5 721,-171.5 783,-171.5 783,-152.5 721,-152.5"/>
<text text-anchor="middle" x="752" y="-159.5" font-family="Helvetica,sans-Serif" font-size="10.00" fill="#000000">sam_reset</text>
</a>
</g>
</g>
<!-- Node524&#45;&gt;Node525 -->
<g id="edge23" class="edge">
<title>Node524&#45;&gt;Node525</title>
<path fill="none" stroke="#191970" d="M644.0729,-192.4924C663.1931,-187.0904 689.3403,-179.7031 711.1095,-173.5527"/>
<polygon fill="#191970" stroke="#191970" points="712.0909,-176.9125 720.7626,-170.8254 710.1877,-170.1762 712.0909,-176.9125"/>
</g>
<!-- Node526 -->
<g id="node25" class="node">
<title>Node526</title>
<g id="a_node25"><a xlink:href="sam_8c.html#a9b54bfbcf790a621afa925081a66941e" target="_top" xlink:title="Initialises log normal self&#45;adaptive mutation rates. ">
<polygon fill="none" stroke="#000000" points="1003,-190.5 1003,-209.5 1109,-209.5 1109,-190.5 1003,-190.5"/>
<text text-anchor="middle" x="1056" y="-197.5" font-family="Helvetica,sans-Serif" font-size="10.00" fill="#000000">sam_log_normal_init</text>
</a>
</g>
</g>
<!-- Node525&#45;&gt;Node526 -->
<g id="edge24" class="edge">
<title>Node525&#45;&gt;Node526</title>
<path fill="none" stroke="#191970" d="M783.4213,-169.0787C802.1004,-173.0712 826.3074,-177.8713 848,-181 896.3058,-187.9672 951.3128,-192.8602 992.6219,-195.9343"/>
<polygon fill="#191970" stroke="#191970" points="992.5888,-199.4411 1002.8167,-196.6768 993.0974,-192.4596 992.5888,-199.4411"/>
</g>
<!-- Node532 -->
<g id="node31" class="node">
<title>Node532</title>
<g id="a_node31"><a xlink:href="sam_8c.html#afa2d48bd3ec297da02c66bdbb554280b" target="_top" xlink:title="Initialises rate selection self&#45;adaptive mutation. ">
<polygon fill="none" stroke="#000000" points="848,-152.5 848,-171.5 967,-171.5 967,-152.5 848,-152.5"/>
<text text-anchor="middle" x="907.5" y="-159.5" font-family="Helvetica,sans-Serif" font-size="10.00" fill="#000000">sam_rate_selection_init</text>
</a>
</g>
</g>
<!-- Node525&#45;&gt;Node532 -->
<g id="edge30" class="edge">
<title>Node525&#45;&gt;Node532</title>
<path fill="none" stroke="#191970" d="M783.094,-162C798.7958,-162 818.5262,-162 837.6174,-162"/>
<polygon fill="#191970" stroke="#191970" points="837.8218,-165.5001 847.8218,-162 837.8217,-158.5001 837.8218,-165.5001"/>
</g>
<!-- Node527 -->
<g id="node26" class="node">
<title>Node527</title>
<g id="a_node26"><a xlink:href="utils_8c.html#ae42a9e1d467853befaa7922cfafed3bb" target="_top" xlink:title="Returns a uniform random float [min,max]. ">
<polygon fill="none" stroke="#000000" points="1145,-190.5 1145,-209.5 1218,-209.5 1218,-190.5 1145,-190.5"/>
<text text-anchor="middle" x="1181.5" y="-197.5" font-family="Helvetica,sans-Serif" font-size="10.00" fill="#000000">rand_uniform</text>
</a>
</g>
</g>
<!-- Node526&#45;&gt;Node527 -->
<g id="edge25" class="edge">
<title>Node526&#45;&gt;Node527</title>
<path fill="none" stroke="#191970" d="M1109.2233,-200C1117.6785,-200 1126.37,-200 1134.6643,-200"/>
<polygon fill="#191970" stroke="#191970" points="1134.9104,-203.5001 1144.9103,-200 1134.9103,-196.5001 1134.9104,-203.5001"/>
</g>
<!-- Node528 -->
<g id="node27" class="node">
<title>Node528</title>
<g id="a_node27"><a xlink:href="utils_8c.html#a101d27cdda714b7f17a06224c65cac56" target="_top" xlink:title="Returns a uniform random float [0,1]. ">
<polygon fill="none" stroke="#000000" points="1254,-190.5 1254,-209.5 1295,-209.5 1295,-190.5 1254,-190.5"/>
<text text-anchor="middle" x="1274.5" y="-197.5" font-family="Helvetica,sans-Serif" font-size="10.00" fill="#000000">drand</text>
</a>
</g>
</g>
<!-- Node527&#45;&gt;Node528 -->
<g id="edge26" class="edge">
<title>Node527&#45;&gt;Node528</title>
<path fill="none" stroke="#191970" d="M1218.2561,-200C1226.658,-200 1235.5043,-200 1243.63,-200"/>
<polygon fill="#191970" stroke="#191970" points="1243.799,-203.5001 1253.7989,-200 1243.7989,-196.5001 1243.799,-203.5001"/>
</g>
<!-- Node529 -->
<g id="node28" class="node">
<title>Node529</title>
<g id="a_node28"><a xlink:href="mt19937-64_8c.html#aa0b74daf51eca91df224d00f1730084a" target="_top" xlink:title="genrand64_real1">
<polygon fill="none" stroke="#000000" points="1331,-190.5 1331,-209.5 1419,-209.5 1419,-190.5 1331,-190.5"/>
<text text-anchor="middle" x="1375" y="-197.5" font-family="Helvetica,sans-Serif" font-size="10.00" fill="#000000">genrand64_real1</text>
</a>
</g>
</g>
<!-- Node528&#45;&gt;Node529 -->
<g id="edge27" class="edge">
<title>Node528&#45;&gt;Node529</title>
<path fill="none" stroke="#191970" d="M1295.3237,-200C1302.8428,-200 1311.7193,-200 1320.769,-200"/>
<polygon fill="#191970" stroke="#191970" points="1320.9969,-203.5001 1330.9969,-200 1320.9969,-196.5001 1320.9969,-203.5001"/>
</g>
<!-- Node530 -->
<g id="node29" class="node">
<title>Node530</title>
<g id="a_node29"><a xlink:href="mt19937-64_8c.html#a265bf48d20d6e0347371fcf4fe340e6d" target="_top" xlink:title="genrand64_int64">
<polygon fill="none" stroke="#000000" points="1455,-190.5 1455,-209.5 1543,-209.5 1543,-190.5 1455,-190.5"/>
<text text-anchor="middle" x="1499" y="-197.5" font-family="Helvetica,sans-Serif" font-size="10.00" fill="#000000">genrand64_int64</text>
</a>
</g>
</g>
<!-- Node529&#45;&gt;Node530 -->
<g id="edge28" class="edge">
<title>Node529&#45;&gt;Node530</title>
<path fill="none" stroke="#191970" d="M1419.0669,-200C1427.2822,-200 1435.957,-200 1444.4432,-200"/>
<polygon fill="#191970" stroke="#191970" points="1444.6572,-203.5001 1454.6572,-200 1444.6572,-196.5001 1444.6572,-203.5001"/>
</g>
<!-- Node531 -->
<g id="node30" class="node">
<title>Node531</title>
<g id="a_node30"><a xlink:href="mt19937-64_8c.html#adf4127d44c2dc34fcb318d406131ef7c" target="_top" xlink:title="init_genrand64">
<polygon fill="none" stroke="#000000" points="1579,-190.5 1579,-209.5 1659,-209.5 1659,-190.5 1579,-190.5"/>
<text text-anchor="middle" x="1619" y="-197.5" font-family="Helvetica,sans-Serif" font-size="10.00" fill="#000000">init_genrand64</text>
</a>
</g>
</g>
<!-- Node530&#45;&gt;Node531 -->
<g id="edge29" class="edge">
<title>Node530&#45;&gt;Node531</title>
<path fill="none" stroke="#191970" d="M1543.0022,-200C1551.3719,-200 1560.1896,-200 1568.7365,-200"/>
<polygon fill="#191970" stroke="#191970" points="1568.9792,-203.5001 1578.9792,-200 1568.9792,-196.5001 1568.9792,-203.5001"/>
</g>
<!-- Node533 -->
<g id="node32" class="node">
<title>Node533</title>
<g id="a_node32"><a xlink:href="utils_8c.html#a32648ab076544a9ac1c086d0f07b599f" target="_top" xlink:title="Returns a uniform random integer [min,max] not inclusive of max. ">
<polygon fill="none" stroke="#000000" points="1018.5,-152.5 1018.5,-171.5 1093.5,-171.5 1093.5,-152.5 1018.5,-152.5"/>
<text text-anchor="middle" x="1056" y="-159.5" font-family="Helvetica,sans-Serif" font-size="10.00" fill="#000000">irand_uniform</text>
</a>
</g>
</g>
<!-- Node532&#45;&gt;Node533 -->
<g id="edge31" class="edge">
<title>Node532&#45;&gt;Node533</title>
<path fill="none" stroke="#191970" d="M967.045,-162C980.6704,-162 994.9841,-162 1008.05,-162"/>
<polygon fill="#191970" stroke="#191970" points="1008.2241,-165.5001 1018.2241,-162 1008.2241,-158.5001 1008.2241,-165.5001"/>
</g>
<!-- Node533&#45;&gt;Node527 -->
<g id="edge32" class="edge">
<title>Node533&#45;&gt;Node527</title>
<path fill="none" stroke="#191970" d="M1087.6689,-171.589C1103.5725,-176.4044 1123.0396,-182.2988 1140.1114,-187.468"/>
<polygon fill="#191970" stroke="#191970" points="1139.256,-190.8658 1149.8412,-190.4141 1141.2846,-184.1662 1139.256,-190.8658"/>
</g>
<!-- Node536 -->
<g id="node35" class="node">
<title>Node536</title>
<g id="a_node35"><a xlink:href="clset_8c.html#a6dae2bd49bceef5337bcad19010098f8" target="_top" xlink:title="Deletes a single classifier from the population set. ">
<polygon fill="none" stroke="#000000" points="579,-418.5 579,-437.5 656,-437.5 656,-418.5 579,-418.5"/>
<text text-anchor="middle" x="617.5" y="-425.5" font-family="Helvetica,sans-Serif" font-size="10.00" fill="#000000">clset_pop_del</text>
</a>
</g>
</g>
<!-- Node535&#45;&gt;Node536 -->
<g id="edge36" class="edge">
<title>Node535&#45;&gt;Node536</title>
<path fill="none" stroke="#191970" d="M517.3139,-399.589C534.5326,-404.4719 555.6637,-410.4643 574.0733,-415.685"/>
<polygon fill="#191970" stroke="#191970" points="573.1214,-419.053 583.697,-418.4141 575.0312,-412.3185 573.1214,-419.053"/>
</g>
<!-- Node536&#45;&gt;Node511 -->
<g id="edge37" class="edge">
<title>Node536&#45;&gt;Node511</title>
<path fill="none" stroke="#191970" d="M634.4333,-437.6299C641.316,-441.7786 649.2265,-446.8541 656,-452 673.2832,-465.1303 673.2106,-474.1341 692,-485 698.3728,-488.6854 705.5471,-491.747 712.6596,-494.2578"/>
<polygon fill="#191970" stroke="#191970" points="711.6475,-497.6089 722.2391,-497.3472 713.7961,-490.9467 711.6475,-497.6089"/>
</g>
<!-- Node537 -->
<g id="node36" class="node">
<title>Node537</title>
<g id="a_node36"><a xlink:href="clset_8c.html#af899fada328f41ed56991a51fe80db17" target="_top" xlink:title="Finds a rule in the population that never matches an input. ">
<polygon fill="none" stroke="#000000" points="692,-418.5 692,-437.5 812,-437.5 812,-418.5 692,-418.5"/>
<text text-anchor="middle" x="752" y="-425.5" font-family="Helvetica,sans-Serif" font-size="10.00" fill="#000000">clset_pop_never_match</text>
</a>
</g>
</g>
<!-- Node536&#45;&gt;Node537 -->
<g id="edge38" class="edge">
<title>Node536&#45;&gt;Node537</title>
<path fill="none" stroke="#191970" d="M656.0423,-428C664.1639,-428 672.9732,-428 681.85,-428"/>
<polygon fill="#191970" stroke="#191970" points="681.8679,-431.5001 691.8678,-428 681.8678,-424.5001 681.8679,-431.5001"/>
</g>
<!-- Node538 -->
<g id="node37" class="node">
<title>Node538</title>
<g id="a_node37"><a xlink:href="clset_8c.html#a008502b88c280aa55bb9a3645216209c" target="_top" xlink:title="clset_pop_roulette">
<polygon fill="none" stroke="#000000" points="704,-456.5 704,-475.5 800,-475.5 800,-456.5 704,-456.5"/>
<text text-anchor="middle" x="752" y="-463.5" font-family="Helvetica,sans-Serif" font-size="10.00" fill="#000000">clset_pop_roulette</text>
</a>
</g>
</g>
<!-- Node536&#45;&gt;Node538 -->
<g id="edge39" class="edge">
<title>Node536&#45;&gt;Node538</title>
<path fill="none" stroke="#191970" d="M651.44,-437.589C668.7231,-442.4719 689.9329,-448.4643 708.4112,-453.685"/>
<polygon fill="#191970" stroke="#191970" points="707.4959,-457.0633 718.0708,-456.4141 709.3992,-450.327 707.4959,-457.0633"/>
</g>
<!-- Node538&#45;&gt;Node527 -->
<g id="edge46" class="edge">
<title>Node538&#45;&gt;Node527</title>
<path fill="none" stroke="#191970" d="M795.151,-456.4307C801.1583,-453.9631 806.9822,-450.8709 812,-447 835.7241,-428.6985 826.3369,-410.7 848,-390 940.3383,-301.7671 1081.3457,-239.1519 1146.3904,-213.2516"/>
<polygon fill="#191970" stroke="#191970" points="1147.7651,-216.472 1155.7901,-209.5546 1145.2029,-209.9577 1147.7651,-216.472"/>
</g>
<!-- Node539 -->
<g id="node38" class="node">
<title>Node539</title>
<g id="a_node38"><a xlink:href="cl_8c.html#a49f5a7f4f2f47ce1cf7f33b3769de7cc" target="_top" xlink:title="Returns the size of the classifier condition. ">
<polygon fill="none" stroke="#000000" points="870.5,-437.5 870.5,-456.5 944.5,-456.5 944.5,-437.5 870.5,-437.5"/>
<text text-anchor="middle" x="907.5" y="-444.5" font-family="Helvetica,sans-Serif" font-size="10.00" fill="#000000">cl_cond_size</text>
</a>
</g>
</g>
<!-- Node538&#45;&gt;Node539 -->
<g id="edge40" class="edge">
<title>Node538&#45;&gt;Node539</title>
<path fill="none" stroke="#191970" d="M800.3488,-460.0924C819.3054,-457.7762 840.9966,-455.1258 859.8818,-452.8183"/>
<polygon fill="#191970" stroke="#191970" points="860.5482,-456.263 870.0498,-451.5759 859.6991,-449.3147 860.5482,-456.263"/>
</g>
<!-- Node541 -->
<g id="node40" class="node">
<title>Node541</title>
<g id="a_node40"><a xlink:href="cl_8c.html#aa0059f455cba46b3a1acb6b8a271b95f" target="_top" xlink:title="Returns the deletion vote of the classifier. ">
<polygon fill="none" stroke="#000000" points="874.5,-399.5 874.5,-418.5 940.5,-418.5 940.5,-399.5 874.5,-399.5"/>
<text text-anchor="middle" x="907.5" y="-406.5" font-family="Helvetica,sans-Serif" font-size="10.00" fill="#000000">cl_del_vote</text>
</a>
</g>
</g>
<!-- Node538&#45;&gt;Node541 -->
<g id="edge42" class="edge">
<title>Node538&#45;&gt;Node541</title>
<path fill="none" stroke="#191970" d="M785.7059,-456.491C794.3849,-453.7269 803.6334,-450.4994 812,-447 828.6905,-440.019 831.3179,-435.0012 848,-428 853.3806,-425.7418 859.1283,-423.5935 864.8509,-421.6086"/>
<polygon fill="#191970" stroke="#191970" points="866.0072,-424.9126 874.3888,-418.4319 863.7951,-418.2712 866.0072,-424.9126"/>
</g>
<!-- Node542 -->
<g id="node41" class="node">
<title>Node542</title>
<g id="a_node41"><a xlink:href="cl_8c.html#a72d3cf213699a8d68d348ff75c2b2d49" target="_top" xlink:title="Returns the size of the classifier prediction. ">
<polygon fill="none" stroke="#000000" points="872,-513.5 872,-532.5 943,-532.5 943,-513.5 872,-513.5"/>
<text text-anchor="middle" x="907.5" y="-520.5" font-family="Helvetica,sans-Serif" font-size="10.00" fill="#000000">cl_pred_size</text>
</a>
</g>
</g>
<!-- Node538&#45;&gt;Node542 -->
<g id="edge43" class="edge">
<title>Node538&#45;&gt;Node542</title>
<path fill="none" stroke="#191970" d="M785.7059,-475.509C794.3849,-478.2731 803.6334,-481.5006 812,-485 828.6905,-491.981 831.3179,-496.9988 848,-504 853.1869,-506.1769 858.7149,-508.2517 864.2327,-510.1764"/>
<polygon fill="#191970" stroke="#191970" points="863.4841,-513.6165 874.0779,-513.4684 865.704,-506.9778 863.4841,-513.6165"/>
</g>
<!-- Node544 -->
<g id="node43" class="node">
<title>Node544</title>
<g id="a_node43"><a xlink:href="clset_8c.html#a9a50c1393921d731b6840a654c366fb8" target="_top" xlink:title="Calculates the total fitness of classifiers in the set. ">
<polygon fill="none" stroke="#000000" points="870,-475.5 870,-494.5 945,-494.5 945,-475.5 870,-475.5"/>
<text text-anchor="middle" x="907.5" y="-482.5" font-family="Helvetica,sans-Serif" font-size="10.00" fill="#000000">clset_total_fit</text>
</a>
</g>
</g>
<!-- Node538&#45;&gt;Node544 -->
<g id="edge45" class="edge">
<title>Node538&#45;&gt;Node544</title>
<path fill="none" stroke="#191970" d="M800.3488,-471.9076C819.1549,-474.2054 840.6524,-476.8321 859.4317,-479.1267"/>
<polygon fill="#191970" stroke="#191970" points="859.1999,-482.6243 869.5506,-480.3631 860.0489,-475.676 859.1999,-482.6243"/>
</g>
<!-- Node540 -->
<g id="node39" class="node">
<title>Node540</title>
<g id="a_node39"><a xlink:href="condition_8h.html#afc882c8ebd96835127f8e611b815d447" target="_top" xlink:title="cond_size">
<polygon fill="none" stroke="#000000" points="1025.5,-437.5 1025.5,-456.5 1086.5,-456.5 1086.5,-437.5 1025.5,-437.5"/>
<text text-anchor="middle" x="1056" y="-444.5" font-family="Helvetica,sans-Serif" font-size="10.00" fill="#000000">cond_size</text>
</a>
</g>
</g>
<!-- Node539&#45;&gt;Node540 -->
<g id="edge41" class="edge">
<title>Node539&#45;&gt;Node540</title>
<path fill="none" stroke="#191970" d="M944.5898,-447C966.0968,-447 993.2084,-447 1015.3015,-447"/>
<polygon fill="#191970" stroke="#191970" points="1015.3785,-450.5001 1025.3784,-447 1015.3784,-443.5001 1015.3785,-450.5001"/>
</g>
<!-- Node543 -->
<g id="node42" class="node">
<title>Node543</title>
<g id="a_node42"><a xlink:href="prediction_8h.html#a60ead673b526125328224ec152916290" target="_top" xlink:title="pred_size">
<polygon fill="none" stroke="#000000" points="1026.5,-513.5 1026.5,-532.5 1085.5,-532.5 1085.5,-513.5 1026.5,-513.5"/>
<text text-anchor="middle" x="1056" y="-520.5" font-family="Helvetica,sans-Serif" font-size="10.00" fill="#000000">pred_size</text>
</a>
</g>
</g>
<!-- Node542&#45;&gt;Node543 -->
<g id="edge44" class="edge">
<title>Node542&#45;&gt;Node543</title>
<path fill="none" stroke="#191970" d="M943.0694,-523C965.0946,-523 993.42,-523 1016.1925,-523"/>
<polygon fill="#191970" stroke="#191970" points="1016.2222,-526.5001 1026.2222,-523 1016.2222,-519.5001 1016.2222,-526.5001"/>
</g>
<!-- Node547 -->
<g id="node46" class="node">
<title>Node547</title>
<g id="a_node46"><a xlink:href="cl_8c.html#a2e37895c1cc585b83805af74061afa46" target="_top" xlink:title="Computes the current classifier payoff prediction using the input. ">
<polygon fill="none" stroke="#000000" points="325,-152.5 325,-171.5 384,-171.5 384,-152.5 325,-152.5"/>
<text text-anchor="middle" x="354.5" y="-159.5" font-family="Helvetica,sans-Serif" font-size="10.00" fill="#000000">cl_predict</text>
</a>
</g>
</g>
<!-- Node546&#45;&gt;Node547 -->
<g id="edge49" class="edge">
<title>Node546&#45;&gt;Node547</title>
<path fill="none" stroke="#191970" d="M281.0705,-175.3508C291.6649,-173.4246 303.6578,-171.244 314.8339,-169.212"/>
<polygon fill="#191970" stroke="#191970" points="315.592,-172.6316 324.8046,-167.3992 314.3397,-165.7446 315.592,-172.6316"/>
</g>
<!-- Node548 -->
<g id="node47" class="node">
<title>Node548</title>
<g id="a_node47"><a xlink:href="prediction_8h.html#a98a959a3e1a7e5e353c39a561efd666c" target="_top" xlink:title="pred_compute">
<polygon fill="none" stroke="#000000" points="444.5,-152.5 444.5,-171.5 522.5,-171.5 522.5,-152.5 444.5,-152.5"/>
<text text-anchor="middle" x="483.5" y="-159.5" font-family="Helvetica,sans-Serif" font-size="10.00" fill="#000000">pred_compute</text>
</a>
</g>
</g>
<!-- Node547&#45;&gt;Node548 -->
<g id="edge50" class="edge">
<title>Node547&#45;&gt;Node548</title>
<path fill="none" stroke="#191970" d="M384.0952,-162C398.8793,-162 417.1644,-162 434.0048,-162"/>
<polygon fill="#191970" stroke="#191970" points="434.2594,-165.5001 444.2594,-162 434.2593,-158.5001 434.2594,-165.5001"/>
</g>
<!-- Node550 -->
<g id="node49" class="node">
<title>Node550</title>
<g id="a_node49"><a xlink:href="cl_8c.html#a2bba8869890a67c2412a358c8f3ec0b4" target="_top" xlink:title="Frees the memory used by the classifier. ">
<polygon fill="none" stroke="#000000" points="331.5,-76.5 331.5,-95.5 377.5,-95.5 377.5,-76.5 331.5,-76.5"/>
<text text-anchor="middle" x="354.5" y="-83.5" font-family="Helvetica,sans-Serif" font-size="10.00" fill="#000000">cl_free</text>
</a>
</g>
</g>
<!-- Node549&#45;&gt;Node550 -->
<g id="edge52" class="edge">
<title>Node549&#45;&gt;Node550</title>
<path fill="none" stroke="#191970" d="M267.811,-133.3446C273.3231,-130.3529 279.4143,-127.0431 285,-124 299.2845,-116.2177 315.2068,-107.5141 328.2036,-100.4021"/>
<polygon fill="#191970" stroke="#191970" points="329.9936,-103.4124 337.085,-95.5407 326.6326,-97.2721 329.9936,-103.4124"/>
</g>
<!-- Node551 -->
<g id="node50" class="node">
<title>Node551</title>
<g id="a_node50"><a xlink:href="action_8h.html#a2e77a50c24d06a37f2fc5aab8e3ecbac" target="_top" xlink:title="act_free">
<polygon fill="none" stroke="#000000" points="457.5,-38.5 457.5,-57.5 509.5,-57.5 509.5,-38.5 457.5,-38.5"/>
<text text-anchor="middle" x="483.5" y="-45.5" font-family="Helvetica,sans-Serif" font-size="10.00" fill="#000000">act_free</text>
</a>
</g>
</g>
<!-- Node550&#45;&gt;Node551 -->
<g id="edge53" class="edge">
<title>Node550&#45;&gt;Node551</title>
<path fill="none" stroke="#191970" d="M377.5626,-79.2064C396.9191,-73.5045 424.9097,-65.2591 447.2586,-58.6758"/>
<polygon fill="#191970" stroke="#191970" points="448.4753,-61.9661 457.0788,-55.783 446.4973,-55.2514 448.4753,-61.9661"/>
</g>
<!-- Node552 -->
<g id="node51" class="node">
<title>Node552</title>
<g id="a_node51"><a xlink:href="condition_8h.html#a3359b327b7de91f97ce0fb0cee911d04" target="_top" xlink:title="cond_free">
<polygon fill="none" stroke="#000000" points="454,-.5 454,-19.5 513,-19.5 513,-.5 454,-.5"/>
<text text-anchor="middle" x="483.5" y="-7.5" font-family="Helvetica,sans-Serif" font-size="10.00" fill="#000000">cond_free</text>
</a>
</g>
</g>
<!-- Node550&#45;&gt;Node552 -->
<g id="edge54" class="edge">
<title>Node550&#45;&gt;Node552</title>
<path fill="none" stroke="#191970" d="M363.9815,-76.194C376.6108,-63.6415 400.1453,-41.97 424,-29 430.2087,-25.6243 437.1124,-22.7359 443.9548,-20.3056"/>
<polygon fill="#191970" stroke="#191970" points="445.4318,-23.505 453.8479,-17.0692 443.2553,-16.852 445.4318,-23.505"/>
</g>
<!-- Node553 -->
<g id="node52" class="node">
<title>Node553</title>
<g id="a_node52"><a xlink:href="prediction_8h.html#a43bac629eb9434b643605a214f5d5876" target="_top" xlink:title="pred_free">
<polygon fill="none" stroke="#000000" points="455,-114.5 455,-133.5 512,-133.5 512,-114.5 455,-114.5"/>
<text text-anchor="middle" x="483.5" y="-121.5" font-family="Helvetica,sans-Serif" font-size="10.00" fill="#000000">pred_free</text>
</a>
</g>
</g>
<!-- Node550&#45;&gt;Node553 -->
<g id="edge55" class="edge">
<title>Node550&#45;&gt;Node553</title>
<path fill="none" stroke="#191970" d="M377.5626,-92.7936C396.2906,-98.3104 423.1013,-106.2081 445.0644,-112.6779"/>
<polygon fill="#191970" stroke="#191970" points="444.1866,-116.0679 454.7681,-115.5363 446.1646,-109.3532 444.1866,-116.0679"/>
</g>
<!-- Node554 -->
<g id="node53" class="node">
<title>Node554</title>
<g id="a_node53"><a xlink:href="sam_8c.html#a0f3791bc58a3d67f38670151d1cd4418" target="_top" xlink:title="Frees the self&#45;adaptive mutation rates. ">
<polygon fill="none" stroke="#000000" points="455,-76.5 455,-95.5 512,-95.5 512,-76.5 455,-76.5"/>
<text text-anchor="middle" x="483.5" y="-83.5" font-family="Helvetica,sans-Serif" font-size="10.00" fill="#000000">sam_free</text>
</a>
</g>
</g>
<!-- Node550&#45;&gt;Node554 -->
<g id="edge56" class="edge">
<title>Node550&#45;&gt;Node554</title>
<path fill="none" stroke="#191970" d="M377.5626,-86C396.2063,-86 422.8599,-86 444.7673,-86"/>
<polygon fill="#191970" stroke="#191970" points="444.7681,-89.5001 454.7681,-86 444.768,-82.5001 444.7681,-89.5001"/>
</g>
</g>
</svg>
