<?xml version="1.0" encoding="UTF-8" standalone="no"?>
<!DOCTYPE svg PUBLIC "-//W3C//DTD SVG 1.1//EN"
 "http://www.w3.org/Graphics/SVG/1.1/DTD/svg11.dtd">
<!-- Generated by graphviz version 2.40.1 (20161225.0304)
 -->
<!-- Title: xcsf.h Pages: 1 -->
<svg width="3499pt" height="84pt"
 viewBox="0.00 0.00 3498.50 84.00" xmlns="http://www.w3.org/2000/svg" xmlns:xlink="http://www.w3.org/1999/xlink">
<g id="graph0" class="graph" transform="scale(1 1) rotate(0) translate(4 80)">
<title>xcsf.h</title>
<!-- Node1 -->
<g id="node1" class="node">
<title>Node1</title>
<polygon fill="#bfbfbf" stroke="#000000" points="1581.5,-56.5 1581.5,-75.5 1625.5,-75.5 1625.5,-56.5 1581.5,-56.5"/>
<text text-anchor="middle" x="1603.5" y="-63.5" font-family="Helvetica,sans-Serif" font-size="10.00" fill="#000000">xcsf.h</text>
</g>
<!-- Node2 -->
<g id="node2" class="node">
<title>Node2</title>
<g id="a_node2"><a xlink:href="act__integer_8c.html" target="_top" xlink:title="integer action functions. ">
<polygon fill="none" stroke="#000000" points="0,-.5 0,-19.5 73,-19.5 73,-.5 0,-.5"/>
<text text-anchor="middle" x="36.5" y="-7.5" font-family="Helvetica,sans-Serif" font-size="10.00" fill="#000000">act_integer.c</text>
</a>
</g>
</g>
<!-- Node1&#45;&gt;Node2 -->
<g id="edge1" class="edge">
<title>Node1&#45;&gt;Node2</title>
<path fill="none" stroke="#191970" d="M1571.191,-65.8525C1378.9992,-64.8498 384.3303,-57.8804 81.5,-20 78.8,-19.6623 76.0234,-19.2378 73.2382,-18.7557"/>
<polygon fill="#191970" stroke="#191970" points="1571.4481,-69.3537 1581.4656,-65.9043 1571.4835,-62.3538 1571.4481,-69.3537"/>
</g>
<!-- Node3 -->
<g id="node3" class="node">
<title>Node3</title>
<g id="a_node3"><a xlink:href="action_8c.html" target="_top" xlink:title="Interface for classifier actions. ">
<polygon fill="none" stroke="#000000" points="91,-.5 91,-19.5 142,-19.5 142,-.5 91,-.5"/>
<text text-anchor="middle" x="116.5" y="-7.5" font-family="Helvetica,sans-Serif" font-size="10.00" fill="#000000">action.c</text>
</a>
</g>
</g>
<!-- Node1&#45;&gt;Node3 -->
<g id="edge2" class="edge">
<title>Node1&#45;&gt;Node3</title>
<path fill="none" stroke="#191970" d="M1571.0525,-65.452C1369.805,-61.9896 295.9405,-42.5671 151.5,-20 148.503,-19.5318 145.3994,-18.8875 142.3345,-18.1498"/>
<polygon fill="#191970" stroke="#191970" points="1571.2047,-68.955 1581.2632,-65.6268 1571.3246,-61.9561 1571.2047,-68.955"/>
</g>
<!-- Node4 -->
<g id="node4" class="node">
<title>Node4</title>
<g id="a_node4"><a xlink:href="cl_8c.html" target="_top" xlink:title="Functions operating on classifiers. ">
<polygon fill="none" stroke="#000000" points="160.5,-.5 160.5,-19.5 192.5,-19.5 192.5,-.5 160.5,-.5"/>
<text text-anchor="middle" x="176.5" y="-7.5" font-family="Helvetica,sans-Serif" font-size="10.00" fill="#000000">cl.c</text>
</a>
</g>
</g>
<!-- Node1&#45;&gt;Node4 -->
<g id="edge3" class="edge">
<title>Node1&#45;&gt;Node4</title>
<path fill="none" stroke="#191970" d="M1571.2211,-65.6113C1374.3791,-63.1519 339.4454,-48.9196 201.5,-20 198.5719,-19.3861 195.5453,-18.4542 192.6526,-17.4016"/>
<polygon fill="#191970" stroke="#191970" points="1571.4323,-69.1141 1581.4749,-65.7382 1571.519,-62.1146 1571.4323,-69.1141"/>
</g>
<!-- Node5 -->
<g id="node5" class="node">
<title>Node5</title>
<g id="a_node5"><a xlink:href="cl__set_8c.html" target="_top" xlink:title="Functions operating on sets of classifiers. ">
<polygon fill="none" stroke="#000000" points="211,-.5 211,-19.5 262,-19.5 262,-.5 211,-.5"/>
<text text-anchor="middle" x="236.5" y="-7.5" font-family="Helvetica,sans-Serif" font-size="10.00" fill="#000000">cl_set.c</text>
</a>
</g>
</g>
<!-- Node1&#45;&gt;Node5 -->
<g id="edge4" class="edge">
<title>Node1&#45;&gt;Node5</title>
<path fill="none" stroke="#191970" d="M1571.0529,-65.3689C1379.6969,-61.5821 402.3814,-41.3199 270.5,-20 267.8275,-19.568 265.0692,-18.989 262.3337,-18.3264"/>
<polygon fill="#191970" stroke="#191970" points="1571.2296,-68.873 1581.2966,-65.5707 1571.3675,-61.8743 1571.2296,-68.873"/>
</g>
<!-- Node6 -->
<g id="node6" class="node">
<title>Node6</title>
<g id="a_node6"><a xlink:href="cond__dgp_8c.html" target="_top" xlink:title="Dynamical GP graph condition functions. ">
<polygon fill="none" stroke="#000000" points="280,-.5 280,-19.5 347,-19.5 347,-.5 280,-.5"/>
<text text-anchor="middle" x="313.5" y="-7.5" font-family="Helvetica,sans-Serif" font-size="10.00" fill="#000000">cond_dgp.c</text>
</a>
</g>
</g>
<!-- Node1&#45;&gt;Node6 -->
<g id="edge5" class="edge">
<title>Node1&#45;&gt;Node6</title>
<path fill="none" stroke="#191970" d="M1571.0097,-65.6686C1399.7596,-63.7904 600.525,-53.3539 355.5,-20 352.8263,-19.636 350.074,-19.1767 347.3181,-18.656"/>
<polygon fill="#191970" stroke="#191970" points="1571.1125,-69.1698 1581.1496,-65.7778 1571.1879,-62.1702 1571.1125,-69.1698"/>
</g>
<!-- Node7 -->
<g id="node7" class="node">
<title>Node7</title>
<g id="a_node7"><a xlink:href="cond__dummy_8c.html" target="_top" xlink:title="Always&#45;matching dummy condition functions. ">
<polygon fill="none" stroke="#000000" points="365,-.5 365,-19.5 448,-19.5 448,-.5 365,-.5"/>
<text text-anchor="middle" x="406.5" y="-7.5" font-family="Helvetica,sans-Serif" font-size="10.00" fill="#000000">cond_dummy.c</text>
</a>
</g>
</g>
<!-- Node1&#45;&gt;Node7 -->
<g id="edge6" class="edge">
<title>Node1&#45;&gt;Node7</title>
<path fill="none" stroke="#191970" d="M1570.9015,-65.3683C1408.0678,-62.1096 681.7493,-46.328 457.5,-20 454.4532,-19.6423 451.3161,-19.2032 448.1664,-18.7107"/>
<polygon fill="#191970" stroke="#191970" points="1571.1529,-68.8739 1581.2204,-65.5731 1571.2919,-61.8753 1571.1529,-68.8739"/>
</g>
<!-- Node8 -->
<g id="node8" class="node">
<title>Node8</title>
<g id="a_node8"><a xlink:href="cond__ellipsoid_8c.html" target="_top" xlink:title="Hyperellipsoid condition functions. ">
<polygon fill="none" stroke="#000000" points="466.5,-.5 466.5,-19.5 552.5,-19.5 552.5,-.5 466.5,-.5"/>
<text text-anchor="middle" x="509.5" y="-7.5" font-family="Helvetica,sans-Serif" font-size="10.00" fill="#000000">cond_ellipsoid.c</text>
</a>
</g>
</g>
<!-- Node1&#45;&gt;Node8 -->
<g id="edge7" class="edge">
<title>Node1&#45;&gt;Node8</title>
<path fill="none" stroke="#191970" d="M1570.9643,-65.204C1417.4003,-61.3489 764.1272,-43.827 561.5,-20 558.5783,-19.6564 555.5745,-19.2425 552.5549,-18.7812"/>
<polygon fill="#191970" stroke="#191970" points="1571.0601,-68.7074 1581.1443,-65.4578 1571.2347,-61.7096 1571.0601,-68.7074"/>
</g>
<!-- Node9 -->
<g id="node9" class="node">
<title>Node9</title>
<g id="a_node9"><a xlink:href="cond__gp_8c.html" target="_top" xlink:title="Tree GP condition functions. ">
<polygon fill="none" stroke="#000000" points="570.5,-.5 570.5,-19.5 632.5,-19.5 632.5,-.5 570.5,-.5"/>
<text text-anchor="middle" x="601.5" y="-7.5" font-family="Helvetica,sans-Serif" font-size="10.00" fill="#000000">cond_gp.c</text>
</a>
</g>
</g>
<!-- Node1&#45;&gt;Node9 -->
<g id="edge8" class="edge">
<title>Node1&#45;&gt;Node9</title>
<path fill="none" stroke="#191970" d="M1571.1243,-65.3099C1425.0997,-62.0659 826.8831,-47.3318 641.5,-20 638.6674,-19.5824 635.7433,-19.0511 632.8257,-18.4519"/>
<polygon fill="#191970" stroke="#191970" points="1571.1495,-68.8112 1581.224,-65.5319 1571.3033,-61.8129 1571.1495,-68.8112"/>
</g>
<!-- Node10 -->
<g id="node10" class="node">
<title>Node10</title>
<g id="a_node10"><a xlink:href="cond__neural_8c.html" target="_top" xlink:title="Multi&#45;layer perceptron neural network condition functions. ">
<polygon fill="none" stroke="#000000" points="651,-.5 651,-19.5 728,-19.5 728,-.5 651,-.5"/>
<text text-anchor="middle" x="689.5" y="-7.5" font-family="Helvetica,sans-Serif" font-size="10.00" fill="#000000">cond_neural.c</text>
</a>
</g>
</g>
<!-- Node1&#45;&gt;Node10 -->
<g id="edge9" class="edge">
<title>Node1&#45;&gt;Node10</title>
<path fill="none" stroke="#191970" d="M1570.8908,-64.9548C1433.6632,-60.4509 902.5456,-41.9319 736.5,-20 733.7707,-19.6395 730.9641,-19.2058 728.1454,-18.7237"/>
<polygon fill="#191970" stroke="#191970" points="1571.0492,-68.4618 1581.158,-65.2897 1571.2775,-61.4655 1571.0492,-68.4618"/>
</g>
<!-- Node11 -->
<g id="node11" class="node">
<title>Node11</title>
<g id="a_node11"><a xlink:href="cond__rectangle_8c.html" target="_top" xlink:title="Hyperrectangle condition functions. ">
<polygon fill="none" stroke="#000000" points="746,-.5 746,-19.5 837,-19.5 837,-.5 746,-.5"/>
<text text-anchor="middle" x="791.5" y="-7.5" font-family="Helvetica,sans-Serif" font-size="10.00" fill="#000000">cond_rectangle.c</text>
</a>
</g>
</g>
<!-- Node1&#45;&gt;Node11 -->
<g id="edge10" class="edge">
<title>Node1&#45;&gt;Node11</title>
<path fill="none" stroke="#191970" d="M1571.1408,-65.4521C1466.0768,-63.3713 1125.1352,-54.2464 845.5,-20 842.7555,-19.6639 839.9399,-19.2756 837.1044,-18.8513"/>
<polygon fill="#191970" stroke="#191970" points="1571.331,-68.9563 1581.3959,-65.6474 1571.4643,-61.9576 1571.331,-68.9563"/>
</g>
<!-- Node12 -->
<g id="node12" class="node">
<title>Node12</title>
<g id="a_node12"><a xlink:href="cond__ternary_8c.html" target="_top" xlink:title="Ternary condition functions. ">
<polygon fill="none" stroke="#000000" points="855,-.5 855,-19.5 936,-19.5 936,-.5 855,-.5"/>
<text text-anchor="middle" x="895.5" y="-7.5" font-family="Helvetica,sans-Serif" font-size="10.00" fill="#000000">cond_ternary.c</text>
</a>
</g>
</g>
<!-- Node1&#45;&gt;Node12 -->
<g id="edge11" class="edge">
<title>Node1&#45;&gt;Node12</title>
<path fill="none" stroke="#191970" d="M1571.0236,-65.1959C1475.0115,-62.5042 1184.2829,-52.0915 945.5,-20 942.4292,-19.5873 939.2635,-19.1005 936.0863,-18.5677"/>
<polygon fill="#191970" stroke="#191970" points="1571.1512,-68.7005 1581.2426,-65.4735 1571.3414,-61.7031 1571.1512,-68.7005"/>
</g>
<!-- Node13 -->
<g id="node13" class="node">
<title>Node13</title>
<g id="a_node13"><a xlink:href="condition_8c.html" target="_top" xlink:title="Interface for classifier conditions. ">
<polygon fill="none" stroke="#000000" points="954.5,-.5 954.5,-19.5 1018.5,-19.5 1018.5,-.5 954.5,-.5"/>
<text text-anchor="middle" x="986.5" y="-7.5" font-family="Helvetica,sans-Serif" font-size="10.00" fill="#000000">condition.c</text>
</a>
</g>
</g>
<!-- Node1&#45;&gt;Node13 -->
<g id="edge12" class="edge">
<title>Node1&#45;&gt;Node13</title>
<path fill="none" stroke="#191970" d="M1571.2528,-65.2262C1483.438,-62.7315 1232.8727,-53.0295 1027.5,-20 1024.6065,-19.5346 1021.6162,-18.9706 1018.6301,-18.35"/>
<polygon fill="#191970" stroke="#191970" points="1571.2848,-68.7282 1581.3764,-65.5019 1571.4754,-61.7308 1571.2848,-68.7282"/>
</g>
<!-- Node14 -->
<g id="node14" class="node">
<title>Node14</title>
<g id="a_node14"><a xlink:href="config_8c.html" target="_top" xlink:title="Configuration file handling functions. ">
<polygon fill="none" stroke="#000000" points="1037,-.5 1037,-19.5 1088,-19.5 1088,-.5 1037,-.5"/>
<text text-anchor="middle" x="1062.5" y="-7.5" font-family="Helvetica,sans-Serif" font-size="10.00" fill="#000000">config.c</text>
</a>
</g>
</g>
<!-- Node1&#45;&gt;Node14 -->
<g id="edge13" class="edge">
<title>Node1&#45;&gt;Node14</title>
<path fill="none" stroke="#191970" d="M1571.2683,-65.257C1490.5873,-62.9269 1273.6896,-53.7587 1096.5,-20 1093.8406,-19.4933 1091.091,-18.8654 1088.3607,-18.1729"/>
<polygon fill="#191970" stroke="#191970" points="1571.204,-68.7565 1581.2959,-65.5311 1571.3953,-61.7591 1571.204,-68.7565"/>
</g>
<!-- Node15 -->
<g id="node15" class="node">
<title>Node15</title>
<g id="a_node15"><a xlink:href="dgp_8c.html" target="_top" xlink:title="An implementation of dynamical GP graphs with fuzzy activation functions. ">
<polygon fill="none" stroke="#000000" points="1106,-.5 1106,-19.5 1147,-19.5 1147,-.5 1106,-.5"/>
<text text-anchor="middle" x="1126.5" y="-7.5" font-family="Helvetica,sans-Serif" font-size="10.00" fill="#000000">dgp.c</text>
</a>
</g>
</g>
<!-- Node1&#45;&gt;Node15 -->
<g id="edge14" class="edge">
<title>Node1&#45;&gt;Node15</title>
<path fill="none" stroke="#191970" d="M1571.1933,-65.2191C1496.9308,-62.8758 1308.6829,-53.8029 1155.5,-20 1152.7957,-19.4032 1149.9935,-18.6363 1147.2448,-17.793"/>
<polygon fill="#191970" stroke="#191970" points="1571.2061,-68.721 1581.3052,-65.5182 1571.4131,-61.724 1571.2061,-68.721"/>
</g>
<!-- Node16 -->
<g id="node16" class="node">
<title>Node16</title>
<g id="a_node16"><a xlink:href="ea_8c.html" target="_top" xlink:title="Evolutionary algorithm functions. ">
<polygon fill="none" stroke="#000000" points="1165,-.5 1165,-19.5 1200,-19.5 1200,-.5 1165,-.5"/>
<text text-anchor="middle" x="1182.5" y="-7.5" font-family="Helvetica,sans-Serif" font-size="10.00" fill="#000000">ea.c</text>
</a>
</g>
</g>
<!-- Node1&#45;&gt;Node16 -->
<g id="edge15" class="edge">
<title>Node1&#45;&gt;Node16</title>
<path fill="none" stroke="#191970" d="M1571.2335,-64.979C1503.2205,-62.2331 1340.5349,-52.5287 1208.5,-20 1205.7764,-19.329 1202.9524,-18.4488 1200.2132,-17.4885"/>
<polygon fill="#191970" stroke="#191970" points="1571.1913,-68.4799 1581.3171,-65.3624 1571.4574,-61.4849 1571.1913,-68.4799"/>
</g>
<!-- Node17 -->
<g id="node17" class="node">
<title>Node17</title>
<g id="a_node17"><a xlink:href="env_8c.html" target="_top" xlink:title="Built&#45;in problem environment interface. ">
<polygon fill="none" stroke="#000000" points="1218,-.5 1218,-19.5 1259,-19.5 1259,-.5 1218,-.5"/>
<text text-anchor="middle" x="1238.5" y="-7.5" font-family="Helvetica,sans-Serif" font-size="10.00" fill="#000000">env.c</text>
</a>
</g>
</g>
<!-- Node1&#45;&gt;Node17 -->
<g id="edge16" class="edge">
<title>Node1&#45;&gt;Node17</title>
<path fill="none" stroke="#191970" d="M1571.2702,-63.5736C1511.1294,-58.6062 1377.9845,-45.5318 1268.5,-20 1265.399,-19.2768 1262.1632,-18.3681 1259.0129,-17.3949"/>
<polygon fill="#191970" stroke="#191970" points="1571.0436,-67.0666 1581.2926,-64.3816 1571.6062,-60.0892 1571.0436,-67.0666"/>
</g>
<!-- Node18 -->
<g id="node18" class="node">
<title>Node18</title>
<g id="a_node18"><a xlink:href="env__csv_8c.html" target="_top" xlink:title="CSV input file handling functions. ">
<polygon fill="none" stroke="#000000" points="1277.5,-.5 1277.5,-19.5 1339.5,-19.5 1339.5,-.5 1277.5,-.5"/>
<text text-anchor="middle" x="1308.5" y="-7.5" font-family="Helvetica,sans-Serif" font-size="10.00" fill="#000000">env_csv.c</text>
</a>
</g>
</g>
<!-- Node1&#45;&gt;Node18 -->
<g id="edge17" class="edge">
<title>Node1&#45;&gt;Node18</title>
<path fill="none" stroke="#191970" d="M1571.3256,-60.9012C1522.8297,-53.0569 1428.1951,-37.1302 1348.5,-20 1345.7007,-19.3983 1342.7996,-18.7405 1339.8968,-18.0588"/>
<polygon fill="#191970" stroke="#191970" points="1570.8025,-64.362 1581.2315,-62.4947 1571.9143,-57.4509 1570.8025,-64.362"/>
</g>
<!-- Node19 -->
<g id="node19" class="node">
<title>Node19</title>
<g id="a_node19"><a xlink:href="env__maze_8c.html" target="_top" xlink:title="The discrete maze problem environment module. ">
<polygon fill="none" stroke="#000000" points="1357.5,-.5 1357.5,-19.5 1427.5,-19.5 1427.5,-.5 1357.5,-.5"/>
<text text-anchor="middle" x="1392.5" y="-7.5" font-family="Helvetica,sans-Serif" font-size="10.00" fill="#000000">env_maze.c</text>
</a>
</g>
</g>
<!-- Node1&#45;&gt;Node19 -->
<g id="edge18" class="edge">
<title>Node1&#45;&gt;Node19</title>
<path fill="none" stroke="#191970" d="M1571.6035,-57.5346C1532.8727,-47.2553 1467.7632,-29.9751 1427.6293,-19.3234"/>
<polygon fill="#191970" stroke="#191970" points="1570.7549,-60.9305 1581.3181,-60.1129 1572.5506,-54.1647 1570.7549,-60.9305"/>
</g>
<!-- Node20 -->
<g id="node20" class="node">
<title>Node20</title>
<g id="a_node20"><a xlink:href="env__mux_8c.html" target="_top" xlink:title="The real multiplexer problem environment. ">
<polygon fill="none" stroke="#000000" points="1446,-.5 1446,-19.5 1511,-19.5 1511,-.5 1446,-.5"/>
<text text-anchor="middle" x="1478.5" y="-7.5" font-family="Helvetica,sans-Serif" font-size="10.00" fill="#000000">env_mux.c</text>
</a>
</g>
</g>
<!-- Node1&#45;&gt;Node20 -->
<g id="edge19" class="edge">
<title>Node1&#45;&gt;Node20</title>
<path fill="none" stroke="#191970" d="M1572.802,-52.2473C1550.1007,-42.0771 1519.7685,-28.4883 1499.7079,-19.5011"/>
<polygon fill="#191970" stroke="#191970" points="1571.4547,-55.4789 1582.0117,-56.3733 1574.3167,-49.0906 1571.4547,-55.4789"/>
</g>
<!-- Node21 -->
<g id="node21" class="node">
<title>Node21</title>
<g id="a_node21"><a xlink:href="gp_8c.html" target="_top" xlink:title="An implementation of GP trees based upon TinyGP. ">
<polygon fill="none" stroke="#000000" points="1529,-.5 1529,-19.5 1564,-19.5 1564,-.5 1529,-.5"/>
<text text-anchor="middle" x="1546.5" y="-7.5" font-family="Helvetica,sans-Serif" font-size="10.00" fill="#000000">gp.c</text>
</a>
</g>
</g>
<!-- Node1&#45;&gt;Node21 -->
<g id="edge20" class="edge">
<title>Node1&#45;&gt;Node21</title>
<path fill="none" stroke="#191970" d="M1586.2729,-49.0751C1576.4659,-39.4402 1564.536,-27.7196 1556.3149,-19.6427"/>
<polygon fill="#191970" stroke="#191970" points="1583.9851,-51.734 1593.5714,-56.2455 1588.8909,-46.7406 1583.9851,-51.734"/>
</g>
<!-- Node22 -->
<g id="node22" class="node">
<title>Node22</title>
<g id="a_node22"><a xlink:href="loss_8c.html" target="_top" xlink:title="Loss functions for calculating prediction error. ">
<polygon fill="none" stroke="#000000" points="1582,-.5 1582,-19.5 1625,-19.5 1625,-.5 1582,-.5"/>
<text text-anchor="middle" x="1603.5" y="-7.5" font-family="Helvetica,sans-Serif" font-size="10.00" fill="#000000">loss.c</text>
</a>
</g>
</g>
<!-- Node1&#45;&gt;Node22 -->
<g id="edge21" class="edge">
<title>Node1&#45;&gt;Node22</title>
<path fill="none" stroke="#191970" d="M1603.5,-46.1575C1603.5,-37.155 1603.5,-26.9199 1603.5,-19.6427"/>
<polygon fill="#191970" stroke="#191970" points="1600.0001,-46.2455 1603.5,-56.2455 1607.0001,-46.2456 1600.0001,-46.2455"/>
</g>
<!-- Node23 -->
<g id="node23" class="node">
<title>Node23</title>
<g id="a_node23"><a xlink:href="main_8c.html" target="_top" xlink:title="Main function for stand&#45;alone binary execution. ">
<polygon fill="none" stroke="#000000" points="1643.5,-.5 1643.5,-19.5 1689.5,-19.5 1689.5,-.5 1643.5,-.5"/>
<text text-anchor="middle" x="1666.5" y="-7.5" font-family="Helvetica,sans-Serif" font-size="10.00" fill="#000000">main.c</text>
</a>
</g>
</g>
<!-- Node1&#45;&gt;Node23 -->
<g id="edge22" class="edge">
<title>Node1&#45;&gt;Node23</title>
<path fill="none" stroke="#191970" d="M1622.2192,-49.3607C1633.1182,-39.6727 1646.4755,-27.7995 1655.652,-19.6427"/>
<polygon fill="#191970" stroke="#191970" points="1619.6226,-46.9859 1614.4738,-56.2455 1624.2732,-52.2178 1619.6226,-46.9859"/>
</g>
<!-- Node24 -->
<g id="node24" class="node">
<title>Node24</title>
<g id="a_node24"><a xlink:href="neural_8c.html" target="_top" xlink:title="An implementation of a multi&#45;layer perceptron neural network. ">
<polygon fill="none" stroke="#000000" points="1708,-.5 1708,-19.5 1759,-19.5 1759,-.5 1708,-.5"/>
<text text-anchor="middle" x="1733.5" y="-7.5" font-family="Helvetica,sans-Serif" font-size="10.00" fill="#000000">neural.c</text>
</a>
</g>
</g>
<!-- Node1&#45;&gt;Node24 -->
<g id="edge23" class="edge">
<title>Node1&#45;&gt;Node24</title>
<path fill="none" stroke="#191970" d="M1634.8045,-52.515C1658.44,-42.3335 1690.2914,-28.6129 1711.3391,-19.5462"/>
<polygon fill="#191970" stroke="#191970" points="1633.3522,-49.3296 1625.5527,-56.5004 1636.1216,-55.7585 1633.3522,-49.3296"/>
</g>
<!-- Node25 -->
<g id="node25" class="node">
<title>Node25</title>
<g id="a_node25"><a xlink:href="neural__layer_8c.html" target="_top" xlink:title="Interface for neural network layers. ">
<polygon fill="none" stroke="#000000" points="1777,-.5 1777,-19.5 1854,-19.5 1854,-.5 1777,-.5"/>
<text text-anchor="middle" x="1815.5" y="-7.5" font-family="Helvetica,sans-Serif" font-size="10.00" fill="#000000">neural_layer.c</text>
</a>
</g>
</g>
<!-- Node1&#45;&gt;Node25 -->
<g id="edge24" class="edge">
<title>Node1&#45;&gt;Node25</title>
<path fill="none" stroke="#191970" d="M1635.4874,-57.5505C1674.1496,-47.3378 1739.0363,-30.198 1779.4395,-19.5254"/>
<polygon fill="#191970" stroke="#191970" points="1634.5615,-54.1749 1625.787,-60.1129 1636.3493,-60.9428 1634.5615,-54.1749"/>
</g>
<!-- Node26 -->
<g id="node26" class="node">
<title>Node26</title>
<g id="a_node26"><a xlink:href="neural__layer__connected_8c.html" target="_top" xlink:title="An implementation of a fully&#45;connected layer of perceptrons. ">
<polygon fill="none" stroke="#000000" points="1872.5,-.5 1872.5,-19.5 2000.5,-19.5 2000.5,-.5 1872.5,-.5"/>
<text text-anchor="middle" x="1936.5" y="-7.5" font-family="Helvetica,sans-Serif" font-size="10.00" fill="#000000">neural_layer_connected.c</text>
</a>
</g>
</g>
<!-- Node1&#45;&gt;Node26 -->
<g id="edge25" class="edge">
<title>Node1&#45;&gt;Node26</title>
<path fill="none" stroke="#191970" d="M1635.7242,-60.5809C1692.124,-51.0963 1809.4033,-31.3736 1879.6923,-19.5532"/>
<polygon fill="#191970" stroke="#191970" points="1634.888,-57.1723 1625.6069,-62.2823 1636.0489,-64.0754 1634.888,-57.1723"/>
</g>
<!-- Node27 -->
<g id="node27" class="node">
<title>Node27</title>
<g id="a_node27"><a xlink:href="neural__layer__dropout_8c.html" target="_top" xlink:title="An implementation of a dropout layer. ">
<polygon fill="none" stroke="#000000" points="2019,-.5 2019,-19.5 2134,-19.5 2134,-.5 2019,-.5"/>
<text text-anchor="middle" x="2076.5" y="-7.5" font-family="Helvetica,sans-Serif" font-size="10.00" fill="#000000">neural_layer_dropout.c</text>
</a>
</g>
</g>
<!-- Node1&#45;&gt;Node27 -->
<g id="edge26" class="edge">
<title>Node1&#45;&gt;Node27</title>
<path fill="none" stroke="#191970" d="M1635.7176,-62.7407C1704.4728,-55.6992 1870.6343,-38.2241 2009.5,-20 2012.5318,-19.6021 2015.6389,-19.1819 2018.7747,-18.748"/>
<polygon fill="#191970" stroke="#191970" points="1635.1311,-59.2823 1625.5383,-63.7798 1635.842,-66.2461 1635.1311,-59.2823"/>
</g>
<!-- Node28 -->
<g id="node28" class="node">
<title>Node28</title>
<g id="a_node28"><a xlink:href="neural__layer__noise_8c.html" target="_top" xlink:title="An implementation of a Gaussian noise adding layer. ">
<polygon fill="none" stroke="#000000" points="2152.5,-.5 2152.5,-19.5 2258.5,-19.5 2258.5,-.5 2152.5,-.5"/>
<text text-anchor="middle" x="2205.5" y="-7.5" font-family="Helvetica,sans-Serif" font-size="10.00" fill="#000000">neural_layer_noise.c</text>
</a>
</g>
</g>
<!-- Node1&#45;&gt;Node28 -->
<g id="edge27" class="edge">
<title>Node1&#45;&gt;Node28</title>
<path fill="none" stroke="#191970" d="M1635.8554,-64.0926C1719.8369,-58.9579 1951.6005,-43.6156 2143.5,-20 2146.4218,-19.6404 2149.4169,-19.2455 2152.4374,-18.8266"/>
<polygon fill="#191970" stroke="#191970" points="1635.4497,-60.6107 1625.6796,-64.7088 1635.8729,-67.5979 1635.4497,-60.6107"/>
</g>
<!-- Node29 -->
<g id="node29" class="node">
<title>Node29</title>
<g id="a_node29"><a xlink:href="neural__layer__softmax_8c.html" target="_top" xlink:title="An implementation of a softmax layer. ">
<polygon fill="none" stroke="#000000" points="2276.5,-.5 2276.5,-19.5 2394.5,-19.5 2394.5,-.5 2276.5,-.5"/>
<text text-anchor="middle" x="2335.5" y="-7.5" font-family="Helvetica,sans-Serif" font-size="10.00" fill="#000000">neural_layer_softmax.c</text>
</a>
</g>
</g>
<!-- Node1&#45;&gt;Node29 -->
<g id="edge28" class="edge">
<title>Node1&#45;&gt;Node29</title>
<path fill="none" stroke="#191970" d="M1635.87,-64.6405C1732.2226,-60.4042 2025.5131,-46.1362 2267.5,-20 2270.3472,-19.6925 2273.2583,-19.3547 2276.1961,-18.9951"/>
<polygon fill="#191970" stroke="#191970" points="1635.4603,-61.1549 1625.6216,-65.0857 1635.7641,-68.1483 1635.4603,-61.1549"/>
</g>
<!-- Node30 -->
<g id="node30" class="node">
<title>Node30</title>
<g id="a_node30"><a xlink:href="pa_8c.html" target="_top" xlink:title="Prediction array functions. ">
<polygon fill="none" stroke="#000000" points="2413,-.5 2413,-19.5 2448,-19.5 2448,-.5 2413,-.5"/>
<text text-anchor="middle" x="2430.5" y="-7.5" font-family="Helvetica,sans-Serif" font-size="10.00" fill="#000000">pa.c</text>
</a>
</g>
</g>
<!-- Node1&#45;&gt;Node30 -->
<g id="edge29" class="edge">
<title>Node1&#45;&gt;Node30</title>
<path fill="none" stroke="#191970" d="M1635.7701,-65.4207C1765.9921,-62.8863 2253.0021,-51.4599 2403.5,-20 2406.5336,-19.3659 2409.6815,-18.4523 2412.7104,-17.4319"/>
<polygon fill="#191970" stroke="#191970" points="1635.5803,-61.9236 1625.6489,-65.6136 1635.7138,-68.9223 1635.5803,-61.9236"/>
</g>
<!-- Node31 -->
<g id="node31" class="node">
<title>Node31</title>
<g id="a_node31"><a xlink:href="perf_8c.html" target="_top" xlink:title="System performance printing and plotting with Gnuplot. ">
<polygon fill="none" stroke="#000000" points="2466,-.5 2466,-19.5 2507,-19.5 2507,-.5 2466,-.5"/>
<text text-anchor="middle" x="2486.5" y="-7.5" font-family="Helvetica,sans-Serif" font-size="10.00" fill="#000000">perf.c</text>
</a>
</g>
</g>
<!-- Node1&#45;&gt;Node31 -->
<g id="edge30" class="edge">
<title>Node1&#45;&gt;Node31</title>
<path fill="none" stroke="#191970" d="M1635.7055,-65.4613C1771.2212,-63.0104 2295.5777,-51.6341 2457.5,-20 2460.218,-19.469 2463.0283,-18.7411 2465.7813,-17.9183"/>
<polygon fill="#191970" stroke="#191970" points="1635.5025,-61.9642 1625.5661,-65.641 1635.6266,-68.9631 1635.5025,-61.9642"/>
</g>
<!-- Node32 -->
<g id="node32" class="node">
<title>Node32</title>
<g id="a_node32"><a xlink:href="pred__neural_8c.html" target="_top" xlink:title="Multi&#45;layer perceptron neural network prediction functions. ">
<polygon fill="none" stroke="#000000" points="2525,-.5 2525,-19.5 2600,-19.5 2600,-.5 2525,-.5"/>
<text text-anchor="middle" x="2562.5" y="-7.5" font-family="Helvetica,sans-Serif" font-size="10.00" fill="#000000">pred_neural.c</text>
</a>
</g>
</g>
<!-- Node1&#45;&gt;Node32 -->
<g id="edge31" class="edge">
<title>Node1&#45;&gt;Node32</title>
<path fill="none" stroke="#191970" d="M1636.0037,-65.0771C1777.5509,-60.948 2340.9387,-43.3455 2516.5,-20 2519.2545,-19.6337 2522.0887,-19.1883 2524.9328,-18.6913"/>
<polygon fill="#191970" stroke="#191970" points="1635.7086,-61.5841 1625.8142,-65.3722 1635.9113,-68.5811 1635.7086,-61.5841"/>
</g>
<!-- Node33 -->
<g id="node33" class="node">
<title>Node33</title>
<g id="a_node33"><a xlink:href="pred__nlms_8c.html" target="_top" xlink:title="Normalised least mean squares prediction functions. ">
<polygon fill="none" stroke="#000000" points="2618.5,-.5 2618.5,-19.5 2688.5,-19.5 2688.5,-.5 2618.5,-.5"/>
<text text-anchor="middle" x="2653.5" y="-7.5" font-family="Helvetica,sans-Serif" font-size="10.00" fill="#000000">pred_nlms.c</text>
</a>
</g>
</g>
<!-- Node1&#45;&gt;Node33 -->
<g id="edge32" class="edge">
<title>Node1&#45;&gt;Node33</title>
<path fill="none" stroke="#191970" d="M1635.8626,-65.295C1785.8968,-61.908 2414.6994,-46.3767 2609.5,-20 2612.2946,-19.6216 2615.1734,-19.1519 2618.0573,-18.624"/>
<polygon fill="#191970" stroke="#191970" points="1635.4318,-61.8037 1625.5126,-65.5265 1635.5884,-68.8019 1635.4318,-61.8037"/>
</g>
<!-- Node34 -->
<g id="node34" class="node">
<title>Node34</title>
<g id="a_node34"><a xlink:href="pred__rls_8c.html" target="_top" xlink:title="Recursive least mean squares prediction functions. ">
<polygon fill="none" stroke="#000000" points="2707,-.5 2707,-19.5 2766,-19.5 2766,-.5 2707,-.5"/>
<text text-anchor="middle" x="2736.5" y="-7.5" font-family="Helvetica,sans-Serif" font-size="10.00" fill="#000000">pred_rls.c</text>
</a>
</g>
</g>
<!-- Node1&#45;&gt;Node34 -->
<g id="edge33" class="edge">
<title>Node1&#45;&gt;Node34</title>
<path fill="none" stroke="#191970" d="M1635.665,-65.5542C1793.2412,-63.2319 2484.7079,-51.4018 2697.5,-20 2700.5426,-19.551 2703.6914,-18.9609 2706.82,-18.2916"/>
<polygon fill="#191970" stroke="#191970" points="1635.6091,-62.0546 1625.6609,-65.6993 1635.7107,-69.0538 1635.6091,-62.0546"/>
</g>
<!-- Node35 -->
<g id="node35" class="node">
<title>Node35</title>
<g id="a_node35"><a xlink:href="prediction_8c.html" target="_top" xlink:title="Interface for classifier predictions. ">
<polygon fill="none" stroke="#000000" points="2784,-.5 2784,-19.5 2851,-19.5 2851,-.5 2784,-.5"/>
<text text-anchor="middle" x="2817.5" y="-7.5" font-family="Helvetica,sans-Serif" font-size="10.00" fill="#000000">prediction.c</text>
</a>
</g>
</g>
<!-- Node1&#45;&gt;Node35 -->
<g id="edge34" class="edge">
<title>Node1&#45;&gt;Node35</title>
<path fill="none" stroke="#191970" d="M1636.324,-65.5745C1801.8961,-63.2965 2546.4968,-51.4513 2775.5,-20 2778.1733,-19.6329 2780.9253,-19.1712 2783.681,-18.6489"/>
<polygon fill="#191970" stroke="#191970" points="1635.793,-62.0813 1625.8413,-65.7165 1635.8879,-69.0806 1635.793,-62.0813"/>
</g>
<!-- Node36 -->
<g id="node36" class="node">
<title>Node36</title>
<g id="a_node36"><a xlink:href="python__wrapper_8cpp.html" target="_top" xlink:title="Python library wrapper functions. ">
<polygon fill="none" stroke="#000000" points="2869.5,-.5 2869.5,-19.5 2973.5,-19.5 2973.5,-.5 2869.5,-.5"/>
<text text-anchor="middle" x="2921.5" y="-7.5" font-family="Helvetica,sans-Serif" font-size="10.00" fill="#000000">python_wrapper.cpp</text>
</a>
</g>
</g>
<!-- Node1&#45;&gt;Node36 -->
<g id="edge35" class="edge">
<title>Node1&#45;&gt;Node36</title>
<path fill="none" stroke="#191970" d="M1635.6351,-65.3733C1806.7565,-61.9523 2612.4012,-44.7761 2860.5,-20 2863.3832,-19.7121 2866.3368,-19.3736 2869.3138,-18.9986"/>
<polygon fill="#191970" stroke="#191970" points="1635.4411,-61.8763 1625.5126,-65.5743 1635.5802,-68.8749 1635.4411,-61.8763"/>
</g>
<!-- Node37 -->
<g id="node37" class="node">
<title>Node37</title>
<g id="a_node37"><a xlink:href="rule__dgp_8c.html" target="_top" xlink:title="Dynamical GP graph rule (condition + action) functions. ">
<polygon fill="none" stroke="#000000" points="2991.5,-.5 2991.5,-19.5 3053.5,-19.5 3053.5,-.5 2991.5,-.5"/>
<text text-anchor="middle" x="3022.5" y="-7.5" font-family="Helvetica,sans-Serif" font-size="10.00" fill="#000000">rule_dgp.c</text>
</a>
</g>
</g>
<!-- Node1&#45;&gt;Node37 -->
<g id="edge36" class="edge">
<title>Node1&#45;&gt;Node37</title>
<path fill="none" stroke="#191970" d="M1635.8764,-65.8498C1817.3918,-64.8669 2710.2102,-58.1389 2982.5,-20 2985.3356,-19.6028 2988.2616,-19.0856 2991.1806,-18.4956"/>
<polygon fill="#191970" stroke="#191970" points="1635.6356,-62.3509 1625.654,-65.9031 1635.6722,-69.3508 1635.6356,-62.3509"/>
</g>
<!-- Node38 -->
<g id="node38" class="node">
<title>Node38</title>
<g id="a_node38"><a xlink:href="rule__neural_8c.html" target="_top" xlink:title="Neural network rule (condition + action) functions. ">
<polygon fill="none" stroke="#000000" points="3071.5,-.5 3071.5,-19.5 3143.5,-19.5 3143.5,-.5 3071.5,-.5"/>
<text text-anchor="middle" x="3107.5" y="-7.5" font-family="Helvetica,sans-Serif" font-size="10.00" fill="#000000">rule_neural.c</text>
</a>
</g>
</g>
<!-- Node1&#45;&gt;Node38 -->
<g id="edge37" class="edge">
<title>Node1&#45;&gt;Node38</title>
<path fill="none" stroke="#191970" d="M1635.6565,-65.8048C1822.7584,-64.5452 2772.8334,-56.4256 3062.5,-20 3065.3586,-19.6405 3068.3031,-19.1844 3071.2528,-18.6659"/>
<polygon fill="#191970" stroke="#191970" points="1635.6099,-62.3049 1625.6331,-65.8706 1635.6559,-69.3048 1635.6099,-62.3049"/>
</g>
<!-- Node39 -->
<g id="node39" class="node">
<title>Node39</title>
<g id="a_node39"><a xlink:href="sam_8c.html" target="_top" xlink:title="Self&#45;adaptive mutation functions. ">
<polygon fill="none" stroke="#000000" points="3161.5,-.5 3161.5,-19.5 3205.5,-19.5 3205.5,-.5 3161.5,-.5"/>
<text text-anchor="middle" x="3183.5" y="-7.5" font-family="Helvetica,sans-Serif" font-size="10.00" fill="#000000">sam.c</text>
</a>
</g>
</g>
<!-- Node1&#45;&gt;Node39 -->
<g id="edge38" class="edge">
<title>Node1&#45;&gt;Node39</title>
<path fill="none" stroke="#191970" d="M1635.7962,-65.588C1844.4481,-62.8536 2998.2565,-46.6143 3152.5,-20 3155.3978,-19.5 3158.3974,-18.7905 3161.3379,-17.9773"/>
<polygon fill="#191970" stroke="#191970" points="1635.4687,-62.0918 1625.5151,-65.7218 1635.5598,-69.0912 1635.4687,-62.0918"/>
</g>
<!-- Node40 -->
<g id="node40" class="node">
<title>Node40</title>
<g id="a_node40"><a xlink:href="xcs__multi__step_8c.html" target="_top" xlink:title="Multi&#45;step reinforcement learning functions. ">
<polygon fill="none" stroke="#000000" points="3224,-.5 3224,-19.5 3315,-19.5 3315,-.5 3224,-.5"/>
<text text-anchor="middle" x="3269.5" y="-7.5" font-family="Helvetica,sans-Serif" font-size="10.00" fill="#000000">xcs_multi_step.c</text>
</a>
</g>
</g>
<!-- Node1&#45;&gt;Node40 -->
<g id="edge39" class="edge">
<title>Node1&#45;&gt;Node40</title>
<path fill="none" stroke="#191970" d="M1635.798,-65.7448C1834.4083,-64.0745 2892.2284,-53.7027 3214.5,-20 3217.5888,-19.677 3220.7648,-19.2785 3223.9579,-18.8284"/>
<polygon fill="#191970" stroke="#191970" points="1635.6886,-62.2454 1625.7179,-65.8282 1635.7466,-69.2452 1635.6886,-62.2454"/>
</g>
<!-- Node41 -->
<g id="node41" class="node">
<title>Node41</title>
<g id="a_node41"><a xlink:href="xcs__single__step_8c.html" target="_top" xlink:title="Single&#45;step reinforcement learning functions. ">
<polygon fill="none" stroke="#000000" points="3333,-.5 3333,-19.5 3428,-19.5 3428,-.5 3333,-.5"/>
<text text-anchor="middle" x="3380.5" y="-7.5" font-family="Helvetica,sans-Serif" font-size="10.00" fill="#000000">xcs_single_step.c</text>
</a>
</g>
</g>
<!-- Node1&#45;&gt;Node41 -->
<g id="edge40" class="edge">
<title>Node1&#45;&gt;Node41</title>
<path fill="none" stroke="#191970" d="M1635.6974,-65.7996C1841.8373,-64.417 2978.8858,-55.2761 3324.5,-20 3327.251,-19.7192 3330.0701,-19.3802 3332.9096,-18.9991"/>
<polygon fill="#191970" stroke="#191970" points="1635.5129,-62.3006 1625.5362,-65.8664 1635.5591,-69.3005 1635.5129,-62.3006"/>
</g>
<!-- Node42 -->
<g id="node42" class="node">
<title>Node42</title>
<g id="a_node42"><a xlink:href="xcsf_8c.html" target="_top" xlink:title="High level XCSF functions for executing training, predicting, saving and reloading the system from pe...">
<polygon fill="none" stroke="#000000" points="3446.5,-.5 3446.5,-19.5 3490.5,-19.5 3490.5,-.5 3446.5,-.5"/>
<text text-anchor="middle" x="3468.5" y="-7.5" font-family="Helvetica,sans-Serif" font-size="10.00" fill="#000000">xcsf.c</text>
</a>
</g>
</g>
<!-- Node1&#45;&gt;Node42 -->
<g id="edge41" class="edge">
<title>Node1&#45;&gt;Node42</title>
<path fill="none" stroke="#191970" d="M1635.7959,-65.7476C1865.9219,-63.8756 3253.3059,-51.3451 3437.5,-20 3440.3989,-19.5067 3443.3992,-18.8012 3446.3401,-17.99"/>
<polygon fill="#191970" stroke="#191970" points="1635.6931,-62.2482 1625.7217,-65.8287 1635.7495,-69.248 1635.6931,-62.2482"/>
</g>
</g>
</svg>
