<?xml version="1.0" encoding="UTF-8" standalone="no"?>
<!DOCTYPE svg PUBLIC "-//W3C//DTD SVG 1.1//EN"
 "http://www.w3.org/Graphics/SVG/1.1/DTD/svg11.dtd">
<!-- Generated by graphviz version 2.40.1 (20161225.0304)
 -->
<!-- Title: xcsf_test_trial Pages: 1 -->
<svg width="1523pt" height="617pt"
 viewBox="0.00 0.00 1523.00 617.00" xmlns="http://www.w3.org/2000/svg" xmlns:xlink="http://www.w3.org/1999/xlink">
<g id="graph0" class="graph" transform="scale(1 1) rotate(0) translate(4 613)">
<title>xcsf_test_trial</title>
<!-- Node547 -->
<g id="node1" class="node">
<title>Node547</title>
<polygon fill="#bfbfbf" stroke="#000000" points="0,-280.5 0,-299.5 78,-299.5 78,-280.5 0,-280.5"/>
<text text-anchor="middle" x="39" y="-287.5" font-family="Helvetica,sans-Serif" font-size="10.00" fill="#000000">xcsf_test_trial</text>
</g>
<!-- Node548 -->
<g id="node2" class="node">
<title>Node548</title>
<g id="a_node2"><a xlink:href="clset_8c.html#a75789e37a9512f6358e710580ad17d87" target="_top" xlink:title="Frees the set, but not the classifiers. ">
<polygon fill="none" stroke="#000000" points="119.5,-356.5 119.5,-375.5 178.5,-375.5 178.5,-356.5 119.5,-356.5"/>
<text text-anchor="middle" x="149" y="-363.5" font-family="Helvetica,sans-Serif" font-size="10.00" fill="#000000">clset_free</text>
</a>
</g>
</g>
<!-- Node547&#45;&gt;Node548 -->
<g id="edge1" class="edge">
<title>Node547&#45;&gt;Node548</title>
<path fill="none" stroke="#191970" d="M50.5454,-299.6596C64.9374,-311.4896 90.5098,-331.8237 114,-347 116.3157,-348.4961 118.7592,-349.9871 121.2344,-351.4383"/>
<polygon fill="#191970" stroke="#191970" points="119.7342,-354.61 130.1667,-356.4577 123.1634,-348.5075 119.7342,-354.61"/>
</g>
<!-- Node549 -->
<g id="node3" class="node">
<title>Node549</title>
<g id="a_node3"><a xlink:href="clset_8c.html#a7feb00168d3dbd1d0597301029aed664" target="_top" xlink:title="Initialises a new set. ">
<polygon fill="none" stroke="#000000" points="121,-318.5 121,-337.5 177,-337.5 177,-318.5 121,-318.5"/>
<text text-anchor="middle" x="149" y="-325.5" font-family="Helvetica,sans-Serif" font-size="10.00" fill="#000000">clset_init</text>
</a>
</g>
</g>
<!-- Node547&#45;&gt;Node549 -->
<g id="edge2" class="edge">
<title>Node547&#45;&gt;Node549</title>
<path fill="none" stroke="#191970" d="M66.7576,-299.589C80.3062,-304.2694 96.8055,-309.9692 111.4597,-315.0315"/>
<polygon fill="#191970" stroke="#191970" points="110.6565,-318.457 121.2512,-318.4141 112.9422,-311.8406 110.6565,-318.457"/>
</g>
<!-- Node550 -->
<g id="node4" class="node">
<title>Node550</title>
<g id="a_node4"><a xlink:href="clset_8c.html#aad012238caff12fcd827b1e282c9a4ef" target="_top" xlink:title="Frees the set and the classifiers. ">
<polygon fill="none" stroke="#000000" points="121.5,-280.5 121.5,-299.5 176.5,-299.5 176.5,-280.5 121.5,-280.5"/>
<text text-anchor="middle" x="149" y="-287.5" font-family="Helvetica,sans-Serif" font-size="10.00" fill="#000000">clset_kill</text>
</a>
</g>
</g>
<!-- Node547&#45;&gt;Node550 -->
<g id="edge3" class="edge">
<title>Node547&#45;&gt;Node550</title>
<path fill="none" stroke="#191970" d="M78.0916,-290C88.8365,-290 100.4677,-290 111.1418,-290"/>
<polygon fill="#191970" stroke="#191970" points="111.4287,-293.5001 121.4287,-290 111.4286,-286.5001 111.4287,-293.5001"/>
</g>
<!-- Node556 -->
<g id="node10" class="node">
<title>Node556</title>
<g id="a_node10"><a xlink:href="clset_8c.html#a460e3bd1d979c502e9e9d97d4253f97c" target="_top" xlink:title="Constructs the match set. ">
<polygon fill="none" stroke="#000000" points="114,-242.5 114,-261.5 184,-261.5 184,-242.5 114,-242.5"/>
<text text-anchor="middle" x="149" y="-249.5" font-family="Helvetica,sans-Serif" font-size="10.00" fill="#000000">clset_match</text>
</a>
</g>
</g>
<!-- Node547&#45;&gt;Node556 -->
<g id="edge9" class="edge">
<title>Node547&#45;&gt;Node556</title>
<path fill="none" stroke="#191970" d="M66.7576,-280.411C80.3062,-275.7306 96.8055,-270.0308 111.4597,-264.9685"/>
<polygon fill="#191970" stroke="#191970" points="112.9422,-268.1594 121.2512,-261.5859 110.6565,-261.543 112.9422,-268.1594"/>
</g>
<!-- Node595 -->
<g id="node49" class="node">
<title>Node595</title>
<g id="a_node49"><a xlink:href="clset_8c.html#a7146a28cbf1fbbcc90f8bb583144fb12" target="_top" xlink:title="Calculates the set mean fitness weighted prediction. ">
<polygon fill="none" stroke="#000000" points="118,-157.5 118,-176.5 180,-176.5 180,-157.5 118,-157.5"/>
<text text-anchor="middle" x="149" y="-164.5" font-family="Helvetica,sans-Serif" font-size="10.00" fill="#000000">clset_pred</text>
</a>
</g>
</g>
<!-- Node547&#45;&gt;Node595 -->
<g id="edge52" class="edge">
<title>Node547&#45;&gt;Node595</title>
<path fill="none" stroke="#191970" d="M47.6315,-280.3484C66.1863,-259.6008 110.0871,-210.5117 133.5624,-184.262"/>
<polygon fill="#191970" stroke="#191970" points="136.3513,-186.394 140.4086,-176.6068 131.1335,-181.7276 136.3513,-186.394"/>
</g>
<!-- Node551 -->
<g id="node5" class="node">
<title>Node551</title>
<g id="a_node5"><a xlink:href="cl_8c.html#a2bba8869890a67c2412a358c8f3ec0b4" target="_top" xlink:title="Frees the memory used by the classifier. ">
<polygon fill="none" stroke="#000000" points="230.5,-513.5 230.5,-532.5 276.5,-532.5 276.5,-513.5 230.5,-513.5"/>
<text text-anchor="middle" x="253.5" y="-520.5" font-family="Helvetica,sans-Serif" font-size="10.00" fill="#000000">cl_free</text>
</a>
</g>
</g>
<!-- Node550&#45;&gt;Node551 -->
<g id="edge4" class="edge">
<title>Node550&#45;&gt;Node551</title>
<path fill="none" stroke="#191970" d="M173.2818,-299.6488C177.335,-302.1748 181.1435,-305.2658 184,-309 226.1806,-364.1412 195.2858,-396.1235 220,-461 225.8423,-476.3365 234.7599,-492.6236 241.9258,-504.6543"/>
<polygon fill="#191970" stroke="#191970" points="239.0032,-506.5839 247.205,-513.2907 244.9757,-502.933 239.0032,-506.5839"/>
</g>
<!-- Node552 -->
<g id="node6" class="node">
<title>Node552</title>
<g id="a_node6"><a xlink:href="action_8h.html#a2e77a50c24d06a37f2fc5aab8e3ecbac" target="_top" xlink:title="act_free">
<polygon fill="none" stroke="#000000" points="356.5,-513.5 356.5,-532.5 408.5,-532.5 408.5,-513.5 356.5,-513.5"/>
<text text-anchor="middle" x="382.5" y="-520.5" font-family="Helvetica,sans-Serif" font-size="10.00" fill="#000000">act_free</text>
</a>
</g>
</g>
<!-- Node551&#45;&gt;Node552 -->
<g id="edge5" class="edge">
<title>Node551&#45;&gt;Node552</title>
<path fill="none" stroke="#191970" d="M276.5626,-523C295.8319,-523 323.6577,-523 345.9563,-523"/>
<polygon fill="#191970" stroke="#191970" points="346.0788,-526.5001 356.0788,-523 346.0787,-519.5001 346.0788,-526.5001"/>
</g>
<!-- Node553 -->
<g id="node7" class="node">
<title>Node553</title>
<g id="a_node7"><a xlink:href="condition_8h.html#a3359b327b7de91f97ce0fb0cee911d04" target="_top" xlink:title="cond_free">
<polygon fill="none" stroke="#000000" points="353,-475.5 353,-494.5 412,-494.5 412,-475.5 353,-475.5"/>
<text text-anchor="middle" x="382.5" y="-482.5" font-family="Helvetica,sans-Serif" font-size="10.00" fill="#000000">cond_free</text>
</a>
</g>
</g>
<!-- Node551&#45;&gt;Node553 -->
<g id="edge6" class="edge">
<title>Node551&#45;&gt;Node553</title>
<path fill="none" stroke="#191970" d="M276.5626,-516.2064C295.0392,-510.7636 321.383,-503.0035 343.1774,-496.5834"/>
<polygon fill="#191970" stroke="#191970" points="344.2229,-499.9242 352.8264,-493.7411 342.2449,-493.2095 344.2229,-499.9242"/>
</g>
<!-- Node554 -->
<g id="node8" class="node">
<title>Node554</title>
<g id="a_node8"><a xlink:href="prediction_8h.html#a43bac629eb9434b643605a214f5d5876" target="_top" xlink:title="pred_free">
<polygon fill="none" stroke="#000000" points="354,-589.5 354,-608.5 411,-608.5 411,-589.5 354,-589.5"/>
<text text-anchor="middle" x="382.5" y="-596.5" font-family="Helvetica,sans-Serif" font-size="10.00" fill="#000000">pred_free</text>
</a>
</g>
</g>
<!-- Node551&#45;&gt;Node554 -->
<g id="edge7" class="edge">
<title>Node551&#45;&gt;Node554</title>
<path fill="none" stroke="#191970" d="M262.9815,-532.806C275.6108,-545.3585 299.1453,-567.03 323,-580 329.5496,-583.5611 336.8726,-586.5797 344.0812,-589.0905"/>
<polygon fill="#191970" stroke="#191970" points="343.1654,-592.4725 353.7568,-592.2028 345.3089,-585.8088 343.1654,-592.4725"/>
</g>
<!-- Node555 -->
<g id="node9" class="node">
<title>Node555</title>
<g id="a_node9"><a xlink:href="sam_8c.html#a0f3791bc58a3d67f38670151d1cd4418" target="_top" xlink:title="Frees the self&#45;adaptive mutation rates. ">
<polygon fill="none" stroke="#000000" points="354,-551.5 354,-570.5 411,-570.5 411,-551.5 354,-551.5"/>
<text text-anchor="middle" x="382.5" y="-558.5" font-family="Helvetica,sans-Serif" font-size="10.00" fill="#000000">sam_free</text>
</a>
</g>
</g>
<!-- Node551&#45;&gt;Node555 -->
<g id="edge8" class="edge">
<title>Node551&#45;&gt;Node555</title>
<path fill="none" stroke="#191970" d="M276.5626,-529.7936C295.2906,-535.3104 322.1013,-543.2081 344.0644,-549.6779"/>
<polygon fill="#191970" stroke="#191970" points="343.1866,-553.0679 353.7681,-552.5363 345.1646,-546.3532 343.1866,-553.0679"/>
</g>
<!-- Node557 -->
<g id="node11" class="node">
<title>Node557</title>
<g id="a_node11"><a xlink:href="cl_8c.html#a03bd37ba4e5697866192d6f643a50de3" target="_top" xlink:title="Computes the current classifier action using the input. ">
<polygon fill="none" stroke="#000000" points="225.5,-242.5 225.5,-261.5 281.5,-261.5 281.5,-242.5 225.5,-242.5"/>
<text text-anchor="middle" x="253.5" y="-249.5" font-family="Helvetica,sans-Serif" font-size="10.00" fill="#000000">cl_action</text>
</a>
</g>
</g>
<!-- Node556&#45;&gt;Node557 -->
<g id="edge10" class="edge">
<title>Node556&#45;&gt;Node557</title>
<path fill="none" stroke="#191970" d="M184.0877,-252C194.0333,-252 204.9121,-252 215.0453,-252"/>
<polygon fill="#191970" stroke="#191970" points="215.2649,-255.5001 225.2649,-252 215.2649,-248.5001 215.2649,-255.5001"/>
</g>
<!-- Node559 -->
<g id="node13" class="node">
<title>Node559</title>
<g id="a_node13"><a xlink:href="cl_8c.html#ad26f65e65f9785ce44ece9979362d889" target="_top" xlink:title="Returns whether the classifier matched the most recent input. ">
<polygon fill="none" stroke="#000000" points="234.5,-204.5 234.5,-223.5 272.5,-223.5 272.5,-204.5 234.5,-204.5"/>
<text text-anchor="middle" x="253.5" y="-211.5" font-family="Helvetica,sans-Serif" font-size="10.00" fill="#000000">cl_m</text>
</a>
</g>
</g>
<!-- Node556&#45;&gt;Node559 -->
<g id="edge12" class="edge">
<title>Node556&#45;&gt;Node559</title>
<path fill="none" stroke="#191970" d="M175.3698,-242.411C190.4478,-236.9281 209.3727,-230.0463 224.8202,-224.429"/>
<polygon fill="#191970" stroke="#191970" points="226.1921,-227.6545 234.3939,-220.9477 223.7998,-221.0759 226.1921,-227.6545"/>
</g>
<!-- Node560 -->
<g id="node14" class="node">
<title>Node560</title>
<g id="a_node14"><a xlink:href="cl_8c.html#af5a666538852ce0406d5d8ad933f92f7" target="_top" xlink:title="Calculates whether the classifier matches the input. ">
<polygon fill="none" stroke="#000000" points="225.5,-147.5 225.5,-166.5 281.5,-166.5 281.5,-147.5 225.5,-147.5"/>
<text text-anchor="middle" x="253.5" y="-154.5" font-family="Helvetica,sans-Serif" font-size="10.00" fill="#000000">cl_match</text>
</a>
</g>
</g>
<!-- Node556&#45;&gt;Node560 -->
<g id="edge13" class="edge">
<title>Node556&#45;&gt;Node560</title>
<path fill="none" stroke="#191970" d="M159.7897,-242.1911C177.6385,-225.965 213.5021,-193.3617 235.3181,-173.529"/>
<polygon fill="#191970" stroke="#191970" points="237.8795,-175.9306 242.9246,-166.614 233.1708,-170.751 237.8795,-175.9306"/>
</g>
<!-- Node562 -->
<g id="node16" class="node">
<title>Node562</title>
<g id="a_node16"><a xlink:href="clset_8c.html#a73ab8d4cc3a3e4f70561c7f5bf20c265" target="_top" xlink:title="Adds a classifier to the set. ">
<polygon fill="none" stroke="#000000" points="600,-456.5 600,-475.5 659,-475.5 659,-456.5 600,-456.5"/>
<text text-anchor="middle" x="629.5" y="-463.5" font-family="Helvetica,sans-Serif" font-size="10.00" fill="#000000">clset_add</text>
</a>
</g>
</g>
<!-- Node556&#45;&gt;Node562 -->
<g id="edge15" class="edge">
<title>Node556&#45;&gt;Node562</title>
<path fill="none" stroke="#191970" d="M169.8113,-261.6278C174.695,-264.3295 179.7185,-267.4982 184,-271 203.2933,-286.7799 203.26,-295.5336 220,-314 263.905,-362.4328 264.8237,-389.1855 323,-419 410.2267,-463.7024 528.4127,-468.5929 589.4009,-467.6892"/>
<polygon fill="#191970" stroke="#191970" points="589.8247,-471.1812 599.7487,-467.4712 589.6771,-464.1827 589.8247,-471.1812"/>
</g>
<!-- Node563 -->
<g id="node17" class="node">
<title>Node563</title>
<g id="a_node17"><a xlink:href="clset_8c.html#afc4b91ff72294195a5462944b92ec9b2" target="_top" xlink:title="Ensures all possible actions are covered by the match set. ">
<polygon fill="none" stroke="#000000" points="220,-285.5 220,-304.5 287,-304.5 287,-285.5 220,-285.5"/>
<text text-anchor="middle" x="253.5" y="-292.5" font-family="Helvetica,sans-Serif" font-size="10.00" fill="#000000">clset_cover</text>
</a>
</g>
</g>
<!-- Node556&#45;&gt;Node563 -->
<g id="edge16" class="edge">
<title>Node556&#45;&gt;Node563</title>
<path fill="none" stroke="#191970" d="M172.1919,-261.5431C186.5329,-267.4442 205.1562,-275.1073 220.9604,-281.6105"/>
<polygon fill="#191970" stroke="#191970" points="219.7933,-284.9149 230.3729,-285.4836 222.4571,-278.4416 219.7933,-284.9149"/>
</g>
<!-- Node558 -->
<g id="node12" class="node">
<title>Node558</title>
<g id="a_node12"><a xlink:href="action_8h.html#aab6ebb454826f8e9425efc0ed2917023" target="_top" xlink:title="act_compute">
<polygon fill="none" stroke="#000000" points="346,-171.5 346,-190.5 419,-190.5 419,-171.5 346,-171.5"/>
<text text-anchor="middle" x="382.5" y="-178.5" font-family="Helvetica,sans-Serif" font-size="10.00" fill="#000000">act_compute</text>
</a>
</g>
</g>
<!-- Node557&#45;&gt;Node558 -->
<g id="edge11" class="edge">
<title>Node557&#45;&gt;Node558</title>
<path fill="none" stroke="#191970" d="M272.0467,-242.4672C277.0437,-239.637 282.3501,-236.3828 287,-233 304.5519,-220.2312 304.2237,-210.8886 323,-200 327.1773,-197.5775 331.7016,-195.4229 336.326,-193.5163"/>
<polygon fill="#191970" stroke="#191970" points="337.7382,-196.725 345.8793,-189.9446 335.2868,-190.1683 337.7382,-196.725"/>
</g>
<!-- Node561 -->
<g id="node15" class="node">
<title>Node561</title>
<g id="a_node15"><a xlink:href="condition_8h.html#a921ad37edd9a0af1c245bd9a490e3527" target="_top" xlink:title="cond_match">
<polygon fill="none" stroke="#000000" points="347.5,-133.5 347.5,-152.5 417.5,-152.5 417.5,-133.5 347.5,-133.5"/>
<text text-anchor="middle" x="382.5" y="-140.5" font-family="Helvetica,sans-Serif" font-size="10.00" fill="#000000">cond_match</text>
</a>
</g>
</g>
<!-- Node560&#45;&gt;Node561 -->
<g id="edge14" class="edge">
<title>Node560&#45;&gt;Node561</title>
<path fill="none" stroke="#191970" d="M281.8096,-153.9276C298.0799,-152.1619 318.8927,-149.9031 337.3685,-147.898"/>
<polygon fill="#191970" stroke="#191970" points="337.7848,-151.3735 347.3487,-146.8149 337.0294,-144.4143 337.7848,-151.3735"/>
</g>
<!-- Node563&#45;&gt;Node562 -->
<g id="edge40" class="edge">
<title>Node563&#45;&gt;Node562</title>
<path fill="none" stroke="#191970" d="M257.5756,-304.6963C266.3653,-324.3202 289.0906,-368.6825 323,-390 411.7809,-445.813 454.8203,-401.9974 555,-433 563.8679,-435.7443 583.2238,-444.3481 599.9832,-452.0821"/>
<polygon fill="#191970" stroke="#191970" points="598.9086,-455.4422 609.452,-456.4844 601.8598,-449.0947 598.9086,-455.4422"/>
</g>
<!-- Node564 -->
<g id="node18" class="node">
<title>Node564</title>
<g id="a_node18"><a xlink:href="cl_8c.html#a502630fa339b234b42b9b859a8c70986" target="_top" xlink:title="Covers the condition and action for a classifier. ">
<polygon fill="none" stroke="#000000" points="356,-285.5 356,-304.5 409,-304.5 409,-285.5 356,-285.5"/>
<text text-anchor="middle" x="382.5" y="-292.5" font-family="Helvetica,sans-Serif" font-size="10.00" fill="#000000">cl_cover</text>
</a>
</g>
</g>
<!-- Node563&#45;&gt;Node564 -->
<g id="edge17" class="edge">
<title>Node563&#45;&gt;Node564</title>
<path fill="none" stroke="#191970" d="M287.0565,-295C304.9877,-295 327.1003,-295 345.5247,-295"/>
<polygon fill="#191970" stroke="#191970" points="345.6083,-298.5001 355.6083,-295 345.6082,-291.5001 345.6083,-298.5001"/>
</g>
<!-- Node574 -->
<g id="node28" class="node">
<title>Node574</title>
<g id="a_node28"><a xlink:href="cl_8c.html#ab45c6f772a335d0a4fdb753a61958744" target="_top" xlink:title="Initialises a new classifier. ">
<polygon fill="none" stroke="#000000" points="361.5,-247.5 361.5,-266.5 403.5,-266.5 403.5,-247.5 361.5,-247.5"/>
<text text-anchor="middle" x="382.5" y="-254.5" font-family="Helvetica,sans-Serif" font-size="10.00" fill="#000000">cl_init</text>
</a>
</g>
</g>
<!-- Node563&#45;&gt;Node574 -->
<g id="edge27" class="edge">
<title>Node563&#45;&gt;Node574</title>
<path fill="none" stroke="#191970" d="M286.0521,-285.411C306.137,-279.4945 331.7513,-271.9492 351.5348,-266.1215"/>
<polygon fill="#191970" stroke="#191970" points="352.6851,-269.4314 361.2886,-263.2483 350.7071,-262.7167 352.6851,-269.4314"/>
</g>
<!-- Node585 -->
<g id="node39" class="node">
<title>Node585</title>
<g id="a_node39"><a xlink:href="clset_8c.html#a1be391cf8ecd96d1a71b1dc6a7feb4a9" target="_top" xlink:title="Returns whether an action is covered by the set. ">
<polygon fill="none" stroke="#000000" points="328,-209.5 328,-228.5 437,-228.5 437,-209.5 328,-209.5"/>
<text text-anchor="middle" x="382.5" y="-216.5" font-family="Helvetica,sans-Serif" font-size="10.00" fill="#000000">clset_action_covered</text>
</a>
</g>
</g>
<!-- Node563&#45;&gt;Node585 -->
<g id="edge39" class="edge">
<title>Node563&#45;&gt;Node585</title>
<path fill="none" stroke="#191970" d="M267.7975,-285.3248C273.845,-281.0882 280.8895,-275.9596 287,-271 303.8526,-257.3216 304.2237,-248.8886 323,-238 326.6408,-235.8886 330.5453,-233.9808 334.5499,-232.2632"/>
<polygon fill="#191970" stroke="#191970" points="335.9432,-235.4768 343.9984,-228.5947 333.4096,-228.9514 335.9432,-235.4768"/>
</g>
<!-- Node586 -->
<g id="node40" class="node">
<title>Node586</title>
<g id="a_node40"><a xlink:href="clset_8c.html#ad87086ed11e5fdd6bffe41b8a34f3608" target="_top" xlink:title="Enforces the maximum population size limit. ">
<polygon fill="none" stroke="#000000" points="323,-323.5 323,-342.5 442,-342.5 442,-323.5 323,-323.5"/>
<text text-anchor="middle" x="382.5" y="-330.5" font-family="Helvetica,sans-Serif" font-size="10.00" fill="#000000">clset_pop_enforce_limit</text>
</a>
</g>
</g>
<!-- Node563&#45;&gt;Node586 -->
<g id="edge41" class="edge">
<title>Node563&#45;&gt;Node586</title>
<path fill="none" stroke="#191970" d="M286.0521,-304.589C302.3993,-309.4044 322.4092,-315.2988 339.9571,-320.468"/>
<polygon fill="#191970" stroke="#191970" points="339.3768,-323.9457 349.9583,-323.4141 341.3548,-317.2309 339.3768,-323.9457"/>
</g>
<!-- Node594 -->
<g id="node48" class="node">
<title>Node594</title>
<g id="a_node48"><a xlink:href="clset_8c.html#a7ec1121fd19ff524f19b46ffa0522dd9" target="_top" xlink:title="Removes classifiers with 0 numerosity from the set. ">
<polygon fill="none" stroke="#000000" points="344,-361.5 344,-380.5 421,-380.5 421,-361.5 344,-361.5"/>
<text text-anchor="middle" x="382.5" y="-368.5" font-family="Helvetica,sans-Serif" font-size="10.00" fill="#000000">clset_validate</text>
</a>
</g>
</g>
<!-- Node563&#45;&gt;Node594 -->
<g id="edge51" class="edge">
<title>Node563&#45;&gt;Node594</title>
<path fill="none" stroke="#191970" d="M262.9815,-304.806C275.6108,-317.3585 299.1453,-339.03 323,-352 326.9655,-354.1561 331.2145,-356.1133 335.5499,-357.8794"/>
<polygon fill="#191970" stroke="#191970" points="334.51,-361.227 345.1026,-361.4432 336.9568,-354.6685 334.51,-361.227"/>
</g>
<!-- Node565 -->
<g id="node19" class="node">
<title>Node565</title>
<g id="a_node19"><a xlink:href="action_8h.html#ac250a5534d7c5fb268e0ccdb479d6e20" target="_top" xlink:title="act_cover">
<polygon fill="none" stroke="#000000" points="487,-285.5 487,-304.5 546,-304.5 546,-285.5 487,-285.5"/>
<text text-anchor="middle" x="516.5" y="-292.5" font-family="Helvetica,sans-Serif" font-size="10.00" fill="#000000">act_cover</text>
</a>
</g>
</g>
<!-- Node564&#45;&gt;Node565 -->
<g id="edge18" class="edge">
<title>Node564&#45;&gt;Node565</title>
<path fill="none" stroke="#191970" d="M409.2948,-295C428.5918,-295 454.9495,-295 476.7005,-295"/>
<polygon fill="#191970" stroke="#191970" points="476.9571,-298.5001 486.9571,-295 476.957,-291.5001 476.9571,-298.5001"/>
</g>
<!-- Node566 -->
<g id="node20" class="node">
<title>Node566</title>
<g id="a_node20"><a xlink:href="cl_8c.html#a7b56e6acc90b92c0692466ae2b7d2a24" target="_top" xlink:title="Initialises random actions, conditions and predictions. ">
<polygon fill="none" stroke="#000000" points="492.5,-171.5 492.5,-190.5 540.5,-190.5 540.5,-171.5 492.5,-171.5"/>
<text text-anchor="middle" x="516.5" y="-178.5" font-family="Helvetica,sans-Serif" font-size="10.00" fill="#000000">cl_rand</text>
</a>
</g>
</g>
<!-- Node564&#45;&gt;Node566 -->
<g id="edge19" class="edge">
<title>Node564&#45;&gt;Node566</title>
<path fill="none" stroke="#191970" d="M409.225,-290.0735C420.0672,-287.192 432.2946,-282.7461 442,-276 471.1031,-255.7706 494.2646,-220.815 506.6353,-199.4148"/>
<polygon fill="#191970" stroke="#191970" points="509.7174,-201.0742 511.5424,-190.6377 503.6075,-197.6582 509.7174,-201.0742"/>
</g>
<!-- Node573 -->
<g id="node27" class="node">
<title>Node573</title>
<g id="a_node27"><a xlink:href="condition_8h.html#af6a4967f684827b76d279cc04420ab6d" target="_top" xlink:title="cond_cover">
<polygon fill="none" stroke="#000000" points="483,-133.5 483,-152.5 550,-152.5 550,-133.5 483,-133.5"/>
<text text-anchor="middle" x="516.5" y="-140.5" font-family="Helvetica,sans-Serif" font-size="10.00" fill="#000000">cond_cover</text>
</a>
</g>
</g>
<!-- Node564&#45;&gt;Node573 -->
<g id="edge26" class="edge">
<title>Node564&#45;&gt;Node573</title>
<path fill="none" stroke="#191970" d="M409.056,-292.029C420.5193,-289.4806 433.2729,-284.7552 442,-276 479.5102,-238.369 443.4017,-202.3245 478,-162 479.001,-160.8333 480.0907,-159.7312 481.2482,-158.691"/>
<polygon fill="#191970" stroke="#191970" points="483.5454,-161.3514 489.6511,-152.6928 479.4785,-155.654 483.5454,-161.3514"/>
</g>
<!-- Node567 -->
<g id="node21" class="node">
<title>Node567</title>
<g id="a_node21"><a xlink:href="action_8h.html#a7561ff50b261f644feae225259c8b8f6" target="_top" xlink:title="act_init">
<polygon fill="none" stroke="#000000" points="605.5,-152.5 605.5,-171.5 653.5,-171.5 653.5,-152.5 605.5,-152.5"/>
<text text-anchor="middle" x="629.5" y="-159.5" font-family="Helvetica,sans-Serif" font-size="10.00" fill="#000000">act_init</text>
</a>
</g>
</g>
<!-- Node566&#45;&gt;Node567 -->
<g id="edge20" class="edge">
<title>Node566&#45;&gt;Node567</title>
<path fill="none" stroke="#191970" d="M540.7413,-176.924C556.6792,-174.2442 577.7673,-170.6984 595.389,-167.7355"/>
<polygon fill="#191970" stroke="#191970" points="596.0176,-171.179 605.2988,-166.0692 594.8568,-164.2759 596.0176,-171.179"/>
</g>
<!-- Node568 -->
<g id="node22" class="node">
<title>Node568</title>
<g id="a_node22"><a xlink:href="action_8c.html#ac235375c6dc54d6abca5efb0f50b1400" target="_top" xlink:title="Sets a classifier&#39;s action functions to the implementations. ">
<polygon fill="none" stroke="#000000" points="598.5,-114.5 598.5,-133.5 660.5,-133.5 660.5,-114.5 598.5,-114.5"/>
<text text-anchor="middle" x="629.5" y="-121.5" font-family="Helvetica,sans-Serif" font-size="10.00" fill="#000000">action_set</text>
</a>
</g>
</g>
<!-- Node566&#45;&gt;Node568 -->
<g id="edge21" class="edge">
<title>Node566&#45;&gt;Node568</title>
<path fill="none" stroke="#191970" d="M536.1374,-171.4368C542.2025,-168.4488 548.8925,-165.118 555,-162 571.1133,-153.7738 574.8867,-151.2262 591,-143 594.1492,-141.3923 597.4532,-139.728 600.7466,-138.0833"/>
<polygon fill="#191970" stroke="#191970" points="602.4583,-141.1413 609.8626,-133.5632 599.3486,-134.8699 602.4583,-141.1413"/>
</g>
<!-- Node569 -->
<g id="node23" class="node">
<title>Node569</title>
<g id="a_node23"><a xlink:href="condition_8h.html#ac4e250ced4f7408df04ba9ac9f302c6e" target="_top" xlink:title="cond_init">
<polygon fill="none" stroke="#000000" points="601.5,-76.5 601.5,-95.5 657.5,-95.5 657.5,-76.5 601.5,-76.5"/>
<text text-anchor="middle" x="629.5" y="-83.5" font-family="Helvetica,sans-Serif" font-size="10.00" fill="#000000">cond_init</text>
</a>
</g>
</g>
<!-- Node566&#45;&gt;Node569 -->
<g id="edge22" class="edge">
<title>Node566&#45;&gt;Node569</title>
<path fill="none" stroke="#191970" d="M540.591,-171.6508C545.6864,-169.0045 550.7899,-165.7901 555,-162 577.2684,-141.9526 568.7316,-125.0474 591,-105 592.6653,-103.5008 594.4704,-102.0916 596.3596,-100.7721"/>
<polygon fill="#191970" stroke="#191970" points="598.2495,-103.7196 605.0067,-95.5593 594.6355,-97.7247 598.2495,-103.7196"/>
</g>
<!-- Node570 -->
<g id="node24" class="node">
<title>Node570</title>
<g id="a_node24"><a xlink:href="condition_8c.html#aa485cf16f149e89aae83972b83b70596" target="_top" xlink:title="Sets a classifier&#39;s condition functions to the implementations. ">
<polygon fill="none" stroke="#000000" points="592.5,-38.5 592.5,-57.5 666.5,-57.5 666.5,-38.5 592.5,-38.5"/>
<text text-anchor="middle" x="629.5" y="-45.5" font-family="Helvetica,sans-Serif" font-size="10.00" fill="#000000">condition_set</text>
</a>
</g>
</g>
<!-- Node566&#45;&gt;Node570 -->
<g id="edge23" class="edge">
<title>Node566&#45;&gt;Node570</title>
<path fill="none" stroke="#191970" d="M540.7867,-172.4591C545.9905,-169.749 551.0914,-166.3039 555,-162 585.3551,-128.5742 560.6449,-100.4258 591,-67 592.1713,-65.7102 593.4497,-64.4975 594.8059,-63.3586"/>
<polygon fill="#191970" stroke="#191970" points="596.9304,-66.1463 603.2192,-57.6198 592.9858,-60.3635 596.9304,-66.1463"/>
</g>
<!-- Node571 -->
<g id="node25" class="node">
<title>Node571</title>
<g id="a_node25"><a xlink:href="prediction_8h.html#a32efd0b8ad0f4cbc72683c35c5e49afd" target="_top" xlink:title="pred_init">
<polygon fill="none" stroke="#000000" points="603,-228.5 603,-247.5 656,-247.5 656,-228.5 603,-228.5"/>
<text text-anchor="middle" x="629.5" y="-235.5" font-family="Helvetica,sans-Serif" font-size="10.00" fill="#000000">pred_init</text>
</a>
</g>
</g>
<!-- Node566&#45;&gt;Node571 -->
<g id="edge24" class="edge">
<title>Node566&#45;&gt;Node571</title>
<path fill="none" stroke="#191970" d="M535.1417,-190.5947C550.1903,-198.3193 571.9232,-209.4281 591,-219 594.1603,-220.5857 597.4714,-222.2362 600.7688,-223.8729"/>
<polygon fill="#191970" stroke="#191970" points="599.374,-227.0877 609.8892,-228.3842 602.4776,-220.8133 599.374,-227.0877"/>
</g>
<!-- Node572 -->
<g id="node26" class="node">
<title>Node572</title>
<g id="a_node26"><a xlink:href="prediction_8c.html#acc3389ac08ab3b032ab1223e3339be12" target="_top" xlink:title="Sets a classifier&#39;s prediction functions to the implementations. ">
<polygon fill="none" stroke="#000000" points="591,-190.5 591,-209.5 668,-209.5 668,-190.5 591,-190.5"/>
<text text-anchor="middle" x="629.5" y="-197.5" font-family="Helvetica,sans-Serif" font-size="10.00" fill="#000000">prediction_set</text>
</a>
</g>
</g>
<!-- Node566&#45;&gt;Node572 -->
<g id="edge25" class="edge">
<title>Node566&#45;&gt;Node572</title>
<path fill="none" stroke="#191970" d="M540.7413,-185.076C552.4305,-187.0414 566.8901,-189.4727 580.7206,-191.7982"/>
<polygon fill="#191970" stroke="#191970" points="580.1896,-195.2579 590.6316,-193.4646 581.3504,-188.3548 580.1896,-195.2579"/>
</g>
<!-- Node575 -->
<g id="node29" class="node">
<title>Node575</title>
<g id="a_node29"><a xlink:href="sam_8c.html#ac19f397e3c1bd2a2a4f4a1174509ac67" target="_top" xlink:title="Initialises a classifier&#39;s self&#45;adaptive mutation rates. ">
<polygon fill="none" stroke="#000000" points="490,-38.5 490,-57.5 543,-57.5 543,-38.5 490,-38.5"/>
<text text-anchor="middle" x="516.5" y="-45.5" font-family="Helvetica,sans-Serif" font-size="10.00" fill="#000000">sam_init</text>
</a>
</g>
</g>
<!-- Node574&#45;&gt;Node575 -->
<g id="edge28" class="edge">
<title>Node574&#45;&gt;Node575</title>
<path fill="none" stroke="#191970" d="M403.7434,-255.0806C416.3915,-252.8723 431.8949,-248.1376 442,-238 479.5102,-200.369 457.9279,-173.1958 478,-124 486.2504,-103.7787 497.7915,-81.6005 506.0826,-66.4499"/>
<polygon fill="#191970" stroke="#191970" points="509.2019,-68.042 510.9944,-57.5999 503.0813,-64.645 509.2019,-68.042"/>
</g>
<!-- Node576 -->
<g id="node30" class="node">
<title>Node576</title>
<g id="a_node30"><a xlink:href="sam_8c.html#a934d788eb57734b6118fff7385733803" target="_top" xlink:title="Resets a classifier&#39;s self&#45;adaptive mutation rates. ">
<polygon fill="none" stroke="#000000" points="598.5,-.5 598.5,-19.5 660.5,-19.5 660.5,-.5 598.5,-.5"/>
<text text-anchor="middle" x="629.5" y="-7.5" font-family="Helvetica,sans-Serif" font-size="10.00" fill="#000000">sam_reset</text>
</a>
</g>
</g>
<!-- Node575&#45;&gt;Node576 -->
<g id="edge29" class="edge">
<title>Node575&#45;&gt;Node576</title>
<path fill="none" stroke="#191970" d="M543.2794,-38.9945C557.6561,-34.1599 575.6217,-28.1184 591.427,-22.8033"/>
<polygon fill="#191970" stroke="#191970" points="592.5746,-26.1101 600.9374,-19.6051 590.3434,-19.4752 592.5746,-26.1101"/>
</g>
<!-- Node577 -->
<g id="node31" class="node">
<title>Node577</title>
<g id="a_node31"><a xlink:href="sam_8c.html#a9b54bfbcf790a621afa925081a66941e" target="_top" xlink:title="Initialises log normal self&#45;adaptive mutation rates. ">
<polygon fill="none" stroke="#000000" points="859,-38.5 859,-57.5 965,-57.5 965,-38.5 859,-38.5"/>
<text text-anchor="middle" x="912" y="-45.5" font-family="Helvetica,sans-Serif" font-size="10.00" fill="#000000">sam_log_normal_init</text>
</a>
</g>
</g>
<!-- Node576&#45;&gt;Node577 -->
<g id="edge30" class="edge">
<title>Node576&#45;&gt;Node577</title>
<path fill="none" stroke="#191970" d="M660.7995,-19.1591C674.0269,-22.722 689.6614,-26.5327 704,-29 752.0988,-37.2764 807.1165,-42.102 848.4822,-44.8177"/>
<polygon fill="#191970" stroke="#191970" points="848.4913,-48.3251 858.6923,-45.4634 848.9332,-41.3391 848.4913,-48.3251"/>
</g>
<!-- Node583 -->
<g id="node37" class="node">
<title>Node583</title>
<g id="a_node37"><a xlink:href="sam_8c.html#afa2d48bd3ec297da02c66bdbb554280b" target="_top" xlink:title="Initialises rate selection self&#45;adaptive mutation. ">
<polygon fill="none" stroke="#000000" points="704,-.5 704,-19.5 823,-19.5 823,-.5 704,-.5"/>
<text text-anchor="middle" x="763.5" y="-7.5" font-family="Helvetica,sans-Serif" font-size="10.00" fill="#000000">sam_rate_selection_init</text>
</a>
</g>
</g>
<!-- Node576&#45;&gt;Node583 -->
<g id="edge36" class="edge">
<title>Node576&#45;&gt;Node583</title>
<path fill="none" stroke="#191970" d="M660.5791,-10C670.5653,-10 682.0631,-10 693.6743,-10"/>
<polygon fill="#191970" stroke="#191970" points="693.8721,-13.5001 703.8721,-10 693.872,-6.5001 693.8721,-13.5001"/>
</g>
<!-- Node578 -->
<g id="node32" class="node">
<title>Node578</title>
<g id="a_node32"><a xlink:href="utils_8c.html#ae42a9e1d467853befaa7922cfafed3bb" target="_top" xlink:title="Returns a uniform random float [min,max]. ">
<polygon fill="none" stroke="#000000" points="1001,-38.5 1001,-57.5 1074,-57.5 1074,-38.5 1001,-38.5"/>
<text text-anchor="middle" x="1037.5" y="-45.5" font-family="Helvetica,sans-Serif" font-size="10.00" fill="#000000">rand_uniform</text>
</a>
</g>
</g>
<!-- Node577&#45;&gt;Node578 -->
<g id="edge31" class="edge">
<title>Node577&#45;&gt;Node578</title>
<path fill="none" stroke="#191970" d="M965.2233,-48C973.6785,-48 982.37,-48 990.6643,-48"/>
<polygon fill="#191970" stroke="#191970" points="990.9104,-51.5001 1000.9103,-48 990.9103,-44.5001 990.9104,-51.5001"/>
</g>
<!-- Node579 -->
<g id="node33" class="node">
<title>Node579</title>
<g id="a_node33"><a xlink:href="utils_8c.html#a101d27cdda714b7f17a06224c65cac56" target="_top" xlink:title="Returns a uniform random float [0,1]. ">
<polygon fill="none" stroke="#000000" points="1110,-38.5 1110,-57.5 1151,-57.5 1151,-38.5 1110,-38.5"/>
<text text-anchor="middle" x="1130.5" y="-45.5" font-family="Helvetica,sans-Serif" font-size="10.00" fill="#000000">drand</text>
</a>
</g>
</g>
<!-- Node578&#45;&gt;Node579 -->
<g id="edge32" class="edge">
<title>Node578&#45;&gt;Node579</title>
<path fill="none" stroke="#191970" d="M1074.2561,-48C1082.658,-48 1091.5043,-48 1099.63,-48"/>
<polygon fill="#191970" stroke="#191970" points="1099.799,-51.5001 1109.7989,-48 1099.7989,-44.5001 1099.799,-51.5001"/>
</g>
<!-- Node580 -->
<g id="node34" class="node">
<title>Node580</title>
<g id="a_node34"><a xlink:href="mt19937-64_8c.html#aa0b74daf51eca91df224d00f1730084a" target="_top" xlink:title="genrand64_real1">
<polygon fill="none" stroke="#000000" points="1187,-38.5 1187,-57.5 1275,-57.5 1275,-38.5 1187,-38.5"/>
<text text-anchor="middle" x="1231" y="-45.5" font-family="Helvetica,sans-Serif" font-size="10.00" fill="#000000">genrand64_real1</text>
</a>
</g>
</g>
<!-- Node579&#45;&gt;Node580 -->
<g id="edge33" class="edge">
<title>Node579&#45;&gt;Node580</title>
<path fill="none" stroke="#191970" d="M1151.3237,-48C1158.8428,-48 1167.7193,-48 1176.769,-48"/>
<polygon fill="#191970" stroke="#191970" points="1176.9969,-51.5001 1186.9969,-48 1176.9969,-44.5001 1176.9969,-51.5001"/>
</g>
<!-- Node581 -->
<g id="node35" class="node">
<title>Node581</title>
<g id="a_node35"><a xlink:href="mt19937-64_8c.html#a265bf48d20d6e0347371fcf4fe340e6d" target="_top" xlink:title="genrand64_int64">
<polygon fill="none" stroke="#000000" points="1311,-38.5 1311,-57.5 1399,-57.5 1399,-38.5 1311,-38.5"/>
<text text-anchor="middle" x="1355" y="-45.5" font-family="Helvetica,sans-Serif" font-size="10.00" fill="#000000">genrand64_int64</text>
</a>
</g>
</g>
<!-- Node580&#45;&gt;Node581 -->
<g id="edge34" class="edge">
<title>Node580&#45;&gt;Node581</title>
<path fill="none" stroke="#191970" d="M1275.0669,-48C1283.2822,-48 1291.957,-48 1300.4432,-48"/>
<polygon fill="#191970" stroke="#191970" points="1300.6572,-51.5001 1310.6572,-48 1300.6572,-44.5001 1300.6572,-51.5001"/>
</g>
<!-- Node582 -->
<g id="node36" class="node">
<title>Node582</title>
<g id="a_node36"><a xlink:href="mt19937-64_8c.html#adf4127d44c2dc34fcb318d406131ef7c" target="_top" xlink:title="init_genrand64">
<polygon fill="none" stroke="#000000" points="1435,-38.5 1435,-57.5 1515,-57.5 1515,-38.5 1435,-38.5"/>
<text text-anchor="middle" x="1475" y="-45.5" font-family="Helvetica,sans-Serif" font-size="10.00" fill="#000000">init_genrand64</text>
</a>
</g>
</g>
<!-- Node581&#45;&gt;Node582 -->
<g id="edge35" class="edge">
<title>Node581&#45;&gt;Node582</title>
<path fill="none" stroke="#191970" d="M1399.0022,-48C1407.3719,-48 1416.1896,-48 1424.7365,-48"/>
<polygon fill="#191970" stroke="#191970" points="1424.9792,-51.5001 1434.9792,-48 1424.9792,-44.5001 1424.9792,-51.5001"/>
</g>
<!-- Node584 -->
<g id="node38" class="node">
<title>Node584</title>
<g id="a_node38"><a xlink:href="utils_8c.html#a32648ab076544a9ac1c086d0f07b599f" target="_top" xlink:title="Returns a uniform random integer [min,max] not inclusive of max. ">
<polygon fill="none" stroke="#000000" points="874.5,-.5 874.5,-19.5 949.5,-19.5 949.5,-.5 874.5,-.5"/>
<text text-anchor="middle" x="912" y="-7.5" font-family="Helvetica,sans-Serif" font-size="10.00" fill="#000000">irand_uniform</text>
</a>
</g>
</g>
<!-- Node583&#45;&gt;Node584 -->
<g id="edge37" class="edge">
<title>Node583&#45;&gt;Node584</title>
<path fill="none" stroke="#191970" d="M823.045,-10C836.6704,-10 850.9841,-10 864.05,-10"/>
<polygon fill="#191970" stroke="#191970" points="864.2241,-13.5001 874.2241,-10 864.2241,-6.5001 864.2241,-13.5001"/>
</g>
<!-- Node584&#45;&gt;Node578 -->
<g id="edge38" class="edge">
<title>Node584&#45;&gt;Node578</title>
<path fill="none" stroke="#191970" d="M943.6689,-19.589C959.5725,-24.4044 979.0396,-30.2988 996.1114,-35.468"/>
<polygon fill="#191970" stroke="#191970" points="995.256,-38.8658 1005.8412,-38.4141 997.2846,-32.1662 995.256,-38.8658"/>
</g>
<!-- Node587 -->
<g id="node41" class="node">
<title>Node587</title>
<g id="a_node41"><a xlink:href="clset_8c.html#a6dae2bd49bceef5337bcad19010098f8" target="_top" xlink:title="Deletes a single classifier from the population set. ">
<polygon fill="none" stroke="#000000" points="478,-342.5 478,-361.5 555,-361.5 555,-342.5 478,-342.5"/>
<text text-anchor="middle" x="516.5" y="-349.5" font-family="Helvetica,sans-Serif" font-size="10.00" fill="#000000">clset_pop_del</text>
</a>
</g>
</g>
<!-- Node586&#45;&gt;Node587 -->
<g id="edge42" class="edge">
<title>Node586&#45;&gt;Node587</title>
<path fill="none" stroke="#191970" d="M442.0547,-341.4443C450.7014,-342.6703 459.5156,-343.9201 467.9115,-345.1106"/>
<polygon fill="#191970" stroke="#191970" points="467.5136,-348.5891 477.906,-346.5277 468.4964,-341.6584 467.5136,-348.5891"/>
</g>
<!-- Node587&#45;&gt;Node562 -->
<g id="edge48" class="edge">
<title>Node587&#45;&gt;Node562</title>
<path fill="none" stroke="#191970" d="M525.729,-361.6033C533.763,-370.1248 545.567,-383.0418 555,-395 572.4089,-417.0693 569.717,-428.6382 591,-447 592.6966,-448.4637 594.5257,-449.8457 596.4327,-451.1449"/>
<polygon fill="#191970" stroke="#191970" points="594.7386,-454.2095 605.1235,-456.3082 598.314,-448.1915 594.7386,-454.2095"/>
</g>
<!-- Node587&#45;&gt;Node578 -->
<g id="edge50" class="edge">
<title>Node587&#45;&gt;Node578</title>
<path fill="none" stroke="#191970" d="M540.5936,-361.5645C594.8171,-381.4521 729.0339,-421.3973 823,-371 948.6712,-303.5982 1013.2395,-126.5597 1031.7738,-67.4956"/>
<polygon fill="#191970" stroke="#191970" points="1035.2202,-68.1928 1034.7878,-57.6068 1028.5243,-66.152 1035.2202,-68.1928"/>
</g>
<!-- Node588 -->
<g id="node42" class="node">
<title>Node588</title>
<g id="a_node42"><a xlink:href="cl_8c.html#a49f5a7f4f2f47ce1cf7f33b3769de7cc" target="_top" xlink:title="Returns the size of the classifier condition. ">
<polygon fill="none" stroke="#000000" points="592.5,-342.5 592.5,-361.5 666.5,-361.5 666.5,-342.5 592.5,-342.5"/>
<text text-anchor="middle" x="629.5" y="-349.5" font-family="Helvetica,sans-Serif" font-size="10.00" fill="#000000">cl_cond_size</text>
</a>
</g>
</g>
<!-- Node587&#45;&gt;Node588 -->
<g id="edge43" class="edge">
<title>Node587&#45;&gt;Node588</title>
<path fill="none" stroke="#191970" d="M555.0721,-352C563.8054,-352 573.1762,-352 582.2228,-352"/>
<polygon fill="#191970" stroke="#191970" points="582.2477,-355.5001 592.2476,-352 582.2476,-348.5001 582.2477,-355.5001"/>
</g>
<!-- Node590 -->
<g id="node44" class="node">
<title>Node590</title>
<g id="a_node44"><a xlink:href="cl_8c.html#aa0059f455cba46b3a1acb6b8a271b95f" target="_top" xlink:title="Returns the deletion vote of the classifier. ">
<polygon fill="none" stroke="#000000" points="596.5,-304.5 596.5,-323.5 662.5,-323.5 662.5,-304.5 596.5,-304.5"/>
<text text-anchor="middle" x="629.5" y="-311.5" font-family="Helvetica,sans-Serif" font-size="10.00" fill="#000000">cl_del_vote</text>
</a>
</g>
</g>
<!-- Node587&#45;&gt;Node590 -->
<g id="edge45" class="edge">
<title>Node587&#45;&gt;Node590</title>
<path fill="none" stroke="#191970" d="M545.0147,-342.411C559.0666,-337.6856 576.2082,-331.9211 591.3696,-326.8226"/>
<polygon fill="#191970" stroke="#191970" points="592.6317,-330.0909 600.9945,-323.5859 590.4004,-323.456 592.6317,-330.0909"/>
</g>
<!-- Node591 -->
<g id="node45" class="node">
<title>Node591</title>
<g id="a_node45"><a xlink:href="cl_8c.html#a72d3cf213699a8d68d348ff75c2b2d49" target="_top" xlink:title="Returns the size of the classifier prediction. ">
<polygon fill="none" stroke="#000000" points="594,-266.5 594,-285.5 665,-285.5 665,-266.5 594,-266.5"/>
<text text-anchor="middle" x="629.5" y="-273.5" font-family="Helvetica,sans-Serif" font-size="10.00" fill="#000000">cl_pred_size</text>
</a>
</g>
</g>
<!-- Node587&#45;&gt;Node591 -->
<g id="edge46" class="edge">
<title>Node587&#45;&gt;Node591</title>
<path fill="none" stroke="#191970" d="M527.6137,-342.3899C541.7539,-330.4291 567.2048,-309.7785 591,-295 593.6376,-293.3619 596.4362,-291.7538 599.2736,-290.2093"/>
<polygon fill="#191970" stroke="#191970" points="601.0429,-293.2348 608.3193,-285.5338 597.8287,-287.0163 601.0429,-293.2348"/>
</g>
<!-- Node593 -->
<g id="node47" class="node">
<title>Node593</title>
<g id="a_node47"><a xlink:href="clset_8c.html#a9a50c1393921d731b6840a654c366fb8" target="_top" xlink:title="Calculates the total fitness of classifiers in the set. ">
<polygon fill="none" stroke="#000000" points="592,-418.5 592,-437.5 667,-437.5 667,-418.5 592,-418.5"/>
<text text-anchor="middle" x="629.5" y="-425.5" font-family="Helvetica,sans-Serif" font-size="10.00" fill="#000000">clset_total_fit</text>
</a>
</g>
</g>
<!-- Node587&#45;&gt;Node593 -->
<g id="edge49" class="edge">
<title>Node587&#45;&gt;Node593</title>
<path fill="none" stroke="#191970" d="M529.8147,-361.6059C544.6091,-372.2057 569.2792,-389.6634 591,-404 595.4865,-406.9613 600.3172,-410.0494 604.9897,-412.9863"/>
<polygon fill="#191970" stroke="#191970" points="603.3085,-416.0624 613.648,-418.3744 607.007,-410.1192 603.3085,-416.0624"/>
</g>
<!-- Node589 -->
<g id="node43" class="node">
<title>Node589</title>
<g id="a_node43"><a xlink:href="condition_8h.html#afc882c8ebd96835127f8e611b815d447" target="_top" xlink:title="cond_size">
<polygon fill="none" stroke="#000000" points="733,-342.5 733,-361.5 794,-361.5 794,-342.5 733,-342.5"/>
<text text-anchor="middle" x="763.5" y="-349.5" font-family="Helvetica,sans-Serif" font-size="10.00" fill="#000000">cond_size</text>
</a>
</g>
</g>
<!-- Node588&#45;&gt;Node589 -->
<g id="edge44" class="edge">
<title>Node588&#45;&gt;Node589</title>
<path fill="none" stroke="#191970" d="M666.8265,-352C684.1756,-352 704.8512,-352 722.6205,-352"/>
<polygon fill="#191970" stroke="#191970" points="722.6999,-355.5001 732.6999,-352 722.6999,-348.5001 722.6999,-355.5001"/>
</g>
<!-- Node592 -->
<g id="node46" class="node">
<title>Node592</title>
<g id="a_node46"><a xlink:href="prediction_8h.html#a60ead673b526125328224ec152916290" target="_top" xlink:title="pred_size">
<polygon fill="none" stroke="#000000" points="734,-266.5 734,-285.5 793,-285.5 793,-266.5 734,-266.5"/>
<text text-anchor="middle" x="763.5" y="-273.5" font-family="Helvetica,sans-Serif" font-size="10.00" fill="#000000">pred_size</text>
</a>
</g>
</g>
<!-- Node591&#45;&gt;Node592 -->
<g id="edge47" class="edge">
<title>Node591&#45;&gt;Node592</title>
<path fill="none" stroke="#191970" d="M665.0577,-276C683.0302,-276 704.9064,-276 723.468,-276"/>
<polygon fill="#191970" stroke="#191970" points="723.6753,-279.5001 733.6752,-276 723.6752,-272.5001 723.6753,-279.5001"/>
</g>
<!-- Node596 -->
<g id="node50" class="node">
<title>Node596</title>
<g id="a_node50"><a xlink:href="cl_8c.html#a2e37895c1cc585b83805af74061afa46" target="_top" xlink:title="Computes the current classifier payoff prediction using the input. ">
<polygon fill="none" stroke="#000000" points="224,-100.5 224,-119.5 283,-119.5 283,-100.5 224,-100.5"/>
<text text-anchor="middle" x="253.5" y="-107.5" font-family="Helvetica,sans-Serif" font-size="10.00" fill="#000000">cl_predict</text>
</a>
</g>
</g>
<!-- Node595&#45;&gt;Node596 -->
<g id="edge53" class="edge">
<title>Node595&#45;&gt;Node596</title>
<path fill="none" stroke="#191970" d="M166.727,-157.3307C183.2655,-148.3097 208.1567,-134.7327 227.0447,-124.4302"/>
<polygon fill="#191970" stroke="#191970" points="228.9318,-127.3877 236.0348,-119.5265 225.5798,-121.2424 228.9318,-127.3877"/>
</g>
<!-- Node597 -->
<g id="node51" class="node">
<title>Node597</title>
<g id="a_node51"><a xlink:href="prediction_8h.html#a98a959a3e1a7e5e353c39a561efd666c" target="_top" xlink:title="pred_compute">
<polygon fill="none" stroke="#000000" points="343.5,-95.5 343.5,-114.5 421.5,-114.5 421.5,-95.5 343.5,-95.5"/>
<text text-anchor="middle" x="382.5" y="-102.5" font-family="Helvetica,sans-Serif" font-size="10.00" fill="#000000">pred_compute</text>
</a>
</g>
</g>
<!-- Node596&#45;&gt;Node597 -->
<g id="edge54" class="edge">
<title>Node596&#45;&gt;Node597</title>
<path fill="none" stroke="#191970" d="M283.0952,-108.8529C297.8793,-108.2799 316.1644,-107.5711 333.0048,-106.9184"/>
<polygon fill="#191970" stroke="#191970" points="333.4025,-110.4057 343.2594,-106.521 333.1313,-103.411 333.4025,-110.4057"/>
</g>
</g>
</svg>
