<?xml version="1.0" encoding="UTF-8" standalone="no"?>
<!DOCTYPE svg PUBLIC "-//W3C//DTD SVG 1.1//EN"
 "http://www.w3.org/Graphics/SVG/1.1/DTD/svg11.dtd">
<!-- Generated by graphviz version 2.40.1 (20161225.0304)
 -->
<!-- Title: xcsf_predict Pages: 1 -->
<svg width="321pt" height="28pt"
 viewBox="0.00 0.00 321.00 28.00" xmlns="http://www.w3.org/2000/svg" xmlns:xlink="http://www.w3.org/1999/xlink">
<g id="graph0" class="graph" transform="scale(1 1) rotate(0) translate(4 24)">
<title>xcsf_predict</title>
<!-- Node231 -->
<g id="node1" class="node">
<title>Node231</title>
<polygon fill="#bfbfbf" stroke="#000000" points="0,-.5 0,-19.5 70,-19.5 70,-.5 0,-.5"/>
<text text-anchor="middle" x="35" y="-7.5" font-family="Helvetica,sans-Serif" font-size="10.00" fill="#000000">xcsf_predict</text>
</g>
<!-- Node232 -->
<g id="node2" class="node">
<title>Node232</title>
<g id="a_node2"><a xlink:href="classXCS.html#a8e8db281054f9e5937610eed434cd4a5" target="_top" xlink:title="XCS::predict">
<polygon fill="none" stroke="#000000" points="106,-.5 106,-19.5 179,-19.5 179,-.5 106,-.5"/>
<text text-anchor="middle" x="142.5" y="-7.5" font-family="Helvetica,sans-Serif" font-size="10.00" fill="#000000">XCS::predict</text>
</a>
</g>
</g>
<!-- Node231&#45;&gt;Node232 -->
<g id="edge1" class="edge">
<title>Node231&#45;&gt;Node232</title>
<path fill="none" stroke="#191970" d="M80.3353,-10C88.8091,-10 97.569,-10 105.7442,-10"/>
<polygon fill="#191970" stroke="#191970" points="80.1996,-6.5001 70.1995,-10 80.1995,-13.5001 80.1996,-6.5001"/>
</g>
<!-- Node233 -->
<g id="node3" class="node">
<title>Node233</title>
<g id="a_node3"><a xlink:href="pybind__wrapper_8cpp.html#a9f26280e01308c4674f2473fb6f78730" target="_top" xlink:title="pybind11_init_xcsf">
<polygon fill="none" stroke="#000000" points="215,-.5 215,-19.5 313,-19.5 313,-.5 215,-.5"/>
<text text-anchor="middle" x="264" y="-7.5" font-family="Helvetica,sans-Serif" font-size="10.00" fill="#000000">pybind11_init_xcsf</text>
</a>
</g>
</g>
<!-- Node232&#45;&gt;Node233 -->
<g id="edge2" class="edge">
<title>Node232&#45;&gt;Node233</title>
<path fill="none" stroke="#191970" d="M189.5277,-10C197.8057,-10 206.4423,-10 214.7783,-10"/>
<polygon fill="#191970" stroke="#191970" points="189.2838,-6.5001 179.2837,-10 189.2837,-13.5001 189.2838,-6.5001"/>
</g>
</g>
</svg>
