<?xml version="1.0" encoding="UTF-8" standalone="no"?>
<!DOCTYPE svg PUBLIC "-//W3C//DTD SVG 1.1//EN"
 "http://www.w3.org/Graphics/SVG/1.1/DTD/svg11.dtd">
<!-- Generated by graphviz version 2.40.1 (20161225.0304)
 -->
<!-- Title: xcsf_predict Pages: 1 -->
<svg width="1558pt" height="522pt"
 viewBox="0.00 0.00 1558.00 522.00" xmlns="http://www.w3.org/2000/svg" xmlns:xlink="http://www.w3.org/1999/xlink">
<g id="graph0" class="graph" transform="scale(1 1) rotate(0) translate(4 518)">
<title>xcsf_predict</title>
<!-- Node366 -->
<g id="node1" class="node">
<title>Node366</title>
<polygon fill="#bfbfbf" stroke="#000000" points="0,-185.5 0,-204.5 70,-204.5 70,-185.5 0,-185.5"/>
<text text-anchor="middle" x="35" y="-192.5" font-family="Helvetica,sans-Serif" font-size="10.00" fill="#000000">xcsf_predict</text>
</g>
<!-- Node367 -->
<g id="node2" class="node">
<title>Node367</title>
<g id="a_node2"><a xlink:href="clset_8c.html#a75789e37a9512f6358e710580ad17d87" target="_top" xlink:title="Frees the set, but not the classifiers. ">
<polygon fill="none" stroke="#000000" points="111.5,-261.5 111.5,-280.5 170.5,-280.5 170.5,-261.5 111.5,-261.5"/>
<text text-anchor="middle" x="141" y="-268.5" font-family="Helvetica,sans-Serif" font-size="10.00" fill="#000000">clset_free</text>
</a>
</g>
</g>
<!-- Node366&#45;&gt;Node367 -->
<g id="edge1" class="edge">
<title>Node366&#45;&gt;Node367</title>
<path fill="none" stroke="#191970" d="M45.604,-204.5203C59.0928,-216.3885 83.3613,-236.9436 106,-252 108.1661,-253.4406 110.4515,-254.8682 112.7743,-256.2554"/>
<polygon fill="#191970" stroke="#191970" points="111.3214,-259.4552 121.7457,-261.3482 114.7771,-253.3677 111.3214,-259.4552"/>
</g>
<!-- Node368 -->
<g id="node3" class="node">
<title>Node368</title>
<g id="a_node3"><a xlink:href="clset_8c.html#a7feb00168d3dbd1d0597301029aed664" target="_top" xlink:title="Initialises a new set. ">
<polygon fill="none" stroke="#000000" points="113,-223.5 113,-242.5 169,-242.5 169,-223.5 113,-223.5"/>
<text text-anchor="middle" x="141" y="-230.5" font-family="Helvetica,sans-Serif" font-size="10.00" fill="#000000">clset_init</text>
</a>
</g>
</g>
<!-- Node366&#45;&gt;Node368 -->
<g id="edge2" class="edge">
<title>Node366&#45;&gt;Node368</title>
<path fill="none" stroke="#191970" d="M61.7483,-204.589C74.8042,-209.2694 90.7035,-214.9692 104.8248,-220.0315"/>
<polygon fill="#191970" stroke="#191970" points="103.6657,-223.3341 114.2603,-223.4141 106.028,-216.7447 103.6657,-223.3341"/>
</g>
<!-- Node369 -->
<g id="node4" class="node">
<title>Node369</title>
<g id="a_node4"><a xlink:href="clset_8c.html#aad012238caff12fcd827b1e282c9a4ef" target="_top" xlink:title="Frees the set and the classifiers. ">
<polygon fill="none" stroke="#000000" points="113.5,-185.5 113.5,-204.5 168.5,-204.5 168.5,-185.5 113.5,-185.5"/>
<text text-anchor="middle" x="141" y="-192.5" font-family="Helvetica,sans-Serif" font-size="10.00" fill="#000000">clset_kill</text>
</a>
</g>
</g>
<!-- Node366&#45;&gt;Node369 -->
<g id="edge3" class="edge">
<title>Node366&#45;&gt;Node369</title>
<path fill="none" stroke="#191970" d="M70.0021,-195C80.6957,-195 92.4984,-195 103.3593,-195"/>
<polygon fill="#191970" stroke="#191970" points="103.4168,-198.5001 113.4167,-195 103.4167,-191.5001 103.4168,-198.5001"/>
</g>
<!-- Node375 -->
<g id="node10" class="node">
<title>Node375</title>
<g id="a_node10"><a xlink:href="clset_8c.html#a460e3bd1d979c502e9e9d97d4253f97c" target="_top" xlink:title="Constructs the match set. ">
<polygon fill="none" stroke="#000000" points="106,-147.5 106,-166.5 176,-166.5 176,-147.5 106,-147.5"/>
<text text-anchor="middle" x="141" y="-154.5" font-family="Helvetica,sans-Serif" font-size="10.00" fill="#000000">clset_match</text>
</a>
</g>
</g>
<!-- Node366&#45;&gt;Node375 -->
<g id="edge9" class="edge">
<title>Node366&#45;&gt;Node375</title>
<path fill="none" stroke="#191970" d="M61.7483,-185.411C74.8042,-180.7306 90.7035,-175.0308 104.8248,-169.9685"/>
<polygon fill="#191970" stroke="#191970" points="106.028,-173.2553 114.2603,-166.5859 103.6657,-166.6659 106.028,-173.2553"/>
</g>
<!-- Node416 -->
<g id="node51" class="node">
<title>Node416</title>
<g id="a_node51"><a xlink:href="clset_8c.html#a7146a28cbf1fbbcc90f8bb583144fb12" target="_top" xlink:title="Calculates the set mean fitness weighted prediction. ">
<polygon fill="none" stroke="#000000" points="110,-62.5 110,-81.5 172,-81.5 172,-62.5 110,-62.5"/>
<text text-anchor="middle" x="141" y="-69.5" font-family="Helvetica,sans-Serif" font-size="10.00" fill="#000000">clset_pred</text>
</a>
</g>
</g>
<!-- Node366&#45;&gt;Node416 -->
<g id="edge54" class="edge">
<title>Node366&#45;&gt;Node416</title>
<path fill="none" stroke="#191970" d="M43.3176,-185.3484C61.1977,-164.6008 103.5021,-115.5117 126.1238,-89.262"/>
<polygon fill="#191970" stroke="#191970" points="128.8441,-91.4668 132.721,-81.6068 123.5415,-86.8971 128.8441,-91.4668"/>
</g>
<!-- Node370 -->
<g id="node5" class="node">
<title>Node370</title>
<g id="a_node5"><a xlink:href="cl_8c.html#a2bba8869890a67c2412a358c8f3ec0b4" target="_top" xlink:title="Frees the memory used by the classifier. ">
<polygon fill="none" stroke="#000000" points="222.5,-418.5 222.5,-437.5 268.5,-437.5 268.5,-418.5 222.5,-418.5"/>
<text text-anchor="middle" x="245.5" y="-425.5" font-family="Helvetica,sans-Serif" font-size="10.00" fill="#000000">cl_free</text>
</a>
</g>
</g>
<!-- Node369&#45;&gt;Node370 -->
<g id="edge4" class="edge">
<title>Node369&#45;&gt;Node370</title>
<path fill="none" stroke="#191970" d="M165.2818,-204.6488C169.335,-207.1748 173.1435,-210.2658 176,-214 218.1806,-269.1412 187.2858,-301.1235 212,-366 217.8423,-381.3365 226.7599,-397.6236 233.9258,-409.6543"/>
<polygon fill="#191970" stroke="#191970" points="231.0032,-411.5839 239.205,-418.2907 236.9757,-407.933 231.0032,-411.5839"/>
</g>
<!-- Node371 -->
<g id="node6" class="node">
<title>Node371</title>
<g id="a_node6"><a xlink:href="action_8h.html#a2e77a50c24d06a37f2fc5aab8e3ecbac" target="_top" xlink:title="act_free">
<polygon fill="none" stroke="#000000" points="348.5,-418.5 348.5,-437.5 400.5,-437.5 400.5,-418.5 348.5,-418.5"/>
<text text-anchor="middle" x="374.5" y="-425.5" font-family="Helvetica,sans-Serif" font-size="10.00" fill="#000000">act_free</text>
</a>
</g>
</g>
<!-- Node370&#45;&gt;Node371 -->
<g id="edge5" class="edge">
<title>Node370&#45;&gt;Node371</title>
<path fill="none" stroke="#191970" d="M268.5626,-428C287.8319,-428 315.6577,-428 337.9563,-428"/>
<polygon fill="#191970" stroke="#191970" points="338.0788,-431.5001 348.0788,-428 338.0787,-424.5001 338.0788,-431.5001"/>
</g>
<!-- Node372 -->
<g id="node7" class="node">
<title>Node372</title>
<g id="a_node7"><a xlink:href="condition_8h.html#a3359b327b7de91f97ce0fb0cee911d04" target="_top" xlink:title="cond_free">
<polygon fill="none" stroke="#000000" points="345,-380.5 345,-399.5 404,-399.5 404,-380.5 345,-380.5"/>
<text text-anchor="middle" x="374.5" y="-387.5" font-family="Helvetica,sans-Serif" font-size="10.00" fill="#000000">cond_free</text>
</a>
</g>
</g>
<!-- Node370&#45;&gt;Node372 -->
<g id="edge6" class="edge">
<title>Node370&#45;&gt;Node372</title>
<path fill="none" stroke="#191970" d="M268.5626,-421.2064C287.0392,-415.7636 313.383,-408.0035 335.1774,-401.5834"/>
<polygon fill="#191970" stroke="#191970" points="336.2229,-404.9242 344.8264,-398.7411 334.2449,-398.2095 336.2229,-404.9242"/>
</g>
<!-- Node373 -->
<g id="node8" class="node">
<title>Node373</title>
<g id="a_node8"><a xlink:href="prediction_8h.html#a43bac629eb9434b643605a214f5d5876" target="_top" xlink:title="pred_free">
<polygon fill="none" stroke="#000000" points="346,-494.5 346,-513.5 403,-513.5 403,-494.5 346,-494.5"/>
<text text-anchor="middle" x="374.5" y="-501.5" font-family="Helvetica,sans-Serif" font-size="10.00" fill="#000000">pred_free</text>
</a>
</g>
</g>
<!-- Node370&#45;&gt;Node373 -->
<g id="edge7" class="edge">
<title>Node370&#45;&gt;Node373</title>
<path fill="none" stroke="#191970" d="M254.9815,-437.806C267.6108,-450.3585 291.1453,-472.03 315,-485 321.5496,-488.5611 328.8726,-491.5797 336.0812,-494.0905"/>
<polygon fill="#191970" stroke="#191970" points="335.1654,-497.4725 345.7568,-497.2028 337.3089,-490.8088 335.1654,-497.4725"/>
</g>
<!-- Node374 -->
<g id="node9" class="node">
<title>Node374</title>
<g id="a_node9"><a xlink:href="sam_8c.html#a0f3791bc58a3d67f38670151d1cd4418" target="_top" xlink:title="Frees the self&#45;adaptive mutation rates. ">
<polygon fill="none" stroke="#000000" points="346,-456.5 346,-475.5 403,-475.5 403,-456.5 346,-456.5"/>
<text text-anchor="middle" x="374.5" y="-463.5" font-family="Helvetica,sans-Serif" font-size="10.00" fill="#000000">sam_free</text>
</a>
</g>
</g>
<!-- Node370&#45;&gt;Node374 -->
<g id="edge8" class="edge">
<title>Node370&#45;&gt;Node374</title>
<path fill="none" stroke="#191970" d="M268.5626,-434.7936C287.2906,-440.3104 314.1013,-448.2081 336.0644,-454.6779"/>
<polygon fill="#191970" stroke="#191970" points="335.1866,-458.0679 345.7681,-457.5363 337.1646,-451.3532 335.1866,-458.0679"/>
</g>
<!-- Node376 -->
<g id="node11" class="node">
<title>Node376</title>
<g id="a_node11"><a xlink:href="cl_8c.html#a03bd37ba4e5697866192d6f643a50de3" target="_top" xlink:title="Computes the current classifier action using the input. ">
<polygon fill="none" stroke="#000000" points="217.5,-147.5 217.5,-166.5 273.5,-166.5 273.5,-147.5 217.5,-147.5"/>
<text text-anchor="middle" x="245.5" y="-154.5" font-family="Helvetica,sans-Serif" font-size="10.00" fill="#000000">cl_action</text>
</a>
</g>
</g>
<!-- Node375&#45;&gt;Node376 -->
<g id="edge10" class="edge">
<title>Node375&#45;&gt;Node376</title>
<path fill="none" stroke="#191970" d="M176.0877,-157C186.0333,-157 196.9121,-157 207.0453,-157"/>
<polygon fill="#191970" stroke="#191970" points="207.2649,-160.5001 217.2649,-157 207.2649,-153.5001 207.2649,-160.5001"/>
</g>
<!-- Node378 -->
<g id="node13" class="node">
<title>Node378</title>
<g id="a_node13"><a xlink:href="cl_8c.html#ad26f65e65f9785ce44ece9979362d889" target="_top" xlink:title="Returns whether the classifier matched the most recent input. ">
<polygon fill="none" stroke="#000000" points="226.5,-109.5 226.5,-128.5 264.5,-128.5 264.5,-109.5 226.5,-109.5"/>
<text text-anchor="middle" x="245.5" y="-116.5" font-family="Helvetica,sans-Serif" font-size="10.00" fill="#000000">cl_m</text>
</a>
</g>
</g>
<!-- Node375&#45;&gt;Node378 -->
<g id="edge12" class="edge">
<title>Node375&#45;&gt;Node378</title>
<path fill="none" stroke="#191970" d="M167.3698,-147.411C182.4478,-141.9281 201.3727,-135.0463 216.8202,-129.429"/>
<polygon fill="#191970" stroke="#191970" points="218.1921,-132.6545 226.3939,-125.9477 215.7998,-126.0759 218.1921,-132.6545"/>
</g>
<!-- Node379 -->
<g id="node14" class="node">
<title>Node379</title>
<g id="a_node14"><a xlink:href="cl_8c.html#af5a666538852ce0406d5d8ad933f92f7" target="_top" xlink:title="Calculates whether the classifier matches the input. ">
<polygon fill="none" stroke="#000000" points="217.5,-52.5 217.5,-71.5 273.5,-71.5 273.5,-52.5 217.5,-52.5"/>
<text text-anchor="middle" x="245.5" y="-59.5" font-family="Helvetica,sans-Serif" font-size="10.00" fill="#000000">cl_match</text>
</a>
</g>
</g>
<!-- Node375&#45;&gt;Node379 -->
<g id="edge13" class="edge">
<title>Node375&#45;&gt;Node379</title>
<path fill="none" stroke="#191970" d="M151.7897,-147.1911C169.6385,-130.965 205.5021,-98.3617 227.3181,-78.529"/>
<polygon fill="#191970" stroke="#191970" points="229.8795,-80.9306 234.9246,-71.614 225.1708,-75.751 229.8795,-80.9306"/>
</g>
<!-- Node381 -->
<g id="node16" class="node">
<title>Node381</title>
<g id="a_node16"><a xlink:href="clset_8c.html#a73ab8d4cc3a3e4f70561c7f5bf20c265" target="_top" xlink:title="Adds a classifier to the set. ">
<polygon fill="none" stroke="#000000" points="613.5,-342.5 613.5,-361.5 672.5,-361.5 672.5,-342.5 613.5,-342.5"/>
<text text-anchor="middle" x="643" y="-349.5" font-family="Helvetica,sans-Serif" font-size="10.00" fill="#000000">clset_add</text>
</a>
</g>
</g>
<!-- Node375&#45;&gt;Node381 -->
<g id="edge15" class="edge">
<title>Node375&#45;&gt;Node381</title>
<path fill="none" stroke="#191970" d="M161.8113,-166.6278C166.695,-169.3295 171.7185,-172.4982 176,-176 195.2933,-191.7799 195.0815,-200.697 212,-219 255.5199,-266.0811 257.1466,-292.3667 315,-320 410.3653,-365.5506 538.877,-362.0274 603.0511,-356.5336"/>
<polygon fill="#191970" stroke="#191970" points="603.5158,-360.0058 613.1538,-355.6059 602.8757,-353.0351 603.5158,-360.0058"/>
</g>
<!-- Node382 -->
<g id="node17" class="node">
<title>Node382</title>
<g id="a_node17"><a xlink:href="clset_8c.html#afc4b91ff72294195a5462944b92ec9b2" target="_top" xlink:title="Ensures all possible actions are covered by the match set. ">
<polygon fill="none" stroke="#000000" points="212,-190.5 212,-209.5 279,-209.5 279,-190.5 212,-190.5"/>
<text text-anchor="middle" x="245.5" y="-197.5" font-family="Helvetica,sans-Serif" font-size="10.00" fill="#000000">clset_cover</text>
</a>
</g>
</g>
<!-- Node375&#45;&gt;Node382 -->
<g id="edge16" class="edge">
<title>Node375&#45;&gt;Node382</title>
<path fill="none" stroke="#191970" d="M164.1919,-166.5431C178.5329,-172.4442 197.1562,-180.1073 212.9604,-186.6105"/>
<polygon fill="#191970" stroke="#191970" points="211.7933,-189.9149 222.3729,-190.4836 214.4571,-183.4416 211.7933,-189.9149"/>
</g>
<!-- Node377 -->
<g id="node12" class="node">
<title>Node377</title>
<g id="a_node12"><a xlink:href="action_8h.html#aab6ebb454826f8e9425efc0ed2917023" target="_top" xlink:title="act_compute">
<polygon fill="none" stroke="#000000" points="338,-76.5 338,-95.5 411,-95.5 411,-76.5 338,-76.5"/>
<text text-anchor="middle" x="374.5" y="-83.5" font-family="Helvetica,sans-Serif" font-size="10.00" fill="#000000">act_compute</text>
</a>
</g>
</g>
<!-- Node376&#45;&gt;Node377 -->
<g id="edge11" class="edge">
<title>Node376&#45;&gt;Node377</title>
<path fill="none" stroke="#191970" d="M264.0467,-147.4672C269.0437,-144.637 274.3501,-141.3828 279,-138 296.5519,-125.2312 296.2237,-115.8886 315,-105 319.1773,-102.5775 323.7016,-100.4229 328.326,-98.5163"/>
<polygon fill="#191970" stroke="#191970" points="329.7382,-101.725 337.8793,-94.9446 327.2868,-95.1683 329.7382,-101.725"/>
</g>
<!-- Node380 -->
<g id="node15" class="node">
<title>Node380</title>
<g id="a_node15"><a xlink:href="condition_8h.html#a921ad37edd9a0af1c245bd9a490e3527" target="_top" xlink:title="cond_match">
<polygon fill="none" stroke="#000000" points="339.5,-38.5 339.5,-57.5 409.5,-57.5 409.5,-38.5 339.5,-38.5"/>
<text text-anchor="middle" x="374.5" y="-45.5" font-family="Helvetica,sans-Serif" font-size="10.00" fill="#000000">cond_match</text>
</a>
</g>
</g>
<!-- Node379&#45;&gt;Node380 -->
<g id="edge14" class="edge">
<title>Node379&#45;&gt;Node380</title>
<path fill="none" stroke="#191970" d="M273.8096,-58.9276C290.0799,-57.1619 310.8927,-54.9031 329.3685,-52.898"/>
<polygon fill="#191970" stroke="#191970" points="329.7848,-56.3735 339.3487,-51.8149 329.0294,-49.4143 329.7848,-56.3735"/>
</g>
<!-- Node382&#45;&gt;Node381 -->
<g id="edge40" class="edge">
<title>Node382&#45;&gt;Node381</title>
<path fill="none" stroke="#191970" d="M249.556,-209.7277C258.3096,-229.4094 280.9717,-273.8728 315,-295 327.2115,-302.5818 518.5451,-332.8055 603.2138,-345.8993"/>
<polygon fill="#191970" stroke="#191970" points="602.8139,-349.3789 613.2308,-347.4454 603.8817,-342.4609 602.8139,-349.3789"/>
</g>
<!-- Node383 -->
<g id="node18" class="node">
<title>Node383</title>
<g id="a_node18"><a xlink:href="cl_8c.html#a502630fa339b234b42b9b859a8c70986" target="_top" xlink:title="Covers the condition and action for a classifier. ">
<polygon fill="none" stroke="#000000" points="348,-190.5 348,-209.5 401,-209.5 401,-190.5 348,-190.5"/>
<text text-anchor="middle" x="374.5" y="-197.5" font-family="Helvetica,sans-Serif" font-size="10.00" fill="#000000">cl_cover</text>
</a>
</g>
</g>
<!-- Node382&#45;&gt;Node383 -->
<g id="edge17" class="edge">
<title>Node382&#45;&gt;Node383</title>
<path fill="none" stroke="#191970" d="M279.0565,-200C296.9877,-200 319.1003,-200 337.5247,-200"/>
<polygon fill="#191970" stroke="#191970" points="337.6083,-203.5001 347.6083,-200 337.6082,-196.5001 337.6083,-203.5001"/>
</g>
<!-- Node393 -->
<g id="node28" class="node">
<title>Node393</title>
<g id="a_node28"><a xlink:href="cl_8c.html#ab45c6f772a335d0a4fdb753a61958744" target="_top" xlink:title="Initialises a new classifier. ">
<polygon fill="none" stroke="#000000" points="353.5,-152.5 353.5,-171.5 395.5,-171.5 395.5,-152.5 353.5,-152.5"/>
<text text-anchor="middle" x="374.5" y="-159.5" font-family="Helvetica,sans-Serif" font-size="10.00" fill="#000000">cl_init</text>
</a>
</g>
</g>
<!-- Node382&#45;&gt;Node393 -->
<g id="edge27" class="edge">
<title>Node382&#45;&gt;Node393</title>
<path fill="none" stroke="#191970" d="M278.0521,-190.411C298.137,-184.4945 323.7513,-176.9492 343.5348,-171.1215"/>
<polygon fill="#191970" stroke="#191970" points="344.6851,-174.4314 353.2886,-168.2483 342.7071,-167.7167 344.6851,-174.4314"/>
</g>
<!-- Node404 -->
<g id="node39" class="node">
<title>Node404</title>
<g id="a_node39"><a xlink:href="clset_8c.html#a1be391cf8ecd96d1a71b1dc6a7feb4a9" target="_top" xlink:title="Returns whether an action is covered by the set. ">
<polygon fill="none" stroke="#000000" points="320,-114.5 320,-133.5 429,-133.5 429,-114.5 320,-114.5"/>
<text text-anchor="middle" x="374.5" y="-121.5" font-family="Helvetica,sans-Serif" font-size="10.00" fill="#000000">clset_action_covered</text>
</a>
</g>
</g>
<!-- Node382&#45;&gt;Node404 -->
<g id="edge39" class="edge">
<title>Node382&#45;&gt;Node404</title>
<path fill="none" stroke="#191970" d="M259.7975,-190.3248C265.845,-186.0882 272.8895,-180.9596 279,-176 295.8526,-162.3216 296.2237,-153.8886 315,-143 318.6408,-140.8886 322.5453,-138.9808 326.5499,-137.2632"/>
<polygon fill="#191970" stroke="#191970" points="327.9432,-140.4768 335.9984,-133.5947 325.4096,-133.9514 327.9432,-140.4768"/>
</g>
<!-- Node405 -->
<g id="node40" class="node">
<title>Node405</title>
<g id="a_node40"><a xlink:href="clset_8c.html#ad87086ed11e5fdd6bffe41b8a34f3608" target="_top" xlink:title="Enforces the maximum population size limit. ">
<polygon fill="none" stroke="#000000" points="315,-228.5 315,-247.5 434,-247.5 434,-228.5 315,-228.5"/>
<text text-anchor="middle" x="374.5" y="-235.5" font-family="Helvetica,sans-Serif" font-size="10.00" fill="#000000">clset_pop_enforce_limit</text>
</a>
</g>
</g>
<!-- Node382&#45;&gt;Node405 -->
<g id="edge41" class="edge">
<title>Node382&#45;&gt;Node405</title>
<path fill="none" stroke="#191970" d="M278.0521,-209.589C294.3993,-214.4044 314.4092,-220.2988 331.9571,-225.468"/>
<polygon fill="#191970" stroke="#191970" points="331.3768,-228.9457 341.9583,-228.4141 333.3548,-222.2309 331.3768,-228.9457"/>
</g>
<!-- Node415 -->
<g id="node50" class="node">
<title>Node415</title>
<g id="a_node50"><a xlink:href="clset_8c.html#a7ec1121fd19ff524f19b46ffa0522dd9" target="_top" xlink:title="Removes classifiers with 0 numerosity from the set. ">
<polygon fill="none" stroke="#000000" points="336,-266.5 336,-285.5 413,-285.5 413,-266.5 336,-266.5"/>
<text text-anchor="middle" x="374.5" y="-273.5" font-family="Helvetica,sans-Serif" font-size="10.00" fill="#000000">clset_validate</text>
</a>
</g>
</g>
<!-- Node382&#45;&gt;Node415 -->
<g id="edge53" class="edge">
<title>Node382&#45;&gt;Node415</title>
<path fill="none" stroke="#191970" d="M254.9815,-209.806C267.6108,-222.3585 291.1453,-244.03 315,-257 318.9655,-259.1561 323.2145,-261.1133 327.5499,-262.8794"/>
<polygon fill="#191970" stroke="#191970" points="326.51,-266.227 337.1026,-266.4432 328.9568,-259.6685 326.51,-266.227"/>
</g>
<!-- Node384 -->
<g id="node19" class="node">
<title>Node384</title>
<g id="a_node19"><a xlink:href="action_8h.html#ac250a5534d7c5fb268e0ccdb479d6e20" target="_top" xlink:title="act_cover">
<polygon fill="none" stroke="#000000" points="479,-190.5 479,-209.5 538,-209.5 538,-190.5 479,-190.5"/>
<text text-anchor="middle" x="508.5" y="-197.5" font-family="Helvetica,sans-Serif" font-size="10.00" fill="#000000">act_cover</text>
</a>
</g>
</g>
<!-- Node383&#45;&gt;Node384 -->
<g id="edge18" class="edge">
<title>Node383&#45;&gt;Node384</title>
<path fill="none" stroke="#191970" d="M401.2948,-200C420.5918,-200 446.9495,-200 468.7005,-200"/>
<polygon fill="#191970" stroke="#191970" points="468.9571,-203.5001 478.9571,-200 468.957,-196.5001 468.9571,-203.5001"/>
</g>
<!-- Node385 -->
<g id="node20" class="node">
<title>Node385</title>
<g id="a_node20"><a xlink:href="cl_8c.html#a7b56e6acc90b92c0692466ae2b7d2a24" target="_top" xlink:title="Initialises random actions, conditions and predictions. ">
<polygon fill="none" stroke="#000000" points="484.5,-152.5 484.5,-171.5 532.5,-171.5 532.5,-152.5 484.5,-152.5"/>
<text text-anchor="middle" x="508.5" y="-159.5" font-family="Helvetica,sans-Serif" font-size="10.00" fill="#000000">cl_rand</text>
</a>
</g>
</g>
<!-- Node383&#45;&gt;Node385 -->
<g id="edge19" class="edge">
<title>Node383&#45;&gt;Node385</title>
<path fill="none" stroke="#191970" d="M401.2948,-192.4015C422.3568,-186.4287 451.8303,-178.0705 474.5444,-171.6292"/>
<polygon fill="#191970" stroke="#191970" points="475.7847,-174.9156 484.4504,-168.82 473.8749,-168.1811 475.7847,-174.9156"/>
</g>
<!-- Node392 -->
<g id="node27" class="node">
<title>Node392</title>
<g id="a_node27"><a xlink:href="condition_8h.html#af6a4967f684827b76d279cc04420ab6d" target="_top" xlink:title="cond_cover">
<polygon fill="none" stroke="#000000" points="475,-114.5 475,-133.5 542,-133.5 542,-114.5 475,-114.5"/>
<text text-anchor="middle" x="508.5" y="-121.5" font-family="Helvetica,sans-Serif" font-size="10.00" fill="#000000">cond_cover</text>
</a>
</g>
</g>
<!-- Node383&#45;&gt;Node392 -->
<g id="edge26" class="edge">
<title>Node383&#45;&gt;Node392</title>
<path fill="none" stroke="#191970" d="M401.2216,-194.5366C411.9429,-191.5831 424.0823,-187.2284 434,-181 453.7016,-168.6274 451.2764,-156.808 470,-143 472.0996,-141.4516 474.3447,-139.9715 476.6563,-138.5699"/>
<polygon fill="#191970" stroke="#191970" points="478.6603,-141.4621 485.7344,-133.5749 475.2858,-135.3292 478.6603,-141.4621"/>
</g>
<!-- Node386 -->
<g id="node21" class="node">
<title>Node386</title>
<g id="a_node21"><a xlink:href="action_8h.html#a7561ff50b261f644feae225259c8b8f6" target="_top" xlink:title="act_init">
<polygon fill="none" stroke="#000000" points="619,-152.5 619,-171.5 667,-171.5 667,-152.5 619,-152.5"/>
<text text-anchor="middle" x="643" y="-159.5" font-family="Helvetica,sans-Serif" font-size="10.00" fill="#000000">act_init</text>
</a>
</g>
</g>
<!-- Node385&#45;&gt;Node386 -->
<g id="edge20" class="edge">
<title>Node385&#45;&gt;Node386</title>
<path fill="none" stroke="#191970" d="M532.5459,-162C553.74,-162 584.8623,-162 608.6739,-162"/>
<polygon fill="#191970" stroke="#191970" points="608.7088,-165.5001 618.7088,-162 608.7088,-158.5001 608.7088,-165.5001"/>
</g>
<!-- Node387 -->
<g id="node22" class="node">
<title>Node387</title>
<g id="a_node22"><a xlink:href="action_8c.html#ac235375c6dc54d6abca5efb0f50b1400" target="_top" xlink:title="Sets a classifier&#39;s action functions to the implementations. ">
<polygon fill="none" stroke="#000000" points="612,-114.5 612,-133.5 674,-133.5 674,-114.5 612,-114.5"/>
<text text-anchor="middle" x="643" y="-121.5" font-family="Helvetica,sans-Serif" font-size="10.00" fill="#000000">action_set</text>
</a>
</g>
</g>
<!-- Node385&#45;&gt;Node387 -->
<g id="edge21" class="edge">
<title>Node385&#45;&gt;Node387</title>
<path fill="none" stroke="#191970" d="M532.5459,-155.2064C551.7654,-149.7763 579.1493,-142.0396 601.842,-135.6283"/>
<polygon fill="#191970" stroke="#191970" points="602.8949,-138.9679 611.5665,-132.8808 600.9916,-132.2316 602.8949,-138.9679"/>
</g>
<!-- Node388 -->
<g id="node23" class="node">
<title>Node388</title>
<g id="a_node23"><a xlink:href="condition_8h.html#ac4e250ced4f7408df04ba9ac9f302c6e" target="_top" xlink:title="cond_init">
<polygon fill="none" stroke="#000000" points="615,-76.5 615,-95.5 671,-95.5 671,-76.5 615,-76.5"/>
<text text-anchor="middle" x="643" y="-83.5" font-family="Helvetica,sans-Serif" font-size="10.00" fill="#000000">cond_init</text>
</a>
</g>
</g>
<!-- Node385&#45;&gt;Node388 -->
<g id="edge22" class="edge">
<title>Node385&#45;&gt;Node388</title>
<path fill="none" stroke="#191970" d="M531.2656,-152.4251C536.6415,-149.7218 542.2009,-146.5391 547,-143 565.7236,-129.192 563.2835,-117.3488 583,-105 589.7715,-100.7589 597.57,-97.3904 605.2564,-94.7421"/>
<polygon fill="#191970" stroke="#191970" points="606.3363,-98.0717 614.8468,-91.7612 604.2586,-91.3872 606.3363,-98.0717"/>
</g>
<!-- Node389 -->
<g id="node24" class="node">
<title>Node389</title>
<g id="a_node24"><a xlink:href="condition_8c.html#aa485cf16f149e89aae83972b83b70596" target="_top" xlink:title="Sets a classifier&#39;s condition functions to the implementations. ">
<polygon fill="none" stroke="#000000" points="606,-38.5 606,-57.5 680,-57.5 680,-38.5 606,-38.5"/>
<text text-anchor="middle" x="643" y="-45.5" font-family="Helvetica,sans-Serif" font-size="10.00" fill="#000000">condition_set</text>
</a>
</g>
</g>
<!-- Node385&#45;&gt;Node389 -->
<g id="edge23" class="edge">
<title>Node385&#45;&gt;Node389</title>
<path fill="none" stroke="#191970" d="M532.5412,-153.2269C537.7551,-150.5265 542.9221,-147.1439 547,-143 573.2154,-116.36 554.8405,-91.576 583,-67 586.963,-63.5413 591.5573,-60.7115 596.4053,-58.3964"/>
<polygon fill="#191970" stroke="#191970" points="597.9777,-61.5362 605.9417,-54.5487 595.3585,-55.0447 597.9777,-61.5362"/>
</g>
<!-- Node390 -->
<g id="node25" class="node">
<title>Node390</title>
<g id="a_node25"><a xlink:href="prediction_8h.html#a32efd0b8ad0f4cbc72683c35c5e49afd" target="_top" xlink:title="pred_init">
<polygon fill="none" stroke="#000000" points="616.5,-228.5 616.5,-247.5 669.5,-247.5 669.5,-228.5 616.5,-228.5"/>
<text text-anchor="middle" x="643" y="-235.5" font-family="Helvetica,sans-Serif" font-size="10.00" fill="#000000">pred_init</text>
</a>
</g>
</g>
<!-- Node385&#45;&gt;Node390 -->
<g id="edge24" class="edge">
<title>Node385&#45;&gt;Node390</title>
<path fill="none" stroke="#191970" d="M531.2656,-171.5749C536.6415,-174.2782 542.2009,-177.4609 547,-181 565.7236,-194.808 563.2835,-206.6512 583,-219 590.1759,-223.4944 598.5052,-227.0088 606.6321,-229.7247"/>
<polygon fill="#191970" stroke="#191970" points="605.7692,-233.12 616.3537,-232.6537 607.7885,-226.4176 605.7692,-233.12"/>
</g>
<!-- Node391 -->
<g id="node26" class="node">
<title>Node391</title>
<g id="a_node26"><a xlink:href="prediction_8c.html#acc3389ac08ab3b032ab1223e3339be12" target="_top" xlink:title="Sets a classifier&#39;s prediction functions to the implementations. ">
<polygon fill="none" stroke="#000000" points="604.5,-190.5 604.5,-209.5 681.5,-209.5 681.5,-190.5 604.5,-190.5"/>
<text text-anchor="middle" x="643" y="-197.5" font-family="Helvetica,sans-Serif" font-size="10.00" fill="#000000">prediction_set</text>
</a>
</g>
</g>
<!-- Node385&#45;&gt;Node391 -->
<g id="edge25" class="edge">
<title>Node385&#45;&gt;Node391</title>
<path fill="none" stroke="#191970" d="M532.5459,-168.7936C551.0895,-174.0327 577.2333,-181.4191 599.431,-187.6906"/>
<polygon fill="#191970" stroke="#191970" points="598.7359,-191.1311 609.3108,-190.4819 600.6391,-184.3948 598.7359,-191.1311"/>
</g>
<!-- Node394 -->
<g id="node29" class="node">
<title>Node394</title>
<g id="a_node29"><a xlink:href="sam_8c.html#ac19f397e3c1bd2a2a4f4a1174509ac67" target="_top" xlink:title="Initialises a classifier&#39;s self&#45;adaptive mutation rates. ">
<polygon fill="none" stroke="#000000" points="482,-38.5 482,-57.5 535,-57.5 535,-38.5 482,-38.5"/>
<text text-anchor="middle" x="508.5" y="-45.5" font-family="Helvetica,sans-Serif" font-size="10.00" fill="#000000">sam_init</text>
</a>
</g>
</g>
<!-- Node393&#45;&gt;Node394 -->
<g id="edge28" class="edge">
<title>Node393&#45;&gt;Node394</title>
<path fill="none" stroke="#191970" d="M395.7021,-158.4416C407.7279,-155.6721 422.6029,-150.9221 434,-143 449.3371,-132.3393 479.4295,-90.4751 496.2975,-66.0234"/>
<polygon fill="#191970" stroke="#191970" points="499.2984,-67.8356 502.0564,-57.606 493.5211,-63.8829 499.2984,-67.8356"/>
</g>
<!-- Node395 -->
<g id="node30" class="node">
<title>Node395</title>
<g id="a_node30"><a xlink:href="sam_8c.html#a934d788eb57734b6118fff7385733803" target="_top" xlink:title="Resets a classifier&#39;s self&#45;adaptive mutation rates. ">
<polygon fill="none" stroke="#000000" points="612,-.5 612,-19.5 674,-19.5 674,-.5 612,-.5"/>
<text text-anchor="middle" x="643" y="-7.5" font-family="Helvetica,sans-Serif" font-size="10.00" fill="#000000">sam_reset</text>
</a>
</g>
</g>
<!-- Node394&#45;&gt;Node395 -->
<g id="edge29" class="edge">
<title>Node394&#45;&gt;Node395</title>
<path fill="none" stroke="#191970" d="M535.0729,-40.4924C554.1931,-35.0904 580.3403,-27.7031 602.1095,-21.5527"/>
<polygon fill="#191970" stroke="#191970" points="603.0909,-24.9125 611.7626,-18.8254 601.1877,-18.1762 603.0909,-24.9125"/>
</g>
<!-- Node396 -->
<g id="node31" class="node">
<title>Node396</title>
<g id="a_node31"><a xlink:href="sam_8c.html#a9b54bfbcf790a621afa925081a66941e" target="_top" xlink:title="Initialises log normal self&#45;adaptive mutation rates. ">
<polygon fill="none" stroke="#000000" points="894,-38.5 894,-57.5 1000,-57.5 1000,-38.5 894,-38.5"/>
<text text-anchor="middle" x="947" y="-45.5" font-family="Helvetica,sans-Serif" font-size="10.00" fill="#000000">sam_log_normal_init</text>
</a>
</g>
</g>
<!-- Node395&#45;&gt;Node396 -->
<g id="edge30" class="edge">
<title>Node395&#45;&gt;Node396</title>
<path fill="none" stroke="#191970" d="M674.4213,-17.0787C693.1004,-21.0712 717.3074,-25.8713 739,-29 787.3058,-35.9672 842.3128,-40.8602 883.6219,-43.9343"/>
<polygon fill="#191970" stroke="#191970" points="883.5888,-47.4411 893.8167,-44.6768 884.0974,-40.4596 883.5888,-47.4411"/>
</g>
<!-- Node402 -->
<g id="node37" class="node">
<title>Node402</title>
<g id="a_node37"><a xlink:href="sam_8c.html#afa2d48bd3ec297da02c66bdbb554280b" target="_top" xlink:title="Initialises rate selection self&#45;adaptive mutation. ">
<polygon fill="none" stroke="#000000" points="739,-.5 739,-19.5 858,-19.5 858,-.5 739,-.5"/>
<text text-anchor="middle" x="798.5" y="-7.5" font-family="Helvetica,sans-Serif" font-size="10.00" fill="#000000">sam_rate_selection_init</text>
</a>
</g>
</g>
<!-- Node395&#45;&gt;Node402 -->
<g id="edge36" class="edge">
<title>Node395&#45;&gt;Node402</title>
<path fill="none" stroke="#191970" d="M674.094,-10C689.7958,-10 709.5262,-10 728.6174,-10"/>
<polygon fill="#191970" stroke="#191970" points="728.8218,-13.5001 738.8218,-10 728.8217,-6.5001 728.8218,-13.5001"/>
</g>
<!-- Node397 -->
<g id="node32" class="node">
<title>Node397</title>
<g id="a_node32"><a xlink:href="utils_8c.html#ae42a9e1d467853befaa7922cfafed3bb" target="_top" xlink:title="Returns a uniform random float [min,max]. ">
<polygon fill="none" stroke="#000000" points="1036,-38.5 1036,-57.5 1109,-57.5 1109,-38.5 1036,-38.5"/>
<text text-anchor="middle" x="1072.5" y="-45.5" font-family="Helvetica,sans-Serif" font-size="10.00" fill="#000000">rand_uniform</text>
</a>
</g>
</g>
<!-- Node396&#45;&gt;Node397 -->
<g id="edge31" class="edge">
<title>Node396&#45;&gt;Node397</title>
<path fill="none" stroke="#191970" d="M1000.2233,-48C1008.6785,-48 1017.37,-48 1025.6643,-48"/>
<polygon fill="#191970" stroke="#191970" points="1025.9104,-51.5001 1035.9103,-48 1025.9103,-44.5001 1025.9104,-51.5001"/>
</g>
<!-- Node398 -->
<g id="node33" class="node">
<title>Node398</title>
<g id="a_node33"><a xlink:href="utils_8c.html#a101d27cdda714b7f17a06224c65cac56" target="_top" xlink:title="Returns a uniform random float [0,1]. ">
<polygon fill="none" stroke="#000000" points="1145,-38.5 1145,-57.5 1186,-57.5 1186,-38.5 1145,-38.5"/>
<text text-anchor="middle" x="1165.5" y="-45.5" font-family="Helvetica,sans-Serif" font-size="10.00" fill="#000000">drand</text>
</a>
</g>
</g>
<!-- Node397&#45;&gt;Node398 -->
<g id="edge32" class="edge">
<title>Node397&#45;&gt;Node398</title>
<path fill="none" stroke="#191970" d="M1109.2561,-48C1117.658,-48 1126.5043,-48 1134.63,-48"/>
<polygon fill="#191970" stroke="#191970" points="1134.799,-51.5001 1144.7989,-48 1134.7989,-44.5001 1134.799,-51.5001"/>
</g>
<!-- Node399 -->
<g id="node34" class="node">
<title>Node399</title>
<g id="a_node34"><a xlink:href="mt19937-64_8c.html#aa0b74daf51eca91df224d00f1730084a" target="_top" xlink:title="genrand64_real1">
<polygon fill="none" stroke="#000000" points="1222,-38.5 1222,-57.5 1310,-57.5 1310,-38.5 1222,-38.5"/>
<text text-anchor="middle" x="1266" y="-45.5" font-family="Helvetica,sans-Serif" font-size="10.00" fill="#000000">genrand64_real1</text>
</a>
</g>
</g>
<!-- Node398&#45;&gt;Node399 -->
<g id="edge33" class="edge">
<title>Node398&#45;&gt;Node399</title>
<path fill="none" stroke="#191970" d="M1186.3237,-48C1193.8428,-48 1202.7193,-48 1211.769,-48"/>
<polygon fill="#191970" stroke="#191970" points="1211.9969,-51.5001 1221.9969,-48 1211.9969,-44.5001 1211.9969,-51.5001"/>
</g>
<!-- Node400 -->
<g id="node35" class="node">
<title>Node400</title>
<g id="a_node35"><a xlink:href="mt19937-64_8c.html#a265bf48d20d6e0347371fcf4fe340e6d" target="_top" xlink:title="genrand64_int64">
<polygon fill="none" stroke="#000000" points="1346,-38.5 1346,-57.5 1434,-57.5 1434,-38.5 1346,-38.5"/>
<text text-anchor="middle" x="1390" y="-45.5" font-family="Helvetica,sans-Serif" font-size="10.00" fill="#000000">genrand64_int64</text>
</a>
</g>
</g>
<!-- Node399&#45;&gt;Node400 -->
<g id="edge34" class="edge">
<title>Node399&#45;&gt;Node400</title>
<path fill="none" stroke="#191970" d="M1310.0669,-48C1318.2822,-48 1326.957,-48 1335.4432,-48"/>
<polygon fill="#191970" stroke="#191970" points="1335.6572,-51.5001 1345.6572,-48 1335.6572,-44.5001 1335.6572,-51.5001"/>
</g>
<!-- Node401 -->
<g id="node36" class="node">
<title>Node401</title>
<g id="a_node36"><a xlink:href="mt19937-64_8c.html#adf4127d44c2dc34fcb318d406131ef7c" target="_top" xlink:title="init_genrand64">
<polygon fill="none" stroke="#000000" points="1470,-38.5 1470,-57.5 1550,-57.5 1550,-38.5 1470,-38.5"/>
<text text-anchor="middle" x="1510" y="-45.5" font-family="Helvetica,sans-Serif" font-size="10.00" fill="#000000">init_genrand64</text>
</a>
</g>
</g>
<!-- Node400&#45;&gt;Node401 -->
<g id="edge35" class="edge">
<title>Node400&#45;&gt;Node401</title>
<path fill="none" stroke="#191970" d="M1434.0022,-48C1442.3719,-48 1451.1896,-48 1459.7365,-48"/>
<polygon fill="#191970" stroke="#191970" points="1459.9792,-51.5001 1469.9792,-48 1459.9792,-44.5001 1459.9792,-51.5001"/>
</g>
<!-- Node403 -->
<g id="node38" class="node">
<title>Node403</title>
<g id="a_node38"><a xlink:href="utils_8c.html#a32648ab076544a9ac1c086d0f07b599f" target="_top" xlink:title="Returns a uniform random integer [min,max] not inclusive of max. ">
<polygon fill="none" stroke="#000000" points="909.5,-.5 909.5,-19.5 984.5,-19.5 984.5,-.5 909.5,-.5"/>
<text text-anchor="middle" x="947" y="-7.5" font-family="Helvetica,sans-Serif" font-size="10.00" fill="#000000">irand_uniform</text>
</a>
</g>
</g>
<!-- Node402&#45;&gt;Node403 -->
<g id="edge37" class="edge">
<title>Node402&#45;&gt;Node403</title>
<path fill="none" stroke="#191970" d="M858.045,-10C871.6704,-10 885.9841,-10 899.05,-10"/>
<polygon fill="#191970" stroke="#191970" points="899.2241,-13.5001 909.2241,-10 899.2241,-6.5001 899.2241,-13.5001"/>
</g>
<!-- Node403&#45;&gt;Node397 -->
<g id="edge38" class="edge">
<title>Node403&#45;&gt;Node397</title>
<path fill="none" stroke="#191970" d="M978.6689,-19.589C994.5725,-24.4044 1014.0396,-30.2988 1031.1114,-35.468"/>
<polygon fill="#191970" stroke="#191970" points="1030.256,-38.8658 1040.8412,-38.4141 1032.2846,-32.1662 1030.256,-38.8658"/>
</g>
<!-- Node406 -->
<g id="node41" class="node">
<title>Node406</title>
<g id="a_node41"><a xlink:href="clset_8c.html#a6dae2bd49bceef5337bcad19010098f8" target="_top" xlink:title="Deletes a single classifier from the population set. ">
<polygon fill="none" stroke="#000000" points="470,-266.5 470,-285.5 547,-285.5 547,-266.5 470,-266.5"/>
<text text-anchor="middle" x="508.5" y="-273.5" font-family="Helvetica,sans-Serif" font-size="10.00" fill="#000000">clset_pop_del</text>
</a>
</g>
</g>
<!-- Node405&#45;&gt;Node406 -->
<g id="edge42" class="edge">
<title>Node405&#45;&gt;Node406</title>
<path fill="none" stroke="#191970" d="M408.3139,-247.589C425.5326,-252.4719 446.6637,-258.4643 465.0733,-263.685"/>
<polygon fill="#191970" stroke="#191970" points="464.1214,-267.053 474.697,-266.4141 466.0312,-260.3185 464.1214,-267.053"/>
</g>
<!-- Node406&#45;&gt;Node381 -->
<g id="edge43" class="edge">
<title>Node406&#45;&gt;Node381</title>
<path fill="none" stroke="#191970" d="M525.4333,-285.6299C532.316,-289.7786 540.2265,-294.8541 547,-300 564.2832,-313.1303 564.2106,-322.1341 583,-333 589.3728,-336.6854 596.5471,-339.747 603.6596,-342.2578"/>
<polygon fill="#191970" stroke="#191970" points="602.6475,-345.6089 613.2391,-345.3472 604.7961,-338.9467 602.6475,-345.6089"/>
</g>
<!-- Node407 -->
<g id="node42" class="node">
<title>Node407</title>
<g id="a_node42"><a xlink:href="clset_8c.html#af899fada328f41ed56991a51fe80db17" target="_top" xlink:title="Finds a rule in the population that never matches an input. ">
<polygon fill="none" stroke="#000000" points="583,-266.5 583,-285.5 703,-285.5 703,-266.5 583,-266.5"/>
<text text-anchor="middle" x="643" y="-273.5" font-family="Helvetica,sans-Serif" font-size="10.00" fill="#000000">clset_pop_never_match</text>
</a>
</g>
</g>
<!-- Node406&#45;&gt;Node407 -->
<g id="edge44" class="edge">
<title>Node406&#45;&gt;Node407</title>
<path fill="none" stroke="#191970" d="M547.0423,-276C555.1639,-276 563.9732,-276 572.85,-276"/>
<polygon fill="#191970" stroke="#191970" points="572.8679,-279.5001 582.8678,-276 572.8678,-272.5001 572.8679,-279.5001"/>
</g>
<!-- Node408 -->
<g id="node43" class="node">
<title>Node408</title>
<g id="a_node43"><a xlink:href="clset_8c.html#a008502b88c280aa55bb9a3645216209c" target="_top" xlink:title="clset_pop_roulette">
<polygon fill="none" stroke="#000000" points="595,-304.5 595,-323.5 691,-323.5 691,-304.5 595,-304.5"/>
<text text-anchor="middle" x="643" y="-311.5" font-family="Helvetica,sans-Serif" font-size="10.00" fill="#000000">clset_pop_roulette</text>
</a>
</g>
</g>
<!-- Node406&#45;&gt;Node408 -->
<g id="edge45" class="edge">
<title>Node406&#45;&gt;Node408</title>
<path fill="none" stroke="#191970" d="M542.44,-285.589C559.7231,-290.4719 580.9329,-296.4643 599.4112,-301.685"/>
<polygon fill="#191970" stroke="#191970" points="598.4959,-305.0633 609.0708,-304.4141 600.3992,-298.327 598.4959,-305.0633"/>
</g>
<!-- Node408&#45;&gt;Node397 -->
<g id="edge52" class="edge">
<title>Node408&#45;&gt;Node397</title>
<path fill="none" stroke="#191970" d="M686.151,-304.4307C692.1583,-301.9631 697.9822,-298.8709 703,-295 726.7241,-276.6985 717.3369,-258.7 739,-238 831.3383,-149.7671 972.3457,-87.1519 1037.3904,-61.2516"/>
<polygon fill="#191970" stroke="#191970" points="1038.7651,-64.472 1046.7901,-57.5546 1036.2029,-57.9577 1038.7651,-64.472"/>
</g>
<!-- Node409 -->
<g id="node44" class="node">
<title>Node409</title>
<g id="a_node44"><a xlink:href="cl_8c.html#a49f5a7f4f2f47ce1cf7f33b3769de7cc" target="_top" xlink:title="Returns the size of the classifier condition. ">
<polygon fill="none" stroke="#000000" points="761.5,-285.5 761.5,-304.5 835.5,-304.5 835.5,-285.5 761.5,-285.5"/>
<text text-anchor="middle" x="798.5" y="-292.5" font-family="Helvetica,sans-Serif" font-size="10.00" fill="#000000">cl_cond_size</text>
</a>
</g>
</g>
<!-- Node408&#45;&gt;Node409 -->
<g id="edge46" class="edge">
<title>Node408&#45;&gt;Node409</title>
<path fill="none" stroke="#191970" d="M691.3488,-308.0924C710.3054,-305.7762 731.9966,-303.1258 750.8818,-300.8183"/>
<polygon fill="#191970" stroke="#191970" points="751.5482,-304.263 761.0498,-299.5759 750.6991,-297.3147 751.5482,-304.263"/>
</g>
<!-- Node411 -->
<g id="node46" class="node">
<title>Node411</title>
<g id="a_node46"><a xlink:href="cl_8c.html#aa0059f455cba46b3a1acb6b8a271b95f" target="_top" xlink:title="Returns the deletion vote of the classifier. ">
<polygon fill="none" stroke="#000000" points="765.5,-247.5 765.5,-266.5 831.5,-266.5 831.5,-247.5 765.5,-247.5"/>
<text text-anchor="middle" x="798.5" y="-254.5" font-family="Helvetica,sans-Serif" font-size="10.00" fill="#000000">cl_del_vote</text>
</a>
</g>
</g>
<!-- Node408&#45;&gt;Node411 -->
<g id="edge48" class="edge">
<title>Node408&#45;&gt;Node411</title>
<path fill="none" stroke="#191970" d="M676.7059,-304.491C685.3849,-301.7269 694.6334,-298.4994 703,-295 719.6905,-288.019 722.3179,-283.0012 739,-276 744.3806,-273.7418 750.1283,-271.5935 755.8509,-269.6086"/>
<polygon fill="#191970" stroke="#191970" points="757.0072,-272.9126 765.3888,-266.4319 754.7951,-266.2712 757.0072,-272.9126"/>
</g>
<!-- Node412 -->
<g id="node47" class="node">
<title>Node412</title>
<g id="a_node47"><a xlink:href="cl_8c.html#a72d3cf213699a8d68d348ff75c2b2d49" target="_top" xlink:title="Returns the size of the classifier prediction. ">
<polygon fill="none" stroke="#000000" points="763,-361.5 763,-380.5 834,-380.5 834,-361.5 763,-361.5"/>
<text text-anchor="middle" x="798.5" y="-368.5" font-family="Helvetica,sans-Serif" font-size="10.00" fill="#000000">cl_pred_size</text>
</a>
</g>
</g>
<!-- Node408&#45;&gt;Node412 -->
<g id="edge49" class="edge">
<title>Node408&#45;&gt;Node412</title>
<path fill="none" stroke="#191970" d="M676.7059,-323.509C685.3849,-326.2731 694.6334,-329.5006 703,-333 719.6905,-339.981 722.3179,-344.9988 739,-352 744.1869,-354.1769 749.7149,-356.2517 755.2327,-358.1764"/>
<polygon fill="#191970" stroke="#191970" points="754.4841,-361.6165 765.0779,-361.4684 756.704,-354.9778 754.4841,-361.6165"/>
</g>
<!-- Node414 -->
<g id="node49" class="node">
<title>Node414</title>
<g id="a_node49"><a xlink:href="clset_8c.html#a9a50c1393921d731b6840a654c366fb8" target="_top" xlink:title="Calculates the total fitness of classifiers in the set. ">
<polygon fill="none" stroke="#000000" points="761,-323.5 761,-342.5 836,-342.5 836,-323.5 761,-323.5"/>
<text text-anchor="middle" x="798.5" y="-330.5" font-family="Helvetica,sans-Serif" font-size="10.00" fill="#000000">clset_total_fit</text>
</a>
</g>
</g>
<!-- Node408&#45;&gt;Node414 -->
<g id="edge51" class="edge">
<title>Node408&#45;&gt;Node414</title>
<path fill="none" stroke="#191970" d="M691.3488,-319.9076C710.1549,-322.2054 731.6524,-324.8321 750.4317,-327.1267"/>
<polygon fill="#191970" stroke="#191970" points="750.1999,-330.6243 760.5506,-328.3631 751.0489,-323.676 750.1999,-330.6243"/>
</g>
<!-- Node410 -->
<g id="node45" class="node">
<title>Node410</title>
<g id="a_node45"><a xlink:href="condition_8h.html#afc882c8ebd96835127f8e611b815d447" target="_top" xlink:title="cond_size">
<polygon fill="none" stroke="#000000" points="916.5,-285.5 916.5,-304.5 977.5,-304.5 977.5,-285.5 916.5,-285.5"/>
<text text-anchor="middle" x="947" y="-292.5" font-family="Helvetica,sans-Serif" font-size="10.00" fill="#000000">cond_size</text>
</a>
</g>
</g>
<!-- Node409&#45;&gt;Node410 -->
<g id="edge47" class="edge">
<title>Node409&#45;&gt;Node410</title>
<path fill="none" stroke="#191970" d="M835.5898,-295C857.0968,-295 884.2084,-295 906.3015,-295"/>
<polygon fill="#191970" stroke="#191970" points="906.3785,-298.5001 916.3784,-295 906.3784,-291.5001 906.3785,-298.5001"/>
</g>
<!-- Node413 -->
<g id="node48" class="node">
<title>Node413</title>
<g id="a_node48"><a xlink:href="prediction_8h.html#a60ead673b526125328224ec152916290" target="_top" xlink:title="pred_size">
<polygon fill="none" stroke="#000000" points="917.5,-361.5 917.5,-380.5 976.5,-380.5 976.5,-361.5 917.5,-361.5"/>
<text text-anchor="middle" x="947" y="-368.5" font-family="Helvetica,sans-Serif" font-size="10.00" fill="#000000">pred_size</text>
</a>
</g>
</g>
<!-- Node412&#45;&gt;Node413 -->
<g id="edge50" class="edge">
<title>Node412&#45;&gt;Node413</title>
<path fill="none" stroke="#191970" d="M834.0694,-371C856.0946,-371 884.42,-371 907.1925,-371"/>
<polygon fill="#191970" stroke="#191970" points="907.2222,-374.5001 917.2222,-371 907.2222,-367.5001 907.2222,-374.5001"/>
</g>
<!-- Node417 -->
<g id="node52" class="node">
<title>Node417</title>
<g id="a_node52"><a xlink:href="cl_8c.html#a2e37895c1cc585b83805af74061afa46" target="_top" xlink:title="Computes the current classifier payoff prediction using the input. ">
<polygon fill="none" stroke="#000000" points="216,-5.5 216,-24.5 275,-24.5 275,-5.5 216,-5.5"/>
<text text-anchor="middle" x="245.5" y="-12.5" font-family="Helvetica,sans-Serif" font-size="10.00" fill="#000000">cl_predict</text>
</a>
</g>
</g>
<!-- Node416&#45;&gt;Node417 -->
<g id="edge55" class="edge">
<title>Node416&#45;&gt;Node417</title>
<path fill="none" stroke="#191970" d="M158.727,-62.3307C175.2655,-53.3097 200.1567,-39.7327 219.0447,-29.4302"/>
<polygon fill="#191970" stroke="#191970" points="220.9318,-32.3877 228.0348,-24.5265 217.5798,-26.2424 220.9318,-32.3877"/>
</g>
<!-- Node418 -->
<g id="node53" class="node">
<title>Node418</title>
<g id="a_node53"><a xlink:href="prediction_8h.html#a98a959a3e1a7e5e353c39a561efd666c" target="_top" xlink:title="pred_compute">
<polygon fill="none" stroke="#000000" points="335.5,-.5 335.5,-19.5 413.5,-19.5 413.5,-.5 335.5,-.5"/>
<text text-anchor="middle" x="374.5" y="-7.5" font-family="Helvetica,sans-Serif" font-size="10.00" fill="#000000">pred_compute</text>
</a>
</g>
</g>
<!-- Node417&#45;&gt;Node418 -->
<g id="edge56" class="edge">
<title>Node417&#45;&gt;Node418</title>
<path fill="none" stroke="#191970" d="M275.0952,-13.8529C289.8793,-13.2799 308.1644,-12.5711 325.0048,-11.9184"/>
<polygon fill="#191970" stroke="#191970" points="325.4025,-15.4057 335.2594,-11.521 325.1313,-8.411 325.4025,-15.4057"/>
</g>
</g>
</svg>
