<?xml version="1.0" encoding="UTF-8" standalone="no"?>
<!DOCTYPE svg PUBLIC "-//W3C//DTD SVG 1.1//EN"
 "http://www.w3.org/Graphics/SVG/1.1/DTD/svg11.dtd">
<!-- Generated by graphviz version 2.40.1 (20161225.0304)
 -->
<!-- Title: xcsf_fit Pages: 1 -->
<svg width="279pt" height="66pt"
 viewBox="0.00 0.00 279.00 66.00" xmlns="http://www.w3.org/2000/svg" xmlns:xlink="http://www.w3.org/1999/xlink">
<g id="graph0" class="graph" transform="scale(1 1) rotate(0) translate(4 62)">
<title>xcsf_fit</title>
<!-- Node91 -->
<g id="node1" class="node">
<title>Node91</title>
<polygon fill="#bfbfbf" stroke="#000000" points="0,-19.5 0,-38.5 49,-38.5 49,-19.5 0,-19.5"/>
<text text-anchor="middle" x="24.5" y="-26.5" font-family="Helvetica,sans-Serif" font-size="10.00" fill="#000000">xcsf_fit</text>
</g>
<!-- Node92 -->
<g id="node2" class="node">
<title>Node92</title>
<g id="a_node2"><a xlink:href="classXCS.html#ac9a4a7cb0ec6238ef1d4d77996f8975b" target="_top" xlink:title="XCS::fit">
<polygon fill="none" stroke="#000000" points="85,-38.5 85,-57.5 137,-57.5 137,-38.5 85,-38.5"/>
<text text-anchor="middle" x="111" y="-45.5" font-family="Helvetica,sans-Serif" font-size="10.00" fill="#000000">XCS::fit</text>
</a>
</g>
</g>
<!-- Node91&#45;&gt;Node92 -->
<g id="edge1" class="edge">
<title>Node91&#45;&gt;Node92</title>
<path fill="none" stroke="#191970" d="M58.8987,-36.5558C67.5513,-38.4564 76.6976,-40.4654 84.8711,-42.2607"/>
<polygon fill="#191970" stroke="#191970" points="59.5741,-33.1208 49.0561,-34.3938 58.0723,-39.9578 59.5741,-33.1208"/>
</g>
<!-- Node94 -->
<g id="node4" class="node">
<title>Node94</title>
<g id="a_node4"><a xlink:href="main_8c.html#a3c04138a5bfe5d72780bb7e82a18e627" target="_top" xlink:title="main">
<polygon fill="none" stroke="#000000" points="92,-.5 92,-19.5 130,-19.5 130,-.5 92,-.5"/>
<text text-anchor="middle" x="111" y="-7.5" font-family="Helvetica,sans-Serif" font-size="10.00" fill="#000000">main</text>
</a>
</g>
</g>
<!-- Node91&#45;&gt;Node94 -->
<g id="edge3" class="edge">
<title>Node91&#45;&gt;Node94</title>
<path fill="none" stroke="#191970" d="M59.0197,-21.4176C70.2175,-18.958 82.23,-16.3194 91.8833,-14.199"/>
<polygon fill="#191970" stroke="#191970" points="58.0723,-18.0422 49.0561,-23.6062 59.5741,-24.8792 58.0723,-18.0422"/>
</g>
<!-- Node93 -->
<g id="node3" class="node">
<title>Node93</title>
<g id="a_node3"><a xlink:href="pybind__wrapper_8cpp.html#a9f26280e01308c4674f2473fb6f78730" target="_top" xlink:title="pybind11_init_xcsf">
<polygon fill="none" stroke="#000000" points="173,-38.5 173,-57.5 271,-57.5 271,-38.5 173,-38.5"/>
<text text-anchor="middle" x="222" y="-45.5" font-family="Helvetica,sans-Serif" font-size="10.00" fill="#000000">pybind11_init_xcsf</text>
</a>
</g>
</g>
<!-- Node92&#45;&gt;Node93 -->
<g id="edge2" class="edge">
<title>Node92&#45;&gt;Node93</title>
<path fill="none" stroke="#191970" d="M147.2453,-48C155.3462,-48 164.0719,-48 172.6029,-48"/>
<polygon fill="#191970" stroke="#191970" points="147.0246,-44.5001 137.0246,-48 147.0245,-51.5001 147.0246,-44.5001"/>
</g>
</g>
</svg>
