<?xml version="1.0" encoding="UTF-8" standalone="no"?>
<!DOCTYPE svg PUBLIC "-//W3C//DTD SVG 1.1//EN"
 "http://www.w3.org/Graphics/SVG/1.1/DTD/svg11.dtd">
<!-- Generated by graphviz version 2.40.1 (20161225.0304)
 -->
<!-- Title: xcsf_print_match_set Pages: 1 -->
<svg width="1555pt" height="674pt"
 viewBox="0.00 0.00 1555.00 674.00" xmlns="http://www.w3.org/2000/svg" xmlns:xlink="http://www.w3.org/1999/xlink">
<g id="graph0" class="graph" transform="scale(1 1) rotate(0) translate(4 670)">
<title>xcsf_print_match_set</title>
<!-- Node408 -->
<g id="node1" class="node">
<title>Node408</title>
<polygon fill="#bfbfbf" stroke="#000000" points="0,-333.5 0,-352.5 110,-352.5 110,-333.5 0,-333.5"/>
<text text-anchor="middle" x="55" y="-340.5" font-family="Helvetica,sans-Serif" font-size="10.00" fill="#000000">xcsf_print_match_set</text>
</g>
<!-- Node409 -->
<g id="node2" class="node">
<title>Node409</title>
<g id="a_node2"><a xlink:href="clset_8c.html#a75789e37a9512f6358e710580ad17d87" target="_top" xlink:title="Frees the set, but not the classifiers. ">
<polygon fill="none" stroke="#000000" points="151.5,-409.5 151.5,-428.5 210.5,-428.5 210.5,-409.5 151.5,-409.5"/>
<text text-anchor="middle" x="181" y="-416.5" font-family="Helvetica,sans-Serif" font-size="10.00" fill="#000000">clset_free</text>
</a>
</g>
</g>
<!-- Node408&#45;&gt;Node409 -->
<g id="edge1" class="edge">
<title>Node408&#45;&gt;Node409</title>
<path fill="none" stroke="#191970" d="M69.6434,-352.5662C87.483,-364.1283 118.6319,-384.021 146,-400 148.5189,-401.4707 151.1582,-402.9727 153.8096,-404.4556"/>
<polygon fill="#191970" stroke="#191970" points="152.2653,-407.6006 162.7145,-409.3515 155.6378,-401.4666 152.2653,-407.6006"/>
</g>
<!-- Node410 -->
<g id="node3" class="node">
<title>Node410</title>
<g id="a_node3"><a xlink:href="clset_8c.html#a7feb00168d3dbd1d0597301029aed664" target="_top" xlink:title="Initialises a new set. ">
<polygon fill="none" stroke="#000000" points="153,-371.5 153,-390.5 209,-390.5 209,-371.5 153,-371.5"/>
<text text-anchor="middle" x="181" y="-378.5" font-family="Helvetica,sans-Serif" font-size="10.00" fill="#000000">clset_init</text>
</a>
</g>
</g>
<!-- Node408&#45;&gt;Node410 -->
<g id="edge2" class="edge">
<title>Node408&#45;&gt;Node410</title>
<path fill="none" stroke="#191970" d="M86.7951,-352.589C103.8955,-357.7463 125.0995,-364.1411 143.058,-369.5572"/>
<polygon fill="#191970" stroke="#191970" points="142.0697,-372.9148 152.6544,-372.4513 144.091,-366.2129 142.0697,-372.9148"/>
</g>
<!-- Node411 -->
<g id="node4" class="node">
<title>Node411</title>
<g id="a_node4"><a xlink:href="clset_8c.html#aad012238caff12fcd827b1e282c9a4ef" target="_top" xlink:title="Frees the set and the classifiers. ">
<polygon fill="none" stroke="#000000" points="153.5,-333.5 153.5,-352.5 208.5,-352.5 208.5,-333.5 153.5,-333.5"/>
<text text-anchor="middle" x="181" y="-340.5" font-family="Helvetica,sans-Serif" font-size="10.00" fill="#000000">clset_kill</text>
</a>
</g>
</g>
<!-- Node408&#45;&gt;Node411 -->
<g id="edge3" class="edge">
<title>Node408&#45;&gt;Node411</title>
<path fill="none" stroke="#191970" d="M110.2654,-343C121.3564,-343 132.7721,-343 143.1094,-343"/>
<polygon fill="#191970" stroke="#191970" points="143.4328,-346.5001 153.4327,-343 143.4327,-339.5001 143.4328,-346.5001"/>
</g>
<!-- Node417 -->
<g id="node10" class="node">
<title>Node417</title>
<g id="a_node10"><a xlink:href="clset_8c.html#a460e3bd1d979c502e9e9d97d4253f97c" target="_top" xlink:title="Constructs the match set. ">
<polygon fill="none" stroke="#000000" points="146,-295.5 146,-314.5 216,-314.5 216,-295.5 146,-295.5"/>
<text text-anchor="middle" x="181" y="-302.5" font-family="Helvetica,sans-Serif" font-size="10.00" fill="#000000">clset_match</text>
</a>
</g>
</g>
<!-- Node408&#45;&gt;Node417 -->
<g id="edge9" class="edge">
<title>Node408&#45;&gt;Node417</title>
<path fill="none" stroke="#191970" d="M86.7951,-333.411C102.7621,-328.5956 122.3067,-322.7012 139.4465,-317.532"/>
<polygon fill="#191970" stroke="#191970" points="140.6516,-320.8244 149.2151,-314.5859 138.6304,-314.1225 140.6516,-320.8244"/>
</g>
<!-- Node456 -->
<g id="node49" class="node">
<title>Node456</title>
<g id="a_node49"><a xlink:href="clset_8c.html#af735b50009ce40e991d187e2c57033d4" target="_top" xlink:title="Prints the classifiers in the set. ">
<polygon fill="none" stroke="#000000" points="150,-181.5 150,-200.5 212,-200.5 212,-181.5 150,-181.5"/>
<text text-anchor="middle" x="181" y="-188.5" font-family="Helvetica,sans-Serif" font-size="10.00" fill="#000000">clset_print</text>
</a>
</g>
</g>
<!-- Node408&#45;&gt;Node456 -->
<g id="edge52" class="edge">
<title>Node408&#45;&gt;Node456</title>
<path fill="none" stroke="#191970" d="M62.8819,-333.4917C83.5652,-308.5404 139.6401,-240.8945 166.4035,-208.6085"/>
<polygon fill="#191970" stroke="#191970" points="169.4338,-210.4372 173.1211,-200.5047 164.0446,-205.9698 169.4338,-210.4372"/>
</g>
<!-- Node412 -->
<g id="node5" class="node">
<title>Node412</title>
<g id="a_node5"><a xlink:href="cl_8c.html#a2bba8869890a67c2412a358c8f3ec0b4" target="_top" xlink:title="Frees the memory used by the classifier. ">
<polygon fill="none" stroke="#000000" points="262.5,-570.5 262.5,-589.5 308.5,-589.5 308.5,-570.5 262.5,-570.5"/>
<text text-anchor="middle" x="285.5" y="-577.5" font-family="Helvetica,sans-Serif" font-size="10.00" fill="#000000">cl_free</text>
</a>
</g>
</g>
<!-- Node411&#45;&gt;Node412 -->
<g id="edge4" class="edge">
<title>Node411&#45;&gt;Node412</title>
<path fill="none" stroke="#191970" d="M205.2992,-352.6355C209.3508,-355.1627 213.1542,-358.2576 216,-362 259.0695,-418.6403 226.8611,-451.4331 252,-518 257.7982,-533.3533 266.7178,-549.6396 273.8958,-561.6657"/>
<polygon fill="#191970" stroke="#191970" points="270.9765,-563.6005 279.1861,-570.2978 276.9449,-559.9428 270.9765,-563.6005"/>
</g>
<!-- Node413 -->
<g id="node6" class="node">
<title>Node413</title>
<g id="a_node6"><a xlink:href="action_8h.html#a2e77a50c24d06a37f2fc5aab8e3ecbac" target="_top" xlink:title="act_free">
<polygon fill="none" stroke="#000000" points="388.5,-570.5 388.5,-589.5 440.5,-589.5 440.5,-570.5 388.5,-570.5"/>
<text text-anchor="middle" x="414.5" y="-577.5" font-family="Helvetica,sans-Serif" font-size="10.00" fill="#000000">act_free</text>
</a>
</g>
</g>
<!-- Node412&#45;&gt;Node413 -->
<g id="edge5" class="edge">
<title>Node412&#45;&gt;Node413</title>
<path fill="none" stroke="#191970" d="M308.5626,-580C327.8319,-580 355.6577,-580 377.9563,-580"/>
<polygon fill="#191970" stroke="#191970" points="378.0788,-583.5001 388.0788,-580 378.0787,-576.5001 378.0788,-583.5001"/>
</g>
<!-- Node414 -->
<g id="node7" class="node">
<title>Node414</title>
<g id="a_node7"><a xlink:href="condition_8h.html#a3359b327b7de91f97ce0fb0cee911d04" target="_top" xlink:title="cond_free">
<polygon fill="none" stroke="#000000" points="385,-532.5 385,-551.5 444,-551.5 444,-532.5 385,-532.5"/>
<text text-anchor="middle" x="414.5" y="-539.5" font-family="Helvetica,sans-Serif" font-size="10.00" fill="#000000">cond_free</text>
</a>
</g>
</g>
<!-- Node412&#45;&gt;Node414 -->
<g id="edge6" class="edge">
<title>Node412&#45;&gt;Node414</title>
<path fill="none" stroke="#191970" d="M308.5626,-573.2064C327.0392,-567.7636 353.383,-560.0035 375.1774,-553.5834"/>
<polygon fill="#191970" stroke="#191970" points="376.2229,-556.9242 384.8264,-550.7411 374.2449,-550.2095 376.2229,-556.9242"/>
</g>
<!-- Node415 -->
<g id="node8" class="node">
<title>Node415</title>
<g id="a_node8"><a xlink:href="prediction_8h.html#a43bac629eb9434b643605a214f5d5876" target="_top" xlink:title="pred_free">
<polygon fill="none" stroke="#000000" points="386,-646.5 386,-665.5 443,-665.5 443,-646.5 386,-646.5"/>
<text text-anchor="middle" x="414.5" y="-653.5" font-family="Helvetica,sans-Serif" font-size="10.00" fill="#000000">pred_free</text>
</a>
</g>
</g>
<!-- Node412&#45;&gt;Node415 -->
<g id="edge7" class="edge">
<title>Node412&#45;&gt;Node415</title>
<path fill="none" stroke="#191970" d="M294.9815,-589.806C307.6108,-602.3585 331.1453,-624.03 355,-637 361.5496,-640.5611 368.8726,-643.5797 376.0812,-646.0905"/>
<polygon fill="#191970" stroke="#191970" points="375.1654,-649.4725 385.7568,-649.2028 377.3089,-642.8088 375.1654,-649.4725"/>
</g>
<!-- Node416 -->
<g id="node9" class="node">
<title>Node416</title>
<g id="a_node9"><a xlink:href="sam_8c.html#a0f3791bc58a3d67f38670151d1cd4418" target="_top" xlink:title="Frees the self&#45;adaptive mutation rates. ">
<polygon fill="none" stroke="#000000" points="386,-608.5 386,-627.5 443,-627.5 443,-608.5 386,-608.5"/>
<text text-anchor="middle" x="414.5" y="-615.5" font-family="Helvetica,sans-Serif" font-size="10.00" fill="#000000">sam_free</text>
</a>
</g>
</g>
<!-- Node412&#45;&gt;Node416 -->
<g id="edge8" class="edge">
<title>Node412&#45;&gt;Node416</title>
<path fill="none" stroke="#191970" d="M308.5626,-586.7936C327.2906,-592.3104 354.1013,-600.2081 376.0644,-606.6779"/>
<polygon fill="#191970" stroke="#191970" points="375.1866,-610.0679 385.7681,-609.5363 377.1646,-603.3532 375.1866,-610.0679"/>
</g>
<!-- Node418 -->
<g id="node11" class="node">
<title>Node418</title>
<g id="a_node11"><a xlink:href="cl_8c.html#a03bd37ba4e5697866192d6f643a50de3" target="_top" xlink:title="Computes the current classifier action using the input. ">
<polygon fill="none" stroke="#000000" points="257.5,-295.5 257.5,-314.5 313.5,-314.5 313.5,-295.5 257.5,-295.5"/>
<text text-anchor="middle" x="285.5" y="-302.5" font-family="Helvetica,sans-Serif" font-size="10.00" fill="#000000">cl_action</text>
</a>
</g>
</g>
<!-- Node417&#45;&gt;Node418 -->
<g id="edge10" class="edge">
<title>Node417&#45;&gt;Node418</title>
<path fill="none" stroke="#191970" d="M216.0877,-305C226.0333,-305 236.9121,-305 247.0453,-305"/>
<polygon fill="#191970" stroke="#191970" points="247.2649,-308.5001 257.2649,-305 247.2649,-301.5001 247.2649,-308.5001"/>
</g>
<!-- Node420 -->
<g id="node13" class="node">
<title>Node420</title>
<g id="a_node13"><a xlink:href="cl_8c.html#ad26f65e65f9785ce44ece9979362d889" target="_top" xlink:title="Returns whether the classifier matched the most recent input. ">
<polygon fill="none" stroke="#000000" points="266.5,-257.5 266.5,-276.5 304.5,-276.5 304.5,-257.5 266.5,-257.5"/>
<text text-anchor="middle" x="285.5" y="-264.5" font-family="Helvetica,sans-Serif" font-size="10.00" fill="#000000">cl_m</text>
</a>
</g>
</g>
<!-- Node417&#45;&gt;Node420 -->
<g id="edge12" class="edge">
<title>Node417&#45;&gt;Node420</title>
<path fill="none" stroke="#191970" d="M207.3698,-295.411C222.4478,-289.9281 241.3727,-283.0463 256.8202,-277.429"/>
<polygon fill="#191970" stroke="#191970" points="258.1921,-280.6545 266.3939,-273.9477 255.7998,-274.0759 258.1921,-280.6545"/>
</g>
<!-- Node421 -->
<g id="node14" class="node">
<title>Node421</title>
<g id="a_node14"><a xlink:href="cl_8c.html#af5a666538852ce0406d5d8ad933f92f7" target="_top" xlink:title="Calculates whether the classifier matches the input. ">
<polygon fill="none" stroke="#000000" points="257.5,-200.5 257.5,-219.5 313.5,-219.5 313.5,-200.5 257.5,-200.5"/>
<text text-anchor="middle" x="285.5" y="-207.5" font-family="Helvetica,sans-Serif" font-size="10.00" fill="#000000">cl_match</text>
</a>
</g>
</g>
<!-- Node417&#45;&gt;Node421 -->
<g id="edge13" class="edge">
<title>Node417&#45;&gt;Node421</title>
<path fill="none" stroke="#191970" d="M191.7897,-295.1911C209.6385,-278.965 245.5021,-246.3617 267.3181,-226.529"/>
<polygon fill="#191970" stroke="#191970" points="269.8795,-228.9306 274.9246,-219.614 265.1708,-223.751 269.8795,-228.9306"/>
</g>
<!-- Node423 -->
<g id="node16" class="node">
<title>Node423</title>
<g id="a_node16"><a xlink:href="clset_8c.html#a73ab8d4cc3a3e4f70561c7f5bf20c265" target="_top" xlink:title="Adds a classifier to the set. ">
<polygon fill="none" stroke="#000000" points="632,-513.5 632,-532.5 691,-532.5 691,-513.5 632,-513.5"/>
<text text-anchor="middle" x="661.5" y="-520.5" font-family="Helvetica,sans-Serif" font-size="10.00" fill="#000000">clset_add</text>
</a>
</g>
</g>
<!-- Node417&#45;&gt;Node423 -->
<g id="edge15" class="edge">
<title>Node417&#45;&gt;Node423</title>
<path fill="none" stroke="#191970" d="M202.2866,-314.7011C207.05,-317.3634 211.9006,-320.496 216,-324 236.0014,-341.0964 234.7549,-351.1266 252,-371 294.8441,-420.3737 296.8237,-446.1855 355,-476 442.2267,-520.7024 560.4127,-525.5929 621.4009,-524.6892"/>
<polygon fill="#191970" stroke="#191970" points="621.8247,-528.1812 631.7487,-524.4712 621.6771,-521.1827 621.8247,-528.1812"/>
</g>
<!-- Node424 -->
<g id="node17" class="node">
<title>Node424</title>
<g id="a_node17"><a xlink:href="clset_8c.html#afc4b91ff72294195a5462944b92ec9b2" target="_top" xlink:title="Ensures all possible actions are covered by the match set. ">
<polygon fill="none" stroke="#000000" points="252,-342.5 252,-361.5 319,-361.5 319,-342.5 252,-342.5"/>
<text text-anchor="middle" x="285.5" y="-349.5" font-family="Helvetica,sans-Serif" font-size="10.00" fill="#000000">clset_cover</text>
</a>
</g>
</g>
<!-- Node417&#45;&gt;Node424 -->
<g id="edge16" class="edge">
<title>Node417&#45;&gt;Node424</title>
<path fill="none" stroke="#191970" d="M202.1471,-314.5112C217.2032,-321.2828 237.6766,-330.4909 254.5646,-338.0865"/>
<polygon fill="#191970" stroke="#191970" points="253.4699,-341.4318 264.0256,-342.3417 256.3413,-335.0478 253.4699,-341.4318"/>
</g>
<!-- Node419 -->
<g id="node12" class="node">
<title>Node419</title>
<g id="a_node12"><a xlink:href="action_8h.html#aab6ebb454826f8e9425efc0ed2917023" target="_top" xlink:title="act_compute">
<polygon fill="none" stroke="#000000" points="378,-228.5 378,-247.5 451,-247.5 451,-228.5 378,-228.5"/>
<text text-anchor="middle" x="414.5" y="-235.5" font-family="Helvetica,sans-Serif" font-size="10.00" fill="#000000">act_compute</text>
</a>
</g>
</g>
<!-- Node418&#45;&gt;Node419 -->
<g id="edge11" class="edge">
<title>Node418&#45;&gt;Node419</title>
<path fill="none" stroke="#191970" d="M303.559,-295.4655C308.6548,-292.5867 314.1339,-289.3078 319,-286 335.9915,-274.4496 336.9069,-266.7346 355,-257 359.1957,-254.7426 363.7039,-252.7003 368.2938,-250.8659"/>
<polygon fill="#191970" stroke="#191970" points="369.5758,-254.1237 377.7556,-247.3901 367.162,-247.5531 369.5758,-254.1237"/>
</g>
<!-- Node422 -->
<g id="node15" class="node">
<title>Node422</title>
<g id="a_node15"><a xlink:href="condition_8h.html#a921ad37edd9a0af1c245bd9a490e3527" target="_top" xlink:title="cond_match">
<polygon fill="none" stroke="#000000" points="379.5,-190.5 379.5,-209.5 449.5,-209.5 449.5,-190.5 379.5,-190.5"/>
<text text-anchor="middle" x="414.5" y="-197.5" font-family="Helvetica,sans-Serif" font-size="10.00" fill="#000000">cond_match</text>
</a>
</g>
</g>
<!-- Node421&#45;&gt;Node422 -->
<g id="edge14" class="edge">
<title>Node421&#45;&gt;Node422</title>
<path fill="none" stroke="#191970" d="M313.8096,-207.8055C330.0799,-206.5442 350.8927,-204.9308 369.3685,-203.4986"/>
<polygon fill="#191970" stroke="#191970" points="369.6492,-206.9874 379.3487,-202.7249 369.1081,-200.0083 369.6492,-206.9874"/>
</g>
<!-- Node424&#45;&gt;Node423 -->
<g id="edge40" class="edge">
<title>Node424&#45;&gt;Node423</title>
<path fill="none" stroke="#191970" d="M289.5756,-361.6963C298.3653,-381.3202 321.0906,-425.6825 355,-447 443.7809,-502.813 486.8203,-458.9974 587,-490 595.8679,-492.7443 615.2238,-501.3481 631.9832,-509.0821"/>
<polygon fill="#191970" stroke="#191970" points="630.9086,-512.4422 641.452,-513.4844 633.8598,-506.0947 630.9086,-512.4422"/>
</g>
<!-- Node425 -->
<g id="node18" class="node">
<title>Node425</title>
<g id="a_node18"><a xlink:href="cl_8c.html#a502630fa339b234b42b9b859a8c70986" target="_top" xlink:title="Covers the condition and action for a classifier. ">
<polygon fill="none" stroke="#000000" points="388,-380.5 388,-399.5 441,-399.5 441,-380.5 388,-380.5"/>
<text text-anchor="middle" x="414.5" y="-387.5" font-family="Helvetica,sans-Serif" font-size="10.00" fill="#000000">cl_cover</text>
</a>
</g>
</g>
<!-- Node424&#45;&gt;Node425 -->
<g id="edge17" class="edge">
<title>Node424&#45;&gt;Node425</title>
<path fill="none" stroke="#191970" d="M318.0521,-361.589C336.2734,-366.9565 359.0455,-373.6646 377.8862,-379.2146"/>
<polygon fill="#191970" stroke="#191970" points="377.0329,-382.6118 387.6144,-382.0802 379.0109,-375.8971 377.0329,-382.6118"/>
</g>
<!-- Node435 -->
<g id="node28" class="node">
<title>Node435</title>
<g id="a_node28"><a xlink:href="cl_8c.html#ab45c6f772a335d0a4fdb753a61958744" target="_top" xlink:title="Initialises a new classifier. ">
<polygon fill="none" stroke="#000000" points="393.5,-342.5 393.5,-361.5 435.5,-361.5 435.5,-342.5 393.5,-342.5"/>
<text text-anchor="middle" x="414.5" y="-349.5" font-family="Helvetica,sans-Serif" font-size="10.00" fill="#000000">cl_init</text>
</a>
</g>
</g>
<!-- Node424&#45;&gt;Node435 -->
<g id="edge27" class="edge">
<title>Node424&#45;&gt;Node435</title>
<path fill="none" stroke="#191970" d="M319.0565,-352C338.8347,-352 363.7003,-352 383.0924,-352"/>
<polygon fill="#191970" stroke="#191970" points="383.2356,-355.5001 393.2355,-352 383.2355,-348.5001 383.2356,-355.5001"/>
</g>
<!-- Node446 -->
<g id="node39" class="node">
<title>Node446</title>
<g id="a_node39"><a xlink:href="clset_8c.html#a1be391cf8ecd96d1a71b1dc6a7feb4a9" target="_top" xlink:title="Returns whether an action is covered by the set. ">
<polygon fill="none" stroke="#000000" points="360,-304.5 360,-323.5 469,-323.5 469,-304.5 360,-304.5"/>
<text text-anchor="middle" x="414.5" y="-311.5" font-family="Helvetica,sans-Serif" font-size="10.00" fill="#000000">clset_action_covered</text>
</a>
</g>
</g>
<!-- Node424&#45;&gt;Node446 -->
<g id="edge39" class="edge">
<title>Node424&#45;&gt;Node446</title>
<path fill="none" stroke="#191970" d="M318.0521,-342.411C334.3993,-337.5956 354.4092,-331.7012 371.9571,-326.532"/>
<polygon fill="#191970" stroke="#191970" points="373.3548,-329.7691 381.9583,-323.5859 371.3768,-323.0543 373.3548,-329.7691"/>
</g>
<!-- Node447 -->
<g id="node40" class="node">
<title>Node447</title>
<g id="a_node40"><a xlink:href="clset_8c.html#ad87086ed11e5fdd6bffe41b8a34f3608" target="_top" xlink:title="Enforces the maximum population size limit. ">
<polygon fill="none" stroke="#000000" points="355,-418.5 355,-437.5 474,-437.5 474,-418.5 355,-418.5"/>
<text text-anchor="middle" x="414.5" y="-425.5" font-family="Helvetica,sans-Serif" font-size="10.00" fill="#000000">clset_pop_enforce_limit</text>
</a>
</g>
</g>
<!-- Node424&#45;&gt;Node447 -->
<g id="edge41" class="edge">
<title>Node424&#45;&gt;Node447</title>
<path fill="none" stroke="#191970" d="M294.9815,-361.806C307.6108,-374.3585 331.1453,-396.03 355,-409 358.9655,-411.1561 363.2145,-413.1133 367.5499,-414.8794"/>
<polygon fill="#191970" stroke="#191970" points="366.51,-418.227 377.1026,-418.4432 368.9568,-411.6685 366.51,-418.227"/>
</g>
<!-- Node455 -->
<g id="node48" class="node">
<title>Node455</title>
<g id="a_node48"><a xlink:href="clset_8c.html#a7ec1121fd19ff524f19b46ffa0522dd9" target="_top" xlink:title="Removes classifiers with 0 numerosity from the set. ">
<polygon fill="none" stroke="#000000" points="376,-266.5 376,-285.5 453,-285.5 453,-266.5 376,-266.5"/>
<text text-anchor="middle" x="414.5" y="-273.5" font-family="Helvetica,sans-Serif" font-size="10.00" fill="#000000">clset_validate</text>
</a>
</g>
</g>
<!-- Node424&#45;&gt;Node455 -->
<g id="edge51" class="edge">
<title>Node424&#45;&gt;Node455</title>
<path fill="none" stroke="#191970" d="M296.924,-342.4421C315.8066,-326.6711 351.7782,-296.7517 355,-295 358.9655,-292.8439 363.2145,-290.8867 367.5499,-289.1206"/>
<polygon fill="#191970" stroke="#191970" points="368.9568,-292.3315 377.1026,-285.5568 366.51,-285.773 368.9568,-292.3315"/>
</g>
<!-- Node426 -->
<g id="node19" class="node">
<title>Node426</title>
<g id="a_node19"><a xlink:href="action_8h.html#ac250a5534d7c5fb268e0ccdb479d6e20" target="_top" xlink:title="act_cover">
<polygon fill="none" stroke="#000000" points="519,-342.5 519,-361.5 578,-361.5 578,-342.5 519,-342.5"/>
<text text-anchor="middle" x="548.5" y="-349.5" font-family="Helvetica,sans-Serif" font-size="10.00" fill="#000000">act_cover</text>
</a>
</g>
</g>
<!-- Node425&#45;&gt;Node426 -->
<g id="edge18" class="edge">
<title>Node425&#45;&gt;Node426</title>
<path fill="none" stroke="#191970" d="M441.2948,-382.4015C460.7672,-376.8795 487.4294,-369.3185 509.2926,-363.1185"/>
<polygon fill="#191970" stroke="#191970" points="510.2913,-366.4734 518.9571,-360.3778 508.3815,-359.7389 510.2913,-366.4734"/>
</g>
<!-- Node427 -->
<g id="node20" class="node">
<title>Node427</title>
<g id="a_node20"><a xlink:href="cl_8c.html#a7b56e6acc90b92c0692466ae2b7d2a24" target="_top" xlink:title="Initialises random actions, conditions and predictions. ">
<polygon fill="none" stroke="#000000" points="524.5,-209.5 524.5,-228.5 572.5,-228.5 572.5,-209.5 524.5,-209.5"/>
<text text-anchor="middle" x="548.5" y="-216.5" font-family="Helvetica,sans-Serif" font-size="10.00" fill="#000000">cl_rand</text>
</a>
</g>
</g>
<!-- Node425&#45;&gt;Node427 -->
<g id="edge19" class="edge">
<title>Node425&#45;&gt;Node427</title>
<path fill="none" stroke="#191970" d="M441.0722,-386.2607C452.2683,-383.5644 464.8062,-378.9357 474,-371 515.3931,-335.2712 535.9711,-271.1846 544.1253,-238.8351"/>
<polygon fill="#191970" stroke="#191970" points="547.5996,-239.3529 546.5052,-228.8148 540.7891,-237.7353 547.5996,-239.3529"/>
</g>
<!-- Node434 -->
<g id="node27" class="node">
<title>Node434</title>
<g id="a_node27"><a xlink:href="condition_8h.html#af6a4967f684827b76d279cc04420ab6d" target="_top" xlink:title="cond_cover">
<polygon fill="none" stroke="#000000" points="515,-380.5 515,-399.5 582,-399.5 582,-380.5 515,-380.5"/>
<text text-anchor="middle" x="548.5" y="-387.5" font-family="Helvetica,sans-Serif" font-size="10.00" fill="#000000">cond_cover</text>
</a>
</g>
</g>
<!-- Node425&#45;&gt;Node434 -->
<g id="edge26" class="edge">
<title>Node425&#45;&gt;Node434</title>
<path fill="none" stroke="#191970" d="M441.2948,-390C459.328,-390 483.5274,-390 504.371,-390"/>
<polygon fill="#191970" stroke="#191970" points="504.6023,-393.5001 514.6023,-390 504.6022,-386.5001 504.6023,-393.5001"/>
</g>
<!-- Node428 -->
<g id="node21" class="node">
<title>Node428</title>
<g id="a_node21"><a xlink:href="action_8h.html#a7561ff50b261f644feae225259c8b8f6" target="_top" xlink:title="act_init">
<polygon fill="none" stroke="#000000" points="637.5,-209.5 637.5,-228.5 685.5,-228.5 685.5,-209.5 637.5,-209.5"/>
<text text-anchor="middle" x="661.5" y="-216.5" font-family="Helvetica,sans-Serif" font-size="10.00" fill="#000000">act_init</text>
</a>
</g>
</g>
<!-- Node427&#45;&gt;Node428 -->
<g id="edge20" class="edge">
<title>Node427&#45;&gt;Node428</title>
<path fill="none" stroke="#191970" d="M572.7413,-219C588.5302,-219 609.3736,-219 626.8941,-219"/>
<polygon fill="#191970" stroke="#191970" points="627.2988,-222.5001 637.2988,-219 627.2987,-215.5001 627.2988,-222.5001"/>
</g>
<!-- Node429 -->
<g id="node22" class="node">
<title>Node429</title>
<g id="a_node22"><a xlink:href="action_8c.html#ac235375c6dc54d6abca5efb0f50b1400" target="_top" xlink:title="Sets a classifier&#39;s action functions to the implementations. ">
<polygon fill="none" stroke="#000000" points="630.5,-171.5 630.5,-190.5 692.5,-190.5 692.5,-171.5 630.5,-171.5"/>
<text text-anchor="middle" x="661.5" y="-178.5" font-family="Helvetica,sans-Serif" font-size="10.00" fill="#000000">action_set</text>
</a>
</g>
</g>
<!-- Node427&#45;&gt;Node429 -->
<g id="edge21" class="edge">
<title>Node427&#45;&gt;Node429</title>
<path fill="none" stroke="#191970" d="M572.7413,-210.848C587.4866,-205.8895 606.6401,-199.4485 623.3785,-193.8196"/>
<polygon fill="#191970" stroke="#191970" points="624.5404,-197.1216 632.9032,-190.6166 622.3091,-190.4867 624.5404,-197.1216"/>
</g>
<!-- Node430 -->
<g id="node23" class="node">
<title>Node430</title>
<g id="a_node23"><a xlink:href="condition_8h.html#ac4e250ced4f7408df04ba9ac9f302c6e" target="_top" xlink:title="cond_init">
<polygon fill="none" stroke="#000000" points="633.5,-133.5 633.5,-152.5 689.5,-152.5 689.5,-133.5 633.5,-133.5"/>
<text text-anchor="middle" x="661.5" y="-140.5" font-family="Helvetica,sans-Serif" font-size="10.00" fill="#000000">cond_init</text>
</a>
</g>
</g>
<!-- Node427&#45;&gt;Node430 -->
<g id="edge22" class="edge">
<title>Node427&#45;&gt;Node430</title>
<path fill="none" stroke="#191970" d="M559.6137,-209.3899C573.7539,-197.4291 599.2048,-176.7785 623,-162 625.6376,-160.3619 628.4362,-158.7538 631.2736,-157.2093"/>
<polygon fill="#191970" stroke="#191970" points="633.0429,-160.2348 640.3193,-152.5338 629.8287,-154.0163 633.0429,-160.2348"/>
</g>
<!-- Node431 -->
<g id="node24" class="node">
<title>Node431</title>
<g id="a_node24"><a xlink:href="condition_8c.html#aa485cf16f149e89aae83972b83b70596" target="_top" xlink:title="Sets a classifier&#39;s condition functions to the implementations. ">
<polygon fill="none" stroke="#000000" points="624.5,-95.5 624.5,-114.5 698.5,-114.5 698.5,-95.5 624.5,-95.5"/>
<text text-anchor="middle" x="661.5" y="-102.5" font-family="Helvetica,sans-Serif" font-size="10.00" fill="#000000">condition_set</text>
</a>
</g>
</g>
<!-- Node427&#45;&gt;Node431 -->
<g id="edge23" class="edge">
<title>Node427&#45;&gt;Node431</title>
<path fill="none" stroke="#191970" d="M553.9386,-209.4931C564.9274,-190.9731 591.4362,-149.6342 623,-124 624.7864,-122.5492 626.7019,-121.172 628.6894,-119.8717"/>
<polygon fill="#191970" stroke="#191970" points="630.7786,-122.7069 637.6867,-114.6739 627.277,-116.6456 630.7786,-122.7069"/>
</g>
<!-- Node432 -->
<g id="node25" class="node">
<title>Node432</title>
<g id="a_node25"><a xlink:href="prediction_8h.html#a32efd0b8ad0f4cbc72683c35c5e49afd" target="_top" xlink:title="pred_init">
<polygon fill="none" stroke="#000000" points="635,-285.5 635,-304.5 688,-304.5 688,-285.5 635,-285.5"/>
<text text-anchor="middle" x="661.5" y="-292.5" font-family="Helvetica,sans-Serif" font-size="10.00" fill="#000000">pred_init</text>
</a>
</g>
</g>
<!-- Node427&#45;&gt;Node432 -->
<g id="edge24" class="edge">
<title>Node427&#45;&gt;Node432</title>
<path fill="none" stroke="#191970" d="M559.6137,-228.6101C573.7539,-240.5709 599.2048,-261.2215 623,-276 625.6376,-277.6381 628.4362,-279.2462 631.2736,-280.7907"/>
<polygon fill="#191970" stroke="#191970" points="629.8287,-283.9837 640.3193,-285.4662 633.0429,-277.7652 629.8287,-283.9837"/>
</g>
<!-- Node433 -->
<g id="node26" class="node">
<title>Node433</title>
<g id="a_node26"><a xlink:href="prediction_8c.html#acc3389ac08ab3b032ab1223e3339be12" target="_top" xlink:title="Sets a classifier&#39;s prediction functions to the implementations. ">
<polygon fill="none" stroke="#000000" points="623,-247.5 623,-266.5 700,-266.5 700,-247.5 623,-247.5"/>
<text text-anchor="middle" x="661.5" y="-254.5" font-family="Helvetica,sans-Serif" font-size="10.00" fill="#000000">prediction_set</text>
</a>
</g>
</g>
<!-- Node427&#45;&gt;Node433 -->
<g id="edge25" class="edge">
<title>Node427&#45;&gt;Node433</title>
<path fill="none" stroke="#191970" d="M572.7413,-227.152C587.4866,-232.1105 606.6401,-238.5515 623.3785,-244.1804"/>
<polygon fill="#191970" stroke="#191970" points="622.3091,-247.5133 632.9032,-247.3834 624.5404,-240.8784 622.3091,-247.5133"/>
</g>
<!-- Node436 -->
<g id="node29" class="node">
<title>Node436</title>
<g id="a_node29"><a xlink:href="sam_8c.html#ac19f397e3c1bd2a2a4f4a1174509ac67" target="_top" xlink:title="Initialises a classifier&#39;s self&#45;adaptive mutation rates. ">
<polygon fill="none" stroke="#000000" points="522,-114.5 522,-133.5 575,-133.5 575,-114.5 522,-114.5"/>
<text text-anchor="middle" x="548.5" y="-121.5" font-family="Helvetica,sans-Serif" font-size="10.00" fill="#000000">sam_init</text>
</a>
</g>
</g>
<!-- Node435&#45;&gt;Node436 -->
<g id="edge28" class="edge">
<title>Node435&#45;&gt;Node436</title>
<path fill="none" stroke="#191970" d="M435.6049,-350.2753C448.3622,-348.1448 464.0327,-343.4236 474,-333 516.3223,-288.74 488.0484,-257.1686 510,-200 517.8287,-179.6117 529.4346,-157.4591 537.856,-142.3602"/>
<polygon fill="#191970" stroke="#191970" points="540.9664,-143.9706 542.8585,-133.5461 534.8785,-140.5154 540.9664,-143.9706"/>
</g>
<!-- Node437 -->
<g id="node30" class="node">
<title>Node437</title>
<g id="a_node30"><a xlink:href="sam_8c.html#a934d788eb57734b6118fff7385733803" target="_top" xlink:title="Resets a classifier&#39;s self&#45;adaptive mutation rates. ">
<polygon fill="none" stroke="#000000" points="630.5,-57.5 630.5,-76.5 692.5,-76.5 692.5,-57.5 630.5,-57.5"/>
<text text-anchor="middle" x="661.5" y="-64.5" font-family="Helvetica,sans-Serif" font-size="10.00" fill="#000000">sam_reset</text>
</a>
</g>
</g>
<!-- Node436&#45;&gt;Node437 -->
<g id="edge29" class="edge">
<title>Node436&#45;&gt;Node437</title>
<path fill="none" stroke="#191970" d="M567.1417,-114.4053C582.1903,-106.6807 603.9232,-95.5719 623,-86 626.1603,-84.4143 629.4714,-82.7638 632.7688,-81.1271"/>
<polygon fill="#191970" stroke="#191970" points="634.4776,-84.1867 641.8892,-76.6158 631.374,-77.9123 634.4776,-84.1867"/>
</g>
<!-- Node438 -->
<g id="node31" class="node">
<title>Node438</title>
<g id="a_node31"><a xlink:href="sam_8c.html#a9b54bfbcf790a621afa925081a66941e" target="_top" xlink:title="Initialises log normal self&#45;adaptive mutation rates. ">
<polygon fill="none" stroke="#000000" points="891,-95.5 891,-114.5 997,-114.5 997,-95.5 891,-95.5"/>
<text text-anchor="middle" x="944" y="-102.5" font-family="Helvetica,sans-Serif" font-size="10.00" fill="#000000">sam_log_normal_init</text>
</a>
</g>
</g>
<!-- Node437&#45;&gt;Node438 -->
<g id="edge30" class="edge">
<title>Node437&#45;&gt;Node438</title>
<path fill="none" stroke="#191970" d="M692.7995,-76.1591C706.0269,-79.722 721.6614,-83.5327 736,-86 784.0988,-94.2764 839.1165,-99.102 880.4822,-101.8177"/>
<polygon fill="#191970" stroke="#191970" points="880.4913,-105.3251 890.6923,-102.4634 880.9332,-98.3391 880.4913,-105.3251"/>
</g>
<!-- Node444 -->
<g id="node37" class="node">
<title>Node444</title>
<g id="a_node37"><a xlink:href="sam_8c.html#afa2d48bd3ec297da02c66bdbb554280b" target="_top" xlink:title="Initialises rate selection self&#45;adaptive mutation. ">
<polygon fill="none" stroke="#000000" points="736,-57.5 736,-76.5 855,-76.5 855,-57.5 736,-57.5"/>
<text text-anchor="middle" x="795.5" y="-64.5" font-family="Helvetica,sans-Serif" font-size="10.00" fill="#000000">sam_rate_selection_init</text>
</a>
</g>
</g>
<!-- Node437&#45;&gt;Node444 -->
<g id="edge36" class="edge">
<title>Node437&#45;&gt;Node444</title>
<path fill="none" stroke="#191970" d="M692.5791,-67C702.5653,-67 714.0631,-67 725.6743,-67"/>
<polygon fill="#191970" stroke="#191970" points="725.8721,-70.5001 735.8721,-67 725.872,-63.5001 725.8721,-70.5001"/>
</g>
<!-- Node439 -->
<g id="node32" class="node">
<title>Node439</title>
<g id="a_node32"><a xlink:href="utils_8c.html#ae42a9e1d467853befaa7922cfafed3bb" target="_top" xlink:title="Returns a uniform random float [min,max]. ">
<polygon fill="none" stroke="#000000" points="1033,-95.5 1033,-114.5 1106,-114.5 1106,-95.5 1033,-95.5"/>
<text text-anchor="middle" x="1069.5" y="-102.5" font-family="Helvetica,sans-Serif" font-size="10.00" fill="#000000">rand_uniform</text>
</a>
</g>
</g>
<!-- Node438&#45;&gt;Node439 -->
<g id="edge31" class="edge">
<title>Node438&#45;&gt;Node439</title>
<path fill="none" stroke="#191970" d="M997.2233,-105C1005.6785,-105 1014.37,-105 1022.6643,-105"/>
<polygon fill="#191970" stroke="#191970" points="1022.9104,-108.5001 1032.9103,-105 1022.9103,-101.5001 1022.9104,-108.5001"/>
</g>
<!-- Node440 -->
<g id="node33" class="node">
<title>Node440</title>
<g id="a_node33"><a xlink:href="utils_8c.html#a101d27cdda714b7f17a06224c65cac56" target="_top" xlink:title="Returns a uniform random float [0,1]. ">
<polygon fill="none" stroke="#000000" points="1142,-95.5 1142,-114.5 1183,-114.5 1183,-95.5 1142,-95.5"/>
<text text-anchor="middle" x="1162.5" y="-102.5" font-family="Helvetica,sans-Serif" font-size="10.00" fill="#000000">drand</text>
</a>
</g>
</g>
<!-- Node439&#45;&gt;Node440 -->
<g id="edge32" class="edge">
<title>Node439&#45;&gt;Node440</title>
<path fill="none" stroke="#191970" d="M1106.2561,-105C1114.658,-105 1123.5043,-105 1131.63,-105"/>
<polygon fill="#191970" stroke="#191970" points="1131.799,-108.5001 1141.7989,-105 1131.7989,-101.5001 1131.799,-108.5001"/>
</g>
<!-- Node441 -->
<g id="node34" class="node">
<title>Node441</title>
<g id="a_node34"><a xlink:href="mt19937-64_8c.html#aa0b74daf51eca91df224d00f1730084a" target="_top" xlink:title="genrand64_real1">
<polygon fill="none" stroke="#000000" points="1219,-95.5 1219,-114.5 1307,-114.5 1307,-95.5 1219,-95.5"/>
<text text-anchor="middle" x="1263" y="-102.5" font-family="Helvetica,sans-Serif" font-size="10.00" fill="#000000">genrand64_real1</text>
</a>
</g>
</g>
<!-- Node440&#45;&gt;Node441 -->
<g id="edge33" class="edge">
<title>Node440&#45;&gt;Node441</title>
<path fill="none" stroke="#191970" d="M1183.3237,-105C1190.8428,-105 1199.7193,-105 1208.769,-105"/>
<polygon fill="#191970" stroke="#191970" points="1208.9969,-108.5001 1218.9969,-105 1208.9969,-101.5001 1208.9969,-108.5001"/>
</g>
<!-- Node442 -->
<g id="node35" class="node">
<title>Node442</title>
<g id="a_node35"><a xlink:href="mt19937-64_8c.html#a265bf48d20d6e0347371fcf4fe340e6d" target="_top" xlink:title="genrand64_int64">
<polygon fill="none" stroke="#000000" points="1343,-95.5 1343,-114.5 1431,-114.5 1431,-95.5 1343,-95.5"/>
<text text-anchor="middle" x="1387" y="-102.5" font-family="Helvetica,sans-Serif" font-size="10.00" fill="#000000">genrand64_int64</text>
</a>
</g>
</g>
<!-- Node441&#45;&gt;Node442 -->
<g id="edge34" class="edge">
<title>Node441&#45;&gt;Node442</title>
<path fill="none" stroke="#191970" d="M1307.0669,-105C1315.2822,-105 1323.957,-105 1332.4432,-105"/>
<polygon fill="#191970" stroke="#191970" points="1332.6572,-108.5001 1342.6572,-105 1332.6572,-101.5001 1332.6572,-108.5001"/>
</g>
<!-- Node443 -->
<g id="node36" class="node">
<title>Node443</title>
<g id="a_node36"><a xlink:href="mt19937-64_8c.html#adf4127d44c2dc34fcb318d406131ef7c" target="_top" xlink:title="init_genrand64">
<polygon fill="none" stroke="#000000" points="1467,-95.5 1467,-114.5 1547,-114.5 1547,-95.5 1467,-95.5"/>
<text text-anchor="middle" x="1507" y="-102.5" font-family="Helvetica,sans-Serif" font-size="10.00" fill="#000000">init_genrand64</text>
</a>
</g>
</g>
<!-- Node442&#45;&gt;Node443 -->
<g id="edge35" class="edge">
<title>Node442&#45;&gt;Node443</title>
<path fill="none" stroke="#191970" d="M1431.0022,-105C1439.3719,-105 1448.1896,-105 1456.7365,-105"/>
<polygon fill="#191970" stroke="#191970" points="1456.9792,-108.5001 1466.9792,-105 1456.9792,-101.5001 1456.9792,-108.5001"/>
</g>
<!-- Node445 -->
<g id="node38" class="node">
<title>Node445</title>
<g id="a_node38"><a xlink:href="utils_8c.html#a32648ab076544a9ac1c086d0f07b599f" target="_top" xlink:title="Returns a uniform random integer [min,max] not inclusive of max. ">
<polygon fill="none" stroke="#000000" points="906.5,-57.5 906.5,-76.5 981.5,-76.5 981.5,-57.5 906.5,-57.5"/>
<text text-anchor="middle" x="944" y="-64.5" font-family="Helvetica,sans-Serif" font-size="10.00" fill="#000000">irand_uniform</text>
</a>
</g>
</g>
<!-- Node444&#45;&gt;Node445 -->
<g id="edge37" class="edge">
<title>Node444&#45;&gt;Node445</title>
<path fill="none" stroke="#191970" d="M855.045,-67C868.6704,-67 882.9841,-67 896.05,-67"/>
<polygon fill="#191970" stroke="#191970" points="896.2241,-70.5001 906.2241,-67 896.2241,-63.5001 896.2241,-70.5001"/>
</g>
<!-- Node445&#45;&gt;Node439 -->
<g id="edge38" class="edge">
<title>Node445&#45;&gt;Node439</title>
<path fill="none" stroke="#191970" d="M975.6689,-76.589C991.5725,-81.4044 1011.0396,-87.2988 1028.1114,-92.468"/>
<polygon fill="#191970" stroke="#191970" points="1027.256,-95.8658 1037.8412,-95.4141 1029.2846,-89.1662 1027.256,-95.8658"/>
</g>
<!-- Node448 -->
<g id="node41" class="node">
<title>Node448</title>
<g id="a_node41"><a xlink:href="clset_8c.html#a6dae2bd49bceef5337bcad19010098f8" target="_top" xlink:title="Deletes a single classifier from the population set. ">
<polygon fill="none" stroke="#000000" points="510,-418.5 510,-437.5 587,-437.5 587,-418.5 510,-418.5"/>
<text text-anchor="middle" x="548.5" y="-425.5" font-family="Helvetica,sans-Serif" font-size="10.00" fill="#000000">clset_pop_del</text>
</a>
</g>
</g>
<!-- Node447&#45;&gt;Node448 -->
<g id="edge42" class="edge">
<title>Node447&#45;&gt;Node448</title>
<path fill="none" stroke="#191970" d="M474.0547,-428C482.6064,-428 491.3219,-428 499.6346,-428"/>
<polygon fill="#191970" stroke="#191970" points="499.906,-431.5001 509.906,-428 499.9059,-424.5001 499.906,-431.5001"/>
</g>
<!-- Node448&#45;&gt;Node423 -->
<g id="edge48" class="edge">
<title>Node448&#45;&gt;Node423</title>
<path fill="none" stroke="#191970" d="M567.2207,-437.5888C573.8909,-441.5216 581.1842,-446.4575 587,-452 607.3485,-471.3923 601.717,-485.6382 623,-504 624.6966,-505.4637 626.5257,-506.8457 628.4327,-508.1449"/>
<polygon fill="#191970" stroke="#191970" points="626.7386,-511.2095 637.1235,-513.3082 630.314,-505.1915 626.7386,-511.2095"/>
</g>
<!-- Node448&#45;&gt;Node439 -->
<g id="edge50" class="edge">
<title>Node448&#45;&gt;Node439</title>
<path fill="none" stroke="#191970" d="M568.1374,-418.4368C574.2025,-415.4488 580.8925,-412.118 587,-409 603.1133,-400.7738 605.8496,-395.7595 623,-390 722.0491,-356.7373 763.7617,-402.9186 855,-352 956.862,-295.1525 1033.3477,-170.5302 1059.6081,-123.4781"/>
<polygon fill="#191970" stroke="#191970" points="1062.7003,-125.1183 1064.4405,-114.6674 1056.5628,-121.7521 1062.7003,-125.1183"/>
</g>
<!-- Node449 -->
<g id="node42" class="node">
<title>Node449</title>
<g id="a_node42"><a xlink:href="cl_8c.html#a49f5a7f4f2f47ce1cf7f33b3769de7cc" target="_top" xlink:title="Returns the size of the classifier condition. ">
<polygon fill="none" stroke="#000000" points="624.5,-323.5 624.5,-342.5 698.5,-342.5 698.5,-323.5 624.5,-323.5"/>
<text text-anchor="middle" x="661.5" y="-330.5" font-family="Helvetica,sans-Serif" font-size="10.00" fill="#000000">cl_cond_size</text>
</a>
</g>
</g>
<!-- Node448&#45;&gt;Node449 -->
<g id="edge43" class="edge">
<title>Node448&#45;&gt;Node449</title>
<path fill="none" stroke="#191970" d="M572.8765,-418.3082C577.8449,-415.7107 582.8237,-412.603 587,-409 608.283,-390.6382 602.6515,-376.3923 623,-357 626.3623,-353.7957 630.2184,-350.7942 634.1624,-348.0721"/>
<polygon fill="#191970" stroke="#191970" points="636.2216,-350.9103 642.7793,-342.5888 632.4635,-345.0046 636.2216,-350.9103"/>
</g>
<!-- Node451 -->
<g id="node44" class="node">
<title>Node451</title>
<g id="a_node44"><a xlink:href="cl_8c.html#aa0059f455cba46b3a1acb6b8a271b95f" target="_top" xlink:title="Returns the deletion vote of the classifier. ">
<polygon fill="none" stroke="#000000" points="628.5,-475.5 628.5,-494.5 694.5,-494.5 694.5,-475.5 628.5,-475.5"/>
<text text-anchor="middle" x="661.5" y="-482.5" font-family="Helvetica,sans-Serif" font-size="10.00" fill="#000000">cl_del_vote</text>
</a>
</g>
</g>
<!-- Node448&#45;&gt;Node451 -->
<g id="edge45" class="edge">
<title>Node448&#45;&gt;Node451</title>
<path fill="none" stroke="#191970" d="M567.1417,-437.5947C582.1903,-445.3193 603.9232,-456.4281 623,-466 626.1603,-467.5857 629.4714,-469.2362 632.7688,-470.8729"/>
<polygon fill="#191970" stroke="#191970" points="631.374,-474.0877 641.8892,-475.3842 634.4776,-467.8133 631.374,-474.0877"/>
</g>
<!-- Node452 -->
<g id="node45" class="node">
<title>Node452</title>
<g id="a_node45"><a xlink:href="cl_8c.html#a72d3cf213699a8d68d348ff75c2b2d49" target="_top" xlink:title="Returns the size of the classifier prediction. ">
<polygon fill="none" stroke="#000000" points="626,-437.5 626,-456.5 697,-456.5 697,-437.5 626,-437.5"/>
<text text-anchor="middle" x="661.5" y="-444.5" font-family="Helvetica,sans-Serif" font-size="10.00" fill="#000000">cl_pred_size</text>
</a>
</g>
</g>
<!-- Node448&#45;&gt;Node452 -->
<g id="edge46" class="edge">
<title>Node448&#45;&gt;Node452</title>
<path fill="none" stroke="#191970" d="M587.0721,-434.4856C596.2749,-436.033 606.1856,-437.6994 615.6789,-439.2956"/>
<polygon fill="#191970" stroke="#191970" points="615.3211,-442.7845 625.7631,-440.9911 616.4819,-435.8814 615.3211,-442.7845"/>
</g>
<!-- Node454 -->
<g id="node47" class="node">
<title>Node454</title>
<g id="a_node47"><a xlink:href="clset_8c.html#a9a50c1393921d731b6840a654c366fb8" target="_top" xlink:title="Calculates the total fitness of classifiers in the set. ">
<polygon fill="none" stroke="#000000" points="624,-399.5 624,-418.5 699,-418.5 699,-399.5 624,-399.5"/>
<text text-anchor="middle" x="661.5" y="-406.5" font-family="Helvetica,sans-Serif" font-size="10.00" fill="#000000">clset_total_fit</text>
</a>
</g>
</g>
<!-- Node448&#45;&gt;Node454 -->
<g id="edge49" class="edge">
<title>Node448&#45;&gt;Node454</title>
<path fill="none" stroke="#191970" d="M587.0721,-421.5144C595.7125,-420.0616 604.9769,-418.5039 613.9339,-416.9978"/>
<polygon fill="#191970" stroke="#191970" points="614.5853,-420.4375 623.8665,-415.3278 613.4246,-413.5344 614.5853,-420.4375"/>
</g>
<!-- Node450 -->
<g id="node43" class="node">
<title>Node450</title>
<g id="a_node43"><a xlink:href="condition_8h.html#afc882c8ebd96835127f8e611b815d447" target="_top" xlink:title="cond_size">
<polygon fill="none" stroke="#000000" points="765,-323.5 765,-342.5 826,-342.5 826,-323.5 765,-323.5"/>
<text text-anchor="middle" x="795.5" y="-330.5" font-family="Helvetica,sans-Serif" font-size="10.00" fill="#000000">cond_size</text>
</a>
</g>
</g>
<!-- Node449&#45;&gt;Node450 -->
<g id="edge44" class="edge">
<title>Node449&#45;&gt;Node450</title>
<path fill="none" stroke="#191970" d="M698.8265,-333C716.1756,-333 736.8512,-333 754.6205,-333"/>
<polygon fill="#191970" stroke="#191970" points="754.6999,-336.5001 764.6999,-333 754.6999,-329.5001 754.6999,-336.5001"/>
</g>
<!-- Node453 -->
<g id="node46" class="node">
<title>Node453</title>
<g id="a_node46"><a xlink:href="prediction_8h.html#a60ead673b526125328224ec152916290" target="_top" xlink:title="pred_size">
<polygon fill="none" stroke="#000000" points="766,-437.5 766,-456.5 825,-456.5 825,-437.5 766,-437.5"/>
<text text-anchor="middle" x="795.5" y="-444.5" font-family="Helvetica,sans-Serif" font-size="10.00" fill="#000000">pred_size</text>
</a>
</g>
</g>
<!-- Node452&#45;&gt;Node453 -->
<g id="edge47" class="edge">
<title>Node452&#45;&gt;Node453</title>
<path fill="none" stroke="#191970" d="M697.0577,-447C715.0302,-447 736.9064,-447 755.468,-447"/>
<polygon fill="#191970" stroke="#191970" points="755.6753,-450.5001 765.6752,-447 755.6752,-443.5001 755.6753,-450.5001"/>
</g>
<!-- Node457 -->
<g id="node50" class="node">
<title>Node457</title>
<g id="a_node50"><a xlink:href="cl_8c.html#ae72baabb74be8c1a8eca64eacb1941d1" target="_top" xlink:title="Prints the classifier. ">
<polygon fill="none" stroke="#000000" points="261.5,-95.5 261.5,-114.5 309.5,-114.5 309.5,-95.5 261.5,-95.5"/>
<text text-anchor="middle" x="285.5" y="-102.5" font-family="Helvetica,sans-Serif" font-size="10.00" fill="#000000">cl_print</text>
</a>
</g>
</g>
<!-- Node456&#45;&gt;Node457 -->
<g id="edge53" class="edge">
<title>Node456&#45;&gt;Node457</title>
<path fill="none" stroke="#191970" d="M192.5826,-181.4679C210.3157,-166.8742 244.4042,-138.8205 265.9954,-121.0517"/>
<polygon fill="#191970" stroke="#191970" points="268.3681,-123.6318 273.8655,-114.5748 263.92,-118.2268 268.3681,-123.6318"/>
</g>
<!-- Node458 -->
<g id="node51" class="node">
<title>Node458</title>
<g id="a_node51"><a xlink:href="action_8h.html#a19d614ece27ba815737d5e7a370eebd6" target="_top" xlink:title="act_print">
<polygon fill="none" stroke="#000000" points="387.5,-38.5 387.5,-57.5 441.5,-57.5 441.5,-38.5 387.5,-38.5"/>
<text text-anchor="middle" x="414.5" y="-45.5" font-family="Helvetica,sans-Serif" font-size="10.00" fill="#000000">act_print</text>
</a>
</g>
</g>
<!-- Node457&#45;&gt;Node458 -->
<g id="edge54" class="edge">
<title>Node457&#45;&gt;Node458</title>
<path fill="none" stroke="#191970" d="M301.0779,-95.3563C314.8872,-87.084 335.786,-75.2307 355,-67 362.2079,-63.9123 370.0912,-61.053 377.6933,-58.5394"/>
<polygon fill="#191970" stroke="#191970" points="378.9722,-61.8056 387.4446,-55.444 376.8543,-55.1337 378.9722,-61.8056"/>
</g>
<!-- Node459 -->
<g id="node52" class="node">
<title>Node459</title>
<g id="a_node52"><a xlink:href="cl_8c.html#a98982b34e8eebe2f85333397bdd24bd3" target="_top" xlink:title="Returns the fraction of observed inputs matched by the classifier. ">
<polygon fill="none" stroke="#000000" points="387.5,-.5 387.5,-19.5 441.5,-19.5 441.5,-.5 387.5,-.5"/>
<text text-anchor="middle" x="414.5" y="-7.5" font-family="Helvetica,sans-Serif" font-size="10.00" fill="#000000">cl_mfrac</text>
</a>
</g>
</g>
<!-- Node457&#45;&gt;Node459 -->
<g id="edge55" class="edge">
<title>Node457&#45;&gt;Node459</title>
<path fill="none" stroke="#191970" d="M291.7887,-95.3423C302.7377,-79.2719 326.8433,-47.0304 355,-29 361.8703,-24.6005 369.8414,-21.1459 377.6728,-18.4608"/>
<polygon fill="#191970" stroke="#191970" points="378.8975,-21.746 387.4246,-15.458 376.8374,-15.056 378.8975,-21.746"/>
</g>
<!-- Node460 -->
<g id="node53" class="node">
<title>Node460</title>
<g id="a_node53"><a xlink:href="condition_8h.html#a9ae64611660a1d945ac9bf79d3a974b0" target="_top" xlink:title="cond_print">
<polygon fill="none" stroke="#000000" points="383.5,-152.5 383.5,-171.5 445.5,-171.5 445.5,-152.5 383.5,-152.5"/>
<text text-anchor="middle" x="414.5" y="-159.5" font-family="Helvetica,sans-Serif" font-size="10.00" fill="#000000">cond_print</text>
</a>
</g>
</g>
<!-- Node457&#45;&gt;Node460 -->
<g id="edge56" class="edge">
<title>Node457&#45;&gt;Node460</title>
<path fill="none" stroke="#191970" d="M301.0779,-114.6437C314.8872,-122.916 335.786,-134.7693 355,-143 360.8872,-145.5219 367.2249,-147.8915 373.492,-150.0448"/>
<polygon fill="#191970" stroke="#191970" points="372.6142,-153.4405 383.2072,-153.2413 374.8021,-146.7911 372.6142,-153.4405"/>
</g>
<!-- Node461 -->
<g id="node54" class="node">
<title>Node461</title>
<g id="a_node54"><a xlink:href="prediction_8h.html#aa20cce1c5d4805d59e833c7738e10570" target="_top" xlink:title="pred_print">
<polygon fill="none" stroke="#000000" points="385,-114.5 385,-133.5 444,-133.5 444,-114.5 385,-114.5"/>
<text text-anchor="middle" x="414.5" y="-121.5" font-family="Helvetica,sans-Serif" font-size="10.00" fill="#000000">pred_print</text>
</a>
</g>
</g>
<!-- Node457&#45;&gt;Node461 -->
<g id="edge57" class="edge">
<title>Node457&#45;&gt;Node461</title>
<path fill="none" stroke="#191970" d="M309.7639,-108.5738C328.0785,-111.2713 353.5993,-115.0301 374.8633,-118.162"/>
<polygon fill="#191970" stroke="#191970" points="374.5066,-121.6472 384.9099,-119.6418 375.5266,-114.7219 374.5066,-121.6472"/>
</g>
<!-- Node462 -->
<g id="node55" class="node">
<title>Node462</title>
<g id="a_node55"><a xlink:href="sam_8c.html#a1a9f6c2dea22a8f1120035fc935923bc" target="_top" xlink:title="Prints the self&#45;adaptive mutation rates. ">
<polygon fill="none" stroke="#000000" points="385,-76.5 385,-95.5 444,-95.5 444,-76.5 385,-76.5"/>
<text text-anchor="middle" x="414.5" y="-83.5" font-family="Helvetica,sans-Serif" font-size="10.00" fill="#000000">sam_print</text>
</a>
</g>
</g>
<!-- Node457&#45;&gt;Node462 -->
<g id="edge58" class="edge">
<title>Node457&#45;&gt;Node462</title>
<path fill="none" stroke="#191970" d="M309.7639,-101.4262C328.0785,-98.7287 353.5993,-94.9699 374.8633,-91.838"/>
<polygon fill="#191970" stroke="#191970" points="375.5266,-95.2781 384.9099,-90.3582 374.5066,-88.3528 375.5266,-95.2781"/>
</g>
</g>
</svg>
