<?xml version="1.0" encoding="UTF-8" standalone="no"?>
<!DOCTYPE svg PUBLIC "-//W3C//DTD SVG 1.1//EN"
 "http://www.w3.org/Graphics/SVG/1.1/DTD/svg11.dtd">
<!-- Generated by graphviz version 2.40.1 (20161225.0304)
 -->
<!-- Title: graph_print Pages: 1 -->
<svg width="213pt" height="66pt"
 viewBox="0.00 0.00 213.00 66.00" xmlns="http://www.w3.org/2000/svg" xmlns:xlink="http://www.w3.org/1999/xlink">
<g id="graph0" class="graph" transform="scale(1 1) rotate(0) translate(4 62)">
<title>graph_print</title>
<!-- Node51 -->
<g id="node1" class="node">
<title>Node51</title>
<polygon fill="#bfbfbf" stroke="#000000" points="0,-19.5 0,-38.5 65,-38.5 65,-19.5 0,-19.5"/>
<text text-anchor="middle" x="32.5" y="-26.5" font-family="Helvetica,sans-Serif" font-size="10.00" fill="#000000">graph_print</text>
</g>
<!-- Node52 -->
<g id="node2" class="node">
<title>Node52</title>
<g id="a_node2"><a xlink:href="cond__dgp_8h.html#a2dba88cd28b7c78c49bede6a8b47c737" target="_top" xlink:title="cond_dgp_print">
<polygon fill="none" stroke="#000000" points="111.5,-38.5 111.5,-57.5 194.5,-57.5 194.5,-38.5 111.5,-38.5"/>
<text text-anchor="middle" x="153" y="-45.5" font-family="Helvetica,sans-Serif" font-size="10.00" fill="#000000">cond_dgp_print</text>
</a>
</g>
</g>
<!-- Node51&#45;&gt;Node52 -->
<g id="edge1" class="edge">
<title>Node51&#45;&gt;Node52</title>
<path fill="none" stroke="#191970" d="M75.1267,-35.7212C86.8705,-37.5729 99.5939,-39.5791 111.2855,-41.4226"/>
<polygon fill="#191970" stroke="#191970" points="75.5322,-32.242 65.109,-34.1417 74.4418,-39.1566 75.5322,-32.242"/>
</g>
<!-- Node53 -->
<g id="node3" class="node">
<title>Node53</title>
<g id="a_node3"><a xlink:href="rule__dgp_8h.html#a3acb771aa2c0fe07492a3a39a5244f0f" target="_top" xlink:title="rule_dgp_cond_print">
<polygon fill="none" stroke="#000000" points="101,-.5 101,-19.5 205,-19.5 205,-.5 101,-.5"/>
<text text-anchor="middle" x="153" y="-7.5" font-family="Helvetica,sans-Serif" font-size="10.00" fill="#000000">rule_dgp_cond_print</text>
</a>
</g>
</g>
<!-- Node51&#45;&gt;Node53 -->
<g id="edge2" class="edge">
<title>Node51&#45;&gt;Node53</title>
<path fill="none" stroke="#191970" d="M75.0046,-22.298C83.3605,-20.9805 92.2163,-19.5842 100.8464,-18.2234"/>
<polygon fill="#191970" stroke="#191970" points="74.4418,-18.8434 65.109,-23.8583 75.5322,-25.758 74.4418,-18.8434"/>
</g>
</g>
</svg>
