<?xml version="1.0" encoding="UTF-8" standalone="no"?>
<!DOCTYPE svg PUBLIC "-//W3C//DTD SVG 1.1//EN"
 "http://www.w3.org/Graphics/SVG/1.1/DTD/svg11.dtd">
<!-- Generated by graphviz version 2.40.1 (20161225.0304)
 -->
<!-- Title: loss_set_func Pages: 1 -->
<svg width="640pt" height="142pt"
 viewBox="0.00 0.00 640.00 142.00" xmlns="http://www.w3.org/2000/svg" xmlns:xlink="http://www.w3.org/1999/xlink">
<g id="graph0" class="graph" transform="scale(1 1) rotate(0) translate(4 138)">
<title>loss_set_func</title>
<!-- Node81 -->
<g id="node1" class="node">
<title>Node81</title>
<polygon fill="#bfbfbf" stroke="#000000" points="0,-57.5 0,-76.5 77,-76.5 77,-57.5 0,-57.5"/>
<text text-anchor="middle" x="38.5" y="-64.5" font-family="Helvetica,sans-Serif" font-size="10.00" fill="#000000">loss_set_func</text>
</g>
<!-- Node82 -->
<g id="node2" class="node">
<title>Node82</title>
<g id="a_node2"><a xlink:href="config_8h.html#a37df9fe8af1e1583876040747eeee030" target="_top" xlink:title="Initialises global constants and reads the specified configuration file. ">
<polygon fill="none" stroke="#000000" points="130.5,-57.5 130.5,-76.5 191.5,-76.5 191.5,-57.5 130.5,-57.5"/>
<text text-anchor="middle" x="161" y="-64.5" font-family="Helvetica,sans-Serif" font-size="10.00" fill="#000000">config_init</text>
</a>
</g>
</g>
<!-- Node81&#45;&gt;Node82 -->
<g id="edge1" class="edge">
<title>Node81&#45;&gt;Node82</title>
<path fill="none" stroke="#191970" d="M87.5439,-67C101.9619,-67 117.3204,-67 130.2462,-67"/>
<polygon fill="#191970" stroke="#191970" points="87.2598,-63.5001 77.2598,-67 87.2597,-70.5001 87.2598,-63.5001"/>
</g>
<!-- Node86 -->
<g id="node6" class="node">
<title>Node86</title>
<g id="a_node6"><a xlink:href="structXCS.html#af56f8d608830e61565b7472d45758463" target="_top" xlink:title="XCS::set_loss_func">
<polygon fill="none" stroke="#000000" points="245,-114.5 245,-133.5 349,-133.5 349,-114.5 245,-114.5"/>
<text text-anchor="middle" x="297" y="-121.5" font-family="Helvetica,sans-Serif" font-size="10.00" fill="#000000">XCS::set_loss_func</text>
</a>
</g>
</g>
<!-- Node81&#45;&gt;Node86 -->
<g id="edge5" class="edge">
<title>Node81&#45;&gt;Node86</title>
<path fill="none" stroke="#191970" d="M84.1253,-78.9899C93.6473,-81.3927 103.6363,-83.8403 113,-86 158.4512,-96.4833 210.5379,-107.1118 247.6649,-114.4522"/>
<polygon fill="#191970" stroke="#191970" points="84.9717,-75.5938 74.4171,-76.5161 83.2432,-82.377 84.9717,-75.5938"/>
</g>
<!-- Node88 -->
<g id="node8" class="node">
<title>Node88</title>
<g id="a_node8"><a xlink:href="xcsf_8c.html#a842f021b7221803c5fabca534a4b02c0" target="_top" xlink:title="Reads the XCSF data structure from a binary file. ">
<polygon fill="none" stroke="#000000" points="113,-19.5 113,-38.5 209,-38.5 209,-19.5 113,-19.5"/>
<text text-anchor="middle" x="161" y="-26.5" font-family="Helvetica,sans-Serif" font-size="10.00" fill="#000000">xcsf_load_params</text>
</a>
</g>
</g>
<!-- Node81&#45;&gt;Node88 -->
<g id="edge7" class="edge">
<title>Node81&#45;&gt;Node88</title>
<path fill="none" stroke="#191970" d="M79.3777,-54.3196C95.9294,-49.1852 114.7211,-43.3559 130.098,-38.5859"/>
<polygon fill="#191970" stroke="#191970" points="77.926,-51.1053 69.4119,-57.411 79.9999,-57.791 77.926,-51.1053"/>
</g>
<!-- Node83 -->
<g id="node3" class="node">
<title>Node83</title>
<g id="a_node3"><a xlink:href="main_8c.html#a3c04138a5bfe5d72780bb7e82a18e627" target="_top" xlink:title="main">
<polygon fill="none" stroke="#000000" points="398.5,-38.5 398.5,-57.5 436.5,-57.5 436.5,-38.5 398.5,-38.5"/>
<text text-anchor="middle" x="417.5" y="-45.5" font-family="Helvetica,sans-Serif" font-size="10.00" fill="#000000">main</text>
</a>
</g>
</g>
<!-- Node82&#45;&gt;Node83 -->
<g id="edge2" class="edge">
<title>Node82&#45;&gt;Node83</title>
<path fill="none" stroke="#191970" d="M202.0031,-63.9627C258.2505,-59.7963 357.0702,-52.4763 398.4406,-49.4118"/>
<polygon fill="#191970" stroke="#191970" points="201.3992,-60.4978 191.6851,-64.727 201.9164,-67.4787 201.3992,-60.4978"/>
</g>
<!-- Node84 -->
<g id="node4" class="node">
<title>Node84</title>
<g id="a_node4"><a xlink:href="structXCS.html#ad372bae45743be0fbf7d95b67e13b390" target="_top" xlink:title="Initialises python XCS structure. ">
<polygon fill="none" stroke="#000000" points="258.5,-76.5 258.5,-95.5 335.5,-95.5 335.5,-76.5 258.5,-76.5"/>
<text text-anchor="middle" x="297" y="-83.5" font-family="Helvetica,sans-Serif" font-size="10.00" fill="#000000">XCS::xcs_init</text>
</a>
</g>
</g>
<!-- Node82&#45;&gt;Node84 -->
<g id="edge3" class="edge">
<title>Node82&#45;&gt;Node84</title>
<path fill="none" stroke="#191970" d="M201.4302,-72.6483C219.4197,-75.1616 240.5083,-78.1078 258.2923,-80.5923"/>
<polygon fill="#191970" stroke="#191970" points="201.9092,-69.1813 191.5211,-71.264 200.9406,-76.114 201.9092,-69.1813"/>
</g>
<!-- Node85 -->
<g id="node5" class="node">
<title>Node85</title>
<g id="a_node5"><a xlink:href="structXCS.html#a0dd359a4dfc0a6439a5c6554768c8b9f" target="_top" xlink:title="Constructor for single&#45;step reinforcement learning. ">
<polygon fill="none" stroke="#000000" points="385,-76.5 385,-95.5 450,-95.5 450,-76.5 385,-76.5"/>
<text text-anchor="middle" x="417.5" y="-83.5" font-family="Helvetica,sans-Serif" font-size="10.00" fill="#000000">XCS::XCS</text>
</a>
</g>
</g>
<!-- Node84&#45;&gt;Node85 -->
<g id="edge4" class="edge">
<title>Node84&#45;&gt;Node85</title>
<path fill="none" stroke="#191970" d="M346.0581,-86C359.1168,-86 372.9026,-86 384.8438,-86"/>
<polygon fill="#191970" stroke="#191970" points="345.7903,-82.5001 335.7902,-86 345.7902,-89.5001 345.7903,-82.5001"/>
</g>
<!-- Node87 -->
<g id="node7" class="node">
<title>Node87</title>
<g id="a_node7"><a xlink:href="python__wrapper_8cpp.html#afbdcc1358036a0b83a6b239da2b098a2" target="_top" xlink:title="BOOST_PYTHON_MODULE">
<polygon fill="none" stroke="#000000" points="486,-57.5 486,-76.5 632,-76.5 632,-57.5 486,-57.5"/>
<text text-anchor="middle" x="559" y="-64.5" font-family="Helvetica,sans-Serif" font-size="10.00" fill="#000000">BOOST_PYTHON_MODULE</text>
</a>
</g>
</g>
<!-- Node86&#45;&gt;Node87 -->
<g id="edge6" class="edge">
<title>Node86&#45;&gt;Node87</title>
<path fill="none" stroke="#191970" d="M359.234,-119.287C387.2205,-116.3977 420.5184,-111.8874 450,-105 480.4437,-97.8879 514.2599,-85.3328 536.0336,-76.6094"/>
<polygon fill="#191970" stroke="#191970" points="358.7881,-115.8139 349.1804,-120.2795 359.4759,-122.7801 358.7881,-115.8139"/>
</g>
<!-- Node89 -->
<g id="node9" class="node">
<title>Node89</title>
<g id="a_node9"><a xlink:href="xcsf_8h.html#af419720749752a7b5596f9def871a71c" target="_top" xlink:title="Reads the state of XCSF from a binary file. ">
<polygon fill="none" stroke="#000000" points="267.5,-.5 267.5,-19.5 326.5,-19.5 326.5,-.5 267.5,-.5"/>
<text text-anchor="middle" x="297" y="-7.5" font-family="Helvetica,sans-Serif" font-size="10.00" fill="#000000">xcsf_load</text>
</a>
</g>
</g>
<!-- Node88&#45;&gt;Node89 -->
<g id="edge8" class="edge">
<title>Node88&#45;&gt;Node89</title>
<path fill="none" stroke="#191970" d="M219.5016,-20.827C236.0523,-18.5148 253.3687,-16.0956 267.4245,-14.1319"/>
<polygon fill="#191970" stroke="#191970" points="218.751,-17.3978 209.3314,-22.2478 219.7196,-24.3304 218.751,-17.3978"/>
</g>
<!-- Node89&#45;&gt;Node83 -->
<g id="edge9" class="edge">
<title>Node89&#45;&gt;Node83</title>
<path fill="none" stroke="#191970" d="M336.5931,-22.4858C357.277,-29.0085 381.6563,-36.6966 398.2064,-41.9157"/>
<polygon fill="#191970" stroke="#191970" points="337.3762,-19.0629 326.7865,-19.3933 335.2709,-25.7388 337.3762,-19.0629"/>
</g>
<!-- Node90 -->
<g id="node10" class="node">
<title>Node90</title>
<g id="a_node10"><a xlink:href="structXCS.html#adc9b621f2b7a306fbf381dd0efaf268b" target="_top" xlink:title="XCS::load">
<polygon fill="none" stroke="#000000" points="386.5,-.5 386.5,-19.5 448.5,-19.5 448.5,-.5 386.5,-.5"/>
<text text-anchor="middle" x="417.5" y="-7.5" font-family="Helvetica,sans-Serif" font-size="10.00" fill="#000000">XCS::load</text>
</a>
</g>
</g>
<!-- Node89&#45;&gt;Node90 -->
<g id="edge10" class="edge">
<title>Node89&#45;&gt;Node90</title>
<path fill="none" stroke="#191970" d="M336.9814,-10C353.0586,-10 371.3154,-10 386.3752,-10"/>
<polygon fill="#191970" stroke="#191970" points="336.7866,-6.5001 326.7865,-10 336.7865,-13.5001 336.7866,-6.5001"/>
</g>
<!-- Node90&#45;&gt;Node87 -->
<g id="edge11" class="edge">
<title>Node90&#45;&gt;Node87</title>
<path fill="none" stroke="#191970" d="M450.6182,-23.3409C476.5701,-33.795 512.0503,-48.0874 535.2388,-57.4284"/>
<polygon fill="#191970" stroke="#191970" points="451.7674,-20.0306 441.1839,-19.5405 449.1518,-26.5236 451.7674,-20.0306"/>
</g>
</g>
</svg>
