<?xml version="1.0" encoding="UTF-8" standalone="no"?>
<!DOCTYPE svg PUBLIC "-//W3C//DTD SVG 1.1//EN"
 "http://www.w3.org/Graphics/SVG/1.1/DTD/svg11.dtd">
<!-- Generated by graphviz version 2.40.1 (20161225.0304)
 -->
<!-- Title: layer_copy Pages: 1 -->
<svg width="329pt" height="104pt"
 viewBox="0.00 0.00 329.00 104.00" xmlns="http://www.w3.org/2000/svg" xmlns:xlink="http://www.w3.org/1999/xlink">
<g id="graph0" class="graph" transform="scale(1 1) rotate(0) translate(4 100)">
<title>layer_copy</title>
<!-- Node5 -->
<g id="node1" class="node">
<title>Node5</title>
<polygon fill="#bfbfbf" stroke="#000000" points="0,-38.5 0,-57.5 64,-57.5 64,-38.5 0,-38.5"/>
<text text-anchor="middle" x="32" y="-45.5" font-family="Helvetica,sans-Serif" font-size="10.00" fill="#000000">layer_copy</text>
</g>
<!-- Node6 -->
<g id="node2" class="node">
<title>Node6</title>
<g id="a_node2"><a xlink:href="neural_8h.html#a8da978581c53ed20994dc0d3b0a5d1a8" target="_top" xlink:title="Copies a neural network. ">
<polygon fill="none" stroke="#000000" points="100,-38.5 100,-57.5 169,-57.5 169,-38.5 100,-38.5"/>
<text text-anchor="middle" x="134.5" y="-45.5" font-family="Helvetica,sans-Serif" font-size="10.00" fill="#000000">neural_copy</text>
</a>
</g>
</g>
<!-- Node5&#45;&gt;Node6 -->
<g id="edge1" class="edge">
<title>Node5&#45;&gt;Node6</title>
<path fill="none" stroke="#191970" d="M74.3294,-48C82.8672,-48 91.7459,-48 99.9779,-48"/>
<polygon fill="#191970" stroke="#191970" points="74.1504,-44.5001 64.1504,-48 74.1504,-51.5001 74.1504,-44.5001"/>
</g>
<!-- Node7 -->
<g id="node3" class="node">
<title>Node7</title>
<g id="a_node3"><a xlink:href="cond__neural_8h.html#abb75bec7bfa987e7374ce0e4b46ba0c1" target="_top" xlink:title="cond_neural_copy">
<polygon fill="none" stroke="#000000" points="215.5,-76.5 215.5,-95.5 310.5,-95.5 310.5,-76.5 215.5,-76.5"/>
<text text-anchor="middle" x="263" y="-83.5" font-family="Helvetica,sans-Serif" font-size="10.00" fill="#000000">cond_neural_copy</text>
</a>
</g>
</g>
<!-- Node6&#45;&gt;Node7 -->
<g id="edge2" class="edge">
<title>Node6&#45;&gt;Node7</title>
<path fill="none" stroke="#191970" d="M176.8891,-60.5353C194.37,-65.7048 214.3022,-71.5991 230.5844,-76.4141"/>
<polygon fill="#191970" stroke="#191970" points="177.508,-57.0686 166.926,-57.589 175.5229,-63.7812 177.508,-57.0686"/>
</g>
<!-- Node8 -->
<g id="node4" class="node">
<title>Node8</title>
<g id="a_node4"><a xlink:href="pred__neural_8h.html#a29c40c10e9a2e2cd52f937d136b76356" target="_top" xlink:title="pred_neural_copy">
<polygon fill="none" stroke="#000000" points="216.5,-38.5 216.5,-57.5 309.5,-57.5 309.5,-38.5 216.5,-38.5"/>
<text text-anchor="middle" x="263" y="-45.5" font-family="Helvetica,sans-Serif" font-size="10.00" fill="#000000">pred_neural_copy</text>
</a>
</g>
</g>
<!-- Node6&#45;&gt;Node8 -->
<g id="edge3" class="edge">
<title>Node6&#45;&gt;Node8</title>
<path fill="none" stroke="#191970" d="M179.4178,-48C191.2985,-48 204.1516,-48 216.1328,-48"/>
<polygon fill="#191970" stroke="#191970" points="179.274,-44.5001 169.274,-48 179.2739,-51.5001 179.274,-44.5001"/>
</g>
<!-- Node9 -->
<g id="node5" class="node">
<title>Node9</title>
<g id="a_node5"><a xlink:href="rule__neural_8h.html#acf4d3de090ff6cf04a2f808da0963845" target="_top" xlink:title="rule_neural_cond_copy">
<polygon fill="none" stroke="#000000" points="205,-.5 205,-19.5 321,-19.5 321,-.5 205,-.5"/>
<text text-anchor="middle" x="263" y="-7.5" font-family="Helvetica,sans-Serif" font-size="10.00" fill="#000000">rule_neural_cond_copy</text>
</a>
</g>
</g>
<!-- Node6&#45;&gt;Node9 -->
<g id="edge4" class="edge">
<title>Node6&#45;&gt;Node9</title>
<path fill="none" stroke="#191970" d="M176.8891,-35.4647C194.37,-30.2952 214.3022,-24.4009 230.5844,-19.5859"/>
<polygon fill="#191970" stroke="#191970" points="175.5229,-32.2188 166.926,-38.411 177.508,-38.9314 175.5229,-32.2188"/>
</g>
</g>
</svg>
