<?xml version="1.0" encoding="UTF-8" standalone="no"?>
<!DOCTYPE svg PUBLIC "-//W3C//DTD SVG 1.1//EN"
 "http://www.w3.org/Graphics/SVG/1.1/DTD/svg11.dtd">
<!-- Generated by graphviz version 2.40.1 (20161225.0304)
 -->
<!-- Title: neural_layer_softmax.h Pages: 1 -->
<svg width="384pt" height="84pt"
 viewBox="0.00 0.00 384.00 84.00" xmlns="http://www.w3.org/2000/svg" xmlns:xlink="http://www.w3.org/1999/xlink">
<g id="graph0" class="graph" transform="scale(1 1) rotate(0) translate(4 80)">
<title>neural_layer_softmax.h</title>
<!-- Node1 -->
<g id="node1" class="node">
<title>Node1</title>
<polygon fill="#bfbfbf" stroke="#000000" points="106.5,-56.5 106.5,-75.5 224.5,-75.5 224.5,-56.5 106.5,-56.5"/>
<text text-anchor="middle" x="165.5" y="-63.5" font-family="Helvetica,sans-Serif" font-size="10.00" fill="#000000">neural_layer_softmax.h</text>
</g>
<!-- Node2 -->
<g id="node2" class="node">
<title>Node2</title>
<g id="a_node2"><a xlink:href="neural_8c.html" target="_top" xlink:title="An implementation of a multi&#45;layer perceptron neural network. ">
<polygon fill="none" stroke="#000000" points="0,-.5 0,-19.5 51,-19.5 51,-.5 0,-.5"/>
<text text-anchor="middle" x="25.5" y="-7.5" font-family="Helvetica,sans-Serif" font-size="10.00" fill="#000000">neural.c</text>
</a>
</g>
</g>
<!-- Node1&#45;&gt;Node2 -->
<g id="edge1" class="edge">
<title>Node1&#45;&gt;Node2</title>
<path fill="none" stroke="#191970" d="M132.1351,-52.6541C106.6048,-42.4419 72.0216,-28.6086 49.2528,-19.5011"/>
<polygon fill="#191970" stroke="#191970" points="130.8485,-55.909 141.4331,-56.3733 133.4483,-49.4096 130.8485,-55.909"/>
</g>
<!-- Node3 -->
<g id="node3" class="node">
<title>Node3</title>
<g id="a_node3"><a xlink:href="neural__layer_8c.html" target="_top" xlink:title="Interface for neural network layers. ">
<polygon fill="none" stroke="#000000" points="69,-.5 69,-19.5 146,-19.5 146,-.5 69,-.5"/>
<text text-anchor="middle" x="107.5" y="-7.5" font-family="Helvetica,sans-Serif" font-size="10.00" fill="#000000">neural_layer.c</text>
</a>
</g>
</g>
<!-- Node1&#45;&gt;Node3 -->
<g id="edge2" class="edge">
<title>Node1&#45;&gt;Node3</title>
<path fill="none" stroke="#191970" d="M147.9707,-49.0751C137.9917,-39.4402 125.8524,-27.7196 117.4871,-19.6427"/>
<polygon fill="#191970" stroke="#191970" points="145.772,-51.8175 155.3972,-56.2455 150.6342,-46.7817 145.772,-51.8175"/>
</g>
<!-- Node4 -->
<g id="node4" class="node">
<title>Node4</title>
<g id="a_node4"><a xlink:href="neural__layer__softmax_8c.html" target="_top" xlink:title="An implementation of a softmax layer. ">
<polygon fill="none" stroke="#000000" points="164.5,-.5 164.5,-19.5 282.5,-19.5 282.5,-.5 164.5,-.5"/>
<text text-anchor="middle" x="223.5" y="-7.5" font-family="Helvetica,sans-Serif" font-size="10.00" fill="#000000">neural_layer_softmax.c</text>
</a>
</g>
</g>
<!-- Node1&#45;&gt;Node4 -->
<g id="edge3" class="edge">
<title>Node1&#45;&gt;Node4</title>
<path fill="none" stroke="#191970" d="M183.0293,-49.0751C193.0083,-39.4402 205.1476,-27.7196 213.5129,-19.6427"/>
<polygon fill="#191970" stroke="#191970" points="180.3658,-46.7817 175.6028,-56.2455 185.228,-51.8175 180.3658,-46.7817"/>
</g>
<!-- Node5 -->
<g id="node5" class="node">
<title>Node5</title>
<g id="a_node5"><a xlink:href="pred__neural_8c.html" target="_top" xlink:title="Multi&#45;layer perceptron neural network prediction functions. ">
<polygon fill="none" stroke="#000000" points="301,-.5 301,-19.5 376,-19.5 376,-.5 301,-.5"/>
<text text-anchor="middle" x="338.5" y="-7.5" font-family="Helvetica,sans-Serif" font-size="10.00" fill="#000000">pred_neural.c</text>
</a>
</g>
</g>
<!-- Node1&#45;&gt;Node5 -->
<g id="edge4" class="edge">
<title>Node1&#45;&gt;Node5</title>
<path fill="none" stroke="#191970" d="M205.0723,-53.1905C236.7671,-42.9309 280.5168,-28.7691 309.1483,-19.5011"/>
<polygon fill="#191970" stroke="#191970" points="203.6758,-49.9636 195.2398,-56.3733 205.8316,-56.6234 203.6758,-49.9636"/>
</g>
</g>
</svg>
