<?xml version="1.0" encoding="UTF-8" standalone="no"?>
<!DOCTYPE svg PUBLIC "-//W3C//DTD SVG 1.1//EN"
 "http://www.w3.org/Graphics/SVG/1.1/DTD/svg11.dtd">
<!-- Generated by graphviz version 2.40.1 (20161225.0304)
 -->
<!-- Title: pred_constant.c Pages: 1 -->
<svg width="692pt" height="84pt"
 viewBox="0.00 0.00 692.00 84.00" xmlns="http://www.w3.org/2000/svg" xmlns:xlink="http://www.w3.org/1999/xlink">
<g id="graph0" class="graph" transform="scale(1 1) rotate(0) translate(4 80)">
<title>pred_constant.c</title>
<!-- Node0 -->
<g id="node1" class="node">
<title>Node0</title>
<polygon fill="#bfbfbf" stroke="#000000" points="285,-56.5 285,-75.5 371,-75.5 371,-56.5 285,-56.5"/>
<text text-anchor="middle" x="328" y="-63.5" font-family="Helvetica,sans-Serif" font-size="10.00" fill="#000000">pred_constant.c</text>
</g>
<!-- Node1 -->
<g id="node2" class="node">
<title>Node1</title>
<polygon fill="none" stroke="#bfbfbf" points="0,-.5 0,-19.5 46,-19.5 46,-.5 0,-.5"/>
<text text-anchor="middle" x="23" y="-7.5" font-family="Helvetica,sans-Serif" font-size="10.00" fill="#000000">stdio.h</text>
</g>
<!-- Node0&#45;&gt;Node1 -->
<g id="edge1" class="edge">
<title>Node0&#45;&gt;Node1</title>
<path fill="none" stroke="#191970" d="M284.6068,-60.5442C232.4531,-53.5786 142.1806,-40.2246 56.2322,-20.0516"/>
<polygon fill="#191970" stroke="#191970" points="56.8556,-16.6022 46.3166,-17.6888 55.2329,-23.4115 56.8556,-16.6022"/>
</g>
<!-- Node2 -->
<g id="node3" class="node">
<title>Node2</title>
<polygon fill="none" stroke="#bfbfbf" points="64,-.5 64,-19.5 112,-19.5 112,-.5 64,-.5"/>
<text text-anchor="middle" x="88" y="-7.5" font-family="Helvetica,sans-Serif" font-size="10.00" fill="#000000">stdlib.h</text>
</g>
<!-- Node0&#45;&gt;Node2 -->
<g id="edge2" class="edge">
<title>Node0&#45;&gt;Node2</title>
<path fill="none" stroke="#191970" d="M284.9562,-57.4242C245.062,-49.2553 183.8721,-36.1682 122.0202,-20.129"/>
<polygon fill="#191970" stroke="#191970" points="122.6512,-16.6763 112.0908,-17.5297 120.8785,-23.4481 122.6512,-16.6763"/>
</g>
<!-- Node3 -->
<g id="node4" class="node">
<title>Node3</title>
<polygon fill="none" stroke="#bfbfbf" points="130.5,-.5 130.5,-19.5 179.5,-19.5 179.5,-.5 130.5,-.5"/>
<text text-anchor="middle" x="155" y="-7.5" font-family="Helvetica,sans-Serif" font-size="10.00" fill="#000000">string.h</text>
</g>
<!-- Node0&#45;&gt;Node3 -->
<g id="edge3" class="edge">
<title>Node0&#45;&gt;Node3</title>
<path fill="none" stroke="#191970" d="M298.2602,-56.3733C268.011,-46.5816 221.1813,-31.4229 189.3637,-21.1235"/>
<polygon fill="#191970" stroke="#191970" points="190.1927,-17.7131 179.6008,-17.9633 188.0369,-24.3729 190.1927,-17.7131"/>
</g>
<!-- Node4 -->
<g id="node5" class="node">
<title>Node4</title>
<polygon fill="none" stroke="#bfbfbf" points="198,-.5 198,-19.5 254,-19.5 254,-.5 198,-.5"/>
<text text-anchor="middle" x="226" y="-7.5" font-family="Helvetica,sans-Serif" font-size="10.00" fill="#000000">stdbool.h</text>
</g>
<!-- Node0&#45;&gt;Node4 -->
<g id="edge4" class="edge">
<title>Node0&#45;&gt;Node4</title>
<path fill="none" stroke="#191970" d="M310.233,-56.2455C294.2905,-47.4928 270.6741,-34.527 252.5011,-24.5496"/>
<polygon fill="#191970" stroke="#191970" points="254.0137,-21.3873 243.5634,-19.6427 250.6448,-27.5233 254.0137,-21.3873"/>
</g>
<!-- Node5 -->
<g id="node6" class="node">
<title>Node5</title>
<polygon fill="none" stroke="#bfbfbf" points="272.5,-.5 272.5,-19.5 319.5,-19.5 319.5,-.5 272.5,-.5"/>
<text text-anchor="middle" x="296" y="-7.5" font-family="Helvetica,sans-Serif" font-size="10.00" fill="#000000">math.h</text>
</g>
<!-- Node0&#45;&gt;Node5 -->
<g id="edge5" class="edge">
<title>Node0&#45;&gt;Node5</title>
<path fill="none" stroke="#191970" d="M322.426,-56.2455C318.0669,-48.617 311.8789,-37.7881 306.5867,-28.5267"/>
<polygon fill="#191970" stroke="#191970" points="309.5104,-26.5886 301.5101,-19.6427 303.4327,-30.0616 309.5104,-26.5886"/>
</g>
<!-- Node6 -->
<g id="node7" class="node">
<title>Node6</title>
<g id="a_node7"><a xlink:href="xcsf_8h.html" target="_top" xlink:title="XCSF data structures. ">
<polygon fill="none" stroke="#000000" points="338,-.5 338,-19.5 382,-19.5 382,-.5 338,-.5"/>
<text text-anchor="middle" x="360" y="-7.5" font-family="Helvetica,sans-Serif" font-size="10.00" fill="#000000">xcsf.h</text>
</a>
</g>
</g>
<!-- Node0&#45;&gt;Node6 -->
<g id="edge6" class="edge">
<title>Node0&#45;&gt;Node6</title>
<path fill="none" stroke="#191970" d="M333.574,-56.2455C337.9331,-48.617 344.1211,-37.7881 349.4133,-28.5267"/>
<polygon fill="#191970" stroke="#191970" points="352.5673,-30.0616 354.4899,-19.6427 346.4896,-26.5886 352.5673,-30.0616"/>
</g>
<!-- Node7 -->
<g id="node8" class="node">
<title>Node7</title>
<g id="a_node8"><a xlink:href="utils_8h.html" target="_top" xlink:title="Utility functions for random number handling, etc. ">
<polygon fill="none" stroke="#000000" points="400.5,-.5 400.5,-19.5 443.5,-19.5 443.5,-.5 400.5,-.5"/>
<text text-anchor="middle" x="422" y="-7.5" font-family="Helvetica,sans-Serif" font-size="10.00" fill="#000000">utils.h</text>
</a>
</g>
</g>
<!-- Node0&#45;&gt;Node7 -->
<g id="edge7" class="edge">
<title>Node0&#45;&gt;Node7</title>
<path fill="none" stroke="#191970" d="M344.3736,-56.2455C358.9308,-47.5731 380.431,-34.7645 397.1152,-24.825"/>
<polygon fill="#191970" stroke="#191970" points="399.0144,-27.7676 405.8141,-19.6427 395.4317,-21.7539 399.0144,-27.7676"/>
</g>
<!-- Node8 -->
<g id="node9" class="node">
<title>Node8</title>
<g id="a_node9"><a xlink:href="cl_8h.html" target="_top" xlink:title="Functions operating on classifiers. ">
<polygon fill="none" stroke="#000000" points="462,-.5 462,-19.5 494,-19.5 494,-.5 462,-.5"/>
<text text-anchor="middle" x="478" y="-7.5" font-family="Helvetica,sans-Serif" font-size="10.00" fill="#000000">cl.h</text>
</a>
</g>
</g>
<!-- Node0&#45;&gt;Node8 -->
<g id="edge8" class="edge">
<title>Node0&#45;&gt;Node8</title>
<path fill="none" stroke="#191970" d="M354.9031,-56.345C378.3896,-47.8625 413.6017,-35.0168 452.4728,-20.1379"/>
<polygon fill="#191970" stroke="#191970" points="453.808,-23.3744 461.888,-16.5214 451.2979,-16.8399 453.808,-23.3744"/>
</g>
<!-- Node9 -->
<g id="node10" class="node">
<title>Node9</title>
<g id="a_node10"><a xlink:href="prediction_8h.html" target="_top" xlink:title="Interface for classifier predictions. ">
<polygon fill="none" stroke="#000000" points="512.5,-.5 512.5,-19.5 579.5,-19.5 579.5,-.5 512.5,-.5"/>
<text text-anchor="middle" x="546" y="-7.5" font-family="Helvetica,sans-Serif" font-size="10.00" fill="#000000">prediction.h</text>
</a>
</g>
</g>
<!-- Node0&#45;&gt;Node9 -->
<g id="edge9" class="edge">
<title>Node0&#45;&gt;Node9</title>
<path fill="none" stroke="#191970" d="M365.4755,-56.3733C403.5203,-46.6003 462.3787,-31.4807 502.468,-21.1825"/>
<polygon fill="#191970" stroke="#191970" points="503.417,-24.5525 512.2317,-18.6744 501.6753,-17.7726 503.417,-24.5525"/>
</g>
<!-- Node10 -->
<g id="node11" class="node">
<title>Node10</title>
<g id="a_node11"><a xlink:href="pred__constant_8h.html" target="_top" xlink:title="Piece&#45;wise constant prediction functions. ">
<polygon fill="none" stroke="#000000" points="598,-.5 598,-19.5 684,-19.5 684,-.5 598,-.5"/>
<text text-anchor="middle" x="641" y="-7.5" font-family="Helvetica,sans-Serif" font-size="10.00" fill="#000000">pred_constant.h</text>
</a>
</g>
</g>
<!-- Node0&#45;&gt;Node10 -->
<g id="edge10" class="edge">
<title>Node0&#45;&gt;Node10</title>
<path fill="none" stroke="#191970" d="M371.4474,-58.5551C421.2536,-49.9734 505.6134,-35.2944 587.8621,-20.1896"/>
<polygon fill="#191970" stroke="#191970" points="588.6783,-23.5983 597.8795,-18.3458 587.4111,-16.7139 588.6783,-23.5983"/>
</g>
</g>
</svg>
